<?xml version="1.0" encoding="UTF-8" standalone="no"?>
<!DOCTYPE svg PUBLIC "-//W3C//DTD SVG 1.1//EN"
 "http://www.w3.org/Graphics/SVG/1.1/DTD/svg11.dtd">
<!-- Generated by graphviz version 12.2.1 (20241206.2353)
 -->
<!-- Title: CLG Pages: 1 -->
<svg width="373pt" height="430pt"
 viewBox="0.00 0.00 372.68 429.60" xmlns="http://www.w3.org/2000/svg" xmlns:xlink="http://www.w3.org/1999/xlink">
<g id="graph0" class="graph" transform="scale(1 1) rotate(0) translate(4 425.6)">
<title>CLG</title>
<polygon fill="white" stroke="none" points="-4,4 -4,-425.6 368.68,-425.6 368.68,4 -4,4"/>
<!-- 18 -->
<g id="node1" class="node">
<title>18</title>
<polygon fill="aquamarine" stroke="black" points="222.12,-338.2 214.93,-331 222.12,-323.8 229.32,-331 222.12,-338.2"/>
<text text-anchor="middle" x="199.93" y="-341.4" font-family="Times New Roman,serif" font-size="14.00">&lt;18&gt;</text>
</g>
<!-- 4 -->
<g id="node3" class="node">
<title>4</title>
<polygon fill="yellow" stroke="black" points="210.12,-271.3 128.12,-271.3 128.12,-230.3 210.12,-230.3 210.12,-271.3"/>
<text text-anchor="middle" x="169.12" y="-254" font-family="Times New Roman,serif" font-size="14.00">score &lt; 0 or</text>
<text text-anchor="middle" x="169.12" y="-237.5" font-family="Times New Roman,serif" font-size="14.00">score &gt; 100</text>
<text text-anchor="middle" x="120.25" y="-274.5" font-family="Times New Roman,serif" font-size="14.00">[4]</text>
</g>
<!-- 18&#45;&gt;4 -->
<g id="edge1" class="edge">
<title>18&#45;&gt;4</title>
<path fill="none" stroke="black" d="M218.7,-326.76C214.09,-322.31 205.8,-313.91 199.88,-305.8 194.37,-298.26 189.08,-289.66 184.48,-281.56"/>
<polygon fill="black" stroke="black" points="187.68,-280.11 179.79,-273.03 181.54,-283.48 187.68,-280.11"/>
<text text-anchor="middle" x="225" y="-292.5" font-family="Times New Roman,serif" font-size="14.00">split2#16</text>
</g>
<!-- 10 -->
<g id="node7" class="node">
<title>10</title>
<polygon fill="yellow" stroke="black" points="334.38,-271.3 235.88,-271.3 235.88,-230.3 334.38,-230.3 334.38,-271.3"/>
<text text-anchor="middle" x="285.12" y="-254" font-family="Times New Roman,serif" font-size="14.00">score &gt;= 0 and</text>
<text text-anchor="middle" x="285.12" y="-237.5" font-family="Times New Roman,serif" font-size="14.00">score &lt;= 100</text>
<text text-anchor="middle" x="224.62" y="-274.5" font-family="Times New Roman,serif" font-size="14.00">[10]</text>
</g>
<!-- 18&#45;&gt;10 -->
<g id="edge8" class="edge">
<title>18&#45;&gt;10</title>
<path fill="none" stroke="black" d="M226.05,-327.17C231.77,-322.94 242.53,-314.52 250.12,-305.8 256.59,-298.37 262.76,-289.66 268.06,-281.42"/>
<polygon fill="black" stroke="black" points="270.97,-283.36 273.27,-273.02 265.02,-279.68 270.97,-283.36"/>
<text text-anchor="middle" x="287.13" y="-292.5" font-family="Times New Roman,serif" font-size="14.00">split1#15</text>
</g>
<!-- 19 -->
<g id="node2" class="node">
<title>19</title>
<polygon fill="aquamarine" stroke="black" points="206.12,-89.3 198.93,-82.1 206.12,-74.9 213.32,-82.1 206.12,-89.3"/>
<text text-anchor="middle" x="183.93" y="-92.5" font-family="Times New Roman,serif" font-size="14.00">&lt;19&gt;</text>
</g>
<!-- 8 -->
<g id="node5" class="node">
<title>8</title>
<ellipse fill="black" stroke="black" cx="206.12" cy="-11.2" rx="7.2" ry="7.2"/>
<ellipse fill="none" stroke="black" cx="206.12" cy="-11.2" rx="11.2" ry="11.2"/>
<text text-anchor="middle" x="184.8" y="-25.6" font-family="Times New Roman,serif" font-size="14.00">[&#45;1]</text>
</g>
<!-- 19&#45;&gt;8 -->
<g id="edge4" class="edge">
<title>19&#45;&gt;8</title>
<path fill="none" stroke="black" d="M206.12,-74.24C206.12,-64.87 206.12,-47.63 206.12,-33.7"/>
<polygon fill="black" stroke="black" points="209.63,-34.11 206.13,-24.11 202.63,-34.11 209.63,-34.11"/>
<text text-anchor="middle" x="251.88" y="-43.6" font-family="Times New Roman,serif" font-size="14.00">graphOr_end#19</text>
</g>
<!-- 7 -->
<g id="node4" class="node">
<title>7</title>
<polygon fill="yellow" stroke="black" points="224.5,-177.8 15.75,-177.8 15.75,-141.8 224.5,-141.8 224.5,-177.8"/>
<text text-anchor="middle" x="120.12" y="-154.75" font-family="Times New Roman,serif" font-size="14.00">Result = &#39;illegalargumentexception&#39;</text>
<text text-anchor="middle" x="7.88" y="-181" font-family="Times New Roman,serif" font-size="14.00">[7]</text>
</g>
<!-- 4&#45;&gt;7 -->
<g id="edge5" class="edge">
<title>4&#45;&gt;7</title>
<path fill="none" stroke="black" d="M158.25,-230.05C151.42,-217.64 142.52,-201.47 135.03,-187.88"/>
<polygon fill="black" stroke="black" points="138.26,-186.49 130.38,-179.42 132.13,-189.87 138.26,-186.49"/>
<text text-anchor="middle" x="184.68" y="-199" font-family="Times New Roman,serif" font-size="14.00">graphAnd#10</text>
</g>
<!-- 7&#45;&gt;19 -->
<g id="edge3" class="edge">
<title>7&#45;&gt;19</title>
<path fill="none" stroke="black" d="M139.64,-141.62C156.39,-126.88 180,-106.1 194.11,-93.68"/>
<polygon fill="black" stroke="black" points="196.14,-96.55 201.34,-87.31 191.52,-91.3 196.14,-96.55"/>
<text text-anchor="middle" x="209.06" y="-110.5" font-family="Times New Roman,serif" font-size="14.00">merge2#18</text>
</g>
<!-- 9 -->
<g id="node6" class="node">
<title>9</title>
<ellipse fill="black" stroke="black" cx="222.12" cy="-397.9" rx="7.2" ry="7.2"/>
<text text-anchor="middle" x="207.05" y="-408.3" font-family="Times New Roman,serif" font-size="14.00">[0]</text>
</g>
<!-- 9&#45;&gt;18 -->
<g id="edge7" class="edge">
<title>9&#45;&gt;18</title>
<path fill="none" stroke="black" d="M222.12,-390.44C222.12,-381.11 222.12,-363.51 222.12,-350.05"/>
<polygon fill="black" stroke="black" points="225.63,-350.34 222.13,-340.34 218.63,-350.34 225.63,-350.34"/>
<text text-anchor="middle" x="269.75" y="-359.4" font-family="Times New Roman,serif" font-size="14.00">graphOr_start#14</text>
</g>
<!-- 13 -->
<g id="node8" class="node">
<title>13</title>
<polygon fill="yellow" stroke="black" points="345.25,-177.8 243,-177.8 243,-141.8 345.25,-141.8 345.25,-177.8"/>
<text text-anchor="middle" x="294.12" y="-154.75" font-family="Times New Roman,serif" font-size="14.00">number = score</text>
<text text-anchor="middle" x="231.75" y="-181" font-family="Times New Roman,serif" font-size="14.00">[13]</text>
</g>
<!-- 10&#45;&gt;13 -->
<g id="edge6" class="edge">
<title>10&#45;&gt;13</title>
<path fill="none" stroke="black" d="M287.12,-230.05C288.33,-218.13 289.88,-202.74 291.22,-189.49"/>
<polygon fill="black" stroke="black" points="294.7,-189.9 292.22,-179.6 287.74,-189.19 294.7,-189.9"/>
<text text-anchor="middle" x="327.56" y="-199" font-family="Times New Roman,serif" font-size="14.00">graphAnd#11</text>
</g>
<!-- 13&#45;&gt;19 -->
<g id="edge2" class="edge">
<title>13&#45;&gt;19</title>
<path fill="none" stroke="black" d="M279.27,-141.57C269.77,-131.06 256.88,-117.69 244.12,-107.3 236.64,-101.21 227.55,-95.36 220.13,-90.95"/>
<polygon fill="black" stroke="black" points="222.06,-88.02 211.65,-86.1 218.59,-94.1 222.06,-88.02"/>
<text text-anchor="middle" x="292.42" y="-110.5" font-family="Times New Roman,serif" font-size="14.00">merge1#17</text>
</g>
</g>
</svg>
