<?xml version="1.0" encoding="UTF-8" standalone="no"?>
<!DOCTYPE svg PUBLIC "-//W3C//DTD SVG 1.1//EN"
 "http://www.w3.org/Graphics/SVG/1.1/DTD/svg11.dtd">
<!-- Generated by graphviz version 12.2.1 (20241206.2353)
 -->
<!-- Title: CLG Pages: 1 -->
<svg width="349pt" height="600pt"
 viewBox="0.00 0.00 349.12 599.50" xmlns="http://www.w3.org/2000/svg" xmlns:xlink="http://www.w3.org/1999/xlink">
<g id="graph0" class="graph" transform="scale(1 1) rotate(0) translate(4 595.5)">
<title>CLG</title>
<polygon fill="white" stroke="none" points="-4,4 -4,-595.5 345.12,-595.5 345.12,4 -4,4"/>
<!-- 32 -->
<g id="node1" class="node">
<title>32</title>
<polygon fill="aquamarine" stroke="black" points="199.88,-508.1 192.68,-500.9 199.88,-493.7 207.07,-500.9 199.88,-508.1"/>
<text text-anchor="middle" x="177.68" y="-511.3" font-family="Times New Roman,serif" font-size="14.00">&lt;32&gt;</text>
</g>
<!-- 12 -->
<g id="node5" class="node">
<title>12</title>
<polygon fill="aquamarine" stroke="black" points="163.88,-430.4 156.68,-423.2 163.88,-416 171.07,-423.2 163.88,-430.4"/>
<text text-anchor="middle" x="141.68" y="-433.6" font-family="Times New Roman,serif" font-size="14.00">&lt;12&gt;</text>
</g>
<!-- 32&#45;&gt;12 -->
<g id="edge2" class="edge">
<title>32&#45;&gt;12</title>
<path fill="none" stroke="black" d="M195.79,-497.7C189.46,-494.05 177.38,-486.09 171.62,-475.7 165.96,-465.47 164.04,-452.42 163.53,-442.02"/>
<polygon fill="black" stroke="black" points="167.03,-442.17 163.47,-432.19 160.03,-442.21 167.03,-442.17"/>
<text text-anchor="middle" x="196.75" y="-462.4" font-family="Times New Roman,serif" font-size="14.00">split2#33</text>
</g>
<!-- 18 -->
<g id="node10" class="node">
<title>18</title>
<polygon fill="yellow" stroke="black" points="285.5,-441.2 210.25,-441.2 210.25,-405.2 285.5,-405.2 285.5,-441.2"/>
<text text-anchor="middle" x="247.88" y="-418.15" font-family="Times New Roman,serif" font-size="14.00">score &gt;= 0</text>
<text text-anchor="middle" x="199" y="-444.4" font-family="Times New Roman,serif" font-size="14.00">[18]</text>
</g>
<!-- 32&#45;&gt;18 -->
<g id="edge1" class="edge">
<title>32&#45;&gt;18</title>
<path fill="none" stroke="black" d="M203.32,-496.7C207.94,-492.28 216.21,-483.93 221.88,-475.7 226.95,-468.33 231.65,-459.82 235.62,-451.88"/>
<polygon fill="black" stroke="black" points="238.75,-453.45 239.89,-442.92 232.43,-450.44 238.75,-453.45"/>
<text text-anchor="middle" x="256.82" y="-462.4" font-family="Times New Roman,serif" font-size="14.00">split1#32</text>
</g>
<!-- 33 -->
<g id="node2" class="node">
<title>33</title>
<polygon fill="aquamarine" stroke="black" points="196.88,-89.3 189.68,-82.1 196.88,-74.9 204.07,-82.1 196.88,-89.3"/>
<text text-anchor="middle" x="174.68" y="-92.5" font-family="Times New Roman,serif" font-size="14.00">&lt;33&gt;</text>
</g>
<!-- 16 -->
<g id="node8" class="node">
<title>16</title>
<ellipse fill="black" stroke="black" cx="196.88" cy="-11.2" rx="7.2" ry="7.2"/>
<ellipse fill="none" stroke="black" cx="196.88" cy="-11.2" rx="11.2" ry="11.2"/>
<text text-anchor="middle" x="175.55" y="-25.6" font-family="Times New Roman,serif" font-size="14.00">[&#45;1]</text>
</g>
<!-- 33&#45;&gt;16 -->
<g id="edge5" class="edge">
<title>33&#45;&gt;16</title>
<path fill="none" stroke="black" d="M196.88,-74.24C196.88,-64.87 196.88,-47.63 196.88,-33.7"/>
<polygon fill="black" stroke="black" points="200.38,-34.11 196.88,-24.11 193.38,-34.11 200.38,-34.11"/>
<text text-anchor="middle" x="242.62" y="-43.6" font-family="Times New Roman,serif" font-size="14.00">graphOr_end#36</text>
</g>
<!-- 7 -->
<g id="node3" class="node">
<title>7</title>
<polygon fill="yellow" stroke="black" points="105.38,-352.7 38.38,-352.7 38.38,-316.7 105.38,-316.7 105.38,-352.7"/>
<text text-anchor="middle" x="71.88" y="-329.65" font-family="Times New Roman,serif" font-size="14.00">score &lt; 0</text>
<text text-anchor="middle" x="30.5" y="-355.9" font-family="Times New Roman,serif" font-size="14.00">[7]</text>
</g>
<!-- 13 -->
<g id="node6" class="node">
<title>13</title>
<polygon fill="aquamarine" stroke="black" points="126.88,-264.2 119.67,-257 126.88,-249.8 134.07,-257 126.88,-264.2"/>
<text text-anchor="middle" x="104.67" y="-267.4" font-family="Times New Roman,serif" font-size="14.00">&lt;13&gt;</text>
</g>
<!-- 7&#45;&gt;13 -->
<g id="edge8" class="edge">
<title>7&#45;&gt;13</title>
<path fill="none" stroke="black" d="M68.05,-316.56C66.63,-305.82 66.73,-292.18 73.38,-282.2 81.51,-269.98 97.42,-263.85 109.78,-260.83"/>
<polygon fill="black" stroke="black" points="110.27,-264.3 119.42,-258.96 108.94,-257.43 110.27,-264.3"/>
<text text-anchor="middle" x="104.12" y="-285.4" font-family="Times New Roman,serif" font-size="14.00">merge1#12</text>
</g>
<!-- 10 -->
<g id="node4" class="node">
<title>10</title>
<polygon fill="yellow" stroke="black" points="204.12,-352.7 123.62,-352.7 123.62,-316.7 204.12,-316.7 204.12,-352.7"/>
<text text-anchor="middle" x="163.88" y="-329.65" font-family="Times New Roman,serif" font-size="14.00">score &gt; 100</text>
<text text-anchor="middle" x="112.38" y="-355.9" font-family="Times New Roman,serif" font-size="14.00">[10]</text>
</g>
<!-- 10&#45;&gt;13 -->
<g id="edge9" class="edge">
<title>10&#45;&gt;13</title>
<path fill="none" stroke="black" d="M155.58,-316.52C150.73,-306.5 144.48,-293.62 138.88,-282.2 137.34,-279.07 135.68,-275.72 134.11,-272.54"/>
<polygon fill="black" stroke="black" points="137.36,-271.21 129.77,-263.81 131.09,-274.32 137.36,-271.21"/>
<text text-anchor="middle" x="177.22" y="-285.4" font-family="Times New Roman,serif" font-size="14.00">merge2#13</text>
</g>
<!-- 12&#45;&gt;7 -->
<g id="edge6" class="edge">
<title>12&#45;&gt;7</title>
<path fill="none" stroke="black" d="M159.27,-419.97C149.4,-415.03 125.78,-402.42 109.62,-387.2 101.97,-379.99 94.8,-371.05 88.82,-362.65"/>
<polygon fill="black" stroke="black" points="91.74,-360.73 83.22,-354.43 85.95,-364.67 91.74,-360.73"/>
<text text-anchor="middle" x="134.75" y="-373.9" font-family="Times New Roman,serif" font-size="14.00">split1#10</text>
</g>
<!-- 12&#45;&gt;10 -->
<g id="edge7" class="edge">
<title>12&#45;&gt;10</title>
<path fill="none" stroke="black" d="M163.88,-415.41C163.88,-404.55 163.88,-382.65 163.88,-364.55"/>
<polygon fill="black" stroke="black" points="167.38,-364.59 163.88,-354.59 160.38,-364.59 167.38,-364.59"/>
<text text-anchor="middle" x="189" y="-373.9" font-family="Times New Roman,serif" font-size="14.00">split2#11</text>
</g>
<!-- 15 -->
<g id="node7" class="node">
<title>15</title>
<polygon fill="yellow" stroke="black" points="231.25,-177.8 22.5,-177.8 22.5,-141.8 231.25,-141.8 231.25,-177.8"/>
<text text-anchor="middle" x="126.88" y="-154.75" font-family="Times New Roman,serif" font-size="14.00">Result = &#39;illegalargumentexception&#39;</text>
<text text-anchor="middle" x="11.25" y="-181" font-family="Times New Roman,serif" font-size="14.00">[15]</text>
</g>
<!-- 13&#45;&gt;15 -->
<g id="edge11" class="edge">
<title>13&#45;&gt;15</title>
<path fill="none" stroke="black" d="M126.88,-249.15C126.88,-236.82 126.88,-210.23 126.88,-189.42"/>
<polygon fill="black" stroke="black" points="130.38,-189.5 126.88,-179.5 123.38,-189.5 130.38,-189.5"/>
<text text-anchor="middle" x="164" y="-208.75" font-family="Times New Roman,serif" font-size="14.00">graphAnd#24</text>
</g>
<!-- 15&#45;&gt;33 -->
<g id="edge4" class="edge">
<title>15&#45;&gt;33</title>
<path fill="none" stroke="black" d="M142.76,-141.62C156,-127.3 174.51,-107.29 186.08,-94.77"/>
<polygon fill="black" stroke="black" points="188.4,-97.42 192.62,-87.7 183.26,-92.66 188.4,-97.42"/>
<text text-anchor="middle" x="204.98" y="-110.5" font-family="Times New Roman,serif" font-size="14.00">merge2#35</text>
</g>
<!-- 17 -->
<g id="node9" class="node">
<title>17</title>
<ellipse fill="black" stroke="black" cx="199.88" cy="-567.8" rx="7.2" ry="7.2"/>
<text text-anchor="middle" x="184.8" y="-578.2" font-family="Times New Roman,serif" font-size="14.00">[0]</text>
</g>
<!-- 17&#45;&gt;32 -->
<g id="edge13" class="edge">
<title>17&#45;&gt;32</title>
<path fill="none" stroke="black" d="M199.88,-560.34C199.88,-551.01 199.88,-533.41 199.88,-519.95"/>
<polygon fill="black" stroke="black" points="203.38,-520.24 199.88,-510.24 196.38,-520.24 203.38,-520.24"/>
<text text-anchor="middle" x="247.5" y="-529.3" font-family="Times New Roman,serif" font-size="14.00">graphOr_start#31</text>
</g>
<!-- 21 -->
<g id="node11" class="node">
<title>21</title>
<polygon fill="yellow" stroke="black" points="311.25,-352.7 222.5,-352.7 222.5,-316.7 311.25,-316.7 311.25,-352.7"/>
<text text-anchor="middle" x="266.88" y="-329.65" font-family="Times New Roman,serif" font-size="14.00">score &lt;= 100</text>
<text text-anchor="middle" x="211.25" y="-355.9" font-family="Times New Roman,serif" font-size="14.00">[21]</text>
</g>
<!-- 18&#45;&gt;21 -->
<g id="edge10" class="edge">
<title>18&#45;&gt;21</title>
<path fill="none" stroke="black" d="M251.63,-405.11C254.19,-393.46 257.64,-377.75 260.61,-364.22"/>
<polygon fill="black" stroke="black" points="264.01,-365.05 262.74,-354.53 257.18,-363.54 264.01,-365.05"/>
<text text-anchor="middle" x="296.2" y="-373.9" font-family="Times New Roman,serif" font-size="14.00">graphAnd#21</text>
</g>
<!-- 24 -->
<g id="node12" class="node">
<title>24</title>
<polygon fill="yellow" stroke="black" points="318,-231.8 215.75,-231.8 215.75,-195.8 318,-195.8 318,-231.8"/>
<text text-anchor="middle" x="266.88" y="-208.75" font-family="Times New Roman,serif" font-size="14.00">number = score</text>
<text text-anchor="middle" x="204.5" y="-235" font-family="Times New Roman,serif" font-size="14.00">[24]</text>
</g>
<!-- 21&#45;&gt;24 -->
<g id="edge12" class="edge">
<title>21&#45;&gt;24</title>
<path fill="none" stroke="black" d="M266.88,-316.41C266.88,-297.3 266.88,-266.22 266.88,-243.46"/>
<polygon fill="black" stroke="black" points="270.38,-243.62 266.88,-233.62 263.38,-243.62 270.38,-243.62"/>
<text text-anchor="middle" x="304" y="-285.4" font-family="Times New Roman,serif" font-size="14.00">graphAnd#25</text>
</g>
<!-- 24&#45;&gt;33 -->
<g id="edge3" class="edge">
<title>24&#45;&gt;33</title>
<path fill="none" stroke="black" d="M266.52,-195.68C265.24,-173.21 260.01,-133.55 239.88,-107.3 233.06,-98.42 222.01,-92.3 212.81,-88.44"/>
<polygon fill="black" stroke="black" points="214.02,-85.15 203.42,-85.04 211.63,-91.73 214.02,-85.15"/>
<text text-anchor="middle" x="295.43" y="-154.75" font-family="Times New Roman,serif" font-size="14.00">merge1#34</text>
</g>
</g>
</svg>
