<?xml version="1.0" encoding="UTF-8" standalone="no"?>
<!DOCTYPE svg PUBLIC "-//W3C//DTD SVG 1.1//EN"
 "http://www.w3.org/Graphics/SVG/1.1/DTD/svg11.dtd">
<!-- Generated by graphviz version 12.2.1 (20241206.2353)
 -->
<!-- Title: CLG Pages: 1 -->
<svg width="374pt" height="463pt"
 viewBox="0.00 0.00 373.91 462.60" xmlns="http://www.w3.org/2000/svg" xmlns:xlink="http://www.w3.org/1999/xlink">
<g id="graph0" class="graph" transform="scale(1 1) rotate(0) translate(4 458.6)">
<title>CLG</title>
<polygon fill="white" stroke="none" points="-4,4 -4,-458.6 369.91,-458.6 369.91,4 -4,4"/>
<!-- 18 -->
<g id="node1" class="node">
<title>18</title>
<polygon fill="aquamarine" stroke="black" points="220.12,-371.2 212.93,-364 220.12,-356.8 227.32,-364 220.12,-371.2"/>
<text text-anchor="middle" x="197.93" y="-374.4" font-family="Times New Roman,serif" font-size="14.00">&lt;18&gt;</text>
</g>
<!-- 4 -->
<g id="node3" class="node">
<title>4</title>
<polygon fill="yellow" stroke="black" points="213,-304.3 109.25,-304.3 109.25,-230.3 213,-230.3 213,-304.3"/>
<text text-anchor="middle" x="161.12" y="-287" font-family="Times New Roman,serif" font-size="14.00">score &lt; 0 and</text>
<text text-anchor="middle" x="161.12" y="-270.5" font-family="Times New Roman,serif" font-size="14.00">score &lt;= 100 or</text>
<text text-anchor="middle" x="161.12" y="-254" font-family="Times New Roman,serif" font-size="14.00">score &gt;= 0 and</text>
<text text-anchor="middle" x="161.12" y="-237.5" font-family="Times New Roman,serif" font-size="14.00">score &gt; 100</text>
<text text-anchor="middle" x="101.38" y="-307.5" font-family="Times New Roman,serif" font-size="14.00">[4]</text>
</g>
<!-- 18&#45;&gt;4 -->
<g id="edge1" class="edge">
<title>18&#45;&gt;4</title>
<path fill="none" stroke="black" d="M217.02,-359.72C212.85,-355.21 205.32,-346.76 199.88,-338.8 194.66,-331.18 189.56,-322.79 184.85,-314.54"/>
<polygon fill="black" stroke="black" points="187.99,-312.97 180.07,-305.93 181.87,-316.37 187.99,-312.97"/>
<text text-anchor="middle" x="225" y="-325.5" font-family="Times New Roman,serif" font-size="14.00">split2#16</text>
</g>
<!-- 10 -->
<g id="node7" class="node">
<title>10</title>
<polygon fill="yellow" stroke="black" points="336.38,-287.8 237.88,-287.8 237.88,-246.8 336.38,-246.8 336.38,-287.8"/>
<text text-anchor="middle" x="287.12" y="-270.5" font-family="Times New Roman,serif" font-size="14.00">score &gt;= 0 and</text>
<text text-anchor="middle" x="287.12" y="-254" font-family="Times New Roman,serif" font-size="14.00">score &lt;= 100</text>
<text text-anchor="middle" x="226.62" y="-291" font-family="Times New Roman,serif" font-size="14.00">[10]</text>
</g>
<!-- 18&#45;&gt;10 -->
<g id="edge8" class="edge">
<title>18&#45;&gt;10</title>
<path fill="none" stroke="black" d="M224.05,-360.59C230.23,-356.65 242.31,-348.31 250.12,-338.8 260,-326.78 268.34,-311.71 274.59,-298.59"/>
<polygon fill="black" stroke="black" points="277.76,-300.07 278.7,-289.52 271.38,-297.18 277.76,-300.07"/>
<text text-anchor="middle" x="286.57" y="-325.5" font-family="Times New Roman,serif" font-size="14.00">split1#15</text>
</g>
<!-- 19 -->
<g id="node2" class="node">
<title>19</title>
<polygon fill="aquamarine" stroke="black" points="206.12,-89.3 198.93,-82.1 206.12,-74.9 213.32,-82.1 206.12,-89.3"/>
<text text-anchor="middle" x="183.93" y="-92.5" font-family="Times New Roman,serif" font-size="14.00">&lt;19&gt;</text>
</g>
<!-- 8 -->
<g id="node5" class="node">
<title>8</title>
<ellipse fill="black" stroke="black" cx="206.12" cy="-11.2" rx="7.2" ry="7.2"/>
<ellipse fill="none" stroke="black" cx="206.12" cy="-11.2" rx="11.2" ry="11.2"/>
<text text-anchor="middle" x="184.8" y="-25.6" font-family="Times New Roman,serif" font-size="14.00">[&#45;1]</text>
</g>
<!-- 19&#45;&gt;8 -->
<g id="edge4" class="edge">
<title>19&#45;&gt;8</title>
<path fill="none" stroke="black" d="M206.12,-74.24C206.12,-64.87 206.12,-47.63 206.12,-33.7"/>
<polygon fill="black" stroke="black" points="209.63,-34.11 206.13,-24.11 202.63,-34.11 209.63,-34.11"/>
<text text-anchor="middle" x="251.88" y="-43.6" font-family="Times New Roman,serif" font-size="14.00">graphOr_end#19</text>
</g>
<!-- 7 -->
<g id="node4" class="node">
<title>7</title>
<polygon fill="yellow" stroke="black" points="224.5,-177.8 15.75,-177.8 15.75,-141.8 224.5,-141.8 224.5,-177.8"/>
<text text-anchor="middle" x="120.12" y="-154.75" font-family="Times New Roman,serif" font-size="14.00">Result = &#39;illegalargumentexception&#39;</text>
<text text-anchor="middle" x="7.88" y="-181" font-family="Times New Roman,serif" font-size="14.00">[7]</text>
</g>
<!-- 4&#45;&gt;7 -->
<g id="edge5" class="edge">
<title>4&#45;&gt;7</title>
<path fill="none" stroke="black" d="M147.02,-229.99C141.75,-216.44 135.86,-201.28 130.93,-188.61"/>
<polygon fill="black" stroke="black" points="134.33,-187.68 127.44,-179.63 127.8,-190.22 134.33,-187.68"/>
<text text-anchor="middle" x="176.52" y="-199" font-family="Times New Roman,serif" font-size="14.00">graphAnd#10</text>
</g>
<!-- 7&#45;&gt;19 -->
<g id="edge3" class="edge">
<title>7&#45;&gt;19</title>
<path fill="none" stroke="black" d="M139.64,-141.62C156.39,-126.88 180,-106.1 194.11,-93.68"/>
<polygon fill="black" stroke="black" points="196.14,-96.55 201.34,-87.31 191.52,-91.3 196.14,-96.55"/>
<text text-anchor="middle" x="209.06" y="-110.5" font-family="Times New Roman,serif" font-size="14.00">merge2#18</text>
</g>
<!-- 9 -->
<g id="node6" class="node">
<title>9</title>
<ellipse fill="black" stroke="black" cx="220.12" cy="-430.9" rx="7.2" ry="7.2"/>
<text text-anchor="middle" x="205.05" y="-441.3" font-family="Times New Roman,serif" font-size="14.00">[0]</text>
</g>
<!-- 9&#45;&gt;18 -->
<g id="edge7" class="edge">
<title>9&#45;&gt;18</title>
<path fill="none" stroke="black" d="M220.12,-423.44C220.12,-414.11 220.12,-396.51 220.12,-383.05"/>
<polygon fill="black" stroke="black" points="223.63,-383.34 220.13,-373.34 216.63,-383.34 223.63,-383.34"/>
<text text-anchor="middle" x="267.75" y="-392.4" font-family="Times New Roman,serif" font-size="14.00">graphOr_start#14</text>
</g>
<!-- 13 -->
<g id="node8" class="node">
<title>13</title>
<polygon fill="yellow" stroke="black" points="345.25,-177.8 243,-177.8 243,-141.8 345.25,-141.8 345.25,-177.8"/>
<text text-anchor="middle" x="294.12" y="-154.75" font-family="Times New Roman,serif" font-size="14.00">number = score</text>
<text text-anchor="middle" x="231.75" y="-181" font-family="Times New Roman,serif" font-size="14.00">[13]</text>
</g>
<!-- 10&#45;&gt;13 -->
<g id="edge6" class="edge">
<title>10&#45;&gt;13</title>
<path fill="none" stroke="black" d="M288.44,-246.46C289.51,-230.38 291.03,-207.5 292.23,-189.44"/>
<polygon fill="black" stroke="black" points="295.71,-189.83 292.88,-179.62 288.72,-189.37 295.71,-189.83"/>
<text text-anchor="middle" x="328.79" y="-199" font-family="Times New Roman,serif" font-size="14.00">graphAnd#11</text>
</g>
<!-- 13&#45;&gt;19 -->
<g id="edge2" class="edge">
<title>13&#45;&gt;19</title>
<path fill="none" stroke="black" d="M279.27,-141.57C269.77,-131.06 256.88,-117.69 244.12,-107.3 236.64,-101.21 227.55,-95.36 220.13,-90.95"/>
<polygon fill="black" stroke="black" points="222.06,-88.02 211.65,-86.1 218.59,-94.1 222.06,-88.02"/>
<text text-anchor="middle" x="292.42" y="-110.5" font-family="Times New Roman,serif" font-size="14.00">merge1#17</text>
</g>
</g>
</svg>
