<?xml version="1.0" encoding="UTF-8" standalone="no"?>
<!DOCTYPE svg PUBLIC "-//W3C//DTD SVG 1.1//EN"
 "http://www.w3.org/Graphics/SVG/1.1/DTD/svg11.dtd">
<!-- Generated by graphviz version 13.1.2 (20250808.2320)
 -->
<!-- Title: CLG Pages: 1 -->
<svg width="154pt" height="260pt"
 viewBox="0.00 0.00 154.00 260.00" xmlns="http://www.w3.org/2000/svg" xmlns:xlink="http://www.w3.org/1999/xlink">
<g id="graph0" class="graph" transform="scale(1 1) rotate(0) translate(4 255.8)">
<title>CLG</title>
<polygon fill="white" stroke="none" points="-4,4 -4,-255.8 150,-255.8 150,4 -4,4"/>
<!-- 0 -->
<g id="node1" class="node">
<title>0</title>
<ellipse fill="black" stroke="black" cx="78.5" cy="-228.1" rx="7.2" ry="7.2"/>
<text xml:space="preserve" text-anchor="middle" x="63.42" y="-238.5" font-family="Times New Roman,serif" font-size="14.00">[0]</text>
</g>
<!-- 1 -->
<g id="node2" class="node">
<title>1</title>
<polygon fill="yellow" stroke="black" points="134.5,-183.9 22.5,-183.9 22.5,-147.9 134.5,-147.9 134.5,-183.9"/>
<text xml:space="preserve" text-anchor="middle" x="78.5" y="-160.85" font-family="Times New Roman,serif" font-size="14.00">self.number &gt;= 0</text>
<text xml:space="preserve" text-anchor="middle" x="14.62" y="-187.1" font-family="Times New Roman,serif" font-size="14.00">[1]</text>
</g>
<!-- 0&#45;&gt;1 -->
<g id="edge1" class="edge">
<title>0&#45;&gt;1</title>
<path fill="none" stroke="black" d="M78.5,-220.66C78.5,-214.6 78.5,-205.09 78.5,-195.74"/>
<polygon fill="black" stroke="black" points="82,-195.78 78.5,-185.78 75,-195.78 82,-195.78"/>
</g>
<!-- 4 -->
<g id="node3" class="node">
<title>4</title>
<polygon fill="yellow" stroke="black" points="141.25,-95.4 15.75,-95.4 15.75,-59.4 141.25,-59.4 141.25,-95.4"/>
<text xml:space="preserve" text-anchor="middle" x="78.5" y="-72.35" font-family="Times New Roman,serif" font-size="14.00">self.number &lt;= 100</text>
<text xml:space="preserve" text-anchor="middle" x="7.88" y="-98.6" font-family="Times New Roman,serif" font-size="14.00">[4]</text>
</g>
<!-- 1&#45;&gt;4 -->
<g id="edge3" class="edge">
<title>1&#45;&gt;4</title>
<path fill="none" stroke="black" d="M78.5,-147.81C78.5,-136.16 78.5,-120.45 78.5,-106.92"/>
<polygon fill="black" stroke="black" points="82,-107.26 78.5,-97.26 75,-107.26 82,-107.26"/>
<text xml:space="preserve" text-anchor="middle" x="112.25" y="-116.6" font-family="Times New Roman,serif" font-size="14.00">graphAnd#4</text>
</g>
<!-- 5 -->
<g id="node4" class="node">
<title>5</title>
<ellipse fill="black" stroke="black" cx="78.5" cy="-11.2" rx="7.2" ry="7.2"/>
<ellipse fill="none" stroke="black" cx="78.5" cy="-11.2" rx="11.2" ry="11.2"/>
<text xml:space="preserve" text-anchor="middle" x="57.17" y="-25.6" font-family="Times New Roman,serif" font-size="14.00">[&#45;1]</text>
</g>
<!-- 4&#45;&gt;5 -->
<g id="edge2" class="edge">
<title>4&#45;&gt;5</title>
<path fill="none" stroke="black" d="M78.5,-59.2C78.5,-51.5 78.5,-42.34 78.5,-34.15"/>
<polygon fill="black" stroke="black" points="82,-34.32 78.5,-24.32 75,-34.32 82,-34.32"/>
</g>
</g>
</svg>
