<?xml version="1.0" encoding="UTF-8" standalone="no"?>
<!DOCTYPE svg PUBLIC "-//W3C//DTD SVG 1.1//EN"
 "http://www.w3.org/Graphics/SVG/1.1/DTD/svg11.dtd">
<!-- Generated by graphviz version 12.2.1 (20241206.2353)
 -->
<!-- Title: CLG Pages: 1 -->
<svg width="352pt" height="688pt"
 viewBox="0.00 0.00 352.12 688.00" xmlns="http://www.w3.org/2000/svg" xmlns:xlink="http://www.w3.org/1999/xlink">
<g id="graph0" class="graph" transform="scale(1 1) rotate(0) translate(4 684)">
<title>CLG</title>
<polygon fill="white" stroke="none" points="-4,4 -4,-684 348.12,-684 348.12,4 -4,4"/>
<!-- 38 -->
<g id="node1" class="node">
<title>38</title>
<polygon fill="aquamarine" stroke="black" points="205.88,-596.6 198.68,-589.4 205.88,-582.2 213.07,-589.4 205.88,-596.6"/>
<text text-anchor="middle" x="183.68" y="-599.8" font-family="Times New Roman,serif" font-size="14.00">&lt;38&gt;</text>
</g>
<!-- 18 -->
<g id="node7" class="node">
<title>18</title>
<polygon fill="aquamarine" stroke="black" points="169.88,-518.9 162.68,-511.7 169.88,-504.5 177.07,-511.7 169.88,-518.9"/>
<text text-anchor="middle" x="147.68" y="-522.1" font-family="Times New Roman,serif" font-size="14.00">&lt;18&gt;</text>
</g>
<!-- 38&#45;&gt;18 -->
<g id="edge3" class="edge">
<title>38&#45;&gt;18</title>
<path fill="none" stroke="black" d="M201.63,-586.25C195.04,-582.67 182.49,-574.81 176.62,-564.2 170.92,-553.88 169.28,-540.66 169.05,-530.2"/>
<polygon fill="black" stroke="black" points="172.54,-530.44 169.26,-520.37 165.54,-530.29 172.54,-530.44"/>
<text text-anchor="middle" x="201.75" y="-550.9" font-family="Times New Roman,serif" font-size="14.00">split2#39</text>
</g>
<!-- 24 -->
<g id="node12" class="node">
<title>24</title>
<polygon fill="yellow" stroke="black" points="289.5,-529.7 214.25,-529.7 214.25,-493.7 289.5,-493.7 289.5,-529.7"/>
<text text-anchor="middle" x="251.88" y="-506.65" font-family="Times New Roman,serif" font-size="14.00">score &gt;= 0</text>
<text text-anchor="middle" x="203" y="-532.9" font-family="Times New Roman,serif" font-size="14.00">[24]</text>
</g>
<!-- 38&#45;&gt;24 -->
<g id="edge2" class="edge">
<title>38&#45;&gt;24</title>
<path fill="none" stroke="black" d="M209.17,-585.18C213.58,-580.75 221.48,-572.37 226.88,-564.2 231.77,-556.79 236.29,-548.27 240.11,-540.33"/>
<polygon fill="black" stroke="black" points="243.22,-541.93 244.21,-531.39 236.86,-539.02 243.22,-541.93"/>
<text text-anchor="middle" x="261.46" y="-550.9" font-family="Times New Roman,serif" font-size="14.00">split1#38</text>
</g>
<!-- 7 -->
<g id="node2" class="node">
<title>7</title>
<polygon fill="yellow" stroke="black" points="110.38,-441.2 43.38,-441.2 43.38,-405.2 110.38,-405.2 110.38,-441.2"/>
<text text-anchor="middle" x="76.88" y="-418.15" font-family="Times New Roman,serif" font-size="14.00">score &lt; 0</text>
<text text-anchor="middle" x="35.5" y="-444.4" font-family="Times New Roman,serif" font-size="14.00">[7]</text>
</g>
<!-- 10 -->
<g id="node4" class="node">
<title>10</title>
<polygon fill="yellow" stroke="black" points="111.25,-352.7 22.5,-352.7 22.5,-316.7 111.25,-316.7 111.25,-352.7"/>
<text text-anchor="middle" x="66.88" y="-329.65" font-family="Times New Roman,serif" font-size="14.00">score &lt;= 100</text>
<text text-anchor="middle" x="11.25" y="-355.9" font-family="Times New Roman,serif" font-size="14.00">[10]</text>
</g>
<!-- 7&#45;&gt;10 -->
<g id="edge6" class="edge">
<title>7&#45;&gt;10</title>
<path fill="none" stroke="black" d="M74.9,-405.11C73.55,-393.46 71.74,-377.75 70.17,-364.22"/>
<polygon fill="black" stroke="black" points="73.68,-364.09 69.05,-354.55 66.73,-364.89 73.68,-364.09"/>
<text text-anchor="middle" x="106.52" y="-373.9" font-family="Times New Roman,serif" font-size="14.00">graphAnd#9</text>
</g>
<!-- 39 -->
<g id="node3" class="node">
<title>39</title>
<polygon fill="aquamarine" stroke="black" points="203.88,-89.3 196.68,-82.1 203.88,-74.9 211.07,-82.1 203.88,-89.3"/>
<text text-anchor="middle" x="181.68" y="-92.5" font-family="Times New Roman,serif" font-size="14.00">&lt;39&gt;</text>
</g>
<!-- 22 -->
<g id="node10" class="node">
<title>22</title>
<ellipse fill="black" stroke="black" cx="203.88" cy="-11.2" rx="7.2" ry="7.2"/>
<ellipse fill="none" stroke="black" cx="203.88" cy="-11.2" rx="11.2" ry="11.2"/>
<text text-anchor="middle" x="182.55" y="-25.6" font-family="Times New Roman,serif" font-size="14.00">[&#45;1]</text>
</g>
<!-- 39&#45;&gt;22 -->
<g id="edge7" class="edge">
<title>39&#45;&gt;22</title>
<path fill="none" stroke="black" d="M203.88,-74.24C203.88,-64.87 203.88,-47.63 203.88,-33.7"/>
<polygon fill="black" stroke="black" points="207.38,-34.11 203.88,-24.11 200.38,-34.11 207.38,-34.11"/>
<text text-anchor="middle" x="249.62" y="-43.6" font-family="Times New Roman,serif" font-size="14.00">graphOr_end#42</text>
</g>
<!-- 19 -->
<g id="node8" class="node">
<title>19</title>
<polygon fill="aquamarine" stroke="black" points="137.88,-244.7 130.68,-237.5 137.88,-230.3 145.07,-237.5 137.88,-244.7"/>
<text text-anchor="middle" x="115.67" y="-247.9" font-family="Times New Roman,serif" font-size="14.00">&lt;19&gt;</text>
</g>
<!-- 10&#45;&gt;19 -->
<g id="edge11" class="edge">
<title>10&#45;&gt;19</title>
<path fill="none" stroke="black" d="M63.98,-316.38C62.38,-300.74 62.66,-277.92 74.38,-262.7 85.28,-248.53 105.54,-242.65 120.25,-240.22"/>
<polygon fill="black" stroke="black" points="120.37,-243.73 129.87,-239.03 119.51,-236.78 120.37,-243.73"/>
<text text-anchor="middle" x="105.12" y="-275.65" font-family="Times New Roman,serif" font-size="14.00">merge1#18</text>
</g>
<!-- 13 -->
<g id="node5" class="node">
<title>13</title>
<polygon fill="yellow" stroke="black" points="207.5,-441.2 132.25,-441.2 132.25,-405.2 207.5,-405.2 207.5,-441.2"/>
<text text-anchor="middle" x="169.88" y="-418.15" font-family="Times New Roman,serif" font-size="14.00">score &gt;= 0</text>
<text text-anchor="middle" x="121" y="-444.4" font-family="Times New Roman,serif" font-size="14.00">[13]</text>
</g>
<!-- 16 -->
<g id="node6" class="node">
<title>16</title>
<polygon fill="yellow" stroke="black" points="210.12,-352.7 129.62,-352.7 129.62,-316.7 210.12,-316.7 210.12,-352.7"/>
<text text-anchor="middle" x="169.88" y="-329.65" font-family="Times New Roman,serif" font-size="14.00">score &gt; 100</text>
<text text-anchor="middle" x="118.38" y="-355.9" font-family="Times New Roman,serif" font-size="14.00">[16]</text>
</g>
<!-- 13&#45;&gt;16 -->
<g id="edge8" class="edge">
<title>13&#45;&gt;16</title>
<path fill="none" stroke="black" d="M169.88,-405.11C169.88,-393.46 169.88,-377.75 169.88,-364.22"/>
<polygon fill="black" stroke="black" points="173.38,-364.56 169.88,-354.56 166.38,-364.56 173.38,-364.56"/>
<text text-anchor="middle" x="207" y="-373.9" font-family="Times New Roman,serif" font-size="14.00">graphAnd#14</text>
</g>
<!-- 16&#45;&gt;19 -->
<g id="edge12" class="edge">
<title>16&#45;&gt;19</title>
<path fill="none" stroke="black" d="M157.34,-316.21C153.98,-310.81 150.65,-304.7 148.38,-298.7 143.19,-285 140.54,-268.57 139.21,-256.34"/>
<polygon fill="black" stroke="black" points="142.71,-256.2 138.34,-246.55 135.74,-256.81 142.71,-256.2"/>
<text text-anchor="middle" x="179.12" y="-275.65" font-family="Times New Roman,serif" font-size="14.00">merge2#19</text>
</g>
<!-- 18&#45;&gt;7 -->
<g id="edge9" class="edge">
<title>18&#45;&gt;7</title>
<path fill="none" stroke="black" d="M165.28,-508.45C155.44,-503.49 131.87,-490.82 115.62,-475.7 107.77,-468.39 100.36,-459.33 94.17,-450.86"/>
<polygon fill="black" stroke="black" points="97.2,-449.09 88.6,-442.9 91.47,-453.1 97.2,-449.09"/>
<text text-anchor="middle" x="140.75" y="-462.4" font-family="Times New Roman,serif" font-size="14.00">split1#16</text>
</g>
<!-- 18&#45;&gt;13 -->
<g id="edge10" class="edge">
<title>18&#45;&gt;13</title>
<path fill="none" stroke="black" d="M169.88,-503.91C169.88,-493.05 169.88,-471.15 169.88,-453.05"/>
<polygon fill="black" stroke="black" points="173.38,-453.09 169.88,-443.09 166.38,-453.09 173.38,-453.09"/>
<text text-anchor="middle" x="195" y="-462.4" font-family="Times New Roman,serif" font-size="14.00">split2#17</text>
</g>
<!-- 21 -->
<g id="node9" class="node">
<title>21</title>
<polygon fill="yellow" stroke="black" points="242.25,-177.8 33.5,-177.8 33.5,-141.8 242.25,-141.8 242.25,-177.8"/>
<text text-anchor="middle" x="137.88" y="-154.75" font-family="Times New Roman,serif" font-size="14.00">Result = &#39;illegalargumentexception&#39;</text>
<text text-anchor="middle" x="22.25" y="-181" font-family="Times New Roman,serif" font-size="14.00">[21]</text>
</g>
<!-- 19&#45;&gt;21 -->
<g id="edge14" class="edge">
<title>19&#45;&gt;21</title>
<path fill="none" stroke="black" d="M137.88,-229.78C137.88,-220.7 137.88,-203.95 137.88,-189.23"/>
<polygon fill="black" stroke="black" points="141.38,-189.56 137.88,-179.56 134.38,-189.56 141.38,-189.56"/>
<text text-anchor="middle" x="175" y="-199" font-family="Times New Roman,serif" font-size="14.00">graphAnd#30</text>
</g>
<!-- 21&#45;&gt;39 -->
<g id="edge5" class="edge">
<title>21&#45;&gt;39</title>
<path fill="none" stroke="black" d="M152.85,-141.62C165.21,-127.45 182.44,-107.69 193.37,-95.14"/>
<polygon fill="black" stroke="black" points="195.91,-97.57 199.84,-87.73 190.63,-92.97 195.91,-97.57"/>
<text text-anchor="middle" x="213.28" y="-110.5" font-family="Times New Roman,serif" font-size="14.00">merge2#41</text>
</g>
<!-- 23 -->
<g id="node11" class="node">
<title>23</title>
<ellipse fill="black" stroke="black" cx="205.88" cy="-656.3" rx="7.2" ry="7.2"/>
<text text-anchor="middle" x="190.8" y="-666.7" font-family="Times New Roman,serif" font-size="14.00">[0]</text>
</g>
<!-- 23&#45;&gt;38 -->
<g id="edge1" class="edge">
<title>23&#45;&gt;38</title>
<path fill="none" stroke="black" d="M205.88,-648.84C205.88,-639.51 205.88,-621.91 205.88,-608.45"/>
<polygon fill="black" stroke="black" points="209.38,-608.74 205.88,-598.74 202.38,-608.74 209.38,-608.74"/>
<text text-anchor="middle" x="253.5" y="-617.8" font-family="Times New Roman,serif" font-size="14.00">graphOr_start#37</text>
</g>
<!-- 27 -->
<g id="node13" class="node">
<title>27</title>
<polygon fill="yellow" stroke="black" points="314.25,-441.2 225.5,-441.2 225.5,-405.2 314.25,-405.2 314.25,-441.2"/>
<text text-anchor="middle" x="269.88" y="-418.15" font-family="Times New Roman,serif" font-size="14.00">score &lt;= 100</text>
<text text-anchor="middle" x="214.25" y="-444.4" font-family="Times New Roman,serif" font-size="14.00">[27]</text>
</g>
<!-- 24&#45;&gt;27 -->
<g id="edge13" class="edge">
<title>24&#45;&gt;27</title>
<path fill="none" stroke="black" d="M255.43,-493.61C257.86,-481.96 261.13,-466.25 263.94,-452.72"/>
<polygon fill="black" stroke="black" points="267.35,-453.54 265.96,-443.03 260.49,-452.11 267.35,-453.54"/>
<text text-anchor="middle" x="299.61" y="-462.4" font-family="Times New Roman,serif" font-size="14.00">graphAnd#27</text>
</g>
<!-- 30 -->
<g id="node14" class="node">
<title>30</title>
<polygon fill="yellow" stroke="black" points="321,-298.7 218.75,-298.7 218.75,-262.7 321,-262.7 321,-298.7"/>
<text text-anchor="middle" x="269.88" y="-275.65" font-family="Times New Roman,serif" font-size="14.00">number = score</text>
<text text-anchor="middle" x="207.5" y="-301.9" font-family="Times New Roman,serif" font-size="14.00">[30]</text>
</g>
<!-- 27&#45;&gt;30 -->
<g id="edge15" class="edge">
<title>27&#45;&gt;30</title>
<path fill="none" stroke="black" d="M269.88,-404.97C269.88,-381.38 269.88,-338.7 269.88,-310.28"/>
<polygon fill="black" stroke="black" points="273.38,-310.58 269.88,-300.58 266.38,-310.58 273.38,-310.58"/>
<text text-anchor="middle" x="307" y="-373.9" font-family="Times New Roman,serif" font-size="14.00">graphAnd#31</text>
</g>
<!-- 30&#45;&gt;39 -->
<g id="edge4" class="edge">
<title>30&#45;&gt;39</title>
<path fill="none" stroke="black" d="M272.49,-262.26C276.5,-228.99 280.63,-155.45 247.88,-107.3 241.32,-97.67 229.63,-91.5 219.94,-87.8"/>
<polygon fill="black" stroke="black" points="221.31,-84.57 210.72,-84.83 219.17,-91.23 221.31,-84.57"/>
<text text-anchor="middle" x="305.86" y="-199" font-family="Times New Roman,serif" font-size="14.00">merge1#40</text>
</g>
</g>
</svg>
