<?xml version="1.0" encoding="UTF-8" standalone="no"?>
<!DOCTYPE svg PUBLIC "-//W3C//DTD SVG 1.1//EN"
 "http://www.w3.org/Graphics/SVG/1.1/DTD/svg11.dtd">
<!-- Generated by graphviz version 13.1.2 (20250808.2320)
 -->
<!-- Title: CLG Pages: 1 -->
<svg width="172pt" height="265pt"
 viewBox="0.00 0.00 172.00 265.00" xmlns="http://www.w3.org/2000/svg" xmlns:xlink="http://www.w3.org/1999/xlink">
<g id="graph0" class="graph" transform="scale(1 1) rotate(0) translate(4 260.8)">
<title>CLG</title>
<polygon fill="white" stroke="none" points="-4,4 -4,-260.8 168.38,-260.8 168.38,4 -4,4"/>
<!-- 82 -->
<g id="node1" class="node">
<title>82</title>
<polygon fill="yellow" stroke="black" points="142,-95.4 38.25,-95.4 38.25,-59.4 142,-59.4 142,-95.4"/>
<text xml:space="preserve" text-anchor="middle" x="90.12" y="-72.35" font-family="Times New Roman,serif" font-size="14.00">result = number</text>
<text xml:space="preserve" text-anchor="middle" x="27" y="-98.6" font-family="Times New Roman,serif" font-size="14.00">[82]</text>
</g>
<!-- 83 -->
<g id="node2" class="node">
<title>83</title>
<ellipse fill="black" stroke="black" cx="90.12" cy="-11.2" rx="7.2" ry="7.2"/>
<ellipse fill="none" stroke="black" cx="90.12" cy="-11.2" rx="11.2" ry="11.2"/>
<text xml:space="preserve" text-anchor="middle" x="68.8" y="-25.6" font-family="Times New Roman,serif" font-size="14.00">[&#45;1]</text>
</g>
<!-- 82&#45;&gt;83 -->
<g id="edge1" class="edge">
<title>82&#45;&gt;83</title>
<path fill="none" stroke="black" d="M90.12,-59.2C90.12,-51.5 90.12,-42.34 90.12,-34.15"/>
<polygon fill="black" stroke="black" points="93.63,-34.32 90.13,-24.32 86.63,-34.32 93.63,-34.32"/>
</g>
<!-- 84 -->
<g id="node3" class="node">
<title>84</title>
<ellipse fill="black" stroke="black" cx="90.12" cy="-233.1" rx="7.2" ry="7.2"/>
<text xml:space="preserve" text-anchor="middle" x="75.05" y="-243.5" font-family="Times New Roman,serif" font-size="14.00">[0]</text>
</g>
<!-- 85 -->
<g id="node4" class="node">
<title>85</title>
<polygon fill="yellow" stroke="black" points="157.75,-188.9 22.5,-188.9 22.5,-147.9 157.75,-147.9 157.75,-188.9"/>
<text xml:space="preserve" text-anchor="middle" x="90.12" y="-171.6" font-family="Times New Roman,serif" font-size="14.00">self.number &gt;= 0 and</text>
<text xml:space="preserve" text-anchor="middle" x="90.12" y="-155.1" font-family="Times New Roman,serif" font-size="14.00">self.number &lt;= 100</text>
<text xml:space="preserve" text-anchor="middle" x="11.25" y="-192.1" font-family="Times New Roman,serif" font-size="14.00">[85]</text>
</g>
<!-- 84&#45;&gt;85 -->
<g id="edge2" class="edge">
<title>84&#45;&gt;85</title>
<path fill="none" stroke="black" d="M90.12,-225.86C90.12,-219.83 90.12,-210.21 90.12,-200.61"/>
<polygon fill="black" stroke="black" points="93.63,-200.67 90.13,-190.67 86.63,-200.67 93.63,-200.67"/>
</g>
<!-- 85&#45;&gt;82 -->
<g id="edge3" class="edge">
<title>85&#45;&gt;82</title>
<path fill="none" stroke="black" d="M90.12,-147.65C90.12,-135.73 90.12,-120.34 90.12,-107.09"/>
<polygon fill="black" stroke="black" points="93.63,-107.21 90.13,-97.21 86.63,-107.21 93.63,-107.21"/>
<text xml:space="preserve" text-anchor="middle" x="127.25" y="-116.6" font-family="Times New Roman,serif" font-size="14.00">graphAnd#99</text>
</g>
</g>
</svg>
