<?xml version="1.0" encoding="UTF-8" standalone="no"?>
<!DOCTYPE svg PUBLIC "-//W3C//DTD SVG 1.1//EN"
 "http://www.w3.org/Graphics/SVG/1.1/DTD/svg11.dtd">
<!-- Generated by graphviz version 13.1.2 (20250808.2320)
 -->
<!-- Title: CLG Pages: 1 -->
<svg width="619pt" height="1584pt"
 viewBox="0.00 0.00 619.00 1584.00" xmlns="http://www.w3.org/2000/svg" xmlns:xlink="http://www.w3.org/1999/xlink">
<g id="graph0" class="graph" transform="scale(1 1) rotate(0) translate(4 1579.8)">
<title>CLG</title>
<polygon fill="white" stroke="none" points="-4,4 -4,-1579.8 615.22,-1579.8 615.22,4 -4,4"/>
<!-- 66 -->
<g id="node1" class="node">
<title>66</title>
<polygon fill="yellow" stroke="black" points="567.62,-445.4 496.88,-445.4 496.88,-409.4 567.62,-409.4 567.62,-445.4"/>
<text xml:space="preserve" text-anchor="middle" x="532.25" y="-422.35" font-family="Times New Roman,serif" font-size="14.00">result = B</text>
<text xml:space="preserve" text-anchor="middle" x="485.62" y="-448.6" font-family="Times New Roman,serif" font-size="14.00">[66]</text>
</g>
<!-- 69 -->
<g id="node4" class="node">
<title>69</title>
<polygon fill="aquamarine" stroke="black" points="439.25,-356.9 432.05,-349.7 439.25,-342.5 446.45,-349.7 439.25,-356.9"/>
<text xml:space="preserve" text-anchor="middle" x="417.05" y="-360.1" font-family="Times New Roman,serif" font-size="14.00">&lt;69&gt;</text>
</g>
<!-- 66&#45;&gt;69 -->
<g id="edge30" class="edge">
<title>66&#45;&gt;69</title>
<path fill="none" stroke="black" d="M526.45,-409.04C521.95,-397.94 514.7,-383.97 504.25,-374.9 490.46,-362.94 470.21,-356.66 455.99,-353.52"/>
<polygon fill="black" stroke="black" points="456.94,-350.14 446.46,-351.74 455.65,-357.02 456.94,-350.14"/>
<text xml:space="preserve" text-anchor="middle" x="548.1" y="-378.1" font-family="Times New Roman,serif" font-size="14.00">merge2#58</text>
</g>
<!-- 67 -->
<g id="node2" class="node">
<title>67</title>
<ellipse fill="black" stroke="black" cx="86.25" cy="-11.2" rx="7.2" ry="7.2"/>
<ellipse fill="none" stroke="black" cx="86.25" cy="-11.2" rx="11.2" ry="11.2"/>
<text xml:space="preserve" text-anchor="middle" x="64.92" y="-25.6" font-family="Times New Roman,serif" font-size="14.00">[&#45;1]</text>
</g>
<!-- 68 -->
<g id="node3" class="node">
<title>68</title>
<polygon fill="aquamarine" stroke="black" points="466.25,-620.3 459.05,-613.1 466.25,-605.9 473.45,-613.1 466.25,-620.3"/>
<text xml:space="preserve" text-anchor="middle" x="444.05" y="-623.5" font-family="Times New Roman,serif" font-size="14.00">&lt;68&gt;</text>
</g>
<!-- 57 -->
<g id="node27" class="node">
<title>57</title>
<polygon fill="yellow" stroke="black" points="479,-533.9 383.5,-533.9 383.5,-497.9 479,-497.9 479,-533.9"/>
<text xml:space="preserve" text-anchor="middle" x="431.25" y="-510.85" font-family="Times New Roman,serif" font-size="14.00">number &gt;= 90</text>
<text xml:space="preserve" text-anchor="middle" x="372.25" y="-537.1" font-family="Times New Roman,serif" font-size="14.00">[57]</text>
</g>
<!-- 68&#45;&gt;57 -->
<g id="edge27" class="edge">
<title>68&#45;&gt;57</title>
<path fill="none" stroke="black" d="M464.47,-607.25C460.31,-595.96 449.74,-567.19 441.63,-545.13"/>
<polygon fill="black" stroke="black" points="444.92,-543.93 438.18,-535.75 438.35,-546.34 444.92,-543.93"/>
<text xml:space="preserve" text-anchor="middle" x="481.99" y="-564.85" font-family="Times New Roman,serif" font-size="14.00">split1#55</text>
</g>
<!-- 63 -->
<g id="node29" class="node">
<title>63</title>
<polygon fill="yellow" stroke="black" points="583.88,-533.9 496.62,-533.9 496.62,-497.9 583.88,-497.9 583.88,-533.9"/>
<text xml:space="preserve" text-anchor="middle" x="540.25" y="-510.85" font-family="Times New Roman,serif" font-size="14.00">number &lt; 90</text>
<text xml:space="preserve" text-anchor="middle" x="485.38" y="-537.1" font-family="Times New Roman,serif" font-size="14.00">[63]</text>
</g>
<!-- 68&#45;&gt;63 -->
<g id="edge28" class="edge">
<title>68&#45;&gt;63</title>
<path fill="none" stroke="black" d="M471.45,-610.41C480.32,-607.3 498.45,-599.85 509.25,-587.9 520.28,-575.7 527.85,-558.95 532.74,-544.78"/>
<polygon fill="black" stroke="black" points="535.98,-546.15 535.65,-535.56 529.31,-544.04 535.98,-546.15"/>
<text xml:space="preserve" text-anchor="middle" x="554.52" y="-564.85" font-family="Times New Roman,serif" font-size="14.00">split2#56</text>
</g>
<!-- 71 -->
<g id="node6" class="node">
<title>71</title>
<polygon fill="aquamarine" stroke="black" points="324.25,-290 317.05,-282.8 324.25,-275.6 331.45,-282.8 324.25,-290"/>
<text xml:space="preserve" text-anchor="middle" x="302.05" y="-293.2" font-family="Times New Roman,serif" font-size="14.00">&lt;71&gt;</text>
</g>
<!-- 69&#45;&gt;71 -->
<g id="edge3" class="edge">
<title>69&#45;&gt;71</title>
<path fill="none" stroke="black" d="M434.88,-346.24C419.09,-337.32 364.48,-306.5 338.37,-291.77"/>
<polygon fill="black" stroke="black" points="340.37,-288.88 329.94,-287.01 336.93,-294.97 340.37,-288.88"/>
<text xml:space="preserve" text-anchor="middle" x="426.18" y="-311.2" font-family="Times New Roman,serif" font-size="14.00">merge2#66</text>
</g>
<!-- 70 -->
<g id="node5" class="node">
<title>70</title>
<polygon fill="aquamarine" stroke="black" points="379.25,-833.2 372.05,-826 379.25,-818.8 386.45,-826 379.25,-833.2"/>
<text xml:space="preserve" text-anchor="middle" x="357.05" y="-836.4" font-family="Times New Roman,serif" font-size="14.00">&lt;70&gt;</text>
</g>
<!-- 48 -->
<g id="node24" class="node">
<title>48</title>
<polygon fill="yellow" stroke="black" points="388.62,-730.3 269.88,-730.3 269.88,-689.3 388.62,-689.3 388.62,-730.3"/>
<text xml:space="preserve" text-anchor="middle" x="329.25" y="-713" font-family="Times New Roman,serif" font-size="14.00">number &gt;= 80 and</text>
<text xml:space="preserve" text-anchor="middle" x="329.25" y="-696.5" font-family="Times New Roman,serif" font-size="14.00">number &lt;= 89</text>
<text xml:space="preserve" text-anchor="middle" x="258.62" y="-733.5" font-family="Times New Roman,serif" font-size="14.00">[48]</text>
</g>
<!-- 70&#45;&gt;48 -->
<g id="edge33" class="edge">
<title>70&#45;&gt;48</title>
<path fill="none" stroke="black" d="M377.23,-820.38C371.45,-807.19 354.53,-768.53 342.42,-740.87"/>
<polygon fill="black" stroke="black" points="345.71,-739.67 338.49,-731.91 339.3,-742.47 345.71,-739.67"/>
<text xml:space="preserve" text-anchor="middle" x="393.57" y="-777.75" font-family="Times New Roman,serif" font-size="14.00">split1#63</text>
</g>
<!-- 54 -->
<g id="node26" class="node">
<title>54</title>
<polygon fill="yellow" stroke="black" points="525.62,-746.8 406.88,-746.8 406.88,-672.8 525.62,-672.8 525.62,-746.8"/>
<text xml:space="preserve" text-anchor="middle" x="466.25" y="-729.5" font-family="Times New Roman,serif" font-size="14.00">number &lt; 80 and</text>
<text xml:space="preserve" text-anchor="middle" x="466.25" y="-713" font-family="Times New Roman,serif" font-size="14.00">number &lt;= 89 or</text>
<text xml:space="preserve" text-anchor="middle" x="466.25" y="-696.5" font-family="Times New Roman,serif" font-size="14.00">number &gt;= 80 and</text>
<text xml:space="preserve" text-anchor="middle" x="466.25" y="-680" font-family="Times New Roman,serif" font-size="14.00">number &gt; 89</text>
<text xml:space="preserve" text-anchor="middle" x="395.62" y="-750" font-family="Times New Roman,serif" font-size="14.00">[54]</text>
</g>
<!-- 70&#45;&gt;54 -->
<g id="edge1" class="edge">
<title>70&#45;&gt;54</title>
<path fill="none" stroke="black" d="M384.4,-823.26C393.19,-820.07 411.2,-812.51 422.25,-800.8 433.89,-788.47 443.04,-772.47 449.92,-757.4"/>
<polygon fill="black" stroke="black" points="452.99,-759.12 453.72,-748.55 446.56,-756.36 452.99,-759.12"/>
<text xml:space="preserve" text-anchor="middle" x="470.36" y="-777.75" font-family="Times New Roman,serif" font-size="14.00">split2#64</text>
</g>
<!-- 73 -->
<g id="node8" class="node">
<title>73</title>
<polygon fill="aquamarine" stroke="black" points="242.25,-223.1 235.05,-215.9 242.25,-208.7 249.45,-215.9 242.25,-223.1"/>
<text xml:space="preserve" text-anchor="middle" x="220.05" y="-226.3" font-family="Times New Roman,serif" font-size="14.00">&lt;73&gt;</text>
</g>
<!-- 71&#45;&gt;73 -->
<g id="edge9" class="edge">
<title>71&#45;&gt;73</title>
<path fill="none" stroke="black" d="M320.73,-279.01C309.5,-270.13 274.19,-242.18 254.99,-226.98"/>
<polygon fill="black" stroke="black" points="257.24,-224.3 247.23,-220.84 252.9,-229.79 257.24,-224.3"/>
<text xml:space="preserve" text-anchor="middle" x="323.76" y="-244.3" font-family="Times New Roman,serif" font-size="14.00">merge2#74</text>
</g>
<!-- 72 -->
<g id="node7" class="node">
<title>72</title>
<polygon fill="aquamarine" stroke="black" points="294.25,-1046.1 287.05,-1038.9 294.25,-1031.7 301.45,-1038.9 294.25,-1046.1"/>
<text xml:space="preserve" text-anchor="middle" x="272.05" y="-1049.3" font-family="Times New Roman,serif" font-size="14.00">&lt;72&gt;</text>
</g>
<!-- 39 -->
<g id="node21" class="node">
<title>39</title>
<polygon fill="yellow" stroke="black" points="301.62,-943.2 182.88,-943.2 182.88,-902.2 301.62,-902.2 301.62,-943.2"/>
<text xml:space="preserve" text-anchor="middle" x="242.25" y="-925.9" font-family="Times New Roman,serif" font-size="14.00">number &gt;= 70 and</text>
<text xml:space="preserve" text-anchor="middle" x="242.25" y="-909.4" font-family="Times New Roman,serif" font-size="14.00">number &lt;= 79</text>
<text xml:space="preserve" text-anchor="middle" x="171.62" y="-946.4" font-family="Times New Roman,serif" font-size="14.00">[39]</text>
</g>
<!-- 72&#45;&gt;39 -->
<g id="edge6" class="edge">
<title>72&#45;&gt;39</title>
<path fill="none" stroke="black" d="M292.15,-1033.28C286.14,-1020.09 268.54,-981.43 255.94,-953.77"/>
<polygon fill="black" stroke="black" points="259.19,-952.45 251.86,-944.8 252.82,-955.35 259.19,-952.45"/>
<text xml:space="preserve" text-anchor="middle" x="308.14" y="-990.65" font-family="Times New Roman,serif" font-size="14.00">split1#71</text>
</g>
<!-- 45 -->
<g id="node23" class="node">
<title>45</title>
<polygon fill="yellow" stroke="black" points="438.62,-959.7 319.88,-959.7 319.88,-885.7 438.62,-885.7 438.62,-959.7"/>
<text xml:space="preserve" text-anchor="middle" x="379.25" y="-942.4" font-family="Times New Roman,serif" font-size="14.00">number &lt; 70 and</text>
<text xml:space="preserve" text-anchor="middle" x="379.25" y="-925.9" font-family="Times New Roman,serif" font-size="14.00">number &lt;= 79 or</text>
<text xml:space="preserve" text-anchor="middle" x="379.25" y="-909.4" font-family="Times New Roman,serif" font-size="14.00">number &gt;= 70 and</text>
<text xml:space="preserve" text-anchor="middle" x="379.25" y="-892.9" font-family="Times New Roman,serif" font-size="14.00">number &gt; 79</text>
<text xml:space="preserve" text-anchor="middle" x="308.62" y="-962.9" font-family="Times New Roman,serif" font-size="14.00">[45]</text>
</g>
<!-- 72&#45;&gt;45 -->
<g id="edge7" class="edge">
<title>72&#45;&gt;45</title>
<path fill="none" stroke="black" d="M299.42,-1036.18C308.24,-1033.03 326.3,-1025.51 337.25,-1013.7 348.68,-1001.37 357.49,-985.38 364.03,-970.3"/>
<polygon fill="black" stroke="black" points="367.1,-972.05 367.62,-961.47 360.61,-969.41 367.1,-972.05"/>
<text xml:space="preserve" text-anchor="middle" x="384.68" y="-990.65" font-family="Times New Roman,serif" font-size="14.00">split2#72</text>
</g>
<!-- 75 -->
<g id="node10" class="node">
<title>75</title>
<polygon fill="aquamarine" stroke="black" points="152.25,-156.2 145.05,-149 152.25,-141.8 159.45,-149 152.25,-156.2"/>
<text xml:space="preserve" text-anchor="middle" x="130.05" y="-159.4" font-family="Times New Roman,serif" font-size="14.00">&lt;75&gt;</text>
</g>
<!-- 73&#45;&gt;75 -->
<g id="edge15" class="edge">
<title>73&#45;&gt;75</title>
<path fill="none" stroke="black" d="M238.38,-212.11C225.83,-203.06 185.86,-174.24 165.08,-159.25"/>
<polygon fill="black" stroke="black" points="167.39,-156.6 157.23,-153.59 163.29,-162.28 167.39,-156.6"/>
<text xml:space="preserve" text-anchor="middle" x="238.71" y="-177.4" font-family="Times New Roman,serif" font-size="14.00">merge2#82</text>
</g>
<!-- 74 -->
<g id="node9" class="node">
<title>74</title>
<polygon fill="aquamarine" stroke="black" points="179.25,-1259 172.05,-1251.8 179.25,-1244.6 186.45,-1251.8 179.25,-1259"/>
<text xml:space="preserve" text-anchor="middle" x="157.05" y="-1262.2" font-family="Times New Roman,serif" font-size="14.00">&lt;74&gt;</text>
</g>
<!-- 30 -->
<g id="node18" class="node">
<title>30</title>
<polygon fill="yellow" stroke="black" points="216.62,-1156.1 97.88,-1156.1 97.88,-1115.1 216.62,-1115.1 216.62,-1156.1"/>
<text xml:space="preserve" text-anchor="middle" x="157.25" y="-1138.8" font-family="Times New Roman,serif" font-size="14.00">number &gt;= 60 and</text>
<text xml:space="preserve" text-anchor="middle" x="157.25" y="-1122.3" font-family="Times New Roman,serif" font-size="14.00">number &lt;= 69</text>
<text xml:space="preserve" text-anchor="middle" x="86.62" y="-1159.3" font-family="Times New Roman,serif" font-size="14.00">[30]</text>
</g>
<!-- 74&#45;&gt;30 -->
<g id="edge12" class="edge">
<title>74&#45;&gt;30</title>
<path fill="none" stroke="black" d="M178.19,-1245.29C175.53,-1231.48 168.41,-1194.52 163.21,-1167.53"/>
<polygon fill="black" stroke="black" points="166.66,-1166.95 161.33,-1157.79 159.79,-1168.27 166.66,-1166.95"/>
<text xml:space="preserve" text-anchor="middle" x="199.62" y="-1203.55" font-family="Times New Roman,serif" font-size="14.00">split1#79</text>
</g>
<!-- 36 -->
<g id="node20" class="node">
<title>36</title>
<polygon fill="yellow" stroke="black" points="353.62,-1172.6 234.88,-1172.6 234.88,-1098.6 353.62,-1098.6 353.62,-1172.6"/>
<text xml:space="preserve" text-anchor="middle" x="294.25" y="-1155.3" font-family="Times New Roman,serif" font-size="14.00">number &lt; 60 and</text>
<text xml:space="preserve" text-anchor="middle" x="294.25" y="-1138.8" font-family="Times New Roman,serif" font-size="14.00">number &lt;= 69 or</text>
<text xml:space="preserve" text-anchor="middle" x="294.25" y="-1122.3" font-family="Times New Roman,serif" font-size="14.00">number &gt;= 60 and</text>
<text xml:space="preserve" text-anchor="middle" x="294.25" y="-1105.8" font-family="Times New Roman,serif" font-size="14.00">number &gt; 69</text>
<text xml:space="preserve" text-anchor="middle" x="223.62" y="-1175.8" font-family="Times New Roman,serif" font-size="14.00">[36]</text>
</g>
<!-- 74&#45;&gt;36 -->
<g id="edge13" class="edge">
<title>74&#45;&gt;36</title>
<path fill="none" stroke="black" d="M184.29,-1249.21C193.71,-1246.07 214.3,-1238.31 228.25,-1226.6 243.12,-1214.12 256.46,-1197.62 267.19,-1182.16"/>
<polygon fill="black" stroke="black" points="270.02,-1184.22 272.68,-1173.97 264.21,-1180.32 270.02,-1184.22"/>
<text xml:space="preserve" text-anchor="middle" x="286.19" y="-1203.55" font-family="Times New Roman,serif" font-size="14.00">split2#80</text>
</g>
<!-- 77 -->
<g id="node12" class="node">
<title>77</title>
<polygon fill="aquamarine" stroke="black" points="86.25,-89.3 79.05,-82.1 86.25,-74.9 93.45,-82.1 86.25,-89.3"/>
<text xml:space="preserve" text-anchor="middle" x="64.05" y="-92.5" font-family="Times New Roman,serif" font-size="14.00">&lt;77&gt;</text>
</g>
<!-- 75&#45;&gt;77 -->
<g id="edge21" class="edge">
<title>75&#45;&gt;77</title>
<path fill="none" stroke="black" d="M149.07,-144.87C139.85,-135.81 112.85,-109.25 97.41,-94.07"/>
<polygon fill="black" stroke="black" points="100.22,-91.93 90.64,-87.41 95.31,-96.92 100.22,-91.93"/>
<text xml:space="preserve" text-anchor="middle" x="157.85" y="-110.5" font-family="Times New Roman,serif" font-size="14.00">merge2#90</text>
</g>
<!-- 76 -->
<g id="node11" class="node">
<title>76</title>
<polygon fill="aquamarine" stroke="black" points="124.25,-1414.4 117.05,-1407.2 124.25,-1400 131.45,-1407.2 124.25,-1414.4"/>
<text xml:space="preserve" text-anchor="middle" x="102.05" y="-1417.6" font-family="Times New Roman,serif" font-size="14.00">&lt;76&gt;</text>
</g>
<!-- 21 -->
<g id="node15" class="node">
<title>21</title>
<polygon fill="yellow" stroke="black" points="118,-1347.5 22.5,-1347.5 22.5,-1311.5 118,-1311.5 118,-1347.5"/>
<text xml:space="preserve" text-anchor="middle" x="70.25" y="-1324.45" font-family="Times New Roman,serif" font-size="14.00">number &lt;= 59</text>
<text xml:space="preserve" text-anchor="middle" x="11.25" y="-1350.7" font-family="Times New Roman,serif" font-size="14.00">[21]</text>
</g>
<!-- 76&#45;&gt;21 -->
<g id="edge18" class="edge">
<title>76&#45;&gt;21</title>
<path fill="none" stroke="black" d="M120.49,-1403.4C115.04,-1399.2 104.84,-1390.81 98,-1382 92.28,-1374.64 87.1,-1365.93 82.8,-1357.8"/>
<polygon fill="black" stroke="black" points="85.97,-1356.32 78.37,-1348.94 79.71,-1359.45 85.97,-1356.32"/>
<text xml:space="preserve" text-anchor="middle" x="123.12" y="-1368.7" font-family="Times New Roman,serif" font-size="14.00">split1#87</text>
</g>
<!-- 27 -->
<g id="node17" class="node">
<title>27</title>
<polygon fill="yellow" stroke="black" points="222.88,-1347.5 135.62,-1347.5 135.62,-1311.5 222.88,-1311.5 222.88,-1347.5"/>
<text xml:space="preserve" text-anchor="middle" x="179.25" y="-1324.45" font-family="Times New Roman,serif" font-size="14.00">number &gt; 59</text>
<text xml:space="preserve" text-anchor="middle" x="124.38" y="-1350.7" font-family="Times New Roman,serif" font-size="14.00">[27]</text>
</g>
<!-- 76&#45;&gt;27 -->
<g id="edge19" class="edge">
<title>76&#45;&gt;27</title>
<path fill="none" stroke="black" d="M127.94,-1402.99C132.91,-1398.57 141.85,-1390.22 148.25,-1382 154.11,-1374.47 159.74,-1365.76 164.55,-1357.66"/>
<polygon fill="black" stroke="black" points="167.47,-1359.6 169.42,-1349.18 161.4,-1356.11 167.47,-1359.6"/>
<text xml:space="preserve" text-anchor="middle" x="184.7" y="-1368.7" font-family="Times New Roman,serif" font-size="14.00">split2#88</text>
</g>
<!-- 77&#45;&gt;67 -->
<g id="edge22" class="edge">
<title>77&#45;&gt;67</title>
<path fill="none" stroke="black" d="M86.25,-74.24C86.25,-64.87 86.25,-47.63 86.25,-33.7"/>
<polygon fill="black" stroke="black" points="89.75,-34.11 86.25,-24.11 82.75,-34.11 89.75,-34.11"/>
<text xml:space="preserve" text-anchor="middle" x="132" y="-43.6" font-family="Times New Roman,serif" font-size="14.00">graphOr_end#91</text>
</g>
<!-- 78 -->
<g id="node13" class="node">
<title>78</title>
<ellipse fill="black" stroke="black" cx="124.25" cy="-1552.1" rx="7.2" ry="7.2"/>
<text xml:space="preserve" text-anchor="middle" x="109.17" y="-1562.5" font-family="Times New Roman,serif" font-size="14.00">[0]</text>
</g>
<!-- 79 -->
<g id="node14" class="node">
<title>79</title>
<polygon fill="yellow" stroke="black" points="191.88,-1507.9 56.62,-1507.9 56.62,-1466.9 191.88,-1466.9 191.88,-1507.9"/>
<text xml:space="preserve" text-anchor="middle" x="124.25" y="-1490.6" font-family="Times New Roman,serif" font-size="14.00">self.number &gt;= 0 and</text>
<text xml:space="preserve" text-anchor="middle" x="124.25" y="-1474.1" font-family="Times New Roman,serif" font-size="14.00">self.number &lt;= 100</text>
<text xml:space="preserve" text-anchor="middle" x="45.38" y="-1511.1" font-family="Times New Roman,serif" font-size="14.00">[79]</text>
</g>
<!-- 78&#45;&gt;79 -->
<g id="edge23" class="edge">
<title>78&#45;&gt;79</title>
<path fill="none" stroke="black" d="M124.25,-1544.86C124.25,-1538.83 124.25,-1529.21 124.25,-1519.61"/>
<polygon fill="black" stroke="black" points="127.75,-1519.67 124.25,-1509.67 120.75,-1519.67 127.75,-1519.67"/>
</g>
<!-- 79&#45;&gt;76 -->
<g id="edge24" class="edge">
<title>79&#45;&gt;76</title>
<path fill="none" stroke="black" d="M124.25,-1466.67C124.25,-1454.17 124.25,-1438.15 124.25,-1426.04"/>
<polygon fill="black" stroke="black" points="127.75,-1426.3 124.25,-1416.3 120.75,-1426.3 127.75,-1426.3"/>
<text xml:space="preserve" text-anchor="middle" x="161.38" y="-1435.6" font-family="Times New Roman,serif" font-size="14.00">graphAnd#94</text>
</g>
<!-- 24 -->
<g id="node16" class="node">
<title>24</title>
<polygon fill="yellow" stroke="black" points="104.88,-1226.6 35.62,-1226.6 35.62,-1190.6 104.88,-1190.6 104.88,-1226.6"/>
<text xml:space="preserve" text-anchor="middle" x="70.25" y="-1203.55" font-family="Times New Roman,serif" font-size="14.00">result = F</text>
<text xml:space="preserve" text-anchor="middle" x="24.38" y="-1229.8" font-family="Times New Roman,serif" font-size="14.00">[24]</text>
</g>
<!-- 21&#45;&gt;24 -->
<g id="edge16" class="edge">
<title>21&#45;&gt;24</title>
<path fill="none" stroke="black" d="M70.25,-1311.21C70.25,-1292.1 70.25,-1261.02 70.25,-1238.26"/>
<polygon fill="black" stroke="black" points="73.75,-1238.42 70.25,-1228.42 66.75,-1238.42 73.75,-1238.42"/>
<text xml:space="preserve" text-anchor="middle" x="107.38" y="-1280.2" font-family="Times New Roman,serif" font-size="14.00">graphAnd#84</text>
</g>
<!-- 24&#45;&gt;77 -->
<g id="edge20" class="edge">
<title>24&#45;&gt;77</title>
<path fill="none" stroke="black" d="M70.25,-1190.22C70.25,-1164.63 70.25,-1115.3 70.25,-1073.35 70.25,-1073.35 70.25,-1073.35 70.25,-148 70.25,-130.59 75.74,-111.3 80.29,-98.31"/>
<polygon fill="black" stroke="black" points="83.5,-99.73 83.75,-89.14 76.95,-97.26 83.5,-99.73"/>
<text xml:space="preserve" text-anchor="middle" x="101" y="-564.85" font-family="Times New Roman,serif" font-size="14.00">merge1#89</text>
</g>
<!-- 27&#45;&gt;74 -->
<g id="edge17" class="edge">
<title>27&#45;&gt;74</title>
<path fill="none" stroke="black" d="M179.25,-1311.32C179.25,-1299.28 179.25,-1283.2 179.25,-1270.95"/>
<polygon fill="black" stroke="black" points="182.75,-1271.04 179.25,-1261.04 175.75,-1271.04 182.75,-1271.04"/>
<text xml:space="preserve" text-anchor="middle" x="216.38" y="-1280.2" font-family="Times New Roman,serif" font-size="14.00">graphAnd#85</text>
</g>
<!-- 33 -->
<g id="node19" class="node">
<title>33</title>
<polygon fill="yellow" stroke="black" points="190,-1013.7 118.5,-1013.7 118.5,-977.7 190,-977.7 190,-1013.7"/>
<text xml:space="preserve" text-anchor="middle" x="154.25" y="-990.65" font-family="Times New Roman,serif" font-size="14.00">result = D</text>
<text xml:space="preserve" text-anchor="middle" x="107.25" y="-1016.9" font-family="Times New Roman,serif" font-size="14.00">[33]</text>
</g>
<!-- 30&#45;&gt;33 -->
<g id="edge10" class="edge">
<title>30&#45;&gt;33</title>
<path fill="none" stroke="black" d="M156.82,-1114.84C156.31,-1091.33 155.45,-1051.91 154.87,-1025.13"/>
<polygon fill="black" stroke="black" points="158.37,-1025.25 154.66,-1015.33 151.37,-1025.4 158.37,-1025.25"/>
<text xml:space="preserve" text-anchor="middle" x="193.19" y="-1067.3" font-family="Times New Roman,serif" font-size="14.00">graphAnd#76</text>
</g>
<!-- 33&#45;&gt;75 -->
<g id="edge14" class="edge">
<title>33&#45;&gt;75</title>
<path fill="none" stroke="black" d="M153.83,-977.32C153.24,-951.73 152.25,-902.41 152.25,-860.45 152.25,-860.45 152.25,-860.45 152.25,-214.9 152.25,-199.18 152.25,-181.31 152.25,-168.31"/>
<polygon fill="black" stroke="black" points="155.75,-168.33 152.25,-158.33 148.75,-168.33 155.75,-168.33"/>
<text xml:space="preserve" text-anchor="middle" x="183" y="-510.85" font-family="Times New Roman,serif" font-size="14.00">merge1#81</text>
</g>
<!-- 36&#45;&gt;72 -->
<g id="edge11" class="edge">
<title>36&#45;&gt;72</title>
<path fill="none" stroke="black" d="M294.25,-1098.26C294.25,-1084.46 294.25,-1069.34 294.25,-1057.95"/>
<polygon fill="black" stroke="black" points="297.75,-1058.11 294.25,-1048.11 290.75,-1058.11 297.75,-1058.11"/>
<text xml:space="preserve" text-anchor="middle" x="331.38" y="-1067.3" font-family="Times New Roman,serif" font-size="14.00">graphAnd#77</text>
</g>
<!-- 42 -->
<g id="node22" class="node">
<title>42</title>
<polygon fill="yellow" stroke="black" points="277.62,-800.8 206.88,-800.8 206.88,-764.8 277.62,-764.8 277.62,-800.8"/>
<text xml:space="preserve" text-anchor="middle" x="242.25" y="-777.75" font-family="Times New Roman,serif" font-size="14.00">result = C</text>
<text xml:space="preserve" text-anchor="middle" x="195.62" y="-804" font-family="Times New Roman,serif" font-size="14.00">[42]</text>
</g>
<!-- 39&#45;&gt;42 -->
<g id="edge4" class="edge">
<title>39&#45;&gt;42</title>
<path fill="none" stroke="black" d="M242.25,-901.94C242.25,-878.43 242.25,-839.01 242.25,-812.23"/>
<polygon fill="black" stroke="black" points="245.75,-812.43 242.25,-802.43 238.75,-812.43 245.75,-812.43"/>
<text xml:space="preserve" text-anchor="middle" x="279.38" y="-854.4" font-family="Times New Roman,serif" font-size="14.00">graphAnd#68</text>
</g>
<!-- 42&#45;&gt;73 -->
<g id="edge8" class="edge">
<title>42&#45;&gt;73</title>
<path fill="none" stroke="black" d="M242.25,-764.42C242.25,-738.83 242.25,-689.5 242.25,-647.55 242.25,-647.55 242.25,-647.55 242.25,-281.8 242.25,-266.08 242.25,-248.21 242.25,-235.21"/>
<polygon fill="black" stroke="black" points="245.75,-235.23 242.25,-225.23 238.75,-235.23 245.75,-235.23"/>
<text xml:space="preserve" text-anchor="middle" x="273" y="-466.6" font-family="Times New Roman,serif" font-size="14.00">merge1#73</text>
</g>
<!-- 45&#45;&gt;70 -->
<g id="edge5" class="edge">
<title>45&#45;&gt;70</title>
<path fill="none" stroke="black" d="M379.25,-885.36C379.25,-871.56 379.25,-856.44 379.25,-845.05"/>
<polygon fill="black" stroke="black" points="382.75,-845.21 379.25,-835.21 375.75,-845.21 382.75,-845.21"/>
<text xml:space="preserve" text-anchor="middle" x="416.38" y="-854.4" font-family="Times New Roman,serif" font-size="14.00">graphAnd#69</text>
</g>
<!-- 51 -->
<g id="node25" class="node">
<title>51</title>
<polygon fill="yellow" stroke="black" points="361.62,-587.9 290.88,-587.9 290.88,-551.9 361.62,-551.9 361.62,-587.9"/>
<text xml:space="preserve" text-anchor="middle" x="326.25" y="-564.85" font-family="Times New Roman,serif" font-size="14.00">result = B</text>
<text xml:space="preserve" text-anchor="middle" x="279.62" y="-591.1" font-family="Times New Roman,serif" font-size="14.00">[51]</text>
</g>
<!-- 48&#45;&gt;51 -->
<g id="edge31" class="edge">
<title>48&#45;&gt;51</title>
<path fill="none" stroke="black" d="M328.82,-689.04C328.31,-665.53 327.45,-626.11 326.87,-599.33"/>
<polygon fill="black" stroke="black" points="330.37,-599.45 326.66,-589.53 323.37,-599.6 330.37,-599.45"/>
<text xml:space="preserve" text-anchor="middle" x="365.19" y="-641.5" font-family="Times New Roman,serif" font-size="14.00">graphAnd#60</text>
</g>
<!-- 51&#45;&gt;71 -->
<g id="edge2" class="edge">
<title>51&#45;&gt;71</title>
<path fill="none" stroke="black" d="M325.67,-551.51C325.08,-532.24 324.25,-500.23 324.25,-472.65 324.25,-472.65 324.25,-472.65 324.25,-348.7 324.25,-332.98 324.25,-315.11 324.25,-302.11"/>
<polygon fill="black" stroke="black" points="327.75,-302.13 324.25,-292.13 320.75,-302.13 327.75,-302.13"/>
<text xml:space="preserve" text-anchor="middle" x="355" y="-422.35" font-family="Times New Roman,serif" font-size="14.00">merge1#65</text>
</g>
<!-- 54&#45;&gt;68 -->
<g id="edge32" class="edge">
<title>54&#45;&gt;68</title>
<path fill="none" stroke="black" d="M466.25,-672.46C466.25,-658.66 466.25,-643.54 466.25,-632.15"/>
<polygon fill="black" stroke="black" points="469.75,-632.31 466.25,-622.31 462.75,-632.31 469.75,-632.31"/>
<text xml:space="preserve" text-anchor="middle" x="503.38" y="-641.5" font-family="Times New Roman,serif" font-size="14.00">graphAnd#61</text>
</g>
<!-- 60 -->
<g id="node28" class="node">
<title>60</title>
<polygon fill="yellow" stroke="black" points="474.62,-445.4 403.88,-445.4 403.88,-409.4 474.62,-409.4 474.62,-445.4"/>
<text xml:space="preserve" text-anchor="middle" x="439.25" y="-422.35" font-family="Times New Roman,serif" font-size="14.00">result = A</text>
<text xml:space="preserve" text-anchor="middle" x="392.62" y="-448.6" font-family="Times New Roman,serif" font-size="14.00">[60]</text>
</g>
<!-- 57&#45;&gt;60 -->
<g id="edge25" class="edge">
<title>57&#45;&gt;60</title>
<path fill="none" stroke="black" d="M432.83,-497.81C433.91,-486.16 435.36,-470.45 436.61,-456.92"/>
<polygon fill="black" stroke="black" points="440.07,-457.54 437.51,-447.26 433.1,-456.89 440.07,-457.54"/>
<text xml:space="preserve" text-anchor="middle" x="473.09" y="-466.6" font-family="Times New Roman,serif" font-size="14.00">graphAnd#52</text>
</g>
<!-- 60&#45;&gt;69 -->
<g id="edge29" class="edge">
<title>60&#45;&gt;69</title>
<path fill="none" stroke="black" d="M439.25,-409.22C439.25,-397.18 439.25,-381.1 439.25,-368.85"/>
<polygon fill="black" stroke="black" points="442.75,-368.94 439.25,-358.94 435.75,-368.94 442.75,-368.94"/>
<text xml:space="preserve" text-anchor="middle" x="470" y="-378.1" font-family="Times New Roman,serif" font-size="14.00">merge1#57</text>
</g>
<!-- 63&#45;&gt;66 -->
<g id="edge26" class="edge">
<title>63&#45;&gt;66</title>
<path fill="none" stroke="black" d="M538.67,-497.81C537.59,-486.16 536.14,-470.45 534.89,-456.92"/>
<polygon fill="black" stroke="black" points="538.4,-456.89 533.99,-447.26 531.43,-457.54 538.4,-456.89"/>
<text xml:space="preserve" text-anchor="middle" x="574.09" y="-466.6" font-family="Times New Roman,serif" font-size="14.00">graphAnd#53</text>
</g>
</g>
</svg>
