<?xml version="1.0" encoding="UTF-8" standalone="no"?>
<!DOCTYPE svg PUBLIC "-//W3C//DTD SVG 1.1//EN"
 "http://www.w3.org/Graphics/SVG/1.1/DTD/svg11.dtd">
<!-- Generated by graphviz version 13.1.2 (20250808.2320)
 -->
<!-- Title: CLG Pages: 1 -->
<svg width="159pt" height="174pt"
 viewBox="0.00 0.00 159.00 174.00" xmlns="http://www.w3.org/2000/svg" xmlns:xlink="http://www.w3.org/1999/xlink">
<g id="graph0" class="graph" transform="scale(1 1) rotate(0) translate(4 170.3)">
<title>CLG</title>
<polygon fill="white" stroke="none" points="-4,4 -4,-170.3 155,-170.3 155,4 -4,4"/>
<!-- 0 -->
<g id="node1" class="node">
<title>0</title>
<ellipse fill="black" stroke="black" cx="83.38" cy="-142.6" rx="7.2" ry="7.2"/>
<text xml:space="preserve" text-anchor="middle" x="68.3" y="-153" font-family="Times New Roman,serif" font-size="14.00">[0]</text>
</g>
<!-- 1 -->
<g id="node2" class="node">
<title>1</title>
<polygon fill="yellow" stroke="black" points="151,-99.4 15.75,-99.4 15.75,-58.4 151,-58.4 151,-99.4"/>
<text xml:space="preserve" text-anchor="middle" x="83.38" y="-82.1" font-family="Times New Roman,serif" font-size="14.00">self.number &gt;= 0 and</text>
<text xml:space="preserve" text-anchor="middle" x="83.38" y="-65.6" font-family="Times New Roman,serif" font-size="14.00">self.number &lt;= 100</text>
<text xml:space="preserve" text-anchor="middle" x="7.88" y="-102.6" font-family="Times New Roman,serif" font-size="14.00">[1]</text>
</g>
<!-- 0&#45;&gt;1 -->
<g id="edge1" class="edge">
<title>0&#45;&gt;1</title>
<path fill="none" stroke="black" d="M83.38,-135C83.38,-129.14 83.38,-120.13 83.38,-111.08"/>
<polygon fill="black" stroke="black" points="86.88,-111.35 83.38,-101.35 79.88,-111.35 86.88,-111.35"/>
</g>
<!-- 2 -->
<g id="node3" class="node">
<title>2</title>
<ellipse fill="black" stroke="black" cx="83.38" cy="-11.2" rx="7.2" ry="7.2"/>
<ellipse fill="none" stroke="black" cx="83.38" cy="-11.2" rx="11.2" ry="11.2"/>
<text xml:space="preserve" text-anchor="middle" x="62.05" y="-25.6" font-family="Times New Roman,serif" font-size="14.00">[&#45;1]</text>
</g>
<!-- 1&#45;&gt;2 -->
<g id="edge2" class="edge">
<title>1&#45;&gt;2</title>
<path fill="none" stroke="black" d="M83.38,-58.19C83.38,-50.64 83.38,-41.98 83.38,-34.23"/>
<polygon fill="black" stroke="black" points="86.88,-34.25 83.38,-24.25 79.88,-34.25 86.88,-34.25"/>
</g>
</g>
</svg>
