<?xml version="1.0" encoding="UTF-8" standalone="no"?>
<!DOCTYPE svg PUBLIC "-//W3C//DTD SVG 1.1//EN"
 "http://www.w3.org/Graphics/SVG/1.1/DTD/svg11.dtd">
<!-- Generated by graphviz version 12.2.1 (20241206.2353)
 -->
<!-- Title: CLG Pages: 1 -->
<svg width="181pt" height="348pt"
 viewBox="0.00 0.00 181.00 348.30" xmlns="http://www.w3.org/2000/svg" xmlns:xlink="http://www.w3.org/1999/xlink">
<g id="graph0" class="graph" transform="scale(1 1) rotate(0) translate(4 344.3)">
<title>CLG</title>
<polygon fill="white" stroke="none" points="-4,4 -4,-344.3 177,-344.3 177,4 -4,4"/>
<!-- 129 -->
<g id="node1" class="node">
<title>129</title>
<polygon fill="yellow" stroke="black" points="154.75,-183.9 29.25,-183.9 29.25,-147.9 154.75,-147.9 154.75,-183.9"/>
<text text-anchor="middle" x="92" y="-160.85" font-family="Times New Roman,serif" font-size="14.00">self.number &lt;= 100</text>
<text text-anchor="middle" x="14.62" y="-187.1" font-family="Times New Roman,serif" font-size="14.00">[129]</text>
</g>
<!-- 123 -->
<g id="node2" class="node">
<title>123</title>
<polygon fill="yellow" stroke="black" points="143.88,-95.4 40.12,-95.4 40.12,-59.4 143.88,-59.4 143.88,-95.4"/>
<text text-anchor="middle" x="92" y="-72.35" font-family="Times New Roman,serif" font-size="14.00">result = number</text>
<text text-anchor="middle" x="25.5" y="-98.6" font-family="Times New Roman,serif" font-size="14.00">[123]</text>
</g>
<!-- 129&#45;&gt;123 -->
<g id="edge4" class="edge">
<title>129&#45;&gt;123</title>
<path fill="none" stroke="black" d="M92,-147.81C92,-136.16 92,-120.45 92,-106.92"/>
<polygon fill="black" stroke="black" points="95.5,-107.26 92,-97.26 88.5,-107.26 95.5,-107.26"/>
<text text-anchor="middle" x="132.5" y="-116.6" font-family="Times New Roman,serif" font-size="14.00">graphAnd#155</text>
</g>
<!-- 124 -->
<g id="node3" class="node">
<title>124</title>
<ellipse fill="black" stroke="black" cx="92" cy="-11.2" rx="7.2" ry="7.2"/>
<ellipse fill="none" stroke="black" cx="92" cy="-11.2" rx="11.2" ry="11.2"/>
<text text-anchor="middle" x="70.67" y="-25.6" font-family="Times New Roman,serif" font-size="14.00">[&#45;1]</text>
</g>
<!-- 123&#45;&gt;124 -->
<g id="edge1" class="edge">
<title>123&#45;&gt;124</title>
<path fill="none" stroke="black" d="M92,-59.2C92,-51.5 92,-42.34 92,-34.15"/>
<polygon fill="black" stroke="black" points="95.5,-34.32 92,-24.32 88.5,-34.32 95.5,-34.32"/>
</g>
<!-- 125 -->
<g id="node4" class="node">
<title>125</title>
<ellipse fill="black" stroke="black" cx="92" cy="-316.6" rx="7.2" ry="7.2"/>
<text text-anchor="middle" x="76.92" y="-327" font-family="Times New Roman,serif" font-size="14.00">[0]</text>
</g>
<!-- 126 -->
<g id="node5" class="node">
<title>126</title>
<polygon fill="yellow" stroke="black" points="148,-272.4 36,-272.4 36,-236.4 148,-236.4 148,-272.4"/>
<text text-anchor="middle" x="92" y="-249.35" font-family="Times New Roman,serif" font-size="14.00">self.number &gt;= 0</text>
<text text-anchor="middle" x="21.38" y="-275.6" font-family="Times New Roman,serif" font-size="14.00">[126]</text>
</g>
<!-- 125&#45;&gt;126 -->
<g id="edge2" class="edge">
<title>125&#45;&gt;126</title>
<path fill="none" stroke="black" d="M92,-309.16C92,-303.1 92,-293.59 92,-284.24"/>
<polygon fill="black" stroke="black" points="95.5,-284.28 92,-274.28 88.5,-284.28 95.5,-284.28"/>
</g>
<!-- 126&#45;&gt;129 -->
<g id="edge3" class="edge">
<title>126&#45;&gt;129</title>
<path fill="none" stroke="black" d="M92,-236.31C92,-224.66 92,-208.95 92,-195.42"/>
<polygon fill="black" stroke="black" points="95.5,-195.76 92,-185.76 88.5,-195.76 95.5,-195.76"/>
<text text-anchor="middle" x="132.5" y="-205.1" font-family="Times New Roman,serif" font-size="14.00">graphAnd#154</text>
</g>
</g>
</svg>
