<?xml version="1.0" encoding="UTF-8" standalone="no"?>
<!DOCTYPE svg PUBLIC "-//W3C//DTD SVG 1.1//EN"
 "http://www.w3.org/Graphics/SVG/1.1/DTD/svg11.dtd">
<!-- Generated by graphviz version 12.2.1 (20241206.2353)
 -->
<!-- Title: CLG Pages: 1 -->
<svg width="604pt" height="2022pt"
 viewBox="0.00 0.00 603.71 2021.60" xmlns="http://www.w3.org/2000/svg" xmlns:xlink="http://www.w3.org/1999/xlink">
<g id="graph0" class="graph" transform="scale(1 1) rotate(0) translate(4 2017.6)">
<title>CLG</title>
<polygon fill="white" stroke="none" points="-4,4 -4,-2017.6 599.71,-2017.6 599.71,4 -4,4"/>
<!-- 64 -->
<g id="node1" class="node">
<title>64</title>
<polygon fill="yellow" stroke="black" points="555,-1108.1 459.5,-1108.1 459.5,-1072.1 555,-1072.1 555,-1108.1"/>
<text text-anchor="middle" x="507.25" y="-1085.05" font-family="Times New Roman,serif" font-size="14.00">number &lt;= 79</text>
<text text-anchor="middle" x="448.25" y="-1111.3" font-family="Times New Roman,serif" font-size="14.00">[64]</text>
</g>
<!-- 67 -->
<g id="node2" class="node">
<title>67</title>
<polygon fill="yellow" stroke="black" points="560.62,-987.2 489.88,-987.2 489.88,-951.2 560.62,-951.2 560.62,-987.2"/>
<text text-anchor="middle" x="525.25" y="-964.15" font-family="Times New Roman,serif" font-size="14.00">result = C</text>
<text text-anchor="middle" x="478.62" y="-990.4" font-family="Times New Roman,serif" font-size="14.00">[67]</text>
</g>
<!-- 64&#45;&gt;67 -->
<g id="edge42" class="edge">
<title>64&#45;&gt;67</title>
<path fill="none" stroke="black" d="M509.87,-1071.81C512.76,-1052.7 517.47,-1021.62 520.91,-998.86"/>
<polygon fill="black" stroke="black" points="524.37,-999.42 522.4,-989.01 517.45,-998.37 524.37,-999.42"/>
<text text-anchor="middle" x="555.21" y="-1040.8" font-family="Times New Roman,serif" font-size="14.00">graphAnd#118</text>
</g>
<!-- 111 -->
<g id="node29" class="node">
<title>111</title>
<polygon fill="aquamarine" stroke="black" points="280.25,-223.1 273.05,-215.9 280.25,-208.7 287.45,-215.9 280.25,-223.1"/>
<text text-anchor="middle" x="254.68" y="-226.3" font-family="Times New Roman,serif" font-size="14.00">&lt;111&gt;</text>
</g>
<!-- 67&#45;&gt;111 -->
<g id="edge46" class="edge">
<title>67&#45;&gt;111</title>
<path fill="none" stroke="black" d="M525.62,-950.7C525.9,-935.58 526.25,-913.12 526.25,-893.55 526.25,-893.55 526.25,-893.55 526.25,-281.8 526.25,-234.57 354.58,-220.96 298.06,-217.76"/>
<polygon fill="black" stroke="black" points="298.51,-214.28 288.34,-217.25 298.15,-221.27 298.51,-214.28"/>
<text text-anchor="middle" x="560.38" y="-589.6" font-family="Times New Roman,serif" font-size="14.00">merge1#123</text>
</g>
<!-- 70 -->
<g id="node3" class="node">
<title>70</title>
<polygon fill="yellow" stroke="black" points="327.88,-1108.1 240.62,-1108.1 240.62,-1072.1 327.88,-1072.1 327.88,-1108.1"/>
<text text-anchor="middle" x="284.25" y="-1085.05" font-family="Times New Roman,serif" font-size="14.00">number &lt; 70</text>
<text text-anchor="middle" x="229.38" y="-1111.3" font-family="Times New Roman,serif" font-size="14.00">[70]</text>
</g>
<!-- 76 -->
<g id="node6" class="node">
<title>76</title>
<polygon fill="aquamarine" stroke="black" points="311.25,-1019.6 304.05,-1012.4 311.25,-1005.2 318.45,-1012.4 311.25,-1019.6"/>
<text text-anchor="middle" x="289.05" y="-1022.8" font-family="Times New Roman,serif" font-size="14.00">&lt;76&gt;</text>
</g>
<!-- 70&#45;&gt;76 -->
<g id="edge23" class="edge">
<title>70&#45;&gt;76</title>
<path fill="none" stroke="black" d="M286.54,-1071.94C288.28,-1061.7 291.17,-1048.59 295.75,-1037.6 297.35,-1033.76 299.55,-1029.86 301.79,-1026.34"/>
<polygon fill="black" stroke="black" points="304.64,-1028.38 307.53,-1018.19 298.91,-1024.35 304.64,-1028.38"/>
<text text-anchor="middle" x="326.5" y="-1040.8" font-family="Times New Roman,serif" font-size="14.00">merge1#74</text>
</g>
<!-- 73 -->
<g id="node4" class="node">
<title>73</title>
<polygon fill="yellow" stroke="black" points="432.88,-1108.1 345.62,-1108.1 345.62,-1072.1 432.88,-1072.1 432.88,-1108.1"/>
<text text-anchor="middle" x="389.25" y="-1085.05" font-family="Times New Roman,serif" font-size="14.00">number &gt; 79</text>
<text text-anchor="middle" x="334.38" y="-1111.3" font-family="Times New Roman,serif" font-size="14.00">[73]</text>
</g>
<!-- 73&#45;&gt;76 -->
<g id="edge24" class="edge">
<title>73&#45;&gt;76</title>
<path fill="none" stroke="black" d="M381.41,-1071.71C375.86,-1060.87 367.57,-1047.21 357.25,-1037.6 348.52,-1029.48 336.55,-1023.29 327.01,-1019.21"/>
<polygon fill="black" stroke="black" points="328.34,-1015.97 317.75,-1015.61 325.81,-1022.5 328.34,-1015.97"/>
<text text-anchor="middle" x="401.79" y="-1040.8" font-family="Times New Roman,serif" font-size="14.00">merge2#75</text>
</g>
<!-- 75 -->
<g id="node5" class="node">
<title>75</title>
<polygon fill="aquamarine" stroke="black" points="376.25,-1185.8 369.05,-1178.6 376.25,-1171.4 383.45,-1178.6 376.25,-1185.8"/>
<text text-anchor="middle" x="354.05" y="-1189" font-family="Times New Roman,serif" font-size="14.00">&lt;75&gt;</text>
</g>
<!-- 75&#45;&gt;70 -->
<g id="edge21" class="edge">
<title>75&#45;&gt;70</title>
<path fill="none" stroke="black" d="M372.16,-1175.2C363.36,-1169.94 342.23,-1156.73 327,-1142.6 318.74,-1134.94 310.61,-1125.7 303.69,-1117.17"/>
<polygon fill="black" stroke="black" points="306.58,-1115.18 297.64,-1109.49 301.08,-1119.51 306.58,-1115.18"/>
<text text-anchor="middle" x="352.12" y="-1129.3" font-family="Times New Roman,serif" font-size="14.00">split1#72</text>
</g>
<!-- 75&#45;&gt;73 -->
<g id="edge22" class="edge">
<title>75&#45;&gt;73</title>
<path fill="none" stroke="black" d="M377.14,-1171.65C378.73,-1161.08 382.14,-1138.38 384.94,-1119.76"/>
<polygon fill="black" stroke="black" points="388.38,-1120.47 386.4,-1110.06 381.45,-1119.43 388.38,-1120.47"/>
<text text-anchor="middle" x="409.04" y="-1129.3" font-family="Times New Roman,serif" font-size="14.00">split2#73</text>
</g>
<!-- 108 -->
<g id="node25" class="node">
<title>108</title>
<polygon fill="aquamarine" stroke="black" points="311.25,-933.2 304.05,-926 311.25,-918.8 318.45,-926 311.25,-933.2"/>
<text text-anchor="middle" x="285.68" y="-936.4" font-family="Times New Roman,serif" font-size="14.00">&lt;108&gt;</text>
</g>
<!-- 76&#45;&gt;108 -->
<g id="edge43" class="edge">
<title>76&#45;&gt;108</title>
<path fill="none" stroke="black" d="M311.25,-1004.49C311.25,-991.63 311.25,-963.64 311.25,-945.05"/>
<polygon fill="black" stroke="black" points="314.75,-945.28 311.25,-935.28 307.75,-945.28 314.75,-945.28"/>
<text text-anchor="middle" x="351.75" y="-964.15" font-family="Times New Roman,serif" font-size="14.00">graphAnd#119</text>
</g>
<!-- 78 -->
<g id="node7" class="node">
<title>78</title>
<polygon fill="yellow" stroke="black" points="308,-866.3 212.5,-866.3 212.5,-830.3 308,-830.3 308,-866.3"/>
<text text-anchor="middle" x="260.25" y="-843.25" font-family="Times New Roman,serif" font-size="14.00">number &gt;= 80</text>
<text text-anchor="middle" x="201.25" y="-869.5" font-family="Times New Roman,serif" font-size="14.00">[78]</text>
</g>
<!-- 81 -->
<g id="node8" class="node">
<title>81</title>
<polygon fill="yellow" stroke="black" points="288,-777.8 192.5,-777.8 192.5,-741.8 288,-741.8 288,-777.8"/>
<text text-anchor="middle" x="240.25" y="-754.75" font-family="Times New Roman,serif" font-size="14.00">number &lt;= 89</text>
<text text-anchor="middle" x="181.25" y="-781" font-family="Times New Roman,serif" font-size="14.00">[81]</text>
</g>
<!-- 78&#45;&gt;81 -->
<g id="edge25" class="edge">
<title>78&#45;&gt;81</title>
<path fill="none" stroke="black" d="M256.3,-830.21C253.6,-818.56 249.97,-802.85 246.84,-789.32"/>
<polygon fill="black" stroke="black" points="250.27,-788.58 244.6,-779.62 243.45,-790.16 250.27,-788.58"/>
<text text-anchor="middle" x="289.17" y="-799" font-family="Times New Roman,serif" font-size="14.00">graphAnd#81</text>
</g>
<!-- 84 -->
<g id="node9" class="node">
<title>84</title>
<polygon fill="yellow" stroke="black" points="277.62,-656.9 206.88,-656.9 206.88,-620.9 277.62,-620.9 277.62,-656.9"/>
<text text-anchor="middle" x="242.25" y="-633.85" font-family="Times New Roman,serif" font-size="14.00">result = B</text>
<text text-anchor="middle" x="195.62" y="-660.1" font-family="Times New Roman,serif" font-size="14.00">[84]</text>
</g>
<!-- 81&#45;&gt;84 -->
<g id="edge36" class="edge">
<title>81&#45;&gt;84</title>
<path fill="none" stroke="black" d="M240.54,-741.51C240.86,-722.4 241.39,-691.32 241.77,-668.56"/>
<polygon fill="black" stroke="black" points="245.26,-668.78 241.93,-658.72 238.27,-668.66 245.26,-668.78"/>
<text text-anchor="middle" x="281.58" y="-710.5" font-family="Times New Roman,serif" font-size="14.00">graphAnd#110</text>
</g>
<!-- 109 -->
<g id="node26" class="node">
<title>109</title>
<polygon fill="aquamarine" stroke="black" points="280.25,-290 273.05,-282.8 280.25,-275.6 287.45,-282.8 280.25,-290"/>
<text text-anchor="middle" x="254.68" y="-293.2" font-family="Times New Roman,serif" font-size="14.00">&lt;109&gt;</text>
</g>
<!-- 84&#45;&gt;109 -->
<g id="edge40" class="edge">
<title>84&#45;&gt;109</title>
<path fill="none" stroke="black" d="M239.76,-620.57C237.75,-605.04 235.25,-581.62 235.25,-561.15 235.25,-561.15 235.25,-561.15 235.25,-348.7 235.25,-325.76 254.48,-305.08 267.8,-293.5"/>
<polygon fill="black" stroke="black" points="269.66,-296.5 275.24,-287.5 265.26,-291.06 269.66,-296.5"/>
<text text-anchor="middle" x="269.38" y="-466.6" font-family="Times New Roman,serif" font-size="14.00">merge1#115</text>
</g>
<!-- 87 -->
<g id="node10" class="node">
<title>87</title>
<polygon fill="yellow" stroke="black" points="392.88,-777.8 305.62,-777.8 305.62,-741.8 392.88,-741.8 392.88,-777.8"/>
<text text-anchor="middle" x="349.25" y="-754.75" font-family="Times New Roman,serif" font-size="14.00">number &lt; 80</text>
<text text-anchor="middle" x="294.38" y="-781" font-family="Times New Roman,serif" font-size="14.00">[87]</text>
</g>
<!-- 93 -->
<g id="node13" class="node">
<title>93</title>
<polygon fill="aquamarine" stroke="black" points="429.25,-689.3 422.05,-682.1 429.25,-674.9 436.45,-682.1 429.25,-689.3"/>
<text text-anchor="middle" x="407.05" y="-692.5" font-family="Times New Roman,serif" font-size="14.00">&lt;93&gt;</text>
</g>
<!-- 87&#45;&gt;93 -->
<g id="edge28" class="edge">
<title>87&#45;&gt;93</title>
<path fill="none" stroke="black" d="M353.22,-741.6C356.54,-730.57 362.3,-716.62 371.75,-707.3 382.85,-696.35 399.65,-690.06 412.23,-686.65"/>
<polygon fill="black" stroke="black" points="412.97,-690.08 421.92,-684.42 411.39,-683.26 412.97,-690.08"/>
<text text-anchor="middle" x="402.5" y="-710.5" font-family="Times New Roman,serif" font-size="14.00">merge1#91</text>
</g>
<!-- 90 -->
<g id="node11" class="node">
<title>90</title>
<polygon fill="yellow" stroke="black" points="497.88,-777.8 410.62,-777.8 410.62,-741.8 497.88,-741.8 497.88,-777.8"/>
<text text-anchor="middle" x="454.25" y="-754.75" font-family="Times New Roman,serif" font-size="14.00">number &gt; 89</text>
<text text-anchor="middle" x="399.38" y="-781" font-family="Times New Roman,serif" font-size="14.00">[90]</text>
</g>
<!-- 90&#45;&gt;93 -->
<g id="edge29" class="edge">
<title>90&#45;&gt;93</title>
<path fill="none" stroke="black" d="M448.58,-741.62C444.34,-728.8 438.6,-711.42 434.48,-698.93"/>
<polygon fill="black" stroke="black" points="437.83,-697.93 431.37,-689.53 431.19,-700.12 437.83,-697.93"/>
<text text-anchor="middle" x="473.25" y="-710.5" font-family="Times New Roman,serif" font-size="14.00">merge2#92</text>
</g>
<!-- 92 -->
<g id="node12" class="node">
<title>92</title>
<polygon fill="aquamarine" stroke="black" points="349.25,-855.5 342.05,-848.3 349.25,-841.1 356.45,-848.3 349.25,-855.5"/>
<text text-anchor="middle" x="327.05" y="-858.7" font-family="Times New Roman,serif" font-size="14.00">&lt;92&gt;</text>
</g>
<!-- 92&#45;&gt;87 -->
<g id="edge26" class="edge">
<title>92&#45;&gt;87</title>
<path fill="none" stroke="black" d="M349.25,-840.51C349.25,-829.65 349.25,-807.75 349.25,-789.65"/>
<polygon fill="black" stroke="black" points="352.75,-789.69 349.25,-779.69 345.75,-789.69 352.75,-789.69"/>
<text text-anchor="middle" x="374.38" y="-799" font-family="Times New Roman,serif" font-size="14.00">split1#89</text>
</g>
<!-- 92&#45;&gt;90 -->
<g id="edge27" class="edge">
<title>92&#45;&gt;90</title>
<path fill="none" stroke="black" d="M353.67,-844.87C363.17,-839.56 386.09,-826.26 403.25,-812.3 412.92,-804.44 422.73,-794.96 431.14,-786.28"/>
<polygon fill="black" stroke="black" points="433.64,-788.73 437.97,-779.07 428.56,-783.92 433.64,-788.73"/>
<text text-anchor="middle" x="446.17" y="-799" font-family="Times New Roman,serif" font-size="14.00">split2#90</text>
</g>
<!-- 106 -->
<g id="node22" class="node">
<title>106</title>
<polygon fill="aquamarine" stroke="black" points="429.25,-601.85 422.05,-594.65 429.25,-587.45 436.45,-594.65 429.25,-601.85"/>
<text text-anchor="middle" x="403.68" y="-605.05" font-family="Times New Roman,serif" font-size="14.00">&lt;106&gt;</text>
</g>
<!-- 93&#45;&gt;106 -->
<g id="edge37" class="edge">
<title>93&#45;&gt;106</title>
<path fill="none" stroke="black" d="M429.25,-674.39C429.25,-661.42 429.25,-632.47 429.25,-613.52"/>
<polygon fill="black" stroke="black" points="432.75,-613.6 429.25,-603.6 425.75,-613.6 432.75,-613.6"/>
<text text-anchor="middle" x="469.75" y="-633.85" font-family="Times New Roman,serif" font-size="14.00">graphAnd#111</text>
</g>
<!-- 95 -->
<g id="node14" class="node">
<title>95</title>
<polygon fill="yellow" stroke="black" points="371,-533.9 275.5,-533.9 275.5,-497.9 371,-497.9 371,-533.9"/>
<text text-anchor="middle" x="323.25" y="-510.85" font-family="Times New Roman,serif" font-size="14.00">number &gt;= 90</text>
<text text-anchor="middle" x="264.25" y="-537.1" font-family="Times New Roman,serif" font-size="14.00">[95]</text>
</g>
<!-- 98 -->
<g id="node15" class="node">
<title>98</title>
<polygon fill="yellow" stroke="black" points="361.62,-445.4 290.88,-445.4 290.88,-409.4 361.62,-409.4 361.62,-445.4"/>
<text text-anchor="middle" x="326.25" y="-422.35" font-family="Times New Roman,serif" font-size="14.00">result = A</text>
<text text-anchor="middle" x="279.62" y="-448.6" font-family="Times New Roman,serif" font-size="14.00">[98]</text>
</g>
<!-- 95&#45;&gt;98 -->
<g id="edge30" class="edge">
<title>95&#45;&gt;98</title>
<path fill="none" stroke="black" d="M323.84,-497.81C324.25,-486.16 324.79,-470.45 325.26,-456.92"/>
<polygon fill="black" stroke="black" points="328.75,-457.38 325.6,-447.26 321.75,-457.14 328.75,-457.38"/>
<text text-anchor="middle" x="365.52" y="-466.6" font-family="Times New Roman,serif" font-size="14.00">graphAnd#102</text>
</g>
<!-- 107 -->
<g id="node23" class="node">
<title>107</title>
<polygon fill="aquamarine" stroke="black" points="326.25,-356.9 319.05,-349.7 326.25,-342.5 333.45,-349.7 326.25,-356.9"/>
<text text-anchor="middle" x="300.68" y="-360.1" font-family="Times New Roman,serif" font-size="14.00">&lt;107&gt;</text>
</g>
<!-- 98&#45;&gt;107 -->
<g id="edge34" class="edge">
<title>98&#45;&gt;107</title>
<path fill="none" stroke="black" d="M326.25,-409.22C326.25,-397.18 326.25,-381.1 326.25,-368.85"/>
<polygon fill="black" stroke="black" points="329.75,-368.94 326.25,-358.94 322.75,-368.94 329.75,-368.94"/>
<text text-anchor="middle" x="360.38" y="-378.1" font-family="Times New Roman,serif" font-size="14.00">merge1#107</text>
</g>
<!-- 35 -->
<g id="node16" class="node">
<title>35</title>
<polygon fill="yellow" stroke="black" points="118,-1701.8 22.5,-1701.8 22.5,-1665.8 118,-1665.8 118,-1701.8"/>
<text text-anchor="middle" x="70.25" y="-1678.75" font-family="Times New Roman,serif" font-size="14.00">number &lt;= 59</text>
<text text-anchor="middle" x="11.25" y="-1705" font-family="Times New Roman,serif" font-size="14.00">[35]</text>
</g>
<!-- 38 -->
<g id="node18" class="node">
<title>38</title>
<polygon fill="yellow" stroke="black" points="104.88,-1580.9 35.62,-1580.9 35.62,-1544.9 104.88,-1544.9 104.88,-1580.9"/>
<text text-anchor="middle" x="70.25" y="-1557.85" font-family="Times New Roman,serif" font-size="14.00">result = F</text>
<text text-anchor="middle" x="24.38" y="-1584.1" font-family="Times New Roman,serif" font-size="14.00">[38]</text>
</g>
<!-- 35&#45;&gt;38 -->
<g id="edge5" class="edge">
<title>35&#45;&gt;38</title>
<path fill="none" stroke="black" d="M70.25,-1665.51C70.25,-1646.4 70.25,-1615.32 70.25,-1592.56"/>
<polygon fill="black" stroke="black" points="73.75,-1592.72 70.25,-1582.72 66.75,-1592.72 73.75,-1592.72"/>
<text text-anchor="middle" x="110.75" y="-1634.5" font-family="Times New Roman,serif" font-size="14.00">graphAnd#134</text>
</g>
<!-- 101 -->
<g id="node17" class="node">
<title>101</title>
<polygon fill="yellow" stroke="black" points="475.88,-533.9 388.62,-533.9 388.62,-497.9 475.88,-497.9 475.88,-533.9"/>
<text text-anchor="middle" x="432.25" y="-510.85" font-family="Times New Roman,serif" font-size="14.00">number &lt; 90</text>
<text text-anchor="middle" x="374" y="-537.1" font-family="Times New Roman,serif" font-size="14.00">[101]</text>
</g>
<!-- 104 -->
<g id="node19" class="node">
<title>104</title>
<polygon fill="yellow" stroke="black" points="462.62,-445.4 391.88,-445.4 391.88,-409.4 462.62,-409.4 462.62,-445.4"/>
<text text-anchor="middle" x="427.25" y="-422.35" font-family="Times New Roman,serif" font-size="14.00">result = B</text>
<text text-anchor="middle" x="377.25" y="-448.6" font-family="Times New Roman,serif" font-size="14.00">[104]</text>
</g>
<!-- 101&#45;&gt;104 -->
<g id="edge31" class="edge">
<title>101&#45;&gt;104</title>
<path fill="none" stroke="black" d="M431.26,-497.81C430.59,-486.16 429.68,-470.45 428.9,-456.92"/>
<polygon fill="black" stroke="black" points="432.41,-457.04 428.34,-447.26 425.42,-457.45 432.41,-457.04"/>
<text text-anchor="middle" x="470.7" y="-466.6" font-family="Times New Roman,serif" font-size="14.00">graphAnd#103</text>
</g>
<!-- 115 -->
<g id="node34" class="node">
<title>115</title>
<polygon fill="aquamarine" stroke="black" points="86.25,-89.3 79.05,-82.1 86.25,-74.9 93.45,-82.1 86.25,-89.3"/>
<text text-anchor="middle" x="60.67" y="-92.5" font-family="Times New Roman,serif" font-size="14.00">&lt;115&gt;</text>
</g>
<!-- 38&#45;&gt;115 -->
<g id="edge9" class="edge">
<title>38&#45;&gt;115</title>
<path fill="none" stroke="black" d="M70.25,-1544.51C70.25,-1525.24 70.25,-1493.22 70.25,-1465.65 70.25,-1465.65 70.25,-1465.65 70.25,-148 70.25,-130.59 75.74,-111.3 80.29,-98.31"/>
<polygon fill="black" stroke="black" points="83.5,-99.73 83.75,-89.14 76.95,-97.26 83.5,-99.73"/>
<text text-anchor="middle" x="104.38" y="-799" font-family="Times New Roman,serif" font-size="14.00">merge1#139</text>
</g>
<!-- 104&#45;&gt;107 -->
<g id="edge35" class="edge">
<title>104&#45;&gt;107</title>
<path fill="none" stroke="black" d="M421.2,-408.92C416.52,-397.77 409,-383.79 398.25,-374.9 382.37,-361.77 359.05,-355.65 343.29,-352.88"/>
<polygon fill="black" stroke="black" points="344.06,-349.45 333.66,-351.47 343.05,-356.38 344.06,-349.45"/>
<text text-anchor="middle" x="445.88" y="-378.1" font-family="Times New Roman,serif" font-size="14.00">merge2#108</text>
</g>
<!-- 41 -->
<g id="node20" class="node">
<title>41</title>
<polygon fill="yellow" stroke="black" points="222.88,-1701.8 135.62,-1701.8 135.62,-1665.8 222.88,-1665.8 222.88,-1701.8"/>
<text text-anchor="middle" x="179.25" y="-1678.75" font-family="Times New Roman,serif" font-size="14.00">number &gt; 59</text>
<text text-anchor="middle" x="124.38" y="-1705" font-family="Times New Roman,serif" font-size="14.00">[41]</text>
</g>
<!-- 112 -->
<g id="node30" class="node">
<title>112</title>
<polygon fill="aquamarine" stroke="black" points="179.25,-1613.3 172.05,-1606.1 179.25,-1598.9 186.45,-1606.1 179.25,-1613.3"/>
<text text-anchor="middle" x="153.68" y="-1616.5" font-family="Times New Roman,serif" font-size="14.00">&lt;112&gt;</text>
</g>
<!-- 41&#45;&gt;112 -->
<g id="edge6" class="edge">
<title>41&#45;&gt;112</title>
<path fill="none" stroke="black" d="M179.25,-1665.62C179.25,-1653.58 179.25,-1637.5 179.25,-1625.25"/>
<polygon fill="black" stroke="black" points="182.75,-1625.34 179.25,-1615.34 175.75,-1625.34 182.75,-1625.34"/>
<text text-anchor="middle" x="219.75" y="-1634.5" font-family="Times New Roman,serif" font-size="14.00">graphAnd#135</text>
</g>
<!-- 105 -->
<g id="node21" class="node">
<title>105</title>
<ellipse fill="black" stroke="black" cx="86.25" cy="-11.2" rx="7.2" ry="7.2"/>
<ellipse fill="none" stroke="black" cx="86.25" cy="-11.2" rx="11.2" ry="11.2"/>
<text text-anchor="middle" x="64.92" y="-25.6" font-family="Times New Roman,serif" font-size="14.00">[&#45;1]</text>
</g>
<!-- 106&#45;&gt;95 -->
<g id="edge32" class="edge">
<title>106&#45;&gt;95</title>
<path fill="none" stroke="black" d="M423.88,-592.26C412.87,-589.23 387.28,-581.27 369.25,-568.4 359.3,-561.29 349.97,-551.68 342.36,-542.67"/>
<polygon fill="black" stroke="black" points="345.31,-540.75 336.3,-535.17 339.86,-545.15 345.31,-540.75"/>
<text text-anchor="middle" x="397.75" y="-555.1" font-family="Times New Roman,serif" font-size="14.00">split1#105</text>
</g>
<!-- 106&#45;&gt;101 -->
<g id="edge33" class="edge">
<title>106&#45;&gt;101</title>
<path fill="none" stroke="black" d="M429.51,-587.11C429.86,-577.95 430.54,-560.75 431.13,-545.67"/>
<polygon fill="black" stroke="black" points="434.62,-545.86 431.51,-535.73 427.63,-545.59 434.62,-545.86"/>
<text text-anchor="middle" x="459.34" y="-555.1" font-family="Times New Roman,serif" font-size="14.00">split2#106</text>
</g>
<!-- 107&#45;&gt;109 -->
<g id="edge41" class="edge">
<title>107&#45;&gt;109</title>
<path fill="none" stroke="black" d="M323.51,-344.83C316.91,-335.52 299.9,-311.52 289.28,-296.54"/>
<polygon fill="black" stroke="black" points="292.43,-294.93 283.79,-288.8 286.72,-298.98 292.43,-294.93"/>
<text text-anchor="middle" x="342.85" y="-311.2" font-family="Times New Roman,serif" font-size="14.00">merge2#116</text>
</g>
<!-- 44 -->
<g id="node24" class="node">
<title>44</title>
<polygon fill="yellow" stroke="black" points="218,-1526.9 122.5,-1526.9 122.5,-1490.9 218,-1490.9 218,-1526.9"/>
<text text-anchor="middle" x="170.25" y="-1503.85" font-family="Times New Roman,serif" font-size="14.00">number &gt;= 60</text>
<text text-anchor="middle" x="111.25" y="-1530.1" font-family="Times New Roman,serif" font-size="14.00">[44]</text>
</g>
<!-- 47 -->
<g id="node28" class="node">
<title>47</title>
<polygon fill="yellow" stroke="black" points="209,-1438.4 113.5,-1438.4 113.5,-1402.4 209,-1402.4 209,-1438.4"/>
<text text-anchor="middle" x="161.25" y="-1415.35" font-family="Times New Roman,serif" font-size="14.00">number &lt;= 69</text>
<text text-anchor="middle" x="102.25" y="-1441.6" font-family="Times New Roman,serif" font-size="14.00">[47]</text>
</g>
<!-- 44&#45;&gt;47 -->
<g id="edge15" class="edge">
<title>44&#45;&gt;47</title>
<path fill="none" stroke="black" d="M168.47,-1490.81C167.26,-1479.16 165.62,-1463.45 164.22,-1449.92"/>
<polygon fill="black" stroke="black" points="167.73,-1449.84 163.21,-1440.26 160.77,-1450.56 167.73,-1449.84"/>
<text text-anchor="middle" x="203.68" y="-1459.6" font-family="Times New Roman,serif" font-size="14.00">graphAnd#47</text>
</g>
<!-- 108&#45;&gt;78 -->
<g id="edge38" class="edge">
<title>108&#45;&gt;78</title>
<path fill="none" stroke="black" d="M305.45,-924.08C294.77,-922.05 272.16,-916.08 262.25,-900.8 257.87,-894.04 256.32,-885.67 256.15,-877.65"/>
<polygon fill="black" stroke="black" points="259.64,-878.07 256.66,-867.9 252.65,-877.71 259.64,-878.07"/>
<text text-anchor="middle" x="290.75" y="-887.5" font-family="Times New Roman,serif" font-size="14.00">split1#113</text>
</g>
<!-- 108&#45;&gt;92 -->
<g id="edge39" class="edge">
<title>108&#45;&gt;92</title>
<path fill="none" stroke="black" d="M313.51,-920.49C318.99,-909.58 333.16,-881.36 341.92,-863.9"/>
<polygon fill="black" stroke="black" points="345.01,-865.55 346.37,-855.04 338.75,-862.41 345.01,-865.55"/>
<text text-anchor="middle" x="359.89" y="-887.5" font-family="Times New Roman,serif" font-size="14.00">split2#114</text>
</g>
<!-- 109&#45;&gt;111 -->
<g id="edge47" class="edge">
<title>109&#45;&gt;111</title>
<path fill="none" stroke="black" d="M280.25,-275.34C280.25,-266.01 280.25,-248.41 280.25,-234.95"/>
<polygon fill="black" stroke="black" points="283.75,-235.24 280.25,-225.24 276.75,-235.24 283.75,-235.24"/>
<text text-anchor="middle" x="314.38" y="-244.3" font-family="Times New Roman,serif" font-size="14.00">merge2#124</text>
</g>
<!-- 110 -->
<g id="node27" class="node">
<title>110</title>
<polygon fill="aquamarine" stroke="black" points="376.25,-1263.5 369.05,-1256.3 376.25,-1249.1 383.45,-1256.3 376.25,-1263.5"/>
<text text-anchor="middle" x="350.68" y="-1266.7" font-family="Times New Roman,serif" font-size="14.00">&lt;110&gt;</text>
</g>
<!-- 110&#45;&gt;75 -->
<g id="edge45" class="edge">
<title>110&#45;&gt;75</title>
<path fill="none" stroke="black" d="M376.25,-1248.58C376.25,-1237.28 376.25,-1214.08 376.25,-1197.71"/>
<polygon fill="black" stroke="black" points="379.75,-1197.93 376.25,-1187.93 372.75,-1197.93 379.75,-1197.93"/>
<text text-anchor="middle" x="404.75" y="-1217.8" font-family="Times New Roman,serif" font-size="14.00">split2#122</text>
</g>
<!-- 61 -->
<g id="node42" class="node">
<title>61</title>
<polygon fill="yellow" stroke="black" points="513,-1196.6 417.5,-1196.6 417.5,-1160.6 513,-1160.6 513,-1196.6"/>
<text text-anchor="middle" x="465.25" y="-1173.55" font-family="Times New Roman,serif" font-size="14.00">number &gt;= 70</text>
<text text-anchor="middle" x="406.25" y="-1199.8" font-family="Times New Roman,serif" font-size="14.00">[61]</text>
</g>
<!-- 110&#45;&gt;61 -->
<g id="edge44" class="edge">
<title>110&#45;&gt;61</title>
<path fill="none" stroke="black" d="M381.98,-1254.38C393.66,-1252.23 420.54,-1245.91 437.25,-1231.1 444.53,-1224.64 450.28,-1215.83 454.63,-1207.31"/>
<polygon fill="black" stroke="black" points="457.79,-1208.81 458.76,-1198.26 451.42,-1205.91 457.79,-1208.81"/>
<text text-anchor="middle" x="478.77" y="-1217.8" font-family="Times New Roman,serif" font-size="14.00">split1#121</text>
</g>
<!-- 50 -->
<g id="node32" class="node">
<title>50</title>
<polygon fill="yellow" stroke="black" points="190,-1317.5 118.5,-1317.5 118.5,-1281.5 190,-1281.5 190,-1317.5"/>
<text text-anchor="middle" x="154.25" y="-1294.45" font-family="Times New Roman,serif" font-size="14.00">result = D</text>
<text text-anchor="middle" x="107.25" y="-1320.7" font-family="Times New Roman,serif" font-size="14.00">[50]</text>
</g>
<!-- 47&#45;&gt;50 -->
<g id="edge48" class="edge">
<title>47&#45;&gt;50</title>
<path fill="none" stroke="black" d="M160.23,-1402.11C159.11,-1383 157.28,-1351.92 155.94,-1329.16"/>
<polygon fill="black" stroke="black" points="159.44,-1329.1 155.36,-1319.32 152.45,-1329.51 159.44,-1329.1"/>
<text text-anchor="middle" x="199.57" y="-1371.1" font-family="Times New Roman,serif" font-size="14.00">graphAnd#126</text>
</g>
<!-- 113 -->
<g id="node31" class="node">
<title>113</title>
<polygon fill="aquamarine" stroke="black" points="153.25,-156.2 146.05,-149 153.25,-141.8 160.45,-149 153.25,-156.2"/>
<text text-anchor="middle" x="127.67" y="-159.4" font-family="Times New Roman,serif" font-size="14.00">&lt;113&gt;</text>
</g>
<!-- 111&#45;&gt;113 -->
<g id="edge4" class="edge">
<title>111&#45;&gt;113</title>
<path fill="none" stroke="black" d="M275.73,-212.59C258.49,-203.78 196.37,-172.04 167.81,-157.44"/>
<polygon fill="black" stroke="black" points="169.43,-154.34 158.93,-152.9 166.24,-160.57 169.43,-154.34"/>
<text text-anchor="middle" x="265.98" y="-177.4" font-family="Times New Roman,serif" font-size="14.00">merge2#132</text>
</g>
<!-- 112&#45;&gt;44 -->
<g id="edge1" class="edge">
<title>112&#45;&gt;44</title>
<path fill="none" stroke="black" d="M178.66,-1598.85C177.52,-1586.83 174.97,-1559.8 172.97,-1538.67"/>
<polygon fill="black" stroke="black" points="176.47,-1538.51 172.04,-1528.88 169.5,-1539.17 176.47,-1538.51"/>
<text text-anchor="middle" x="205.34" y="-1557.85" font-family="Times New Roman,serif" font-size="14.00">split1#129</text>
</g>
<!-- 58 -->
<g id="node40" class="node">
<title>58</title>
<polygon fill="aquamarine" stroke="black" points="270.25,-1516.1 263.05,-1508.9 270.25,-1501.7 277.45,-1508.9 270.25,-1516.1"/>
<text text-anchor="middle" x="248.05" y="-1519.3" font-family="Times New Roman,serif" font-size="14.00">&lt;58&gt;</text>
</g>
<!-- 112&#45;&gt;58 -->
<g id="edge2" class="edge">
<title>112&#45;&gt;58</title>
<path fill="none" stroke="black" d="M184.88,-1604.22C196.35,-1602.15 222.65,-1595.98 238.25,-1580.9 253.59,-1566.07 262.18,-1542.54 266.51,-1526.68"/>
<polygon fill="black" stroke="black" points="269.91,-1527.52 268.85,-1516.98 263.1,-1525.88 269.91,-1527.52"/>
<text text-anchor="middle" x="288.77" y="-1557.85" font-family="Times New Roman,serif" font-size="14.00">split2#130</text>
</g>
<!-- 113&#45;&gt;115 -->
<g id="edge10" class="edge">
<title>113&#45;&gt;115</title>
<path fill="none" stroke="black" d="M150.02,-144.87C140.67,-135.81 113.25,-109.25 97.58,-94.07"/>
<polygon fill="black" stroke="black" points="100.31,-91.85 90.69,-87.4 95.44,-96.88 100.31,-91.85"/>
<text text-anchor="middle" x="161.85" y="-110.5" font-family="Times New Roman,serif" font-size="14.00">merge2#140</text>
</g>
<!-- 50&#45;&gt;113 -->
<g id="edge3" class="edge">
<title>50&#45;&gt;113</title>
<path fill="none" stroke="black" d="M153.88,-1281C153.6,-1265.88 153.25,-1243.42 153.25,-1223.85 153.25,-1223.85 153.25,-1223.85 153.25,-214.9 153.25,-199.18 153.25,-181.31 153.25,-168.31"/>
<polygon fill="black" stroke="black" points="156.75,-168.33 153.25,-158.33 149.75,-168.33 156.75,-168.33"/>
<text text-anchor="middle" x="187.38" y="-710.5" font-family="Times New Roman,serif" font-size="14.00">merge1#131</text>
</g>
<!-- 114 -->
<g id="node33" class="node">
<title>114</title>
<polygon fill="aquamarine" stroke="black" points="124.25,-1768.7 117.05,-1761.5 124.25,-1754.3 131.45,-1761.5 124.25,-1768.7"/>
<text text-anchor="middle" x="98.67" y="-1771.9" font-family="Times New Roman,serif" font-size="14.00">&lt;114&gt;</text>
</g>
<!-- 114&#45;&gt;35 -->
<g id="edge7" class="edge">
<title>114&#45;&gt;35</title>
<path fill="none" stroke="black" d="M119.95,-1758.23C113.22,-1754.48 100.14,-1746.4 92.25,-1736.3 86.82,-1729.35 82.47,-1720.85 79.12,-1712.78"/>
<polygon fill="black" stroke="black" points="82.49,-1711.78 75.7,-1703.64 75.93,-1714.24 82.49,-1711.78"/>
<text text-anchor="middle" x="120.75" y="-1723" font-family="Times New Roman,serif" font-size="14.00">split1#137</text>
</g>
<!-- 114&#45;&gt;41 -->
<g id="edge8" class="edge">
<title>114&#45;&gt;41</title>
<path fill="none" stroke="black" d="M127.78,-1757.63C132.91,-1753.35 142.54,-1744.86 149.25,-1736.3 155.02,-1728.94 160.45,-1720.35 165.07,-1712.33"/>
<polygon fill="black" stroke="black" points="168.13,-1714.02 169.9,-1703.58 162,-1710.64 168.13,-1714.02"/>
<text text-anchor="middle" x="188.9" y="-1723" font-family="Times New Roman,serif" font-size="14.00">split2#138</text>
</g>
<!-- 115&#45;&gt;105 -->
<g id="edge11" class="edge">
<title>115&#45;&gt;105</title>
<path fill="none" stroke="black" d="M86.25,-74.24C86.25,-64.87 86.25,-47.63 86.25,-33.7"/>
<polygon fill="black" stroke="black" points="89.75,-34.11 86.25,-24.11 82.75,-34.11 89.75,-34.11"/>
<text text-anchor="middle" x="135.38" y="-43.6" font-family="Times New Roman,serif" font-size="14.00">graphOr_end#141</text>
</g>
<!-- 116 -->
<g id="node35" class="node">
<title>116</title>
<ellipse fill="black" stroke="black" cx="124.25" cy="-1989.9" rx="7.2" ry="7.2"/>
<text text-anchor="middle" x="109.17" y="-2000.3" font-family="Times New Roman,serif" font-size="14.00">[0]</text>
</g>
<!-- 117 -->
<g id="node36" class="node">
<title>117</title>
<polygon fill="yellow" stroke="black" points="180.25,-1945.7 68.25,-1945.7 68.25,-1909.7 180.25,-1909.7 180.25,-1945.7"/>
<text text-anchor="middle" x="124.25" y="-1922.65" font-family="Times New Roman,serif" font-size="14.00">self.number &gt;= 0</text>
<text text-anchor="middle" x="53.62" y="-1948.9" font-family="Times New Roman,serif" font-size="14.00">[117]</text>
</g>
<!-- 116&#45;&gt;117 -->
<g id="edge12" class="edge">
<title>116&#45;&gt;117</title>
<path fill="none" stroke="black" d="M124.25,-1982.46C124.25,-1976.4 124.25,-1966.89 124.25,-1957.54"/>
<polygon fill="black" stroke="black" points="127.75,-1957.58 124.25,-1947.58 120.75,-1957.58 127.75,-1957.58"/>
</g>
<!-- 120 -->
<g id="node38" class="node">
<title>120</title>
<polygon fill="yellow" stroke="black" points="187,-1857.2 61.5,-1857.2 61.5,-1821.2 187,-1821.2 187,-1857.2"/>
<text text-anchor="middle" x="124.25" y="-1834.15" font-family="Times New Roman,serif" font-size="14.00">self.number &lt;= 100</text>
<text text-anchor="middle" x="46.88" y="-1860.4" font-family="Times New Roman,serif" font-size="14.00">[120]</text>
</g>
<!-- 117&#45;&gt;120 -->
<g id="edge13" class="edge">
<title>117&#45;&gt;120</title>
<path fill="none" stroke="black" d="M124.25,-1909.61C124.25,-1897.96 124.25,-1882.25 124.25,-1868.72"/>
<polygon fill="black" stroke="black" points="127.75,-1869.06 124.25,-1859.06 120.75,-1869.06 127.75,-1869.06"/>
<text text-anchor="middle" x="164.75" y="-1878.4" font-family="Times New Roman,serif" font-size="14.00">graphAnd#146</text>
</g>
<!-- 53 -->
<g id="node37" class="node">
<title>53</title>
<polygon fill="yellow" stroke="black" points="313.88,-1438.4 226.62,-1438.4 226.62,-1402.4 313.88,-1402.4 313.88,-1438.4"/>
<text text-anchor="middle" x="270.25" y="-1415.35" font-family="Times New Roman,serif" font-size="14.00">number &lt; 60</text>
<text text-anchor="middle" x="215.38" y="-1441.6" font-family="Times New Roman,serif" font-size="14.00">[53]</text>
</g>
<!-- 59 -->
<g id="node41" class="node">
<title>59</title>
<polygon fill="aquamarine" stroke="black" points="375.25,-1349.9 368.05,-1342.7 375.25,-1335.5 382.45,-1342.7 375.25,-1349.9"/>
<text text-anchor="middle" x="353.05" y="-1353.1" font-family="Times New Roman,serif" font-size="14.00">&lt;59&gt;</text>
</g>
<!-- 53&#45;&gt;59 -->
<g id="edge18" class="edge">
<title>53&#45;&gt;59</title>
<path fill="none" stroke="black" d="M280.02,-1402.05C287.04,-1390.96 297.41,-1376.99 309.75,-1367.9 324.54,-1357 344.78,-1350.52 358.83,-1347.05"/>
<polygon fill="black" stroke="black" points="359.17,-1350.56 368.18,-1345 357.67,-1343.72 359.17,-1350.56"/>
<text text-anchor="middle" x="340.5" y="-1371.1" font-family="Times New Roman,serif" font-size="14.00">merge1#57</text>
</g>
<!-- 120&#45;&gt;114 -->
<g id="edge14" class="edge">
<title>120&#45;&gt;114</title>
<path fill="none" stroke="black" d="M124.25,-1821.02C124.25,-1808.98 124.25,-1792.9 124.25,-1780.65"/>
<polygon fill="black" stroke="black" points="127.75,-1780.74 124.25,-1770.74 120.75,-1780.74 127.75,-1780.74"/>
<text text-anchor="middle" x="164.75" y="-1789.9" font-family="Times New Roman,serif" font-size="14.00">graphAnd#147</text>
</g>
<!-- 56 -->
<g id="node39" class="node">
<title>56</title>
<polygon fill="yellow" stroke="black" points="418.88,-1438.4 331.62,-1438.4 331.62,-1402.4 418.88,-1402.4 418.88,-1438.4"/>
<text text-anchor="middle" x="375.25" y="-1415.35" font-family="Times New Roman,serif" font-size="14.00">number &gt; 69</text>
<text text-anchor="middle" x="320.38" y="-1441.6" font-family="Times New Roman,serif" font-size="14.00">[56]</text>
</g>
<!-- 56&#45;&gt;59 -->
<g id="edge19" class="edge">
<title>56&#45;&gt;59</title>
<path fill="none" stroke="black" d="M375.25,-1402.22C375.25,-1390.18 375.25,-1374.1 375.25,-1361.85"/>
<polygon fill="black" stroke="black" points="378.75,-1361.94 375.25,-1351.94 371.75,-1361.94 378.75,-1361.94"/>
<text text-anchor="middle" x="406" y="-1371.1" font-family="Times New Roman,serif" font-size="14.00">merge2#58</text>
</g>
<!-- 58&#45;&gt;53 -->
<g id="edge16" class="edge">
<title>58&#45;&gt;53</title>
<path fill="none" stroke="black" d="M270.25,-1501.11C270.25,-1490.25 270.25,-1468.35 270.25,-1450.25"/>
<polygon fill="black" stroke="black" points="273.75,-1450.29 270.25,-1440.29 266.75,-1450.29 273.75,-1450.29"/>
<text text-anchor="middle" x="295.38" y="-1459.6" font-family="Times New Roman,serif" font-size="14.00">split1#55</text>
</g>
<!-- 58&#45;&gt;56 -->
<g id="edge17" class="edge">
<title>58&#45;&gt;56</title>
<path fill="none" stroke="black" d="M274.67,-1505.47C284.17,-1500.16 307.09,-1486.86 324.25,-1472.9 333.92,-1465.04 343.73,-1455.56 352.14,-1446.88"/>
<polygon fill="black" stroke="black" points="354.64,-1449.33 358.97,-1439.67 349.56,-1444.52 354.64,-1449.33"/>
<text text-anchor="middle" x="367.17" y="-1459.6" font-family="Times New Roman,serif" font-size="14.00">split2#56</text>
</g>
<!-- 59&#45;&gt;110 -->
<g id="edge49" class="edge">
<title>59&#45;&gt;110</title>
<path fill="none" stroke="black" d="M375.33,-1335.08C375.48,-1322.26 375.82,-1293.67 376.04,-1274.95"/>
<polygon fill="black" stroke="black" points="379.54,-1275.22 376.16,-1265.17 372.54,-1275.13 379.54,-1275.22"/>
<text text-anchor="middle" x="416.45" y="-1294.45" font-family="Times New Roman,serif" font-size="14.00">graphAnd#127</text>
</g>
<!-- 61&#45;&gt;64 -->
<g id="edge20" class="edge">
<title>61&#45;&gt;64</title>
<path fill="none" stroke="black" d="M473.55,-1160.51C479.32,-1148.62 487.14,-1132.51 493.8,-1118.8"/>
<polygon fill="black" stroke="black" points="496.95,-1120.34 498.16,-1109.81 490.65,-1117.28 496.95,-1120.34"/>
<text text-anchor="middle" x="527.14" y="-1129.3" font-family="Times New Roman,serif" font-size="14.00">graphAnd#64</text>
</g>
</g>
</svg>
