<?xml version="1.0" encoding="UTF-8" standalone="no"?>
<!DOCTYPE svg PUBLIC "-//W3C//DTD SVG 1.1//EN"
 "http://www.w3.org/Graphics/SVG/1.1/DTD/svg11.dtd">
<!-- Generated by graphviz version 12.2.1 (20241206.2353)
 -->
<!-- Title: CLG Pages: 1 -->
<svg width="687pt" height="2287pt"
 viewBox="0.00 0.00 686.56 2287.10" xmlns="http://www.w3.org/2000/svg" xmlns:xlink="http://www.w3.org/1999/xlink">
<g id="graph0" class="graph" transform="scale(1 1) rotate(0) translate(4 2283.1)">
<title>CLG</title>
<polygon fill="white" stroke="none" points="-4,4 -4,-2283.1 682.56,-2283.1 682.56,4 -4,4"/>
<!-- 128 -->
<g id="node1" class="node">
<title>128</title>
<polygon fill="yellow" stroke="black" points="627.62,-445.4 556.88,-445.4 556.88,-409.4 627.62,-409.4 627.62,-445.4"/>
<text text-anchor="middle" x="592.25" y="-422.35" font-family="Times New Roman,serif" font-size="14.00">result = B</text>
<text text-anchor="middle" x="542.25" y="-448.6" font-family="Times New Roman,serif" font-size="14.00">[128]</text>
</g>
<!-- 131 -->
<g id="node4" class="node">
<title>131</title>
<polygon fill="aquamarine" stroke="black" points="492.25,-356.9 485.05,-349.7 492.25,-342.5 499.45,-349.7 492.25,-356.9"/>
<text text-anchor="middle" x="466.68" y="-360.1" font-family="Times New Roman,serif" font-size="14.00">&lt;131&gt;</text>
</g>
<!-- 128&#45;&gt;131 -->
<g id="edge4" class="edge">
<title>128&#45;&gt;131</title>
<path fill="none" stroke="black" d="M586.55,-408.93C582.09,-397.78 574.85,-383.8 564.25,-374.9 548.47,-361.65 525.13,-355.56 509.34,-352.82"/>
<polygon fill="black" stroke="black" points="510.07,-349.39 499.68,-351.45 509.08,-356.32 510.07,-349.39"/>
<text text-anchor="middle" x="611.59" y="-378.1" font-family="Times New Roman,serif" font-size="14.00">merge2#132</text>
</g>
<!-- 129 -->
<g id="node2" class="node">
<title>129</title>
<ellipse fill="black" stroke="black" cx="86.25" cy="-11.2" rx="7.2" ry="7.2"/>
<ellipse fill="none" stroke="black" cx="86.25" cy="-11.2" rx="11.2" ry="11.2"/>
<text text-anchor="middle" x="64.92" y="-25.6" font-family="Times New Roman,serif" font-size="14.00">[&#45;1]</text>
</g>
<!-- 130 -->
<g id="node3" class="node">
<title>130</title>
<polygon fill="aquamarine" stroke="black" points="532.25,-600.8 525.05,-593.6 532.25,-586.4 539.45,-593.6 532.25,-600.8"/>
<text text-anchor="middle" x="506.68" y="-604" font-family="Times New Roman,serif" font-size="14.00">&lt;130&gt;</text>
</g>
<!-- 119 -->
<g id="node46" class="node">
<title>119</title>
<polygon fill="yellow" stroke="black" points="540,-533.9 444.5,-533.9 444.5,-497.9 540,-497.9 540,-533.9"/>
<text text-anchor="middle" x="492.25" y="-510.85" font-family="Times New Roman,serif" font-size="14.00">number &gt;= 90</text>
<text text-anchor="middle" x="429.88" y="-537.1" font-family="Times New Roman,serif" font-size="14.00">[119]</text>
</g>
<!-- 130&#45;&gt;119 -->
<g id="edge1" class="edge">
<title>130&#45;&gt;119</title>
<path fill="none" stroke="black" d="M529.16,-589.02C525.32,-584.45 518.74,-576.21 514.25,-568.4 509.97,-560.95 506.02,-552.51 502.69,-544.65"/>
<polygon fill="black" stroke="black" points="505.98,-543.44 498.98,-535.49 499.49,-546.07 505.98,-543.44"/>
<text text-anchor="middle" x="542.75" y="-555.1" font-family="Times New Roman,serif" font-size="14.00">split1#129</text>
</g>
<!-- 125 -->
<g id="node48" class="node">
<title>125</title>
<polygon fill="yellow" stroke="black" points="644.88,-533.9 557.62,-533.9 557.62,-497.9 644.88,-497.9 644.88,-533.9"/>
<text text-anchor="middle" x="601.25" y="-510.85" font-family="Times New Roman,serif" font-size="14.00">number &lt; 90</text>
<text text-anchor="middle" x="543" y="-537.1" font-family="Times New Roman,serif" font-size="14.00">[125]</text>
</g>
<!-- 130&#45;&gt;125 -->
<g id="edge2" class="edge">
<title>130&#45;&gt;125</title>
<path fill="none" stroke="black" d="M537.09,-590.54C545.01,-586.99 560.92,-579.03 571.25,-568.4 578.05,-561.41 583.9,-552.59 588.59,-544.23"/>
<polygon fill="black" stroke="black" points="591.67,-545.9 593.19,-535.41 585.47,-542.66 591.67,-545.9"/>
<text text-anchor="middle" x="611.78" y="-555.1" font-family="Times New Roman,serif" font-size="14.00">split2#130</text>
</g>
<!-- 133 -->
<g id="node6" class="node">
<title>133</title>
<polygon fill="aquamarine" stroke="black" points="358.25,-290 351.05,-282.8 358.25,-275.6 365.45,-282.8 358.25,-290"/>
<text text-anchor="middle" x="332.68" y="-293.2" font-family="Times New Roman,serif" font-size="14.00">&lt;133&gt;</text>
</g>
<!-- 131&#45;&gt;133 -->
<g id="edge10" class="edge">
<title>131&#45;&gt;133</title>
<path fill="none" stroke="black" d="M487.79,-346.54C469.91,-337.88 402.92,-305.43 372.93,-290.91"/>
<polygon fill="black" stroke="black" points="374.75,-287.9 364.22,-286.69 371.7,-294.2 374.75,-287.9"/>
<text text-anchor="middle" x="475.32" y="-311.2" font-family="Times New Roman,serif" font-size="14.00">merge2#140</text>
</g>
<!-- 132 -->
<g id="node5" class="node">
<title>132</title>
<polygon fill="aquamarine" stroke="black" points="416.25,-1021.7 409.05,-1014.5 416.25,-1007.3 423.45,-1014.5 416.25,-1021.7"/>
<text text-anchor="middle" x="390.68" y="-1024.9" font-family="Times New Roman,serif" font-size="14.00">&lt;132&gt;</text>
</g>
<!-- 96 -->
<g id="node37" class="node">
<title>96</title>
<polygon fill="yellow" stroke="black" points="412,-954.8 316.5,-954.8 316.5,-918.8 412,-918.8 412,-954.8"/>
<text text-anchor="middle" x="364.25" y="-931.75" font-family="Times New Roman,serif" font-size="14.00">number &gt;= 80</text>
<text text-anchor="middle" x="305.25" y="-958" font-family="Times New Roman,serif" font-size="14.00">[96]</text>
</g>
<!-- 132&#45;&gt;96 -->
<g id="edge7" class="edge">
<title>132&#45;&gt;96</title>
<path fill="none" stroke="black" d="M410.73,-1012.27C400.99,-1009.77 380.85,-1003.15 371.25,-989.3 366.62,-982.62 364.38,-974.27 363.43,-966.25"/>
<polygon fill="black" stroke="black" points="366.93,-966.28 362.89,-956.48 359.94,-966.66 366.93,-966.28"/>
<text text-anchor="middle" x="399.75" y="-976" font-family="Times New Roman,serif" font-size="14.00">split1#137</text>
</g>
<!-- 116 -->
<g id="node44" class="node">
<title>116</title>
<polygon fill="aquamarine" stroke="black" points="467.25,-944 460.05,-936.8 467.25,-929.6 474.45,-936.8 467.25,-944"/>
<text text-anchor="middle" x="441.68" y="-947.2" font-family="Times New Roman,serif" font-size="14.00">&lt;116&gt;</text>
</g>
<!-- 132&#45;&gt;116 -->
<g id="edge8" class="edge">
<title>132&#45;&gt;116</title>
<path fill="none" stroke="black" d="M418.99,-1009.43C426.26,-998.65 446.25,-968.97 458.1,-951.38"/>
<polygon fill="black" stroke="black" points="460.96,-953.39 463.65,-943.15 455.16,-949.48 460.96,-953.39"/>
<text text-anchor="middle" x="471.78" y="-976" font-family="Times New Roman,serif" font-size="14.00">split2#138</text>
</g>
<!-- 135 -->
<g id="node8" class="node">
<title>135</title>
<polygon fill="aquamarine" stroke="black" points="262.25,-223.1 255.05,-215.9 262.25,-208.7 269.45,-215.9 262.25,-223.1"/>
<text text-anchor="middle" x="236.68" y="-226.3" font-family="Times New Roman,serif" font-size="14.00">&lt;135&gt;</text>
</g>
<!-- 133&#45;&gt;135 -->
<g id="edge16" class="edge">
<title>133&#45;&gt;135</title>
<path fill="none" stroke="black" d="M354.6,-279.34C341.77,-270.66 298.26,-241.24 275.85,-226.09"/>
<polygon fill="black" stroke="black" points="277.82,-223.2 267.58,-220.5 273.9,-229 277.82,-223.2"/>
<text text-anchor="middle" x="355.8" y="-244.3" font-family="Times New Roman,serif" font-size="14.00">merge2#148</text>
</g>
<!-- 134 -->
<g id="node7" class="node">
<title>134</title>
<polygon fill="aquamarine" stroke="black" points="320.25,-1440.5 313.05,-1433.3 320.25,-1426.1 327.45,-1433.3 320.25,-1440.5"/>
<text text-anchor="middle" x="294.68" y="-1443.7" font-family="Times New Roman,serif" font-size="14.00">&lt;134&gt;</text>
</g>
<!-- 73 -->
<g id="node28" class="node">
<title>73</title>
<polygon fill="yellow" stroke="black" points="319,-1373.6 223.5,-1373.6 223.5,-1337.6 319,-1337.6 319,-1373.6"/>
<text text-anchor="middle" x="271.25" y="-1350.55" font-family="Times New Roman,serif" font-size="14.00">number &gt;= 70</text>
<text text-anchor="middle" x="212.25" y="-1376.8" font-family="Times New Roman,serif" font-size="14.00">[73]</text>
</g>
<!-- 134&#45;&gt;73 -->
<g id="edge13" class="edge">
<title>134&#45;&gt;73</title>
<path fill="none" stroke="black" d="M316.01,-1430.06C309.38,-1426.34 296.57,-1418.31 289.25,-1408.1 284.3,-1401.19 280.61,-1392.8 277.9,-1384.82"/>
<polygon fill="black" stroke="black" points="281.32,-1384.04 275.13,-1375.44 274.61,-1386.03 281.32,-1384.04"/>
<text text-anchor="middle" x="317.75" y="-1394.8" font-family="Times New Roman,serif" font-size="14.00">split1#145</text>
</g>
<!-- 93 -->
<g id="node35" class="node">
<title>93</title>
<polygon fill="aquamarine" stroke="black" points="371.25,-1362.8 364.05,-1355.6 371.25,-1348.4 378.45,-1355.6 371.25,-1362.8"/>
<text text-anchor="middle" x="349.05" y="-1366" font-family="Times New Roman,serif" font-size="14.00">&lt;93&gt;</text>
</g>
<!-- 134&#45;&gt;93 -->
<g id="edge14" class="edge">
<title>134&#45;&gt;93</title>
<path fill="none" stroke="black" d="M324.02,-1429.53C329.48,-1425.36 339.65,-1417.03 346.25,-1408.1 354.49,-1396.96 361.17,-1382.67 365.54,-1371.98"/>
<polygon fill="black" stroke="black" points="368.72,-1373.47 369.04,-1362.88 362.18,-1370.97 368.72,-1373.47"/>
<text text-anchor="middle" x="384.67" y="-1394.8" font-family="Times New Roman,serif" font-size="14.00">split2#146</text>
</g>
<!-- 137 -->
<g id="node10" class="node">
<title>137</title>
<polygon fill="aquamarine" stroke="black" points="166.25,-156.2 159.05,-149 166.25,-141.8 173.45,-149 166.25,-156.2"/>
<text text-anchor="middle" x="140.68" y="-159.4" font-family="Times New Roman,serif" font-size="14.00">&lt;137&gt;</text>
</g>
<!-- 135&#45;&gt;137 -->
<g id="edge22" class="edge">
<title>135&#45;&gt;137</title>
<path fill="none" stroke="black" d="M258.6,-212.44C245.77,-203.76 202.26,-174.34 179.85,-159.19"/>
<polygon fill="black" stroke="black" points="181.82,-156.3 171.58,-153.6 177.9,-162.1 181.82,-156.3"/>
<text text-anchor="middle" x="259.8" y="-177.4" font-family="Times New Roman,serif" font-size="14.00">merge2#156</text>
</g>
<!-- 136 -->
<g id="node9" class="node">
<title>136</title>
<polygon fill="aquamarine" stroke="black" points="179.25,-1878.8 172.05,-1871.6 179.25,-1864.4 186.45,-1871.6 179.25,-1878.8"/>
<text text-anchor="middle" x="153.68" y="-1882" font-family="Times New Roman,serif" font-size="14.00">&lt;136&gt;</text>
</g>
<!-- 50 -->
<g id="node19" class="node">
<title>50</title>
<polygon fill="yellow" stroke="black" points="222,-1792.4 126.5,-1792.4 126.5,-1756.4 222,-1756.4 222,-1792.4"/>
<text text-anchor="middle" x="174.25" y="-1769.35" font-family="Times New Roman,serif" font-size="14.00">number &gt;= 60</text>
<text text-anchor="middle" x="115.25" y="-1795.6" font-family="Times New Roman,serif" font-size="14.00">[50]</text>
</g>
<!-- 136&#45;&gt;50 -->
<g id="edge19" class="edge">
<title>136&#45;&gt;50</title>
<path fill="none" stroke="black" d="M178.91,-1864.06C178.27,-1851.85 176.85,-1824.94 175.75,-1803.95"/>
<polygon fill="black" stroke="black" points="179.26,-1804.05 175.24,-1794.24 172.27,-1804.41 179.26,-1804.05"/>
<text text-anchor="middle" x="206.41" y="-1823.35" font-family="Times New Roman,serif" font-size="14.00">split1#153</text>
</g>
<!-- 70 -->
<g id="node26" class="node">
<title>70</title>
<polygon fill="aquamarine" stroke="black" points="275.25,-1781.6 268.05,-1774.4 275.25,-1767.2 282.45,-1774.4 275.25,-1781.6"/>
<text text-anchor="middle" x="253.05" y="-1784.8" font-family="Times New Roman,serif" font-size="14.00">&lt;70&gt;</text>
</g>
<!-- 136&#45;&gt;70 -->
<g id="edge20" class="edge">
<title>136&#45;&gt;70</title>
<path fill="none" stroke="black" d="M184.92,-1869.69C196.48,-1867.56 223.03,-1861.28 239.25,-1846.4 255.64,-1831.36 265.65,-1807.16 270.83,-1791.27"/>
<polygon fill="black" stroke="black" points="274.06,-1792.67 273.54,-1782.09 267.35,-1790.69 274.06,-1792.67"/>
<text text-anchor="middle" x="291.68" y="-1823.35" font-family="Times New Roman,serif" font-size="14.00">split2#154</text>
</g>
<!-- 139 -->
<g id="node12" class="node">
<title>139</title>
<polygon fill="aquamarine" stroke="black" points="86.25,-89.3 79.05,-82.1 86.25,-74.9 93.45,-82.1 86.25,-89.3"/>
<text text-anchor="middle" x="60.67" y="-92.5" font-family="Times New Roman,serif" font-size="14.00">&lt;139&gt;</text>
</g>
<!-- 137&#45;&gt;139 -->
<g id="edge28" class="edge">
<title>137&#45;&gt;139</title>
<path fill="none" stroke="black" d="M162.81,-145.21C151.86,-136.33 117.41,-108.38 98.68,-93.18"/>
<polygon fill="black" stroke="black" points="101.09,-90.64 91.12,-87.05 96.68,-96.07 101.09,-90.64"/>
<text text-anchor="middle" x="169.89" y="-110.5" font-family="Times New Roman,serif" font-size="14.00">merge2#164</text>
</g>
<!-- 138 -->
<g id="node11" class="node">
<title>138</title>
<polygon fill="aquamarine" stroke="black" points="124.25,-2034.2 117.05,-2027 124.25,-2019.8 131.45,-2027 124.25,-2034.2"/>
<text text-anchor="middle" x="98.67" y="-2037.4" font-family="Times New Roman,serif" font-size="14.00">&lt;138&gt;</text>
</g>
<!-- 41 -->
<g id="node16" class="node">
<title>41</title>
<polygon fill="yellow" stroke="black" points="118,-1967.3 22.5,-1967.3 22.5,-1931.3 118,-1931.3 118,-1967.3"/>
<text text-anchor="middle" x="70.25" y="-1944.25" font-family="Times New Roman,serif" font-size="14.00">number &lt;= 59</text>
<text text-anchor="middle" x="11.25" y="-1970.5" font-family="Times New Roman,serif" font-size="14.00">[41]</text>
</g>
<!-- 138&#45;&gt;41 -->
<g id="edge25" class="edge">
<title>138&#45;&gt;41</title>
<path fill="none" stroke="black" d="M119.95,-2023.73C113.22,-2019.98 100.14,-2011.9 92.25,-2001.8 86.82,-1994.85 82.47,-1986.35 79.12,-1978.28"/>
<polygon fill="black" stroke="black" points="82.49,-1977.28 75.7,-1969.14 75.93,-1979.74 82.49,-1977.28"/>
<text text-anchor="middle" x="120.75" y="-1988.5" font-family="Times New Roman,serif" font-size="14.00">split1#161</text>
</g>
<!-- 47 -->
<g id="node18" class="node">
<title>47</title>
<polygon fill="yellow" stroke="black" points="222.88,-1967.3 135.62,-1967.3 135.62,-1931.3 222.88,-1931.3 222.88,-1967.3"/>
<text text-anchor="middle" x="179.25" y="-1944.25" font-family="Times New Roman,serif" font-size="14.00">number &gt; 59</text>
<text text-anchor="middle" x="124.38" y="-1970.5" font-family="Times New Roman,serif" font-size="14.00">[47]</text>
</g>
<!-- 138&#45;&gt;47 -->
<g id="edge26" class="edge">
<title>138&#45;&gt;47</title>
<path fill="none" stroke="black" d="M127.78,-2023.13C132.91,-2018.85 142.54,-2010.36 149.25,-2001.8 155.02,-1994.44 160.45,-1985.85 165.07,-1977.83"/>
<polygon fill="black" stroke="black" points="168.13,-1979.52 169.9,-1969.08 162,-1976.14 168.13,-1979.52"/>
<text text-anchor="middle" x="188.9" y="-1988.5" font-family="Times New Roman,serif" font-size="14.00">split2#162</text>
</g>
<!-- 139&#45;&gt;129 -->
<g id="edge29" class="edge">
<title>139&#45;&gt;129</title>
<path fill="none" stroke="black" d="M86.25,-74.24C86.25,-64.87 86.25,-47.63 86.25,-33.7"/>
<polygon fill="black" stroke="black" points="89.75,-34.11 86.25,-24.11 82.75,-34.11 89.75,-34.11"/>
<text text-anchor="middle" x="135.38" y="-43.6" font-family="Times New Roman,serif" font-size="14.00">graphOr_end#165</text>
</g>
<!-- 140 -->
<g id="node13" class="node">
<title>140</title>
<ellipse fill="black" stroke="black" cx="124.25" cy="-2255.4" rx="7.2" ry="7.2"/>
<text text-anchor="middle" x="109.17" y="-2265.8" font-family="Times New Roman,serif" font-size="14.00">[0]</text>
</g>
<!-- 141 -->
<g id="node14" class="node">
<title>141</title>
<polygon fill="yellow" stroke="black" points="180.25,-2211.2 68.25,-2211.2 68.25,-2175.2 180.25,-2175.2 180.25,-2211.2"/>
<text text-anchor="middle" x="124.25" y="-2188.15" font-family="Times New Roman,serif" font-size="14.00">self.number &gt;= 0</text>
<text text-anchor="middle" x="53.62" y="-2214.4" font-family="Times New Roman,serif" font-size="14.00">[141]</text>
</g>
<!-- 140&#45;&gt;141 -->
<g id="edge30" class="edge">
<title>140&#45;&gt;141</title>
<path fill="none" stroke="black" d="M124.25,-2247.96C124.25,-2241.9 124.25,-2232.39 124.25,-2223.04"/>
<polygon fill="black" stroke="black" points="127.75,-2223.08 124.25,-2213.08 120.75,-2223.08 127.75,-2223.08"/>
</g>
<!-- 144 -->
<g id="node15" class="node">
<title>144</title>
<polygon fill="yellow" stroke="black" points="187,-2122.7 61.5,-2122.7 61.5,-2086.7 187,-2086.7 187,-2122.7"/>
<text text-anchor="middle" x="124.25" y="-2099.65" font-family="Times New Roman,serif" font-size="14.00">self.number &lt;= 100</text>
<text text-anchor="middle" x="46.88" y="-2125.9" font-family="Times New Roman,serif" font-size="14.00">[144]</text>
</g>
<!-- 141&#45;&gt;144 -->
<g id="edge31" class="edge">
<title>141&#45;&gt;144</title>
<path fill="none" stroke="black" d="M124.25,-2175.11C124.25,-2163.46 124.25,-2147.75 124.25,-2134.22"/>
<polygon fill="black" stroke="black" points="127.75,-2134.56 124.25,-2124.56 120.75,-2134.56 127.75,-2134.56"/>
<text text-anchor="middle" x="164.75" y="-2143.9" font-family="Times New Roman,serif" font-size="14.00">graphAnd#170</text>
</g>
<!-- 144&#45;&gt;138 -->
<g id="edge32" class="edge">
<title>144&#45;&gt;138</title>
<path fill="none" stroke="black" d="M124.25,-2086.52C124.25,-2074.48 124.25,-2058.4 124.25,-2046.15"/>
<polygon fill="black" stroke="black" points="127.75,-2046.24 124.25,-2036.24 120.75,-2046.24 127.75,-2046.24"/>
<text text-anchor="middle" x="164.75" y="-2055.4" font-family="Times New Roman,serif" font-size="14.00">graphAnd#171</text>
</g>
<!-- 44 -->
<g id="node17" class="node">
<title>44</title>
<polygon fill="yellow" stroke="black" points="104.88,-1846.4 35.62,-1846.4 35.62,-1810.4 104.88,-1810.4 104.88,-1846.4"/>
<text text-anchor="middle" x="70.25" y="-1823.35" font-family="Times New Roman,serif" font-size="14.00">result = F</text>
<text text-anchor="middle" x="24.38" y="-1849.6" font-family="Times New Roman,serif" font-size="14.00">[44]</text>
</g>
<!-- 41&#45;&gt;44 -->
<g id="edge23" class="edge">
<title>41&#45;&gt;44</title>
<path fill="none" stroke="black" d="M70.25,-1931.01C70.25,-1911.9 70.25,-1880.82 70.25,-1858.06"/>
<polygon fill="black" stroke="black" points="73.75,-1858.22 70.25,-1848.22 66.75,-1858.22 73.75,-1858.22"/>
<text text-anchor="middle" x="110.75" y="-1900" font-family="Times New Roman,serif" font-size="14.00">graphAnd#158</text>
</g>
<!-- 44&#45;&gt;139 -->
<g id="edge27" class="edge">
<title>44&#45;&gt;139</title>
<path fill="none" stroke="black" d="M70.25,-1810.01C70.25,-1790.74 70.25,-1758.72 70.25,-1731.15 70.25,-1731.15 70.25,-1731.15 70.25,-148 70.25,-130.59 75.74,-111.3 80.29,-98.31"/>
<polygon fill="black" stroke="black" points="83.5,-99.73 83.75,-89.14 76.95,-97.26 83.5,-99.73"/>
<text text-anchor="middle" x="104.38" y="-931.75" font-family="Times New Roman,serif" font-size="14.00">merge1#163</text>
</g>
<!-- 47&#45;&gt;136 -->
<g id="edge24" class="edge">
<title>47&#45;&gt;136</title>
<path fill="none" stroke="black" d="M179.25,-1931.12C179.25,-1919.08 179.25,-1903 179.25,-1890.75"/>
<polygon fill="black" stroke="black" points="182.75,-1890.84 179.25,-1880.84 175.75,-1890.84 182.75,-1890.84"/>
<text text-anchor="middle" x="219.75" y="-1900" font-family="Times New Roman,serif" font-size="14.00">graphAnd#159</text>
</g>
<!-- 53 -->
<g id="node20" class="node">
<title>53</title>
<polygon fill="yellow" stroke="black" points="214,-1703.9 118.5,-1703.9 118.5,-1667.9 214,-1667.9 214,-1703.9"/>
<text text-anchor="middle" x="166.25" y="-1680.85" font-family="Times New Roman,serif" font-size="14.00">number &lt;= 69</text>
<text text-anchor="middle" x="107.25" y="-1707.1" font-family="Times New Roman,serif" font-size="14.00">[53]</text>
</g>
<!-- 50&#45;&gt;53 -->
<g id="edge33" class="edge">
<title>50&#45;&gt;53</title>
<path fill="none" stroke="black" d="M172.67,-1756.31C171.59,-1744.66 170.14,-1728.95 168.89,-1715.42"/>
<polygon fill="black" stroke="black" points="172.4,-1715.39 167.99,-1705.76 165.43,-1716.04 172.4,-1715.39"/>
<text text-anchor="middle" x="208.09" y="-1725.1" font-family="Times New Roman,serif" font-size="14.00">graphAnd#53</text>
</g>
<!-- 56 -->
<g id="node21" class="node">
<title>56</title>
<polygon fill="yellow" stroke="black" points="202,-1561.4 130.5,-1561.4 130.5,-1525.4 202,-1525.4 202,-1561.4"/>
<text text-anchor="middle" x="166.25" y="-1538.35" font-family="Times New Roman,serif" font-size="14.00">result = D</text>
<text text-anchor="middle" x="119.25" y="-1564.6" font-family="Times New Roman,serif" font-size="14.00">[56]</text>
</g>
<!-- 53&#45;&gt;56 -->
<g id="edge17" class="edge">
<title>53&#45;&gt;56</title>
<path fill="none" stroke="black" d="M166.25,-1667.67C166.25,-1644.08 166.25,-1601.4 166.25,-1572.98"/>
<polygon fill="black" stroke="black" points="169.75,-1573.28 166.25,-1563.28 162.75,-1573.28 169.75,-1573.28"/>
<text text-anchor="middle" x="206.75" y="-1636.6" font-family="Times New Roman,serif" font-size="14.00">graphAnd#150</text>
</g>
<!-- 56&#45;&gt;137 -->
<g id="edge21" class="edge">
<title>56&#45;&gt;137</title>
<path fill="none" stroke="black" d="M166.25,-1524.9C166.25,-1509.78 166.25,-1487.32 166.25,-1467.75 166.25,-1467.75 166.25,-1467.75 166.25,-214.9 166.25,-199.18 166.25,-181.31 166.25,-168.31"/>
<polygon fill="black" stroke="black" points="169.75,-168.33 166.25,-158.33 162.75,-168.33 169.75,-168.33"/>
<text text-anchor="middle" x="200.38" y="-843.25" font-family="Times New Roman,serif" font-size="14.00">merge1#155</text>
</g>
<!-- 59 -->
<g id="node22" class="node">
<title>59</title>
<polygon fill="yellow" stroke="black" points="318.88,-1703.9 231.62,-1703.9 231.62,-1667.9 318.88,-1667.9 318.88,-1703.9"/>
<text text-anchor="middle" x="275.25" y="-1680.85" font-family="Times New Roman,serif" font-size="14.00">number &lt; 60</text>
<text text-anchor="middle" x="220.38" y="-1707.1" font-family="Times New Roman,serif" font-size="14.00">[59]</text>
</g>
<!-- 62 -->
<g id="node23" class="node">
<title>62</title>
<polygon fill="yellow" stroke="black" points="323,-1615.4 227.5,-1615.4 227.5,-1579.4 323,-1579.4 323,-1615.4"/>
<text text-anchor="middle" x="275.25" y="-1592.35" font-family="Times New Roman,serif" font-size="14.00">number &lt;= 69</text>
<text text-anchor="middle" x="216.25" y="-1618.6" font-family="Times New Roman,serif" font-size="14.00">[62]</text>
</g>
<!-- 59&#45;&gt;62 -->
<g id="edge34" class="edge">
<title>59&#45;&gt;62</title>
<path fill="none" stroke="black" d="M275.25,-1667.81C275.25,-1656.16 275.25,-1640.45 275.25,-1626.92"/>
<polygon fill="black" stroke="black" points="278.75,-1627.26 275.25,-1617.26 271.75,-1627.26 278.75,-1627.26"/>
<text text-anchor="middle" x="312.38" y="-1636.6" font-family="Times New Roman,serif" font-size="14.00">graphAnd#60</text>
</g>
<!-- 71 -->
<g id="node27" class="node">
<title>71</title>
<polygon fill="aquamarine" stroke="black" points="320.25,-1507.4 313.05,-1500.2 320.25,-1493 327.45,-1500.2 320.25,-1507.4"/>
<text text-anchor="middle" x="298.05" y="-1510.6" font-family="Times New Roman,serif" font-size="14.00">&lt;71&gt;</text>
</g>
<!-- 62&#45;&gt;71 -->
<g id="edge38" class="edge">
<title>62&#45;&gt;71</title>
<path fill="none" stroke="black" d="M277.35,-1579.02C279.76,-1563.97 284.76,-1542.07 294.75,-1525.4 298.01,-1519.95 302.84,-1514.93 307.41,-1510.9"/>
<polygon fill="black" stroke="black" points="309.48,-1513.73 315.15,-1504.78 305.13,-1508.24 309.48,-1513.73"/>
<text text-anchor="middle" x="325.5" y="-1538.35" font-family="Times New Roman,serif" font-size="14.00">merge1#69</text>
</g>
<!-- 65 -->
<g id="node24" class="node">
<title>65</title>
<polygon fill="yellow" stroke="black" points="432,-1703.9 336.5,-1703.9 336.5,-1667.9 432,-1667.9 432,-1703.9"/>
<text text-anchor="middle" x="384.25" y="-1680.85" font-family="Times New Roman,serif" font-size="14.00">number &gt;= 60</text>
<text text-anchor="middle" x="325.25" y="-1707.1" font-family="Times New Roman,serif" font-size="14.00">[65]</text>
</g>
<!-- 68 -->
<g id="node25" class="node">
<title>68</title>
<polygon fill="yellow" stroke="black" points="427.88,-1615.4 340.62,-1615.4 340.62,-1579.4 427.88,-1579.4 427.88,-1615.4"/>
<text text-anchor="middle" x="384.25" y="-1592.35" font-family="Times New Roman,serif" font-size="14.00">number &gt; 69</text>
<text text-anchor="middle" x="329.38" y="-1618.6" font-family="Times New Roman,serif" font-size="14.00">[68]</text>
</g>
<!-- 65&#45;&gt;68 -->
<g id="edge35" class="edge">
<title>65&#45;&gt;68</title>
<path fill="none" stroke="black" d="M384.25,-1667.81C384.25,-1656.16 384.25,-1640.45 384.25,-1626.92"/>
<polygon fill="black" stroke="black" points="387.75,-1627.26 384.25,-1617.26 380.75,-1627.26 387.75,-1627.26"/>
<text text-anchor="middle" x="421.38" y="-1636.6" font-family="Times New Roman,serif" font-size="14.00">graphAnd#65</text>
</g>
<!-- 68&#45;&gt;71 -->
<g id="edge39" class="edge">
<title>68&#45;&gt;71</title>
<path fill="none" stroke="black" d="M380.55,-1579.14C376.57,-1563.76 369.04,-1541.3 356.25,-1525.4 350.5,-1518.25 342.06,-1512.42 334.8,-1508.27"/>
<polygon fill="black" stroke="black" points="336.49,-1505.21 325.99,-1503.77 333.3,-1511.44 336.49,-1505.21"/>
<text text-anchor="middle" x="405.37" y="-1538.35" font-family="Times New Roman,serif" font-size="14.00">merge2#70</text>
</g>
<!-- 70&#45;&gt;59 -->
<g id="edge36" class="edge">
<title>70&#45;&gt;59</title>
<path fill="none" stroke="black" d="M275.25,-1766.61C275.25,-1755.75 275.25,-1733.85 275.25,-1715.75"/>
<polygon fill="black" stroke="black" points="278.75,-1715.79 275.25,-1705.79 271.75,-1715.79 278.75,-1715.79"/>
<text text-anchor="middle" x="300.38" y="-1725.1" font-family="Times New Roman,serif" font-size="14.00">split1#67</text>
</g>
<!-- 70&#45;&gt;65 -->
<g id="edge37" class="edge">
<title>70&#45;&gt;65</title>
<path fill="none" stroke="black" d="M279.63,-1770.92C289.05,-1765.51 311.83,-1752.03 329.25,-1738.4 339.56,-1730.34 350.21,-1720.71 359.36,-1711.98"/>
<polygon fill="black" stroke="black" points="361.79,-1714.49 366.53,-1705.01 356.92,-1709.47 361.79,-1714.49"/>
<text text-anchor="middle" x="373.33" y="-1725.1" font-family="Times New Roman,serif" font-size="14.00">split2#68</text>
</g>
<!-- 71&#45;&gt;134 -->
<g id="edge18" class="edge">
<title>71&#45;&gt;134</title>
<path fill="none" stroke="black" d="M320.25,-1492.74C320.25,-1483.41 320.25,-1465.81 320.25,-1452.35"/>
<polygon fill="black" stroke="black" points="323.75,-1452.64 320.25,-1442.64 316.75,-1452.64 323.75,-1452.64"/>
<text text-anchor="middle" x="360.75" y="-1461.7" font-family="Times New Roman,serif" font-size="14.00">graphAnd#151</text>
</g>
<!-- 76 -->
<g id="node29" class="node">
<title>76</title>
<polygon fill="yellow" stroke="black" points="310,-1285.1 214.5,-1285.1 214.5,-1249.1 310,-1249.1 310,-1285.1"/>
<text text-anchor="middle" x="262.25" y="-1262.05" font-family="Times New Roman,serif" font-size="14.00">number &lt;= 79</text>
<text text-anchor="middle" x="203.25" y="-1288.3" font-family="Times New Roman,serif" font-size="14.00">[76]</text>
</g>
<!-- 73&#45;&gt;76 -->
<g id="edge40" class="edge">
<title>73&#45;&gt;76</title>
<path fill="none" stroke="black" d="M269.47,-1337.51C268.26,-1325.86 266.62,-1310.15 265.22,-1296.62"/>
<polygon fill="black" stroke="black" points="268.73,-1296.54 264.21,-1286.96 261.77,-1297.26 268.73,-1296.54"/>
<text text-anchor="middle" x="304.68" y="-1306.3" font-family="Times New Roman,serif" font-size="14.00">graphAnd#76</text>
</g>
<!-- 79 -->
<g id="node30" class="node">
<title>79</title>
<polygon fill="yellow" stroke="black" points="297.62,-1142.6 226.88,-1142.6 226.88,-1106.6 297.62,-1106.6 297.62,-1142.6"/>
<text text-anchor="middle" x="262.25" y="-1119.55" font-family="Times New Roman,serif" font-size="14.00">result = C</text>
<text text-anchor="middle" x="215.62" y="-1145.8" font-family="Times New Roman,serif" font-size="14.00">[79]</text>
</g>
<!-- 76&#45;&gt;79 -->
<g id="edge11" class="edge">
<title>76&#45;&gt;79</title>
<path fill="none" stroke="black" d="M262.25,-1248.87C262.25,-1225.28 262.25,-1182.6 262.25,-1154.18"/>
<polygon fill="black" stroke="black" points="265.75,-1154.48 262.25,-1144.48 258.75,-1154.48 265.75,-1154.48"/>
<text text-anchor="middle" x="302.75" y="-1217.8" font-family="Times New Roman,serif" font-size="14.00">graphAnd#142</text>
</g>
<!-- 79&#45;&gt;135 -->
<g id="edge15" class="edge">
<title>79&#45;&gt;135</title>
<path fill="none" stroke="black" d="M262.25,-1106.1C262.25,-1090.98 262.25,-1068.52 262.25,-1048.95 262.25,-1048.95 262.25,-1048.95 262.25,-281.8 262.25,-266.08 262.25,-248.21 262.25,-235.21"/>
<polygon fill="black" stroke="black" points="265.75,-235.23 262.25,-225.23 258.75,-235.23 265.75,-235.23"/>
<text text-anchor="middle" x="296.38" y="-656.5" font-family="Times New Roman,serif" font-size="14.00">merge1#147</text>
</g>
<!-- 82 -->
<g id="node31" class="node">
<title>82</title>
<polygon fill="yellow" stroke="black" points="414.88,-1285.1 327.62,-1285.1 327.62,-1249.1 414.88,-1249.1 414.88,-1285.1"/>
<text text-anchor="middle" x="371.25" y="-1262.05" font-family="Times New Roman,serif" font-size="14.00">number &lt; 70</text>
<text text-anchor="middle" x="316.38" y="-1288.3" font-family="Times New Roman,serif" font-size="14.00">[82]</text>
</g>
<!-- 85 -->
<g id="node32" class="node">
<title>85</title>
<polygon fill="yellow" stroke="black" points="419,-1196.6 323.5,-1196.6 323.5,-1160.6 419,-1160.6 419,-1196.6"/>
<text text-anchor="middle" x="371.25" y="-1173.55" font-family="Times New Roman,serif" font-size="14.00">number &lt;= 79</text>
<text text-anchor="middle" x="312.25" y="-1199.8" font-family="Times New Roman,serif" font-size="14.00">[85]</text>
</g>
<!-- 82&#45;&gt;85 -->
<g id="edge41" class="edge">
<title>82&#45;&gt;85</title>
<path fill="none" stroke="black" d="M371.25,-1249.01C371.25,-1237.36 371.25,-1221.65 371.25,-1208.12"/>
<polygon fill="black" stroke="black" points="374.75,-1208.46 371.25,-1198.46 367.75,-1208.46 374.75,-1208.46"/>
<text text-anchor="middle" x="408.38" y="-1217.8" font-family="Times New Roman,serif" font-size="14.00">graphAnd#83</text>
</g>
<!-- 94 -->
<g id="node36" class="node">
<title>94</title>
<polygon fill="aquamarine" stroke="black" points="416.25,-1088.6 409.05,-1081.4 416.25,-1074.2 423.45,-1081.4 416.25,-1088.6"/>
<text text-anchor="middle" x="394.05" y="-1091.8" font-family="Times New Roman,serif" font-size="14.00">&lt;94&gt;</text>
</g>
<!-- 85&#45;&gt;94 -->
<g id="edge45" class="edge">
<title>85&#45;&gt;94</title>
<path fill="none" stroke="black" d="M373.35,-1160.22C375.76,-1145.17 380.76,-1123.27 390.75,-1106.6 394.01,-1101.15 398.84,-1096.13 403.41,-1092.1"/>
<polygon fill="black" stroke="black" points="405.48,-1094.93 411.15,-1085.98 401.13,-1089.44 405.48,-1094.93"/>
<text text-anchor="middle" x="421.5" y="-1119.55" font-family="Times New Roman,serif" font-size="14.00">merge1#92</text>
</g>
<!-- 88 -->
<g id="node33" class="node">
<title>88</title>
<polygon fill="yellow" stroke="black" points="528,-1285.1 432.5,-1285.1 432.5,-1249.1 528,-1249.1 528,-1285.1"/>
<text text-anchor="middle" x="480.25" y="-1262.05" font-family="Times New Roman,serif" font-size="14.00">number &gt;= 70</text>
<text text-anchor="middle" x="421.25" y="-1288.3" font-family="Times New Roman,serif" font-size="14.00">[88]</text>
</g>
<!-- 91 -->
<g id="node34" class="node">
<title>91</title>
<polygon fill="yellow" stroke="black" points="523.88,-1196.6 436.62,-1196.6 436.62,-1160.6 523.88,-1160.6 523.88,-1196.6"/>
<text text-anchor="middle" x="480.25" y="-1173.55" font-family="Times New Roman,serif" font-size="14.00">number &gt; 79</text>
<text text-anchor="middle" x="425.38" y="-1199.8" font-family="Times New Roman,serif" font-size="14.00">[91]</text>
</g>
<!-- 88&#45;&gt;91 -->
<g id="edge42" class="edge">
<title>88&#45;&gt;91</title>
<path fill="none" stroke="black" d="M480.25,-1249.01C480.25,-1237.36 480.25,-1221.65 480.25,-1208.12"/>
<polygon fill="black" stroke="black" points="483.75,-1208.46 480.25,-1198.46 476.75,-1208.46 483.75,-1208.46"/>
<text text-anchor="middle" x="517.38" y="-1217.8" font-family="Times New Roman,serif" font-size="14.00">graphAnd#88</text>
</g>
<!-- 91&#45;&gt;94 -->
<g id="edge46" class="edge">
<title>91&#45;&gt;94</title>
<path fill="none" stroke="black" d="M476.55,-1160.34C472.57,-1144.96 465.04,-1122.5 452.25,-1106.6 446.5,-1099.45 438.06,-1093.62 430.8,-1089.47"/>
<polygon fill="black" stroke="black" points="432.49,-1086.41 421.99,-1084.97 429.3,-1092.64 432.49,-1086.41"/>
<text text-anchor="middle" x="501.37" y="-1119.55" font-family="Times New Roman,serif" font-size="14.00">merge2#93</text>
</g>
<!-- 93&#45;&gt;82 -->
<g id="edge43" class="edge">
<title>93&#45;&gt;82</title>
<path fill="none" stroke="black" d="M371.25,-1347.81C371.25,-1336.95 371.25,-1315.05 371.25,-1296.95"/>
<polygon fill="black" stroke="black" points="374.75,-1296.99 371.25,-1286.99 367.75,-1296.99 374.75,-1296.99"/>
<text text-anchor="middle" x="396.38" y="-1306.3" font-family="Times New Roman,serif" font-size="14.00">split1#90</text>
</g>
<!-- 93&#45;&gt;88 -->
<g id="edge44" class="edge">
<title>93&#45;&gt;88</title>
<path fill="none" stroke="black" d="M375.63,-1352.12C385.05,-1346.71 407.83,-1333.23 425.25,-1319.6 435.56,-1311.54 446.21,-1301.91 455.36,-1293.18"/>
<polygon fill="black" stroke="black" points="457.79,-1295.69 462.53,-1286.21 452.92,-1290.67 457.79,-1295.69"/>
<text text-anchor="middle" x="469.33" y="-1306.3" font-family="Times New Roman,serif" font-size="14.00">split2#91</text>
</g>
<!-- 94&#45;&gt;132 -->
<g id="edge12" class="edge">
<title>94&#45;&gt;132</title>
<path fill="none" stroke="black" d="M416.25,-1073.94C416.25,-1064.61 416.25,-1047.01 416.25,-1033.55"/>
<polygon fill="black" stroke="black" points="419.75,-1033.84 416.25,-1023.84 412.75,-1033.84 419.75,-1033.84"/>
<text text-anchor="middle" x="456.75" y="-1042.9" font-family="Times New Roman,serif" font-size="14.00">graphAnd#143</text>
</g>
<!-- 99 -->
<g id="node38" class="node">
<title>99</title>
<polygon fill="yellow" stroke="black" points="406,-866.3 310.5,-866.3 310.5,-830.3 406,-830.3 406,-866.3"/>
<text text-anchor="middle" x="358.25" y="-843.25" font-family="Times New Roman,serif" font-size="14.00">number &lt;= 89</text>
<text text-anchor="middle" x="299.25" y="-869.5" font-family="Times New Roman,serif" font-size="14.00">[99]</text>
</g>
<!-- 96&#45;&gt;99 -->
<g id="edge47" class="edge">
<title>96&#45;&gt;99</title>
<path fill="none" stroke="black" d="M363.06,-918.71C362.26,-907.06 361.17,-891.35 360.23,-877.82"/>
<polygon fill="black" stroke="black" points="363.74,-877.89 359.56,-868.16 356.76,-878.38 363.74,-877.89"/>
<text text-anchor="middle" x="398.91" y="-887.5" font-family="Times New Roman,serif" font-size="14.00">graphAnd#99</text>
</g>
<!-- 102 -->
<g id="node39" class="node">
<title>102</title>
<polygon fill="yellow" stroke="black" points="393.62,-723.8 322.88,-723.8 322.88,-687.8 393.62,-687.8 393.62,-723.8"/>
<text text-anchor="middle" x="358.25" y="-700.75" font-family="Times New Roman,serif" font-size="14.00">result = B</text>
<text text-anchor="middle" x="308.25" y="-727" font-family="Times New Roman,serif" font-size="14.00">[102]</text>
</g>
<!-- 99&#45;&gt;102 -->
<g id="edge5" class="edge">
<title>99&#45;&gt;102</title>
<path fill="none" stroke="black" d="M358.25,-830.07C358.25,-806.48 358.25,-763.8 358.25,-735.38"/>
<polygon fill="black" stroke="black" points="361.75,-735.68 358.25,-725.68 354.75,-735.68 361.75,-735.68"/>
<text text-anchor="middle" x="398.75" y="-799" font-family="Times New Roman,serif" font-size="14.00">graphAnd#134</text>
</g>
<!-- 102&#45;&gt;133 -->
<g id="edge9" class="edge">
<title>102&#45;&gt;133</title>
<path fill="none" stroke="black" d="M358.25,-687.43C358.25,-671.87 358.25,-648.44 358.25,-628.05 358.25,-628.05 358.25,-628.05 358.25,-348.7 358.25,-332.98 358.25,-315.11 358.25,-302.11"/>
<polygon fill="black" stroke="black" points="361.75,-302.13 358.25,-292.13 354.75,-302.13 361.75,-302.13"/>
<text text-anchor="middle" x="392.38" y="-510.85" font-family="Times New Roman,serif" font-size="14.00">merge1#139</text>
</g>
<!-- 105 -->
<g id="node40" class="node">
<title>105</title>
<polygon fill="yellow" stroke="black" points="510.88,-866.3 423.62,-866.3 423.62,-830.3 510.88,-830.3 510.88,-866.3"/>
<text text-anchor="middle" x="467.25" y="-843.25" font-family="Times New Roman,serif" font-size="14.00">number &lt; 80</text>
<text text-anchor="middle" x="409" y="-869.5" font-family="Times New Roman,serif" font-size="14.00">[105]</text>
</g>
<!-- 108 -->
<g id="node41" class="node">
<title>108</title>
<polygon fill="yellow" stroke="black" points="515,-777.8 419.5,-777.8 419.5,-741.8 515,-741.8 515,-777.8"/>
<text text-anchor="middle" x="467.25" y="-754.75" font-family="Times New Roman,serif" font-size="14.00">number &lt;= 89</text>
<text text-anchor="middle" x="404.88" y="-781" font-family="Times New Roman,serif" font-size="14.00">[108]</text>
</g>
<!-- 105&#45;&gt;108 -->
<g id="edge48" class="edge">
<title>105&#45;&gt;108</title>
<path fill="none" stroke="black" d="M467.25,-830.21C467.25,-818.56 467.25,-802.85 467.25,-789.32"/>
<polygon fill="black" stroke="black" points="470.75,-789.66 467.25,-779.66 463.75,-789.66 470.75,-789.66"/>
<text text-anchor="middle" x="507.75" y="-799" font-family="Times New Roman,serif" font-size="14.00">graphAnd#106</text>
</g>
<!-- 117 -->
<g id="node45" class="node">
<title>117</title>
<polygon fill="aquamarine" stroke="black" points="532.25,-668.75 525.05,-661.55 532.25,-654.35 539.45,-661.55 532.25,-668.75"/>
<text text-anchor="middle" x="506.68" y="-671.95" font-family="Times New Roman,serif" font-size="14.00">&lt;117&gt;</text>
</g>
<!-- 108&#45;&gt;117 -->
<g id="edge52" class="edge">
<title>108&#45;&gt;117</title>
<path fill="none" stroke="black" d="M463.64,-741.34C461.47,-725.83 460.94,-703.28 472,-687.8 481.89,-673.95 500.89,-667.66 514.92,-664.83"/>
<polygon fill="black" stroke="black" points="515.17,-668.33 524.51,-663.32 514.08,-661.42 515.17,-668.33"/>
<text text-anchor="middle" x="506.12" y="-700.75" font-family="Times New Roman,serif" font-size="14.00">merge1#115</text>
</g>
<!-- 111 -->
<g id="node42" class="node">
<title>111</title>
<polygon fill="yellow" stroke="black" points="624,-866.3 528.5,-866.3 528.5,-830.3 624,-830.3 624,-866.3"/>
<text text-anchor="middle" x="576.25" y="-843.25" font-family="Times New Roman,serif" font-size="14.00">number &gt;= 80</text>
<text text-anchor="middle" x="513.88" y="-869.5" font-family="Times New Roman,serif" font-size="14.00">[111]</text>
</g>
<!-- 114 -->
<g id="node43" class="node">
<title>114</title>
<polygon fill="yellow" stroke="black" points="619.88,-777.8 532.62,-777.8 532.62,-741.8 619.88,-741.8 619.88,-777.8"/>
<text text-anchor="middle" x="576.25" y="-754.75" font-family="Times New Roman,serif" font-size="14.00">number &gt; 89</text>
<text text-anchor="middle" x="518" y="-781" font-family="Times New Roman,serif" font-size="14.00">[114]</text>
</g>
<!-- 111&#45;&gt;114 -->
<g id="edge49" class="edge">
<title>111&#45;&gt;114</title>
<path fill="none" stroke="black" d="M576.25,-830.21C576.25,-818.56 576.25,-802.85 576.25,-789.32"/>
<polygon fill="black" stroke="black" points="579.75,-789.66 576.25,-779.66 572.75,-789.66 579.75,-789.66"/>
<text text-anchor="middle" x="616.75" y="-799" font-family="Times New Roman,serif" font-size="14.00">graphAnd#111</text>
</g>
<!-- 114&#45;&gt;117 -->
<g id="edge53" class="edge">
<title>114&#45;&gt;117</title>
<path fill="none" stroke="black" d="M568.38,-741.59C560.03,-723.32 546.96,-694.73 539.04,-677.4"/>
<polygon fill="black" stroke="black" points="542.3,-676.11 534.95,-668.47 535.93,-679.02 542.3,-676.11"/>
<text text-anchor="middle" x="593.61" y="-700.75" font-family="Times New Roman,serif" font-size="14.00">merge2#116</text>
</g>
<!-- 116&#45;&gt;105 -->
<g id="edge50" class="edge">
<title>116&#45;&gt;105</title>
<path fill="none" stroke="black" d="M467.25,-929.01C467.25,-918.15 467.25,-896.25 467.25,-878.15"/>
<polygon fill="black" stroke="black" points="470.75,-878.19 467.25,-868.19 463.75,-878.19 470.75,-878.19"/>
<text text-anchor="middle" x="495.75" y="-887.5" font-family="Times New Roman,serif" font-size="14.00">split1#113</text>
</g>
<!-- 116&#45;&gt;111 -->
<g id="edge51" class="edge">
<title>116&#45;&gt;111</title>
<path fill="none" stroke="black" d="M471.98,-933.69C482.65,-928.8 509.12,-915.98 528.25,-900.8 537.63,-893.36 546.86,-884.07 554.68,-875.44"/>
<polygon fill="black" stroke="black" points="557.31,-877.75 561.27,-867.92 552.05,-873.13 557.31,-877.75"/>
<text text-anchor="middle" x="573.91" y="-887.5" font-family="Times New Roman,serif" font-size="14.00">split2#114</text>
</g>
<!-- 117&#45;&gt;130 -->
<g id="edge6" class="edge">
<title>117&#45;&gt;130</title>
<path fill="none" stroke="black" d="M532.25,-653.99C532.25,-644.41 532.25,-626.24 532.25,-612.52"/>
<polygon fill="black" stroke="black" points="535.75,-612.65 532.25,-602.65 528.75,-612.65 535.75,-612.65"/>
<text text-anchor="middle" x="572.75" y="-622" font-family="Times New Roman,serif" font-size="14.00">graphAnd#135</text>
</g>
<!-- 122 -->
<g id="node47" class="node">
<title>122</title>
<polygon fill="yellow" stroke="black" points="527.62,-445.4 456.88,-445.4 456.88,-409.4 527.62,-409.4 527.62,-445.4"/>
<text text-anchor="middle" x="492.25" y="-422.35" font-family="Times New Roman,serif" font-size="14.00">result = A</text>
<text text-anchor="middle" x="442.25" y="-448.6" font-family="Times New Roman,serif" font-size="14.00">[122]</text>
</g>
<!-- 119&#45;&gt;122 -->
<g id="edge54" class="edge">
<title>119&#45;&gt;122</title>
<path fill="none" stroke="black" d="M492.25,-497.81C492.25,-486.16 492.25,-470.45 492.25,-456.92"/>
<polygon fill="black" stroke="black" points="495.75,-457.26 492.25,-447.26 488.75,-457.26 495.75,-457.26"/>
<text text-anchor="middle" x="532.75" y="-466.6" font-family="Times New Roman,serif" font-size="14.00">graphAnd#126</text>
</g>
<!-- 122&#45;&gt;131 -->
<g id="edge3" class="edge">
<title>122&#45;&gt;131</title>
<path fill="none" stroke="black" d="M492.25,-409.22C492.25,-397.18 492.25,-381.1 492.25,-368.85"/>
<polygon fill="black" stroke="black" points="495.75,-368.94 492.25,-358.94 488.75,-368.94 495.75,-368.94"/>
<text text-anchor="middle" x="526.38" y="-378.1" font-family="Times New Roman,serif" font-size="14.00">merge1#131</text>
</g>
<!-- 125&#45;&gt;128 -->
<g id="edge55" class="edge">
<title>125&#45;&gt;128</title>
<path fill="none" stroke="black" d="M599.47,-497.81C598.26,-486.16 596.62,-470.45 595.22,-456.92"/>
<polygon fill="black" stroke="black" points="598.73,-456.84 594.21,-447.26 591.77,-457.56 598.73,-456.84"/>
<text text-anchor="middle" x="638.06" y="-466.6" font-family="Times New Roman,serif" font-size="14.00">graphAnd#127</text>
</g>
</g>
</svg>
