<?xml version="1.0" encoding="UTF-8" standalone="no"?>
<!DOCTYPE svg PUBLIC "-//W3C//DTD SVG 1.1//EN"
 "http://www.w3.org/Graphics/SVG/1.1/DTD/svg11.dtd">
<!-- Generated by graphviz version 12.2.1 (20241206.2353)
 -->
<!-- Title: AST Pages: 1 -->
<svg width="349pt" height="349pt"
 viewBox="0.00 0.00 349.12 348.50" xmlns="http://www.w3.org/2000/svg" xmlns:xlink="http://www.w3.org/1999/xlink">
<g id="graph0" class="graph" transform="scale(1 1) rotate(0) translate(4 344.5)">
<title>AST</title>
<polygon fill="white" stroke="none" points="-4,4 -4,-344.5 345.12,-344.5 345.12,4 -4,4"/>
<!-- n16 -->
<g id="node1" class="node">
<title>n16</title>
<polygon fill="none" stroke="black" points="317,-324 70,-324 70,-288 317,-288 317,-324"/>
<text text-anchor="middle" x="193.5" y="-300.95" font-family="Times New Roman,serif" font-size="14.00">ContextDecl: node(10) Context: node (15)</text>
<text text-anchor="middle" x="58.75" y="-327.2" font-family="Times New Roman,serif" font-size="14.00">(16)</text>
</g>
<!-- n10 -->
<g id="node2" class="node">
<title>n10</title>
<polygon fill="none" stroke="black" points="215.88,-252 37.12,-252 37.12,-216 215.88,-216 215.88,-252"/>
<text text-anchor="middle" x="126.5" y="-228.95" font-family="Times New Roman,serif" font-size="14.00">VarArray::VarArray(node (9))</text>
<text text-anchor="middle" x="25.88" y="-255.2" font-family="Times New Roman,serif" font-size="14.00">(10)</text>
</g>
<!-- n16&#45;&gt;n10 -->
<g id="edge1" class="edge">
<title>n16&#45;&gt;n10</title>
<path fill="none" stroke="black" d="M176.94,-287.7C169.07,-279.47 159.51,-269.48 150.83,-260.42"/>
<polygon fill="black" stroke="black" points="153.36,-258 143.92,-253.2 148.3,-262.84 153.36,-258"/>
</g>
<!-- n15 -->
<g id="node3" class="node">
<title>n15</title>
<polygon fill="none" stroke="black" points="287.5,-252 233.5,-252 233.5,-216 287.5,-216 287.5,-252"/>
<text text-anchor="middle" x="260.5" y="-228.95" font-family="Times New Roman,serif" font-size="14.00"> post:</text>
<text text-anchor="middle" x="199.75" y="-255.2" font-family="Times New Roman,serif" font-size="14.00">(15)Boolean</text>
</g>
<!-- n16&#45;&gt;n15 -->
<g id="edge2" class="edge">
<title>n16&#45;&gt;n15</title>
<path fill="none" stroke="black" d="M210.06,-287.7C217.93,-279.47 227.49,-269.48 236.17,-260.42"/>
<polygon fill="black" stroke="black" points="238.7,-262.84 243.08,-253.2 233.64,-258 238.7,-262.84"/>
</g>
<!-- n9 -->
<g id="node4" class="node">
<title>n9</title>
<polygon fill="none" stroke="black" points="192.25,-180 60.75,-180 60.75,-144 192.25,-144 192.25,-180"/>
<text text-anchor="middle" x="126.5" y="-156.95" font-family="Times New Roman,serif" font-size="14.00">inputArray : int[dim]</text>
<text text-anchor="middle" x="30.38" y="-183.2" font-family="Times New Roman,serif" font-size="14.00">(9)int[dim]</text>
</g>
<!-- n10&#45;&gt;n9 -->
<g id="edge3" class="edge">
<title>n10&#45;&gt;n9</title>
<path fill="none" stroke="black" d="M126.5,-215.7C126.5,-208.41 126.5,-199.73 126.5,-191.54"/>
<polygon fill="black" stroke="black" points="130,-191.62 126.5,-181.62 123,-191.62 130,-191.62"/>
</g>
<!-- n14 -->
<g id="node5" class="node">
<title>n14</title>
<polygon fill="none" stroke="black" points="287.5,-180 233.5,-180 233.5,-144 287.5,-144 287.5,-180"/>
<text text-anchor="middle" x="260.5" y="-156.95" font-family="Times New Roman,serif" font-size="14.00">=</text>
<text text-anchor="middle" x="199.75" y="-183.2" font-family="Times New Roman,serif" font-size="14.00">(14)Boolean</text>
</g>
<!-- n15&#45;&gt;n14 -->
<g id="edge4" class="edge">
<title>n15&#45;&gt;n14</title>
<path fill="none" stroke="black" d="M260.5,-215.7C260.5,-208.41 260.5,-199.73 260.5,-191.54"/>
<polygon fill="black" stroke="black" points="264,-191.62 260.5,-181.62 257,-191.62 264,-191.62"/>
</g>
<!-- n12 -->
<g id="node6" class="node">
<title>n12</title>
<polygon fill="none" stroke="black" points="247.38,-108 185.62,-108 185.62,-72 247.38,-72 247.38,-108"/>
<text text-anchor="middle" x="216.5" y="-84.95" font-family="Times New Roman,serif" font-size="14.00">self.data</text>
<text text-anchor="middle" x="151.88" y="-111.2" font-family="Times New Roman,serif" font-size="14.00">(12)int[dim]</text>
</g>
<!-- n14&#45;&gt;n12 -->
<g id="edge5" class="edge">
<title>n14&#45;&gt;n12</title>
<path fill="none" stroke="black" d="M249.62,-143.7C244.72,-135.9 238.82,-126.51 233.36,-117.83"/>
<polygon fill="black" stroke="black" points="236.34,-115.99 228.06,-109.39 230.42,-119.71 236.34,-115.99"/>
</g>
<!-- n13 -->
<g id="node7" class="node">
<title>n13</title>
<polygon fill="none" stroke="black" points="341.12,-108 265.88,-108 265.88,-72 341.12,-72 341.12,-108"/>
<text text-anchor="middle" x="303.5" y="-84.95" font-family="Times New Roman,serif" font-size="14.00">inputArray</text>
<text text-anchor="middle" x="232.12" y="-111.2" font-family="Times New Roman,serif" font-size="14.00">(13)int[dim]</text>
</g>
<!-- n14&#45;&gt;n13 -->
<g id="edge6" class="edge">
<title>n14&#45;&gt;n13</title>
<path fill="none" stroke="black" d="M271.13,-143.7C275.92,-135.9 281.69,-126.51 287.02,-117.83"/>
<polygon fill="black" stroke="black" points="289.95,-119.75 292.2,-109.39 283.98,-116.08 289.95,-119.75"/>
</g>
<!-- n11 -->
<g id="node8" class="node">
<title>n11</title>
<polygon fill="none" stroke="black" points="243.5,-36 189.5,-36 189.5,0 243.5,0 243.5,-36"/>
<text text-anchor="middle" x="216.5" y="-12.95" font-family="Times New Roman,serif" font-size="14.00">self</text>
<text text-anchor="middle" x="153.12" y="-39.2" font-family="Times New Roman,serif" font-size="14.00">(11)VarArray</text>
</g>
<!-- n12&#45;&gt;n11 -->
<g id="edge7" class="edge">
<title>n12&#45;&gt;n11</title>
<path fill="none" stroke="black" d="M216.5,-71.7C216.5,-64.41 216.5,-55.73 216.5,-47.54"/>
<polygon fill="black" stroke="black" points="220,-47.62 216.5,-37.62 213,-47.62 220,-47.62"/>
</g>
</g>
</svg>
