<?xml version="1.0" encoding="UTF-8" standalone="no"?>
<!DOCTYPE svg PUBLIC "-//W3C//DTD SVG 1.1//EN"
 "http://www.w3.org/Graphics/SVG/1.1/DTD/svg11.dtd">
<!-- Generated by graphviz version 12.2.1 (20241206.2353)
 -->
<!-- Title: AST Pages: 1 -->
<svg width="304pt" height="421pt"
 viewBox="0.00 0.00 304.00 420.50" xmlns="http://www.w3.org/2000/svg" xmlns:xlink="http://www.w3.org/1999/xlink">
<g id="graph0" class="graph" transform="scale(1 1) rotate(0) translate(4 416.5)">
<title>AST</title>
<polygon fill="white" stroke="none" points="-4,4 -4,-416.5 300,-416.5 300,4 -4,4"/>
<!-- n8 -->
<g id="node1" class="node">
<title>n8</title>
<polygon fill="none" stroke="black" points="277.75,-396 44.25,-396 44.25,-360 277.75,-360 277.75,-396"/>
<text text-anchor="middle" x="161" y="-372.95" font-family="Times New Roman,serif" font-size="14.00">ContextDecl: node(0) Context: node (7)</text>
<text text-anchor="middle" x="36.37" y="-399.2" font-family="Times New Roman,serif" font-size="14.00">(8)</text>
</g>
<!-- n0 -->
<g id="node2" class="node">
<title>n0</title>
<polygon fill="none" stroke="black" points="155.12,-324 88.88,-324 88.88,-288 155.12,-288 155.12,-324"/>
<text text-anchor="middle" x="122" y="-300.95" font-family="Times New Roman,serif" font-size="14.00">VarArray</text>
<text text-anchor="middle" x="81" y="-327.2" font-family="Times New Roman,serif" font-size="14.00">(0)</text>
</g>
<!-- n8&#45;&gt;n0 -->
<g id="edge1" class="edge">
<title>n8&#45;&gt;n0</title>
<path fill="none" stroke="black" d="M151.36,-359.7C147.06,-351.98 141.9,-342.71 137.11,-334.11"/>
<polygon fill="black" stroke="black" points="140.19,-332.46 132.27,-325.43 134.08,-335.87 140.19,-332.46"/>
</g>
<!-- n7 -->
<g id="node3" class="node">
<title>n7</title>
<polygon fill="none" stroke="black" points="227,-324 173,-324 173,-288 227,-288 227,-324"/>
<text text-anchor="middle" x="200" y="-300.95" font-family="Times New Roman,serif" font-size="14.00"> inv:</text>
<text text-anchor="middle" x="142.62" y="-327.2" font-family="Times New Roman,serif" font-size="14.00">(7)Boolean</text>
</g>
<!-- n8&#45;&gt;n7 -->
<g id="edge2" class="edge">
<title>n8&#45;&gt;n7</title>
<path fill="none" stroke="black" d="M170.64,-359.7C174.94,-351.98 180.1,-342.71 184.89,-334.11"/>
<polygon fill="black" stroke="black" points="187.92,-335.87 189.73,-325.43 181.81,-332.46 187.92,-335.87"/>
</g>
<!-- n6 -->
<g id="node4" class="node">
<title>n6</title>
<polygon fill="none" stroke="black" points="227,-252 173,-252 173,-216 227,-216 227,-252"/>
<text text-anchor="middle" x="200" y="-228.95" font-family="Times New Roman,serif" font-size="14.00">&gt;</text>
<text text-anchor="middle" x="142.62" y="-255.2" font-family="Times New Roman,serif" font-size="14.00">(6)Boolean</text>
</g>
<!-- n7&#45;&gt;n6 -->
<g id="edge3" class="edge">
<title>n7&#45;&gt;n6</title>
<path fill="none" stroke="black" d="M200,-287.7C200,-280.41 200,-271.73 200,-263.54"/>
<polygon fill="black" stroke="black" points="203.5,-263.62 200,-253.62 196.5,-263.62 203.5,-263.62"/>
</g>
<!-- n4 -->
<g id="node5" class="node">
<title>n4</title>
<polygon fill="none" stroke="black" points="224.12,-180 37.88,-180 37.88,-144 224.12,-144 224.12,-180"/>
<text text-anchor="middle" x="131" y="-156.95" font-family="Times New Roman,serif" font-size="14.00">self.data.getDimensionSizes(1)</text>
<text text-anchor="middle" x="22.88" y="-183.2" font-family="Times New Roman,serif" font-size="14.00">(4)int</text>
</g>
<!-- n6&#45;&gt;n4 -->
<g id="edge4" class="edge">
<title>n6&#45;&gt;n4</title>
<path fill="none" stroke="black" d="M182.94,-215.7C174.76,-207.39 164.79,-197.28 155.78,-188.14"/>
<polygon fill="black" stroke="black" points="158.44,-185.85 148.92,-181.18 153.45,-190.76 158.44,-185.85"/>
</g>
<!-- n5 -->
<g id="node6" class="node">
<title>n5</title>
<polygon fill="none" stroke="black" points="296,-180 242,-180 242,-144 296,-144 296,-180"/>
<text text-anchor="middle" x="269" y="-156.95" font-family="Times New Roman,serif" font-size="14.00">0</text>
<text text-anchor="middle" x="227" y="-183.2" font-family="Times New Roman,serif" font-size="14.00">(5)int</text>
</g>
<!-- n6&#45;&gt;n5 -->
<g id="edge5" class="edge">
<title>n6&#45;&gt;n5</title>
<path fill="none" stroke="black" d="M217.06,-215.7C225.24,-207.39 235.21,-197.28 244.22,-188.14"/>
<polygon fill="black" stroke="black" points="246.55,-190.76 251.08,-181.18 241.56,-185.85 246.55,-190.76"/>
</g>
<!-- n2 -->
<g id="node7" class="node">
<title>n2</title>
<polygon fill="none" stroke="black" points="123.88,-108 62.12,-108 62.12,-72 123.88,-72 123.88,-108"/>
<text text-anchor="middle" x="93" y="-84.95" font-family="Times New Roman,serif" font-size="14.00">self.data</text>
<text text-anchor="middle" x="31.75" y="-111.2" font-family="Times New Roman,serif" font-size="14.00">(2)int[dim]</text>
</g>
<!-- n4&#45;&gt;n2 -->
<g id="edge6" class="edge">
<title>n4&#45;&gt;n2</title>
<path fill="none" stroke="black" d="M121.61,-143.7C117.42,-135.98 112.39,-126.71 107.72,-118.11"/>
<polygon fill="black" stroke="black" points="110.85,-116.55 103.01,-109.43 104.7,-119.89 110.85,-116.55"/>
</g>
<!-- n3 -->
<g id="node8" class="node">
<title>n3</title>
<polygon fill="none" stroke="black" points="196,-108 142,-108 142,-72 196,-72 196,-108"/>
<text text-anchor="middle" x="169" y="-84.95" font-family="Times New Roman,serif" font-size="14.00">1</text>
<text text-anchor="middle" x="127" y="-111.2" font-family="Times New Roman,serif" font-size="14.00">(3)int</text>
</g>
<!-- n4&#45;&gt;n3 -->
<g id="edge7" class="edge">
<title>n4&#45;&gt;n3</title>
<path fill="none" stroke="black" d="M140.39,-143.7C144.58,-135.98 149.61,-126.71 154.28,-118.11"/>
<polygon fill="black" stroke="black" points="157.3,-119.89 158.99,-109.43 151.15,-116.55 157.3,-119.89"/>
</g>
<!-- n1 -->
<g id="node9" class="node">
<title>n1</title>
<polygon fill="none" stroke="black" points="120,-36 66,-36 66,0 120,0 120,-36"/>
<text text-anchor="middle" x="93" y="-12.95" font-family="Times New Roman,serif" font-size="14.00">self</text>
<text text-anchor="middle" x="33" y="-39.2" font-family="Times New Roman,serif" font-size="14.00">(1)VarArray</text>
</g>
<!-- n2&#45;&gt;n1 -->
<g id="edge8" class="edge">
<title>n2&#45;&gt;n1</title>
<path fill="none" stroke="black" d="M93,-71.7C93,-64.41 93,-55.73 93,-47.54"/>
<polygon fill="black" stroke="black" points="96.5,-47.62 93,-37.62 89.5,-47.62 96.5,-47.62"/>
</g>
</g>
</svg>
