<?xml version="1.0" encoding="UTF-8" standalone="no"?>
<!DOCTYPE svg PUBLIC "-//W3C//DTD SVG 1.1//EN"
 "http://www.w3.org/Graphics/SVG/1.1/DTD/svg11.dtd">
<!-- Generated by graphviz version 12.2.1 (20241206.2353)
 -->
<!-- Title: AST Pages: 1 -->
<svg width="2474pt" height="663pt"
 viewBox="0.00 0.00 2474.12 663.00" xmlns="http://www.w3.org/2000/svg" xmlns:xlink="http://www.w3.org/1999/xlink">
<g id="graph0" class="graph" transform="scale(1 1) rotate(0) translate(4 659)">
<title>AST</title>
<polygon fill="white" stroke="none" points="-4,4 -4,-659 2470.12,-659 2470.12,4 -4,4"/>
<!-- n148 -->
<g id="node1" class="node">
<title>n148</title>
<polygon fill="none" stroke="black" points="783.38,-638.5 462.88,-638.5 462.88,-602.5 783.38,-602.5 783.38,-638.5"/>
<text text-anchor="middle" x="623.12" y="-615.45" font-family="Times New Roman,serif" font-size="14.00">ContextDecl: node(84) Context: node (102), node (147)</text>
<text text-anchor="middle" x="448.25" y="-641.7" font-family="Times New Roman,serif" font-size="14.00">(148)</text>
</g>
<!-- n84 -->
<g id="node2" class="node">
<title>n84</title>
<polygon fill="none" stroke="black" points="525.5,-566.5 310.75,-566.5 310.75,-530.5 525.5,-530.5 525.5,-566.5"/>
<text text-anchor="middle" x="418.12" y="-543.45" font-family="Times New Roman,serif" font-size="14.00">VarArray::sub(node (83)) : VarArray</text>
<text text-anchor="middle" x="299.5" y="-569.7" font-family="Times New Roman,serif" font-size="14.00">(84)</text>
</g>
<!-- n148&#45;&gt;n84 -->
<g id="edge1" class="edge">
<title>n148&#45;&gt;n84</title>
<path fill="none" stroke="black" d="M571.92,-602.02C543.93,-592.46 509.07,-580.55 479.61,-570.5"/>
<polygon fill="black" stroke="black" points="481.06,-567.29 470.46,-567.37 478.79,-573.91 481.06,-567.29"/>
</g>
<!-- n102 -->
<g id="node3" class="node">
<title>n102</title>
<polygon fill="none" stroke="black" points="702.38,-566.5 543.88,-566.5 543.88,-530.5 702.38,-530.5 702.38,-566.5"/>
<text text-anchor="middle" x="623.12" y="-543.45" font-family="Times New Roman,serif" font-size="14.00">IllegalDimensionSize pre:</text>
<text text-anchor="middle" x="506.75" y="-569.7" font-family="Times New Roman,serif" font-size="14.00">(102)Boolean</text>
</g>
<!-- n148&#45;&gt;n102 -->
<g id="edge2" class="edge">
<title>n148&#45;&gt;n102</title>
<path fill="none" stroke="black" d="M623.12,-602.2C623.12,-594.91 623.12,-586.23 623.12,-578.04"/>
<polygon fill="black" stroke="black" points="626.63,-578.12 623.13,-568.12 619.63,-578.12 626.63,-578.12"/>
</g>
<!-- n147 -->
<g id="node4" class="node">
<title>n147</title>
<polygon fill="none" stroke="black" points="978.12,-566.5 924.12,-566.5 924.12,-530.5 978.12,-530.5 978.12,-566.5"/>
<text text-anchor="middle" x="951.12" y="-543.45" font-family="Times New Roman,serif" font-size="14.00"> post:</text>
<text text-anchor="middle" x="887" y="-569.7" font-family="Times New Roman,serif" font-size="14.00">(147)Boolean</text>
</g>
<!-- n148&#45;&gt;n147 -->
<g id="edge3" class="edge">
<title>n148&#45;&gt;n147</title>
<path fill="none" stroke="black" d="M705.05,-602.02C771.41,-587.85 861.94,-568.53 912.65,-557.71"/>
<polygon fill="black" stroke="black" points="913.21,-561.17 922.26,-555.66 911.75,-554.32 913.21,-561.17"/>
</g>
<!-- n83 -->
<g id="node5" class="node">
<title>n83</title>
<polygon fill="none" stroke="black" points="465.12,-494.5 371.12,-494.5 371.12,-458.5 465.12,-458.5 465.12,-494.5"/>
<text text-anchor="middle" x="418.12" y="-471.45" font-family="Times New Roman,serif" font-size="14.00">arg : VarArray</text>
<text text-anchor="middle" x="334.75" y="-497.7" font-family="Times New Roman,serif" font-size="14.00">(83)VarArray</text>
</g>
<!-- n84&#45;&gt;n83 -->
<g id="edge4" class="edge">
<title>n84&#45;&gt;n83</title>
<path fill="none" stroke="black" d="M418.12,-530.2C418.12,-522.91 418.12,-514.23 418.12,-506.04"/>
<polygon fill="black" stroke="black" points="421.63,-506.12 418.13,-496.12 414.63,-506.12 421.63,-506.12"/>
</g>
<!-- n101 -->
<g id="node6" class="node">
<title>n101</title>
<polygon fill="none" stroke="black" points="593.12,-494.5 539.12,-494.5 539.12,-458.5 593.12,-458.5 593.12,-494.5"/>
<text text-anchor="middle" x="566.12" y="-471.45" font-family="Times New Roman,serif" font-size="14.00">and</text>
<text text-anchor="middle" x="502" y="-497.7" font-family="Times New Roman,serif" font-size="14.00">(101)Boolean</text>
</g>
<!-- n102&#45;&gt;n101 -->
<g id="edge5" class="edge">
<title>n102&#45;&gt;n101</title>
<path fill="none" stroke="black" d="M609.04,-530.2C602.48,-522.14 594.54,-512.39 587.28,-503.48"/>
<polygon fill="black" stroke="black" points="590.04,-501.32 581.01,-495.78 584.61,-505.74 590.04,-501.32"/>
</g>
<!-- n146 -->
<g id="node7" class="node">
<title>n146</title>
<polygon fill="none" stroke="black" points="1086.12,-494.5 1032.12,-494.5 1032.12,-458.5 1086.12,-458.5 1086.12,-494.5"/>
<text text-anchor="middle" x="1059.12" y="-471.45" font-family="Times New Roman,serif" font-size="14.00">and</text>
<text text-anchor="middle" x="995" y="-497.7" font-family="Times New Roman,serif" font-size="14.00">(146)Boolean</text>
</g>
<!-- n147&#45;&gt;n146 -->
<g id="edge6" class="edge">
<title>n147&#45;&gt;n146</title>
<path fill="none" stroke="black" d="M978.1,-530.02C991.73,-521.18 1008.46,-510.34 1023.17,-500.8"/>
<polygon fill="black" stroke="black" points="1024.74,-503.96 1031.22,-495.58 1020.93,-498.09 1024.74,-503.96"/>
</g>
<!-- n91 -->
<g id="node8" class="node">
<title>n91</title>
<polygon fill="none" stroke="black" points="306.12,-420 252.12,-420 252.12,-384 306.12,-384 306.12,-420"/>
<text text-anchor="middle" x="279.12" y="-396.95" font-family="Times New Roman,serif" font-size="14.00">=</text>
<text text-anchor="middle" x="218.38" y="-423.2" font-family="Times New Roman,serif" font-size="14.00">(91)Boolean</text>
</g>
<!-- n101&#45;&gt;n91 -->
<g id="edge7" class="edge">
<title>n101&#45;&gt;n91</title>
<path fill="none" stroke="black" d="M538.87,-468.61C487.58,-455.66 376.59,-427.62 317.68,-412.74"/>
<polygon fill="black" stroke="black" points="318.64,-409.37 308.09,-410.32 316.93,-416.16 318.64,-409.37"/>
</g>
<!-- n100 -->
<g id="node9" class="node">
<title>n100</title>
<polygon fill="none" stroke="black" points="593.12,-420 539.12,-420 539.12,-384 593.12,-384 593.12,-420"/>
<text text-anchor="middle" x="566.12" y="-396.95" font-family="Times New Roman,serif" font-size="14.00">=</text>
<text text-anchor="middle" x="502" y="-423.2" font-family="Times New Roman,serif" font-size="14.00">(100)Boolean</text>
</g>
<!-- n101&#45;&gt;n100 -->
<g id="edge8" class="edge">
<title>n101&#45;&gt;n100</title>
<path fill="none" stroke="black" d="M566.12,-458.32C566.12,-450.28 566.12,-440.5 566.12,-431.41"/>
<polygon fill="black" stroke="black" points="569.63,-431.57 566.13,-421.57 562.63,-431.57 569.63,-431.57"/>
</g>
<!-- n119 -->
<g id="node10" class="node">
<title>n119</title>
<polygon fill="none" stroke="black" points="1086.12,-420 1032.12,-420 1032.12,-384 1086.12,-384 1086.12,-420"/>
<text text-anchor="middle" x="1059.12" y="-396.95" font-family="Times New Roman,serif" font-size="14.00">and</text>
<text text-anchor="middle" x="995" y="-423.2" font-family="Times New Roman,serif" font-size="14.00">(119)Boolean</text>
</g>
<!-- n146&#45;&gt;n119 -->
<g id="edge9" class="edge">
<title>n146&#45;&gt;n119</title>
<path fill="none" stroke="black" d="M1059.12,-458.32C1059.12,-450.28 1059.12,-440.5 1059.12,-431.41"/>
<polygon fill="black" stroke="black" points="1062.63,-431.57 1059.13,-421.57 1055.63,-431.57 1062.63,-431.57"/>
</g>
<!-- n145 -->
<g id="node11" class="node">
<title>n145</title>
<polygon fill="none" stroke="black" points="1703,-422.5 1473.25,-422.5 1473.25,-381.5 1703,-381.5 1703,-422.5"/>
<text text-anchor="middle" x="1588.12" y="-405.2" font-family="Times New Roman,serif" font-size="14.00">LetExp </text>
<text text-anchor="middle" x="1588.12" y="-388.7" font-family="Times New Roman,serif" font-size="14.00">Let node(125), node(144) in node(144)</text>
<text text-anchor="middle" x="1436.12" y="-425.7" font-family="Times New Roman,serif" font-size="14.00">(145)Boolean</text>
</g>
<!-- n146&#45;&gt;n145 -->
<g id="edge10" class="edge">
<title>n146&#45;&gt;n145</title>
<path fill="none" stroke="black" d="M1086.45,-471.75C1154.84,-462.38 1336.84,-437.44 1461.73,-420.32"/>
<polygon fill="black" stroke="black" points="1461.95,-423.83 1471.38,-419 1461,-416.89 1461.95,-423.83"/>
</g>
<!-- n87 -->
<g id="node12" class="node">
<title>n87</title>
<polygon fill="none" stroke="black" points="185.5,-334.75 36.75,-334.75 36.75,-298.75 185.5,-298.75 185.5,-334.75"/>
<text text-anchor="middle" x="111.12" y="-311.7" font-family="Times New Roman,serif" font-size="14.00">arg.data.getDimension()</text>
<text text-anchor="middle" x="18.38" y="-337.95" font-family="Times New Roman,serif" font-size="14.00">(87)int</text>
</g>
<!-- n91&#45;&gt;n87 -->
<g id="edge11" class="edge">
<title>n91&#45;&gt;n87</title>
<path fill="none" stroke="black" d="M251.76,-387.44C225.95,-374.65 186.78,-355.24 156.33,-340.15"/>
<polygon fill="black" stroke="black" points="158.24,-337.19 147.72,-335.89 155.13,-343.46 158.24,-337.19"/>
</g>
<!-- n90 -->
<g id="node13" class="node">
<title>n90</title>
<polygon fill="none" stroke="black" points="354.62,-334.75 203.62,-334.75 203.62,-298.75 354.62,-298.75 354.62,-334.75"/>
<text text-anchor="middle" x="279.12" y="-311.7" font-family="Times New Roman,serif" font-size="14.00">self.data.getDimension()</text>
<text text-anchor="middle" x="185.25" y="-337.95" font-family="Times New Roman,serif" font-size="14.00">(90)int</text>
</g>
<!-- n91&#45;&gt;n90 -->
<g id="edge12" class="edge">
<title>n91&#45;&gt;n90</title>
<path fill="none" stroke="black" d="M279.12,-383.75C279.12,-372.92 279.12,-358.7 279.12,-346.23"/>
<polygon fill="black" stroke="black" points="282.63,-346.49 279.13,-336.49 275.63,-346.49 282.63,-346.49"/>
</g>
<!-- n95 -->
<g id="node14" class="node">
<title>n95</title>
<polygon fill="none" stroke="black" points="557.12,-334.75 373.12,-334.75 373.12,-298.75 557.12,-298.75 557.12,-334.75"/>
<text text-anchor="middle" x="465.12" y="-311.7" font-family="Times New Roman,serif" font-size="14.00">arg.data.getDimensionSizes(1)</text>
<text text-anchor="middle" x="354.75" y="-337.95" font-family="Times New Roman,serif" font-size="14.00">(95)int</text>
</g>
<!-- n100&#45;&gt;n95 -->
<g id="edge13" class="edge">
<title>n100&#45;&gt;n95</title>
<path fill="none" stroke="black" d="M545.2,-383.75C530.57,-371.7 510.84,-355.43 494.62,-342.06"/>
<polygon fill="black" stroke="black" points="497.14,-339.6 487.19,-335.94 492.68,-345 497.14,-339.6"/>
</g>
<!-- n99 -->
<g id="node15" class="node">
<title>n99</title>
<polygon fill="none" stroke="black" points="761.25,-334.75 575,-334.75 575,-298.75 761.25,-298.75 761.25,-334.75"/>
<text text-anchor="middle" x="668.12" y="-311.7" font-family="Times New Roman,serif" font-size="14.00">self.data.getDimensionSizes(1)</text>
<text text-anchor="middle" x="556.62" y="-337.95" font-family="Times New Roman,serif" font-size="14.00">(99)int</text>
</g>
<!-- n100&#45;&gt;n99 -->
<g id="edge14" class="edge">
<title>n100&#45;&gt;n99</title>
<path fill="none" stroke="black" d="M587.26,-383.75C602.03,-371.7 621.96,-355.43 638.34,-342.06"/>
<polygon fill="black" stroke="black" points="640.31,-344.97 645.85,-335.93 635.88,-339.55 640.31,-344.97"/>
</g>
<!-- n109 -->
<g id="node16" class="node">
<title>n109</title>
<polygon fill="none" stroke="black" points="990.12,-334.75 936.12,-334.75 936.12,-298.75 990.12,-298.75 990.12,-334.75"/>
<text text-anchor="middle" x="963.12" y="-311.7" font-family="Times New Roman,serif" font-size="14.00">=</text>
<text text-anchor="middle" x="899" y="-337.95" font-family="Times New Roman,serif" font-size="14.00">(109)Boolean</text>
</g>
<!-- n119&#45;&gt;n109 -->
<g id="edge15" class="edge">
<title>n119&#45;&gt;n109</title>
<path fill="none" stroke="black" d="M1039.23,-383.75C1025.46,-371.81 1006.92,-355.73 991.59,-342.43"/>
<polygon fill="black" stroke="black" points="993.98,-339.88 984.13,-335.97 989.4,-345.16 993.98,-339.88"/>
</g>
<!-- n118 -->
<g id="node17" class="node">
<title>n118</title>
<polygon fill="none" stroke="black" points="1182.12,-334.75 1128.12,-334.75 1128.12,-298.75 1182.12,-298.75 1182.12,-334.75"/>
<text text-anchor="middle" x="1155.12" y="-311.7" font-family="Times New Roman,serif" font-size="14.00">=</text>
<text text-anchor="middle" x="1091" y="-337.95" font-family="Times New Roman,serif" font-size="14.00">(118)Boolean</text>
</g>
<!-- n119&#45;&gt;n118 -->
<g id="edge16" class="edge">
<title>n119&#45;&gt;n118</title>
<path fill="none" stroke="black" d="M1079.02,-383.75C1092.79,-371.81 1111.33,-355.73 1126.66,-342.43"/>
<polygon fill="black" stroke="black" points="1128.85,-345.16 1134.12,-335.97 1124.27,-339.88 1128.85,-345.16"/>
</g>
<!-- n125 -->
<g id="node18" class="node">
<title>n125</title>
<polygon fill="none" stroke="black" points="1615.12,-334.75 1561.12,-334.75 1561.12,-298.75 1615.12,-298.75 1615.12,-334.75"/>
<text text-anchor="middle" x="1588.12" y="-311.7" font-family="Times New Roman,serif" font-size="14.00">=</text>
<text text-anchor="middle" x="1524" y="-337.95" font-family="Times New Roman,serif" font-size="14.00">(125)Boolean</text>
</g>
<!-- n145&#45;&gt;n125 -->
<g id="edge17" class="edge">
<title>n145&#45;&gt;n125</title>
<path fill="none" stroke="black" d="M1588.12,-381.27C1588.12,-370.85 1588.12,-357.87 1588.12,-346.37"/>
<polygon fill="black" stroke="black" points="1591.63,-346.59 1588.13,-336.59 1584.63,-346.59 1591.63,-346.59"/>
</g>
<!-- n144 -->
<g id="node19" class="node">
<title>n144</title>
<polygon fill="none" stroke="black" points="2141.25,-345.5 1919,-345.5 1919,-288 2141.25,-288 2141.25,-345.5"/>
<text text-anchor="middle" x="2030.12" y="-328.2" font-family="Times New Roman,serif" font-size="14.00">IterateExp</text>
<text text-anchor="middle" x="2030.12" y="-311.7" font-family="Times New Roman,serif" font-size="14.00">source=node(128) Iterator=node(129)</text>
<text text-anchor="middle" x="2030.12" y="-295.2" font-family="Times New Roman,serif" font-size="14.00">Result=node(132) Body=node(143)</text>
<text text-anchor="middle" x="1881.88" y="-348.7" font-family="Times New Roman,serif" font-size="14.00">(144)Boolean</text>
</g>
<!-- n145&#45;&gt;n144 -->
<g id="edge18" class="edge">
<title>n145&#45;&gt;n144</title>
<path fill="none" stroke="black" d="M1694.28,-381.01C1758.51,-368.91 1840.68,-353.43 1907.66,-340.82"/>
<polygon fill="black" stroke="black" points="1908.03,-344.31 1917.21,-339.02 1906.74,-337.43 1908.03,-344.31"/>
</g>
<!-- n86 -->
<g id="node20" class="node">
<title>n86</title>
<polygon fill="none" stroke="black" points="140.88,-252 81.38,-252 81.38,-216 140.88,-216 140.88,-252"/>
<text text-anchor="middle" x="111.12" y="-228.95" font-family="Times New Roman,serif" font-size="14.00">arg.data</text>
<text text-anchor="middle" x="47.62" y="-255.2" font-family="Times New Roman,serif" font-size="14.00">(86)int[dim]</text>
</g>
<!-- n87&#45;&gt;n86 -->
<g id="edge19" class="edge">
<title>n87&#45;&gt;n86</title>
<path fill="none" stroke="black" d="M111.12,-298.63C111.12,-288.52 111.12,-275.48 111.12,-263.83"/>
<polygon fill="black" stroke="black" points="114.63,-263.89 111.13,-253.89 107.63,-263.89 114.63,-263.89"/>
</g>
<!-- n89 -->
<g id="node21" class="node">
<title>n89</title>
<polygon fill="none" stroke="black" points="310,-252 248.25,-252 248.25,-216 310,-216 310,-252"/>
<text text-anchor="middle" x="279.12" y="-228.95" font-family="Times New Roman,serif" font-size="14.00">self.data</text>
<text text-anchor="middle" x="214.5" y="-255.2" font-family="Times New Roman,serif" font-size="14.00">(89)int[dim]</text>
</g>
<!-- n90&#45;&gt;n89 -->
<g id="edge20" class="edge">
<title>n90&#45;&gt;n89</title>
<path fill="none" stroke="black" d="M279.12,-298.63C279.12,-288.52 279.12,-275.48 279.12,-263.83"/>
<polygon fill="black" stroke="black" points="282.63,-263.89 279.13,-253.89 275.63,-263.89 282.63,-263.89"/>
</g>
<!-- n93 -->
<g id="node22" class="node">
<title>n93</title>
<polygon fill="none" stroke="black" points="444.88,-252 385.38,-252 385.38,-216 444.88,-216 444.88,-252"/>
<text text-anchor="middle" x="415.12" y="-228.95" font-family="Times New Roman,serif" font-size="14.00">arg.data</text>
<text text-anchor="middle" x="351.62" y="-255.2" font-family="Times New Roman,serif" font-size="14.00">(93)int[dim]</text>
</g>
<!-- n95&#45;&gt;n93 -->
<g id="edge21" class="edge">
<title>n95&#45;&gt;n93</title>
<path fill="none" stroke="black" d="M454.52,-298.63C447.94,-287.99 439.33,-274.09 431.84,-262"/>
<polygon fill="black" stroke="black" points="434.92,-260.33 426.68,-253.67 428.97,-264.01 434.92,-260.33"/>
</g>
<!-- n94 -->
<g id="node23" class="node">
<title>n94</title>
<polygon fill="none" stroke="black" points="517.12,-252 463.12,-252 463.12,-216 517.12,-216 517.12,-252"/>
<text text-anchor="middle" x="490.12" y="-228.95" font-family="Times New Roman,serif" font-size="14.00">1</text>
<text text-anchor="middle" x="444.75" y="-255.2" font-family="Times New Roman,serif" font-size="14.00">(94)int</text>
</g>
<!-- n95&#45;&gt;n94 -->
<g id="edge22" class="edge">
<title>n95&#45;&gt;n94</title>
<path fill="none" stroke="black" d="M470.43,-298.63C473.62,-288.31 477.76,-274.92 481.43,-263.09"/>
<polygon fill="black" stroke="black" points="484.68,-264.41 484.3,-253.82 478,-262.34 484.68,-264.41"/>
</g>
<!-- n97 -->
<g id="node24" class="node">
<title>n97</title>
<polygon fill="none" stroke="black" points="623,-252 561.25,-252 561.25,-216 623,-216 623,-252"/>
<text text-anchor="middle" x="592.12" y="-228.95" font-family="Times New Roman,serif" font-size="14.00">self.data</text>
<text text-anchor="middle" x="527.5" y="-255.2" font-family="Times New Roman,serif" font-size="14.00">(97)int[dim]</text>
</g>
<!-- n99&#45;&gt;n97 -->
<g id="edge23" class="edge">
<title>n99&#45;&gt;n97</title>
<path fill="none" stroke="black" d="M652.01,-298.63C641.6,-287.57 627.87,-272.98 616.18,-260.56"/>
<polygon fill="black" stroke="black" points="618.92,-258.36 609.52,-253.48 613.82,-263.16 618.92,-258.36"/>
</g>
<!-- n98 -->
<g id="node25" class="node">
<title>n98</title>
<polygon fill="none" stroke="black" points="695.12,-252 641.12,-252 641.12,-216 695.12,-216 695.12,-252"/>
<text text-anchor="middle" x="668.12" y="-228.95" font-family="Times New Roman,serif" font-size="14.00">1</text>
<text text-anchor="middle" x="622.75" y="-255.2" font-family="Times New Roman,serif" font-size="14.00">(98)int</text>
</g>
<!-- n99&#45;&gt;n98 -->
<g id="edge24" class="edge">
<title>n99&#45;&gt;n98</title>
<path fill="none" stroke="black" d="M668.12,-298.63C668.12,-288.52 668.12,-275.48 668.12,-263.83"/>
<polygon fill="black" stroke="black" points="671.63,-263.89 668.13,-253.89 664.63,-263.89 671.63,-263.89"/>
</g>
<!-- n105 -->
<g id="node26" class="node">
<title>n105</title>
<polygon fill="none" stroke="black" points="864.62,-252 713.62,-252 713.62,-216 864.62,-216 864.62,-252"/>
<text text-anchor="middle" x="789.12" y="-228.95" font-family="Times New Roman,serif" font-size="14.00">self.data.getDimension()</text>
<text text-anchor="middle" x="691.88" y="-255.2" font-family="Times New Roman,serif" font-size="14.00">(105)int</text>
</g>
<!-- n109&#45;&gt;n105 -->
<g id="edge25" class="edge">
<title>n109&#45;&gt;n105</title>
<path fill="none" stroke="black" d="M935.94,-303.13C909.57,-290.9 869.01,-272.07 837.19,-257.31"/>
<polygon fill="black" stroke="black" points="838.69,-254.14 828.15,-253.11 835.74,-260.49 838.69,-254.14"/>
</g>
<!-- n108 -->
<g id="node27" class="node">
<title>n108</title>
<polygon fill="none" stroke="black" points="1043.88,-252 882.38,-252 882.38,-216 1043.88,-216 1043.88,-252"/>
<text text-anchor="middle" x="963.12" y="-228.95" font-family="Times New Roman,serif" font-size="14.00">result.data.getDimension()</text>
<text text-anchor="middle" x="860.62" y="-255.2" font-family="Times New Roman,serif" font-size="14.00">(108)int</text>
</g>
<!-- n109&#45;&gt;n108 -->
<g id="edge26" class="edge">
<title>n109&#45;&gt;n108</title>
<path fill="none" stroke="black" d="M963.12,-298.63C963.12,-288.52 963.12,-275.48 963.12,-263.83"/>
<polygon fill="black" stroke="black" points="966.63,-263.89 963.13,-253.89 959.63,-263.89 966.63,-263.89"/>
</g>
<!-- n113 -->
<g id="node28" class="node">
<title>n113</title>
<polygon fill="none" stroke="black" points="1248.25,-252 1062,-252 1062,-216 1248.25,-216 1248.25,-252"/>
<text text-anchor="middle" x="1155.12" y="-228.95" font-family="Times New Roman,serif" font-size="14.00">self.data.getDimensionSizes(1)</text>
<text text-anchor="middle" x="1040.25" y="-255.2" font-family="Times New Roman,serif" font-size="14.00">(113)int</text>
</g>
<!-- n118&#45;&gt;n113 -->
<g id="edge27" class="edge">
<title>n118&#45;&gt;n113</title>
<path fill="none" stroke="black" d="M1155.12,-298.63C1155.12,-288.52 1155.12,-275.48 1155.12,-263.83"/>
<polygon fill="black" stroke="black" points="1158.63,-263.89 1155.13,-253.89 1151.63,-263.89 1158.63,-263.89"/>
</g>
<!-- n117 -->
<g id="node29" class="node">
<title>n117</title>
<polygon fill="none" stroke="black" points="1463.5,-252 1266.75,-252 1266.75,-216 1463.5,-216 1463.5,-252"/>
<text text-anchor="middle" x="1365.12" y="-228.95" font-family="Times New Roman,serif" font-size="14.00">result.data.getDimensionSizes(1)</text>
<text text-anchor="middle" x="1245" y="-255.2" font-family="Times New Roman,serif" font-size="14.00">(117)int</text>
</g>
<!-- n118&#45;&gt;n117 -->
<g id="edge28" class="edge">
<title>n118&#45;&gt;n117</title>
<path fill="none" stroke="black" d="M1182.58,-305.19C1214.62,-292.87 1268.44,-272.18 1309.37,-256.44"/>
<polygon fill="black" stroke="black" points="1310.51,-259.75 1318.59,-252.89 1308,-253.22 1310.51,-259.75"/>
</g>
<!-- n124 -->
<g id="node30" class="node">
<title>n124</title>
<polygon fill="none" stroke="black" points="1551.12,-252 1481.12,-252 1481.12,-216 1551.12,-216 1551.12,-252"/>
<text text-anchor="middle" x="1516.12" y="-228.95" font-family="Times New Roman,serif" font-size="14.00">dim1 : int</text>
<text text-anchor="middle" x="1459.38" y="-255.2" font-family="Times New Roman,serif" font-size="14.00">(124)int</text>
</g>
<!-- n125&#45;&gt;n124 -->
<g id="edge29" class="edge">
<title>n125&#45;&gt;n124</title>
<path fill="none" stroke="black" d="M1572.86,-298.63C1563.09,-287.67 1550.24,-273.26 1539.23,-260.92"/>
<polygon fill="black" stroke="black" points="1541.9,-258.64 1532.63,-253.51 1536.67,-263.3 1541.9,-258.64"/>
</g>
<!-- n123 -->
<g id="node31" class="node">
<title>n123</title>
<polygon fill="none" stroke="black" points="1753.12,-252 1569.12,-252 1569.12,-216 1753.12,-216 1753.12,-252"/>
<text text-anchor="middle" x="1661.12" y="-228.95" font-family="Times New Roman,serif" font-size="14.00">arg.data.getDimensionSizes(1)</text>
<text text-anchor="middle" x="1547.38" y="-255.2" font-family="Times New Roman,serif" font-size="14.00">(123)int</text>
</g>
<!-- n125&#45;&gt;n123 -->
<g id="edge30" class="edge">
<title>n125&#45;&gt;n123</title>
<path fill="none" stroke="black" d="M1603.61,-298.63C1613.51,-287.67 1626.54,-273.26 1637.69,-260.92"/>
<polygon fill="black" stroke="black" points="1640.29,-263.27 1644.4,-253.5 1635.1,-258.57 1640.29,-263.27"/>
</g>
<!-- n128 -->
<g id="node32" class="node">
<title>n128</title>
<polygon fill="none" stroke="black" points="1985.5,-252 1770.75,-252 1770.75,-216 1985.5,-216 1985.5,-252"/>
<text text-anchor="middle" x="1878.12" y="-228.95" font-family="Times New Roman,serif" font-size="14.00">Sequence{ node(126) .. node(127) }</text>
<text text-anchor="middle" x="1749" y="-255.2" font-family="Times New Roman,serif" font-size="14.00">(128)int</text>
</g>
<!-- n144&#45;&gt;n128 -->
<g id="edge31" class="edge">
<title>n144&#45;&gt;n128</title>
<path fill="none" stroke="black" d="M1976.96,-287.51C1958.5,-277.7 1938.05,-266.84 1920.57,-257.55"/>
<polygon fill="black" stroke="black" points="1922.47,-254.59 1911.99,-252.99 1919.18,-260.78 1922.47,-254.59"/>
</g>
<!-- n129 -->
<g id="node33" class="node">
<title>n129</title>
<polygon fill="none" stroke="black" points="2057.12,-252 2003.12,-252 2003.12,-216 2057.12,-216 2057.12,-252"/>
<text text-anchor="middle" x="2030.12" y="-228.95" font-family="Times New Roman,serif" font-size="14.00">it : int</text>
<text text-anchor="middle" x="1981.38" y="-255.2" font-family="Times New Roman,serif" font-size="14.00">(129)int</text>
</g>
<!-- n144&#45;&gt;n129 -->
<g id="edge32" class="edge">
<title>n144&#45;&gt;n129</title>
<path fill="none" stroke="black" d="M2030.12,-287.51C2030.12,-279.75 2030.12,-271.33 2030.12,-263.55"/>
<polygon fill="black" stroke="black" points="2033.63,-263.56 2030.13,-253.56 2026.63,-263.56 2033.63,-263.56"/>
</g>
<!-- n132 -->
<g id="node34" class="node">
<title>n132</title>
<polygon fill="none" stroke="black" points="2129.12,-252 2075.12,-252 2075.12,-216 2129.12,-216 2129.12,-252"/>
<text text-anchor="middle" x="2102.12" y="-228.95" font-family="Times New Roman,serif" font-size="14.00">=</text>
<text text-anchor="middle" x="2038" y="-202.7" font-family="Times New Roman,serif" font-size="14.00">(132)Boolean</text>
</g>
<!-- n144&#45;&gt;n132 -->
<g id="edge33" class="edge">
<title>n144&#45;&gt;n132</title>
<path fill="none" stroke="black" d="M2055.31,-287.51C2063.13,-278.73 2071.71,-269.11 2079.36,-260.53"/>
<polygon fill="black" stroke="black" points="2081.88,-262.97 2085.92,-253.17 2076.65,-258.31 2081.88,-262.97"/>
</g>
<!-- n143 -->
<g id="node35" class="node">
<title>n143</title>
<polygon fill="none" stroke="black" points="2218.12,-252 2164.12,-252 2164.12,-216 2218.12,-216 2218.12,-252"/>
<text text-anchor="middle" x="2191.12" y="-228.95" font-family="Times New Roman,serif" font-size="14.00">=</text>
<text text-anchor="middle" x="2127" y="-255.2" font-family="Times New Roman,serif" font-size="14.00">(143)Boolean</text>
</g>
<!-- n144&#45;&gt;n143 -->
<g id="edge34" class="edge">
<title>n144&#45;&gt;n143</title>
<path fill="none" stroke="black" d="M2086.43,-287.51C2108.73,-276.33 2133.74,-263.78 2153.73,-253.75"/>
<polygon fill="black" stroke="black" points="2155.26,-256.91 2162.63,-249.29 2152.12,-250.65 2155.26,-256.91"/>
</g>
<!-- n85 -->
<g id="node36" class="node">
<title>n85</title>
<polygon fill="none" stroke="black" points="138.12,-180 84.12,-180 84.12,-144 138.12,-144 138.12,-180"/>
<text text-anchor="middle" x="111.12" y="-156.95" font-family="Times New Roman,serif" font-size="14.00">arg</text>
<text text-anchor="middle" x="47.75" y="-183.2" font-family="Times New Roman,serif" font-size="14.00">(85)VarArray</text>
</g>
<!-- n86&#45;&gt;n85 -->
<g id="edge35" class="edge">
<title>n86&#45;&gt;n85</title>
<path fill="none" stroke="black" d="M111.12,-215.7C111.12,-208.41 111.12,-199.73 111.12,-191.54"/>
<polygon fill="black" stroke="black" points="114.63,-191.62 111.13,-181.62 107.63,-191.62 114.63,-191.62"/>
</g>
<!-- n88 -->
<g id="node37" class="node">
<title>n88</title>
<polygon fill="none" stroke="black" points="306.12,-180 252.12,-180 252.12,-144 306.12,-144 306.12,-180"/>
<text text-anchor="middle" x="279.12" y="-156.95" font-family="Times New Roman,serif" font-size="14.00">self</text>
<text text-anchor="middle" x="215.75" y="-183.2" font-family="Times New Roman,serif" font-size="14.00">(88)VarArray</text>
</g>
<!-- n89&#45;&gt;n88 -->
<g id="edge36" class="edge">
<title>n89&#45;&gt;n88</title>
<path fill="none" stroke="black" d="M279.12,-215.7C279.12,-208.41 279.12,-199.73 279.12,-191.54"/>
<polygon fill="black" stroke="black" points="282.63,-191.62 279.13,-181.62 275.63,-191.62 282.63,-191.62"/>
</g>
<!-- n92 -->
<g id="node38" class="node">
<title>n92</title>
<polygon fill="none" stroke="black" points="442.12,-180 388.12,-180 388.12,-144 442.12,-144 442.12,-180"/>
<text text-anchor="middle" x="415.12" y="-156.95" font-family="Times New Roman,serif" font-size="14.00">arg</text>
<text text-anchor="middle" x="351.75" y="-183.2" font-family="Times New Roman,serif" font-size="14.00">(92)VarArray</text>
</g>
<!-- n93&#45;&gt;n92 -->
<g id="edge37" class="edge">
<title>n93&#45;&gt;n92</title>
<path fill="none" stroke="black" d="M415.12,-215.7C415.12,-208.41 415.12,-199.73 415.12,-191.54"/>
<polygon fill="black" stroke="black" points="418.63,-191.62 415.13,-181.62 411.63,-191.62 418.63,-191.62"/>
</g>
<!-- n96 -->
<g id="node39" class="node">
<title>n96</title>
<polygon fill="none" stroke="black" points="619.12,-180 565.12,-180 565.12,-144 619.12,-144 619.12,-180"/>
<text text-anchor="middle" x="592.12" y="-156.95" font-family="Times New Roman,serif" font-size="14.00">self</text>
<text text-anchor="middle" x="528.75" y="-183.2" font-family="Times New Roman,serif" font-size="14.00">(96)VarArray</text>
</g>
<!-- n97&#45;&gt;n96 -->
<g id="edge38" class="edge">
<title>n97&#45;&gt;n96</title>
<path fill="none" stroke="black" d="M592.12,-215.7C592.12,-208.41 592.12,-199.73 592.12,-191.54"/>
<polygon fill="black" stroke="black" points="595.63,-191.62 592.13,-181.62 588.63,-191.62 595.63,-191.62"/>
</g>
<!-- n104 -->
<g id="node40" class="node">
<title>n104</title>
<polygon fill="none" stroke="black" points="820,-180 758.25,-180 758.25,-144 820,-144 820,-180"/>
<text text-anchor="middle" x="789.12" y="-156.95" font-family="Times New Roman,serif" font-size="14.00">self.data</text>
<text text-anchor="middle" x="721.12" y="-183.2" font-family="Times New Roman,serif" font-size="14.00">(104)int[dim]</text>
</g>
<!-- n105&#45;&gt;n104 -->
<g id="edge39" class="edge">
<title>n105&#45;&gt;n104</title>
<path fill="none" stroke="black" d="M789.12,-215.7C789.12,-208.41 789.12,-199.73 789.12,-191.54"/>
<polygon fill="black" stroke="black" points="792.63,-191.62 789.13,-181.62 785.63,-191.62 792.63,-191.62"/>
</g>
<!-- n107 -->
<g id="node41" class="node">
<title>n107</title>
<polygon fill="none" stroke="black" points="999.25,-180 927,-180 927,-144 999.25,-144 999.25,-180"/>
<text text-anchor="middle" x="963.12" y="-156.95" font-family="Times New Roman,serif" font-size="14.00">result.data</text>
<text text-anchor="middle" x="889.88" y="-183.2" font-family="Times New Roman,serif" font-size="14.00">(107)int[dim]</text>
</g>
<!-- n108&#45;&gt;n107 -->
<g id="edge40" class="edge">
<title>n108&#45;&gt;n107</title>
<path fill="none" stroke="black" d="M963.12,-215.7C963.12,-208.41 963.12,-199.73 963.12,-191.54"/>
<polygon fill="black" stroke="black" points="966.63,-191.62 963.13,-181.62 959.63,-191.62 966.63,-191.62"/>
</g>
<!-- n111 -->
<g id="node42" class="node">
<title>n111</title>
<polygon fill="none" stroke="black" points="1148,-180 1086.25,-180 1086.25,-144 1148,-144 1148,-180"/>
<text text-anchor="middle" x="1117.12" y="-156.95" font-family="Times New Roman,serif" font-size="14.00">self.data</text>
<text text-anchor="middle" x="1049.12" y="-183.2" font-family="Times New Roman,serif" font-size="14.00">(111)int[dim]</text>
</g>
<!-- n113&#45;&gt;n111 -->
<g id="edge41" class="edge">
<title>n113&#45;&gt;n111</title>
<path fill="none" stroke="black" d="M1145.73,-215.7C1141.54,-207.98 1136.51,-198.71 1131.84,-190.11"/>
<polygon fill="black" stroke="black" points="1134.98,-188.55 1127.13,-181.43 1128.83,-191.89 1134.98,-188.55"/>
</g>
<!-- n112 -->
<g id="node43" class="node">
<title>n112</title>
<polygon fill="none" stroke="black" points="1220.12,-180 1166.12,-180 1166.12,-144 1220.12,-144 1220.12,-180"/>
<text text-anchor="middle" x="1193.12" y="-156.95" font-family="Times New Roman,serif" font-size="14.00">1</text>
<text text-anchor="middle" x="1144.38" y="-183.2" font-family="Times New Roman,serif" font-size="14.00">(112)int</text>
</g>
<!-- n113&#45;&gt;n112 -->
<g id="edge42" class="edge">
<title>n113&#45;&gt;n112</title>
<path fill="none" stroke="black" d="M1164.52,-215.7C1168.71,-207.98 1173.74,-198.71 1178.41,-190.11"/>
<polygon fill="black" stroke="black" points="1181.42,-191.89 1183.12,-181.43 1175.27,-188.55 1181.42,-191.89"/>
</g>
<!-- n115 -->
<g id="node44" class="node">
<title>n115</title>
<polygon fill="none" stroke="black" points="1375.25,-180 1303,-180 1303,-144 1375.25,-144 1375.25,-180"/>
<text text-anchor="middle" x="1339.12" y="-156.95" font-family="Times New Roman,serif" font-size="14.00">result.data</text>
<text text-anchor="middle" x="1265.88" y="-183.2" font-family="Times New Roman,serif" font-size="14.00">(115)int[dim]</text>
</g>
<!-- n117&#45;&gt;n115 -->
<g id="edge43" class="edge">
<title>n117&#45;&gt;n115</title>
<path fill="none" stroke="black" d="M1358.7,-215.7C1355.9,-208.15 1352.54,-199.12 1349.41,-190.68"/>
<polygon fill="black" stroke="black" points="1352.77,-189.68 1346.01,-181.52 1346.21,-192.12 1352.77,-189.68"/>
</g>
<!-- n116 -->
<g id="node45" class="node">
<title>n116</title>
<polygon fill="none" stroke="black" points="1447.12,-180 1393.12,-180 1393.12,-144 1447.12,-144 1447.12,-180"/>
<text text-anchor="middle" x="1420.12" y="-156.95" font-family="Times New Roman,serif" font-size="14.00">1</text>
<text text-anchor="middle" x="1371.38" y="-183.2" font-family="Times New Roman,serif" font-size="14.00">(116)int</text>
</g>
<!-- n117&#45;&gt;n116 -->
<g id="edge44" class="edge">
<title>n117&#45;&gt;n116</title>
<path fill="none" stroke="black" d="M1378.72,-215.7C1385.05,-207.64 1392.71,-197.89 1399.71,-188.98"/>
<polygon fill="black" stroke="black" points="1402.32,-191.32 1405.75,-181.29 1396.82,-187 1402.32,-191.32"/>
</g>
<!-- n121 -->
<g id="node46" class="node">
<title>n121</title>
<polygon fill="none" stroke="black" points="1653.88,-180 1594.38,-180 1594.38,-144 1653.88,-144 1653.88,-180"/>
<text text-anchor="middle" x="1624.12" y="-156.95" font-family="Times New Roman,serif" font-size="14.00">arg.data</text>
<text text-anchor="middle" x="1557.25" y="-183.2" font-family="Times New Roman,serif" font-size="14.00">(121)int[dim]</text>
</g>
<!-- n123&#45;&gt;n121 -->
<g id="edge45" class="edge">
<title>n123&#45;&gt;n121</title>
<path fill="none" stroke="black" d="M1651.98,-215.7C1647.9,-207.98 1643,-198.71 1638.46,-190.11"/>
<polygon fill="black" stroke="black" points="1641.64,-188.65 1633.87,-181.44 1635.45,-191.92 1641.64,-188.65"/>
</g>
<!-- n122 -->
<g id="node47" class="node">
<title>n122</title>
<polygon fill="none" stroke="black" points="1726.12,-180 1672.12,-180 1672.12,-144 1726.12,-144 1726.12,-180"/>
<text text-anchor="middle" x="1699.12" y="-156.95" font-family="Times New Roman,serif" font-size="14.00">1</text>
<text text-anchor="middle" x="1650.38" y="-183.2" font-family="Times New Roman,serif" font-size="14.00">(122)int</text>
</g>
<!-- n123&#45;&gt;n122 -->
<g id="edge46" class="edge">
<title>n123&#45;&gt;n122</title>
<path fill="none" stroke="black" d="M1670.52,-215.7C1674.71,-207.98 1679.74,-198.71 1684.41,-190.11"/>
<polygon fill="black" stroke="black" points="1687.42,-191.89 1689.12,-181.43 1681.27,-188.55 1687.42,-191.89"/>
</g>
<!-- n126 -->
<g id="node48" class="node">
<title>n126</title>
<polygon fill="none" stroke="black" points="1856.12,-180 1802.12,-180 1802.12,-144 1856.12,-144 1856.12,-180"/>
<text text-anchor="middle" x="1829.12" y="-156.95" font-family="Times New Roman,serif" font-size="14.00">1</text>
<text text-anchor="middle" x="1780.38" y="-183.2" font-family="Times New Roman,serif" font-size="14.00">(126)int</text>
</g>
<!-- n128&#45;&gt;n126 -->
<g id="edge47" class="edge">
<title>n128&#45;&gt;n126</title>
<path fill="none" stroke="black" d="M1866.01,-215.7C1860.43,-207.73 1853.69,-198.1 1847.51,-189.26"/>
<polygon fill="black" stroke="black" points="1850.57,-187.53 1841.97,-181.34 1844.83,-191.54 1850.57,-187.53"/>
</g>
<!-- n127 -->
<g id="node49" class="node">
<title>n127</title>
<polygon fill="none" stroke="black" points="1928.12,-180 1874.12,-180 1874.12,-144 1928.12,-144 1928.12,-180"/>
<text text-anchor="middle" x="1901.12" y="-156.95" font-family="Times New Roman,serif" font-size="14.00">dim1</text>
<text text-anchor="middle" x="1852.38" y="-183.2" font-family="Times New Roman,serif" font-size="14.00">(127)int</text>
</g>
<!-- n128&#45;&gt;n127 -->
<g id="edge48" class="edge">
<title>n128&#45;&gt;n127</title>
<path fill="none" stroke="black" d="M1883.81,-215.7C1886.26,-208.24 1889.19,-199.32 1891.94,-190.97"/>
<polygon fill="black" stroke="black" points="1895.24,-192.14 1895.03,-181.54 1888.59,-189.95 1895.24,-192.14"/>
</g>
<!-- n131 -->
<g id="node50" class="node">
<title>n131</title>
<polygon fill="none" stroke="black" points="2057.25,-180 1967,-180 1967,-144 2057.25,-144 2057.25,-180"/>
<text text-anchor="middle" x="2012.12" y="-156.95" font-family="Times New Roman,serif" font-size="14.00">acc : Boolean</text>
<text text-anchor="middle" x="1929.88" y="-183.2" font-family="Times New Roman,serif" font-size="14.00">(131)Boolean</text>
</g>
<!-- n132&#45;&gt;n131 -->
<g id="edge49" class="edge">
<title>n132&#45;&gt;n131</title>
<path fill="none" stroke="black" d="M2079.88,-215.7C2068.84,-207.11 2055.33,-196.61 2043.29,-187.24"/>
<polygon fill="black" stroke="black" points="2045.67,-184.65 2035.62,-181.28 2041.37,-190.18 2045.67,-184.65"/>
</g>
<!-- n130 -->
<g id="node51" class="node">
<title>n130</title>
<polygon fill="none" stroke="black" points="2129.12,-180 2075.12,-180 2075.12,-144 2129.12,-144 2129.12,-180"/>
<text text-anchor="middle" x="2102.12" y="-156.95" font-family="Times New Roman,serif" font-size="14.00">true</text>
<text text-anchor="middle" x="2038" y="-183.2" font-family="Times New Roman,serif" font-size="14.00">(130)Boolean</text>
</g>
<!-- n132&#45;&gt;n130 -->
<g id="edge50" class="edge">
<title>n132&#45;&gt;n130</title>
<path fill="none" stroke="black" d="M2102.12,-215.7C2102.12,-208.41 2102.12,-199.73 2102.12,-191.54"/>
<polygon fill="black" stroke="black" points="2105.63,-191.62 2102.13,-181.62 2098.63,-191.62 2105.63,-191.62"/>
</g>
<!-- n135 -->
<g id="node52" class="node">
<title>n135</title>
<polygon fill="none" stroke="black" points="2235.5,-180 2146.75,-180 2146.75,-144 2235.5,-144 2235.5,-180"/>
<text text-anchor="middle" x="2191.12" y="-156.95" font-family="Times New Roman,serif" font-size="14.00">result.data[it]</text>
<text text-anchor="middle" x="2125" y="-183.2" font-family="Times New Roman,serif" font-size="14.00">(135)int</text>
</g>
<!-- n143&#45;&gt;n135 -->
<g id="edge51" class="edge">
<title>n143&#45;&gt;n135</title>
<path fill="none" stroke="black" d="M2191.12,-215.7C2191.12,-208.41 2191.12,-199.73 2191.12,-191.54"/>
<polygon fill="black" stroke="black" points="2194.63,-191.62 2191.13,-181.62 2187.63,-191.62 2194.63,-191.62"/>
</g>
<!-- n142 -->
<g id="node53" class="node">
<title>n142</title>
<polygon fill="none" stroke="black" points="2307.12,-180 2253.12,-180 2253.12,-144 2307.12,-144 2307.12,-180"/>
<text text-anchor="middle" x="2280.12" y="-156.95" font-family="Times New Roman,serif" font-size="14.00">&#45;</text>
<text text-anchor="middle" x="2231.38" y="-183.2" font-family="Times New Roman,serif" font-size="14.00">(142)int</text>
</g>
<!-- n143&#45;&gt;n142 -->
<g id="edge52" class="edge">
<title>n143&#45;&gt;n142</title>
<path fill="none" stroke="black" d="M2213.13,-215.7C2224.04,-207.11 2237.4,-196.61 2249.31,-187.24"/>
<polygon fill="black" stroke="black" points="2251.18,-190.22 2256.88,-181.28 2246.86,-184.71 2251.18,-190.22"/>
</g>
<!-- n103 -->
<g id="node54" class="node">
<title>n103</title>
<polygon fill="none" stroke="black" points="816.12,-108 762.12,-108 762.12,-72 816.12,-72 816.12,-108"/>
<text text-anchor="middle" x="789.12" y="-84.95" font-family="Times New Roman,serif" font-size="14.00">self</text>
<text text-anchor="middle" x="722.38" y="-111.2" font-family="Times New Roman,serif" font-size="14.00">(103)VarArray</text>
</g>
<!-- n104&#45;&gt;n103 -->
<g id="edge53" class="edge">
<title>n104&#45;&gt;n103</title>
<path fill="none" stroke="black" d="M789.12,-143.7C789.12,-136.41 789.12,-127.73 789.12,-119.54"/>
<polygon fill="black" stroke="black" points="792.63,-119.62 789.13,-109.62 785.63,-119.62 792.63,-119.62"/>
</g>
<!-- n106 -->
<g id="node55" class="node">
<title>n106</title>
<polygon fill="none" stroke="black" points="990.12,-108 936.12,-108 936.12,-72 990.12,-72 990.12,-108"/>
<text text-anchor="middle" x="963.12" y="-84.95" font-family="Times New Roman,serif" font-size="14.00">result</text>
<text text-anchor="middle" x="896.38" y="-111.2" font-family="Times New Roman,serif" font-size="14.00">(106)VarArray</text>
</g>
<!-- n107&#45;&gt;n106 -->
<g id="edge54" class="edge">
<title>n107&#45;&gt;n106</title>
<path fill="none" stroke="black" d="M963.12,-143.7C963.12,-136.41 963.12,-127.73 963.12,-119.54"/>
<polygon fill="black" stroke="black" points="966.63,-119.62 963.13,-109.62 959.63,-119.62 966.63,-119.62"/>
</g>
<!-- n110 -->
<g id="node56" class="node">
<title>n110</title>
<polygon fill="none" stroke="black" points="1144.12,-108 1090.12,-108 1090.12,-72 1144.12,-72 1144.12,-108"/>
<text text-anchor="middle" x="1117.12" y="-84.95" font-family="Times New Roman,serif" font-size="14.00">self</text>
<text text-anchor="middle" x="1050.38" y="-111.2" font-family="Times New Roman,serif" font-size="14.00">(110)VarArray</text>
</g>
<!-- n111&#45;&gt;n110 -->
<g id="edge55" class="edge">
<title>n111&#45;&gt;n110</title>
<path fill="none" stroke="black" d="M1117.12,-143.7C1117.12,-136.41 1117.12,-127.73 1117.12,-119.54"/>
<polygon fill="black" stroke="black" points="1120.63,-119.62 1117.13,-109.62 1113.63,-119.62 1120.63,-119.62"/>
</g>
<!-- n114 -->
<g id="node57" class="node">
<title>n114</title>
<polygon fill="none" stroke="black" points="1366.12,-108 1312.12,-108 1312.12,-72 1366.12,-72 1366.12,-108"/>
<text text-anchor="middle" x="1339.12" y="-84.95" font-family="Times New Roman,serif" font-size="14.00">result</text>
<text text-anchor="middle" x="1272.38" y="-111.2" font-family="Times New Roman,serif" font-size="14.00">(114)VarArray</text>
</g>
<!-- n115&#45;&gt;n114 -->
<g id="edge56" class="edge">
<title>n115&#45;&gt;n114</title>
<path fill="none" stroke="black" d="M1339.12,-143.7C1339.12,-136.41 1339.12,-127.73 1339.12,-119.54"/>
<polygon fill="black" stroke="black" points="1342.63,-119.62 1339.13,-109.62 1335.63,-119.62 1342.63,-119.62"/>
</g>
<!-- n120 -->
<g id="node58" class="node">
<title>n120</title>
<polygon fill="none" stroke="black" points="1651.12,-108 1597.12,-108 1597.12,-72 1651.12,-72 1651.12,-108"/>
<text text-anchor="middle" x="1624.12" y="-84.95" font-family="Times New Roman,serif" font-size="14.00">arg</text>
<text text-anchor="middle" x="1557.38" y="-111.2" font-family="Times New Roman,serif" font-size="14.00">(120)VarArray</text>
</g>
<!-- n121&#45;&gt;n120 -->
<g id="edge57" class="edge">
<title>n121&#45;&gt;n120</title>
<path fill="none" stroke="black" d="M1624.12,-143.7C1624.12,-136.41 1624.12,-127.73 1624.12,-119.54"/>
<polygon fill="black" stroke="black" points="1627.63,-119.62 1624.13,-109.62 1620.63,-119.62 1627.63,-119.62"/>
</g>
<!-- n133 -->
<g id="node59" class="node">
<title>n133</title>
<polygon fill="none" stroke="black" points="2147.12,-108 2093.12,-108 2093.12,-72 2147.12,-72 2147.12,-108"/>
<text text-anchor="middle" x="2120.12" y="-84.95" font-family="Times New Roman,serif" font-size="14.00">result</text>
<text text-anchor="middle" x="2053.38" y="-111.2" font-family="Times New Roman,serif" font-size="14.00">(133)VarArray</text>
</g>
<!-- n135&#45;&gt;n133 -->
<g id="edge58" class="edge">
<title>n135&#45;&gt;n133</title>
<path fill="none" stroke="black" d="M2173.57,-143.7C2165.15,-135.39 2154.89,-125.28 2145.62,-116.14"/>
<polygon fill="black" stroke="black" points="2148.13,-113.7 2138.55,-109.17 2143.22,-118.68 2148.13,-113.7"/>
</g>
<!-- n134 -->
<g id="node60" class="node">
<title>n134</title>
<polygon fill="none" stroke="black" points="2219.12,-108 2165.12,-108 2165.12,-72 2219.12,-72 2219.12,-108"/>
<text text-anchor="middle" x="2192.12" y="-84.95" font-family="Times New Roman,serif" font-size="14.00">it</text>
<text text-anchor="middle" x="2143.38" y="-111.2" font-family="Times New Roman,serif" font-size="14.00">(134)int</text>
</g>
<!-- n135&#45;&gt;n134 -->
<g id="edge59" class="edge">
<title>n135&#45;&gt;n134</title>
<path fill="none" stroke="black" d="M2191.37,-143.7C2191.48,-136.41 2191.6,-127.73 2191.72,-119.54"/>
<polygon fill="black" stroke="black" points="2195.22,-119.67 2191.86,-109.62 2188.22,-119.57 2195.22,-119.67"/>
</g>
<!-- n138 -->
<g id="node61" class="node">
<title>n138</title>
<polygon fill="none" stroke="black" points="2317.25,-108 2239,-108 2239,-72 2317.25,-72 2317.25,-108"/>
<text text-anchor="middle" x="2278.12" y="-84.95" font-family="Times New Roman,serif" font-size="14.00">self.data[it]</text>
<text text-anchor="middle" x="2217.25" y="-111.2" font-family="Times New Roman,serif" font-size="14.00">(138)int</text>
</g>
<!-- n142&#45;&gt;n138 -->
<g id="edge60" class="edge">
<title>n142&#45;&gt;n138</title>
<path fill="none" stroke="black" d="M2279.63,-143.7C2279.42,-136.41 2279.17,-127.73 2278.94,-119.54"/>
<polygon fill="black" stroke="black" points="2282.44,-119.51 2278.66,-109.62 2275.44,-119.71 2282.44,-119.51"/>
</g>
<!-- n141 -->
<g id="node62" class="node">
<title>n141</title>
<polygon fill="none" stroke="black" points="2411.12,-108 2335.12,-108 2335.12,-72 2411.12,-72 2411.12,-108"/>
<text text-anchor="middle" x="2373.12" y="-84.95" font-family="Times New Roman,serif" font-size="14.00">arg.data[it]</text>
<text text-anchor="middle" x="2313.38" y="-111.2" font-family="Times New Roman,serif" font-size="14.00">(141)int</text>
</g>
<!-- n142&#45;&gt;n141 -->
<g id="edge61" class="edge">
<title>n142&#45;&gt;n141</title>
<path fill="none" stroke="black" d="M2303.11,-143.7C2314.52,-135.11 2328.48,-124.61 2340.92,-115.24"/>
<polygon fill="black" stroke="black" points="2342.98,-118.07 2348.87,-109.26 2338.77,-112.47 2342.98,-118.07"/>
</g>
<!-- n136 -->
<g id="node63" class="node">
<title>n136</title>
<polygon fill="none" stroke="black" points="2239.12,-36 2185.12,-36 2185.12,0 2239.12,0 2239.12,-36"/>
<text text-anchor="middle" x="2212.12" y="-12.95" font-family="Times New Roman,serif" font-size="14.00">self</text>
<text text-anchor="middle" x="2145.38" y="-39.2" font-family="Times New Roman,serif" font-size="14.00">(136)VarArray</text>
</g>
<!-- n138&#45;&gt;n136 -->
<g id="edge62" class="edge">
<title>n138&#45;&gt;n136</title>
<path fill="none" stroke="black" d="M2261.81,-71.7C2254.06,-63.47 2244.64,-53.48 2236.09,-44.42"/>
<polygon fill="black" stroke="black" points="2238.7,-42.08 2229.29,-37.21 2233.6,-46.88 2238.7,-42.08"/>
</g>
<!-- n137 -->
<g id="node64" class="node">
<title>n137</title>
<polygon fill="none" stroke="black" points="2311.12,-36 2257.12,-36 2257.12,0 2311.12,0 2311.12,-36"/>
<text text-anchor="middle" x="2284.12" y="-12.95" font-family="Times New Roman,serif" font-size="14.00">it</text>
<text text-anchor="middle" x="2235.38" y="-39.2" font-family="Times New Roman,serif" font-size="14.00">(137)int</text>
</g>
<!-- n138&#45;&gt;n137 -->
<g id="edge63" class="edge">
<title>n138&#45;&gt;n137</title>
<path fill="none" stroke="black" d="M2279.61,-71.7C2280.23,-64.41 2280.98,-55.73 2281.68,-47.54"/>
<polygon fill="black" stroke="black" points="2285.16,-47.87 2282.53,-37.61 2278.19,-47.28 2285.16,-47.87"/>
</g>
<!-- n139 -->
<g id="node65" class="node">
<title>n139</title>
<polygon fill="none" stroke="black" points="2394.12,-36 2340.12,-36 2340.12,0 2394.12,0 2394.12,-36"/>
<text text-anchor="middle" x="2367.12" y="-12.95" font-family="Times New Roman,serif" font-size="14.00">arg</text>
<text text-anchor="middle" x="2300.38" y="-39.2" font-family="Times New Roman,serif" font-size="14.00">(139)VarArray</text>
</g>
<!-- n141&#45;&gt;n139 -->
<g id="edge64" class="edge">
<title>n141&#45;&gt;n139</title>
<path fill="none" stroke="black" d="M2371.64,-71.7C2371.02,-64.41 2370.27,-55.73 2369.57,-47.54"/>
<polygon fill="black" stroke="black" points="2373.06,-47.28 2368.72,-37.61 2366.09,-47.87 2373.06,-47.28"/>
</g>
<!-- n140 -->
<g id="node66" class="node">
<title>n140</title>
<polygon fill="none" stroke="black" points="2466.12,-36 2412.12,-36 2412.12,0 2466.12,0 2466.12,-36"/>
<text text-anchor="middle" x="2439.12" y="-12.95" font-family="Times New Roman,serif" font-size="14.00">it</text>
<text text-anchor="middle" x="2390.38" y="-39.2" font-family="Times New Roman,serif" font-size="14.00">(140)int</text>
</g>
<!-- n141&#45;&gt;n140 -->
<g id="edge65" class="edge">
<title>n141&#45;&gt;n140</title>
<path fill="none" stroke="black" d="M2389.44,-71.7C2397.19,-63.47 2406.61,-53.48 2415.16,-44.42"/>
<polygon fill="black" stroke="black" points="2417.65,-46.88 2421.96,-37.21 2412.55,-42.08 2417.65,-46.88"/>
</g>
</g>
</svg>
