<?xml version="1.0" encoding="UTF-8" standalone="no"?>
<!DOCTYPE svg PUBLIC "-//W3C//DTD SVG 1.1//EN"
 "http://www.w3.org/Graphics/SVG/1.1/DTD/svg11.dtd">
<!-- Generated by graphviz version 12.2.1 (20241206.2353)
 -->
<!-- Title: AST Pages: 1 -->
<svg width="1017pt" height="709pt"
 viewBox="0.00 0.00 1016.75 708.50" xmlns="http://www.w3.org/2000/svg" xmlns:xlink="http://www.w3.org/1999/xlink">
<g id="graph0" class="graph" transform="scale(1 1) rotate(0) translate(4 704.5)">
<title>AST</title>
<polygon fill="white" stroke="none" points="-4,4 -4,-704.5 1012.75,-704.5 1012.75,4 -4,4"/>
<!-- n78 -->
<g id="node1" class="node">
<title>n78</title>
<polygon fill="none" stroke="black" points="805.25,-684 498.25,-684 498.25,-648 805.25,-648 805.25,-684"/>
<text text-anchor="middle" x="651.75" y="-660.95" font-family="Times New Roman,serif" font-size="14.00">ContextDecl: node(35) Context: node (65), node (77)</text>
<text text-anchor="middle" x="487" y="-687.2" font-family="Times New Roman,serif" font-size="14.00">(78)</text>
</g>
<!-- n35 -->
<g id="node2" class="node">
<title>n35</title>
<polygon fill="none" stroke="black" points="558,-612 261.5,-612 261.5,-576 558,-576 558,-612"/>
<text text-anchor="middle" x="409.75" y="-588.95" font-family="Times New Roman,serif" font-size="14.00">Triangle::Triangle(node (32), node (33), node (34))</text>
<text text-anchor="middle" x="250.25" y="-615.2" font-family="Times New Roman,serif" font-size="14.00">(35)</text>
</g>
<!-- n78&#45;&gt;n35 -->
<g id="edge1" class="edge">
<title>n78&#45;&gt;n35</title>
<path fill="none" stroke="black" d="M591.31,-647.52C557.69,-637.79 515.66,-625.64 480.51,-615.47"/>
<polygon fill="black" stroke="black" points="481.87,-612.22 471.29,-612.8 479.93,-618.94 481.87,-612.22"/>
</g>
<!-- n65 -->
<g id="node3" class="node">
<title>n65</title>
<polygon fill="none" stroke="black" points="727.62,-612 575.88,-612 575.88,-576 727.62,-576 727.62,-612"/>
<text text-anchor="middle" x="651.75" y="-588.95" font-family="Times New Roman,serif" font-size="14.00">EdgeErrorException pre:</text>
<text text-anchor="middle" x="542.12" y="-615.2" font-family="Times New Roman,serif" font-size="14.00">(65)Boolean</text>
</g>
<!-- n78&#45;&gt;n65 -->
<g id="edge2" class="edge">
<title>n78&#45;&gt;n65</title>
<path fill="none" stroke="black" d="M651.75,-647.7C651.75,-640.41 651.75,-631.73 651.75,-623.54"/>
<polygon fill="black" stroke="black" points="655.25,-623.62 651.75,-613.62 648.25,-623.62 655.25,-623.62"/>
</g>
<!-- n77 -->
<g id="node4" class="node">
<title>n77</title>
<polygon fill="none" stroke="black" points="846.75,-612 792.75,-612 792.75,-576 846.75,-576 846.75,-612"/>
<text text-anchor="middle" x="819.75" y="-588.95" font-family="Times New Roman,serif" font-size="14.00"> post:</text>
<text text-anchor="middle" x="759" y="-615.2" font-family="Times New Roman,serif" font-size="14.00">(77)Boolean</text>
</g>
<!-- n78&#45;&gt;n77 -->
<g id="edge3" class="edge">
<title>n78&#45;&gt;n77</title>
<path fill="none" stroke="black" d="M693.71,-647.52C720.87,-636.2 755.94,-621.59 782.19,-610.65"/>
<polygon fill="black" stroke="black" points="783.21,-614.02 791.09,-606.94 780.51,-607.56 783.21,-614.02"/>
</g>
<!-- n32 -->
<g id="node5" class="node">
<title>n32</title>
<polygon fill="none" stroke="black" points="364.75,-540 310.75,-540 310.75,-504 364.75,-504 364.75,-540"/>
<text text-anchor="middle" x="337.75" y="-516.95" font-family="Times New Roman,serif" font-size="14.00">sa : int</text>
<text text-anchor="middle" x="292.38" y="-543.2" font-family="Times New Roman,serif" font-size="14.00">(32)int</text>
</g>
<!-- n35&#45;&gt;n32 -->
<g id="edge4" class="edge">
<title>n35&#45;&gt;n32</title>
<path fill="none" stroke="black" d="M391.95,-575.7C383.47,-567.45 373.16,-557.43 363.82,-548.35"/>
<polygon fill="black" stroke="black" points="366.29,-545.86 356.68,-541.4 361.41,-550.88 366.29,-545.86"/>
</g>
<!-- n33 -->
<g id="node6" class="node">
<title>n33</title>
<polygon fill="none" stroke="black" points="436.75,-540 382.75,-540 382.75,-504 436.75,-504 436.75,-540"/>
<text text-anchor="middle" x="409.75" y="-516.95" font-family="Times New Roman,serif" font-size="14.00">sb : int</text>
<text text-anchor="middle" x="364.38" y="-543.2" font-family="Times New Roman,serif" font-size="14.00">(33)int</text>
</g>
<!-- n35&#45;&gt;n33 -->
<g id="edge5" class="edge">
<title>n35&#45;&gt;n33</title>
<path fill="none" stroke="black" d="M409.75,-575.7C409.75,-568.41 409.75,-559.73 409.75,-551.54"/>
<polygon fill="black" stroke="black" points="413.25,-551.62 409.75,-541.62 406.25,-551.62 413.25,-551.62"/>
</g>
<!-- n34 -->
<g id="node7" class="node">
<title>n34</title>
<polygon fill="none" stroke="black" points="508.75,-540 454.75,-540 454.75,-504 508.75,-504 508.75,-540"/>
<text text-anchor="middle" x="481.75" y="-516.95" font-family="Times New Roman,serif" font-size="14.00">sc : int</text>
<text text-anchor="middle" x="436.38" y="-543.2" font-family="Times New Roman,serif" font-size="14.00">(34)int</text>
</g>
<!-- n35&#45;&gt;n34 -->
<g id="edge6" class="edge">
<title>n35&#45;&gt;n34</title>
<path fill="none" stroke="black" d="M427.55,-575.7C436.03,-567.45 446.34,-557.43 455.68,-548.35"/>
<polygon fill="black" stroke="black" points="458.09,-550.88 462.82,-541.4 453.21,-545.86 458.09,-550.88"/>
</g>
<!-- n64 -->
<g id="node8" class="node">
<title>n64</title>
<polygon fill="none" stroke="black" points="672.75,-540 618.75,-540 618.75,-504 672.75,-504 672.75,-540"/>
<text text-anchor="middle" x="645.75" y="-516.95" font-family="Times New Roman,serif" font-size="14.00">and</text>
<text text-anchor="middle" x="585" y="-543.2" font-family="Times New Roman,serif" font-size="14.00">(64)Boolean</text>
</g>
<!-- n65&#45;&gt;n64 -->
<g id="edge7" class="edge">
<title>n65&#45;&gt;n64</title>
<path fill="none" stroke="black" d="M650.27,-575.7C649.64,-568.41 648.9,-559.73 648.2,-551.54"/>
<polygon fill="black" stroke="black" points="651.69,-551.28 647.35,-541.61 644.71,-551.87 651.69,-551.28"/>
</g>
<!-- n76 -->
<g id="node9" class="node">
<title>n76</title>
<polygon fill="none" stroke="black" points="858.75,-540 804.75,-540 804.75,-504 858.75,-504 858.75,-540"/>
<text text-anchor="middle" x="831.75" y="-516.95" font-family="Times New Roman,serif" font-size="14.00">and</text>
<text text-anchor="middle" x="771" y="-543.2" font-family="Times New Roman,serif" font-size="14.00">(76)Boolean</text>
</g>
<!-- n77&#45;&gt;n76 -->
<g id="edge8" class="edge">
<title>n77&#45;&gt;n76</title>
<path fill="none" stroke="black" d="M822.72,-575.7C823.98,-568.32 825.49,-559.52 826.91,-551.25"/>
<polygon fill="black" stroke="black" points="830.32,-552.04 828.56,-541.6 823.42,-550.86 830.32,-552.04"/>
</g>
<!-- n60 -->
<g id="node10" class="node">
<title>n60</title>
<polygon fill="none" stroke="black" points="576.75,-468 522.75,-468 522.75,-432 576.75,-432 576.75,-468"/>
<text text-anchor="middle" x="549.75" y="-444.95" font-family="Times New Roman,serif" font-size="14.00">and</text>
<text text-anchor="middle" x="489" y="-471.2" font-family="Times New Roman,serif" font-size="14.00">(60)Boolean</text>
</g>
<!-- n64&#45;&gt;n60 -->
<g id="edge9" class="edge">
<title>n64&#45;&gt;n60</title>
<path fill="none" stroke="black" d="M622.02,-503.7C610.13,-495.03 595.56,-484.4 582.61,-474.96"/>
<polygon fill="black" stroke="black" points="584.91,-472.3 574.76,-469.24 580.78,-477.96 584.91,-472.3"/>
</g>
<!-- n63 -->
<g id="node11" class="node">
<title>n63</title>
<polygon fill="none" stroke="black" points="672.75,-468 618.75,-468 618.75,-432 672.75,-432 672.75,-468"/>
<text text-anchor="middle" x="645.75" y="-444.95" font-family="Times New Roman,serif" font-size="14.00">&gt;</text>
<text text-anchor="middle" x="585" y="-471.2" font-family="Times New Roman,serif" font-size="14.00">(63)Boolean</text>
</g>
<!-- n64&#45;&gt;n63 -->
<g id="edge10" class="edge">
<title>n64&#45;&gt;n63</title>
<path fill="none" stroke="black" d="M645.75,-503.7C645.75,-496.41 645.75,-487.73 645.75,-479.54"/>
<polygon fill="black" stroke="black" points="649.25,-479.62 645.75,-469.62 642.25,-479.62 649.25,-479.62"/>
</g>
<!-- n72 -->
<g id="node12" class="node">
<title>n72</title>
<polygon fill="none" stroke="black" points="858.75,-468 804.75,-468 804.75,-432 858.75,-432 858.75,-468"/>
<text text-anchor="middle" x="831.75" y="-444.95" font-family="Times New Roman,serif" font-size="14.00">and</text>
<text text-anchor="middle" x="771" y="-471.2" font-family="Times New Roman,serif" font-size="14.00">(72)Boolean</text>
</g>
<!-- n76&#45;&gt;n72 -->
<g id="edge11" class="edge">
<title>n76&#45;&gt;n72</title>
<path fill="none" stroke="black" d="M831.75,-503.7C831.75,-496.41 831.75,-487.73 831.75,-479.54"/>
<polygon fill="black" stroke="black" points="835.25,-479.62 831.75,-469.62 828.25,-479.62 835.25,-479.62"/>
</g>
<!-- n75 -->
<g id="node13" class="node">
<title>n75</title>
<polygon fill="none" stroke="black" points="936.75,-468 882.75,-468 882.75,-432 936.75,-432 936.75,-468"/>
<text text-anchor="middle" x="909.75" y="-444.95" font-family="Times New Roman,serif" font-size="14.00">=</text>
<text text-anchor="middle" x="849" y="-471.2" font-family="Times New Roman,serif" font-size="14.00">(75)Boolean</text>
</g>
<!-- n76&#45;&gt;n75 -->
<g id="edge12" class="edge">
<title>n76&#45;&gt;n75</title>
<path fill="none" stroke="black" d="M851.03,-503.7C860.41,-495.28 871.84,-485.02 882.13,-475.79"/>
<polygon fill="black" stroke="black" points="884.19,-478.64 889.29,-469.36 879.51,-473.43 884.19,-478.64"/>
</g>
<!-- n56 -->
<g id="node14" class="node">
<title>n56</title>
<polygon fill="none" stroke="black" points="504.75,-396 450.75,-396 450.75,-360 504.75,-360 504.75,-396"/>
<text text-anchor="middle" x="477.75" y="-372.95" font-family="Times New Roman,serif" font-size="14.00">and</text>
<text text-anchor="middle" x="417" y="-399.2" font-family="Times New Roman,serif" font-size="14.00">(56)Boolean</text>
</g>
<!-- n60&#45;&gt;n56 -->
<g id="edge13" class="edge">
<title>n60&#45;&gt;n56</title>
<path fill="none" stroke="black" d="M531.95,-431.7C523.47,-423.45 513.16,-413.43 503.82,-404.35"/>
<polygon fill="black" stroke="black" points="506.29,-401.86 496.68,-397.4 501.41,-406.88 506.29,-401.86"/>
</g>
<!-- n59 -->
<g id="node15" class="node">
<title>n59</title>
<polygon fill="none" stroke="black" points="576.75,-396 522.75,-396 522.75,-360 576.75,-360 576.75,-396"/>
<text text-anchor="middle" x="549.75" y="-372.95" font-family="Times New Roman,serif" font-size="14.00">&gt;</text>
<text text-anchor="middle" x="489" y="-399.2" font-family="Times New Roman,serif" font-size="14.00">(59)Boolean</text>
</g>
<!-- n60&#45;&gt;n59 -->
<g id="edge14" class="edge">
<title>n60&#45;&gt;n59</title>
<path fill="none" stroke="black" d="M549.75,-431.7C549.75,-424.41 549.75,-415.73 549.75,-407.54"/>
<polygon fill="black" stroke="black" points="553.25,-407.62 549.75,-397.62 546.25,-407.62 553.25,-407.62"/>
</g>
<!-- n61 -->
<g id="node16" class="node">
<title>n61</title>
<polygon fill="none" stroke="black" points="648.75,-396 594.75,-396 594.75,-360 648.75,-360 648.75,-396"/>
<text text-anchor="middle" x="621.75" y="-372.95" font-family="Times New Roman,serif" font-size="14.00">sc</text>
<text text-anchor="middle" x="576.38" y="-399.2" font-family="Times New Roman,serif" font-size="14.00">(61)int</text>
</g>
<!-- n63&#45;&gt;n61 -->
<g id="edge15" class="edge">
<title>n63&#45;&gt;n61</title>
<path fill="none" stroke="black" d="M639.82,-431.7C637.26,-424.24 634.2,-415.32 631.34,-406.97"/>
<polygon fill="black" stroke="black" points="634.66,-405.86 628.11,-397.54 628.04,-408.13 634.66,-405.86"/>
</g>
<!-- n62 -->
<g id="node17" class="node">
<title>n62</title>
<polygon fill="none" stroke="black" points="720.75,-396 666.75,-396 666.75,-360 720.75,-360 720.75,-396"/>
<text text-anchor="middle" x="693.75" y="-372.95" font-family="Times New Roman,serif" font-size="14.00">0</text>
<text text-anchor="middle" x="648.38" y="-399.2" font-family="Times New Roman,serif" font-size="14.00">(62)int</text>
</g>
<!-- n63&#45;&gt;n62 -->
<g id="edge16" class="edge">
<title>n63&#45;&gt;n62</title>
<path fill="none" stroke="black" d="M657.62,-431.7C663.02,-423.81 669.54,-414.3 675.55,-405.55"/>
<polygon fill="black" stroke="black" points="678.4,-407.58 681.17,-397.35 672.62,-403.62 678.4,-407.58"/>
</g>
<!-- n68 -->
<g id="node18" class="node">
<title>n68</title>
<polygon fill="none" stroke="black" points="792.75,-396 738.75,-396 738.75,-360 792.75,-360 792.75,-396"/>
<text text-anchor="middle" x="765.75" y="-372.95" font-family="Times New Roman,serif" font-size="14.00">=</text>
<text text-anchor="middle" x="705" y="-399.2" font-family="Times New Roman,serif" font-size="14.00">(68)Boolean</text>
</g>
<!-- n72&#45;&gt;n68 -->
<g id="edge17" class="edge">
<title>n72&#45;&gt;n68</title>
<path fill="none" stroke="black" d="M815.44,-431.7C807.68,-423.47 798.26,-413.48 789.72,-404.42"/>
<polygon fill="black" stroke="black" points="792.32,-402.08 782.92,-397.21 787.23,-406.88 792.32,-402.08"/>
</g>
<!-- n71 -->
<g id="node19" class="node">
<title>n71</title>
<polygon fill="none" stroke="black" points="864.75,-396 810.75,-396 810.75,-360 864.75,-360 864.75,-396"/>
<text text-anchor="middle" x="837.75" y="-372.95" font-family="Times New Roman,serif" font-size="14.00">=</text>
<text text-anchor="middle" x="777" y="-399.2" font-family="Times New Roman,serif" font-size="14.00">(71)Boolean</text>
</g>
<!-- n72&#45;&gt;n71 -->
<g id="edge18" class="edge">
<title>n72&#45;&gt;n71</title>
<path fill="none" stroke="black" d="M833.23,-431.7C833.86,-424.41 834.6,-415.73 835.3,-407.54"/>
<polygon fill="black" stroke="black" points="838.79,-407.87 836.15,-397.61 831.81,-407.28 838.79,-407.87"/>
</g>
<!-- n73 -->
<g id="node20" class="node">
<title>n73</title>
<polygon fill="none" stroke="black" points="936.75,-396 882.75,-396 882.75,-360 936.75,-360 936.75,-396"/>
<text text-anchor="middle" x="909.75" y="-372.95" font-family="Times New Roman,serif" font-size="14.00">sideC</text>
<text text-anchor="middle" x="864.38" y="-399.2" font-family="Times New Roman,serif" font-size="14.00">(73)int</text>
</g>
<!-- n75&#45;&gt;n73 -->
<g id="edge19" class="edge">
<title>n75&#45;&gt;n73</title>
<path fill="none" stroke="black" d="M909.75,-431.7C909.75,-424.41 909.75,-415.73 909.75,-407.54"/>
<polygon fill="black" stroke="black" points="913.25,-407.62 909.75,-397.62 906.25,-407.62 913.25,-407.62"/>
</g>
<!-- n74 -->
<g id="node21" class="node">
<title>n74</title>
<polygon fill="none" stroke="black" points="1008.75,-396 954.75,-396 954.75,-360 1008.75,-360 1008.75,-396"/>
<text text-anchor="middle" x="981.75" y="-372.95" font-family="Times New Roman,serif" font-size="14.00">sc</text>
<text text-anchor="middle" x="936.38" y="-399.2" font-family="Times New Roman,serif" font-size="14.00">(74)int</text>
</g>
<!-- n75&#45;&gt;n74 -->
<g id="edge20" class="edge">
<title>n75&#45;&gt;n74</title>
<path fill="none" stroke="black" d="M927.55,-431.7C936.03,-423.45 946.34,-413.43 955.68,-404.35"/>
<polygon fill="black" stroke="black" points="958.09,-406.88 962.82,-397.4 953.21,-401.86 958.09,-406.88"/>
</g>
<!-- n52 -->
<g id="node22" class="node">
<title>n52</title>
<polygon fill="none" stroke="black" points="432.75,-324 378.75,-324 378.75,-288 432.75,-288 432.75,-324"/>
<text text-anchor="middle" x="405.75" y="-300.95" font-family="Times New Roman,serif" font-size="14.00">and</text>
<text text-anchor="middle" x="345" y="-327.2" font-family="Times New Roman,serif" font-size="14.00">(52)Boolean</text>
</g>
<!-- n56&#45;&gt;n52 -->
<g id="edge21" class="edge">
<title>n56&#45;&gt;n52</title>
<path fill="none" stroke="black" d="M459.95,-359.7C451.47,-351.45 441.16,-341.43 431.82,-332.35"/>
<polygon fill="black" stroke="black" points="434.29,-329.86 424.68,-325.4 429.41,-334.88 434.29,-329.86"/>
</g>
<!-- n55 -->
<g id="node23" class="node">
<title>n55</title>
<polygon fill="none" stroke="black" points="504.75,-324 450.75,-324 450.75,-288 504.75,-288 504.75,-324"/>
<text text-anchor="middle" x="477.75" y="-300.95" font-family="Times New Roman,serif" font-size="14.00">&gt;</text>
<text text-anchor="middle" x="417" y="-327.2" font-family="Times New Roman,serif" font-size="14.00">(55)Boolean</text>
</g>
<!-- n56&#45;&gt;n55 -->
<g id="edge22" class="edge">
<title>n56&#45;&gt;n55</title>
<path fill="none" stroke="black" d="M477.75,-359.7C477.75,-352.41 477.75,-343.73 477.75,-335.54"/>
<polygon fill="black" stroke="black" points="481.25,-335.62 477.75,-325.62 474.25,-335.62 481.25,-335.62"/>
</g>
<!-- n57 -->
<g id="node24" class="node">
<title>n57</title>
<polygon fill="none" stroke="black" points="576.75,-324 522.75,-324 522.75,-288 576.75,-288 576.75,-324"/>
<text text-anchor="middle" x="549.75" y="-300.95" font-family="Times New Roman,serif" font-size="14.00">sb</text>
<text text-anchor="middle" x="504.38" y="-327.2" font-family="Times New Roman,serif" font-size="14.00">(57)int</text>
</g>
<!-- n59&#45;&gt;n57 -->
<g id="edge23" class="edge">
<title>n59&#45;&gt;n57</title>
<path fill="none" stroke="black" d="M549.75,-359.7C549.75,-352.41 549.75,-343.73 549.75,-335.54"/>
<polygon fill="black" stroke="black" points="553.25,-335.62 549.75,-325.62 546.25,-335.62 553.25,-335.62"/>
</g>
<!-- n58 -->
<g id="node25" class="node">
<title>n58</title>
<polygon fill="none" stroke="black" points="648.75,-324 594.75,-324 594.75,-288 648.75,-288 648.75,-324"/>
<text text-anchor="middle" x="621.75" y="-300.95" font-family="Times New Roman,serif" font-size="14.00">0</text>
<text text-anchor="middle" x="576.38" y="-327.2" font-family="Times New Roman,serif" font-size="14.00">(58)int</text>
</g>
<!-- n59&#45;&gt;n58 -->
<g id="edge24" class="edge">
<title>n59&#45;&gt;n58</title>
<path fill="none" stroke="black" d="M567.55,-359.7C576.03,-351.45 586.34,-341.43 595.68,-332.35"/>
<polygon fill="black" stroke="black" points="598.09,-334.88 602.82,-325.4 593.21,-329.86 598.09,-334.88"/>
</g>
<!-- n66 -->
<g id="node26" class="node">
<title>n66</title>
<polygon fill="none" stroke="black" points="720.75,-324 666.75,-324 666.75,-288 720.75,-288 720.75,-324"/>
<text text-anchor="middle" x="693.75" y="-300.95" font-family="Times New Roman,serif" font-size="14.00">sideA</text>
<text text-anchor="middle" x="648.38" y="-327.2" font-family="Times New Roman,serif" font-size="14.00">(66)int</text>
</g>
<!-- n68&#45;&gt;n66 -->
<g id="edge25" class="edge">
<title>n68&#45;&gt;n66</title>
<path fill="none" stroke="black" d="M747.95,-359.7C739.47,-351.45 729.16,-341.43 719.82,-332.35"/>
<polygon fill="black" stroke="black" points="722.29,-329.86 712.68,-325.4 717.41,-334.88 722.29,-329.86"/>
</g>
<!-- n67 -->
<g id="node27" class="node">
<title>n67</title>
<polygon fill="none" stroke="black" points="792.75,-324 738.75,-324 738.75,-288 792.75,-288 792.75,-324"/>
<text text-anchor="middle" x="765.75" y="-300.95" font-family="Times New Roman,serif" font-size="14.00">sa</text>
<text text-anchor="middle" x="720.38" y="-327.2" font-family="Times New Roman,serif" font-size="14.00">(67)int</text>
</g>
<!-- n68&#45;&gt;n67 -->
<g id="edge26" class="edge">
<title>n68&#45;&gt;n67</title>
<path fill="none" stroke="black" d="M765.75,-359.7C765.75,-352.41 765.75,-343.73 765.75,-335.54"/>
<polygon fill="black" stroke="black" points="769.25,-335.62 765.75,-325.62 762.25,-335.62 769.25,-335.62"/>
</g>
<!-- n69 -->
<g id="node28" class="node">
<title>n69</title>
<polygon fill="none" stroke="black" points="864.75,-324 810.75,-324 810.75,-288 864.75,-288 864.75,-324"/>
<text text-anchor="middle" x="837.75" y="-300.95" font-family="Times New Roman,serif" font-size="14.00">sideB</text>
<text text-anchor="middle" x="792.38" y="-327.2" font-family="Times New Roman,serif" font-size="14.00">(69)int</text>
</g>
<!-- n71&#45;&gt;n69 -->
<g id="edge27" class="edge">
<title>n71&#45;&gt;n69</title>
<path fill="none" stroke="black" d="M837.75,-359.7C837.75,-352.41 837.75,-343.73 837.75,-335.54"/>
<polygon fill="black" stroke="black" points="841.25,-335.62 837.75,-325.62 834.25,-335.62 841.25,-335.62"/>
</g>
<!-- n70 -->
<g id="node29" class="node">
<title>n70</title>
<polygon fill="none" stroke="black" points="936.75,-324 882.75,-324 882.75,-288 936.75,-288 936.75,-324"/>
<text text-anchor="middle" x="909.75" y="-300.95" font-family="Times New Roman,serif" font-size="14.00">sb</text>
<text text-anchor="middle" x="864.38" y="-327.2" font-family="Times New Roman,serif" font-size="14.00">(70)int</text>
</g>
<!-- n71&#45;&gt;n70 -->
<g id="edge28" class="edge">
<title>n71&#45;&gt;n70</title>
<path fill="none" stroke="black" d="M855.55,-359.7C864.03,-351.45 874.34,-341.43 883.68,-332.35"/>
<polygon fill="black" stroke="black" points="886.09,-334.88 890.82,-325.4 881.21,-329.86 886.09,-334.88"/>
</g>
<!-- n46 -->
<g id="node30" class="node">
<title>n46</title>
<polygon fill="none" stroke="black" points="324.75,-252 270.75,-252 270.75,-216 324.75,-216 324.75,-252"/>
<text text-anchor="middle" x="297.75" y="-228.95" font-family="Times New Roman,serif" font-size="14.00">and</text>
<text text-anchor="middle" x="237" y="-255.2" font-family="Times New Roman,serif" font-size="14.00">(46)Boolean</text>
</g>
<!-- n52&#45;&gt;n46 -->
<g id="edge29" class="edge">
<title>n52&#45;&gt;n46</title>
<path fill="none" stroke="black" d="M378.78,-287.52C365.14,-278.68 348.41,-267.84 333.7,-258.3"/>
<polygon fill="black" stroke="black" points="335.95,-255.59 325.65,-253.08 332.14,-261.46 335.95,-255.59"/>
</g>
<!-- n51 -->
<g id="node31" class="node">
<title>n51</title>
<polygon fill="none" stroke="black" points="432.75,-252 378.75,-252 378.75,-216 432.75,-216 432.75,-252"/>
<text text-anchor="middle" x="405.75" y="-228.95" font-family="Times New Roman,serif" font-size="14.00">&gt;</text>
<text text-anchor="middle" x="345" y="-255.2" font-family="Times New Roman,serif" font-size="14.00">(51)Boolean</text>
</g>
<!-- n52&#45;&gt;n51 -->
<g id="edge30" class="edge">
<title>n52&#45;&gt;n51</title>
<path fill="none" stroke="black" d="M405.75,-287.7C405.75,-280.41 405.75,-271.73 405.75,-263.54"/>
<polygon fill="black" stroke="black" points="409.25,-263.62 405.75,-253.62 402.25,-263.62 409.25,-263.62"/>
</g>
<!-- n53 -->
<g id="node32" class="node">
<title>n53</title>
<polygon fill="none" stroke="black" points="504.75,-252 450.75,-252 450.75,-216 504.75,-216 504.75,-252"/>
<text text-anchor="middle" x="477.75" y="-228.95" font-family="Times New Roman,serif" font-size="14.00">sa</text>
<text text-anchor="middle" x="432.38" y="-255.2" font-family="Times New Roman,serif" font-size="14.00">(53)int</text>
</g>
<!-- n55&#45;&gt;n53 -->
<g id="edge31" class="edge">
<title>n55&#45;&gt;n53</title>
<path fill="none" stroke="black" d="M477.75,-287.7C477.75,-280.41 477.75,-271.73 477.75,-263.54"/>
<polygon fill="black" stroke="black" points="481.25,-263.62 477.75,-253.62 474.25,-263.62 481.25,-263.62"/>
</g>
<!-- n54 -->
<g id="node33" class="node">
<title>n54</title>
<polygon fill="none" stroke="black" points="576.75,-252 522.75,-252 522.75,-216 576.75,-216 576.75,-252"/>
<text text-anchor="middle" x="549.75" y="-228.95" font-family="Times New Roman,serif" font-size="14.00">0</text>
<text text-anchor="middle" x="504.38" y="-255.2" font-family="Times New Roman,serif" font-size="14.00">(54)int</text>
</g>
<!-- n55&#45;&gt;n54 -->
<g id="edge32" class="edge">
<title>n55&#45;&gt;n54</title>
<path fill="none" stroke="black" d="M495.55,-287.7C504.03,-279.45 514.34,-269.43 523.68,-260.35"/>
<polygon fill="black" stroke="black" points="526.09,-262.88 530.82,-253.4 521.21,-257.86 526.09,-262.88"/>
</g>
<!-- n40 -->
<g id="node34" class="node">
<title>n40</title>
<polygon fill="none" stroke="black" points="216.75,-180 162.75,-180 162.75,-144 216.75,-144 216.75,-180"/>
<text text-anchor="middle" x="189.75" y="-156.95" font-family="Times New Roman,serif" font-size="14.00">&gt;</text>
<text text-anchor="middle" x="129" y="-183.2" font-family="Times New Roman,serif" font-size="14.00">(40)Boolean</text>
</g>
<!-- n46&#45;&gt;n40 -->
<g id="edge33" class="edge">
<title>n46&#45;&gt;n40</title>
<path fill="none" stroke="black" d="M270.78,-215.52C257.14,-206.68 240.41,-195.84 225.7,-186.3"/>
<polygon fill="black" stroke="black" points="227.95,-183.59 217.65,-181.08 224.14,-189.46 227.95,-183.59"/>
</g>
<!-- n45 -->
<g id="node35" class="node">
<title>n45</title>
<polygon fill="none" stroke="black" points="324.75,-180 270.75,-180 270.75,-144 324.75,-144 324.75,-180"/>
<text text-anchor="middle" x="297.75" y="-156.95" font-family="Times New Roman,serif" font-size="14.00">&gt;</text>
<text text-anchor="middle" x="237" y="-183.2" font-family="Times New Roman,serif" font-size="14.00">(45)Boolean</text>
</g>
<!-- n46&#45;&gt;n45 -->
<g id="edge34" class="edge">
<title>n46&#45;&gt;n45</title>
<path fill="none" stroke="black" d="M297.75,-215.7C297.75,-208.41 297.75,-199.73 297.75,-191.54"/>
<polygon fill="black" stroke="black" points="301.25,-191.62 297.75,-181.62 294.25,-191.62 301.25,-191.62"/>
</g>
<!-- n49 -->
<g id="node36" class="node">
<title>n49</title>
<polygon fill="none" stroke="black" points="432.75,-180 378.75,-180 378.75,-144 432.75,-144 432.75,-180"/>
<text text-anchor="middle" x="405.75" y="-156.95" font-family="Times New Roman,serif" font-size="14.00">+</text>
<text text-anchor="middle" x="360.38" y="-183.2" font-family="Times New Roman,serif" font-size="14.00">(49)int</text>
</g>
<!-- n51&#45;&gt;n49 -->
<g id="edge35" class="edge">
<title>n51&#45;&gt;n49</title>
<path fill="none" stroke="black" d="M405.75,-215.7C405.75,-208.41 405.75,-199.73 405.75,-191.54"/>
<polygon fill="black" stroke="black" points="409.25,-191.62 405.75,-181.62 402.25,-191.62 409.25,-191.62"/>
</g>
<!-- n50 -->
<g id="node37" class="node">
<title>n50</title>
<polygon fill="none" stroke="black" points="504.75,-180 450.75,-180 450.75,-144 504.75,-144 504.75,-180"/>
<text text-anchor="middle" x="477.75" y="-156.95" font-family="Times New Roman,serif" font-size="14.00">sb</text>
<text text-anchor="middle" x="432.38" y="-183.2" font-family="Times New Roman,serif" font-size="14.00">(50)int</text>
</g>
<!-- n51&#45;&gt;n50 -->
<g id="edge36" class="edge">
<title>n51&#45;&gt;n50</title>
<path fill="none" stroke="black" d="M423.55,-215.7C432.03,-207.45 442.34,-197.43 451.68,-188.35"/>
<polygon fill="black" stroke="black" points="454.09,-190.88 458.82,-181.4 449.21,-185.86 454.09,-190.88"/>
</g>
<!-- n38 -->
<g id="node38" class="node">
<title>n38</title>
<polygon fill="none" stroke="black" points="144.75,-108 90.75,-108 90.75,-72 144.75,-72 144.75,-108"/>
<text text-anchor="middle" x="117.75" y="-84.95" font-family="Times New Roman,serif" font-size="14.00">+</text>
<text text-anchor="middle" x="72.38" y="-111.2" font-family="Times New Roman,serif" font-size="14.00">(38)int</text>
</g>
<!-- n40&#45;&gt;n38 -->
<g id="edge37" class="edge">
<title>n40&#45;&gt;n38</title>
<path fill="none" stroke="black" d="M171.95,-143.7C163.47,-135.45 153.16,-125.43 143.82,-116.35"/>
<polygon fill="black" stroke="black" points="146.29,-113.86 136.68,-109.4 141.41,-118.88 146.29,-113.86"/>
</g>
<!-- n39 -->
<g id="node39" class="node">
<title>n39</title>
<polygon fill="none" stroke="black" points="216.75,-108 162.75,-108 162.75,-72 216.75,-72 216.75,-108"/>
<text text-anchor="middle" x="189.75" y="-84.95" font-family="Times New Roman,serif" font-size="14.00">sc</text>
<text text-anchor="middle" x="144.38" y="-111.2" font-family="Times New Roman,serif" font-size="14.00">(39)int</text>
</g>
<!-- n40&#45;&gt;n39 -->
<g id="edge38" class="edge">
<title>n40&#45;&gt;n39</title>
<path fill="none" stroke="black" d="M189.75,-143.7C189.75,-136.41 189.75,-127.73 189.75,-119.54"/>
<polygon fill="black" stroke="black" points="193.25,-119.62 189.75,-109.62 186.25,-119.62 193.25,-119.62"/>
</g>
<!-- n43 -->
<g id="node40" class="node">
<title>n43</title>
<polygon fill="none" stroke="black" points="288.75,-108 234.75,-108 234.75,-72 288.75,-72 288.75,-108"/>
<text text-anchor="middle" x="261.75" y="-84.95" font-family="Times New Roman,serif" font-size="14.00">+</text>
<text text-anchor="middle" x="216.38" y="-111.2" font-family="Times New Roman,serif" font-size="14.00">(43)int</text>
</g>
<!-- n45&#45;&gt;n43 -->
<g id="edge39" class="edge">
<title>n45&#45;&gt;n43</title>
<path fill="none" stroke="black" d="M288.85,-143.7C284.88,-135.98 280.12,-126.71 275.69,-118.11"/>
<polygon fill="black" stroke="black" points="278.92,-116.74 271.24,-109.45 272.7,-119.94 278.92,-116.74"/>
</g>
<!-- n44 -->
<g id="node41" class="node">
<title>n44</title>
<polygon fill="none" stroke="black" points="360.75,-108 306.75,-108 306.75,-72 360.75,-72 360.75,-108"/>
<text text-anchor="middle" x="333.75" y="-84.95" font-family="Times New Roman,serif" font-size="14.00">sa</text>
<text text-anchor="middle" x="288.38" y="-111.2" font-family="Times New Roman,serif" font-size="14.00">(44)int</text>
</g>
<!-- n45&#45;&gt;n44 -->
<g id="edge40" class="edge">
<title>n45&#45;&gt;n44</title>
<path fill="none" stroke="black" d="M306.65,-143.7C310.62,-135.98 315.38,-126.71 319.81,-118.11"/>
<polygon fill="black" stroke="black" points="322.8,-119.94 324.26,-109.45 316.58,-116.74 322.8,-119.94"/>
</g>
<!-- n47 -->
<g id="node42" class="node">
<title>n47</title>
<polygon fill="none" stroke="black" points="432.75,-108 378.75,-108 378.75,-72 432.75,-72 432.75,-108"/>
<text text-anchor="middle" x="405.75" y="-84.95" font-family="Times New Roman,serif" font-size="14.00">sa</text>
<text text-anchor="middle" x="360.38" y="-111.2" font-family="Times New Roman,serif" font-size="14.00">(47)int</text>
</g>
<!-- n49&#45;&gt;n47 -->
<g id="edge41" class="edge">
<title>n49&#45;&gt;n47</title>
<path fill="none" stroke="black" d="M405.75,-143.7C405.75,-136.41 405.75,-127.73 405.75,-119.54"/>
<polygon fill="black" stroke="black" points="409.25,-119.62 405.75,-109.62 402.25,-119.62 409.25,-119.62"/>
</g>
<!-- n48 -->
<g id="node43" class="node">
<title>n48</title>
<polygon fill="none" stroke="black" points="504.75,-108 450.75,-108 450.75,-72 504.75,-72 504.75,-108"/>
<text text-anchor="middle" x="477.75" y="-84.95" font-family="Times New Roman,serif" font-size="14.00">sc</text>
<text text-anchor="middle" x="432.38" y="-111.2" font-family="Times New Roman,serif" font-size="14.00">(48)int</text>
</g>
<!-- n49&#45;&gt;n48 -->
<g id="edge42" class="edge">
<title>n49&#45;&gt;n48</title>
<path fill="none" stroke="black" d="M423.55,-143.7C432.03,-135.45 442.34,-125.43 451.68,-116.35"/>
<polygon fill="black" stroke="black" points="454.09,-118.88 458.82,-109.4 449.21,-113.86 454.09,-118.88"/>
</g>
<!-- n36 -->
<g id="node44" class="node">
<title>n36</title>
<polygon fill="none" stroke="black" points="90.75,-36 36.75,-36 36.75,0 90.75,0 90.75,-36"/>
<text text-anchor="middle" x="63.75" y="-12.95" font-family="Times New Roman,serif" font-size="14.00">sa</text>
<text text-anchor="middle" x="18.38" y="-39.2" font-family="Times New Roman,serif" font-size="14.00">(36)int</text>
</g>
<!-- n38&#45;&gt;n36 -->
<g id="edge43" class="edge">
<title>n38&#45;&gt;n36</title>
<path fill="none" stroke="black" d="M104.4,-71.7C98.19,-63.64 90.67,-53.89 83.79,-44.98"/>
<polygon fill="black" stroke="black" points="86.75,-43.08 77.87,-37.3 81.21,-47.36 86.75,-43.08"/>
</g>
<!-- n37 -->
<g id="node45" class="node">
<title>n37</title>
<polygon fill="none" stroke="black" points="162.75,-36 108.75,-36 108.75,0 162.75,0 162.75,-36"/>
<text text-anchor="middle" x="135.75" y="-12.95" font-family="Times New Roman,serif" font-size="14.00">sb</text>
<text text-anchor="middle" x="90.38" y="-39.2" font-family="Times New Roman,serif" font-size="14.00">(37)int</text>
</g>
<!-- n38&#45;&gt;n37 -->
<g id="edge44" class="edge">
<title>n38&#45;&gt;n37</title>
<path fill="none" stroke="black" d="M122.2,-71.7C124.1,-64.32 126.36,-55.52 128.49,-47.25"/>
<polygon fill="black" stroke="black" points="131.87,-48.13 130.97,-37.57 125.09,-46.38 131.87,-48.13"/>
</g>
<!-- n41 -->
<g id="node46" class="node">
<title>n41</title>
<polygon fill="none" stroke="black" points="270.75,-36 216.75,-36 216.75,0 270.75,0 270.75,-36"/>
<text text-anchor="middle" x="243.75" y="-12.95" font-family="Times New Roman,serif" font-size="14.00">sb</text>
<text text-anchor="middle" x="198.38" y="-39.2" font-family="Times New Roman,serif" font-size="14.00">(41)int</text>
</g>
<!-- n43&#45;&gt;n41 -->
<g id="edge45" class="edge">
<title>n43&#45;&gt;n41</title>
<path fill="none" stroke="black" d="M257.3,-71.7C255.4,-64.32 253.14,-55.52 251.01,-47.25"/>
<polygon fill="black" stroke="black" points="254.41,-46.38 248.53,-37.57 247.63,-48.13 254.41,-46.38"/>
</g>
<!-- n42 -->
<g id="node47" class="node">
<title>n42</title>
<polygon fill="none" stroke="black" points="342.75,-36 288.75,-36 288.75,0 342.75,0 342.75,-36"/>
<text text-anchor="middle" x="315.75" y="-12.95" font-family="Times New Roman,serif" font-size="14.00">sc</text>
<text text-anchor="middle" x="270.38" y="-39.2" font-family="Times New Roman,serif" font-size="14.00">(42)int</text>
</g>
<!-- n43&#45;&gt;n42 -->
<g id="edge46" class="edge">
<title>n43&#45;&gt;n42</title>
<path fill="none" stroke="black" d="M275.1,-71.7C281.31,-63.64 288.83,-53.89 295.71,-44.98"/>
<polygon fill="black" stroke="black" points="298.29,-47.36 301.63,-37.3 292.75,-43.08 298.29,-47.36"/>
</g>
</g>
</svg>
