<?xml version="1.0" encoding="UTF-8" standalone="no"?>
<!DOCTYPE svg PUBLIC "-//W3C//DTD SVG 1.1//EN"
 "http://www.w3.org/Graphics/SVG/1.1/DTD/svg11.dtd">
<!-- Generated by graphviz version 13.1.2 (20250808.2320)
 -->
<!-- Title: AST Pages: 1 -->
<svg width="722pt" height="709pt"
 viewBox="0.00 0.00 722.00 709.00" xmlns="http://www.w3.org/2000/svg" xmlns:xlink="http://www.w3.org/1999/xlink">
<g id="graph0" class="graph" transform="scale(1 1) rotate(0) translate(4 704.5)">
<title>AST</title>
<polygon fill="white" stroke="none" points="-4,4 -4,-704.5 718,-704.5 718,4 -4,4"/>
<!-- n31 -->
<g id="node1" class="node">
<title>n31</title>
<polygon fill="none" stroke="black" points="636.12,-684 395.88,-684 395.88,-648 636.12,-648 636.12,-684"/>
<text xml:space="preserve" text-anchor="middle" x="516" y="-660.95" font-family="Times New Roman,serif" font-size="14.00">ContextDecl: node(0) Context: node (30)</text>
<text xml:space="preserve" text-anchor="middle" x="384.62" y="-687.2" font-family="Times New Roman,serif" font-size="14.00">(31)</text>
</g>
<!-- n0 -->
<g id="node2" class="node">
<title>n0</title>
<polygon fill="none" stroke="black" points="484.88,-612 423.12,-612 423.12,-576 484.88,-576 484.88,-612"/>
<text xml:space="preserve" text-anchor="middle" x="454" y="-588.95" font-family="Times New Roman,serif" font-size="14.00">Triangle</text>
<text xml:space="preserve" text-anchor="middle" x="415.25" y="-615.2" font-family="Times New Roman,serif" font-size="14.00">(0)</text>
</g>
<!-- n31&#45;&gt;n0 -->
<g id="edge1" class="edge">
<title>n31&#45;&gt;n0</title>
<path fill="none" stroke="black" d="M500.67,-647.7C493.47,-639.56 484.72,-629.69 476.76,-620.7"/>
<polygon fill="black" stroke="black" points="479.4,-618.4 470.15,-613.24 474.16,-623.04 479.4,-618.4"/>
</g>
<!-- n30 -->
<g id="node3" class="node">
<title>n30</title>
<polygon fill="none" stroke="black" points="654.88,-612 503.12,-612 503.12,-576 654.88,-576 654.88,-612"/>
<text xml:space="preserve" text-anchor="middle" x="579" y="-588.95" font-family="Times New Roman,serif" font-size="14.00">EdgeErrorException inv:</text>
<text xml:space="preserve" text-anchor="middle" x="469.38" y="-615.2" font-family="Times New Roman,serif" font-size="14.00">(30)Boolean</text>
</g>
<!-- n31&#45;&gt;n30 -->
<g id="edge2" class="edge">
<title>n31&#45;&gt;n30</title>
<path fill="none" stroke="black" d="M531.57,-647.7C538.97,-639.47 547.97,-629.48 556.12,-620.42"/>
<polygon fill="black" stroke="black" points="558.51,-623 562.59,-613.23 553.3,-618.32 558.51,-623"/>
</g>
<!-- n29 -->
<g id="node4" class="node">
<title>n29</title>
<polygon fill="none" stroke="black" points="606,-540 552,-540 552,-504 606,-504 606,-540"/>
<text xml:space="preserve" text-anchor="middle" x="579" y="-516.95" font-family="Times New Roman,serif" font-size="14.00">and</text>
<text xml:space="preserve" text-anchor="middle" x="518.25" y="-543.2" font-family="Times New Roman,serif" font-size="14.00">(29)Boolean</text>
</g>
<!-- n30&#45;&gt;n29 -->
<g id="edge3" class="edge">
<title>n30&#45;&gt;n29</title>
<path fill="none" stroke="black" d="M579,-575.7C579,-568.41 579,-559.73 579,-551.54"/>
<polygon fill="black" stroke="black" points="582.5,-551.62 579,-541.62 575.5,-551.62 582.5,-551.62"/>
</g>
<!-- n25 -->
<g id="node5" class="node">
<title>n25</title>
<polygon fill="none" stroke="black" points="570,-468 516,-468 516,-432 570,-432 570,-468"/>
<text xml:space="preserve" text-anchor="middle" x="543" y="-444.95" font-family="Times New Roman,serif" font-size="14.00">and</text>
<text xml:space="preserve" text-anchor="middle" x="482.25" y="-471.2" font-family="Times New Roman,serif" font-size="14.00">(25)Boolean</text>
</g>
<!-- n29&#45;&gt;n25 -->
<g id="edge4" class="edge">
<title>n29&#45;&gt;n25</title>
<path fill="none" stroke="black" d="M570.1,-503.7C566.13,-495.98 561.37,-486.71 556.94,-478.11"/>
<polygon fill="black" stroke="black" points="560.17,-476.74 552.49,-469.45 553.95,-479.94 560.17,-476.74"/>
</g>
<!-- n28 -->
<g id="node6" class="node">
<title>n28</title>
<polygon fill="none" stroke="black" points="642,-468 588,-468 588,-432 642,-432 642,-468"/>
<text xml:space="preserve" text-anchor="middle" x="615" y="-444.95" font-family="Times New Roman,serif" font-size="14.00">&gt;</text>
<text xml:space="preserve" text-anchor="middle" x="554.25" y="-471.2" font-family="Times New Roman,serif" font-size="14.00">(28)Boolean</text>
</g>
<!-- n29&#45;&gt;n28 -->
<g id="edge5" class="edge">
<title>n29&#45;&gt;n28</title>
<path fill="none" stroke="black" d="M587.9,-503.7C591.87,-495.98 596.63,-486.71 601.06,-478.11"/>
<polygon fill="black" stroke="black" points="604.05,-479.94 605.51,-469.45 597.83,-476.74 604.05,-479.94"/>
</g>
<!-- n21 -->
<g id="node7" class="node">
<title>n21</title>
<polygon fill="none" stroke="black" points="498,-396 444,-396 444,-360 498,-360 498,-396"/>
<text xml:space="preserve" text-anchor="middle" x="471" y="-372.95" font-family="Times New Roman,serif" font-size="14.00">and</text>
<text xml:space="preserve" text-anchor="middle" x="410.25" y="-399.2" font-family="Times New Roman,serif" font-size="14.00">(21)Boolean</text>
</g>
<!-- n25&#45;&gt;n21 -->
<g id="edge6" class="edge">
<title>n25&#45;&gt;n21</title>
<path fill="none" stroke="black" d="M525.2,-431.7C516.72,-423.45 506.41,-413.43 497.07,-404.35"/>
<polygon fill="black" stroke="black" points="499.54,-401.86 489.93,-397.4 494.66,-406.88 499.54,-401.86"/>
</g>
<!-- n24 -->
<g id="node8" class="node">
<title>n24</title>
<polygon fill="none" stroke="black" points="570,-396 516,-396 516,-360 570,-360 570,-396"/>
<text xml:space="preserve" text-anchor="middle" x="543" y="-372.95" font-family="Times New Roman,serif" font-size="14.00">&gt;</text>
<text xml:space="preserve" text-anchor="middle" x="482.25" y="-399.2" font-family="Times New Roman,serif" font-size="14.00">(24)Boolean</text>
</g>
<!-- n25&#45;&gt;n24 -->
<g id="edge7" class="edge">
<title>n25&#45;&gt;n24</title>
<path fill="none" stroke="black" d="M543,-431.7C543,-424.41 543,-415.73 543,-407.54"/>
<polygon fill="black" stroke="black" points="546.5,-407.62 543,-397.62 539.5,-407.62 546.5,-407.62"/>
</g>
<!-- n26 -->
<g id="node9" class="node">
<title>n26</title>
<polygon fill="none" stroke="black" points="642,-396 588,-396 588,-360 642,-360 642,-396"/>
<text xml:space="preserve" text-anchor="middle" x="615" y="-372.95" font-family="Times New Roman,serif" font-size="14.00">sideC</text>
<text xml:space="preserve" text-anchor="middle" x="569.62" y="-399.2" font-family="Times New Roman,serif" font-size="14.00">(26)int</text>
</g>
<!-- n28&#45;&gt;n26 -->
<g id="edge8" class="edge">
<title>n28&#45;&gt;n26</title>
<path fill="none" stroke="black" d="M615,-431.7C615,-424.41 615,-415.73 615,-407.54"/>
<polygon fill="black" stroke="black" points="618.5,-407.62 615,-397.62 611.5,-407.62 618.5,-407.62"/>
</g>
<!-- n27 -->
<g id="node10" class="node">
<title>n27</title>
<polygon fill="none" stroke="black" points="714,-396 660,-396 660,-360 714,-360 714,-396"/>
<text xml:space="preserve" text-anchor="middle" x="687" y="-372.95" font-family="Times New Roman,serif" font-size="14.00">0</text>
<text xml:space="preserve" text-anchor="middle" x="641.62" y="-399.2" font-family="Times New Roman,serif" font-size="14.00">(27)int</text>
</g>
<!-- n28&#45;&gt;n27 -->
<g id="edge9" class="edge">
<title>n28&#45;&gt;n27</title>
<path fill="none" stroke="black" d="M632.8,-431.7C641.28,-423.45 651.59,-413.43 660.93,-404.35"/>
<polygon fill="black" stroke="black" points="663.34,-406.88 668.07,-397.4 658.46,-401.86 663.34,-406.88"/>
</g>
<!-- n17 -->
<g id="node11" class="node">
<title>n17</title>
<polygon fill="none" stroke="black" points="426,-324 372,-324 372,-288 426,-288 426,-324"/>
<text xml:space="preserve" text-anchor="middle" x="399" y="-300.95" font-family="Times New Roman,serif" font-size="14.00">and</text>
<text xml:space="preserve" text-anchor="middle" x="338.25" y="-327.2" font-family="Times New Roman,serif" font-size="14.00">(17)Boolean</text>
</g>
<!-- n21&#45;&gt;n17 -->
<g id="edge10" class="edge">
<title>n21&#45;&gt;n17</title>
<path fill="none" stroke="black" d="M453.2,-359.7C444.72,-351.45 434.41,-341.43 425.07,-332.35"/>
<polygon fill="black" stroke="black" points="427.54,-329.86 417.93,-325.4 422.66,-334.88 427.54,-329.86"/>
</g>
<!-- n20 -->
<g id="node12" class="node">
<title>n20</title>
<polygon fill="none" stroke="black" points="498,-324 444,-324 444,-288 498,-288 498,-324"/>
<text xml:space="preserve" text-anchor="middle" x="471" y="-300.95" font-family="Times New Roman,serif" font-size="14.00">&gt;</text>
<text xml:space="preserve" text-anchor="middle" x="410.25" y="-327.2" font-family="Times New Roman,serif" font-size="14.00">(20)Boolean</text>
</g>
<!-- n21&#45;&gt;n20 -->
<g id="edge11" class="edge">
<title>n21&#45;&gt;n20</title>
<path fill="none" stroke="black" d="M471,-359.7C471,-352.41 471,-343.73 471,-335.54"/>
<polygon fill="black" stroke="black" points="474.5,-335.62 471,-325.62 467.5,-335.62 474.5,-335.62"/>
</g>
<!-- n22 -->
<g id="node13" class="node">
<title>n22</title>
<polygon fill="none" stroke="black" points="570,-324 516,-324 516,-288 570,-288 570,-324"/>
<text xml:space="preserve" text-anchor="middle" x="543" y="-300.95" font-family="Times New Roman,serif" font-size="14.00">sideB</text>
<text xml:space="preserve" text-anchor="middle" x="497.62" y="-327.2" font-family="Times New Roman,serif" font-size="14.00">(22)int</text>
</g>
<!-- n24&#45;&gt;n22 -->
<g id="edge12" class="edge">
<title>n24&#45;&gt;n22</title>
<path fill="none" stroke="black" d="M543,-359.7C543,-352.41 543,-343.73 543,-335.54"/>
<polygon fill="black" stroke="black" points="546.5,-335.62 543,-325.62 539.5,-335.62 546.5,-335.62"/>
</g>
<!-- n23 -->
<g id="node14" class="node">
<title>n23</title>
<polygon fill="none" stroke="black" points="642,-324 588,-324 588,-288 642,-288 642,-324"/>
<text xml:space="preserve" text-anchor="middle" x="615" y="-300.95" font-family="Times New Roman,serif" font-size="14.00">0</text>
<text xml:space="preserve" text-anchor="middle" x="569.62" y="-327.2" font-family="Times New Roman,serif" font-size="14.00">(23)int</text>
</g>
<!-- n24&#45;&gt;n23 -->
<g id="edge13" class="edge">
<title>n24&#45;&gt;n23</title>
<path fill="none" stroke="black" d="M560.8,-359.7C569.28,-351.45 579.59,-341.43 588.93,-332.35"/>
<polygon fill="black" stroke="black" points="591.34,-334.88 596.07,-325.4 586.46,-329.86 591.34,-334.88"/>
</g>
<!-- n11 -->
<g id="node15" class="node">
<title>n11</title>
<polygon fill="none" stroke="black" points="318,-252 264,-252 264,-216 318,-216 318,-252"/>
<text xml:space="preserve" text-anchor="middle" x="291" y="-228.95" font-family="Times New Roman,serif" font-size="14.00">and</text>
<text xml:space="preserve" text-anchor="middle" x="230.25" y="-255.2" font-family="Times New Roman,serif" font-size="14.00">(11)Boolean</text>
</g>
<!-- n17&#45;&gt;n11 -->
<g id="edge14" class="edge">
<title>n17&#45;&gt;n11</title>
<path fill="none" stroke="black" d="M372.03,-287.52C358.39,-278.68 341.66,-267.84 326.95,-258.3"/>
<polygon fill="black" stroke="black" points="329.2,-255.59 318.9,-253.08 325.39,-261.46 329.2,-255.59"/>
</g>
<!-- n16 -->
<g id="node16" class="node">
<title>n16</title>
<polygon fill="none" stroke="black" points="426,-252 372,-252 372,-216 426,-216 426,-252"/>
<text xml:space="preserve" text-anchor="middle" x="399" y="-228.95" font-family="Times New Roman,serif" font-size="14.00">&gt;</text>
<text xml:space="preserve" text-anchor="middle" x="338.25" y="-255.2" font-family="Times New Roman,serif" font-size="14.00">(16)Boolean</text>
</g>
<!-- n17&#45;&gt;n16 -->
<g id="edge15" class="edge">
<title>n17&#45;&gt;n16</title>
<path fill="none" stroke="black" d="M399,-287.7C399,-280.41 399,-271.73 399,-263.54"/>
<polygon fill="black" stroke="black" points="402.5,-263.62 399,-253.62 395.5,-263.62 402.5,-263.62"/>
</g>
<!-- n18 -->
<g id="node17" class="node">
<title>n18</title>
<polygon fill="none" stroke="black" points="498,-252 444,-252 444,-216 498,-216 498,-252"/>
<text xml:space="preserve" text-anchor="middle" x="471" y="-228.95" font-family="Times New Roman,serif" font-size="14.00">sideA</text>
<text xml:space="preserve" text-anchor="middle" x="425.62" y="-255.2" font-family="Times New Roman,serif" font-size="14.00">(18)int</text>
</g>
<!-- n20&#45;&gt;n18 -->
<g id="edge16" class="edge">
<title>n20&#45;&gt;n18</title>
<path fill="none" stroke="black" d="M471,-287.7C471,-280.41 471,-271.73 471,-263.54"/>
<polygon fill="black" stroke="black" points="474.5,-263.62 471,-253.62 467.5,-263.62 474.5,-263.62"/>
</g>
<!-- n19 -->
<g id="node18" class="node">
<title>n19</title>
<polygon fill="none" stroke="black" points="570,-252 516,-252 516,-216 570,-216 570,-252"/>
<text xml:space="preserve" text-anchor="middle" x="543" y="-228.95" font-family="Times New Roman,serif" font-size="14.00">0</text>
<text xml:space="preserve" text-anchor="middle" x="497.62" y="-255.2" font-family="Times New Roman,serif" font-size="14.00">(19)int</text>
</g>
<!-- n20&#45;&gt;n19 -->
<g id="edge17" class="edge">
<title>n20&#45;&gt;n19</title>
<path fill="none" stroke="black" d="M488.8,-287.7C497.28,-279.45 507.59,-269.43 516.93,-260.35"/>
<polygon fill="black" stroke="black" points="519.34,-262.88 524.07,-253.4 514.46,-257.86 519.34,-262.88"/>
</g>
<!-- n5 -->
<g id="node19" class="node">
<title>n5</title>
<polygon fill="none" stroke="black" points="210,-180 156,-180 156,-144 210,-144 210,-180"/>
<text xml:space="preserve" text-anchor="middle" x="183" y="-156.95" font-family="Times New Roman,serif" font-size="14.00">&gt;</text>
<text xml:space="preserve" text-anchor="middle" x="125.62" y="-183.2" font-family="Times New Roman,serif" font-size="14.00">(5)Boolean</text>
</g>
<!-- n11&#45;&gt;n5 -->
<g id="edge18" class="edge">
<title>n11&#45;&gt;n5</title>
<path fill="none" stroke="black" d="M264.03,-215.52C250.39,-206.68 233.66,-195.84 218.95,-186.3"/>
<polygon fill="black" stroke="black" points="221.2,-183.59 210.9,-181.08 217.39,-189.46 221.2,-183.59"/>
</g>
<!-- n10 -->
<g id="node20" class="node">
<title>n10</title>
<polygon fill="none" stroke="black" points="318,-180 264,-180 264,-144 318,-144 318,-180"/>
<text xml:space="preserve" text-anchor="middle" x="291" y="-156.95" font-family="Times New Roman,serif" font-size="14.00">&gt;</text>
<text xml:space="preserve" text-anchor="middle" x="230.25" y="-183.2" font-family="Times New Roman,serif" font-size="14.00">(10)Boolean</text>
</g>
<!-- n11&#45;&gt;n10 -->
<g id="edge19" class="edge">
<title>n11&#45;&gt;n10</title>
<path fill="none" stroke="black" d="M291,-215.7C291,-208.41 291,-199.73 291,-191.54"/>
<polygon fill="black" stroke="black" points="294.5,-191.62 291,-181.62 287.5,-191.62 294.5,-191.62"/>
</g>
<!-- n14 -->
<g id="node21" class="node">
<title>n14</title>
<polygon fill="none" stroke="black" points="426,-180 372,-180 372,-144 426,-144 426,-180"/>
<text xml:space="preserve" text-anchor="middle" x="399" y="-156.95" font-family="Times New Roman,serif" font-size="14.00">+</text>
<text xml:space="preserve" text-anchor="middle" x="353.62" y="-183.2" font-family="Times New Roman,serif" font-size="14.00">(14)int</text>
</g>
<!-- n16&#45;&gt;n14 -->
<g id="edge20" class="edge">
<title>n16&#45;&gt;n14</title>
<path fill="none" stroke="black" d="M399,-215.7C399,-208.41 399,-199.73 399,-191.54"/>
<polygon fill="black" stroke="black" points="402.5,-191.62 399,-181.62 395.5,-191.62 402.5,-191.62"/>
</g>
<!-- n15 -->
<g id="node22" class="node">
<title>n15</title>
<polygon fill="none" stroke="black" points="498,-180 444,-180 444,-144 498,-144 498,-180"/>
<text xml:space="preserve" text-anchor="middle" x="471" y="-156.95" font-family="Times New Roman,serif" font-size="14.00">sideB</text>
<text xml:space="preserve" text-anchor="middle" x="425.62" y="-183.2" font-family="Times New Roman,serif" font-size="14.00">(15)int</text>
</g>
<!-- n16&#45;&gt;n15 -->
<g id="edge21" class="edge">
<title>n16&#45;&gt;n15</title>
<path fill="none" stroke="black" d="M416.8,-215.7C425.28,-207.45 435.59,-197.43 444.93,-188.35"/>
<polygon fill="black" stroke="black" points="447.34,-190.88 452.07,-181.4 442.46,-185.86 447.34,-190.88"/>
</g>
<!-- n3 -->
<g id="node23" class="node">
<title>n3</title>
<polygon fill="none" stroke="black" points="138,-108 84,-108 84,-72 138,-72 138,-108"/>
<text xml:space="preserve" text-anchor="middle" x="111" y="-84.95" font-family="Times New Roman,serif" font-size="14.00">+</text>
<text xml:space="preserve" text-anchor="middle" x="69" y="-111.2" font-family="Times New Roman,serif" font-size="14.00">(3)int</text>
</g>
<!-- n5&#45;&gt;n3 -->
<g id="edge22" class="edge">
<title>n5&#45;&gt;n3</title>
<path fill="none" stroke="black" d="M165.2,-143.7C156.72,-135.45 146.41,-125.43 137.07,-116.35"/>
<polygon fill="black" stroke="black" points="139.54,-113.86 129.93,-109.4 134.66,-118.88 139.54,-113.86"/>
</g>
<!-- n4 -->
<g id="node24" class="node">
<title>n4</title>
<polygon fill="none" stroke="black" points="210,-108 156,-108 156,-72 210,-72 210,-108"/>
<text xml:space="preserve" text-anchor="middle" x="183" y="-84.95" font-family="Times New Roman,serif" font-size="14.00">sideC</text>
<text xml:space="preserve" text-anchor="middle" x="141" y="-111.2" font-family="Times New Roman,serif" font-size="14.00">(4)int</text>
</g>
<!-- n5&#45;&gt;n4 -->
<g id="edge23" class="edge">
<title>n5&#45;&gt;n4</title>
<path fill="none" stroke="black" d="M183,-143.7C183,-136.41 183,-127.73 183,-119.54"/>
<polygon fill="black" stroke="black" points="186.5,-119.62 183,-109.62 179.5,-119.62 186.5,-119.62"/>
</g>
<!-- n8 -->
<g id="node25" class="node">
<title>n8</title>
<polygon fill="none" stroke="black" points="282,-108 228,-108 228,-72 282,-72 282,-108"/>
<text xml:space="preserve" text-anchor="middle" x="255" y="-84.95" font-family="Times New Roman,serif" font-size="14.00">+</text>
<text xml:space="preserve" text-anchor="middle" x="213" y="-111.2" font-family="Times New Roman,serif" font-size="14.00">(8)int</text>
</g>
<!-- n10&#45;&gt;n8 -->
<g id="edge24" class="edge">
<title>n10&#45;&gt;n8</title>
<path fill="none" stroke="black" d="M282.1,-143.7C278.13,-135.98 273.37,-126.71 268.94,-118.11"/>
<polygon fill="black" stroke="black" points="272.17,-116.74 264.49,-109.45 265.95,-119.94 272.17,-116.74"/>
</g>
<!-- n9 -->
<g id="node26" class="node">
<title>n9</title>
<polygon fill="none" stroke="black" points="354,-108 300,-108 300,-72 354,-72 354,-108"/>
<text xml:space="preserve" text-anchor="middle" x="327" y="-84.95" font-family="Times New Roman,serif" font-size="14.00">sideA</text>
<text xml:space="preserve" text-anchor="middle" x="285" y="-111.2" font-family="Times New Roman,serif" font-size="14.00">(9)int</text>
</g>
<!-- n10&#45;&gt;n9 -->
<g id="edge25" class="edge">
<title>n10&#45;&gt;n9</title>
<path fill="none" stroke="black" d="M299.9,-143.7C303.87,-135.98 308.63,-126.71 313.06,-118.11"/>
<polygon fill="black" stroke="black" points="316.05,-119.94 317.51,-109.45 309.83,-116.74 316.05,-119.94"/>
</g>
<!-- n12 -->
<g id="node27" class="node">
<title>n12</title>
<polygon fill="none" stroke="black" points="426,-108 372,-108 372,-72 426,-72 426,-108"/>
<text xml:space="preserve" text-anchor="middle" x="399" y="-84.95" font-family="Times New Roman,serif" font-size="14.00">sideA</text>
<text xml:space="preserve" text-anchor="middle" x="353.62" y="-111.2" font-family="Times New Roman,serif" font-size="14.00">(12)int</text>
</g>
<!-- n14&#45;&gt;n12 -->
<g id="edge26" class="edge">
<title>n14&#45;&gt;n12</title>
<path fill="none" stroke="black" d="M399,-143.7C399,-136.41 399,-127.73 399,-119.54"/>
<polygon fill="black" stroke="black" points="402.5,-119.62 399,-109.62 395.5,-119.62 402.5,-119.62"/>
</g>
<!-- n13 -->
<g id="node28" class="node">
<title>n13</title>
<polygon fill="none" stroke="black" points="498,-108 444,-108 444,-72 498,-72 498,-108"/>
<text xml:space="preserve" text-anchor="middle" x="471" y="-84.95" font-family="Times New Roman,serif" font-size="14.00">sideC</text>
<text xml:space="preserve" text-anchor="middle" x="425.62" y="-111.2" font-family="Times New Roman,serif" font-size="14.00">(13)int</text>
</g>
<!-- n14&#45;&gt;n13 -->
<g id="edge27" class="edge">
<title>n14&#45;&gt;n13</title>
<path fill="none" stroke="black" d="M416.8,-143.7C425.28,-135.45 435.59,-125.43 444.93,-116.35"/>
<polygon fill="black" stroke="black" points="447.34,-118.88 452.07,-109.4 442.46,-113.86 447.34,-118.88"/>
</g>
<!-- n1 -->
<g id="node29" class="node">
<title>n1</title>
<polygon fill="none" stroke="black" points="84,-36 30,-36 30,0 84,0 84,-36"/>
<text xml:space="preserve" text-anchor="middle" x="57" y="-12.95" font-family="Times New Roman,serif" font-size="14.00">sideA</text>
<text xml:space="preserve" text-anchor="middle" x="15" y="-39.2" font-family="Times New Roman,serif" font-size="14.00">(1)int</text>
</g>
<!-- n3&#45;&gt;n1 -->
<g id="edge28" class="edge">
<title>n3&#45;&gt;n1</title>
<path fill="none" stroke="black" d="M97.65,-71.7C91.44,-63.64 83.92,-53.89 77.04,-44.98"/>
<polygon fill="black" stroke="black" points="80,-43.08 71.12,-37.3 74.46,-47.36 80,-43.08"/>
</g>
<!-- n2 -->
<g id="node30" class="node">
<title>n2</title>
<polygon fill="none" stroke="black" points="156,-36 102,-36 102,0 156,0 156,-36"/>
<text xml:space="preserve" text-anchor="middle" x="129" y="-12.95" font-family="Times New Roman,serif" font-size="14.00">sideB</text>
<text xml:space="preserve" text-anchor="middle" x="87" y="-39.2" font-family="Times New Roman,serif" font-size="14.00">(2)int</text>
</g>
<!-- n3&#45;&gt;n2 -->
<g id="edge29" class="edge">
<title>n3&#45;&gt;n2</title>
<path fill="none" stroke="black" d="M115.45,-71.7C117.35,-64.32 119.61,-55.52 121.74,-47.25"/>
<polygon fill="black" stroke="black" points="125.12,-48.13 124.22,-37.57 118.34,-46.38 125.12,-48.13"/>
</g>
<!-- n6 -->
<g id="node31" class="node">
<title>n6</title>
<polygon fill="none" stroke="black" points="264,-36 210,-36 210,0 264,0 264,-36"/>
<text xml:space="preserve" text-anchor="middle" x="237" y="-12.95" font-family="Times New Roman,serif" font-size="14.00">sideB</text>
<text xml:space="preserve" text-anchor="middle" x="195" y="-39.2" font-family="Times New Roman,serif" font-size="14.00">(6)int</text>
</g>
<!-- n8&#45;&gt;n6 -->
<g id="edge30" class="edge">
<title>n8&#45;&gt;n6</title>
<path fill="none" stroke="black" d="M250.55,-71.7C248.65,-64.32 246.39,-55.52 244.26,-47.25"/>
<polygon fill="black" stroke="black" points="247.66,-46.38 241.78,-37.57 240.88,-48.13 247.66,-46.38"/>
</g>
<!-- n7 -->
<g id="node32" class="node">
<title>n7</title>
<polygon fill="none" stroke="black" points="336,-36 282,-36 282,0 336,0 336,-36"/>
<text xml:space="preserve" text-anchor="middle" x="309" y="-12.95" font-family="Times New Roman,serif" font-size="14.00">sideC</text>
<text xml:space="preserve" text-anchor="middle" x="267" y="-39.2" font-family="Times New Roman,serif" font-size="14.00">(7)int</text>
</g>
<!-- n8&#45;&gt;n7 -->
<g id="edge31" class="edge">
<title>n8&#45;&gt;n7</title>
<path fill="none" stroke="black" d="M268.35,-71.7C274.56,-63.64 282.08,-53.89 288.96,-44.98"/>
<polygon fill="black" stroke="black" points="291.54,-47.36 294.88,-37.3 286,-43.08 291.54,-47.36"/>
</g>
</g>
</svg>
