<?xml version="1.0" encoding="UTF-8" standalone="no"?>
<!DOCTYPE svg PUBLIC "-//W3C//DTD SVG 1.1//EN"
 "http://www.w3.org/Graphics/SVG/1.1/DTD/svg11.dtd">
<!-- Generated by graphviz version 13.1.2 (20250808.2320)
 -->
<!-- Title: AST Pages: 1 -->
<svg width="1230pt" height="493pt"
 viewBox="0.00 0.00 1230.00 493.00" xmlns="http://www.w3.org/2000/svg" xmlns:xlink="http://www.w3.org/1999/xlink">
<g id="graph0" class="graph" transform="scale(1 1) rotate(0) translate(4 488.5)">
<title>AST</title>
<polygon fill="white" stroke="none" points="-4,4 -4,-488.5 1225.75,-488.5 1225.75,4 -4,4"/>
<!-- n112 -->
<g id="node1" class="node">
<title>n112</title>
<polygon fill="none" stroke="black" points="415.62,-468 161.88,-468 161.88,-432 415.62,-432 415.62,-468"/>
<text xml:space="preserve" text-anchor="middle" x="288.75" y="-444.95" font-family="Times New Roman,serif" font-size="14.00">ContextDecl: node(79) Context: node (111)</text>
<text xml:space="preserve" text-anchor="middle" x="147.25" y="-471.2" font-family="Times New Roman,serif" font-size="14.00">(112)</text>
</g>
<!-- n79 -->
<g id="node2" class="node">
<title>n79</title>
<polygon fill="none" stroke="black" points="308.25,-396 139.25,-396 139.25,-360 308.25,-360 308.25,-396"/>
<text xml:space="preserve" text-anchor="middle" x="223.75" y="-372.95" font-family="Times New Roman,serif" font-size="14.00">Triangle::category() : String</text>
<text xml:space="preserve" text-anchor="middle" x="128" y="-399.2" font-family="Times New Roman,serif" font-size="14.00">(79)</text>
</g>
<!-- n112&#45;&gt;n79 -->
<g id="edge1" class="edge">
<title>n112&#45;&gt;n79</title>
<path fill="none" stroke="black" d="M272.68,-431.7C265.05,-423.47 255.77,-413.48 247.35,-404.42"/>
<polygon fill="black" stroke="black" points="250.03,-402.16 240.66,-397.21 244.9,-406.92 250.03,-402.16"/>
</g>
<!-- n111 -->
<g id="node3" class="node">
<title>n111</title>
<polygon fill="none" stroke="black" points="380.75,-396 326.75,-396 326.75,-360 380.75,-360 380.75,-396"/>
<text xml:space="preserve" text-anchor="middle" x="353.75" y="-372.95" font-family="Times New Roman,serif" font-size="14.00"> post:</text>
<text xml:space="preserve" text-anchor="middle" x="289.62" y="-399.2" font-family="Times New Roman,serif" font-size="14.00">(111)Boolean</text>
</g>
<!-- n112&#45;&gt;n111 -->
<g id="edge2" class="edge">
<title>n112&#45;&gt;n111</title>
<path fill="none" stroke="black" d="M304.82,-431.7C312.45,-423.47 321.73,-413.48 330.15,-404.42"/>
<polygon fill="black" stroke="black" points="332.6,-406.92 336.84,-397.21 327.47,-402.16 332.6,-406.92"/>
</g>
<!-- n110 -->
<g id="node4" class="node">
<title>n110</title>
<polygon fill="none" stroke="black" points="522.25,-324 185.25,-324 185.25,-288 522.25,-288 522.25,-324"/>
<text xml:space="preserve" text-anchor="middle" x="353.75" y="-300.95" font-family="Times New Roman,serif" font-size="14.00">IfExp ConditionNode:(82) thenNode: (92) elseNode: (109)</text>
<text xml:space="preserve" text-anchor="middle" x="148.12" y="-327.2" font-family="Times New Roman,serif" font-size="14.00">(110)Boolean</text>
</g>
<!-- n111&#45;&gt;n110 -->
<g id="edge3" class="edge">
<title>n111&#45;&gt;n110</title>
<path fill="none" stroke="black" d="M353.75,-359.7C353.75,-352.41 353.75,-343.73 353.75,-335.54"/>
<polygon fill="black" stroke="black" points="357.25,-335.62 353.75,-325.62 350.25,-335.62 357.25,-335.62"/>
</g>
<!-- n82 -->
<g id="node5" class="node">
<title>n82</title>
<polygon fill="none" stroke="black" points="162.75,-252 108.75,-252 108.75,-216 162.75,-216 162.75,-252"/>
<text xml:space="preserve" text-anchor="middle" x="135.75" y="-228.95" font-family="Times New Roman,serif" font-size="14.00">=</text>
<text xml:space="preserve" text-anchor="middle" x="75" y="-255.2" font-family="Times New Roman,serif" font-size="14.00">(82)Boolean</text>
</g>
<!-- n110&#45;&gt;n82 -->
<g id="edge4" class="edge">
<title>n110&#45;&gt;n82</title>
<path fill="none" stroke="black" d="M292.6,-287.56C259.09,-277.71 216.92,-264.82 179.75,-252 177.8,-251.33 175.81,-250.62 173.81,-249.9"/>
<polygon fill="black" stroke="black" points="175.11,-246.65 164.52,-246.45 172.67,-253.21 175.11,-246.65"/>
</g>
<!-- n92 -->
<g id="node6" class="node">
<title>n92</title>
<polygon fill="none" stroke="black" points="518.88,-252 188.62,-252 188.62,-216 518.88,-216 518.88,-252"/>
<text xml:space="preserve" text-anchor="middle" x="353.75" y="-228.95" font-family="Times New Roman,serif" font-size="14.00">IfExp ConditionNode:(85) thenNode: (88) elseNode: (91)</text>
<text xml:space="preserve" text-anchor="middle" x="154.88" y="-255.2" font-family="Times New Roman,serif" font-size="14.00">(92)Boolean</text>
</g>
<!-- n110&#45;&gt;n92 -->
<g id="edge5" class="edge">
<title>n110&#45;&gt;n92</title>
<path fill="none" stroke="black" d="M353.75,-287.7C353.75,-280.41 353.75,-271.73 353.75,-263.54"/>
<polygon fill="black" stroke="black" points="357.25,-263.62 353.75,-253.62 350.25,-263.62 357.25,-263.62"/>
</g>
<!-- n109 -->
<g id="node7" class="node">
<title>n109</title>
<polygon fill="none" stroke="black" points="893.25,-252 556.25,-252 556.25,-216 893.25,-216 893.25,-252"/>
<text xml:space="preserve" text-anchor="middle" x="724.75" y="-228.95" font-family="Times New Roman,serif" font-size="14.00">IfExp ConditionNode:(95) thenNode: (98) elseNode: (108)</text>
<text xml:space="preserve" text-anchor="middle" x="519.12" y="-255.2" font-family="Times New Roman,serif" font-size="14.00">(109)Boolean</text>
</g>
<!-- n110&#45;&gt;n109 -->
<g id="edge6" class="edge">
<title>n110&#45;&gt;n109</title>
<path fill="none" stroke="black" d="M446.41,-287.52C499.52,-277.5 566.31,-264.89 621.15,-254.55"/>
<polygon fill="black" stroke="black" points="621.64,-258.02 630.82,-252.72 620.34,-251.14 621.64,-258.02"/>
</g>
<!-- n80 -->
<g id="node8" class="node">
<title>n80</title>
<polygon fill="none" stroke="black" points="90.75,-180 36.75,-180 36.75,-144 90.75,-144 90.75,-180"/>
<text xml:space="preserve" text-anchor="middle" x="63.75" y="-156.95" font-family="Times New Roman,serif" font-size="14.00">sideA</text>
<text xml:space="preserve" text-anchor="middle" x="18.38" y="-183.2" font-family="Times New Roman,serif" font-size="14.00">(80)int</text>
</g>
<!-- n82&#45;&gt;n80 -->
<g id="edge7" class="edge">
<title>n82&#45;&gt;n80</title>
<path fill="none" stroke="black" d="M117.95,-215.7C109.47,-207.45 99.16,-197.43 89.82,-188.35"/>
<polygon fill="black" stroke="black" points="92.29,-185.86 82.68,-181.4 87.41,-190.88 92.29,-185.86"/>
</g>
<!-- n81 -->
<g id="node9" class="node">
<title>n81</title>
<polygon fill="none" stroke="black" points="162.75,-180 108.75,-180 108.75,-144 162.75,-144 162.75,-180"/>
<text xml:space="preserve" text-anchor="middle" x="135.75" y="-156.95" font-family="Times New Roman,serif" font-size="14.00">sideB</text>
<text xml:space="preserve" text-anchor="middle" x="90.38" y="-183.2" font-family="Times New Roman,serif" font-size="14.00">(81)int</text>
</g>
<!-- n82&#45;&gt;n81 -->
<g id="edge8" class="edge">
<title>n82&#45;&gt;n81</title>
<path fill="none" stroke="black" d="M135.75,-215.7C135.75,-208.41 135.75,-199.73 135.75,-191.54"/>
<polygon fill="black" stroke="black" points="139.25,-191.62 135.75,-181.62 132.25,-191.62 139.25,-191.62"/>
</g>
<!-- n85 -->
<g id="node10" class="node">
<title>n85</title>
<polygon fill="none" stroke="black" points="234.75,-180 180.75,-180 180.75,-144 234.75,-144 234.75,-180"/>
<text xml:space="preserve" text-anchor="middle" x="207.75" y="-156.95" font-family="Times New Roman,serif" font-size="14.00">=</text>
<text xml:space="preserve" text-anchor="middle" x="147" y="-183.2" font-family="Times New Roman,serif" font-size="14.00">(85)Boolean</text>
</g>
<!-- n92&#45;&gt;n85 -->
<g id="edge9" class="edge">
<title>n92&#45;&gt;n85</title>
<path fill="none" stroke="black" d="M317.28,-215.52C295.36,-205.01 267.52,-191.66 245.39,-181.05"/>
<polygon fill="black" stroke="black" points="246.94,-177.91 236.41,-176.74 243.91,-184.22 246.94,-177.91"/>
</g>
<!-- n88 -->
<g id="node11" class="node">
<title>n88</title>
<polygon fill="none" stroke="black" points="380.75,-180 326.75,-180 326.75,-144 380.75,-144 380.75,-180"/>
<text xml:space="preserve" text-anchor="middle" x="353.75" y="-156.95" font-family="Times New Roman,serif" font-size="14.00">=</text>
<text xml:space="preserve" text-anchor="middle" x="293" y="-183.2" font-family="Times New Roman,serif" font-size="14.00">(88)Boolean</text>
</g>
<!-- n92&#45;&gt;n88 -->
<g id="edge10" class="edge">
<title>n92&#45;&gt;n88</title>
<path fill="none" stroke="black" d="M353.75,-215.7C353.75,-208.41 353.75,-199.73 353.75,-191.54"/>
<polygon fill="black" stroke="black" points="357.25,-191.62 353.75,-181.62 350.25,-191.62 357.25,-191.62"/>
</g>
<!-- n91 -->
<g id="node12" class="node">
<title>n91</title>
<polygon fill="none" stroke="black" points="467.75,-180 413.75,-180 413.75,-144 467.75,-144 467.75,-180"/>
<text xml:space="preserve" text-anchor="middle" x="440.75" y="-156.95" font-family="Times New Roman,serif" font-size="14.00">=</text>
<text xml:space="preserve" text-anchor="middle" x="380" y="-183.2" font-family="Times New Roman,serif" font-size="14.00">(91)Boolean</text>
</g>
<!-- n92&#45;&gt;n91 -->
<g id="edge11" class="edge">
<title>n92&#45;&gt;n91</title>
<path fill="none" stroke="black" d="M375.26,-215.7C385.82,-207.2 398.73,-196.81 410.28,-187.51"/>
<polygon fill="black" stroke="black" points="412.41,-190.29 418.01,-181.3 408.03,-184.84 412.41,-190.29"/>
</g>
<!-- n95 -->
<g id="node13" class="node">
<title>n95</title>
<polygon fill="none" stroke="black" points="693.75,-180 639.75,-180 639.75,-144 693.75,-144 693.75,-180"/>
<text xml:space="preserve" text-anchor="middle" x="666.75" y="-156.95" font-family="Times New Roman,serif" font-size="14.00">=</text>
<text xml:space="preserve" text-anchor="middle" x="606" y="-183.2" font-family="Times New Roman,serif" font-size="14.00">(95)Boolean</text>
</g>
<!-- n109&#45;&gt;n95 -->
<g id="edge12" class="edge">
<title>n109&#45;&gt;n95</title>
<path fill="none" stroke="black" d="M710.41,-215.7C703.67,-207.56 695.49,-197.69 688.05,-188.7"/>
<polygon fill="black" stroke="black" points="690.96,-186.74 681.89,-181.27 685.57,-191.2 690.96,-186.74"/>
</g>
<!-- n98 -->
<g id="node14" class="node">
<title>n98</title>
<polygon fill="none" stroke="black" points="765.75,-180 711.75,-180 711.75,-144 765.75,-144 765.75,-180"/>
<text xml:space="preserve" text-anchor="middle" x="738.75" y="-156.95" font-family="Times New Roman,serif" font-size="14.00">=</text>
<text xml:space="preserve" text-anchor="middle" x="678" y="-183.2" font-family="Times New Roman,serif" font-size="14.00">(98)Boolean</text>
</g>
<!-- n109&#45;&gt;n98 -->
<g id="edge13" class="edge">
<title>n109&#45;&gt;n98</title>
<path fill="none" stroke="black" d="M728.21,-215.7C729.69,-208.32 731.45,-199.52 733.1,-191.25"/>
<polygon fill="black" stroke="black" points="736.5,-192.08 735.03,-181.59 729.64,-190.71 736.5,-192.08"/>
</g>
<!-- n108 -->
<g id="node15" class="node">
<title>n108</title>
<polygon fill="none" stroke="black" points="1137,-180 786.5,-180 786.5,-144 1137,-144 1137,-180"/>
<text xml:space="preserve" text-anchor="middle" x="961.75" y="-156.95" font-family="Times New Roman,serif" font-size="14.00">IfExp ConditionNode:(101) thenNode: (104) elseNode: (107)</text>
<text xml:space="preserve" text-anchor="middle" x="749.38" y="-183.2" font-family="Times New Roman,serif" font-size="14.00">(108)Boolean</text>
</g>
<!-- n109&#45;&gt;n108 -->
<g id="edge14" class="edge">
<title>n109&#45;&gt;n108</title>
<path fill="none" stroke="black" d="M783.94,-215.52C816.73,-205.83 857.67,-193.74 892,-183.6"/>
<polygon fill="black" stroke="black" points="892.85,-187 901.45,-180.81 890.87,-180.29 892.85,-187"/>
</g>
<!-- n83 -->
<g id="node16" class="node">
<title>n83</title>
<polygon fill="none" stroke="black" points="157.75,-108 103.75,-108 103.75,-72 157.75,-72 157.75,-108"/>
<text xml:space="preserve" text-anchor="middle" x="130.75" y="-84.95" font-family="Times New Roman,serif" font-size="14.00">sideB</text>
<text xml:space="preserve" text-anchor="middle" x="85.38" y="-111.2" font-family="Times New Roman,serif" font-size="14.00">(83)int</text>
</g>
<!-- n85&#45;&gt;n83 -->
<g id="edge15" class="edge">
<title>n85&#45;&gt;n83</title>
<path fill="none" stroke="black" d="M188.72,-143.7C179.55,-135.37 168.4,-125.22 158.32,-116.07"/>
<polygon fill="black" stroke="black" points="160.71,-113.5 150.95,-109.37 156,-118.68 160.71,-113.5"/>
</g>
<!-- n84 -->
<g id="node17" class="node">
<title>n84</title>
<polygon fill="none" stroke="black" points="229.75,-108 175.75,-108 175.75,-72 229.75,-72 229.75,-108"/>
<text xml:space="preserve" text-anchor="middle" x="202.75" y="-84.95" font-family="Times New Roman,serif" font-size="14.00">sideC</text>
<text xml:space="preserve" text-anchor="middle" x="157.38" y="-111.2" font-family="Times New Roman,serif" font-size="14.00">(84)int</text>
</g>
<!-- n85&#45;&gt;n84 -->
<g id="edge16" class="edge">
<title>n85&#45;&gt;n84</title>
<path fill="none" stroke="black" d="M206.51,-143.7C205.99,-136.41 205.37,-127.73 204.79,-119.54"/>
<polygon fill="black" stroke="black" points="208.28,-119.34 204.08,-109.61 201.3,-119.84 208.28,-119.34"/>
</g>
<!-- n86 -->
<g id="node18" class="node">
<title>n86</title>
<polygon fill="none" stroke="black" points="301.75,-108 247.75,-108 247.75,-72 301.75,-72 301.75,-108"/>
<text xml:space="preserve" text-anchor="middle" x="274.75" y="-84.95" font-family="Times New Roman,serif" font-size="14.00">result</text>
<text xml:space="preserve" text-anchor="middle" x="220" y="-111.2" font-family="Times New Roman,serif" font-size="14.00">(86)String</text>
</g>
<!-- n88&#45;&gt;n86 -->
<g id="edge17" class="edge">
<title>n88&#45;&gt;n86</title>
<path fill="none" stroke="black" d="M334.22,-143.7C324.73,-135.28 313.14,-125.02 302.73,-115.79"/>
<polygon fill="black" stroke="black" points="305.27,-113.36 295.46,-109.35 300.62,-118.6 305.27,-113.36"/>
</g>
<!-- n87 -->
<g id="node19" class="node">
<title>n87</title>
<polygon fill="none" stroke="black" points="395.38,-108 320.12,-108 320.12,-72 395.38,-72 395.38,-108"/>
<text xml:space="preserve" text-anchor="middle" x="357.75" y="-84.95" font-family="Times New Roman,serif" font-size="14.00">Equilateral</text>
<text xml:space="preserve" text-anchor="middle" x="292.38" y="-111.2" font-family="Times New Roman,serif" font-size="14.00">(87)String</text>
</g>
<!-- n88&#45;&gt;n87 -->
<g id="edge18" class="edge">
<title>n88&#45;&gt;n87</title>
<path fill="none" stroke="black" d="M354.74,-143.7C355.16,-136.41 355.65,-127.73 356.12,-119.54"/>
<polygon fill="black" stroke="black" points="359.61,-119.8 356.69,-109.62 352.62,-119.4 359.61,-119.8"/>
</g>
<!-- n89 -->
<g id="node20" class="node">
<title>n89</title>
<polygon fill="none" stroke="black" points="467.75,-108 413.75,-108 413.75,-72 467.75,-72 467.75,-108"/>
<text xml:space="preserve" text-anchor="middle" x="440.75" y="-84.95" font-family="Times New Roman,serif" font-size="14.00">result</text>
<text xml:space="preserve" text-anchor="middle" x="386" y="-111.2" font-family="Times New Roman,serif" font-size="14.00">(89)String</text>
</g>
<!-- n91&#45;&gt;n89 -->
<g id="edge19" class="edge">
<title>n91&#45;&gt;n89</title>
<path fill="none" stroke="black" d="M440.75,-143.7C440.75,-136.41 440.75,-127.73 440.75,-119.54"/>
<polygon fill="black" stroke="black" points="444.25,-119.62 440.75,-109.62 437.25,-119.62 444.25,-119.62"/>
</g>
<!-- n90 -->
<g id="node21" class="node">
<title>n90</title>
<polygon fill="none" stroke="black" points="550.12,-108 485.38,-108 485.38,-72 550.12,-72 550.12,-108"/>
<text xml:space="preserve" text-anchor="middle" x="517.75" y="-84.95" font-family="Times New Roman,serif" font-size="14.00">Isosceles</text>
<text xml:space="preserve" text-anchor="middle" x="457.62" y="-111.2" font-family="Times New Roman,serif" font-size="14.00">(90)String</text>
</g>
<!-- n91&#45;&gt;n90 -->
<g id="edge20" class="edge">
<title>n91&#45;&gt;n90</title>
<path fill="none" stroke="black" d="M459.78,-143.7C468.95,-135.37 480.1,-125.22 490.18,-116.07"/>
<polygon fill="black" stroke="black" points="492.5,-118.68 497.55,-109.37 487.79,-113.5 492.5,-118.68"/>
</g>
<!-- n93 -->
<g id="node22" class="node">
<title>n93</title>
<polygon fill="none" stroke="black" points="621.75,-108 567.75,-108 567.75,-72 621.75,-72 621.75,-108"/>
<text xml:space="preserve" text-anchor="middle" x="594.75" y="-84.95" font-family="Times New Roman,serif" font-size="14.00">sideA</text>
<text xml:space="preserve" text-anchor="middle" x="549.38" y="-111.2" font-family="Times New Roman,serif" font-size="14.00">(93)int</text>
</g>
<!-- n95&#45;&gt;n93 -->
<g id="edge21" class="edge">
<title>n95&#45;&gt;n93</title>
<path fill="none" stroke="black" d="M648.95,-143.7C640.47,-135.45 630.16,-125.43 620.82,-116.35"/>
<polygon fill="black" stroke="black" points="623.29,-113.86 613.68,-109.4 618.41,-118.88 623.29,-113.86"/>
</g>
<!-- n94 -->
<g id="node23" class="node">
<title>n94</title>
<polygon fill="none" stroke="black" points="693.75,-108 639.75,-108 639.75,-72 693.75,-72 693.75,-108"/>
<text xml:space="preserve" text-anchor="middle" x="666.75" y="-84.95" font-family="Times New Roman,serif" font-size="14.00">sideC</text>
<text xml:space="preserve" text-anchor="middle" x="621.38" y="-111.2" font-family="Times New Roman,serif" font-size="14.00">(94)int</text>
</g>
<!-- n95&#45;&gt;n94 -->
<g id="edge22" class="edge">
<title>n95&#45;&gt;n94</title>
<path fill="none" stroke="black" d="M666.75,-143.7C666.75,-136.41 666.75,-127.73 666.75,-119.54"/>
<polygon fill="black" stroke="black" points="670.25,-119.62 666.75,-109.62 663.25,-119.62 670.25,-119.62"/>
</g>
<!-- n96 -->
<g id="node24" class="node">
<title>n96</title>
<polygon fill="none" stroke="black" points="765.75,-108 711.75,-108 711.75,-72 765.75,-72 765.75,-108"/>
<text xml:space="preserve" text-anchor="middle" x="738.75" y="-84.95" font-family="Times New Roman,serif" font-size="14.00">result</text>
<text xml:space="preserve" text-anchor="middle" x="684" y="-111.2" font-family="Times New Roman,serif" font-size="14.00">(96)String</text>
</g>
<!-- n98&#45;&gt;n96 -->
<g id="edge23" class="edge">
<title>n98&#45;&gt;n96</title>
<path fill="none" stroke="black" d="M738.75,-143.7C738.75,-136.41 738.75,-127.73 738.75,-119.54"/>
<polygon fill="black" stroke="black" points="742.25,-119.62 738.75,-109.62 735.25,-119.62 742.25,-119.62"/>
</g>
<!-- n97 -->
<g id="node25" class="node">
<title>n97</title>
<polygon fill="none" stroke="black" points="848.12,-108 783.38,-108 783.38,-72 848.12,-72 848.12,-108"/>
<text xml:space="preserve" text-anchor="middle" x="815.75" y="-84.95" font-family="Times New Roman,serif" font-size="14.00">Isosceles</text>
<text xml:space="preserve" text-anchor="middle" x="755.62" y="-111.2" font-family="Times New Roman,serif" font-size="14.00">(97)String</text>
</g>
<!-- n98&#45;&gt;n97 -->
<g id="edge24" class="edge">
<title>n98&#45;&gt;n97</title>
<path fill="none" stroke="black" d="M757.78,-143.7C766.95,-135.37 778.1,-125.22 788.18,-116.07"/>
<polygon fill="black" stroke="black" points="790.5,-118.68 795.55,-109.37 785.79,-113.5 790.5,-118.68"/>
</g>
<!-- n101 -->
<g id="node26" class="node">
<title>n101</title>
<polygon fill="none" stroke="black" points="919.75,-108 865.75,-108 865.75,-72 919.75,-72 919.75,-108"/>
<text xml:space="preserve" text-anchor="middle" x="892.75" y="-84.95" font-family="Times New Roman,serif" font-size="14.00">=</text>
<text xml:space="preserve" text-anchor="middle" x="828.62" y="-111.2" font-family="Times New Roman,serif" font-size="14.00">(101)Boolean</text>
</g>
<!-- n108&#45;&gt;n101 -->
<g id="edge25" class="edge">
<title>n108&#45;&gt;n101</title>
<path fill="none" stroke="black" d="M944.69,-143.7C936.51,-135.39 926.54,-125.28 917.53,-116.14"/>
<polygon fill="black" stroke="black" points="920.19,-113.85 910.67,-109.18 915.2,-118.76 920.19,-113.85"/>
</g>
<!-- n104 -->
<g id="node27" class="node">
<title>n104</title>
<polygon fill="none" stroke="black" points="991.75,-108 937.75,-108 937.75,-72 991.75,-72 991.75,-108"/>
<text xml:space="preserve" text-anchor="middle" x="964.75" y="-84.95" font-family="Times New Roman,serif" font-size="14.00">=</text>
<text xml:space="preserve" text-anchor="middle" x="900.62" y="-58.7" font-family="Times New Roman,serif" font-size="14.00">(104)Boolean</text>
</g>
<!-- n108&#45;&gt;n104 -->
<g id="edge26" class="edge">
<title>n108&#45;&gt;n104</title>
<path fill="none" stroke="black" d="M962.49,-143.7C962.8,-136.41 963.18,-127.73 963.53,-119.54"/>
<polygon fill="black" stroke="black" points="967.02,-119.76 963.95,-109.62 960.03,-119.46 967.02,-119.76"/>
</g>
<!-- n107 -->
<g id="node28" class="node">
<title>n107</title>
<polygon fill="none" stroke="black" points="1145.75,-108 1091.75,-108 1091.75,-72 1145.75,-72 1145.75,-108"/>
<text xml:space="preserve" text-anchor="middle" x="1118.75" y="-84.95" font-family="Times New Roman,serif" font-size="14.00">=</text>
<text xml:space="preserve" text-anchor="middle" x="1054.62" y="-111.2" font-family="Times New Roman,serif" font-size="14.00">(107)Boolean</text>
</g>
<!-- n108&#45;&gt;n107 -->
<g id="edge27" class="edge">
<title>n108&#45;&gt;n107</title>
<path fill="none" stroke="black" d="M1000.96,-143.52C1025.49,-132.58 1056.91,-118.57 1081.13,-107.77"/>
<polygon fill="black" stroke="black" points="1082.27,-111.1 1089.98,-103.83 1079.42,-104.7 1082.27,-111.1"/>
</g>
<!-- n99 -->
<g id="node29" class="node">
<title>n99</title>
<polygon fill="none" stroke="black" points="847.75,-36 793.75,-36 793.75,0 847.75,0 847.75,-36"/>
<text xml:space="preserve" text-anchor="middle" x="820.75" y="-12.95" font-family="Times New Roman,serif" font-size="14.00">sideB</text>
<text xml:space="preserve" text-anchor="middle" x="775.38" y="-39.2" font-family="Times New Roman,serif" font-size="14.00">(99)int</text>
</g>
<!-- n101&#45;&gt;n99 -->
<g id="edge28" class="edge">
<title>n101&#45;&gt;n99</title>
<path fill="none" stroke="black" d="M874.95,-71.7C866.47,-63.45 856.16,-53.43 846.82,-44.35"/>
<polygon fill="black" stroke="black" points="849.29,-41.86 839.68,-37.4 844.41,-46.88 849.29,-41.86"/>
</g>
<!-- n100 -->
<g id="node30" class="node">
<title>n100</title>
<polygon fill="none" stroke="black" points="919.75,-36 865.75,-36 865.75,0 919.75,0 919.75,-36"/>
<text xml:space="preserve" text-anchor="middle" x="892.75" y="-12.95" font-family="Times New Roman,serif" font-size="14.00">sideC</text>
<text xml:space="preserve" text-anchor="middle" x="844" y="-39.2" font-family="Times New Roman,serif" font-size="14.00">(100)int</text>
</g>
<!-- n101&#45;&gt;n100 -->
<g id="edge29" class="edge">
<title>n101&#45;&gt;n100</title>
<path fill="none" stroke="black" d="M892.75,-71.7C892.75,-64.41 892.75,-55.73 892.75,-47.54"/>
<polygon fill="black" stroke="black" points="896.25,-47.62 892.75,-37.62 889.25,-47.62 896.25,-47.62"/>
</g>
<!-- n102 -->
<g id="node31" class="node">
<title>n102</title>
<polygon fill="none" stroke="black" points="991.75,-36 937.75,-36 937.75,0 991.75,0 991.75,-36"/>
<text xml:space="preserve" text-anchor="middle" x="964.75" y="-12.95" font-family="Times New Roman,serif" font-size="14.00">result</text>
<text xml:space="preserve" text-anchor="middle" x="906.62" y="-39.2" font-family="Times New Roman,serif" font-size="14.00">(102)String</text>
</g>
<!-- n104&#45;&gt;n102 -->
<g id="edge30" class="edge">
<title>n104&#45;&gt;n102</title>
<path fill="none" stroke="black" d="M964.75,-71.7C964.75,-64.41 964.75,-55.73 964.75,-47.54"/>
<polygon fill="black" stroke="black" points="968.25,-47.62 964.75,-37.62 961.25,-47.62 968.25,-47.62"/>
</g>
<!-- n103 -->
<g id="node32" class="node">
<title>n103</title>
<polygon fill="none" stroke="black" points="1074.12,-36 1009.38,-36 1009.38,0 1074.12,0 1074.12,-36"/>
<text xml:space="preserve" text-anchor="middle" x="1041.75" y="-12.95" font-family="Times New Roman,serif" font-size="14.00">Isosceles</text>
<text xml:space="preserve" text-anchor="middle" x="978.25" y="-39.2" font-family="Times New Roman,serif" font-size="14.00">(103)String</text>
</g>
<!-- n104&#45;&gt;n103 -->
<g id="edge31" class="edge">
<title>n104&#45;&gt;n103</title>
<path fill="none" stroke="black" d="M983.78,-71.7C992.95,-63.37 1004.1,-53.22 1014.18,-44.07"/>
<polygon fill="black" stroke="black" points="1016.5,-46.68 1021.55,-37.37 1011.79,-41.5 1016.5,-46.68"/>
</g>
<!-- n105 -->
<g id="node33" class="node">
<title>n105</title>
<polygon fill="none" stroke="black" points="1145.75,-36 1091.75,-36 1091.75,0 1145.75,0 1145.75,-36"/>
<text xml:space="preserve" text-anchor="middle" x="1118.75" y="-12.95" font-family="Times New Roman,serif" font-size="14.00">result</text>
<text xml:space="preserve" text-anchor="middle" x="1060.62" y="-39.2" font-family="Times New Roman,serif" font-size="14.00">(105)String</text>
</g>
<!-- n107&#45;&gt;n105 -->
<g id="edge32" class="edge">
<title>n107&#45;&gt;n105</title>
<path fill="none" stroke="black" d="M1118.75,-71.7C1118.75,-64.41 1118.75,-55.73 1118.75,-47.54"/>
<polygon fill="black" stroke="black" points="1122.25,-47.62 1118.75,-37.62 1115.25,-47.62 1122.25,-47.62"/>
</g>
<!-- n106 -->
<g id="node34" class="node">
<title>n106</title>
<polygon fill="none" stroke="black" points="1221.75,-36 1163.75,-36 1163.75,0 1221.75,0 1221.75,-36"/>
<text xml:space="preserve" text-anchor="middle" x="1192.75" y="-12.95" font-family="Times New Roman,serif" font-size="14.00">Scalene</text>
<text xml:space="preserve" text-anchor="middle" x="1132.62" y="-39.2" font-family="Times New Roman,serif" font-size="14.00">(106)String</text>
</g>
<!-- n107&#45;&gt;n106 -->
<g id="edge33" class="edge">
<title>n107&#45;&gt;n106</title>
<path fill="none" stroke="black" d="M1137.04,-71.7C1145.85,-63.37 1156.57,-53.22 1166.25,-44.07"/>
<polygon fill="black" stroke="black" points="1168.45,-46.8 1173.31,-37.39 1163.64,-41.72 1168.45,-46.8"/>
</g>
</g>
</svg>
