<?xml version="1.0" encoding="UTF-8" standalone="no"?>
<!DOCTYPE svg PUBLIC "-//W3C//DTD SVG 1.1//EN"
 "http://www.w3.org/Graphics/SVG/1.1/DTD/svg11.dtd">
<!-- Generated by graphviz version 12.2.1 (20241206.2353)
 -->
<!-- Title: AST Pages: 1 -->
<svg width="1033pt" height="591pt"
 viewBox="0.00 0.00 1032.75 591.00" xmlns="http://www.w3.org/2000/svg" xmlns:xlink="http://www.w3.org/1999/xlink">
<g id="graph0" class="graph" transform="scale(1 1) rotate(0) translate(4 587)">
<title>AST</title>
<polygon fill="white" stroke="none" points="-4,4 -4,-587 1028.75,-587 1028.75,4 -4,4"/>
<!-- n97 -->
<g id="node1" class="node">
<title>n97</title>
<polygon fill="none" stroke="black" points="442.25,-566.5 195.25,-566.5 195.25,-530.5 442.25,-530.5 442.25,-566.5"/>
<text text-anchor="middle" x="318.75" y="-543.45" font-family="Times New Roman,serif" font-size="14.00">ContextDecl: node(69) Context: node (96)</text>
<text text-anchor="middle" x="184" y="-569.7" font-family="Times New Roman,serif" font-size="14.00">(97)</text>
</g>
<!-- n69 -->
<g id="node2" class="node">
<title>n69</title>
<polygon fill="none" stroke="black" points="341.88,-494.5 161.62,-494.5 161.62,-458.5 341.88,-458.5 341.88,-494.5"/>
<text text-anchor="middle" x="251.75" y="-471.45" font-family="Times New Roman,serif" font-size="14.00">Array::mul(node (68)) : Array</text>
<text text-anchor="middle" x="150.38" y="-497.7" font-family="Times New Roman,serif" font-size="14.00">(69)</text>
</g>
<!-- n97&#45;&gt;n69 -->
<g id="edge1" class="edge">
<title>n97&#45;&gt;n69</title>
<path fill="none" stroke="black" d="M302.19,-530.2C294.32,-521.97 284.76,-511.98 276.08,-502.92"/>
<polygon fill="black" stroke="black" points="278.61,-500.5 269.17,-495.7 273.55,-505.34 278.61,-500.5"/>
</g>
<!-- n96 -->
<g id="node3" class="node">
<title>n96</title>
<polygon fill="none" stroke="black" points="419.75,-494.5 365.75,-494.5 365.75,-458.5 419.75,-458.5 419.75,-494.5"/>
<text text-anchor="middle" x="392.75" y="-471.45" font-family="Times New Roman,serif" font-size="14.00"> post:</text>
<text text-anchor="middle" x="332" y="-497.7" font-family="Times New Roman,serif" font-size="14.00">(96)Boolean</text>
</g>
<!-- n97&#45;&gt;n96 -->
<g id="edge2" class="edge">
<title>n97&#45;&gt;n96</title>
<path fill="none" stroke="black" d="M337.04,-530.2C345.85,-521.87 356.57,-511.72 366.25,-502.57"/>
<polygon fill="black" stroke="black" points="368.45,-505.3 373.31,-495.89 363.64,-500.22 368.45,-505.3"/>
</g>
<!-- n68 -->
<g id="node4" class="node">
<title>n68</title>
<polygon fill="none" stroke="black" points="277.38,-420 202.12,-420 202.12,-384 277.38,-384 277.38,-420"/>
<text text-anchor="middle" x="239.75" y="-396.95" font-family="Times New Roman,serif" font-size="14.00">arg : Array</text>
<text text-anchor="middle" x="175.12" y="-423.2" font-family="Times New Roman,serif" font-size="14.00">(68)Array</text>
</g>
<!-- n69&#45;&gt;n68 -->
<g id="edge3" class="edge">
<title>n69&#45;&gt;n68</title>
<path fill="none" stroke="black" d="M248.91,-458.32C247.58,-450.28 245.96,-440.5 244.45,-431.41"/>
<polygon fill="black" stroke="black" points="247.91,-430.85 242.82,-421.55 241,-431.99 247.91,-430.85"/>
</g>
<!-- n95 -->
<g id="node5" class="node">
<title>n95</title>
<polygon fill="none" stroke="black" points="504.5,-422.5 295,-422.5 295,-381.5 504.5,-381.5 504.5,-422.5"/>
<text text-anchor="middle" x="399.75" y="-405.2" font-family="Times New Roman,serif" font-size="14.00">LetExp </text>
<text text-anchor="middle" x="399.75" y="-388.7" font-family="Times New Roman,serif" font-size="14.00">Let node(75), node(94) in node(94)</text>
<text text-anchor="middle" x="261.25" y="-425.7" font-family="Times New Roman,serif" font-size="14.00">(95)Boolean</text>
</g>
<!-- n96&#45;&gt;n95 -->
<g id="edge4" class="edge">
<title>n96&#45;&gt;n95</title>
<path fill="none" stroke="black" d="M394.41,-458.32C395.11,-451.09 395.94,-442.45 396.74,-434.16"/>
<polygon fill="black" stroke="black" points="400.21,-434.68 397.68,-424.39 393.24,-434.01 400.21,-434.68"/>
</g>
<!-- n75 -->
<g id="node6" class="node">
<title>n75</title>
<polygon fill="none" stroke="black" points="246.75,-334.75 192.75,-334.75 192.75,-298.75 246.75,-298.75 246.75,-334.75"/>
<text text-anchor="middle" x="219.75" y="-311.7" font-family="Times New Roman,serif" font-size="14.00">=</text>
<text text-anchor="middle" x="159" y="-337.95" font-family="Times New Roman,serif" font-size="14.00">(75)Boolean</text>
</g>
<!-- n95&#45;&gt;n75 -->
<g id="edge5" class="edge">
<title>n95&#45;&gt;n75</title>
<path fill="none" stroke="black" d="M356.64,-381.06C326.35,-367.05 286.22,-348.49 257.26,-335.1"/>
<polygon fill="black" stroke="black" points="259.05,-332.07 248.5,-331.05 256.11,-338.42 259.05,-332.07"/>
</g>
<!-- n94 -->
<g id="node7" class="node">
<title>n94</title>
<polygon fill="none" stroke="black" points="683.12,-345.5 474.38,-345.5 474.38,-288 683.12,-288 683.12,-345.5"/>
<text text-anchor="middle" x="578.75" y="-328.2" font-family="Times New Roman,serif" font-size="14.00">IterateExp</text>
<text text-anchor="middle" x="578.75" y="-311.7" font-family="Times New Roman,serif" font-size="14.00">source=node(78) Iterator=node(79)</text>
<text text-anchor="middle" x="578.75" y="-295.2" font-family="Times New Roman,serif" font-size="14.00">Result=node(82) Body=node(93)</text>
<text text-anchor="middle" x="440.62" y="-348.7" font-family="Times New Roman,serif" font-size="14.00">(94)Boolean</text>
</g>
<!-- n95&#45;&gt;n94 -->
<g id="edge6" class="edge">
<title>n95&#45;&gt;n94</title>
<path fill="none" stroke="black" d="M442.62,-381.06C462.18,-371.97 485.85,-360.95 507.94,-350.68"/>
<polygon fill="black" stroke="black" points="509.32,-353.9 516.92,-346.51 506.37,-347.55 509.32,-353.9"/>
</g>
<!-- n74 -->
<g id="node8" class="node">
<title>n74</title>
<polygon fill="none" stroke="black" points="106.75,-252 36.75,-252 36.75,-216 106.75,-216 106.75,-252"/>
<text text-anchor="middle" x="71.75" y="-228.95" font-family="Times New Roman,serif" font-size="14.00">dim1 : int</text>
<text text-anchor="middle" x="18.38" y="-255.2" font-family="Times New Roman,serif" font-size="14.00">(74)int</text>
</g>
<!-- n75&#45;&gt;n74 -->
<g id="edge7" class="edge">
<title>n75&#45;&gt;n74</title>
<path fill="none" stroke="black" d="M192.26,-300.75C170.22,-288.72 138.92,-271.65 113.74,-257.91"/>
<polygon fill="black" stroke="black" points="115.51,-254.89 105.05,-253.17 112.15,-261.03 115.51,-254.89"/>
</g>
<!-- n73 -->
<g id="node9" class="node">
<title>n73</title>
<polygon fill="none" stroke="black" points="314.38,-252 125.12,-252 125.12,-216 314.38,-216 314.38,-252"/>
<text text-anchor="middle" x="219.75" y="-228.95" font-family="Times New Roman,serif" font-size="14.00">arg.datas.getDimensionSizes(1)</text>
<text text-anchor="middle" x="106.75" y="-255.2" font-family="Times New Roman,serif" font-size="14.00">(73)int</text>
</g>
<!-- n75&#45;&gt;n73 -->
<g id="edge8" class="edge">
<title>n75&#45;&gt;n73</title>
<path fill="none" stroke="black" d="M219.75,-298.63C219.75,-288.52 219.75,-275.48 219.75,-263.83"/>
<polygon fill="black" stroke="black" points="223.25,-263.89 219.75,-253.89 216.25,-263.89 223.25,-263.89"/>
</g>
<!-- n78 -->
<g id="node10" class="node">
<title>n78</title>
<polygon fill="none" stroke="black" points="533.38,-252 332.12,-252 332.12,-216 533.38,-216 533.38,-252"/>
<text text-anchor="middle" x="432.75" y="-228.95" font-family="Times New Roman,serif" font-size="14.00">Sequence{ node(76) .. node(77) }</text>
<text text-anchor="middle" x="313.75" y="-255.2" font-family="Times New Roman,serif" font-size="14.00">(78)int</text>
</g>
<!-- n94&#45;&gt;n78 -->
<g id="edge9" class="edge">
<title>n94&#45;&gt;n78</title>
<path fill="none" stroke="black" d="M527.69,-287.51C510.12,-277.79 490.68,-267.04 473.99,-257.81"/>
<polygon fill="black" stroke="black" points="475.77,-254.79 465.32,-253.02 472.38,-260.92 475.77,-254.79"/>
</g>
<!-- n79 -->
<g id="node11" class="node">
<title>n79</title>
<polygon fill="none" stroke="black" points="605.75,-252 551.75,-252 551.75,-216 605.75,-216 605.75,-252"/>
<text text-anchor="middle" x="578.75" y="-228.95" font-family="Times New Roman,serif" font-size="14.00">it : int</text>
<text text-anchor="middle" x="533.38" y="-255.2" font-family="Times New Roman,serif" font-size="14.00">(79)int</text>
</g>
<!-- n94&#45;&gt;n79 -->
<g id="edge10" class="edge">
<title>n94&#45;&gt;n79</title>
<path fill="none" stroke="black" d="M578.75,-287.51C578.75,-279.75 578.75,-271.33 578.75,-263.55"/>
<polygon fill="black" stroke="black" points="582.25,-263.56 578.75,-253.56 575.25,-263.56 582.25,-263.56"/>
</g>
<!-- n82 -->
<g id="node12" class="node">
<title>n82</title>
<polygon fill="none" stroke="black" points="677.75,-252 623.75,-252 623.75,-216 677.75,-216 677.75,-252"/>
<text text-anchor="middle" x="650.75" y="-228.95" font-family="Times New Roman,serif" font-size="14.00">=</text>
<text text-anchor="middle" x="590" y="-255.2" font-family="Times New Roman,serif" font-size="14.00">(82)Boolean</text>
</g>
<!-- n94&#45;&gt;n82 -->
<g id="edge11" class="edge">
<title>n94&#45;&gt;n82</title>
<path fill="none" stroke="black" d="M603.93,-287.51C611.76,-278.73 620.33,-269.11 627.99,-260.53"/>
<polygon fill="black" stroke="black" points="630.5,-262.97 634.54,-253.17 625.28,-258.31 630.5,-262.97"/>
</g>
<!-- n93 -->
<g id="node13" class="node">
<title>n93</title>
<polygon fill="none" stroke="black" points="769.75,-252 715.75,-252 715.75,-216 769.75,-216 769.75,-252"/>
<text text-anchor="middle" x="742.75" y="-228.95" font-family="Times New Roman,serif" font-size="14.00">=</text>
<text text-anchor="middle" x="682" y="-255.2" font-family="Times New Roman,serif" font-size="14.00">(93)Boolean</text>
</g>
<!-- n94&#45;&gt;n93 -->
<g id="edge12" class="edge">
<title>n94&#45;&gt;n93</title>
<path fill="none" stroke="black" d="M636.11,-287.51C659.08,-276.2 684.89,-263.49 705.36,-253.41"/>
<polygon fill="black" stroke="black" points="706.76,-256.62 714.18,-249.07 703.67,-250.34 706.76,-256.62"/>
</g>
<!-- n71 -->
<g id="node14" class="node">
<title>n71</title>
<polygon fill="none" stroke="black" points="209.12,-180 144.38,-180 144.38,-144 209.12,-144 209.12,-180"/>
<text text-anchor="middle" x="176.75" y="-156.95" font-family="Times New Roman,serif" font-size="14.00">arg.datas</text>
<text text-anchor="middle" x="118.12" y="-183.2" font-family="Times New Roman,serif" font-size="14.00">(71)int[5]</text>
</g>
<!-- n73&#45;&gt;n71 -->
<g id="edge13" class="edge">
<title>n73&#45;&gt;n71</title>
<path fill="none" stroke="black" d="M209.12,-215.7C204.33,-207.9 198.56,-198.51 193.23,-189.83"/>
<polygon fill="black" stroke="black" points="196.27,-188.08 188.05,-181.39 190.3,-191.75 196.27,-188.08"/>
</g>
<!-- n72 -->
<g id="node15" class="node">
<title>n72</title>
<polygon fill="none" stroke="black" points="280.75,-180 226.75,-180 226.75,-144 280.75,-144 280.75,-180"/>
<text text-anchor="middle" x="253.75" y="-156.95" font-family="Times New Roman,serif" font-size="14.00">1</text>
<text text-anchor="middle" x="208.38" y="-183.2" font-family="Times New Roman,serif" font-size="14.00">(72)int</text>
</g>
<!-- n73&#45;&gt;n72 -->
<g id="edge14" class="edge">
<title>n73&#45;&gt;n72</title>
<path fill="none" stroke="black" d="M228.15,-215.7C231.86,-208.07 236.31,-198.92 240.44,-190.4"/>
<polygon fill="black" stroke="black" points="243.56,-191.99 244.78,-181.47 237.26,-188.93 243.56,-191.99"/>
</g>
<!-- n76 -->
<g id="node16" class="node">
<title>n76</title>
<polygon fill="none" stroke="black" points="406.75,-180 352.75,-180 352.75,-144 406.75,-144 406.75,-180"/>
<text text-anchor="middle" x="379.75" y="-156.95" font-family="Times New Roman,serif" font-size="14.00">1</text>
<text text-anchor="middle" x="334.38" y="-183.2" font-family="Times New Roman,serif" font-size="14.00">(76)int</text>
</g>
<!-- n78&#45;&gt;n76 -->
<g id="edge15" class="edge">
<title>n78&#45;&gt;n76</title>
<path fill="none" stroke="black" d="M419.65,-215.7C413.62,-207.73 406.33,-198.1 399.64,-189.26"/>
<polygon fill="black" stroke="black" points="402.44,-187.17 393.61,-181.31 396.86,-191.4 402.44,-187.17"/>
</g>
<!-- n77 -->
<g id="node17" class="node">
<title>n77</title>
<polygon fill="none" stroke="black" points="478.75,-180 424.75,-180 424.75,-144 478.75,-144 478.75,-180"/>
<text text-anchor="middle" x="451.75" y="-156.95" font-family="Times New Roman,serif" font-size="14.00">dim1</text>
<text text-anchor="middle" x="406.38" y="-183.2" font-family="Times New Roman,serif" font-size="14.00">(77)int</text>
</g>
<!-- n78&#45;&gt;n77 -->
<g id="edge16" class="edge">
<title>n78&#45;&gt;n77</title>
<path fill="none" stroke="black" d="M437.45,-215.7C439.47,-208.24 441.89,-199.32 444.16,-190.97"/>
<polygon fill="black" stroke="black" points="447.47,-192.13 446.71,-181.57 440.71,-190.3 447.47,-192.13"/>
</g>
<!-- n81 -->
<g id="node18" class="node">
<title>n81</title>
<polygon fill="none" stroke="black" points="605.88,-180 515.62,-180 515.62,-144 605.88,-144 605.88,-180"/>
<text text-anchor="middle" x="560.75" y="-156.95" font-family="Times New Roman,serif" font-size="14.00">acc : Boolean</text>
<text text-anchor="middle" x="481.88" y="-183.2" font-family="Times New Roman,serif" font-size="14.00">(81)Boolean</text>
</g>
<!-- n82&#45;&gt;n81 -->
<g id="edge17" class="edge">
<title>n82&#45;&gt;n81</title>
<path fill="none" stroke="black" d="M628.5,-215.7C617.47,-207.11 603.96,-196.61 591.91,-187.24"/>
<polygon fill="black" stroke="black" points="594.29,-184.65 584.25,-181.28 589.99,-190.18 594.29,-184.65"/>
</g>
<!-- n80 -->
<g id="node19" class="node">
<title>n80</title>
<polygon fill="none" stroke="black" points="677.75,-180 623.75,-180 623.75,-144 677.75,-144 677.75,-180"/>
<text text-anchor="middle" x="650.75" y="-156.95" font-family="Times New Roman,serif" font-size="14.00">true</text>
<text text-anchor="middle" x="590" y="-183.2" font-family="Times New Roman,serif" font-size="14.00">(80)Boolean</text>
</g>
<!-- n82&#45;&gt;n80 -->
<g id="edge18" class="edge">
<title>n82&#45;&gt;n80</title>
<path fill="none" stroke="black" d="M650.75,-215.7C650.75,-208.41 650.75,-199.73 650.75,-191.54"/>
<polygon fill="black" stroke="black" points="654.25,-191.62 650.75,-181.62 647.25,-191.62 654.25,-191.62"/>
</g>
<!-- n85 -->
<g id="node20" class="node">
<title>n85</title>
<polygon fill="none" stroke="black" points="789.75,-180 695.75,-180 695.75,-144 789.75,-144 789.75,-180"/>
<text text-anchor="middle" x="742.75" y="-156.95" font-family="Times New Roman,serif" font-size="14.00">result.datas[it]</text>
<text text-anchor="middle" x="677.38" y="-183.2" font-family="Times New Roman,serif" font-size="14.00">(85)int</text>
</g>
<!-- n93&#45;&gt;n85 -->
<g id="edge19" class="edge">
<title>n93&#45;&gt;n85</title>
<path fill="none" stroke="black" d="M742.75,-215.7C742.75,-208.41 742.75,-199.73 742.75,-191.54"/>
<polygon fill="black" stroke="black" points="746.25,-191.62 742.75,-181.62 739.25,-191.62 746.25,-191.62"/>
</g>
<!-- n92 -->
<g id="node21" class="node">
<title>n92</title>
<polygon fill="none" stroke="black" points="861.75,-180 807.75,-180 807.75,-144 861.75,-144 861.75,-180"/>
<text text-anchor="middle" x="834.75" y="-156.95" font-family="Times New Roman,serif" font-size="14.00">*</text>
<text text-anchor="middle" x="789.38" y="-183.2" font-family="Times New Roman,serif" font-size="14.00">(92)int</text>
</g>
<!-- n93&#45;&gt;n92 -->
<g id="edge20" class="edge">
<title>n93&#45;&gt;n92</title>
<path fill="none" stroke="black" d="M765.49,-215.7C776.77,-207.11 790.58,-196.61 802.89,-187.24"/>
<polygon fill="black" stroke="black" points="804.91,-190.1 810.75,-181.26 800.67,-184.53 804.91,-190.1"/>
</g>
<!-- n70 -->
<g id="node22" class="node">
<title>n70</title>
<polygon fill="none" stroke="black" points="203.75,-108 149.75,-108 149.75,-72 203.75,-72 203.75,-108"/>
<text text-anchor="middle" x="176.75" y="-84.95" font-family="Times New Roman,serif" font-size="14.00">arg</text>
<text text-anchor="middle" x="122.75" y="-111.2" font-family="Times New Roman,serif" font-size="14.00">(70)Array</text>
</g>
<!-- n71&#45;&gt;n70 -->
<g id="edge21" class="edge">
<title>n71&#45;&gt;n70</title>
<path fill="none" stroke="black" d="M176.75,-143.7C176.75,-136.41 176.75,-127.73 176.75,-119.54"/>
<polygon fill="black" stroke="black" points="180.25,-119.62 176.75,-109.62 173.25,-119.62 180.25,-119.62"/>
</g>
<!-- n83 -->
<g id="node23" class="node">
<title>n83</title>
<polygon fill="none" stroke="black" points="698.75,-108 644.75,-108 644.75,-72 698.75,-72 698.75,-108"/>
<text text-anchor="middle" x="671.75" y="-84.95" font-family="Times New Roman,serif" font-size="14.00">result</text>
<text text-anchor="middle" x="617.75" y="-111.2" font-family="Times New Roman,serif" font-size="14.00">(83)Array</text>
</g>
<!-- n85&#45;&gt;n83 -->
<g id="edge22" class="edge">
<title>n85&#45;&gt;n83</title>
<path fill="none" stroke="black" d="M725.2,-143.7C716.77,-135.39 706.52,-125.28 697.25,-116.14"/>
<polygon fill="black" stroke="black" points="699.75,-113.7 690.18,-109.17 694.84,-118.68 699.75,-113.7"/>
</g>
<!-- n84 -->
<g id="node24" class="node">
<title>n84</title>
<polygon fill="none" stroke="black" points="770.75,-108 716.75,-108 716.75,-72 770.75,-72 770.75,-108"/>
<text text-anchor="middle" x="743.75" y="-84.95" font-family="Times New Roman,serif" font-size="14.00">it</text>
<text text-anchor="middle" x="698.38" y="-111.2" font-family="Times New Roman,serif" font-size="14.00">(84)int</text>
</g>
<!-- n85&#45;&gt;n84 -->
<g id="edge23" class="edge">
<title>n85&#45;&gt;n84</title>
<path fill="none" stroke="black" d="M743,-143.7C743.1,-136.41 743.23,-127.73 743.34,-119.54"/>
<polygon fill="black" stroke="black" points="746.84,-119.67 743.48,-109.62 739.84,-119.57 746.84,-119.67"/>
</g>
<!-- n88 -->
<g id="node25" class="node">
<title>n88</title>
<polygon fill="none" stroke="black" points="874.5,-108 791,-108 791,-72 874.5,-72 874.5,-108"/>
<text text-anchor="middle" x="832.75" y="-84.95" font-family="Times New Roman,serif" font-size="14.00">self.datas[it]</text>
<text text-anchor="middle" x="772.62" y="-111.2" font-family="Times New Roman,serif" font-size="14.00">(88)int</text>
</g>
<!-- n92&#45;&gt;n88 -->
<g id="edge24" class="edge">
<title>n92&#45;&gt;n88</title>
<path fill="none" stroke="black" d="M834.26,-143.7C834.05,-136.41 833.8,-127.73 833.57,-119.54"/>
<polygon fill="black" stroke="black" points="837.07,-119.51 833.28,-109.62 830.07,-119.71 837.07,-119.51"/>
</g>
<!-- n91 -->
<g id="node26" class="node">
<title>n91</title>
<polygon fill="none" stroke="black" points="973.38,-108 892.12,-108 892.12,-72 973.38,-72 973.38,-108"/>
<text text-anchor="middle" x="932.75" y="-84.95" font-family="Times New Roman,serif" font-size="14.00">arg.datas[it]</text>
<text text-anchor="middle" x="873.75" y="-111.2" font-family="Times New Roman,serif" font-size="14.00">(91)int</text>
</g>
<!-- n92&#45;&gt;n91 -->
<g id="edge25" class="edge">
<title>n92&#45;&gt;n91</title>
<path fill="none" stroke="black" d="M859.23,-143.52C871.36,-134.85 886.2,-124.25 899.36,-114.85"/>
<polygon fill="black" stroke="black" points="901.25,-117.8 907.35,-109.14 897.18,-112.1 901.25,-117.8"/>
</g>
<!-- n86 -->
<g id="node27" class="node">
<title>n86</title>
<polygon fill="none" stroke="black" points="794.75,-36 740.75,-36 740.75,0 794.75,0 794.75,-36"/>
<text text-anchor="middle" x="767.75" y="-12.95" font-family="Times New Roman,serif" font-size="14.00">self</text>
<text text-anchor="middle" x="713.75" y="-39.2" font-family="Times New Roman,serif" font-size="14.00">(86)Array</text>
</g>
<!-- n88&#45;&gt;n86 -->
<g id="edge26" class="edge">
<title>n88&#45;&gt;n86</title>
<path fill="none" stroke="black" d="M816.68,-71.7C809.05,-63.47 799.77,-53.48 791.35,-44.42"/>
<polygon fill="black" stroke="black" points="794.03,-42.16 784.66,-37.21 788.9,-46.92 794.03,-42.16"/>
</g>
<!-- n87 -->
<g id="node28" class="node">
<title>n87</title>
<polygon fill="none" stroke="black" points="866.75,-36 812.75,-36 812.75,0 866.75,0 866.75,-36"/>
<text text-anchor="middle" x="839.75" y="-12.95" font-family="Times New Roman,serif" font-size="14.00">it</text>
<text text-anchor="middle" x="794.38" y="-39.2" font-family="Times New Roman,serif" font-size="14.00">(87)int</text>
</g>
<!-- n88&#45;&gt;n87 -->
<g id="edge27" class="edge">
<title>n88&#45;&gt;n87</title>
<path fill="none" stroke="black" d="M834.48,-71.7C835.21,-64.41 836.08,-55.73 836.9,-47.54"/>
<polygon fill="black" stroke="black" points="840.38,-47.91 837.89,-37.61 833.41,-47.21 840.38,-47.91"/>
</g>
<!-- n89 -->
<g id="node29" class="node">
<title>n89</title>
<polygon fill="none" stroke="black" points="952.75,-36 898.75,-36 898.75,0 952.75,0 952.75,-36"/>
<text text-anchor="middle" x="925.75" y="-12.95" font-family="Times New Roman,serif" font-size="14.00">arg</text>
<text text-anchor="middle" x="871.75" y="-39.2" font-family="Times New Roman,serif" font-size="14.00">(89)Array</text>
</g>
<!-- n91&#45;&gt;n89 -->
<g id="edge28" class="edge">
<title>n91&#45;&gt;n89</title>
<path fill="none" stroke="black" d="M931.02,-71.7C930.29,-64.41 929.42,-55.73 928.6,-47.54"/>
<polygon fill="black" stroke="black" points="932.09,-47.21 927.61,-37.61 925.12,-47.91 932.09,-47.21"/>
</g>
<!-- n90 -->
<g id="node30" class="node">
<title>n90</title>
<polygon fill="none" stroke="black" points="1024.75,-36 970.75,-36 970.75,0 1024.75,0 1024.75,-36"/>
<text text-anchor="middle" x="997.75" y="-12.95" font-family="Times New Roman,serif" font-size="14.00">it</text>
<text text-anchor="middle" x="952.38" y="-39.2" font-family="Times New Roman,serif" font-size="14.00">(90)int</text>
</g>
<!-- n91&#45;&gt;n90 -->
<g id="edge29" class="edge">
<title>n91&#45;&gt;n90</title>
<path fill="none" stroke="black" d="M948.82,-71.7C956.45,-63.47 965.73,-53.48 974.15,-44.42"/>
<polygon fill="black" stroke="black" points="976.6,-46.92 980.84,-37.21 971.47,-42.16 976.6,-46.92"/>
</g>
</g>
</svg>
