<?xml version="1.0" encoding="UTF-8" standalone="no"?>
<!DOCTYPE svg PUBLIC "-//W3C//DTD SVG 1.1//EN"
 "http://www.w3.org/Graphics/SVG/1.1/DTD/svg11.dtd">
<!-- Generated by graphviz version 12.2.1 (20241206.2353)
 -->
<!-- Title: AST Pages: 1 -->
<svg width="1053pt" height="591pt"
 viewBox="0.00 0.00 1052.50 591.00" xmlns="http://www.w3.org/2000/svg" xmlns:xlink="http://www.w3.org/1999/xlink">
<g id="graph0" class="graph" transform="scale(1 1) rotate(0) translate(4 587)">
<title>AST</title>
<polygon fill="white" stroke="none" points="-4,4 -4,-587 1048.5,-587 1048.5,4 -4,4"/>
<!-- n127 -->
<g id="node1" class="node">
<title>n127</title>
<polygon fill="none" stroke="black" points="453.38,-566.5 199.62,-566.5 199.62,-530.5 453.38,-530.5 453.38,-566.5"/>
<text text-anchor="middle" x="326.5" y="-543.45" font-family="Times New Roman,serif" font-size="14.00">ContextDecl: node(99) Context: node (126)</text>
<text text-anchor="middle" x="185" y="-569.7" font-family="Times New Roman,serif" font-size="14.00">(127)</text>
</g>
<!-- n99 -->
<g id="node2" class="node">
<title>n99</title>
<polygon fill="none" stroke="black" points="348.38,-494.5 172.62,-494.5 172.62,-458.5 348.38,-458.5 348.38,-494.5"/>
<text text-anchor="middle" x="260.5" y="-471.45" font-family="Times New Roman,serif" font-size="14.00">Array::div(node (98)) : Array</text>
<text text-anchor="middle" x="161.38" y="-497.7" font-family="Times New Roman,serif" font-size="14.00">(99)</text>
</g>
<!-- n127&#45;&gt;n99 -->
<g id="edge1" class="edge">
<title>n127&#45;&gt;n99</title>
<path fill="none" stroke="black" d="M310.19,-530.2C302.43,-521.97 293.01,-511.98 284.47,-502.92"/>
<polygon fill="black" stroke="black" points="287.07,-500.58 277.67,-495.71 281.98,-505.38 287.07,-500.58"/>
</g>
<!-- n126 -->
<g id="node3" class="node">
<title>n126</title>
<polygon fill="none" stroke="black" points="429.5,-494.5 375.5,-494.5 375.5,-458.5 429.5,-458.5 429.5,-494.5"/>
<text text-anchor="middle" x="402.5" y="-471.45" font-family="Times New Roman,serif" font-size="14.00"> post:</text>
<text text-anchor="middle" x="338.38" y="-497.7" font-family="Times New Roman,serif" font-size="14.00">(126)Boolean</text>
</g>
<!-- n127&#45;&gt;n126 -->
<g id="edge2" class="edge">
<title>n127&#45;&gt;n126</title>
<path fill="none" stroke="black" d="M345.29,-530.2C354.33,-521.87 365.34,-511.72 375.28,-502.57"/>
<polygon fill="black" stroke="black" points="377.57,-505.22 382.55,-495.87 372.83,-500.07 377.57,-505.22"/>
</g>
<!-- n98 -->
<g id="node4" class="node">
<title>n98</title>
<polygon fill="none" stroke="black" points="279.12,-420 203.88,-420 203.88,-384 279.12,-384 279.12,-420"/>
<text text-anchor="middle" x="241.5" y="-396.95" font-family="Times New Roman,serif" font-size="14.00">arg : Array</text>
<text text-anchor="middle" x="176.88" y="-423.2" font-family="Times New Roman,serif" font-size="14.00">(98)Array</text>
</g>
<!-- n99&#45;&gt;n98 -->
<g id="edge3" class="edge">
<title>n99&#45;&gt;n98</title>
<path fill="none" stroke="black" d="M256,-458.32C253.87,-450.19 251.27,-440.28 248.86,-431.1"/>
<polygon fill="black" stroke="black" points="252.27,-430.31 246.35,-421.52 245.5,-432.08 252.27,-430.31"/>
</g>
<!-- n125 -->
<g id="node5" class="node">
<title>n125</title>
<polygon fill="none" stroke="black" points="527.38,-422.5 297.62,-422.5 297.62,-381.5 527.38,-381.5 527.38,-422.5"/>
<text text-anchor="middle" x="412.5" y="-405.2" font-family="Times New Roman,serif" font-size="14.00">LetExp </text>
<text text-anchor="middle" x="412.5" y="-388.7" font-family="Times New Roman,serif" font-size="14.00">Let node(105), node(124) in node(124)</text>
<text text-anchor="middle" x="260.5" y="-425.7" font-family="Times New Roman,serif" font-size="14.00">(125)Boolean</text>
</g>
<!-- n126&#45;&gt;n125 -->
<g id="edge4" class="edge">
<title>n126&#45;&gt;n125</title>
<path fill="none" stroke="black" d="M404.87,-458.32C405.87,-451.09 407.06,-442.45 408.2,-434.16"/>
<polygon fill="black" stroke="black" points="411.65,-434.77 409.55,-424.38 404.72,-433.81 411.65,-434.77"/>
</g>
<!-- n105 -->
<g id="node6" class="node">
<title>n105</title>
<polygon fill="none" stroke="black" points="253.5,-334.75 199.5,-334.75 199.5,-298.75 253.5,-298.75 253.5,-334.75"/>
<text text-anchor="middle" x="226.5" y="-311.7" font-family="Times New Roman,serif" font-size="14.00">=</text>
<text text-anchor="middle" x="162.38" y="-337.95" font-family="Times New Roman,serif" font-size="14.00">(105)Boolean</text>
</g>
<!-- n125&#45;&gt;n105 -->
<g id="edge5" class="edge">
<title>n125&#45;&gt;n105</title>
<path fill="none" stroke="black" d="M367.95,-381.06C336.36,-366.92 294.43,-348.15 264.44,-334.73"/>
<polygon fill="black" stroke="black" points="265.91,-331.55 255.35,-330.66 263.05,-337.94 265.91,-331.55"/>
</g>
<!-- n124 -->
<g id="node7" class="node">
<title>n124</title>
<polygon fill="none" stroke="black" points="709.62,-345.5 487.38,-345.5 487.38,-288 709.62,-288 709.62,-345.5"/>
<text text-anchor="middle" x="598.5" y="-328.2" font-family="Times New Roman,serif" font-size="14.00">IterateExp</text>
<text text-anchor="middle" x="598.5" y="-311.7" font-family="Times New Roman,serif" font-size="14.00">source=node(108) Iterator=node(109)</text>
<text text-anchor="middle" x="598.5" y="-295.2" font-family="Times New Roman,serif" font-size="14.00">Result=node(112) Body=node(123)</text>
<text text-anchor="middle" x="450.25" y="-348.7" font-family="Times New Roman,serif" font-size="14.00">(124)Boolean</text>
</g>
<!-- n125&#45;&gt;n124 -->
<g id="edge6" class="edge">
<title>n125&#45;&gt;n124</title>
<path fill="none" stroke="black" d="M457.05,-381.06C477.46,-371.92 502.19,-360.86 525.23,-350.54"/>
<polygon fill="black" stroke="black" points="526.59,-353.77 534.29,-346.49 523.73,-347.38 526.59,-353.77"/>
</g>
<!-- n104 -->
<g id="node8" class="node">
<title>n104</title>
<polygon fill="none" stroke="black" points="113.5,-252 43.5,-252 43.5,-216 113.5,-216 113.5,-252"/>
<text text-anchor="middle" x="78.5" y="-228.95" font-family="Times New Roman,serif" font-size="14.00">dim1 : int</text>
<text text-anchor="middle" x="21.75" y="-255.2" font-family="Times New Roman,serif" font-size="14.00">(104)int</text>
</g>
<!-- n105&#45;&gt;n104 -->
<g id="edge7" class="edge">
<title>n105&#45;&gt;n104</title>
<path fill="none" stroke="black" d="M199.01,-300.75C176.97,-288.72 145.67,-271.65 120.49,-257.91"/>
<polygon fill="black" stroke="black" points="122.26,-254.89 111.8,-253.17 118.9,-261.03 122.26,-254.89"/>
</g>
<!-- n103 -->
<g id="node9" class="node">
<title>n103</title>
<polygon fill="none" stroke="black" points="321.12,-252 131.88,-252 131.88,-216 321.12,-216 321.12,-252"/>
<text text-anchor="middle" x="226.5" y="-228.95" font-family="Times New Roman,serif" font-size="14.00">arg.datas.getDimensionSizes(1)</text>
<text text-anchor="middle" x="110.12" y="-255.2" font-family="Times New Roman,serif" font-size="14.00">(103)int</text>
</g>
<!-- n105&#45;&gt;n103 -->
<g id="edge8" class="edge">
<title>n105&#45;&gt;n103</title>
<path fill="none" stroke="black" d="M226.5,-298.63C226.5,-288.52 226.5,-275.48 226.5,-263.83"/>
<polygon fill="black" stroke="black" points="230,-263.89 226.5,-253.89 223,-263.89 230,-263.89"/>
</g>
<!-- n108 -->
<g id="node10" class="node">
<title>n108</title>
<polygon fill="none" stroke="black" points="553.88,-252 339.12,-252 339.12,-216 553.88,-216 553.88,-252"/>
<text text-anchor="middle" x="446.5" y="-228.95" font-family="Times New Roman,serif" font-size="14.00">Sequence{ node(106) .. node(107) }</text>
<text text-anchor="middle" x="317.38" y="-255.2" font-family="Times New Roman,serif" font-size="14.00">(108)int</text>
</g>
<!-- n124&#45;&gt;n108 -->
<g id="edge9" class="edge">
<title>n124&#45;&gt;n108</title>
<path fill="none" stroke="black" d="M545.34,-287.51C526.87,-277.7 506.43,-266.84 488.95,-257.55"/>
<polygon fill="black" stroke="black" points="490.84,-254.59 480.37,-252.99 487.56,-260.78 490.84,-254.59"/>
</g>
<!-- n109 -->
<g id="node11" class="node">
<title>n109</title>
<polygon fill="none" stroke="black" points="625.5,-252 571.5,-252 571.5,-216 625.5,-216 625.5,-252"/>
<text text-anchor="middle" x="598.5" y="-228.95" font-family="Times New Roman,serif" font-size="14.00">it : int</text>
<text text-anchor="middle" x="549.75" y="-255.2" font-family="Times New Roman,serif" font-size="14.00">(109)int</text>
</g>
<!-- n124&#45;&gt;n109 -->
<g id="edge10" class="edge">
<title>n124&#45;&gt;n109</title>
<path fill="none" stroke="black" d="M598.5,-287.51C598.5,-279.75 598.5,-271.33 598.5,-263.55"/>
<polygon fill="black" stroke="black" points="602,-263.56 598.5,-253.56 595,-263.56 602,-263.56"/>
</g>
<!-- n112 -->
<g id="node12" class="node">
<title>n112</title>
<polygon fill="none" stroke="black" points="697.5,-252 643.5,-252 643.5,-216 697.5,-216 697.5,-252"/>
<text text-anchor="middle" x="670.5" y="-228.95" font-family="Times New Roman,serif" font-size="14.00">=</text>
<text text-anchor="middle" x="606.38" y="-202.7" font-family="Times New Roman,serif" font-size="14.00">(112)Boolean</text>
</g>
<!-- n124&#45;&gt;n112 -->
<g id="edge11" class="edge">
<title>n124&#45;&gt;n112</title>
<path fill="none" stroke="black" d="M623.68,-287.51C631.51,-278.73 640.08,-269.11 647.74,-260.53"/>
<polygon fill="black" stroke="black" points="650.25,-262.97 654.29,-253.17 645.03,-258.31 650.25,-262.97"/>
</g>
<!-- n123 -->
<g id="node13" class="node">
<title>n123</title>
<polygon fill="none" stroke="black" points="789.5,-252 735.5,-252 735.5,-216 789.5,-216 789.5,-252"/>
<text text-anchor="middle" x="762.5" y="-228.95" font-family="Times New Roman,serif" font-size="14.00">=</text>
<text text-anchor="middle" x="698.38" y="-255.2" font-family="Times New Roman,serif" font-size="14.00">(123)Boolean</text>
</g>
<!-- n124&#45;&gt;n123 -->
<g id="edge12" class="edge">
<title>n124&#45;&gt;n123</title>
<path fill="none" stroke="black" d="M655.86,-287.51C678.83,-276.2 704.64,-263.49 725.11,-253.41"/>
<polygon fill="black" stroke="black" points="726.51,-256.62 733.93,-249.07 723.42,-250.34 726.51,-256.62"/>
</g>
<!-- n101 -->
<g id="node14" class="node">
<title>n101</title>
<polygon fill="none" stroke="black" points="238.88,-180 174.12,-180 174.12,-144 238.88,-144 238.88,-180"/>
<text text-anchor="middle" x="206.5" y="-156.95" font-family="Times New Roman,serif" font-size="14.00">arg.datas</text>
<text text-anchor="middle" x="144.5" y="-183.2" font-family="Times New Roman,serif" font-size="14.00">(101)int[5]</text>
</g>
<!-- n103&#45;&gt;n101 -->
<g id="edge13" class="edge">
<title>n103&#45;&gt;n101</title>
<path fill="none" stroke="black" d="M221.56,-215.7C219.42,-208.24 216.88,-199.32 214.49,-190.97"/>
<polygon fill="black" stroke="black" points="217.92,-190.21 211.8,-181.56 211.18,-192.14 217.92,-190.21"/>
</g>
<!-- n102 -->
<g id="node15" class="node">
<title>n102</title>
<polygon fill="none" stroke="black" points="310.5,-180 256.5,-180 256.5,-144 310.5,-144 310.5,-180"/>
<text text-anchor="middle" x="283.5" y="-156.95" font-family="Times New Roman,serif" font-size="14.00">1</text>
<text text-anchor="middle" x="234.75" y="-183.2" font-family="Times New Roman,serif" font-size="14.00">(102)int</text>
</g>
<!-- n103&#45;&gt;n102 -->
<g id="edge14" class="edge">
<title>n103&#45;&gt;n102</title>
<path fill="none" stroke="black" d="M240.59,-215.7C247.15,-207.64 255.09,-197.89 262.34,-188.98"/>
<polygon fill="black" stroke="black" points="265.02,-191.24 268.62,-181.28 259.59,-186.82 265.02,-191.24"/>
</g>
<!-- n106 -->
<g id="node16" class="node">
<title>n106</title>
<polygon fill="none" stroke="black" points="420.5,-180 366.5,-180 366.5,-144 420.5,-144 420.5,-180"/>
<text text-anchor="middle" x="393.5" y="-156.95" font-family="Times New Roman,serif" font-size="14.00">1</text>
<text text-anchor="middle" x="344.75" y="-183.2" font-family="Times New Roman,serif" font-size="14.00">(106)int</text>
</g>
<!-- n108&#45;&gt;n106 -->
<g id="edge15" class="edge">
<title>n108&#45;&gt;n106</title>
<path fill="none" stroke="black" d="M433.4,-215.7C427.37,-207.73 420.08,-198.1 413.39,-189.26"/>
<polygon fill="black" stroke="black" points="416.19,-187.17 407.36,-181.31 410.61,-191.4 416.19,-187.17"/>
</g>
<!-- n107 -->
<g id="node17" class="node">
<title>n107</title>
<polygon fill="none" stroke="black" points="492.5,-180 438.5,-180 438.5,-144 492.5,-144 492.5,-180"/>
<text text-anchor="middle" x="465.5" y="-156.95" font-family="Times New Roman,serif" font-size="14.00">dim1</text>
<text text-anchor="middle" x="416.75" y="-183.2" font-family="Times New Roman,serif" font-size="14.00">(107)int</text>
</g>
<!-- n108&#45;&gt;n107 -->
<g id="edge16" class="edge">
<title>n108&#45;&gt;n107</title>
<path fill="none" stroke="black" d="M451.2,-215.7C453.22,-208.24 455.64,-199.32 457.91,-190.97"/>
<polygon fill="black" stroke="black" points="461.22,-192.13 460.46,-181.57 454.46,-190.3 461.22,-192.13"/>
</g>
<!-- n111 -->
<g id="node18" class="node">
<title>n111</title>
<polygon fill="none" stroke="black" points="625.62,-180 535.38,-180 535.38,-144 625.62,-144 625.62,-180"/>
<text text-anchor="middle" x="580.5" y="-156.95" font-family="Times New Roman,serif" font-size="14.00">acc : Boolean</text>
<text text-anchor="middle" x="498.25" y="-183.2" font-family="Times New Roman,serif" font-size="14.00">(111)Boolean</text>
</g>
<!-- n112&#45;&gt;n111 -->
<g id="edge17" class="edge">
<title>n112&#45;&gt;n111</title>
<path fill="none" stroke="black" d="M648.25,-215.7C637.22,-207.11 623.71,-196.61 611.66,-187.24"/>
<polygon fill="black" stroke="black" points="614.04,-184.65 604,-181.28 609.74,-190.18 614.04,-184.65"/>
</g>
<!-- n110 -->
<g id="node19" class="node">
<title>n110</title>
<polygon fill="none" stroke="black" points="697.5,-180 643.5,-180 643.5,-144 697.5,-144 697.5,-180"/>
<text text-anchor="middle" x="670.5" y="-156.95" font-family="Times New Roman,serif" font-size="14.00">true</text>
<text text-anchor="middle" x="606.38" y="-183.2" font-family="Times New Roman,serif" font-size="14.00">(110)Boolean</text>
</g>
<!-- n112&#45;&gt;n110 -->
<g id="edge18" class="edge">
<title>n112&#45;&gt;n110</title>
<path fill="none" stroke="black" d="M670.5,-215.7C670.5,-208.41 670.5,-199.73 670.5,-191.54"/>
<polygon fill="black" stroke="black" points="674,-191.62 670.5,-181.62 667,-191.62 674,-191.62"/>
</g>
<!-- n115 -->
<g id="node20" class="node">
<title>n115</title>
<polygon fill="none" stroke="black" points="809.5,-180 715.5,-180 715.5,-144 809.5,-144 809.5,-180"/>
<text text-anchor="middle" x="762.5" y="-156.95" font-family="Times New Roman,serif" font-size="14.00">result.datas[it]</text>
<text text-anchor="middle" x="693.75" y="-183.2" font-family="Times New Roman,serif" font-size="14.00">(115)int</text>
</g>
<!-- n123&#45;&gt;n115 -->
<g id="edge19" class="edge">
<title>n123&#45;&gt;n115</title>
<path fill="none" stroke="black" d="M762.5,-215.7C762.5,-208.41 762.5,-199.73 762.5,-191.54"/>
<polygon fill="black" stroke="black" points="766,-191.62 762.5,-181.62 759,-191.62 766,-191.62"/>
</g>
<!-- n122 -->
<g id="node21" class="node">
<title>n122</title>
<polygon fill="none" stroke="black" points="881.5,-180 827.5,-180 827.5,-144 881.5,-144 881.5,-180"/>
<text text-anchor="middle" x="854.5" y="-156.95" font-family="Times New Roman,serif" font-size="14.00">/</text>
<text text-anchor="middle" x="805.75" y="-183.2" font-family="Times New Roman,serif" font-size="14.00">(122)int</text>
</g>
<!-- n123&#45;&gt;n122 -->
<g id="edge20" class="edge">
<title>n123&#45;&gt;n122</title>
<path fill="none" stroke="black" d="M785.24,-215.7C796.52,-207.11 810.33,-196.61 822.64,-187.24"/>
<polygon fill="black" stroke="black" points="824.66,-190.1 830.5,-181.26 820.42,-184.53 824.66,-190.1"/>
</g>
<!-- n100 -->
<g id="node22" class="node">
<title>n100</title>
<polygon fill="none" stroke="black" points="233.5,-108 179.5,-108 179.5,-72 233.5,-72 233.5,-108"/>
<text text-anchor="middle" x="206.5" y="-84.95" font-family="Times New Roman,serif" font-size="14.00">arg</text>
<text text-anchor="middle" x="149.12" y="-111.2" font-family="Times New Roman,serif" font-size="14.00">(100)Array</text>
</g>
<!-- n101&#45;&gt;n100 -->
<g id="edge21" class="edge">
<title>n101&#45;&gt;n100</title>
<path fill="none" stroke="black" d="M206.5,-143.7C206.5,-136.41 206.5,-127.73 206.5,-119.54"/>
<polygon fill="black" stroke="black" points="210,-119.62 206.5,-109.62 203,-119.62 210,-119.62"/>
</g>
<!-- n113 -->
<g id="node23" class="node">
<title>n113</title>
<polygon fill="none" stroke="black" points="718.5,-108 664.5,-108 664.5,-72 718.5,-72 718.5,-108"/>
<text text-anchor="middle" x="691.5" y="-84.95" font-family="Times New Roman,serif" font-size="14.00">result</text>
<text text-anchor="middle" x="634.12" y="-111.2" font-family="Times New Roman,serif" font-size="14.00">(113)Array</text>
</g>
<!-- n115&#45;&gt;n113 -->
<g id="edge22" class="edge">
<title>n115&#45;&gt;n113</title>
<path fill="none" stroke="black" d="M744.95,-143.7C736.52,-135.39 726.27,-125.28 717,-116.14"/>
<polygon fill="black" stroke="black" points="719.5,-113.7 709.93,-109.17 714.59,-118.68 719.5,-113.7"/>
</g>
<!-- n114 -->
<g id="node24" class="node">
<title>n114</title>
<polygon fill="none" stroke="black" points="790.5,-108 736.5,-108 736.5,-72 790.5,-72 790.5,-108"/>
<text text-anchor="middle" x="763.5" y="-84.95" font-family="Times New Roman,serif" font-size="14.00">it</text>
<text text-anchor="middle" x="714.75" y="-111.2" font-family="Times New Roman,serif" font-size="14.00">(114)int</text>
</g>
<!-- n115&#45;&gt;n114 -->
<g id="edge23" class="edge">
<title>n115&#45;&gt;n114</title>
<path fill="none" stroke="black" d="M762.75,-143.7C762.85,-136.41 762.98,-127.73 763.09,-119.54"/>
<polygon fill="black" stroke="black" points="766.59,-119.67 763.23,-109.62 759.59,-119.57 766.59,-119.67"/>
</g>
<!-- n118 -->
<g id="node25" class="node">
<title>n118</title>
<polygon fill="none" stroke="black" points="894.25,-108 810.75,-108 810.75,-72 894.25,-72 894.25,-108"/>
<text text-anchor="middle" x="852.5" y="-84.95" font-family="Times New Roman,serif" font-size="14.00">self.datas[it]</text>
<text text-anchor="middle" x="789" y="-111.2" font-family="Times New Roman,serif" font-size="14.00">(118)int</text>
</g>
<!-- n122&#45;&gt;n118 -->
<g id="edge24" class="edge">
<title>n122&#45;&gt;n118</title>
<path fill="none" stroke="black" d="M854.01,-143.7C853.8,-136.41 853.55,-127.73 853.32,-119.54"/>
<polygon fill="black" stroke="black" points="856.82,-119.51 853.03,-109.62 849.82,-119.71 856.82,-119.51"/>
</g>
<!-- n121 -->
<g id="node26" class="node">
<title>n121</title>
<polygon fill="none" stroke="black" points="993.12,-108 911.88,-108 911.88,-72 993.12,-72 993.12,-108"/>
<text text-anchor="middle" x="952.5" y="-84.95" font-family="Times New Roman,serif" font-size="14.00">arg.datas[it]</text>
<text text-anchor="middle" x="890.12" y="-111.2" font-family="Times New Roman,serif" font-size="14.00">(121)int</text>
</g>
<!-- n122&#45;&gt;n121 -->
<g id="edge25" class="edge">
<title>n122&#45;&gt;n121</title>
<path fill="none" stroke="black" d="M878.98,-143.52C891.11,-134.85 905.95,-124.25 919.11,-114.85"/>
<polygon fill="black" stroke="black" points="921,-117.8 927.1,-109.14 916.93,-112.1 921,-117.8"/>
</g>
<!-- n116 -->
<g id="node27" class="node">
<title>n116</title>
<polygon fill="none" stroke="black" points="814.5,-36 760.5,-36 760.5,0 814.5,0 814.5,-36"/>
<text text-anchor="middle" x="787.5" y="-12.95" font-family="Times New Roman,serif" font-size="14.00">self</text>
<text text-anchor="middle" x="730.12" y="-39.2" font-family="Times New Roman,serif" font-size="14.00">(116)Array</text>
</g>
<!-- n118&#45;&gt;n116 -->
<g id="edge26" class="edge">
<title>n118&#45;&gt;n116</title>
<path fill="none" stroke="black" d="M836.43,-71.7C828.8,-63.47 819.52,-53.48 811.1,-44.42"/>
<polygon fill="black" stroke="black" points="813.78,-42.16 804.41,-37.21 808.65,-46.92 813.78,-42.16"/>
</g>
<!-- n117 -->
<g id="node28" class="node">
<title>n117</title>
<polygon fill="none" stroke="black" points="886.5,-36 832.5,-36 832.5,0 886.5,0 886.5,-36"/>
<text text-anchor="middle" x="859.5" y="-12.95" font-family="Times New Roman,serif" font-size="14.00">it</text>
<text text-anchor="middle" x="810.75" y="-39.2" font-family="Times New Roman,serif" font-size="14.00">(117)int</text>
</g>
<!-- n118&#45;&gt;n117 -->
<g id="edge27" class="edge">
<title>n118&#45;&gt;n117</title>
<path fill="none" stroke="black" d="M854.23,-71.7C854.96,-64.41 855.83,-55.73 856.65,-47.54"/>
<polygon fill="black" stroke="black" points="860.13,-47.91 857.64,-37.61 853.16,-47.21 860.13,-47.91"/>
</g>
<!-- n119 -->
<g id="node29" class="node">
<title>n119</title>
<polygon fill="none" stroke="black" points="972.5,-36 918.5,-36 918.5,0 972.5,0 972.5,-36"/>
<text text-anchor="middle" x="945.5" y="-12.95" font-family="Times New Roman,serif" font-size="14.00">arg</text>
<text text-anchor="middle" x="888.12" y="-39.2" font-family="Times New Roman,serif" font-size="14.00">(119)Array</text>
</g>
<!-- n121&#45;&gt;n119 -->
<g id="edge28" class="edge">
<title>n121&#45;&gt;n119</title>
<path fill="none" stroke="black" d="M950.77,-71.7C950.04,-64.41 949.17,-55.73 948.35,-47.54"/>
<polygon fill="black" stroke="black" points="951.84,-47.21 947.36,-37.61 944.87,-47.91 951.84,-47.21"/>
</g>
<!-- n120 -->
<g id="node30" class="node">
<title>n120</title>
<polygon fill="none" stroke="black" points="1044.5,-36 990.5,-36 990.5,0 1044.5,0 1044.5,-36"/>
<text text-anchor="middle" x="1017.5" y="-12.95" font-family="Times New Roman,serif" font-size="14.00">it</text>
<text text-anchor="middle" x="968.75" y="-39.2" font-family="Times New Roman,serif" font-size="14.00">(120)int</text>
</g>
<!-- n121&#45;&gt;n120 -->
<g id="edge29" class="edge">
<title>n121&#45;&gt;n120</title>
<path fill="none" stroke="black" d="M968.57,-71.7C976.2,-63.47 985.48,-53.48 993.9,-44.42"/>
<polygon fill="black" stroke="black" points="996.35,-46.92 1000.59,-37.21 991.22,-42.16 996.35,-46.92"/>
</g>
</g>
</svg>
