<?xml version="1.0" encoding="UTF-8" standalone="no"?>
<!DOCTYPE svg PUBLIC "-//W3C//DTD SVG 1.1//EN"
 "http://www.w3.org/Graphics/SVG/1.1/DTD/svg11.dtd">
<!-- Generated by graphviz version 12.2.1 (20241206.2353)
 -->
<!-- Title: AST Pages: 1 -->
<svg width="312pt" height="349pt"
 viewBox="0.00 0.00 311.88 348.50" xmlns="http://www.w3.org/2000/svg" xmlns:xlink="http://www.w3.org/1999/xlink">
<g id="graph0" class="graph" transform="scale(1 1) rotate(0) translate(4 344.5)">
<title>AST</title>
<polygon fill="white" stroke="none" points="-4,4 -4,-344.5 307.88,-344.5 307.88,4 -4,4"/>
<!-- n134 -->
<g id="node1" class="node">
<title>n134</title>
<polygon fill="none" stroke="black" points="298.62,-324 38.12,-324 38.12,-288 298.62,-288 298.62,-324"/>
<text text-anchor="middle" x="168.38" y="-300.95" font-family="Times New Roman,serif" font-size="14.00">ContextDecl: node(128) Context: node (133)</text>
<text text-anchor="middle" x="23.5" y="-327.2" font-family="Times New Roman,serif" font-size="14.00">(134)</text>
</g>
<!-- n128 -->
<g id="node2" class="node">
<title>n128</title>
<polygon fill="none" stroke="black" points="185.5,-252 29.25,-252 29.25,-216 185.5,-216 185.5,-252"/>
<text text-anchor="middle" x="107.38" y="-228.95" font-family="Times New Roman,serif" font-size="14.00">Array::getData() : int[5][]</text>
<text text-anchor="middle" x="14.62" y="-255.2" font-family="Times New Roman,serif" font-size="14.00">(128)</text>
</g>
<!-- n134&#45;&gt;n128 -->
<g id="edge1" class="edge">
<title>n134&#45;&gt;n128</title>
<path fill="none" stroke="black" d="M153.3,-287.7C146.2,-279.56 137.6,-269.69 129.77,-260.7"/>
<polygon fill="black" stroke="black" points="132.48,-258.49 123.27,-253.25 127.21,-263.08 132.48,-258.49"/>
</g>
<!-- n133 -->
<g id="node3" class="node">
<title>n133</title>
<polygon fill="none" stroke="black" points="257.38,-252 203.38,-252 203.38,-216 257.38,-216 257.38,-252"/>
<text text-anchor="middle" x="230.38" y="-228.95" font-family="Times New Roman,serif" font-size="14.00"> post:</text>
<text text-anchor="middle" x="166.25" y="-255.2" font-family="Times New Roman,serif" font-size="14.00">(133)Boolean</text>
</g>
<!-- n134&#45;&gt;n133 -->
<g id="edge2" class="edge">
<title>n134&#45;&gt;n133</title>
<path fill="none" stroke="black" d="M183.7,-287.7C190.91,-279.56 199.65,-269.69 207.61,-260.7"/>
<polygon fill="black" stroke="black" points="210.21,-263.04 214.22,-253.24 204.97,-258.4 210.21,-263.04"/>
</g>
<!-- n132 -->
<g id="node4" class="node">
<title>n132</title>
<polygon fill="none" stroke="black" points="257.38,-180 203.38,-180 203.38,-144 257.38,-144 257.38,-180"/>
<text text-anchor="middle" x="230.38" y="-156.95" font-family="Times New Roman,serif" font-size="14.00">=</text>
<text text-anchor="middle" x="166.25" y="-183.2" font-family="Times New Roman,serif" font-size="14.00">(132)Boolean</text>
</g>
<!-- n133&#45;&gt;n132 -->
<g id="edge3" class="edge">
<title>n133&#45;&gt;n132</title>
<path fill="none" stroke="black" d="M230.38,-215.7C230.38,-208.41 230.38,-199.73 230.38,-191.54"/>
<polygon fill="black" stroke="black" points="233.88,-191.62 230.38,-181.62 226.88,-191.62 233.88,-191.62"/>
</g>
<!-- n129 -->
<g id="node5" class="node">
<title>n129</title>
<polygon fill="none" stroke="black" points="218.38,-108 164.38,-108 164.38,-72 218.38,-72 218.38,-108"/>
<text text-anchor="middle" x="191.38" y="-84.95" font-family="Times New Roman,serif" font-size="14.00">result</text>
<text text-anchor="middle" x="130.25" y="-111.2" font-family="Times New Roman,serif" font-size="14.00">(129)int[5][]</text>
</g>
<!-- n132&#45;&gt;n129 -->
<g id="edge4" class="edge">
<title>n132&#45;&gt;n129</title>
<path fill="none" stroke="black" d="M220.73,-143.7C216.44,-135.98 211.27,-126.71 206.48,-118.11"/>
<polygon fill="black" stroke="black" points="209.57,-116.46 201.64,-109.43 203.45,-119.87 209.57,-116.46"/>
</g>
<!-- n131 -->
<g id="node6" class="node">
<title>n131</title>
<polygon fill="none" stroke="black" points="303.88,-108 236.88,-108 236.88,-72 303.88,-72 303.88,-108"/>
<text text-anchor="middle" x="270.38" y="-84.95" font-family="Times New Roman,serif" font-size="14.00">self.datas</text>
<text text-anchor="middle" x="207.25" y="-111.2" font-family="Times New Roman,serif" font-size="14.00">(131)int[5]</text>
</g>
<!-- n132&#45;&gt;n131 -->
<g id="edge5" class="edge">
<title>n132&#45;&gt;n131</title>
<path fill="none" stroke="black" d="M240.26,-143.7C244.72,-135.9 250.08,-126.51 255.04,-117.83"/>
<polygon fill="black" stroke="black" points="257.93,-119.84 259.85,-109.42 251.85,-116.36 257.93,-119.84"/>
</g>
<!-- n130 -->
<g id="node7" class="node">
<title>n130</title>
<polygon fill="none" stroke="black" points="297.38,-36 243.38,-36 243.38,0 297.38,0 297.38,-36"/>
<text text-anchor="middle" x="270.38" y="-12.95" font-family="Times New Roman,serif" font-size="14.00">self</text>
<text text-anchor="middle" x="213" y="-39.2" font-family="Times New Roman,serif" font-size="14.00">(130)Array</text>
</g>
<!-- n131&#45;&gt;n130 -->
<g id="edge6" class="edge">
<title>n131&#45;&gt;n130</title>
<path fill="none" stroke="black" d="M270.38,-71.7C270.38,-64.41 270.38,-55.73 270.38,-47.54"/>
<polygon fill="black" stroke="black" points="273.88,-47.62 270.38,-37.62 266.88,-47.62 273.88,-47.62"/>
</g>
</g>
</svg>
