<?xml version="1.0" encoding="UTF-8" standalone="no"?>
<!DOCTYPE svg PUBLIC "-//W3C//DTD SVG 1.1//EN"
 "http://www.w3.org/Graphics/SVG/1.1/DTD/svg11.dtd">
<!-- Generated by graphviz version 12.2.1 (20241206.2353)
 -->
<!-- Title: CLG Pages: 1 -->
<svg width="345pt" height="517pt"
 viewBox="0.00 0.00 345.12 517.10" xmlns="http://www.w3.org/2000/svg" xmlns:xlink="http://www.w3.org/1999/xlink">
<g id="graph0" class="graph" transform="scale(1 1) rotate(0) translate(4 513.1)">
<title>CLG</title>
<polygon fill="white" stroke="none" points="-4,4 -4,-513.1 341.12,-513.1 341.12,4 -4,4"/>
<!-- 18 -->
<g id="node1" class="node">
<title>18</title>
<polygon fill="aquamarine" stroke="black" points="193.62,-425.7 186.43,-418.5 193.62,-411.3 200.82,-418.5 193.62,-425.7"/>
<text text-anchor="middle" x="171.43" y="-428.9" font-family="Times New Roman,serif" font-size="14.00">&lt;18&gt;</text>
</g>
<!-- 4 -->
<g id="node3" class="node">
<title>4</title>
<polygon fill="yellow" stroke="black" points="185.25,-358.8 80,-358.8 80,-251.8 185.25,-251.8 185.25,-358.8"/>
<text text-anchor="middle" x="132.62" y="-341.5" font-family="Times New Roman,serif" font-size="14.00">sa + sb &lt;= sc or</text>
<text text-anchor="middle" x="132.62" y="-325" font-family="Times New Roman,serif" font-size="14.00">sb + sc &lt;= sa or</text>
<text text-anchor="middle" x="132.62" y="-308.5" font-family="Times New Roman,serif" font-size="14.00">sa + sc &lt;= sb or</text>
<text text-anchor="middle" x="132.62" y="-292" font-family="Times New Roman,serif" font-size="14.00">sa &lt;= 0 or</text>
<text text-anchor="middle" x="132.62" y="-275.5" font-family="Times New Roman,serif" font-size="14.00">sb &lt;= 0 or</text>
<text text-anchor="middle" x="132.62" y="-259" font-family="Times New Roman,serif" font-size="14.00">sc &lt;= 0</text>
<text text-anchor="middle" x="72.12" y="-362" font-family="Times New Roman,serif" font-size="14.00">[4]</text>
</g>
<!-- 18&#45;&gt;4 -->
<g id="edge1" class="edge">
<title>18&#45;&gt;4</title>
<path fill="none" stroke="black" d="M190.26,-414.31C185.76,-409.9 177.72,-401.56 172.38,-393.3 167.5,-385.77 162.91,-377.54 158.7,-369.25"/>
<polygon fill="black" stroke="black" points="161.97,-367.95 154.44,-360.5 155.68,-371.02 161.97,-367.95"/>
<text text-anchor="middle" x="197.5" y="-380" font-family="Times New Roman,serif" font-size="14.00">split2#16</text>
</g>
<!-- 10 -->
<g id="node7" class="node">
<title>10</title>
<polygon fill="yellow" stroke="black" points="312.25,-358.8 207,-358.8 207,-251.8 312.25,-251.8 312.25,-358.8"/>
<text text-anchor="middle" x="259.62" y="-341.5" font-family="Times New Roman,serif" font-size="14.00">sa + sb &gt; sc and</text>
<text text-anchor="middle" x="259.62" y="-325" font-family="Times New Roman,serif" font-size="14.00">sb + sc &gt; sa and</text>
<text text-anchor="middle" x="259.62" y="-308.5" font-family="Times New Roman,serif" font-size="14.00">sa + sc &gt; sb and</text>
<text text-anchor="middle" x="259.62" y="-292" font-family="Times New Roman,serif" font-size="14.00">sa &gt; 0 and</text>
<text text-anchor="middle" x="259.62" y="-275.5" font-family="Times New Roman,serif" font-size="14.00">sb &gt; 0 and</text>
<text text-anchor="middle" x="259.62" y="-259" font-family="Times New Roman,serif" font-size="14.00">sc &gt; 0</text>
<text text-anchor="middle" x="195.75" y="-362" font-family="Times New Roman,serif" font-size="14.00">[10]</text>
</g>
<!-- 18&#45;&gt;10 -->
<g id="edge8" class="edge">
<title>18&#45;&gt;10</title>
<path fill="none" stroke="black" d="M197.51,-415.13C203.6,-411.25 215.43,-402.99 222.62,-393.3 228.05,-385.99 232.86,-377.77 237.07,-369.37"/>
<polygon fill="black" stroke="black" points="240.18,-370.99 241.26,-360.45 233.84,-368.01 240.18,-370.99"/>
<text text-anchor="middle" x="257.5" y="-380" font-family="Times New Roman,serif" font-size="14.00">split1#15</text>
</g>
<!-- 19 -->
<g id="node2" class="node">
<title>19</title>
<polygon fill="aquamarine" stroke="black" points="184.62,-89.3 177.43,-82.1 184.62,-74.9 191.82,-82.1 184.62,-89.3"/>
<text text-anchor="middle" x="162.43" y="-92.5" font-family="Times New Roman,serif" font-size="14.00">&lt;19&gt;</text>
</g>
<!-- 8 -->
<g id="node5" class="node">
<title>8</title>
<ellipse fill="black" stroke="black" cx="184.62" cy="-11.2" rx="7.2" ry="7.2"/>
<ellipse fill="none" stroke="black" cx="184.62" cy="-11.2" rx="11.2" ry="11.2"/>
<text text-anchor="middle" x="163.3" y="-25.6" font-family="Times New Roman,serif" font-size="14.00">[&#45;1]</text>
</g>
<!-- 19&#45;&gt;8 -->
<g id="edge4" class="edge">
<title>19&#45;&gt;8</title>
<path fill="none" stroke="black" d="M184.62,-74.24C184.62,-64.87 184.62,-47.63 184.62,-33.7"/>
<polygon fill="black" stroke="black" points="188.13,-34.11 184.63,-24.11 181.13,-34.11 188.13,-34.11"/>
<text text-anchor="middle" x="230.38" y="-43.6" font-family="Times New Roman,serif" font-size="14.00">graphOr_end#19</text>
</g>
<!-- 7 -->
<g id="node4" class="node">
<title>7</title>
<polygon fill="yellow" stroke="black" points="197.5,-188.55 15.75,-188.55 15.75,-152.55 197.5,-152.55 197.5,-188.55"/>
<text text-anchor="middle" x="106.62" y="-165.5" font-family="Times New Roman,serif" font-size="14.00">Result = &#39;EdgeErrorException&#39;</text>
<text text-anchor="middle" x="7.88" y="-191.75" font-family="Times New Roman,serif" font-size="14.00">[7]</text>
</g>
<!-- 4&#45;&gt;7 -->
<g id="edge5" class="edge">
<title>4&#45;&gt;7</title>
<path fill="none" stroke="black" d="M122.27,-251.45C118.83,-233.88 115.13,-214.99 112.19,-199.99"/>
<polygon fill="black" stroke="black" points="115.67,-199.52 110.31,-190.38 108.8,-200.86 115.67,-199.52"/>
<text text-anchor="middle" x="155.19" y="-220.5" font-family="Times New Roman,serif" font-size="14.00">graphAnd#10</text>
</g>
<!-- 7&#45;&gt;19 -->
<g id="edge3" class="edge">
<title>7&#45;&gt;19</title>
<path fill="none" stroke="black" d="M121.84,-152.29C132.94,-139.75 148.38,-122.4 162.12,-107.3 165.84,-103.22 169.94,-98.78 173.62,-94.84"/>
<polygon fill="black" stroke="black" points="176.09,-97.32 180.36,-87.63 170.98,-92.54 176.09,-97.32"/>
<text text-anchor="middle" x="192.88" y="-110.5" font-family="Times New Roman,serif" font-size="14.00">merge2#18</text>
</g>
<!-- 9 -->
<g id="node6" class="node">
<title>9</title>
<ellipse fill="black" stroke="black" cx="193.62" cy="-485.4" rx="7.2" ry="7.2"/>
<text text-anchor="middle" x="178.55" y="-495.8" font-family="Times New Roman,serif" font-size="14.00">[0]</text>
</g>
<!-- 9&#45;&gt;18 -->
<g id="edge7" class="edge">
<title>9&#45;&gt;18</title>
<path fill="none" stroke="black" d="M193.62,-477.94C193.62,-468.61 193.62,-451.01 193.62,-437.55"/>
<polygon fill="black" stroke="black" points="197.13,-437.84 193.63,-427.84 190.13,-437.84 197.13,-437.84"/>
<text text-anchor="middle" x="241.25" y="-446.9" font-family="Times New Roman,serif" font-size="14.00">graphOr_start#14</text>
</g>
<!-- 13 -->
<g id="node8" class="node">
<title>13</title>
<polygon fill="yellow" stroke="black" points="313.5,-199.3 215.75,-199.3 215.75,-141.8 313.5,-141.8 313.5,-199.3"/>
<text text-anchor="middle" x="264.62" y="-182" font-family="Times New Roman,serif" font-size="14.00">sideA = sa and</text>
<text text-anchor="middle" x="264.62" y="-165.5" font-family="Times New Roman,serif" font-size="14.00">sideB = sb and</text>
<text text-anchor="middle" x="264.62" y="-149" font-family="Times New Roman,serif" font-size="14.00">sideC = sc</text>
<text text-anchor="middle" x="204.5" y="-202.5" font-family="Times New Roman,serif" font-size="14.00">[13]</text>
</g>
<!-- 10&#45;&gt;13 -->
<g id="edge6" class="edge">
<title>10&#45;&gt;13</title>
<path fill="none" stroke="black" d="M261.62,-251.45C262.13,-237.83 262.67,-223.42 263.15,-210.64"/>
<polygon fill="black" stroke="black" points="266.64,-211.08 263.52,-200.95 259.64,-210.81 266.64,-211.08"/>
<text text-anchor="middle" x="299.99" y="-220.5" font-family="Times New Roman,serif" font-size="14.00">graphAnd#11</text>
</g>
<!-- 13&#45;&gt;19 -->
<g id="edge2" class="edge">
<title>13&#45;&gt;19</title>
<path fill="none" stroke="black" d="M249.78,-141.59C242.83,-130.12 233.83,-117.23 223.62,-107.3 216.57,-100.44 207.25,-94.56 199.48,-90.32"/>
<polygon fill="black" stroke="black" points="201.25,-87.29 190.75,-85.9 198.09,-93.54 201.25,-87.29"/>
<text text-anchor="middle" x="267.76" y="-110.5" font-family="Times New Roman,serif" font-size="14.00">merge1#17</text>
</g>
</g>
</svg>
