<?xml version="1.0" encoding="UTF-8" standalone="no"?>
<!DOCTYPE svg PUBLIC "-//W3C//DTD SVG 1.1//EN"
 "http://www.w3.org/Graphics/SVG/1.1/DTD/svg11.dtd">
<!-- Generated by graphviz version 13.1.2 (20250808.2320)
 -->
<!-- Title: CLG Pages: 1 -->
<svg width="187pt" height="240pt"
 viewBox="0.00 0.00 187.00 240.00" xmlns="http://www.w3.org/2000/svg" xmlns:xlink="http://www.w3.org/1999/xlink">
<g id="graph0" class="graph" transform="scale(1 1) rotate(0) translate(4 236.3)">
<title>CLG</title>
<polygon fill="white" stroke="none" points="-4,4 -4,-236.3 182.75,-236.3 182.75,4 -4,4"/>
<!-- 0 -->
<g id="node1" class="node">
<title>0</title>
<ellipse fill="black" stroke="black" cx="97.25" cy="-208.6" rx="7.2" ry="7.2"/>
<text xml:space="preserve" text-anchor="middle" x="82.17" y="-219" font-family="Times New Roman,serif" font-size="14.00">[0]</text>
</g>
<!-- 1 -->
<g id="node2" class="node">
<title>1</title>
<polygon fill="yellow" stroke="black" points="178.75,-165.4 15.75,-165.4 15.75,-58.4 178.75,-58.4 178.75,-165.4"/>
<text xml:space="preserve" text-anchor="middle" x="97.25" y="-148.1" font-family="Times New Roman,serif" font-size="14.00">sideA + sideB &gt; sideC and</text>
<text xml:space="preserve" text-anchor="middle" x="97.25" y="-131.6" font-family="Times New Roman,serif" font-size="14.00">sideB + sideC &gt; sideA and</text>
<text xml:space="preserve" text-anchor="middle" x="97.25" y="-115.1" font-family="Times New Roman,serif" font-size="14.00">sideA + sideC &gt; sideB and</text>
<text xml:space="preserve" text-anchor="middle" x="97.25" y="-98.6" font-family="Times New Roman,serif" font-size="14.00">sideA &gt; 0 and</text>
<text xml:space="preserve" text-anchor="middle" x="97.25" y="-82.1" font-family="Times New Roman,serif" font-size="14.00">sideB &gt; 0 and</text>
<text xml:space="preserve" text-anchor="middle" x="97.25" y="-65.6" font-family="Times New Roman,serif" font-size="14.00">sideC &gt; 0</text>
<text xml:space="preserve" text-anchor="middle" x="7.88" y="-168.6" font-family="Times New Roman,serif" font-size="14.00">[1]</text>
</g>
<!-- 0&#45;&gt;1 -->
<g id="edge1" class="edge">
<title>0&#45;&gt;1</title>
<path fill="none" stroke="black" d="M97.25,-201.09C97.25,-195.5 97.25,-186.82 97.25,-177.04"/>
<polygon fill="black" stroke="black" points="100.75,-177.15 97.25,-167.15 93.75,-177.15 100.75,-177.15"/>
</g>
<!-- 2 -->
<g id="node3" class="node">
<title>2</title>
<ellipse fill="black" stroke="black" cx="97.25" cy="-11.2" rx="7.2" ry="7.2"/>
<ellipse fill="none" stroke="black" cx="97.25" cy="-11.2" rx="11.2" ry="11.2"/>
<text xml:space="preserve" text-anchor="middle" x="75.92" y="-25.6" font-family="Times New Roman,serif" font-size="14.00">[&#45;1]</text>
</g>
<!-- 1&#45;&gt;2 -->
<g id="edge2" class="edge">
<title>1&#45;&gt;2</title>
<path fill="none" stroke="black" d="M97.25,-58.08C97.25,-49.6 97.25,-41.26 97.25,-34.06"/>
<polygon fill="black" stroke="black" points="100.75,-34.08 97.25,-24.08 93.75,-34.08 100.75,-34.08"/>
</g>
</g>
</svg>
