<?xml version="1.0" encoding="UTF-8" standalone="no"?>
<!DOCTYPE svg PUBLIC "-//W3C//DTD SVG 1.1//EN"
 "http://www.w3.org/Graphics/SVG/1.1/DTD/svg11.dtd">
<!-- Generated by graphviz version 13.1.2 (20250808.2320)
 -->
<!-- Title: CLG Pages: 1 -->
<svg width="646pt" height="1056pt"
 viewBox="0.00 0.00 646.00 1056.00" xmlns="http://www.w3.org/2000/svg" xmlns:xlink="http://www.w3.org/1999/xlink">
<g id="graph0" class="graph" transform="scale(1 1) rotate(0) translate(4 1052.4)">
<title>CLG</title>
<polygon fill="white" stroke="none" points="-4,4 -4,-1052.4 642.2,-1052.4 642.2,4 -4,4"/>
<!-- 64 -->
<g id="node1" class="node">
<title>64</title>
<polygon fill="aquamarine" stroke="black" points="306,-156.2 298.8,-149 306,-141.8 313.2,-149 306,-156.2"/>
<text xml:space="preserve" text-anchor="middle" x="283.8" y="-159.4" font-family="Times New Roman,serif" font-size="14.00">&lt;64&gt;</text>
</g>
<!-- 66 -->
<g id="node3" class="node">
<title>66</title>
<polygon fill="aquamarine" stroke="black" points="229,-89.3 221.8,-82.1 229,-74.9 236.2,-82.1 229,-89.3"/>
<text xml:space="preserve" text-anchor="middle" x="206.8" y="-92.5" font-family="Times New Roman,serif" font-size="14.00">&lt;66&gt;</text>
</g>
<!-- 64&#45;&gt;66 -->
<g id="edge10" class="edge">
<title>64&#45;&gt;66</title>
<path fill="none" stroke="black" d="M302.29,-144.87C291.39,-135.68 259.14,-108.51 241.27,-93.44"/>
<polygon fill="black" stroke="black" points="243.56,-90.79 233.66,-87.02 239.05,-96.15 243.56,-90.79"/>
<text xml:space="preserve" text-anchor="middle" x="307.41" y="-110.5" font-family="Times New Roman,serif" font-size="14.00">merge2#76</text>
</g>
<!-- 65 -->
<g id="node2" class="node">
<title>65</title>
<polygon fill="aquamarine" stroke="black" points="271,-821 263.8,-813.8 271,-806.6 278.2,-813.8 271,-821"/>
<text xml:space="preserve" text-anchor="middle" x="248.8" y="-824.2" font-family="Times New Roman,serif" font-size="14.00">&lt;65&gt;</text>
</g>
<!-- 21 -->
<g id="node6" class="node">
<title>21</title>
<polygon fill="yellow" stroke="black" points="260.62,-754.1 167.38,-754.1 167.38,-718.1 260.62,-718.1 260.62,-754.1"/>
<text xml:space="preserve" text-anchor="middle" x="214" y="-731.05" font-family="Times New Roman,serif" font-size="14.00">sideA = sideB</text>
<text xml:space="preserve" text-anchor="middle" x="156.12" y="-757.3" font-family="Times New Roman,serif" font-size="14.00">[21]</text>
</g>
<!-- 65&#45;&gt;21 -->
<g id="edge7" class="edge">
<title>65&#45;&gt;21</title>
<path fill="none" stroke="black" d="M267.46,-809.92C262.31,-805.61 252.62,-797.1 245.75,-788.6 239.72,-781.13 233.94,-772.43 229.01,-764.33"/>
<polygon fill="black" stroke="black" points="232.11,-762.69 224.03,-755.83 226.07,-766.23 232.11,-762.69"/>
<text xml:space="preserve" text-anchor="middle" x="270.88" y="-775.3" font-family="Times New Roman,serif" font-size="14.00">split1#73</text>
</g>
<!-- 38 -->
<g id="node13" class="node">
<title>38</title>
<polygon fill="yellow" stroke="black" points="379.75,-754.1 278.25,-754.1 278.25,-718.1 379.75,-718.1 379.75,-754.1"/>
<text xml:space="preserve" text-anchor="middle" x="329" y="-731.05" font-family="Times New Roman,serif" font-size="14.00">sideA &lt;&gt; sideB</text>
<text xml:space="preserve" text-anchor="middle" x="267" y="-757.3" font-family="Times New Roman,serif" font-size="14.00">[38]</text>
</g>
<!-- 65&#45;&gt;38 -->
<g id="edge8" class="edge">
<title>65&#45;&gt;38</title>
<path fill="none" stroke="black" d="M274.48,-809.89C279.55,-805.56 289.11,-797.02 296,-788.6 302.15,-781.09 308.11,-772.37 313.24,-764.28"/>
<polygon fill="black" stroke="black" points="316.21,-766.13 318.45,-755.77 310.24,-762.47 316.21,-766.13"/>
<text xml:space="preserve" text-anchor="middle" x="333.07" y="-775.3" font-family="Times New Roman,serif" font-size="14.00">split2#74</text>
</g>
<!-- 60 -->
<g id="node21" class="node">
<title>60</title>
<ellipse fill="black" stroke="black" cx="229" cy="-11.2" rx="7.2" ry="7.2"/>
<ellipse fill="none" stroke="black" cx="229" cy="-11.2" rx="11.2" ry="11.2"/>
<text xml:space="preserve" text-anchor="middle" x="207.68" y="-25.6" font-family="Times New Roman,serif" font-size="14.00">[&#45;1]</text>
</g>
<!-- 66&#45;&gt;60 -->
<g id="edge11" class="edge">
<title>66&#45;&gt;60</title>
<path fill="none" stroke="black" d="M229,-74.24C229,-64.87 229,-47.63 229,-33.7"/>
<polygon fill="black" stroke="black" points="232.5,-34.11 229,-24.11 225.5,-34.11 232.5,-34.11"/>
<text xml:space="preserve" text-anchor="middle" x="274.75" y="-43.6" font-family="Times New Roman,serif" font-size="14.00">graphOr_end#77</text>
</g>
<!-- 67 -->
<g id="node4" class="node">
<title>67</title>
<ellipse fill="black" stroke="black" cx="271" cy="-1024.7" rx="7.2" ry="7.2"/>
<text xml:space="preserve" text-anchor="middle" x="255.93" y="-1035.1" font-family="Times New Roman,serif" font-size="14.00">[0]</text>
</g>
<!-- 68 -->
<g id="node5" class="node">
<title>68</title>
<polygon fill="yellow" stroke="black" points="352.5,-980.5 189.5,-980.5 189.5,-873.5 352.5,-873.5 352.5,-980.5"/>
<text xml:space="preserve" text-anchor="middle" x="271" y="-963.2" font-family="Times New Roman,serif" font-size="14.00">sideA + sideB &gt; sideC and</text>
<text xml:space="preserve" text-anchor="middle" x="271" y="-946.7" font-family="Times New Roman,serif" font-size="14.00">sideB + sideC &gt; sideA and</text>
<text xml:space="preserve" text-anchor="middle" x="271" y="-930.2" font-family="Times New Roman,serif" font-size="14.00">sideA + sideC &gt; sideB and</text>
<text xml:space="preserve" text-anchor="middle" x="271" y="-913.7" font-family="Times New Roman,serif" font-size="14.00">sideA &gt; 0 and</text>
<text xml:space="preserve" text-anchor="middle" x="271" y="-897.2" font-family="Times New Roman,serif" font-size="14.00">sideB &gt; 0 and</text>
<text xml:space="preserve" text-anchor="middle" x="271" y="-880.7" font-family="Times New Roman,serif" font-size="14.00">sideC &gt; 0</text>
<text xml:space="preserve" text-anchor="middle" x="178.25" y="-983.7" font-family="Times New Roman,serif" font-size="14.00">[68]</text>
</g>
<!-- 67&#45;&gt;68 -->
<g id="edge12" class="edge">
<title>67&#45;&gt;68</title>
<path fill="none" stroke="black" d="M271,-1017.12C271,-1011.35 271,-1002.32 271,-992.17"/>
<polygon fill="black" stroke="black" points="274.5,-992.34 271,-982.34 267.5,-992.34 274.5,-992.34"/>
</g>
<!-- 68&#45;&gt;65 -->
<g id="edge13" class="edge">
<title>68&#45;&gt;65</title>
<path fill="none" stroke="black" d="M271,-873.01C271,-858.53 271,-843.82 271,-832.81"/>
<polygon fill="black" stroke="black" points="274.5,-832.99 271,-822.99 267.5,-832.99 274.5,-832.99"/>
<text xml:space="preserve" text-anchor="middle" x="308.12" y="-842.2" font-family="Times New Roman,serif" font-size="14.00">graphAnd#80</text>
</g>
<!-- 35 -->
<g id="node11" class="node">
<title>35</title>
<polygon fill="aquamarine" stroke="black" points="214,-665.6 206.8,-658.4 214,-651.2 221.2,-658.4 214,-665.6"/>
<text xml:space="preserve" text-anchor="middle" x="191.8" y="-668.8" font-family="Times New Roman,serif" font-size="14.00">&lt;35&gt;</text>
</g>
<!-- 21&#45;&gt;35 -->
<g id="edge5" class="edge">
<title>21&#45;&gt;35</title>
<path fill="none" stroke="black" d="M214,-717.92C214,-705.88 214,-689.8 214,-677.55"/>
<polygon fill="black" stroke="black" points="217.5,-677.64 214,-667.64 210.5,-677.64 217.5,-677.64"/>
<text xml:space="preserve" text-anchor="middle" x="251.12" y="-686.8" font-family="Times New Roman,serif" font-size="14.00">graphAnd#70</text>
</g>
<!-- 24 -->
<g id="node7" class="node">
<title>24</title>
<polygon fill="yellow" stroke="black" points="143.62,-598.7 50.38,-598.7 50.38,-562.7 143.62,-562.7 143.62,-598.7"/>
<text xml:space="preserve" text-anchor="middle" x="97" y="-575.65" font-family="Times New Roman,serif" font-size="14.00">sideB = sideC</text>
<text xml:space="preserve" text-anchor="middle" x="39.12" y="-601.9" font-family="Times New Roman,serif" font-size="14.00">[24]</text>
</g>
<!-- 27 -->
<g id="node8" class="node">
<title>27</title>
<polygon fill="yellow" stroke="black" points="143.5,-510.2 22.5,-510.2 22.5,-474.2 143.5,-474.2 143.5,-510.2"/>
<text xml:space="preserve" text-anchor="middle" x="83" y="-487.15" font-family="Times New Roman,serif" font-size="14.00">result = Equilateral</text>
<text xml:space="preserve" text-anchor="middle" x="11.25" y="-513.4" font-family="Times New Roman,serif" font-size="14.00">[27]</text>
</g>
<!-- 24&#45;&gt;27 -->
<g id="edge14" class="edge">
<title>24&#45;&gt;27</title>
<path fill="none" stroke="black" d="M94.23,-562.61C92.35,-550.96 89.81,-535.25 87.62,-521.72"/>
<polygon fill="black" stroke="black" points="91.1,-521.36 86.05,-512.04 84.19,-522.48 91.1,-521.36"/>
<text xml:space="preserve" text-anchor="middle" x="128.38" y="-531.4" font-family="Times New Roman,serif" font-size="14.00">graphAnd#30</text>
</g>
<!-- 36 -->
<g id="node12" class="node">
<title>36</title>
<polygon fill="aquamarine" stroke="black" points="207,-391.4 199.8,-384.2 207,-377 214.2,-384.2 207,-391.4"/>
<text xml:space="preserve" text-anchor="middle" x="184.8" y="-394.6" font-family="Times New Roman,serif" font-size="14.00">&lt;36&gt;</text>
</g>
<!-- 27&#45;&gt;36 -->
<g id="edge18" class="edge">
<title>27&#45;&gt;36</title>
<path fill="none" stroke="black" d="M92.82,-473.9C102.36,-458.29 118.09,-435.48 136.5,-420.2 153.26,-406.29 176.47,-396.13 191.61,-390.45"/>
<polygon fill="black" stroke="black" points="192.42,-393.88 200.68,-387.25 190.09,-387.28 192.42,-393.88"/>
<text xml:space="preserve" text-anchor="middle" x="167.25" y="-433.15" font-family="Times New Roman,serif" font-size="14.00">merge1#35</text>
</g>
<!-- 30 -->
<g id="node9" class="node">
<title>30</title>
<polygon fill="yellow" stroke="black" points="264.75,-598.7 163.25,-598.7 163.25,-562.7 264.75,-562.7 264.75,-598.7"/>
<text xml:space="preserve" text-anchor="middle" x="214" y="-575.65" font-family="Times New Roman,serif" font-size="14.00">sideB &lt;&gt; sideC</text>
<text xml:space="preserve" text-anchor="middle" x="152" y="-601.9" font-family="Times New Roman,serif" font-size="14.00">[30]</text>
</g>
<!-- 33 -->
<g id="node10" class="node">
<title>33</title>
<polygon fill="yellow" stroke="black" points="272.25,-510.2 161.75,-510.2 161.75,-474.2 272.25,-474.2 272.25,-510.2"/>
<text xml:space="preserve" text-anchor="middle" x="217" y="-487.15" font-family="Times New Roman,serif" font-size="14.00">result = Isosceles</text>
<text xml:space="preserve" text-anchor="middle" x="150.5" y="-513.4" font-family="Times New Roman,serif" font-size="14.00">[33]</text>
</g>
<!-- 30&#45;&gt;33 -->
<g id="edge15" class="edge">
<title>30&#45;&gt;33</title>
<path fill="none" stroke="black" d="M214.59,-562.61C215,-550.96 215.54,-535.25 216.01,-521.72"/>
<polygon fill="black" stroke="black" points="219.5,-522.18 216.35,-512.06 212.5,-521.94 219.5,-522.18"/>
<text xml:space="preserve" text-anchor="middle" x="252.89" y="-531.4" font-family="Times New Roman,serif" font-size="14.00">graphAnd#31</text>
</g>
<!-- 33&#45;&gt;36 -->
<g id="edge19" class="edge">
<title>33&#45;&gt;36</title>
<path fill="none" stroke="black" d="M208.83,-473.76C206.65,-468.27 204.6,-462.09 203.5,-456.2 200.08,-437.81 201.93,-416.3 204.02,-401.82"/>
<polygon fill="black" stroke="black" points="207.42,-402.71 205.61,-392.28 200.51,-401.57 207.42,-402.71"/>
<text xml:space="preserve" text-anchor="middle" x="234.25" y="-433.15" font-family="Times New Roman,serif" font-size="14.00">merge2#36</text>
</g>
<!-- 35&#45;&gt;24 -->
<g id="edge16" class="edge">
<title>35&#45;&gt;24</title>
<path fill="none" stroke="black" d="M208.99,-655.68C199.15,-652.19 176.77,-643.72 159.75,-633.2 147.29,-625.5 134.61,-615.57 123.94,-606.48"/>
<polygon fill="black" stroke="black" points="126.47,-604.05 116.63,-600.11 121.87,-609.33 126.47,-604.05"/>
<text xml:space="preserve" text-anchor="middle" x="184.88" y="-619.9" font-family="Times New Roman,serif" font-size="14.00">split1#33</text>
</g>
<!-- 35&#45;&gt;30 -->
<g id="edge17" class="edge">
<title>35&#45;&gt;30</title>
<path fill="none" stroke="black" d="M214,-650.68C214,-641.6 214,-624.85 214,-610.13"/>
<polygon fill="black" stroke="black" points="217.5,-610.46 214,-600.46 210.5,-610.46 217.5,-610.46"/>
<text xml:space="preserve" text-anchor="middle" x="239.12" y="-619.9" font-family="Times New Roman,serif" font-size="14.00">split2#34</text>
</g>
<!-- 36&#45;&gt;66 -->
<g id="edge9" class="edge">
<title>36&#45;&gt;66</title>
<path fill="none" stroke="black" d="M207.69,-377.34C209.26,-363.38 213,-327.11 213,-296.7 213,-296.7 213,-296.7 213,-148 213,-130.59 218.49,-111.3 223.04,-98.31"/>
<polygon fill="black" stroke="black" points="226.25,-99.73 226.5,-89.14 219.7,-97.26 226.25,-99.73"/>
<text xml:space="preserve" text-anchor="middle" x="243.75" y="-211.9" font-family="Times New Roman,serif" font-size="14.00">merge1#75</text>
</g>
<!-- 63 -->
<g id="node24" class="node">
<title>63</title>
<polygon fill="aquamarine" stroke="black" points="329,-665.6 321.8,-658.4 329,-651.2 336.2,-658.4 329,-665.6"/>
<text xml:space="preserve" text-anchor="middle" x="306.8" y="-668.8" font-family="Times New Roman,serif" font-size="14.00">&lt;63&gt;</text>
</g>
<!-- 38&#45;&gt;63 -->
<g id="edge6" class="edge">
<title>38&#45;&gt;63</title>
<path fill="none" stroke="black" d="M329,-717.92C329,-705.88 329,-689.8 329,-677.55"/>
<polygon fill="black" stroke="black" points="332.5,-677.64 329,-667.64 325.5,-677.64 332.5,-677.64"/>
<text xml:space="preserve" text-anchor="middle" x="366.12" y="-686.8" font-family="Times New Roman,serif" font-size="14.00">graphAnd#71</text>
</g>
<!-- 41 -->
<g id="node14" class="node">
<title>41</title>
<polygon fill="yellow" stroke="black" points="375.62,-598.7 282.38,-598.7 282.38,-562.7 375.62,-562.7 375.62,-598.7"/>
<text xml:space="preserve" text-anchor="middle" x="329" y="-575.65" font-family="Times New Roman,serif" font-size="14.00">sideA = sideC</text>
<text xml:space="preserve" text-anchor="middle" x="271.12" y="-601.9" font-family="Times New Roman,serif" font-size="14.00">[41]</text>
</g>
<!-- 44 -->
<g id="node15" class="node">
<title>44</title>
<polygon fill="yellow" stroke="black" points="384.25,-456.2 273.75,-456.2 273.75,-420.2 384.25,-420.2 384.25,-456.2"/>
<text xml:space="preserve" text-anchor="middle" x="329" y="-433.15" font-family="Times New Roman,serif" font-size="14.00">result = Isosceles</text>
<text xml:space="preserve" text-anchor="middle" x="262.5" y="-459.4" font-family="Times New Roman,serif" font-size="14.00">[44]</text>
</g>
<!-- 41&#45;&gt;44 -->
<g id="edge26" class="edge">
<title>41&#45;&gt;44</title>
<path fill="none" stroke="black" d="M329,-562.47C329,-538.88 329,-496.2 329,-467.78"/>
<polygon fill="black" stroke="black" points="332.5,-468.08 329,-458.08 325.5,-468.08 332.5,-468.08"/>
<text xml:space="preserve" text-anchor="middle" x="366.12" y="-531.4" font-family="Times New Roman,serif" font-size="14.00">graphAnd#62</text>
</g>
<!-- 44&#45;&gt;64 -->
<g id="edge3" class="edge">
<title>44&#45;&gt;64</title>
<path fill="none" stroke="black" d="M322.22,-419.76C315.44,-400.7 306,-369.13 306,-340.95 306,-340.95 306,-340.95 306,-215.95 306,-199.63 306,-181.05 306,-167.77"/>
<polygon fill="black" stroke="black" points="309.5,-168.07 306,-158.07 302.5,-168.07 309.5,-168.07"/>
<text xml:space="preserve" text-anchor="middle" x="336.75" y="-290.65" font-family="Times New Roman,serif" font-size="14.00">merge1#67</text>
</g>
<!-- 47 -->
<g id="node16" class="node">
<title>47</title>
<polygon fill="yellow" stroke="black" points="494.75,-598.7 393.25,-598.7 393.25,-562.7 494.75,-562.7 494.75,-598.7"/>
<text xml:space="preserve" text-anchor="middle" x="444" y="-575.65" font-family="Times New Roman,serif" font-size="14.00">sideA &lt;&gt; sideC</text>
<text xml:space="preserve" text-anchor="middle" x="382" y="-601.9" font-family="Times New Roman,serif" font-size="14.00">[47]</text>
</g>
<!-- 61 -->
<g id="node22" class="node">
<title>61</title>
<polygon fill="aquamarine" stroke="black" points="444,-499.4 436.8,-492.2 444,-485 451.2,-492.2 444,-499.4"/>
<text xml:space="preserve" text-anchor="middle" x="421.8" y="-502.6" font-family="Times New Roman,serif" font-size="14.00">&lt;61&gt;</text>
</g>
<!-- 47&#45;&gt;61 -->
<g id="edge27" class="edge">
<title>47&#45;&gt;61</title>
<path fill="none" stroke="black" d="M444,-562.61C444,-547.84 444,-526.53 444,-511.43"/>
<polygon fill="black" stroke="black" points="447.5,-511.59 444,-501.59 440.5,-511.59 447.5,-511.59"/>
<text xml:space="preserve" text-anchor="middle" x="481.12" y="-531.4" font-family="Times New Roman,serif" font-size="14.00">graphAnd#63</text>
</g>
<!-- 50 -->
<g id="node17" class="node">
<title>50</title>
<polygon fill="yellow" stroke="black" points="488.62,-402.2 395.38,-402.2 395.38,-366.2 488.62,-366.2 488.62,-402.2"/>
<text xml:space="preserve" text-anchor="middle" x="442" y="-379.15" font-family="Times New Roman,serif" font-size="14.00">sideB = sideC</text>
<text xml:space="preserve" text-anchor="middle" x="384.12" y="-405.4" font-family="Times New Roman,serif" font-size="14.00">[50]</text>
</g>
<!-- 53 -->
<g id="node18" class="node">
<title>53</title>
<polygon fill="yellow" stroke="black" points="496.25,-313.7 385.75,-313.7 385.75,-277.7 496.25,-277.7 496.25,-313.7"/>
<text xml:space="preserve" text-anchor="middle" x="441" y="-290.65" font-family="Times New Roman,serif" font-size="14.00">result = Isosceles</text>
<text xml:space="preserve" text-anchor="middle" x="374.5" y="-316.9" font-family="Times New Roman,serif" font-size="14.00">[53]</text>
</g>
<!-- 50&#45;&gt;53 -->
<g id="edge20" class="edge">
<title>50&#45;&gt;53</title>
<path fill="none" stroke="black" d="M441.8,-366.11C441.67,-354.46 441.49,-338.75 441.33,-325.22"/>
<polygon fill="black" stroke="black" points="444.83,-325.52 441.22,-315.56 437.83,-325.6 444.83,-325.52"/>
<text xml:space="preserve" text-anchor="middle" x="478.71" y="-334.9" font-family="Times New Roman,serif" font-size="14.00">graphAnd#54</text>
</g>
<!-- 62 -->
<g id="node23" class="node">
<title>62</title>
<polygon fill="aquamarine" stroke="black" points="441,-224.15 433.8,-216.95 441,-209.75 448.2,-216.95 441,-224.15"/>
<text xml:space="preserve" text-anchor="middle" x="418.8" y="-227.35" font-family="Times New Roman,serif" font-size="14.00">&lt;62&gt;</text>
</g>
<!-- 53&#45;&gt;62 -->
<g id="edge24" class="edge">
<title>53&#45;&gt;62</title>
<path fill="none" stroke="black" d="M441,-277.28C441,-264.94 441,-248.43 441,-235.96"/>
<polygon fill="black" stroke="black" points="444.5,-236.28 441,-226.28 437.5,-236.28 444.5,-236.28"/>
<text xml:space="preserve" text-anchor="middle" x="471.75" y="-246.4" font-family="Times New Roman,serif" font-size="14.00">merge1#59</text>
</g>
<!-- 56 -->
<g id="node19" class="node">
<title>56</title>
<polygon fill="yellow" stroke="black" points="611.75,-402.2 510.25,-402.2 510.25,-366.2 611.75,-366.2 611.75,-402.2"/>
<text xml:space="preserve" text-anchor="middle" x="561" y="-379.15" font-family="Times New Roman,serif" font-size="14.00">sideB &lt;&gt; sideC</text>
<text xml:space="preserve" text-anchor="middle" x="499" y="-405.4" font-family="Times New Roman,serif" font-size="14.00">[56]</text>
</g>
<!-- 59 -->
<g id="node20" class="node">
<title>59</title>
<polygon fill="yellow" stroke="black" points="617.88,-313.7 514.12,-313.7 514.12,-277.7 617.88,-277.7 617.88,-313.7"/>
<text xml:space="preserve" text-anchor="middle" x="566" y="-290.65" font-family="Times New Roman,serif" font-size="14.00">result = Scalene</text>
<text xml:space="preserve" text-anchor="middle" x="502.88" y="-316.9" font-family="Times New Roman,serif" font-size="14.00">[59]</text>
</g>
<!-- 56&#45;&gt;59 -->
<g id="edge21" class="edge">
<title>56&#45;&gt;59</title>
<path fill="none" stroke="black" d="M561.99,-366.11C562.66,-354.46 563.57,-338.75 564.35,-325.22"/>
<polygon fill="black" stroke="black" points="567.83,-325.75 564.91,-315.56 560.84,-325.34 567.83,-325.75"/>
<text xml:space="preserve" text-anchor="middle" x="601.07" y="-334.9" font-family="Times New Roman,serif" font-size="14.00">graphAnd#55</text>
</g>
<!-- 59&#45;&gt;62 -->
<g id="edge25" class="edge">
<title>59&#45;&gt;62</title>
<path fill="none" stroke="black" d="M549.46,-277.4C538.28,-266.47 522.73,-252.66 507,-243.2 491.23,-233.71 471.27,-226.67 457.45,-222.47"/>
<polygon fill="black" stroke="black" points="458.45,-219.12 447.88,-219.74 456.53,-225.85 458.45,-219.12"/>
<text xml:space="preserve" text-anchor="middle" x="560.38" y="-246.4" font-family="Times New Roman,serif" font-size="14.00">merge2#60</text>
</g>
<!-- 61&#45;&gt;50 -->
<g id="edge22" class="edge">
<title>61&#45;&gt;50</title>
<path fill="none" stroke="black" d="M443.87,-484.57C443.61,-470.69 442.99,-437.86 442.54,-413.72"/>
<polygon fill="black" stroke="black" points="446.04,-413.8 442.35,-403.87 439.04,-413.94 446.04,-413.8"/>
<text xml:space="preserve" text-anchor="middle" x="468.42" y="-433.15" font-family="Times New Roman,serif" font-size="14.00">split1#57</text>
</g>
<!-- 61&#45;&gt;56 -->
<g id="edge23" class="edge">
<title>61&#45;&gt;56</title>
<path fill="none" stroke="black" d="M448.48,-488.84C458.1,-483.67 481.23,-470.62 498,-456.2 513.68,-442.72 529.13,-425.39 540.81,-411.23"/>
<polygon fill="black" stroke="black" points="543.38,-413.61 546.95,-403.63 537.94,-409.21 543.38,-413.61"/>
<text xml:space="preserve" text-anchor="middle" x="557.52" y="-433.15" font-family="Times New Roman,serif" font-size="14.00">split2#58</text>
</g>
<!-- 62&#45;&gt;64 -->
<g id="edge4" class="edge">
<title>62&#45;&gt;64</title>
<path fill="none" stroke="black" d="M436.51,-213.76C418.41,-204.92 350.4,-171.69 320.38,-157.03"/>
<polygon fill="black" stroke="black" points="322.25,-154.04 311.73,-152.8 319.18,-160.33 322.25,-154.04"/>
<text xml:space="preserve" text-anchor="middle" x="416.34" y="-177.4" font-family="Times New Roman,serif" font-size="14.00">merge2#68</text>
</g>
<!-- 63&#45;&gt;41 -->
<g id="edge1" class="edge">
<title>63&#45;&gt;41</title>
<path fill="none" stroke="black" d="M329,-650.68C329,-641.6 329,-624.85 329,-610.13"/>
<polygon fill="black" stroke="black" points="332.5,-610.46 329,-600.46 325.5,-610.46 332.5,-610.46"/>
<text xml:space="preserve" text-anchor="middle" x="354.12" y="-619.9" font-family="Times New Roman,serif" font-size="14.00">split1#65</text>
</g>
<!-- 63&#45;&gt;47 -->
<g id="edge2" class="edge">
<title>63&#45;&gt;47</title>
<path fill="none" stroke="black" d="M334,-655.7C343.82,-652.24 366.13,-643.81 383,-633.2 395.07,-625.61 407.29,-615.81 417.59,-606.79"/>
<polygon fill="black" stroke="black" points="419.87,-609.45 424.97,-600.16 415.19,-604.24 419.87,-609.45"/>
<text xml:space="preserve" text-anchor="middle" x="429.47" y="-619.9" font-family="Times New Roman,serif" font-size="14.00">split2#66</text>
</g>
</g>
</svg>
