<?xml version="1.0" encoding="UTF-8" standalone="no"?>
<!DOCTYPE svg PUBLIC "-//W3C//DTD SVG 1.1//EN"
 "http://www.w3.org/Graphics/SVG/1.1/DTD/svg11.dtd">
<!-- Generated by graphviz version 12.2.1 (20241206.2353)
 -->
<!-- Title: CLG Pages: 1 -->
<svg width="168pt" height="614pt"
 viewBox="0.00 0.00 168.25 613.80" xmlns="http://www.w3.org/2000/svg" xmlns:xlink="http://www.w3.org/1999/xlink">
<g id="graph0" class="graph" transform="scale(1 1) rotate(0) translate(4 609.8)">
<title>CLG</title>
<polygon fill="white" stroke="none" points="-4,4 -4,-609.8 164.25,-609.8 164.25,4 -4,4"/>
<!-- 0 -->
<g id="node1" class="node">
<title>0</title>
<ellipse fill="black" stroke="black" cx="86" cy="-582.1" rx="7.2" ry="7.2"/>
<text text-anchor="middle" x="70.92" y="-592.5" font-family="Times New Roman,serif" font-size="14.00">[0]</text>
</g>
<!-- 1 -->
<g id="node3" class="node">
<title>1</title>
<polygon fill="yellow" stroke="black" points="155.88,-537.9 16.12,-537.9 16.12,-501.9 155.88,-501.9 155.88,-537.9"/>
<text text-anchor="middle" x="86" y="-514.85" font-family="Times New Roman,serif" font-size="14.00">sideA + sideB &gt; sideC</text>
<text text-anchor="middle" x="8.25" y="-541.1" font-family="Times New Roman,serif" font-size="14.00">[1]</text>
</g>
<!-- 0&#45;&gt;1 -->
<g id="edge1" class="edge">
<title>0&#45;&gt;1</title>
<path fill="none" stroke="black" d="M86,-574.66C86,-568.6 86,-559.09 86,-549.74"/>
<polygon fill="black" stroke="black" points="89.5,-549.78 86,-539.78 82.5,-549.78 89.5,-549.78"/>
</g>
<!-- 16 -->
<g id="node2" class="node">
<title>16</title>
<polygon fill="yellow" stroke="black" points="120.62,-95.4 51.38,-95.4 51.38,-59.4 120.62,-59.4 120.62,-95.4"/>
<text text-anchor="middle" x="86" y="-72.35" font-family="Times New Roman,serif" font-size="14.00">sideC &gt; 0</text>
<text text-anchor="middle" x="40.12" y="-98.6" font-family="Times New Roman,serif" font-size="14.00">[16]</text>
</g>
<!-- 17 -->
<g id="node4" class="node">
<title>17</title>
<ellipse fill="black" stroke="black" cx="86" cy="-11.2" rx="7.2" ry="7.2"/>
<ellipse fill="none" stroke="black" cx="86" cy="-11.2" rx="11.2" ry="11.2"/>
<text text-anchor="middle" x="64.67" y="-25.6" font-family="Times New Roman,serif" font-size="14.00">[&#45;1]</text>
</g>
<!-- 16&#45;&gt;17 -->
<g id="edge7" class="edge">
<title>16&#45;&gt;17</title>
<path fill="none" stroke="black" d="M86,-59.2C86,-51.5 86,-42.34 86,-34.15"/>
<polygon fill="black" stroke="black" points="89.5,-34.32 86,-24.32 82.5,-34.32 89.5,-34.32"/>
</g>
<!-- 4 -->
<g id="node5" class="node">
<title>4</title>
<polygon fill="yellow" stroke="black" points="156.25,-449.4 15.75,-449.4 15.75,-413.4 156.25,-413.4 156.25,-449.4"/>
<text text-anchor="middle" x="86" y="-426.35" font-family="Times New Roman,serif" font-size="14.00">sideB + sideC &gt; sideA</text>
<text text-anchor="middle" x="7.88" y="-452.6" font-family="Times New Roman,serif" font-size="14.00">[4]</text>
</g>
<!-- 1&#45;&gt;4 -->
<g id="edge3" class="edge">
<title>1&#45;&gt;4</title>
<path fill="none" stroke="black" d="M86,-501.81C86,-490.16 86,-474.45 86,-460.92"/>
<polygon fill="black" stroke="black" points="89.5,-461.26 86,-451.26 82.5,-461.26 89.5,-461.26"/>
<text text-anchor="middle" x="119.75" y="-470.6" font-family="Times New Roman,serif" font-size="14.00">graphAnd#4</text>
</g>
<!-- 7 -->
<g id="node6" class="node">
<title>7</title>
<polygon fill="yellow" stroke="black" points="155.88,-360.9 16.12,-360.9 16.12,-324.9 155.88,-324.9 155.88,-360.9"/>
<text text-anchor="middle" x="86" y="-337.85" font-family="Times New Roman,serif" font-size="14.00">sideA + sideC &gt; sideB</text>
<text text-anchor="middle" x="8.25" y="-364.1" font-family="Times New Roman,serif" font-size="14.00">[7]</text>
</g>
<!-- 4&#45;&gt;7 -->
<g id="edge4" class="edge">
<title>4&#45;&gt;7</title>
<path fill="none" stroke="black" d="M86,-413.31C86,-401.66 86,-385.95 86,-372.42"/>
<polygon fill="black" stroke="black" points="89.5,-372.76 86,-362.76 82.5,-372.76 89.5,-372.76"/>
<text text-anchor="middle" x="119.75" y="-382.1" font-family="Times New Roman,serif" font-size="14.00">graphAnd#7</text>
</g>
<!-- 10 -->
<g id="node7" class="node">
<title>10</title>
<polygon fill="yellow" stroke="black" points="120.62,-272.4 51.38,-272.4 51.38,-236.4 120.62,-236.4 120.62,-272.4"/>
<text text-anchor="middle" x="86" y="-249.35" font-family="Times New Roman,serif" font-size="14.00">sideA &gt; 0</text>
<text text-anchor="middle" x="40.12" y="-275.6" font-family="Times New Roman,serif" font-size="14.00">[10]</text>
</g>
<!-- 7&#45;&gt;10 -->
<g id="edge5" class="edge">
<title>7&#45;&gt;10</title>
<path fill="none" stroke="black" d="M86,-324.81C86,-313.16 86,-297.45 86,-283.92"/>
<polygon fill="black" stroke="black" points="89.5,-284.26 86,-274.26 82.5,-284.26 89.5,-284.26"/>
<text text-anchor="middle" x="123.12" y="-293.6" font-family="Times New Roman,serif" font-size="14.00">graphAnd#10</text>
</g>
<!-- 13 -->
<g id="node8" class="node">
<title>13</title>
<polygon fill="yellow" stroke="black" points="120.62,-183.9 51.38,-183.9 51.38,-147.9 120.62,-147.9 120.62,-183.9"/>
<text text-anchor="middle" x="86" y="-160.85" font-family="Times New Roman,serif" font-size="14.00">sideB &gt; 0</text>
<text text-anchor="middle" x="40.12" y="-187.1" font-family="Times New Roman,serif" font-size="14.00">[13]</text>
</g>
<!-- 10&#45;&gt;13 -->
<g id="edge6" class="edge">
<title>10&#45;&gt;13</title>
<path fill="none" stroke="black" d="M86,-236.31C86,-224.66 86,-208.95 86,-195.42"/>
<polygon fill="black" stroke="black" points="89.5,-195.76 86,-185.76 82.5,-195.76 89.5,-195.76"/>
<text text-anchor="middle" x="123.12" y="-205.1" font-family="Times New Roman,serif" font-size="14.00">graphAnd#13</text>
</g>
<!-- 13&#45;&gt;16 -->
<g id="edge2" class="edge">
<title>13&#45;&gt;16</title>
<path fill="none" stroke="black" d="M86,-147.81C86,-136.16 86,-120.45 86,-106.92"/>
<polygon fill="black" stroke="black" points="89.5,-107.26 86,-97.26 82.5,-107.26 89.5,-107.26"/>
<text text-anchor="middle" x="123.12" y="-116.6" font-family="Times New Roman,serif" font-size="14.00">graphAnd#16</text>
</g>
</g>
</svg>
