<?xml version="1.0" encoding="UTF-8" standalone="no"?>
<!DOCTYPE svg PUBLIC "-//W3C//DTD SVG 1.1//EN"
 "http://www.w3.org/Graphics/SVG/1.1/DTD/svg11.dtd">
<!-- Generated by graphviz version 12.2.1 (20241206.2353)
 -->
<!-- Title: CLG Pages: 1 -->
<svg width="555pt" height="1428pt"
 viewBox="0.00 0.00 555.16 1427.90" xmlns="http://www.w3.org/2000/svg" xmlns:xlink="http://www.w3.org/1999/xlink">
<g id="graph0" class="graph" transform="scale(1 1) rotate(0) translate(4 1423.9)">
<title>CLG</title>
<polygon fill="white" stroke="none" points="-4,4 -4,-1423.9 551.16,-1423.9 551.16,4 -4,4"/>
<!-- 193 -->
<g id="node1" class="node">
<title>193</title>
<polygon fill="yellow" stroke="black" points="532,-510.2 411,-510.2 411,-474.2 532,-474.2 532,-510.2"/>
<text text-anchor="middle" x="471.5" y="-487.15" font-family="Times New Roman,serif" font-size="14.00">result = Equilateral</text>
<text text-anchor="middle" x="396.38" y="-513.4" font-family="Times New Roman,serif" font-size="14.00">[193]</text>
</g>
<!-- 202 -->
<g id="node5" class="node">
<title>202</title>
<polygon fill="aquamarine" stroke="black" points="429.5,-391.4 422.3,-384.2 429.5,-377 436.7,-384.2 429.5,-391.4"/>
<text text-anchor="middle" x="403.93" y="-394.6" font-family="Times New Roman,serif" font-size="14.00">&lt;202&gt;</text>
</g>
<!-- 193&#45;&gt;202 -->
<g id="edge15" class="edge">
<title>193&#45;&gt;202</title>
<path fill="none" stroke="black" d="M467.27,-473.89C463.44,-459.28 457.21,-437.95 449.5,-420.2 446.29,-412.82 441.93,-405.01 438.1,-398.64"/>
<polygon fill="black" stroke="black" points="441.23,-397.03 432.94,-390.43 435.3,-400.76 441.23,-397.03"/>
<text text-anchor="middle" x="495.95" y="-433.15" font-family="Times New Roman,serif" font-size="14.00">merge1#216</text>
</g>
<!-- 196 -->
<g id="node2" class="node">
<title>196</title>
<polygon fill="yellow" stroke="black" points="389.25,-598.7 287.75,-598.7 287.75,-562.7 389.25,-562.7 389.25,-598.7"/>
<text text-anchor="middle" x="338.5" y="-575.65" font-family="Times New Roman,serif" font-size="14.00">sideB &lt;&gt; sideC</text>
<text text-anchor="middle" x="273.12" y="-601.9" font-family="Times New Roman,serif" font-size="14.00">[196]</text>
</g>
<!-- 199 -->
<g id="node3" class="node">
<title>199</title>
<polygon fill="yellow" stroke="black" points="392.75,-510.2 282.25,-510.2 282.25,-474.2 392.75,-474.2 392.75,-510.2"/>
<text text-anchor="middle" x="337.5" y="-487.15" font-family="Times New Roman,serif" font-size="14.00">result = Isosceles</text>
<text text-anchor="middle" x="267.62" y="-513.4" font-family="Times New Roman,serif" font-size="14.00">[199]</text>
</g>
<!-- 196&#45;&gt;199 -->
<g id="edge11" class="edge">
<title>196&#45;&gt;199</title>
<path fill="none" stroke="black" d="M338.3,-562.61C338.17,-550.96 337.99,-535.25 337.83,-521.72"/>
<polygon fill="black" stroke="black" points="341.33,-522.02 337.72,-512.06 334.33,-522.1 341.33,-522.02"/>
<text text-anchor="middle" x="378.59" y="-531.4" font-family="Times New Roman,serif" font-size="14.00">graphAnd#212</text>
</g>
<!-- 199&#45;&gt;202 -->
<g id="edge16" class="edge">
<title>199&#45;&gt;202</title>
<path fill="none" stroke="black" d="M348.18,-473.87C351.55,-468.28 355.25,-462.01 358.5,-456.2 367.31,-440.46 365.21,-433.64 377.25,-420.2 387.95,-408.25 403.59,-398.48 414.96,-392.34"/>
<polygon fill="black" stroke="black" points="416.21,-395.63 423.54,-387.98 413.04,-389.39 416.21,-395.63"/>
<text text-anchor="middle" x="411.38" y="-433.15" font-family="Times New Roman,serif" font-size="14.00">merge2#217</text>
</g>
<!-- 201 -->
<g id="node4" class="node">
<title>201</title>
<polygon fill="aquamarine" stroke="black" points="338.5,-665.6 331.3,-658.4 338.5,-651.2 345.7,-658.4 338.5,-665.6"/>
<text text-anchor="middle" x="312.93" y="-668.8" font-family="Times New Roman,serif" font-size="14.00">&lt;201&gt;</text>
</g>
<!-- 201&#45;&gt;196 -->
<g id="edge14" class="edge">
<title>201&#45;&gt;196</title>
<path fill="none" stroke="black" d="M338.5,-650.68C338.5,-641.6 338.5,-624.85 338.5,-610.13"/>
<polygon fill="black" stroke="black" points="342,-610.46 338.5,-600.46 335,-610.46 342,-610.46"/>
<text text-anchor="middle" x="367" y="-619.9" font-family="Times New Roman,serif" font-size="14.00">split2#215</text>
</g>
<!-- 190 -->
<g id="node29" class="node">
<title>190</title>
<polygon fill="yellow" stroke="black" points="505.12,-598.7 411.88,-598.7 411.88,-562.7 505.12,-562.7 505.12,-598.7"/>
<text text-anchor="middle" x="458.5" y="-575.65" font-family="Times New Roman,serif" font-size="14.00">sideB = sideC</text>
<text text-anchor="middle" x="397.25" y="-601.9" font-family="Times New Roman,serif" font-size="14.00">[190]</text>
</g>
<!-- 201&#45;&gt;190 -->
<g id="edge13" class="edge">
<title>201&#45;&gt;190</title>
<path fill="none" stroke="black" d="M343.84,-655.95C354.81,-652.84 380.44,-644.83 399.5,-633.2 411.53,-625.86 423.49,-616.03 433.46,-606.92"/>
<polygon fill="black" stroke="black" points="435.69,-609.62 440.57,-600.22 430.89,-604.53 435.69,-609.62"/>
<text text-anchor="middle" x="450.58" y="-619.9" font-family="Times New Roman,serif" font-size="14.00">split1#214</text>
</g>
<!-- 232 -->
<g id="node20" class="node">
<title>232</title>
<polygon fill="aquamarine" stroke="black" points="326.5,-89.3 319.3,-82.1 326.5,-74.9 333.7,-82.1 326.5,-89.3"/>
<text text-anchor="middle" x="300.93" y="-92.5" font-family="Times New Roman,serif" font-size="14.00">&lt;232&gt;</text>
</g>
<!-- 202&#45;&gt;232 -->
<g id="edge1" class="edge">
<title>202&#45;&gt;232</title>
<path fill="none" stroke="black" d="M429.5,-376.47C429.5,-361.92 429.5,-326.43 429.5,-296.7 429.5,-296.7 429.5,-296.7 429.5,-148 429.5,-107.86 372.81,-91.56 343.55,-85.82"/>
<polygon fill="black" stroke="black" points="344.27,-82.39 333.82,-84.13 343.08,-89.29 344.27,-82.39"/>
<text text-anchor="middle" x="463.62" y="-211.9" font-family="Times New Roman,serif" font-size="14.00">merge1#256</text>
</g>
<!-- 204 -->
<g id="node6" class="node">
<title>204</title>
<polygon fill="yellow" stroke="black" points="272.25,-754.1 170.75,-754.1 170.75,-718.1 272.25,-718.1 272.25,-754.1"/>
<text text-anchor="middle" x="221.5" y="-731.05" font-family="Times New Roman,serif" font-size="14.00">sideA &lt;&gt; sideB</text>
<text text-anchor="middle" x="156.12" y="-757.3" font-family="Times New Roman,serif" font-size="14.00">[204]</text>
</g>
<!-- 229 -->
<g id="node17" class="node">
<title>229</title>
<polygon fill="aquamarine" stroke="black" points="218.5,-665.6 211.3,-658.4 218.5,-651.2 225.7,-658.4 218.5,-665.6"/>
<text text-anchor="middle" x="192.93" y="-668.8" font-family="Times New Roman,serif" font-size="14.00">&lt;229&gt;</text>
</g>
<!-- 204&#45;&gt;229 -->
<g id="edge30" class="edge">
<title>204&#45;&gt;229</title>
<path fill="none" stroke="black" d="M220.82,-717.92C220.34,-705.75 219.69,-689.46 219.2,-677.16"/>
<polygon fill="black" stroke="black" points="222.71,-677.12 218.81,-667.27 215.71,-677.4 222.71,-677.12"/>
<text text-anchor="middle" x="260.59" y="-686.8" font-family="Times New Roman,serif" font-size="14.00">graphAnd#252</text>
</g>
<!-- 207 -->
<g id="node7" class="node">
<title>207</title>
<polygon fill="yellow" stroke="black" points="146.12,-598.7 52.88,-598.7 52.88,-562.7 146.12,-562.7 146.12,-598.7"/>
<text text-anchor="middle" x="99.5" y="-575.65" font-family="Times New Roman,serif" font-size="14.00">sideA = sideC</text>
<text text-anchor="middle" x="38.25" y="-601.9" font-family="Times New Roman,serif" font-size="14.00">[207]</text>
</g>
<!-- 210 -->
<g id="node8" class="node">
<title>210</title>
<polygon fill="yellow" stroke="black" points="139.75,-456.2 29.25,-456.2 29.25,-420.2 139.75,-420.2 139.75,-456.2"/>
<text text-anchor="middle" x="84.5" y="-433.15" font-family="Times New Roman,serif" font-size="14.00">result = Isosceles</text>
<text text-anchor="middle" x="14.62" y="-459.4" font-family="Times New Roman,serif" font-size="14.00">[210]</text>
</g>
<!-- 207&#45;&gt;210 -->
<g id="edge23" class="edge">
<title>207&#45;&gt;210</title>
<path fill="none" stroke="black" d="M97.66,-562.47C95.14,-538.88 90.59,-496.2 87.55,-467.78"/>
<polygon fill="black" stroke="black" points="91.06,-467.65 86.52,-458.07 84.1,-468.39 91.06,-467.65"/>
<text text-anchor="middle" x="136.21" y="-531.4" font-family="Times New Roman,serif" font-size="14.00">graphAnd#243</text>
</g>
<!-- 230 -->
<g id="node18" class="node">
<title>230</title>
<polygon fill="aquamarine" stroke="black" points="260.5,-156.2 253.3,-149 260.5,-141.8 267.7,-149 260.5,-156.2"/>
<text text-anchor="middle" x="234.93" y="-159.4" font-family="Times New Roman,serif" font-size="14.00">&lt;230&gt;</text>
</g>
<!-- 210&#45;&gt;230 -->
<g id="edge27" class="edge">
<title>210&#45;&gt;230</title>
<path fill="none" stroke="black" d="M83.05,-419.83C81.58,-400.56 79.5,-368.56 79.5,-340.95 79.5,-340.95 79.5,-340.95 79.5,-215.95 79.5,-181.32 197.92,-159.56 243.19,-152.51"/>
<polygon fill="black" stroke="black" points="243.61,-155.99 252.98,-151.05 242.57,-149.07 243.61,-155.99"/>
<text text-anchor="middle" x="113.62" y="-290.65" font-family="Times New Roman,serif" font-size="14.00">merge1#248</text>
</g>
<!-- 213 -->
<g id="node9" class="node">
<title>213</title>
<polygon fill="yellow" stroke="black" points="269.25,-598.7 167.75,-598.7 167.75,-562.7 269.25,-562.7 269.25,-598.7"/>
<text text-anchor="middle" x="218.5" y="-575.65" font-family="Times New Roman,serif" font-size="14.00">sideA &lt;&gt; sideC</text>
<text text-anchor="middle" x="153.12" y="-601.9" font-family="Times New Roman,serif" font-size="14.00">[213]</text>
</g>
<!-- 227 -->
<g id="node15" class="node">
<title>227</title>
<polygon fill="aquamarine" stroke="black" points="218.5,-499.4 211.3,-492.2 218.5,-485 225.7,-492.2 218.5,-499.4"/>
<text text-anchor="middle" x="192.93" y="-502.6" font-family="Times New Roman,serif" font-size="14.00">&lt;227&gt;</text>
</g>
<!-- 213&#45;&gt;227 -->
<g id="edge24" class="edge">
<title>213&#45;&gt;227</title>
<path fill="none" stroke="black" d="M218.5,-562.61C218.5,-547.84 218.5,-526.53 218.5,-511.43"/>
<polygon fill="black" stroke="black" points="222,-511.59 218.5,-501.59 215,-511.59 222,-511.59"/>
<text text-anchor="middle" x="259" y="-531.4" font-family="Times New Roman,serif" font-size="14.00">graphAnd#244</text>
</g>
<!-- 216 -->
<g id="node10" class="node">
<title>216</title>
<polygon fill="yellow" stroke="black" points="265.12,-402.2 171.88,-402.2 171.88,-366.2 265.12,-366.2 265.12,-402.2"/>
<text text-anchor="middle" x="218.5" y="-379.15" font-family="Times New Roman,serif" font-size="14.00">sideB = sideC</text>
<text text-anchor="middle" x="157.25" y="-405.4" font-family="Times New Roman,serif" font-size="14.00">[216]</text>
</g>
<!-- 219 -->
<g id="node11" class="node">
<title>219</title>
<polygon fill="yellow" stroke="black" points="276.75,-313.7 166.25,-313.7 166.25,-277.7 276.75,-277.7 276.75,-313.7"/>
<text text-anchor="middle" x="221.5" y="-290.65" font-family="Times New Roman,serif" font-size="14.00">result = Isosceles</text>
<text text-anchor="middle" x="151.62" y="-316.9" font-family="Times New Roman,serif" font-size="14.00">[219]</text>
</g>
<!-- 216&#45;&gt;219 -->
<g id="edge17" class="edge">
<title>216&#45;&gt;219</title>
<path fill="none" stroke="black" d="M219.09,-366.11C219.5,-354.46 220.04,-338.75 220.51,-325.22"/>
<polygon fill="black" stroke="black" points="224,-325.68 220.85,-315.56 217,-325.44 224,-325.68"/>
<text text-anchor="middle" x="260.77" y="-334.9" font-family="Times New Roman,serif" font-size="14.00">graphAnd#235</text>
</g>
<!-- 228 -->
<g id="node16" class="node">
<title>228</title>
<polygon fill="aquamarine" stroke="black" points="260.5,-224.15 253.3,-216.95 260.5,-209.75 267.7,-216.95 260.5,-224.15"/>
<text text-anchor="middle" x="234.93" y="-227.35" font-family="Times New Roman,serif" font-size="14.00">&lt;228&gt;</text>
</g>
<!-- 219&#45;&gt;228 -->
<g id="edge21" class="edge">
<title>219&#45;&gt;228</title>
<path fill="none" stroke="black" d="M226.74,-277.45C230.19,-267.18 235.19,-254.07 241.25,-243.2 243.76,-238.7 247.01,-234.12 250.11,-230.11"/>
<polygon fill="black" stroke="black" points="252.75,-232.42 256.45,-222.49 247.37,-227.94 252.75,-232.42"/>
<text text-anchor="middle" x="275.38" y="-246.4" font-family="Times New Roman,serif" font-size="14.00">merge1#240</text>
</g>
<!-- 222 -->
<g id="node12" class="node">
<title>222</title>
<polygon fill="yellow" stroke="black" points="384.25,-402.2 282.75,-402.2 282.75,-366.2 384.25,-366.2 384.25,-402.2"/>
<text text-anchor="middle" x="333.5" y="-379.15" font-family="Times New Roman,serif" font-size="14.00">sideB &lt;&gt; sideC</text>
<text text-anchor="middle" x="268.12" y="-405.4" font-family="Times New Roman,serif" font-size="14.00">[222]</text>
</g>
<!-- 225 -->
<g id="node13" class="node">
<title>225</title>
<polygon fill="yellow" stroke="black" points="398.38,-313.7 294.62,-313.7 294.62,-277.7 398.38,-277.7 398.38,-313.7"/>
<text text-anchor="middle" x="346.5" y="-290.65" font-family="Times New Roman,serif" font-size="14.00">result = Scalene</text>
<text text-anchor="middle" x="280" y="-316.9" font-family="Times New Roman,serif" font-size="14.00">[225]</text>
</g>
<!-- 222&#45;&gt;225 -->
<g id="edge18" class="edge">
<title>222&#45;&gt;225</title>
<path fill="none" stroke="black" d="M332.51,-365.9C332.26,-355.85 332.51,-342.97 334.5,-331.7 334.91,-329.38 335.45,-327 336.07,-324.63"/>
<polygon fill="black" stroke="black" points="339.34,-325.9 338.98,-315.31 332.66,-323.82 339.34,-325.9"/>
<text text-anchor="middle" x="375" y="-334.9" font-family="Times New Roman,serif" font-size="14.00">graphAnd#236</text>
</g>
<!-- 225&#45;&gt;228 -->
<g id="edge22" class="edge">
<title>225&#45;&gt;228</title>
<path fill="none" stroke="black" d="M336.91,-277.32C330.28,-266.49 320.67,-252.84 309.5,-243.2 299.61,-234.67 286.33,-228.06 276.1,-223.74"/>
<polygon fill="black" stroke="black" points="277.55,-220.55 266.96,-220.19 275.01,-227.08 277.55,-220.55"/>
<text text-anchor="middle" x="358.94" y="-246.4" font-family="Times New Roman,serif" font-size="14.00">merge2#241</text>
</g>
<!-- 226 -->
<g id="node14" class="node">
<title>226</title>
<ellipse fill="black" stroke="black" cx="326.5" cy="-11.2" rx="7.2" ry="7.2"/>
<ellipse fill="none" stroke="black" cx="326.5" cy="-11.2" rx="11.2" ry="11.2"/>
<text text-anchor="middle" x="305.18" y="-25.6" font-family="Times New Roman,serif" font-size="14.00">[&#45;1]</text>
</g>
<!-- 227&#45;&gt;216 -->
<g id="edge19" class="edge">
<title>227&#45;&gt;216</title>
<path fill="none" stroke="black" d="M218.5,-484.57C218.5,-470.69 218.5,-437.86 218.5,-413.72"/>
<polygon fill="black" stroke="black" points="222,-413.87 218.5,-403.87 215,-413.87 222,-413.87"/>
<text text-anchor="middle" x="247" y="-433.15" font-family="Times New Roman,serif" font-size="14.00">split1#238</text>
</g>
<!-- 227&#45;&gt;222 -->
<g id="edge20" class="edge">
<title>227&#45;&gt;222</title>
<path fill="none" stroke="black" d="M223.35,-489.36C234.23,-485.03 260.9,-473.28 277.5,-456.2 290.26,-443.08 286.38,-434.73 297.5,-420.2 300.03,-416.89 302.88,-413.6 305.82,-410.43"/>
<polygon fill="black" stroke="black" points="308.14,-413.06 312.67,-403.48 303.16,-408.15 308.14,-413.06"/>
<text text-anchor="middle" x="326" y="-433.15" font-family="Times New Roman,serif" font-size="14.00">split2#239</text>
</g>
<!-- 228&#45;&gt;230 -->
<g id="edge28" class="edge">
<title>228&#45;&gt;230</title>
<path fill="none" stroke="black" d="M260.5,-209.39C260.5,-199.81 260.5,-181.64 260.5,-167.92"/>
<polygon fill="black" stroke="black" points="264,-168.05 260.5,-158.05 257,-168.05 264,-168.05"/>
<text text-anchor="middle" x="294.62" y="-177.4" font-family="Times New Roman,serif" font-size="14.00">merge2#249</text>
</g>
<!-- 229&#45;&gt;207 -->
<g id="edge25" class="edge">
<title>229&#45;&gt;207</title>
<path fill="none" stroke="black" d="M213.15,-655.96C202.17,-652.87 176.52,-644.91 157.5,-633.2 145.62,-625.88 133.85,-616.05 124.05,-606.94"/>
<polygon fill="black" stroke="black" points="126.72,-604.65 117.08,-600.24 121.87,-609.7 126.72,-604.65"/>
<text text-anchor="middle" x="186" y="-619.9" font-family="Times New Roman,serif" font-size="14.00">split1#246</text>
</g>
<!-- 229&#45;&gt;213 -->
<g id="edge26" class="edge">
<title>229&#45;&gt;213</title>
<path fill="none" stroke="black" d="M218.5,-650.68C218.5,-641.6 218.5,-624.85 218.5,-610.13"/>
<polygon fill="black" stroke="black" points="222,-610.46 218.5,-600.46 215,-610.46 222,-610.46"/>
<text text-anchor="middle" x="247" y="-619.9" font-family="Times New Roman,serif" font-size="14.00">split2#247</text>
</g>
<!-- 230&#45;&gt;232 -->
<g id="edge2" class="edge">
<title>230&#45;&gt;232</title>
<path fill="none" stroke="black" d="M263.68,-144.87C272.9,-135.81 299.9,-109.25 315.34,-94.07"/>
<polygon fill="black" stroke="black" points="317.44,-96.92 322.11,-87.41 312.53,-91.93 317.44,-96.92"/>
<text text-anchor="middle" x="335.48" y="-110.5" font-family="Times New Roman,serif" font-size="14.00">merge2#257</text>
</g>
<!-- 231 -->
<g id="node19" class="node">
<title>231</title>
<polygon fill="aquamarine" stroke="black" points="278.5,-821 271.3,-813.8 278.5,-806.6 285.7,-813.8 278.5,-821"/>
<text text-anchor="middle" x="252.93" y="-824.2" font-family="Times New Roman,serif" font-size="14.00">&lt;231&gt;</text>
</g>
<!-- 231&#45;&gt;204 -->
<g id="edge32" class="edge">
<title>231&#45;&gt;204</title>
<path fill="none" stroke="black" d="M274.57,-810.39C268.39,-806.45 256.31,-798.12 248.5,-788.6 242.62,-781.44 237.49,-772.79 233.32,-764.65"/>
<polygon fill="black" stroke="black" points="236.54,-763.27 229.07,-755.76 230.23,-766.29 236.54,-763.27"/>
<text text-anchor="middle" x="277" y="-775.3" font-family="Times New Roman,serif" font-size="14.00">split2#255</text>
</g>
<!-- 187 -->
<g id="node28" class="node">
<title>187</title>
<polygon fill="yellow" stroke="black" points="384.12,-754.1 290.88,-754.1 290.88,-718.1 384.12,-718.1 384.12,-754.1"/>
<text text-anchor="middle" x="337.5" y="-731.05" font-family="Times New Roman,serif" font-size="14.00">sideA = sideB</text>
<text text-anchor="middle" x="276.25" y="-757.3" font-family="Times New Roman,serif" font-size="14.00">[187]</text>
</g>
<!-- 231&#45;&gt;187 -->
<g id="edge31" class="edge">
<title>231&#45;&gt;187</title>
<path fill="none" stroke="black" d="M282.3,-809.96C287.83,-805.72 298.22,-797.28 305.5,-788.6 311.78,-781.12 317.71,-772.29 322.72,-764.08"/>
<polygon fill="black" stroke="black" points="325.74,-765.85 327.77,-755.46 319.7,-762.32 325.74,-765.85"/>
<text text-anchor="middle" x="345.85" y="-775.3" font-family="Times New Roman,serif" font-size="14.00">split1#254</text>
</g>
<!-- 232&#45;&gt;226 -->
<g id="edge3" class="edge">
<title>232&#45;&gt;226</title>
<path fill="none" stroke="black" d="M326.5,-74.24C326.5,-64.87 326.5,-47.63 326.5,-33.7"/>
<polygon fill="black" stroke="black" points="330,-34.11 326.5,-24.11 323,-34.11 330,-34.11"/>
<text text-anchor="middle" x="375.62" y="-43.6" font-family="Times New Roman,serif" font-size="14.00">graphOr_end#258</text>
</g>
<!-- 233 -->
<g id="node21" class="node">
<title>233</title>
<ellipse fill="black" stroke="black" cx="278.5" cy="-1396.2" rx="7.2" ry="7.2"/>
<text text-anchor="middle" x="263.43" y="-1406.6" font-family="Times New Roman,serif" font-size="14.00">[0]</text>
</g>
<!-- 234 -->
<g id="node22" class="node">
<title>234</title>
<polygon fill="yellow" stroke="black" points="348.38,-1352 208.62,-1352 208.62,-1316 348.38,-1316 348.38,-1352"/>
<text text-anchor="middle" x="278.5" y="-1328.95" font-family="Times New Roman,serif" font-size="14.00">sideA + sideB &gt; sideC</text>
<text text-anchor="middle" x="194" y="-1355.2" font-family="Times New Roman,serif" font-size="14.00">[234]</text>
</g>
<!-- 233&#45;&gt;234 -->
<g id="edge4" class="edge">
<title>233&#45;&gt;234</title>
<path fill="none" stroke="black" d="M278.5,-1388.76C278.5,-1382.7 278.5,-1373.19 278.5,-1363.84"/>
<polygon fill="black" stroke="black" points="282,-1363.88 278.5,-1353.88 275,-1363.88 282,-1363.88"/>
</g>
<!-- 237 -->
<g id="node23" class="node">
<title>237</title>
<polygon fill="yellow" stroke="black" points="348.75,-1263.5 208.25,-1263.5 208.25,-1227.5 348.75,-1227.5 348.75,-1263.5"/>
<text text-anchor="middle" x="278.5" y="-1240.45" font-family="Times New Roman,serif" font-size="14.00">sideB + sideC &gt; sideA</text>
<text text-anchor="middle" x="193.62" y="-1266.7" font-family="Times New Roman,serif" font-size="14.00">[237]</text>
</g>
<!-- 234&#45;&gt;237 -->
<g id="edge5" class="edge">
<title>234&#45;&gt;237</title>
<path fill="none" stroke="black" d="M278.5,-1315.91C278.5,-1304.26 278.5,-1288.55 278.5,-1275.02"/>
<polygon fill="black" stroke="black" points="282,-1275.36 278.5,-1265.36 275,-1275.36 282,-1275.36"/>
<text text-anchor="middle" x="319" y="-1284.7" font-family="Times New Roman,serif" font-size="14.00">graphAnd#263</text>
</g>
<!-- 240 -->
<g id="node24" class="node">
<title>240</title>
<polygon fill="yellow" stroke="black" points="348.38,-1175 208.62,-1175 208.62,-1139 348.38,-1139 348.38,-1175"/>
<text text-anchor="middle" x="278.5" y="-1151.95" font-family="Times New Roman,serif" font-size="14.00">sideA + sideC &gt; sideB</text>
<text text-anchor="middle" x="194" y="-1178.2" font-family="Times New Roman,serif" font-size="14.00">[240]</text>
</g>
<!-- 237&#45;&gt;240 -->
<g id="edge6" class="edge">
<title>237&#45;&gt;240</title>
<path fill="none" stroke="black" d="M278.5,-1227.41C278.5,-1215.76 278.5,-1200.05 278.5,-1186.52"/>
<polygon fill="black" stroke="black" points="282,-1186.86 278.5,-1176.86 275,-1186.86 282,-1186.86"/>
<text text-anchor="middle" x="319" y="-1196.2" font-family="Times New Roman,serif" font-size="14.00">graphAnd#266</text>
</g>
<!-- 243 -->
<g id="node25" class="node">
<title>243</title>
<polygon fill="yellow" stroke="black" points="313.12,-1086.5 243.88,-1086.5 243.88,-1050.5 313.12,-1050.5 313.12,-1086.5"/>
<text text-anchor="middle" x="278.5" y="-1063.45" font-family="Times New Roman,serif" font-size="14.00">sideA &gt; 0</text>
<text text-anchor="middle" x="229.25" y="-1089.7" font-family="Times New Roman,serif" font-size="14.00">[243]</text>
</g>
<!-- 240&#45;&gt;243 -->
<g id="edge7" class="edge">
<title>240&#45;&gt;243</title>
<path fill="none" stroke="black" d="M278.5,-1138.91C278.5,-1127.26 278.5,-1111.55 278.5,-1098.02"/>
<polygon fill="black" stroke="black" points="282,-1098.36 278.5,-1088.36 275,-1098.36 282,-1098.36"/>
<text text-anchor="middle" x="319" y="-1107.7" font-family="Times New Roman,serif" font-size="14.00">graphAnd#269</text>
</g>
<!-- 246 -->
<g id="node26" class="node">
<title>246</title>
<polygon fill="yellow" stroke="black" points="313.12,-998 243.88,-998 243.88,-962 313.12,-962 313.12,-998"/>
<text text-anchor="middle" x="278.5" y="-974.95" font-family="Times New Roman,serif" font-size="14.00">sideB &gt; 0</text>
<text text-anchor="middle" x="229.25" y="-1001.2" font-family="Times New Roman,serif" font-size="14.00">[246]</text>
</g>
<!-- 243&#45;&gt;246 -->
<g id="edge8" class="edge">
<title>243&#45;&gt;246</title>
<path fill="none" stroke="black" d="M278.5,-1050.41C278.5,-1038.76 278.5,-1023.05 278.5,-1009.52"/>
<polygon fill="black" stroke="black" points="282,-1009.86 278.5,-999.86 275,-1009.86 282,-1009.86"/>
<text text-anchor="middle" x="319" y="-1019.2" font-family="Times New Roman,serif" font-size="14.00">graphAnd#272</text>
</g>
<!-- 249 -->
<g id="node27" class="node">
<title>249</title>
<polygon fill="yellow" stroke="black" points="313.12,-909.5 243.88,-909.5 243.88,-873.5 313.12,-873.5 313.12,-909.5"/>
<text text-anchor="middle" x="278.5" y="-886.45" font-family="Times New Roman,serif" font-size="14.00">sideC &gt; 0</text>
<text text-anchor="middle" x="229.25" y="-912.7" font-family="Times New Roman,serif" font-size="14.00">[249]</text>
</g>
<!-- 246&#45;&gt;249 -->
<g id="edge10" class="edge">
<title>246&#45;&gt;249</title>
<path fill="none" stroke="black" d="M278.5,-961.91C278.5,-950.26 278.5,-934.55 278.5,-921.02"/>
<polygon fill="black" stroke="black" points="282,-921.36 278.5,-911.36 275,-921.36 282,-921.36"/>
<text text-anchor="middle" x="319" y="-930.7" font-family="Times New Roman,serif" font-size="14.00">graphAnd#275</text>
</g>
<!-- 249&#45;&gt;231 -->
<g id="edge12" class="edge">
<title>249&#45;&gt;231</title>
<path fill="none" stroke="black" d="M278.5,-873.32C278.5,-861.28 278.5,-845.2 278.5,-832.95"/>
<polygon fill="black" stroke="black" points="282,-833.04 278.5,-823.04 275,-833.04 282,-833.04"/>
<text text-anchor="middle" x="319" y="-842.2" font-family="Times New Roman,serif" font-size="14.00">graphAnd#276</text>
</g>
<!-- 187&#45;&gt;201 -->
<g id="edge29" class="edge">
<title>187&#45;&gt;201</title>
<path fill="none" stroke="black" d="M337.73,-717.92C337.89,-705.88 338.1,-689.8 338.26,-677.55"/>
<polygon fill="black" stroke="black" points="341.76,-677.68 338.39,-667.64 334.76,-677.59 341.76,-677.68"/>
<text text-anchor="middle" x="378.68" y="-686.8" font-family="Times New Roman,serif" font-size="14.00">graphAnd#251</text>
</g>
<!-- 190&#45;&gt;193 -->
<g id="edge9" class="edge">
<title>190&#45;&gt;193</title>
<path fill="none" stroke="black" d="M461.07,-562.61C462.82,-550.96 465.18,-535.25 467.21,-521.72"/>
<polygon fill="black" stroke="black" points="470.64,-522.46 468.67,-512.05 463.72,-521.42 470.64,-522.46"/>
<text text-anchor="middle" x="506.66" y="-531.4" font-family="Times New Roman,serif" font-size="14.00">graphAnd#211</text>
</g>
</g>
</svg>
