<?xml version="1.0" encoding="UTF-8" standalone="no"?>
<!DOCTYPE svg PUBLIC "-//W3C//DTD SVG 1.1//EN"
 "http://www.w3.org/Graphics/SVG/1.1/DTD/svg11.dtd">
<!-- Generated by graphviz version 13.1.2 (20250808.2320)
 -->
<!-- Title: CLG Pages: 1 -->
<svg width="554pt" height="1428pt"
 viewBox="0.00 0.00 554.00 1428.00" xmlns="http://www.w3.org/2000/svg" xmlns:xlink="http://www.w3.org/1999/xlink">
<g id="graph0" class="graph" transform="scale(1 1) rotate(0) translate(4 1423.9)">
<title>CLG</title>
<polygon fill="white" stroke="none" points="-4,4 -4,-1423.9 550.16,-1423.9 550.16,4 -4,4"/>
<!-- 193 -->
<g id="node1" class="node">
<title>193</title>
<polygon fill="yellow" stroke="black" points="531,-510.2 410,-510.2 410,-474.2 531,-474.2 531,-510.2"/>
<text xml:space="preserve" text-anchor="middle" x="470.5" y="-487.15" font-family="Times New Roman,serif" font-size="14.00">result = Equilateral</text>
<text xml:space="preserve" text-anchor="middle" x="395.38" y="-513.4" font-family="Times New Roman,serif" font-size="14.00">[193]</text>
</g>
<!-- 202 -->
<g id="node5" class="node">
<title>202</title>
<polygon fill="aquamarine" stroke="black" points="429.5,-391.4 422.3,-384.2 429.5,-377 436.7,-384.2 429.5,-391.4"/>
<text xml:space="preserve" text-anchor="middle" x="403.93" y="-394.6" font-family="Times New Roman,serif" font-size="14.00">&lt;202&gt;</text>
</g>
<!-- 193&#45;&gt;202 -->
<g id="edge15" class="edge">
<title>193&#45;&gt;202</title>
<path fill="none" stroke="black" d="M466.18,-473.94C462.28,-459.35 456.02,-438.04 448.5,-420.2 445.41,-412.87 441.26,-405.07 437.63,-398.69"/>
<polygon fill="black" stroke="black" points="440.87,-397.29 432.76,-390.47 434.85,-400.86 440.87,-397.29"/>
<text xml:space="preserve" text-anchor="middle" x="494.8" y="-433.15" font-family="Times New Roman,serif" font-size="14.00">merge1#216</text>
</g>
<!-- 196 -->
<g id="node2" class="node">
<title>196</title>
<polygon fill="yellow" stroke="black" points="388.25,-598.7 286.75,-598.7 286.75,-562.7 388.25,-562.7 388.25,-598.7"/>
<text xml:space="preserve" text-anchor="middle" x="337.5" y="-575.65" font-family="Times New Roman,serif" font-size="14.00">sideB &lt;&gt; sideC</text>
<text xml:space="preserve" text-anchor="middle" x="272.12" y="-601.9" font-family="Times New Roman,serif" font-size="14.00">[196]</text>
</g>
<!-- 199 -->
<g id="node3" class="node">
<title>199</title>
<polygon fill="yellow" stroke="black" points="391.75,-510.2 281.25,-510.2 281.25,-474.2 391.75,-474.2 391.75,-510.2"/>
<text xml:space="preserve" text-anchor="middle" x="336.5" y="-487.15" font-family="Times New Roman,serif" font-size="14.00">result = Isosceles</text>
<text xml:space="preserve" text-anchor="middle" x="266.62" y="-513.4" font-family="Times New Roman,serif" font-size="14.00">[199]</text>
</g>
<!-- 196&#45;&gt;199 -->
<g id="edge11" class="edge">
<title>196&#45;&gt;199</title>
<path fill="none" stroke="black" d="M337.3,-562.61C337.17,-550.96 336.99,-535.25 336.83,-521.72"/>
<polygon fill="black" stroke="black" points="340.33,-522.02 336.72,-512.06 333.33,-522.1 340.33,-522.02"/>
<text xml:space="preserve" text-anchor="middle" x="377.59" y="-531.4" font-family="Times New Roman,serif" font-size="14.00">graphAnd#212</text>
</g>
<!-- 199&#45;&gt;202 -->
<g id="edge16" class="edge">
<title>199&#45;&gt;202</title>
<path fill="none" stroke="black" d="M347.18,-473.87C350.55,-468.28 354.25,-462.01 357.5,-456.2 366.31,-440.46 364.16,-433.59 376.25,-420.2 387.15,-408.14 403.08,-398.39 414.68,-392.28"/>
<polygon fill="black" stroke="black" points="416.03,-395.51 423.44,-387.94 412.93,-389.24 416.03,-395.51"/>
<text xml:space="preserve" text-anchor="middle" x="410.38" y="-433.15" font-family="Times New Roman,serif" font-size="14.00">merge2#217</text>
</g>
<!-- 201 -->
<g id="node4" class="node">
<title>201</title>
<polygon fill="aquamarine" stroke="black" points="337.5,-665.6 330.3,-658.4 337.5,-651.2 344.7,-658.4 337.5,-665.6"/>
<text xml:space="preserve" text-anchor="middle" x="311.93" y="-668.8" font-family="Times New Roman,serif" font-size="14.00">&lt;201&gt;</text>
</g>
<!-- 201&#45;&gt;196 -->
<g id="edge14" class="edge">
<title>201&#45;&gt;196</title>
<path fill="none" stroke="black" d="M337.5,-650.68C337.5,-641.6 337.5,-624.85 337.5,-610.13"/>
<polygon fill="black" stroke="black" points="341,-610.46 337.5,-600.46 334,-610.46 341,-610.46"/>
<text xml:space="preserve" text-anchor="middle" x="366" y="-619.9" font-family="Times New Roman,serif" font-size="14.00">split2#215</text>
</g>
<!-- 190 -->
<g id="node29" class="node">
<title>190</title>
<polygon fill="yellow" stroke="black" points="504.12,-598.7 410.88,-598.7 410.88,-562.7 504.12,-562.7 504.12,-598.7"/>
<text xml:space="preserve" text-anchor="middle" x="457.5" y="-575.65" font-family="Times New Roman,serif" font-size="14.00">sideB = sideC</text>
<text xml:space="preserve" text-anchor="middle" x="396.25" y="-601.9" font-family="Times New Roman,serif" font-size="14.00">[190]</text>
</g>
<!-- 201&#45;&gt;190 -->
<g id="edge13" class="edge">
<title>201&#45;&gt;190</title>
<path fill="none" stroke="black" d="M342.84,-655.95C353.81,-652.84 379.44,-644.83 398.5,-633.2 410.53,-625.86 422.49,-616.03 432.46,-606.92"/>
<polygon fill="black" stroke="black" points="434.69,-609.62 439.57,-600.22 429.89,-604.53 434.69,-609.62"/>
<text xml:space="preserve" text-anchor="middle" x="449.58" y="-619.9" font-family="Times New Roman,serif" font-size="14.00">split1#214</text>
</g>
<!-- 232 -->
<g id="node20" class="node">
<title>232</title>
<polygon fill="aquamarine" stroke="black" points="326.5,-89.3 319.3,-82.1 326.5,-74.9 333.7,-82.1 326.5,-89.3"/>
<text xml:space="preserve" text-anchor="middle" x="300.93" y="-92.5" font-family="Times New Roman,serif" font-size="14.00">&lt;232&gt;</text>
</g>
<!-- 202&#45;&gt;232 -->
<g id="edge1" class="edge">
<title>202&#45;&gt;232</title>
<path fill="none" stroke="black" d="M429.5,-376.47C429.5,-361.92 429.5,-326.43 429.5,-296.7 429.5,-296.7 429.5,-296.7 429.5,-148 429.5,-107.86 372.81,-91.56 343.55,-85.82"/>
<polygon fill="black" stroke="black" points="344.27,-82.39 333.82,-84.13 343.08,-89.29 344.27,-82.39"/>
<text xml:space="preserve" text-anchor="middle" x="463.62" y="-211.9" font-family="Times New Roman,serif" font-size="14.00">merge1#256</text>
</g>
<!-- 204 -->
<g id="node6" class="node">
<title>204</title>
<polygon fill="yellow" stroke="black" points="271.25,-754.1 169.75,-754.1 169.75,-718.1 271.25,-718.1 271.25,-754.1"/>
<text xml:space="preserve" text-anchor="middle" x="220.5" y="-731.05" font-family="Times New Roman,serif" font-size="14.00">sideA &lt;&gt; sideB</text>
<text xml:space="preserve" text-anchor="middle" x="155.12" y="-757.3" font-family="Times New Roman,serif" font-size="14.00">[204]</text>
</g>
<!-- 229 -->
<g id="node17" class="node">
<title>229</title>
<polygon fill="aquamarine" stroke="black" points="217.5,-665.6 210.3,-658.4 217.5,-651.2 224.7,-658.4 217.5,-665.6"/>
<text xml:space="preserve" text-anchor="middle" x="191.93" y="-668.8" font-family="Times New Roman,serif" font-size="14.00">&lt;229&gt;</text>
</g>
<!-- 204&#45;&gt;229 -->
<g id="edge30" class="edge">
<title>204&#45;&gt;229</title>
<path fill="none" stroke="black" d="M219.82,-717.92C219.34,-705.75 218.69,-689.46 218.2,-677.16"/>
<polygon fill="black" stroke="black" points="221.71,-677.12 217.81,-667.27 214.71,-677.4 221.71,-677.12"/>
<text xml:space="preserve" text-anchor="middle" x="259.59" y="-686.8" font-family="Times New Roman,serif" font-size="14.00">graphAnd#252</text>
</g>
<!-- 207 -->
<g id="node7" class="node">
<title>207</title>
<polygon fill="yellow" stroke="black" points="145.12,-598.7 51.88,-598.7 51.88,-562.7 145.12,-562.7 145.12,-598.7"/>
<text xml:space="preserve" text-anchor="middle" x="98.5" y="-575.65" font-family="Times New Roman,serif" font-size="14.00">sideA = sideC</text>
<text xml:space="preserve" text-anchor="middle" x="37.25" y="-601.9" font-family="Times New Roman,serif" font-size="14.00">[207]</text>
</g>
<!-- 210 -->
<g id="node8" class="node">
<title>210</title>
<polygon fill="yellow" stroke="black" points="139.75,-456.2 29.25,-456.2 29.25,-420.2 139.75,-420.2 139.75,-456.2"/>
<text xml:space="preserve" text-anchor="middle" x="84.5" y="-433.15" font-family="Times New Roman,serif" font-size="14.00">result = Isosceles</text>
<text xml:space="preserve" text-anchor="middle" x="14.62" y="-459.4" font-family="Times New Roman,serif" font-size="14.00">[210]</text>
</g>
<!-- 207&#45;&gt;210 -->
<g id="edge23" class="edge">
<title>207&#45;&gt;210</title>
<path fill="none" stroke="black" d="M96.78,-562.47C94.43,-538.88 90.18,-496.2 87.35,-467.78"/>
<polygon fill="black" stroke="black" points="90.86,-467.68 86.38,-458.08 83.89,-468.37 90.86,-467.68"/>
<text xml:space="preserve" text-anchor="middle" x="135.46" y="-531.4" font-family="Times New Roman,serif" font-size="14.00">graphAnd#243</text>
</g>
<!-- 230 -->
<g id="node18" class="node">
<title>230</title>
<polygon fill="aquamarine" stroke="black" points="260.5,-156.2 253.3,-149 260.5,-141.8 267.7,-149 260.5,-156.2"/>
<text xml:space="preserve" text-anchor="middle" x="234.93" y="-159.4" font-family="Times New Roman,serif" font-size="14.00">&lt;230&gt;</text>
</g>
<!-- 210&#45;&gt;230 -->
<g id="edge27" class="edge">
<title>210&#45;&gt;230</title>
<path fill="none" stroke="black" d="M83.05,-419.83C81.58,-400.56 79.5,-368.56 79.5,-340.95 79.5,-340.95 79.5,-340.95 79.5,-215.95 79.5,-181.32 197.92,-159.56 243.19,-152.51"/>
<polygon fill="black" stroke="black" points="243.61,-155.99 252.98,-151.05 242.57,-149.07 243.61,-155.99"/>
<text xml:space="preserve" text-anchor="middle" x="113.62" y="-290.65" font-family="Times New Roman,serif" font-size="14.00">merge1#248</text>
</g>
<!-- 213 -->
<g id="node9" class="node">
<title>213</title>
<polygon fill="yellow" stroke="black" points="268.25,-598.7 166.75,-598.7 166.75,-562.7 268.25,-562.7 268.25,-598.7"/>
<text xml:space="preserve" text-anchor="middle" x="217.5" y="-575.65" font-family="Times New Roman,serif" font-size="14.00">sideA &lt;&gt; sideC</text>
<text xml:space="preserve" text-anchor="middle" x="152.12" y="-601.9" font-family="Times New Roman,serif" font-size="14.00">[213]</text>
</g>
<!-- 227 -->
<g id="node15" class="node">
<title>227</title>
<polygon fill="aquamarine" stroke="black" points="218.5,-499.4 211.3,-492.2 218.5,-485 225.7,-492.2 218.5,-499.4"/>
<text xml:space="preserve" text-anchor="middle" x="192.93" y="-502.6" font-family="Times New Roman,serif" font-size="14.00">&lt;227&gt;</text>
</g>
<!-- 213&#45;&gt;227 -->
<g id="edge24" class="edge">
<title>213&#45;&gt;227</title>
<path fill="none" stroke="black" d="M217.7,-562.61C217.87,-547.68 218.12,-526.1 218.29,-510.97"/>
<polygon fill="black" stroke="black" points="221.79,-511.22 218.41,-501.18 214.79,-511.14 221.79,-511.22"/>
<text xml:space="preserve" text-anchor="middle" x="258.59" y="-531.4" font-family="Times New Roman,serif" font-size="14.00">graphAnd#244</text>
</g>
<!-- 216 -->
<g id="node10" class="node">
<title>216</title>
<polygon fill="yellow" stroke="black" points="265.12,-402.2 171.88,-402.2 171.88,-366.2 265.12,-366.2 265.12,-402.2"/>
<text xml:space="preserve" text-anchor="middle" x="218.5" y="-379.15" font-family="Times New Roman,serif" font-size="14.00">sideB = sideC</text>
<text xml:space="preserve" text-anchor="middle" x="157.25" y="-405.4" font-family="Times New Roman,serif" font-size="14.00">[216]</text>
</g>
<!-- 219 -->
<g id="node11" class="node">
<title>219</title>
<polygon fill="yellow" stroke="black" points="276.75,-313.7 166.25,-313.7 166.25,-277.7 276.75,-277.7 276.75,-313.7"/>
<text xml:space="preserve" text-anchor="middle" x="221.5" y="-290.65" font-family="Times New Roman,serif" font-size="14.00">result = Isosceles</text>
<text xml:space="preserve" text-anchor="middle" x="151.62" y="-316.9" font-family="Times New Roman,serif" font-size="14.00">[219]</text>
</g>
<!-- 216&#45;&gt;219 -->
<g id="edge17" class="edge">
<title>216&#45;&gt;219</title>
<path fill="none" stroke="black" d="M219.09,-366.11C219.5,-354.46 220.04,-338.75 220.51,-325.22"/>
<polygon fill="black" stroke="black" points="224,-325.68 220.85,-315.56 217,-325.44 224,-325.68"/>
<text xml:space="preserve" text-anchor="middle" x="260.77" y="-334.9" font-family="Times New Roman,serif" font-size="14.00">graphAnd#235</text>
</g>
<!-- 228 -->
<g id="node16" class="node">
<title>228</title>
<polygon fill="aquamarine" stroke="black" points="260.5,-224.15 253.3,-216.95 260.5,-209.75 267.7,-216.95 260.5,-224.15"/>
<text xml:space="preserve" text-anchor="middle" x="234.93" y="-227.35" font-family="Times New Roman,serif" font-size="14.00">&lt;228&gt;</text>
</g>
<!-- 219&#45;&gt;228 -->
<g id="edge21" class="edge">
<title>219&#45;&gt;228</title>
<path fill="none" stroke="black" d="M226.74,-277.45C230.19,-267.18 235.19,-254.07 241.25,-243.2 243.76,-238.7 247.01,-234.12 250.11,-230.11"/>
<polygon fill="black" stroke="black" points="252.75,-232.42 256.45,-222.49 247.37,-227.94 252.75,-232.42"/>
<text xml:space="preserve" text-anchor="middle" x="275.38" y="-246.4" font-family="Times New Roman,serif" font-size="14.00">merge1#240</text>
</g>
<!-- 222 -->
<g id="node12" class="node">
<title>222</title>
<polygon fill="yellow" stroke="black" points="384.25,-402.2 282.75,-402.2 282.75,-366.2 384.25,-366.2 384.25,-402.2"/>
<text xml:space="preserve" text-anchor="middle" x="333.5" y="-379.15" font-family="Times New Roman,serif" font-size="14.00">sideB &lt;&gt; sideC</text>
<text xml:space="preserve" text-anchor="middle" x="268.12" y="-405.4" font-family="Times New Roman,serif" font-size="14.00">[222]</text>
</g>
<!-- 225 -->
<g id="node13" class="node">
<title>225</title>
<polygon fill="yellow" stroke="black" points="398.38,-313.7 294.62,-313.7 294.62,-277.7 398.38,-277.7 398.38,-313.7"/>
<text xml:space="preserve" text-anchor="middle" x="346.5" y="-290.65" font-family="Times New Roman,serif" font-size="14.00">result = Scalene</text>
<text xml:space="preserve" text-anchor="middle" x="280" y="-316.9" font-family="Times New Roman,serif" font-size="14.00">[225]</text>
</g>
<!-- 222&#45;&gt;225 -->
<g id="edge18" class="edge">
<title>222&#45;&gt;225</title>
<path fill="none" stroke="black" d="M332.51,-365.9C332.26,-355.85 332.51,-342.97 334.5,-331.7 334.91,-329.38 335.45,-327 336.07,-324.63"/>
<polygon fill="black" stroke="black" points="339.34,-325.9 338.98,-315.31 332.66,-323.82 339.34,-325.9"/>
<text xml:space="preserve" text-anchor="middle" x="375" y="-334.9" font-family="Times New Roman,serif" font-size="14.00">graphAnd#236</text>
</g>
<!-- 225&#45;&gt;228 -->
<g id="edge22" class="edge">
<title>225&#45;&gt;228</title>
<path fill="none" stroke="black" d="M336.91,-277.32C330.28,-266.49 320.67,-252.84 309.5,-243.2 299.61,-234.67 286.33,-228.06 276.1,-223.74"/>
<polygon fill="black" stroke="black" points="277.55,-220.55 266.96,-220.19 275.01,-227.08 277.55,-220.55"/>
<text xml:space="preserve" text-anchor="middle" x="358.94" y="-246.4" font-family="Times New Roman,serif" font-size="14.00">merge2#241</text>
</g>
<!-- 226 -->
<g id="node14" class="node">
<title>226</title>
<ellipse fill="black" stroke="black" cx="326.5" cy="-11.2" rx="7.2" ry="7.2"/>
<ellipse fill="none" stroke="black" cx="326.5" cy="-11.2" rx="11.2" ry="11.2"/>
<text xml:space="preserve" text-anchor="middle" x="305.18" y="-25.6" font-family="Times New Roman,serif" font-size="14.00">[&#45;1]</text>
</g>
<!-- 227&#45;&gt;216 -->
<g id="edge19" class="edge">
<title>227&#45;&gt;216</title>
<path fill="none" stroke="black" d="M218.5,-484.57C218.5,-470.69 218.5,-437.86 218.5,-413.72"/>
<polygon fill="black" stroke="black" points="222,-413.87 218.5,-403.87 215,-413.87 222,-413.87"/>
<text xml:space="preserve" text-anchor="middle" x="247" y="-433.15" font-family="Times New Roman,serif" font-size="14.00">split1#238</text>
</g>
<!-- 227&#45;&gt;222 -->
<g id="edge20" class="edge">
<title>227&#45;&gt;222</title>
<path fill="none" stroke="black" d="M223.38,-489.39C234.31,-485.11 261.08,-473.46 277.5,-456.2 289.97,-443.09 285.56,-434.61 296.5,-420.2 299,-416.91 301.82,-413.65 304.76,-410.53"/>
<polygon fill="black" stroke="black" points="307,-413.23 311.62,-403.7 302.06,-408.27 307,-413.23"/>
<text xml:space="preserve" text-anchor="middle" x="325" y="-433.15" font-family="Times New Roman,serif" font-size="14.00">split2#239</text>
</g>
<!-- 228&#45;&gt;230 -->
<g id="edge28" class="edge">
<title>228&#45;&gt;230</title>
<path fill="none" stroke="black" d="M260.5,-209.39C260.5,-199.81 260.5,-181.64 260.5,-167.92"/>
<polygon fill="black" stroke="black" points="264,-168.05 260.5,-158.05 257,-168.05 264,-168.05"/>
<text xml:space="preserve" text-anchor="middle" x="294.62" y="-177.4" font-family="Times New Roman,serif" font-size="14.00">merge2#249</text>
</g>
<!-- 229&#45;&gt;207 -->
<g id="edge25" class="edge">
<title>229&#45;&gt;207</title>
<path fill="none" stroke="black" d="M212.15,-655.96C201.17,-652.87 175.52,-644.91 156.5,-633.2 144.62,-625.88 132.85,-616.05 123.05,-606.94"/>
<polygon fill="black" stroke="black" points="125.72,-604.65 116.08,-600.24 120.87,-609.7 125.72,-604.65"/>
<text xml:space="preserve" text-anchor="middle" x="185" y="-619.9" font-family="Times New Roman,serif" font-size="14.00">split1#246</text>
</g>
<!-- 229&#45;&gt;213 -->
<g id="edge26" class="edge">
<title>229&#45;&gt;213</title>
<path fill="none" stroke="black" d="M217.5,-650.68C217.5,-641.6 217.5,-624.85 217.5,-610.13"/>
<polygon fill="black" stroke="black" points="221,-610.46 217.5,-600.46 214,-610.46 221,-610.46"/>
<text xml:space="preserve" text-anchor="middle" x="246" y="-619.9" font-family="Times New Roman,serif" font-size="14.00">split2#247</text>
</g>
<!-- 230&#45;&gt;232 -->
<g id="edge2" class="edge">
<title>230&#45;&gt;232</title>
<path fill="none" stroke="black" d="M263.68,-144.87C272.9,-135.81 299.9,-109.25 315.34,-94.07"/>
<polygon fill="black" stroke="black" points="317.44,-96.92 322.11,-87.41 312.53,-91.93 317.44,-96.92"/>
<text xml:space="preserve" text-anchor="middle" x="335.48" y="-110.5" font-family="Times New Roman,serif" font-size="14.00">merge2#257</text>
</g>
<!-- 231 -->
<g id="node19" class="node">
<title>231</title>
<polygon fill="aquamarine" stroke="black" points="277.5,-821 270.3,-813.8 277.5,-806.6 284.7,-813.8 277.5,-821"/>
<text xml:space="preserve" text-anchor="middle" x="251.93" y="-824.2" font-family="Times New Roman,serif" font-size="14.00">&lt;231&gt;</text>
</g>
<!-- 231&#45;&gt;204 -->
<g id="edge32" class="edge">
<title>231&#45;&gt;204</title>
<path fill="none" stroke="black" d="M273.57,-810.39C267.39,-806.45 255.31,-798.12 247.5,-788.6 241.62,-781.44 236.49,-772.79 232.32,-764.65"/>
<polygon fill="black" stroke="black" points="235.54,-763.27 228.07,-755.76 229.23,-766.29 235.54,-763.27"/>
<text xml:space="preserve" text-anchor="middle" x="276" y="-775.3" font-family="Times New Roman,serif" font-size="14.00">split2#255</text>
</g>
<!-- 187 -->
<g id="node28" class="node">
<title>187</title>
<polygon fill="yellow" stroke="black" points="383.12,-754.1 289.88,-754.1 289.88,-718.1 383.12,-718.1 383.12,-754.1"/>
<text xml:space="preserve" text-anchor="middle" x="336.5" y="-731.05" font-family="Times New Roman,serif" font-size="14.00">sideA = sideB</text>
<text xml:space="preserve" text-anchor="middle" x="275.25" y="-757.3" font-family="Times New Roman,serif" font-size="14.00">[187]</text>
</g>
<!-- 231&#45;&gt;187 -->
<g id="edge31" class="edge">
<title>231&#45;&gt;187</title>
<path fill="none" stroke="black" d="M281.3,-809.96C286.83,-805.72 297.22,-797.28 304.5,-788.6 310.78,-781.12 316.71,-772.29 321.72,-764.08"/>
<polygon fill="black" stroke="black" points="324.74,-765.85 326.77,-755.46 318.7,-762.32 324.74,-765.85"/>
<text xml:space="preserve" text-anchor="middle" x="344.85" y="-775.3" font-family="Times New Roman,serif" font-size="14.00">split1#254</text>
</g>
<!-- 232&#45;&gt;226 -->
<g id="edge3" class="edge">
<title>232&#45;&gt;226</title>
<path fill="none" stroke="black" d="M326.5,-74.24C326.5,-64.87 326.5,-47.63 326.5,-33.7"/>
<polygon fill="black" stroke="black" points="330,-34.11 326.5,-24.11 323,-34.11 330,-34.11"/>
<text xml:space="preserve" text-anchor="middle" x="375.62" y="-43.6" font-family="Times New Roman,serif" font-size="14.00">graphOr_end#258</text>
</g>
<!-- 233 -->
<g id="node21" class="node">
<title>233</title>
<ellipse fill="black" stroke="black" cx="277.5" cy="-1396.2" rx="7.2" ry="7.2"/>
<text xml:space="preserve" text-anchor="middle" x="262.43" y="-1406.6" font-family="Times New Roman,serif" font-size="14.00">[0]</text>
</g>
<!-- 234 -->
<g id="node22" class="node">
<title>234</title>
<polygon fill="yellow" stroke="black" points="347.38,-1352 207.62,-1352 207.62,-1316 347.38,-1316 347.38,-1352"/>
<text xml:space="preserve" text-anchor="middle" x="277.5" y="-1328.95" font-family="Times New Roman,serif" font-size="14.00">sideA + sideB &gt; sideC</text>
<text xml:space="preserve" text-anchor="middle" x="193" y="-1355.2" font-family="Times New Roman,serif" font-size="14.00">[234]</text>
</g>
<!-- 233&#45;&gt;234 -->
<g id="edge4" class="edge">
<title>233&#45;&gt;234</title>
<path fill="none" stroke="black" d="M277.5,-1388.76C277.5,-1382.7 277.5,-1373.19 277.5,-1363.84"/>
<polygon fill="black" stroke="black" points="281,-1363.88 277.5,-1353.88 274,-1363.88 281,-1363.88"/>
</g>
<!-- 237 -->
<g id="node23" class="node">
<title>237</title>
<polygon fill="yellow" stroke="black" points="347.75,-1263.5 207.25,-1263.5 207.25,-1227.5 347.75,-1227.5 347.75,-1263.5"/>
<text xml:space="preserve" text-anchor="middle" x="277.5" y="-1240.45" font-family="Times New Roman,serif" font-size="14.00">sideB + sideC &gt; sideA</text>
<text xml:space="preserve" text-anchor="middle" x="192.62" y="-1266.7" font-family="Times New Roman,serif" font-size="14.00">[237]</text>
</g>
<!-- 234&#45;&gt;237 -->
<g id="edge5" class="edge">
<title>234&#45;&gt;237</title>
<path fill="none" stroke="black" d="M277.5,-1315.91C277.5,-1304.26 277.5,-1288.55 277.5,-1275.02"/>
<polygon fill="black" stroke="black" points="281,-1275.36 277.5,-1265.36 274,-1275.36 281,-1275.36"/>
<text xml:space="preserve" text-anchor="middle" x="318" y="-1284.7" font-family="Times New Roman,serif" font-size="14.00">graphAnd#263</text>
</g>
<!-- 240 -->
<g id="node24" class="node">
<title>240</title>
<polygon fill="yellow" stroke="black" points="347.38,-1175 207.62,-1175 207.62,-1139 347.38,-1139 347.38,-1175"/>
<text xml:space="preserve" text-anchor="middle" x="277.5" y="-1151.95" font-family="Times New Roman,serif" font-size="14.00">sideA + sideC &gt; sideB</text>
<text xml:space="preserve" text-anchor="middle" x="193" y="-1178.2" font-family="Times New Roman,serif" font-size="14.00">[240]</text>
</g>
<!-- 237&#45;&gt;240 -->
<g id="edge6" class="edge">
<title>237&#45;&gt;240</title>
<path fill="none" stroke="black" d="M277.5,-1227.41C277.5,-1215.76 277.5,-1200.05 277.5,-1186.52"/>
<polygon fill="black" stroke="black" points="281,-1186.86 277.5,-1176.86 274,-1186.86 281,-1186.86"/>
<text xml:space="preserve" text-anchor="middle" x="318" y="-1196.2" font-family="Times New Roman,serif" font-size="14.00">graphAnd#266</text>
</g>
<!-- 243 -->
<g id="node25" class="node">
<title>243</title>
<polygon fill="yellow" stroke="black" points="312.12,-1086.5 242.88,-1086.5 242.88,-1050.5 312.12,-1050.5 312.12,-1086.5"/>
<text xml:space="preserve" text-anchor="middle" x="277.5" y="-1063.45" font-family="Times New Roman,serif" font-size="14.00">sideA &gt; 0</text>
<text xml:space="preserve" text-anchor="middle" x="228.25" y="-1089.7" font-family="Times New Roman,serif" font-size="14.00">[243]</text>
</g>
<!-- 240&#45;&gt;243 -->
<g id="edge7" class="edge">
<title>240&#45;&gt;243</title>
<path fill="none" stroke="black" d="M277.5,-1138.91C277.5,-1127.26 277.5,-1111.55 277.5,-1098.02"/>
<polygon fill="black" stroke="black" points="281,-1098.36 277.5,-1088.36 274,-1098.36 281,-1098.36"/>
<text xml:space="preserve" text-anchor="middle" x="318" y="-1107.7" font-family="Times New Roman,serif" font-size="14.00">graphAnd#269</text>
</g>
<!-- 246 -->
<g id="node26" class="node">
<title>246</title>
<polygon fill="yellow" stroke="black" points="312.12,-998 242.88,-998 242.88,-962 312.12,-962 312.12,-998"/>
<text xml:space="preserve" text-anchor="middle" x="277.5" y="-974.95" font-family="Times New Roman,serif" font-size="14.00">sideB &gt; 0</text>
<text xml:space="preserve" text-anchor="middle" x="228.25" y="-1001.2" font-family="Times New Roman,serif" font-size="14.00">[246]</text>
</g>
<!-- 243&#45;&gt;246 -->
<g id="edge8" class="edge">
<title>243&#45;&gt;246</title>
<path fill="none" stroke="black" d="M277.5,-1050.41C277.5,-1038.76 277.5,-1023.05 277.5,-1009.52"/>
<polygon fill="black" stroke="black" points="281,-1009.86 277.5,-999.86 274,-1009.86 281,-1009.86"/>
<text xml:space="preserve" text-anchor="middle" x="318" y="-1019.2" font-family="Times New Roman,serif" font-size="14.00">graphAnd#272</text>
</g>
<!-- 249 -->
<g id="node27" class="node">
<title>249</title>
<polygon fill="yellow" stroke="black" points="312.12,-909.5 242.88,-909.5 242.88,-873.5 312.12,-873.5 312.12,-909.5"/>
<text xml:space="preserve" text-anchor="middle" x="277.5" y="-886.45" font-family="Times New Roman,serif" font-size="14.00">sideC &gt; 0</text>
<text xml:space="preserve" text-anchor="middle" x="228.25" y="-912.7" font-family="Times New Roman,serif" font-size="14.00">[249]</text>
</g>
<!-- 246&#45;&gt;249 -->
<g id="edge10" class="edge">
<title>246&#45;&gt;249</title>
<path fill="none" stroke="black" d="M277.5,-961.91C277.5,-950.26 277.5,-934.55 277.5,-921.02"/>
<polygon fill="black" stroke="black" points="281,-921.36 277.5,-911.36 274,-921.36 281,-921.36"/>
<text xml:space="preserve" text-anchor="middle" x="318" y="-930.7" font-family="Times New Roman,serif" font-size="14.00">graphAnd#275</text>
</g>
<!-- 249&#45;&gt;231 -->
<g id="edge12" class="edge">
<title>249&#45;&gt;231</title>
<path fill="none" stroke="black" d="M277.5,-873.32C277.5,-861.28 277.5,-845.2 277.5,-832.95"/>
<polygon fill="black" stroke="black" points="281,-833.04 277.5,-823.04 274,-833.04 281,-833.04"/>
<text xml:space="preserve" text-anchor="middle" x="318" y="-842.2" font-family="Times New Roman,serif" font-size="14.00">graphAnd#276</text>
</g>
<!-- 187&#45;&gt;201 -->
<g id="edge29" class="edge">
<title>187&#45;&gt;201</title>
<path fill="none" stroke="black" d="M336.73,-717.92C336.89,-705.88 337.1,-689.8 337.26,-677.55"/>
<polygon fill="black" stroke="black" points="340.76,-677.68 337.39,-667.64 333.76,-677.59 340.76,-677.68"/>
<text xml:space="preserve" text-anchor="middle" x="377.68" y="-686.8" font-family="Times New Roman,serif" font-size="14.00">graphAnd#251</text>
</g>
<!-- 190&#45;&gt;193 -->
<g id="edge9" class="edge">
<title>190&#45;&gt;193</title>
<path fill="none" stroke="black" d="M460.07,-562.61C461.82,-550.96 464.18,-535.25 466.21,-521.72"/>
<polygon fill="black" stroke="black" points="469.64,-522.46 467.67,-512.05 462.72,-521.42 469.64,-522.46"/>
<text xml:space="preserve" text-anchor="middle" x="505.66" y="-531.4" font-family="Times New Roman,serif" font-size="14.00">graphAnd#211</text>
</g>
</g>
</svg>
