<?xml version="1.0" encoding="UTF-8" standalone="no"?>
<!DOCTYPE svg PUBLIC "-//W3C//DTD SVG 1.1//EN"
 "http://www.w3.org/Graphics/SVG/1.1/DTD/svg11.dtd">
<!-- Generated by graphviz version 13.1.2 (20250808.2320)
 -->
<!-- Title: CLG Pages: 1 -->
<svg width="346pt" height="1012pt"
 viewBox="0.00 0.00 346.00 1012.00" xmlns="http://www.w3.org/2000/svg" xmlns:xlink="http://www.w3.org/1999/xlink">
<g id="graph0" class="graph" transform="scale(1 1) rotate(0) translate(4 1008.1)">
<title>CLG</title>
<polygon fill="white" stroke="none" points="-4,4 -4,-1008.1 342.38,-1008.1 342.38,4 -4,4"/>
<!-- 18 -->
<g id="node1" class="node">
<title>18</title>
<polygon fill="aquamarine" stroke="black" points="192.62,-920.7 185.43,-913.5 192.62,-906.3 199.82,-913.5 192.62,-920.7"/>
<text xml:space="preserve" text-anchor="middle" x="170.43" y="-923.9" font-family="Times New Roman,serif" font-size="14.00">&lt;18&gt;</text>
</g>
<!-- 4 -->
<g id="node3" class="node">
<title>4</title>
<polygon fill="yellow" stroke="black" points="186.38,-853.8 72.88,-853.8 72.88,-251.8 186.38,-251.8 186.38,-853.8"/>
<text xml:space="preserve" text-anchor="middle" x="129.62" y="-836.5" font-family="Times New Roman,serif" font-size="14.00">sa + sb &lt;= sc and</text>
<text xml:space="preserve" text-anchor="middle" x="129.62" y="-820" font-family="Times New Roman,serif" font-size="14.00">sb + sc &gt; sa and</text>
<text xml:space="preserve" text-anchor="middle" x="129.62" y="-803.5" font-family="Times New Roman,serif" font-size="14.00">sa + sc &gt; sb and</text>
<text xml:space="preserve" text-anchor="middle" x="129.62" y="-787" font-family="Times New Roman,serif" font-size="14.00">sa &gt; 0 and</text>
<text xml:space="preserve" text-anchor="middle" x="129.62" y="-770.5" font-family="Times New Roman,serif" font-size="14.00">sb &gt; 0 and</text>
<text xml:space="preserve" text-anchor="middle" x="129.62" y="-754" font-family="Times New Roman,serif" font-size="14.00">sc &gt; 0 or</text>
<text xml:space="preserve" text-anchor="middle" x="129.62" y="-737.5" font-family="Times New Roman,serif" font-size="14.00">sa + sb &gt; sc and</text>
<text xml:space="preserve" text-anchor="middle" x="129.62" y="-721" font-family="Times New Roman,serif" font-size="14.00">sb + sc &lt;= sa and</text>
<text xml:space="preserve" text-anchor="middle" x="129.62" y="-704.5" font-family="Times New Roman,serif" font-size="14.00">sa + sc &gt; sb and</text>
<text xml:space="preserve" text-anchor="middle" x="129.62" y="-688" font-family="Times New Roman,serif" font-size="14.00">sa &gt; 0 and</text>
<text xml:space="preserve" text-anchor="middle" x="129.62" y="-671.5" font-family="Times New Roman,serif" font-size="14.00">sb &gt; 0 and</text>
<text xml:space="preserve" text-anchor="middle" x="129.62" y="-655" font-family="Times New Roman,serif" font-size="14.00">sc &gt; 0 or</text>
<text xml:space="preserve" text-anchor="middle" x="129.62" y="-638.5" font-family="Times New Roman,serif" font-size="14.00">sa + sb &gt; sc and</text>
<text xml:space="preserve" text-anchor="middle" x="129.62" y="-622" font-family="Times New Roman,serif" font-size="14.00">sb + sc &gt; sa and</text>
<text xml:space="preserve" text-anchor="middle" x="129.62" y="-605.5" font-family="Times New Roman,serif" font-size="14.00">sa + sc &lt;= sb and</text>
<text xml:space="preserve" text-anchor="middle" x="129.62" y="-589" font-family="Times New Roman,serif" font-size="14.00">sa &gt; 0 and</text>
<text xml:space="preserve" text-anchor="middle" x="129.62" y="-572.5" font-family="Times New Roman,serif" font-size="14.00">sb &gt; 0 and</text>
<text xml:space="preserve" text-anchor="middle" x="129.62" y="-556" font-family="Times New Roman,serif" font-size="14.00">sc &gt; 0 or</text>
<text xml:space="preserve" text-anchor="middle" x="129.62" y="-539.5" font-family="Times New Roman,serif" font-size="14.00">sa + sb &gt; sc and</text>
<text xml:space="preserve" text-anchor="middle" x="129.62" y="-523" font-family="Times New Roman,serif" font-size="14.00">sb + sc &gt; sa and</text>
<text xml:space="preserve" text-anchor="middle" x="129.62" y="-506.5" font-family="Times New Roman,serif" font-size="14.00">sa + sc &gt; sb and</text>
<text xml:space="preserve" text-anchor="middle" x="129.62" y="-490" font-family="Times New Roman,serif" font-size="14.00">sa &lt;= 0 and</text>
<text xml:space="preserve" text-anchor="middle" x="129.62" y="-473.5" font-family="Times New Roman,serif" font-size="14.00">sb &gt; 0 and</text>
<text xml:space="preserve" text-anchor="middle" x="129.62" y="-457" font-family="Times New Roman,serif" font-size="14.00">sc &gt; 0 or</text>
<text xml:space="preserve" text-anchor="middle" x="129.62" y="-440.5" font-family="Times New Roman,serif" font-size="14.00">sa + sb &gt; sc and</text>
<text xml:space="preserve" text-anchor="middle" x="129.62" y="-424" font-family="Times New Roman,serif" font-size="14.00">sb + sc &gt; sa and</text>
<text xml:space="preserve" text-anchor="middle" x="129.62" y="-407.5" font-family="Times New Roman,serif" font-size="14.00">sa + sc &gt; sb and</text>
<text xml:space="preserve" text-anchor="middle" x="129.62" y="-391" font-family="Times New Roman,serif" font-size="14.00">sa &gt; 0 and</text>
<text xml:space="preserve" text-anchor="middle" x="129.62" y="-374.5" font-family="Times New Roman,serif" font-size="14.00">sb &lt;= 0 and</text>
<text xml:space="preserve" text-anchor="middle" x="129.62" y="-358" font-family="Times New Roman,serif" font-size="14.00">sc &gt; 0 or</text>
<text xml:space="preserve" text-anchor="middle" x="129.62" y="-341.5" font-family="Times New Roman,serif" font-size="14.00">sa + sb &gt; sc and</text>
<text xml:space="preserve" text-anchor="middle" x="129.62" y="-325" font-family="Times New Roman,serif" font-size="14.00">sb + sc &gt; sa and</text>
<text xml:space="preserve" text-anchor="middle" x="129.62" y="-308.5" font-family="Times New Roman,serif" font-size="14.00">sa + sc &gt; sb and</text>
<text xml:space="preserve" text-anchor="middle" x="129.62" y="-292" font-family="Times New Roman,serif" font-size="14.00">sa &gt; 0 and</text>
<text xml:space="preserve" text-anchor="middle" x="129.62" y="-275.5" font-family="Times New Roman,serif" font-size="14.00">sb &gt; 0 and</text>
<text xml:space="preserve" text-anchor="middle" x="129.62" y="-259" font-family="Times New Roman,serif" font-size="14.00">sc &lt;= 0</text>
<text xml:space="preserve" text-anchor="middle" x="65" y="-857" font-family="Times New Roman,serif" font-size="14.00">[4]</text>
</g>
<!-- 18&#45;&gt;4 -->
<g id="edge1" class="edge">
<title>18&#45;&gt;4</title>
<path fill="none" stroke="black" d="M189.06,-909.48C184.36,-905.26 176.24,-897.14 172.38,-888.3 169.07,-880.74 166,-873 163.15,-865.12"/>
<polygon fill="black" stroke="black" points="166.48,-864.02 159.89,-855.72 159.86,-866.31 166.48,-864.02"/>
<text xml:space="preserve" text-anchor="middle" x="197.5" y="-875" font-family="Times New Roman,serif" font-size="14.00">split2#16</text>
</g>
<!-- 10 -->
<g id="node7" class="node">
<title>10</title>
<polygon fill="yellow" stroke="black" points="313.25,-606.3 208,-606.3 208,-499.3 313.25,-499.3 313.25,-606.3"/>
<text xml:space="preserve" text-anchor="middle" x="260.62" y="-589" font-family="Times New Roman,serif" font-size="14.00">sa + sb &gt; sc and</text>
<text xml:space="preserve" text-anchor="middle" x="260.62" y="-572.5" font-family="Times New Roman,serif" font-size="14.00">sb + sc &gt; sa and</text>
<text xml:space="preserve" text-anchor="middle" x="260.62" y="-556" font-family="Times New Roman,serif" font-size="14.00">sa + sc &gt; sb and</text>
<text xml:space="preserve" text-anchor="middle" x="260.62" y="-539.5" font-family="Times New Roman,serif" font-size="14.00">sa &gt; 0 and</text>
<text xml:space="preserve" text-anchor="middle" x="260.62" y="-523" font-family="Times New Roman,serif" font-size="14.00">sb &gt; 0 and</text>
<text xml:space="preserve" text-anchor="middle" x="260.62" y="-506.5" font-family="Times New Roman,serif" font-size="14.00">sc &gt; 0</text>
<text xml:space="preserve" text-anchor="middle" x="219.25" y="-609.5" font-family="Times New Roman,serif" font-size="14.00">[10]</text>
</g>
<!-- 18&#45;&gt;10 -->
<g id="edge8" class="edge">
<title>18&#45;&gt;10</title>
<path fill="none" stroke="black" d="M197,-910.39C203.79,-906.87 216.69,-899.09 222.62,-888.3 269.16,-803.63 271.44,-688.85 267.22,-618.13"/>
<polygon fill="black" stroke="black" points="270.72,-618 266.56,-608.26 263.73,-618.47 270.72,-618"/>
<text xml:space="preserve" text-anchor="middle" x="255.9" y="-875" font-family="Times New Roman,serif" font-size="14.00">split1#15</text>
</g>
<!-- 19 -->
<g id="node2" class="node">
<title>19</title>
<polygon fill="aquamarine" stroke="black" points="184.62,-89.3 177.43,-82.1 184.62,-74.9 191.82,-82.1 184.62,-89.3"/>
<text xml:space="preserve" text-anchor="middle" x="162.43" y="-92.5" font-family="Times New Roman,serif" font-size="14.00">&lt;19&gt;</text>
</g>
<!-- 8 -->
<g id="node5" class="node">
<title>8</title>
<ellipse fill="black" stroke="black" cx="184.62" cy="-11.2" rx="7.2" ry="7.2"/>
<ellipse fill="none" stroke="black" cx="184.62" cy="-11.2" rx="11.2" ry="11.2"/>
<text xml:space="preserve" text-anchor="middle" x="163.3" y="-25.6" font-family="Times New Roman,serif" font-size="14.00">[&#45;1]</text>
</g>
<!-- 19&#45;&gt;8 -->
<g id="edge4" class="edge">
<title>19&#45;&gt;8</title>
<path fill="none" stroke="black" d="M184.62,-74.24C184.62,-64.87 184.62,-47.63 184.62,-33.7"/>
<polygon fill="black" stroke="black" points="188.13,-34.11 184.63,-24.11 181.13,-34.11 188.13,-34.11"/>
<text xml:space="preserve" text-anchor="middle" x="230.38" y="-43.6" font-family="Times New Roman,serif" font-size="14.00">graphOr_end#19</text>
</g>
<!-- 7 -->
<g id="node4" class="node">
<title>7</title>
<polygon fill="yellow" stroke="black" points="197.5,-188.55 15.75,-188.55 15.75,-152.55 197.5,-152.55 197.5,-188.55"/>
<text xml:space="preserve" text-anchor="middle" x="106.62" y="-165.5" font-family="Times New Roman,serif" font-size="14.00">Result = &#39;EdgeErrorException&#39;</text>
<text xml:space="preserve" text-anchor="middle" x="7.88" y="-191.75" font-family="Times New Roman,serif" font-size="14.00">[7]</text>
</g>
<!-- 4&#45;&gt;7 -->
<g id="edge5" class="edge">
<title>4&#45;&gt;7</title>
<path fill="none" stroke="black" d="M111.47,-251.73C110.25,-231.54 109.18,-213.87 108.36,-200.29"/>
<polygon fill="black" stroke="black" points="111.87,-200.3 107.77,-190.53 104.88,-200.72 111.87,-200.3"/>
<text xml:space="preserve" text-anchor="middle" x="147.09" y="-220.5" font-family="Times New Roman,serif" font-size="14.00">graphAnd#10</text>
</g>
<!-- 7&#45;&gt;19 -->
<g id="edge3" class="edge">
<title>7&#45;&gt;19</title>
<path fill="none" stroke="black" d="M121.84,-152.29C132.94,-139.75 148.38,-122.4 162.12,-107.3 165.84,-103.22 169.94,-98.78 173.62,-94.84"/>
<polygon fill="black" stroke="black" points="176.09,-97.32 180.36,-87.63 170.98,-92.54 176.09,-97.32"/>
<text xml:space="preserve" text-anchor="middle" x="192.88" y="-110.5" font-family="Times New Roman,serif" font-size="14.00">merge2#18</text>
</g>
<!-- 9 -->
<g id="node6" class="node">
<title>9</title>
<ellipse fill="black" stroke="black" cx="192.62" cy="-980.4" rx="7.2" ry="7.2"/>
<text xml:space="preserve" text-anchor="middle" x="177.55" y="-990.8" font-family="Times New Roman,serif" font-size="14.00">[0]</text>
</g>
<!-- 9&#45;&gt;18 -->
<g id="edge7" class="edge">
<title>9&#45;&gt;18</title>
<path fill="none" stroke="black" d="M192.62,-972.94C192.62,-963.61 192.62,-946.01 192.62,-932.55"/>
<polygon fill="black" stroke="black" points="196.13,-932.84 192.63,-922.84 189.13,-932.84 196.13,-932.84"/>
<text xml:space="preserve" text-anchor="middle" x="240.25" y="-941.9" font-family="Times New Roman,serif" font-size="14.00">graphOr_start#14</text>
</g>
<!-- 13 -->
<g id="node8" class="node">
<title>13</title>
<polygon fill="yellow" stroke="black" points="313.5,-199.3 215.75,-199.3 215.75,-141.8 313.5,-141.8 313.5,-199.3"/>
<text xml:space="preserve" text-anchor="middle" x="264.62" y="-182" font-family="Times New Roman,serif" font-size="14.00">sideA = sa and</text>
<text xml:space="preserve" text-anchor="middle" x="264.62" y="-165.5" font-family="Times New Roman,serif" font-size="14.00">sideB = sb and</text>
<text xml:space="preserve" text-anchor="middle" x="264.62" y="-149" font-family="Times New Roman,serif" font-size="14.00">sideC = sc</text>
<text xml:space="preserve" text-anchor="middle" x="204.5" y="-202.5" font-family="Times New Roman,serif" font-size="14.00">[13]</text>
</g>
<!-- 10&#45;&gt;13 -->
<g id="edge6" class="edge">
<title>10&#45;&gt;13</title>
<path fill="none" stroke="black" d="M261.18,-498.93C261.99,-421.57 263.49,-279.31 264.21,-210.65"/>
<polygon fill="black" stroke="black" points="267.71,-211.05 264.32,-201.01 260.71,-210.98 267.71,-211.05"/>
<text xml:space="preserve" text-anchor="middle" x="301.25" y="-220.5" font-family="Times New Roman,serif" font-size="14.00">graphAnd#11</text>
</g>
<!-- 13&#45;&gt;19 -->
<g id="edge2" class="edge">
<title>13&#45;&gt;19</title>
<path fill="none" stroke="black" d="M249.78,-141.59C242.83,-130.12 233.83,-117.23 223.62,-107.3 216.57,-100.44 207.25,-94.56 199.48,-90.32"/>
<polygon fill="black" stroke="black" points="201.25,-87.29 190.75,-85.9 198.09,-93.54 201.25,-87.29"/>
<text xml:space="preserve" text-anchor="middle" x="267.76" y="-110.5" font-family="Times New Roman,serif" font-size="14.00">merge1#17</text>
</g>
</g>
</svg>
