<?xml version="1.0" encoding="UTF-8" standalone="no"?>
<!DOCTYPE svg PUBLIC "-//W3C//DTD SVG 1.1//EN"
 "http://www.w3.org/Graphics/SVG/1.1/DTD/svg11.dtd">
<!-- Generated by graphviz version 12.2.1 (20241206.2353)
 -->
<!-- Title: AST Pages: 1 -->
<svg width="294pt" height="277pt"
 viewBox="0.00 0.00 293.75 276.50" xmlns="http://www.w3.org/2000/svg" xmlns:xlink="http://www.w3.org/1999/xlink">
<g id="graph0" class="graph" transform="scale(1 1) rotate(0) translate(4 272.5)">
<title>AST</title>
<polygon fill="white" stroke="none" points="-4,4 -4,-272.5 289.75,-272.5 289.75,4 -4,4"/>
<!-- n85 -->
<g id="node1" class="node">
<title>n85</title>
<polygon fill="none" stroke="black" points="282.25,-252 35.25,-252 35.25,-216 282.25,-216 282.25,-252"/>
<text text-anchor="middle" x="158.75" y="-228.95" font-family="Times New Roman,serif" font-size="14.00">ContextDecl: node(80) Context: node (84)</text>
<text text-anchor="middle" x="24" y="-255.2" font-family="Times New Roman,serif" font-size="14.00">(85)</text>
</g>
<!-- n80 -->
<g id="node2" class="node">
<title>n80</title>
<polygon fill="none" stroke="black" points="175,-180 22.5,-180 22.5,-144 175,-144 175,-180"/>
<text text-anchor="middle" x="98.75" y="-156.95" font-family="Times New Roman,serif" font-size="14.00">Grade::getNumber() : int</text>
<text text-anchor="middle" x="11.25" y="-183.2" font-family="Times New Roman,serif" font-size="14.00">(80)</text>
</g>
<!-- n85&#45;&gt;n80 -->
<g id="edge1" class="edge">
<title>n85&#45;&gt;n80</title>
<path fill="none" stroke="black" d="M143.92,-215.7C136.94,-207.56 128.48,-197.69 120.78,-188.7"/>
<polygon fill="black" stroke="black" points="123.56,-186.57 114.4,-181.25 118.25,-191.12 123.56,-186.57"/>
</g>
<!-- n84 -->
<g id="node3" class="node">
<title>n84</title>
<polygon fill="none" stroke="black" points="246.75,-180 192.75,-180 192.75,-144 246.75,-144 246.75,-180"/>
<text text-anchor="middle" x="219.75" y="-156.95" font-family="Times New Roman,serif" font-size="14.00"> post:</text>
<text text-anchor="middle" x="159" y="-183.2" font-family="Times New Roman,serif" font-size="14.00">(84)Boolean</text>
</g>
<!-- n85&#45;&gt;n84 -->
<g id="edge2" class="edge">
<title>n85&#45;&gt;n84</title>
<path fill="none" stroke="black" d="M173.83,-215.7C180.92,-207.56 189.52,-197.69 197.35,-188.7"/>
<polygon fill="black" stroke="black" points="199.92,-191.08 203.85,-181.25 194.64,-186.49 199.92,-191.08"/>
</g>
<!-- n83 -->
<g id="node4" class="node">
<title>n83</title>
<polygon fill="none" stroke="black" points="246.75,-108 192.75,-108 192.75,-72 246.75,-72 246.75,-108"/>
<text text-anchor="middle" x="219.75" y="-84.95" font-family="Times New Roman,serif" font-size="14.00">=</text>
<text text-anchor="middle" x="159" y="-111.2" font-family="Times New Roman,serif" font-size="14.00">(83)Boolean</text>
</g>
<!-- n84&#45;&gt;n83 -->
<g id="edge3" class="edge">
<title>n84&#45;&gt;n83</title>
<path fill="none" stroke="black" d="M219.75,-143.7C219.75,-136.41 219.75,-127.73 219.75,-119.54"/>
<polygon fill="black" stroke="black" points="223.25,-119.62 219.75,-109.62 216.25,-119.62 223.25,-119.62"/>
</g>
<!-- n81 -->
<g id="node5" class="node">
<title>n81</title>
<polygon fill="none" stroke="black" points="209.75,-36 155.75,-36 155.75,0 209.75,0 209.75,-36"/>
<text text-anchor="middle" x="182.75" y="-12.95" font-family="Times New Roman,serif" font-size="14.00">result</text>
<text text-anchor="middle" x="137.38" y="-39.2" font-family="Times New Roman,serif" font-size="14.00">(81)int</text>
</g>
<!-- n83&#45;&gt;n81 -->
<g id="edge4" class="edge">
<title>n83&#45;&gt;n81</title>
<path fill="none" stroke="black" d="M210.6,-71.7C206.53,-63.98 201.63,-54.71 197.08,-46.11"/>
<polygon fill="black" stroke="black" points="200.27,-44.65 192.5,-37.44 194.08,-47.92 200.27,-44.65"/>
</g>
<!-- n82 -->
<g id="node6" class="node">
<title>n82</title>
<polygon fill="none" stroke="black" points="285.75,-36 227.75,-36 227.75,0 285.75,0 285.75,-36"/>
<text text-anchor="middle" x="256.75" y="-12.95" font-family="Times New Roman,serif" font-size="14.00">number</text>
<text text-anchor="middle" x="209.38" y="-39.2" font-family="Times New Roman,serif" font-size="14.00">(82)int</text>
</g>
<!-- n83&#45;&gt;n82 -->
<g id="edge5" class="edge">
<title>n83&#45;&gt;n82</title>
<path fill="none" stroke="black" d="M228.9,-71.7C232.97,-63.98 237.87,-54.71 242.42,-46.11"/>
<polygon fill="black" stroke="black" points="245.42,-47.92 247,-37.44 239.23,-44.65 245.42,-47.92"/>
</g>
</g>
</svg>
