<?xml version="1.0" encoding="UTF-8" standalone="no"?>
<!DOCTYPE svg PUBLIC "-//W3C//DTD SVG 1.1//EN"
 "http://www.w3.org/Graphics/SVG/1.1/DTD/svg11.dtd">
<!-- Generated by graphviz version 12.2.1 (20241206.2353)
 -->
<!-- Title: AST Pages: 1 -->
<svg width="509pt" height="349pt"
 viewBox="0.00 0.00 509.00 348.50" xmlns="http://www.w3.org/2000/svg" xmlns:xlink="http://www.w3.org/1999/xlink">
<g id="graph0" class="graph" transform="scale(1 1) rotate(0) translate(4 344.5)">
<title>AST</title>
<polygon fill="white" stroke="none" points="-4,4 -4,-344.5 505,-344.5 505,4 -4,4"/>
<!-- n26 -->
<g id="node1" class="node">
<title>n26</title>
<polygon fill="none" stroke="black" points="434.5,-324 127.5,-324 127.5,-288 434.5,-288 434.5,-324"/>
<text text-anchor="middle" x="281" y="-300.95" font-family="Times New Roman,serif" font-size="14.00">ContextDecl: node(13) Context: node (21), node (25)</text>
<text text-anchor="middle" x="116.25" y="-327.2" font-family="Times New Roman,serif" font-size="14.00">(26)</text>
</g>
<!-- n13 -->
<g id="node2" class="node">
<title>n13</title>
<polygon fill="none" stroke="black" points="173.5,-252 22.5,-252 22.5,-216 173.5,-216 173.5,-252"/>
<text text-anchor="middle" x="98" y="-228.95" font-family="Times New Roman,serif" font-size="14.00">Grade::Grade(node (12))</text>
<text text-anchor="middle" x="11.25" y="-255.2" font-family="Times New Roman,serif" font-size="14.00">(13)</text>
</g>
<!-- n26&#45;&gt;n13 -->
<g id="edge1" class="edge">
<title>n26&#45;&gt;n13</title>
<path fill="none" stroke="black" d="M235.29,-287.52C210.64,-278.08 180,-266.37 153.93,-256.39"/>
<polygon fill="black" stroke="black" points="155.44,-253.23 144.85,-252.92 152.94,-259.76 155.44,-253.23"/>
</g>
<!-- n21 -->
<g id="node3" class="node">
<title>n21</title>
<polygon fill="none" stroke="black" points="370.38,-252 191.62,-252 191.62,-216 370.38,-216 370.38,-252"/>
<text text-anchor="middle" x="281" y="-228.95" font-family="Times New Roman,serif" font-size="14.00">illegalargumentexception pre:</text>
<text text-anchor="middle" x="157.88" y="-255.2" font-family="Times New Roman,serif" font-size="14.00">(21)Boolean</text>
</g>
<!-- n26&#45;&gt;n21 -->
<g id="edge2" class="edge">
<title>n26&#45;&gt;n21</title>
<path fill="none" stroke="black" d="M281,-287.7C281,-280.41 281,-271.73 281,-263.54"/>
<polygon fill="black" stroke="black" points="284.5,-263.62 281,-253.62 277.5,-263.62 284.5,-263.62"/>
</g>
<!-- n25 -->
<g id="node4" class="node">
<title>n25</title>
<polygon fill="none" stroke="black" points="442,-252 388,-252 388,-216 442,-216 442,-252"/>
<text text-anchor="middle" x="415" y="-228.95" font-family="Times New Roman,serif" font-size="14.00"> post:</text>
<text text-anchor="middle" x="354.25" y="-255.2" font-family="Times New Roman,serif" font-size="14.00">(25)Boolean</text>
</g>
<!-- n26&#45;&gt;n25 -->
<g id="edge3" class="edge">
<title>n26&#45;&gt;n25</title>
<path fill="none" stroke="black" d="M314.47,-287.52C333.74,-277.45 358.01,-264.77 377.87,-254.4"/>
<polygon fill="black" stroke="black" points="379.22,-257.64 386.46,-249.91 375.98,-251.44 379.22,-257.64"/>
</g>
<!-- n12 -->
<g id="node5" class="node">
<title>n12</title>
<polygon fill="none" stroke="black" points="133,-180 63,-180 63,-144 133,-144 133,-180"/>
<text text-anchor="middle" x="98" y="-156.95" font-family="Times New Roman,serif" font-size="14.00">score : int</text>
<text text-anchor="middle" x="44.62" y="-183.2" font-family="Times New Roman,serif" font-size="14.00">(12)int</text>
</g>
<!-- n13&#45;&gt;n12 -->
<g id="edge4" class="edge">
<title>n13&#45;&gt;n12</title>
<path fill="none" stroke="black" d="M98,-215.7C98,-208.41 98,-199.73 98,-191.54"/>
<polygon fill="black" stroke="black" points="101.5,-191.62 98,-181.62 94.5,-191.62 101.5,-191.62"/>
</g>
<!-- n20 -->
<g id="node6" class="node">
<title>n20</title>
<polygon fill="none" stroke="black" points="308,-180 254,-180 254,-144 308,-144 308,-180"/>
<text text-anchor="middle" x="281" y="-156.95" font-family="Times New Roman,serif" font-size="14.00">and</text>
<text text-anchor="middle" x="220.25" y="-183.2" font-family="Times New Roman,serif" font-size="14.00">(20)Boolean</text>
</g>
<!-- n21&#45;&gt;n20 -->
<g id="edge5" class="edge">
<title>n21&#45;&gt;n20</title>
<path fill="none" stroke="black" d="M281,-215.7C281,-208.41 281,-199.73 281,-191.54"/>
<polygon fill="black" stroke="black" points="284.5,-191.62 281,-181.62 277.5,-191.62 284.5,-191.62"/>
</g>
<!-- n24 -->
<g id="node7" class="node">
<title>n24</title>
<polygon fill="none" stroke="black" points="442,-180 388,-180 388,-144 442,-144 442,-180"/>
<text text-anchor="middle" x="415" y="-156.95" font-family="Times New Roman,serif" font-size="14.00">=</text>
<text text-anchor="middle" x="354.25" y="-183.2" font-family="Times New Roman,serif" font-size="14.00">(24)Boolean</text>
</g>
<!-- n25&#45;&gt;n24 -->
<g id="edge6" class="edge">
<title>n25&#45;&gt;n24</title>
<path fill="none" stroke="black" d="M415,-215.7C415,-208.41 415,-199.73 415,-191.54"/>
<polygon fill="black" stroke="black" points="418.5,-191.62 415,-181.62 411.5,-191.62 418.5,-191.62"/>
</g>
<!-- n16 -->
<g id="node8" class="node">
<title>n16</title>
<polygon fill="none" stroke="black" points="266,-108 212,-108 212,-72 266,-72 266,-108"/>
<text text-anchor="middle" x="239" y="-84.95" font-family="Times New Roman,serif" font-size="14.00">&gt;=</text>
<text text-anchor="middle" x="178.25" y="-111.2" font-family="Times New Roman,serif" font-size="14.00">(16)Boolean</text>
</g>
<!-- n20&#45;&gt;n16 -->
<g id="edge7" class="edge">
<title>n20&#45;&gt;n16</title>
<path fill="none" stroke="black" d="M270.62,-143.7C265.94,-135.9 260.31,-126.51 255.1,-117.83"/>
<polygon fill="black" stroke="black" points="258.19,-116.18 250.04,-109.4 252.19,-119.78 258.19,-116.18"/>
</g>
<!-- n19 -->
<g id="node9" class="node">
<title>n19</title>
<polygon fill="none" stroke="black" points="338,-108 284,-108 284,-72 338,-72 338,-108"/>
<text text-anchor="middle" x="311" y="-84.95" font-family="Times New Roman,serif" font-size="14.00">&lt;=</text>
<text text-anchor="middle" x="250.25" y="-111.2" font-family="Times New Roman,serif" font-size="14.00">(19)Boolean</text>
</g>
<!-- n20&#45;&gt;n19 -->
<g id="edge8" class="edge">
<title>n20&#45;&gt;n19</title>
<path fill="none" stroke="black" d="M288.42,-143.7C291.65,-136.15 295.52,-127.12 299.14,-118.68"/>
<polygon fill="black" stroke="black" points="302.35,-120.07 303.07,-109.5 295.92,-117.31 302.35,-120.07"/>
</g>
<!-- n22 -->
<g id="node10" class="node">
<title>n22</title>
<polygon fill="none" stroke="black" points="429,-108 371,-108 371,-72 429,-72 429,-108"/>
<text text-anchor="middle" x="400" y="-84.95" font-family="Times New Roman,serif" font-size="14.00">number</text>
<text text-anchor="middle" x="352.62" y="-111.2" font-family="Times New Roman,serif" font-size="14.00">(22)int</text>
</g>
<!-- n24&#45;&gt;n22 -->
<g id="edge9" class="edge">
<title>n24&#45;&gt;n22</title>
<path fill="none" stroke="black" d="M411.29,-143.7C409.71,-136.32 407.83,-127.52 406.05,-119.25"/>
<polygon fill="black" stroke="black" points="409.5,-118.63 403.98,-109.58 402.66,-120.1 409.5,-118.63"/>
</g>
<!-- n23 -->
<g id="node11" class="node">
<title>n23</title>
<polygon fill="none" stroke="black" points="501,-108 447,-108 447,-72 501,-72 501,-108"/>
<text text-anchor="middle" x="474" y="-84.95" font-family="Times New Roman,serif" font-size="14.00">score</text>
<text text-anchor="middle" x="428.62" y="-111.2" font-family="Times New Roman,serif" font-size="14.00">(23)int</text>
</g>
<!-- n24&#45;&gt;n23 -->
<g id="edge10" class="edge">
<title>n24&#45;&gt;n23</title>
<path fill="none" stroke="black" d="M429.58,-143.7C436.44,-135.56 444.76,-125.69 452.34,-116.7"/>
<polygon fill="black" stroke="black" points="454.84,-119.16 458.61,-109.26 449.49,-114.65 454.84,-119.16"/>
</g>
<!-- n14 -->
<g id="node12" class="node">
<title>n14</title>
<polygon fill="none" stroke="black" points="194,-36 140,-36 140,0 194,0 194,-36"/>
<text text-anchor="middle" x="167" y="-12.95" font-family="Times New Roman,serif" font-size="14.00">score</text>
<text text-anchor="middle" x="121.62" y="-39.2" font-family="Times New Roman,serif" font-size="14.00">(14)int</text>
</g>
<!-- n16&#45;&gt;n14 -->
<g id="edge11" class="edge">
<title>n16&#45;&gt;n14</title>
<path fill="none" stroke="black" d="M221.2,-71.7C212.72,-63.45 202.41,-53.43 193.07,-44.35"/>
<polygon fill="black" stroke="black" points="195.54,-41.86 185.93,-37.4 190.66,-46.88 195.54,-41.86"/>
</g>
<!-- n15 -->
<g id="node13" class="node">
<title>n15</title>
<polygon fill="none" stroke="black" points="266,-36 212,-36 212,0 266,0 266,-36"/>
<text text-anchor="middle" x="239" y="-12.95" font-family="Times New Roman,serif" font-size="14.00">0</text>
<text text-anchor="middle" x="193.62" y="-39.2" font-family="Times New Roman,serif" font-size="14.00">(15)int</text>
</g>
<!-- n16&#45;&gt;n15 -->
<g id="edge12" class="edge">
<title>n16&#45;&gt;n15</title>
<path fill="none" stroke="black" d="M239,-71.7C239,-64.41 239,-55.73 239,-47.54"/>
<polygon fill="black" stroke="black" points="242.5,-47.62 239,-37.62 235.5,-47.62 242.5,-47.62"/>
</g>
<!-- n17 -->
<g id="node14" class="node">
<title>n17</title>
<polygon fill="none" stroke="black" points="338,-36 284,-36 284,0 338,0 338,-36"/>
<text text-anchor="middle" x="311" y="-12.95" font-family="Times New Roman,serif" font-size="14.00">score</text>
<text text-anchor="middle" x="265.62" y="-39.2" font-family="Times New Roman,serif" font-size="14.00">(17)int</text>
</g>
<!-- n19&#45;&gt;n17 -->
<g id="edge13" class="edge">
<title>n19&#45;&gt;n17</title>
<path fill="none" stroke="black" d="M311,-71.7C311,-64.41 311,-55.73 311,-47.54"/>
<polygon fill="black" stroke="black" points="314.5,-47.62 311,-37.62 307.5,-47.62 314.5,-47.62"/>
</g>
<!-- n18 -->
<g id="node15" class="node">
<title>n18</title>
<polygon fill="none" stroke="black" points="410,-36 356,-36 356,0 410,0 410,-36"/>
<text text-anchor="middle" x="383" y="-12.95" font-family="Times New Roman,serif" font-size="14.00">100</text>
<text text-anchor="middle" x="337.62" y="-39.2" font-family="Times New Roman,serif" font-size="14.00">(18)int</text>
</g>
<!-- n19&#45;&gt;n18 -->
<g id="edge14" class="edge">
<title>n19&#45;&gt;n18</title>
<path fill="none" stroke="black" d="M328.8,-71.7C337.28,-63.45 347.59,-53.43 356.93,-44.35"/>
<polygon fill="black" stroke="black" points="359.34,-46.88 364.07,-37.4 354.46,-41.86 359.34,-46.88"/>
</g>
</g>
</svg>
