<?xml version="1.0" encoding="UTF-8" standalone="no"?>
<!DOCTYPE svg PUBLIC "-//W3C//DTD SVG 1.1//EN"
 "http://www.w3.org/Graphics/SVG/1.1/DTD/svg11.dtd">
<!-- Generated by graphviz version 13.1.2 (20250808.2320)
 -->
<!-- Title: AST Pages: 1 -->
<svg width="1356pt" height="637pt"
 viewBox="0.00 0.00 1356.00 637.00" xmlns="http://www.w3.org/2000/svg" xmlns:xlink="http://www.w3.org/1999/xlink">
<g id="graph0" class="graph" transform="scale(1 1) rotate(0) translate(4 632.5)">
<title>AST</title>
<polygon fill="white" stroke="none" points="-4,4 -4,-632.5 1351.62,-632.5 1351.62,4 -4,4"/>
<!-- n79 -->
<g id="node1" class="node">
<title>n79</title>
<polygon fill="none" stroke="black" points="298.12,-612 51.12,-612 51.12,-576 298.12,-576 298.12,-612"/>
<text xml:space="preserve" text-anchor="middle" x="174.62" y="-588.95" font-family="Times New Roman,serif" font-size="14.00">ContextDecl: node(27) Context: node (78)</text>
<text xml:space="preserve" text-anchor="middle" x="39.88" y="-615.2" font-family="Times New Roman,serif" font-size="14.00">(79)</text>
</g>
<!-- n27 -->
<g id="node2" class="node">
<title>n27</title>
<polygon fill="none" stroke="black" points="187.25,-540 46,-540 46,-504 187.25,-504 187.25,-540"/>
<text xml:space="preserve" text-anchor="middle" x="116.62" y="-516.95" font-family="Times New Roman,serif" font-size="14.00">Grade::rating() : String</text>
<text xml:space="preserve" text-anchor="middle" x="34.75" y="-543.2" font-family="Times New Roman,serif" font-size="14.00">(27)</text>
</g>
<!-- n79&#45;&gt;n27 -->
<g id="edge1" class="edge">
<title>n79&#45;&gt;n27</title>
<path fill="none" stroke="black" d="M160.29,-575.7C153.55,-567.56 145.37,-557.69 137.92,-548.7"/>
<polygon fill="black" stroke="black" points="140.84,-546.74 131.76,-541.27 135.45,-551.2 140.84,-546.74"/>
</g>
<!-- n78 -->
<g id="node3" class="node">
<title>n78</title>
<polygon fill="none" stroke="black" points="259.62,-540 205.62,-540 205.62,-504 259.62,-504 259.62,-540"/>
<text xml:space="preserve" text-anchor="middle" x="232.62" y="-516.95" font-family="Times New Roman,serif" font-size="14.00"> post:</text>
<text xml:space="preserve" text-anchor="middle" x="171.88" y="-543.2" font-family="Times New Roman,serif" font-size="14.00">(78)Boolean</text>
</g>
<!-- n79&#45;&gt;n78 -->
<g id="edge2" class="edge">
<title>n79&#45;&gt;n78</title>
<path fill="none" stroke="black" d="M188.96,-575.7C195.7,-567.56 203.88,-557.69 211.33,-548.7"/>
<polygon fill="black" stroke="black" points="213.8,-551.2 217.49,-541.27 208.41,-546.74 213.8,-551.2"/>
</g>
<!-- n77 -->
<g id="node4" class="node">
<title>n77</title>
<polygon fill="none" stroke="black" points="397.75,-468 67.5,-468 67.5,-432 397.75,-432 397.75,-468"/>
<text xml:space="preserve" text-anchor="middle" x="232.62" y="-444.95" font-family="Times New Roman,serif" font-size="14.00">IfExp ConditionNode:(30) thenNode: (33) elseNode: (76)</text>
<text xml:space="preserve" text-anchor="middle" x="33.75" y="-471.2" font-family="Times New Roman,serif" font-size="14.00">(77)Boolean</text>
</g>
<!-- n78&#45;&gt;n77 -->
<g id="edge3" class="edge">
<title>n78&#45;&gt;n77</title>
<path fill="none" stroke="black" d="M232.62,-503.7C232.62,-496.41 232.62,-487.73 232.62,-479.54"/>
<polygon fill="black" stroke="black" points="236.13,-479.62 232.63,-469.62 229.13,-479.62 236.13,-479.62"/>
</g>
<!-- n30 -->
<g id="node5" class="node">
<title>n30</title>
<polygon fill="none" stroke="black" points="184.62,-396 130.62,-396 130.62,-360 184.62,-360 184.62,-396"/>
<text xml:space="preserve" text-anchor="middle" x="157.62" y="-372.95" font-family="Times New Roman,serif" font-size="14.00">&lt;=</text>
<text xml:space="preserve" text-anchor="middle" x="96.88" y="-399.2" font-family="Times New Roman,serif" font-size="14.00">(30)Boolean</text>
</g>
<!-- n77&#45;&gt;n30 -->
<g id="edge4" class="edge">
<title>n77&#45;&gt;n30</title>
<path fill="none" stroke="black" d="M214.09,-431.7C205.16,-423.37 194.29,-413.22 184.48,-404.07"/>
<polygon fill="black" stroke="black" points="187.02,-401.64 177.32,-397.38 182.24,-406.76 187.02,-401.64"/>
</g>
<!-- n33 -->
<g id="node6" class="node">
<title>n33</title>
<polygon fill="none" stroke="black" points="259.62,-396 205.62,-396 205.62,-360 259.62,-360 259.62,-396"/>
<text xml:space="preserve" text-anchor="middle" x="232.62" y="-372.95" font-family="Times New Roman,serif" font-size="14.00">=</text>
<text xml:space="preserve" text-anchor="middle" x="171.88" y="-399.2" font-family="Times New Roman,serif" font-size="14.00">(33)Boolean</text>
</g>
<!-- n77&#45;&gt;n33 -->
<g id="edge5" class="edge">
<title>n77&#45;&gt;n33</title>
<path fill="none" stroke="black" d="M232.62,-431.7C232.62,-424.41 232.62,-415.73 232.62,-407.54"/>
<polygon fill="black" stroke="black" points="236.13,-407.62 232.63,-397.62 229.13,-407.62 236.13,-407.62"/>
</g>
<!-- n76 -->
<g id="node7" class="node">
<title>n76</title>
<polygon fill="none" stroke="black" points="608.75,-396 278.5,-396 278.5,-360 608.75,-360 608.75,-396"/>
<text xml:space="preserve" text-anchor="middle" x="443.62" y="-372.95" font-family="Times New Roman,serif" font-size="14.00">IfExp ConditionNode:(40) thenNode: (43) elseNode: (75)</text>
<text xml:space="preserve" text-anchor="middle" x="244.75" y="-399.2" font-family="Times New Roman,serif" font-size="14.00">(76)Boolean</text>
</g>
<!-- n77&#45;&gt;n76 -->
<g id="edge6" class="edge">
<title>n77&#45;&gt;n76</title>
<path fill="none" stroke="black" d="M285.32,-431.52C314.13,-421.96 350.02,-410.05 380.34,-400"/>
<polygon fill="black" stroke="black" points="381.41,-403.33 389.8,-396.86 379.2,-396.69 381.41,-403.33"/>
</g>
<!-- n28 -->
<g id="node8" class="node">
<title>n28</title>
<polygon fill="none" stroke="black" points="112.62,-324 54.62,-324 54.62,-288 112.62,-288 112.62,-324"/>
<text xml:space="preserve" text-anchor="middle" x="83.62" y="-300.95" font-family="Times New Roman,serif" font-size="14.00">number</text>
<text xml:space="preserve" text-anchor="middle" x="36.25" y="-327.2" font-family="Times New Roman,serif" font-size="14.00">(28)int</text>
</g>
<!-- n30&#45;&gt;n28 -->
<g id="edge7" class="edge">
<title>n30&#45;&gt;n28</title>
<path fill="none" stroke="black" d="M139.33,-359.7C130.53,-351.37 119.8,-341.22 110.13,-332.07"/>
<polygon fill="black" stroke="black" points="112.73,-329.72 103.06,-325.39 107.92,-334.8 112.73,-329.72"/>
</g>
<!-- n29 -->
<g id="node9" class="node">
<title>n29</title>
<polygon fill="none" stroke="black" points="184.62,-324 130.62,-324 130.62,-288 184.62,-288 184.62,-324"/>
<text xml:space="preserve" text-anchor="middle" x="157.62" y="-300.95" font-family="Times New Roman,serif" font-size="14.00">59</text>
<text xml:space="preserve" text-anchor="middle" x="112.25" y="-327.2" font-family="Times New Roman,serif" font-size="14.00">(29)int</text>
</g>
<!-- n30&#45;&gt;n29 -->
<g id="edge8" class="edge">
<title>n30&#45;&gt;n29</title>
<path fill="none" stroke="black" d="M157.62,-359.7C157.62,-352.41 157.62,-343.73 157.62,-335.54"/>
<polygon fill="black" stroke="black" points="161.13,-335.62 157.63,-325.62 154.13,-335.62 161.13,-335.62"/>
</g>
<!-- n31 -->
<g id="node10" class="node">
<title>n31</title>
<polygon fill="none" stroke="black" points="256.62,-324 202.62,-324 202.62,-288 256.62,-288 256.62,-324"/>
<text xml:space="preserve" text-anchor="middle" x="229.62" y="-300.95" font-family="Times New Roman,serif" font-size="14.00">result</text>
<text xml:space="preserve" text-anchor="middle" x="174.88" y="-327.2" font-family="Times New Roman,serif" font-size="14.00">(31)String</text>
</g>
<!-- n33&#45;&gt;n31 -->
<g id="edge9" class="edge">
<title>n33&#45;&gt;n31</title>
<path fill="none" stroke="black" d="M231.88,-359.7C231.57,-352.41 231.2,-343.73 230.85,-335.54"/>
<polygon fill="black" stroke="black" points="234.35,-335.46 230.42,-325.62 227.35,-335.76 234.35,-335.46"/>
</g>
<!-- n32 -->
<g id="node11" class="node">
<title>n32</title>
<polygon fill="none" stroke="black" points="328.62,-324 274.62,-324 274.62,-288 328.62,-288 328.62,-324"/>
<text xml:space="preserve" text-anchor="middle" x="301.62" y="-300.95" font-family="Times New Roman,serif" font-size="14.00">F</text>
<text xml:space="preserve" text-anchor="middle" x="246.88" y="-327.2" font-family="Times New Roman,serif" font-size="14.00">(32)String</text>
</g>
<!-- n33&#45;&gt;n32 -->
<g id="edge10" class="edge">
<title>n33&#45;&gt;n32</title>
<path fill="none" stroke="black" d="M249.68,-359.7C257.87,-351.39 267.84,-341.28 276.84,-332.14"/>
<polygon fill="black" stroke="black" points="279.18,-334.76 283.7,-325.18 274.19,-329.85 279.18,-334.76"/>
</g>
<!-- n40 -->
<g id="node12" class="node">
<title>n40</title>
<polygon fill="none" stroke="black" points="400.62,-324 346.62,-324 346.62,-288 400.62,-288 400.62,-324"/>
<text xml:space="preserve" text-anchor="middle" x="373.62" y="-300.95" font-family="Times New Roman,serif" font-size="14.00">and</text>
<text xml:space="preserve" text-anchor="middle" x="312.88" y="-327.2" font-family="Times New Roman,serif" font-size="14.00">(40)Boolean</text>
</g>
<!-- n76&#45;&gt;n40 -->
<g id="edge11" class="edge">
<title>n76&#45;&gt;n40</title>
<path fill="none" stroke="black" d="M426.32,-359.7C418.01,-351.39 407.9,-341.28 398.77,-332.14"/>
<polygon fill="black" stroke="black" points="401.35,-329.77 391.8,-325.17 396.4,-334.72 401.35,-329.77"/>
</g>
<!-- n43 -->
<g id="node13" class="node">
<title>n43</title>
<polygon fill="none" stroke="black" points="472.62,-324 418.62,-324 418.62,-288 472.62,-288 472.62,-324"/>
<text xml:space="preserve" text-anchor="middle" x="445.62" y="-300.95" font-family="Times New Roman,serif" font-size="14.00">=</text>
<text xml:space="preserve" text-anchor="middle" x="384.88" y="-327.2" font-family="Times New Roman,serif" font-size="14.00">(43)Boolean</text>
</g>
<!-- n76&#45;&gt;n43 -->
<g id="edge12" class="edge">
<title>n76&#45;&gt;n43</title>
<path fill="none" stroke="black" d="M444.12,-359.7C444.33,-352.41 444.58,-343.73 444.81,-335.54"/>
<polygon fill="black" stroke="black" points="448.31,-335.71 445.09,-325.62 441.31,-335.51 448.31,-335.71"/>
</g>
<!-- n75 -->
<g id="node14" class="node">
<title>n75</title>
<polygon fill="none" stroke="black" points="824.75,-324 494.5,-324 494.5,-288 824.75,-288 824.75,-324"/>
<text xml:space="preserve" text-anchor="middle" x="659.62" y="-300.95" font-family="Times New Roman,serif" font-size="14.00">IfExp ConditionNode:(50) thenNode: (53) elseNode: (74)</text>
<text xml:space="preserve" text-anchor="middle" x="460.75" y="-327.2" font-family="Times New Roman,serif" font-size="14.00">(75)Boolean</text>
</g>
<!-- n76&#45;&gt;n75 -->
<g id="edge13" class="edge">
<title>n76&#45;&gt;n75</title>
<path fill="none" stroke="black" d="M497.57,-359.52C527.19,-349.92 564.12,-337.95 595.25,-327.86"/>
<polygon fill="black" stroke="black" points="596.12,-331.26 604.55,-324.85 593.96,-324.6 596.12,-331.26"/>
</g>
<!-- n36 -->
<g id="node15" class="node">
<title>n36</title>
<polygon fill="none" stroke="black" points="325.62,-252 271.62,-252 271.62,-216 325.62,-216 325.62,-252"/>
<text xml:space="preserve" text-anchor="middle" x="298.62" y="-228.95" font-family="Times New Roman,serif" font-size="14.00">&gt;=</text>
<text xml:space="preserve" text-anchor="middle" x="237.88" y="-255.2" font-family="Times New Roman,serif" font-size="14.00">(36)Boolean</text>
</g>
<!-- n40&#45;&gt;n36 -->
<g id="edge14" class="edge">
<title>n40&#45;&gt;n36</title>
<path fill="none" stroke="black" d="M355.09,-287.7C346.16,-279.37 335.29,-269.22 325.48,-260.07"/>
<polygon fill="black" stroke="black" points="328.02,-257.64 318.32,-253.38 323.24,-262.76 328.02,-257.64"/>
</g>
<!-- n39 -->
<g id="node16" class="node">
<title>n39</title>
<polygon fill="none" stroke="black" points="400.62,-252 346.62,-252 346.62,-216 400.62,-216 400.62,-252"/>
<text xml:space="preserve" text-anchor="middle" x="373.62" y="-228.95" font-family="Times New Roman,serif" font-size="14.00">&lt;=</text>
<text xml:space="preserve" text-anchor="middle" x="312.88" y="-255.2" font-family="Times New Roman,serif" font-size="14.00">(39)Boolean</text>
</g>
<!-- n40&#45;&gt;n39 -->
<g id="edge15" class="edge">
<title>n40&#45;&gt;n39</title>
<path fill="none" stroke="black" d="M373.62,-287.7C373.62,-280.41 373.62,-271.73 373.62,-263.54"/>
<polygon fill="black" stroke="black" points="377.13,-263.62 373.63,-253.62 370.13,-263.62 377.13,-263.62"/>
</g>
<!-- n41 -->
<g id="node17" class="node">
<title>n41</title>
<polygon fill="none" stroke="black" points="472.62,-252 418.62,-252 418.62,-216 472.62,-216 472.62,-252"/>
<text xml:space="preserve" text-anchor="middle" x="445.62" y="-228.95" font-family="Times New Roman,serif" font-size="14.00">result</text>
<text xml:space="preserve" text-anchor="middle" x="390.88" y="-255.2" font-family="Times New Roman,serif" font-size="14.00">(41)String</text>
</g>
<!-- n43&#45;&gt;n41 -->
<g id="edge16" class="edge">
<title>n43&#45;&gt;n41</title>
<path fill="none" stroke="black" d="M445.62,-287.7C445.62,-280.41 445.62,-271.73 445.62,-263.54"/>
<polygon fill="black" stroke="black" points="449.13,-263.62 445.63,-253.62 442.13,-263.62 449.13,-263.62"/>
</g>
<!-- n42 -->
<g id="node18" class="node">
<title>n42</title>
<polygon fill="none" stroke="black" points="544.62,-252 490.62,-252 490.62,-216 544.62,-216 544.62,-252"/>
<text xml:space="preserve" text-anchor="middle" x="517.62" y="-228.95" font-family="Times New Roman,serif" font-size="14.00">D</text>
<text xml:space="preserve" text-anchor="middle" x="462.88" y="-255.2" font-family="Times New Roman,serif" font-size="14.00">(42)String</text>
</g>
<!-- n43&#45;&gt;n42 -->
<g id="edge17" class="edge">
<title>n43&#45;&gt;n42</title>
<path fill="none" stroke="black" d="M463.42,-287.7C471.9,-279.45 482.21,-269.43 491.56,-260.35"/>
<polygon fill="black" stroke="black" points="493.97,-262.88 498.7,-253.4 489.09,-257.86 493.97,-262.88"/>
</g>
<!-- n50 -->
<g id="node19" class="node">
<title>n50</title>
<polygon fill="none" stroke="black" points="618.62,-252 564.62,-252 564.62,-216 618.62,-216 618.62,-252"/>
<text xml:space="preserve" text-anchor="middle" x="591.62" y="-228.95" font-family="Times New Roman,serif" font-size="14.00">and</text>
<text xml:space="preserve" text-anchor="middle" x="530.88" y="-255.2" font-family="Times New Roman,serif" font-size="14.00">(50)Boolean</text>
</g>
<!-- n75&#45;&gt;n50 -->
<g id="edge18" class="edge">
<title>n75&#45;&gt;n50</title>
<path fill="none" stroke="black" d="M642.82,-287.7C634.75,-279.39 624.92,-269.28 616.05,-260.14"/>
<polygon fill="black" stroke="black" points="618.77,-257.92 609.3,-253.19 613.75,-262.8 618.77,-257.92"/>
</g>
<!-- n53 -->
<g id="node20" class="node">
<title>n53</title>
<polygon fill="none" stroke="black" points="690.62,-252 636.62,-252 636.62,-216 690.62,-216 690.62,-252"/>
<text xml:space="preserve" text-anchor="middle" x="663.62" y="-228.95" font-family="Times New Roman,serif" font-size="14.00">=</text>
<text xml:space="preserve" text-anchor="middle" x="602.88" y="-255.2" font-family="Times New Roman,serif" font-size="14.00">(53)Boolean</text>
</g>
<!-- n75&#45;&gt;n53 -->
<g id="edge19" class="edge">
<title>n75&#45;&gt;n53</title>
<path fill="none" stroke="black" d="M660.61,-287.7C661.03,-280.41 661.53,-271.73 661.99,-263.54"/>
<polygon fill="black" stroke="black" points="665.48,-263.8 662.56,-253.62 658.5,-263.4 665.48,-263.8"/>
</g>
<!-- n74 -->
<g id="node21" class="node">
<title>n74</title>
<polygon fill="none" stroke="black" points="1043.75,-252 713.5,-252 713.5,-216 1043.75,-216 1043.75,-252"/>
<text xml:space="preserve" text-anchor="middle" x="878.62" y="-228.95" font-family="Times New Roman,serif" font-size="14.00">IfExp ConditionNode:(60) thenNode: (63) elseNode: (73)</text>
<text xml:space="preserve" text-anchor="middle" x="679.75" y="-255.2" font-family="Times New Roman,serif" font-size="14.00">(74)Boolean</text>
</g>
<!-- n75&#45;&gt;n74 -->
<g id="edge20" class="edge">
<title>n75&#45;&gt;n74</title>
<path fill="none" stroke="black" d="M714.32,-287.52C744.36,-277.92 781.8,-265.95 813.35,-255.86"/>
<polygon fill="black" stroke="black" points="814.34,-259.22 822.8,-252.84 812.21,-252.55 814.34,-259.22"/>
</g>
<!-- n34 -->
<g id="node22" class="node">
<title>n34</title>
<polygon fill="none" stroke="black" points="253.62,-180 195.62,-180 195.62,-144 253.62,-144 253.62,-180"/>
<text xml:space="preserve" text-anchor="middle" x="224.62" y="-156.95" font-family="Times New Roman,serif" font-size="14.00">number</text>
<text xml:space="preserve" text-anchor="middle" x="177.25" y="-183.2" font-family="Times New Roman,serif" font-size="14.00">(34)int</text>
</g>
<!-- n36&#45;&gt;n34 -->
<g id="edge21" class="edge">
<title>n36&#45;&gt;n34</title>
<path fill="none" stroke="black" d="M280.33,-215.7C271.53,-207.37 260.8,-197.22 251.13,-188.07"/>
<polygon fill="black" stroke="black" points="253.73,-185.72 244.06,-181.39 248.92,-190.8 253.73,-185.72"/>
</g>
<!-- n35 -->
<g id="node23" class="node">
<title>n35</title>
<polygon fill="none" stroke="black" points="325.62,-180 271.62,-180 271.62,-144 325.62,-144 325.62,-180"/>
<text xml:space="preserve" text-anchor="middle" x="298.62" y="-156.95" font-family="Times New Roman,serif" font-size="14.00">60</text>
<text xml:space="preserve" text-anchor="middle" x="253.25" y="-183.2" font-family="Times New Roman,serif" font-size="14.00">(35)int</text>
</g>
<!-- n36&#45;&gt;n35 -->
<g id="edge22" class="edge">
<title>n36&#45;&gt;n35</title>
<path fill="none" stroke="black" d="M298.62,-215.7C298.62,-208.41 298.62,-199.73 298.62,-191.54"/>
<polygon fill="black" stroke="black" points="302.13,-191.62 298.63,-181.62 295.13,-191.62 302.13,-191.62"/>
</g>
<!-- n37 -->
<g id="node24" class="node">
<title>n37</title>
<polygon fill="none" stroke="black" points="401.62,-180 343.62,-180 343.62,-144 401.62,-144 401.62,-180"/>
<text xml:space="preserve" text-anchor="middle" x="372.62" y="-156.95" font-family="Times New Roman,serif" font-size="14.00">number</text>
<text xml:space="preserve" text-anchor="middle" x="325.25" y="-183.2" font-family="Times New Roman,serif" font-size="14.00">(37)int</text>
</g>
<!-- n39&#45;&gt;n37 -->
<g id="edge23" class="edge">
<title>n39&#45;&gt;n37</title>
<path fill="none" stroke="black" d="M373.38,-215.7C373.27,-208.41 373.15,-199.73 373.03,-191.54"/>
<polygon fill="black" stroke="black" points="376.53,-191.57 372.89,-181.62 369.53,-191.67 376.53,-191.57"/>
</g>
<!-- n38 -->
<g id="node25" class="node">
<title>n38</title>
<polygon fill="none" stroke="black" points="473.62,-180 419.62,-180 419.62,-144 473.62,-144 473.62,-180"/>
<text xml:space="preserve" text-anchor="middle" x="446.62" y="-156.95" font-family="Times New Roman,serif" font-size="14.00">69</text>
<text xml:space="preserve" text-anchor="middle" x="401.25" y="-183.2" font-family="Times New Roman,serif" font-size="14.00">(38)int</text>
</g>
<!-- n39&#45;&gt;n38 -->
<g id="edge24" class="edge">
<title>n39&#45;&gt;n38</title>
<path fill="none" stroke="black" d="M391.67,-215.7C400.36,-207.37 410.94,-197.22 420.48,-188.07"/>
<polygon fill="black" stroke="black" points="422.65,-190.84 427.44,-181.39 417.8,-185.79 422.65,-190.84"/>
</g>
<!-- n46 -->
<g id="node26" class="node">
<title>n46</title>
<polygon fill="none" stroke="black" points="545.62,-180 491.62,-180 491.62,-144 545.62,-144 545.62,-180"/>
<text xml:space="preserve" text-anchor="middle" x="518.62" y="-156.95" font-family="Times New Roman,serif" font-size="14.00">&gt;=</text>
<text xml:space="preserve" text-anchor="middle" x="457.88" y="-183.2" font-family="Times New Roman,serif" font-size="14.00">(46)Boolean</text>
</g>
<!-- n50&#45;&gt;n46 -->
<g id="edge25" class="edge">
<title>n50&#45;&gt;n46</title>
<path fill="none" stroke="black" d="M573.58,-215.7C564.89,-207.37 554.31,-197.22 544.77,-188.07"/>
<polygon fill="black" stroke="black" points="547.45,-185.79 537.81,-181.39 542.6,-190.84 547.45,-185.79"/>
</g>
<!-- n49 -->
<g id="node27" class="node">
<title>n49</title>
<polygon fill="none" stroke="black" points="618.62,-180 564.62,-180 564.62,-144 618.62,-144 618.62,-180"/>
<text xml:space="preserve" text-anchor="middle" x="591.62" y="-156.95" font-family="Times New Roman,serif" font-size="14.00">&lt;=</text>
<text xml:space="preserve" text-anchor="middle" x="530.88" y="-183.2" font-family="Times New Roman,serif" font-size="14.00">(49)Boolean</text>
</g>
<!-- n50&#45;&gt;n49 -->
<g id="edge26" class="edge">
<title>n50&#45;&gt;n49</title>
<path fill="none" stroke="black" d="M591.62,-215.7C591.62,-208.41 591.62,-199.73 591.62,-191.54"/>
<polygon fill="black" stroke="black" points="595.13,-191.62 591.63,-181.62 588.13,-191.62 595.13,-191.62"/>
</g>
<!-- n51 -->
<g id="node28" class="node">
<title>n51</title>
<polygon fill="none" stroke="black" points="690.62,-180 636.62,-180 636.62,-144 690.62,-144 690.62,-180"/>
<text xml:space="preserve" text-anchor="middle" x="663.62" y="-156.95" font-family="Times New Roman,serif" font-size="14.00">result</text>
<text xml:space="preserve" text-anchor="middle" x="608.88" y="-183.2" font-family="Times New Roman,serif" font-size="14.00">(51)String</text>
</g>
<!-- n53&#45;&gt;n51 -->
<g id="edge27" class="edge">
<title>n53&#45;&gt;n51</title>
<path fill="none" stroke="black" d="M663.62,-215.7C663.62,-208.41 663.62,-199.73 663.62,-191.54"/>
<polygon fill="black" stroke="black" points="667.13,-191.62 663.63,-181.62 660.13,-191.62 667.13,-191.62"/>
</g>
<!-- n52 -->
<g id="node29" class="node">
<title>n52</title>
<polygon fill="none" stroke="black" points="762.62,-180 708.62,-180 708.62,-144 762.62,-144 762.62,-180"/>
<text xml:space="preserve" text-anchor="middle" x="735.62" y="-156.95" font-family="Times New Roman,serif" font-size="14.00">C</text>
<text xml:space="preserve" text-anchor="middle" x="680.88" y="-183.2" font-family="Times New Roman,serif" font-size="14.00">(52)String</text>
</g>
<!-- n53&#45;&gt;n52 -->
<g id="edge28" class="edge">
<title>n53&#45;&gt;n52</title>
<path fill="none" stroke="black" d="M681.42,-215.7C689.9,-207.45 700.21,-197.43 709.56,-188.35"/>
<polygon fill="black" stroke="black" points="711.97,-190.88 716.7,-181.4 707.09,-185.86 711.97,-190.88"/>
</g>
<!-- n60 -->
<g id="node30" class="node">
<title>n60</title>
<polygon fill="none" stroke="black" points="837.62,-180 783.62,-180 783.62,-144 837.62,-144 837.62,-180"/>
<text xml:space="preserve" text-anchor="middle" x="810.62" y="-156.95" font-family="Times New Roman,serif" font-size="14.00">and</text>
<text xml:space="preserve" text-anchor="middle" x="749.88" y="-183.2" font-family="Times New Roman,serif" font-size="14.00">(60)Boolean</text>
</g>
<!-- n74&#45;&gt;n60 -->
<g id="edge29" class="edge">
<title>n74&#45;&gt;n60</title>
<path fill="none" stroke="black" d="M861.82,-215.7C853.75,-207.39 843.92,-197.28 835.05,-188.14"/>
<polygon fill="black" stroke="black" points="837.77,-185.92 828.3,-181.19 832.75,-190.8 837.77,-185.92"/>
</g>
<!-- n63 -->
<g id="node31" class="node">
<title>n63</title>
<polygon fill="none" stroke="black" points="909.62,-180 855.62,-180 855.62,-144 909.62,-144 909.62,-180"/>
<text xml:space="preserve" text-anchor="middle" x="882.62" y="-156.95" font-family="Times New Roman,serif" font-size="14.00">=</text>
<text xml:space="preserve" text-anchor="middle" x="821.88" y="-183.2" font-family="Times New Roman,serif" font-size="14.00">(63)Boolean</text>
</g>
<!-- n74&#45;&gt;n63 -->
<g id="edge30" class="edge">
<title>n74&#45;&gt;n63</title>
<path fill="none" stroke="black" d="M879.61,-215.7C880.03,-208.41 880.53,-199.73 880.99,-191.54"/>
<polygon fill="black" stroke="black" points="884.48,-191.8 881.56,-181.62 877.5,-191.4 884.48,-191.8"/>
</g>
<!-- n73 -->
<g id="node32" class="node">
<title>n73</title>
<polygon fill="none" stroke="black" points="1263.75,-180 933.5,-180 933.5,-144 1263.75,-144 1263.75,-180"/>
<text xml:space="preserve" text-anchor="middle" x="1098.62" y="-156.95" font-family="Times New Roman,serif" font-size="14.00">IfExp ConditionNode:(66) thenNode: (69) elseNode: (72)</text>
<text xml:space="preserve" text-anchor="middle" x="899.75" y="-183.2" font-family="Times New Roman,serif" font-size="14.00">(73)Boolean</text>
</g>
<!-- n74&#45;&gt;n73 -->
<g id="edge31" class="edge">
<title>n74&#45;&gt;n73</title>
<path fill="none" stroke="black" d="M933.57,-215.52C963.74,-205.92 1001.36,-193.95 1033.05,-183.86"/>
<polygon fill="black" stroke="black" points="1034.09,-187.21 1042.55,-180.84 1031.96,-180.54 1034.09,-187.21"/>
</g>
<!-- n44 -->
<g id="node33" class="node">
<title>n44</title>
<polygon fill="none" stroke="black" points="472.62,-108 414.62,-108 414.62,-72 472.62,-72 472.62,-108"/>
<text xml:space="preserve" text-anchor="middle" x="443.62" y="-84.95" font-family="Times New Roman,serif" font-size="14.00">number</text>
<text xml:space="preserve" text-anchor="middle" x="396.25" y="-111.2" font-family="Times New Roman,serif" font-size="14.00">(44)int</text>
</g>
<!-- n46&#45;&gt;n44 -->
<g id="edge32" class="edge">
<title>n46&#45;&gt;n44</title>
<path fill="none" stroke="black" d="M500.09,-143.7C491.16,-135.37 480.29,-125.22 470.48,-116.07"/>
<polygon fill="black" stroke="black" points="473.02,-113.64 463.32,-109.38 468.24,-118.76 473.02,-113.64"/>
</g>
<!-- n45 -->
<g id="node34" class="node">
<title>n45</title>
<polygon fill="none" stroke="black" points="544.62,-108 490.62,-108 490.62,-72 544.62,-72 544.62,-108"/>
<text xml:space="preserve" text-anchor="middle" x="517.62" y="-84.95" font-family="Times New Roman,serif" font-size="14.00">70</text>
<text xml:space="preserve" text-anchor="middle" x="472.25" y="-111.2" font-family="Times New Roman,serif" font-size="14.00">(45)int</text>
</g>
<!-- n46&#45;&gt;n45 -->
<g id="edge33" class="edge">
<title>n46&#45;&gt;n45</title>
<path fill="none" stroke="black" d="M518.38,-143.7C518.27,-136.41 518.15,-127.73 518.03,-119.54"/>
<polygon fill="black" stroke="black" points="521.53,-119.57 517.89,-109.62 514.53,-119.67 521.53,-119.57"/>
</g>
<!-- n47 -->
<g id="node35" class="node">
<title>n47</title>
<polygon fill="none" stroke="black" points="620.62,-108 562.62,-108 562.62,-72 620.62,-72 620.62,-108"/>
<text xml:space="preserve" text-anchor="middle" x="591.62" y="-84.95" font-family="Times New Roman,serif" font-size="14.00">number</text>
<text xml:space="preserve" text-anchor="middle" x="544.25" y="-111.2" font-family="Times New Roman,serif" font-size="14.00">(47)int</text>
</g>
<!-- n49&#45;&gt;n47 -->
<g id="edge34" class="edge">
<title>n49&#45;&gt;n47</title>
<path fill="none" stroke="black" d="M591.62,-143.7C591.62,-136.41 591.62,-127.73 591.62,-119.54"/>
<polygon fill="black" stroke="black" points="595.13,-119.62 591.63,-109.62 588.13,-119.62 595.13,-119.62"/>
</g>
<!-- n48 -->
<g id="node36" class="node">
<title>n48</title>
<polygon fill="none" stroke="black" points="692.62,-108 638.62,-108 638.62,-72 692.62,-72 692.62,-108"/>
<text xml:space="preserve" text-anchor="middle" x="665.62" y="-84.95" font-family="Times New Roman,serif" font-size="14.00">79</text>
<text xml:space="preserve" text-anchor="middle" x="620.25" y="-111.2" font-family="Times New Roman,serif" font-size="14.00">(48)int</text>
</g>
<!-- n49&#45;&gt;n48 -->
<g id="edge35" class="edge">
<title>n49&#45;&gt;n48</title>
<path fill="none" stroke="black" d="M609.92,-143.7C618.72,-135.37 629.45,-125.22 639.12,-116.07"/>
<polygon fill="black" stroke="black" points="641.33,-118.8 646.19,-109.39 636.52,-113.72 641.33,-118.8"/>
</g>
<!-- n56 -->
<g id="node37" class="node">
<title>n56</title>
<polygon fill="none" stroke="black" points="764.62,-108 710.62,-108 710.62,-72 764.62,-72 764.62,-108"/>
<text xml:space="preserve" text-anchor="middle" x="737.62" y="-84.95" font-family="Times New Roman,serif" font-size="14.00">&gt;=</text>
<text xml:space="preserve" text-anchor="middle" x="676.88" y="-111.2" font-family="Times New Roman,serif" font-size="14.00">(56)Boolean</text>
</g>
<!-- n60&#45;&gt;n56 -->
<g id="edge36" class="edge">
<title>n60&#45;&gt;n56</title>
<path fill="none" stroke="black" d="M792.58,-143.7C783.89,-135.37 773.31,-125.22 763.77,-116.07"/>
<polygon fill="black" stroke="black" points="766.45,-113.79 756.81,-109.39 761.6,-118.84 766.45,-113.79"/>
</g>
<!-- n59 -->
<g id="node38" class="node">
<title>n59</title>
<polygon fill="none" stroke="black" points="837.62,-108 783.62,-108 783.62,-72 837.62,-72 837.62,-108"/>
<text xml:space="preserve" text-anchor="middle" x="810.62" y="-84.95" font-family="Times New Roman,serif" font-size="14.00">&lt;=</text>
<text xml:space="preserve" text-anchor="middle" x="749.88" y="-111.2" font-family="Times New Roman,serif" font-size="14.00">(59)Boolean</text>
</g>
<!-- n60&#45;&gt;n59 -->
<g id="edge37" class="edge">
<title>n60&#45;&gt;n59</title>
<path fill="none" stroke="black" d="M810.62,-143.7C810.62,-136.41 810.62,-127.73 810.62,-119.54"/>
<polygon fill="black" stroke="black" points="814.13,-119.62 810.63,-109.62 807.13,-119.62 814.13,-119.62"/>
</g>
<!-- n61 -->
<g id="node39" class="node">
<title>n61</title>
<polygon fill="none" stroke="black" points="909.62,-108 855.62,-108 855.62,-72 909.62,-72 909.62,-108"/>
<text xml:space="preserve" text-anchor="middle" x="882.62" y="-84.95" font-family="Times New Roman,serif" font-size="14.00">result</text>
<text xml:space="preserve" text-anchor="middle" x="827.88" y="-111.2" font-family="Times New Roman,serif" font-size="14.00">(61)String</text>
</g>
<!-- n63&#45;&gt;n61 -->
<g id="edge38" class="edge">
<title>n63&#45;&gt;n61</title>
<path fill="none" stroke="black" d="M882.62,-143.7C882.62,-136.41 882.62,-127.73 882.62,-119.54"/>
<polygon fill="black" stroke="black" points="886.13,-119.62 882.63,-109.62 879.13,-119.62 886.13,-119.62"/>
</g>
<!-- n62 -->
<g id="node40" class="node">
<title>n62</title>
<polygon fill="none" stroke="black" points="981.62,-108 927.62,-108 927.62,-72 981.62,-72 981.62,-108"/>
<text xml:space="preserve" text-anchor="middle" x="954.62" y="-84.95" font-family="Times New Roman,serif" font-size="14.00">B</text>
<text xml:space="preserve" text-anchor="middle" x="899.88" y="-111.2" font-family="Times New Roman,serif" font-size="14.00">(62)String</text>
</g>
<!-- n63&#45;&gt;n62 -->
<g id="edge39" class="edge">
<title>n63&#45;&gt;n62</title>
<path fill="none" stroke="black" d="M900.42,-143.7C908.9,-135.45 919.21,-125.43 928.56,-116.35"/>
<polygon fill="black" stroke="black" points="930.97,-118.88 935.7,-109.4 926.09,-113.86 930.97,-118.88"/>
</g>
<!-- n66 -->
<g id="node41" class="node">
<title>n66</title>
<polygon fill="none" stroke="black" points="1059.62,-108 1005.62,-108 1005.62,-72 1059.62,-72 1059.62,-108"/>
<text xml:space="preserve" text-anchor="middle" x="1032.62" y="-84.95" font-family="Times New Roman,serif" font-size="14.00">&gt;=</text>
<text xml:space="preserve" text-anchor="middle" x="971.88" y="-111.2" font-family="Times New Roman,serif" font-size="14.00">(66)Boolean</text>
</g>
<!-- n73&#45;&gt;n66 -->
<g id="edge40" class="edge">
<title>n73&#45;&gt;n66</title>
<path fill="none" stroke="black" d="M1082.31,-143.7C1074.56,-135.47 1065.14,-125.48 1056.59,-116.42"/>
<polygon fill="black" stroke="black" points="1059.2,-114.08 1049.79,-109.21 1054.1,-118.88 1059.2,-114.08"/>
</g>
<!-- n69 -->
<g id="node42" class="node">
<title>n69</title>
<polygon fill="none" stroke="black" points="1131.62,-108 1077.62,-108 1077.62,-72 1131.62,-72 1131.62,-108"/>
<text xml:space="preserve" text-anchor="middle" x="1104.62" y="-84.95" font-family="Times New Roman,serif" font-size="14.00">=</text>
<text xml:space="preserve" text-anchor="middle" x="1043.88" y="-111.2" font-family="Times New Roman,serif" font-size="14.00">(69)Boolean</text>
</g>
<!-- n73&#45;&gt;n69 -->
<g id="edge41" class="edge">
<title>n73&#45;&gt;n69</title>
<path fill="none" stroke="black" d="M1100.11,-143.7C1100.73,-136.41 1101.48,-127.73 1102.18,-119.54"/>
<polygon fill="black" stroke="black" points="1105.66,-119.87 1103.03,-109.61 1098.69,-119.28 1105.66,-119.87"/>
</g>
<!-- n72 -->
<g id="node43" class="node">
<title>n72</title>
<polygon fill="none" stroke="black" points="1275.62,-108 1221.62,-108 1221.62,-72 1275.62,-72 1275.62,-108"/>
<text xml:space="preserve" text-anchor="middle" x="1248.62" y="-84.95" font-family="Times New Roman,serif" font-size="14.00">=</text>
<text xml:space="preserve" text-anchor="middle" x="1187.88" y="-111.2" font-family="Times New Roman,serif" font-size="14.00">(72)Boolean</text>
</g>
<!-- n73&#45;&gt;n72 -->
<g id="edge42" class="edge">
<title>n73&#45;&gt;n72</title>
<path fill="none" stroke="black" d="M1136.09,-143.52C1159.01,-132.82 1188.24,-119.18 1211.16,-108.48"/>
<polygon fill="black" stroke="black" points="1212.57,-111.69 1220.16,-104.29 1209.61,-105.34 1212.57,-111.69"/>
</g>
<!-- n54 -->
<g id="node44" class="node">
<title>n54</title>
<polygon fill="none" stroke="black" points="691.62,-36 633.62,-36 633.62,0 691.62,0 691.62,-36"/>
<text xml:space="preserve" text-anchor="middle" x="662.62" y="-12.95" font-family="Times New Roman,serif" font-size="14.00">number</text>
<text xml:space="preserve" text-anchor="middle" x="615.25" y="-39.2" font-family="Times New Roman,serif" font-size="14.00">(54)int</text>
</g>
<!-- n56&#45;&gt;n54 -->
<g id="edge43" class="edge">
<title>n56&#45;&gt;n54</title>
<path fill="none" stroke="black" d="M719.09,-71.7C710.16,-63.37 699.29,-53.22 689.48,-44.07"/>
<polygon fill="black" stroke="black" points="692.02,-41.64 682.32,-37.38 687.24,-46.76 692.02,-41.64"/>
</g>
<!-- n55 -->
<g id="node45" class="node">
<title>n55</title>
<polygon fill="none" stroke="black" points="763.62,-36 709.62,-36 709.62,0 763.62,0 763.62,-36"/>
<text xml:space="preserve" text-anchor="middle" x="736.62" y="-12.95" font-family="Times New Roman,serif" font-size="14.00">80</text>
<text xml:space="preserve" text-anchor="middle" x="691.25" y="-39.2" font-family="Times New Roman,serif" font-size="14.00">(55)int</text>
</g>
<!-- n56&#45;&gt;n55 -->
<g id="edge44" class="edge">
<title>n56&#45;&gt;n55</title>
<path fill="none" stroke="black" d="M737.38,-71.7C737.27,-64.41 737.15,-55.73 737.03,-47.54"/>
<polygon fill="black" stroke="black" points="740.53,-47.57 736.89,-37.62 733.53,-47.67 740.53,-47.57"/>
</g>
<!-- n57 -->
<g id="node46" class="node">
<title>n57</title>
<polygon fill="none" stroke="black" points="839.62,-36 781.62,-36 781.62,0 839.62,0 839.62,-36"/>
<text xml:space="preserve" text-anchor="middle" x="810.62" y="-12.95" font-family="Times New Roman,serif" font-size="14.00">number</text>
<text xml:space="preserve" text-anchor="middle" x="763.25" y="-39.2" font-family="Times New Roman,serif" font-size="14.00">(57)int</text>
</g>
<!-- n59&#45;&gt;n57 -->
<g id="edge45" class="edge">
<title>n59&#45;&gt;n57</title>
<path fill="none" stroke="black" d="M810.62,-71.7C810.62,-64.41 810.62,-55.73 810.62,-47.54"/>
<polygon fill="black" stroke="black" points="814.13,-47.62 810.63,-37.62 807.13,-47.62 814.13,-47.62"/>
</g>
<!-- n58 -->
<g id="node47" class="node">
<title>n58</title>
<polygon fill="none" stroke="black" points="911.62,-36 857.62,-36 857.62,0 911.62,0 911.62,-36"/>
<text xml:space="preserve" text-anchor="middle" x="884.62" y="-12.95" font-family="Times New Roman,serif" font-size="14.00">89</text>
<text xml:space="preserve" text-anchor="middle" x="839.25" y="-39.2" font-family="Times New Roman,serif" font-size="14.00">(58)int</text>
</g>
<!-- n59&#45;&gt;n58 -->
<g id="edge46" class="edge">
<title>n59&#45;&gt;n58</title>
<path fill="none" stroke="black" d="M828.92,-71.7C837.72,-63.37 848.45,-53.22 858.12,-44.07"/>
<polygon fill="black" stroke="black" points="860.33,-46.8 865.19,-37.39 855.52,-41.72 860.33,-46.8"/>
</g>
<!-- n64 -->
<g id="node48" class="node">
<title>n64</title>
<polygon fill="none" stroke="black" points="987.62,-36 929.62,-36 929.62,0 987.62,0 987.62,-36"/>
<text xml:space="preserve" text-anchor="middle" x="958.62" y="-12.95" font-family="Times New Roman,serif" font-size="14.00">number</text>
<text xml:space="preserve" text-anchor="middle" x="911.25" y="-39.2" font-family="Times New Roman,serif" font-size="14.00">(64)int</text>
</g>
<!-- n66&#45;&gt;n64 -->
<g id="edge47" class="edge">
<title>n66&#45;&gt;n64</title>
<path fill="none" stroke="black" d="M1014.33,-71.7C1005.53,-63.37 994.8,-53.22 985.13,-44.07"/>
<polygon fill="black" stroke="black" points="987.73,-41.72 978.06,-37.39 982.92,-46.8 987.73,-41.72"/>
</g>
<!-- n65 -->
<g id="node49" class="node">
<title>n65</title>
<polygon fill="none" stroke="black" points="1059.62,-36 1005.62,-36 1005.62,0 1059.62,0 1059.62,-36"/>
<text xml:space="preserve" text-anchor="middle" x="1032.62" y="-12.95" font-family="Times New Roman,serif" font-size="14.00">90</text>
<text xml:space="preserve" text-anchor="middle" x="987.25" y="-39.2" font-family="Times New Roman,serif" font-size="14.00">(65)int</text>
</g>
<!-- n66&#45;&gt;n65 -->
<g id="edge48" class="edge">
<title>n66&#45;&gt;n65</title>
<path fill="none" stroke="black" d="M1032.62,-71.7C1032.62,-64.41 1032.62,-55.73 1032.62,-47.54"/>
<polygon fill="black" stroke="black" points="1036.13,-47.62 1032.63,-37.62 1029.13,-47.62 1036.13,-47.62"/>
</g>
<!-- n67 -->
<g id="node50" class="node">
<title>n67</title>
<polygon fill="none" stroke="black" points="1131.62,-36 1077.62,-36 1077.62,0 1131.62,0 1131.62,-36"/>
<text xml:space="preserve" text-anchor="middle" x="1104.62" y="-12.95" font-family="Times New Roman,serif" font-size="14.00">result</text>
<text xml:space="preserve" text-anchor="middle" x="1049.88" y="-39.2" font-family="Times New Roman,serif" font-size="14.00">(67)String</text>
</g>
<!-- n69&#45;&gt;n67 -->
<g id="edge49" class="edge">
<title>n69&#45;&gt;n67</title>
<path fill="none" stroke="black" d="M1104.62,-71.7C1104.62,-64.41 1104.62,-55.73 1104.62,-47.54"/>
<polygon fill="black" stroke="black" points="1108.13,-47.62 1104.63,-37.62 1101.13,-47.62 1108.13,-47.62"/>
</g>
<!-- n68 -->
<g id="node51" class="node">
<title>n68</title>
<polygon fill="none" stroke="black" points="1203.62,-36 1149.62,-36 1149.62,0 1203.62,0 1203.62,-36"/>
<text xml:space="preserve" text-anchor="middle" x="1176.62" y="-12.95" font-family="Times New Roman,serif" font-size="14.00">A</text>
<text xml:space="preserve" text-anchor="middle" x="1121.88" y="-39.2" font-family="Times New Roman,serif" font-size="14.00">(68)String</text>
</g>
<!-- n69&#45;&gt;n68 -->
<g id="edge50" class="edge">
<title>n69&#45;&gt;n68</title>
<path fill="none" stroke="black" d="M1122.42,-71.7C1130.9,-63.45 1141.21,-53.43 1150.56,-44.35"/>
<polygon fill="black" stroke="black" points="1152.97,-46.88 1157.7,-37.4 1148.09,-41.86 1152.97,-46.88"/>
</g>
<!-- n70 -->
<g id="node52" class="node">
<title>n70</title>
<polygon fill="none" stroke="black" points="1275.62,-36 1221.62,-36 1221.62,0 1275.62,0 1275.62,-36"/>
<text xml:space="preserve" text-anchor="middle" x="1248.62" y="-12.95" font-family="Times New Roman,serif" font-size="14.00">result</text>
<text xml:space="preserve" text-anchor="middle" x="1193.88" y="-39.2" font-family="Times New Roman,serif" font-size="14.00">(70)String</text>
</g>
<!-- n72&#45;&gt;n70 -->
<g id="edge51" class="edge">
<title>n72&#45;&gt;n70</title>
<path fill="none" stroke="black" d="M1248.62,-71.7C1248.62,-64.41 1248.62,-55.73 1248.62,-47.54"/>
<polygon fill="black" stroke="black" points="1252.13,-47.62 1248.63,-37.62 1245.13,-47.62 1252.13,-47.62"/>
</g>
<!-- n71 -->
<g id="node53" class="node">
<title>n71</title>
<polygon fill="none" stroke="black" points="1347.62,-36 1293.62,-36 1293.62,0 1347.62,0 1347.62,-36"/>
<text xml:space="preserve" text-anchor="middle" x="1320.62" y="-12.95" font-family="Times New Roman,serif" font-size="14.00">B</text>
<text xml:space="preserve" text-anchor="middle" x="1265.88" y="-39.2" font-family="Times New Roman,serif" font-size="14.00">(71)String</text>
</g>
<!-- n72&#45;&gt;n71 -->
<g id="edge52" class="edge">
<title>n72&#45;&gt;n71</title>
<path fill="none" stroke="black" d="M1266.42,-71.7C1274.9,-63.45 1285.21,-53.43 1294.56,-44.35"/>
<polygon fill="black" stroke="black" points="1296.97,-46.88 1301.7,-37.4 1292.09,-41.86 1296.97,-46.88"/>
</g>
</g>
</svg>
