<?xml version="1.0" encoding="UTF-8" standalone="no"?>
<!DOCTYPE svg PUBLIC "-//W3C//DTD SVG 1.1//EN"
 "http://www.w3.org/Graphics/SVG/1.1/DTD/svg11.dtd">
<!-- Generated by graphviz version 12.2.1 (20241206.2353)
 -->
<!-- Title: AST Pages: 1 -->
<svg width="298pt" height="277pt"
 viewBox="0.00 0.00 297.75 276.50" xmlns="http://www.w3.org/2000/svg" xmlns:xlink="http://www.w3.org/1999/xlink">
<g id="graph0" class="graph" transform="scale(1 1) rotate(0) translate(4 272.5)">
<title>AST</title>
<polygon fill="white" stroke="none" points="-4,4 -4,-272.5 293.75,-272.5 293.75,4 -4,4"/>
<!-- n420 -->
<g id="node1" class="node">
<title>n420</title>
<polygon fill="none" stroke="black" points="289.75,-252 29.25,-252 29.25,-216 289.75,-216 289.75,-252"/>
<text text-anchor="middle" x="159.5" y="-228.95" font-family="Times New Roman,serif" font-size="14.00">ContextDecl: node(415) Context: node (419)</text>
<text text-anchor="middle" x="14.62" y="-255.2" font-family="Times New Roman,serif" font-size="14.00">(420)</text>
</g>
<!-- n415 -->
<g id="node2" class="node">
<title>n415</title>
<polygon fill="none" stroke="black" points="168.25,-180 42.75,-180 42.75,-144 168.25,-144 168.25,-180"/>
<text text-anchor="middle" x="105.5" y="-156.95" font-family="Times New Roman,serif" font-size="14.00">Date::getYear() : int</text>
<text text-anchor="middle" x="28.12" y="-183.2" font-family="Times New Roman,serif" font-size="14.00">(415)</text>
</g>
<!-- n420&#45;&gt;n415 -->
<g id="edge1" class="edge">
<title>n420&#45;&gt;n415</title>
<path fill="none" stroke="black" d="M146.15,-215.7C139.94,-207.64 132.42,-197.89 125.54,-188.98"/>
<polygon fill="black" stroke="black" points="128.5,-187.08 119.62,-181.3 122.96,-191.36 128.5,-187.08"/>
</g>
<!-- n419 -->
<g id="node3" class="node">
<title>n419</title>
<polygon fill="none" stroke="black" points="240.5,-180 186.5,-180 186.5,-144 240.5,-144 240.5,-180"/>
<text text-anchor="middle" x="213.5" y="-156.95" font-family="Times New Roman,serif" font-size="14.00"> post:</text>
<text text-anchor="middle" x="149.38" y="-183.2" font-family="Times New Roman,serif" font-size="14.00">(419)Boolean</text>
</g>
<!-- n420&#45;&gt;n419 -->
<g id="edge2" class="edge">
<title>n420&#45;&gt;n419</title>
<path fill="none" stroke="black" d="M172.85,-215.7C179.06,-207.64 186.58,-197.89 193.46,-188.98"/>
<polygon fill="black" stroke="black" points="196.04,-191.36 199.38,-181.3 190.5,-187.08 196.04,-191.36"/>
</g>
<!-- n418 -->
<g id="node4" class="node">
<title>n418</title>
<polygon fill="none" stroke="black" points="240.5,-108 186.5,-108 186.5,-72 240.5,-72 240.5,-108"/>
<text text-anchor="middle" x="213.5" y="-84.95" font-family="Times New Roman,serif" font-size="14.00">=</text>
<text text-anchor="middle" x="149.38" y="-111.2" font-family="Times New Roman,serif" font-size="14.00">(418)Boolean</text>
</g>
<!-- n419&#45;&gt;n418 -->
<g id="edge3" class="edge">
<title>n419&#45;&gt;n418</title>
<path fill="none" stroke="black" d="M213.5,-143.7C213.5,-136.41 213.5,-127.73 213.5,-119.54"/>
<polygon fill="black" stroke="black" points="217,-119.62 213.5,-109.62 210,-119.62 217,-119.62"/>
</g>
<!-- n416 -->
<g id="node5" class="node">
<title>n416</title>
<polygon fill="none" stroke="black" points="204.5,-36 150.5,-36 150.5,0 204.5,0 204.5,-36"/>
<text text-anchor="middle" x="177.5" y="-12.95" font-family="Times New Roman,serif" font-size="14.00">result</text>
<text text-anchor="middle" x="128.75" y="-39.2" font-family="Times New Roman,serif" font-size="14.00">(416)int</text>
</g>
<!-- n418&#45;&gt;n416 -->
<g id="edge4" class="edge">
<title>n418&#45;&gt;n416</title>
<path fill="none" stroke="black" d="M204.6,-71.7C200.63,-63.98 195.87,-54.71 191.44,-46.11"/>
<polygon fill="black" stroke="black" points="194.67,-44.74 186.99,-37.45 188.45,-47.94 194.67,-44.74"/>
</g>
<!-- n417 -->
<g id="node6" class="node">
<title>n417</title>
<polygon fill="none" stroke="black" points="276.5,-36 222.5,-36 222.5,0 276.5,0 276.5,-36"/>
<text text-anchor="middle" x="249.5" y="-12.95" font-family="Times New Roman,serif" font-size="14.00">year</text>
<text text-anchor="middle" x="200.75" y="-39.2" font-family="Times New Roman,serif" font-size="14.00">(417)int</text>
</g>
<!-- n418&#45;&gt;n417 -->
<g id="edge5" class="edge">
<title>n418&#45;&gt;n417</title>
<path fill="none" stroke="black" d="M222.4,-71.7C226.37,-63.98 231.13,-54.71 235.56,-46.11"/>
<polygon fill="black" stroke="black" points="238.55,-47.94 240.01,-37.45 232.33,-44.74 238.55,-47.94"/>
</g>
</g>
</svg>
