<?xml version="1.0" encoding="UTF-8" standalone="no"?>
<!DOCTYPE svg PUBLIC "-//W3C//DTD SVG 1.1//EN"
 "http://www.w3.org/Graphics/SVG/1.1/DTD/svg11.dtd">
<!-- Generated by graphviz version 13.1.2 (20250808.2320)
 -->
<!-- Title: AST Pages: 1 -->
<svg width="452pt" height="493pt"
 viewBox="0.00 0.00 452.00 493.00" xmlns="http://www.w3.org/2000/svg" xmlns:xlink="http://www.w3.org/1999/xlink">
<g id="graph0" class="graph" transform="scale(1 1) rotate(0) translate(4 488.5)">
<title>AST</title>
<polygon fill="white" stroke="none" points="-4,4 -4,-488.5 448,-488.5 448,4 -4,4"/>
<!-- n17 -->
<g id="node1" class="node">
<title>n17</title>
<polygon fill="none" stroke="black" points="393.12,-468 152.88,-468 152.88,-432 393.12,-432 393.12,-468"/>
<text xml:space="preserve" text-anchor="middle" x="273" y="-444.95" font-family="Times New Roman,serif" font-size="14.00">ContextDecl: node(0) Context: node (16)</text>
<text xml:space="preserve" text-anchor="middle" x="141.62" y="-471.2" font-family="Times New Roman,serif" font-size="14.00">(17)</text>
</g>
<!-- n0 -->
<g id="node2" class="node">
<title>n0</title>
<polygon fill="none" stroke="black" points="264,-396 210,-396 210,-360 264,-360 264,-396"/>
<text xml:space="preserve" text-anchor="middle" x="237" y="-372.95" font-family="Times New Roman,serif" font-size="14.00">Date</text>
<text xml:space="preserve" text-anchor="middle" x="202.12" y="-399.2" font-family="Times New Roman,serif" font-size="14.00">(0)</text>
</g>
<!-- n17&#45;&gt;n0 -->
<g id="edge1" class="edge">
<title>n17&#45;&gt;n0</title>
<path fill="none" stroke="black" d="M264.1,-431.7C260.13,-423.98 255.37,-414.71 250.94,-406.11"/>
<polygon fill="black" stroke="black" points="254.17,-404.74 246.49,-397.45 247.95,-407.94 254.17,-404.74"/>
</g>
<!-- n16 -->
<g id="node3" class="node">
<title>n16</title>
<polygon fill="none" stroke="black" points="336,-396 282,-396 282,-360 336,-360 336,-396"/>
<text xml:space="preserve" text-anchor="middle" x="309" y="-372.95" font-family="Times New Roman,serif" font-size="14.00"> inv:</text>
<text xml:space="preserve" text-anchor="middle" x="248.25" y="-399.2" font-family="Times New Roman,serif" font-size="14.00">(16)Boolean</text>
</g>
<!-- n17&#45;&gt;n16 -->
<g id="edge2" class="edge">
<title>n17&#45;&gt;n16</title>
<path fill="none" stroke="black" d="M281.9,-431.7C285.87,-423.98 290.63,-414.71 295.06,-406.11"/>
<polygon fill="black" stroke="black" points="298.05,-407.94 299.51,-397.45 291.83,-404.74 298.05,-407.94"/>
</g>
<!-- n15 -->
<g id="node4" class="node">
<title>n15</title>
<polygon fill="none" stroke="black" points="336,-324 282,-324 282,-288 336,-288 336,-324"/>
<text xml:space="preserve" text-anchor="middle" x="309" y="-300.95" font-family="Times New Roman,serif" font-size="14.00">and</text>
<text xml:space="preserve" text-anchor="middle" x="248.25" y="-327.2" font-family="Times New Roman,serif" font-size="14.00">(15)Boolean</text>
</g>
<!-- n16&#45;&gt;n15 -->
<g id="edge3" class="edge">
<title>n16&#45;&gt;n15</title>
<path fill="none" stroke="black" d="M309,-359.7C309,-352.41 309,-343.73 309,-335.54"/>
<polygon fill="black" stroke="black" points="312.5,-335.62 309,-325.62 305.5,-335.62 312.5,-335.62"/>
</g>
<!-- n11 -->
<g id="node5" class="node">
<title>n11</title>
<polygon fill="none" stroke="black" points="300,-252 246,-252 246,-216 300,-216 300,-252"/>
<text xml:space="preserve" text-anchor="middle" x="273" y="-228.95" font-family="Times New Roman,serif" font-size="14.00">and</text>
<text xml:space="preserve" text-anchor="middle" x="212.25" y="-255.2" font-family="Times New Roman,serif" font-size="14.00">(11)Boolean</text>
</g>
<!-- n15&#45;&gt;n11 -->
<g id="edge4" class="edge">
<title>n15&#45;&gt;n11</title>
<path fill="none" stroke="black" d="M300.1,-287.7C296.13,-279.98 291.37,-270.71 286.94,-262.11"/>
<polygon fill="black" stroke="black" points="290.17,-260.74 282.49,-253.45 283.95,-263.94 290.17,-260.74"/>
</g>
<!-- n14 -->
<g id="node6" class="node">
<title>n14</title>
<polygon fill="none" stroke="black" points="372,-252 318,-252 318,-216 372,-216 372,-252"/>
<text xml:space="preserve" text-anchor="middle" x="345" y="-228.95" font-family="Times New Roman,serif" font-size="14.00">&gt;=</text>
<text xml:space="preserve" text-anchor="middle" x="284.25" y="-255.2" font-family="Times New Roman,serif" font-size="14.00">(14)Boolean</text>
</g>
<!-- n15&#45;&gt;n14 -->
<g id="edge5" class="edge">
<title>n15&#45;&gt;n14</title>
<path fill="none" stroke="black" d="M317.9,-287.7C321.87,-279.98 326.63,-270.71 331.06,-262.11"/>
<polygon fill="black" stroke="black" points="334.05,-263.94 335.51,-253.45 327.83,-260.74 334.05,-263.94"/>
</g>
<!-- n7 -->
<g id="node7" class="node">
<title>n7</title>
<polygon fill="none" stroke="black" points="228,-180 174,-180 174,-144 228,-144 228,-180"/>
<text xml:space="preserve" text-anchor="middle" x="201" y="-156.95" font-family="Times New Roman,serif" font-size="14.00">and</text>
<text xml:space="preserve" text-anchor="middle" x="143.62" y="-183.2" font-family="Times New Roman,serif" font-size="14.00">(7)Boolean</text>
</g>
<!-- n11&#45;&gt;n7 -->
<g id="edge6" class="edge">
<title>n11&#45;&gt;n7</title>
<path fill="none" stroke="black" d="M255.2,-215.7C246.72,-207.45 236.41,-197.43 227.07,-188.35"/>
<polygon fill="black" stroke="black" points="229.54,-185.86 219.93,-181.4 224.66,-190.88 229.54,-185.86"/>
</g>
<!-- n10 -->
<g id="node8" class="node">
<title>n10</title>
<polygon fill="none" stroke="black" points="300,-180 246,-180 246,-144 300,-144 300,-180"/>
<text xml:space="preserve" text-anchor="middle" x="273" y="-156.95" font-family="Times New Roman,serif" font-size="14.00">&lt;=</text>
<text xml:space="preserve" text-anchor="middle" x="212.25" y="-183.2" font-family="Times New Roman,serif" font-size="14.00">(10)Boolean</text>
</g>
<!-- n11&#45;&gt;n10 -->
<g id="edge7" class="edge">
<title>n11&#45;&gt;n10</title>
<path fill="none" stroke="black" d="M273,-215.7C273,-208.41 273,-199.73 273,-191.54"/>
<polygon fill="black" stroke="black" points="276.5,-191.62 273,-181.62 269.5,-191.62 276.5,-191.62"/>
</g>
<!-- n12 -->
<g id="node9" class="node">
<title>n12</title>
<polygon fill="none" stroke="black" points="372,-180 318,-180 318,-144 372,-144 372,-180"/>
<text xml:space="preserve" text-anchor="middle" x="345" y="-156.95" font-family="Times New Roman,serif" font-size="14.00">day</text>
<text xml:space="preserve" text-anchor="middle" x="299.62" y="-183.2" font-family="Times New Roman,serif" font-size="14.00">(12)int</text>
</g>
<!-- n14&#45;&gt;n12 -->
<g id="edge8" class="edge">
<title>n14&#45;&gt;n12</title>
<path fill="none" stroke="black" d="M345,-215.7C345,-208.41 345,-199.73 345,-191.54"/>
<polygon fill="black" stroke="black" points="348.5,-191.62 345,-181.62 341.5,-191.62 348.5,-191.62"/>
</g>
<!-- n13 -->
<g id="node10" class="node">
<title>n13</title>
<polygon fill="none" stroke="black" points="444,-180 390,-180 390,-144 444,-144 444,-180"/>
<text xml:space="preserve" text-anchor="middle" x="417" y="-156.95" font-family="Times New Roman,serif" font-size="14.00">1</text>
<text xml:space="preserve" text-anchor="middle" x="371.62" y="-183.2" font-family="Times New Roman,serif" font-size="14.00">(13)int</text>
</g>
<!-- n14&#45;&gt;n13 -->
<g id="edge9" class="edge">
<title>n14&#45;&gt;n13</title>
<path fill="none" stroke="black" d="M362.8,-215.7C371.28,-207.45 381.59,-197.43 390.93,-188.35"/>
<polygon fill="black" stroke="black" points="393.34,-190.88 398.07,-181.4 388.46,-185.86 393.34,-190.88"/>
</g>
<!-- n3 -->
<g id="node11" class="node">
<title>n3</title>
<polygon fill="none" stroke="black" points="156,-108 102,-108 102,-72 156,-72 156,-108"/>
<text xml:space="preserve" text-anchor="middle" x="129" y="-84.95" font-family="Times New Roman,serif" font-size="14.00">&gt;=</text>
<text xml:space="preserve" text-anchor="middle" x="71.62" y="-111.2" font-family="Times New Roman,serif" font-size="14.00">(3)Boolean</text>
</g>
<!-- n7&#45;&gt;n3 -->
<g id="edge10" class="edge">
<title>n7&#45;&gt;n3</title>
<path fill="none" stroke="black" d="M183.2,-143.7C174.72,-135.45 164.41,-125.43 155.07,-116.35"/>
<polygon fill="black" stroke="black" points="157.54,-113.86 147.93,-109.4 152.66,-118.88 157.54,-113.86"/>
</g>
<!-- n6 -->
<g id="node12" class="node">
<title>n6</title>
<polygon fill="none" stroke="black" points="228,-108 174,-108 174,-72 228,-72 228,-108"/>
<text xml:space="preserve" text-anchor="middle" x="201" y="-84.95" font-family="Times New Roman,serif" font-size="14.00">&gt;=</text>
<text xml:space="preserve" text-anchor="middle" x="143.62" y="-111.2" font-family="Times New Roman,serif" font-size="14.00">(6)Boolean</text>
</g>
<!-- n7&#45;&gt;n6 -->
<g id="edge11" class="edge">
<title>n7&#45;&gt;n6</title>
<path fill="none" stroke="black" d="M201,-143.7C201,-136.41 201,-127.73 201,-119.54"/>
<polygon fill="black" stroke="black" points="204.5,-119.62 201,-109.62 197.5,-119.62 204.5,-119.62"/>
</g>
<!-- n8 -->
<g id="node13" class="node">
<title>n8</title>
<polygon fill="none" stroke="black" points="300,-108 246,-108 246,-72 300,-72 300,-108"/>
<text xml:space="preserve" text-anchor="middle" x="273" y="-84.95" font-family="Times New Roman,serif" font-size="14.00">month</text>
<text xml:space="preserve" text-anchor="middle" x="231" y="-111.2" font-family="Times New Roman,serif" font-size="14.00">(8)int</text>
</g>
<!-- n10&#45;&gt;n8 -->
<g id="edge12" class="edge">
<title>n10&#45;&gt;n8</title>
<path fill="none" stroke="black" d="M273,-143.7C273,-136.41 273,-127.73 273,-119.54"/>
<polygon fill="black" stroke="black" points="276.5,-119.62 273,-109.62 269.5,-119.62 276.5,-119.62"/>
</g>
<!-- n9 -->
<g id="node14" class="node">
<title>n9</title>
<polygon fill="none" stroke="black" points="372,-108 318,-108 318,-72 372,-72 372,-108"/>
<text xml:space="preserve" text-anchor="middle" x="345" y="-84.95" font-family="Times New Roman,serif" font-size="14.00">12</text>
<text xml:space="preserve" text-anchor="middle" x="303" y="-111.2" font-family="Times New Roman,serif" font-size="14.00">(9)int</text>
</g>
<!-- n10&#45;&gt;n9 -->
<g id="edge13" class="edge">
<title>n10&#45;&gt;n9</title>
<path fill="none" stroke="black" d="M290.8,-143.7C299.28,-135.45 309.59,-125.43 318.93,-116.35"/>
<polygon fill="black" stroke="black" points="321.34,-118.88 326.07,-109.4 316.46,-113.86 321.34,-118.88"/>
</g>
<!-- n1 -->
<g id="node15" class="node">
<title>n1</title>
<polygon fill="none" stroke="black" points="84,-36 30,-36 30,0 84,0 84,-36"/>
<text xml:space="preserve" text-anchor="middle" x="57" y="-12.95" font-family="Times New Roman,serif" font-size="14.00">year</text>
<text xml:space="preserve" text-anchor="middle" x="15" y="-39.2" font-family="Times New Roman,serif" font-size="14.00">(1)int</text>
</g>
<!-- n3&#45;&gt;n1 -->
<g id="edge14" class="edge">
<title>n3&#45;&gt;n1</title>
<path fill="none" stroke="black" d="M111.2,-71.7C102.72,-63.45 92.41,-53.43 83.07,-44.35"/>
<polygon fill="black" stroke="black" points="85.54,-41.86 75.93,-37.4 80.66,-46.88 85.54,-41.86"/>
</g>
<!-- n2 -->
<g id="node16" class="node">
<title>n2</title>
<polygon fill="none" stroke="black" points="156,-36 102,-36 102,0 156,0 156,-36"/>
<text xml:space="preserve" text-anchor="middle" x="129" y="-12.95" font-family="Times New Roman,serif" font-size="14.00">1</text>
<text xml:space="preserve" text-anchor="middle" x="87" y="-39.2" font-family="Times New Roman,serif" font-size="14.00">(2)int</text>
</g>
<!-- n3&#45;&gt;n2 -->
<g id="edge15" class="edge">
<title>n3&#45;&gt;n2</title>
<path fill="none" stroke="black" d="M129,-71.7C129,-64.41 129,-55.73 129,-47.54"/>
<polygon fill="black" stroke="black" points="132.5,-47.62 129,-37.62 125.5,-47.62 132.5,-47.62"/>
</g>
<!-- n4 -->
<g id="node17" class="node">
<title>n4</title>
<polygon fill="none" stroke="black" points="228,-36 174,-36 174,0 228,0 228,-36"/>
<text xml:space="preserve" text-anchor="middle" x="201" y="-12.95" font-family="Times New Roman,serif" font-size="14.00">month</text>
<text xml:space="preserve" text-anchor="middle" x="159" y="-39.2" font-family="Times New Roman,serif" font-size="14.00">(4)int</text>
</g>
<!-- n6&#45;&gt;n4 -->
<g id="edge16" class="edge">
<title>n6&#45;&gt;n4</title>
<path fill="none" stroke="black" d="M201,-71.7C201,-64.41 201,-55.73 201,-47.54"/>
<polygon fill="black" stroke="black" points="204.5,-47.62 201,-37.62 197.5,-47.62 204.5,-47.62"/>
</g>
<!-- n5 -->
<g id="node18" class="node">
<title>n5</title>
<polygon fill="none" stroke="black" points="300,-36 246,-36 246,0 300,0 300,-36"/>
<text xml:space="preserve" text-anchor="middle" x="273" y="-12.95" font-family="Times New Roman,serif" font-size="14.00">1</text>
<text xml:space="preserve" text-anchor="middle" x="231" y="-39.2" font-family="Times New Roman,serif" font-size="14.00">(5)int</text>
</g>
<!-- n6&#45;&gt;n5 -->
<g id="edge17" class="edge">
<title>n6&#45;&gt;n5</title>
<path fill="none" stroke="black" d="M218.8,-71.7C227.28,-63.45 237.59,-53.43 246.93,-44.35"/>
<polygon fill="black" stroke="black" points="249.34,-46.88 254.07,-37.4 244.46,-41.86 249.34,-46.88"/>
</g>
</g>
</svg>
