<?xml version="1.0" encoding="UTF-8" standalone="no"?>
<!DOCTYPE svg PUBLIC "-//W3C//DTD SVG 1.1//EN"
 "http://www.w3.org/Graphics/SVG/1.1/DTD/svg11.dtd">
<!-- Generated by graphviz version 12.2.1 (20241206.2353)
 -->
<!-- Title: AST Pages: 1 -->
<svg width="298pt" height="277pt"
 viewBox="0.00 0.00 297.75 276.50" xmlns="http://www.w3.org/2000/svg" xmlns:xlink="http://www.w3.org/1999/xlink">
<g id="graph0" class="graph" transform="scale(1 1) rotate(0) translate(4 272.5)">
<title>AST</title>
<polygon fill="white" stroke="none" points="-4,4 -4,-272.5 293.75,-272.5 293.75,4 -4,4"/>
<!-- n432 -->
<g id="node1" class="node">
<title>n432</title>
<polygon fill="none" stroke="black" points="289.75,-252 29.25,-252 29.25,-216 289.75,-216 289.75,-252"/>
<text text-anchor="middle" x="159.5" y="-228.95" font-family="Times New Roman,serif" font-size="14.00">ContextDecl: node(427) Context: node (431)</text>
<text text-anchor="middle" x="14.62" y="-255.2" font-family="Times New Roman,serif" font-size="14.00">(432)</text>
</g>
<!-- n427 -->
<g id="node2" class="node">
<title>n427</title>
<polygon fill="none" stroke="black" points="167.75,-180 45.25,-180 45.25,-144 167.75,-144 167.75,-180"/>
<text text-anchor="middle" x="106.5" y="-156.95" font-family="Times New Roman,serif" font-size="14.00">Date::getDay() : int</text>
<text text-anchor="middle" x="30.62" y="-183.2" font-family="Times New Roman,serif" font-size="14.00">(427)</text>
</g>
<!-- n432&#45;&gt;n427 -->
<g id="edge1" class="edge">
<title>n432&#45;&gt;n427</title>
<path fill="none" stroke="black" d="M146.4,-215.7C140.37,-207.73 133.08,-198.1 126.39,-189.26"/>
<polygon fill="black" stroke="black" points="129.19,-187.17 120.36,-181.31 123.61,-191.4 129.19,-187.17"/>
</g>
<!-- n431 -->
<g id="node3" class="node">
<title>n431</title>
<polygon fill="none" stroke="black" points="239.5,-180 185.5,-180 185.5,-144 239.5,-144 239.5,-180"/>
<text text-anchor="middle" x="212.5" y="-156.95" font-family="Times New Roman,serif" font-size="14.00"> post:</text>
<text text-anchor="middle" x="148.38" y="-183.2" font-family="Times New Roman,serif" font-size="14.00">(431)Boolean</text>
</g>
<!-- n432&#45;&gt;n431 -->
<g id="edge2" class="edge">
<title>n432&#45;&gt;n431</title>
<path fill="none" stroke="black" d="M172.6,-215.7C178.63,-207.73 185.92,-198.1 192.61,-189.26"/>
<polygon fill="black" stroke="black" points="195.39,-191.4 198.64,-181.31 189.81,-187.17 195.39,-191.4"/>
</g>
<!-- n430 -->
<g id="node4" class="node">
<title>n430</title>
<polygon fill="none" stroke="black" points="239.5,-108 185.5,-108 185.5,-72 239.5,-72 239.5,-108"/>
<text text-anchor="middle" x="212.5" y="-84.95" font-family="Times New Roman,serif" font-size="14.00">=</text>
<text text-anchor="middle" x="148.38" y="-111.2" font-family="Times New Roman,serif" font-size="14.00">(430)Boolean</text>
</g>
<!-- n431&#45;&gt;n430 -->
<g id="edge3" class="edge">
<title>n431&#45;&gt;n430</title>
<path fill="none" stroke="black" d="M212.5,-143.7C212.5,-136.41 212.5,-127.73 212.5,-119.54"/>
<polygon fill="black" stroke="black" points="216,-119.62 212.5,-109.62 209,-119.62 216,-119.62"/>
</g>
<!-- n428 -->
<g id="node5" class="node">
<title>n428</title>
<polygon fill="none" stroke="black" points="203.5,-36 149.5,-36 149.5,0 203.5,0 203.5,-36"/>
<text text-anchor="middle" x="176.5" y="-12.95" font-family="Times New Roman,serif" font-size="14.00">result</text>
<text text-anchor="middle" x="127.75" y="-39.2" font-family="Times New Roman,serif" font-size="14.00">(428)int</text>
</g>
<!-- n430&#45;&gt;n428 -->
<g id="edge4" class="edge">
<title>n430&#45;&gt;n428</title>
<path fill="none" stroke="black" d="M203.6,-71.7C199.63,-63.98 194.87,-54.71 190.44,-46.11"/>
<polygon fill="black" stroke="black" points="193.67,-44.74 185.99,-37.45 187.45,-47.94 193.67,-44.74"/>
</g>
<!-- n429 -->
<g id="node6" class="node">
<title>n429</title>
<polygon fill="none" stroke="black" points="275.5,-36 221.5,-36 221.5,0 275.5,0 275.5,-36"/>
<text text-anchor="middle" x="248.5" y="-12.95" font-family="Times New Roman,serif" font-size="14.00">day</text>
<text text-anchor="middle" x="199.75" y="-39.2" font-family="Times New Roman,serif" font-size="14.00">(429)int</text>
</g>
<!-- n430&#45;&gt;n429 -->
<g id="edge5" class="edge">
<title>n430&#45;&gt;n429</title>
<path fill="none" stroke="black" d="M221.4,-71.7C225.37,-63.98 230.13,-54.71 234.56,-46.11"/>
<polygon fill="black" stroke="black" points="237.55,-47.94 239.01,-37.45 231.33,-44.74 237.55,-47.94"/>
</g>
</g>
</svg>
