<?xml version="1.0" encoding="UTF-8" standalone="no"?>
<!DOCTYPE svg PUBLIC "-//W3C//DTD SVG 1.1//EN"
 "http://www.w3.org/Graphics/SVG/1.1/DTD/svg11.dtd">
<!-- Generated by graphviz version 12.2.1 (20241206.2353)
 -->
<!-- Title: AST Pages: 1 -->
<svg width="298pt" height="277pt"
 viewBox="0.00 0.00 297.75 276.50" xmlns="http://www.w3.org/2000/svg" xmlns:xlink="http://www.w3.org/1999/xlink">
<g id="graph0" class="graph" transform="scale(1 1) rotate(0) translate(4 272.5)">
<title>AST</title>
<polygon fill="white" stroke="none" points="-4,4 -4,-272.5 293.75,-272.5 293.75,4 -4,4"/>
<!-- n426 -->
<g id="node1" class="node">
<title>n426</title>
<polygon fill="none" stroke="black" points="289.75,-252 29.25,-252 29.25,-216 289.75,-216 289.75,-252"/>
<text text-anchor="middle" x="159.5" y="-228.95" font-family="Times New Roman,serif" font-size="14.00">ContextDecl: node(421) Context: node (425)</text>
<text text-anchor="middle" x="14.62" y="-255.2" font-family="Times New Roman,serif" font-size="14.00">(426)</text>
</g>
<!-- n421 -->
<g id="node2" class="node">
<title>n421</title>
<polygon fill="none" stroke="black" points="171.88,-180 35.12,-180 35.12,-144 171.88,-144 171.88,-180"/>
<text text-anchor="middle" x="103.5" y="-156.95" font-family="Times New Roman,serif" font-size="14.00">Date::getMonth() : int</text>
<text text-anchor="middle" x="20.5" y="-183.2" font-family="Times New Roman,serif" font-size="14.00">(421)</text>
</g>
<!-- n426&#45;&gt;n421 -->
<g id="edge1" class="edge">
<title>n426&#45;&gt;n421</title>
<path fill="none" stroke="black" d="M145.66,-215.7C139.21,-207.64 131.42,-197.89 124.29,-188.98"/>
<polygon fill="black" stroke="black" points="127.11,-186.91 118.13,-181.29 121.64,-191.28 127.11,-186.91"/>
</g>
<!-- n425 -->
<g id="node3" class="node">
<title>n425</title>
<polygon fill="none" stroke="black" points="243.5,-180 189.5,-180 189.5,-144 243.5,-144 243.5,-180"/>
<text text-anchor="middle" x="216.5" y="-156.95" font-family="Times New Roman,serif" font-size="14.00"> post:</text>
<text text-anchor="middle" x="152.38" y="-183.2" font-family="Times New Roman,serif" font-size="14.00">(425)Boolean</text>
</g>
<!-- n426&#45;&gt;n425 -->
<g id="edge2" class="edge">
<title>n426&#45;&gt;n425</title>
<path fill="none" stroke="black" d="M173.59,-215.7C180.15,-207.64 188.09,-197.89 195.34,-188.98"/>
<polygon fill="black" stroke="black" points="198.02,-191.24 201.62,-181.28 192.59,-186.82 198.02,-191.24"/>
</g>
<!-- n424 -->
<g id="node4" class="node">
<title>n424</title>
<polygon fill="none" stroke="black" points="243.5,-108 189.5,-108 189.5,-72 243.5,-72 243.5,-108"/>
<text text-anchor="middle" x="216.5" y="-84.95" font-family="Times New Roman,serif" font-size="14.00">=</text>
<text text-anchor="middle" x="152.38" y="-111.2" font-family="Times New Roman,serif" font-size="14.00">(424)Boolean</text>
</g>
<!-- n425&#45;&gt;n424 -->
<g id="edge3" class="edge">
<title>n425&#45;&gt;n424</title>
<path fill="none" stroke="black" d="M216.5,-143.7C216.5,-136.41 216.5,-127.73 216.5,-119.54"/>
<polygon fill="black" stroke="black" points="220,-119.62 216.5,-109.62 213,-119.62 220,-119.62"/>
</g>
<!-- n422 -->
<g id="node5" class="node">
<title>n422</title>
<polygon fill="none" stroke="black" points="207.5,-36 153.5,-36 153.5,0 207.5,0 207.5,-36"/>
<text text-anchor="middle" x="180.5" y="-12.95" font-family="Times New Roman,serif" font-size="14.00">result</text>
<text text-anchor="middle" x="131.75" y="-39.2" font-family="Times New Roman,serif" font-size="14.00">(422)int</text>
</g>
<!-- n424&#45;&gt;n422 -->
<g id="edge4" class="edge">
<title>n424&#45;&gt;n422</title>
<path fill="none" stroke="black" d="M207.6,-71.7C203.63,-63.98 198.87,-54.71 194.44,-46.11"/>
<polygon fill="black" stroke="black" points="197.67,-44.74 189.99,-37.45 191.45,-47.94 197.67,-44.74"/>
</g>
<!-- n423 -->
<g id="node6" class="node">
<title>n423</title>
<polygon fill="none" stroke="black" points="279.5,-36 225.5,-36 225.5,0 279.5,0 279.5,-36"/>
<text text-anchor="middle" x="252.5" y="-12.95" font-family="Times New Roman,serif" font-size="14.00">month</text>
<text text-anchor="middle" x="203.75" y="-39.2" font-family="Times New Roman,serif" font-size="14.00">(423)int</text>
</g>
<!-- n424&#45;&gt;n423 -->
<g id="edge5" class="edge">
<title>n424&#45;&gt;n423</title>
<path fill="none" stroke="black" d="M225.4,-71.7C229.37,-63.98 234.13,-54.71 238.56,-46.11"/>
<polygon fill="black" stroke="black" points="241.55,-47.94 243.01,-37.45 235.33,-44.74 241.55,-47.94"/>
</g>
</g>
</svg>
