<?xml version="1.0" encoding="UTF-8" standalone="no"?>
<!DOCTYPE svg PUBLIC "-//W3C//DTD SVG 1.1//EN"
 "http://www.w3.org/Graphics/SVG/1.1/DTD/svg11.dtd">
<!-- Generated by graphviz version 12.2.1 (20241206.2353)
 -->
<!-- Title: CLG Pages: 1 -->
<svg width="992pt" height="1012pt"
 viewBox="0.00 0.00 991.75 1012.40" xmlns="http://www.w3.org/2000/svg" xmlns:xlink="http://www.w3.org/1999/xlink">
<g id="graph0" class="graph" transform="scale(1 1) rotate(0) translate(4 1008.4)">
<title>CLG</title>
<polygon fill="white" stroke="none" points="-4,4 -4,-1008.4 987.75,-1008.4 987.75,4 -4,4"/>
<!-- 130 -->
<g id="node1" class="node">
<title>130</title>
<polygon fill="yellow" stroke="black" points="651.75,-987.9 549.5,-987.9 549.5,-951.9 651.75,-951.9 651.75,-987.9"/>
<text text-anchor="middle" x="600.62" y="-964.85" font-family="Times New Roman,serif" font-size="14.00">idx2 = idx2 + 1</text>
<text text-anchor="middle" x="534.88" y="-991.1" font-family="Times New Roman,serif" font-size="14.00">[130]</text>
</g>
<!-- 132 -->
<g id="node2" class="node">
<title>132</title>
<polygon fill="aquamarine" stroke="black" points="526.62,-899.4 519.42,-892.2 526.62,-885 533.83,-892.2 526.62,-899.4"/>
<text text-anchor="middle" x="501.05" y="-902.6" font-family="Times New Roman,serif" font-size="14.00">&lt;132&gt;</text>
</g>
<!-- 130&#45;&gt;132 -->
<g id="edge2" class="edge">
<title>130&#45;&gt;132</title>
<path fill="none" stroke="black" d="M583.83,-951.72C569.84,-937.4 550.27,-917.39 538.03,-904.87"/>
<polygon fill="black" stroke="black" points="540.58,-902.47 531.09,-897.77 535.58,-907.37 540.58,-902.47"/>
<text text-anchor="middle" x="596.22" y="-920.6" font-family="Times New Roman,serif" font-size="14.00">iterate#129</text>
</g>
<!-- 118 -->
<g id="node24" class="node">
<title>118</title>
<polygon fill="yellow" stroke="black" points="393.5,-832.5 271.75,-832.5 271.75,-796.5 393.5,-796.5 393.5,-832.5"/>
<text text-anchor="middle" x="332.62" y="-809.45" font-family="Times New Roman,serif" font-size="14.00">idx2 &gt; dim3 &#45; 1+ 1</text>
<text text-anchor="middle" x="257.12" y="-835.7" font-family="Times New Roman,serif" font-size="14.00">[118]</text>
</g>
<!-- 132&#45;&gt;118 -->
<g id="edge3" class="edge">
<title>132&#45;&gt;118</title>
<path fill="none" stroke="black" d="M520.23,-890.77C502.06,-889.36 448.9,-883.98 408.62,-867 392.32,-860.13 375.86,-849.52 362.44,-839.72"/>
<polygon fill="black" stroke="black" points="364.56,-836.94 354.47,-833.7 360.34,-842.52 364.56,-836.94"/>
<text text-anchor="middle" x="449.12" y="-853.7" font-family="Times New Roman,serif" font-size="14.00">graphAnd#131</text>
</g>
<!-- 121 -->
<g id="node25" class="node">
<title>121</title>
<polygon fill="yellow" stroke="black" points="546.62,-832.5 416.62,-832.5 416.62,-796.5 546.62,-796.5 546.62,-832.5"/>
<text text-anchor="middle" x="481.62" y="-809.45" font-family="Times New Roman,serif" font-size="14.00">idx2 &lt;= dim3 &#45; 1+ 1</text>
<text text-anchor="middle" x="402" y="-835.7" font-family="Times New Roman,serif" font-size="14.00">[121]</text>
</g>
<!-- 132&#45;&gt;121 -->
<g id="edge1" class="edge">
<title>132&#45;&gt;121</title>
<path fill="none" stroke="black" d="M523.13,-888.41C518.08,-884.21 508.71,-875.84 502.88,-867 498.09,-859.76 494.05,-851.27 490.82,-843.29"/>
<polygon fill="black" stroke="black" points="494.11,-842.1 487.33,-833.96 487.56,-844.55 494.11,-842.1"/>
<text text-anchor="middle" x="533.25" y="-853.7" font-family="Times New Roman,serif" font-size="14.00">iterate#128</text>
</g>
<!-- 134 -->
<g id="node3" class="node">
<title>134</title>
<polygon fill="yellow" stroke="black" points="377.75,-744 275.5,-744 275.5,-708 377.75,-708 377.75,-744"/>
<text text-anchor="middle" x="326.62" y="-720.95" font-family="Times New Roman,serif" font-size="14.00">idx1 = idx1 + 1</text>
<text text-anchor="middle" x="260.88" y="-747.2" font-family="Times New Roman,serif" font-size="14.00">[134]</text>
</g>
<!-- 136 -->
<g id="node5" class="node">
<title>136</title>
<polygon fill="aquamarine" stroke="black" points="343.62,-644.7 336.43,-637.5 343.62,-630.3 350.82,-637.5 343.62,-644.7"/>
<text text-anchor="middle" x="318.05" y="-647.9" font-family="Times New Roman,serif" font-size="14.00">&lt;136&gt;</text>
</g>
<!-- 134&#45;&gt;136 -->
<g id="edge9" class="edge">
<title>134&#45;&gt;136</title>
<path fill="none" stroke="black" d="M329.98,-707.91C332.98,-692.68 337.33,-670.51 340.31,-655.35"/>
<polygon fill="black" stroke="black" points="343.72,-656.16 342.22,-645.67 336.85,-654.81 343.72,-656.16"/>
<text text-anchor="middle" x="367.02" y="-676.7" font-family="Times New Roman,serif" font-size="14.00">iterate#140</text>
</g>
<!-- 72 -->
<g id="node4" class="node">
<title>72</title>
<ellipse fill="black" stroke="black" cx="136.62" cy="-892.2" rx="7.2" ry="7.2"/>
<text text-anchor="middle" x="121.55" y="-902.6" font-family="Times New Roman,serif" font-size="14.00">[0]</text>
</g>
<!-- 73 -->
<g id="node6" class="node">
<title>73</title>
<polygon fill="yellow" stroke="black" points="250.75,-832.5 22.5,-832.5 22.5,-796.5 250.75,-796.5 250.75,-832.5"/>
<text text-anchor="middle" x="136.62" y="-809.45" font-family="Times New Roman,serif" font-size="14.00">dim1 = arg.data.getDimensionSizes(1)</text>
<text text-anchor="middle" x="11.25" y="-835.7" font-family="Times New Roman,serif" font-size="14.00">[73]</text>
</g>
<!-- 72&#45;&gt;73 -->
<g id="edge11" class="edge">
<title>72&#45;&gt;73</title>
<path fill="none" stroke="black" d="M136.62,-884.75C136.62,-875.77 136.62,-858.96 136.62,-844.15"/>
<polygon fill="black" stroke="black" points="140.13,-844.41 136.63,-834.41 133.13,-844.41 140.13,-844.41"/>
</g>
<!-- 103 -->
<g id="node19" class="node">
<title>103</title>
<polygon fill="yellow" stroke="black" points="311.5,-567 189.75,-567 189.75,-531 311.5,-531 311.5,-567"/>
<text text-anchor="middle" x="250.62" y="-543.95" font-family="Times New Roman,serif" font-size="14.00">idx1 &gt; dim2 &#45; 1+ 1</text>
<text text-anchor="middle" x="175.12" y="-570.2" font-family="Times New Roman,serif" font-size="14.00">[103]</text>
</g>
<!-- 136&#45;&gt;103 -->
<g id="edge10" class="edge">
<title>136&#45;&gt;103</title>
<path fill="none" stroke="black" d="M337.04,-636.32C319.57,-635.46 271.99,-630.43 251.62,-601.5 246.99,-594.92 245.49,-586.59 245.5,-578.57"/>
<polygon fill="black" stroke="black" points="248.97,-579.02 246.27,-568.77 241.99,-578.47 248.97,-579.02"/>
<text text-anchor="middle" x="292.12" y="-588.2" font-family="Times New Roman,serif" font-size="14.00">graphAnd#142</text>
</g>
<!-- 106 -->
<g id="node20" class="node">
<title>106</title>
<polygon fill="yellow" stroke="black" points="513.62,-567 383.62,-567 383.62,-531 513.62,-531 513.62,-567"/>
<text text-anchor="middle" x="448.62" y="-543.95" font-family="Times New Roman,serif" font-size="14.00">idx1 &lt;= dim2 &#45; 1+ 1</text>
<text text-anchor="middle" x="369" y="-570.2" font-family="Times New Roman,serif" font-size="14.00">[106]</text>
</g>
<!-- 136&#45;&gt;106 -->
<g id="edge8" class="edge">
<title>136&#45;&gt;106</title>
<path fill="none" stroke="black" d="M347.12,-633.62C358.13,-624.55 392.92,-595.89 418.72,-574.64"/>
<polygon fill="black" stroke="black" points="420.76,-577.49 426.25,-568.43 416.3,-572.09 420.76,-577.49"/>
<text text-anchor="middle" x="435.9" y="-588.2" font-family="Times New Roman,serif" font-size="14.00">iterate#139</text>
</g>
<!-- 76 -->
<g id="node8" class="node">
<title>76</title>
<polygon fill="yellow" stroke="black" points="250.75,-744 22.5,-744 22.5,-708 250.75,-708 250.75,-744"/>
<text text-anchor="middle" x="136.62" y="-720.95" font-family="Times New Roman,serif" font-size="14.00">dim2 = arg.data.getDimensionSizes(2)</text>
<text text-anchor="middle" x="11.25" y="-747.2" font-family="Times New Roman,serif" font-size="14.00">[76]</text>
</g>
<!-- 73&#45;&gt;76 -->
<g id="edge16" class="edge">
<title>73&#45;&gt;76</title>
<path fill="none" stroke="black" d="M136.62,-796.41C136.62,-784.76 136.62,-769.05 136.62,-755.52"/>
<polygon fill="black" stroke="black" points="140.13,-755.86 136.63,-745.86 133.13,-755.86 140.13,-755.86"/>
<text text-anchor="middle" x="173.75" y="-765.2" font-family="Times New Roman,serif" font-size="14.00">graphAnd#85</text>
</g>
<!-- 138 -->
<g id="node7" class="node">
<title>138</title>
<polygon fill="yellow" stroke="black" points="301.75,-478.5 199.5,-478.5 199.5,-442.5 301.75,-442.5 301.75,-478.5"/>
<text text-anchor="middle" x="250.62" y="-455.45" font-family="Times New Roman,serif" font-size="14.00">idx0 = idx0 + 1</text>
<text text-anchor="middle" x="184.88" y="-481.7" font-family="Times New Roman,serif" font-size="14.00">[138]</text>
</g>
<!-- 140 -->
<g id="node9" class="node">
<title>140</title>
<polygon fill="aquamarine" stroke="black" points="194.62,-379.2 187.43,-372 194.62,-364.8 201.82,-372 194.62,-379.2"/>
<text text-anchor="middle" x="169.05" y="-382.4" font-family="Times New Roman,serif" font-size="14.00">&lt;140&gt;</text>
</g>
<!-- 138&#45;&gt;140 -->
<g id="edge19" class="edge">
<title>138&#45;&gt;140</title>
<path fill="none" stroke="black" d="M244.53,-442.05C240.51,-431.71 234.69,-418.59 227.62,-408 221.65,-399.04 213.32,-390.22 206.52,-383.68"/>
<polygon fill="black" stroke="black" points="208.96,-381.17 199.23,-376.99 204.23,-386.33 208.96,-381.17"/>
<text text-anchor="middle" x="267.12" y="-411.2" font-family="Times New Roman,serif" font-size="14.00">iterate#151</text>
</g>
<!-- 79 -->
<g id="node10" class="node">
<title>79</title>
<polygon fill="yellow" stroke="black" points="250.75,-655.5 22.5,-655.5 22.5,-619.5 250.75,-619.5 250.75,-655.5"/>
<text text-anchor="middle" x="136.62" y="-632.45" font-family="Times New Roman,serif" font-size="14.00">dim3 = arg.data.getDimensionSizes(3)</text>
<text text-anchor="middle" x="11.25" y="-658.7" font-family="Times New Roman,serif" font-size="14.00">[79]</text>
</g>
<!-- 76&#45;&gt;79 -->
<g id="edge17" class="edge">
<title>76&#45;&gt;79</title>
<path fill="none" stroke="black" d="M136.62,-707.91C136.62,-696.26 136.62,-680.55 136.62,-667.02"/>
<polygon fill="black" stroke="black" points="140.13,-667.36 136.63,-657.36 133.13,-667.36 140.13,-667.36"/>
<text text-anchor="middle" x="173.75" y="-676.7" font-family="Times New Roman,serif" font-size="14.00">graphAnd#86</text>
</g>
<!-- 88 -->
<g id="node13" class="node">
<title>88</title>
<polygon fill="yellow" stroke="black" points="161.5,-301.5 39.75,-301.5 39.75,-265.5 161.5,-265.5 161.5,-301.5"/>
<text text-anchor="middle" x="100.62" y="-278.45" font-family="Times New Roman,serif" font-size="14.00">idx0 &gt; dim1 &#45; 1+ 1</text>
<text text-anchor="middle" x="28.5" y="-304.7" font-family="Times New Roman,serif" font-size="14.00">[88]</text>
</g>
<!-- 140&#45;&gt;88 -->
<g id="edge20" class="edge">
<title>140&#45;&gt;88</title>
<path fill="none" stroke="black" d="M189.73,-369.37C178.21,-365.32 148.96,-353.84 130.62,-336 123.64,-329.2 117.73,-320.43 113.05,-312.06"/>
<polygon fill="black" stroke="black" points="116.18,-310.49 108.49,-303.2 109.96,-313.69 116.18,-310.49"/>
<text text-anchor="middle" x="171.12" y="-322.7" font-family="Times New Roman,serif" font-size="14.00">graphAnd#153</text>
</g>
<!-- 91 -->
<g id="node15" class="node">
<title>91</title>
<polygon fill="yellow" stroke="black" points="309.62,-301.5 179.62,-301.5 179.62,-265.5 309.62,-265.5 309.62,-301.5"/>
<text text-anchor="middle" x="244.62" y="-278.45" font-family="Times New Roman,serif" font-size="14.00">idx0 &lt;= dim1 &#45; 1+ 1</text>
<text text-anchor="middle" x="168.38" y="-304.7" font-family="Times New Roman,serif" font-size="14.00">[91]</text>
</g>
<!-- 140&#45;&gt;91 -->
<g id="edge18" class="edge">
<title>140&#45;&gt;91</title>
<path fill="none" stroke="black" d="M197.04,-366.83C202.72,-357 217.33,-331.71 228.88,-311.74"/>
<polygon fill="black" stroke="black" points="231.84,-313.6 233.82,-303.19 225.78,-310.1 231.84,-313.6"/>
<text text-anchor="middle" x="254.48" y="-322.7" font-family="Times New Roman,serif" font-size="14.00">iterate#150</text>
</g>
<!-- 85 -->
<g id="node12" class="node">
<title>85</title>
<polygon fill="yellow" stroke="black" points="172,-567 101.25,-567 101.25,-531 172,-531 172,-567"/>
<text text-anchor="middle" x="136.62" y="-543.95" font-family="Times New Roman,serif" font-size="14.00">acc = true</text>
<text text-anchor="middle" x="90" y="-570.2" font-family="Times New Roman,serif" font-size="14.00">[85]</text>
</g>
<!-- 79&#45;&gt;85 -->
<g id="edge22" class="edge">
<title>79&#45;&gt;85</title>
<path fill="none" stroke="black" d="M136.62,-619.41C136.62,-607.76 136.62,-592.05 136.62,-578.52"/>
<polygon fill="black" stroke="black" points="140.13,-578.86 136.63,-568.86 133.13,-578.86 140.13,-578.86"/>
<text text-anchor="middle" x="177.12" y="-588.2" font-family="Times New Roman,serif" font-size="14.00">graphAnd#155</text>
</g>
<!-- 82 -->
<g id="node11" class="node">
<title>82</title>
<polygon fill="yellow" stroke="black" points="174.88,-478.5 112.38,-478.5 112.38,-442.5 174.88,-442.5 174.88,-478.5"/>
<text text-anchor="middle" x="143.62" y="-455.45" font-family="Times New Roman,serif" font-size="14.00">idx0 = 1</text>
<text text-anchor="middle" x="101.12" y="-481.7" font-family="Times New Roman,serif" font-size="14.00">[82]</text>
</g>
<!-- 82&#45;&gt;140 -->
<g id="edge21" class="edge">
<title>82&#45;&gt;140</title>
<path fill="none" stroke="black" d="M141.07,-442.26C140.34,-431.75 140.96,-418.38 146.62,-408 153.81,-394.84 168.32,-385.33 179.51,-379.58"/>
<polygon fill="black" stroke="black" points="180.86,-382.81 188.48,-375.45 177.93,-376.45 180.86,-382.81"/>
<text text-anchor="middle" x="187.12" y="-411.2" font-family="Times New Roman,serif" font-size="14.00">graphAnd#154</text>
</g>
<!-- 85&#45;&gt;82 -->
<g id="edge23" class="edge">
<title>85&#45;&gt;82</title>
<path fill="none" stroke="black" d="M138.01,-530.91C138.95,-519.26 140.22,-503.55 141.32,-490.02"/>
<polygon fill="black" stroke="black" points="144.78,-490.61 142.1,-480.36 137.8,-490.04 144.78,-490.61"/>
<text text-anchor="middle" x="177.88" y="-499.7" font-family="Times New Roman,serif" font-size="14.00">graphAnd#91</text>
</g>
<!-- 89 -->
<g id="node14" class="node">
<title>89</title>
<ellipse fill="black" stroke="black" cx="100.62" cy="-195" rx="7.2" ry="7.2"/>
<ellipse fill="none" stroke="black" cx="100.62" cy="-195" rx="11.2" ry="11.2"/>
<text text-anchor="middle" x="79.3" y="-209.4" font-family="Times New Roman,serif" font-size="14.00">[&#45;1]</text>
</g>
<!-- 88&#45;&gt;89 -->
<g id="edge24" class="edge">
<title>88&#45;&gt;89</title>
<path fill="none" stroke="black" d="M100.62,-265.41C100.62,-251.72 100.62,-232.42 100.62,-217.65"/>
<polygon fill="black" stroke="black" points="104.13,-218.04 100.63,-208.04 97.13,-218.04 104.13,-218.04"/>
</g>
<!-- 94 -->
<g id="node16" class="node">
<title>94</title>
<polygon fill="yellow" stroke="black" points="318.25,-213 171,-213 171,-177 318.25,-177 318.25,-213"/>
<text text-anchor="middle" x="244.62" y="-189.95" font-family="Times New Roman,serif" font-size="14.00">it = Sequence{1..dim1}</text>
<text text-anchor="middle" x="159.75" y="-216.2" font-family="Times New Roman,serif" font-size="14.00">[94]</text>
</g>
<!-- 91&#45;&gt;94 -->
<g id="edge13" class="edge">
<title>91&#45;&gt;94</title>
<path fill="none" stroke="black" d="M244.62,-265.41C244.62,-253.76 244.62,-238.05 244.62,-224.52"/>
<polygon fill="black" stroke="black" points="248.13,-224.86 244.63,-214.86 241.13,-224.86 248.13,-224.86"/>
<text text-anchor="middle" x="285.12" y="-234.2" font-family="Times New Roman,serif" font-size="14.00">graphAnd#146</text>
</g>
<!-- 100 -->
<g id="node18" class="node">
<title>100</title>
<polygon fill="yellow" stroke="black" points="286.38,-124.5 208.88,-124.5 208.88,-88.5 286.38,-88.5 286.38,-124.5"/>
<text text-anchor="middle" x="247.62" y="-101.45" font-family="Times New Roman,serif" font-size="14.00">acc2 = true</text>
<text text-anchor="middle" x="194.25" y="-127.7" font-family="Times New Roman,serif" font-size="14.00">[100]</text>
</g>
<!-- 94&#45;&gt;100 -->
<g id="edge14" class="edge">
<title>94&#45;&gt;100</title>
<path fill="none" stroke="black" d="M245.22,-176.91C245.62,-165.26 246.17,-149.55 246.64,-136.02"/>
<polygon fill="black" stroke="black" points="250.12,-136.48 246.97,-126.36 243.13,-136.24 250.12,-136.48"/>
<text text-anchor="middle" x="286.89" y="-145.7" font-family="Times New Roman,serif" font-size="14.00">graphAnd#147</text>
</g>
<!-- 97 -->
<g id="node17" class="node">
<title>97</title>
<polygon fill="yellow" stroke="black" points="328.88,-36 266.38,-36 266.38,0 328.88,0 328.88,-36"/>
<text text-anchor="middle" x="297.62" y="-12.95" font-family="Times New Roman,serif" font-size="14.00">idx1 = 1</text>
<text text-anchor="middle" x="255.12" y="-39.2" font-family="Times New Roman,serif" font-size="14.00">[97]</text>
</g>
<!-- 97&#45;&gt;136 -->
<g id="edge12" class="edge">
<title>97&#45;&gt;136</title>
<path fill="none" stroke="black" d="M318.53,-36.35C323.75,-41.56 328.92,-47.61 332.62,-54 344.52,-74.52 346.62,-81.78 346.62,-105.5 346.62,-550 346.62,-550 346.62,-550 346.62,-573.83 345.47,-601.33 344.6,-618.81"/>
<polygon fill="black" stroke="black" points="341.11,-618.52 344.07,-628.7 348.1,-618.9 341.11,-618.52"/>
<text text-anchor="middle" x="387.12" y="-322.7" font-family="Times New Roman,serif" font-size="14.00">graphAnd#143</text>
</g>
<!-- 100&#45;&gt;97 -->
<g id="edge25" class="edge">
<title>100&#45;&gt;97</title>
<path fill="none" stroke="black" d="M245.54,-88.27C245.07,-77.76 245.96,-64.39 251.62,-54 253.61,-50.35 256.17,-46.96 259.04,-43.85"/>
<polygon fill="black" stroke="black" points="261.18,-46.64 266.15,-37.29 256.43,-41.5 261.18,-46.64"/>
<text text-anchor="middle" x="292.12" y="-57.2" font-family="Times New Roman,serif" font-size="14.00">graphAnd#102</text>
</g>
<!-- 103&#45;&gt;138 -->
<g id="edge15" class="edge">
<title>103&#45;&gt;138</title>
<path fill="none" stroke="black" d="M250.62,-530.91C250.62,-519.26 250.62,-503.55 250.62,-490.02"/>
<polygon fill="black" stroke="black" points="254.13,-490.36 250.63,-480.36 247.13,-490.36 254.13,-490.36"/>
<text text-anchor="middle" x="291.12" y="-499.7" font-family="Times New Roman,serif" font-size="14.00">graphAnd#148</text>
</g>
<!-- 109 -->
<g id="node21" class="node">
<title>109</title>
<polygon fill="yellow" stroke="black" points="542.62,-478.5 388.62,-478.5 388.62,-442.5 542.62,-442.5 542.62,-478.5"/>
<text text-anchor="middle" x="465.62" y="-455.45" font-family="Times New Roman,serif" font-size="14.00">it2 = Sequence{1..dim2}</text>
<text text-anchor="middle" x="374" y="-481.7" font-family="Times New Roman,serif" font-size="14.00">[109]</text>
</g>
<!-- 106&#45;&gt;109 -->
<g id="edge5" class="edge">
<title>106&#45;&gt;109</title>
<path fill="none" stroke="black" d="M451.98,-530.91C454.27,-519.26 457.36,-503.55 460.02,-490.02"/>
<polygon fill="black" stroke="black" points="463.43,-490.82 461.92,-480.34 456.56,-489.47 463.43,-490.82"/>
<text text-anchor="middle" x="499.15" y="-499.7" font-family="Times New Roman,serif" font-size="14.00">graphAnd#135</text>
</g>
<!-- 115 -->
<g id="node23" class="node">
<title>115</title>
<polygon fill="yellow" stroke="black" points="513.38,-390 435.88,-390 435.88,-354 513.38,-354 513.38,-390"/>
<text text-anchor="middle" x="474.62" y="-366.95" font-family="Times New Roman,serif" font-size="14.00">acc3 = true</text>
<text text-anchor="middle" x="421.25" y="-393.2" font-family="Times New Roman,serif" font-size="14.00">[115]</text>
</g>
<!-- 109&#45;&gt;115 -->
<g id="edge6" class="edge">
<title>109&#45;&gt;115</title>
<path fill="none" stroke="black" d="M467.4,-442.41C468.62,-430.76 470.25,-415.05 471.66,-401.52"/>
<polygon fill="black" stroke="black" points="475.11,-402.16 472.66,-391.86 468.15,-401.44 475.11,-402.16"/>
<text text-anchor="middle" x="511.43" y="-411.2" font-family="Times New Roman,serif" font-size="14.00">graphAnd#136</text>
</g>
<!-- 112 -->
<g id="node22" class="node">
<title>112</title>
<polygon fill="yellow" stroke="black" points="563.88,-301.5 501.38,-301.5 501.38,-265.5 563.88,-265.5 563.88,-301.5"/>
<text text-anchor="middle" x="532.62" y="-278.45" font-family="Times New Roman,serif" font-size="14.00">idx2 = 1</text>
<text text-anchor="middle" x="486.75" y="-304.7" font-family="Times New Roman,serif" font-size="14.00">[112]</text>
</g>
<!-- 112&#45;&gt;132 -->
<g id="edge4" class="edge">
<title>112&#45;&gt;132</title>
<path fill="none" stroke="black" d="M550.77,-301.82C555.51,-307.11 560.23,-313.21 563.62,-319.5 574.9,-340.37 577.62,-347.28 577.62,-371 577.62,-815.5 577.62,-815.5 577.62,-815.5 577.62,-839.22 577.57,-847.81 563.62,-867 558.12,-874.58 549.45,-880.43 541.89,-884.48"/>
<polygon fill="black" stroke="black" points="540.46,-881.29 532.9,-888.71 543.44,-887.62 540.46,-881.29"/>
<text text-anchor="middle" x="618.12" y="-588.2" font-family="Times New Roman,serif" font-size="14.00">graphAnd#132</text>
</g>
<!-- 115&#45;&gt;112 -->
<g id="edge26" class="edge">
<title>115&#45;&gt;112</title>
<path fill="none" stroke="black" d="M473.99,-353.59C474.38,-343.01 476.31,-329.64 482.62,-319.5 485.28,-315.24 488.67,-311.35 492.42,-307.85"/>
<polygon fill="black" stroke="black" points="494.37,-310.78 499.92,-301.76 489.95,-305.35 494.37,-310.78"/>
<text text-anchor="middle" x="523.12" y="-322.7" font-family="Times New Roman,serif" font-size="14.00">graphAnd#113</text>
</g>
<!-- 118&#45;&gt;134 -->
<g id="edge7" class="edge">
<title>118&#45;&gt;134</title>
<path fill="none" stroke="black" d="M331.44,-796.41C330.63,-784.76 329.54,-769.05 328.6,-755.52"/>
<polygon fill="black" stroke="black" points="332.12,-755.59 327.93,-745.86 325.13,-756.08 332.12,-755.59"/>
<text text-anchor="middle" x="370.66" y="-765.2" font-family="Times New Roman,serif" font-size="14.00">graphAnd#137</text>
</g>
<!-- 124 -->
<g id="node26" class="node">
<title>124</title>
<polygon fill="yellow" stroke="black" points="549.62,-744 395.62,-744 395.62,-708 549.62,-708 549.62,-744"/>
<text text-anchor="middle" x="472.62" y="-720.95" font-family="Times New Roman,serif" font-size="14.00">it3 = Sequence{1..dim3}</text>
<text text-anchor="middle" x="381" y="-747.2" font-family="Times New Roman,serif" font-size="14.00">[124]</text>
</g>
<!-- 121&#45;&gt;124 -->
<g id="edge27" class="edge">
<title>121&#45;&gt;124</title>
<path fill="none" stroke="black" d="M479.85,-796.41C478.63,-784.76 477,-769.05 475.59,-755.52"/>
<polygon fill="black" stroke="black" points="479.1,-755.44 474.59,-745.86 472.14,-756.16 479.1,-755.44"/>
<text text-anchor="middle" x="518.43" y="-765.2" font-family="Times New Roman,serif" font-size="14.00">graphAnd#124</text>
</g>
<!-- 127 -->
<g id="node27" class="node">
<title>127</title>
<polygon fill="yellow" stroke="black" points="983.75,-655.5 605.5,-655.5 605.5,-619.5 983.75,-619.5 983.75,-655.5"/>
<text text-anchor="middle" x="794.62" y="-632.45" font-family="Times New Roman,serif" font-size="14.00">result.data[it][it2][it3] = self.data[it][it2][it3] &#45; arg.data[it][it2][it3]</text>
<text text-anchor="middle" x="590.88" y="-658.7" font-family="Times New Roman,serif" font-size="14.00">[127]</text>
</g>
<!-- 124&#45;&gt;127 -->
<g id="edge28" class="edge">
<title>124&#45;&gt;127</title>
<path fill="none" stroke="black" d="M514.93,-707.54C542.64,-696.61 579.85,-682.87 613.62,-673.5 634.24,-667.78 656.43,-662.66 677.97,-658.22"/>
<polygon fill="black" stroke="black" points="678.57,-661.67 687.68,-656.26 677.18,-654.81 678.57,-661.67"/>
<text text-anchor="middle" x="654.12" y="-676.7" font-family="Times New Roman,serif" font-size="14.00">graphAnd#125</text>
</g>
<!-- 127&#45;&gt;130 -->
<g id="edge29" class="edge">
<title>127&#45;&gt;130</title>
<path fill="none" stroke="black" d="M760.14,-655.87C736.22,-670.62 708.62,-694.29 708.62,-725 708.62,-893.2 708.62,-893.2 708.62,-893.2 708.62,-919.65 686.64,-937.64 662.51,-949.42"/>
<polygon fill="black" stroke="black" points="661.16,-946.19 653.48,-953.48 664.03,-952.57 661.16,-946.19"/>
<text text-anchor="middle" x="749.12" y="-809.45" font-family="Times New Roman,serif" font-size="14.00">graphAnd#126</text>
</g>
</g>
</svg>
