<?xml version="1.0" encoding="UTF-8" standalone="no"?>
<!DOCTYPE svg PUBLIC "-//W3C//DTD SVG 1.1//EN"
 "http://www.w3.org/Graphics/SVG/1.1/DTD/svg11.dtd">
<!-- Generated by graphviz version 12.2.1 (20241206.2353)
 -->
<!-- Title: CLG Pages: 1 -->
<svg width="1018pt" height="1012pt"
 viewBox="0.00 0.00 1017.75 1012.40" xmlns="http://www.w3.org/2000/svg" xmlns:xlink="http://www.w3.org/1999/xlink">
<g id="graph0" class="graph" transform="scale(1 1) rotate(0) translate(4 1008.4)">
<title>CLG</title>
<polygon fill="white" stroke="none" points="-4,4 -4,-1008.4 1013.75,-1008.4 1013.75,4 -4,4"/>
<!-- 130 -->
<g id="node1" class="node">
<title>130</title>
<polygon fill="yellow" stroke="black" points="689.25,-987.9 560,-987.9 560,-951.9 689.25,-951.9 689.25,-987.9"/>
<text text-anchor="middle" x="624.62" y="-964.85" font-family="Times New Roman,serif" font-size="14.00">Index2 = Index2 + 1</text>
<text text-anchor="middle" x="545.38" y="-991.1" font-family="Times New Roman,serif" font-size="14.00">[130]</text>
</g>
<!-- 132 -->
<g id="node2" class="node">
<title>132</title>
<polygon fill="aquamarine" stroke="black" points="550.62,-899.4 543.42,-892.2 550.62,-885 557.83,-892.2 550.62,-899.4"/>
<text text-anchor="middle" x="525.05" y="-902.6" font-family="Times New Roman,serif" font-size="14.00">&lt;132&gt;</text>
</g>
<!-- 130&#45;&gt;132 -->
<g id="edge2" class="edge">
<title>130&#45;&gt;132</title>
<path fill="none" stroke="black" d="M607.83,-951.72C593.84,-937.4 574.27,-917.39 562.03,-904.87"/>
<polygon fill="black" stroke="black" points="564.58,-902.47 555.09,-897.77 559.58,-907.37 564.58,-902.47"/>
<text text-anchor="middle" x="620.22" y="-920.6" font-family="Times New Roman,serif" font-size="14.00">iterate#129</text>
</g>
<!-- 118 -->
<g id="node24" class="node">
<title>118</title>
<polygon fill="yellow" stroke="black" points="408.25,-832.5 273,-832.5 273,-796.5 408.25,-796.5 408.25,-832.5"/>
<text text-anchor="middle" x="340.62" y="-809.45" font-family="Times New Roman,serif" font-size="14.00">Index2 &gt; dim3 &#45; 1+ 1</text>
<text text-anchor="middle" x="258.38" y="-835.7" font-family="Times New Roman,serif" font-size="14.00">[118]</text>
</g>
<!-- 132&#45;&gt;118 -->
<g id="edge3" class="edge">
<title>132&#45;&gt;118</title>
<path fill="none" stroke="black" d="M544.61,-890.6C527.03,-888.72 474.47,-882.13 433.62,-867 413.81,-859.66 393.11,-848.58 376.28,-838.57"/>
<polygon fill="black" stroke="black" points="378.52,-835.83 368.15,-833.63 374.88,-841.82 378.52,-835.83"/>
<text text-anchor="middle" x="474.12" y="-853.7" font-family="Times New Roman,serif" font-size="14.00">graphAnd#131</text>
</g>
<!-- 121 -->
<g id="node25" class="node">
<title>121</title>
<polygon fill="yellow" stroke="black" points="573.38,-832.5 429.88,-832.5 429.88,-796.5 573.38,-796.5 573.38,-832.5"/>
<text text-anchor="middle" x="501.62" y="-809.45" font-family="Times New Roman,serif" font-size="14.00">Index2 &lt;= dim3 &#45; 1+ 1</text>
<text text-anchor="middle" x="415.25" y="-835.7" font-family="Times New Roman,serif" font-size="14.00">[121]</text>
</g>
<!-- 132&#45;&gt;121 -->
<g id="edge1" class="edge">
<title>132&#45;&gt;121</title>
<path fill="none" stroke="black" d="M547.25,-887.98C542.71,-883.53 534.57,-875.15 528.88,-867 523.64,-859.5 518.71,-850.88 514.51,-842.86"/>
<polygon fill="black" stroke="black" points="517.76,-841.53 510.14,-834.16 511.5,-844.67 517.76,-841.53"/>
<text text-anchor="middle" x="559.25" y="-853.7" font-family="Times New Roman,serif" font-size="14.00">iterate#128</text>
</g>
<!-- 134 -->
<g id="node3" class="node">
<title>134</title>
<polygon fill="yellow" stroke="black" points="403.25,-744 274,-744 274,-708 403.25,-708 403.25,-744"/>
<text text-anchor="middle" x="338.62" y="-720.95" font-family="Times New Roman,serif" font-size="14.00">Index1 = Index1 + 1</text>
<text text-anchor="middle" x="259.38" y="-747.2" font-family="Times New Roman,serif" font-size="14.00">[134]</text>
</g>
<!-- 136 -->
<g id="node5" class="node">
<title>136</title>
<polygon fill="aquamarine" stroke="black" points="343.62,-644.7 336.43,-637.5 343.62,-630.3 350.82,-637.5 343.62,-644.7"/>
<text text-anchor="middle" x="318.05" y="-647.9" font-family="Times New Roman,serif" font-size="14.00">&lt;136&gt;</text>
</g>
<!-- 134&#45;&gt;136 -->
<g id="edge9" class="edge">
<title>134&#45;&gt;136</title>
<path fill="none" stroke="black" d="M339.61,-707.91C340.48,-692.98 341.72,-671.4 342.6,-656.27"/>
<polygon fill="black" stroke="black" points="346.08,-656.67 343.16,-646.48 339.09,-656.26 346.08,-656.67"/>
<text text-anchor="middle" x="371.95" y="-676.7" font-family="Times New Roman,serif" font-size="14.00">iterate#140</text>
</g>
<!-- 72 -->
<g id="node4" class="node">
<title>72</title>
<ellipse fill="black" stroke="black" cx="136.62" cy="-892.2" rx="7.2" ry="7.2"/>
<text text-anchor="middle" x="121.55" y="-902.6" font-family="Times New Roman,serif" font-size="14.00">[0]</text>
</g>
<!-- 73 -->
<g id="node6" class="node">
<title>73</title>
<polygon fill="yellow" stroke="black" points="250.75,-832.5 22.5,-832.5 22.5,-796.5 250.75,-796.5 250.75,-832.5"/>
<text text-anchor="middle" x="136.62" y="-809.45" font-family="Times New Roman,serif" font-size="14.00">dim1 = arg.data.getDimensionSizes(1)</text>
<text text-anchor="middle" x="11.25" y="-835.7" font-family="Times New Roman,serif" font-size="14.00">[73]</text>
</g>
<!-- 72&#45;&gt;73 -->
<g id="edge11" class="edge">
<title>72&#45;&gt;73</title>
<path fill="none" stroke="black" d="M136.62,-884.75C136.62,-875.77 136.62,-858.96 136.62,-844.15"/>
<polygon fill="black" stroke="black" points="140.13,-844.41 136.63,-834.41 133.13,-844.41 140.13,-844.41"/>
</g>
<!-- 103 -->
<g id="node19" class="node">
<title>103</title>
<polygon fill="yellow" stroke="black" points="325.25,-567 190,-567 190,-531 325.25,-531 325.25,-567"/>
<text text-anchor="middle" x="257.62" y="-543.95" font-family="Times New Roman,serif" font-size="14.00">Index1 &gt; dim2 &#45; 1+ 1</text>
<text text-anchor="middle" x="175.38" y="-570.2" font-family="Times New Roman,serif" font-size="14.00">[103]</text>
</g>
<!-- 136&#45;&gt;103 -->
<g id="edge10" class="edge">
<title>136&#45;&gt;103</title>
<path fill="none" stroke="black" d="M337.29,-636.12C320.91,-634.76 277.18,-628.64 258.62,-601.5 254.08,-594.85 252.61,-586.51 252.61,-578.49"/>
<polygon fill="black" stroke="black" points="256.09,-578.95 253.36,-568.71 249.11,-578.41 256.09,-578.95"/>
<text text-anchor="middle" x="299.12" y="-588.2" font-family="Times New Roman,serif" font-size="14.00">graphAnd#142</text>
</g>
<!-- 106 -->
<g id="node20" class="node">
<title>106</title>
<polygon fill="yellow" stroke="black" points="534.38,-567 390.88,-567 390.88,-531 534.38,-531 534.38,-567"/>
<text text-anchor="middle" x="462.62" y="-543.95" font-family="Times New Roman,serif" font-size="14.00">Index1 &lt;= dim2 &#45; 1+ 1</text>
<text text-anchor="middle" x="376.25" y="-570.2" font-family="Times New Roman,serif" font-size="14.00">[106]</text>
</g>
<!-- 136&#45;&gt;106 -->
<g id="edge8" class="edge">
<title>136&#45;&gt;106</title>
<path fill="none" stroke="black" d="M347.58,-633.62C360.18,-624.47 400.19,-595.39 429.5,-574.08"/>
<polygon fill="black" stroke="black" points="431.33,-577.07 437.36,-568.36 427.22,-571.41 431.33,-577.07"/>
<text text-anchor="middle" x="444.16" y="-588.2" font-family="Times New Roman,serif" font-size="14.00">iterate#139</text>
</g>
<!-- 76 -->
<g id="node8" class="node">
<title>76</title>
<polygon fill="yellow" stroke="black" points="250.75,-744 22.5,-744 22.5,-708 250.75,-708 250.75,-744"/>
<text text-anchor="middle" x="136.62" y="-720.95" font-family="Times New Roman,serif" font-size="14.00">dim2 = arg.data.getDimensionSizes(2)</text>
<text text-anchor="middle" x="11.25" y="-747.2" font-family="Times New Roman,serif" font-size="14.00">[76]</text>
</g>
<!-- 73&#45;&gt;76 -->
<g id="edge16" class="edge">
<title>73&#45;&gt;76</title>
<path fill="none" stroke="black" d="M136.62,-796.41C136.62,-784.76 136.62,-769.05 136.62,-755.52"/>
<polygon fill="black" stroke="black" points="140.13,-755.86 136.63,-745.86 133.13,-755.86 140.13,-755.86"/>
<text text-anchor="middle" x="173.75" y="-765.2" font-family="Times New Roman,serif" font-size="14.00">graphAnd#85</text>
</g>
<!-- 138 -->
<g id="node7" class="node">
<title>138</title>
<polygon fill="yellow" stroke="black" points="322.25,-478.5 193,-478.5 193,-442.5 322.25,-442.5 322.25,-478.5"/>
<text text-anchor="middle" x="257.62" y="-455.45" font-family="Times New Roman,serif" font-size="14.00">Index0 = Index0 + 1</text>
<text text-anchor="middle" x="178.38" y="-481.7" font-family="Times New Roman,serif" font-size="14.00">[138]</text>
</g>
<!-- 140 -->
<g id="node9" class="node">
<title>140</title>
<polygon fill="aquamarine" stroke="black" points="144.62,-379.2 137.43,-372 144.62,-364.8 151.82,-372 144.62,-379.2"/>
<text text-anchor="middle" x="119.05" y="-382.4" font-family="Times New Roman,serif" font-size="14.00">&lt;140&gt;</text>
</g>
<!-- 138&#45;&gt;140 -->
<g id="edge19" class="edge">
<title>138&#45;&gt;140</title>
<path fill="none" stroke="black" d="M250.63,-442.3C245.41,-431.27 237.33,-417.32 226.62,-408 207.36,-391.24 178.88,-381.54 161.05,-376.77"/>
<polygon fill="black" stroke="black" points="162.05,-373.41 151.51,-374.45 160.39,-380.21 162.05,-373.41"/>
<text text-anchor="middle" x="270.8" y="-411.2" font-family="Times New Roman,serif" font-size="14.00">iterate#151</text>
</g>
<!-- 79 -->
<g id="node10" class="node">
<title>79</title>
<polygon fill="yellow" stroke="black" points="250.75,-655.5 22.5,-655.5 22.5,-619.5 250.75,-619.5 250.75,-655.5"/>
<text text-anchor="middle" x="136.62" y="-632.45" font-family="Times New Roman,serif" font-size="14.00">dim3 = arg.data.getDimensionSizes(3)</text>
<text text-anchor="middle" x="11.25" y="-658.7" font-family="Times New Roman,serif" font-size="14.00">[79]</text>
</g>
<!-- 76&#45;&gt;79 -->
<g id="edge17" class="edge">
<title>76&#45;&gt;79</title>
<path fill="none" stroke="black" d="M136.62,-707.91C136.62,-696.26 136.62,-680.55 136.62,-667.02"/>
<polygon fill="black" stroke="black" points="140.13,-667.36 136.63,-657.36 133.13,-667.36 140.13,-667.36"/>
<text text-anchor="middle" x="173.75" y="-676.7" font-family="Times New Roman,serif" font-size="14.00">graphAnd#86</text>
</g>
<!-- 88 -->
<g id="node13" class="node">
<title>88</title>
<polygon fill="yellow" stroke="black" points="162.25,-301.5 27,-301.5 27,-265.5 162.25,-265.5 162.25,-301.5"/>
<text text-anchor="middle" x="94.62" y="-278.45" font-family="Times New Roman,serif" font-size="14.00">Index0 &gt; dim1 &#45; 1+ 1</text>
<text text-anchor="middle" x="15.75" y="-304.7" font-family="Times New Roman,serif" font-size="14.00">[88]</text>
</g>
<!-- 140&#45;&gt;88 -->
<g id="edge20" class="edge">
<title>140&#45;&gt;88</title>
<path fill="none" stroke="black" d="M142.21,-366.83C136.53,-357 121.92,-331.71 110.37,-311.74"/>
<polygon fill="black" stroke="black" points="113.47,-310.1 105.43,-303.19 107.41,-313.6 113.47,-310.1"/>
<text text-anchor="middle" x="164.6" y="-322.7" font-family="Times New Roman,serif" font-size="14.00">graphAnd#153</text>
</g>
<!-- 91 -->
<g id="node15" class="node">
<title>91</title>
<polygon fill="yellow" stroke="black" points="323.38,-301.5 179.88,-301.5 179.88,-265.5 323.38,-265.5 323.38,-301.5"/>
<text text-anchor="middle" x="251.62" y="-278.45" font-family="Times New Roman,serif" font-size="14.00">Index0 &lt;= dim1 &#45; 1+ 1</text>
<text text-anchor="middle" x="168.62" y="-304.7" font-family="Times New Roman,serif" font-size="14.00">[91]</text>
</g>
<!-- 140&#45;&gt;91 -->
<g id="edge18" class="edge">
<title>140&#45;&gt;91</title>
<path fill="none" stroke="black" d="M149.33,-369.15C160.44,-364.64 188.86,-352.24 208.62,-336 217.48,-328.72 225.88,-319.43 232.87,-310.75"/>
<polygon fill="black" stroke="black" points="235.6,-312.95 238.93,-302.89 230.05,-308.67 235.6,-312.95"/>
<text text-anchor="middle" x="254.82" y="-322.7" font-family="Times New Roman,serif" font-size="14.00">iterate#150</text>
</g>
<!-- 85 -->
<g id="node12" class="node">
<title>85</title>
<polygon fill="yellow" stroke="black" points="172,-567 101.25,-567 101.25,-531 172,-531 172,-567"/>
<text text-anchor="middle" x="136.62" y="-543.95" font-family="Times New Roman,serif" font-size="14.00">acc = true</text>
<text text-anchor="middle" x="90" y="-570.2" font-family="Times New Roman,serif" font-size="14.00">[85]</text>
</g>
<!-- 79&#45;&gt;85 -->
<g id="edge22" class="edge">
<title>79&#45;&gt;85</title>
<path fill="none" stroke="black" d="M136.62,-619.41C136.62,-607.76 136.62,-592.05 136.62,-578.52"/>
<polygon fill="black" stroke="black" points="140.13,-578.86 136.63,-568.86 133.13,-578.86 140.13,-578.86"/>
<text text-anchor="middle" x="177.12" y="-588.2" font-family="Times New Roman,serif" font-size="14.00">graphAnd#155</text>
</g>
<!-- 82 -->
<g id="node11" class="node">
<title>82</title>
<polygon fill="yellow" stroke="black" points="174.62,-478.5 98.62,-478.5 98.62,-442.5 174.62,-442.5 174.62,-478.5"/>
<text text-anchor="middle" x="136.62" y="-455.45" font-family="Times New Roman,serif" font-size="14.00">Index0 = 1</text>
<text text-anchor="middle" x="87.38" y="-481.7" font-family="Times New Roman,serif" font-size="14.00">[82]</text>
</g>
<!-- 82&#45;&gt;140 -->
<g id="edge21" class="edge">
<title>82&#45;&gt;140</title>
<path fill="none" stroke="black" d="M138.21,-442.41C139.6,-427.33 141.62,-405.45 143.02,-390.31"/>
<polygon fill="black" stroke="black" points="146.49,-390.86 143.92,-380.58 139.52,-390.21 146.49,-390.86"/>
<text text-anchor="middle" x="181.84" y="-411.2" font-family="Times New Roman,serif" font-size="14.00">graphAnd#154</text>
</g>
<!-- 85&#45;&gt;82 -->
<g id="edge23" class="edge">
<title>85&#45;&gt;82</title>
<path fill="none" stroke="black" d="M136.62,-530.91C136.62,-519.26 136.62,-503.55 136.62,-490.02"/>
<polygon fill="black" stroke="black" points="140.13,-490.36 136.63,-480.36 133.13,-490.36 140.13,-490.36"/>
<text text-anchor="middle" x="173.75" y="-499.7" font-family="Times New Roman,serif" font-size="14.00">graphAnd#91</text>
</g>
<!-- 89 -->
<g id="node14" class="node">
<title>89</title>
<ellipse fill="black" stroke="black" cx="94.62" cy="-195" rx="7.2" ry="7.2"/>
<ellipse fill="none" stroke="black" cx="94.62" cy="-195" rx="11.2" ry="11.2"/>
<text text-anchor="middle" x="73.3" y="-209.4" font-family="Times New Roman,serif" font-size="14.00">[&#45;1]</text>
</g>
<!-- 88&#45;&gt;89 -->
<g id="edge24" class="edge">
<title>88&#45;&gt;89</title>
<path fill="none" stroke="black" d="M94.62,-265.41C94.62,-251.72 94.62,-232.42 94.62,-217.65"/>
<polygon fill="black" stroke="black" points="98.13,-218.04 94.63,-208.04 91.13,-218.04 98.13,-218.04"/>
</g>
<!-- 94 -->
<g id="node16" class="node">
<title>94</title>
<polygon fill="yellow" stroke="black" points="325.25,-213 178,-213 178,-177 325.25,-177 325.25,-213"/>
<text text-anchor="middle" x="251.62" y="-189.95" font-family="Times New Roman,serif" font-size="14.00">it = Sequence{1..dim1}</text>
<text text-anchor="middle" x="166.75" y="-216.2" font-family="Times New Roman,serif" font-size="14.00">[94]</text>
</g>
<!-- 91&#45;&gt;94 -->
<g id="edge13" class="edge">
<title>91&#45;&gt;94</title>
<path fill="none" stroke="black" d="M251.62,-265.41C251.62,-253.76 251.62,-238.05 251.62,-224.52"/>
<polygon fill="black" stroke="black" points="255.13,-224.86 251.63,-214.86 248.13,-224.86 255.13,-224.86"/>
<text text-anchor="middle" x="292.12" y="-234.2" font-family="Times New Roman,serif" font-size="14.00">graphAnd#146</text>
</g>
<!-- 100 -->
<g id="node18" class="node">
<title>100</title>
<polygon fill="yellow" stroke="black" points="293.38,-124.5 215.88,-124.5 215.88,-88.5 293.38,-88.5 293.38,-124.5"/>
<text text-anchor="middle" x="254.62" y="-101.45" font-family="Times New Roman,serif" font-size="14.00">acc2 = true</text>
<text text-anchor="middle" x="201.25" y="-127.7" font-family="Times New Roman,serif" font-size="14.00">[100]</text>
</g>
<!-- 94&#45;&gt;100 -->
<g id="edge14" class="edge">
<title>94&#45;&gt;100</title>
<path fill="none" stroke="black" d="M252.22,-176.91C252.62,-165.26 253.17,-149.55 253.64,-136.02"/>
<polygon fill="black" stroke="black" points="257.12,-136.48 253.97,-126.36 250.13,-136.24 257.12,-136.48"/>
<text text-anchor="middle" x="293.89" y="-145.7" font-family="Times New Roman,serif" font-size="14.00">graphAnd#147</text>
</g>
<!-- 97 -->
<g id="node17" class="node">
<title>97</title>
<polygon fill="yellow" stroke="black" points="342.62,-36 266.62,-36 266.62,0 342.62,0 342.62,-36"/>
<text text-anchor="middle" x="304.62" y="-12.95" font-family="Times New Roman,serif" font-size="14.00">Index1 = 1</text>
<text text-anchor="middle" x="255.38" y="-39.2" font-family="Times New Roman,serif" font-size="14.00">[97]</text>
</g>
<!-- 97&#45;&gt;136 -->
<g id="edge12" class="edge">
<title>97&#45;&gt;136</title>
<path fill="none" stroke="black" d="M325.53,-36.35C330.75,-41.56 335.92,-47.61 339.62,-54 351.52,-74.52 353.62,-81.78 353.62,-105.5 353.62,-550 353.62,-550 353.62,-550 353.62,-574.45 349.63,-602.54 346.69,-619.91"/>
<polygon fill="black" stroke="black" points="343.28,-619.11 344.96,-629.57 350.17,-620.34 343.28,-619.11"/>
<text text-anchor="middle" x="394.12" y="-322.7" font-family="Times New Roman,serif" font-size="14.00">graphAnd#143</text>
</g>
<!-- 100&#45;&gt;97 -->
<g id="edge25" class="edge">
<title>100&#45;&gt;97</title>
<path fill="none" stroke="black" d="M252.54,-88.27C252.07,-77.76 252.96,-64.39 258.62,-54 260.61,-50.35 263.17,-46.96 266.04,-43.85"/>
<polygon fill="black" stroke="black" points="268.18,-46.64 273.15,-37.29 263.43,-41.5 268.18,-46.64"/>
<text text-anchor="middle" x="299.12" y="-57.2" font-family="Times New Roman,serif" font-size="14.00">graphAnd#102</text>
</g>
<!-- 103&#45;&gt;138 -->
<g id="edge15" class="edge">
<title>103&#45;&gt;138</title>
<path fill="none" stroke="black" d="M257.62,-530.91C257.62,-519.26 257.62,-503.55 257.62,-490.02"/>
<polygon fill="black" stroke="black" points="261.13,-490.36 257.63,-480.36 254.13,-490.36 261.13,-490.36"/>
<text text-anchor="middle" x="298.12" y="-499.7" font-family="Times New Roman,serif" font-size="14.00">graphAnd#148</text>
</g>
<!-- 109 -->
<g id="node21" class="node">
<title>109</title>
<polygon fill="yellow" stroke="black" points="558.62,-478.5 404.62,-478.5 404.62,-442.5 558.62,-442.5 558.62,-478.5"/>
<text text-anchor="middle" x="481.62" y="-455.45" font-family="Times New Roman,serif" font-size="14.00">it2 = Sequence{1..dim2}</text>
<text text-anchor="middle" x="390" y="-481.7" font-family="Times New Roman,serif" font-size="14.00">[109]</text>
</g>
<!-- 106&#45;&gt;109 -->
<g id="edge5" class="edge">
<title>106&#45;&gt;109</title>
<path fill="none" stroke="black" d="M466.38,-530.91C468.94,-519.26 472.39,-503.55 475.36,-490.02"/>
<polygon fill="black" stroke="black" points="478.76,-490.85 477.49,-480.33 471.93,-489.34 478.76,-490.85"/>
<text text-anchor="middle" x="514.33" y="-499.7" font-family="Times New Roman,serif" font-size="14.00">graphAnd#135</text>
</g>
<!-- 115 -->
<g id="node23" class="node">
<title>115</title>
<polygon fill="yellow" stroke="black" points="536.38,-390 458.88,-390 458.88,-354 536.38,-354 536.38,-390"/>
<text text-anchor="middle" x="497.62" y="-366.95" font-family="Times New Roman,serif" font-size="14.00">acc3 = true</text>
<text text-anchor="middle" x="444.25" y="-393.2" font-family="Times New Roman,serif" font-size="14.00">[115]</text>
</g>
<!-- 109&#45;&gt;115 -->
<g id="edge6" class="edge">
<title>109&#45;&gt;115</title>
<path fill="none" stroke="black" d="M484.79,-442.41C486.94,-430.76 489.85,-415.05 492.35,-401.52"/>
<polygon fill="black" stroke="black" points="495.76,-402.31 494.14,-391.84 488.88,-401.04 495.76,-402.31"/>
<text text-anchor="middle" x="531.56" y="-411.2" font-family="Times New Roman,serif" font-size="14.00">graphAnd#136</text>
</g>
<!-- 112 -->
<g id="node22" class="node">
<title>112</title>
<polygon fill="yellow" stroke="black" points="591.62,-301.5 515.62,-301.5 515.62,-265.5 591.62,-265.5 591.62,-301.5"/>
<text text-anchor="middle" x="553.62" y="-278.45" font-family="Times New Roman,serif" font-size="14.00">Index2 = 1</text>
<text text-anchor="middle" x="501" y="-304.7" font-family="Times New Roman,serif" font-size="14.00">[112]</text>
</g>
<!-- 112&#45;&gt;132 -->
<g id="edge4" class="edge">
<title>112&#45;&gt;132</title>
<path fill="none" stroke="black" d="M575.13,-301.76C580.51,-306.97 585.82,-313.04 589.62,-319.5 601.67,-339.94 603.62,-347.28 603.62,-371 603.62,-815.5 603.62,-815.5 603.62,-815.5 603.62,-839.22 603.8,-847.98 589.62,-867 583.61,-875.07 574.04,-881.07 565.88,-885.07"/>
<polygon fill="black" stroke="black" points="564.72,-881.76 556.91,-888.93 567.48,-888.19 564.72,-881.76"/>
<text text-anchor="middle" x="644.12" y="-588.2" font-family="Times New Roman,serif" font-size="14.00">graphAnd#132</text>
</g>
<!-- 115&#45;&gt;112 -->
<g id="edge26" class="edge">
<title>115&#45;&gt;112</title>
<path fill="none" stroke="black" d="M498.35,-353.65C499.49,-343.1 502.21,-329.72 508.62,-319.5 510.86,-315.94 513.59,-312.59 516.6,-309.49"/>
<polygon fill="black" stroke="black" points="518.83,-312.19 523.9,-302.89 514.14,-306.99 518.83,-312.19"/>
<text text-anchor="middle" x="549.12" y="-322.7" font-family="Times New Roman,serif" font-size="14.00">graphAnd#113</text>
</g>
<!-- 118&#45;&gt;134 -->
<g id="edge7" class="edge">
<title>118&#45;&gt;134</title>
<path fill="none" stroke="black" d="M340.23,-796.41C339.96,-784.76 339.6,-769.05 339.28,-755.52"/>
<polygon fill="black" stroke="black" points="342.79,-755.78 339.06,-745.86 335.79,-755.94 342.79,-755.78"/>
<text text-anchor="middle" x="380.3" y="-765.2" font-family="Times New Roman,serif" font-size="14.00">graphAnd#137</text>
</g>
<!-- 124 -->
<g id="node26" class="node">
<title>124</title>
<polygon fill="yellow" stroke="black" points="575.62,-744 421.62,-744 421.62,-708 575.62,-708 575.62,-744"/>
<text text-anchor="middle" x="498.62" y="-720.95" font-family="Times New Roman,serif" font-size="14.00">it3 = Sequence{1..dim3}</text>
<text text-anchor="middle" x="407" y="-747.2" font-family="Times New Roman,serif" font-size="14.00">[124]</text>
</g>
<!-- 121&#45;&gt;124 -->
<g id="edge27" class="edge">
<title>121&#45;&gt;124</title>
<path fill="none" stroke="black" d="M501.03,-796.41C500.63,-784.76 500.08,-769.05 499.61,-755.52"/>
<polygon fill="black" stroke="black" points="503.12,-755.74 499.28,-745.86 496.13,-755.98 503.12,-755.74"/>
<text text-anchor="middle" x="540.89" y="-765.2" font-family="Times New Roman,serif" font-size="14.00">graphAnd#124</text>
</g>
<!-- 127 -->
<g id="node27" class="node">
<title>127</title>
<polygon fill="yellow" stroke="black" points="1009.75,-655.5 631.5,-655.5 631.5,-619.5 1009.75,-619.5 1009.75,-655.5"/>
<text text-anchor="middle" x="820.62" y="-632.45" font-family="Times New Roman,serif" font-size="14.00">result.data[it][it2][it3] = self.data[it][it2][it3] &#45; arg.data[it][it2][it3]</text>
<text text-anchor="middle" x="616.88" y="-658.7" font-family="Times New Roman,serif" font-size="14.00">[127]</text>
</g>
<!-- 124&#45;&gt;127 -->
<g id="edge28" class="edge">
<title>124&#45;&gt;127</title>
<path fill="none" stroke="black" d="M540.93,-707.54C568.64,-696.61 605.85,-682.87 639.62,-673.5 660.24,-667.78 682.43,-662.66 703.97,-658.22"/>
<polygon fill="black" stroke="black" points="704.57,-661.67 713.68,-656.26 703.18,-654.81 704.57,-661.67"/>
<text text-anchor="middle" x="680.12" y="-676.7" font-family="Times New Roman,serif" font-size="14.00">graphAnd#125</text>
</g>
<!-- 127&#45;&gt;130 -->
<g id="edge29" class="edge">
<title>127&#45;&gt;130</title>
<path fill="none" stroke="black" d="M786.14,-655.87C762.22,-670.62 734.62,-694.29 734.62,-725 734.62,-893.2 734.62,-893.2 734.62,-893.2 734.62,-917.63 715.99,-934.77 694.06,-946.49"/>
<polygon fill="black" stroke="black" points="692.62,-943.3 685.17,-950.83 695.69,-949.59 692.62,-943.3"/>
<text text-anchor="middle" x="775.12" y="-809.45" font-family="Times New Roman,serif" font-size="14.00">graphAnd#126</text>
</g>
</g>
</svg>
