<?xml version="1.0" encoding="UTF-8" standalone="no"?>
<!DOCTYPE svg PUBLIC "-//W3C//DTD SVG 1.1//EN"
 "http://www.w3.org/Graphics/SVG/1.1/DTD/svg11.dtd">
<!-- Generated by graphviz version 12.2.1 (20241206.2353)
 -->
<!-- Title: CLG Pages: 1 -->
<svg width="737pt" height="1085pt"
 viewBox="0.00 0.00 736.88 1085.40" xmlns="http://www.w3.org/2000/svg" xmlns:xlink="http://www.w3.org/1999/xlink">
<g id="graph0" class="graph" transform="scale(1 1) rotate(0) translate(4 1081.4)">
<title>CLG</title>
<polygon fill="white" stroke="none" points="-4,4 -4,-1081.4 732.88,-1081.4 732.88,4 -4,4"/>
<!-- 65 -->
<g id="node1" class="node">
<title>65</title>
<polygon fill="yellow" stroke="black" points="676.75,-921 574.5,-921 574.5,-885 676.75,-885 676.75,-921"/>
<text text-anchor="middle" x="625.62" y="-897.95" font-family="Times New Roman,serif" font-size="14.00">idx1 = idx1 + 1</text>
<text text-anchor="middle" x="563.25" y="-924.2" font-family="Times New Roman,serif" font-size="14.00">[65]</text>
</g>
<!-- 67 -->
<g id="node2" class="node">
<title>67</title>
<polygon fill="aquamarine" stroke="black" points="468.62,-821.7 461.43,-814.5 468.62,-807.3 475.82,-814.5 468.62,-821.7"/>
<text text-anchor="middle" x="446.43" y="-824.9" font-family="Times New Roman,serif" font-size="14.00">&lt;67&gt;</text>
</g>
<!-- 65&#45;&gt;67 -->
<g id="edge29" class="edge">
<title>65&#45;&gt;67</title>
<path fill="none" stroke="black" d="M594.23,-884.7C560.39,-866.06 508.03,-837.21 482.96,-823.4"/>
<polygon fill="black" stroke="black" points="484.82,-820.42 474.37,-818.66 481.44,-826.56 484.82,-820.42"/>
<text text-anchor="middle" x="588.19" y="-853.7" font-family="Times New Roman,serif" font-size="14.00">iterate#63</text>
</g>
<!-- 34 -->
<g id="node17" class="node">
<title>34</title>
<polygon fill="yellow" stroke="black" points="445.5,-744 323.75,-744 323.75,-708 445.5,-708 445.5,-744"/>
<text text-anchor="middle" x="384.62" y="-720.95" font-family="Times New Roman,serif" font-size="14.00">idx1 &gt; dim2 &#45; 1+ 1</text>
<text text-anchor="middle" x="312.5" y="-747.2" font-family="Times New Roman,serif" font-size="14.00">[34]</text>
</g>
<!-- 67&#45;&gt;34 -->
<g id="edge1" class="edge">
<title>67&#45;&gt;34</title>
<path fill="none" stroke="black" d="M464,-811.36C454.09,-806.61 430.53,-794.32 415.38,-778.5 408.51,-771.34 402.5,-762.37 397.65,-753.94"/>
<polygon fill="black" stroke="black" points="400.88,-752.55 393.06,-745.41 394.72,-755.87 400.88,-752.55"/>
<text text-anchor="middle" x="452.5" y="-765.2" font-family="Times New Roman,serif" font-size="14.00">graphAnd#65</text>
</g>
<!-- 37 -->
<g id="node18" class="node">
<title>37</title>
<polygon fill="yellow" stroke="black" points="594.62,-744 464.62,-744 464.62,-708 594.62,-708 594.62,-744"/>
<text text-anchor="middle" x="529.62" y="-720.95" font-family="Times New Roman,serif" font-size="14.00">idx1 &lt;= dim2 &#45; 1+ 1</text>
<text text-anchor="middle" x="453.38" y="-747.2" font-family="Times New Roman,serif" font-size="14.00">[37]</text>
</g>
<!-- 67&#45;&gt;37 -->
<g id="edge28" class="edge">
<title>67&#45;&gt;37</title>
<path fill="none" stroke="black" d="M471.25,-809.78C478.02,-800.18 496.57,-773.87 510.97,-753.46"/>
<polygon fill="black" stroke="black" points="513.65,-755.72 516.56,-745.53 507.93,-751.69 513.65,-755.72"/>
<text text-anchor="middle" x="531.59" y="-765.2" font-family="Times New Roman,serif" font-size="14.00">iterate#62</text>
</g>
<!-- 3 -->
<g id="node3" class="node">
<title>3</title>
<ellipse fill="black" stroke="black" cx="136.62" cy="-1053.7" rx="7.2" ry="7.2"/>
<text text-anchor="middle" x="121.55" y="-1064.1" font-family="Times New Roman,serif" font-size="14.00">[0]</text>
</g>
<!-- 4 -->
<g id="node4" class="node">
<title>4</title>
<polygon fill="yellow" stroke="black" points="250.75,-1009.5 22.5,-1009.5 22.5,-973.5 250.75,-973.5 250.75,-1009.5"/>
<text text-anchor="middle" x="136.62" y="-986.45" font-family="Times New Roman,serif" font-size="14.00">dim1 = arg.data.getDimensionSizes(1)</text>
<text text-anchor="middle" x="14.62" y="-1012.7" font-family="Times New Roman,serif" font-size="14.00">[4]</text>
</g>
<!-- 3&#45;&gt;4 -->
<g id="edge2" class="edge">
<title>3&#45;&gt;4</title>
<path fill="none" stroke="black" d="M136.62,-1046.26C136.62,-1040.2 136.62,-1030.69 136.62,-1021.34"/>
<polygon fill="black" stroke="black" points="140.13,-1021.38 136.63,-1011.38 133.13,-1021.38 140.13,-1021.38"/>
</g>
<!-- 7 -->
<g id="node6" class="node">
<title>7</title>
<polygon fill="yellow" stroke="black" points="250.75,-921 22.5,-921 22.5,-885 250.75,-885 250.75,-921"/>
<text text-anchor="middle" x="136.62" y="-897.95" font-family="Times New Roman,serif" font-size="14.00">dim2 = arg.data.getDimensionSizes(2)</text>
<text text-anchor="middle" x="14.62" y="-924.2" font-family="Times New Roman,serif" font-size="14.00">[7]</text>
</g>
<!-- 4&#45;&gt;7 -->
<g id="edge7" class="edge">
<title>4&#45;&gt;7</title>
<path fill="none" stroke="black" d="M136.62,-973.41C136.62,-961.76 136.62,-946.05 136.62,-932.52"/>
<polygon fill="black" stroke="black" points="140.13,-932.86 136.63,-922.86 133.13,-932.86 140.13,-932.86"/>
<text text-anchor="middle" x="170.38" y="-942.2" font-family="Times New Roman,serif" font-size="14.00">graphAnd#8</text>
</g>
<!-- 69 -->
<g id="node5" class="node">
<title>69</title>
<polygon fill="yellow" stroke="black" points="434.75,-655.5 332.5,-655.5 332.5,-619.5 434.75,-619.5 434.75,-655.5"/>
<text text-anchor="middle" x="383.62" y="-632.45" font-family="Times New Roman,serif" font-size="14.00">idx0 = idx0 + 1</text>
<text text-anchor="middle" x="321.25" y="-658.7" font-family="Times New Roman,serif" font-size="14.00">[69]</text>
</g>
<!-- 71 -->
<g id="node7" class="node">
<title>71</title>
<polygon fill="aquamarine" stroke="black" points="368.62,-556.2 361.43,-549 368.62,-541.8 375.82,-549 368.62,-556.2"/>
<text text-anchor="middle" x="346.43" y="-559.4" font-family="Times New Roman,serif" font-size="14.00">&lt;71&gt;</text>
</g>
<!-- 69&#45;&gt;71 -->
<g id="edge10" class="edge">
<title>69&#45;&gt;71</title>
<path fill="none" stroke="black" d="M380.66,-619.41C378.02,-604.18 374.18,-582.01 371.55,-566.85"/>
<polygon fill="black" stroke="black" points="375.03,-566.43 369.87,-557.18 368.13,-567.63 375.03,-566.43"/>
<text text-anchor="middle" x="404.47" y="-588.2" font-family="Times New Roman,serif" font-size="14.00">iterate#74</text>
</g>
<!-- 10 -->
<g id="node8" class="node">
<title>10</title>
<polygon fill="yellow" stroke="black" points="250.75,-832.5 22.5,-832.5 22.5,-796.5 250.75,-796.5 250.75,-832.5"/>
<text text-anchor="middle" x="136.62" y="-809.45" font-family="Times New Roman,serif" font-size="14.00">dim3 = arg.data.getDimensionSizes(3)</text>
<text text-anchor="middle" x="11.25" y="-835.7" font-family="Times New Roman,serif" font-size="14.00">[10]</text>
</g>
<!-- 7&#45;&gt;10 -->
<g id="edge8" class="edge">
<title>7&#45;&gt;10</title>
<path fill="none" stroke="black" d="M136.62,-884.91C136.62,-873.26 136.62,-857.55 136.62,-844.02"/>
<polygon fill="black" stroke="black" points="140.13,-844.36 136.63,-834.36 133.13,-844.36 140.13,-844.36"/>
<text text-anchor="middle" x="170.38" y="-853.7" font-family="Times New Roman,serif" font-size="14.00">graphAnd#9</text>
</g>
<!-- 19 -->
<g id="node11" class="node">
<title>19</title>
<polygon fill="yellow" stroke="black" points="523.5,-478.5 401.75,-478.5 401.75,-442.5 523.5,-442.5 523.5,-478.5"/>
<text text-anchor="middle" x="462.62" y="-455.45" font-family="Times New Roman,serif" font-size="14.00">idx0 &gt; dim1 &#45; 1+ 1</text>
<text text-anchor="middle" x="390.5" y="-481.7" font-family="Times New Roman,serif" font-size="14.00">[19]</text>
</g>
<!-- 71&#45;&gt;19 -->
<g id="edge11" class="edge">
<title>71&#45;&gt;19</title>
<path fill="none" stroke="black" d="M372.2,-544.71C382.48,-535.25 412.91,-507.25 435.65,-486.32"/>
<polygon fill="black" stroke="black" points="437.83,-489.07 442.82,-479.73 433.09,-483.92 437.83,-489.07"/>
<text text-anchor="middle" x="461.17" y="-499.7" font-family="Times New Roman,serif" font-size="14.00">graphAnd#76</text>
</g>
<!-- 22 -->
<g id="node13" class="node">
<title>22</title>
<polygon fill="yellow" stroke="black" points="383.62,-478.5 253.62,-478.5 253.62,-442.5 383.62,-442.5 383.62,-478.5"/>
<text text-anchor="middle" x="318.62" y="-455.45" font-family="Times New Roman,serif" font-size="14.00">idx0 &lt;= dim1 &#45; 1+ 1</text>
<text text-anchor="middle" x="242.38" y="-481.7" font-family="Times New Roman,serif" font-size="14.00">[22]</text>
</g>
<!-- 71&#45;&gt;22 -->
<g id="edge9" class="edge">
<title>71&#45;&gt;22</title>
<path fill="none" stroke="black" d="M366.21,-543.83C360.53,-534 345.92,-508.71 334.37,-488.74"/>
<polygon fill="black" stroke="black" points="337.47,-487.1 329.43,-480.19 331.41,-490.6 337.47,-487.1"/>
<text text-anchor="middle" x="375.1" y="-499.7" font-family="Times New Roman,serif" font-size="14.00">iterate#73</text>
</g>
<!-- 16 -->
<g id="node10" class="node">
<title>16</title>
<polygon fill="yellow" stroke="black" points="172,-744 101.25,-744 101.25,-708 172,-708 172,-744"/>
<text text-anchor="middle" x="136.62" y="-720.95" font-family="Times New Roman,serif" font-size="14.00">acc = true</text>
<text text-anchor="middle" x="90" y="-747.2" font-family="Times New Roman,serif" font-size="14.00">[16]</text>
</g>
<!-- 10&#45;&gt;16 -->
<g id="edge13" class="edge">
<title>10&#45;&gt;16</title>
<path fill="none" stroke="black" d="M136.62,-796.41C136.62,-784.76 136.62,-769.05 136.62,-755.52"/>
<polygon fill="black" stroke="black" points="140.13,-755.86 136.63,-745.86 133.13,-755.86 140.13,-755.86"/>
<text text-anchor="middle" x="173.75" y="-765.2" font-family="Times New Roman,serif" font-size="14.00">graphAnd#78</text>
</g>
<!-- 13 -->
<g id="node9" class="node">
<title>13</title>
<polygon fill="yellow" stroke="black" points="167.88,-655.5 105.38,-655.5 105.38,-619.5 167.88,-619.5 167.88,-655.5"/>
<text text-anchor="middle" x="136.62" y="-632.45" font-family="Times New Roman,serif" font-size="14.00">idx0 = 1</text>
<text text-anchor="middle" x="94.12" y="-658.7" font-family="Times New Roman,serif" font-size="14.00">[13]</text>
</g>
<!-- 13&#45;&gt;71 -->
<g id="edge12" class="edge">
<title>13&#45;&gt;71</title>
<path fill="none" stroke="black" d="M167.91,-624.83C218.14,-606.11 314.97,-570.01 352.87,-555.87"/>
<polygon fill="black" stroke="black" points="354.08,-559.16 362.23,-552.39 351.63,-552.6 354.08,-559.16"/>
<text text-anchor="middle" x="310.53" y="-588.2" font-family="Times New Roman,serif" font-size="14.00">graphAnd#77</text>
</g>
<!-- 16&#45;&gt;13 -->
<g id="edge14" class="edge">
<title>16&#45;&gt;13</title>
<path fill="none" stroke="black" d="M136.62,-707.91C136.62,-696.26 136.62,-680.55 136.62,-667.02"/>
<polygon fill="black" stroke="black" points="140.13,-667.36 136.63,-657.36 133.13,-667.36 140.13,-667.36"/>
<text text-anchor="middle" x="173.75" y="-676.7" font-family="Times New Roman,serif" font-size="14.00">graphAnd#14</text>
</g>
<!-- 20 -->
<g id="node12" class="node">
<title>20</title>
<ellipse fill="black" stroke="black" cx="462.62" cy="-372" rx="7.2" ry="7.2"/>
<ellipse fill="none" stroke="black" cx="462.62" cy="-372" rx="11.2" ry="11.2"/>
<text text-anchor="middle" x="441.3" y="-386.4" font-family="Times New Roman,serif" font-size="14.00">[&#45;1]</text>
</g>
<!-- 19&#45;&gt;20 -->
<g id="edge15" class="edge">
<title>19&#45;&gt;20</title>
<path fill="none" stroke="black" d="M462.62,-442.41C462.62,-428.72 462.62,-409.42 462.62,-394.65"/>
<polygon fill="black" stroke="black" points="466.13,-395.04 462.63,-385.04 459.13,-395.04 466.13,-395.04"/>
</g>
<!-- 25 -->
<g id="node14" class="node">
<title>25</title>
<polygon fill="yellow" stroke="black" points="401.25,-390 254,-390 254,-354 401.25,-354 401.25,-390"/>
<text text-anchor="middle" x="327.62" y="-366.95" font-family="Times New Roman,serif" font-size="14.00">it = Sequence{1..dim1}</text>
<text text-anchor="middle" x="242.75" y="-393.2" font-family="Times New Roman,serif" font-size="14.00">[25]</text>
</g>
<!-- 22&#45;&gt;25 -->
<g id="edge4" class="edge">
<title>22&#45;&gt;25</title>
<path fill="none" stroke="black" d="M320.4,-442.41C321.62,-430.76 323.25,-415.05 324.66,-401.52"/>
<polygon fill="black" stroke="black" points="328.11,-402.16 325.66,-391.86 321.15,-401.44 328.11,-402.16"/>
<text text-anchor="middle" x="361.06" y="-411.2" font-family="Times New Roman,serif" font-size="14.00">graphAnd#69</text>
</g>
<!-- 31 -->
<g id="node16" class="node">
<title>31</title>
<polygon fill="yellow" stroke="black" points="332.38,-301.5 254.88,-301.5 254.88,-265.5 332.38,-265.5 332.38,-301.5"/>
<text text-anchor="middle" x="293.62" y="-278.45" font-family="Times New Roman,serif" font-size="14.00">acc2 = true</text>
<text text-anchor="middle" x="243.62" y="-304.7" font-family="Times New Roman,serif" font-size="14.00">[31]</text>
</g>
<!-- 25&#45;&gt;31 -->
<g id="edge5" class="edge">
<title>25&#45;&gt;31</title>
<path fill="none" stroke="black" d="M320.91,-353.91C316.23,-342.02 309.9,-325.91 304.51,-312.2"/>
<polygon fill="black" stroke="black" points="307.91,-311.29 301,-303.26 301.4,-313.85 307.91,-311.29"/>
<text text-anchor="middle" x="350.8" y="-322.7" font-family="Times New Roman,serif" font-size="14.00">graphAnd#70</text>
</g>
<!-- 28 -->
<g id="node15" class="node">
<title>28</title>
<polygon fill="yellow" stroke="black" points="278.88,-213 216.38,-213 216.38,-177 278.88,-177 278.88,-213"/>
<text text-anchor="middle" x="247.62" y="-189.95" font-family="Times New Roman,serif" font-size="14.00">idx1 = 1</text>
<text text-anchor="middle" x="205.12" y="-216.2" font-family="Times New Roman,serif" font-size="14.00">[28]</text>
</g>
<!-- 28&#45;&gt;67 -->
<g id="edge3" class="edge">
<title>28&#45;&gt;67</title>
<path fill="none" stroke="black" d="M240.54,-213.23C234.11,-230.46 225.62,-257.86 225.62,-282.5 225.62,-727 225.62,-727 225.62,-727 225.62,-774.99 395.95,-803.25 451.4,-811.18"/>
<polygon fill="black" stroke="black" points="450.73,-814.63 461.12,-812.52 451.69,-807.69 450.73,-814.63"/>
<text text-anchor="middle" x="262.75" y="-499.7" font-family="Times New Roman,serif" font-size="14.00">graphAnd#66</text>
</g>
<!-- 31&#45;&gt;28 -->
<g id="edge16" class="edge">
<title>31&#45;&gt;28</title>
<path fill="none" stroke="black" d="M284.54,-265.41C278.15,-253.4 269.48,-237.09 262.14,-223.3"/>
<polygon fill="black" stroke="black" points="265.35,-221.87 257.56,-214.69 259.17,-225.16 265.35,-221.87"/>
<text text-anchor="middle" x="311.87" y="-234.2" font-family="Times New Roman,serif" font-size="14.00">graphAnd#25</text>
</g>
<!-- 34&#45;&gt;69 -->
<g id="edge6" class="edge">
<title>34&#45;&gt;69</title>
<path fill="none" stroke="black" d="M384.43,-707.91C384.29,-696.26 384.11,-680.55 383.95,-667.02"/>
<polygon fill="black" stroke="black" points="387.46,-667.32 383.84,-657.36 380.46,-667.4 387.46,-667.32"/>
<text text-anchor="middle" x="421.34" y="-676.7" font-family="Times New Roman,serif" font-size="14.00">graphAnd#71</text>
</g>
<!-- 40 -->
<g id="node19" class="node">
<title>40</title>
<polygon fill="yellow" stroke="black" points="609.62,-655.5 455.62,-655.5 455.62,-619.5 609.62,-619.5 609.62,-655.5"/>
<text text-anchor="middle" x="532.62" y="-632.45" font-family="Times New Roman,serif" font-size="14.00">it2 = Sequence{1..dim2}</text>
<text text-anchor="middle" x="444.38" y="-658.7" font-family="Times New Roman,serif" font-size="14.00">[40]</text>
</g>
<!-- 37&#45;&gt;40 -->
<g id="edge25" class="edge">
<title>37&#45;&gt;40</title>
<path fill="none" stroke="black" d="M530.22,-707.91C530.62,-696.26 531.17,-680.55 531.64,-667.02"/>
<polygon fill="black" stroke="black" points="535.12,-667.48 531.97,-657.36 528.13,-667.24 535.12,-667.48"/>
<text text-anchor="middle" x="568.52" y="-676.7" font-family="Times New Roman,serif" font-size="14.00">graphAnd#58</text>
</g>
<!-- 46 -->
<g id="node21" class="node">
<title>46</title>
<polygon fill="yellow" stroke="black" points="579.38,-567 501.88,-567 501.88,-531 579.38,-531 579.38,-567"/>
<text text-anchor="middle" x="540.62" y="-543.95" font-family="Times New Roman,serif" font-size="14.00">acc3 = true</text>
<text text-anchor="middle" x="490.62" y="-570.2" font-family="Times New Roman,serif" font-size="14.00">[46]</text>
</g>
<!-- 40&#45;&gt;46 -->
<g id="edge26" class="edge">
<title>40&#45;&gt;46</title>
<path fill="none" stroke="black" d="M534.21,-619.41C535.28,-607.76 536.74,-592.05 537.99,-578.52"/>
<polygon fill="black" stroke="black" points="541.45,-579.14 538.88,-568.86 534.47,-578.49 541.45,-579.14"/>
<text text-anchor="middle" x="574.47" y="-588.2" font-family="Times New Roman,serif" font-size="14.00">graphAnd#59</text>
</g>
<!-- 43 -->
<g id="node20" class="node">
<title>43</title>
<polygon fill="yellow" stroke="black" points="603.88,-478.5 541.38,-478.5 541.38,-442.5 603.88,-442.5 603.88,-478.5"/>
<text text-anchor="middle" x="572.62" y="-455.45" font-family="Times New Roman,serif" font-size="14.00">idx2 = 1</text>
<text text-anchor="middle" x="530.12" y="-481.7" font-family="Times New Roman,serif" font-size="14.00">[43]</text>
</g>
<!-- 63 -->
<g id="node27" class="node">
<title>63</title>
<polygon fill="aquamarine" stroke="black" points="540.62,-379.2 533.42,-372 540.62,-364.8 547.83,-372 540.62,-379.2"/>
<text text-anchor="middle" x="518.42" y="-382.4" font-family="Times New Roman,serif" font-size="14.00">&lt;63&gt;</text>
</g>
<!-- 43&#45;&gt;63 -->
<g id="edge24" class="edge">
<title>43&#45;&gt;63</title>
<path fill="none" stroke="black" d="M566.3,-442.41C560.5,-426.72 551.97,-403.66 546.36,-388.49"/>
<polygon fill="black" stroke="black" points="549.73,-387.53 542.98,-379.36 543.17,-389.95 549.73,-387.53"/>
<text text-anchor="middle" x="596.62" y="-411.2" font-family="Times New Roman,serif" font-size="14.00">graphAnd#55</text>
</g>
<!-- 46&#45;&gt;43 -->
<g id="edge17" class="edge">
<title>46&#45;&gt;43</title>
<path fill="none" stroke="black" d="M546.95,-530.91C551.3,-519.14 557.19,-503.23 562.23,-489.61"/>
<polygon fill="black" stroke="black" points="565.49,-490.86 565.68,-480.27 558.93,-488.43 565.49,-490.86"/>
<text text-anchor="middle" x="596.62" y="-499.7" font-family="Times New Roman,serif" font-size="14.00">graphAnd#36</text>
</g>
<!-- 49 -->
<g id="node22" class="node">
<title>49</title>
<polygon fill="yellow" stroke="black" points="699.5,-301.5 577.75,-301.5 577.75,-265.5 699.5,-265.5 699.5,-301.5"/>
<text text-anchor="middle" x="638.62" y="-278.45" font-family="Times New Roman,serif" font-size="14.00">idx2 &gt; dim3 &#45; 1+ 1</text>
<text text-anchor="middle" x="566.5" y="-304.7" font-family="Times New Roman,serif" font-size="14.00">[49]</text>
</g>
<!-- 49&#45;&gt;65 -->
<g id="edge27" class="edge">
<title>49&#45;&gt;65</title>
<path fill="none" stroke="black" d="M643.78,-301.89C648.45,-319.23 654.62,-346.72 654.62,-371 654.62,-815.5 654.62,-815.5 654.62,-815.5 654.62,-836.03 647.19,-857.94 639.85,-874.58"/>
<polygon fill="black" stroke="black" points="636.83,-872.77 635.76,-883.31 643.17,-875.74 636.83,-872.77"/>
<text text-anchor="middle" x="691.75" y="-588.2" font-family="Times New Roman,serif" font-size="14.00">graphAnd#60</text>
</g>
<!-- 52 -->
<g id="node23" class="node">
<title>52</title>
<polygon fill="yellow" stroke="black" points="504.62,-301.5 374.62,-301.5 374.62,-265.5 504.62,-265.5 504.62,-301.5"/>
<text text-anchor="middle" x="439.62" y="-278.45" font-family="Times New Roman,serif" font-size="14.00">idx2 &lt;= dim3 &#45; 1+ 1</text>
<text text-anchor="middle" x="363.38" y="-304.7" font-family="Times New Roman,serif" font-size="14.00">[52]</text>
</g>
<!-- 55 -->
<g id="node24" class="node">
<title>55</title>
<polygon fill="yellow" stroke="black" points="461.62,-213 307.62,-213 307.62,-177 461.62,-177 461.62,-213"/>
<text text-anchor="middle" x="384.62" y="-189.95" font-family="Times New Roman,serif" font-size="14.00">it3 = Sequence{1..dim3}</text>
<text text-anchor="middle" x="296.38" y="-216.2" font-family="Times New Roman,serif" font-size="14.00">[55]</text>
</g>
<!-- 52&#45;&gt;55 -->
<g id="edge18" class="edge">
<title>52&#45;&gt;55</title>
<path fill="none" stroke="black" d="M428.76,-265.41C421.05,-253.29 410.55,-236.77 401.72,-222.89"/>
<polygon fill="black" stroke="black" points="404.79,-221.19 396.47,-214.63 398.88,-224.94 404.79,-221.19"/>
<text text-anchor="middle" x="454.18" y="-234.2" font-family="Times New Roman,serif" font-size="14.00">graphAnd#47</text>
</g>
<!-- 58 -->
<g id="node25" class="node">
<title>58</title>
<polygon fill="yellow" stroke="black" points="504.62,-124.5 122.62,-124.5 122.62,-88.5 504.62,-88.5 504.62,-124.5"/>
<text text-anchor="middle" x="313.62" y="-101.45" font-family="Times New Roman,serif" font-size="14.00">result.data[it][it2][it3] = self.data[it][it2][it3] + arg.data[it][it2][it3]</text>
<text text-anchor="middle" x="111.38" y="-127.7" font-family="Times New Roman,serif" font-size="14.00">[58]</text>
</g>
<!-- 55&#45;&gt;58 -->
<g id="edge19" class="edge">
<title>55&#45;&gt;58</title>
<path fill="none" stroke="black" d="M370.6,-176.91C360.45,-164.55 346.56,-147.63 335.04,-133.58"/>
<polygon fill="black" stroke="black" points="337.88,-131.53 328.83,-126.02 332.47,-135.97 337.88,-131.53"/>
<text text-anchor="middle" x="392.61" y="-145.7" font-family="Times New Roman,serif" font-size="14.00">graphAnd#48</text>
</g>
<!-- 61 -->
<g id="node26" class="node">
<title>61</title>
<polygon fill="yellow" stroke="black" points="473.75,-36 371.5,-36 371.5,0 473.75,0 473.75,-36"/>
<text text-anchor="middle" x="422.62" y="-12.95" font-family="Times New Roman,serif" font-size="14.00">idx2 = idx2 + 1</text>
<text text-anchor="middle" x="360.25" y="-39.2" font-family="Times New Roman,serif" font-size="14.00">[61]</text>
</g>
<!-- 58&#45;&gt;61 -->
<g id="edge20" class="edge">
<title>58&#45;&gt;61</title>
<path fill="none" stroke="black" d="M335.42,-88.2C351.61,-75.36 373.91,-57.66 391.9,-43.38"/>
<polygon fill="black" stroke="black" points="394.02,-46.17 399.68,-37.21 389.67,-40.68 394.02,-46.17"/>
<text text-anchor="middle" x="415.01" y="-57.2" font-family="Times New Roman,serif" font-size="14.00">graphAnd#49</text>
</g>
<!-- 61&#45;&gt;63 -->
<g id="edge22" class="edge">
<title>61&#45;&gt;63</title>
<path fill="none" stroke="black" d="M472.48,-36.42C501.58,-50.11 532.62,-72.46 532.62,-105.5 532.62,-284.5 532.62,-284.5 532.62,-284.5 532.62,-308.66 535.76,-336.45 538.1,-353.87"/>
<polygon fill="black" stroke="black" points="534.62,-354.24 539.49,-363.65 541.55,-353.25 534.62,-354.24"/>
<text text-anchor="middle" x="559.62" y="-189.95" font-family="Times New Roman,serif" font-size="14.00">iterate#52</text>
</g>
<!-- 63&#45;&gt;49 -->
<g id="edge23" class="edge">
<title>63&#45;&gt;49</title>
<path fill="none" stroke="black" d="M542,-365.8C544.9,-355.68 552.58,-333.13 566.38,-319.5 570.95,-314.98 576.22,-310.96 581.79,-307.39"/>
<polygon fill="black" stroke="black" points="583.18,-310.63 590.06,-302.58 579.66,-304.58 583.18,-310.63"/>
<text text-anchor="middle" x="603.5" y="-322.7" font-family="Times New Roman,serif" font-size="14.00">graphAnd#54</text>
</g>
<!-- 63&#45;&gt;52 -->
<g id="edge21" class="edge">
<title>63&#45;&gt;52</title>
<path fill="none" stroke="black" d="M535.11,-369.82C521.48,-366.65 485.79,-356.74 464.62,-336 457.91,-329.42 452.75,-320.68 448.9,-312.26"/>
<polygon fill="black" stroke="black" points="452.15,-310.96 445.16,-303.01 445.66,-313.59 452.15,-310.96"/>
<text text-anchor="middle" x="491.62" y="-322.7" font-family="Times New Roman,serif" font-size="14.00">iterate#51</text>
</g>
</g>
</svg>
