<?xml version="1.0" encoding="UTF-8" standalone="no"?>
<!DOCTYPE svg PUBLIC "-//W3C//DTD SVG 1.1//EN"
 "http://www.w3.org/Graphics/SVG/1.1/DTD/svg11.dtd">
<!-- Generated by graphviz version 12.2.1 (20241206.2353)
 -->
<!-- Title: CLG Pages: 1 -->
<svg width="763pt" height="1085pt"
 viewBox="0.00 0.00 762.88 1085.40" xmlns="http://www.w3.org/2000/svg" xmlns:xlink="http://www.w3.org/1999/xlink">
<g id="graph0" class="graph" transform="scale(1 1) rotate(0) translate(4 1081.4)">
<title>CLG</title>
<polygon fill="white" stroke="none" points="-4,4 -4,-1081.4 758.88,-1081.4 758.88,4 -4,4"/>
<!-- 65 -->
<g id="node1" class="node">
<title>65</title>
<polygon fill="yellow" stroke="black" points="633.25,-921 504,-921 504,-885 633.25,-885 633.25,-921"/>
<text text-anchor="middle" x="568.62" y="-897.95" font-family="Times New Roman,serif" font-size="14.00">Index1 = Index1 + 1</text>
<text text-anchor="middle" x="492.75" y="-924.2" font-family="Times New Roman,serif" font-size="14.00">[65]</text>
</g>
<!-- 67 -->
<g id="node2" class="node">
<title>67</title>
<polygon fill="aquamarine" stroke="black" points="455.62,-821.7 448.43,-814.5 455.62,-807.3 462.82,-814.5 455.62,-821.7"/>
<text text-anchor="middle" x="433.43" y="-824.9" font-family="Times New Roman,serif" font-size="14.00">&lt;67&gt;</text>
</g>
<!-- 65&#45;&gt;67 -->
<g id="edge29" class="edge">
<title>65&#45;&gt;67</title>
<path fill="none" stroke="black" d="M546.03,-884.7C522.77,-866.9 487.35,-839.78 468.49,-825.35"/>
<polygon fill="black" stroke="black" points="470.79,-822.7 460.72,-819.4 466.53,-828.26 470.79,-822.7"/>
<text text-anchor="middle" x="549.25" y="-853.7" font-family="Times New Roman,serif" font-size="14.00">iterate#63</text>
</g>
<!-- 34 -->
<g id="node17" class="node">
<title>34</title>
<polygon fill="yellow" stroke="black" points="458.25,-744 323,-744 323,-708 458.25,-708 458.25,-744"/>
<text text-anchor="middle" x="390.62" y="-720.95" font-family="Times New Roman,serif" font-size="14.00">Index1 &gt; dim2 &#45; 1+ 1</text>
<text text-anchor="middle" x="311.75" y="-747.2" font-family="Times New Roman,serif" font-size="14.00">[34]</text>
</g>
<!-- 67&#45;&gt;34 -->
<g id="edge1" class="edge">
<title>67&#45;&gt;34</title>
<path fill="none" stroke="black" d="M452.53,-810.36C446.71,-804.39 433.9,-790.91 424.38,-778.5 418.36,-770.66 412.29,-761.77 406.99,-753.61"/>
<polygon fill="black" stroke="black" points="410.09,-751.97 401.77,-745.41 404.19,-755.73 410.09,-751.97"/>
<text text-anchor="middle" x="461.5" y="-765.2" font-family="Times New Roman,serif" font-size="14.00">graphAnd#65</text>
</g>
<!-- 37 -->
<g id="node18" class="node">
<title>37</title>
<polygon fill="yellow" stroke="black" points="625.38,-744 481.88,-744 481.88,-708 625.38,-708 625.38,-744"/>
<text text-anchor="middle" x="553.62" y="-720.95" font-family="Times New Roman,serif" font-size="14.00">Index1 &lt;= dim2 &#45; 1+ 1</text>
<text text-anchor="middle" x="470.62" y="-747.2" font-family="Times New Roman,serif" font-size="14.00">[37]</text>
</g>
<!-- 67&#45;&gt;37 -->
<g id="edge28" class="edge">
<title>67&#45;&gt;37</title>
<path fill="none" stroke="black" d="M459.26,-810.68C466.76,-804.83 484.41,-790.91 498.62,-778.5 508.18,-770.15 518.39,-760.74 527.39,-752.26"/>
<polygon fill="black" stroke="black" points="529.64,-754.95 534.49,-745.53 524.82,-749.87 529.64,-754.95"/>
<text text-anchor="middle" x="542.57" y="-765.2" font-family="Times New Roman,serif" font-size="14.00">iterate#62</text>
</g>
<!-- 3 -->
<g id="node3" class="node">
<title>3</title>
<ellipse fill="black" stroke="black" cx="136.62" cy="-1053.7" rx="7.2" ry="7.2"/>
<text text-anchor="middle" x="121.55" y="-1064.1" font-family="Times New Roman,serif" font-size="14.00">[0]</text>
</g>
<!-- 4 -->
<g id="node4" class="node">
<title>4</title>
<polygon fill="yellow" stroke="black" points="250.75,-1009.5 22.5,-1009.5 22.5,-973.5 250.75,-973.5 250.75,-1009.5"/>
<text text-anchor="middle" x="136.62" y="-986.45" font-family="Times New Roman,serif" font-size="14.00">dim1 = arg.data.getDimensionSizes(1)</text>
<text text-anchor="middle" x="14.62" y="-1012.7" font-family="Times New Roman,serif" font-size="14.00">[4]</text>
</g>
<!-- 3&#45;&gt;4 -->
<g id="edge2" class="edge">
<title>3&#45;&gt;4</title>
<path fill="none" stroke="black" d="M136.62,-1046.26C136.62,-1040.2 136.62,-1030.69 136.62,-1021.34"/>
<polygon fill="black" stroke="black" points="140.13,-1021.38 136.63,-1011.38 133.13,-1021.38 140.13,-1021.38"/>
</g>
<!-- 7 -->
<g id="node6" class="node">
<title>7</title>
<polygon fill="yellow" stroke="black" points="250.75,-921 22.5,-921 22.5,-885 250.75,-885 250.75,-921"/>
<text text-anchor="middle" x="136.62" y="-897.95" font-family="Times New Roman,serif" font-size="14.00">dim2 = arg.data.getDimensionSizes(2)</text>
<text text-anchor="middle" x="14.62" y="-924.2" font-family="Times New Roman,serif" font-size="14.00">[7]</text>
</g>
<!-- 4&#45;&gt;7 -->
<g id="edge7" class="edge">
<title>4&#45;&gt;7</title>
<path fill="none" stroke="black" d="M136.62,-973.41C136.62,-961.76 136.62,-946.05 136.62,-932.52"/>
<polygon fill="black" stroke="black" points="140.13,-932.86 136.63,-922.86 133.13,-932.86 140.13,-932.86"/>
<text text-anchor="middle" x="170.38" y="-942.2" font-family="Times New Roman,serif" font-size="14.00">graphAnd#8</text>
</g>
<!-- 69 -->
<g id="node5" class="node">
<title>69</title>
<polygon fill="yellow" stroke="black" points="450.25,-655.5 321,-655.5 321,-619.5 450.25,-619.5 450.25,-655.5"/>
<text text-anchor="middle" x="385.62" y="-632.45" font-family="Times New Roman,serif" font-size="14.00">Index0 = Index0 + 1</text>
<text text-anchor="middle" x="309.75" y="-658.7" font-family="Times New Roman,serif" font-size="14.00">[69]</text>
</g>
<!-- 71 -->
<g id="node7" class="node">
<title>71</title>
<polygon fill="aquamarine" stroke="black" points="333.62,-556.2 326.43,-549 333.62,-541.8 340.82,-549 333.62,-556.2"/>
<text text-anchor="middle" x="311.43" y="-559.4" font-family="Times New Roman,serif" font-size="14.00">&lt;71&gt;</text>
</g>
<!-- 69&#45;&gt;71 -->
<g id="edge10" class="edge">
<title>69&#45;&gt;71</title>
<path fill="none" stroke="black" d="M375.35,-619.41C365.54,-603.09 350.94,-578.81 341.87,-563.71"/>
<polygon fill="black" stroke="black" points="345.11,-562.31 336.96,-555.54 339.11,-565.92 345.11,-562.31"/>
<text text-anchor="middle" x="391.28" y="-588.2" font-family="Times New Roman,serif" font-size="14.00">iterate#74</text>
</g>
<!-- 10 -->
<g id="node8" class="node">
<title>10</title>
<polygon fill="yellow" stroke="black" points="250.75,-832.5 22.5,-832.5 22.5,-796.5 250.75,-796.5 250.75,-832.5"/>
<text text-anchor="middle" x="136.62" y="-809.45" font-family="Times New Roman,serif" font-size="14.00">dim3 = arg.data.getDimensionSizes(3)</text>
<text text-anchor="middle" x="11.25" y="-835.7" font-family="Times New Roman,serif" font-size="14.00">[10]</text>
</g>
<!-- 7&#45;&gt;10 -->
<g id="edge8" class="edge">
<title>7&#45;&gt;10</title>
<path fill="none" stroke="black" d="M136.62,-884.91C136.62,-873.26 136.62,-857.55 136.62,-844.02"/>
<polygon fill="black" stroke="black" points="140.13,-844.36 136.63,-834.36 133.13,-844.36 140.13,-844.36"/>
<text text-anchor="middle" x="170.38" y="-853.7" font-family="Times New Roman,serif" font-size="14.00">graphAnd#9</text>
</g>
<!-- 19 -->
<g id="node11" class="node">
<title>19</title>
<polygon fill="yellow" stroke="black" points="550.25,-478.5 415,-478.5 415,-442.5 550.25,-442.5 550.25,-478.5"/>
<text text-anchor="middle" x="482.62" y="-455.45" font-family="Times New Roman,serif" font-size="14.00">Index0 &gt; dim1 &#45; 1+ 1</text>
<text text-anchor="middle" x="403.75" y="-481.7" font-family="Times New Roman,serif" font-size="14.00">[19]</text>
</g>
<!-- 71&#45;&gt;19 -->
<g id="edge11" class="edge">
<title>71&#45;&gt;19</title>
<path fill="none" stroke="black" d="M337.92,-545.5C353.17,-536.66 405.72,-506.15 443.09,-484.45"/>
<polygon fill="black" stroke="black" points="444.51,-487.68 451.4,-479.63 440.99,-481.62 444.51,-487.68"/>
<text text-anchor="middle" x="458.6" y="-499.7" font-family="Times New Roman,serif" font-size="14.00">graphAnd#76</text>
</g>
<!-- 22 -->
<g id="node13" class="node">
<title>22</title>
<polygon fill="yellow" stroke="black" points="397.38,-478.5 253.88,-478.5 253.88,-442.5 397.38,-442.5 397.38,-478.5"/>
<text text-anchor="middle" x="325.62" y="-455.45" font-family="Times New Roman,serif" font-size="14.00">Index0 &lt;= dim1 &#45; 1+ 1</text>
<text text-anchor="middle" x="242.62" y="-481.7" font-family="Times New Roman,serif" font-size="14.00">[22]</text>
</g>
<!-- 71&#45;&gt;22 -->
<g id="edge9" class="edge">
<title>71&#45;&gt;22</title>
<path fill="none" stroke="black" d="M333.05,-541.78C332.06,-531.1 329.99,-508.66 328.28,-490.21"/>
<polygon fill="black" stroke="black" points="331.77,-489.96 327.37,-480.33 324.8,-490.61 331.77,-489.96"/>
<text text-anchor="middle" x="357.34" y="-499.7" font-family="Times New Roman,serif" font-size="14.00">iterate#73</text>
</g>
<!-- 16 -->
<g id="node10" class="node">
<title>16</title>
<polygon fill="yellow" stroke="black" points="172,-744 101.25,-744 101.25,-708 172,-708 172,-744"/>
<text text-anchor="middle" x="136.62" y="-720.95" font-family="Times New Roman,serif" font-size="14.00">acc = true</text>
<text text-anchor="middle" x="90" y="-747.2" font-family="Times New Roman,serif" font-size="14.00">[16]</text>
</g>
<!-- 10&#45;&gt;16 -->
<g id="edge13" class="edge">
<title>10&#45;&gt;16</title>
<path fill="none" stroke="black" d="M136.62,-796.41C136.62,-784.76 136.62,-769.05 136.62,-755.52"/>
<polygon fill="black" stroke="black" points="140.13,-755.86 136.63,-745.86 133.13,-755.86 140.13,-755.86"/>
<text text-anchor="middle" x="173.75" y="-765.2" font-family="Times New Roman,serif" font-size="14.00">graphAnd#78</text>
</g>
<!-- 13 -->
<g id="node9" class="node">
<title>13</title>
<polygon fill="yellow" stroke="black" points="174.62,-655.5 98.62,-655.5 98.62,-619.5 174.62,-619.5 174.62,-655.5"/>
<text text-anchor="middle" x="136.62" y="-632.45" font-family="Times New Roman,serif" font-size="14.00">Index0 = 1</text>
<text text-anchor="middle" x="87.38" y="-658.7" font-family="Times New Roman,serif" font-size="14.00">[13]</text>
</g>
<!-- 13&#45;&gt;71 -->
<g id="edge12" class="edge">
<title>13&#45;&gt;71</title>
<path fill="none" stroke="black" d="M175.08,-619.62C218.77,-600.43 287.97,-570.05 318.41,-556.68"/>
<polygon fill="black" stroke="black" points="319.76,-559.91 327.5,-552.69 316.94,-553.5 319.76,-559.91"/>
<text text-anchor="middle" x="289.89" y="-588.2" font-family="Times New Roman,serif" font-size="14.00">graphAnd#77</text>
</g>
<!-- 16&#45;&gt;13 -->
<g id="edge14" class="edge">
<title>16&#45;&gt;13</title>
<path fill="none" stroke="black" d="M136.62,-707.91C136.62,-696.26 136.62,-680.55 136.62,-667.02"/>
<polygon fill="black" stroke="black" points="140.13,-667.36 136.63,-657.36 133.13,-667.36 140.13,-667.36"/>
<text text-anchor="middle" x="173.75" y="-676.7" font-family="Times New Roman,serif" font-size="14.00">graphAnd#14</text>
</g>
<!-- 20 -->
<g id="node12" class="node">
<title>20</title>
<ellipse fill="black" stroke="black" cx="482.62" cy="-372" rx="7.2" ry="7.2"/>
<ellipse fill="none" stroke="black" cx="482.62" cy="-372" rx="11.2" ry="11.2"/>
<text text-anchor="middle" x="461.3" y="-386.4" font-family="Times New Roman,serif" font-size="14.00">[&#45;1]</text>
</g>
<!-- 19&#45;&gt;20 -->
<g id="edge15" class="edge">
<title>19&#45;&gt;20</title>
<path fill="none" stroke="black" d="M482.62,-442.41C482.62,-428.72 482.62,-409.42 482.62,-394.65"/>
<polygon fill="black" stroke="black" points="486.13,-395.04 482.63,-385.04 479.13,-395.04 486.13,-395.04"/>
</g>
<!-- 25 -->
<g id="node14" class="node">
<title>25</title>
<polygon fill="yellow" stroke="black" points="401.25,-390 254,-390 254,-354 401.25,-354 401.25,-390"/>
<text text-anchor="middle" x="327.62" y="-366.95" font-family="Times New Roman,serif" font-size="14.00">it = Sequence{1..dim1}</text>
<text text-anchor="middle" x="242.75" y="-393.2" font-family="Times New Roman,serif" font-size="14.00">[25]</text>
</g>
<!-- 22&#45;&gt;25 -->
<g id="edge4" class="edge">
<title>22&#45;&gt;25</title>
<path fill="none" stroke="black" d="M326.02,-442.41C326.29,-430.76 326.65,-415.05 326.97,-401.52"/>
<polygon fill="black" stroke="black" points="330.46,-401.94 327.19,-391.86 323.46,-401.78 330.46,-401.94"/>
<text text-anchor="middle" x="363.93" y="-411.2" font-family="Times New Roman,serif" font-size="14.00">graphAnd#69</text>
</g>
<!-- 31 -->
<g id="node16" class="node">
<title>31</title>
<polygon fill="yellow" stroke="black" points="343.38,-301.5 265.88,-301.5 265.88,-265.5 343.38,-265.5 343.38,-301.5"/>
<text text-anchor="middle" x="304.62" y="-278.45" font-family="Times New Roman,serif" font-size="14.00">acc2 = true</text>
<text text-anchor="middle" x="254.62" y="-304.7" font-family="Times New Roman,serif" font-size="14.00">[31]</text>
</g>
<!-- 25&#45;&gt;31 -->
<g id="edge5" class="edge">
<title>25&#45;&gt;31</title>
<path fill="none" stroke="black" d="M323.08,-353.91C319.95,-342.14 315.72,-326.23 312.1,-312.61"/>
<polygon fill="black" stroke="black" points="315.58,-312.08 309.63,-303.31 308.81,-313.88 315.58,-312.08"/>
<text text-anchor="middle" x="355.31" y="-322.7" font-family="Times New Roman,serif" font-size="14.00">graphAnd#70</text>
</g>
<!-- 28 -->
<g id="node15" class="node">
<title>28</title>
<polygon fill="yellow" stroke="black" points="293.62,-213 217.62,-213 217.62,-177 293.62,-177 293.62,-213"/>
<text text-anchor="middle" x="255.62" y="-189.95" font-family="Times New Roman,serif" font-size="14.00">Index1 = 1</text>
<text text-anchor="middle" x="206.38" y="-216.2" font-family="Times New Roman,serif" font-size="14.00">[28]</text>
</g>
<!-- 28&#45;&gt;67 -->
<g id="edge3" class="edge">
<title>28&#45;&gt;67</title>
<path fill="none" stroke="black" d="M245.8,-213.28C237.05,-230.32 225.62,-257.39 225.62,-282.5 225.62,-727 225.62,-727 225.62,-727 225.62,-772.52 385.48,-802.26 438.65,-810.9"/>
<polygon fill="black" stroke="black" points="438.02,-814.34 448.44,-812.43 439.11,-807.42 438.02,-814.34"/>
<text text-anchor="middle" x="262.75" y="-499.7" font-family="Times New Roman,serif" font-size="14.00">graphAnd#66</text>
</g>
<!-- 31&#45;&gt;28 -->
<g id="edge16" class="edge">
<title>31&#45;&gt;28</title>
<path fill="none" stroke="black" d="M294.94,-265.41C288.14,-253.4 278.9,-237.09 271.09,-223.3"/>
<polygon fill="black" stroke="black" points="274.17,-221.64 266.2,-214.67 268.08,-225.09 274.17,-221.64"/>
<text text-anchor="middle" x="321.64" y="-234.2" font-family="Times New Roman,serif" font-size="14.00">graphAnd#25</text>
</g>
<!-- 34&#45;&gt;69 -->
<g id="edge6" class="edge">
<title>34&#45;&gt;69</title>
<path fill="none" stroke="black" d="M389.64,-707.91C388.96,-696.26 388.06,-680.55 387.27,-667.02"/>
<polygon fill="black" stroke="black" points="390.79,-667.14 386.72,-657.36 383.8,-667.55 390.79,-667.14"/>
<text text-anchor="middle" x="425.7" y="-676.7" font-family="Times New Roman,serif" font-size="14.00">graphAnd#71</text>
</g>
<!-- 40 -->
<g id="node19" class="node">
<title>40</title>
<polygon fill="yellow" stroke="black" points="642.62,-655.5 488.62,-655.5 488.62,-619.5 642.62,-619.5 642.62,-655.5"/>
<text text-anchor="middle" x="565.62" y="-632.45" font-family="Times New Roman,serif" font-size="14.00">it2 = Sequence{1..dim2}</text>
<text text-anchor="middle" x="477.38" y="-658.7" font-family="Times New Roman,serif" font-size="14.00">[40]</text>
</g>
<!-- 37&#45;&gt;40 -->
<g id="edge25" class="edge">
<title>37&#45;&gt;40</title>
<path fill="none" stroke="black" d="M556,-707.91C557.61,-696.26 559.79,-680.55 561.67,-667.02"/>
<polygon fill="black" stroke="black" points="565.1,-667.74 563.01,-657.35 558.17,-666.77 565.1,-667.74"/>
<text text-anchor="middle" x="597.82" y="-676.7" font-family="Times New Roman,serif" font-size="14.00">graphAnd#58</text>
</g>
<!-- 46 -->
<g id="node21" class="node">
<title>46</title>
<polygon fill="yellow" stroke="black" points="612.38,-567 534.88,-567 534.88,-531 612.38,-531 612.38,-567"/>
<text text-anchor="middle" x="573.62" y="-543.95" font-family="Times New Roman,serif" font-size="14.00">acc3 = true</text>
<text text-anchor="middle" x="523.62" y="-570.2" font-family="Times New Roman,serif" font-size="14.00">[46]</text>
</g>
<!-- 40&#45;&gt;46 -->
<g id="edge26" class="edge">
<title>40&#45;&gt;46</title>
<path fill="none" stroke="black" d="M567.21,-619.41C568.28,-607.76 569.74,-592.05 570.99,-578.52"/>
<polygon fill="black" stroke="black" points="574.45,-579.14 571.88,-568.86 567.47,-578.49 574.45,-579.14"/>
<text text-anchor="middle" x="607.47" y="-588.2" font-family="Times New Roman,serif" font-size="14.00">graphAnd#59</text>
</g>
<!-- 43 -->
<g id="node20" class="node">
<title>43</title>
<polygon fill="yellow" stroke="black" points="644.62,-478.5 568.62,-478.5 568.62,-442.5 644.62,-442.5 644.62,-478.5"/>
<text text-anchor="middle" x="606.62" y="-455.45" font-family="Times New Roman,serif" font-size="14.00">Index2 = 1</text>
<text text-anchor="middle" x="557.38" y="-481.7" font-family="Times New Roman,serif" font-size="14.00">[43]</text>
</g>
<!-- 63 -->
<g id="node27" class="node">
<title>63</title>
<polygon fill="aquamarine" stroke="black" points="574.62,-379.2 567.42,-372 574.62,-364.8 581.83,-372 574.62,-379.2"/>
<text text-anchor="middle" x="552.42" y="-382.4" font-family="Times New Roman,serif" font-size="14.00">&lt;63&gt;</text>
</g>
<!-- 43&#45;&gt;63 -->
<g id="edge24" class="edge">
<title>43&#45;&gt;63</title>
<path fill="none" stroke="black" d="M599.33,-442.13C597.04,-436.53 594.54,-430.27 592.38,-424.5 587.93,-412.67 583.29,-399.16 579.87,-388.95"/>
<polygon fill="black" stroke="black" points="583.24,-387.98 576.77,-379.59 576.59,-390.18 583.24,-387.98"/>
<text text-anchor="middle" x="629.5" y="-411.2" font-family="Times New Roman,serif" font-size="14.00">graphAnd#55</text>
</g>
<!-- 46&#45;&gt;43 -->
<g id="edge17" class="edge">
<title>46&#45;&gt;43</title>
<path fill="none" stroke="black" d="M579.71,-530.77C583.31,-520.74 587.99,-507.86 592.38,-496.5 593.28,-494.16 594.23,-491.74 595.19,-489.32"/>
<polygon fill="black" stroke="black" points="598.33,-490.88 598.83,-480.3 591.84,-488.26 598.33,-490.88"/>
<text text-anchor="middle" x="629.5" y="-499.7" font-family="Times New Roman,serif" font-size="14.00">graphAnd#36</text>
</g>
<!-- 49 -->
<g id="node22" class="node">
<title>49</title>
<polygon fill="yellow" stroke="black" points="735.25,-301.5 600,-301.5 600,-265.5 735.25,-265.5 735.25,-301.5"/>
<text text-anchor="middle" x="667.62" y="-278.45" font-family="Times New Roman,serif" font-size="14.00">Index2 &gt; dim3 &#45; 1+ 1</text>
<text text-anchor="middle" x="588.75" y="-304.7" font-family="Times New Roman,serif" font-size="14.00">[49]</text>
</g>
<!-- 49&#45;&gt;65 -->
<g id="edge27" class="edge">
<title>49&#45;&gt;65</title>
<path fill="none" stroke="black" d="M671.81,-301.95C675.61,-319.33 680.62,-346.85 680.62,-371 680.62,-815.5 680.62,-815.5 680.62,-815.5 680.62,-844.91 656.14,-865.73 630.06,-879.56"/>
<polygon fill="black" stroke="black" points="628.8,-876.28 621.39,-883.85 631.91,-882.55 628.8,-876.28"/>
<text text-anchor="middle" x="717.75" y="-588.2" font-family="Times New Roman,serif" font-size="14.00">graphAnd#60</text>
</g>
<!-- 52 -->
<g id="node23" class="node">
<title>52</title>
<polygon fill="yellow" stroke="black" points="516.38,-301.5 372.88,-301.5 372.88,-265.5 516.38,-265.5 516.38,-301.5"/>
<text text-anchor="middle" x="444.62" y="-278.45" font-family="Times New Roman,serif" font-size="14.00">Index2 &lt;= dim3 &#45; 1+ 1</text>
<text text-anchor="middle" x="361.62" y="-304.7" font-family="Times New Roman,serif" font-size="14.00">[52]</text>
</g>
<!-- 55 -->
<g id="node24" class="node">
<title>55</title>
<polygon fill="yellow" stroke="black" points="480.62,-213 326.62,-213 326.62,-177 480.62,-177 480.62,-213"/>
<text text-anchor="middle" x="403.62" y="-189.95" font-family="Times New Roman,serif" font-size="14.00">it3 = Sequence{1..dim3}</text>
<text text-anchor="middle" x="315.38" y="-216.2" font-family="Times New Roman,serif" font-size="14.00">[55]</text>
</g>
<!-- 52&#45;&gt;55 -->
<g id="edge18" class="edge">
<title>52&#45;&gt;55</title>
<path fill="none" stroke="black" d="M436.52,-265.41C430.89,-253.52 423.25,-237.41 416.76,-223.7"/>
<polygon fill="black" stroke="black" points="419.94,-222.26 412.5,-214.72 413.62,-225.25 419.94,-222.26"/>
<text text-anchor="middle" x="464.92" y="-234.2" font-family="Times New Roman,serif" font-size="14.00">graphAnd#47</text>
</g>
<!-- 58 -->
<g id="node25" class="node">
<title>58</title>
<polygon fill="yellow" stroke="black" points="530.62,-124.5 148.62,-124.5 148.62,-88.5 530.62,-88.5 530.62,-124.5"/>
<text text-anchor="middle" x="339.62" y="-101.45" font-family="Times New Roman,serif" font-size="14.00">result.data[it][it2][it3] = self.data[it][it2][it3] + arg.data[it][it2][it3]</text>
<text text-anchor="middle" x="137.38" y="-127.7" font-family="Times New Roman,serif" font-size="14.00">[58]</text>
</g>
<!-- 55&#45;&gt;58 -->
<g id="edge19" class="edge">
<title>55&#45;&gt;58</title>
<path fill="none" stroke="black" d="M390.98,-176.91C381.92,-164.67 369.55,-147.95 359.22,-133.99"/>
<polygon fill="black" stroke="black" points="362.12,-132.02 353.36,-126.07 356.5,-136.19 362.12,-132.02"/>
<text text-anchor="middle" x="414.48" y="-145.7" font-family="Times New Roman,serif" font-size="14.00">graphAnd#48</text>
</g>
<!-- 61 -->
<g id="node26" class="node">
<title>61</title>
<polygon fill="yellow" stroke="black" points="513.25,-36 384,-36 384,0 513.25,0 513.25,-36"/>
<text text-anchor="middle" x="448.62" y="-12.95" font-family="Times New Roman,serif" font-size="14.00">Index2 = Index2 + 1</text>
<text text-anchor="middle" x="372.75" y="-39.2" font-family="Times New Roman,serif" font-size="14.00">[61]</text>
</g>
<!-- 58&#45;&gt;61 -->
<g id="edge20" class="edge">
<title>58&#45;&gt;61</title>
<path fill="none" stroke="black" d="M361.42,-88.2C377.61,-75.36 399.91,-57.66 417.9,-43.38"/>
<polygon fill="black" stroke="black" points="420.02,-46.17 425.68,-37.21 415.67,-40.68 420.02,-46.17"/>
<text text-anchor="middle" x="441.01" y="-57.2" font-family="Times New Roman,serif" font-size="14.00">graphAnd#49</text>
</g>
<!-- 61&#45;&gt;63 -->
<g id="edge22" class="edge">
<title>61&#45;&gt;63</title>
<path fill="none" stroke="black" d="M498.48,-36.42C527.58,-50.11 558.62,-72.46 558.62,-105.5 558.62,-284.5 558.62,-284.5 558.62,-284.5 558.62,-309.45 565.14,-337.78 569.85,-355.01"/>
<polygon fill="black" stroke="black" points="566.47,-355.9 572.61,-364.54 573.19,-353.96 566.47,-355.9"/>
<text text-anchor="middle" x="585.62" y="-189.95" font-family="Times New Roman,serif" font-size="14.00">iterate#52</text>
</g>
<!-- 63&#45;&gt;49 -->
<g id="edge23" class="edge">
<title>63&#45;&gt;49</title>
<path fill="none" stroke="black" d="M575.2,-364.82C576.48,-354.29 580.47,-332.71 592.38,-319.5 596.42,-315.02 601.15,-311.07 606.24,-307.59"/>
<polygon fill="black" stroke="black" points="607.69,-310.81 614.42,-302.62 604.05,-304.82 607.69,-310.81"/>
<text text-anchor="middle" x="629.5" y="-322.7" font-family="Times New Roman,serif" font-size="14.00">graphAnd#54</text>
</g>
<!-- 63&#45;&gt;52 -->
<g id="edge21" class="edge">
<title>63&#45;&gt;52</title>
<path fill="none" stroke="black" d="M569.3,-369.67C555.38,-366.03 517.15,-354.86 490.62,-336 480.66,-328.91 471.33,-319.3 463.72,-310.29"/>
<polygon fill="black" stroke="black" points="466.67,-308.37 457.66,-302.79 461.22,-312.77 466.67,-308.37"/>
<text text-anchor="middle" x="517.62" y="-322.7" font-family="Times New Roman,serif" font-size="14.00">iterate#51</text>
</g>
</g>
</svg>
