<?xml version="1.0" encoding="UTF-8" standalone="no"?>
<!DOCTYPE svg PUBLIC "-//W3C//DTD SVG 1.1//EN"
 "http://www.w3.org/Graphics/SVG/1.1/DTD/svg11.dtd">
<!-- Generated by graphviz version 12.2.1 (20241206.2353)
 -->
<!-- Title: CLG Pages: 1 -->
<svg width="161pt" height="169pt"
 viewBox="0.00 0.00 160.50 169.30" xmlns="http://www.w3.org/2000/svg" xmlns:xlink="http://www.w3.org/1999/xlink">
<g id="graph0" class="graph" transform="scale(1 1) rotate(0) translate(4 165.3)">
<title>CLG</title>
<polygon fill="white" stroke="none" points="-4,4 -4,-165.3 156.5,-165.3 156.5,4 -4,4"/>
<!-- 0 -->
<g id="node1" class="node">
<title>0</title>
<ellipse fill="black" stroke="black" cx="84.12" cy="-137.6" rx="7.2" ry="7.2"/>
<text text-anchor="middle" x="69.05" y="-148" font-family="Times New Roman,serif" font-size="14.00">[0]</text>
</g>
<!-- 1 -->
<g id="node2" class="node">
<title>1</title>
<polygon fill="yellow" stroke="black" points="152.5,-94.4 15.75,-94.4 15.75,-58.4 152.5,-58.4 152.5,-94.4"/>
<text text-anchor="middle" x="84.12" y="-71.35" font-family="Times New Roman,serif" font-size="14.00">self.data = inputArray</text>
<text text-anchor="middle" x="7.88" y="-97.6" font-family="Times New Roman,serif" font-size="14.00">[1]</text>
</g>
<!-- 0&#45;&gt;1 -->
<g id="edge1" class="edge">
<title>0&#45;&gt;1</title>
<path fill="none" stroke="black" d="M84.12,-130.26C84.12,-124.35 84.12,-115.09 84.12,-105.96"/>
<polygon fill="black" stroke="black" points="87.63,-106.24 84.13,-96.24 80.63,-106.24 87.63,-106.24"/>
</g>
<!-- 2 -->
<g id="node3" class="node">
<title>2</title>
<ellipse fill="black" stroke="black" cx="84.12" cy="-11.2" rx="7.2" ry="7.2"/>
<ellipse fill="none" stroke="black" cx="84.12" cy="-11.2" rx="11.2" ry="11.2"/>
<text text-anchor="middle" x="62.8" y="-25.6" font-family="Times New Roman,serif" font-size="14.00">[&#45;1]</text>
</g>
<!-- 1&#45;&gt;2 -->
<g id="edge2" class="edge">
<title>1&#45;&gt;2</title>
<path fill="none" stroke="black" d="M84.12,-58.13C84.12,-50.65 84.12,-41.8 84.12,-33.88"/>
<polygon fill="black" stroke="black" points="87.63,-34.04 84.13,-24.04 80.63,-34.04 87.63,-34.04"/>
</g>
</g>
</svg>
