<?xml version="1.0" encoding="UTF-8" standalone="no"?>
<!DOCTYPE svg PUBLIC "-//W3C//DTD SVG 1.1//EN"
 "http://www.w3.org/Graphics/SVG/1.1/DTD/svg11.dtd">
<!-- Generated by graphviz version 12.2.1 (20241206.2353)
 -->
<!-- Title: AST Pages: 1 -->
<svg width="330pt" height="349pt"
 viewBox="0.00 0.00 329.88 348.50" xmlns="http://www.w3.org/2000/svg" xmlns:xlink="http://www.w3.org/1999/xlink">
<g id="graph0" class="graph" transform="scale(1 1) rotate(0) translate(4 344.5)">
<title>AST</title>
<polygon fill="white" stroke="none" points="-4,4 -4,-344.5 325.88,-344.5 325.88,4 -4,4"/>
<!-- n108 -->
<g id="node1" class="node">
<title>n108</title>
<polygon fill="none" stroke="black" points="312.62,-324 52.12,-324 52.12,-288 312.62,-288 312.62,-324"/>
<text text-anchor="middle" x="182.38" y="-300.95" font-family="Times New Roman,serif" font-size="14.00">ContextDecl: node(102) Context: node (107)</text>
<text text-anchor="middle" x="37.5" y="-327.2" font-family="Times New Roman,serif" font-size="14.00">(108)</text>
</g>
<!-- n102 -->
<g id="node2" class="node">
<title>n102</title>
<polygon fill="none" stroke="black" points="203.5,-252 29.25,-252 29.25,-216 203.5,-216 203.5,-252"/>
<text text-anchor="middle" x="116.38" y="-228.95" font-family="Times New Roman,serif" font-size="14.00">Matrix::getDatas() : int[2][2]</text>
<text text-anchor="middle" x="14.62" y="-255.2" font-family="Times New Roman,serif" font-size="14.00">(102)</text>
</g>
<!-- n108&#45;&gt;n102 -->
<g id="edge1" class="edge">
<title>n108&#45;&gt;n102</title>
<path fill="none" stroke="black" d="M166.06,-287.7C158.31,-279.47 148.89,-269.48 140.34,-260.42"/>
<polygon fill="black" stroke="black" points="142.95,-258.08 133.54,-253.21 137.85,-262.88 142.95,-258.08"/>
</g>
<!-- n107 -->
<g id="node3" class="node">
<title>n107</title>
<polygon fill="none" stroke="black" points="275.38,-252 221.38,-252 221.38,-216 275.38,-216 275.38,-252"/>
<text text-anchor="middle" x="248.38" y="-228.95" font-family="Times New Roman,serif" font-size="14.00"> post:</text>
<text text-anchor="middle" x="184.25" y="-255.2" font-family="Times New Roman,serif" font-size="14.00">(107)Boolean</text>
</g>
<!-- n108&#45;&gt;n107 -->
<g id="edge2" class="edge">
<title>n108&#45;&gt;n107</title>
<path fill="none" stroke="black" d="M198.69,-287.7C206.44,-279.47 215.86,-269.48 224.41,-260.42"/>
<polygon fill="black" stroke="black" points="226.9,-262.88 231.21,-253.21 221.8,-258.08 226.9,-262.88"/>
</g>
<!-- n106 -->
<g id="node4" class="node">
<title>n106</title>
<polygon fill="none" stroke="black" points="275.38,-180 221.38,-180 221.38,-144 275.38,-144 275.38,-180"/>
<text text-anchor="middle" x="248.38" y="-156.95" font-family="Times New Roman,serif" font-size="14.00">=</text>
<text text-anchor="middle" x="184.25" y="-183.2" font-family="Times New Roman,serif" font-size="14.00">(106)Boolean</text>
</g>
<!-- n107&#45;&gt;n106 -->
<g id="edge3" class="edge">
<title>n107&#45;&gt;n106</title>
<path fill="none" stroke="black" d="M248.38,-215.7C248.38,-208.41 248.38,-199.73 248.38,-191.54"/>
<polygon fill="black" stroke="black" points="251.88,-191.62 248.38,-181.62 244.88,-191.62 251.88,-191.62"/>
</g>
<!-- n103 -->
<g id="node5" class="node">
<title>n103</title>
<polygon fill="none" stroke="black" points="236.38,-108 182.38,-108 182.38,-72 236.38,-72 236.38,-108"/>
<text text-anchor="middle" x="209.38" y="-84.95" font-family="Times New Roman,serif" font-size="14.00">result</text>
<text text-anchor="middle" x="144.88" y="-111.2" font-family="Times New Roman,serif" font-size="14.00">(103)int[2][2]</text>
</g>
<!-- n106&#45;&gt;n103 -->
<g id="edge4" class="edge">
<title>n106&#45;&gt;n103</title>
<path fill="none" stroke="black" d="M238.73,-143.7C234.44,-135.98 229.27,-126.71 224.48,-118.11"/>
<polygon fill="black" stroke="black" points="227.57,-116.46 219.64,-109.43 221.45,-119.87 227.57,-116.46"/>
</g>
<!-- n105 -->
<g id="node6" class="node">
<title>n105</title>
<polygon fill="none" stroke="black" points="321.88,-108 254.88,-108 254.88,-72 321.88,-72 321.88,-108"/>
<text text-anchor="middle" x="288.38" y="-84.95" font-family="Times New Roman,serif" font-size="14.00">self.datas</text>
<text text-anchor="middle" x="217.38" y="-58.7" font-family="Times New Roman,serif" font-size="14.00">(105)int[2][2]</text>
</g>
<!-- n106&#45;&gt;n105 -->
<g id="edge5" class="edge">
<title>n106&#45;&gt;n105</title>
<path fill="none" stroke="black" d="M258.26,-143.7C262.72,-135.9 268.08,-126.51 273.04,-117.83"/>
<polygon fill="black" stroke="black" points="275.93,-119.84 277.85,-109.42 269.85,-116.36 275.93,-119.84"/>
</g>
<!-- n104 -->
<g id="node7" class="node">
<title>n104</title>
<polygon fill="none" stroke="black" points="315.38,-36 261.38,-36 261.38,0 315.38,0 315.38,-36"/>
<text text-anchor="middle" x="288.38" y="-12.95" font-family="Times New Roman,serif" font-size="14.00">self</text>
<text text-anchor="middle" x="228" y="-39.2" font-family="Times New Roman,serif" font-size="14.00">(104)Matrix</text>
</g>
<!-- n105&#45;&gt;n104 -->
<g id="edge6" class="edge">
<title>n105&#45;&gt;n104</title>
<path fill="none" stroke="black" d="M288.38,-71.7C288.38,-64.41 288.38,-55.73 288.38,-47.54"/>
<polygon fill="black" stroke="black" points="291.88,-47.62 288.38,-37.62 284.88,-47.62 291.88,-47.62"/>
</g>
</g>
</svg>
