<?xml version="1.0" encoding="UTF-8" standalone="no"?>
<!DOCTYPE svg PUBLIC "-//W3C//DTD SVG 1.1//EN"
 "http://www.w3.org/Graphics/SVG/1.1/DTD/svg11.dtd">
<!-- Generated by graphviz version 12.2.1 (20241206.2353)
 -->
<!-- Title: AST Pages: 1 -->
<svg width="1841pt" height="685pt"
 viewBox="0.00 0.00 1840.75 684.50" xmlns="http://www.w3.org/2000/svg" xmlns:xlink="http://www.w3.org/1999/xlink">
<g id="graph0" class="graph" transform="scale(1 1) rotate(0) translate(4 680.5)">
<title>AST</title>
<polygon fill="white" stroke="none" points="-4,4 -4,-680.5 1836.75,-680.5 1836.75,4 -4,4"/>
<!-- n54 -->
<g id="node1" class="node">
<title>n54</title>
<polygon fill="none" stroke="black" points="464.88,-660 224.62,-660 224.62,-624 464.88,-624 464.88,-660"/>
<text text-anchor="middle" x="344.75" y="-636.95" font-family="Times New Roman,serif" font-size="14.00">ContextDecl: node(9) Context: node (53)</text>
<text text-anchor="middle" x="213.38" y="-663.2" font-family="Times New Roman,serif" font-size="14.00">(54)</text>
</g>
<!-- n9 -->
<g id="node2" class="node">
<title>n9</title>
<polygon fill="none" stroke="black" points="368.75,-588 184.75,-588 184.75,-552 368.75,-552 368.75,-588"/>
<text text-anchor="middle" x="276.75" y="-564.95" font-family="Times New Roman,serif" font-size="14.00">Matrix::add(node (8)) : Matrix</text>
<text text-anchor="middle" x="176.88" y="-591.2" font-family="Times New Roman,serif" font-size="14.00">(9)</text>
</g>
<!-- n54&#45;&gt;n9 -->
<g id="edge1" class="edge">
<title>n54&#45;&gt;n9</title>
<path fill="none" stroke="black" d="M327.94,-623.7C319.87,-615.39 310.05,-605.28 301.17,-596.14"/>
<polygon fill="black" stroke="black" points="303.9,-593.92 294.42,-589.19 298.88,-598.8 303.9,-593.92"/>
</g>
<!-- n53 -->
<g id="node3" class="node">
<title>n53</title>
<polygon fill="none" stroke="black" points="454.75,-588 400.75,-588 400.75,-552 454.75,-552 454.75,-588"/>
<text text-anchor="middle" x="427.75" y="-564.95" font-family="Times New Roman,serif" font-size="14.00"> post:</text>
<text text-anchor="middle" x="367" y="-591.2" font-family="Times New Roman,serif" font-size="14.00">(53)Boolean</text>
</g>
<!-- n54&#45;&gt;n53 -->
<g id="edge2" class="edge">
<title>n54&#45;&gt;n53</title>
<path fill="none" stroke="black" d="M365.27,-623.7C375.34,-615.2 387.66,-604.81 398.68,-595.51"/>
<polygon fill="black" stroke="black" points="400.64,-598.45 406.02,-589.32 396.12,-593.09 400.64,-598.45"/>
</g>
<!-- n8 -->
<g id="node4" class="node">
<title>n8</title>
<polygon fill="none" stroke="black" points="290.75,-513.5 208.75,-513.5 208.75,-477.5 290.75,-477.5 290.75,-513.5"/>
<text text-anchor="middle" x="249.75" y="-490.45" font-family="Times New Roman,serif" font-size="14.00">arg : Matrix</text>
<text text-anchor="middle" x="182.12" y="-516.7" font-family="Times New Roman,serif" font-size="14.00">(8)Matrix</text>
</g>
<!-- n9&#45;&gt;n8 -->
<g id="edge3" class="edge">
<title>n9&#45;&gt;n8</title>
<path fill="none" stroke="black" d="M270.35,-551.82C267.29,-543.6 263.55,-533.56 260.1,-524.3"/>
<polygon fill="black" stroke="black" points="263.4,-523.13 256.63,-514.98 256.84,-525.57 263.4,-523.13"/>
</g>
<!-- n52 -->
<g id="node5" class="node">
<title>n52</title>
<polygon fill="none" stroke="black" points="574.62,-516 308.88,-516 308.88,-475 574.62,-475 574.62,-516"/>
<text text-anchor="middle" x="441.75" y="-498.7" font-family="Times New Roman,serif" font-size="14.00">LetExp </text>
<text text-anchor="middle" x="441.75" y="-482.2" font-family="Times New Roman,serif" font-size="14.00">Let node(15), node(21), node(51) in node(51)</text>
<text text-anchor="middle" x="275.12" y="-519.2" font-family="Times New Roman,serif" font-size="14.00">(52)Boolean</text>
</g>
<!-- n53&#45;&gt;n52 -->
<g id="edge4" class="edge">
<title>n53&#45;&gt;n52</title>
<path fill="none" stroke="black" d="M431.07,-551.82C432.46,-544.59 434.13,-535.95 435.73,-527.66"/>
<polygon fill="black" stroke="black" points="439.16,-528.35 437.62,-517.87 432.29,-527.02 439.16,-528.35"/>
</g>
<!-- n15 -->
<g id="node6" class="node">
<title>n15</title>
<polygon fill="none" stroke="black" points="246.75,-428.25 192.75,-428.25 192.75,-392.25 246.75,-392.25 246.75,-428.25"/>
<text text-anchor="middle" x="219.75" y="-405.2" font-family="Times New Roman,serif" font-size="14.00">=</text>
<text text-anchor="middle" x="159" y="-431.45" font-family="Times New Roman,serif" font-size="14.00">(15)Boolean</text>
</g>
<!-- n52&#45;&gt;n15 -->
<g id="edge5" class="edge">
<title>n52&#45;&gt;n15</title>
<path fill="none" stroke="black" d="M388.58,-474.56C348.24,-459.43 293.76,-439 257.73,-425.49"/>
<polygon fill="black" stroke="black" points="259.19,-422.3 248.6,-422.07 256.73,-428.86 259.19,-422.3"/>
</g>
<!-- n21 -->
<g id="node7" class="node">
<title>n21</title>
<polygon fill="none" stroke="black" points="468.75,-428.25 414.75,-428.25 414.75,-392.25 468.75,-392.25 468.75,-428.25"/>
<text text-anchor="middle" x="441.75" y="-405.2" font-family="Times New Roman,serif" font-size="14.00">=</text>
<text text-anchor="middle" x="381" y="-431.45" font-family="Times New Roman,serif" font-size="14.00">(21)Boolean</text>
</g>
<!-- n52&#45;&gt;n21 -->
<g id="edge6" class="edge">
<title>n52&#45;&gt;n21</title>
<path fill="none" stroke="black" d="M441.75,-474.77C441.75,-464.35 441.75,-451.37 441.75,-439.87"/>
<polygon fill="black" stroke="black" points="445.25,-440.09 441.75,-430.09 438.25,-440.09 445.25,-440.09"/>
</g>
<!-- n51 -->
<g id="node8" class="node">
<title>n51</title>
<polygon fill="none" stroke="black" points="979.12,-439 770.38,-439 770.38,-381.5 979.12,-381.5 979.12,-439"/>
<text text-anchor="middle" x="874.75" y="-421.7" font-family="Times New Roman,serif" font-size="14.00">IterateExp</text>
<text text-anchor="middle" x="874.75" y="-405.2" font-family="Times New Roman,serif" font-size="14.00">source=node(24) Iterator=node(25)</text>
<text text-anchor="middle" x="874.75" y="-388.7" font-family="Times New Roman,serif" font-size="14.00">Result=node(28) Body=node(50)</text>
<text text-anchor="middle" x="736.62" y="-442.2" font-family="Times New Roman,serif" font-size="14.00">(51)Boolean</text>
</g>
<!-- n52&#45;&gt;n51 -->
<g id="edge7" class="edge">
<title>n52&#45;&gt;n51</title>
<path fill="none" stroke="black" d="M545.74,-474.51C610.09,-462.13 692.81,-446.23 759.2,-433.47"/>
<polygon fill="black" stroke="black" points="759.49,-436.97 768.65,-431.65 758.17,-430.1 759.49,-436.97"/>
</g>
<!-- n14 -->
<g id="node9" class="node">
<title>n14</title>
<polygon fill="none" stroke="black" points="106.75,-334.75 36.75,-334.75 36.75,-298.75 106.75,-298.75 106.75,-334.75"/>
<text text-anchor="middle" x="71.75" y="-311.7" font-family="Times New Roman,serif" font-size="14.00">dim1 : int</text>
<text text-anchor="middle" x="18.38" y="-337.95" font-family="Times New Roman,serif" font-size="14.00">(14)int</text>
</g>
<!-- n15&#45;&gt;n14 -->
<g id="edge8" class="edge">
<title>n15&#45;&gt;n14</title>
<path fill="none" stroke="black" d="M192.32,-392.57C171.32,-379.76 141.65,-361.6 115.75,-345.5 113.49,-344.09 111.16,-342.64 108.81,-341.17"/>
<polygon fill="black" stroke="black" points="110.79,-338.28 100.46,-335.93 107.07,-344.21 110.79,-338.28"/>
</g>
<!-- n13 -->
<g id="node10" class="node">
<title>n13</title>
<polygon fill="none" stroke="black" points="314.38,-334.75 125.12,-334.75 125.12,-298.75 314.38,-298.75 314.38,-334.75"/>
<text text-anchor="middle" x="219.75" y="-311.7" font-family="Times New Roman,serif" font-size="14.00">arg.datas.getDimensionSizes(1)</text>
<text text-anchor="middle" x="106.75" y="-337.95" font-family="Times New Roman,serif" font-size="14.00">(13)int</text>
</g>
<!-- n15&#45;&gt;n13 -->
<g id="edge9" class="edge">
<title>n15&#45;&gt;n13</title>
<path fill="none" stroke="black" d="M219.75,-392.04C219.75,-379.21 219.75,-361.4 219.75,-346.44"/>
<polygon fill="black" stroke="black" points="223.25,-346.71 219.75,-336.71 216.25,-346.71 223.25,-346.71"/>
</g>
<!-- n20 -->
<g id="node11" class="node">
<title>n20</title>
<polygon fill="none" stroke="black" points="402.75,-334.75 332.75,-334.75 332.75,-298.75 402.75,-298.75 402.75,-334.75"/>
<text text-anchor="middle" x="367.75" y="-311.7" font-family="Times New Roman,serif" font-size="14.00">dim2 : int</text>
<text text-anchor="middle" x="314.38" y="-337.95" font-family="Times New Roman,serif" font-size="14.00">(20)int</text>
</g>
<!-- n21&#45;&gt;n20 -->
<g id="edge10" class="edge">
<title>n21&#45;&gt;n20</title>
<path fill="none" stroke="black" d="M427.83,-392.04C416.84,-378.45 401.33,-359.27 388.82,-343.8"/>
<polygon fill="black" stroke="black" points="391.82,-341.95 382.81,-336.37 386.38,-346.35 391.82,-341.95"/>
</g>
<!-- n19 -->
<g id="node12" class="node">
<title>n19</title>
<polygon fill="none" stroke="black" points="610.38,-334.75 421.12,-334.75 421.12,-298.75 610.38,-298.75 610.38,-334.75"/>
<text text-anchor="middle" x="515.75" y="-311.7" font-family="Times New Roman,serif" font-size="14.00">arg.datas.getDimensionSizes(2)</text>
<text text-anchor="middle" x="402.75" y="-337.95" font-family="Times New Roman,serif" font-size="14.00">(19)int</text>
</g>
<!-- n21&#45;&gt;n19 -->
<g id="edge11" class="edge">
<title>n21&#45;&gt;n19</title>
<path fill="none" stroke="black" d="M455.67,-392.04C466.66,-378.45 482.17,-359.27 494.68,-343.8"/>
<polygon fill="black" stroke="black" points="497.12,-346.35 500.69,-336.37 491.68,-341.95 497.12,-346.35"/>
</g>
<!-- n24 -->
<g id="node13" class="node">
<title>n24</title>
<polygon fill="none" stroke="black" points="829.38,-334.75 628.12,-334.75 628.12,-298.75 829.38,-298.75 829.38,-334.75"/>
<text text-anchor="middle" x="728.75" y="-311.7" font-family="Times New Roman,serif" font-size="14.00">Sequence{ node(22) .. node(23) }</text>
<text text-anchor="middle" x="609.75" y="-337.95" font-family="Times New Roman,serif" font-size="14.00">(24)int</text>
</g>
<!-- n51&#45;&gt;n24 -->
<g id="edge12" class="edge">
<title>n51&#45;&gt;n24</title>
<path fill="none" stroke="black" d="M829.75,-381.05C809.35,-368.26 785.5,-353.32 766.1,-341.16"/>
<polygon fill="black" stroke="black" points="768.02,-338.23 757.69,-335.89 764.31,-344.16 768.02,-338.23"/>
</g>
<!-- n25 -->
<g id="node14" class="node">
<title>n25</title>
<polygon fill="none" stroke="black" points="901.75,-334.75 847.75,-334.75 847.75,-298.75 901.75,-298.75 901.75,-334.75"/>
<text text-anchor="middle" x="874.75" y="-311.7" font-family="Times New Roman,serif" font-size="14.00">it : int</text>
<text text-anchor="middle" x="829.38" y="-337.95" font-family="Times New Roman,serif" font-size="14.00">(25)int</text>
</g>
<!-- n51&#45;&gt;n25 -->
<g id="edge13" class="edge">
<title>n51&#45;&gt;n25</title>
<path fill="none" stroke="black" d="M874.75,-381.3C874.75,-370.26 874.75,-357.59 874.75,-346.47"/>
<polygon fill="black" stroke="black" points="878.25,-346.69 874.75,-336.69 871.25,-346.69 878.25,-346.69"/>
</g>
<!-- n28 -->
<g id="node15" class="node">
<title>n28</title>
<polygon fill="none" stroke="black" points="973.75,-334.75 919.75,-334.75 919.75,-298.75 973.75,-298.75 973.75,-334.75"/>
<text text-anchor="middle" x="946.75" y="-311.7" font-family="Times New Roman,serif" font-size="14.00">=</text>
<text text-anchor="middle" x="886" y="-337.95" font-family="Times New Roman,serif" font-size="14.00">(28)Boolean</text>
</g>
<!-- n51&#45;&gt;n28 -->
<g id="edge14" class="edge">
<title>n51&#45;&gt;n28</title>
<path fill="none" stroke="black" d="M896.74,-381.3C906.08,-369.44 916.9,-355.69 926.08,-344.02"/>
<polygon fill="black" stroke="black" points="928.67,-346.39 932.1,-336.37 923.16,-342.06 928.67,-346.39"/>
</g>
<!-- n50 -->
<g id="node16" class="node">
<title>n50</title>
<polygon fill="none" stroke="black" points="1344.12,-345.5 1135.38,-345.5 1135.38,-288 1344.12,-288 1344.12,-345.5"/>
<text text-anchor="middle" x="1239.75" y="-328.2" font-family="Times New Roman,serif" font-size="14.00">IterateExp</text>
<text text-anchor="middle" x="1239.75" y="-311.7" font-family="Times New Roman,serif" font-size="14.00">source=node(31) Iterator=node(32)</text>
<text text-anchor="middle" x="1239.75" y="-295.2" font-family="Times New Roman,serif" font-size="14.00">Result=node(35) Body=node(49)</text>
<text text-anchor="middle" x="1101.62" y="-348.7" font-family="Times New Roman,serif" font-size="14.00">(50)Boolean</text>
</g>
<!-- n51&#45;&gt;n50 -->
<g id="edge15" class="edge">
<title>n51&#45;&gt;n50</title>
<path fill="none" stroke="black" d="M979.34,-383.03C1024.59,-371.69 1077.7,-358.37 1124.11,-346.74"/>
<polygon fill="black" stroke="black" points="1124.82,-350.17 1133.67,-344.34 1123.12,-343.38 1124.82,-350.17"/>
</g>
<!-- n11 -->
<g id="node17" class="node">
<title>n11</title>
<polygon fill="none" stroke="black" points="214.12,-252 149.38,-252 149.38,-216 214.12,-216 214.12,-252"/>
<text text-anchor="middle" x="181.75" y="-228.95" font-family="Times New Roman,serif" font-size="14.00">arg.datas</text>
<text text-anchor="middle" x="115.25" y="-255.2" font-family="Times New Roman,serif" font-size="14.00">(11)int[2][2]</text>
</g>
<!-- n13&#45;&gt;n11 -->
<g id="edge16" class="edge">
<title>n13&#45;&gt;n11</title>
<path fill="none" stroke="black" d="M211.69,-298.63C206.79,-288.2 200.41,-274.65 194.8,-262.73"/>
<polygon fill="black" stroke="black" points="198,-261.31 190.57,-253.75 191.66,-264.29 198,-261.31"/>
</g>
<!-- n12 -->
<g id="node18" class="node">
<title>n12</title>
<polygon fill="none" stroke="black" points="285.75,-252 231.75,-252 231.75,-216 285.75,-216 285.75,-252"/>
<text text-anchor="middle" x="258.75" y="-228.95" font-family="Times New Roman,serif" font-size="14.00">1</text>
<text text-anchor="middle" x="213.38" y="-255.2" font-family="Times New Roman,serif" font-size="14.00">(12)int</text>
</g>
<!-- n13&#45;&gt;n12 -->
<g id="edge17" class="edge">
<title>n13&#45;&gt;n12</title>
<path fill="none" stroke="black" d="M228.02,-298.63C233.05,-288.2 239.6,-274.65 245.36,-262.73"/>
<polygon fill="black" stroke="black" points="248.5,-264.27 249.7,-253.74 242.2,-261.22 248.5,-264.27"/>
</g>
<!-- n17 -->
<g id="node19" class="node">
<title>n17</title>
<polygon fill="none" stroke="black" points="505.12,-252 440.38,-252 440.38,-216 505.12,-216 505.12,-252"/>
<text text-anchor="middle" x="472.75" y="-228.95" font-family="Times New Roman,serif" font-size="14.00">arg.datas</text>
<text text-anchor="middle" x="406.25" y="-255.2" font-family="Times New Roman,serif" font-size="14.00">(17)int[2][2]</text>
</g>
<!-- n19&#45;&gt;n17 -->
<g id="edge18" class="edge">
<title>n19&#45;&gt;n17</title>
<path fill="none" stroke="black" d="M506.63,-298.63C501.02,-288.1 493.72,-274.37 487.32,-262.36"/>
<polygon fill="black" stroke="black" points="490.51,-260.9 482.72,-253.71 484.33,-264.19 490.51,-260.9"/>
</g>
<!-- n18 -->
<g id="node20" class="node">
<title>n18</title>
<polygon fill="none" stroke="black" points="576.75,-252 522.75,-252 522.75,-216 576.75,-216 576.75,-252"/>
<text text-anchor="middle" x="549.75" y="-228.95" font-family="Times New Roman,serif" font-size="14.00">2</text>
<text text-anchor="middle" x="504.38" y="-255.2" font-family="Times New Roman,serif" font-size="14.00">(18)int</text>
</g>
<!-- n19&#45;&gt;n18 -->
<g id="edge19" class="edge">
<title>n19&#45;&gt;n18</title>
<path fill="none" stroke="black" d="M522.96,-298.63C527.35,-288.2 533.06,-274.65 538.07,-262.73"/>
<polygon fill="black" stroke="black" points="541.19,-264.35 541.85,-253.77 534.74,-261.63 541.19,-264.35"/>
</g>
<!-- n22 -->
<g id="node21" class="node">
<title>n22</title>
<polygon fill="none" stroke="black" points="702.75,-252 648.75,-252 648.75,-216 702.75,-216 702.75,-252"/>
<text text-anchor="middle" x="675.75" y="-228.95" font-family="Times New Roman,serif" font-size="14.00">1</text>
<text text-anchor="middle" x="630.38" y="-255.2" font-family="Times New Roman,serif" font-size="14.00">(22)int</text>
</g>
<!-- n24&#45;&gt;n22 -->
<g id="edge20" class="edge">
<title>n24&#45;&gt;n22</title>
<path fill="none" stroke="black" d="M717.51,-298.63C710.53,-287.99 701.41,-274.09 693.47,-262"/>
<polygon fill="black" stroke="black" points="696.4,-260.08 687.99,-253.64 690.55,-263.92 696.4,-260.08"/>
</g>
<!-- n23 -->
<g id="node22" class="node">
<title>n23</title>
<polygon fill="none" stroke="black" points="774.75,-252 720.75,-252 720.75,-216 774.75,-216 774.75,-252"/>
<text text-anchor="middle" x="747.75" y="-228.95" font-family="Times New Roman,serif" font-size="14.00">dim1</text>
<text text-anchor="middle" x="702.38" y="-255.2" font-family="Times New Roman,serif" font-size="14.00">(23)int</text>
</g>
<!-- n24&#45;&gt;n23 -->
<g id="edge21" class="edge">
<title>n24&#45;&gt;n23</title>
<path fill="none" stroke="black" d="M732.78,-298.63C735.18,-288.42 738.29,-275.2 741.05,-263.46"/>
<polygon fill="black" stroke="black" points="744.43,-264.39 743.31,-253.85 737.62,-262.78 744.43,-264.39"/>
</g>
<!-- n27 -->
<g id="node23" class="node">
<title>n27</title>
<polygon fill="none" stroke="black" points="901.88,-252 811.62,-252 811.62,-216 901.88,-216 901.88,-252"/>
<text text-anchor="middle" x="856.75" y="-228.95" font-family="Times New Roman,serif" font-size="14.00">acc : Boolean</text>
<text text-anchor="middle" x="777.88" y="-255.2" font-family="Times New Roman,serif" font-size="14.00">(27)Boolean</text>
</g>
<!-- n28&#45;&gt;n27 -->
<g id="edge22" class="edge">
<title>n28&#45;&gt;n27</title>
<path fill="none" stroke="black" d="M927.66,-298.63C915.1,-287.35 898.45,-272.41 884.44,-259.84"/>
<polygon fill="black" stroke="black" points="887.03,-257.46 877.25,-253.39 882.35,-262.67 887.03,-257.46"/>
</g>
<!-- n26 -->
<g id="node24" class="node">
<title>n26</title>
<polygon fill="none" stroke="black" points="973.75,-252 919.75,-252 919.75,-216 973.75,-216 973.75,-252"/>
<text text-anchor="middle" x="946.75" y="-228.95" font-family="Times New Roman,serif" font-size="14.00">true</text>
<text text-anchor="middle" x="886" y="-255.2" font-family="Times New Roman,serif" font-size="14.00">(26)Boolean</text>
</g>
<!-- n28&#45;&gt;n26 -->
<g id="edge23" class="edge">
<title>n28&#45;&gt;n26</title>
<path fill="none" stroke="black" d="M946.75,-298.63C946.75,-288.52 946.75,-275.48 946.75,-263.83"/>
<polygon fill="black" stroke="black" points="950.25,-263.89 946.75,-253.89 943.25,-263.89 950.25,-263.89"/>
</g>
<!-- n31 -->
<g id="node25" class="node">
<title>n31</title>
<polygon fill="none" stroke="black" points="1193.38,-252 992.12,-252 992.12,-216 1193.38,-216 1193.38,-252"/>
<text text-anchor="middle" x="1092.75" y="-228.95" font-family="Times New Roman,serif" font-size="14.00">Sequence{ node(29) .. node(30) }</text>
<text text-anchor="middle" x="973.75" y="-255.2" font-family="Times New Roman,serif" font-size="14.00">(31)int</text>
</g>
<!-- n50&#45;&gt;n31 -->
<g id="edge24" class="edge">
<title>n50&#45;&gt;n31</title>
<path fill="none" stroke="black" d="M1188.34,-287.51C1170.65,-277.79 1151.08,-267.04 1134.27,-257.81"/>
<polygon fill="black" stroke="black" points="1135.99,-254.76 1125.54,-253.01 1132.62,-260.89 1135.99,-254.76"/>
</g>
<!-- n32 -->
<g id="node26" class="node">
<title>n32</title>
<polygon fill="none" stroke="black" points="1267.62,-252 1211.88,-252 1211.88,-216 1267.62,-216 1267.62,-252"/>
<text text-anchor="middle" x="1239.75" y="-228.95" font-family="Times New Roman,serif" font-size="14.00">it2 : int</text>
<text text-anchor="middle" x="1193.5" y="-255.2" font-family="Times New Roman,serif" font-size="14.00">(32)int</text>
</g>
<!-- n50&#45;&gt;n32 -->
<g id="edge25" class="edge">
<title>n50&#45;&gt;n32</title>
<path fill="none" stroke="black" d="M1239.75,-287.51C1239.75,-279.75 1239.75,-271.33 1239.75,-263.55"/>
<polygon fill="black" stroke="black" points="1243.25,-263.56 1239.75,-253.56 1236.25,-263.56 1243.25,-263.56"/>
</g>
<!-- n35 -->
<g id="node27" class="node">
<title>n35</title>
<polygon fill="none" stroke="black" points="1339.75,-252 1285.75,-252 1285.75,-216 1339.75,-216 1339.75,-252"/>
<text text-anchor="middle" x="1312.75" y="-228.95" font-family="Times New Roman,serif" font-size="14.00">=</text>
<text text-anchor="middle" x="1252" y="-255.2" font-family="Times New Roman,serif" font-size="14.00">(35)Boolean</text>
</g>
<!-- n50&#45;&gt;n35 -->
<g id="edge26" class="edge">
<title>n50&#45;&gt;n35</title>
<path fill="none" stroke="black" d="M1265.28,-287.51C1273.22,-278.73 1281.91,-269.11 1289.67,-260.53"/>
<polygon fill="black" stroke="black" points="1292.22,-262.93 1296.33,-253.17 1287.02,-258.24 1292.22,-262.93"/>
</g>
<!-- n49 -->
<g id="node28" class="node">
<title>n49</title>
<polygon fill="none" stroke="black" points="1443.75,-252 1389.75,-252 1389.75,-216 1443.75,-216 1443.75,-252"/>
<text text-anchor="middle" x="1416.75" y="-228.95" font-family="Times New Roman,serif" font-size="14.00">=</text>
<text text-anchor="middle" x="1356" y="-255.2" font-family="Times New Roman,serif" font-size="14.00">(49)Boolean</text>
</g>
<!-- n50&#45;&gt;n49 -->
<g id="edge27" class="edge">
<title>n50&#45;&gt;n49</title>
<path fill="none" stroke="black" d="M1301.66,-287.51C1327.36,-275.78 1356.36,-262.55 1378.82,-252.3"/>
<polygon fill="black" stroke="black" points="1380.25,-255.5 1387.9,-248.16 1377.35,-249.13 1380.25,-255.5"/>
</g>
<!-- n10 -->
<g id="node29" class="node">
<title>n10</title>
<polygon fill="none" stroke="black" points="208.75,-180 154.75,-180 154.75,-144 208.75,-144 208.75,-180"/>
<text text-anchor="middle" x="181.75" y="-156.95" font-family="Times New Roman,serif" font-size="14.00">arg</text>
<text text-anchor="middle" x="124.75" y="-183.2" font-family="Times New Roman,serif" font-size="14.00">(10)Matrix</text>
</g>
<!-- n11&#45;&gt;n10 -->
<g id="edge28" class="edge">
<title>n11&#45;&gt;n10</title>
<path fill="none" stroke="black" d="M181.75,-215.7C181.75,-208.41 181.75,-199.73 181.75,-191.54"/>
<polygon fill="black" stroke="black" points="185.25,-191.62 181.75,-181.62 178.25,-191.62 185.25,-191.62"/>
</g>
<!-- n16 -->
<g id="node30" class="node">
<title>n16</title>
<polygon fill="none" stroke="black" points="499.75,-180 445.75,-180 445.75,-144 499.75,-144 499.75,-180"/>
<text text-anchor="middle" x="472.75" y="-156.95" font-family="Times New Roman,serif" font-size="14.00">arg</text>
<text text-anchor="middle" x="415.75" y="-183.2" font-family="Times New Roman,serif" font-size="14.00">(16)Matrix</text>
</g>
<!-- n17&#45;&gt;n16 -->
<g id="edge29" class="edge">
<title>n17&#45;&gt;n16</title>
<path fill="none" stroke="black" d="M472.75,-215.7C472.75,-208.41 472.75,-199.73 472.75,-191.54"/>
<polygon fill="black" stroke="black" points="476.25,-191.62 472.75,-181.62 469.25,-191.62 476.25,-191.62"/>
</g>
<!-- n29 -->
<g id="node31" class="node">
<title>n29</title>
<polygon fill="none" stroke="black" points="1063.75,-180 1009.75,-180 1009.75,-144 1063.75,-144 1063.75,-180"/>
<text text-anchor="middle" x="1036.75" y="-156.95" font-family="Times New Roman,serif" font-size="14.00">1</text>
<text text-anchor="middle" x="991.38" y="-183.2" font-family="Times New Roman,serif" font-size="14.00">(29)int</text>
</g>
<!-- n31&#45;&gt;n29 -->
<g id="edge30" class="edge">
<title>n31&#45;&gt;n29</title>
<path fill="none" stroke="black" d="M1078.91,-215.7C1072.46,-207.64 1064.67,-197.89 1057.54,-188.98"/>
<polygon fill="black" stroke="black" points="1060.36,-186.91 1051.38,-181.29 1054.89,-191.28 1060.36,-186.91"/>
</g>
<!-- n30 -->
<g id="node32" class="node">
<title>n30</title>
<polygon fill="none" stroke="black" points="1135.75,-180 1081.75,-180 1081.75,-144 1135.75,-144 1135.75,-180"/>
<text text-anchor="middle" x="1108.75" y="-156.95" font-family="Times New Roman,serif" font-size="14.00">dim2</text>
<text text-anchor="middle" x="1063.38" y="-183.2" font-family="Times New Roman,serif" font-size="14.00">(30)int</text>
</g>
<!-- n31&#45;&gt;n30 -->
<g id="edge31" class="edge">
<title>n31&#45;&gt;n30</title>
<path fill="none" stroke="black" d="M1096.71,-215.7C1098.39,-208.32 1100.4,-199.52 1102.29,-191.25"/>
<polygon fill="black" stroke="black" points="1105.69,-192.11 1104.5,-181.58 1098.86,-190.55 1105.69,-192.11"/>
</g>
<!-- n34 -->
<g id="node33" class="node">
<title>n34</title>
<polygon fill="none" stroke="black" points="1267.25,-180 1170.25,-180 1170.25,-144 1267.25,-144 1267.25,-180"/>
<text text-anchor="middle" x="1218.75" y="-156.95" font-family="Times New Roman,serif" font-size="14.00">acc2 : Boolean</text>
<text text-anchor="middle" x="1136.5" y="-183.2" font-family="Times New Roman,serif" font-size="14.00">(34)Boolean</text>
</g>
<!-- n35&#45;&gt;n34 -->
<g id="edge32" class="edge">
<title>n35&#45;&gt;n34</title>
<path fill="none" stroke="black" d="M1289.51,-215.7C1277.88,-207.03 1263.6,-196.4 1250.93,-186.96"/>
<polygon fill="black" stroke="black" points="1253.37,-184.42 1243.26,-181.25 1249.19,-190.03 1253.37,-184.42"/>
</g>
<!-- n33 -->
<g id="node34" class="node">
<title>n33</title>
<polygon fill="none" stroke="black" points="1339.75,-180 1285.75,-180 1285.75,-144 1339.75,-144 1339.75,-180"/>
<text text-anchor="middle" x="1312.75" y="-156.95" font-family="Times New Roman,serif" font-size="14.00">true</text>
<text text-anchor="middle" x="1252" y="-183.2" font-family="Times New Roman,serif" font-size="14.00">(33)Boolean</text>
</g>
<!-- n35&#45;&gt;n33 -->
<g id="edge33" class="edge">
<title>n35&#45;&gt;n33</title>
<path fill="none" stroke="black" d="M1312.75,-215.7C1312.75,-208.41 1312.75,-199.73 1312.75,-191.54"/>
<polygon fill="black" stroke="black" points="1316.25,-191.62 1312.75,-181.62 1309.25,-191.62 1316.25,-191.62"/>
</g>
<!-- n39 -->
<g id="node35" class="node">
<title>n39</title>
<polygon fill="none" stroke="black" points="1475.38,-180 1358.12,-180 1358.12,-144 1475.38,-144 1475.38,-180"/>
<text text-anchor="middle" x="1416.75" y="-156.95" font-family="Times New Roman,serif" font-size="14.00">result.datas[it][it2]</text>
<text text-anchor="middle" x="1339.75" y="-183.2" font-family="Times New Roman,serif" font-size="14.00">(39)int</text>
</g>
<!-- n49&#45;&gt;n39 -->
<g id="edge34" class="edge">
<title>n49&#45;&gt;n39</title>
<path fill="none" stroke="black" d="M1416.75,-215.7C1416.75,-208.41 1416.75,-199.73 1416.75,-191.54"/>
<polygon fill="black" stroke="black" points="1420.25,-191.62 1416.75,-181.62 1413.25,-191.62 1420.25,-191.62"/>
</g>
<!-- n48 -->
<g id="node36" class="node">
<title>n48</title>
<polygon fill="none" stroke="black" points="1580.75,-180 1526.75,-180 1526.75,-144 1580.75,-144 1580.75,-180"/>
<text text-anchor="middle" x="1553.75" y="-156.95" font-family="Times New Roman,serif" font-size="14.00">+</text>
<text text-anchor="middle" x="1508.38" y="-183.2" font-family="Times New Roman,serif" font-size="14.00">(48)int</text>
</g>
<!-- n49&#45;&gt;n48 -->
<g id="edge35" class="edge">
<title>n49&#45;&gt;n48</title>
<path fill="none" stroke="black" d="M1444.14,-219C1464.87,-208.42 1493.55,-193.76 1516.38,-182.1"/>
<polygon fill="black" stroke="black" points="1517.74,-185.33 1525.05,-177.66 1514.56,-179.09 1517.74,-185.33"/>
</g>
<!-- n36 -->
<g id="node37" class="node">
<title>n36</title>
<polygon fill="none" stroke="black" points="1338.75,-108 1284.75,-108 1284.75,-72 1338.75,-72 1338.75,-108"/>
<text text-anchor="middle" x="1311.75" y="-84.95" font-family="Times New Roman,serif" font-size="14.00">result</text>
<text text-anchor="middle" x="1254.75" y="-111.2" font-family="Times New Roman,serif" font-size="14.00">(36)Matrix</text>
</g>
<!-- n39&#45;&gt;n36 -->
<g id="edge36" class="edge">
<title>n39&#45;&gt;n36</title>
<path fill="none" stroke="black" d="M1390.52,-143.52C1377.4,-134.76 1361.32,-124.04 1347.11,-114.58"/>
<polygon fill="black" stroke="black" points="1349.16,-111.73 1338.9,-109.1 1345.28,-117.56 1349.16,-111.73"/>
</g>
<!-- n37 -->
<g id="node38" class="node">
<title>n37</title>
<polygon fill="none" stroke="black" points="1410.75,-108 1356.75,-108 1356.75,-72 1410.75,-72 1410.75,-108"/>
<text text-anchor="middle" x="1383.75" y="-84.95" font-family="Times New Roman,serif" font-size="14.00">it</text>
<text text-anchor="middle" x="1338.38" y="-111.2" font-family="Times New Roman,serif" font-size="14.00">(37)int</text>
</g>
<!-- n39&#45;&gt;n37 -->
<g id="edge37" class="edge">
<title>n39&#45;&gt;n37</title>
<path fill="none" stroke="black" d="M1408.59,-143.7C1405,-136.07 1400.68,-126.92 1396.67,-118.4"/>
<polygon fill="black" stroke="black" points="1399.89,-117.03 1392.46,-109.47 1393.56,-120.01 1399.89,-117.03"/>
</g>
<!-- n38 -->
<g id="node39" class="node">
<title>n38</title>
<polygon fill="none" stroke="black" points="1482.75,-108 1428.75,-108 1428.75,-72 1482.75,-72 1482.75,-108"/>
<text text-anchor="middle" x="1455.75" y="-84.95" font-family="Times New Roman,serif" font-size="14.00">it2</text>
<text text-anchor="middle" x="1410.38" y="-111.2" font-family="Times New Roman,serif" font-size="14.00">(38)int</text>
</g>
<!-- n39&#45;&gt;n38 -->
<g id="edge38" class="edge">
<title>n39&#45;&gt;n38</title>
<path fill="none" stroke="black" d="M1426.39,-143.7C1430.69,-135.98 1435.85,-126.71 1440.64,-118.11"/>
<polygon fill="black" stroke="black" points="1443.67,-119.87 1445.48,-109.43 1437.56,-116.46 1443.67,-119.87"/>
</g>
<!-- n43 -->
<g id="node40" class="node">
<title>n43</title>
<polygon fill="none" stroke="black" points="1607.12,-108 1500.38,-108 1500.38,-72 1607.12,-72 1607.12,-108"/>
<text text-anchor="middle" x="1553.75" y="-84.95" font-family="Times New Roman,serif" font-size="14.00">self.datas[it][it2]</text>
<text text-anchor="middle" x="1482" y="-111.2" font-family="Times New Roman,serif" font-size="14.00">(43)int</text>
</g>
<!-- n48&#45;&gt;n43 -->
<g id="edge39" class="edge">
<title>n48&#45;&gt;n43</title>
<path fill="none" stroke="black" d="M1553.75,-143.7C1553.75,-136.41 1553.75,-127.73 1553.75,-119.54"/>
<polygon fill="black" stroke="black" points="1557.25,-119.62 1553.75,-109.62 1550.25,-119.62 1557.25,-119.62"/>
</g>
<!-- n47 -->
<g id="node41" class="node">
<title>n47</title>
<polygon fill="none" stroke="black" points="1776,-108 1671.5,-108 1671.5,-72 1776,-72 1776,-108"/>
<text text-anchor="middle" x="1723.75" y="-84.95" font-family="Times New Roman,serif" font-size="14.00">arg.datas[it][it2]</text>
<text text-anchor="middle" x="1653.12" y="-111.2" font-family="Times New Roman,serif" font-size="14.00">(47)int</text>
</g>
<!-- n48&#45;&gt;n47 -->
<g id="edge40" class="edge">
<title>n48&#45;&gt;n47</title>
<path fill="none" stroke="black" d="M1581.06,-149.75C1605.33,-139.76 1641.47,-124.88 1671.3,-112.6"/>
<polygon fill="black" stroke="black" points="1672.25,-115.99 1680.16,-108.95 1669.58,-109.52 1672.25,-115.99"/>
</g>
<!-- n40 -->
<g id="node42" class="node">
<title>n40</title>
<polygon fill="none" stroke="black" points="1472.75,-36 1418.75,-36 1418.75,0 1472.75,0 1472.75,-36"/>
<text text-anchor="middle" x="1445.75" y="-12.95" font-family="Times New Roman,serif" font-size="14.00">self</text>
<text text-anchor="middle" x="1388.75" y="-39.2" font-family="Times New Roman,serif" font-size="14.00">(40)Matrix</text>
</g>
<!-- n43&#45;&gt;n40 -->
<g id="edge41" class="edge">
<title>n43&#45;&gt;n40</title>
<path fill="none" stroke="black" d="M1526.78,-71.52C1513.14,-62.68 1496.41,-51.84 1481.7,-42.3"/>
<polygon fill="black" stroke="black" points="1483.95,-39.59 1473.65,-37.08 1480.14,-45.46 1483.95,-39.59"/>
</g>
<!-- n41 -->
<g id="node43" class="node">
<title>n41</title>
<polygon fill="none" stroke="black" points="1544.75,-36 1490.75,-36 1490.75,0 1544.75,0 1544.75,-36"/>
<text text-anchor="middle" x="1517.75" y="-12.95" font-family="Times New Roman,serif" font-size="14.00">it</text>
<text text-anchor="middle" x="1472.38" y="-39.2" font-family="Times New Roman,serif" font-size="14.00">(41)int</text>
</g>
<!-- n43&#45;&gt;n41 -->
<g id="edge42" class="edge">
<title>n43&#45;&gt;n41</title>
<path fill="none" stroke="black" d="M1544.85,-71.7C1540.88,-63.98 1536.12,-54.71 1531.69,-46.11"/>
<polygon fill="black" stroke="black" points="1534.92,-44.74 1527.24,-37.45 1528.7,-47.94 1534.92,-44.74"/>
</g>
<!-- n42 -->
<g id="node44" class="node">
<title>n42</title>
<polygon fill="none" stroke="black" points="1616.75,-36 1562.75,-36 1562.75,0 1616.75,0 1616.75,-36"/>
<text text-anchor="middle" x="1589.75" y="-12.95" font-family="Times New Roman,serif" font-size="14.00">it2</text>
<text text-anchor="middle" x="1544.38" y="-39.2" font-family="Times New Roman,serif" font-size="14.00">(42)int</text>
</g>
<!-- n43&#45;&gt;n42 -->
<g id="edge43" class="edge">
<title>n43&#45;&gt;n42</title>
<path fill="none" stroke="black" d="M1562.65,-71.7C1566.62,-63.98 1571.38,-54.71 1575.81,-46.11"/>
<polygon fill="black" stroke="black" points="1578.8,-47.94 1580.26,-37.45 1572.58,-44.74 1578.8,-47.94"/>
</g>
<!-- n44 -->
<g id="node45" class="node">
<title>n44</title>
<polygon fill="none" stroke="black" points="1688.75,-36 1634.75,-36 1634.75,0 1688.75,0 1688.75,-36"/>
<text text-anchor="middle" x="1661.75" y="-12.95" font-family="Times New Roman,serif" font-size="14.00">arg</text>
<text text-anchor="middle" x="1604.75" y="-39.2" font-family="Times New Roman,serif" font-size="14.00">(44)Matrix</text>
</g>
<!-- n47&#45;&gt;n44 -->
<g id="edge44" class="edge">
<title>n47&#45;&gt;n44</title>
<path fill="none" stroke="black" d="M1708.42,-71.7C1701.22,-63.56 1692.47,-53.69 1684.51,-44.7"/>
<polygon fill="black" stroke="black" points="1687.15,-42.4 1677.9,-37.24 1681.91,-47.04 1687.15,-42.4"/>
</g>
<!-- n45 -->
<g id="node46" class="node">
<title>n45</title>
<polygon fill="none" stroke="black" points="1760.75,-36 1706.75,-36 1706.75,0 1760.75,0 1760.75,-36"/>
<text text-anchor="middle" x="1733.75" y="-12.95" font-family="Times New Roman,serif" font-size="14.00">it</text>
<text text-anchor="middle" x="1688.38" y="-39.2" font-family="Times New Roman,serif" font-size="14.00">(45)int</text>
</g>
<!-- n47&#45;&gt;n45 -->
<g id="edge45" class="edge">
<title>n47&#45;&gt;n45</title>
<path fill="none" stroke="black" d="M1726.22,-71.7C1727.28,-64.32 1728.53,-55.52 1729.71,-47.25"/>
<polygon fill="black" stroke="black" points="1733.14,-48 1731.09,-37.6 1726.21,-47.01 1733.14,-48"/>
</g>
<!-- n46 -->
<g id="node47" class="node">
<title>n46</title>
<polygon fill="none" stroke="black" points="1832.75,-36 1778.75,-36 1778.75,0 1832.75,0 1832.75,-36"/>
<text text-anchor="middle" x="1805.75" y="-12.95" font-family="Times New Roman,serif" font-size="14.00">it2</text>
<text text-anchor="middle" x="1760.38" y="-39.2" font-family="Times New Roman,serif" font-size="14.00">(46)int</text>
</g>
<!-- n47&#45;&gt;n46 -->
<g id="edge46" class="edge">
<title>n47&#45;&gt;n46</title>
<path fill="none" stroke="black" d="M1744.02,-71.7C1753.88,-63.28 1765.9,-53.02 1776.71,-43.79"/>
<polygon fill="black" stroke="black" points="1778.94,-46.48 1784.28,-37.33 1774.4,-41.16 1778.94,-46.48"/>
</g>
</g>
</svg>
