<?xml version="1.0" encoding="UTF-8" standalone="no"?>
<!DOCTYPE svg PUBLIC "-//W3C//DTD SVG 1.1//EN"
 "http://www.w3.org/Graphics/SVG/1.1/DTD/svg11.dtd">
<!-- Generated by graphviz version 12.2.1 (20241206.2353)
 -->
<!-- Title: AST Pages: 1 -->
<svg width="339pt" height="349pt"
 viewBox="0.00 0.00 339.25 348.50" xmlns="http://www.w3.org/2000/svg" xmlns:xlink="http://www.w3.org/1999/xlink">
<g id="graph0" class="graph" transform="scale(1 1) rotate(0) translate(4 344.5)">
<title>AST</title>
<polygon fill="white" stroke="none" points="-4,4 -4,-344.5 335.25,-344.5 335.25,4 -4,4"/>
<!-- n7 -->
<g id="node1" class="node">
<title>n7</title>
<polygon fill="none" stroke="black" points="305.38,-324 71.87,-324 71.87,-288 305.38,-288 305.38,-324"/>
<text text-anchor="middle" x="188.62" y="-300.95" font-family="Times New Roman,serif" font-size="14.00">ContextDecl: node(1) Context: node (6)</text>
<text text-anchor="middle" x="64" y="-327.2" font-family="Times New Roman,serif" font-size="14.00">(7)</text>
</g>
<!-- n1 -->
<g id="node2" class="node">
<title>n1</title>
<polygon fill="none" stroke="black" points="204.25,-252 51,-252 51,-216 204.25,-216 204.25,-252"/>
<text text-anchor="middle" x="127.62" y="-228.95" font-family="Times New Roman,serif" font-size="14.00">Matrix::Matrix(node (0))</text>
<text text-anchor="middle" x="43.12" y="-255.2" font-family="Times New Roman,serif" font-size="14.00">(1)</text>
</g>
<!-- n7&#45;&gt;n1 -->
<g id="edge1" class="edge">
<title>n7&#45;&gt;n1</title>
<path fill="none" stroke="black" d="M173.55,-287.7C166.45,-279.56 157.85,-269.69 150.02,-260.7"/>
<polygon fill="black" stroke="black" points="152.73,-258.49 143.52,-253.25 147.46,-263.08 152.73,-258.49"/>
</g>
<!-- n6 -->
<g id="node3" class="node">
<title>n6</title>
<polygon fill="none" stroke="black" points="276.62,-252 222.62,-252 222.62,-216 276.62,-216 276.62,-252"/>
<text text-anchor="middle" x="249.62" y="-228.95" font-family="Times New Roman,serif" font-size="14.00"> post:</text>
<text text-anchor="middle" x="192.25" y="-255.2" font-family="Times New Roman,serif" font-size="14.00">(6)Boolean</text>
</g>
<!-- n7&#45;&gt;n6 -->
<g id="edge2" class="edge">
<title>n7&#45;&gt;n6</title>
<path fill="none" stroke="black" d="M203.7,-287.7C210.8,-279.56 219.4,-269.69 227.23,-260.7"/>
<polygon fill="black" stroke="black" points="229.79,-263.08 233.73,-253.25 224.52,-258.49 229.79,-263.08"/>
</g>
<!-- n0 -->
<g id="node4" class="node">
<title>n0</title>
<polygon fill="none" stroke="black" points="193.75,-180 61.5,-180 61.5,-144 193.75,-144 193.75,-180"/>
<text text-anchor="middle" x="127.62" y="-156.95" font-family="Times New Roman,serif" font-size="14.00">inputArray : int[2][2]</text>
<text text-anchor="middle" x="30.75" y="-183.2" font-family="Times New Roman,serif" font-size="14.00">(0)int[2][2]</text>
</g>
<!-- n1&#45;&gt;n0 -->
<g id="edge3" class="edge">
<title>n1&#45;&gt;n0</title>
<path fill="none" stroke="black" d="M127.62,-215.7C127.62,-208.41 127.62,-199.73 127.62,-191.54"/>
<polygon fill="black" stroke="black" points="131.13,-191.62 127.63,-181.62 124.13,-191.62 131.13,-191.62"/>
</g>
<!-- n5 -->
<g id="node5" class="node">
<title>n5</title>
<polygon fill="none" stroke="black" points="276.62,-180 222.62,-180 222.62,-144 276.62,-144 276.62,-180"/>
<text text-anchor="middle" x="249.62" y="-156.95" font-family="Times New Roman,serif" font-size="14.00">=</text>
<text text-anchor="middle" x="192.25" y="-183.2" font-family="Times New Roman,serif" font-size="14.00">(5)Boolean</text>
</g>
<!-- n6&#45;&gt;n5 -->
<g id="edge4" class="edge">
<title>n6&#45;&gt;n5</title>
<path fill="none" stroke="black" d="M249.62,-215.7C249.62,-208.41 249.62,-199.73 249.62,-191.54"/>
<polygon fill="black" stroke="black" points="253.13,-191.62 249.63,-181.62 246.13,-191.62 253.13,-191.62"/>
</g>
<!-- n3 -->
<g id="node6" class="node">
<title>n3</title>
<polygon fill="none" stroke="black" points="238.12,-108 171.12,-108 171.12,-72 238.12,-72 238.12,-108"/>
<text text-anchor="middle" x="204.62" y="-84.95" font-family="Times New Roman,serif" font-size="14.00">self.datas</text>
<text text-anchor="middle" x="140.38" y="-111.2" font-family="Times New Roman,serif" font-size="14.00">(3)int[2][2]</text>
</g>
<!-- n5&#45;&gt;n3 -->
<g id="edge5" class="edge">
<title>n5&#45;&gt;n3</title>
<path fill="none" stroke="black" d="M238.5,-143.7C233.43,-135.81 227.32,-126.3 221.69,-117.55"/>
<polygon fill="black" stroke="black" points="224.79,-115.9 216.44,-109.38 218.9,-119.68 224.79,-115.9"/>
</g>
<!-- n4 -->
<g id="node7" class="node">
<title>n4</title>
<polygon fill="none" stroke="black" points="331.25,-108 256,-108 256,-72 331.25,-72 331.25,-108"/>
<text text-anchor="middle" x="293.62" y="-84.95" font-family="Times New Roman,serif" font-size="14.00">inputArray</text>
<text text-anchor="middle" x="225.25" y="-111.2" font-family="Times New Roman,serif" font-size="14.00">(4)int[2][2]</text>
</g>
<!-- n5&#45;&gt;n4 -->
<g id="edge6" class="edge">
<title>n5&#45;&gt;n4</title>
<path fill="none" stroke="black" d="M260.5,-143.7C265.4,-135.9 271.31,-126.51 276.76,-117.83"/>
<polygon fill="black" stroke="black" points="279.71,-119.71 282.07,-109.39 273.78,-115.99 279.71,-119.71"/>
</g>
<!-- n2 -->
<g id="node8" class="node">
<title>n2</title>
<polygon fill="none" stroke="black" points="231.62,-36 177.62,-36 177.62,0 231.62,0 231.62,-36"/>
<text text-anchor="middle" x="204.62" y="-12.95" font-family="Times New Roman,serif" font-size="14.00">self</text>
<text text-anchor="middle" x="151" y="-39.2" font-family="Times New Roman,serif" font-size="14.00">(2)Matrix</text>
</g>
<!-- n3&#45;&gt;n2 -->
<g id="edge7" class="edge">
<title>n3&#45;&gt;n2</title>
<path fill="none" stroke="black" d="M204.62,-71.7C204.62,-64.41 204.62,-55.73 204.62,-47.54"/>
<polygon fill="black" stroke="black" points="208.13,-47.62 204.63,-37.62 201.13,-47.62 208.13,-47.62"/>
</g>
</g>
</svg>
