<?xml version="1.0" encoding="UTF-8" standalone="no"?>
<!DOCTYPE svg PUBLIC "-//W3C//DTD SVG 1.1//EN"
 "http://www.w3.org/Graphics/SVG/1.1/DTD/svg11.dtd">
<!-- Generated by graphviz version 12.2.1 (20241206.2353)
 -->
<!-- Title: AST Pages: 1 -->
<svg width="1841pt" height="685pt"
 viewBox="0.00 0.00 1840.75 684.50" xmlns="http://www.w3.org/2000/svg" xmlns:xlink="http://www.w3.org/1999/xlink">
<g id="graph0" class="graph" transform="scale(1 1) rotate(0) translate(4 680.5)">
<title>AST</title>
<polygon fill="white" stroke="none" points="-4,4 -4,-680.5 1836.75,-680.5 1836.75,4 -4,4"/>
<!-- n101 -->
<g id="node1" class="node">
<title>n101</title>
<polygon fill="none" stroke="black" points="472.62,-660 218.88,-660 218.88,-624 472.62,-624 472.62,-660"/>
<text text-anchor="middle" x="345.75" y="-636.95" font-family="Times New Roman,serif" font-size="14.00">ContextDecl: node(56) Context: node (100)</text>
<text text-anchor="middle" x="204.25" y="-663.2" font-family="Times New Roman,serif" font-size="14.00">(101)</text>
</g>
<!-- n56 -->
<g id="node2" class="node">
<title>n56</title>
<polygon fill="none" stroke="black" points="370.75,-588 180.75,-588 180.75,-552 370.75,-552 370.75,-588"/>
<text text-anchor="middle" x="275.75" y="-564.95" font-family="Times New Roman,serif" font-size="14.00">Matrix::sub(node (55)) : Matrix</text>
<text text-anchor="middle" x="169.5" y="-591.2" font-family="Times New Roman,serif" font-size="14.00">(56)</text>
</g>
<!-- n101&#45;&gt;n56 -->
<g id="edge1" class="edge">
<title>n101&#45;&gt;n56</title>
<path fill="none" stroke="black" d="M328.45,-623.7C320.14,-615.39 310.03,-605.28 300.89,-596.14"/>
<polygon fill="black" stroke="black" points="303.47,-593.77 293.92,-589.17 298.52,-598.72 303.47,-593.77"/>
</g>
<!-- n100 -->
<g id="node3" class="node">
<title>n100</title>
<polygon fill="none" stroke="black" points="455.75,-588 401.75,-588 401.75,-552 455.75,-552 455.75,-588"/>
<text text-anchor="middle" x="428.75" y="-564.95" font-family="Times New Roman,serif" font-size="14.00"> post:</text>
<text text-anchor="middle" x="364.62" y="-591.2" font-family="Times New Roman,serif" font-size="14.00">(100)Boolean</text>
</g>
<!-- n101&#45;&gt;n100 -->
<g id="edge2" class="edge">
<title>n101&#45;&gt;n100</title>
<path fill="none" stroke="black" d="M366.27,-623.7C376.34,-615.2 388.66,-604.81 399.68,-595.51"/>
<polygon fill="black" stroke="black" points="401.64,-598.45 407.02,-589.32 397.12,-593.09 401.64,-598.45"/>
</g>
<!-- n55 -->
<g id="node4" class="node">
<title>n55</title>
<polygon fill="none" stroke="black" points="290.75,-513.5 208.75,-513.5 208.75,-477.5 290.75,-477.5 290.75,-513.5"/>
<text text-anchor="middle" x="249.75" y="-490.45" font-family="Times New Roman,serif" font-size="14.00">arg : Matrix</text>
<text text-anchor="middle" x="178.75" y="-516.7" font-family="Times New Roman,serif" font-size="14.00">(55)Matrix</text>
</g>
<!-- n56&#45;&gt;n55 -->
<g id="edge3" class="edge">
<title>n56&#45;&gt;n55</title>
<path fill="none" stroke="black" d="M269.59,-551.82C266.64,-543.6 263.04,-533.56 259.72,-524.3"/>
<polygon fill="black" stroke="black" points="263.05,-523.21 256.38,-514.98 256.46,-525.58 263.05,-523.21"/>
</g>
<!-- n99 -->
<g id="node5" class="node">
<title>n99</title>
<polygon fill="none" stroke="black" points="574.62,-516 308.88,-516 308.88,-475 574.62,-475 574.62,-516"/>
<text text-anchor="middle" x="441.75" y="-498.7" font-family="Times New Roman,serif" font-size="14.00">LetExp </text>
<text text-anchor="middle" x="441.75" y="-482.2" font-family="Times New Roman,serif" font-size="14.00">Let node(62), node(68), node(98) in node(98)</text>
<text text-anchor="middle" x="275.12" y="-519.2" font-family="Times New Roman,serif" font-size="14.00">(99)Boolean</text>
</g>
<!-- n100&#45;&gt;n99 -->
<g id="edge4" class="edge">
<title>n100&#45;&gt;n99</title>
<path fill="none" stroke="black" d="M431.83,-551.82C433.13,-544.59 434.68,-535.95 436.16,-527.66"/>
<polygon fill="black" stroke="black" points="439.6,-528.33 437.92,-517.87 432.71,-527.1 439.6,-528.33"/>
</g>
<!-- n62 -->
<g id="node6" class="node">
<title>n62</title>
<polygon fill="none" stroke="black" points="246.75,-428.25 192.75,-428.25 192.75,-392.25 246.75,-392.25 246.75,-428.25"/>
<text text-anchor="middle" x="219.75" y="-405.2" font-family="Times New Roman,serif" font-size="14.00">=</text>
<text text-anchor="middle" x="159" y="-431.45" font-family="Times New Roman,serif" font-size="14.00">(62)Boolean</text>
</g>
<!-- n99&#45;&gt;n62 -->
<g id="edge5" class="edge">
<title>n99&#45;&gt;n62</title>
<path fill="none" stroke="black" d="M388.58,-474.56C348.24,-459.43 293.76,-439 257.73,-425.49"/>
<polygon fill="black" stroke="black" points="259.19,-422.3 248.6,-422.07 256.73,-428.86 259.19,-422.3"/>
</g>
<!-- n68 -->
<g id="node7" class="node">
<title>n68</title>
<polygon fill="none" stroke="black" points="468.75,-428.25 414.75,-428.25 414.75,-392.25 468.75,-392.25 468.75,-428.25"/>
<text text-anchor="middle" x="441.75" y="-405.2" font-family="Times New Roman,serif" font-size="14.00">=</text>
<text text-anchor="middle" x="381" y="-431.45" font-family="Times New Roman,serif" font-size="14.00">(68)Boolean</text>
</g>
<!-- n99&#45;&gt;n68 -->
<g id="edge6" class="edge">
<title>n99&#45;&gt;n68</title>
<path fill="none" stroke="black" d="M441.75,-474.77C441.75,-464.35 441.75,-451.37 441.75,-439.87"/>
<polygon fill="black" stroke="black" points="445.25,-440.09 441.75,-430.09 438.25,-440.09 445.25,-440.09"/>
</g>
<!-- n98 -->
<g id="node8" class="node">
<title>n98</title>
<polygon fill="none" stroke="black" points="979.12,-439 770.38,-439 770.38,-381.5 979.12,-381.5 979.12,-439"/>
<text text-anchor="middle" x="874.75" y="-421.7" font-family="Times New Roman,serif" font-size="14.00">IterateExp</text>
<text text-anchor="middle" x="874.75" y="-405.2" font-family="Times New Roman,serif" font-size="14.00">source=node(71) Iterator=node(72)</text>
<text text-anchor="middle" x="874.75" y="-388.7" font-family="Times New Roman,serif" font-size="14.00">Result=node(75) Body=node(97)</text>
<text text-anchor="middle" x="736.62" y="-442.2" font-family="Times New Roman,serif" font-size="14.00">(98)Boolean</text>
</g>
<!-- n99&#45;&gt;n98 -->
<g id="edge7" class="edge">
<title>n99&#45;&gt;n98</title>
<path fill="none" stroke="black" d="M545.74,-474.51C610.09,-462.13 692.81,-446.23 759.2,-433.47"/>
<polygon fill="black" stroke="black" points="759.49,-436.97 768.65,-431.65 758.17,-430.1 759.49,-436.97"/>
</g>
<!-- n61 -->
<g id="node9" class="node">
<title>n61</title>
<polygon fill="none" stroke="black" points="106.75,-334.75 36.75,-334.75 36.75,-298.75 106.75,-298.75 106.75,-334.75"/>
<text text-anchor="middle" x="71.75" y="-311.7" font-family="Times New Roman,serif" font-size="14.00">dim1 : int</text>
<text text-anchor="middle" x="18.38" y="-337.95" font-family="Times New Roman,serif" font-size="14.00">(61)int</text>
</g>
<!-- n62&#45;&gt;n61 -->
<g id="edge8" class="edge">
<title>n62&#45;&gt;n61</title>
<path fill="none" stroke="black" d="M192.32,-392.57C171.32,-379.76 141.65,-361.6 115.75,-345.5 113.49,-344.09 111.16,-342.64 108.81,-341.17"/>
<polygon fill="black" stroke="black" points="110.79,-338.28 100.46,-335.93 107.07,-344.21 110.79,-338.28"/>
</g>
<!-- n60 -->
<g id="node10" class="node">
<title>n60</title>
<polygon fill="none" stroke="black" points="314.38,-334.75 125.12,-334.75 125.12,-298.75 314.38,-298.75 314.38,-334.75"/>
<text text-anchor="middle" x="219.75" y="-311.7" font-family="Times New Roman,serif" font-size="14.00">arg.datas.getDimensionSizes(1)</text>
<text text-anchor="middle" x="106.75" y="-337.95" font-family="Times New Roman,serif" font-size="14.00">(60)int</text>
</g>
<!-- n62&#45;&gt;n60 -->
<g id="edge9" class="edge">
<title>n62&#45;&gt;n60</title>
<path fill="none" stroke="black" d="M219.75,-392.04C219.75,-379.21 219.75,-361.4 219.75,-346.44"/>
<polygon fill="black" stroke="black" points="223.25,-346.71 219.75,-336.71 216.25,-346.71 223.25,-346.71"/>
</g>
<!-- n67 -->
<g id="node11" class="node">
<title>n67</title>
<polygon fill="none" stroke="black" points="402.75,-334.75 332.75,-334.75 332.75,-298.75 402.75,-298.75 402.75,-334.75"/>
<text text-anchor="middle" x="367.75" y="-311.7" font-family="Times New Roman,serif" font-size="14.00">dim2 : int</text>
<text text-anchor="middle" x="314.38" y="-337.95" font-family="Times New Roman,serif" font-size="14.00">(67)int</text>
</g>
<!-- n68&#45;&gt;n67 -->
<g id="edge10" class="edge">
<title>n68&#45;&gt;n67</title>
<path fill="none" stroke="black" d="M427.83,-392.04C416.84,-378.45 401.33,-359.27 388.82,-343.8"/>
<polygon fill="black" stroke="black" points="391.82,-341.95 382.81,-336.37 386.38,-346.35 391.82,-341.95"/>
</g>
<!-- n66 -->
<g id="node12" class="node">
<title>n66</title>
<polygon fill="none" stroke="black" points="610.38,-334.75 421.12,-334.75 421.12,-298.75 610.38,-298.75 610.38,-334.75"/>
<text text-anchor="middle" x="515.75" y="-311.7" font-family="Times New Roman,serif" font-size="14.00">arg.datas.getDimensionSizes(2)</text>
<text text-anchor="middle" x="402.75" y="-337.95" font-family="Times New Roman,serif" font-size="14.00">(66)int</text>
</g>
<!-- n68&#45;&gt;n66 -->
<g id="edge11" class="edge">
<title>n68&#45;&gt;n66</title>
<path fill="none" stroke="black" d="M455.67,-392.04C466.66,-378.45 482.17,-359.27 494.68,-343.8"/>
<polygon fill="black" stroke="black" points="497.12,-346.35 500.69,-336.37 491.68,-341.95 497.12,-346.35"/>
</g>
<!-- n71 -->
<g id="node13" class="node">
<title>n71</title>
<polygon fill="none" stroke="black" points="829.38,-334.75 628.12,-334.75 628.12,-298.75 829.38,-298.75 829.38,-334.75"/>
<text text-anchor="middle" x="728.75" y="-311.7" font-family="Times New Roman,serif" font-size="14.00">Sequence{ node(69) .. node(70) }</text>
<text text-anchor="middle" x="609.75" y="-337.95" font-family="Times New Roman,serif" font-size="14.00">(71)int</text>
</g>
<!-- n98&#45;&gt;n71 -->
<g id="edge12" class="edge">
<title>n98&#45;&gt;n71</title>
<path fill="none" stroke="black" d="M829.75,-381.05C809.35,-368.26 785.5,-353.32 766.1,-341.16"/>
<polygon fill="black" stroke="black" points="768.02,-338.23 757.69,-335.89 764.31,-344.16 768.02,-338.23"/>
</g>
<!-- n72 -->
<g id="node14" class="node">
<title>n72</title>
<polygon fill="none" stroke="black" points="901.75,-334.75 847.75,-334.75 847.75,-298.75 901.75,-298.75 901.75,-334.75"/>
<text text-anchor="middle" x="874.75" y="-311.7" font-family="Times New Roman,serif" font-size="14.00">it : int</text>
<text text-anchor="middle" x="829.38" y="-337.95" font-family="Times New Roman,serif" font-size="14.00">(72)int</text>
</g>
<!-- n98&#45;&gt;n72 -->
<g id="edge13" class="edge">
<title>n98&#45;&gt;n72</title>
<path fill="none" stroke="black" d="M874.75,-381.3C874.75,-370.26 874.75,-357.59 874.75,-346.47"/>
<polygon fill="black" stroke="black" points="878.25,-346.69 874.75,-336.69 871.25,-346.69 878.25,-346.69"/>
</g>
<!-- n75 -->
<g id="node15" class="node">
<title>n75</title>
<polygon fill="none" stroke="black" points="973.75,-334.75 919.75,-334.75 919.75,-298.75 973.75,-298.75 973.75,-334.75"/>
<text text-anchor="middle" x="946.75" y="-311.7" font-family="Times New Roman,serif" font-size="14.00">=</text>
<text text-anchor="middle" x="886" y="-337.95" font-family="Times New Roman,serif" font-size="14.00">(75)Boolean</text>
</g>
<!-- n98&#45;&gt;n75 -->
<g id="edge14" class="edge">
<title>n98&#45;&gt;n75</title>
<path fill="none" stroke="black" d="M896.74,-381.3C906.08,-369.44 916.9,-355.69 926.08,-344.02"/>
<polygon fill="black" stroke="black" points="928.67,-346.39 932.1,-336.37 923.16,-342.06 928.67,-346.39"/>
</g>
<!-- n97 -->
<g id="node16" class="node">
<title>n97</title>
<polygon fill="none" stroke="black" points="1344.12,-345.5 1135.38,-345.5 1135.38,-288 1344.12,-288 1344.12,-345.5"/>
<text text-anchor="middle" x="1239.75" y="-328.2" font-family="Times New Roman,serif" font-size="14.00">IterateExp</text>
<text text-anchor="middle" x="1239.75" y="-311.7" font-family="Times New Roman,serif" font-size="14.00">source=node(78) Iterator=node(79)</text>
<text text-anchor="middle" x="1239.75" y="-295.2" font-family="Times New Roman,serif" font-size="14.00">Result=node(82) Body=node(96)</text>
<text text-anchor="middle" x="1101.62" y="-348.7" font-family="Times New Roman,serif" font-size="14.00">(97)Boolean</text>
</g>
<!-- n98&#45;&gt;n97 -->
<g id="edge15" class="edge">
<title>n98&#45;&gt;n97</title>
<path fill="none" stroke="black" d="M979.34,-383.03C1024.59,-371.69 1077.7,-358.37 1124.11,-346.74"/>
<polygon fill="black" stroke="black" points="1124.82,-350.17 1133.67,-344.34 1123.12,-343.38 1124.82,-350.17"/>
</g>
<!-- n58 -->
<g id="node17" class="node">
<title>n58</title>
<polygon fill="none" stroke="black" points="214.12,-252 149.38,-252 149.38,-216 214.12,-216 214.12,-252"/>
<text text-anchor="middle" x="181.75" y="-228.95" font-family="Times New Roman,serif" font-size="14.00">arg.datas</text>
<text text-anchor="middle" x="115.25" y="-255.2" font-family="Times New Roman,serif" font-size="14.00">(58)int[2][2]</text>
</g>
<!-- n60&#45;&gt;n58 -->
<g id="edge16" class="edge">
<title>n60&#45;&gt;n58</title>
<path fill="none" stroke="black" d="M211.69,-298.63C206.79,-288.2 200.41,-274.65 194.8,-262.73"/>
<polygon fill="black" stroke="black" points="198,-261.31 190.57,-253.75 191.66,-264.29 198,-261.31"/>
</g>
<!-- n59 -->
<g id="node18" class="node">
<title>n59</title>
<polygon fill="none" stroke="black" points="285.75,-252 231.75,-252 231.75,-216 285.75,-216 285.75,-252"/>
<text text-anchor="middle" x="258.75" y="-228.95" font-family="Times New Roman,serif" font-size="14.00">1</text>
<text text-anchor="middle" x="213.38" y="-255.2" font-family="Times New Roman,serif" font-size="14.00">(59)int</text>
</g>
<!-- n60&#45;&gt;n59 -->
<g id="edge17" class="edge">
<title>n60&#45;&gt;n59</title>
<path fill="none" stroke="black" d="M228.02,-298.63C233.05,-288.2 239.6,-274.65 245.36,-262.73"/>
<polygon fill="black" stroke="black" points="248.5,-264.27 249.7,-253.74 242.2,-261.22 248.5,-264.27"/>
</g>
<!-- n64 -->
<g id="node19" class="node">
<title>n64</title>
<polygon fill="none" stroke="black" points="505.12,-252 440.38,-252 440.38,-216 505.12,-216 505.12,-252"/>
<text text-anchor="middle" x="472.75" y="-228.95" font-family="Times New Roman,serif" font-size="14.00">arg.datas</text>
<text text-anchor="middle" x="406.25" y="-255.2" font-family="Times New Roman,serif" font-size="14.00">(64)int[2][2]</text>
</g>
<!-- n66&#45;&gt;n64 -->
<g id="edge18" class="edge">
<title>n66&#45;&gt;n64</title>
<path fill="none" stroke="black" d="M506.63,-298.63C501.02,-288.1 493.72,-274.37 487.32,-262.36"/>
<polygon fill="black" stroke="black" points="490.51,-260.9 482.72,-253.71 484.33,-264.19 490.51,-260.9"/>
</g>
<!-- n65 -->
<g id="node20" class="node">
<title>n65</title>
<polygon fill="none" stroke="black" points="576.75,-252 522.75,-252 522.75,-216 576.75,-216 576.75,-252"/>
<text text-anchor="middle" x="549.75" y="-228.95" font-family="Times New Roman,serif" font-size="14.00">2</text>
<text text-anchor="middle" x="504.38" y="-255.2" font-family="Times New Roman,serif" font-size="14.00">(65)int</text>
</g>
<!-- n66&#45;&gt;n65 -->
<g id="edge19" class="edge">
<title>n66&#45;&gt;n65</title>
<path fill="none" stroke="black" d="M522.96,-298.63C527.35,-288.2 533.06,-274.65 538.07,-262.73"/>
<polygon fill="black" stroke="black" points="541.19,-264.35 541.85,-253.77 534.74,-261.63 541.19,-264.35"/>
</g>
<!-- n69 -->
<g id="node21" class="node">
<title>n69</title>
<polygon fill="none" stroke="black" points="702.75,-252 648.75,-252 648.75,-216 702.75,-216 702.75,-252"/>
<text text-anchor="middle" x="675.75" y="-228.95" font-family="Times New Roman,serif" font-size="14.00">1</text>
<text text-anchor="middle" x="630.38" y="-255.2" font-family="Times New Roman,serif" font-size="14.00">(69)int</text>
</g>
<!-- n71&#45;&gt;n69 -->
<g id="edge20" class="edge">
<title>n71&#45;&gt;n69</title>
<path fill="none" stroke="black" d="M717.51,-298.63C710.53,-287.99 701.41,-274.09 693.47,-262"/>
<polygon fill="black" stroke="black" points="696.4,-260.08 687.99,-253.64 690.55,-263.92 696.4,-260.08"/>
</g>
<!-- n70 -->
<g id="node22" class="node">
<title>n70</title>
<polygon fill="none" stroke="black" points="774.75,-252 720.75,-252 720.75,-216 774.75,-216 774.75,-252"/>
<text text-anchor="middle" x="747.75" y="-228.95" font-family="Times New Roman,serif" font-size="14.00">dim1</text>
<text text-anchor="middle" x="702.38" y="-255.2" font-family="Times New Roman,serif" font-size="14.00">(70)int</text>
</g>
<!-- n71&#45;&gt;n70 -->
<g id="edge21" class="edge">
<title>n71&#45;&gt;n70</title>
<path fill="none" stroke="black" d="M732.78,-298.63C735.18,-288.42 738.29,-275.2 741.05,-263.46"/>
<polygon fill="black" stroke="black" points="744.43,-264.39 743.31,-253.85 737.62,-262.78 744.43,-264.39"/>
</g>
<!-- n74 -->
<g id="node23" class="node">
<title>n74</title>
<polygon fill="none" stroke="black" points="901.88,-252 811.62,-252 811.62,-216 901.88,-216 901.88,-252"/>
<text text-anchor="middle" x="856.75" y="-228.95" font-family="Times New Roman,serif" font-size="14.00">acc : Boolean</text>
<text text-anchor="middle" x="777.88" y="-255.2" font-family="Times New Roman,serif" font-size="14.00">(74)Boolean</text>
</g>
<!-- n75&#45;&gt;n74 -->
<g id="edge22" class="edge">
<title>n75&#45;&gt;n74</title>
<path fill="none" stroke="black" d="M927.66,-298.63C915.1,-287.35 898.45,-272.41 884.44,-259.84"/>
<polygon fill="black" stroke="black" points="887.03,-257.46 877.25,-253.39 882.35,-262.67 887.03,-257.46"/>
</g>
<!-- n73 -->
<g id="node24" class="node">
<title>n73</title>
<polygon fill="none" stroke="black" points="973.75,-252 919.75,-252 919.75,-216 973.75,-216 973.75,-252"/>
<text text-anchor="middle" x="946.75" y="-228.95" font-family="Times New Roman,serif" font-size="14.00">true</text>
<text text-anchor="middle" x="886" y="-255.2" font-family="Times New Roman,serif" font-size="14.00">(73)Boolean</text>
</g>
<!-- n75&#45;&gt;n73 -->
<g id="edge23" class="edge">
<title>n75&#45;&gt;n73</title>
<path fill="none" stroke="black" d="M946.75,-298.63C946.75,-288.52 946.75,-275.48 946.75,-263.83"/>
<polygon fill="black" stroke="black" points="950.25,-263.89 946.75,-253.89 943.25,-263.89 950.25,-263.89"/>
</g>
<!-- n78 -->
<g id="node25" class="node">
<title>n78</title>
<polygon fill="none" stroke="black" points="1193.38,-252 992.12,-252 992.12,-216 1193.38,-216 1193.38,-252"/>
<text text-anchor="middle" x="1092.75" y="-228.95" font-family="Times New Roman,serif" font-size="14.00">Sequence{ node(76) .. node(77) }</text>
<text text-anchor="middle" x="973.75" y="-255.2" font-family="Times New Roman,serif" font-size="14.00">(78)int</text>
</g>
<!-- n97&#45;&gt;n78 -->
<g id="edge24" class="edge">
<title>n97&#45;&gt;n78</title>
<path fill="none" stroke="black" d="M1188.34,-287.51C1170.65,-277.79 1151.08,-267.04 1134.27,-257.81"/>
<polygon fill="black" stroke="black" points="1135.99,-254.76 1125.54,-253.01 1132.62,-260.89 1135.99,-254.76"/>
</g>
<!-- n79 -->
<g id="node26" class="node">
<title>n79</title>
<polygon fill="none" stroke="black" points="1267.62,-252 1211.88,-252 1211.88,-216 1267.62,-216 1267.62,-252"/>
<text text-anchor="middle" x="1239.75" y="-228.95" font-family="Times New Roman,serif" font-size="14.00">it2 : int</text>
<text text-anchor="middle" x="1193.5" y="-255.2" font-family="Times New Roman,serif" font-size="14.00">(79)int</text>
</g>
<!-- n97&#45;&gt;n79 -->
<g id="edge25" class="edge">
<title>n97&#45;&gt;n79</title>
<path fill="none" stroke="black" d="M1239.75,-287.51C1239.75,-279.75 1239.75,-271.33 1239.75,-263.55"/>
<polygon fill="black" stroke="black" points="1243.25,-263.56 1239.75,-253.56 1236.25,-263.56 1243.25,-263.56"/>
</g>
<!-- n82 -->
<g id="node27" class="node">
<title>n82</title>
<polygon fill="none" stroke="black" points="1339.75,-252 1285.75,-252 1285.75,-216 1339.75,-216 1339.75,-252"/>
<text text-anchor="middle" x="1312.75" y="-228.95" font-family="Times New Roman,serif" font-size="14.00">=</text>
<text text-anchor="middle" x="1252" y="-255.2" font-family="Times New Roman,serif" font-size="14.00">(82)Boolean</text>
</g>
<!-- n97&#45;&gt;n82 -->
<g id="edge26" class="edge">
<title>n97&#45;&gt;n82</title>
<path fill="none" stroke="black" d="M1265.28,-287.51C1273.22,-278.73 1281.91,-269.11 1289.67,-260.53"/>
<polygon fill="black" stroke="black" points="1292.22,-262.93 1296.33,-253.17 1287.02,-258.24 1292.22,-262.93"/>
</g>
<!-- n96 -->
<g id="node28" class="node">
<title>n96</title>
<polygon fill="none" stroke="black" points="1443.75,-252 1389.75,-252 1389.75,-216 1443.75,-216 1443.75,-252"/>
<text text-anchor="middle" x="1416.75" y="-228.95" font-family="Times New Roman,serif" font-size="14.00">=</text>
<text text-anchor="middle" x="1356" y="-255.2" font-family="Times New Roman,serif" font-size="14.00">(96)Boolean</text>
</g>
<!-- n97&#45;&gt;n96 -->
<g id="edge27" class="edge">
<title>n97&#45;&gt;n96</title>
<path fill="none" stroke="black" d="M1301.66,-287.51C1327.36,-275.78 1356.36,-262.55 1378.82,-252.3"/>
<polygon fill="black" stroke="black" points="1380.25,-255.5 1387.9,-248.16 1377.35,-249.13 1380.25,-255.5"/>
</g>
<!-- n57 -->
<g id="node29" class="node">
<title>n57</title>
<polygon fill="none" stroke="black" points="208.75,-180 154.75,-180 154.75,-144 208.75,-144 208.75,-180"/>
<text text-anchor="middle" x="181.75" y="-156.95" font-family="Times New Roman,serif" font-size="14.00">arg</text>
<text text-anchor="middle" x="124.75" y="-183.2" font-family="Times New Roman,serif" font-size="14.00">(57)Matrix</text>
</g>
<!-- n58&#45;&gt;n57 -->
<g id="edge28" class="edge">
<title>n58&#45;&gt;n57</title>
<path fill="none" stroke="black" d="M181.75,-215.7C181.75,-208.41 181.75,-199.73 181.75,-191.54"/>
<polygon fill="black" stroke="black" points="185.25,-191.62 181.75,-181.62 178.25,-191.62 185.25,-191.62"/>
</g>
<!-- n63 -->
<g id="node30" class="node">
<title>n63</title>
<polygon fill="none" stroke="black" points="499.75,-180 445.75,-180 445.75,-144 499.75,-144 499.75,-180"/>
<text text-anchor="middle" x="472.75" y="-156.95" font-family="Times New Roman,serif" font-size="14.00">arg</text>
<text text-anchor="middle" x="415.75" y="-183.2" font-family="Times New Roman,serif" font-size="14.00">(63)Matrix</text>
</g>
<!-- n64&#45;&gt;n63 -->
<g id="edge29" class="edge">
<title>n64&#45;&gt;n63</title>
<path fill="none" stroke="black" d="M472.75,-215.7C472.75,-208.41 472.75,-199.73 472.75,-191.54"/>
<polygon fill="black" stroke="black" points="476.25,-191.62 472.75,-181.62 469.25,-191.62 476.25,-191.62"/>
</g>
<!-- n76 -->
<g id="node31" class="node">
<title>n76</title>
<polygon fill="none" stroke="black" points="1063.75,-180 1009.75,-180 1009.75,-144 1063.75,-144 1063.75,-180"/>
<text text-anchor="middle" x="1036.75" y="-156.95" font-family="Times New Roman,serif" font-size="14.00">1</text>
<text text-anchor="middle" x="991.38" y="-183.2" font-family="Times New Roman,serif" font-size="14.00">(76)int</text>
</g>
<!-- n78&#45;&gt;n76 -->
<g id="edge30" class="edge">
<title>n78&#45;&gt;n76</title>
<path fill="none" stroke="black" d="M1078.91,-215.7C1072.46,-207.64 1064.67,-197.89 1057.54,-188.98"/>
<polygon fill="black" stroke="black" points="1060.36,-186.91 1051.38,-181.29 1054.89,-191.28 1060.36,-186.91"/>
</g>
<!-- n77 -->
<g id="node32" class="node">
<title>n77</title>
<polygon fill="none" stroke="black" points="1135.75,-180 1081.75,-180 1081.75,-144 1135.75,-144 1135.75,-180"/>
<text text-anchor="middle" x="1108.75" y="-156.95" font-family="Times New Roman,serif" font-size="14.00">dim2</text>
<text text-anchor="middle" x="1063.38" y="-183.2" font-family="Times New Roman,serif" font-size="14.00">(77)int</text>
</g>
<!-- n78&#45;&gt;n77 -->
<g id="edge31" class="edge">
<title>n78&#45;&gt;n77</title>
<path fill="none" stroke="black" d="M1096.71,-215.7C1098.39,-208.32 1100.4,-199.52 1102.29,-191.25"/>
<polygon fill="black" stroke="black" points="1105.69,-192.11 1104.5,-181.58 1098.86,-190.55 1105.69,-192.11"/>
</g>
<!-- n81 -->
<g id="node33" class="node">
<title>n81</title>
<polygon fill="none" stroke="black" points="1267.25,-180 1170.25,-180 1170.25,-144 1267.25,-144 1267.25,-180"/>
<text text-anchor="middle" x="1218.75" y="-156.95" font-family="Times New Roman,serif" font-size="14.00">acc2 : Boolean</text>
<text text-anchor="middle" x="1136.5" y="-183.2" font-family="Times New Roman,serif" font-size="14.00">(81)Boolean</text>
</g>
<!-- n82&#45;&gt;n81 -->
<g id="edge32" class="edge">
<title>n82&#45;&gt;n81</title>
<path fill="none" stroke="black" d="M1289.51,-215.7C1277.88,-207.03 1263.6,-196.4 1250.93,-186.96"/>
<polygon fill="black" stroke="black" points="1253.37,-184.42 1243.26,-181.25 1249.19,-190.03 1253.37,-184.42"/>
</g>
<!-- n80 -->
<g id="node34" class="node">
<title>n80</title>
<polygon fill="none" stroke="black" points="1339.75,-180 1285.75,-180 1285.75,-144 1339.75,-144 1339.75,-180"/>
<text text-anchor="middle" x="1312.75" y="-156.95" font-family="Times New Roman,serif" font-size="14.00">true</text>
<text text-anchor="middle" x="1252" y="-183.2" font-family="Times New Roman,serif" font-size="14.00">(80)Boolean</text>
</g>
<!-- n82&#45;&gt;n80 -->
<g id="edge33" class="edge">
<title>n82&#45;&gt;n80</title>
<path fill="none" stroke="black" d="M1312.75,-215.7C1312.75,-208.41 1312.75,-199.73 1312.75,-191.54"/>
<polygon fill="black" stroke="black" points="1316.25,-191.62 1312.75,-181.62 1309.25,-191.62 1316.25,-191.62"/>
</g>
<!-- n86 -->
<g id="node35" class="node">
<title>n86</title>
<polygon fill="none" stroke="black" points="1475.38,-180 1358.12,-180 1358.12,-144 1475.38,-144 1475.38,-180"/>
<text text-anchor="middle" x="1416.75" y="-156.95" font-family="Times New Roman,serif" font-size="14.00">result.datas[it][it2]</text>
<text text-anchor="middle" x="1339.75" y="-183.2" font-family="Times New Roman,serif" font-size="14.00">(86)int</text>
</g>
<!-- n96&#45;&gt;n86 -->
<g id="edge34" class="edge">
<title>n96&#45;&gt;n86</title>
<path fill="none" stroke="black" d="M1416.75,-215.7C1416.75,-208.41 1416.75,-199.73 1416.75,-191.54"/>
<polygon fill="black" stroke="black" points="1420.25,-191.62 1416.75,-181.62 1413.25,-191.62 1420.25,-191.62"/>
</g>
<!-- n95 -->
<g id="node36" class="node">
<title>n95</title>
<polygon fill="none" stroke="black" points="1580.75,-180 1526.75,-180 1526.75,-144 1580.75,-144 1580.75,-180"/>
<text text-anchor="middle" x="1553.75" y="-156.95" font-family="Times New Roman,serif" font-size="14.00">&#45;</text>
<text text-anchor="middle" x="1508.38" y="-183.2" font-family="Times New Roman,serif" font-size="14.00">(95)int</text>
</g>
<!-- n96&#45;&gt;n95 -->
<g id="edge35" class="edge">
<title>n96&#45;&gt;n95</title>
<path fill="none" stroke="black" d="M1444.14,-219C1464.87,-208.42 1493.55,-193.76 1516.38,-182.1"/>
<polygon fill="black" stroke="black" points="1517.74,-185.33 1525.05,-177.66 1514.56,-179.09 1517.74,-185.33"/>
</g>
<!-- n83 -->
<g id="node37" class="node">
<title>n83</title>
<polygon fill="none" stroke="black" points="1338.75,-108 1284.75,-108 1284.75,-72 1338.75,-72 1338.75,-108"/>
<text text-anchor="middle" x="1311.75" y="-84.95" font-family="Times New Roman,serif" font-size="14.00">result</text>
<text text-anchor="middle" x="1254.75" y="-111.2" font-family="Times New Roman,serif" font-size="14.00">(83)Matrix</text>
</g>
<!-- n86&#45;&gt;n83 -->
<g id="edge36" class="edge">
<title>n86&#45;&gt;n83</title>
<path fill="none" stroke="black" d="M1390.52,-143.52C1377.4,-134.76 1361.32,-124.04 1347.11,-114.58"/>
<polygon fill="black" stroke="black" points="1349.16,-111.73 1338.9,-109.1 1345.28,-117.56 1349.16,-111.73"/>
</g>
<!-- n84 -->
<g id="node38" class="node">
<title>n84</title>
<polygon fill="none" stroke="black" points="1410.75,-108 1356.75,-108 1356.75,-72 1410.75,-72 1410.75,-108"/>
<text text-anchor="middle" x="1383.75" y="-84.95" font-family="Times New Roman,serif" font-size="14.00">it</text>
<text text-anchor="middle" x="1338.38" y="-111.2" font-family="Times New Roman,serif" font-size="14.00">(84)int</text>
</g>
<!-- n86&#45;&gt;n84 -->
<g id="edge37" class="edge">
<title>n86&#45;&gt;n84</title>
<path fill="none" stroke="black" d="M1408.59,-143.7C1405,-136.07 1400.68,-126.92 1396.67,-118.4"/>
<polygon fill="black" stroke="black" points="1399.89,-117.03 1392.46,-109.47 1393.56,-120.01 1399.89,-117.03"/>
</g>
<!-- n85 -->
<g id="node39" class="node">
<title>n85</title>
<polygon fill="none" stroke="black" points="1482.75,-108 1428.75,-108 1428.75,-72 1482.75,-72 1482.75,-108"/>
<text text-anchor="middle" x="1455.75" y="-84.95" font-family="Times New Roman,serif" font-size="14.00">it2</text>
<text text-anchor="middle" x="1410.38" y="-111.2" font-family="Times New Roman,serif" font-size="14.00">(85)int</text>
</g>
<!-- n86&#45;&gt;n85 -->
<g id="edge38" class="edge">
<title>n86&#45;&gt;n85</title>
<path fill="none" stroke="black" d="M1426.39,-143.7C1430.69,-135.98 1435.85,-126.71 1440.64,-118.11"/>
<polygon fill="black" stroke="black" points="1443.67,-119.87 1445.48,-109.43 1437.56,-116.46 1443.67,-119.87"/>
</g>
<!-- n90 -->
<g id="node40" class="node">
<title>n90</title>
<polygon fill="none" stroke="black" points="1607.12,-108 1500.38,-108 1500.38,-72 1607.12,-72 1607.12,-108"/>
<text text-anchor="middle" x="1553.75" y="-84.95" font-family="Times New Roman,serif" font-size="14.00">self.datas[it][it2]</text>
<text text-anchor="middle" x="1482" y="-111.2" font-family="Times New Roman,serif" font-size="14.00">(90)int</text>
</g>
<!-- n95&#45;&gt;n90 -->
<g id="edge39" class="edge">
<title>n95&#45;&gt;n90</title>
<path fill="none" stroke="black" d="M1553.75,-143.7C1553.75,-136.41 1553.75,-127.73 1553.75,-119.54"/>
<polygon fill="black" stroke="black" points="1557.25,-119.62 1553.75,-109.62 1550.25,-119.62 1557.25,-119.62"/>
</g>
<!-- n94 -->
<g id="node41" class="node">
<title>n94</title>
<polygon fill="none" stroke="black" points="1776,-108 1671.5,-108 1671.5,-72 1776,-72 1776,-108"/>
<text text-anchor="middle" x="1723.75" y="-84.95" font-family="Times New Roman,serif" font-size="14.00">arg.datas[it][it2]</text>
<text text-anchor="middle" x="1653.12" y="-111.2" font-family="Times New Roman,serif" font-size="14.00">(94)int</text>
</g>
<!-- n95&#45;&gt;n94 -->
<g id="edge40" class="edge">
<title>n95&#45;&gt;n94</title>
<path fill="none" stroke="black" d="M1581.06,-149.75C1605.33,-139.76 1641.47,-124.88 1671.3,-112.6"/>
<polygon fill="black" stroke="black" points="1672.25,-115.99 1680.16,-108.95 1669.58,-109.52 1672.25,-115.99"/>
</g>
<!-- n87 -->
<g id="node42" class="node">
<title>n87</title>
<polygon fill="none" stroke="black" points="1472.75,-36 1418.75,-36 1418.75,0 1472.75,0 1472.75,-36"/>
<text text-anchor="middle" x="1445.75" y="-12.95" font-family="Times New Roman,serif" font-size="14.00">self</text>
<text text-anchor="middle" x="1388.75" y="-39.2" font-family="Times New Roman,serif" font-size="14.00">(87)Matrix</text>
</g>
<!-- n90&#45;&gt;n87 -->
<g id="edge41" class="edge">
<title>n90&#45;&gt;n87</title>
<path fill="none" stroke="black" d="M1526.78,-71.52C1513.14,-62.68 1496.41,-51.84 1481.7,-42.3"/>
<polygon fill="black" stroke="black" points="1483.95,-39.59 1473.65,-37.08 1480.14,-45.46 1483.95,-39.59"/>
</g>
<!-- n88 -->
<g id="node43" class="node">
<title>n88</title>
<polygon fill="none" stroke="black" points="1544.75,-36 1490.75,-36 1490.75,0 1544.75,0 1544.75,-36"/>
<text text-anchor="middle" x="1517.75" y="-12.95" font-family="Times New Roman,serif" font-size="14.00">it</text>
<text text-anchor="middle" x="1472.38" y="-39.2" font-family="Times New Roman,serif" font-size="14.00">(88)int</text>
</g>
<!-- n90&#45;&gt;n88 -->
<g id="edge42" class="edge">
<title>n90&#45;&gt;n88</title>
<path fill="none" stroke="black" d="M1544.85,-71.7C1540.88,-63.98 1536.12,-54.71 1531.69,-46.11"/>
<polygon fill="black" stroke="black" points="1534.92,-44.74 1527.24,-37.45 1528.7,-47.94 1534.92,-44.74"/>
</g>
<!-- n89 -->
<g id="node44" class="node">
<title>n89</title>
<polygon fill="none" stroke="black" points="1616.75,-36 1562.75,-36 1562.75,0 1616.75,0 1616.75,-36"/>
<text text-anchor="middle" x="1589.75" y="-12.95" font-family="Times New Roman,serif" font-size="14.00">it2</text>
<text text-anchor="middle" x="1544.38" y="-39.2" font-family="Times New Roman,serif" font-size="14.00">(89)int</text>
</g>
<!-- n90&#45;&gt;n89 -->
<g id="edge43" class="edge">
<title>n90&#45;&gt;n89</title>
<path fill="none" stroke="black" d="M1562.65,-71.7C1566.62,-63.98 1571.38,-54.71 1575.81,-46.11"/>
<polygon fill="black" stroke="black" points="1578.8,-47.94 1580.26,-37.45 1572.58,-44.74 1578.8,-47.94"/>
</g>
<!-- n91 -->
<g id="node45" class="node">
<title>n91</title>
<polygon fill="none" stroke="black" points="1688.75,-36 1634.75,-36 1634.75,0 1688.75,0 1688.75,-36"/>
<text text-anchor="middle" x="1661.75" y="-12.95" font-family="Times New Roman,serif" font-size="14.00">arg</text>
<text text-anchor="middle" x="1604.75" y="-39.2" font-family="Times New Roman,serif" font-size="14.00">(91)Matrix</text>
</g>
<!-- n94&#45;&gt;n91 -->
<g id="edge44" class="edge">
<title>n94&#45;&gt;n91</title>
<path fill="none" stroke="black" d="M1708.42,-71.7C1701.22,-63.56 1692.47,-53.69 1684.51,-44.7"/>
<polygon fill="black" stroke="black" points="1687.15,-42.4 1677.9,-37.24 1681.91,-47.04 1687.15,-42.4"/>
</g>
<!-- n92 -->
<g id="node46" class="node">
<title>n92</title>
<polygon fill="none" stroke="black" points="1760.75,-36 1706.75,-36 1706.75,0 1760.75,0 1760.75,-36"/>
<text text-anchor="middle" x="1733.75" y="-12.95" font-family="Times New Roman,serif" font-size="14.00">it</text>
<text text-anchor="middle" x="1688.38" y="-39.2" font-family="Times New Roman,serif" font-size="14.00">(92)int</text>
</g>
<!-- n94&#45;&gt;n92 -->
<g id="edge45" class="edge">
<title>n94&#45;&gt;n92</title>
<path fill="none" stroke="black" d="M1726.22,-71.7C1727.28,-64.32 1728.53,-55.52 1729.71,-47.25"/>
<polygon fill="black" stroke="black" points="1733.14,-48 1731.09,-37.6 1726.21,-47.01 1733.14,-48"/>
</g>
<!-- n93 -->
<g id="node47" class="node">
<title>n93</title>
<polygon fill="none" stroke="black" points="1832.75,-36 1778.75,-36 1778.75,0 1832.75,0 1832.75,-36"/>
<text text-anchor="middle" x="1805.75" y="-12.95" font-family="Times New Roman,serif" font-size="14.00">it2</text>
<text text-anchor="middle" x="1760.38" y="-39.2" font-family="Times New Roman,serif" font-size="14.00">(93)int</text>
</g>
<!-- n94&#45;&gt;n93 -->
<g id="edge46" class="edge">
<title>n94&#45;&gt;n93</title>
<path fill="none" stroke="black" d="M1744.02,-71.7C1753.88,-63.28 1765.9,-53.02 1776.71,-43.79"/>
<polygon fill="black" stroke="black" points="1778.94,-46.48 1784.28,-37.33 1774.4,-41.16 1778.94,-46.48"/>
</g>
</g>
</svg>
