<?xml version="1.0" encoding="UTF-8" standalone="no"?>
<!DOCTYPE svg PUBLIC "-//W3C//DTD SVG 1.1//EN"
 "http://www.w3.org/Graphics/SVG/1.1/DTD/svg11.dtd">
<!-- Generated by graphviz version 12.2.1 (20241206.2353)
 -->
<!-- Title: CLG Pages: 1 -->
<svg width="1283pt" height="2828pt"
 viewBox="0.00 0.00 1283.38 2827.50" xmlns="http://www.w3.org/2000/svg" xmlns:xlink="http://www.w3.org/1999/xlink">
<g id="graph0" class="graph" transform="scale(1 1) rotate(0) translate(4 2823.5)">
<title>CLG</title>
<polygon fill="white" stroke="none" points="-4,4 -4,-2823.5 1279.38,-2823.5 1279.38,4 -4,4"/>
<!-- 257 -->
<g id="node1" class="node">
<title>257</title>
<polygon fill="yellow" stroke="black" points="271.88,-1298.7 142.62,-1298.7 142.62,-1262.7 271.88,-1262.7 271.88,-1298.7"/>
<text text-anchor="middle" x="207.25" y="-1275.65" font-family="Times New Roman,serif" font-size="14.00">Index0 = Index0 + 1</text>
<text text-anchor="middle" x="128" y="-1301.9" font-family="Times New Roman,serif" font-size="14.00">[257]</text>
</g>
<!-- 259 -->
<g id="node2" class="node">
<title>259</title>
<polygon fill="aquamarine" stroke="black" points="328.25,-1210.2 321.05,-1203 328.25,-1195.8 335.45,-1203 328.25,-1210.2"/>
<text text-anchor="middle" x="302.68" y="-1213.4" font-family="Times New Roman,serif" font-size="14.00">&lt;259&gt;</text>
</g>
<!-- 257&#45;&gt;259 -->
<g id="edge19" class="edge">
<title>257&#45;&gt;259</title>
<path fill="none" stroke="black" d="M222.62,-1262.56C233.23,-1251.55 248.14,-1237.6 263.5,-1228.2 278.86,-1218.8 298.46,-1212.1 312.05,-1208.17"/>
<polygon fill="black" stroke="black" points="312.7,-1211.62 321.44,-1205.65 310.88,-1204.86 312.7,-1211.62"/>
<text text-anchor="middle" x="293.88" y="-1231.4" font-family="Times New Roman,serif" font-size="14.00">iterate#286</text>
</g>
<!-- 207 -->
<g id="node34" class="node">
<title>207</title>
<polygon fill="yellow" stroke="black" points="551.38,-1143.3 431.12,-1143.3 431.12,-1107.3 551.38,-1107.3 551.38,-1143.3"/>
<text text-anchor="middle" x="491.25" y="-1120.25" font-family="Times New Roman,serif" font-size="14.00">Index0 &gt; d1 &#45; 1+ 1</text>
<text text-anchor="middle" x="416.5" y="-1146.5" font-family="Times New Roman,serif" font-size="14.00">[207]</text>
</g>
<!-- 259&#45;&gt;207 -->
<g id="edge20" class="edge">
<title>259&#45;&gt;207</title>
<path fill="none" stroke="black" d="M333.4,-1200.33C344.5,-1196.68 371.48,-1187.52 393.25,-1177.8 412.47,-1169.22 433.18,-1158.55 450.58,-1149.16"/>
<polygon fill="black" stroke="black" points="451.98,-1152.38 459.09,-1144.52 448.63,-1146.24 451.98,-1152.38"/>
<text text-anchor="middle" x="466.66" y="-1164.5" font-family="Times New Roman,serif" font-size="14.00">graphAnd#288</text>
</g>
<!-- 210 -->
<g id="node35" class="node">
<title>210</title>
<polygon fill="yellow" stroke="black" points="392.5,-1143.3 264,-1143.3 264,-1107.3 392.5,-1107.3 392.5,-1143.3"/>
<text text-anchor="middle" x="328.25" y="-1120.25" font-family="Times New Roman,serif" font-size="14.00">Index0 &lt;= d1 &#45; 1+ 1</text>
<text text-anchor="middle" x="249.38" y="-1146.5" font-family="Times New Roman,serif" font-size="14.00">[210]</text>
</g>
<!-- 259&#45;&gt;210 -->
<g id="edge18" class="edge">
<title>259&#45;&gt;210</title>
<path fill="none" stroke="black" d="M328.25,-1195.28C328.25,-1186.2 328.25,-1169.45 328.25,-1154.73"/>
<polygon fill="black" stroke="black" points="331.75,-1155.06 328.25,-1145.06 324.75,-1155.06 331.75,-1155.06"/>
<text text-anchor="middle" x="358.62" y="-1164.5" font-family="Times New Roman,serif" font-size="14.00">iterate#285</text>
</g>
<!-- 260 -->
<g id="node3" class="node">
<title>260</title>
<ellipse fill="black" stroke="black" cx="530.25" cy="-2795.8" rx="7.2" ry="7.2"/>
<text text-anchor="middle" x="515.17" y="-2806.2" font-family="Times New Roman,serif" font-size="14.00">[0]</text>
</g>
<!-- 261 -->
<g id="node4" class="node">
<title>261</title>
<polygon fill="yellow" stroke="black" points="634.62,-2751.6 425.88,-2751.6 425.88,-2715.6 634.62,-2715.6 634.62,-2751.6"/>
<text text-anchor="middle" x="530.25" y="-2728.55" font-family="Times New Roman,serif" font-size="14.00">self.data.getDimensionSizes(1) &gt; 0</text>
<text text-anchor="middle" x="411.25" y="-2754.8" font-family="Times New Roman,serif" font-size="14.00">[261]</text>
</g>
<!-- 260&#45;&gt;261 -->
<g id="edge26" class="edge">
<title>260&#45;&gt;261</title>
<path fill="none" stroke="black" d="M530.25,-2788.36C530.25,-2782.3 530.25,-2772.79 530.25,-2763.44"/>
<polygon fill="black" stroke="black" points="533.75,-2763.48 530.25,-2753.48 526.75,-2763.48 533.75,-2763.48"/>
</g>
<!-- 264 -->
<g id="node5" class="node">
<title>264</title>
<polygon fill="yellow" stroke="black" points="634.62,-2663.1 425.88,-2663.1 425.88,-2627.1 634.62,-2627.1 634.62,-2663.1"/>
<text text-anchor="middle" x="530.25" y="-2640.05" font-family="Times New Roman,serif" font-size="14.00">self.data.getDimensionSizes(2) &gt; 0</text>
<text text-anchor="middle" x="411.25" y="-2666.3" font-family="Times New Roman,serif" font-size="14.00">[264]</text>
</g>
<!-- 261&#45;&gt;264 -->
<g id="edge28" class="edge">
<title>261&#45;&gt;264</title>
<path fill="none" stroke="black" d="M530.25,-2715.51C530.25,-2703.86 530.25,-2688.15 530.25,-2674.62"/>
<polygon fill="black" stroke="black" points="533.75,-2674.96 530.25,-2664.96 526.75,-2674.96 533.75,-2674.96"/>
<text text-anchor="middle" x="570.75" y="-2684.3" font-family="Times New Roman,serif" font-size="14.00">graphAnd#298</text>
</g>
<!-- 267 -->
<g id="node6" class="node">
<title>267</title>
<polygon fill="yellow" stroke="black" points="634.62,-2574.6 425.88,-2574.6 425.88,-2538.6 634.62,-2538.6 634.62,-2574.6"/>
<text text-anchor="middle" x="530.25" y="-2551.55" font-family="Times New Roman,serif" font-size="14.00">self.data.getDimensionSizes(3) &gt; 0</text>
<text text-anchor="middle" x="411.25" y="-2577.8" font-family="Times New Roman,serif" font-size="14.00">[267]</text>
</g>
<!-- 264&#45;&gt;267 -->
<g id="edge32" class="edge">
<title>264&#45;&gt;267</title>
<path fill="none" stroke="black" d="M530.25,-2627.01C530.25,-2615.36 530.25,-2599.65 530.25,-2586.12"/>
<polygon fill="black" stroke="black" points="533.75,-2586.46 530.25,-2576.46 526.75,-2586.46 533.75,-2586.46"/>
<text text-anchor="middle" x="570.75" y="-2595.8" font-family="Times New Roman,serif" font-size="14.00">graphAnd#301</text>
</g>
<!-- 269 -->
<g id="node7" class="node">
<title>269</title>
<polygon fill="aquamarine" stroke="black" points="530.25,-2486.1 523.05,-2478.9 530.25,-2471.7 537.45,-2478.9 530.25,-2486.1"/>
<text text-anchor="middle" x="504.68" y="-2489.3" font-family="Times New Roman,serif" font-size="14.00">&lt;269&gt;</text>
</g>
<!-- 267&#45;&gt;269 -->
<g id="edge41" class="edge">
<title>267&#45;&gt;269</title>
<path fill="none" stroke="black" d="M530.25,-2538.42C530.25,-2526.38 530.25,-2510.3 530.25,-2498.05"/>
<polygon fill="black" stroke="black" points="533.75,-2498.14 530.25,-2488.14 526.75,-2498.14 533.75,-2498.14"/>
<text text-anchor="middle" x="570.75" y="-2507.3" font-family="Times New Roman,serif" font-size="14.00">graphAnd#308</text>
</g>
<!-- 162 -->
<g id="node17" class="node">
<title>162</title>
<polygon fill="aquamarine" stroke="black" points="670.25,-2408.4 663.05,-2401.2 670.25,-2394 677.45,-2401.2 670.25,-2408.4"/>
<text text-anchor="middle" x="644.67" y="-2411.6" font-family="Times New Roman,serif" font-size="14.00">&lt;162&gt;</text>
</g>
<!-- 269&#45;&gt;162 -->
<g id="edge34" class="edge">
<title>269&#45;&gt;162</title>
<path fill="none" stroke="black" d="M534.59,-2475.55C553.01,-2465.59 625.12,-2426.6 656.04,-2409.88"/>
<polygon fill="black" stroke="black" points="657.49,-2413.08 664.63,-2405.24 654.16,-2406.92 657.49,-2413.08"/>
<text text-anchor="middle" x="632.95" y="-2440.4" font-family="Times New Roman,serif" font-size="14.00">split2#304</text>
</g>
<!-- 168 -->
<g id="node21" class="node">
<title>168</title>
<polygon fill="yellow" stroke="black" points="575,-2419.2 275.5,-2419.2 275.5,-2383.2 575,-2383.2 575,-2419.2"/>
<text text-anchor="middle" x="425.25" y="-2396.15" font-family="Times New Roman,serif" font-size="14.00">self.data.getDimension() = arg.data.getDimension()</text>
<text text-anchor="middle" x="260.88" y="-2422.4" font-family="Times New Roman,serif" font-size="14.00">[168]</text>
</g>
<!-- 269&#45;&gt;168 -->
<g id="edge33" class="edge">
<title>269&#45;&gt;168</title>
<path fill="none" stroke="black" d="M526.26,-2475.02C515.23,-2467.07 483.49,-2444.19 458.5,-2426.17"/>
<polygon fill="black" stroke="black" points="460.7,-2423.44 450.54,-2420.43 456.61,-2429.12 460.7,-2423.44"/>
<text text-anchor="middle" x="524.79" y="-2440.4" font-family="Times New Roman,serif" font-size="14.00">split1#303</text>
</g>
<!-- 270 -->
<g id="node8" class="node">
<title>270</title>
<polygon fill="aquamarine" stroke="black" points="543.25,-1044 536.05,-1036.8 543.25,-1029.6 550.45,-1036.8 543.25,-1044"/>
<text text-anchor="middle" x="517.67" y="-1047.2" font-family="Times New Roman,serif" font-size="14.00">&lt;270&gt;</text>
</g>
<!-- 166 -->
<g id="node20" class="node">
<title>166</title>
<ellipse fill="black" stroke="black" cx="543.25" cy="-948.3" rx="7.2" ry="7.2"/>
<ellipse fill="none" stroke="black" cx="543.25" cy="-948.3" rx="11.2" ry="11.2"/>
<text text-anchor="middle" x="521.92" y="-962.7" font-family="Times New Roman,serif" font-size="14.00">[&#45;1]</text>
</g>
<!-- 270&#45;&gt;166 -->
<g id="edge39" class="edge">
<title>270&#45;&gt;166</title>
<path fill="none" stroke="black" d="M543.25,-1029.01C543.25,-1016.72 543.25,-990.29 543.25,-971.23"/>
<polygon fill="black" stroke="black" points="546.75,-971.24 543.25,-961.24 539.75,-971.24 546.75,-971.24"/>
<text text-anchor="middle" x="592.38" y="-987.5" font-family="Times New Roman,serif" font-size="14.00">graphOr_end#307</text>
</g>
<!-- 147 -->
<g id="node9" class="node">
<title>147</title>
<polygon fill="yellow" stroke="black" points="1159.12,-2114.7 851.38,-2114.7 851.38,-2078.7 1159.12,-2078.7 1159.12,-2114.7"/>
<text text-anchor="middle" x="1005.25" y="-2091.65" font-family="Times New Roman,serif" font-size="14.00">self.data.getDimension() &lt;&gt; arg.data.getDimension()</text>
<text text-anchor="middle" x="836.75" y="-2117.9" font-family="Times New Roman,serif" font-size="14.00">[147]</text>
</g>
<!-- 153 -->
<g id="node12" class="node">
<title>153</title>
<polygon fill="aquamarine" stroke="black" points="644.25,-2015.4 637.05,-2008.2 644.25,-2001 651.45,-2008.2 644.25,-2015.4"/>
<text text-anchor="middle" x="618.67" y="-2018.6" font-family="Times New Roman,serif" font-size="14.00">&lt;153&gt;</text>
</g>
<!-- 147&#45;&gt;153 -->
<g id="edge30" class="edge">
<title>147&#45;&gt;153</title>
<path fill="none" stroke="black" d="M932.63,-2078.3C846.24,-2057.6 707.78,-2024.42 660.61,-2013.12"/>
<polygon fill="black" stroke="black" points="661.65,-2009.77 651.11,-2010.84 660.02,-2016.58 661.65,-2009.77"/>
<text text-anchor="middle" x="891.21" y="-2047.4" font-family="Times New Roman,serif" font-size="14.00">merge1#171</text>
</g>
<!-- 150 -->
<g id="node10" class="node">
<title>150</title>
<polygon fill="yellow" stroke="black" points="833.38,-2114.7 455.12,-2114.7 455.12,-2078.7 833.38,-2078.7 833.38,-2114.7"/>
<text text-anchor="middle" x="644.25" y="-2091.65" font-family="Times New Roman,serif" font-size="14.00">self.data.getDimensionSizes(1) &lt;&gt; arg.data.getDimensionSizes(1)</text>
<text text-anchor="middle" x="440.5" y="-2117.9" font-family="Times New Roman,serif" font-size="14.00">[150]</text>
</g>
<!-- 150&#45;&gt;153 -->
<g id="edge31" class="edge">
<title>150&#45;&gt;153</title>
<path fill="none" stroke="black" d="M644.25,-2078.61C644.25,-2063.84 644.25,-2042.53 644.25,-2027.43"/>
<polygon fill="black" stroke="black" points="647.75,-2027.59 644.25,-2017.59 640.75,-2027.59 647.75,-2027.59"/>
<text text-anchor="middle" x="678.38" y="-2047.4" font-family="Times New Roman,serif" font-size="14.00">merge2#172</text>
</g>
<!-- 152 -->
<g id="node11" class="node">
<title>152</title>
<polygon fill="aquamarine" stroke="black" points="701.25,-2211.9 694.05,-2204.7 701.25,-2197.5 708.45,-2204.7 701.25,-2211.9"/>
<text text-anchor="middle" x="675.67" y="-2215.1" font-family="Times New Roman,serif" font-size="14.00">&lt;152&gt;</text>
</g>
<!-- 152&#45;&gt;147 -->
<g id="edge27" class="edge">
<title>152&#45;&gt;147</title>
<path fill="none" stroke="black" d="M706.03,-2202.03C732.68,-2192.74 864.75,-2146.69 944.25,-2118.97"/>
<polygon fill="black" stroke="black" points="945.38,-2122.28 953.67,-2115.68 943.08,-2115.67 945.38,-2122.28"/>
<text text-anchor="middle" x="926.74" y="-2145.65" font-family="Times New Roman,serif" font-size="14.00">split1#169</text>
</g>
<!-- 152&#45;&gt;150 -->
<g id="edge29" class="edge">
<title>152&#45;&gt;150</title>
<path fill="none" stroke="black" d="M700.41,-2197.79C698.39,-2185.09 692.45,-2154.58 679.25,-2132.7 677.34,-2129.54 675.09,-2126.45 672.65,-2123.5"/>
<polygon fill="black" stroke="black" points="675.36,-2121.27 666.02,-2116.25 670.19,-2125.99 675.36,-2121.27"/>
<text text-anchor="middle" x="722.35" y="-2145.65" font-family="Times New Roman,serif" font-size="14.00">split2#170</text>
</g>
<!-- 158 -->
<g id="node15" class="node">
<title>158</title>
<polygon fill="aquamarine" stroke="black" points="638.25,-1926.9 631.05,-1919.7 638.25,-1912.5 645.45,-1919.7 638.25,-1926.9"/>
<text text-anchor="middle" x="612.67" y="-1930.1" font-family="Times New Roman,serif" font-size="14.00">&lt;158&gt;</text>
</g>
<!-- 153&#45;&gt;158 -->
<g id="edge40" class="edge">
<title>153&#45;&gt;158</title>
<path fill="none" stroke="black" d="M643.82,-2000.98C642.92,-1988.01 640.82,-1957.68 639.47,-1938.24"/>
<polygon fill="black" stroke="black" points="642.97,-1938.11 638.78,-1928.37 635.98,-1938.59 642.97,-1938.11"/>
<text text-anchor="middle" x="675.91" y="-1958.9" font-family="Times New Roman,serif" font-size="14.00">merge1#179</text>
</g>
<!-- 155 -->
<g id="node13" class="node">
<title>155</title>
<polygon fill="yellow" stroke="black" points="678.38,-2168.7 300.12,-2168.7 300.12,-2132.7 678.38,-2132.7 678.38,-2168.7"/>
<text text-anchor="middle" x="489.25" y="-2145.65" font-family="Times New Roman,serif" font-size="14.00">self.data.getDimensionSizes(2) &lt;&gt; arg.data.getDimensionSizes(2)</text>
<text text-anchor="middle" x="285.5" y="-2171.9" font-family="Times New Roman,serif" font-size="14.00">[155]</text>
</g>
<!-- 155&#45;&gt;158 -->
<g id="edge42" class="edge">
<title>155&#45;&gt;158</title>
<path fill="none" stroke="black" d="M460.47,-2132.3C454.72,-2127.38 449.47,-2121.48 446.25,-2114.7 439.38,-2100.25 439.42,-2093.17 446.25,-2078.7 484.17,-1998.39 585.15,-1945.11 623.34,-1927.29"/>
<polygon fill="black" stroke="black" points="624.64,-1930.54 632.32,-1923.24 621.77,-1924.16 624.64,-1930.54"/>
<text text-anchor="middle" x="500.79" y="-2047.4" font-family="Times New Roman,serif" font-size="14.00">merge2#180</text>
</g>
<!-- 157 -->
<g id="node14" class="node">
<title>157</title>
<polygon fill="aquamarine" stroke="black" points="670.25,-2319.9 663.05,-2312.7 670.25,-2305.5 677.45,-2312.7 670.25,-2319.9"/>
<text text-anchor="middle" x="644.67" y="-2323.1" font-family="Times New Roman,serif" font-size="14.00">&lt;157&gt;</text>
</g>
<!-- 157&#45;&gt;152 -->
<g id="edge36" class="edge">
<title>157&#45;&gt;152</title>
<path fill="none" stroke="black" d="M671.75,-2306.59C676.17,-2291.44 689.36,-2246.36 696.51,-2221.9"/>
<polygon fill="black" stroke="black" points="699.82,-2223.04 699.27,-2212.46 693.11,-2221.08 699.82,-2223.04"/>
<text text-anchor="middle" x="718.84" y="-2253.65" font-family="Times New Roman,serif" font-size="14.00">split1#177</text>
</g>
<!-- 157&#45;&gt;155 -->
<g id="edge38" class="edge">
<title>157&#45;&gt;155</title>
<path fill="none" stroke="black" d="M666.21,-2309.17C657.51,-2303.66 636.48,-2290 620.25,-2276.7 580.97,-2244.52 539.11,-2203.19 513.56,-2177.06"/>
<polygon fill="black" stroke="black" points="516.4,-2174.96 506.92,-2170.23 511.38,-2179.84 516.4,-2174.96"/>
<text text-anchor="middle" x="648.75" y="-2253.65" font-family="Times New Roman,serif" font-size="14.00">split2#178</text>
</g>
<!-- 163 -->
<g id="node18" class="node">
<title>163</title>
<polygon fill="aquamarine" stroke="black" points="638.25,-1838.4 631.05,-1831.2 638.25,-1824 645.45,-1831.2 638.25,-1838.4"/>
<text text-anchor="middle" x="612.67" y="-1841.6" font-family="Times New Roman,serif" font-size="14.00">&lt;163&gt;</text>
</g>
<!-- 158&#45;&gt;163 -->
<g id="edge45" class="edge">
<title>158&#45;&gt;163</title>
<path fill="none" stroke="black" d="M638.25,-1911.91C638.25,-1898.71 638.25,-1869.19 638.25,-1850.01"/>
<polygon fill="black" stroke="black" points="641.75,-1850.23 638.25,-1840.23 634.75,-1850.23 641.75,-1850.23"/>
<text text-anchor="middle" x="672.38" y="-1870.4" font-family="Times New Roman,serif" font-size="14.00">merge1#187</text>
</g>
<!-- 160 -->
<g id="node16" class="node">
<title>160</title>
<polygon fill="yellow" stroke="black" points="1275.38,-2276.7 897.12,-2276.7 897.12,-2240.7 1275.38,-2240.7 1275.38,-2276.7"/>
<text text-anchor="middle" x="1086.25" y="-2253.65" font-family="Times New Roman,serif" font-size="14.00">self.data.getDimensionSizes(3) &lt;&gt; arg.data.getDimensionSizes(3)</text>
<text text-anchor="middle" x="882.5" y="-2279.9" font-family="Times New Roman,serif" font-size="14.00">[160]</text>
</g>
<!-- 160&#45;&gt;163 -->
<g id="edge46" class="edge">
<title>160&#45;&gt;163</title>
<path fill="none" stroke="black" d="M1119.88,-2240.31C1149.26,-2222.43 1187.25,-2191.61 1187.25,-2151.7 1187.25,-2151.7 1187.25,-2151.7 1187.25,-1918.7 1187.25,-1863.64 750.73,-1837.99 656.17,-1833.09"/>
<polygon fill="black" stroke="black" points="656.47,-1829.6 646.31,-1832.59 656.12,-1836.59 656.47,-1829.6"/>
<text text-anchor="middle" x="1221.38" y="-2047.4" font-family="Times New Roman,serif" font-size="14.00">merge2#188</text>
</g>
<!-- 162&#45;&gt;157 -->
<g id="edge43" class="edge">
<title>162&#45;&gt;157</title>
<path fill="none" stroke="black" d="M670.25,-2393.41C670.25,-2380.21 670.25,-2350.69 670.25,-2331.51"/>
<polygon fill="black" stroke="black" points="673.75,-2331.73 670.25,-2321.73 666.75,-2331.73 673.75,-2331.73"/>
<text text-anchor="middle" x="698.75" y="-2351.9" font-family="Times New Roman,serif" font-size="14.00">split1#185</text>
</g>
<!-- 162&#45;&gt;160 -->
<g id="edge44" class="edge">
<title>162&#45;&gt;160</title>
<path fill="none" stroke="black" d="M675.21,-2398.52C709.87,-2386.82 917.52,-2316.69 1023.74,-2280.81"/>
<polygon fill="black" stroke="black" points="1024.84,-2284.14 1033.19,-2277.62 1022.6,-2277.5 1024.84,-2284.14"/>
<text text-anchor="middle" x="845.18" y="-2351.9" font-family="Times New Roman,serif" font-size="14.00">split2#186</text>
</g>
<!-- 165 -->
<g id="node19" class="node">
<title>165</title>
<polygon fill="yellow" stroke="black" points="689.5,-1706.7 501,-1706.7 501,-1670.7 689.5,-1670.7 689.5,-1706.7"/>
<text text-anchor="middle" x="595.25" y="-1683.65" font-family="Times New Roman,serif" font-size="14.00">Result = &#39;IllegalDimensionSize&#39;</text>
<text text-anchor="middle" x="486.38" y="-1709.9" font-family="Times New Roman,serif" font-size="14.00">[165]</text>
</g>
<!-- 163&#45;&gt;165 -->
<g id="edge24" class="edge">
<title>163&#45;&gt;165</title>
<path fill="none" stroke="black" d="M636.72,-1825.2C631.53,-1808.25 614.35,-1752.09 603.8,-1717.62"/>
<polygon fill="black" stroke="black" points="607.22,-1716.84 600.94,-1708.3 600.52,-1718.88 607.22,-1716.84"/>
<text text-anchor="middle" x="667.87" y="-1781.9" font-family="Times New Roman,serif" font-size="14.00">graphAnd#292</text>
</g>
<!-- 165&#45;&gt;270 -->
<g id="edge37" class="edge">
<title>165&#45;&gt;270</title>
<path fill="none" stroke="black" d="M593.8,-1670.33C592.33,-1651.06 590.25,-1619.06 590.25,-1591.45 590.25,-1591.45 590.25,-1591.45 590.25,-1124.3 590.25,-1100.58 587.84,-1093.49 576.25,-1072.8 570.86,-1063.18 562.26,-1054.18 555.18,-1047.71"/>
<polygon fill="black" stroke="black" points="557.96,-1045.48 548.09,-1041.63 553.4,-1050.79 557.96,-1045.48"/>
<text text-anchor="middle" x="624.38" y="-1364.15" font-family="Times New Roman,serif" font-size="14.00">merge2#306</text>
</g>
<!-- 171 -->
<g id="node22" class="node">
<title>171</title>
<polygon fill="yellow" stroke="black" points="584.25,-2330.7 214.25,-2330.7 214.25,-2294.7 584.25,-2294.7 584.25,-2330.7"/>
<text text-anchor="middle" x="399.25" y="-2307.65" font-family="Times New Roman,serif" font-size="14.00">self.data.getDimensionSizes(1) = arg.data.getDimensionSizes(1)</text>
<text text-anchor="middle" x="199.62" y="-2333.9" font-family="Times New Roman,serif" font-size="14.00">[171]</text>
</g>
<!-- 168&#45;&gt;171 -->
<g id="edge47" class="edge">
<title>168&#45;&gt;171</title>
<path fill="none" stroke="black" d="M420.11,-2383.11C416.58,-2371.34 411.79,-2355.43 407.7,-2341.81"/>
<polygon fill="black" stroke="black" points="411.13,-2341.07 404.9,-2332.5 404.43,-2343.08 411.13,-2341.07"/>
<text text-anchor="middle" x="455.08" y="-2351.9" font-family="Times New Roman,serif" font-size="14.00">graphAnd#196</text>
</g>
<!-- 174 -->
<g id="node23" class="node">
<title>174</title>
<polygon fill="yellow" stroke="black" points="461.25,-2222.7 91.25,-2222.7 91.25,-2186.7 461.25,-2186.7 461.25,-2222.7"/>
<text text-anchor="middle" x="276.25" y="-2199.65" font-family="Times New Roman,serif" font-size="14.00">self.data.getDimensionSizes(2) = arg.data.getDimensionSizes(2)</text>
<text text-anchor="middle" x="76.62" y="-2225.9" font-family="Times New Roman,serif" font-size="14.00">[174]</text>
</g>
<!-- 171&#45;&gt;174 -->
<g id="edge48" class="edge">
<title>171&#45;&gt;174</title>
<path fill="none" stroke="black" d="M379.21,-2294.43C359.02,-2277.03 327.67,-2250.01 304.86,-2230.36"/>
<polygon fill="black" stroke="black" points="307.28,-2227.82 297.42,-2223.95 302.71,-2233.13 307.28,-2227.82"/>
<text text-anchor="middle" x="396.45" y="-2253.65" font-family="Times New Roman,serif" font-size="14.00">graphAnd#199</text>
</g>
<!-- 177 -->
<g id="node24" class="node">
<title>177</title>
<polygon fill="yellow" stroke="black" points="399.25,-2114.7 29.25,-2114.7 29.25,-2078.7 399.25,-2078.7 399.25,-2114.7"/>
<text text-anchor="middle" x="214.25" y="-2091.65" font-family="Times New Roman,serif" font-size="14.00">self.data.getDimensionSizes(3) = arg.data.getDimensionSizes(3)</text>
<text text-anchor="middle" x="14.62" y="-2117.9" font-family="Times New Roman,serif" font-size="14.00">[177]</text>
</g>
<!-- 174&#45;&gt;177 -->
<g id="edge49" class="edge">
<title>174&#45;&gt;177</title>
<path fill="none" stroke="black" d="M228.11,-2186.39C220.99,-2181.74 214.6,-2175.92 210.25,-2168.7 202.64,-2156.05 203.01,-2139.74 205.57,-2125.94"/>
<polygon fill="black" stroke="black" points="208.89,-2127.08 207.76,-2116.55 202.08,-2125.49 208.89,-2127.08"/>
<text text-anchor="middle" x="250.75" y="-2145.65" font-family="Times New Roman,serif" font-size="14.00">graphAnd#202</text>
</g>
<!-- 180 -->
<g id="node25" class="node">
<title>180</title>
<polygon fill="yellow" stroke="black" points="392.38,-2026.2 80.12,-2026.2 80.12,-1990.2 392.38,-1990.2 392.38,-2026.2"/>
<text text-anchor="middle" x="236.25" y="-2003.15" font-family="Times New Roman,serif" font-size="14.00">self.data.getDimension() = result.data.getDimension()</text>
<text text-anchor="middle" x="65.5" y="-2029.4" font-family="Times New Roman,serif" font-size="14.00">[180]</text>
</g>
<!-- 177&#45;&gt;180 -->
<g id="edge25" class="edge">
<title>177&#45;&gt;180</title>
<path fill="none" stroke="black" d="M218.6,-2078.61C221.59,-2066.84 225.64,-2050.93 229.1,-2037.31"/>
<polygon fill="black" stroke="black" points="232.39,-2038.57 231.46,-2028.02 225.61,-2036.85 232.39,-2038.57"/>
<text text-anchor="middle" x="267.72" y="-2047.4" font-family="Times New Roman,serif" font-size="14.00">graphAnd#293</text>
</g>
<!-- 183 -->
<g id="node26" class="node">
<title>183</title>
<polygon fill="yellow" stroke="black" points="429.62,-1937.7 46.88,-1937.7 46.88,-1901.7 429.62,-1901.7 429.62,-1937.7"/>
<text text-anchor="middle" x="238.25" y="-1914.65" font-family="Times New Roman,serif" font-size="14.00">self.data.getDimensionSizes(1) = result.data.getDimensionSizes(1)</text>
<text text-anchor="middle" x="32.25" y="-1940.9" font-family="Times New Roman,serif" font-size="14.00">[183]</text>
</g>
<!-- 180&#45;&gt;183 -->
<g id="edge50" class="edge">
<title>180&#45;&gt;183</title>
<path fill="none" stroke="black" d="M236.65,-1990.11C236.91,-1978.46 237.28,-1962.75 237.59,-1949.22"/>
<polygon fill="black" stroke="black" points="241.08,-1949.64 237.81,-1939.56 234.08,-1949.48 241.08,-1949.64"/>
<text text-anchor="middle" x="277.93" y="-1958.9" font-family="Times New Roman,serif" font-size="14.00">graphAnd#207</text>
</g>
<!-- 186 -->
<g id="node27" class="node">
<title>186</title>
<polygon fill="yellow" stroke="black" points="432.62,-1849.2 49.88,-1849.2 49.88,-1813.2 432.62,-1813.2 432.62,-1849.2"/>
<text text-anchor="middle" x="241.25" y="-1826.15" font-family="Times New Roman,serif" font-size="14.00">self.data.getDimensionSizes(2) = result.data.getDimensionSizes(2)</text>
<text text-anchor="middle" x="35.25" y="-1852.4" font-family="Times New Roman,serif" font-size="14.00">[186]</text>
</g>
<!-- 183&#45;&gt;186 -->
<g id="edge51" class="edge">
<title>183&#45;&gt;186</title>
<path fill="none" stroke="black" d="M238.84,-1901.61C239.25,-1889.96 239.79,-1874.25 240.26,-1860.72"/>
<polygon fill="black" stroke="black" points="243.75,-1861.18 240.6,-1851.06 236.75,-1860.94 243.75,-1861.18"/>
<text text-anchor="middle" x="280.52" y="-1870.4" font-family="Times New Roman,serif" font-size="14.00">graphAnd#210</text>
</g>
<!-- 189 -->
<g id="node28" class="node">
<title>189</title>
<polygon fill="yellow" stroke="black" points="434.62,-1760.7 51.88,-1760.7 51.88,-1724.7 434.62,-1724.7 434.62,-1760.7"/>
<text text-anchor="middle" x="243.25" y="-1737.65" font-family="Times New Roman,serif" font-size="14.00">self.data.getDimensionSizes(3) = result.data.getDimensionSizes(3)</text>
<text text-anchor="middle" x="37.25" y="-1763.9" font-family="Times New Roman,serif" font-size="14.00">[189]</text>
</g>
<!-- 186&#45;&gt;189 -->
<g id="edge52" class="edge">
<title>186&#45;&gt;189</title>
<path fill="none" stroke="black" d="M241.65,-1813.11C241.91,-1801.46 242.28,-1785.75 242.59,-1772.22"/>
<polygon fill="black" stroke="black" points="246.08,-1772.64 242.81,-1762.56 239.08,-1772.48 246.08,-1772.64"/>
<text text-anchor="middle" x="282.93" y="-1781.9" font-family="Times New Roman,serif" font-size="14.00">graphAnd#213</text>
</g>
<!-- 192 -->
<g id="node29" class="node">
<title>192</title>
<polygon fill="yellow" stroke="black" points="349.88,-1652.7 136.62,-1652.7 136.62,-1616.7 349.88,-1616.7 349.88,-1652.7"/>
<text text-anchor="middle" x="243.25" y="-1629.65" font-family="Times New Roman,serif" font-size="14.00">d1 = arg.data.getDimensionSizes(1)</text>
<text text-anchor="middle" x="122" y="-1655.9" font-family="Times New Roman,serif" font-size="14.00">[192]</text>
</g>
<!-- 189&#45;&gt;192 -->
<g id="edge23" class="edge">
<title>189&#45;&gt;192</title>
<path fill="none" stroke="black" d="M243.25,-1724.67C243.25,-1708.46 243.25,-1683.76 243.25,-1664.49"/>
<polygon fill="black" stroke="black" points="246.75,-1664.55 243.25,-1654.55 239.75,-1664.55 246.75,-1664.55"/>
<text text-anchor="middle" x="283.75" y="-1683.65" font-family="Times New Roman,serif" font-size="14.00">graphAnd#291</text>
</g>
<!-- 195 -->
<g id="node30" class="node">
<title>195</title>
<polygon fill="yellow" stroke="black" points="349.88,-1564.2 136.62,-1564.2 136.62,-1528.2 349.88,-1528.2 349.88,-1564.2"/>
<text text-anchor="middle" x="243.25" y="-1541.15" font-family="Times New Roman,serif" font-size="14.00">d2 = arg.data.getDimensionSizes(2)</text>
<text text-anchor="middle" x="122" y="-1567.4" font-family="Times New Roman,serif" font-size="14.00">[195]</text>
</g>
<!-- 192&#45;&gt;195 -->
<g id="edge53" class="edge">
<title>192&#45;&gt;195</title>
<path fill="none" stroke="black" d="M243.25,-1616.61C243.25,-1604.96 243.25,-1589.25 243.25,-1575.72"/>
<polygon fill="black" stroke="black" points="246.75,-1576.06 243.25,-1566.06 239.75,-1576.06 246.75,-1576.06"/>
<text text-anchor="middle" x="283.75" y="-1585.4" font-family="Times New Roman,serif" font-size="14.00">graphAnd#220</text>
</g>
<!-- 198 -->
<g id="node31" class="node">
<title>198</title>
<polygon fill="yellow" stroke="black" points="349.88,-1475.7 136.62,-1475.7 136.62,-1439.7 349.88,-1439.7 349.88,-1475.7"/>
<text text-anchor="middle" x="243.25" y="-1452.65" font-family="Times New Roman,serif" font-size="14.00">d3 = arg.data.getDimensionSizes(3)</text>
<text text-anchor="middle" x="122" y="-1478.9" font-family="Times New Roman,serif" font-size="14.00">[198]</text>
</g>
<!-- 195&#45;&gt;198 -->
<g id="edge54" class="edge">
<title>195&#45;&gt;198</title>
<path fill="none" stroke="black" d="M243.25,-1528.11C243.25,-1516.46 243.25,-1500.75 243.25,-1487.22"/>
<polygon fill="black" stroke="black" points="246.75,-1487.56 243.25,-1477.56 239.75,-1487.56 246.75,-1487.56"/>
<text text-anchor="middle" x="283.75" y="-1496.9" font-family="Times New Roman,serif" font-size="14.00">graphAnd#221</text>
</g>
<!-- 204 -->
<g id="node33" class="node">
<title>204</title>
<polygon fill="yellow" stroke="black" points="278.62,-1387.2 207.88,-1387.2 207.88,-1351.2 278.62,-1351.2 278.62,-1387.2"/>
<text text-anchor="middle" x="243.25" y="-1364.15" font-family="Times New Roman,serif" font-size="14.00">acc = true</text>
<text text-anchor="middle" x="193.25" y="-1390.4" font-family="Times New Roman,serif" font-size="14.00">[204]</text>
</g>
<!-- 198&#45;&gt;204 -->
<g id="edge22" class="edge">
<title>198&#45;&gt;204</title>
<path fill="none" stroke="black" d="M243.25,-1439.61C243.25,-1427.96 243.25,-1412.25 243.25,-1398.72"/>
<polygon fill="black" stroke="black" points="246.75,-1399.06 243.25,-1389.06 239.75,-1399.06 246.75,-1399.06"/>
<text text-anchor="middle" x="283.75" y="-1408.4" font-family="Times New Roman,serif" font-size="14.00">graphAnd#290</text>
</g>
<!-- 201 -->
<g id="node32" class="node">
<title>201</title>
<polygon fill="yellow" stroke="black" points="366.25,-1298.7 290.25,-1298.7 290.25,-1262.7 366.25,-1262.7 366.25,-1298.7"/>
<text text-anchor="middle" x="328.25" y="-1275.65" font-family="Times New Roman,serif" font-size="14.00">Index0 = 1</text>
<text text-anchor="middle" x="275.62" y="-1301.9" font-family="Times New Roman,serif" font-size="14.00">[201]</text>
</g>
<!-- 201&#45;&gt;259 -->
<g id="edge21" class="edge">
<title>201&#45;&gt;259</title>
<path fill="none" stroke="black" d="M328.25,-1262.52C328.25,-1250.48 328.25,-1234.4 328.25,-1222.15"/>
<polygon fill="black" stroke="black" points="331.75,-1222.24 328.25,-1212.24 324.75,-1222.24 331.75,-1222.24"/>
<text text-anchor="middle" x="368.75" y="-1231.4" font-family="Times New Roman,serif" font-size="14.00">graphAnd#289</text>
</g>
<!-- 204&#45;&gt;201 -->
<g id="edge55" class="edge">
<title>204&#45;&gt;201</title>
<path fill="none" stroke="black" d="M260.04,-1351.11C272.42,-1338.52 289.45,-1321.18 303.4,-1306.99"/>
<polygon fill="black" stroke="black" points="305.63,-1309.72 310.14,-1300.13 300.63,-1304.81 305.63,-1309.72"/>
<text text-anchor="middle" x="333.86" y="-1319.9" font-family="Times New Roman,serif" font-size="14.00">graphAnd#226</text>
</g>
<!-- 207&#45;&gt;270 -->
<g id="edge35" class="edge">
<title>207&#45;&gt;270</title>
<path fill="none" stroke="black" d="M494.65,-1107.2C497.25,-1096.73 501.5,-1083.37 508,-1072.8 513.97,-1063.11 523.15,-1054.1 530.65,-1047.66"/>
<polygon fill="black" stroke="black" points="532.6,-1050.58 538.19,-1041.57 528.21,-1045.13 532.6,-1050.58"/>
<text text-anchor="middle" x="542.12" y="-1076" font-family="Times New Roman,serif" font-size="14.00">merge1#305</text>
</g>
<!-- 213 -->
<g id="node36" class="node">
<title>213</title>
<polygon fill="yellow" stroke="black" points="395.38,-1054.8 263.12,-1054.8 263.12,-1018.8 395.38,-1018.8 395.38,-1054.8"/>
<text text-anchor="middle" x="329.25" y="-1031.75" font-family="Times New Roman,serif" font-size="14.00">it = Sequence{1..d1}</text>
<text text-anchor="middle" x="248.5" y="-1058" font-family="Times New Roman,serif" font-size="14.00">[213]</text>
</g>
<!-- 210&#45;&gt;213 -->
<g id="edge15" class="edge">
<title>210&#45;&gt;213</title>
<path fill="none" stroke="black" d="M328.45,-1107.21C328.58,-1095.56 328.76,-1079.85 328.92,-1066.32"/>
<polygon fill="black" stroke="black" points="332.42,-1066.7 329.03,-1056.66 325.42,-1066.62 332.42,-1066.7"/>
<text text-anchor="middle" x="369.34" y="-1076" font-family="Times New Roman,serif" font-size="14.00">graphAnd#281</text>
</g>
<!-- 219 -->
<g id="node38" class="node">
<title>219</title>
<polygon fill="yellow" stroke="black" points="369,-966.3 291.5,-966.3 291.5,-930.3 369,-930.3 369,-966.3"/>
<text text-anchor="middle" x="330.25" y="-943.25" font-family="Times New Roman,serif" font-size="14.00">acc2 = true</text>
<text text-anchor="middle" x="276.88" y="-969.5" font-family="Times New Roman,serif" font-size="14.00">[219]</text>
</g>
<!-- 213&#45;&gt;219 -->
<g id="edge16" class="edge">
<title>213&#45;&gt;219</title>
<path fill="none" stroke="black" d="M329.45,-1018.71C329.58,-1007.06 329.76,-991.35 329.92,-977.82"/>
<polygon fill="black" stroke="black" points="333.42,-978.2 330.03,-968.16 326.42,-978.12 333.42,-978.2"/>
<text text-anchor="middle" x="370.34" y="-987.5" font-family="Times New Roman,serif" font-size="14.00">graphAnd#282</text>
</g>
<!-- 216 -->
<g id="node37" class="node">
<title>216</title>
<polygon fill="yellow" stroke="black" points="370.25,-877.8 294.25,-877.8 294.25,-841.8 370.25,-841.8 370.25,-877.8"/>
<text text-anchor="middle" x="332.25" y="-854.75" font-family="Times New Roman,serif" font-size="14.00">Index1 = 1</text>
<text text-anchor="middle" x="279.62" y="-881" font-family="Times New Roman,serif" font-size="14.00">[216]</text>
</g>
<!-- 255 -->
<g id="node51" class="node">
<title>255</title>
<polygon fill="aquamarine" stroke="black" points="336.25,-789.3 329.05,-782.1 336.25,-774.9 343.45,-782.1 336.25,-789.3"/>
<text text-anchor="middle" x="310.68" y="-792.5" font-family="Times New Roman,serif" font-size="14.00">&lt;255&gt;</text>
</g>
<!-- 216&#45;&gt;255 -->
<g id="edge14" class="edge">
<title>216&#45;&gt;255</title>
<path fill="none" stroke="black" d="M333.16,-841.62C333.8,-829.45 334.66,-813.16 335.31,-800.86"/>
<polygon fill="black" stroke="black" points="338.8,-801.14 335.83,-790.97 331.81,-800.77 338.8,-801.14"/>
<text text-anchor="middle" x="375.46" y="-810.5" font-family="Times New Roman,serif" font-size="14.00">graphAnd#278</text>
</g>
<!-- 219&#45;&gt;216 -->
<g id="edge56" class="edge">
<title>219&#45;&gt;216</title>
<path fill="none" stroke="black" d="M330.65,-930.21C330.91,-918.56 331.28,-902.85 331.59,-889.32"/>
<polygon fill="black" stroke="black" points="335.08,-889.74 331.81,-879.66 328.08,-889.58 335.08,-889.74"/>
<text text-anchor="middle" x="371.93" y="-899" font-family="Times New Roman,serif" font-size="14.00">graphAnd#237</text>
</g>
<!-- 222 -->
<g id="node39" class="node">
<title>222</title>
<polygon fill="yellow" stroke="black" points="256.38,-722.4 136.12,-722.4 136.12,-686.4 256.38,-686.4 256.38,-722.4"/>
<text text-anchor="middle" x="196.25" y="-699.35" font-family="Times New Roman,serif" font-size="14.00">Index1 &gt; d2 &#45; 1+ 1</text>
<text text-anchor="middle" x="121.5" y="-725.6" font-family="Times New Roman,serif" font-size="14.00">[222]</text>
</g>
<!-- 222&#45;&gt;257 -->
<g id="edge17" class="edge">
<title>222&#45;&gt;257</title>
<path fill="none" stroke="black" d="M196.61,-722.84C196.9,-738.18 197.25,-761.12 197.25,-781.1 197.25,-1204 197.25,-1204 197.25,-1204 197.25,-1219.74 199.4,-1237.17 201.71,-1251.33"/>
<polygon fill="black" stroke="black" points="198.2,-1251.61 203.38,-1260.86 205.1,-1250.4 198.2,-1251.61"/>
<text text-anchor="middle" x="237.75" y="-987.5" font-family="Times New Roman,serif" font-size="14.00">graphAnd#283</text>
</g>
<!-- 225 -->
<g id="node40" class="node">
<title>225</title>
<polygon fill="yellow" stroke="black" points="402.5,-722.4 274,-722.4 274,-686.4 402.5,-686.4 402.5,-722.4"/>
<text text-anchor="middle" x="338.25" y="-699.35" font-family="Times New Roman,serif" font-size="14.00">Index1 &lt;= d2 &#45; 1+ 1</text>
<text text-anchor="middle" x="259.38" y="-725.6" font-family="Times New Roman,serif" font-size="14.00">[225]</text>
</g>
<!-- 228 -->
<g id="node41" class="node">
<title>228</title>
<polygon fill="yellow" stroke="black" points="390.75,-633.9 251.75,-633.9 251.75,-597.9 390.75,-597.9 390.75,-633.9"/>
<text text-anchor="middle" x="321.25" y="-610.85" font-family="Times New Roman,serif" font-size="14.00">it2 = Sequence{1..d2}</text>
<text text-anchor="middle" x="237.12" y="-637.1" font-family="Times New Roman,serif" font-size="14.00">[228]</text>
</g>
<!-- 225&#45;&gt;228 -->
<g id="edge8" class="edge">
<title>225&#45;&gt;228</title>
<path fill="none" stroke="black" d="M334.89,-686.31C332.6,-674.66 329.51,-658.95 326.85,-645.42"/>
<polygon fill="black" stroke="black" points="330.31,-644.87 324.95,-635.74 323.45,-646.22 330.31,-644.87"/>
<text text-anchor="middle" x="371.77" y="-655.1" font-family="Times New Roman,serif" font-size="14.00">graphAnd#270</text>
</g>
<!-- 234 -->
<g id="node43" class="node">
<title>234</title>
<polygon fill="yellow" stroke="black" points="343,-545.4 265.5,-545.4 265.5,-509.4 343,-509.4 343,-545.4"/>
<text text-anchor="middle" x="304.25" y="-522.35" font-family="Times New Roman,serif" font-size="14.00">acc3 = true</text>
<text text-anchor="middle" x="250.88" y="-548.6" font-family="Times New Roman,serif" font-size="14.00">[234]</text>
</g>
<!-- 228&#45;&gt;234 -->
<g id="edge9" class="edge">
<title>228&#45;&gt;234</title>
<path fill="none" stroke="black" d="M317.89,-597.81C315.6,-586.16 312.51,-570.45 309.85,-556.92"/>
<polygon fill="black" stroke="black" points="313.31,-556.37 307.95,-547.24 306.45,-557.72 313.31,-556.37"/>
<text text-anchor="middle" x="354.77" y="-566.6" font-family="Times New Roman,serif" font-size="14.00">graphAnd#271</text>
</g>
<!-- 231 -->
<g id="node42" class="node">
<title>231</title>
<polygon fill="yellow" stroke="black" points="303.25,-456.9 227.25,-456.9 227.25,-420.9 303.25,-420.9 303.25,-456.9"/>
<text text-anchor="middle" x="265.25" y="-433.85" font-family="Times New Roman,serif" font-size="14.00">Index2 = 1</text>
<text text-anchor="middle" x="212.62" y="-460.1" font-family="Times New Roman,serif" font-size="14.00">[231]</text>
</g>
<!-- 251 -->
<g id="node49" class="node">
<title>251</title>
<polygon fill="aquamarine" stroke="black" points="237.25,-368.4 230.05,-361.2 237.25,-354 244.45,-361.2 237.25,-368.4"/>
<text text-anchor="middle" x="211.68" y="-371.6" font-family="Times New Roman,serif" font-size="14.00">&lt;251&gt;</text>
</g>
<!-- 231&#45;&gt;251 -->
<g id="edge7" class="edge">
<title>231&#45;&gt;251</title>
<path fill="none" stroke="black" d="M258.9,-420.72C254.1,-407.77 247.59,-390.15 242.96,-377.64"/>
<polygon fill="black" stroke="black" points="246.37,-376.77 239.62,-368.61 239.81,-379.2 246.37,-376.77"/>
<text text-anchor="middle" x="292.59" y="-389.6" font-family="Times New Roman,serif" font-size="14.00">graphAnd#267</text>
</g>
<!-- 234&#45;&gt;231 -->
<g id="edge57" class="edge">
<title>234&#45;&gt;231</title>
<path fill="none" stroke="black" d="M296.54,-509.31C291.18,-497.42 283.92,-481.31 277.74,-467.6"/>
<polygon fill="black" stroke="black" points="281,-466.31 273.69,-458.63 274.61,-469.18 281,-466.31"/>
<text text-anchor="middle" x="328.74" y="-478.1" font-family="Times New Roman,serif" font-size="14.00">graphAnd#248</text>
</g>
<!-- 237 -->
<g id="node44" class="node">
<title>237</title>
<polygon fill="yellow" stroke="black" points="400.38,-301.5 280.12,-301.5 280.12,-265.5 400.38,-265.5 400.38,-301.5"/>
<text text-anchor="middle" x="340.25" y="-278.45" font-family="Times New Roman,serif" font-size="14.00">Index2 &gt; d3 &#45; 1+ 1</text>
<text text-anchor="middle" x="265.5" y="-304.7" font-family="Times New Roman,serif" font-size="14.00">[237]</text>
</g>
<!-- 253 -->
<g id="node50" class="node">
<title>253</title>
<polygon fill="yellow" stroke="black" points="476.88,-213 347.62,-213 347.62,-177 476.88,-177 476.88,-213"/>
<text text-anchor="middle" x="412.25" y="-189.95" font-family="Times New Roman,serif" font-size="14.00">Index1 = Index1 + 1</text>
<text text-anchor="middle" x="333" y="-216.2" font-family="Times New Roman,serif" font-size="14.00">[253]</text>
</g>
<!-- 237&#45;&gt;253 -->
<g id="edge10" class="edge">
<title>237&#45;&gt;253</title>
<path fill="none" stroke="black" d="M334.46,-265.46C331.93,-254.76 330.8,-241.12 337.25,-231 339.86,-226.91 343.08,-223.29 346.71,-220.09"/>
<polygon fill="black" stroke="black" points="348.65,-223.01 354.61,-214.25 344.48,-217.38 348.65,-223.01"/>
<text text-anchor="middle" x="377.75" y="-234.2" font-family="Times New Roman,serif" font-size="14.00">graphAnd#272</text>
</g>
<!-- 240 -->
<g id="node45" class="node">
<title>240</title>
<polygon fill="yellow" stroke="black" points="262.5,-301.5 134,-301.5 134,-265.5 262.5,-265.5 262.5,-301.5"/>
<text text-anchor="middle" x="198.25" y="-278.45" font-family="Times New Roman,serif" font-size="14.00">Index2 &lt;= d3 &#45; 1+ 1</text>
<text text-anchor="middle" x="119.38" y="-304.7" font-family="Times New Roman,serif" font-size="14.00">[240]</text>
</g>
<!-- 243 -->
<g id="node46" class="node">
<title>243</title>
<polygon fill="yellow" stroke="black" points="308.75,-213 169.75,-213 169.75,-177 308.75,-177 308.75,-213"/>
<text text-anchor="middle" x="239.25" y="-189.95" font-family="Times New Roman,serif" font-size="14.00">it3 = Sequence{1..d3}</text>
<text text-anchor="middle" x="155.12" y="-216.2" font-family="Times New Roman,serif" font-size="14.00">[243]</text>
</g>
<!-- 240&#45;&gt;243 -->
<g id="edge1" class="edge">
<title>240&#45;&gt;243</title>
<path fill="none" stroke="black" d="M206.35,-265.41C211.99,-253.52 219.62,-237.41 226.12,-223.7"/>
<polygon fill="black" stroke="black" points="229.26,-225.25 230.38,-214.72 222.93,-222.26 229.26,-225.25"/>
<text text-anchor="middle" x="262.92" y="-234.2" font-family="Times New Roman,serif" font-size="14.00">graphAnd#259</text>
</g>
<!-- 246 -->
<g id="node47" class="node">
<title>246</title>
<polygon fill="yellow" stroke="black" points="486.38,-124.5 108.12,-124.5 108.12,-88.5 486.38,-88.5 486.38,-124.5"/>
<text text-anchor="middle" x="297.25" y="-101.45" font-family="Times New Roman,serif" font-size="14.00">result.data[it][it2][it3] = self.data[it][it2][it3] &#45; arg.data[it][it2][it3]</text>
<text text-anchor="middle" x="93.5" y="-127.7" font-family="Times New Roman,serif" font-size="14.00">[246]</text>
</g>
<!-- 243&#45;&gt;246 -->
<g id="edge2" class="edge">
<title>243&#45;&gt;246</title>
<path fill="none" stroke="black" d="M250.71,-176.91C258.84,-164.79 269.91,-148.27 279.22,-134.39"/>
<polygon fill="black" stroke="black" points="282.11,-136.36 284.77,-126.11 276.3,-132.46 282.11,-136.36"/>
<text text-anchor="middle" x="313.94" y="-145.7" font-family="Times New Roman,serif" font-size="14.00">graphAnd#260</text>
</g>
<!-- 249 -->
<g id="node48" class="node">
<title>249</title>
<polygon fill="yellow" stroke="black" points="160.88,-36 31.62,-36 31.62,0 160.88,0 160.88,-36"/>
<text text-anchor="middle" x="96.25" y="-12.95" font-family="Times New Roman,serif" font-size="14.00">Index2 = Index2 + 1</text>
<text text-anchor="middle" x="17" y="-39.2" font-family="Times New Roman,serif" font-size="14.00">[249]</text>
</g>
<!-- 246&#45;&gt;249 -->
<g id="edge3" class="edge">
<title>246&#45;&gt;249</title>
<path fill="none" stroke="black" d="M257.06,-88.2C225.39,-74.58 181.05,-55.49 146.95,-40.82"/>
<polygon fill="black" stroke="black" points="148.68,-37.75 138.11,-37.01 145.91,-44.18 148.68,-37.75"/>
<text text-anchor="middle" x="255.25" y="-57.2" font-family="Times New Roman,serif" font-size="14.00">graphAnd#261</text>
</g>
<!-- 249&#45;&gt;251 -->
<g id="edge5" class="edge">
<title>249&#45;&gt;251</title>
<path fill="none" stroke="black" d="M91.1,-36.39C86.42,-53.73 80.25,-81.22 80.25,-105.5 80.25,-284.5 80.25,-284.5 80.25,-284.5 80.25,-345.53 177.7,-357.38 219.05,-359.66"/>
<polygon fill="black" stroke="black" points="218.86,-363.16 228.99,-360.06 219.14,-356.17 218.86,-363.16"/>
<text text-anchor="middle" x="110.62" y="-189.95" font-family="Times New Roman,serif" font-size="14.00">iterate#264</text>
</g>
<!-- 251&#45;&gt;237 -->
<g id="edge6" class="edge">
<title>251&#45;&gt;237</title>
<path fill="none" stroke="black" d="M242.14,-358.58C251.73,-355.28 273.45,-347.11 289.25,-336 299.7,-328.65 309.89,-319.03 318.37,-310.09"/>
<polygon fill="black" stroke="black" points="320.74,-312.69 324.92,-302.95 315.58,-307.96 320.74,-312.69"/>
<text text-anchor="middle" x="348.11" y="-322.7" font-family="Times New Roman,serif" font-size="14.00">graphAnd#266</text>
</g>
<!-- 251&#45;&gt;240 -->
<g id="edge4" class="edge">
<title>251&#45;&gt;240</title>
<path fill="none" stroke="black" d="M234.93,-355.69C230.54,-347.18 220.73,-328.14 212.36,-311.89"/>
<polygon fill="black" stroke="black" points="215.52,-310.38 207.83,-303.1 209.3,-313.59 215.52,-310.38"/>
<text text-anchor="middle" x="255.01" y="-322.7" font-family="Times New Roman,serif" font-size="14.00">iterate#263</text>
</g>
<!-- 253&#45;&gt;255 -->
<g id="edge12" class="edge">
<title>253&#45;&gt;255</title>
<path fill="none" stroke="black" d="M418.69,-213.29C424.53,-230.56 432.25,-257.99 432.25,-282.5 432.25,-705.4 432.25,-705.4 432.25,-705.4 432.25,-731.89 422.55,-739.89 402.25,-756.9 388.07,-768.78 367.54,-775.08 353.15,-778.24"/>
<polygon fill="black" stroke="black" points="352.7,-774.76 343.51,-780.05 353.99,-781.64 352.7,-774.76"/>
<text text-anchor="middle" x="462.62" y="-478.1" font-family="Times New Roman,serif" font-size="14.00">iterate#275</text>
</g>
<!-- 255&#45;&gt;222 -->
<g id="edge13" class="edge">
<title>255&#45;&gt;222</title>
<path fill="none" stroke="black" d="M330.18,-780.33C315.82,-778.3 278.97,-771.92 252.25,-756.9 239.96,-749.99 228.18,-739.89 218.63,-730.46"/>
<polygon fill="black" stroke="black" points="221.38,-728.27 211.9,-723.53 216.36,-733.15 221.38,-728.27"/>
<text text-anchor="middle" x="292.75" y="-743.6" font-family="Times New Roman,serif" font-size="14.00">graphAnd#277</text>
</g>
<!-- 255&#45;&gt;225 -->
<g id="edge11" class="edge">
<title>255&#45;&gt;225</title>
<path fill="none" stroke="black" d="M336.43,-774.38C336.67,-765.3 337.11,-748.55 337.5,-733.83"/>
<polygon fill="black" stroke="black" points="340.99,-734.25 337.75,-724.16 333.99,-734.07 340.99,-734.25"/>
<text text-anchor="middle" x="367.68" y="-743.6" font-family="Times New Roman,serif" font-size="14.00">iterate#274</text>
</g>
</g>
</svg>
