<?xml version="1.0" encoding="UTF-8" standalone="no"?>
<!DOCTYPE svg PUBLIC "-//W3C//DTD SVG 1.1//EN"
 "http://www.w3.org/Graphics/SVG/1.1/DTD/svg11.dtd">
<!-- Generated by graphviz version 12.2.1 (20241206.2353)
 -->
<!-- Title: CLG Pages: 1 -->
<svg width="1829pt" height="2184pt"
 viewBox="0.00 0.00 1829.38 2184.30" xmlns="http://www.w3.org/2000/svg" xmlns:xlink="http://www.w3.org/1999/xlink">
<g id="graph0" class="graph" transform="scale(1 1) rotate(0) translate(4 2180.3)">
<title>CLG</title>
<polygon fill="white" stroke="none" points="-4,4 -4,-2180.3 1825.38,-2180.3 1825.38,4 -4,4"/>
<!-- 128 -->
<g id="node1" class="node">
<title>128</title>
<polygon fill="yellow" stroke="black" points="788.88,-921 659.62,-921 659.62,-885 788.88,-885 788.88,-921"/>
<text text-anchor="middle" x="724.25" y="-897.95" font-family="Times New Roman,serif" font-size="14.00">Index1 = Index1 + 1</text>
<text text-anchor="middle" x="645" y="-924.2" font-family="Times New Roman,serif" font-size="14.00">[128]</text>
</g>
<!-- 130 -->
<g id="node2" class="node">
<title>130</title>
<polygon fill="aquamarine" stroke="black" points="660.25,-821.7 653.05,-814.5 660.25,-807.3 667.45,-814.5 660.25,-821.7"/>
<text text-anchor="middle" x="634.67" y="-824.9" font-family="Times New Roman,serif" font-size="14.00">&lt;130&gt;</text>
</g>
<!-- 128&#45;&gt;130 -->
<g id="edge2" class="edge">
<title>128&#45;&gt;130</title>
<path fill="none" stroke="black" d="M711.61,-884.91C699.29,-868.27 680.86,-843.35 669.75,-828.34"/>
<polygon fill="black" stroke="black" points="672.81,-826.59 664.05,-820.63 667.18,-830.75 672.81,-826.59"/>
<text text-anchor="middle" x="728.36" y="-853.7" font-family="Times New Roman,serif" font-size="14.00">iterate#130</text>
</g>
<!-- 97 -->
<g id="node41" class="node">
<title>97</title>
<polygon fill="yellow" stroke="black" points="764.38,-744 644.12,-744 644.12,-708 764.38,-708 764.38,-744"/>
<text text-anchor="middle" x="704.25" y="-720.95" font-family="Times New Roman,serif" font-size="14.00">Index1 &gt; d2 &#45; 1+ 1</text>
<text text-anchor="middle" x="632.88" y="-747.2" font-family="Times New Roman,serif" font-size="14.00">[97]</text>
</g>
<!-- 130&#45;&gt;97 -->
<g id="edge3" class="edge">
<title>130&#45;&gt;97</title>
<path fill="none" stroke="black" d="M662.37,-809.33C667.35,-799.54 680.12,-774.45 690.26,-754.51"/>
<polygon fill="black" stroke="black" points="693.31,-756.23 694.72,-745.73 687.07,-753.06 693.31,-756.23"/>
<text text-anchor="middle" x="726.69" y="-765.2" font-family="Times New Roman,serif" font-size="14.00">graphAnd#132</text>
</g>
<!-- 100 -->
<g id="node42" class="node">
<title>100</title>
<polygon fill="yellow" stroke="black" points="585.5,-744 457,-744 457,-708 585.5,-708 585.5,-744"/>
<text text-anchor="middle" x="521.25" y="-720.95" font-family="Times New Roman,serif" font-size="14.00">Index1 &lt;= d2 &#45; 1+ 1</text>
<text text-anchor="middle" x="442.38" y="-747.2" font-family="Times New Roman,serif" font-size="14.00">[100]</text>
</g>
<!-- 130&#45;&gt;100 -->
<g id="edge1" class="edge">
<title>130&#45;&gt;100</title>
<path fill="none" stroke="black" d="M653.55,-813.52C633.62,-813.21 573.98,-809.61 540.5,-778.5 533.79,-772.27 529.41,-763.47 526.55,-754.91"/>
<polygon fill="black" stroke="black" points="529.99,-754.22 523.99,-745.48 523.23,-756.05 529.99,-754.22"/>
<text text-anchor="middle" x="570.88" y="-765.2" font-family="Times New Roman,serif" font-size="14.00">iterate#129</text>
</g>
<!-- 132 -->
<g id="node3" class="node">
<title>132</title>
<polygon fill="yellow" stroke="black" points="772.88,-655.5 643.62,-655.5 643.62,-619.5 772.88,-619.5 772.88,-655.5"/>
<text text-anchor="middle" x="708.25" y="-632.45" font-family="Times New Roman,serif" font-size="14.00">Index0 = Index0 + 1</text>
<text text-anchor="middle" x="629" y="-658.7" font-family="Times New Roman,serif" font-size="14.00">[132]</text>
</g>
<!-- 134 -->
<g id="node4" class="node">
<title>134</title>
<polygon fill="aquamarine" stroke="black" points="899.25,-556.2 892.05,-549 899.25,-541.8 906.45,-549 899.25,-556.2"/>
<text text-anchor="middle" x="873.67" y="-559.4" font-family="Times New Roman,serif" font-size="14.00">&lt;134&gt;</text>
</g>
<!-- 132&#45;&gt;134 -->
<g id="edge9" class="edge">
<title>132&#45;&gt;134</title>
<path fill="none" stroke="black" d="M707.09,-619.42C707.3,-608.14 709.58,-593.87 718.5,-585 741.35,-562.27 840.39,-553.63 881.38,-550.99"/>
<polygon fill="black" stroke="black" points="881.39,-554.49 891.16,-550.41 880.97,-547.51 881.39,-554.49"/>
<text text-anchor="middle" x="748.88" y="-588.2" font-family="Times New Roman,serif" font-size="14.00">iterate#141</text>
</g>
<!-- 82 -->
<g id="node36" class="node">
<title>82</title>
<polygon fill="yellow" stroke="black" points="1101.38,-478.5 981.12,-478.5 981.12,-442.5 1101.38,-442.5 1101.38,-478.5"/>
<text text-anchor="middle" x="1041.25" y="-455.45" font-family="Times New Roman,serif" font-size="14.00">Index0 &gt; d1 &#45; 1+ 1</text>
<text text-anchor="middle" x="969.88" y="-481.7" font-family="Times New Roman,serif" font-size="14.00">[82]</text>
</g>
<!-- 134&#45;&gt;82 -->
<g id="edge10" class="edge">
<title>134&#45;&gt;82</title>
<path fill="none" stroke="black" d="M903.67,-545.75C914.16,-540.36 941.33,-526.2 963.25,-513 977.68,-504.31 993.23,-494.2 1006.62,-485.25"/>
<polygon fill="black" stroke="black" points="1008.35,-488.31 1014.69,-479.82 1004.44,-482.5 1008.35,-488.31"/>
<text text-anchor="middle" x="1029.87" y="-499.7" font-family="Times New Roman,serif" font-size="14.00">graphAnd#143</text>
</g>
<!-- 85 -->
<g id="node37" class="node">
<title>85</title>
<polygon fill="yellow" stroke="black" points="960.5,-478.5 832,-478.5 832,-442.5 960.5,-442.5 960.5,-478.5"/>
<text text-anchor="middle" x="896.25" y="-455.45" font-family="Times New Roman,serif" font-size="14.00">Index0 &lt;= d1 &#45; 1+ 1</text>
<text text-anchor="middle" x="820.75" y="-481.7" font-family="Times New Roman,serif" font-size="14.00">[85]</text>
</g>
<!-- 134&#45;&gt;85 -->
<g id="edge8" class="edge">
<title>134&#45;&gt;85</title>
<path fill="none" stroke="black" d="M899.02,-541.5C898.65,-530.67 897.87,-508.32 897.24,-489.98"/>
<polygon fill="black" stroke="black" points="900.74,-490.07 896.9,-480.19 893.75,-490.31 900.74,-490.07"/>
<text text-anchor="middle" x="928.39" y="-499.7" font-family="Times New Roman,serif" font-size="14.00">iterate#140</text>
</g>
<!-- 135 -->
<g id="node5" class="node">
<title>135</title>
<ellipse fill="black" stroke="black" cx="1089.25" cy="-2152.6" rx="7.2" ry="7.2"/>
<text text-anchor="middle" x="1074.17" y="-2163" font-family="Times New Roman,serif" font-size="14.00">[0]</text>
</g>
<!-- 136 -->
<g id="node6" class="node">
<title>136</title>
<polygon fill="yellow" stroke="black" points="1193.62,-2108.4 984.88,-2108.4 984.88,-2072.4 1193.62,-2072.4 1193.62,-2108.4"/>
<text text-anchor="middle" x="1089.25" y="-2085.35" font-family="Times New Roman,serif" font-size="14.00">self.data.getDimensionSizes(1) &gt; 0</text>
<text text-anchor="middle" x="970.25" y="-2111.6" font-family="Times New Roman,serif" font-size="14.00">[136]</text>
</g>
<!-- 135&#45;&gt;136 -->
<g id="edge16" class="edge">
<title>135&#45;&gt;136</title>
<path fill="none" stroke="black" d="M1089.25,-2145.16C1089.25,-2139.1 1089.25,-2129.59 1089.25,-2120.24"/>
<polygon fill="black" stroke="black" points="1092.75,-2120.28 1089.25,-2110.28 1085.75,-2120.28 1092.75,-2120.28"/>
</g>
<!-- 139 -->
<g id="node7" class="node">
<title>139</title>
<polygon fill="yellow" stroke="black" points="1193.62,-2019.9 984.88,-2019.9 984.88,-1983.9 1193.62,-1983.9 1193.62,-2019.9"/>
<text text-anchor="middle" x="1089.25" y="-1996.85" font-family="Times New Roman,serif" font-size="14.00">self.data.getDimensionSizes(2) &gt; 0</text>
<text text-anchor="middle" x="970.25" y="-2023.1" font-family="Times New Roman,serif" font-size="14.00">[139]</text>
</g>
<!-- 136&#45;&gt;139 -->
<g id="edge18" class="edge">
<title>136&#45;&gt;139</title>
<path fill="none" stroke="black" d="M1089.25,-2072.31C1089.25,-2060.66 1089.25,-2044.95 1089.25,-2031.42"/>
<polygon fill="black" stroke="black" points="1092.75,-2031.76 1089.25,-2021.76 1085.75,-2031.76 1092.75,-2031.76"/>
<text text-anchor="middle" x="1129.75" y="-2041.1" font-family="Times New Roman,serif" font-size="14.00">graphAnd#153</text>
</g>
<!-- 142 -->
<g id="node8" class="node">
<title>142</title>
<polygon fill="yellow" stroke="black" points="1193.62,-1931.4 984.88,-1931.4 984.88,-1895.4 1193.62,-1895.4 1193.62,-1931.4"/>
<text text-anchor="middle" x="1089.25" y="-1908.35" font-family="Times New Roman,serif" font-size="14.00">self.data.getDimensionSizes(3) &gt; 0</text>
<text text-anchor="middle" x="970.25" y="-1934.6" font-family="Times New Roman,serif" font-size="14.00">[142]</text>
</g>
<!-- 139&#45;&gt;142 -->
<g id="edge22" class="edge">
<title>139&#45;&gt;142</title>
<path fill="none" stroke="black" d="M1089.25,-1983.81C1089.25,-1972.16 1089.25,-1956.45 1089.25,-1942.92"/>
<polygon fill="black" stroke="black" points="1092.75,-1943.26 1089.25,-1933.26 1085.75,-1943.26 1092.75,-1943.26"/>
<text text-anchor="middle" x="1129.75" y="-1952.6" font-family="Times New Roman,serif" font-size="14.00">graphAnd#156</text>
</g>
<!-- 144 -->
<g id="node9" class="node">
<title>144</title>
<polygon fill="aquamarine" stroke="black" points="1089.25,-1842.9 1082.05,-1835.7 1089.25,-1828.5 1096.45,-1835.7 1089.25,-1842.9"/>
<text text-anchor="middle" x="1063.67" y="-1846.1" font-family="Times New Roman,serif" font-size="14.00">&lt;144&gt;</text>
</g>
<!-- 142&#45;&gt;144 -->
<g id="edge31" class="edge">
<title>142&#45;&gt;144</title>
<path fill="none" stroke="black" d="M1089.25,-1895.22C1089.25,-1883.18 1089.25,-1867.1 1089.25,-1854.85"/>
<polygon fill="black" stroke="black" points="1092.75,-1854.94 1089.25,-1844.94 1085.75,-1854.94 1092.75,-1854.94"/>
<text text-anchor="middle" x="1129.75" y="-1864.1" font-family="Times New Roman,serif" font-size="14.00">graphAnd#163</text>
</g>
<!-- 37 -->
<g id="node19" class="node">
<title>37</title>
<polygon fill="aquamarine" stroke="black" points="1215.25,-1765.2 1208.05,-1758 1215.25,-1750.8 1222.45,-1758 1215.25,-1765.2"/>
<text text-anchor="middle" x="1193.05" y="-1768.4" font-family="Times New Roman,serif" font-size="14.00">&lt;37&gt;</text>
</g>
<!-- 144&#45;&gt;37 -->
<g id="edge24" class="edge">
<title>144&#45;&gt;37</title>
<path fill="none" stroke="black" d="M1093.44,-1832.18C1110.33,-1822.03 1173.81,-1783.9 1201.82,-1767.07"/>
<polygon fill="black" stroke="black" points="1203.35,-1770.23 1210.12,-1762.08 1199.75,-1764.23 1203.35,-1770.23"/>
<text text-anchor="middle" x="1184.53" y="-1797.2" font-family="Times New Roman,serif" font-size="14.00">split2#159</text>
</g>
<!-- 43 -->
<g id="node23" class="node">
<title>43</title>
<polygon fill="yellow" stroke="black" points="1134,-1776 834.5,-1776 834.5,-1740 1134,-1740 1134,-1776"/>
<text text-anchor="middle" x="984.25" y="-1752.95" font-family="Times New Roman,serif" font-size="14.00">self.data.getDimension() = arg.data.getDimension()</text>
<text text-anchor="middle" x="823.25" y="-1779.2" font-family="Times New Roman,serif" font-size="14.00">[43]</text>
</g>
<!-- 144&#45;&gt;43 -->
<g id="edge23" class="edge">
<title>144&#45;&gt;43</title>
<path fill="none" stroke="black" d="M1085.26,-1831.82C1074.23,-1823.87 1042.49,-1800.99 1017.5,-1782.97"/>
<polygon fill="black" stroke="black" points="1019.7,-1780.24 1009.54,-1777.23 1015.61,-1785.92 1019.7,-1780.24"/>
<text text-anchor="middle" x="1083.79" y="-1797.2" font-family="Times New Roman,serif" font-size="14.00">split1#158</text>
</g>
<!-- 145 -->
<g id="node10" class="node">
<title>145</title>
<polygon fill="aquamarine" stroke="black" points="1085.25,-379.2 1078.05,-372 1085.25,-364.8 1092.45,-372 1085.25,-379.2"/>
<text text-anchor="middle" x="1059.67" y="-382.4" font-family="Times New Roman,serif" font-size="14.00">&lt;145&gt;</text>
</g>
<!-- 41 -->
<g id="node22" class="node">
<title>41</title>
<ellipse fill="black" stroke="black" cx="1085.25" cy="-283.5" rx="7.2" ry="7.2"/>
<ellipse fill="none" stroke="black" cx="1085.25" cy="-283.5" rx="11.2" ry="11.2"/>
<text text-anchor="middle" x="1063.92" y="-297.9" font-family="Times New Roman,serif" font-size="14.00">[&#45;1]</text>
</g>
<!-- 145&#45;&gt;41 -->
<g id="edge29" class="edge">
<title>145&#45;&gt;41</title>
<path fill="none" stroke="black" d="M1085.25,-364.21C1085.25,-351.92 1085.25,-325.49 1085.25,-306.43"/>
<polygon fill="black" stroke="black" points="1088.75,-306.44 1085.25,-296.44 1081.75,-306.44 1088.75,-306.44"/>
<text text-anchor="middle" x="1134.38" y="-322.7" font-family="Times New Roman,serif" font-size="14.00">graphOr_end#162</text>
</g>
<!-- 22 -->
<g id="node11" class="node">
<title>22</title>
<polygon fill="yellow" stroke="black" points="1319.12,-1471.5 1011.38,-1471.5 1011.38,-1435.5 1319.12,-1435.5 1319.12,-1471.5"/>
<text text-anchor="middle" x="1165.25" y="-1448.45" font-family="Times New Roman,serif" font-size="14.00">self.data.getDimension() &lt;&gt; arg.data.getDimension()</text>
<text text-anchor="middle" x="1000.12" y="-1474.7" font-family="Times New Roman,serif" font-size="14.00">[22]</text>
</g>
<!-- 28 -->
<g id="node14" class="node">
<title>28</title>
<polygon fill="aquamarine" stroke="black" points="1165.25,-1372.2 1158.05,-1365 1165.25,-1357.8 1172.45,-1365 1165.25,-1372.2"/>
<text text-anchor="middle" x="1143.05" y="-1375.4" font-family="Times New Roman,serif" font-size="14.00">&lt;28&gt;</text>
</g>
<!-- 22&#45;&gt;28 -->
<g id="edge20" class="edge">
<title>22&#45;&gt;28</title>
<path fill="none" stroke="black" d="M1165.25,-1435.41C1165.25,-1420.64 1165.25,-1399.33 1165.25,-1384.23"/>
<polygon fill="black" stroke="black" points="1168.75,-1384.39 1165.25,-1374.39 1161.75,-1384.39 1168.75,-1384.39"/>
<text text-anchor="middle" x="1196" y="-1404.2" font-family="Times New Roman,serif" font-size="14.00">merge1#26</text>
</g>
<!-- 25 -->
<g id="node12" class="node">
<title>25</title>
<polygon fill="yellow" stroke="black" points="1715.38,-1471.5 1337.12,-1471.5 1337.12,-1435.5 1715.38,-1435.5 1715.38,-1471.5"/>
<text text-anchor="middle" x="1526.25" y="-1448.45" font-family="Times New Roman,serif" font-size="14.00">self.data.getDimensionSizes(1) &lt;&gt; arg.data.getDimensionSizes(1)</text>
<text text-anchor="middle" x="1325.88" y="-1474.7" font-family="Times New Roman,serif" font-size="14.00">[25]</text>
</g>
<!-- 25&#45;&gt;28 -->
<g id="edge21" class="edge">
<title>25&#45;&gt;28</title>
<path fill="none" stroke="black" d="M1453.63,-1435.1C1367.24,-1414.4 1228.78,-1381.22 1181.61,-1369.92"/>
<polygon fill="black" stroke="black" points="1182.65,-1366.57 1172.11,-1367.64 1181.02,-1373.38 1182.65,-1366.57"/>
<text text-anchor="middle" x="1408.83" y="-1404.2" font-family="Times New Roman,serif" font-size="14.00">merge2#27</text>
</g>
<!-- 27 -->
<g id="node13" class="node">
<title>27</title>
<polygon fill="aquamarine" stroke="black" points="1250.25,-1568.7 1243.05,-1561.5 1250.25,-1554.3 1257.45,-1561.5 1250.25,-1568.7"/>
<text text-anchor="middle" x="1228.05" y="-1571.9" font-family="Times New Roman,serif" font-size="14.00">&lt;27&gt;</text>
</g>
<!-- 27&#45;&gt;22 -->
<g id="edge17" class="edge">
<title>27&#45;&gt;22</title>
<path fill="none" stroke="black" d="M1249.85,-1554.27C1248.71,-1540.96 1244.36,-1509.33 1228.25,-1489.5 1224.88,-1485.35 1220.88,-1481.61 1216.55,-1478.25"/>
<polygon fill="black" stroke="black" points="1218.78,-1475.54 1208.55,-1472.77 1214.82,-1481.31 1218.78,-1475.54"/>
<text text-anchor="middle" x="1269.62" y="-1502.45" font-family="Times New Roman,serif" font-size="14.00">split1#24</text>
</g>
<!-- 27&#45;&gt;25 -->
<g id="edge19" class="edge">
<title>27&#45;&gt;25</title>
<path fill="none" stroke="black" d="M1255.04,-1558.66C1280.16,-1549.01 1398.29,-1503.64 1470.11,-1476.06"/>
<polygon fill="black" stroke="black" points="1471.29,-1479.36 1479.37,-1472.51 1468.78,-1472.82 1471.29,-1479.36"/>
<text text-anchor="middle" x="1454.22" y="-1502.45" font-family="Times New Roman,serif" font-size="14.00">split2#25</text>
</g>
<!-- 33 -->
<g id="node17" class="node">
<title>33</title>
<polygon fill="aquamarine" stroke="black" points="1139.25,-1283.7 1132.05,-1276.5 1139.25,-1269.3 1146.45,-1276.5 1139.25,-1283.7"/>
<text text-anchor="middle" x="1117.05" y="-1286.9" font-family="Times New Roman,serif" font-size="14.00">&lt;33&gt;</text>
</g>
<!-- 28&#45;&gt;33 -->
<g id="edge30" class="edge">
<title>28&#45;&gt;33</title>
<path fill="none" stroke="black" d="M1163.7,-1358.85C1159.9,-1346.2 1149.98,-1313.19 1144.01,-1293.33"/>
<polygon fill="black" stroke="black" points="1147.42,-1292.54 1141.19,-1283.97 1140.72,-1294.55 1147.42,-1292.54"/>
<text text-anchor="middle" x="1185.33" y="-1315.7" font-family="Times New Roman,serif" font-size="14.00">merge1#34</text>
</g>
<!-- 30 -->
<g id="node15" class="node">
<title>30</title>
<polygon fill="yellow" stroke="black" points="1227.38,-1525.5 849.12,-1525.5 849.12,-1489.5 1227.38,-1489.5 1227.38,-1525.5"/>
<text text-anchor="middle" x="1038.25" y="-1502.45" font-family="Times New Roman,serif" font-size="14.00">self.data.getDimensionSizes(2) &lt;&gt; arg.data.getDimensionSizes(2)</text>
<text text-anchor="middle" x="837.88" y="-1528.7" font-family="Times New Roman,serif" font-size="14.00">[30]</text>
</g>
<!-- 30&#45;&gt;33 -->
<g id="edge32" class="edge">
<title>30&#45;&gt;33</title>
<path fill="none" stroke="black" d="M1014.82,-1489.1C1009.73,-1484.04 1005.03,-1478.08 1002.25,-1471.5 996.02,-1456.76 996.66,-1450.49 1002.25,-1435.5 1027.69,-1367.33 1097.25,-1309.07 1126.27,-1286.98"/>
<polygon fill="black" stroke="black" points="1128.06,-1290 1134.01,-1281.24 1123.9,-1284.38 1128.06,-1290"/>
<text text-anchor="middle" x="1048.54" y="-1404.2" font-family="Times New Roman,serif" font-size="14.00">merge2#35</text>
</g>
<!-- 32 -->
<g id="node16" class="node">
<title>32</title>
<polygon fill="aquamarine" stroke="black" points="1215.25,-1676.7 1208.05,-1669.5 1215.25,-1662.3 1222.45,-1669.5 1215.25,-1676.7"/>
<text text-anchor="middle" x="1193.05" y="-1679.9" font-family="Times New Roman,serif" font-size="14.00">&lt;32&gt;</text>
</g>
<!-- 32&#45;&gt;27 -->
<g id="edge26" class="edge">
<title>32&#45;&gt;27</title>
<path fill="none" stroke="black" d="M1216.94,-1663.39C1221.98,-1648.1 1237.1,-1602.32 1245.12,-1578.03"/>
<polygon fill="black" stroke="black" points="1248.37,-1579.35 1248.18,-1568.75 1241.73,-1577.15 1248.37,-1579.35"/>
<text text-anchor="middle" x="1263.06" y="-1610.45" font-family="Times New Roman,serif" font-size="14.00">split1#32</text>
</g>
<!-- 32&#45;&gt;30 -->
<g id="edge28" class="edge">
<title>32&#45;&gt;30</title>
<path fill="none" stroke="black" d="M1211.69,-1665.66C1204.35,-1659.79 1187.04,-1645.81 1173,-1633.5 1134.46,-1599.71 1091.24,-1559.12 1064.38,-1533.56"/>
<polygon fill="black" stroke="black" points="1067.01,-1531.23 1057.36,-1526.86 1062.18,-1536.29 1067.01,-1531.23"/>
<text text-anchor="middle" x="1198.12" y="-1610.45" font-family="Times New Roman,serif" font-size="14.00">split2#33</text>
</g>
<!-- 38 -->
<g id="node20" class="node">
<title>38</title>
<polygon fill="aquamarine" stroke="black" points="1139.25,-1195.2 1132.05,-1188 1139.25,-1180.8 1146.45,-1188 1139.25,-1195.2"/>
<text text-anchor="middle" x="1117.05" y="-1198.4" font-family="Times New Roman,serif" font-size="14.00">&lt;38&gt;</text>
</g>
<!-- 33&#45;&gt;38 -->
<g id="edge35" class="edge">
<title>33&#45;&gt;38</title>
<path fill="none" stroke="black" d="M1139.25,-1268.71C1139.25,-1255.51 1139.25,-1225.99 1139.25,-1206.81"/>
<polygon fill="black" stroke="black" points="1142.75,-1207.03 1139.25,-1197.03 1135.75,-1207.03 1142.75,-1207.03"/>
<text text-anchor="middle" x="1170" y="-1227.2" font-family="Times New Roman,serif" font-size="14.00">merge1#42</text>
</g>
<!-- 35 -->
<g id="node18" class="node">
<title>35</title>
<polygon fill="yellow" stroke="black" points="1821.38,-1633.5 1443.12,-1633.5 1443.12,-1597.5 1821.38,-1597.5 1821.38,-1633.5"/>
<text text-anchor="middle" x="1632.25" y="-1610.45" font-family="Times New Roman,serif" font-size="14.00">self.data.getDimensionSizes(3) &lt;&gt; arg.data.getDimensionSizes(3)</text>
<text text-anchor="middle" x="1431.88" y="-1636.7" font-family="Times New Roman,serif" font-size="14.00">[35]</text>
</g>
<!-- 35&#45;&gt;38 -->
<g id="edge36" class="edge">
<title>35&#45;&gt;38</title>
<path fill="none" stroke="black" d="M1670.76,-1597.14C1702.82,-1579.75 1743.25,-1549.67 1743.25,-1508.5 1743.25,-1508.5 1743.25,-1508.5 1743.25,-1275.5 1743.25,-1214.67 1256.99,-1193.36 1157.07,-1189.63"/>
<polygon fill="black" stroke="black" points="1157.26,-1186.13 1147.14,-1189.27 1157,-1193.13 1157.26,-1186.13"/>
<text text-anchor="middle" x="1774" y="-1404.2" font-family="Times New Roman,serif" font-size="14.00">merge2#43</text>
</g>
<!-- 37&#45;&gt;32 -->
<g id="edge33" class="edge">
<title>37&#45;&gt;32</title>
<path fill="none" stroke="black" d="M1215.25,-1750.21C1215.25,-1737.01 1215.25,-1707.49 1215.25,-1688.31"/>
<polygon fill="black" stroke="black" points="1218.75,-1688.53 1215.25,-1678.53 1211.75,-1688.53 1218.75,-1688.53"/>
<text text-anchor="middle" x="1240.38" y="-1708.7" font-family="Times New Roman,serif" font-size="14.00">split1#40</text>
</g>
<!-- 37&#45;&gt;35 -->
<g id="edge34" class="edge">
<title>37&#45;&gt;35</title>
<path fill="none" stroke="black" d="M1220.22,-1755.32C1254.97,-1743.62 1463.11,-1673.49 1569.59,-1637.61"/>
<polygon fill="black" stroke="black" points="1570.71,-1640.93 1579.07,-1634.42 1568.48,-1634.29 1570.71,-1640.93"/>
<text text-anchor="middle" x="1387.16" y="-1708.7" font-family="Times New Roman,serif" font-size="14.00">split2#41</text>
</g>
<!-- 40 -->
<g id="node21" class="node">
<title>40</title>
<polygon fill="yellow" stroke="black" points="1230.5,-1063.5 1042,-1063.5 1042,-1027.5 1230.5,-1027.5 1230.5,-1063.5"/>
<text text-anchor="middle" x="1136.25" y="-1040.45" font-family="Times New Roman,serif" font-size="14.00">Result = &#39;IllegalDimensionSize&#39;</text>
<text text-anchor="middle" x="1030.75" y="-1066.7" font-family="Times New Roman,serif" font-size="14.00">[40]</text>
</g>
<!-- 38&#45;&gt;40 -->
<g id="edge14" class="edge">
<title>38&#45;&gt;40</title>
<path fill="none" stroke="black" d="M1139.11,-1180.6C1138.72,-1162.24 1137.58,-1108.57 1136.86,-1074.96"/>
<polygon fill="black" stroke="black" points="1140.36,-1075.02 1136.65,-1065.1 1133.36,-1075.17 1140.36,-1075.02"/>
<text text-anchor="middle" x="1178.99" y="-1138.7" font-family="Times New Roman,serif" font-size="14.00">graphAnd#147</text>
</g>
<!-- 40&#45;&gt;145 -->
<g id="edge27" class="edge">
<title>40&#45;&gt;145</title>
<path fill="none" stroke="black" d="M1134.51,-1027.13C1132.74,-1007.87 1130.25,-975.88 1130.25,-948.25 1130.25,-948.25 1130.25,-948.25 1130.25,-459.5 1130.25,-435.78 1127.52,-428.87 1116.25,-408 1111.27,-398.79 1103.44,-389.97 1096.89,-383.49"/>
<polygon fill="black" stroke="black" points="1099.53,-381.16 1089.82,-376.93 1094.77,-386.29 1099.53,-381.16"/>
<text text-anchor="middle" x="1164.38" y="-720.95" font-family="Times New Roman,serif" font-size="14.00">merge2#161</text>
</g>
<!-- 46 -->
<g id="node24" class="node">
<title>46</title>
<polygon fill="yellow" stroke="black" points="1143.25,-1687.5 773.25,-1687.5 773.25,-1651.5 1143.25,-1651.5 1143.25,-1687.5"/>
<text text-anchor="middle" x="958.25" y="-1664.45" font-family="Times New Roman,serif" font-size="14.00">self.data.getDimensionSizes(1) = arg.data.getDimensionSizes(1)</text>
<text text-anchor="middle" x="762" y="-1690.7" font-family="Times New Roman,serif" font-size="14.00">[46]</text>
</g>
<!-- 43&#45;&gt;46 -->
<g id="edge37" class="edge">
<title>43&#45;&gt;46</title>
<path fill="none" stroke="black" d="M979.11,-1739.91C975.58,-1728.14 970.79,-1712.23 966.7,-1698.61"/>
<polygon fill="black" stroke="black" points="970.13,-1697.87 963.9,-1689.3 963.43,-1699.88 970.13,-1697.87"/>
<text text-anchor="middle" x="1010.7" y="-1708.7" font-family="Times New Roman,serif" font-size="14.00">graphAnd#51</text>
</g>
<!-- 49 -->
<g id="node25" class="node">
<title>49</title>
<polygon fill="yellow" stroke="black" points="995.25,-1579.5 625.25,-1579.5 625.25,-1543.5 995.25,-1543.5 995.25,-1579.5"/>
<text text-anchor="middle" x="810.25" y="-1556.45" font-family="Times New Roman,serif" font-size="14.00">self.data.getDimensionSizes(2) = arg.data.getDimensionSizes(2)</text>
<text text-anchor="middle" x="614" y="-1582.7" font-family="Times New Roman,serif" font-size="14.00">[49]</text>
</g>
<!-- 46&#45;&gt;49 -->
<g id="edge38" class="edge">
<title>46&#45;&gt;49</title>
<path fill="none" stroke="black" d="M934.14,-1651.23C909.52,-1633.6 871.11,-1606.09 843.59,-1586.38"/>
<polygon fill="black" stroke="black" points="845.75,-1583.62 835.58,-1580.64 841.67,-1589.31 845.75,-1583.62"/>
<text text-anchor="middle" x="943.28" y="-1610.45" font-family="Times New Roman,serif" font-size="14.00">graphAnd#54</text>
</g>
<!-- 52 -->
<g id="node26" class="node">
<title>52</title>
<polygon fill="yellow" stroke="black" points="955.25,-1471.5 585.25,-1471.5 585.25,-1435.5 955.25,-1435.5 955.25,-1471.5"/>
<text text-anchor="middle" x="770.25" y="-1448.45" font-family="Times New Roman,serif" font-size="14.00">self.data.getDimensionSizes(3) = arg.data.getDimensionSizes(3)</text>
<text text-anchor="middle" x="574" y="-1474.7" font-family="Times New Roman,serif" font-size="14.00">[52]</text>
</g>
<!-- 49&#45;&gt;52 -->
<g id="edge39" class="edge">
<title>49&#45;&gt;52</title>
<path fill="none" stroke="black" d="M780.65,-1543.24C774.74,-1538.31 769.33,-1532.38 766,-1525.5 759.68,-1512.43 760.06,-1496.39 762.32,-1482.87"/>
<polygon fill="black" stroke="black" points="765.71,-1483.76 764.35,-1473.25 758.86,-1482.31 765.71,-1483.76"/>
<text text-anchor="middle" x="803.12" y="-1502.45" font-family="Times New Roman,serif" font-size="14.00">graphAnd#57</text>
</g>
<!-- 55 -->
<g id="node27" class="node">
<title>55</title>
<polygon fill="yellow" stroke="black" points="948.38,-1383 636.12,-1383 636.12,-1347 948.38,-1347 948.38,-1383"/>
<text text-anchor="middle" x="792.25" y="-1359.95" font-family="Times New Roman,serif" font-size="14.00">self.data.getDimension() = result.data.getDimension()</text>
<text text-anchor="middle" x="624.88" y="-1386.2" font-family="Times New Roman,serif" font-size="14.00">[55]</text>
</g>
<!-- 52&#45;&gt;55 -->
<g id="edge15" class="edge">
<title>52&#45;&gt;55</title>
<path fill="none" stroke="black" d="M774.6,-1435.41C777.59,-1423.64 781.64,-1407.73 785.1,-1394.11"/>
<polygon fill="black" stroke="black" points="788.39,-1395.37 787.46,-1384.82 781.61,-1393.65 788.39,-1395.37"/>
<text text-anchor="middle" x="823.72" y="-1404.2" font-family="Times New Roman,serif" font-size="14.00">graphAnd#148</text>
</g>
<!-- 58 -->
<g id="node28" class="node">
<title>58</title>
<polygon fill="yellow" stroke="black" points="1060.62,-1294.5 677.88,-1294.5 677.88,-1258.5 1060.62,-1258.5 1060.62,-1294.5"/>
<text text-anchor="middle" x="869.25" y="-1271.45" font-family="Times New Roman,serif" font-size="14.00">self.data.getDimensionSizes(1) = result.data.getDimensionSizes(1)</text>
<text text-anchor="middle" x="666.62" y="-1297.7" font-family="Times New Roman,serif" font-size="14.00">[58]</text>
</g>
<!-- 55&#45;&gt;58 -->
<g id="edge40" class="edge">
<title>55&#45;&gt;58</title>
<path fill="none" stroke="black" d="M807.46,-1346.91C818.57,-1334.43 833.82,-1317.3 846.39,-1303.18"/>
<polygon fill="black" stroke="black" points="848.76,-1305.78 852.8,-1295.98 843.54,-1301.12 848.76,-1305.78"/>
<text text-anchor="middle" x="874.77" y="-1315.7" font-family="Times New Roman,serif" font-size="14.00">graphAnd#62</text>
</g>
<!-- 61 -->
<g id="node29" class="node">
<title>61</title>
<polygon fill="yellow" stroke="black" points="1099.62,-1206 716.88,-1206 716.88,-1170 1099.62,-1170 1099.62,-1206"/>
<text text-anchor="middle" x="908.25" y="-1182.95" font-family="Times New Roman,serif" font-size="14.00">self.data.getDimensionSizes(2) = result.data.getDimensionSizes(2)</text>
<text text-anchor="middle" x="705.62" y="-1209.2" font-family="Times New Roman,serif" font-size="14.00">[61]</text>
</g>
<!-- 58&#45;&gt;61 -->
<g id="edge41" class="edge">
<title>58&#45;&gt;61</title>
<path fill="none" stroke="black" d="M876.96,-1258.41C882.32,-1246.52 889.58,-1230.41 895.76,-1216.7"/>
<polygon fill="black" stroke="black" points="898.89,-1218.28 899.81,-1207.73 892.5,-1215.41 898.89,-1218.28"/>
<text text-anchor="middle" x="929.37" y="-1227.2" font-family="Times New Roman,serif" font-size="14.00">graphAnd#65</text>
</g>
<!-- 64 -->
<g id="node30" class="node">
<title>64</title>
<polygon fill="yellow" stroke="black" points="1108.62,-1117.5 725.88,-1117.5 725.88,-1081.5 1108.62,-1081.5 1108.62,-1117.5"/>
<text text-anchor="middle" x="917.25" y="-1094.45" font-family="Times New Roman,serif" font-size="14.00">self.data.getDimensionSizes(3) = result.data.getDimensionSizes(3)</text>
<text text-anchor="middle" x="714.62" y="-1120.7" font-family="Times New Roman,serif" font-size="14.00">[64]</text>
</g>
<!-- 61&#45;&gt;64 -->
<g id="edge42" class="edge">
<title>61&#45;&gt;64</title>
<path fill="none" stroke="black" d="M910.03,-1169.91C911.24,-1158.26 912.88,-1142.55 914.28,-1129.02"/>
<polygon fill="black" stroke="black" points="917.73,-1129.66 915.29,-1119.36 910.77,-1128.94 917.73,-1129.66"/>
<text text-anchor="middle" x="950.68" y="-1138.7" font-family="Times New Roman,serif" font-size="14.00">graphAnd#68</text>
</g>
<!-- 67 -->
<g id="node31" class="node">
<title>67</title>
<polygon fill="yellow" stroke="black" points="1023.88,-1009.5 810.62,-1009.5 810.62,-973.5 1023.88,-973.5 1023.88,-1009.5"/>
<text text-anchor="middle" x="917.25" y="-986.45" font-family="Times New Roman,serif" font-size="14.00">d1 = arg.data.getDimensionSizes(1)</text>
<text text-anchor="middle" x="799.38" y="-1012.7" font-family="Times New Roman,serif" font-size="14.00">[67]</text>
</g>
<!-- 64&#45;&gt;67 -->
<g id="edge13" class="edge">
<title>64&#45;&gt;67</title>
<path fill="none" stroke="black" d="M917.25,-1081.47C917.25,-1065.26 917.25,-1040.56 917.25,-1021.29"/>
<polygon fill="black" stroke="black" points="920.75,-1021.35 917.25,-1011.35 913.75,-1021.35 920.75,-1021.35"/>
<text text-anchor="middle" x="957.75" y="-1040.45" font-family="Times New Roman,serif" font-size="14.00">graphAnd#146</text>
</g>
<!-- 70 -->
<g id="node32" class="node">
<title>70</title>
<polygon fill="yellow" stroke="black" points="1024.88,-921 811.62,-921 811.62,-885 1024.88,-885 1024.88,-921"/>
<text text-anchor="middle" x="918.25" y="-897.95" font-family="Times New Roman,serif" font-size="14.00">d2 = arg.data.getDimensionSizes(2)</text>
<text text-anchor="middle" x="800.38" y="-924.2" font-family="Times New Roman,serif" font-size="14.00">[70]</text>
</g>
<!-- 67&#45;&gt;70 -->
<g id="edge43" class="edge">
<title>67&#45;&gt;70</title>
<path fill="none" stroke="black" d="M917.45,-973.41C917.58,-961.76 917.76,-946.05 917.92,-932.52"/>
<polygon fill="black" stroke="black" points="921.42,-932.9 918.03,-922.86 914.42,-932.82 921.42,-932.9"/>
<text text-anchor="middle" x="954.96" y="-942.2" font-family="Times New Roman,serif" font-size="14.00">graphAnd#75</text>
</g>
<!-- 73 -->
<g id="node33" class="node">
<title>73</title>
<polygon fill="yellow" stroke="black" points="1042.88,-832.5 829.62,-832.5 829.62,-796.5 1042.88,-796.5 1042.88,-832.5"/>
<text text-anchor="middle" x="936.25" y="-809.45" font-family="Times New Roman,serif" font-size="14.00">d3 = arg.data.getDimensionSizes(3)</text>
<text text-anchor="middle" x="818.38" y="-835.7" font-family="Times New Roman,serif" font-size="14.00">[73]</text>
</g>
<!-- 70&#45;&gt;73 -->
<g id="edge44" class="edge">
<title>70&#45;&gt;73</title>
<path fill="none" stroke="black" d="M921.81,-884.91C924.23,-873.26 927.5,-857.55 930.32,-844.02"/>
<polygon fill="black" stroke="black" points="933.72,-844.84 932.33,-834.33 926.87,-843.41 933.72,-844.84"/>
<text text-anchor="middle" x="965.99" y="-853.7" font-family="Times New Roman,serif" font-size="14.00">graphAnd#76</text>
</g>
<!-- 79 -->
<g id="node35" class="node">
<title>79</title>
<polygon fill="yellow" stroke="black" points="970.62,-744 899.88,-744 899.88,-708 970.62,-708 970.62,-744"/>
<text text-anchor="middle" x="935.25" y="-720.95" font-family="Times New Roman,serif" font-size="14.00">acc = true</text>
<text text-anchor="middle" x="888.62" y="-747.2" font-family="Times New Roman,serif" font-size="14.00">[79]</text>
</g>
<!-- 73&#45;&gt;79 -->
<g id="edge12" class="edge">
<title>73&#45;&gt;79</title>
<path fill="none" stroke="black" d="M936.05,-796.41C935.92,-784.76 935.74,-769.05 935.58,-755.52"/>
<polygon fill="black" stroke="black" points="939.08,-755.82 935.47,-745.86 932.08,-755.9 939.08,-755.82"/>
<text text-anchor="middle" x="976.34" y="-765.2" font-family="Times New Roman,serif" font-size="14.00">graphAnd#145</text>
</g>
<!-- 76 -->
<g id="node34" class="node">
<title>76</title>
<polygon fill="yellow" stroke="black" points="961.25,-655.5 885.25,-655.5 885.25,-619.5 961.25,-619.5 961.25,-655.5"/>
<text text-anchor="middle" x="923.25" y="-632.45" font-family="Times New Roman,serif" font-size="14.00">Index0 = 1</text>
<text text-anchor="middle" x="874" y="-658.7" font-family="Times New Roman,serif" font-size="14.00">[76]</text>
</g>
<!-- 76&#45;&gt;134 -->
<g id="edge11" class="edge">
<title>76&#45;&gt;134</title>
<path fill="none" stroke="black" d="M918.51,-619.41C914.24,-604.03 908.01,-581.57 903.8,-566.4"/>
<polygon fill="black" stroke="black" points="907.17,-565.47 901.13,-556.77 900.43,-567.34 907.17,-565.47"/>
<text text-anchor="middle" x="953.9" y="-588.2" font-family="Times New Roman,serif" font-size="14.00">graphAnd#144</text>
</g>
<!-- 79&#45;&gt;76 -->
<g id="edge45" class="edge">
<title>79&#45;&gt;76</title>
<path fill="none" stroke="black" d="M932.88,-707.91C931.26,-696.26 929.08,-680.55 927.21,-667.02"/>
<polygon fill="black" stroke="black" points="930.71,-666.77 925.86,-657.35 923.77,-667.74 930.71,-666.77"/>
<text text-anchor="middle" x="967.45" y="-676.7" font-family="Times New Roman,serif" font-size="14.00">graphAnd#81</text>
</g>
<!-- 82&#45;&gt;145 -->
<g id="edge25" class="edge">
<title>82&#45;&gt;145</title>
<path fill="none" stroke="black" d="M1040.65,-442.41C1040.95,-431.96 1042.57,-418.59 1048,-408 1053.51,-397.24 1063.71,-388.01 1072.05,-381.74"/>
<polygon fill="black" stroke="black" points="1073.88,-384.73 1080.13,-376.17 1069.91,-378.96 1073.88,-384.73"/>
<text text-anchor="middle" x="1082.12" y="-411.2" font-family="Times New Roman,serif" font-size="14.00">merge1#160</text>
</g>
<!-- 88 -->
<g id="node38" class="node">
<title>88</title>
<polygon fill="yellow" stroke="black" points="962.38,-390 830.12,-390 830.12,-354 962.38,-354 962.38,-390"/>
<text text-anchor="middle" x="896.25" y="-366.95" font-family="Times New Roman,serif" font-size="14.00">it = Sequence{1..d1}</text>
<text text-anchor="middle" x="818.88" y="-393.2" font-family="Times New Roman,serif" font-size="14.00">[88]</text>
</g>
<!-- 85&#45;&gt;88 -->
<g id="edge5" class="edge">
<title>85&#45;&gt;88</title>
<path fill="none" stroke="black" d="M896.25,-442.41C896.25,-430.76 896.25,-415.05 896.25,-401.52"/>
<polygon fill="black" stroke="black" points="899.75,-401.86 896.25,-391.86 892.75,-401.86 899.75,-401.86"/>
<text text-anchor="middle" x="936.75" y="-411.2" font-family="Times New Roman,serif" font-size="14.00">graphAnd#136</text>
</g>
<!-- 94 -->
<g id="node40" class="node">
<title>94</title>
<polygon fill="yellow" stroke="black" points="828,-301.5 750.5,-301.5 750.5,-265.5 828,-265.5 828,-301.5"/>
<text text-anchor="middle" x="789.25" y="-278.45" font-family="Times New Roman,serif" font-size="14.00">acc2 = true</text>
<text text-anchor="middle" x="739.25" y="-304.7" font-family="Times New Roman,serif" font-size="14.00">[94]</text>
</g>
<!-- 88&#45;&gt;94 -->
<g id="edge6" class="edge">
<title>88&#45;&gt;94</title>
<path fill="none" stroke="black" d="M874.85,-353.7C858.96,-340.86 837.07,-323.16 819.41,-308.88"/>
<polygon fill="black" stroke="black" points="821.76,-306.28 811.79,-302.72 817.36,-311.73 821.76,-306.28"/>
<text text-anchor="middle" x="892.83" y="-322.7" font-family="Times New Roman,serif" font-size="14.00">graphAnd#137</text>
</g>
<!-- 91 -->
<g id="node39" class="node">
<title>91</title>
<polygon fill="yellow" stroke="black" points="678.25,-213 602.25,-213 602.25,-177 678.25,-177 678.25,-213"/>
<text text-anchor="middle" x="640.25" y="-189.95" font-family="Times New Roman,serif" font-size="14.00">Index1 = 1</text>
<text text-anchor="middle" x="591" y="-216.2" font-family="Times New Roman,serif" font-size="14.00">[91]</text>
</g>
<!-- 91&#45;&gt;130 -->
<g id="edge4" class="edge">
<title>91&#45;&gt;130</title>
<path fill="none" stroke="black" d="M632.06,-213.46C624.77,-230.64 615.25,-257.8 615.25,-282.5 615.25,-727 615.25,-727 615.25,-727 615.25,-756.72 636.41,-786.35 649.71,-802.04"/>
<polygon fill="black" stroke="black" points="646.73,-803.96 656,-809.08 651.94,-799.29 646.73,-803.96"/>
<text text-anchor="middle" x="655.75" y="-499.7" font-family="Times New Roman,serif" font-size="14.00">graphAnd#133</text>
</g>
<!-- 94&#45;&gt;91 -->
<g id="edge46" class="edge">
<title>94&#45;&gt;91</title>
<path fill="none" stroke="black" d="M759.46,-265.2C736.69,-251.99 705.09,-233.64 680.14,-219.16"/>
<polygon fill="black" stroke="black" points="681.96,-216.17 671.56,-214.17 678.45,-222.22 681.96,-216.17"/>
<text text-anchor="middle" x="765.22" y="-234.2" font-family="Times New Roman,serif" font-size="14.00">graphAnd#92</text>
</g>
<!-- 97&#45;&gt;132 -->
<g id="edge7" class="edge">
<title>97&#45;&gt;132</title>
<path fill="none" stroke="black" d="M704.84,-707.83C705.2,-697.81 705.7,-684.94 706.25,-673.5 706.35,-671.45 706.46,-669.33 706.57,-667.19"/>
<polygon fill="black" stroke="black" points="710.05,-667.63 707.11,-657.45 703.06,-667.25 710.05,-667.63"/>
<text text-anchor="middle" x="746.75" y="-676.7" font-family="Times New Roman,serif" font-size="14.00">graphAnd#138</text>
</g>
<!-- 103 -->
<g id="node43" class="node">
<title>103</title>
<polygon fill="yellow" stroke="black" points="585.75,-655.5 446.75,-655.5 446.75,-619.5 585.75,-619.5 585.75,-655.5"/>
<text text-anchor="middle" x="516.25" y="-632.45" font-family="Times New Roman,serif" font-size="14.00">it2 = Sequence{1..d2}</text>
<text text-anchor="middle" x="432.12" y="-658.7" font-family="Times New Roman,serif" font-size="14.00">[103]</text>
</g>
<!-- 100&#45;&gt;103 -->
<g id="edge55" class="edge">
<title>100&#45;&gt;103</title>
<path fill="none" stroke="black" d="M520.26,-707.91C519.59,-696.26 518.68,-680.55 517.9,-667.02"/>
<polygon fill="black" stroke="black" points="521.41,-667.14 517.34,-657.36 514.42,-667.55 521.41,-667.14"/>
<text text-anchor="middle" x="559.7" y="-676.7" font-family="Times New Roman,serif" font-size="14.00">graphAnd#125</text>
</g>
<!-- 109 -->
<g id="node45" class="node">
<title>109</title>
<polygon fill="yellow" stroke="black" points="551,-567 473.5,-567 473.5,-531 551,-531 551,-567"/>
<text text-anchor="middle" x="512.25" y="-543.95" font-family="Times New Roman,serif" font-size="14.00">acc3 = true</text>
<text text-anchor="middle" x="458.88" y="-570.2" font-family="Times New Roman,serif" font-size="14.00">[109]</text>
</g>
<!-- 103&#45;&gt;109 -->
<g id="edge56" class="edge">
<title>103&#45;&gt;109</title>
<path fill="none" stroke="black" d="M515.46,-619.41C514.92,-607.76 514.19,-592.05 513.57,-578.52"/>
<polygon fill="black" stroke="black" points="517.08,-578.69 513.12,-568.86 510.09,-579.01 517.08,-578.69"/>
<text text-anchor="middle" x="555.11" y="-588.2" font-family="Times New Roman,serif" font-size="14.00">graphAnd#126</text>
</g>
<!-- 106 -->
<g id="node44" class="node">
<title>106</title>
<polygon fill="yellow" stroke="black" points="522.25,-478.5 446.25,-478.5 446.25,-442.5 522.25,-442.5 522.25,-478.5"/>
<text text-anchor="middle" x="484.25" y="-455.45" font-family="Times New Roman,serif" font-size="14.00">Index2 = 1</text>
<text text-anchor="middle" x="431.62" y="-481.7" font-family="Times New Roman,serif" font-size="14.00">[106]</text>
</g>
<!-- 126 -->
<g id="node51" class="node">
<title>126</title>
<polygon fill="aquamarine" stroke="black" points="443.25,-379.2 436.05,-372 443.25,-364.8 450.45,-372 443.25,-379.2"/>
<text text-anchor="middle" x="417.68" y="-382.4" font-family="Times New Roman,serif" font-size="14.00">&lt;126&gt;</text>
</g>
<!-- 106&#45;&gt;126 -->
<g id="edge54" class="edge">
<title>106&#45;&gt;126</title>
<path fill="none" stroke="black" d="M476.15,-442.41C468.56,-426.4 457.35,-402.74 450.17,-387.6"/>
<polygon fill="black" stroke="black" points="453.52,-386.49 446.07,-378.96 447.19,-389.49 453.52,-386.49"/>
<text text-anchor="middle" x="507.92" y="-411.2" font-family="Times New Roman,serif" font-size="14.00">graphAnd#122</text>
</g>
<!-- 109&#45;&gt;106 -->
<g id="edge47" class="edge">
<title>109&#45;&gt;106</title>
<path fill="none" stroke="black" d="M506.72,-530.91C502.91,-519.14 497.76,-503.23 493.35,-489.61"/>
<polygon fill="black" stroke="black" points="496.74,-488.73 490.33,-480.29 490.08,-490.88 496.74,-488.73"/>
<text text-anchor="middle" x="541.26" y="-499.7" font-family="Times New Roman,serif" font-size="14.00">graphAnd#103</text>
</g>
<!-- 112 -->
<g id="node46" class="node">
<title>112</title>
<polygon fill="yellow" stroke="black" points="587.38,-301.5 467.12,-301.5 467.12,-265.5 587.38,-265.5 587.38,-301.5"/>
<text text-anchor="middle" x="527.25" y="-278.45" font-family="Times New Roman,serif" font-size="14.00">Index2 &gt; d3 &#45; 1+ 1</text>
<text text-anchor="middle" x="452.5" y="-304.7" font-family="Times New Roman,serif" font-size="14.00">[112]</text>
</g>
<!-- 112&#45;&gt;128 -->
<g id="edge57" class="edge">
<title>112&#45;&gt;128</title>
<path fill="none" stroke="black" d="M587.72,-291.29C668.41,-302.06 801.25,-326.54 801.25,-371 801.25,-815.5 801.25,-815.5 801.25,-815.5 801.25,-841.19 782.07,-862.78 762.86,-877.97"/>
<polygon fill="black" stroke="black" points="760.96,-875.02 755.02,-883.79 765.13,-880.64 760.96,-875.02"/>
<text text-anchor="middle" x="841.75" y="-588.2" font-family="Times New Roman,serif" font-size="14.00">graphAnd#127</text>
</g>
<!-- 115 -->
<g id="node47" class="node">
<title>115</title>
<polygon fill="yellow" stroke="black" points="401.5,-301.5 273,-301.5 273,-265.5 401.5,-265.5 401.5,-301.5"/>
<text text-anchor="middle" x="337.25" y="-278.45" font-family="Times New Roman,serif" font-size="14.00">Index2 &lt;= d3 &#45; 1+ 1</text>
<text text-anchor="middle" x="258.38" y="-304.7" font-family="Times New Roman,serif" font-size="14.00">[115]</text>
</g>
<!-- 118 -->
<g id="node48" class="node">
<title>118</title>
<polygon fill="yellow" stroke="black" points="335.75,-213 196.75,-213 196.75,-177 335.75,-177 335.75,-213"/>
<text text-anchor="middle" x="266.25" y="-189.95" font-family="Times New Roman,serif" font-size="14.00">it3 = Sequence{1..d3}</text>
<text text-anchor="middle" x="182.12" y="-216.2" font-family="Times New Roman,serif" font-size="14.00">[118]</text>
</g>
<!-- 115&#45;&gt;118 -->
<g id="edge48" class="edge">
<title>115&#45;&gt;118</title>
<path fill="none" stroke="black" d="M323.22,-265.41C313.08,-253.05 299.19,-236.13 287.66,-222.08"/>
<polygon fill="black" stroke="black" points="290.5,-220.03 281.45,-214.52 285.09,-224.47 290.5,-220.03"/>
<text text-anchor="middle" x="348.61" y="-234.2" font-family="Times New Roman,serif" font-size="14.00">graphAnd#114</text>
</g>
<!-- 121 -->
<g id="node49" class="node">
<title>121</title>
<polygon fill="yellow" stroke="black" points="411.25,-124.5 29.25,-124.5 29.25,-88.5 411.25,-88.5 411.25,-124.5"/>
<text text-anchor="middle" x="220.25" y="-101.45" font-family="Times New Roman,serif" font-size="14.00">result.data[it][it2][it3] = self.data[it][it2][it3] + arg.data[it][it2][it3]</text>
<text text-anchor="middle" x="14.62" y="-127.7" font-family="Times New Roman,serif" font-size="14.00">[121]</text>
</g>
<!-- 118&#45;&gt;121 -->
<g id="edge49" class="edge">
<title>118&#45;&gt;121</title>
<path fill="none" stroke="black" d="M257.16,-176.91C250.78,-164.9 242.1,-148.59 234.77,-134.8"/>
<polygon fill="black" stroke="black" points="237.97,-133.37 230.19,-126.19 231.79,-136.66 237.97,-133.37"/>
<text text-anchor="middle" x="287.87" y="-145.7" font-family="Times New Roman,serif" font-size="14.00">graphAnd#115</text>
</g>
<!-- 124 -->
<g id="node50" class="node">
<title>124</title>
<polygon fill="yellow" stroke="black" points="394.88,-36 265.62,-36 265.62,0 394.88,0 394.88,-36"/>
<text text-anchor="middle" x="330.25" y="-12.95" font-family="Times New Roman,serif" font-size="14.00">Index2 = Index2 + 1</text>
<text text-anchor="middle" x="251" y="-39.2" font-family="Times New Roman,serif" font-size="14.00">[124]</text>
</g>
<!-- 121&#45;&gt;124 -->
<g id="edge50" class="edge">
<title>121&#45;&gt;124</title>
<path fill="none" stroke="black" d="M242.25,-88.2C258.58,-75.36 281.09,-57.66 299.25,-43.38"/>
<polygon fill="black" stroke="black" points="301.41,-46.13 307.1,-37.2 297.08,-40.63 301.41,-46.13"/>
<text text-anchor="middle" x="325.6" y="-57.2" font-family="Times New Roman,serif" font-size="14.00">graphAnd#116</text>
</g>
<!-- 124&#45;&gt;126 -->
<g id="edge52" class="edge">
<title>124&#45;&gt;126</title>
<path fill="none" stroke="black" d="M379.33,-36.39C408.26,-50.12 439.25,-72.52 439.25,-105.5 439.25,-284.5 439.25,-284.5 439.25,-284.5 439.25,-308.34 440.79,-335.84 441.95,-353.32"/>
<polygon fill="black" stroke="black" points="438.46,-353.47 442.65,-363.2 445.44,-352.98 438.46,-353.47"/>
<text text-anchor="middle" x="469.62" y="-189.95" font-family="Times New Roman,serif" font-size="14.00">iterate#119</text>
</g>
<!-- 126&#45;&gt;112 -->
<g id="edge53" class="edge">
<title>126&#45;&gt;112</title>
<path fill="none" stroke="black" d="M446.44,-367.71C455.55,-358.33 482.35,-330.74 502.61,-309.88"/>
<polygon fill="black" stroke="black" points="505.03,-312.4 509.49,-302.79 500.01,-307.52 505.03,-312.4"/>
<text text-anchor="middle" x="533.27" y="-322.7" font-family="Times New Roman,serif" font-size="14.00">graphAnd#121</text>
</g>
<!-- 126&#45;&gt;115 -->
<g id="edge51" class="edge">
<title>126&#45;&gt;115</title>
<path fill="none" stroke="black" d="M437.58,-369.83C423.57,-366.69 386.81,-356.83 364.5,-336 357.43,-329.4 351.84,-320.54 347.61,-312.04"/>
<polygon fill="black" stroke="black" points="350.86,-310.74 343.59,-303.03 344.47,-313.59 350.86,-310.74"/>
<text text-anchor="middle" x="394.88" y="-322.7" font-family="Times New Roman,serif" font-size="14.00">iterate#118</text>
</g>
</g>
</svg>
