<?xml version="1.0" encoding="UTF-8" standalone="no"?>
<!DOCTYPE svg PUBLIC "-//W3C//DTD SVG 1.1//EN"
 "http://www.w3.org/Graphics/SVG/1.1/DTD/svg11.dtd">
<!-- Generated by graphviz version 12.2.1 (20241206.2353)
 -->
<!-- Title: CLG Pages: 1 -->
<svg width="246pt" height="437pt"
 viewBox="0.00 0.00 246.00 436.80" xmlns="http://www.w3.org/2000/svg" xmlns:xlink="http://www.w3.org/1999/xlink">
<g id="graph0" class="graph" transform="scale(1 1) rotate(0) translate(4 432.8)">
<title>CLG</title>
<polygon fill="white" stroke="none" points="-4,4 -4,-432.8 242,-432.8 242,4 -4,4"/>
<!-- 353 -->
<g id="node1" class="node">
<title>353</title>
<polygon fill="yellow" stroke="black" points="238,-183.9 29.25,-183.9 29.25,-147.9 238,-147.9 238,-183.9"/>
<text text-anchor="middle" x="133.62" y="-160.85" font-family="Times New Roman,serif" font-size="14.00">self.data.getDimensionSizes(3) &gt; 0</text>
<text text-anchor="middle" x="14.62" y="-187.1" font-family="Times New Roman,serif" font-size="14.00">[353]</text>
</g>
<!-- 344 -->
<g id="node2" class="node">
<title>344</title>
<polygon fill="yellow" stroke="black" points="187.38,-95.4 79.88,-95.4 79.88,-59.4 187.38,-59.4 187.38,-95.4"/>
<text text-anchor="middle" x="133.62" y="-72.35" font-family="Times New Roman,serif" font-size="14.00">result = self.data</text>
<text text-anchor="middle" x="65.25" y="-98.6" font-family="Times New Roman,serif" font-size="14.00">[344]</text>
</g>
<!-- 353&#45;&gt;344 -->
<g id="edge3" class="edge">
<title>353&#45;&gt;344</title>
<path fill="none" stroke="black" d="M133.62,-147.81C133.62,-136.16 133.62,-120.45 133.62,-106.92"/>
<polygon fill="black" stroke="black" points="137.13,-107.26 133.63,-97.26 130.13,-107.26 137.13,-107.26"/>
<text text-anchor="middle" x="174.12" y="-116.6" font-family="Times New Roman,serif" font-size="14.00">graphAnd#391</text>
</g>
<!-- 345 -->
<g id="node3" class="node">
<title>345</title>
<ellipse fill="black" stroke="black" cx="133.62" cy="-11.2" rx="7.2" ry="7.2"/>
<ellipse fill="none" stroke="black" cx="133.62" cy="-11.2" rx="11.2" ry="11.2"/>
<text text-anchor="middle" x="112.3" y="-25.6" font-family="Times New Roman,serif" font-size="14.00">[&#45;1]</text>
</g>
<!-- 344&#45;&gt;345 -->
<g id="edge4" class="edge">
<title>344&#45;&gt;345</title>
<path fill="none" stroke="black" d="M133.62,-59.2C133.62,-51.5 133.62,-42.34 133.62,-34.15"/>
<polygon fill="black" stroke="black" points="137.13,-34.32 133.63,-24.32 130.13,-34.32 137.13,-34.32"/>
</g>
<!-- 346 -->
<g id="node4" class="node">
<title>346</title>
<ellipse fill="black" stroke="black" cx="133.62" cy="-405.1" rx="7.2" ry="7.2"/>
<text text-anchor="middle" x="118.55" y="-415.5" font-family="Times New Roman,serif" font-size="14.00">[0]</text>
</g>
<!-- 347 -->
<g id="node5" class="node">
<title>347</title>
<polygon fill="yellow" stroke="black" points="238,-360.9 29.25,-360.9 29.25,-324.9 238,-324.9 238,-360.9"/>
<text text-anchor="middle" x="133.62" y="-337.85" font-family="Times New Roman,serif" font-size="14.00">self.data.getDimensionSizes(1) &gt; 0</text>
<text text-anchor="middle" x="14.62" y="-364.1" font-family="Times New Roman,serif" font-size="14.00">[347]</text>
</g>
<!-- 346&#45;&gt;347 -->
<g id="edge5" class="edge">
<title>346&#45;&gt;347</title>
<path fill="none" stroke="black" d="M133.62,-397.66C133.62,-391.6 133.62,-382.09 133.62,-372.74"/>
<polygon fill="black" stroke="black" points="137.13,-372.78 133.63,-362.78 130.13,-372.78 137.13,-372.78"/>
</g>
<!-- 350 -->
<g id="node6" class="node">
<title>350</title>
<polygon fill="yellow" stroke="black" points="238,-272.4 29.25,-272.4 29.25,-236.4 238,-236.4 238,-272.4"/>
<text text-anchor="middle" x="133.62" y="-249.35" font-family="Times New Roman,serif" font-size="14.00">self.data.getDimensionSizes(2) &gt; 0</text>
<text text-anchor="middle" x="14.62" y="-275.6" font-family="Times New Roman,serif" font-size="14.00">[350]</text>
</g>
<!-- 347&#45;&gt;350 -->
<g id="edge1" class="edge">
<title>347&#45;&gt;350</title>
<path fill="none" stroke="black" d="M133.62,-324.81C133.62,-313.16 133.62,-297.45 133.62,-283.92"/>
<polygon fill="black" stroke="black" points="137.13,-284.26 133.63,-274.26 130.13,-284.26 137.13,-284.26"/>
<text text-anchor="middle" x="174.12" y="-293.6" font-family="Times New Roman,serif" font-size="14.00">graphAnd#387</text>
</g>
<!-- 350&#45;&gt;353 -->
<g id="edge2" class="edge">
<title>350&#45;&gt;353</title>
<path fill="none" stroke="black" d="M133.62,-236.31C133.62,-224.66 133.62,-208.95 133.62,-195.42"/>
<polygon fill="black" stroke="black" points="137.13,-195.76 133.63,-185.76 130.13,-195.76 137.13,-195.76"/>
<text text-anchor="middle" x="174.12" y="-205.1" font-family="Times New Roman,serif" font-size="14.00">graphAnd#390</text>
</g>
</g>
</svg>
