<?xml version="1.0" encoding="UTF-8" standalone="no"?>
<!DOCTYPE svg PUBLIC "-//W3C//DTD SVG 1.1//EN"
 "http://www.w3.org/Graphics/SVG/1.1/DTD/svg11.dtd">
<!-- Generated by graphviz version 12.2.1 (20241206.2353)
 -->
<!-- Title: CLG Pages: 1 -->
<svg width="256pt" height="191pt"
 viewBox="0.00 0.00 255.75 190.80" xmlns="http://www.w3.org/2000/svg" xmlns:xlink="http://www.w3.org/1999/xlink">
<g id="graph0" class="graph" transform="scale(1 1) rotate(0) translate(4 186.8)">
<title>CLG</title>
<polygon fill="white" stroke="none" points="-4,4 -4,-186.8 251.75,-186.8 251.75,4 -4,4"/>
<!-- 0 -->
<g id="node1" class="node">
<title>0</title>
<ellipse fill="black" stroke="black" cx="131.75" cy="-159.1" rx="7.2" ry="7.2"/>
<text text-anchor="middle" x="116.67" y="-169.5" font-family="Times New Roman,serif" font-size="14.00">[0]</text>
</g>
<!-- 1 -->
<g id="node2" class="node">
<title>1</title>
<polygon fill="yellow" stroke="black" points="247.75,-115.9 15.75,-115.9 15.75,-58.4 247.75,-58.4 247.75,-115.9"/>
<text text-anchor="middle" x="131.75" y="-98.6" font-family="Times New Roman,serif" font-size="14.00">self.data.getDimensionSizes(1) &gt; 0 and</text>
<text text-anchor="middle" x="131.75" y="-82.1" font-family="Times New Roman,serif" font-size="14.00">self.data.getDimensionSizes(2) &gt; 0 and</text>
<text text-anchor="middle" x="131.75" y="-65.6" font-family="Times New Roman,serif" font-size="14.00">self.data.getDimensionSizes(3) &gt; 0</text>
<text text-anchor="middle" x="7.88" y="-119.1" font-family="Times New Roman,serif" font-size="14.00">[1]</text>
</g>
<!-- 0&#45;&gt;1 -->
<g id="edge1" class="edge">
<title>0&#45;&gt;1</title>
<path fill="none" stroke="black" d="M131.75,-151.64C131.75,-145.92 131.75,-137.05 131.75,-127.73"/>
<polygon fill="black" stroke="black" points="135.25,-127.84 131.75,-117.84 128.25,-127.84 135.25,-127.84"/>
</g>
<!-- 2 -->
<g id="node3" class="node">
<title>2</title>
<ellipse fill="black" stroke="black" cx="131.75" cy="-11.2" rx="7.2" ry="7.2"/>
<ellipse fill="none" stroke="black" cx="131.75" cy="-11.2" rx="11.2" ry="11.2"/>
<text text-anchor="middle" x="110.42" y="-25.6" font-family="Times New Roman,serif" font-size="14.00">[&#45;1]</text>
</g>
<!-- 1&#45;&gt;2 -->
<g id="edge2" class="edge">
<title>1&#45;&gt;2</title>
<path fill="none" stroke="black" d="M131.75,-58.19C131.75,-50.23 131.75,-41.67 131.75,-34.12"/>
<polygon fill="black" stroke="black" points="135.25,-34.16 131.75,-24.16 128.25,-34.16 135.25,-34.16"/>
</g>
</g>
</svg>
