<?xml version="1.0" encoding="UTF-8" standalone="no"?>
<!DOCTYPE svg PUBLIC "-//W3C//DTD SVG 1.1//EN"
 "http://www.w3.org/Graphics/SVG/1.1/DTD/svg11.dtd">
<!-- Generated by graphviz version 12.2.1 (20241206.2353)
 -->
<!-- Title: CLG Pages: 1 -->
<svg width="1346pt" height="1556pt"
 viewBox="0.00 0.00 1345.75 1555.80" xmlns="http://www.w3.org/2000/svg" xmlns:xlink="http://www.w3.org/1999/xlink">
<g id="graph0" class="graph" transform="scale(1 1) rotate(0) translate(4 1551.8)">
<title>CLG</title>
<polygon fill="white" stroke="none" points="-4,4 -4,-1551.8 1341.75,-1551.8 1341.75,4 -4,4"/>
<!-- 64 -->
<g id="node1" class="node">
<title>64</title>
<polygon fill="yellow" stroke="black" points="102.75,-1369.9 25.25,-1369.9 25.25,-1333.9 102.75,-1333.9 102.75,-1369.9"/>
<text text-anchor="middle" x="64" y="-1346.85" font-family="Times New Roman,serif" font-size="14.00">acc3 = true</text>
<text text-anchor="middle" x="14" y="-1373.1" font-family="Times New Roman,serif" font-size="14.00">[64]</text>
</g>
<!-- 61 -->
<g id="node34" class="node">
<title>61</title>
<polygon fill="yellow" stroke="black" points="290.25,-1163.4 227.75,-1163.4 227.75,-1127.4 290.25,-1127.4 290.25,-1163.4"/>
<text text-anchor="middle" x="259" y="-1140.35" font-family="Times New Roman,serif" font-size="14.00">idx2 = 1</text>
<text text-anchor="middle" x="216.5" y="-1166.6" font-family="Times New Roman,serif" font-size="14.00">[61]</text>
</g>
<!-- 64&#45;&gt;61 -->
<g id="edge34" class="edge">
<title>64&#45;&gt;61</title>
<path fill="none" stroke="black" d="M80.63,-1333.46C115.09,-1297.32 194.46,-1214.08 234.69,-1171.9"/>
<polygon fill="black" stroke="black" points="237,-1174.54 241.37,-1164.89 231.94,-1169.71 237,-1174.54"/>
<text text-anchor="middle" x="148.25" y="-1302.6" font-family="Times New Roman,serif" font-size="14.00">graphAnd#49</text>
</g>
<!-- 67 -->
<g id="node2" class="node">
<title>67</title>
<polygon fill="yellow" stroke="black" points="280.38,-810.9 173.62,-810.9 173.62,-774.9 280.38,-774.9 280.38,-810.9"/>
<text text-anchor="middle" x="227" y="-787.85" font-family="Times New Roman,serif" font-size="14.00">idx2 &gt; d3 &#45; 1+ 1</text>
<text text-anchor="middle" x="162.38" y="-814.1" font-family="Times New Roman,serif" font-size="14.00">[67]</text>
</g>
<!-- 83 -->
<g id="node13" class="node">
<title>83</title>
<polygon fill="yellow" stroke="black" points="278.12,-722.4 175.88,-722.4 175.88,-686.4 278.12,-686.4 278.12,-722.4"/>
<text text-anchor="middle" x="227" y="-699.35" font-family="Times New Roman,serif" font-size="14.00">idx1 = idx1 + 1</text>
<text text-anchor="middle" x="164.62" y="-725.6" font-family="Times New Roman,serif" font-size="14.00">[83]</text>
</g>
<!-- 67&#45;&gt;83 -->
<g id="edge7" class="edge">
<title>67&#45;&gt;83</title>
<path fill="none" stroke="black" d="M227,-774.81C227,-763.16 227,-747.45 227,-733.92"/>
<polygon fill="black" stroke="black" points="230.5,-734.26 227,-724.26 223.5,-734.26 230.5,-734.26"/>
<text text-anchor="middle" x="264.12" y="-743.6" font-family="Times New Roman,serif" font-size="14.00">graphAnd#73</text>
</g>
<!-- 70 -->
<g id="node3" class="node">
<title>70</title>
<polygon fill="yellow" stroke="black" points="468.5,-810.9 353.5,-810.9 353.5,-774.9 468.5,-774.9 468.5,-810.9"/>
<text text-anchor="middle" x="411" y="-787.85" font-family="Times New Roman,serif" font-size="14.00">idx2 &lt;= d3 &#45; 1+ 1</text>
<text text-anchor="middle" x="342.25" y="-814.1" font-family="Times New Roman,serif" font-size="14.00">[70]</text>
</g>
<!-- 73 -->
<g id="node4" class="node">
<title>73</title>
<polygon fill="yellow" stroke="black" points="554.5,-722.4 415.5,-722.4 415.5,-686.4 554.5,-686.4 554.5,-722.4"/>
<text text-anchor="middle" x="485" y="-699.35" font-family="Times New Roman,serif" font-size="14.00">it3 = Sequence{1..d3}</text>
<text text-anchor="middle" x="404.25" y="-725.6" font-family="Times New Roman,serif" font-size="14.00">[73]</text>
</g>
<!-- 70&#45;&gt;73 -->
<g id="edge35" class="edge">
<title>70&#45;&gt;73</title>
<path fill="none" stroke="black" d="M425.62,-774.81C436.19,-762.45 450.67,-745.53 462.68,-731.48"/>
<polygon fill="black" stroke="black" points="465.33,-733.77 469.17,-723.9 460.01,-729.22 465.33,-733.77"/>
<text text-anchor="middle" x="491.75" y="-743.6" font-family="Times New Roman,serif" font-size="14.00">graphAnd#60</text>
</g>
<!-- 76 -->
<g id="node6" class="node">
<title>76</title>
<polygon fill="yellow" stroke="black" points="726,-633.9 344,-633.9 344,-597.9 726,-597.9 726,-633.9"/>
<text text-anchor="middle" x="535" y="-610.85" font-family="Times New Roman,serif" font-size="14.00">result.data[it][it2][it3] = self.data[it][it2][it3] + arg.data[it][it2][it3]</text>
<text text-anchor="middle" x="332.75" y="-637.1" font-family="Times New Roman,serif" font-size="14.00">[76]</text>
</g>
<!-- 73&#45;&gt;76 -->
<g id="edge36" class="edge">
<title>73&#45;&gt;76</title>
<path fill="none" stroke="black" d="M494.88,-686.31C501.82,-674.3 511.25,-657.99 519.22,-644.2"/>
<polygon fill="black" stroke="black" points="522.24,-645.97 524.21,-635.56 516.18,-642.47 522.24,-645.97"/>
<text text-anchor="middle" x="551.6" y="-655.1" font-family="Times New Roman,serif" font-size="14.00">graphAnd#61</text>
</g>
<!-- 10 -->
<g id="node5" class="node">
<title>10</title>
<polygon fill="yellow" stroke="black" points="1337.75,-1281.4 936.25,-1281.4 936.25,-1009.4 1337.75,-1009.4 1337.75,-1281.4"/>
<text text-anchor="middle" x="1137" y="-1264.1" font-family="Times New Roman,serif" font-size="14.00">self.data.getDimension() &lt;&gt; arg.data.getDimension() and</text>
<text text-anchor="middle" x="1137" y="-1247.6" font-family="Times New Roman,serif" font-size="14.00">self.data.getDimensionSizes(1) = arg.data.getDimensionSizes(1) and</text>
<text text-anchor="middle" x="1137" y="-1231.1" font-family="Times New Roman,serif" font-size="14.00">self.data.getDimensionSizes(2) = arg.data.getDimensionSizes(2) and</text>
<text text-anchor="middle" x="1137" y="-1214.6" font-family="Times New Roman,serif" font-size="14.00">self.data.getDimensionSizes(3) = arg.data.getDimensionSizes(3) or</text>
<text text-anchor="middle" x="1137" y="-1198.1" font-family="Times New Roman,serif" font-size="14.00">self.data.getDimension() = arg.data.getDimension() and</text>
<text text-anchor="middle" x="1137" y="-1181.6" font-family="Times New Roman,serif" font-size="14.00">self.data.getDimensionSizes(1) &lt;&gt; arg.data.getDimensionSizes(1) and</text>
<text text-anchor="middle" x="1137" y="-1165.1" font-family="Times New Roman,serif" font-size="14.00">self.data.getDimensionSizes(2) = arg.data.getDimensionSizes(2) and</text>
<text text-anchor="middle" x="1137" y="-1148.6" font-family="Times New Roman,serif" font-size="14.00">self.data.getDimensionSizes(3) = arg.data.getDimensionSizes(3) or</text>
<text text-anchor="middle" x="1137" y="-1132.1" font-family="Times New Roman,serif" font-size="14.00">self.data.getDimension() = arg.data.getDimension() and</text>
<text text-anchor="middle" x="1137" y="-1115.6" font-family="Times New Roman,serif" font-size="14.00">self.data.getDimensionSizes(1) = arg.data.getDimensionSizes(1) and</text>
<text text-anchor="middle" x="1137" y="-1099.1" font-family="Times New Roman,serif" font-size="14.00">self.data.getDimensionSizes(2) &lt;&gt; arg.data.getDimensionSizes(2) and</text>
<text text-anchor="middle" x="1137" y="-1082.6" font-family="Times New Roman,serif" font-size="14.00">self.data.getDimensionSizes(3) = arg.data.getDimensionSizes(3) or</text>
<text text-anchor="middle" x="1137" y="-1066.1" font-family="Times New Roman,serif" font-size="14.00">self.data.getDimension() = arg.data.getDimension() and</text>
<text text-anchor="middle" x="1137" y="-1049.6" font-family="Times New Roman,serif" font-size="14.00">self.data.getDimensionSizes(1) = arg.data.getDimensionSizes(1) and</text>
<text text-anchor="middle" x="1137" y="-1033.1" font-family="Times New Roman,serif" font-size="14.00">self.data.getDimensionSizes(2) = arg.data.getDimensionSizes(2) and</text>
<text text-anchor="middle" x="1137" y="-1016.6" font-family="Times New Roman,serif" font-size="14.00">self.data.getDimensionSizes(3) &lt;&gt; arg.data.getDimensionSizes(3)</text>
<text text-anchor="middle" x="925" y="-1284.6" font-family="Times New Roman,serif" font-size="14.00">[10]</text>
</g>
<!-- 13 -->
<g id="node7" class="node">
<title>13</title>
<polygon fill="yellow" stroke="black" points="1115.25,-864.9 926.75,-864.9 926.75,-828.9 1115.25,-828.9 1115.25,-864.9"/>
<text text-anchor="middle" x="1021" y="-841.85" font-family="Times New Roman,serif" font-size="14.00">Result = &#39;IllegalDimensionSize&#39;</text>
<text text-anchor="middle" x="915.5" y="-868.1" font-family="Times New Roman,serif" font-size="14.00">[13]</text>
</g>
<!-- 10&#45;&gt;13 -->
<g id="edge24" class="edge">
<title>10&#45;&gt;13</title>
<path fill="none" stroke="black" d="M1084.09,-1009.16C1064.4,-958.83 1043.92,-906.49 1031.83,-875.57"/>
<polygon fill="black" stroke="black" points="1035.22,-874.64 1028.32,-866.6 1028.7,-877.19 1035.22,-874.64"/>
<text text-anchor="middle" x="1113.64" y="-978.1" font-family="Times New Roman,serif" font-size="14.00">graphAnd#93</text>
</g>
<!-- 79 -->
<g id="node9" class="node">
<title>79</title>
<polygon fill="yellow" stroke="black" points="542.12,-545.4 439.88,-545.4 439.88,-509.4 542.12,-509.4 542.12,-545.4"/>
<text text-anchor="middle" x="491" y="-522.35" font-family="Times New Roman,serif" font-size="14.00">idx2 = idx2 + 1</text>
<text text-anchor="middle" x="428.62" y="-548.6" font-family="Times New Roman,serif" font-size="14.00">[79]</text>
</g>
<!-- 76&#45;&gt;79 -->
<g id="edge37" class="edge">
<title>76&#45;&gt;79</title>
<path fill="none" stroke="black" d="M526.31,-597.81C520.2,-585.8 511.9,-569.49 504.88,-555.7"/>
<polygon fill="black" stroke="black" points="508.17,-554.43 500.51,-547.1 501.93,-557.6 508.17,-554.43"/>
<text text-anchor="middle" x="554.07" y="-566.6" font-family="Times New Roman,serif" font-size="14.00">graphAnd#62</text>
</g>
<!-- 94 -->
<g id="node23" class="node">
<title>94</title>
<polygon fill="aquamarine" stroke="black" points="888,-202.2 880.8,-195 888,-187.8 895.2,-195 888,-202.2"/>
<text text-anchor="middle" x="865.8" y="-205.4" font-family="Times New Roman,serif" font-size="14.00">&lt;94&gt;</text>
</g>
<!-- 13&#45;&gt;94 -->
<g id="edge30" class="edge">
<title>13&#45;&gt;94</title>
<path fill="none" stroke="black" d="M1010.5,-828.5C1000.19,-809.73 986,-778.63 986,-749.65 986,-749.65 986,-749.65 986,-282.5 986,-239.01 931.08,-212.16 903.46,-201.4"/>
<polygon fill="black" stroke="black" points="905.01,-198.24 894.42,-198.11 902.62,-204.82 905.01,-198.24"/>
<text text-anchor="middle" x="1020.12" y="-522.35" font-family="Times New Roman,serif" font-size="14.00">merge2#101</text>
</g>
<!-- 14 -->
<g id="node8" class="node">
<title>14</title>
<ellipse fill="black" stroke="black" cx="888" cy="-106.5" rx="7.2" ry="7.2"/>
<ellipse fill="none" stroke="black" cx="888" cy="-106.5" rx="11.2" ry="11.2"/>
<text text-anchor="middle" x="866.67" y="-120.9" font-family="Times New Roman,serif" font-size="14.00">[&#45;1]</text>
</g>
<!-- 81 -->
<g id="node11" class="node">
<title>81</title>
<polygon fill="aquamarine" stroke="black" points="283,-927.1 275.8,-919.9 283,-912.7 290.2,-919.9 283,-927.1"/>
<text text-anchor="middle" x="260.8" y="-930.3" font-family="Times New Roman,serif" font-size="14.00">&lt;81&gt;</text>
</g>
<!-- 79&#45;&gt;81 -->
<g id="edge2" class="edge">
<title>79&#45;&gt;81</title>
<path fill="none" stroke="black" d="M440.11,-545.87C400.45,-560.41 349.72,-581.33 335,-597.9 316.07,-619.21 316,-630.65 316,-659.15 316,-793.9 316,-793.9 316,-793.9 316,-834.81 299.27,-880.82 289.64,-903.94"/>
<polygon fill="black" stroke="black" points="286.54,-902.29 285.77,-912.86 292.96,-905.08 286.54,-902.29"/>
<text text-anchor="middle" x="343" y="-699.35" font-family="Times New Roman,serif" font-size="14.00">iterate#65</text>
</g>
<!-- 16 -->
<g id="node10" class="node">
<title>16</title>
<polygon fill="yellow" stroke="black" points="918.62,-1182.4 525.38,-1182.4 525.38,-1108.4 918.62,-1108.4 918.62,-1182.4"/>
<text text-anchor="middle" x="722" y="-1165.1" font-family="Times New Roman,serif" font-size="14.00">self.data.getDimension() = arg.data.getDimension() and</text>
<text text-anchor="middle" x="722" y="-1148.6" font-family="Times New Roman,serif" font-size="14.00">self.data.getDimensionSizes(1) = arg.data.getDimensionSizes(1) and</text>
<text text-anchor="middle" x="722" y="-1132.1" font-family="Times New Roman,serif" font-size="14.00">self.data.getDimensionSizes(2) = arg.data.getDimensionSizes(2) and</text>
<text text-anchor="middle" x="722" y="-1115.6" font-family="Times New Roman,serif" font-size="14.00">self.data.getDimensionSizes(3) = arg.data.getDimensionSizes(3)</text>
<text text-anchor="middle" x="514.12" y="-1185.6" font-family="Times New Roman,serif" font-size="14.00">[16]</text>
</g>
<!-- 19 -->
<g id="node12" class="node">
<title>19</title>
<polygon fill="yellow" stroke="black" points="971,-956.9 565,-956.9 565,-882.9 971,-882.9 971,-956.9"/>
<text text-anchor="middle" x="768" y="-939.6" font-family="Times New Roman,serif" font-size="14.00">self.data.getDimension() = result.data.getDimension() and</text>
<text text-anchor="middle" x="768" y="-923.1" font-family="Times New Roman,serif" font-size="14.00">self.data.getDimensionSizes(1) = result.data.getDimensionSizes(1) and</text>
<text text-anchor="middle" x="768" y="-906.6" font-family="Times New Roman,serif" font-size="14.00">self.data.getDimensionSizes(2) = result.data.getDimensionSizes(2) and</text>
<text text-anchor="middle" x="768" y="-890.1" font-family="Times New Roman,serif" font-size="14.00">self.data.getDimensionSizes(3) = result.data.getDimensionSizes(3)</text>
<text text-anchor="middle" x="553.75" y="-960.1" font-family="Times New Roman,serif" font-size="14.00">[19]</text>
</g>
<!-- 16&#45;&gt;19 -->
<g id="edge25" class="edge">
<title>16&#45;&gt;19</title>
<path fill="none" stroke="black" d="M729.49,-1107.99C737.31,-1070 749.61,-1010.27 758.19,-968.55"/>
<polygon fill="black" stroke="black" points="761.62,-969.27 760.21,-958.77 754.76,-967.86 761.62,-969.27"/>
<text text-anchor="middle" x="794.01" y="-978.1" font-family="Times New Roman,serif" font-size="14.00">graphAnd#94</text>
</g>
<!-- 81&#45;&gt;67 -->
<g id="edge3" class="edge">
<title>81&#45;&gt;67</title>
<path fill="none" stroke="black" d="M278.74,-916.43C267.77,-909.79 238.6,-890.31 227.75,-864.9 222.15,-851.79 221.46,-836.05 222.38,-822.71"/>
<polygon fill="black" stroke="black" points="225.86,-823.11 223.43,-812.8 218.89,-822.38 225.86,-823.11"/>
<text text-anchor="middle" x="264.88" y="-841.85" font-family="Times New Roman,serif" font-size="14.00">graphAnd#67</text>
</g>
<!-- 81&#45;&gt;70 -->
<g id="edge1" class="edge">
<title>81&#45;&gt;70</title>
<path fill="none" stroke="black" d="M286.42,-915.56C300.29,-902.01 353.09,-850.45 385.33,-818.97"/>
<polygon fill="black" stroke="black" points="387.65,-821.6 392.36,-812.1 382.76,-816.59 387.65,-821.6"/>
<text text-anchor="middle" x="400.18" y="-841.85" font-family="Times New Roman,serif" font-size="14.00">iterate#64</text>
</g>
<!-- 22 -->
<g id="node15" class="node">
<title>22</title>
<polygon fill="yellow" stroke="black" points="909.62,-810.9 696.38,-810.9 696.38,-774.9 909.62,-774.9 909.62,-810.9"/>
<text text-anchor="middle" x="803" y="-787.85" font-family="Times New Roman,serif" font-size="14.00">d1 = arg.data.getDimensionSizes(1)</text>
<text text-anchor="middle" x="685.12" y="-814.1" font-family="Times New Roman,serif" font-size="14.00">[22]</text>
</g>
<!-- 19&#45;&gt;22 -->
<g id="edge23" class="edge">
<title>19&#45;&gt;22</title>
<path fill="none" stroke="black" d="M778.22,-882.41C783.61,-863.14 790.13,-839.85 795.13,-822"/>
<polygon fill="black" stroke="black" points="798.43,-823.19 797.76,-812.61 791.69,-821.3 798.43,-823.19"/>
<text text-anchor="middle" x="829.78" y="-841.85" font-family="Times New Roman,serif" font-size="14.00">graphAnd#92</text>
</g>
<!-- 85 -->
<g id="node14" class="node">
<title>85</title>
<polygon fill="aquamarine" stroke="black" points="227,-623.1 219.8,-615.9 227,-608.7 234.2,-615.9 227,-623.1"/>
<text text-anchor="middle" x="204.8" y="-626.3" font-family="Times New Roman,serif" font-size="14.00">&lt;85&gt;</text>
</g>
<!-- 83&#45;&gt;85 -->
<g id="edge9" class="edge">
<title>83&#45;&gt;85</title>
<path fill="none" stroke="black" d="M227,-686.31C227,-671.54 227,-650.23 227,-635.13"/>
<polygon fill="black" stroke="black" points="230.5,-635.29 227,-625.29 223.5,-635.29 230.5,-635.29"/>
<text text-anchor="middle" x="254" y="-655.1" font-family="Times New Roman,serif" font-size="14.00">iterate#76</text>
</g>
<!-- 52 -->
<g id="node31" class="node">
<title>52</title>
<polygon fill="yellow" stroke="black" points="413.38,-545.4 306.62,-545.4 306.62,-509.4 413.38,-509.4 413.38,-545.4"/>
<text text-anchor="middle" x="360" y="-522.35" font-family="Times New Roman,serif" font-size="14.00">idx1 &gt; d2 &#45; 1+ 1</text>
<text text-anchor="middle" x="295.38" y="-548.6" font-family="Times New Roman,serif" font-size="14.00">[52]</text>
</g>
<!-- 85&#45;&gt;52 -->
<g id="edge10" class="edge">
<title>85&#45;&gt;52</title>
<path fill="none" stroke="black" d="M228.85,-610.18C233.01,-600.12 244.09,-576.46 260.75,-563.4 270.98,-555.38 283.19,-549.11 295.49,-544.25"/>
<polygon fill="black" stroke="black" points="296.66,-547.55 304.86,-540.84 294.26,-540.97 296.66,-547.55"/>
<text text-anchor="middle" x="297.88" y="-566.6" font-family="Times New Roman,serif" font-size="14.00">graphAnd#78</text>
</g>
<!-- 55 -->
<g id="node32" class="node">
<title>55</title>
<polygon fill="yellow" stroke="black" points="198.5,-545.4 83.5,-545.4 83.5,-509.4 198.5,-509.4 198.5,-545.4"/>
<text text-anchor="middle" x="141" y="-522.35" font-family="Times New Roman,serif" font-size="14.00">idx1 &lt;= d2 &#45; 1+ 1</text>
<text text-anchor="middle" x="72.25" y="-548.6" font-family="Times New Roman,serif" font-size="14.00">[55]</text>
</g>
<!-- 85&#45;&gt;55 -->
<g id="edge8" class="edge">
<title>85&#45;&gt;55</title>
<path fill="none" stroke="black" d="M221.55,-613.59C208.76,-610.23 176.6,-600.14 159,-579.9 153.34,-573.39 149.43,-564.99 146.74,-556.88"/>
<polygon fill="black" stroke="black" points="150.12,-555.99 144.09,-547.28 143.37,-557.85 150.12,-555.99"/>
<text text-anchor="middle" x="186" y="-566.6" font-family="Times New Roman,serif" font-size="14.00">iterate#75</text>
</g>
<!-- 25 -->
<g id="node17" class="node">
<title>25</title>
<polygon fill="yellow" stroke="black" points="957.62,-722.4 744.38,-722.4 744.38,-686.4 957.62,-686.4 957.62,-722.4"/>
<text text-anchor="middle" x="851" y="-699.35" font-family="Times New Roman,serif" font-size="14.00">d2 = arg.data.getDimensionSizes(2)</text>
<text text-anchor="middle" x="733.12" y="-725.6" font-family="Times New Roman,serif" font-size="14.00">[25]</text>
</g>
<!-- 22&#45;&gt;25 -->
<g id="edge15" class="edge">
<title>22&#45;&gt;25</title>
<path fill="none" stroke="black" d="M812.48,-774.81C819.15,-762.8 828.2,-746.49 835.85,-732.7"/>
<polygon fill="black" stroke="black" points="838.85,-734.52 840.64,-724.07 832.73,-731.12 838.85,-734.52"/>
<text text-anchor="middle" x="868.42" y="-743.6" font-family="Times New Roman,serif" font-size="14.00">graphAnd#21</text>
</g>
<!-- 87 -->
<g id="node16" class="node">
<title>87</title>
<polygon fill="yellow" stroke="black" points="466.12,-456.9 363.88,-456.9 363.88,-420.9 466.12,-420.9 466.12,-456.9"/>
<text text-anchor="middle" x="415" y="-433.85" font-family="Times New Roman,serif" font-size="14.00">idx0 = idx0 + 1</text>
<text text-anchor="middle" x="352.62" y="-460.1" font-family="Times New Roman,serif" font-size="14.00">[87]</text>
</g>
<!-- 89 -->
<g id="node18" class="node">
<title>89</title>
<polygon fill="aquamarine" stroke="black" points="502,-368.4 494.8,-361.2 502,-354 509.2,-361.2 502,-368.4"/>
<text text-anchor="middle" x="479.8" y="-371.6" font-family="Times New Roman,serif" font-size="14.00">&lt;89&gt;</text>
</g>
<!-- 87&#45;&gt;89 -->
<g id="edge18" class="edge">
<title>87&#45;&gt;89</title>
<path fill="none" stroke="black" d="M425.64,-420.56C432.92,-409.75 443.33,-396.09 455,-386.4 464.43,-378.57 476.82,-372.32 486.51,-368.14"/>
<polygon fill="black" stroke="black" points="487.52,-371.5 495.51,-364.54 484.92,-365 487.52,-371.5"/>
<text text-anchor="middle" x="482" y="-389.6" font-family="Times New Roman,serif" font-size="14.00">iterate#87</text>
</g>
<!-- 28 -->
<g id="node21" class="node">
<title>28</title>
<polygon fill="yellow" stroke="black" points="957.62,-633.9 744.38,-633.9 744.38,-597.9 957.62,-597.9 957.62,-633.9"/>
<text text-anchor="middle" x="851" y="-610.85" font-family="Times New Roman,serif" font-size="14.00">d3 = arg.data.getDimensionSizes(3)</text>
<text text-anchor="middle" x="733.12" y="-637.1" font-family="Times New Roman,serif" font-size="14.00">[28]</text>
</g>
<!-- 25&#45;&gt;28 -->
<g id="edge16" class="edge">
<title>25&#45;&gt;28</title>
<path fill="none" stroke="black" d="M851,-686.31C851,-674.66 851,-658.95 851,-645.42"/>
<polygon fill="black" stroke="black" points="854.5,-645.76 851,-635.76 847.5,-645.76 854.5,-645.76"/>
<text text-anchor="middle" x="888.12" y="-655.1" font-family="Times New Roman,serif" font-size="14.00">graphAnd#22</text>
</g>
<!-- 37 -->
<g id="node26" class="node">
<title>37</title>
<polygon fill="yellow" stroke="black" points="604.38,-301.5 497.62,-301.5 497.62,-265.5 604.38,-265.5 604.38,-301.5"/>
<text text-anchor="middle" x="551" y="-278.45" font-family="Times New Roman,serif" font-size="14.00">idx0 &gt; d1 &#45; 1+ 1</text>
<text text-anchor="middle" x="486.38" y="-304.7" font-family="Times New Roman,serif" font-size="14.00">[37]</text>
</g>
<!-- 89&#45;&gt;37 -->
<g id="edge19" class="edge">
<title>89&#45;&gt;37</title>
<path fill="none" stroke="black" d="M504.63,-356.13C510.08,-347.71 522.99,-327.77 533.81,-311.05"/>
<polygon fill="black" stroke="black" points="536.55,-313.27 539.04,-302.97 530.67,-309.46 536.55,-313.27"/>
<text text-anchor="middle" x="565.09" y="-322.7" font-family="Times New Roman,serif" font-size="14.00">graphAnd#89</text>
</g>
<!-- 40 -->
<g id="node27" class="node">
<title>40</title>
<polygon fill="yellow" stroke="black" points="454.5,-301.5 339.5,-301.5 339.5,-265.5 454.5,-265.5 454.5,-301.5"/>
<text text-anchor="middle" x="397" y="-278.45" font-family="Times New Roman,serif" font-size="14.00">idx0 &lt;= d1 &#45; 1+ 1</text>
<text text-anchor="middle" x="328.25" y="-304.7" font-family="Times New Roman,serif" font-size="14.00">[40]</text>
</g>
<!-- 89&#45;&gt;40 -->
<g id="edge17" class="edge">
<title>89&#45;&gt;40</title>
<path fill="none" stroke="black" d="M497.44,-357.89C489.57,-353.82 473.02,-344.99 460,-336 448.1,-327.79 435.65,-317.91 424.98,-309.01"/>
<polygon fill="black" stroke="black" points="427.55,-306.6 417.65,-302.81 423.02,-311.94 427.55,-306.6"/>
<text text-anchor="middle" x="487" y="-322.7" font-family="Times New Roman,serif" font-size="14.00">iterate#86</text>
</g>
<!-- 90 -->
<g id="node19" class="node">
<title>90</title>
<ellipse fill="black" stroke="black" cx="929" cy="-1524.1" rx="7.2" ry="7.2"/>
<text text-anchor="middle" x="913.92" y="-1534.5" font-family="Times New Roman,serif" font-size="14.00">[0]</text>
</g>
<!-- 91 -->
<g id="node20" class="node">
<title>91</title>
<polygon fill="yellow" stroke="black" points="1045,-1479.9 813,-1479.9 813,-1422.4 1045,-1422.4 1045,-1479.9"/>
<text text-anchor="middle" x="929" y="-1462.6" font-family="Times New Roman,serif" font-size="14.00">self.data.getDimensionSizes(1) &gt; 0 and</text>
<text text-anchor="middle" x="929" y="-1446.1" font-family="Times New Roman,serif" font-size="14.00">self.data.getDimensionSizes(2) &gt; 0 and</text>
<text text-anchor="middle" x="929" y="-1429.6" font-family="Times New Roman,serif" font-size="14.00">self.data.getDimensionSizes(3) &gt; 0</text>
<text text-anchor="middle" x="801.75" y="-1483.1" font-family="Times New Roman,serif" font-size="14.00">[91]</text>
</g>
<!-- 90&#45;&gt;91 -->
<g id="edge26" class="edge">
<title>90&#45;&gt;91</title>
<path fill="none" stroke="black" d="M929,-1516.55C929,-1510.63 929,-1501.39 929,-1491.74"/>
<polygon fill="black" stroke="black" points="932.5,-1491.91 929,-1481.91 925.5,-1491.91 932.5,-1491.91"/>
</g>
<!-- 93 -->
<g id="node22" class="node">
<title>93</title>
<polygon fill="aquamarine" stroke="black" points="929,-1359.1 921.8,-1351.9 929,-1344.7 936.2,-1351.9 929,-1359.1"/>
<text text-anchor="middle" x="906.8" y="-1362.3" font-family="Times New Roman,serif" font-size="14.00">&lt;93&gt;</text>
</g>
<!-- 91&#45;&gt;93 -->
<g id="edge33" class="edge">
<title>91&#45;&gt;93</title>
<path fill="none" stroke="black" d="M929,-1422.02C929,-1405.53 929,-1385.19 929,-1370.85"/>
<polygon fill="black" stroke="black" points="932.5,-1371.17 929,-1361.17 925.5,-1371.17 932.5,-1371.17"/>
<text text-anchor="middle" x="969.5" y="-1391.1" font-family="Times New Roman,serif" font-size="14.00">graphAnd#103</text>
</g>
<!-- 34 -->
<g id="node25" class="node">
<title>34</title>
<polygon fill="yellow" stroke="black" points="706.38,-545.4 635.62,-545.4 635.62,-509.4 706.38,-509.4 706.38,-545.4"/>
<text text-anchor="middle" x="671" y="-522.35" font-family="Times New Roman,serif" font-size="14.00">acc = true</text>
<text text-anchor="middle" x="624.38" y="-548.6" font-family="Times New Roman,serif" font-size="14.00">[34]</text>
</g>
<!-- 28&#45;&gt;34 -->
<g id="edge21" class="edge">
<title>28&#45;&gt;34</title>
<path fill="none" stroke="black" d="M815.01,-597.6C786.83,-584.06 747.45,-565.14 716.99,-550.5"/>
<polygon fill="black" stroke="black" points="718.52,-547.35 707.99,-546.17 715.49,-553.66 718.52,-547.35"/>
<text text-anchor="middle" x="814.25" y="-566.6" font-family="Times New Roman,serif" font-size="14.00">graphAnd#91</text>
</g>
<!-- 93&#45;&gt;10 -->
<g id="edge28" class="edge">
<title>93&#45;&gt;10</title>
<path fill="none" stroke="black" d="M932.27,-1347.69C940.53,-1339.56 963.62,-1316.86 991.46,-1289.49"/>
<polygon fill="black" stroke="black" points="993.67,-1292.23 998.35,-1282.72 988.76,-1287.24 993.67,-1292.23"/>
<text text-anchor="middle" x="1004.39" y="-1302.6" font-family="Times New Roman,serif" font-size="14.00">split2#99</text>
</g>
<!-- 93&#45;&gt;16 -->
<g id="edge27" class="edge">
<title>93&#45;&gt;16</title>
<path fill="none" stroke="black" d="M925.75,-1347.69C907.94,-1330.09 821.05,-1244.25 766.65,-1190.51"/>
<polygon fill="black" stroke="black" points="769.19,-1188.1 759.62,-1183.56 764.27,-1193.08 769.19,-1188.1"/>
<text text-anchor="middle" x="914.53" y="-1302.6" font-family="Times New Roman,serif" font-size="14.00">split1#98</text>
</g>
<!-- 94&#45;&gt;14 -->
<g id="edge32" class="edge">
<title>94&#45;&gt;14</title>
<path fill="none" stroke="black" d="M888,-187.21C888,-174.92 888,-148.49 888,-129.43"/>
<polygon fill="black" stroke="black" points="891.5,-129.44 888,-119.44 884.5,-129.44 891.5,-129.44"/>
<text text-anchor="middle" x="937.12" y="-145.7" font-family="Times New Roman,serif" font-size="14.00">graphOr_end#102</text>
</g>
<!-- 31 -->
<g id="node24" class="node">
<title>31</title>
<polygon fill="yellow" stroke="black" points="567.25,-456.9 504.75,-456.9 504.75,-420.9 567.25,-420.9 567.25,-456.9"/>
<text text-anchor="middle" x="536" y="-433.85" font-family="Times New Roman,serif" font-size="14.00">idx0 = 1</text>
<text text-anchor="middle" x="493.5" y="-460.1" font-family="Times New Roman,serif" font-size="14.00">[31]</text>
</g>
<!-- 31&#45;&gt;89 -->
<g id="edge20" class="edge">
<title>31&#45;&gt;89</title>
<path fill="none" stroke="black" d="M528.28,-420.72C522.41,-407.64 514.39,-389.79 508.76,-377.26"/>
<polygon fill="black" stroke="black" points="512.01,-375.94 504.72,-368.25 505.62,-378.81 512.01,-375.94"/>
<text text-anchor="middle" x="557.14" y="-389.6" font-family="Times New Roman,serif" font-size="14.00">graphAnd#90</text>
</g>
<!-- 34&#45;&gt;31 -->
<g id="edge22" class="edge">
<title>34&#45;&gt;31</title>
<path fill="none" stroke="black" d="M644.01,-509.1C623.49,-495.96 595.07,-477.75 572.52,-463.3"/>
<polygon fill="black" stroke="black" points="574.53,-460.43 564.22,-457.98 570.75,-466.33 574.53,-460.43"/>
<text text-anchor="middle" x="652.72" y="-478.1" font-family="Times New Roman,serif" font-size="14.00">graphAnd#27</text>
</g>
<!-- 37&#45;&gt;94 -->
<g id="edge29" class="edge">
<title>37&#45;&gt;94</title>
<path fill="none" stroke="black" d="M604.77,-268.7C683.08,-248.6 824.34,-212.34 871.89,-200.14"/>
<polygon fill="black" stroke="black" points="872.6,-203.57 881.41,-197.69 870.86,-196.79 872.6,-203.57"/>
<text text-anchor="middle" x="783.81" y="-234.2" font-family="Times New Roman,serif" font-size="14.00">merge1#100</text>
</g>
<!-- 43 -->
<g id="node28" class="node">
<title>43</title>
<polygon fill="yellow" stroke="black" points="433.12,-213 300.88,-213 300.88,-177 433.12,-177 433.12,-213"/>
<text text-anchor="middle" x="367" y="-189.95" font-family="Times New Roman,serif" font-size="14.00">it = Sequence{1..d1}</text>
<text text-anchor="middle" x="289.62" y="-216.2" font-family="Times New Roman,serif" font-size="14.00">[43]</text>
</g>
<!-- 40&#45;&gt;43 -->
<g id="edge12" class="edge">
<title>40&#45;&gt;43</title>
<path fill="none" stroke="black" d="M391.07,-265.41C386.99,-253.64 381.47,-237.73 376.75,-224.11"/>
<polygon fill="black" stroke="black" points="380.1,-223.08 373.51,-214.78 373.48,-225.37 380.1,-223.08"/>
<text text-anchor="middle" x="421.81" y="-234.2" font-family="Times New Roman,serif" font-size="14.00">graphAnd#82</text>
</g>
<!-- 49 -->
<g id="node30" class="node">
<title>49</title>
<polygon fill="yellow" stroke="black" points="362.75,-124.5 285.25,-124.5 285.25,-88.5 362.75,-88.5 362.75,-124.5"/>
<text text-anchor="middle" x="324" y="-101.45" font-family="Times New Roman,serif" font-size="14.00">acc2 = true</text>
<text text-anchor="middle" x="274" y="-127.7" font-family="Times New Roman,serif" font-size="14.00">[49]</text>
</g>
<!-- 43&#45;&gt;49 -->
<g id="edge13" class="edge">
<title>43&#45;&gt;49</title>
<path fill="none" stroke="black" d="M358.5,-176.91C352.54,-164.9 344.43,-148.59 337.57,-134.8"/>
<polygon fill="black" stroke="black" points="340.88,-133.6 333.3,-126.21 334.62,-136.72 340.88,-133.6"/>
<text text-anchor="middle" x="386.48" y="-145.7" font-family="Times New Roman,serif" font-size="14.00">graphAnd#83</text>
</g>
<!-- 46 -->
<g id="node29" class="node">
<title>46</title>
<polygon fill="yellow" stroke="black" points="274.25,-36 211.75,-36 211.75,0 274.25,0 274.25,-36"/>
<text text-anchor="middle" x="243" y="-12.95" font-family="Times New Roman,serif" font-size="14.00">idx1 = 1</text>
<text text-anchor="middle" x="200.5" y="-39.2" font-family="Times New Roman,serif" font-size="14.00">[46]</text>
</g>
<!-- 46&#45;&gt;85 -->
<g id="edge11" class="edge">
<title>46&#45;&gt;85</title>
<path fill="none" stroke="black" d="M237.85,-36.39C233.17,-53.73 227,-81.22 227,-105.5 227,-528.4 227,-528.4 227,-528.4 227,-551.98 227,-579.17 227,-596.68"/>
<polygon fill="black" stroke="black" points="223.5,-596.66 227,-606.66 230.5,-596.66 223.5,-596.66"/>
<text text-anchor="middle" x="264.12" y="-322.7" font-family="Times New Roman,serif" font-size="14.00">graphAnd#79</text>
</g>
<!-- 49&#45;&gt;46 -->
<g id="edge31" class="edge">
<title>49&#45;&gt;46</title>
<path fill="none" stroke="black" d="M308,-88.41C296.31,-75.93 280.27,-58.8 267.05,-44.68"/>
<polygon fill="black" stroke="black" points="269.67,-42.36 260.28,-37.45 264.56,-47.15 269.67,-42.36"/>
<text text-anchor="middle" x="327.88" y="-57.2" font-family="Times New Roman,serif" font-size="14.00">graphAnd#38</text>
</g>
<!-- 52&#45;&gt;87 -->
<g id="edge14" class="edge">
<title>52&#45;&gt;87</title>
<path fill="none" stroke="black" d="M370.87,-509.31C378.57,-497.19 389.08,-480.67 397.9,-466.79"/>
<polygon fill="black" stroke="black" points="400.74,-468.84 403.16,-458.53 394.84,-465.09 400.74,-468.84"/>
<text text-anchor="middle" x="429.55" y="-478.1" font-family="Times New Roman,serif" font-size="14.00">graphAnd#84</text>
</g>
<!-- 58 -->
<g id="node33" class="node">
<title>58</title>
<polygon fill="yellow" stroke="black" points="161.5,-456.9 22.5,-456.9 22.5,-420.9 161.5,-420.9 161.5,-456.9"/>
<text text-anchor="middle" x="92" y="-433.85" font-family="Times New Roman,serif" font-size="14.00">it2 = Sequence{1..d2}</text>
<text text-anchor="middle" x="11.25" y="-460.1" font-family="Times New Roman,serif" font-size="14.00">[58]</text>
</g>
<!-- 55&#45;&gt;58 -->
<g id="edge5" class="edge">
<title>55&#45;&gt;58</title>
<path fill="none" stroke="black" d="M131.32,-509.31C124.52,-497.3 115.28,-480.99 107.46,-467.2"/>
<polygon fill="black" stroke="black" points="110.55,-465.54 102.57,-458.57 104.46,-468.99 110.55,-465.54"/>
<text text-anchor="middle" x="158.01" y="-478.1" font-family="Times New Roman,serif" font-size="14.00">graphAnd#71</text>
</g>
<!-- 58&#45;&gt;64 -->
<g id="edge6" class="edge">
<title>58&#45;&gt;64</title>
<path fill="none" stroke="black" d="M79.68,-457.2C68.92,-474.03 55,-500.76 55,-526.4 55,-1146.4 55,-1146.4 55,-1146.4 55,-1209.07 59.27,-1282.43 61.93,-1322.02"/>
<polygon fill="black" stroke="black" points="58.43,-1322.16 62.61,-1331.89 65.41,-1321.68 58.43,-1322.16"/>
<text text-anchor="middle" x="92.12" y="-743.6" font-family="Times New Roman,serif" font-size="14.00">graphAnd#72</text>
</g>
<!-- 61&#45;&gt;81 -->
<g id="edge4" class="edge">
<title>61&#45;&gt;81</title>
<path fill="none" stroke="black" d="M260.84,-1127.23C265.31,-1085.63 276.68,-979.8 281.15,-938.13"/>
<polygon fill="black" stroke="black" points="284.61,-938.65 282.2,-928.34 277.65,-937.91 284.61,-938.65"/>
<text text-anchor="middle" x="314.33" y="-978.1" font-family="Times New Roman,serif" font-size="14.00">graphAnd#68</text>
</g>
</g>
</svg>
