<?xml version="1.0" encoding="UTF-8" standalone="no"?>
<!DOCTYPE svg PUBLIC "-//W3C//DTD SVG 1.1//EN"
 "http://www.w3.org/Graphics/SVG/1.1/DTD/svg11.dtd">
<!-- Generated by graphviz version 12.2.1 (20241206.2353)
 -->
<!-- Title: CLG Pages: 1 -->
<svg width="1563pt" height="1711pt"
 viewBox="0.00 0.00 1563.38 1711.20" xmlns="http://www.w3.org/2000/svg" xmlns:xlink="http://www.w3.org/1999/xlink">
<g id="graph0" class="graph" transform="scale(1 1) rotate(0) translate(4 1707.2)">
<title>CLG</title>
<polygon fill="white" stroke="none" points="-4,4 -4,-1707.2 1559.38,-1707.2 1559.38,4 -4,4"/>
<!-- 129 -->
<g id="node1" class="node">
<title>129</title>
<polygon fill="yellow" stroke="black" points="922.38,-1114.9 790.12,-1114.9 790.12,-1078.9 922.38,-1078.9 922.38,-1114.9"/>
<text text-anchor="middle" x="856.25" y="-1091.85" font-family="Times New Roman,serif" font-size="14.00">it = Sequence{1..d1}</text>
<text text-anchor="middle" x="804.75" y="-1118.1" font-family="Times New Roman,serif" font-size="14.00">[129]</text>
</g>
<!-- 135 -->
<g id="node3" class="node">
<title>135</title>
<polygon fill="yellow" stroke="black" points="930,-987.9 852.5,-987.9 852.5,-951.9 930,-951.9 930,-987.9"/>
<text text-anchor="middle" x="891.25" y="-964.85" font-family="Times New Roman,serif" font-size="14.00">acc2 = true</text>
<text text-anchor="middle" x="837.88" y="-991.1" font-family="Times New Roman,serif" font-size="14.00">[135]</text>
</g>
<!-- 129&#45;&gt;135 -->
<g id="edge25" class="edge">
<title>129&#45;&gt;135</title>
<path fill="none" stroke="black" d="M861.12,-1078.52C866.86,-1058 876.5,-1023.57 883.33,-999.19"/>
<polygon fill="black" stroke="black" points="886.69,-1000.16 886.02,-989.59 879.95,-998.28 886.69,-1000.16"/>
<text text-anchor="middle" x="921.41" y="-1018.85" font-family="Times New Roman,serif" font-size="14.00">graphAnd#180</text>
</g>
<!-- 132 -->
<g id="node2" class="node">
<title>132</title>
<polygon fill="yellow" stroke="black" points="925.5,-899.4 863,-899.4 863,-863.4 925.5,-863.4 925.5,-899.4"/>
<text text-anchor="middle" x="894.25" y="-876.35" font-family="Times New Roman,serif" font-size="14.00">idx1 = 1</text>
<text text-anchor="middle" x="848.38" y="-902.6" font-family="Times New Roman,serif" font-size="14.00">[132]</text>
</g>
<!-- 171 -->
<g id="node21" class="node">
<title>171</title>
<polygon fill="aquamarine" stroke="black" points="957.25,-800.1 950.05,-792.9 957.25,-785.7 964.45,-792.9 957.25,-800.1"/>
<text text-anchor="middle" x="931.67" y="-803.3" font-family="Times New Roman,serif" font-size="14.00">&lt;171&gt;</text>
</g>
<!-- 132&#45;&gt;171 -->
<g id="edge23" class="edge">
<title>132&#45;&gt;171</title>
<path fill="none" stroke="black" d="M906.7,-863.31C918.82,-846.67 936.96,-821.75 947.9,-806.74"/>
<polygon fill="black" stroke="black" points="950.45,-809.18 953.51,-799.04 944.79,-805.06 950.45,-809.18"/>
<text text-anchor="middle" x="971.89" y="-832.1" font-family="Times New Roman,serif" font-size="14.00">graphAnd#176</text>
</g>
<!-- 135&#45;&gt;132 -->
<g id="edge6" class="edge">
<title>135&#45;&gt;132</title>
<path fill="none" stroke="black" d="M891.84,-951.81C892.25,-940.16 892.79,-924.45 893.26,-910.92"/>
<polygon fill="black" stroke="black" points="896.75,-911.38 893.6,-901.26 889.75,-911.14 896.75,-911.38"/>
<text text-anchor="middle" x="933.52" y="-920.6" font-family="Times New Roman,serif" font-size="14.00">graphAnd#135</text>
</g>
<!-- 138 -->
<g id="node4" class="node">
<title>138</title>
<polygon fill="yellow" stroke="black" points="936.62,-722.4 829.88,-722.4 829.88,-686.4 936.62,-686.4 936.62,-722.4"/>
<text text-anchor="middle" x="883.25" y="-699.35" font-family="Times New Roman,serif" font-size="14.00">idx1 &gt; d2 &#45; 1+ 1</text>
<text text-anchor="middle" x="815.25" y="-725.6" font-family="Times New Roman,serif" font-size="14.00">[138]</text>
</g>
<!-- 173 -->
<g id="node23" class="node">
<title>173</title>
<polygon fill="yellow" stroke="black" points="934.38,-633.9 832.12,-633.9 832.12,-597.9 934.38,-597.9 934.38,-633.9"/>
<text text-anchor="middle" x="883.25" y="-610.85" font-family="Times New Roman,serif" font-size="14.00">idx0 = idx0 + 1</text>
<text text-anchor="middle" x="817.5" y="-637.1" font-family="Times New Roman,serif" font-size="14.00">[173]</text>
</g>
<!-- 138&#45;&gt;173 -->
<g id="edge26" class="edge">
<title>138&#45;&gt;173</title>
<path fill="none" stroke="black" d="M883.25,-686.31C883.25,-674.66 883.25,-658.95 883.25,-645.42"/>
<polygon fill="black" stroke="black" points="886.75,-645.76 883.25,-635.76 879.75,-645.76 886.75,-645.76"/>
<text text-anchor="middle" x="923.75" y="-655.1" font-family="Times New Roman,serif" font-size="14.00">graphAnd#181</text>
</g>
<!-- 141 -->
<g id="node5" class="node">
<title>141</title>
<polygon fill="yellow" stroke="black" points="1137.75,-722.4 1022.75,-722.4 1022.75,-686.4 1137.75,-686.4 1137.75,-722.4"/>
<text text-anchor="middle" x="1080.25" y="-699.35" font-family="Times New Roman,serif" font-size="14.00">idx1 &lt;= d2 &#45; 1+ 1</text>
<text text-anchor="middle" x="1008.12" y="-725.6" font-family="Times New Roman,serif" font-size="14.00">[141]</text>
</g>
<!-- 144 -->
<g id="node6" class="node">
<title>144</title>
<polygon fill="yellow" stroke="black" points="1164.75,-633.9 1025.75,-633.9 1025.75,-597.9 1164.75,-597.9 1164.75,-633.9"/>
<text text-anchor="middle" x="1095.25" y="-610.85" font-family="Times New Roman,serif" font-size="14.00">it2 = Sequence{1..d2}</text>
<text text-anchor="middle" x="1011.12" y="-637.1" font-family="Times New Roman,serif" font-size="14.00">[144]</text>
</g>
<!-- 141&#45;&gt;144 -->
<g id="edge17" class="edge">
<title>141&#45;&gt;144</title>
<path fill="none" stroke="black" d="M1083.21,-686.31C1085.23,-674.66 1087.96,-658.95 1090.3,-645.42"/>
<polygon fill="black" stroke="black" points="1093.72,-646.19 1091.98,-635.74 1086.83,-645 1093.72,-646.19"/>
<text text-anchor="middle" x="1129.59" y="-655.1" font-family="Times New Roman,serif" font-size="14.00">graphAnd#168</text>
</g>
<!-- 150 -->
<g id="node8" class="node">
<title>150</title>
<polygon fill="yellow" stroke="black" points="1137,-545.4 1059.5,-545.4 1059.5,-509.4 1137,-509.4 1137,-545.4"/>
<text text-anchor="middle" x="1098.25" y="-522.35" font-family="Times New Roman,serif" font-size="14.00">acc3 = true</text>
<text text-anchor="middle" x="1044.88" y="-548.6" font-family="Times New Roman,serif" font-size="14.00">[150]</text>
</g>
<!-- 144&#45;&gt;150 -->
<g id="edge18" class="edge">
<title>144&#45;&gt;150</title>
<path fill="none" stroke="black" d="M1095.84,-597.81C1096.25,-586.16 1096.79,-570.45 1097.26,-556.92"/>
<polygon fill="black" stroke="black" points="1100.75,-557.38 1097.6,-547.26 1093.75,-557.14 1100.75,-557.38"/>
<text text-anchor="middle" x="1137.52" y="-566.6" font-family="Times New Roman,serif" font-size="14.00">graphAnd#169</text>
</g>
<!-- 147 -->
<g id="node7" class="node">
<title>147</title>
<polygon fill="yellow" stroke="black" points="1166.5,-456.9 1104,-456.9 1104,-420.9 1166.5,-420.9 1166.5,-456.9"/>
<text text-anchor="middle" x="1135.25" y="-433.85" font-family="Times New Roman,serif" font-size="14.00">idx2 = 1</text>
<text text-anchor="middle" x="1089.38" y="-460.1" font-family="Times New Roman,serif" font-size="14.00">[147]</text>
</g>
<!-- 167 -->
<g id="node18" class="node">
<title>167</title>
<polygon fill="aquamarine" stroke="black" points="1148.25,-368.4 1141.05,-361.2 1148.25,-354 1155.45,-361.2 1148.25,-368.4"/>
<text text-anchor="middle" x="1122.67" y="-371.6" font-family="Times New Roman,serif" font-size="14.00">&lt;167&gt;</text>
</g>
<!-- 147&#45;&gt;167 -->
<g id="edge16" class="edge">
<title>147&#45;&gt;167</title>
<path fill="none" stroke="black" d="M1138.2,-420.72C1140.33,-408.29 1143.21,-391.57 1145.33,-379.19"/>
<polygon fill="black" stroke="black" points="1148.78,-379.8 1147.02,-369.35 1141.88,-378.61 1148.78,-379.8"/>
<text text-anchor="middle" x="1184.55" y="-389.6" font-family="Times New Roman,serif" font-size="14.00">graphAnd#165</text>
</g>
<!-- 150&#45;&gt;147 -->
<g id="edge9" class="edge">
<title>150&#45;&gt;147</title>
<path fill="none" stroke="black" d="M1105.56,-509.31C1110.65,-497.42 1117.54,-481.31 1123.4,-467.6"/>
<polygon fill="black" stroke="black" points="1126.52,-469.21 1127.23,-458.64 1120.08,-466.46 1126.52,-469.21"/>
<text text-anchor="middle" x="1160.56" y="-478.1" font-family="Times New Roman,serif" font-size="14.00">graphAnd#146</text>
</g>
<!-- 153 -->
<g id="node9" class="node">
<title>153</title>
<polygon fill="yellow" stroke="black" points="1113.62,-301.5 1006.88,-301.5 1006.88,-265.5 1113.62,-265.5 1113.62,-301.5"/>
<text text-anchor="middle" x="1060.25" y="-278.45" font-family="Times New Roman,serif" font-size="14.00">idx2 &gt; d3 &#45; 1+ 1</text>
<text text-anchor="middle" x="992.25" y="-304.7" font-family="Times New Roman,serif" font-size="14.00">[153]</text>
</g>
<!-- 169 -->
<g id="node20" class="node">
<title>169</title>
<polygon fill="yellow" stroke="black" points="1049.38,-213 947.12,-213 947.12,-177 1049.38,-177 1049.38,-213"/>
<text text-anchor="middle" x="998.25" y="-189.95" font-family="Times New Roman,serif" font-size="14.00">idx1 = idx1 + 1</text>
<text text-anchor="middle" x="932.5" y="-216.2" font-family="Times New Roman,serif" font-size="14.00">[169]</text>
</g>
<!-- 153&#45;&gt;169 -->
<g id="edge19" class="edge">
<title>153&#45;&gt;169</title>
<path fill="none" stroke="black" d="M1048,-265.41C1039.23,-253.17 1027.24,-236.45 1017.23,-222.49"/>
<polygon fill="black" stroke="black" points="1020.24,-220.67 1011.57,-214.58 1014.55,-224.75 1020.24,-220.67"/>
<text text-anchor="middle" x="1075.3" y="-234.2" font-family="Times New Roman,serif" font-size="14.00">graphAnd#170</text>
</g>
<!-- 156 -->
<g id="node10" class="node">
<title>156</title>
<polygon fill="yellow" stroke="black" points="1323.75,-301.5 1208.75,-301.5 1208.75,-265.5 1323.75,-265.5 1323.75,-301.5"/>
<text text-anchor="middle" x="1266.25" y="-278.45" font-family="Times New Roman,serif" font-size="14.00">idx2 &lt;= d3 &#45; 1+ 1</text>
<text text-anchor="middle" x="1194.12" y="-304.7" font-family="Times New Roman,serif" font-size="14.00">[156]</text>
</g>
<!-- 159 -->
<g id="node11" class="node">
<title>159</title>
<polygon fill="yellow" stroke="black" points="1400.75,-213 1261.75,-213 1261.75,-177 1400.75,-177 1400.75,-213"/>
<text text-anchor="middle" x="1331.25" y="-189.95" font-family="Times New Roman,serif" font-size="14.00">it3 = Sequence{1..d3}</text>
<text text-anchor="middle" x="1247.12" y="-216.2" font-family="Times New Roman,serif" font-size="14.00">[159]</text>
</g>
<!-- 156&#45;&gt;159 -->
<g id="edge10" class="edge">
<title>156&#45;&gt;159</title>
<path fill="none" stroke="black" d="M1279.09,-265.41C1288.29,-253.17 1300.85,-236.45 1311.35,-222.49"/>
<polygon fill="black" stroke="black" points="1314.09,-224.66 1317.3,-214.56 1308.5,-220.45 1314.09,-224.66"/>
<text text-anchor="middle" x="1345.07" y="-234.2" font-family="Times New Roman,serif" font-size="14.00">graphAnd#157</text>
</g>
<!-- 162 -->
<g id="node13" class="node">
<title>162</title>
<polygon fill="yellow" stroke="black" points="1555.38,-124.5 1177.12,-124.5 1177.12,-88.5 1555.38,-88.5 1555.38,-124.5"/>
<text text-anchor="middle" x="1366.25" y="-101.45" font-family="Times New Roman,serif" font-size="14.00">result.data[it][it2][it3] = self.data[it][it2][it3] &#45; arg.data[it][it2][it3]</text>
<text text-anchor="middle" x="1162.5" y="-127.7" font-family="Times New Roman,serif" font-size="14.00">[162]</text>
</g>
<!-- 159&#45;&gt;162 -->
<g id="edge11" class="edge">
<title>159&#45;&gt;162</title>
<path fill="none" stroke="black" d="M1338.16,-176.91C1342.98,-165.02 1349.49,-148.91 1355.04,-135.2"/>
<polygon fill="black" stroke="black" points="1358.16,-136.84 1358.66,-126.25 1351.67,-134.21 1358.16,-136.84"/>
<text text-anchor="middle" x="1392.38" y="-145.7" font-family="Times New Roman,serif" font-size="14.00">graphAnd#158</text>
</g>
<!-- 96 -->
<g id="node12" class="node">
<title>96</title>
<polygon fill="yellow" stroke="black" points="424,-1458.4 22.5,-1458.4 22.5,-1186.4 424,-1186.4 424,-1458.4"/>
<text text-anchor="middle" x="223.25" y="-1441.1" font-family="Times New Roman,serif" font-size="14.00">self.data.getDimension() &lt;&gt; arg.data.getDimension() and</text>
<text text-anchor="middle" x="223.25" y="-1424.6" font-family="Times New Roman,serif" font-size="14.00">self.data.getDimensionSizes(1) = arg.data.getDimensionSizes(1) and</text>
<text text-anchor="middle" x="223.25" y="-1408.1" font-family="Times New Roman,serif" font-size="14.00">self.data.getDimensionSizes(2) = arg.data.getDimensionSizes(2) and</text>
<text text-anchor="middle" x="223.25" y="-1391.6" font-family="Times New Roman,serif" font-size="14.00">self.data.getDimensionSizes(3) = arg.data.getDimensionSizes(3) or</text>
<text text-anchor="middle" x="223.25" y="-1375.1" font-family="Times New Roman,serif" font-size="14.00">self.data.getDimension() = arg.data.getDimension() and</text>
<text text-anchor="middle" x="223.25" y="-1358.6" font-family="Times New Roman,serif" font-size="14.00">self.data.getDimensionSizes(1) &lt;&gt; arg.data.getDimensionSizes(1) and</text>
<text text-anchor="middle" x="223.25" y="-1342.1" font-family="Times New Roman,serif" font-size="14.00">self.data.getDimensionSizes(2) = arg.data.getDimensionSizes(2) and</text>
<text text-anchor="middle" x="223.25" y="-1325.6" font-family="Times New Roman,serif" font-size="14.00">self.data.getDimensionSizes(3) = arg.data.getDimensionSizes(3) or</text>
<text text-anchor="middle" x="223.25" y="-1309.1" font-family="Times New Roman,serif" font-size="14.00">self.data.getDimension() = arg.data.getDimension() and</text>
<text text-anchor="middle" x="223.25" y="-1292.6" font-family="Times New Roman,serif" font-size="14.00">self.data.getDimensionSizes(1) = arg.data.getDimensionSizes(1) and</text>
<text text-anchor="middle" x="223.25" y="-1276.1" font-family="Times New Roman,serif" font-size="14.00">self.data.getDimensionSizes(2) &lt;&gt; arg.data.getDimensionSizes(2) and</text>
<text text-anchor="middle" x="223.25" y="-1259.6" font-family="Times New Roman,serif" font-size="14.00">self.data.getDimensionSizes(3) = arg.data.getDimensionSizes(3) or</text>
<text text-anchor="middle" x="223.25" y="-1243.1" font-family="Times New Roman,serif" font-size="14.00">self.data.getDimension() = arg.data.getDimension() and</text>
<text text-anchor="middle" x="223.25" y="-1226.6" font-family="Times New Roman,serif" font-size="14.00">self.data.getDimensionSizes(1) = arg.data.getDimensionSizes(1) and</text>
<text text-anchor="middle" x="223.25" y="-1210.1" font-family="Times New Roman,serif" font-size="14.00">self.data.getDimensionSizes(2) = arg.data.getDimensionSizes(2) and</text>
<text text-anchor="middle" x="223.25" y="-1193.6" font-family="Times New Roman,serif" font-size="14.00">self.data.getDimensionSizes(3) &lt;&gt; arg.data.getDimensionSizes(3)</text>
<text text-anchor="middle" x="11.25" y="-1461.6" font-family="Times New Roman,serif" font-size="14.00">[96]</text>
</g>
<!-- 99 -->
<g id="node14" class="node">
<title>99</title>
<polygon fill="yellow" stroke="black" points="457.5,-1041.9 269,-1041.9 269,-1005.9 457.5,-1005.9 457.5,-1041.9"/>
<text text-anchor="middle" x="363.25" y="-1018.85" font-family="Times New Roman,serif" font-size="14.00">Result = &#39;IllegalDimensionSize&#39;</text>
<text text-anchor="middle" x="257.75" y="-1045.1" font-family="Times New Roman,serif" font-size="14.00">[99]</text>
</g>
<!-- 96&#45;&gt;99 -->
<g id="edge36" class="edge">
<title>96&#45;&gt;99</title>
<path fill="none" stroke="black" d="M287.1,-1186.16C310.87,-1135.83 335.59,-1083.49 350.18,-1052.57"/>
<polygon fill="black" stroke="black" points="353.33,-1054.1 354.44,-1043.56 347,-1051.11 353.33,-1054.1"/>
<text text-anchor="middle" x="342.73" y="-1155.1" font-family="Times New Roman,serif" font-size="14.00">graphAnd#190</text>
</g>
<!-- 165 -->
<g id="node16" class="node">
<title>165</title>
<polygon fill="yellow" stroke="black" points="1216.38,-36 1114.12,-36 1114.12,0 1216.38,0 1216.38,-36"/>
<text text-anchor="middle" x="1165.25" y="-12.95" font-family="Times New Roman,serif" font-size="14.00">idx2 = idx2 + 1</text>
<text text-anchor="middle" x="1099.5" y="-39.2" font-family="Times New Roman,serif" font-size="14.00">[165]</text>
</g>
<!-- 162&#45;&gt;165 -->
<g id="edge12" class="edge">
<title>162&#45;&gt;165</title>
<path fill="none" stroke="black" d="M1326.06,-88.2C1294.39,-74.58 1250.05,-55.49 1215.95,-40.82"/>
<polygon fill="black" stroke="black" points="1217.68,-37.75 1207.11,-37.01 1214.91,-44.18 1217.68,-37.75"/>
<text text-anchor="middle" x="1324.25" y="-57.2" font-family="Times New Roman,serif" font-size="14.00">graphAnd#159</text>
</g>
<!-- 180 -->
<g id="node30" class="node">
<title>180</title>
<polygon fill="aquamarine" stroke="black" points="500.25,-368.4 493.05,-361.2 500.25,-354 507.45,-361.2 500.25,-368.4"/>
<text text-anchor="middle" x="474.68" y="-371.6" font-family="Times New Roman,serif" font-size="14.00">&lt;180&gt;</text>
</g>
<!-- 99&#45;&gt;180 -->
<g id="edge5" class="edge">
<title>99&#45;&gt;180</title>
<path fill="none" stroke="black" d="M370.32,-1005.49C377.4,-986.45 387.25,-954.89 387.25,-926.65 387.25,-926.65 387.25,-926.65 387.25,-437.9 387.25,-392.24 451.73,-372.37 483.27,-365.38"/>
<polygon fill="black" stroke="black" points="483.89,-368.82 493.01,-363.43 482.51,-361.96 483.89,-368.82"/>
<text text-anchor="middle" x="421.38" y="-699.35" font-family="Times New Roman,serif" font-size="14.00">merge2#198</text>
</g>
<!-- 100 -->
<g id="node15" class="node">
<title>100</title>
<ellipse fill="black" stroke="black" cx="500.25" cy="-283.5" rx="7.2" ry="7.2"/>
<ellipse fill="none" stroke="black" cx="500.25" cy="-283.5" rx="11.2" ry="11.2"/>
<text text-anchor="middle" x="478.93" y="-297.9" font-family="Times New Roman,serif" font-size="14.00">[&#45;1]</text>
</g>
<!-- 165&#45;&gt;167 -->
<g id="edge14" class="edge">
<title>165&#45;&gt;167</title>
<path fill="none" stroke="black" d="M1160.1,-36.39C1155.42,-53.73 1149.25,-81.22 1149.25,-105.5 1149.25,-284.5 1149.25,-284.5 1149.25,-284.5 1149.25,-304.22 1148.91,-326.83 1148.62,-342.17"/>
<polygon fill="black" stroke="black" points="1145.13,-341.94 1148.43,-352 1152.12,-342.07 1145.13,-341.94"/>
<text text-anchor="middle" x="1179.62" y="-189.95" font-family="Times New Roman,serif" font-size="14.00">iterate#162</text>
</g>
<!-- 102 -->
<g id="node17" class="node">
<title>102</title>
<polygon fill="yellow" stroke="black" points="834.88,-1359.4 441.62,-1359.4 441.62,-1285.4 834.88,-1285.4 834.88,-1359.4"/>
<text text-anchor="middle" x="638.25" y="-1342.1" font-family="Times New Roman,serif" font-size="14.00">self.data.getDimension() = arg.data.getDimension() and</text>
<text text-anchor="middle" x="638.25" y="-1325.6" font-family="Times New Roman,serif" font-size="14.00">self.data.getDimensionSizes(1) = arg.data.getDimensionSizes(1) and</text>
<text text-anchor="middle" x="638.25" y="-1309.1" font-family="Times New Roman,serif" font-size="14.00">self.data.getDimensionSizes(2) = arg.data.getDimensionSizes(2) and</text>
<text text-anchor="middle" x="638.25" y="-1292.6" font-family="Times New Roman,serif" font-size="14.00">self.data.getDimensionSizes(3) = arg.data.getDimensionSizes(3)</text>
<text text-anchor="middle" x="456.25" y="-1362.6" font-family="Times New Roman,serif" font-size="14.00">[102]</text>
</g>
<!-- 105 -->
<g id="node19" class="node">
<title>105</title>
<polygon fill="yellow" stroke="black" points="764.25,-1133.9 358.25,-1133.9 358.25,-1059.9 764.25,-1059.9 764.25,-1133.9"/>
<text text-anchor="middle" x="561.25" y="-1116.6" font-family="Times New Roman,serif" font-size="14.00">self.data.getDimension() = result.data.getDimension() and</text>
<text text-anchor="middle" x="561.25" y="-1100.1" font-family="Times New Roman,serif" font-size="14.00">self.data.getDimensionSizes(1) = result.data.getDimensionSizes(1) and</text>
<text text-anchor="middle" x="561.25" y="-1083.6" font-family="Times New Roman,serif" font-size="14.00">self.data.getDimensionSizes(2) = result.data.getDimensionSizes(2) and</text>
<text text-anchor="middle" x="561.25" y="-1067.1" font-family="Times New Roman,serif" font-size="14.00">self.data.getDimensionSizes(3) = result.data.getDimensionSizes(3)</text>
<text text-anchor="middle" x="343.62" y="-1137.1" font-family="Times New Roman,serif" font-size="14.00">[105]</text>
</g>
<!-- 102&#45;&gt;105 -->
<g id="edge37" class="edge">
<title>102&#45;&gt;105</title>
<path fill="none" stroke="black" d="M625.71,-1284.99C612.56,-1246.84 591.86,-1186.76 577.48,-1145.01"/>
<polygon fill="black" stroke="black" points="580.85,-1144.04 574.28,-1135.72 574.23,-1146.32 580.85,-1144.04"/>
<text text-anchor="middle" x="624.5" y="-1155.1" font-family="Times New Roman,serif" font-size="14.00">graphAnd#191</text>
</g>
<!-- 167&#45;&gt;153 -->
<g id="edge15" class="edge">
<title>167&#45;&gt;153</title>
<path fill="none" stroke="black" d="M1142.12,-359.58C1123.02,-357.52 1065.25,-350.18 1054.25,-336 1049.23,-329.52 1048.54,-321.13 1049.73,-313.01"/>
<polygon fill="black" stroke="black" points="1053.11,-313.96 1052.07,-303.42 1046.3,-312.31 1053.11,-313.96"/>
<text text-anchor="middle" x="1094.75" y="-322.7" font-family="Times New Roman,serif" font-size="14.00">graphAnd#164</text>
</g>
<!-- 167&#45;&gt;156 -->
<g id="edge13" class="edge">
<title>167&#45;&gt;156</title>
<path fill="none" stroke="black" d="M1152.45,-357.51C1164.64,-349.68 1200.98,-326.37 1229.35,-308.17"/>
<polygon fill="black" stroke="black" points="1231.2,-311.15 1237.72,-302.8 1227.42,-305.25 1231.2,-311.15"/>
<text text-anchor="middle" x="1241.16" y="-322.7" font-family="Times New Roman,serif" font-size="14.00">iterate#161</text>
</g>
<!-- 108 -->
<g id="node22" class="node">
<title>108</title>
<polygon fill="yellow" stroke="black" points="640.88,-987.9 427.62,-987.9 427.62,-951.9 640.88,-951.9 640.88,-987.9"/>
<text text-anchor="middle" x="534.25" y="-964.85" font-family="Times New Roman,serif" font-size="14.00">d1 = arg.data.getDimensionSizes(1)</text>
<text text-anchor="middle" x="413" y="-991.1" font-family="Times New Roman,serif" font-size="14.00">[108]</text>
</g>
<!-- 105&#45;&gt;108 -->
<g id="edge35" class="edge">
<title>105&#45;&gt;108</title>
<path fill="none" stroke="black" d="M553.37,-1059.41C549.23,-1040.23 544.22,-1017.07 540.38,-999.26"/>
<polygon fill="black" stroke="black" points="543.83,-998.67 538.3,-989.63 536.99,-1000.15 543.83,-998.67"/>
<text text-anchor="middle" x="589.87" y="-1018.85" font-family="Times New Roman,serif" font-size="14.00">graphAnd#189</text>
</g>
<!-- 169&#45;&gt;171 -->
<g id="edge21" class="edge">
<title>169&#45;&gt;171</title>
<path fill="none" stroke="black" d="M992.13,-213.32C986.58,-230.61 979.25,-258.05 979.25,-282.5 979.25,-705.4 979.25,-705.4 979.25,-705.4 979.25,-731.08 970.03,-759.77 963.52,-776.8"/>
<polygon fill="black" stroke="black" points="960.35,-775.33 959.85,-785.91 966.84,-777.95 960.35,-775.33"/>
<text text-anchor="middle" x="1009.62" y="-478.1" font-family="Times New Roman,serif" font-size="14.00">iterate#173</text>
</g>
<!-- 171&#45;&gt;138 -->
<g id="edge22" class="edge">
<title>171&#45;&gt;138</title>
<path fill="none" stroke="black" d="M952.54,-789.72C936.54,-782.32 885.28,-758.5 884.25,-756.9 879.89,-750.13 878.48,-741.75 878.47,-733.73"/>
<polygon fill="black" stroke="black" points="881.95,-734.21 879.19,-723.98 874.97,-733.7 881.95,-734.21"/>
<text text-anchor="middle" x="924.75" y="-743.6" font-family="Times New Roman,serif" font-size="14.00">graphAnd#175</text>
</g>
<!-- 171&#45;&gt;141 -->
<g id="edge20" class="edge">
<title>171&#45;&gt;141</title>
<path fill="none" stroke="black" d="M961.07,-789.22C973.82,-780.25 1015.87,-750.68 1046.41,-729.2"/>
<polygon fill="black" stroke="black" points="1048.07,-732.31 1054.24,-723.69 1044.05,-726.58 1048.07,-732.31"/>
<text text-anchor="middle" x="1060.14" y="-743.6" font-family="Times New Roman,serif" font-size="14.00">iterate#172</text>
</g>
<!-- 111 -->
<g id="node24" class="node">
<title>111</title>
<polygon fill="yellow" stroke="black" points="640.88,-899.4 427.62,-899.4 427.62,-863.4 640.88,-863.4 640.88,-899.4"/>
<text text-anchor="middle" x="534.25" y="-876.35" font-family="Times New Roman,serif" font-size="14.00">d2 = arg.data.getDimensionSizes(2)</text>
<text text-anchor="middle" x="413" y="-902.6" font-family="Times New Roman,serif" font-size="14.00">[111]</text>
</g>
<!-- 108&#45;&gt;111 -->
<g id="edge27" class="edge">
<title>108&#45;&gt;111</title>
<path fill="none" stroke="black" d="M534.25,-951.81C534.25,-940.16 534.25,-924.45 534.25,-910.92"/>
<polygon fill="black" stroke="black" points="537.75,-911.26 534.25,-901.26 530.75,-911.26 537.75,-911.26"/>
<text text-anchor="middle" x="574.75" y="-920.6" font-family="Times New Roman,serif" font-size="14.00">graphAnd#118</text>
</g>
<!-- 175 -->
<g id="node25" class="node">
<title>175</title>
<polygon fill="aquamarine" stroke="black" points="780.25,-534.6 773.05,-527.4 780.25,-520.2 787.45,-527.4 780.25,-534.6"/>
<text text-anchor="middle" x="754.67" y="-537.8" font-family="Times New Roman,serif" font-size="14.00">&lt;175&gt;</text>
</g>
<!-- 173&#45;&gt;175 -->
<g id="edge30" class="edge">
<title>173&#45;&gt;175</title>
<path fill="none" stroke="black" d="M879.06,-597.74C875.6,-586.73 869.7,-572.78 860.25,-563.4 842.67,-545.96 814.95,-536.52 797.19,-531.98"/>
<polygon fill="black" stroke="black" points="798.1,-528.6 787.57,-529.79 796.54,-535.42 798.1,-528.6"/>
<text text-anchor="middle" x="902.08" y="-566.6" font-family="Times New Roman,serif" font-size="14.00">iterate#184</text>
</g>
<!-- 114 -->
<g id="node28" class="node">
<title>114</title>
<polygon fill="yellow" stroke="black" points="910.88,-810.9 697.62,-810.9 697.62,-774.9 910.88,-774.9 910.88,-810.9"/>
<text text-anchor="middle" x="804.25" y="-787.85" font-family="Times New Roman,serif" font-size="14.00">d3 = arg.data.getDimensionSizes(3)</text>
<text text-anchor="middle" x="683" y="-814.1" font-family="Times New Roman,serif" font-size="14.00">[114]</text>
</g>
<!-- 111&#45;&gt;114 -->
<g id="edge28" class="edge">
<title>111&#45;&gt;114</title>
<path fill="none" stroke="black" d="M588.56,-863C632.05,-849.07 693.17,-829.49 739.25,-814.72"/>
<polygon fill="black" stroke="black" points="740.13,-818.12 748.58,-811.73 737.99,-811.45 740.13,-818.12"/>
<text text-anchor="middle" x="733.93" y="-832.1" font-family="Times New Roman,serif" font-size="14.00">graphAnd#119</text>
</g>
<!-- 123 -->
<g id="node33" class="node">
<title>123</title>
<polygon fill="yellow" stroke="black" points="850.62,-456.9 743.88,-456.9 743.88,-420.9 850.62,-420.9 850.62,-456.9"/>
<text text-anchor="middle" x="797.25" y="-433.85" font-family="Times New Roman,serif" font-size="14.00">idx0 &gt; d1 &#45; 1+ 1</text>
<text text-anchor="middle" x="729.25" y="-460.1" font-family="Times New Roman,serif" font-size="14.00">[123]</text>
</g>
<!-- 175&#45;&gt;123 -->
<g id="edge31" class="edge">
<title>175&#45;&gt;123</title>
<path fill="none" stroke="black" d="M781.37,-520.72C783.42,-510.25 787.94,-487.25 791.64,-468.45"/>
<polygon fill="black" stroke="black" points="795.07,-469.13 793.57,-458.64 788.2,-467.78 795.07,-469.13"/>
<text text-anchor="middle" x="830.77" y="-478.1" font-family="Times New Roman,serif" font-size="14.00">graphAnd#186</text>
</g>
<!-- 126 -->
<g id="node34" class="node">
<title>126</title>
<polygon fill="yellow" stroke="black" points="725.75,-456.9 610.75,-456.9 610.75,-420.9 725.75,-420.9 725.75,-456.9"/>
<text text-anchor="middle" x="668.25" y="-433.85" font-family="Times New Roman,serif" font-size="14.00">idx0 &lt;= d1 &#45; 1+ 1</text>
<text text-anchor="middle" x="596.12" y="-460.1" font-family="Times New Roman,serif" font-size="14.00">[126]</text>
</g>
<!-- 175&#45;&gt;126 -->
<g id="edge29" class="edge">
<title>175&#45;&gt;126</title>
<path fill="none" stroke="black" d="M775.84,-524.15C765.9,-518.99 741.14,-505.63 722.5,-491.4 712.18,-483.52 701.64,-473.93 692.63,-465.18"/>
<polygon fill="black" stroke="black" points="695.15,-462.75 685.59,-458.19 690.22,-467.72 695.15,-462.75"/>
<text text-anchor="middle" x="752.88" y="-478.1" font-family="Times New Roman,serif" font-size="14.00">iterate#183</text>
</g>
<!-- 176 -->
<g id="node26" class="node">
<title>176</title>
<ellipse fill="black" stroke="black" cx="430.25" cy="-1679.5" rx="7.2" ry="7.2"/>
<text text-anchor="middle" x="415.18" y="-1689.9" font-family="Times New Roman,serif" font-size="14.00">[0]</text>
</g>
<!-- 177 -->
<g id="node27" class="node">
<title>177</title>
<polygon fill="yellow" stroke="black" points="546.25,-1635.3 314.25,-1635.3 314.25,-1577.8 546.25,-1577.8 546.25,-1635.3"/>
<text text-anchor="middle" x="430.25" y="-1618" font-family="Times New Roman,serif" font-size="14.00">self.data.getDimensionSizes(1) &gt; 0 and</text>
<text text-anchor="middle" x="430.25" y="-1601.5" font-family="Times New Roman,serif" font-size="14.00">self.data.getDimensionSizes(2) &gt; 0 and</text>
<text text-anchor="middle" x="430.25" y="-1585" font-family="Times New Roman,serif" font-size="14.00">self.data.getDimensionSizes(3) &gt; 0</text>
<text text-anchor="middle" x="299.62" y="-1638.5" font-family="Times New Roman,serif" font-size="14.00">[177]</text>
</g>
<!-- 176&#45;&gt;177 -->
<g id="edge1" class="edge">
<title>176&#45;&gt;177</title>
<path fill="none" stroke="black" d="M430.25,-1671.95C430.25,-1666.03 430.25,-1656.79 430.25,-1647.14"/>
<polygon fill="black" stroke="black" points="433.75,-1647.31 430.25,-1637.31 426.75,-1647.31 433.75,-1647.31"/>
</g>
<!-- 179 -->
<g id="node29" class="node">
<title>179</title>
<polygon fill="aquamarine" stroke="black" points="430.25,-1525.3 423.05,-1518.1 430.25,-1510.9 437.45,-1518.1 430.25,-1525.3"/>
<text text-anchor="middle" x="404.68" y="-1528.5" font-family="Times New Roman,serif" font-size="14.00">&lt;179&gt;</text>
</g>
<!-- 177&#45;&gt;179 -->
<g id="edge8" class="edge">
<title>177&#45;&gt;179</title>
<path fill="none" stroke="black" d="M430.25,-1577.72C430.25,-1564.38 430.25,-1548.79 430.25,-1537.04"/>
<polygon fill="black" stroke="black" points="433.75,-1537.25 430.25,-1527.25 426.75,-1537.25 433.75,-1537.25"/>
<text text-anchor="middle" x="470.75" y="-1546.5" font-family="Times New Roman,serif" font-size="14.00">graphAnd#200</text>
</g>
<!-- 120 -->
<g id="node32" class="node">
<title>120</title>
<polygon fill="yellow" stroke="black" points="811.62,-722.4 740.88,-722.4 740.88,-686.4 811.62,-686.4 811.62,-722.4"/>
<text text-anchor="middle" x="776.25" y="-699.35" font-family="Times New Roman,serif" font-size="14.00">acc = true</text>
<text text-anchor="middle" x="726.25" y="-725.6" font-family="Times New Roman,serif" font-size="14.00">[120]</text>
</g>
<!-- 114&#45;&gt;120 -->
<g id="edge33" class="edge">
<title>114&#45;&gt;120</title>
<path fill="none" stroke="black" d="M789.85,-774.72C786.08,-769.34 782.46,-763.15 780.25,-756.9 777.7,-749.69 776.41,-741.56 775.82,-733.93"/>
<polygon fill="black" stroke="black" points="779.32,-733.93 775.44,-724.07 772.33,-734.2 779.32,-733.93"/>
<text text-anchor="middle" x="820.75" y="-743.6" font-family="Times New Roman,serif" font-size="14.00">graphAnd#188</text>
</g>
<!-- 179&#45;&gt;96 -->
<g id="edge3" class="edge">
<title>179&#45;&gt;96</title>
<path fill="none" stroke="black" d="M427,-1514.06C419.58,-1507.12 400.18,-1488.96 376.14,-1466.46"/>
<polygon fill="black" stroke="black" points="378.61,-1463.99 368.92,-1459.71 373.83,-1469.1 378.61,-1463.99"/>
<text text-anchor="middle" x="428.7" y="-1479.6" font-family="Times New Roman,serif" font-size="14.00">split2#196</text>
</g>
<!-- 179&#45;&gt;102 -->
<g id="edge2" class="edge">
<title>179&#45;&gt;102</title>
<path fill="none" stroke="black" d="M433.97,-1514.38C439.89,-1510.03 451.75,-1501.12 461.25,-1492.9 508.16,-1452.31 559.06,-1402.97 594.18,-1368.01"/>
<polygon fill="black" stroke="black" points="596.63,-1370.51 601.24,-1360.97 591.69,-1365.55 596.63,-1370.51"/>
<text text-anchor="middle" x="504.69" y="-1479.6" font-family="Times New Roman,serif" font-size="14.00">split1#195</text>
</g>
<!-- 180&#45;&gt;100 -->
<g id="edge7" class="edge">
<title>180&#45;&gt;100</title>
<path fill="none" stroke="black" d="M500.25,-353.48C500.25,-342.99 500.25,-322.24 500.25,-306.23"/>
<polygon fill="black" stroke="black" points="503.75,-306.67 500.25,-296.67 496.75,-306.67 503.75,-306.67"/>
<text text-anchor="middle" x="549.38" y="-322.7" font-family="Times New Roman,serif" font-size="14.00">graphOr_end#199</text>
</g>
<!-- 117 -->
<g id="node31" class="node">
<title>117</title>
<polygon fill="yellow" stroke="black" points="808.5,-633.9 746,-633.9 746,-597.9 808.5,-597.9 808.5,-633.9"/>
<text text-anchor="middle" x="777.25" y="-610.85" font-family="Times New Roman,serif" font-size="14.00">idx0 = 1</text>
<text text-anchor="middle" x="731.38" y="-637.1" font-family="Times New Roman,serif" font-size="14.00">[117]</text>
</g>
<!-- 117&#45;&gt;175 -->
<g id="edge32" class="edge">
<title>117&#45;&gt;175</title>
<path fill="none" stroke="black" d="M777.84,-597.81C778.36,-582.88 779.11,-561.3 779.63,-546.17"/>
<polygon fill="black" stroke="black" points="783.12,-546.5 779.97,-536.38 776.13,-546.26 783.12,-546.5"/>
<text text-anchor="middle" x="819.52" y="-566.6" font-family="Times New Roman,serif" font-size="14.00">graphAnd#187</text>
</g>
<!-- 120&#45;&gt;117 -->
<g id="edge34" class="edge">
<title>120&#45;&gt;117</title>
<path fill="none" stroke="black" d="M776.45,-686.31C776.58,-674.66 776.76,-658.95 776.92,-645.42"/>
<polygon fill="black" stroke="black" points="780.42,-645.8 777.03,-635.76 773.42,-645.72 780.42,-645.8"/>
<text text-anchor="middle" x="817.34" y="-655.1" font-family="Times New Roman,serif" font-size="14.00">graphAnd#124</text>
</g>
<!-- 123&#45;&gt;180 -->
<g id="edge4" class="edge">
<title>123&#45;&gt;180</title>
<path fill="none" stroke="black" d="M743.5,-423.08C740.71,-422.34 737.95,-421.61 735.25,-420.9 653.37,-399.45 554.98,-375.45 516.65,-366.16"/>
<polygon fill="black" stroke="black" points="517.74,-362.82 507.2,-363.87 516.1,-369.63 517.74,-362.82"/>
<text text-anchor="middle" x="698.44" y="-389.6" font-family="Times New Roman,serif" font-size="14.00">merge1#197</text>
</g>
<!-- 126&#45;&gt;129 -->
<g id="edge24" class="edge">
<title>126&#45;&gt;129</title>
<path fill="none" stroke="black" d="M668.57,-457.13C668.86,-474.59 669.25,-502.37 669.25,-526.4 669.25,-970.9 669.25,-970.9 669.25,-970.9 669.25,-1003.83 750.39,-1047.61 805.78,-1073.67"/>
<polygon fill="black" stroke="black" points="804.22,-1076.8 814.76,-1077.84 807.16,-1070.45 804.22,-1076.8"/>
<text text-anchor="middle" x="709.75" y="-743.6" font-family="Times New Roman,serif" font-size="14.00">graphAnd#179</text>
</g>
</g>
</svg>
