<svg xmlns="http://www.w3.org/2000/svg" xmlns:xlink="http://www.w3.org/1999/xlink" width="1894pt" height="1168pt" viewBox="0.00 0.00 1894.01 1168.00">
<g id="graph0" class="graph" transform="scale(1 1) rotate(0) translate(4 1164)">
<title>null_null</title>
<polygon fill="white" stroke="none" points="-4,4 -4,-1164 1890.01,-1164 1890.01,4 -4,4"/>
<!-- 48 -->
<g id="node1" class="node">
<title>48</title>
<ellipse fill="black" stroke="black" cx="1200.01" cy="-1152.8" rx="7.2" ry="7.2"/>
</g>
<!-- 139 -->
<g id="node2" class="node">
<title>139</title>
<polygon fill="aquamarine" stroke="black" points="1200.01,-1109.6 1192.81,-1102.4 1200.01,-1095.2 1207.21,-1102.4 1200.01,-1109.6"/>
<text text-anchor="middle" x="1177.91" y="-1113.8" font-family="Times,serif" font-size="14.00">&lt;21&gt;</text>
</g>
<!-- 48&#45;&gt;139 -->
<g id="edge1" class="edge">
<title>48-&gt;139</title>
<path fill="none" stroke="black" d="M1200.01,-1145.47C1200.01,-1139.41 1200.01,-1129.98 1200.01,-1121.58"/>
<polygon fill="black" stroke="black" points="1203.51,-1121.71 1200.01,-1111.71 1196.51,-1121.71 1203.51,-1121.71"/>
</g>
<!-- 56 -->
<g id="node3" class="node">
<title>56</title>
<polygon fill="yellow" stroke="black" points="1291.13,-1059.2 878.89,-1059.2 878.89,-1023.2 1291.13,-1023.2 1291.13,-1059.2"/>
<text text-anchor="middle" x="1085.01" y="-1037" font-family="Times,serif" font-size="14.00">y_pre&gt;=1&amp;&amp;y_pre&lt;=3999&amp;&amp;m_pre&gt;=1&amp;&amp;m_pre&lt;=12&amp;&amp;d_pre&gt;=1</text>
<text text-anchor="middle" x="867.23" y="-1063.4" font-family="Times,serif" font-size="14.00">[17]</text>
</g>
<!-- 139&#45;&gt;56 -->
<g id="edge2" class="edge">
<title>139-&gt;56</title>
<path fill="none" stroke="black" d="M1195.64,-1099.15C1184.63,-1093.48 1154.77,-1078.11 1128.84,-1064.76"/>
<polygon fill="black" stroke="black" points="1130.61,-1061.74 1120.12,-1060.27 1127.41,-1067.96 1130.61,-1061.74"/>
</g>
<!-- 131 -->
<g id="node23" class="node">
<title>131</title>
<polygon fill="aquamarine" stroke="black" points="1331.01,-1048.4 1323.81,-1041.2 1331.01,-1034 1338.21,-1041.2 1331.01,-1048.4"/>
<text text-anchor="middle" x="1308.91" y="-1052.6" font-family="Times,serif" font-size="14.00">&lt;19&gt;</text>
</g>
<!-- 139&#45;&gt;131 -->
<g id="edge25" class="edge">
<title>139-&gt;131</title>
<path fill="none" stroke="black" d="M1204.67,-1099.63C1219.07,-1094.12 1264.05,-1076.59 1300.01,-1059.2 1305.63,-1056.48 1311.68,-1053.24 1316.93,-1050.32"/>
<polygon fill="black" stroke="black" points="1318.4,-1053.51 1325.35,-1045.51 1314.93,-1047.43 1318.4,-1053.51"/>
</g>
<!-- 129 -->
<g id="node4" class="node">
<title>129</title>
<polygon fill="aquamarine" stroke="black" points="985.01,-976.4 977.81,-969.2 985.01,-962 992.21,-969.2 985.01,-976.4"/>
<text text-anchor="middle" x="962.91" y="-980.6" font-family="Times,serif" font-size="14.00">&lt;17&gt;</text>
</g>
<!-- 56&#45;&gt;129 -->
<g id="edge3" class="edge">
<title>56-&gt;129</title>
<path fill="none" stroke="black" d="M1060.03,-1022.72C1040.48,-1009.03 1014.05,-990.53 998.34,-979.53"/>
<polygon fill="black" stroke="black" points="1000.49,-976.77 990.29,-973.9 996.48,-982.5 1000.49,-976.77"/>
</g>
<!-- 101 -->
<g id="node5" class="node">
<title>101</title>
<polygon fill="yellow" stroke="black" points="730.3,-915.2 159.72,-915.2 159.72,-879.2 730.3,-879.2 730.3,-915.2"/>
<text text-anchor="middle" x="445.01" y="-893" font-family="Times,serif" font-size="14.00">m_pre&lt;&gt;1&amp;&amp;m_pre&lt;&gt;3&amp;&amp;m_pre&lt;&gt;5&amp;&amp;m_pre&lt;&gt;7&amp;&amp;m_pre&lt;&gt;8&amp;&amp;m_pre&lt;&gt;10&amp;&amp;m_pre&lt;&gt;12</text>
<text text-anchor="middle" x="148.06" y="-919.4" font-family="Times,serif" font-size="14.00">[30]</text>
</g>
<!-- 129&#45;&gt;101 -->
<g id="edge4" class="edge">
<title>129-&gt;101</title>
<path fill="none" stroke="black" d="M978.95,-967.41C941.23,-962.52 735.64,-935.87 590.89,-917.11"/>
<polygon fill="black" stroke="black" points="591.58,-913.67 581.21,-915.86 590.68,-920.61 591.58,-913.67"/>
</g>
<!-- 95 -->
<g id="node21" class="node">
<title>95</title>
<polygon fill="yellow" stroke="black" points="1221.77,-915.2 748.25,-915.2 748.25,-879.2 1221.77,-879.2 1221.77,-915.2"/>
<text text-anchor="middle" x="985.01" y="-893" font-family="Times,serif" font-size="14.00">m_pre==1||m_pre==3||m_pre==5||m_pre==7||m_pre==8||m_pre==10||m_pre==12</text>
<text text-anchor="middle" x="736.58" y="-919.4" font-family="Times,serif" font-size="14.00">[28]</text>
</g>
<!-- 129&#45;&gt;95 -->
<g id="edge22" class="edge">
<title>129-&gt;95</title>
<path fill="none" stroke="black" d="M985.01,-961.49C985.01,-953.47 985.01,-939.54 985.01,-926.79"/>
<polygon fill="black" stroke="black" points="988.51,-927.12 985.01,-917.12 981.51,-927.12 988.51,-927.12"/>
</g>
<!-- 127 -->
<g id="node6" class="node">
<title>127</title>
<polygon fill="aquamarine" stroke="black" points="445.01,-832.4 437.81,-825.2 445.01,-818 452.21,-825.2 445.01,-832.4"/>
<text text-anchor="middle" x="422.91" y="-836.6" font-family="Times,serif" font-size="14.00">&lt;15&gt;</text>
</g>
<!-- 101&#45;&gt;127 -->
<g id="edge5" class="edge">
<title>101-&gt;127</title>
<path fill="none" stroke="black" d="M445.01,-878.9C445.01,-868.3 445.01,-854.78 445.01,-844.08"/>
<polygon fill="black" stroke="black" points="448.51,-844.34 445.01,-834.34 441.51,-844.34 448.51,-844.34"/>
</g>
<!-- 110 -->
<g id="node7" class="node">
<title>110</title>
<polygon fill="yellow" stroke="black" points="448.29,-771.2 125.73,-771.2 125.73,-735.2 448.29,-735.2 448.29,-771.2"/>
<text text-anchor="middle" x="287.01" y="-749" font-family="Times,serif" font-size="14.00">m_pre&lt;&gt;4&amp;&amp;m_pre&lt;&gt;6&amp;&amp;m_pre&lt;&gt;9&amp;&amp;m_pre&lt;&gt;11</text>
<text text-anchor="middle" x="114.07" y="-775.4" font-family="Times,serif" font-size="14.00">[33]</text>
</g>
<!-- 127&#45;&gt;110 -->
<g id="edge6" class="edge">
<title>127-&gt;110</title>
<path fill="none" stroke="black" d="M440.45,-822.18C425.26,-815.45 375.14,-793.25 336.27,-776.02"/>
<polygon fill="black" stroke="black" points="338.1,-773.01 327.54,-772.15 335.26,-779.41 338.1,-773.01"/>
</g>
<!-- 104 -->
<g id="node19" class="node">
<title>104</title>
<polygon fill="yellow" stroke="black" points="740.03,-771.2 465.99,-771.2 465.99,-735.2 740.03,-735.2 740.03,-771.2"/>
<text text-anchor="middle" x="603.01" y="-749" font-family="Times,serif" font-size="14.00">m_pre==4||m_pre==6||m_pre==9||m_pre==11</text>
<text text-anchor="middle" x="454.33" y="-775.4" font-family="Times,serif" font-size="14.00">[31]</text>
</g>
<!-- 127&#45;&gt;104 -->
<g id="edge19" class="edge">
<title>127-&gt;104</title>
<path fill="none" stroke="black" d="M449.57,-822.18C464.76,-815.45 514.88,-793.25 553.75,-776.02"/>
<polygon fill="black" stroke="black" points="554.76,-779.41 562.48,-772.15 551.92,-773.01 554.76,-779.41"/>
</g>
<!-- 125 -->
<g id="node8" class="node">
<title>125</title>
<polygon fill="aquamarine" stroke="black" points="287.01,-688.4 279.81,-681.2 287.01,-674 294.21,-681.2 287.01,-688.4"/>
<text text-anchor="middle" x="264.91" y="-692.6" font-family="Times,serif" font-size="14.00">&lt;13&gt;</text>
</g>
<!-- 110&#45;&gt;125 -->
<g id="edge7" class="edge">
<title>110-&gt;125</title>
<path fill="none" stroke="black" d="M287.01,-734.9C287.01,-724.3 287.01,-710.78 287.01,-700.08"/>
<polygon fill="black" stroke="black" points="290.51,-700.34 287.01,-690.34 283.51,-700.34 290.51,-700.34"/>
</g>
<!-- 113 -->
<g id="node9" class="node">
<title>113</title>
<polygon fill="yellow" stroke="black" points="314.7,-627.2 23.32,-627.2 23.32,-591.2 314.7,-591.2 314.7,-627.2"/>
<text text-anchor="middle" x="169.01" y="-605" font-family="Times,serif" font-size="14.00">y_pre%400==0||y_pre%4==0&amp;&amp;y_pre%100&lt;&gt;0</text>
<text text-anchor="middle" x="11.66" y="-631.4" font-family="Times,serif" font-size="14.00">[34]</text>
</g>
<!-- 125&#45;&gt;113 -->
<g id="edge8" class="edge">
<title>125-&gt;113</title>
<path fill="none" stroke="black" d="M282.81,-677.71C270.91,-670.65 236.02,-649.95 207.98,-633.32"/>
<polygon fill="black" stroke="black" points="210.08,-630.49 199.69,-628.4 206.51,-636.51 210.08,-630.49"/>
</g>
<!-- 119 -->
<g id="node17" class="node">
<title>119</title>
<polygon fill="yellow" stroke="black" points="623.7,-627.2 332.32,-627.2 332.32,-591.2 623.7,-591.2 623.7,-627.2"/>
<text text-anchor="middle" x="478.01" y="-605" font-family="Times,serif" font-size="14.00">y_pre%400&lt;&gt;0&amp;&amp;y_pre%4&lt;&gt;0||y_pre%100==0</text>
<text text-anchor="middle" x="320.66" y="-631.4" font-family="Times,serif" font-size="14.00">[36]</text>
</g>
<!-- 125&#45;&gt;119 -->
<g id="edge16" class="edge">
<title>125-&gt;119</title>
<path fill="none" stroke="black" d="M291.73,-678.47C309.25,-672.05 371.98,-649.06 419.85,-631.52"/>
<polygon fill="black" stroke="black" points="420.82,-634.89 429.01,-628.16 418.41,-628.31 420.82,-634.89"/>
</g>
<!-- 116 -->
<g id="node10" class="node">
<title>116</title>
<polygon fill="yellow" stroke="black" points="314.84,-555.2 237.18,-555.2 237.18,-519.2 314.84,-519.2 314.84,-555.2"/>
<text text-anchor="middle" x="276.01" y="-533" font-family="Times,serif" font-size="14.00">d_pre&lt;=29</text>
<text text-anchor="middle" x="225.51" y="-559.4" font-family="Times,serif" font-size="14.00">[35]</text>
</g>
<!-- 113&#45;&gt;116 -->
<g id="edge9" class="edge">
<title>113-&gt;116</title>
<path fill="none" stroke="black" d="M195.73,-590.72C209.24,-581.88 225.82,-571.04 240.39,-561.5"/>
<polygon fill="black" stroke="black" points="241.91,-564.69 248.36,-556.29 238.08,-558.83 241.91,-564.69"/>
</g>
<!-- 126 -->
<g id="node11" class="node">
<title>126</title>
<polygon fill="aquamarine" stroke="black" points="478.01,-472.4 470.81,-465.2 478.01,-458 485.21,-465.2 478.01,-472.4"/>
<text text-anchor="middle" x="455.91" y="-476.6" font-family="Times,serif" font-size="14.00">&lt;14&gt;</text>
</g>
<!-- 116&#45;&gt;126 -->
<g id="edge10" class="edge">
<title>116-&gt;126</title>
<path fill="none" stroke="black" d="M314.96,-522.7C359.7,-507.2 430.96,-482.5 462.33,-471.64"/>
<polygon fill="black" stroke="black" points="463.4,-474.97 471.7,-468.39 461.1,-468.35 463.4,-474.97"/>
</g>
<!-- 128 -->
<g id="node12" class="node">
<title>128</title>
<polygon fill="aquamarine" stroke="black" points="652.01,-400.4 644.81,-393.2 652.01,-386 659.21,-393.2 652.01,-400.4"/>
<text text-anchor="middle" x="629.91" y="-404.6" font-family="Times,serif" font-size="14.00">&lt;16&gt;</text>
</g>
<!-- 126&#45;&gt;128 -->
<g id="edge11" class="edge">
<title>126-&gt;128</title>
<path fill="none" stroke="black" d="M482.66,-462.33C504.71,-453.46 599.12,-415.48 636.59,-400.4"/>
<polygon fill="black" stroke="black" points="637.89,-403.66 645.86,-396.68 635.27,-397.16 637.89,-403.66"/>
</g>
<!-- 130 -->
<g id="node13" class="node">
<title>130</title>
<polygon fill="aquamarine" stroke="black" points="768.01,-328.4 760.81,-321.2 768.01,-314 775.21,-321.2 768.01,-328.4"/>
<text text-anchor="middle" x="745.91" y="-332.6" font-family="Times,serif" font-size="14.00">&lt;18&gt;</text>
</g>
<!-- 128&#45;&gt;130 -->
<g id="edge12" class="edge">
<title>128-&gt;130</title>
<path fill="none" stroke="black" d="M656.14,-389.71C671.75,-380.29 727.61,-346.58 754.01,-330.65"/>
<polygon fill="black" stroke="black" points="755.76,-333.68 762.51,-325.52 752.14,-327.69 755.76,-333.68"/>
</g>
<!-- 136 -->
<g id="node14" class="node">
<title>136</title>
<polygon fill="yellow" stroke="black" points="1130.34,-216.8 543.68,-216.8 543.68,-180.8 1130.34,-180.8 1130.34,-216.8"/>
<text text-anchor="middle" x="837.01" y="-194.6" font-family="Times,serif" font-size="14.00">year=y_pre&amp;&amp;month=m_pre&amp;&amp;day=d_pre&amp;&amp;year=year_pre&amp;&amp;month=month_pre&amp;&amp;day=day_pre</text>
<text text-anchor="middle" x="532.02" y="-221" font-family="Times,serif" font-size="14.00">[39]</text>
</g>
<!-- 130&#45;&gt;136 -->
<g id="edge13" class="edge">
<title>130-&gt;136</title>
<path fill="none" stroke="black" d="M770.47,-315.91C778.5,-301.9 804.45,-256.62 821.47,-226.92"/>
<polygon fill="black" stroke="black" points="824.38,-228.87 826.32,-218.46 818.31,-225.39 824.38,-228.87"/>
</g>
<!-- 140 -->
<g id="node15" class="node">
<title>140</title>
<polygon fill="aquamarine" stroke="black" points="996.01,-72.8 988.81,-65.6 996.01,-58.4 1003.21,-65.6 996.01,-72.8"/>
<text text-anchor="middle" x="973.91" y="-77" font-family="Times,serif" font-size="14.00">&lt;22&gt;</text>
</g>
<!-- 136&#45;&gt;140 -->
<g id="edge14" class="edge">
<title>136-&gt;140</title>
<path fill="none" stroke="black" d="M858.12,-180.38C891.83,-152.56 956.75,-99 983.76,-76.71"/>
<polygon fill="black" stroke="black" points="985.69,-79.65 991.18,-70.59 981.24,-74.25 985.69,-79.65"/>
</g>
<!-- 49 -->
<g id="node16" class="node">
<title>49</title>
<ellipse fill="black" stroke="black" cx="996.01" cy="-11.2" rx="7.2" ry="7.2"/>
<ellipse fill="none" stroke="black" cx="996.01" cy="-11.2" rx="11.2" ry="11.2"/>
</g>
<!-- 140&#45;&gt;49 -->
<g id="edge15" class="edge">
<title>140-&gt;49</title>
<path fill="none" stroke="black" d="M996.01,-57.75C996.01,-51.79 996.01,-42.8 996.01,-34.38"/>
<polygon fill="black" stroke="black" points="999.51,-34.38 996.01,-24.38 992.51,-34.38 999.51,-34.38"/>
</g>
<!-- 122 -->
<g id="node18" class="node">
<title>122</title>
<polygon fill="yellow" stroke="black" points="516.84,-555.2 439.18,-555.2 439.18,-519.2 516.84,-519.2 516.84,-555.2"/>
<text text-anchor="middle" x="478.01" y="-533" font-family="Times,serif" font-size="14.00">d_pre&lt;=28</text>
<text text-anchor="middle" x="427.51" y="-559.4" font-family="Times,serif" font-size="14.00">[37]</text>
</g>
<!-- 119&#45;&gt;122 -->
<g id="edge17" class="edge">
<title>119-&gt;122</title>
<path fill="none" stroke="black" d="M478.01,-590.9C478.01,-583.61 478.01,-574.93 478.01,-566.74"/>
<polygon fill="black" stroke="black" points="481.51,-566.82 478.01,-556.82 474.51,-566.82 481.51,-566.82"/>
</g>
<!-- 122&#45;&gt;126 -->
<g id="edge18" class="edge">
<title>122-&gt;126</title>
<path fill="none" stroke="black" d="M478.01,-518.9C478.01,-508.3 478.01,-494.78 478.01,-484.08"/>
<polygon fill="black" stroke="black" points="481.51,-484.34 478.01,-474.34 474.51,-484.34 481.51,-484.34"/>
</g>
<!-- 107 -->
<g id="node20" class="node">
<title>107</title>
<polygon fill="yellow" stroke="black" points="665.84,-699.2 588.18,-699.2 588.18,-663.2 665.84,-663.2 665.84,-699.2"/>
<text text-anchor="middle" x="627.01" y="-677" font-family="Times,serif" font-size="14.00">d_pre&lt;=30</text>
<text text-anchor="middle" x="576.51" y="-703.4" font-family="Times,serif" font-size="14.00">[32]</text>
</g>
<!-- 104&#45;&gt;107 -->
<g id="edge20" class="edge">
<title>104-&gt;107</title>
<path fill="none" stroke="black" d="M608.94,-734.9C611.5,-727.44 614.56,-718.52 617.42,-710.17"/>
<polygon fill="black" stroke="black" points="620.72,-711.33 620.66,-700.74 614.1,-709.06 620.72,-711.33"/>
</g>
<!-- 107&#45;&gt;128 -->
<g id="edge21" class="edge">
<title>107-&gt;128</title>
<path fill="none" stroke="black" d="M629.09,-663.03C630.31,-652.66 631.84,-639.18 633.01,-627.2 640.84,-546.8 647.98,-450.57 650.77,-411.73"/>
<polygon fill="black" stroke="black" points="654.25,-412.06 651.47,-401.84 647.27,-411.56 654.25,-412.06"/>
</g>
<!-- 98 -->
<g id="node22" class="node">
<title>98</title>
<polygon fill="yellow" stroke="black" points="806.84,-483.2 729.18,-483.2 729.18,-447.2 806.84,-447.2 806.84,-483.2"/>
<text text-anchor="middle" x="768.01" y="-461" font-family="Times,serif" font-size="14.00">d_pre&lt;=31</text>
<text text-anchor="middle" x="717.51" y="-487.4" font-family="Times,serif" font-size="14.00">[29]</text>
</g>
<!-- 95&#45;&gt;98 -->
<g id="edge23" class="edge">
<title>95-&gt;98</title>
<path fill="none" stroke="black" d="M881.65,-878.71C841.06,-869.81 800.86,-857.78 787.01,-843.2 759.15,-813.88 768.01,-794.65 768.01,-754.2 768.01,-754.2 768.01,-754.2 768.01,-608.2 768.01,-568.94 768.01,-523.58 768.01,-494.89"/>
<polygon fill="black" stroke="black" points="771.51,-495.2 768.01,-485.2 764.51,-495.2 771.51,-495.2"/>
</g>
<!-- 98&#45;&gt;130 -->
<g id="edge24" class="edge">
<title>98-&gt;130</title>
<path fill="none" stroke="black" d="M768.01,-446.79C768.01,-419.68 768.01,-367.64 768.01,-340.18"/>
<polygon fill="black" stroke="black" points="771.51,-340.41 768.01,-330.41 764.51,-340.41 771.51,-340.41"/>
</g>
<!-- 53 -->
<g id="node24" class="node">
<title>53</title>
<polygon fill="yellow" stroke="black" points="1537.13,-987.2 1124.89,-987.2 1124.89,-951.2 1537.13,-951.2 1537.13,-987.2"/>
<text text-anchor="middle" x="1331.01" y="-965" font-family="Times,serif" font-size="14.00">y_pre&gt;=1&amp;&amp;y_pre&lt;=3999&amp;&amp;m_pre&gt;=1&amp;&amp;m_pre&lt;=12&amp;&amp;d_pre&gt;=1</text>
<text text-anchor="middle" x="1113.23" y="-991.4" font-family="Times,serif" font-size="14.00">[16]</text>
</g>
<!-- 131&#45;&gt;53 -->
<g id="edge26" class="edge">
<title>131-&gt;53</title>
<path fill="none" stroke="black" d="M1331.01,-1033.49C1331.01,-1025.47 1331.01,-1011.54 1331.01,-998.79"/>
<polygon fill="black" stroke="black" points="1334.51,-999.12 1331.01,-989.12 1327.51,-999.12 1334.51,-999.12"/>
</g>
<!-- 50 -->
<g id="node43" class="node">
<title>50</title>
<polygon fill="yellow" stroke="black" points="1854.04,-411.2 1545.98,-411.2 1545.98,-375.2 1854.04,-375.2 1854.04,-411.2"/>
<text text-anchor="middle" x="1700.01" y="-389" font-family="Times,serif" font-size="14.00">y_pre&lt;1||y_pre&gt;3999||m_pre&lt;1||m_pre&gt;12||d_pre&lt;1</text>
<text text-anchor="middle" x="1534.32" y="-415.4" font-family="Times,serif" font-size="14.00">[15]</text>
</g>
<!-- 131&#45;&gt;50 -->
<g id="edge49" class="edge">
<title>131-&gt;50</title>
<path fill="none" stroke="black" d="M1337.63,-1039.99C1400.25,-1037.84 1886.01,-1017.3 1886.01,-898.2 1886.01,-898.2 1886.01,-898.2 1886.01,-536.2 1886.01,-475.17 1821.95,-436.86 1769.02,-415.63"/>
<polygon fill="black" stroke="black" points="1770.61,-412.49 1760.02,-412.16 1768.09,-419.02 1770.61,-412.49"/>
</g>
<!-- 93 -->
<g id="node25" class="node">
<title>93</title>
<polygon fill="aquamarine" stroke="black" points="1331.01,-904.4 1323.81,-897.2 1331.01,-890 1338.21,-897.2 1331.01,-904.4"/>
<text text-anchor="middle" x="1308.91" y="-908.6" font-family="Times,serif" font-size="14.00">&lt;11&gt;</text>
</g>
<!-- 53&#45;&gt;93 -->
<g id="edge27" class="edge">
<title>53-&gt;93</title>
<path fill="none" stroke="black" d="M1331.01,-950.9C1331.01,-940.3 1331.01,-926.78 1331.01,-916.08"/>
<polygon fill="black" stroke="black" points="1334.51,-916.34 1331.01,-906.34 1327.51,-916.34 1334.51,-916.34"/>
</g>
<!-- 59 -->
<g id="node26" class="node">
<title>59</title>
<polygon fill="yellow" stroke="black" points="1269.77,-843.2 796.25,-843.2 796.25,-807.2 1269.77,-807.2 1269.77,-843.2"/>
<text text-anchor="middle" x="1033.01" y="-821" font-family="Times,serif" font-size="14.00">m_pre==1||m_pre==3||m_pre==5||m_pre==7||m_pre==8||m_pre==10||m_pre==12</text>
<text text-anchor="middle" x="784.58" y="-847.4" font-family="Times,serif" font-size="14.00">[18]</text>
</g>
<!-- 93&#45;&gt;59 -->
<g id="edge28" class="edge">
<title>93-&gt;59</title>
<path fill="none" stroke="black" d="M1325.58,-894.93C1300.73,-889.09 1195.71,-864.42 1118.58,-846.3"/>
<polygon fill="black" stroke="black" points="1119.42,-842.9 1108.89,-844.02 1117.82,-849.72 1119.42,-842.9"/>
</g>
<!-- 65 -->
<g id="node31" class="node">
<title>65</title>
<polygon fill="yellow" stroke="black" points="1858.3,-843.2 1287.72,-843.2 1287.72,-807.2 1858.3,-807.2 1858.3,-843.2"/>
<text text-anchor="middle" x="1573.01" y="-821" font-family="Times,serif" font-size="14.00">m_pre&lt;&gt;1&amp;&amp;m_pre&lt;&gt;3&amp;&amp;m_pre&lt;&gt;5&amp;&amp;m_pre&lt;&gt;7&amp;&amp;m_pre&lt;&gt;8&amp;&amp;m_pre&lt;&gt;10&amp;&amp;m_pre&lt;&gt;12</text>
<text text-anchor="middle" x="1276.06" y="-847.4" font-family="Times,serif" font-size="14.00">[20]</text>
</g>
<!-- 93&#45;&gt;65 -->
<g id="edge34" class="edge">
<title>93-&gt;65</title>
<path fill="none" stroke="black" d="M1336.06,-894.74C1357.16,-888.64 1439.98,-864.68 1501.79,-846.8"/>
<polygon fill="black" stroke="black" points="1502.59,-850.21 1511.23,-844.07 1500.65,-843.49 1502.59,-850.21"/>
</g>
<!-- 62 -->
<g id="node27" class="node">
<title>62</title>
<polygon fill="yellow" stroke="black" points="1104.9,-339.2 1035.12,-339.2 1035.12,-303.2 1104.9,-303.2 1104.9,-339.2"/>
<text text-anchor="middle" x="1070.01" y="-317" font-family="Times,serif" font-size="14.00">d_pre&gt;31</text>
<text text-anchor="middle" x="1023.46" y="-343.4" font-family="Times,serif" font-size="14.00">[19]</text>
</g>
<!-- 59&#45;&gt;62 -->
<g id="edge29" class="edge">
<title>59-&gt;62</title>
<path fill="none" stroke="black" d="M1034.43,-806.72C1036.47,-779.94 1040.01,-727.12 1040.01,-682.2 1040.01,-682.2 1040.01,-682.2 1040.01,-464.2 1040.01,-423.89 1051.72,-378.52 1060.51,-350.14"/>
<polygon fill="black" stroke="black" points="1063.76,-351.47 1063.48,-340.88 1057.09,-349.34 1063.76,-351.47"/>
</g>
<!-- 94 -->
<g id="node28" class="node">
<title>94</title>
<polygon fill="aquamarine" stroke="black" points="1160.01,-267.2 1152.81,-260 1160.01,-252.8 1167.21,-260 1160.01,-267.2"/>
<text text-anchor="middle" x="1137.91" y="-271.4" font-family="Times,serif" font-size="14.00">&lt;12&gt;</text>
</g>
<!-- 62&#45;&gt;94 -->
<g id="edge30" class="edge">
<title>62-&gt;94</title>
<path fill="none" stroke="black" d="M1096.53,-302.76C1113.05,-291.89 1133.6,-278.37 1146.76,-269.72"/>
<polygon fill="black" stroke="black" points="1148.44,-272.8 1154.87,-264.38 1144.59,-266.95 1148.44,-272.8"/>
</g>
<!-- 132 -->
<g id="node29" class="node">
<title>132</title>
<polygon fill="aquamarine" stroke="black" points="1160.01,-206 1152.81,-198.8 1160.01,-191.6 1167.21,-198.8 1160.01,-206"/>
<text text-anchor="middle" x="1167.71" y="-210.2" font-family="Times,serif" font-size="14.00">&lt;20&gt;</text>
</g>
<!-- 94&#45;&gt;132 -->
<g id="edge31" class="edge">
<title>94-&gt;132</title>
<path fill="none" stroke="black" d="M1160.01,-252.21C1160.01,-243.91 1160.01,-229.55 1160.01,-217.95"/>
<polygon fill="black" stroke="black" points="1163.51,-218.03 1160.01,-208.03 1156.51,-218.03 1163.51,-218.03"/>
</g>
<!-- 133 -->
<g id="node30" class="node">
<title>133</title>
<polygon fill="yellow" stroke="black" points="1174.26,-144.8 1027.76,-144.8 1027.76,-108.8 1174.26,-108.8 1174.26,-144.8"/>
<text text-anchor="middle" x="1101.01" y="-122.6" font-family="Times,serif" font-size="14.00">exception="Exception"</text>
<text text-anchor="middle" x="1016.1" y="-149" font-family="Times,serif" font-size="14.00">[38]</text>
</g>
<!-- 132&#45;&gt;133 -->
<g id="edge32" class="edge">
<title>132-&gt;133</title>
<path fill="none" stroke="black" d="M1157.16,-194.42C1151.01,-187.12 1135.96,-169.26 1122.98,-153.87"/>
<polygon fill="black" stroke="black" points="1125.77,-151.74 1116.65,-146.35 1120.41,-156.25 1125.77,-151.74"/>
</g>
<!-- 133&#45;&gt;140 -->
<g id="edge33" class="edge">
<title>133-&gt;140</title>
<path fill="none" stroke="black" d="M1070.07,-108.36C1050.22,-97.16 1025.38,-83.16 1010.11,-74.55"/>
<polygon fill="black" stroke="black" points="1011.94,-71.56 1001.51,-69.7 1008.5,-77.66 1011.94,-71.56"/>
</g>
<!-- 91 -->
<g id="node32" class="node">
<title>91</title>
<polygon fill="aquamarine" stroke="black" points="1544.01,-760.4 1536.81,-753.2 1544.01,-746 1551.21,-753.2 1544.01,-760.4"/>
<text text-anchor="middle" x="1525.41" y="-764.6" font-family="Times,serif" font-size="14.00">&lt;9&gt;</text>
</g>
<!-- 65&#45;&gt;91 -->
<g id="edge35" class="edge">
<title>65-&gt;91</title>
<path fill="none" stroke="black" d="M1565.84,-806.9C1561.06,-795.37 1554.85,-780.36 1550.27,-769.31"/>
<polygon fill="black" stroke="black" points="1553.6,-768.21 1546.54,-760.31 1547.14,-770.89 1553.6,-768.21"/>
</g>
<!-- 68 -->
<g id="node33" class="node">
<title>68</title>
<polygon fill="yellow" stroke="black" points="1357.03,-699.2 1082.99,-699.2 1082.99,-663.2 1357.03,-663.2 1357.03,-699.2"/>
<text text-anchor="middle" x="1220.01" y="-677" font-family="Times,serif" font-size="14.00">m_pre==4||m_pre==6||m_pre==9||m_pre==11</text>
<text text-anchor="middle" x="1071.33" y="-703.4" font-family="Times,serif" font-size="14.00">[21]</text>
</g>
<!-- 91&#45;&gt;68 -->
<g id="edge36" class="edge">
<title>91-&gt;68</title>
<path fill="none" stroke="black" d="M1538.39,-750.99C1511.77,-745.23 1396.21,-720.27 1311.96,-702.07"/>
<polygon fill="black" stroke="black" points="1312.81,-698.67 1302.3,-699.98 1311.33,-705.51 1312.81,-698.67"/>
</g>
<!-- 74 -->
<g id="node36" class="node">
<title>74</title>
<polygon fill="yellow" stroke="black" points="1705.29,-699.2 1382.73,-699.2 1382.73,-663.2 1705.29,-663.2 1705.29,-699.2"/>
<text text-anchor="middle" x="1544.01" y="-677" font-family="Times,serif" font-size="14.00">m_pre&lt;&gt;4&amp;&amp;m_pre&lt;&gt;6&amp;&amp;m_pre&lt;&gt;9&amp;&amp;m_pre&lt;&gt;11</text>
<text text-anchor="middle" x="1371.07" y="-703.4" font-family="Times,serif" font-size="14.00">[23]</text>
</g>
<!-- 91&#45;&gt;74 -->
<g id="edge40" class="edge">
<title>91-&gt;74</title>
<path fill="none" stroke="black" d="M1544.01,-745.49C1544.01,-737.47 1544.01,-723.54 1544.01,-710.79"/>
<polygon fill="black" stroke="black" points="1547.51,-711.12 1544.01,-701.12 1540.51,-711.12 1547.51,-711.12"/>
</g>
<!-- 71 -->
<g id="node34" class="node">
<title>71</title>
<polygon fill="yellow" stroke="black" points="1195.9,-411.2 1126.12,-411.2 1126.12,-375.2 1195.9,-375.2 1195.9,-411.2"/>
<text text-anchor="middle" x="1161.01" y="-389" font-family="Times,serif" font-size="14.00">d_pre&gt;30</text>
<text text-anchor="middle" x="1114.46" y="-415.4" font-family="Times,serif" font-size="14.00">[22]</text>
</g>
<!-- 68&#45;&gt;71 -->
<g id="edge37" class="edge">
<title>68-&gt;71</title>
<path fill="none" stroke="black" d="M1213.38,-663.1C1204.41,-639.28 1188.56,-594.61 1180.01,-555.2 1170.06,-509.35 1165.02,-454.94 1162.7,-422.56"/>
<polygon fill="black" stroke="black" points="1166.21,-422.55 1162.05,-412.81 1159.23,-423.02 1166.21,-422.55"/>
</g>
<!-- 92 -->
<g id="node35" class="node">
<title>92</title>
<polygon fill="aquamarine" stroke="black" points="1161.01,-328.4 1153.81,-321.2 1161.01,-314 1168.21,-321.2 1161.01,-328.4"/>
<text text-anchor="middle" x="1138.91" y="-332.6" font-family="Times,serif" font-size="14.00">&lt;10&gt;</text>
</g>
<!-- 71&#45;&gt;92 -->
<g id="edge38" class="edge">
<title>71-&gt;92</title>
<path fill="none" stroke="black" d="M1161.01,-374.9C1161.01,-364.3 1161.01,-350.78 1161.01,-340.08"/>
<polygon fill="black" stroke="black" points="1164.51,-340.34 1161.01,-330.34 1157.51,-340.34 1164.51,-340.34"/>
</g>
<!-- 92&#45;&gt;94 -->
<g id="edge39" class="edge">
<title>92-&gt;94</title>
<path fill="none" stroke="black" d="M1160.9,-313.41C1160.76,-305.11 1160.51,-290.75 1160.32,-279.15"/>
<polygon fill="black" stroke="black" points="1163.82,-279.16 1160.15,-269.23 1156.82,-279.28 1163.82,-279.16"/>
</g>
<!-- 89 -->
<g id="node37" class="node">
<title>89</title>
<polygon fill="aquamarine" stroke="black" points="1544.01,-616.4 1536.81,-609.2 1544.01,-602 1551.21,-609.2 1544.01,-616.4"/>
<text text-anchor="middle" x="1525.41" y="-620.6" font-family="Times,serif" font-size="14.00">&lt;7&gt;</text>
</g>
<!-- 74&#45;&gt;89 -->
<g id="edge41" class="edge">
<title>74-&gt;89</title>
<path fill="none" stroke="black" d="M1544.01,-662.9C1544.01,-652.3 1544.01,-638.78 1544.01,-628.08"/>
<polygon fill="black" stroke="black" points="1547.51,-628.34 1544.01,-618.34 1540.51,-628.34 1547.51,-628.34"/>
</g>
<!-- 77 -->
<g id="node38" class="node">
<title>77</title>
<polygon fill="yellow" stroke="black" points="1480.7,-555.2 1189.32,-555.2 1189.32,-519.2 1480.7,-519.2 1480.7,-555.2"/>
<text text-anchor="middle" x="1335.01" y="-533" font-family="Times,serif" font-size="14.00">y_pre%400==0||y_pre%4==0&amp;&amp;y_pre%100&lt;&gt;0</text>
<text text-anchor="middle" x="1177.66" y="-559.4" font-family="Times,serif" font-size="14.00">[24]</text>
</g>
<!-- 89&#45;&gt;77 -->
<g id="edge42" class="edge">
<title>89-&gt;77</title>
<path fill="none" stroke="black" d="M1538.84,-606.47C1519.55,-600.01 1450.17,-576.77 1397.67,-559.18"/>
<polygon fill="black" stroke="black" points="1399.11,-555.98 1388.51,-556.12 1396.88,-562.61 1399.11,-555.98"/>
</g>
<!-- 83 -->
<g id="node41" class="node">
<title>83</title>
<polygon fill="yellow" stroke="black" points="1789.7,-555.2 1498.32,-555.2 1498.32,-519.2 1789.7,-519.2 1789.7,-555.2"/>
<text text-anchor="middle" x="1644.01" y="-533" font-family="Times,serif" font-size="14.00">y_pre%400&lt;&gt;0&amp;&amp;y_pre%4&lt;&gt;0||y_pre%100==0</text>
<text text-anchor="middle" x="1486.66" y="-559.4" font-family="Times,serif" font-size="14.00">[26]</text>
</g>
<!-- 89&#45;&gt;83 -->
<g id="edge46" class="edge">
<title>89-&gt;83</title>
<path fill="none" stroke="black" d="M1547.81,-605.54C1557.97,-598.43 1586.59,-578.4 1609.99,-562.02"/>
<polygon fill="black" stroke="black" points="1611.87,-564.97 1618.06,-556.37 1607.86,-559.23 1611.87,-564.97"/>
</g>
<!-- 80 -->
<g id="node39" class="node">
<title>80</title>
<polygon fill="yellow" stroke="black" points="1369.9,-483.2 1300.12,-483.2 1300.12,-447.2 1369.9,-447.2 1369.9,-483.2"/>
<text text-anchor="middle" x="1335.01" y="-461" font-family="Times,serif" font-size="14.00">d_pre&gt;29</text>
<text text-anchor="middle" x="1288.46" y="-487.4" font-family="Times,serif" font-size="14.00">[25]</text>
</g>
<!-- 77&#45;&gt;80 -->
<g id="edge43" class="edge">
<title>77-&gt;80</title>
<path fill="none" stroke="black" d="M1335.01,-518.9C1335.01,-511.61 1335.01,-502.93 1335.01,-494.74"/>
<polygon fill="black" stroke="black" points="1338.51,-494.82 1335.01,-484.82 1331.51,-494.82 1338.51,-494.82"/>
</g>
<!-- 90 -->
<g id="node40" class="node">
<title>90</title>
<polygon fill="aquamarine" stroke="black" points="1335.01,-400.4 1327.81,-393.2 1335.01,-386 1342.21,-393.2 1335.01,-400.4"/>
<text text-anchor="middle" x="1316.41" y="-404.6" font-family="Times,serif" font-size="14.00">&lt;8&gt;</text>
</g>
<!-- 80&#45;&gt;90 -->
<g id="edge44" class="edge">
<title>80-&gt;90</title>
<path fill="none" stroke="black" d="M1335.01,-446.9C1335.01,-436.3 1335.01,-422.78 1335.01,-412.08"/>
<polygon fill="black" stroke="black" points="1338.51,-412.34 1335.01,-402.34 1331.51,-412.34 1338.51,-412.34"/>
</g>
<!-- 90&#45;&gt;92 -->
<g id="edge45" class="edge">
<title>90-&gt;92</title>
<path fill="none" stroke="black" d="M1329.5,-390.96C1309.14,-386.25 1236.57,-368.23 1183.01,-339.2 1179.67,-337.39 1176.3,-335.08 1173.24,-332.76"/>
<polygon fill="black" stroke="black" points="1175.58,-330.15 1165.66,-326.44 1171.1,-335.53 1175.58,-330.15"/>
</g>
<!-- 86 -->
<g id="node42" class="node">
<title>86</title>
<polygon fill="yellow" stroke="black" points="1568.9,-483.2 1499.12,-483.2 1499.12,-447.2 1568.9,-447.2 1568.9,-483.2"/>
<text text-anchor="middle" x="1534.01" y="-461" font-family="Times,serif" font-size="14.00">d_pre&gt;28</text>
<text text-anchor="middle" x="1487.46" y="-487.4" font-family="Times,serif" font-size="14.00">[27]</text>
</g>
<!-- 83&#45;&gt;86 -->
<g id="edge47" class="edge">
<title>83-&gt;86</title>
<path fill="none" stroke="black" d="M1616.54,-518.72C1602.65,-509.88 1585.61,-499.04 1570.63,-489.5"/>
<polygon fill="black" stroke="black" points="1572.73,-486.69 1562.41,-484.27 1568.97,-492.59 1572.73,-486.69"/>
</g>
<!-- 86&#45;&gt;90 -->
<g id="edge48" class="edge">
<title>86-&gt;90</title>
<path fill="none" stroke="black" d="M1498.89,-451.85C1455.15,-436.46 1382.33,-410.84 1350.59,-399.68"/>
<polygon fill="black" stroke="black" points="1352.02,-396.47 1341.42,-396.46 1349.7,-403.08 1352.02,-396.47"/>
</g>
<!-- 50&#45;&gt;132 -->
<g id="edge50" class="edge">
<title>50-&gt;132</title>
<path fill="none" stroke="black" d="M1651.14,-374.79C1534.8,-333.33 1245.89,-230.4 1175.61,-205.36"/>
<polygon fill="black" stroke="black" points="1176.87,-202.09 1166.27,-202.03 1174.52,-208.68 1176.87,-202.09"/>
</g>
</g>
</svg>