<?xml version="1.0" encoding="UTF-8" standalone="no"?>
<!DOCTYPE svg PUBLIC "-//W3C//DTD SVG 1.1//EN"
 "http://www.w3.org/Graphics/SVG/1.1/DTD/svg11.dtd">
<!-- Generated by graphviz version 12.2.1 (20241206.2353)
 -->
<!-- Title: CLG Pages: 1 -->
<svg width="842pt" height="2178pt"
 viewBox="0.00 0.00 841.50 2178.00" xmlns="http://www.w3.org/2000/svg" xmlns:xlink="http://www.w3.org/1999/xlink">
<g id="graph0" class="graph" transform="scale(1 1) rotate(0) translate(4 2174)">
<title>CLG</title>
<polygon fill="white" stroke="none" points="-4,4 -4,-2174 837.5,-2174 837.5,4 -4,4"/>
<!-- 129 -->
<g id="node1" class="node">
<title>129</title>
<polygon fill="yellow" stroke="black" points="468.25,-1143.3 361.5,-1143.3 361.5,-1107.3 468.25,-1107.3 468.25,-1143.3"/>
<text text-anchor="middle" x="414.88" y="-1120.25" font-family="Times New Roman,serif" font-size="14.00">idx0 &gt; d1 &#45; 1+ 1</text>
<text text-anchor="middle" x="346.88" y="-1146.5" font-family="Times New Roman,serif" font-size="14.00">[129]</text>
</g>
<!-- 186 -->
<g id="node32" class="node">
<title>186</title>
<polygon fill="aquamarine" stroke="black" points="377.88,-1044 370.68,-1036.8 377.88,-1029.6 385.07,-1036.8 377.88,-1044"/>
<text text-anchor="middle" x="352.3" y="-1047.2" font-family="Times New Roman,serif" font-size="14.00">&lt;186&gt;</text>
</g>
<!-- 129&#45;&gt;186 -->
<g id="edge9" class="edge">
<title>129&#45;&gt;186</title>
<path fill="none" stroke="black" d="M407.56,-1107.21C400.79,-1091.36 390.8,-1068.01 384.31,-1052.85"/>
<polygon fill="black" stroke="black" points="387.58,-1051.6 380.43,-1043.78 381.15,-1054.35 387.58,-1051.6"/>
<text text-anchor="middle" x="433.81" y="-1076" font-family="Times New Roman,serif" font-size="14.00">merge1#201</text>
</g>
<!-- 132 -->
<g id="node2" class="node">
<title>132</title>
<polygon fill="yellow" stroke="black" points="602.38,-1143.3 487.38,-1143.3 487.38,-1107.3 602.38,-1107.3 602.38,-1143.3"/>
<text text-anchor="middle" x="544.88" y="-1120.25" font-family="Times New Roman,serif" font-size="14.00">idx0 &lt;= d1 &#45; 1+ 1</text>
<text text-anchor="middle" x="472.75" y="-1146.5" font-family="Times New Roman,serif" font-size="14.00">[132]</text>
</g>
<!-- 135 -->
<g id="node3" class="node">
<title>135</title>
<polygon fill="yellow" stroke="black" points="604,-1054.8 471.75,-1054.8 471.75,-1018.8 604,-1018.8 604,-1054.8"/>
<text text-anchor="middle" x="537.88" y="-1031.75" font-family="Times New Roman,serif" font-size="14.00">it = Sequence{1..d1}</text>
<text text-anchor="middle" x="457.12" y="-1058" font-family="Times New Roman,serif" font-size="14.00">[135]</text>
</g>
<!-- 132&#45;&gt;135 -->
<g id="edge29" class="edge">
<title>132&#45;&gt;135</title>
<path fill="none" stroke="black" d="M542.69,-1106.87C542.04,-1101.27 541.37,-1095.03 540.88,-1089.3 540.24,-1081.89 539.7,-1073.88 539.26,-1066.42"/>
<polygon fill="black" stroke="black" points="542.76,-1066.29 538.72,-1056.5 535.77,-1066.67 542.76,-1066.29"/>
<text text-anchor="middle" x="581.38" y="-1076" font-family="Times New Roman,serif" font-size="14.00">graphAnd#183</text>
</g>
<!-- 141 -->
<g id="node5" class="node">
<title>141</title>
<polygon fill="yellow" stroke="black" points="572.62,-966.3 495.12,-966.3 495.12,-930.3 572.62,-930.3 572.62,-966.3"/>
<text text-anchor="middle" x="533.88" y="-943.25" font-family="Times New Roman,serif" font-size="14.00">acc2 = true</text>
<text text-anchor="middle" x="480.5" y="-969.5" font-family="Times New Roman,serif" font-size="14.00">[141]</text>
</g>
<!-- 135&#45;&gt;141 -->
<g id="edge30" class="edge">
<title>135&#45;&gt;141</title>
<path fill="none" stroke="black" d="M537.08,-1018.71C536.55,-1007.06 535.82,-991.35 535.19,-977.82"/>
<polygon fill="black" stroke="black" points="538.71,-977.99 534.75,-968.16 531.71,-978.31 538.71,-977.99"/>
<text text-anchor="middle" x="576.73" y="-987.5" font-family="Times New Roman,serif" font-size="14.00">graphAnd#184</text>
</g>
<!-- 138 -->
<g id="node4" class="node">
<title>138</title>
<polygon fill="yellow" stroke="black" points="550.12,-877.8 487.62,-877.8 487.62,-841.8 550.12,-841.8 550.12,-877.8"/>
<text text-anchor="middle" x="518.88" y="-854.75" font-family="Times New Roman,serif" font-size="14.00">idx1 = 1</text>
<text text-anchor="middle" x="473" y="-881" font-family="Times New Roman,serif" font-size="14.00">[138]</text>
</g>
<!-- 177 -->
<g id="node23" class="node">
<title>177</title>
<polygon fill="aquamarine" stroke="black" points="439.88,-789.3 432.68,-782.1 439.88,-774.9 447.07,-782.1 439.88,-789.3"/>
<text text-anchor="middle" x="414.3" y="-792.5" font-family="Times New Roman,serif" font-size="14.00">&lt;177&gt;</text>
</g>
<!-- 138&#45;&gt;177 -->
<g id="edge28" class="edge">
<title>138&#45;&gt;177</title>
<path fill="none" stroke="black" d="M500.95,-841.62C485.71,-827.02 464.3,-806.5 451.29,-794.04"/>
<polygon fill="black" stroke="black" points="453.96,-791.75 444.32,-787.36 449.12,-796.81 453.96,-791.75"/>
<text text-anchor="middle" x="522.24" y="-810.5" font-family="Times New Roman,serif" font-size="14.00">graphAnd#180</text>
</g>
<!-- 141&#45;&gt;138 -->
<g id="edge11" class="edge">
<title>141&#45;&gt;138</title>
<path fill="none" stroke="black" d="M530.91,-930.21C528.89,-918.56 526.17,-902.85 523.82,-889.32"/>
<polygon fill="black" stroke="black" points="527.3,-888.9 522.14,-879.64 520.4,-890.09 527.3,-888.9"/>
<text text-anchor="middle" x="568.22" y="-899" font-family="Times New Roman,serif" font-size="14.00">graphAnd#139</text>
</g>
<!-- 144 -->
<g id="node6" class="node">
<title>144</title>
<polygon fill="yellow" stroke="black" points="601.25,-722.4 494.5,-722.4 494.5,-686.4 601.25,-686.4 601.25,-722.4"/>
<text text-anchor="middle" x="547.88" y="-699.35" font-family="Times New Roman,serif" font-size="14.00">idx1 &gt; d2 &#45; 1+ 1</text>
<text text-anchor="middle" x="479.88" y="-725.6" font-family="Times New Roman,serif" font-size="14.00">[144]</text>
</g>
<!-- 179 -->
<g id="node25" class="node">
<title>179</title>
<polygon fill="yellow" stroke="black" points="644,-633.9 541.75,-633.9 541.75,-597.9 644,-597.9 644,-633.9"/>
<text text-anchor="middle" x="592.88" y="-610.85" font-family="Times New Roman,serif" font-size="14.00">idx0 = idx0 + 1</text>
<text text-anchor="middle" x="527.12" y="-637.1" font-family="Times New Roman,serif" font-size="14.00">[179]</text>
</g>
<!-- 144&#45;&gt;179 -->
<g id="edge31" class="edge">
<title>144&#45;&gt;179</title>
<path fill="none" stroke="black" d="M540.6,-686.26C537.31,-675.78 535.28,-662.41 540.88,-651.9 542.86,-648.17 545.43,-644.77 548.38,-641.69"/>
<polygon fill="black" stroke="black" points="550.52,-644.46 555.73,-635.23 545.91,-639.2 550.52,-644.46"/>
<text text-anchor="middle" x="581.38" y="-655.1" font-family="Times New Roman,serif" font-size="14.00">graphAnd#185</text>
</g>
<!-- 147 -->
<g id="node7" class="node">
<title>147</title>
<polygon fill="yellow" stroke="black" points="476.38,-722.4 361.38,-722.4 361.38,-686.4 476.38,-686.4 476.38,-722.4"/>
<text text-anchor="middle" x="418.88" y="-699.35" font-family="Times New Roman,serif" font-size="14.00">idx1 &lt;= d2 &#45; 1+ 1</text>
<text text-anchor="middle" x="346.75" y="-725.6" font-family="Times New Roman,serif" font-size="14.00">[147]</text>
</g>
<!-- 150 -->
<g id="node8" class="node">
<title>150</title>
<polygon fill="yellow" stroke="black" points="497.38,-633.9 358.38,-633.9 358.38,-597.9 497.38,-597.9 497.38,-633.9"/>
<text text-anchor="middle" x="427.88" y="-610.85" font-family="Times New Roman,serif" font-size="14.00">it2 = Sequence{1..d2}</text>
<text text-anchor="middle" x="343.75" y="-637.1" font-family="Times New Roman,serif" font-size="14.00">[150]</text>
</g>
<!-- 147&#45;&gt;150 -->
<g id="edge22" class="edge">
<title>147&#45;&gt;150</title>
<path fill="none" stroke="black" d="M420.65,-686.31C421.87,-674.66 423.5,-658.95 424.91,-645.42"/>
<polygon fill="black" stroke="black" points="428.36,-646.06 425.91,-635.76 421.4,-645.34 428.36,-646.06"/>
<text text-anchor="middle" x="464.68" y="-655.1" font-family="Times New Roman,serif" font-size="14.00">graphAnd#172</text>
</g>
<!-- 156 -->
<g id="node10" class="node">
<title>156</title>
<polygon fill="yellow" stroke="black" points="479.62,-545.4 402.12,-545.4 402.12,-509.4 479.62,-509.4 479.62,-545.4"/>
<text text-anchor="middle" x="440.88" y="-522.35" font-family="Times New Roman,serif" font-size="14.00">acc3 = true</text>
<text text-anchor="middle" x="387.5" y="-548.6" font-family="Times New Roman,serif" font-size="14.00">[156]</text>
</g>
<!-- 150&#45;&gt;156 -->
<g id="edge23" class="edge">
<title>150&#45;&gt;156</title>
<path fill="none" stroke="black" d="M430.44,-597.81C432.19,-586.16 434.56,-570.45 436.59,-556.92"/>
<polygon fill="black" stroke="black" points="440.02,-557.66 438.04,-547.25 433.1,-556.62 440.02,-557.66"/>
<text text-anchor="middle" x="476.04" y="-566.6" font-family="Times New Roman,serif" font-size="14.00">graphAnd#173</text>
</g>
<!-- 153 -->
<g id="node9" class="node">
<title>153</title>
<polygon fill="yellow" stroke="black" points="499.12,-456.9 436.62,-456.9 436.62,-420.9 499.12,-420.9 499.12,-456.9"/>
<text text-anchor="middle" x="467.88" y="-433.85" font-family="Times New Roman,serif" font-size="14.00">idx2 = 1</text>
<text text-anchor="middle" x="422" y="-460.1" font-family="Times New Roman,serif" font-size="14.00">[153]</text>
</g>
<!-- 173 -->
<g id="node20" class="node">
<title>173</title>
<polygon fill="aquamarine" stroke="black" points="520.88,-368.4 513.67,-361.2 520.88,-354 528.08,-361.2 520.88,-368.4"/>
<text text-anchor="middle" x="495.3" y="-371.6" font-family="Times New Roman,serif" font-size="14.00">&lt;173&gt;</text>
</g>
<!-- 153&#45;&gt;173 -->
<g id="edge21" class="edge">
<title>153&#45;&gt;173</title>
<path fill="none" stroke="black" d="M479.9,-420.72C489.54,-406.96 502.86,-387.93 511.67,-375.35"/>
<polygon fill="black" stroke="black" points="514.3,-377.7 517.16,-367.5 508.56,-373.68 514.3,-377.7"/>
<text text-anchor="middle" x="544.23" y="-389.6" font-family="Times New Roman,serif" font-size="14.00">graphAnd#169</text>
</g>
<!-- 156&#45;&gt;153 -->
<g id="edge14" class="edge">
<title>156&#45;&gt;153</title>
<path fill="none" stroke="black" d="M446.21,-509.31C449.88,-497.54 454.85,-481.63 459.1,-468.01"/>
<polygon fill="black" stroke="black" points="462.37,-469.28 462.01,-458.69 455.69,-467.2 462.37,-469.28"/>
<text text-anchor="middle" x="497.29" y="-478.1" font-family="Times New Roman,serif" font-size="14.00">graphAnd#150</text>
</g>
<!-- 159 -->
<g id="node11" class="node">
<title>159</title>
<polygon fill="yellow" stroke="black" points="458.25,-301.5 351.5,-301.5 351.5,-265.5 458.25,-265.5 458.25,-301.5"/>
<text text-anchor="middle" x="404.88" y="-278.45" font-family="Times New Roman,serif" font-size="14.00">idx2 &gt; d3 &#45; 1+ 1</text>
<text text-anchor="middle" x="336.88" y="-304.7" font-family="Times New Roman,serif" font-size="14.00">[159]</text>
</g>
<!-- 175 -->
<g id="node22" class="node">
<title>175</title>
<polygon fill="yellow" stroke="black" points="391,-213 288.75,-213 288.75,-177 391,-177 391,-213"/>
<text text-anchor="middle" x="339.88" y="-189.95" font-family="Times New Roman,serif" font-size="14.00">idx1 = idx1 + 1</text>
<text text-anchor="middle" x="274.12" y="-216.2" font-family="Times New Roman,serif" font-size="14.00">[175]</text>
</g>
<!-- 159&#45;&gt;175 -->
<g id="edge24" class="edge">
<title>159&#45;&gt;175</title>
<path fill="none" stroke="black" d="M392.03,-265.41C382.83,-253.17 370.27,-236.45 359.78,-222.49"/>
<polygon fill="black" stroke="black" points="362.63,-220.45 353.82,-214.56 357.03,-224.66 362.63,-220.45"/>
<text text-anchor="middle" x="418.7" y="-234.2" font-family="Times New Roman,serif" font-size="14.00">graphAnd#174</text>
</g>
<!-- 162 -->
<g id="node12" class="node">
<title>162</title>
<polygon fill="yellow" stroke="black" points="591.38,-301.5 476.38,-301.5 476.38,-265.5 591.38,-265.5 591.38,-301.5"/>
<text text-anchor="middle" x="533.88" y="-278.45" font-family="Times New Roman,serif" font-size="14.00">idx2 &lt;= d3 &#45; 1+ 1</text>
<text text-anchor="middle" x="461.75" y="-304.7" font-family="Times New Roman,serif" font-size="14.00">[162]</text>
</g>
<!-- 165 -->
<g id="node13" class="node">
<title>165</title>
<polygon fill="yellow" stroke="black" points="575.38,-213 436.38,-213 436.38,-177 575.38,-177 575.38,-213"/>
<text text-anchor="middle" x="505.88" y="-189.95" font-family="Times New Roman,serif" font-size="14.00">it3 = Sequence{1..d3}</text>
<text text-anchor="middle" x="421.75" y="-216.2" font-family="Times New Roman,serif" font-size="14.00">[165]</text>
</g>
<!-- 162&#45;&gt;165 -->
<g id="edge15" class="edge">
<title>162&#45;&gt;165</title>
<path fill="none" stroke="black" d="M528.34,-265.41C524.53,-253.64 519.38,-237.73 514.97,-224.11"/>
<polygon fill="black" stroke="black" points="518.37,-223.23 511.96,-214.79 511.71,-225.38 518.37,-223.23"/>
<text text-anchor="middle" x="562.88" y="-234.2" font-family="Times New Roman,serif" font-size="14.00">graphAnd#161</text>
</g>
<!-- 168 -->
<g id="node16" class="node">
<title>168</title>
<polygon fill="yellow" stroke="black" points="618,-124.5 239.75,-124.5 239.75,-88.5 618,-88.5 618,-124.5"/>
<text text-anchor="middle" x="428.88" y="-101.45" font-family="Times New Roman,serif" font-size="14.00">result.data[it][it2][it3] = self.data[it][it2][it3] &#45; arg.data[it][it2][it3]</text>
<text text-anchor="middle" x="225.12" y="-127.7" font-family="Times New Roman,serif" font-size="14.00">[168]</text>
</g>
<!-- 165&#45;&gt;168 -->
<g id="edge16" class="edge">
<title>165&#45;&gt;168</title>
<path fill="none" stroke="black" d="M490.66,-176.91C479.56,-164.43 464.31,-147.3 451.74,-133.18"/>
<polygon fill="black" stroke="black" points="454.59,-131.12 445.33,-125.98 449.36,-135.78 454.59,-131.12"/>
<text text-anchor="middle" x="514.77" y="-145.7" font-family="Times New Roman,serif" font-size="14.00">graphAnd#162</text>
</g>
<!-- 102 -->
<g id="node14" class="node">
<title>102</title>
<polygon fill="yellow" stroke="black" points="388.62,-1706.7 263.12,-1706.7 263.12,-1670.7 388.62,-1670.7 388.62,-1706.7"/>
<text text-anchor="middle" x="325.88" y="-1683.65" font-family="Times New Roman,serif" font-size="14.00">Result = &#39;Exception&#39;</text>
<text text-anchor="middle" x="248.5" y="-1709.9" font-family="Times New Roman,serif" font-size="14.00">[102]</text>
</g>
<!-- 102&#45;&gt;186 -->
<g id="edge10" class="edge">
<title>102&#45;&gt;186</title>
<path fill="none" stroke="black" d="M327.32,-1670.33C328.8,-1651.06 330.88,-1619.06 330.88,-1591.45 330.88,-1591.45 330.88,-1591.45 330.88,-1124.3 330.88,-1094.3 352.98,-1064.77 366.87,-1049.17"/>
<polygon fill="black" stroke="black" points="369.15,-1051.85 373.46,-1042.17 364.05,-1047.05 369.15,-1051.85"/>
<text text-anchor="middle" x="365" y="-1364.15" font-family="Times New Roman,serif" font-size="14.00">merge2#202</text>
</g>
<!-- 103 -->
<g id="node15" class="node">
<title>103</title>
<ellipse fill="black" stroke="black" cx="377.88" cy="-948.3" rx="7.2" ry="7.2"/>
<ellipse fill="none" stroke="black" cx="377.88" cy="-948.3" rx="11.2" ry="11.2"/>
<text text-anchor="middle" x="356.55" y="-962.7" font-family="Times New Roman,serif" font-size="14.00">[&#45;1]</text>
</g>
<!-- 171 -->
<g id="node18" class="node">
<title>171</title>
<polygon fill="yellow" stroke="black" points="589,-36 486.75,-36 486.75,0 589,0 589,-36"/>
<text text-anchor="middle" x="537.88" y="-12.95" font-family="Times New Roman,serif" font-size="14.00">idx2 = idx2 + 1</text>
<text text-anchor="middle" x="472.12" y="-39.2" font-family="Times New Roman,serif" font-size="14.00">[171]</text>
</g>
<!-- 168&#45;&gt;171 -->
<g id="edge17" class="edge">
<title>168&#45;&gt;171</title>
<path fill="none" stroke="black" d="M450.67,-88.2C466.86,-75.36 489.16,-57.66 507.15,-43.38"/>
<polygon fill="black" stroke="black" points="509.27,-46.17 514.93,-37.21 504.92,-40.68 509.27,-46.17"/>
<text text-anchor="middle" x="533.64" y="-57.2" font-family="Times New Roman,serif" font-size="14.00">graphAnd#163</text>
</g>
<!-- 105 -->
<g id="node17" class="node">
<title>105</title>
<polygon fill="yellow" stroke="black" points="422.5,-1925.2 29.25,-1925.2 29.25,-1851.2 422.5,-1851.2 422.5,-1925.2"/>
<text text-anchor="middle" x="225.88" y="-1907.9" font-family="Times New Roman,serif" font-size="14.00">self.data.getDimension() &lt;&gt; arg.data.getDimension() or</text>
<text text-anchor="middle" x="225.88" y="-1891.4" font-family="Times New Roman,serif" font-size="14.00">self.data.getDimensionSizes(1) &lt;&gt; arg.data.getDimensionSizes(1) or</text>
<text text-anchor="middle" x="225.88" y="-1874.9" font-family="Times New Roman,serif" font-size="14.00">self.data.getDimensionSizes(2) &lt;&gt; arg.data.getDimensionSizes(2) or</text>
<text text-anchor="middle" x="225.88" y="-1858.4" font-family="Times New Roman,serif" font-size="14.00">self.data.getDimensionSizes(3) &lt;&gt; arg.data.getDimensionSizes(3)</text>
<text text-anchor="middle" x="14.62" y="-1928.4" font-family="Times New Roman,serif" font-size="14.00">[105]</text>
</g>
<!-- 105&#45;&gt;102 -->
<g id="edge4" class="edge">
<title>105&#45;&gt;102</title>
<path fill="none" stroke="black" d="M244.22,-1850.98C263.79,-1812.32 294.35,-1751.96 312.01,-1717.08"/>
<polygon fill="black" stroke="black" points="314.97,-1718.99 316.36,-1708.48 308.73,-1715.82 314.97,-1718.99"/>
<text text-anchor="middle" x="301.57" y="-1819.9" font-family="Times New Roman,serif" font-size="14.00">graphAnd#194</text>
</g>
<!-- 171&#45;&gt;173 -->
<g id="edge19" class="edge">
<title>171&#45;&gt;173</title>
<path fill="none" stroke="black" d="M586.19,-36.36C614.94,-50.13 645.88,-72.59 645.88,-105.5 645.88,-284.5 645.88,-284.5 645.88,-284.5 645.88,-334.22 572.61,-352.18 538.26,-357.87"/>
<polygon fill="black" stroke="black" points="537.79,-354.4 528.4,-359.31 538.8,-361.33 537.79,-354.4"/>
<text text-anchor="middle" x="676.25" y="-189.95" font-family="Times New Roman,serif" font-size="14.00">iterate#166</text>
</g>
<!-- 108 -->
<g id="node19" class="node">
<title>108</title>
<polygon fill="yellow" stroke="black" points="833.5,-1925.2 440.25,-1925.2 440.25,-1851.2 833.5,-1851.2 833.5,-1925.2"/>
<text text-anchor="middle" x="636.88" y="-1907.9" font-family="Times New Roman,serif" font-size="14.00">self.data.getDimension() = arg.data.getDimension() and</text>
<text text-anchor="middle" x="636.88" y="-1891.4" font-family="Times New Roman,serif" font-size="14.00">self.data.getDimensionSizes(1) = arg.data.getDimensionSizes(1) and</text>
<text text-anchor="middle" x="636.88" y="-1874.9" font-family="Times New Roman,serif" font-size="14.00">self.data.getDimensionSizes(2) = arg.data.getDimensionSizes(2) and</text>
<text text-anchor="middle" x="636.88" y="-1858.4" font-family="Times New Roman,serif" font-size="14.00">self.data.getDimensionSizes(3) = arg.data.getDimensionSizes(3)</text>
<text text-anchor="middle" x="425.62" y="-1928.4" font-family="Times New Roman,serif" font-size="14.00">[108]</text>
</g>
<!-- 111 -->
<g id="node21" class="node">
<title>111</title>
<polygon fill="yellow" stroke="black" points="794.88,-1798.7 388.88,-1798.7 388.88,-1724.7 794.88,-1724.7 794.88,-1798.7"/>
<text text-anchor="middle" x="591.88" y="-1781.4" font-family="Times New Roman,serif" font-size="14.00">self.data.getDimension() = result.data.getDimension() and</text>
<text text-anchor="middle" x="591.88" y="-1764.9" font-family="Times New Roman,serif" font-size="14.00">self.data.getDimensionSizes(1) = result.data.getDimensionSizes(1) and</text>
<text text-anchor="middle" x="591.88" y="-1748.4" font-family="Times New Roman,serif" font-size="14.00">self.data.getDimensionSizes(2) = result.data.getDimensionSizes(2) and</text>
<text text-anchor="middle" x="591.88" y="-1731.9" font-family="Times New Roman,serif" font-size="14.00">self.data.getDimensionSizes(3) = result.data.getDimensionSizes(3)</text>
<text text-anchor="middle" x="374.25" y="-1801.9" font-family="Times New Roman,serif" font-size="14.00">[111]</text>
</g>
<!-- 108&#45;&gt;111 -->
<g id="edge5" class="edge">
<title>108&#45;&gt;111</title>
<path fill="none" stroke="black" d="M623.74,-1850.85C619.07,-1837.94 613.75,-1823.22 608.81,-1809.55"/>
<polygon fill="black" stroke="black" points="612.16,-1808.51 605.46,-1800.3 605.57,-1810.89 612.16,-1808.51"/>
<text text-anchor="middle" x="657.57" y="-1819.9" font-family="Times New Roman,serif" font-size="14.00">graphAnd#195</text>
</g>
<!-- 173&#45;&gt;159 -->
<g id="edge20" class="edge">
<title>173&#45;&gt;159</title>
<path fill="none" stroke="black" d="M514.78,-359.76C500.4,-358.46 463.79,-353.52 439.88,-336 431.13,-329.6 423.87,-320.31 418.27,-311.38"/>
<polygon fill="black" stroke="black" points="421.43,-309.86 413.41,-302.93 415.36,-313.35 421.43,-309.86"/>
<text text-anchor="middle" x="480.38" y="-322.7" font-family="Times New Roman,serif" font-size="14.00">graphAnd#168</text>
</g>
<!-- 173&#45;&gt;162 -->
<g id="edge18" class="edge">
<title>173&#45;&gt;162</title>
<path fill="none" stroke="black" d="M521.81,-354.76C523.3,-346.06 526.33,-328.43 528.98,-313.01"/>
<polygon fill="black" stroke="black" points="532.4,-313.77 530.64,-303.33 525.5,-312.59 532.4,-313.77"/>
<text text-anchor="middle" x="558.14" y="-322.7" font-family="Times New Roman,serif" font-size="14.00">iterate#165</text>
</g>
<!-- 114 -->
<g id="node24" class="node">
<title>114</title>
<polygon fill="yellow" stroke="black" points="674.5,-1652.7 461.25,-1652.7 461.25,-1616.7 674.5,-1616.7 674.5,-1652.7"/>
<text text-anchor="middle" x="567.88" y="-1629.65" font-family="Times New Roman,serif" font-size="14.00">d1 = arg.data.getDimensionSizes(1)</text>
<text text-anchor="middle" x="446.62" y="-1655.9" font-family="Times New Roman,serif" font-size="14.00">[114]</text>
</g>
<!-- 111&#45;&gt;114 -->
<g id="edge3" class="edge">
<title>111&#45;&gt;114</title>
<path fill="none" stroke="black" d="M584.87,-1724.21C581.19,-1705.03 576.74,-1681.87 573.32,-1664.06"/>
<polygon fill="black" stroke="black" points="576.8,-1663.6 571.47,-1654.44 569.92,-1664.92 576.8,-1663.6"/>
<text text-anchor="middle" x="621.81" y="-1683.65" font-family="Times New Roman,serif" font-size="14.00">graphAnd#193</text>
</g>
<!-- 175&#45;&gt;177 -->
<g id="edge26" class="edge">
<title>175&#45;&gt;177</title>
<path fill="none" stroke="black" d="M334.72,-213.39C330.05,-230.73 323.88,-258.22 323.88,-282.5 323.88,-705.4 323.88,-705.4 323.88,-705.4 323.88,-752.11 390.66,-771.52 422.88,-778.16"/>
<polygon fill="black" stroke="black" points="422,-781.56 432.47,-779.95 423.28,-774.68 422,-781.56"/>
<text text-anchor="middle" x="354.25" y="-478.1" font-family="Times New Roman,serif" font-size="14.00">iterate#177</text>
</g>
<!-- 177&#45;&gt;144 -->
<g id="edge27" class="edge">
<title>177&#45;&gt;144</title>
<path fill="none" stroke="black" d="M445.03,-779.72C455.59,-776.73 480.2,-768.93 497.88,-756.9 508.49,-749.67 518.66,-739.92 527.03,-730.84"/>
<polygon fill="black" stroke="black" points="529.44,-733.39 533.45,-723.59 524.2,-728.76 529.44,-733.39"/>
<text text-anchor="middle" x="558.02" y="-743.6" font-family="Times New Roman,serif" font-size="14.00">graphAnd#179</text>
</g>
<!-- 177&#45;&gt;147 -->
<g id="edge25" class="edge">
<title>177&#45;&gt;147</title>
<path fill="none" stroke="black" d="M438.5,-776.13C436.12,-767.56 431.07,-749.37 426.7,-733.59"/>
<polygon fill="black" stroke="black" points="430.12,-732.85 424.08,-724.15 423.38,-734.73 430.12,-732.85"/>
<text text-anchor="middle" x="463.46" y="-743.6" font-family="Times New Roman,serif" font-size="14.00">iterate#176</text>
</g>
<!-- 117 -->
<g id="node26" class="node">
<title>117</title>
<polygon fill="yellow" stroke="black" points="663.5,-1564.2 450.25,-1564.2 450.25,-1528.2 663.5,-1528.2 663.5,-1564.2"/>
<text text-anchor="middle" x="556.88" y="-1541.15" font-family="Times New Roman,serif" font-size="14.00">d2 = arg.data.getDimensionSizes(2)</text>
<text text-anchor="middle" x="435.62" y="-1567.4" font-family="Times New Roman,serif" font-size="14.00">[117]</text>
</g>
<!-- 114&#45;&gt;117 -->
<g id="edge32" class="edge">
<title>114&#45;&gt;117</title>
<path fill="none" stroke="black" d="M565.7,-1616.61C564.22,-1604.96 562.22,-1589.25 560.5,-1575.72"/>
<polygon fill="black" stroke="black" points="564.01,-1575.53 559.27,-1566.05 557.06,-1576.41 564.01,-1575.53"/>
<text text-anchor="middle" x="603.86" y="-1585.4" font-family="Times New Roman,serif" font-size="14.00">graphAnd#122</text>
</g>
<!-- 181 -->
<g id="node27" class="node">
<title>181</title>
<polygon fill="aquamarine" stroke="black" points="544.88,-1210.2 537.67,-1203 544.88,-1195.8 552.08,-1203 544.88,-1210.2"/>
<text text-anchor="middle" x="519.3" y="-1213.4" font-family="Times New Roman,serif" font-size="14.00">&lt;181&gt;</text>
</g>
<!-- 179&#45;&gt;181 -->
<g id="edge35" class="edge">
<title>179&#45;&gt;181</title>
<path fill="none" stroke="black" d="M609.82,-634.37C614.25,-639.67 618.68,-645.74 621.88,-651.9 632.8,-672.95 635.88,-679.68 635.88,-703.4 635.88,-1126.3 635.88,-1126.3 635.88,-1126.3 635.88,-1151.94 628.98,-1160.7 609.88,-1177.8 596.27,-1189.97 575.99,-1196.21 561.7,-1199.28"/>
<polygon fill="black" stroke="black" points="561.34,-1195.79 552.13,-1201.01 562.59,-1202.68 561.34,-1195.79"/>
<text text-anchor="middle" x="666.25" y="-899" font-family="Times New Roman,serif" font-size="14.00">iterate#188</text>
</g>
<!-- 120 -->
<g id="node30" class="node">
<title>120</title>
<polygon fill="yellow" stroke="black" points="657.5,-1475.7 444.25,-1475.7 444.25,-1439.7 657.5,-1439.7 657.5,-1475.7"/>
<text text-anchor="middle" x="550.88" y="-1452.65" font-family="Times New Roman,serif" font-size="14.00">d3 = arg.data.getDimensionSizes(3)</text>
<text text-anchor="middle" x="429.62" y="-1478.9" font-family="Times New Roman,serif" font-size="14.00">[120]</text>
</g>
<!-- 117&#45;&gt;120 -->
<g id="edge33" class="edge">
<title>117&#45;&gt;120</title>
<path fill="none" stroke="black" d="M555.69,-1528.11C554.88,-1516.46 553.79,-1500.75 552.85,-1487.22"/>
<polygon fill="black" stroke="black" points="556.37,-1487.29 552.18,-1477.56 549.38,-1487.78 556.37,-1487.29"/>
<text text-anchor="middle" x="594.91" y="-1496.9" font-family="Times New Roman,serif" font-size="14.00">graphAnd#123</text>
</g>
<!-- 181&#45;&gt;129 -->
<g id="edge36" class="edge">
<title>181&#45;&gt;129</title>
<path fill="none" stroke="black" d="M538.62,-1201.44C523.84,-1199.87 486.05,-1194.39 459.88,-1177.8 449.5,-1171.22 440.15,-1161.54 432.71,-1152.35"/>
<polygon fill="black" stroke="black" points="435.69,-1150.48 426.84,-1144.65 430.12,-1154.73 435.69,-1150.48"/>
<text text-anchor="middle" x="500.38" y="-1164.5" font-family="Times New Roman,serif" font-size="14.00">graphAnd#190</text>
</g>
<!-- 181&#45;&gt;132 -->
<g id="edge34" class="edge">
<title>181&#45;&gt;132</title>
<path fill="none" stroke="black" d="M544.88,-1195.28C544.88,-1186.2 544.88,-1169.45 544.88,-1154.73"/>
<polygon fill="black" stroke="black" points="548.38,-1155.06 544.88,-1145.06 541.38,-1155.06 548.38,-1155.06"/>
<text text-anchor="middle" x="575.25" y="-1164.5" font-family="Times New Roman,serif" font-size="14.00">iterate#187</text>
</g>
<!-- 182 -->
<g id="node28" class="node">
<title>182</title>
<ellipse fill="black" stroke="black" cx="430.88" cy="-2146.3" rx="7.2" ry="7.2"/>
<text text-anchor="middle" x="415.8" y="-2156.7" font-family="Times New Roman,serif" font-size="14.00">[0]</text>
</g>
<!-- 183 -->
<g id="node29" class="node">
<title>183</title>
<polygon fill="yellow" stroke="black" points="546.88,-2102.1 314.88,-2102.1 314.88,-2044.6 546.88,-2044.6 546.88,-2102.1"/>
<text text-anchor="middle" x="430.88" y="-2084.8" font-family="Times New Roman,serif" font-size="14.00">self.data.getDimensionSizes(1) &gt; 0 and</text>
<text text-anchor="middle" x="430.88" y="-2068.3" font-family="Times New Roman,serif" font-size="14.00">self.data.getDimensionSizes(2) &gt; 0 and</text>
<text text-anchor="middle" x="430.88" y="-2051.8" font-family="Times New Roman,serif" font-size="14.00">self.data.getDimensionSizes(3) &gt; 0</text>
<text text-anchor="middle" x="300.25" y="-2105.3" font-family="Times New Roman,serif" font-size="14.00">[183]</text>
</g>
<!-- 182&#45;&gt;183 -->
<g id="edge6" class="edge">
<title>182&#45;&gt;183</title>
<path fill="none" stroke="black" d="M430.88,-2138.75C430.88,-2132.83 430.88,-2123.59 430.88,-2113.94"/>
<polygon fill="black" stroke="black" points="434.38,-2114.11 430.88,-2104.11 427.38,-2114.11 434.38,-2114.11"/>
</g>
<!-- 185 -->
<g id="node31" class="node">
<title>185</title>
<polygon fill="aquamarine" stroke="black" points="430.88,-1992.1 423.68,-1984.9 430.88,-1977.7 438.07,-1984.9 430.88,-1992.1"/>
<text text-anchor="middle" x="405.3" y="-1995.3" font-family="Times New Roman,serif" font-size="14.00">&lt;185&gt;</text>
</g>
<!-- 183&#45;&gt;185 -->
<g id="edge13" class="edge">
<title>183&#45;&gt;185</title>
<path fill="none" stroke="black" d="M430.88,-2044.52C430.88,-2031.18 430.88,-2015.59 430.88,-2003.84"/>
<polygon fill="black" stroke="black" points="434.38,-2004.05 430.88,-1994.05 427.38,-2004.05 434.38,-2004.05"/>
<text text-anchor="middle" x="471.38" y="-2013.3" font-family="Times New Roman,serif" font-size="14.00">graphAnd#204</text>
</g>
<!-- 126 -->
<g id="node34" class="node">
<title>126</title>
<polygon fill="yellow" stroke="black" points="583.25,-1387.2 512.5,-1387.2 512.5,-1351.2 583.25,-1351.2 583.25,-1387.2"/>
<text text-anchor="middle" x="547.88" y="-1364.15" font-family="Times New Roman,serif" font-size="14.00">acc = true</text>
<text text-anchor="middle" x="497.88" y="-1390.4" font-family="Times New Roman,serif" font-size="14.00">[126]</text>
</g>
<!-- 120&#45;&gt;126 -->
<g id="edge1" class="edge">
<title>120&#45;&gt;126</title>
<path fill="none" stroke="black" d="M550.28,-1439.61C549.88,-1427.96 549.33,-1412.25 548.86,-1398.72"/>
<polygon fill="black" stroke="black" points="552.37,-1398.94 548.53,-1389.06 545.38,-1399.18 552.37,-1398.94"/>
<text text-anchor="middle" x="590.14" y="-1408.4" font-family="Times New Roman,serif" font-size="14.00">graphAnd#192</text>
</g>
<!-- 185&#45;&gt;105 -->
<g id="edge8" class="edge">
<title>185&#45;&gt;105</title>
<path fill="none" stroke="black" d="M426.21,-1981.74C411,-1974.72 361.18,-1951.7 315.03,-1930.39"/>
<polygon fill="black" stroke="black" points="316.56,-1927.24 306.02,-1926.22 313.63,-1933.59 316.56,-1927.24"/>
<text text-anchor="middle" x="404.4" y="-1946.4" font-family="Times New Roman,serif" font-size="14.00">split2#200</text>
</g>
<!-- 185&#45;&gt;108 -->
<g id="edge7" class="edge">
<title>185&#45;&gt;108</title>
<path fill="none" stroke="black" d="M435.56,-1981.74C450.85,-1974.72 500.91,-1951.7 547.28,-1930.39"/>
<polygon fill="black" stroke="black" points="548.72,-1933.58 556.35,-1926.22 545.8,-1927.22 548.72,-1933.58"/>
<text text-anchor="middle" x="543.92" y="-1946.4" font-family="Times New Roman,serif" font-size="14.00">split1#199</text>
</g>
<!-- 186&#45;&gt;103 -->
<g id="edge12" class="edge">
<title>186&#45;&gt;103</title>
<path fill="none" stroke="black" d="M377.88,-1029.01C377.88,-1016.72 377.88,-990.29 377.88,-971.23"/>
<polygon fill="black" stroke="black" points="381.38,-971.24 377.88,-961.24 374.38,-971.24 381.38,-971.24"/>
<text text-anchor="middle" x="427" y="-987.5" font-family="Times New Roman,serif" font-size="14.00">graphOr_end#203</text>
</g>
<!-- 123 -->
<g id="node33" class="node">
<title>123</title>
<polygon fill="yellow" stroke="black" points="577.12,-1298.7 514.62,-1298.7 514.62,-1262.7 577.12,-1262.7 577.12,-1298.7"/>
<text text-anchor="middle" x="545.88" y="-1275.65" font-family="Times New Roman,serif" font-size="14.00">idx0 = 1</text>
<text text-anchor="middle" x="500" y="-1301.9" font-family="Times New Roman,serif" font-size="14.00">[123]</text>
</g>
<!-- 123&#45;&gt;181 -->
<g id="edge37" class="edge">
<title>123&#45;&gt;181</title>
<path fill="none" stroke="black" d="M545.65,-1262.52C545.49,-1250.48 545.28,-1234.4 545.11,-1222.15"/>
<polygon fill="black" stroke="black" points="548.62,-1222.19 544.98,-1212.24 541.62,-1222.28 548.62,-1222.19"/>
<text text-anchor="middle" x="585.9" y="-1231.4" font-family="Times New Roman,serif" font-size="14.00">graphAnd#191</text>
</g>
<!-- 126&#45;&gt;123 -->
<g id="edge2" class="edge">
<title>126&#45;&gt;123</title>
<path fill="none" stroke="black" d="M547.48,-1351.11C547.21,-1339.46 546.85,-1323.75 546.53,-1310.22"/>
<polygon fill="black" stroke="black" points="550.04,-1310.48 546.31,-1300.56 543.04,-1310.64 550.04,-1310.48"/>
<text text-anchor="middle" x="587.55" y="-1319.9" font-family="Times New Roman,serif" font-size="14.00">graphAnd#128</text>
</g>
</g>
</svg>
