<?xml version="1.0" encoding="UTF-8" standalone="no"?>
<!DOCTYPE svg PUBLIC "-//W3C//DTD SVG 1.1//EN"
 "http://www.w3.org/Graphics/SVG/1.1/DTD/svg11.dtd">
<!-- Generated by graphviz version 12.2.1 (20241206.2353)
 -->
<!-- Title: CLG Pages: 1 -->
<svg width="682pt" height="1326pt"
 viewBox="0.00 0.00 682.38 1326.10" xmlns="http://www.w3.org/2000/svg" xmlns:xlink="http://www.w3.org/1999/xlink">
<g id="graph0" class="graph" transform="scale(1 1) rotate(0) translate(4 1322.1)">
<title>CLG</title>
<polygon fill="white" stroke="none" points="-4,4 -4,-1322.1 678.38,-1322.1 678.38,4 -4,4"/>
<!-- 64 -->
<g id="node1" class="node">
<title>64</title>
<polygon fill="aquamarine" stroke="black" points="265.5,-368.4 258.3,-361.2 265.5,-354 272.7,-361.2 265.5,-368.4"/>
<text text-anchor="middle" x="243.3" y="-371.6" font-family="Times New Roman,serif" font-size="14.00">&lt;64&gt;</text>
</g>
<!-- 50 -->
<g id="node22" class="node">
<title>50</title>
<polygon fill="yellow" stroke="black" points="238.38,-301.5 104.62,-301.5 104.62,-265.5 238.38,-265.5 238.38,-301.5"/>
<text text-anchor="middle" x="171.5" y="-278.45" font-family="Times New Roman,serif" font-size="14.00">Index &gt; length &#45; 1 &#45; 0</text>
<text text-anchor="middle" x="93.38" y="-304.7" font-family="Times New Roman,serif" font-size="14.00">[50]</text>
</g>
<!-- 64&#45;&gt;50 -->
<g id="edge2" class="edge">
<title>64&#45;&gt;50</title>
<path fill="none" stroke="black" d="M258.27,-360.62C241.36,-361.18 199.07,-359.97 178.25,-336 172.78,-329.71 170.38,-321.24 169.55,-313"/>
<polygon fill="black" stroke="black" points="173.06,-313.15 169.3,-303.25 166.06,-313.34 173.06,-313.15"/>
<text text-anchor="middle" x="215.38" y="-322.7" font-family="Times New Roman,serif" font-size="14.00">graphAnd#65</text>
</g>
<!-- 53 -->
<g id="node23" class="node">
<title>53</title>
<polygon fill="yellow" stroke="black" points="482.5,-301.5 340.5,-301.5 340.5,-265.5 482.5,-265.5 482.5,-301.5"/>
<text text-anchor="middle" x="411.5" y="-278.45" font-family="Times New Roman,serif" font-size="14.00">Index &lt;= length &#45; 1 &#45; 0</text>
<text text-anchor="middle" x="329.25" y="-304.7" font-family="Times New Roman,serif" font-size="14.00">[53]</text>
</g>
<!-- 64&#45;&gt;53 -->
<g id="edge27" class="edge">
<title>64&#45;&gt;53</title>
<path fill="none" stroke="black" d="M270.03,-357.85C284.72,-350.23 332.19,-325.62 368.13,-306.99"/>
<polygon fill="black" stroke="black" points="369.31,-310.32 376.58,-302.61 366.09,-304.1 369.31,-310.32"/>
<text text-anchor="middle" x="369.88" y="-322.7" font-family="Times New Roman,serif" font-size="14.00">iterate#59</text>
</g>
<!-- 66 -->
<g id="node2" class="node">
<title>66</title>
<polygon fill="yellow" stroke="black" points="170.5,-213 116.5,-213 116.5,-177 170.5,-177 170.5,-213"/>
<text text-anchor="middle" x="143.5" y="-189.95" font-family="Times New Roman,serif" font-size="14.00">check</text>
<text text-anchor="middle" x="105.25" y="-216.2" font-family="Times New Roman,serif" font-size="14.00">[66]</text>
</g>
<!-- 69 -->
<g id="node4" class="node">
<title>69</title>
<polygon fill="aquamarine" stroke="black" points="118.5,-113.7 111.3,-106.5 118.5,-99.3 125.7,-106.5 118.5,-113.7"/>
<text text-anchor="middle" x="96.3" y="-116.9" font-family="Times New Roman,serif" font-size="14.00">&lt;69&gt;</text>
</g>
<!-- 66&#45;&gt;69 -->
<g id="edge10" class="edge">
<title>66&#45;&gt;69</title>
<path fill="none" stroke="black" d="M138.56,-176.91C134.07,-161.37 127.49,-138.61 123.11,-123.44"/>
<polygon fill="black" stroke="black" points="126.59,-122.9 120.45,-114.26 119.87,-124.84 126.59,-122.9"/>
<text text-anchor="middle" x="163.99" y="-145.7" font-family="Times New Roman,serif" font-size="14.00">merge1#73</text>
</g>
<!-- 68 -->
<g id="node3" class="node">
<title>68</title>
<polygon fill="aquamarine" stroke="black" points="289.5,-1234.7 282.3,-1227.5 289.5,-1220.3 296.7,-1227.5 289.5,-1234.7"/>
<text text-anchor="middle" x="267.3" y="-1237.9" font-family="Times New Roman,serif" font-size="14.00">&lt;68&gt;</text>
</g>
<!-- 10 -->
<g id="node7" class="node">
<title>10</title>
<polygon fill="yellow" stroke="black" points="283.12,-1167.8 27.88,-1167.8 27.88,-1126.8 283.12,-1126.8 283.12,-1167.8"/>
<text text-anchor="middle" x="155.5" y="-1150.5" font-family="Times New Roman,serif" font-size="14.00">arg.dimension &lt;&gt; self.dimension or</text>
<text text-anchor="middle" x="155.5" y="-1134" font-family="Times New Roman,serif" font-size="14.00">arg.dimensionSizes &lt;&gt; self.dimensionSizes</text>
<text text-anchor="middle" x="16.62" y="-1171" font-family="Times New Roman,serif" font-size="14.00">[10]</text>
</g>
<!-- 68&#45;&gt;10 -->
<g id="edge9" class="edge">
<title>68&#45;&gt;10</title>
<path fill="none" stroke="black" d="M285.34,-1224.07C272.41,-1216.53 231.83,-1192.84 199.43,-1173.94"/>
<polygon fill="black" stroke="black" points="201.39,-1171.03 190.99,-1169.01 197.86,-1177.08 201.39,-1171.03"/>
<text text-anchor="middle" x="271.28" y="-1189" font-family="Times New Roman,serif" font-size="14.00">split2#72</text>
</g>
<!-- 13 -->
<g id="node9" class="node">
<title>13</title>
<polygon fill="yellow" stroke="black" points="548,-1167.8 301,-1167.8 301,-1126.8 548,-1126.8 548,-1167.8"/>
<text text-anchor="middle" x="424.5" y="-1150.5" font-family="Times New Roman,serif" font-size="14.00">arg.dimension = self.dimension and</text>
<text text-anchor="middle" x="424.5" y="-1134" font-family="Times New Roman,serif" font-size="14.00">arg.dimensionSizes = self.dimensionSizes</text>
<text text-anchor="middle" x="289.75" y="-1171" font-family="Times New Roman,serif" font-size="14.00">[13]</text>
</g>
<!-- 68&#45;&gt;13 -->
<g id="edge8" class="edge">
<title>68&#45;&gt;13</title>
<path fill="none" stroke="black" d="M293.69,-1224.07C306.72,-1216.53 347.6,-1192.84 380.24,-1173.94"/>
<polygon fill="black" stroke="black" points="381.85,-1177.05 388.75,-1169.01 378.34,-1170.99 381.85,-1177.05"/>
<text text-anchor="middle" x="382.12" y="-1189" font-family="Times New Roman,serif" font-size="14.00">split1#71</text>
</g>
<!-- 8 -->
<g id="node6" class="node">
<title>8</title>
<ellipse fill="black" stroke="black" cx="118.5" cy="-18" rx="7.2" ry="7.2"/>
<ellipse fill="none" stroke="black" cx="118.5" cy="-18" rx="11.2" ry="11.2"/>
<text text-anchor="middle" x="97.17" y="-32.4" font-family="Times New Roman,serif" font-size="14.00">[&#45;1]</text>
</g>
<!-- 69&#45;&gt;8 -->
<g id="edge12" class="edge">
<title>69&#45;&gt;8</title>
<path fill="none" stroke="black" d="M118.5,-98.71C118.5,-86.42 118.5,-59.99 118.5,-40.93"/>
<polygon fill="black" stroke="black" points="122,-40.94 118.5,-30.94 115,-40.94 122,-40.94"/>
<text text-anchor="middle" x="164.25" y="-57.2" font-family="Times New Roman,serif" font-size="14.00">graphOr_end#75</text>
</g>
<!-- 7 -->
<g id="node5" class="node">
<title>7</title>
<polygon fill="yellow" stroke="black" points="159.25,-1020.3 15.75,-1020.3 15.75,-984.3 159.25,-984.3 159.25,-1020.3"/>
<text text-anchor="middle" x="87.5" y="-997.25" font-family="Times New Roman,serif" font-size="14.00">exception=&quot;Exception&quot;</text>
<text text-anchor="middle" x="7.88" y="-1023.5" font-family="Times New Roman,serif" font-size="14.00">[7]</text>
</g>
<!-- 7&#45;&gt;69 -->
<g id="edge11" class="edge">
<title>7&#45;&gt;69</title>
<path fill="none" stroke="black" d="M84.32,-983.98C81.07,-964.76 76.5,-932.8 76.5,-905.05 76.5,-905.05 76.5,-905.05 76.5,-194 76.5,-164.97 95.88,-135.47 108.31,-119.53"/>
<polygon fill="black" stroke="black" points="110.85,-121.95 114.52,-112 105.45,-117.49 110.85,-121.95"/>
<text text-anchor="middle" x="107.25" y="-566.6" font-family="Times New Roman,serif" font-size="14.00">merge2#74</text>
</g>
<!-- 10&#45;&gt;7 -->
<g id="edge5" class="edge">
<title>10&#45;&gt;7</title>
<path fill="none" stroke="black" d="M146.04,-1126.42C134.25,-1101.62 114.03,-1059.09 100.71,-1031.08"/>
<polygon fill="black" stroke="black" points="103.91,-1029.67 96.46,-1022.14 97.59,-1032.67 103.91,-1029.67"/>
<text text-anchor="middle" x="174.13" y="-1095.5" font-family="Times New Roman,serif" font-size="14.00">graphAnd#68</text>
</g>
<!-- 12 -->
<g id="node8" class="node">
<title>12</title>
<ellipse fill="black" stroke="black" cx="289.5" cy="-1294.4" rx="7.2" ry="7.2"/>
<text text-anchor="middle" x="274.43" y="-1304.8" font-family="Times New Roman,serif" font-size="14.00">[0]</text>
</g>
<!-- 12&#45;&gt;68 -->
<g id="edge7" class="edge">
<title>12&#45;&gt;68</title>
<path fill="none" stroke="black" d="M289.5,-1286.94C289.5,-1277.61 289.5,-1260.01 289.5,-1246.55"/>
<polygon fill="black" stroke="black" points="293,-1246.84 289.5,-1236.84 286,-1246.84 293,-1246.84"/>
<text text-anchor="middle" x="337.12" y="-1255.9" font-family="Times New Roman,serif" font-size="14.00">graphOr_start#70</text>
</g>
<!-- 16 -->
<g id="node10" class="node">
<title>16</title>
<polygon fill="yellow" stroke="black" points="485.38,-1074.3 363.62,-1074.3 363.62,-1038.3 485.38,-1038.3 485.38,-1074.3"/>
<text text-anchor="middle" x="424.5" y="-1051.25" font-family="Times New Roman,serif" font-size="14.00">length = IterateExp</text>
<text text-anchor="middle" x="352.38" y="-1077.5" font-family="Times New Roman,serif" font-size="14.00">[16]</text>
</g>
<!-- 13&#45;&gt;16 -->
<g id="edge6" class="edge">
<title>13&#45;&gt;16</title>
<path fill="none" stroke="black" d="M424.5,-1126.55C424.5,-1114.63 424.5,-1099.24 424.5,-1085.99"/>
<polygon fill="black" stroke="black" points="428,-1086.11 424.5,-1076.11 421,-1086.11 428,-1086.11"/>
<text text-anchor="middle" x="461.62" y="-1095.5" font-family="Times New Roman,serif" font-size="14.00">graphAnd#69</text>
</g>
<!-- 22 -->
<g id="node12" class="node">
<title>22</title>
<polygon fill="yellow" stroke="black" points="452.75,-966.3 396.25,-966.3 396.25,-930.3 452.75,-930.3 452.75,-966.3"/>
<text text-anchor="middle" x="424.5" y="-943.25" font-family="Times New Roman,serif" font-size="14.00">acc = 1</text>
<text text-anchor="middle" x="385" y="-969.5" font-family="Times New Roman,serif" font-size="14.00">[22]</text>
</g>
<!-- 16&#45;&gt;22 -->
<g id="edge22" class="edge">
<title>16&#45;&gt;22</title>
<path fill="none" stroke="black" d="M424.5,-1038.27C424.5,-1022.06 424.5,-997.36 424.5,-978.09"/>
<polygon fill="black" stroke="black" points="428,-978.15 424.5,-968.15 421,-978.15 428,-978.15"/>
<text text-anchor="middle" x="461.62" y="-997.25" font-family="Times New Roman,serif" font-size="14.00">graphAnd#39</text>
</g>
<!-- 19 -->
<g id="node11" class="node">
<title>19</title>
<polygon fill="yellow" stroke="black" points="459.12,-877.8 389.88,-877.8 389.88,-841.8 459.12,-841.8 459.12,-877.8"/>
<text text-anchor="middle" x="424.5" y="-854.75" font-family="Times New Roman,serif" font-size="14.00">Index = 0</text>
<text text-anchor="middle" x="378.62" y="-881" font-family="Times New Roman,serif" font-size="14.00">[19]</text>
</g>
<!-- 39 -->
<g id="node18" class="node">
<title>39</title>
<polygon fill="aquamarine" stroke="black" points="424.5,-789.3 417.3,-782.1 424.5,-774.9 431.7,-782.1 424.5,-789.3"/>
<text text-anchor="middle" x="402.3" y="-792.5" font-family="Times New Roman,serif" font-size="14.00">&lt;39&gt;</text>
</g>
<!-- 19&#45;&gt;39 -->
<g id="edge21" class="edge">
<title>19&#45;&gt;39</title>
<path fill="none" stroke="black" d="M424.5,-841.62C424.5,-829.58 424.5,-813.5 424.5,-801.25"/>
<polygon fill="black" stroke="black" points="428,-801.34 424.5,-791.34 421,-801.34 428,-801.34"/>
<text text-anchor="middle" x="461.62" y="-810.5" font-family="Times New Roman,serif" font-size="14.00">graphAnd#38</text>
</g>
<!-- 22&#45;&gt;19 -->
<g id="edge13" class="edge">
<title>22&#45;&gt;19</title>
<path fill="none" stroke="black" d="M424.5,-930.21C424.5,-918.56 424.5,-902.85 424.5,-889.32"/>
<polygon fill="black" stroke="black" points="428,-889.66 424.5,-879.66 421,-889.66 428,-889.66"/>
<text text-anchor="middle" x="461.62" y="-899" font-family="Times New Roman,serif" font-size="14.00">graphAnd#16</text>
</g>
<!-- 25 -->
<g id="node13" class="node">
<title>25</title>
<polygon fill="yellow" stroke="black" points="329.5,-722.4 181.5,-722.4 181.5,-686.4 329.5,-686.4 329.5,-722.4"/>
<text text-anchor="middle" x="255.5" y="-699.35" font-family="Times New Roman,serif" font-size="14.00">Index &gt; dimensionSizes</text>
<text text-anchor="middle" x="170.25" y="-725.6" font-family="Times New Roman,serif" font-size="14.00">[25]</text>
</g>
<!-- 41 -->
<g id="node19" class="node">
<title>41</title>
<polygon fill="yellow" stroke="black" points="283.5,-633.9 229.5,-633.9 229.5,-597.9 283.5,-597.9 283.5,-633.9"/>
<text text-anchor="middle" x="256.5" y="-610.85" font-family="Times New Roman,serif" font-size="14.00">acc</text>
<text text-anchor="middle" x="218.25" y="-637.1" font-family="Times New Roman,serif" font-size="14.00">[41]</text>
</g>
<!-- 25&#45;&gt;41 -->
<g id="edge19" class="edge">
<title>25&#45;&gt;41</title>
<path fill="none" stroke="black" d="M255.7,-686.31C255.83,-674.66 256.01,-658.95 256.17,-645.42"/>
<polygon fill="black" stroke="black" points="259.67,-645.8 256.28,-635.76 252.67,-645.72 259.67,-645.8"/>
<text text-anchor="middle" x="293.21" y="-655.1" font-family="Times New Roman,serif" font-size="14.00">graphAnd#36</text>
</g>
<!-- 28 -->
<g id="node14" class="node">
<title>28</title>
<polygon fill="yellow" stroke="black" points="503.62,-722.4 347.38,-722.4 347.38,-686.4 503.62,-686.4 503.62,-722.4"/>
<text text-anchor="middle" x="425.5" y="-699.35" font-family="Times New Roman,serif" font-size="14.00">Index &lt;= dimensionSizes</text>
<text text-anchor="middle" x="336.12" y="-725.6" font-family="Times New Roman,serif" font-size="14.00">[28]</text>
</g>
<!-- 31 -->
<g id="node15" class="node">
<title>31</title>
<polygon fill="yellow" stroke="black" points="491,-633.9 370,-633.9 370,-597.9 491,-597.9 491,-633.9"/>
<text text-anchor="middle" x="430.5" y="-610.85" font-family="Times New Roman,serif" font-size="14.00">i = dimensionSizes</text>
<text text-anchor="middle" x="358.75" y="-637.1" font-family="Times New Roman,serif" font-size="14.00">[31]</text>
</g>
<!-- 28&#45;&gt;31 -->
<g id="edge14" class="edge">
<title>28&#45;&gt;31</title>
<path fill="none" stroke="black" d="M426.49,-686.31C427.16,-674.66 428.07,-658.95 428.85,-645.42"/>
<polygon fill="black" stroke="black" points="432.33,-645.95 429.41,-635.76 425.34,-645.54 432.33,-645.95"/>
<text text-anchor="middle" x="465.57" y="-655.1" font-family="Times New Roman,serif" font-size="14.00">graphAnd#27</text>
</g>
<!-- 34 -->
<g id="node16" class="node">
<title>34</title>
<polygon fill="yellow" stroke="black" points="468.5,-545.4 404.5,-545.4 404.5,-509.4 468.5,-509.4 468.5,-545.4"/>
<text text-anchor="middle" x="436.5" y="-522.35" font-family="Times New Roman,serif" font-size="14.00">result * i</text>
<text text-anchor="middle" x="393.25" y="-548.6" font-family="Times New Roman,serif" font-size="14.00">[34]</text>
</g>
<!-- 31&#45;&gt;34 -->
<g id="edge15" class="edge">
<title>31&#45;&gt;34</title>
<path fill="none" stroke="black" d="M431.69,-597.81C432.49,-586.16 433.58,-570.45 434.52,-556.92"/>
<polygon fill="black" stroke="black" points="437.99,-557.48 435.19,-547.26 431.01,-556.99 437.99,-557.48"/>
<text text-anchor="middle" x="471.16" y="-566.6" font-family="Times New Roman,serif" font-size="14.00">graphAnd#28</text>
</g>
<!-- 37 -->
<g id="node17" class="node">
<title>37</title>
<polygon fill="yellow" stroke="black" points="542.38,-456.9 426.62,-456.9 426.62,-420.9 542.38,-420.9 542.38,-456.9"/>
<text text-anchor="middle" x="484.5" y="-433.85" font-family="Times New Roman,serif" font-size="14.00">Index = Index + 1</text>
<text text-anchor="middle" x="415.38" y="-460.1" font-family="Times New Roman,serif" font-size="14.00">[37]</text>
</g>
<!-- 34&#45;&gt;37 -->
<g id="edge16" class="edge">
<title>34&#45;&gt;37</title>
<path fill="none" stroke="black" d="M435.71,-509.21C435.94,-498.72 437.56,-485.35 443.25,-474.9 445.15,-471.41 447.55,-468.12 450.23,-465.06"/>
<polygon fill="black" stroke="black" points="452.6,-467.63 457.26,-458.12 447.69,-462.65 452.6,-467.63"/>
<text text-anchor="middle" x="480.38" y="-478.1" font-family="Times New Roman,serif" font-size="14.00">graphAnd#29</text>
</g>
<!-- 37&#45;&gt;39 -->
<g id="edge18" class="edge">
<title>37&#45;&gt;39</title>
<path fill="none" stroke="black" d="M503.84,-457.05C508.89,-462.35 513.91,-468.49 517.5,-474.9 529.09,-495.59 531.5,-502.68 531.5,-526.4 531.5,-705.4 531.5,-705.4 531.5,-705.4 531.5,-749.01 471.54,-769.75 441.39,-777.42"/>
<polygon fill="black" stroke="black" points="440.68,-773.99 431.73,-779.66 442.26,-780.81 440.68,-773.99"/>
<text text-anchor="middle" x="558.5" y="-610.85" font-family="Times New Roman,serif" font-size="14.00">iterate#32</text>
</g>
<!-- 39&#45;&gt;25 -->
<g id="edge20" class="edge">
<title>39&#45;&gt;25</title>
<path fill="none" stroke="black" d="M419.04,-779.85C406.09,-776.78 372.62,-768.3 346.25,-756.9 327.8,-748.92 308.29,-738.18 292.11,-728.58"/>
<polygon fill="black" stroke="black" points="294.17,-725.73 283.8,-723.56 290.55,-731.73 294.17,-725.73"/>
<text text-anchor="middle" x="383.38" y="-743.6" font-family="Times New Roman,serif" font-size="14.00">graphAnd#37</text>
</g>
<!-- 39&#45;&gt;28 -->
<g id="edge17" class="edge">
<title>39&#45;&gt;28</title>
<path fill="none" stroke="black" d="M424.59,-774.38C424.71,-765.3 424.93,-748.55 425.12,-733.83"/>
<polygon fill="black" stroke="black" points="428.62,-734.21 425.25,-724.16 421.62,-734.12 428.62,-734.21"/>
<text text-anchor="middle" x="452.03" y="-743.6" font-family="Times New Roman,serif" font-size="14.00">iterate#31</text>
</g>
<!-- 47 -->
<g id="node21" class="node">
<title>47</title>
<polygon fill="yellow" stroke="black" points="298.62,-545.4 214.38,-545.4 214.38,-509.4 298.62,-509.4 298.62,-545.4"/>
<text text-anchor="middle" x="256.5" y="-522.35" font-family="Times New Roman,serif" font-size="14.00">check = true</text>
<text text-anchor="middle" x="203.12" y="-548.6" font-family="Times New Roman,serif" font-size="14.00">[47]</text>
</g>
<!-- 41&#45;&gt;47 -->
<g id="edge4" class="edge">
<title>41&#45;&gt;47</title>
<path fill="none" stroke="black" d="M256.5,-597.81C256.5,-586.16 256.5,-570.45 256.5,-556.92"/>
<polygon fill="black" stroke="black" points="260,-557.26 256.5,-547.26 253,-557.26 260,-557.26"/>
<text text-anchor="middle" x="293.62" y="-566.6" font-family="Times New Roman,serif" font-size="14.00">graphAnd#67</text>
</g>
<!-- 44 -->
<g id="node20" class="node">
<title>44</title>
<polygon fill="yellow" stroke="black" points="294.12,-456.9 224.88,-456.9 224.88,-420.9 294.12,-420.9 294.12,-456.9"/>
<text text-anchor="middle" x="259.5" y="-433.85" font-family="Times New Roman,serif" font-size="14.00">Index = 0</text>
<text text-anchor="middle" x="213.62" y="-460.1" font-family="Times New Roman,serif" font-size="14.00">[44]</text>
</g>
<!-- 44&#45;&gt;64 -->
<g id="edge3" class="edge">
<title>44&#45;&gt;64</title>
<path fill="none" stroke="black" d="M260.86,-420.72C261.83,-408.55 263.12,-392.26 264.09,-379.96"/>
<polygon fill="black" stroke="black" points="267.58,-380.31 264.88,-370.07 260.6,-379.76 267.58,-380.31"/>
<text text-anchor="middle" x="300.68" y="-389.6" font-family="Times New Roman,serif" font-size="14.00">graphAnd#66</text>
</g>
<!-- 47&#45;&gt;44 -->
<g id="edge23" class="edge">
<title>47&#45;&gt;44</title>
<path fill="none" stroke="black" d="M257.09,-509.31C257.5,-497.66 258.04,-481.95 258.51,-468.42"/>
<polygon fill="black" stroke="black" points="262,-468.88 258.85,-458.76 255,-468.64 262,-468.88"/>
<text text-anchor="middle" x="295.39" y="-478.1" font-family="Times New Roman,serif" font-size="14.00">graphAnd#44</text>
</g>
<!-- 50&#45;&gt;66 -->
<g id="edge1" class="edge">
<title>50&#45;&gt;66</title>
<path fill="none" stroke="black" d="M165.97,-265.41C162.16,-253.64 157.01,-237.73 152.6,-224.11"/>
<polygon fill="black" stroke="black" points="155.99,-223.23 149.58,-214.79 149.33,-225.38 155.99,-223.23"/>
<text text-anchor="middle" x="197.13" y="-234.2" font-family="Times New Roman,serif" font-size="14.00">graphAnd#64</text>
</g>
<!-- 56 -->
<g id="node24" class="node">
<title>56</title>
<polygon fill="yellow" stroke="black" points="553.88,-213 363.12,-213 363.12,-177 553.88,-177 553.88,-213"/>
<text text-anchor="middle" x="458.5" y="-189.95" font-family="Times New Roman,serif" font-size="14.00">elem = Sequence{0..length &#45; 1}</text>
<text text-anchor="middle" x="351.88" y="-216.2" font-family="Times New Roman,serif" font-size="14.00">[56]</text>
</g>
<!-- 53&#45;&gt;56 -->
<g id="edge24" class="edge">
<title>53&#45;&gt;56</title>
<path fill="none" stroke="black" d="M420.79,-265.41C427.31,-253.4 436.17,-237.09 443.67,-223.3"/>
<polygon fill="black" stroke="black" points="446.65,-225.14 448.35,-214.68 440.5,-221.8 446.65,-225.14"/>
<text text-anchor="middle" x="476.33" y="-234.2" font-family="Times New Roman,serif" font-size="14.00">graphAnd#55</text>
</g>
<!-- 59 -->
<g id="node25" class="node">
<title>59</title>
<polygon fill="yellow" stroke="black" points="674.38,-124.5 294.62,-124.5 294.62,-88.5 674.38,-88.5 674.38,-124.5"/>
<text text-anchor="middle" x="484.5" y="-101.45" font-family="Times New Roman,serif" font-size="14.00">result.elements[elem] = self.elements[elem] + arg.elements[elem]</text>
<text text-anchor="middle" x="283.38" y="-127.7" font-family="Times New Roman,serif" font-size="14.00">[59]</text>
</g>
<!-- 56&#45;&gt;59 -->
<g id="edge25" class="edge">
<title>56&#45;&gt;59</title>
<path fill="none" stroke="black" d="M463.64,-176.91C467.17,-165.14 471.96,-149.23 476.05,-135.61"/>
<polygon fill="black" stroke="black" points="479.32,-136.88 478.85,-126.3 472.62,-134.87 479.32,-136.88"/>
<text text-anchor="middle" x="510.95" y="-145.7" font-family="Times New Roman,serif" font-size="14.00">graphAnd#56</text>
</g>
<!-- 62 -->
<g id="node26" class="node">
<title>62</title>
<polygon fill="yellow" stroke="black" points="386.38,-36 270.62,-36 270.62,0 386.38,0 386.38,-36"/>
<text text-anchor="middle" x="328.5" y="-12.95" font-family="Times New Roman,serif" font-size="14.00">Index = Index + 1</text>
<text text-anchor="middle" x="259.38" y="-39.2" font-family="Times New Roman,serif" font-size="14.00">[62]</text>
</g>
<!-- 59&#45;&gt;62 -->
<g id="edge26" class="edge">
<title>59&#45;&gt;62</title>
<path fill="none" stroke="black" d="M453.31,-88.2C429.36,-74.93 396.09,-56.48 369.92,-41.96"/>
<polygon fill="black" stroke="black" points="371.67,-38.94 361.23,-37.15 368.28,-45.06 371.67,-38.94"/>
<text text-anchor="middle" x="457.6" y="-57.2" font-family="Times New Roman,serif" font-size="14.00">graphAnd#57</text>
</g>
<!-- 62&#45;&gt;64 -->
<g id="edge28" class="edge">
<title>62&#45;&gt;64</title>
<path fill="none" stroke="black" d="M306.12,-36.32C288.36,-52.19 266.5,-77.42 266.5,-105.5 266.5,-284.5 266.5,-284.5 266.5,-284.5 266.5,-304.22 266.16,-326.83 265.87,-342.17"/>
<polygon fill="black" stroke="black" points="262.38,-341.94 265.68,-352 269.37,-342.07 262.38,-341.94"/>
<text text-anchor="middle" x="293.5" y="-189.95" font-family="Times New Roman,serif" font-size="14.00">iterate#60</text>
</g>
</g>
</svg>
