<?xml version="1.0" encoding="UTF-8" standalone="no"?>
<!DOCTYPE svg PUBLIC "-//W3C//DTD SVG 1.1//EN"
 "http://www.w3.org/Graphics/SVG/1.1/DTD/svg11.dtd">
<!-- Generated by graphviz version 12.2.1 (20241206.2353)
 -->
<!-- Title: CLG Pages: 1 -->
<svg width="797pt" height="1077pt"
 viewBox="0.00 0.00 796.62 1076.70" xmlns="http://www.w3.org/2000/svg" xmlns:xlink="http://www.w3.org/1999/xlink">
<g id="graph0" class="graph" transform="scale(1 1) rotate(0) translate(4 1072.7)">
<title>CLG</title>
<polygon fill="white" stroke="none" points="-4,4 -4,-1072.7 792.62,-1072.7 792.62,4 -4,4"/>
<!-- 64 -->
<g id="node1" class="node">
<title>64</title>
<polygon fill="yellow" stroke="black" points="392.5,-840.4 22.5,-840.4 22.5,-799.4 392.5,-799.4 392.5,-840.4"/>
<text text-anchor="middle" x="207.5" y="-823.1" font-family="Times New Roman,serif" font-size="14.00">arg.data.getDimension() = self.data.getDimension() and</text>
<text text-anchor="middle" x="207.5" y="-806.6" font-family="Times New Roman,serif" font-size="14.00">arg.data.getDimensionSizes(1) = self.data.getDimensionSizes(1)</text>
<text text-anchor="middle" x="11.25" y="-843.6" font-family="Times New Roman,serif" font-size="14.00">[64]</text>
</g>
<!-- 67 -->
<g id="node4" class="node">
<title>67</title>
<polygon fill="yellow" stroke="black" points="527.88,-746.9 145.12,-746.9 145.12,-705.9 527.88,-705.9 527.88,-746.9"/>
<text text-anchor="middle" x="336.5" y="-729.6" font-family="Times New Roman,serif" font-size="14.00">self.data.getDimension() = result.data.getDimension() and</text>
<text text-anchor="middle" x="336.5" y="-713.1" font-family="Times New Roman,serif" font-size="14.00">self.data.getDimensionSizes(1) = result.data.getDimensionSizes(1)</text>
<text text-anchor="middle" x="133.88" y="-750.1" font-family="Times New Roman,serif" font-size="14.00">[67]</text>
</g>
<!-- 64&#45;&gt;67 -->
<g id="edge19" class="edge">
<title>64&#45;&gt;67</title>
<path fill="none" stroke="black" d="M235.49,-799.05C254.17,-785.8 278.94,-768.23 299.28,-753.8"/>
<polygon fill="black" stroke="black" points="301.2,-756.73 307.33,-748.09 297.15,-751.02 301.2,-756.73"/>
<text text-anchor="middle" x="320.68" y="-768.1" font-family="Times New Roman,serif" font-size="14.00">graphAnd#95</text>
</g>
<!-- 97 -->
<g id="node2" class="node">
<title>97</title>
<polygon fill="aquamarine" stroke="black" points="402.5,-907.3 395.3,-900.1 402.5,-892.9 409.7,-900.1 402.5,-907.3"/>
<text text-anchor="middle" x="380.3" y="-910.5" font-family="Times New Roman,serif" font-size="14.00">&lt;97&gt;</text>
</g>
<!-- 97&#45;&gt;64 -->
<g id="edge2" class="edge">
<title>97&#45;&gt;64</title>
<path fill="none" stroke="black" d="M397.68,-897.17C379.87,-890.02 316.27,-864.52 267.47,-844.95"/>
<polygon fill="black" stroke="black" points="268.98,-841.78 258.4,-841.31 266.37,-848.28 268.98,-841.78"/>
<text text-anchor="middle" x="364.55" y="-861.6" font-family="Times New Roman,serif" font-size="14.00">split1#99</text>
</g>
<!-- 61 -->
<g id="node16" class="node">
<title>61</title>
<polygon fill="yellow" stroke="black" points="788.62,-840.4 410.38,-840.4 410.38,-799.4 788.62,-799.4 788.62,-840.4"/>
<text text-anchor="middle" x="599.5" y="-823.1" font-family="Times New Roman,serif" font-size="14.00">arg.data.getDimension() &lt;&gt; self.data.getDimension() or</text>
<text text-anchor="middle" x="599.5" y="-806.6" font-family="Times New Roman,serif" font-size="14.00">arg.data.getDimensionSizes(1) &lt;&gt; self.data.getDimensionSizes(1)</text>
<text text-anchor="middle" x="399.12" y="-843.6" font-family="Times New Roman,serif" font-size="14.00">[61]</text>
</g>
<!-- 97&#45;&gt;61 -->
<g id="edge3" class="edge">
<title>97&#45;&gt;61</title>
<path fill="none" stroke="black" d="M407.37,-897.17C425.37,-890.02 489.62,-864.52 538.92,-844.95"/>
<polygon fill="black" stroke="black" points="540.09,-848.25 548.1,-841.31 537.51,-841.74 540.09,-848.25"/>
<text text-anchor="middle" x="529.5" y="-861.6" font-family="Times New Roman,serif" font-size="14.00">split2#100</text>
</g>
<!-- 98 -->
<g id="node3" class="node">
<title>98</title>
<polygon fill="aquamarine" stroke="black" points="512.5,-202.2 505.3,-195 512.5,-187.8 519.7,-195 512.5,-202.2"/>
<text text-anchor="middle" x="490.3" y="-205.4" font-family="Times New Roman,serif" font-size="14.00">&lt;98&gt;</text>
</g>
<!-- 59 -->
<g id="node14" class="node">
<title>59</title>
<ellipse fill="black" stroke="black" cx="512.5" cy="-106.5" rx="7.2" ry="7.2"/>
<ellipse fill="none" stroke="black" cx="512.5" cy="-106.5" rx="11.2" ry="11.2"/>
<text text-anchor="middle" x="491.18" y="-120.9" font-family="Times New Roman,serif" font-size="14.00">[&#45;1]</text>
</g>
<!-- 98&#45;&gt;59 -->
<g id="edge6" class="edge">
<title>98&#45;&gt;59</title>
<path fill="none" stroke="black" d="M512.5,-187.21C512.5,-174.92 512.5,-148.49 512.5,-129.43"/>
<polygon fill="black" stroke="black" points="516,-129.44 512.5,-119.44 509,-129.44 516,-129.44"/>
<text text-anchor="middle" x="561.62" y="-145.7" font-family="Times New Roman,serif" font-size="14.00">graphOr_end#103</text>
</g>
<!-- 70 -->
<g id="node5" class="node">
<title>70</title>
<polygon fill="yellow" stroke="black" points="480.62,-633.9 252.38,-633.9 252.38,-597.9 480.62,-597.9 480.62,-633.9"/>
<text text-anchor="middle" x="366.5" y="-610.85" font-family="Times New Roman,serif" font-size="14.00">dim1 = arg.data.getDimensionSizes(1)</text>
<text text-anchor="middle" x="241.12" y="-637.1" font-family="Times New Roman,serif" font-size="14.00">[70]</text>
</g>
<!-- 67&#45;&gt;70 -->
<g id="edge17" class="edge">
<title>67&#45;&gt;70</title>
<path fill="none" stroke="black" d="M342,-705.5C346.68,-688.58 353.45,-664.08 358.69,-645.13"/>
<polygon fill="black" stroke="black" points="362.03,-646.2 361.32,-635.63 355.28,-644.34 362.03,-646.2"/>
<text text-anchor="middle" x="393.92" y="-664.85" font-family="Times New Roman,serif" font-size="14.00">graphAnd#93</text>
</g>
<!-- 76 -->
<g id="node7" class="node">
<title>76</title>
<polygon fill="yellow" stroke="black" points="409.88,-545.4 339.12,-545.4 339.12,-509.4 409.88,-509.4 409.88,-545.4"/>
<text text-anchor="middle" x="374.5" y="-522.35" font-family="Times New Roman,serif" font-size="14.00">acc = true</text>
<text text-anchor="middle" x="327.88" y="-548.6" font-family="Times New Roman,serif" font-size="14.00">[76]</text>
</g>
<!-- 70&#45;&gt;76 -->
<g id="edge16" class="edge">
<title>70&#45;&gt;76</title>
<path fill="none" stroke="black" d="M368.08,-597.81C369.16,-586.16 370.61,-570.45 371.86,-556.92"/>
<polygon fill="black" stroke="black" points="375.32,-557.54 372.76,-547.26 368.35,-556.89 375.32,-557.54"/>
<text text-anchor="middle" x="408.34" y="-566.6" font-family="Times New Roman,serif" font-size="14.00">graphAnd#92</text>
</g>
<!-- 73 -->
<g id="node6" class="node">
<title>73</title>
<polygon fill="yellow" stroke="black" points="407.75,-456.9 345.25,-456.9 345.25,-420.9 407.75,-420.9 407.75,-456.9"/>
<text text-anchor="middle" x="376.5" y="-433.85" font-family="Times New Roman,serif" font-size="14.00">idx0 = 1</text>
<text text-anchor="middle" x="334" y="-460.1" font-family="Times New Roman,serif" font-size="14.00">[73]</text>
</g>
<!-- 93 -->
<g id="node15" class="node">
<title>93</title>
<polygon fill="aquamarine" stroke="black" points="376.5,-368.4 369.3,-361.2 376.5,-354 383.7,-361.2 376.5,-368.4"/>
<text text-anchor="middle" x="354.3" y="-371.6" font-family="Times New Roman,serif" font-size="14.00">&lt;93&gt;</text>
</g>
<!-- 73&#45;&gt;93 -->
<g id="edge15" class="edge">
<title>73&#45;&gt;93</title>
<path fill="none" stroke="black" d="M376.5,-420.72C376.5,-408.68 376.5,-392.6 376.5,-380.35"/>
<polygon fill="black" stroke="black" points="380,-380.44 376.5,-370.44 373,-380.44 380,-380.44"/>
<text text-anchor="middle" x="413.62" y="-389.6" font-family="Times New Roman,serif" font-size="14.00">graphAnd#91</text>
</g>
<!-- 76&#45;&gt;73 -->
<g id="edge8" class="edge">
<title>76&#45;&gt;73</title>
<path fill="none" stroke="black" d="M374.9,-509.31C375.16,-497.66 375.53,-481.95 375.84,-468.42"/>
<polygon fill="black" stroke="black" points="379.33,-468.84 376.06,-458.76 372.33,-468.68 379.33,-468.84"/>
<text text-anchor="middle" x="412.8" y="-478.1" font-family="Times New Roman,serif" font-size="14.00">graphAnd#72</text>
</g>
<!-- 79 -->
<g id="node8" class="node">
<title>79</title>
<polygon fill="yellow" stroke="black" points="526.38,-301.5 404.62,-301.5 404.62,-265.5 526.38,-265.5 526.38,-301.5"/>
<text text-anchor="middle" x="465.5" y="-278.45" font-family="Times New Roman,serif" font-size="14.00">idx0 &gt; dim1 &#45; 1+ 1</text>
<text text-anchor="middle" x="393.38" y="-304.7" font-family="Times New Roman,serif" font-size="14.00">[79]</text>
</g>
<!-- 79&#45;&gt;98 -->
<g id="edge4" class="edge">
<title>79&#45;&gt;98</title>
<path fill="none" stroke="black" d="M464.75,-265.34C465,-254.85 466.62,-241.49 472.25,-231 478.29,-219.75 489.51,-210.46 498.57,-204.29"/>
<polygon fill="black" stroke="black" points="500.13,-207.44 506.77,-199.18 496.43,-201.49 500.13,-207.44"/>
<text text-anchor="middle" x="506.38" y="-234.2" font-family="Times New Roman,serif" font-size="14.00">merge1#101</text>
</g>
<!-- 82 -->
<g id="node9" class="node">
<title>82</title>
<polygon fill="yellow" stroke="black" points="339.5,-301.5 209.5,-301.5 209.5,-265.5 339.5,-265.5 339.5,-301.5"/>
<text text-anchor="middle" x="274.5" y="-278.45" font-family="Times New Roman,serif" font-size="14.00">idx0 &lt;= dim1 &#45; 1+ 1</text>
<text text-anchor="middle" x="198.25" y="-304.7" font-family="Times New Roman,serif" font-size="14.00">[82]</text>
</g>
<!-- 85 -->
<g id="node10" class="node">
<title>85</title>
<polygon fill="yellow" stroke="black" points="331.12,-213 183.88,-213 183.88,-177 331.12,-177 331.12,-213"/>
<text text-anchor="middle" x="257.5" y="-189.95" font-family="Times New Roman,serif" font-size="14.00">it = Sequence{1..dim1}</text>
<text text-anchor="middle" x="172.62" y="-216.2" font-family="Times New Roman,serif" font-size="14.00">[85]</text>
</g>
<!-- 82&#45;&gt;85 -->
<g id="edge9" class="edge">
<title>82&#45;&gt;85</title>
<path fill="none" stroke="black" d="M271.14,-265.41C268.85,-253.76 265.76,-238.05 263.1,-224.52"/>
<polygon fill="black" stroke="black" points="266.56,-223.97 261.2,-214.84 259.7,-225.32 266.56,-223.97"/>
<text text-anchor="middle" x="304.65" y="-234.2" font-family="Times New Roman,serif" font-size="14.00">graphAnd#83</text>
</g>
<!-- 88 -->
<g id="node11" class="node">
<title>88</title>
<polygon fill="yellow" stroke="black" points="348.88,-124.5 110.12,-124.5 110.12,-88.5 348.88,-88.5 348.88,-124.5"/>
<text text-anchor="middle" x="229.5" y="-101.45" font-family="Times New Roman,serif" font-size="14.00">result.data[it] = self.data[it] &#45; arg.data[it]</text>
<text text-anchor="middle" x="98.88" y="-127.7" font-family="Times New Roman,serif" font-size="14.00">[88]</text>
</g>
<!-- 85&#45;&gt;88 -->
<g id="edge10" class="edge">
<title>85&#45;&gt;88</title>
<path fill="none" stroke="black" d="M251.97,-176.91C248.16,-165.14 243.01,-149.23 238.6,-135.61"/>
<polygon fill="black" stroke="black" points="241.99,-134.73 235.58,-126.29 235.33,-136.88 241.99,-134.73"/>
<text text-anchor="middle" x="283.13" y="-145.7" font-family="Times New Roman,serif" font-size="14.00">graphAnd#84</text>
</g>
<!-- 91 -->
<g id="node13" class="node">
<title>91</title>
<polygon fill="yellow" stroke="black" points="353.62,-36 251.38,-36 251.38,0 353.62,0 353.62,-36"/>
<text text-anchor="middle" x="302.5" y="-12.95" font-family="Times New Roman,serif" font-size="14.00">idx0 = idx0 + 1</text>
<text text-anchor="middle" x="240.12" y="-39.2" font-family="Times New Roman,serif" font-size="14.00">[91]</text>
</g>
<!-- 88&#45;&gt;91 -->
<g id="edge11" class="edge">
<title>88&#45;&gt;91</title>
<path fill="none" stroke="black" d="M243.92,-88.41C254.35,-76.05 268.64,-59.13 280.49,-45.08"/>
<polygon fill="black" stroke="black" points="283.11,-47.41 286.88,-37.51 277.76,-42.89 283.11,-47.41"/>
<text text-anchor="middle" x="309.66" y="-57.2" font-family="Times New Roman,serif" font-size="14.00">graphAnd#85</text>
</g>
<!-- 58 -->
<g id="node12" class="node">
<title>58</title>
<polygon fill="yellow" stroke="black" points="628.25,-687.9 502.75,-687.9 502.75,-651.9 628.25,-651.9 628.25,-687.9"/>
<text text-anchor="middle" x="565.5" y="-664.85" font-family="Times New Roman,serif" font-size="14.00">Result = &#39;Exception&#39;</text>
<text text-anchor="middle" x="491.5" y="-691.1" font-family="Times New Roman,serif" font-size="14.00">[58]</text>
</g>
<!-- 58&#45;&gt;98 -->
<g id="edge5" class="edge">
<title>58&#45;&gt;98</title>
<path fill="none" stroke="black" d="M562.32,-651.58C559.07,-632.36 554.5,-600.4 554.5,-572.65 554.5,-572.65 554.5,-572.65 554.5,-282.5 554.5,-258.78 551.24,-252.15 540.5,-231 536.15,-222.44 529.49,-214 523.76,-207.56"/>
<polygon fill="black" stroke="black" points="526.43,-205.29 517.02,-200.43 521.35,-210.1 526.43,-205.29"/>
<text text-anchor="middle" x="588.62" y="-433.85" font-family="Times New Roman,serif" font-size="14.00">merge2#102</text>
</g>
<!-- 91&#45;&gt;93 -->
<g id="edge13" class="edge">
<title>91&#45;&gt;93</title>
<path fill="none" stroke="black" d="M330.48,-36.27C351.43,-51.58 376.5,-76.05 376.5,-105.5 376.5,-284.5 376.5,-284.5 376.5,-284.5 376.5,-304.22 376.5,-326.83 376.5,-342.17"/>
<polygon fill="black" stroke="black" points="373,-342 376.5,-352 380,-342 373,-342"/>
<text text-anchor="middle" x="403.5" y="-189.95" font-family="Times New Roman,serif" font-size="14.00">iterate#88</text>
</g>
<!-- 93&#45;&gt;79 -->
<g id="edge14" class="edge">
<title>93&#45;&gt;79</title>
<path fill="none" stroke="black" d="M379.88,-357.32C389.1,-349.48 415.42,-327.09 436.47,-309.19"/>
<polygon fill="black" stroke="black" points="438.6,-311.97 443.95,-302.83 434.06,-306.64 438.6,-311.97"/>
<text text-anchor="middle" x="460.79" y="-322.7" font-family="Times New Roman,serif" font-size="14.00">graphAnd#90</text>
</g>
<!-- 93&#45;&gt;82 -->
<g id="edge12" class="edge">
<title>93&#45;&gt;82</title>
<path fill="none" stroke="black" d="M370.62,-359.39C358.03,-357.41 328.03,-351.3 308.5,-336 300.26,-329.54 293.35,-320.51 287.96,-311.8"/>
<polygon fill="black" stroke="black" points="291.08,-310.2 283.1,-303.23 284.99,-313.66 291.08,-310.2"/>
<text text-anchor="middle" x="335.5" y="-322.7" font-family="Times New Roman,serif" font-size="14.00">iterate#87</text>
</g>
<!-- 61&#45;&gt;58 -->
<g id="edge18" class="edge">
<title>61&#45;&gt;58</title>
<path fill="none" stroke="black" d="M594.91,-798.94C589.02,-773.28 578.75,-728.56 572.04,-699.35"/>
<polygon fill="black" stroke="black" points="575.47,-698.68 569.82,-689.72 568.65,-700.25 575.47,-698.68"/>
<text text-anchor="middle" x="627.38" y="-768.1" font-family="Times New Roman,serif" font-size="14.00">graphAnd#94</text>
</g>
<!-- 94 -->
<g id="node17" class="node">
<title>94</title>
<ellipse fill="black" stroke="black" cx="402.5" cy="-1045" rx="7.2" ry="7.2"/>
<text text-anchor="middle" x="387.43" y="-1055.4" font-family="Times New Roman,serif" font-size="14.00">[0]</text>
</g>
<!-- 95 -->
<g id="node18" class="node">
<title>95</title>
<polygon fill="yellow" stroke="black" points="518.5,-1000.8 286.5,-1000.8 286.5,-959.8 518.5,-959.8 518.5,-1000.8"/>
<text text-anchor="middle" x="402.5" y="-983.5" font-family="Times New Roman,serif" font-size="14.00">self.data.getDimensionSizes(1) &gt; 0 and</text>
<text text-anchor="middle" x="402.5" y="-967" font-family="Times New Roman,serif" font-size="14.00">self.data.getDimensionSizes(1) &lt; 10</text>
<text text-anchor="middle" x="275.25" y="-1004" font-family="Times New Roman,serif" font-size="14.00">[95]</text>
</g>
<!-- 94&#45;&gt;95 -->
<g id="edge1" class="edge">
<title>94&#45;&gt;95</title>
<path fill="none" stroke="black" d="M402.5,-1037.76C402.5,-1031.73 402.5,-1022.11 402.5,-1012.51"/>
<polygon fill="black" stroke="black" points="406,-1012.57 402.5,-1002.57 399,-1012.57 406,-1012.57"/>
</g>
<!-- 95&#45;&gt;97 -->
<g id="edge7" class="edge">
<title>95&#45;&gt;97</title>
<path fill="none" stroke="black" d="M402.5,-959.57C402.5,-947.07 402.5,-931.05 402.5,-918.94"/>
<polygon fill="black" stroke="black" points="406,-919.2 402.5,-909.2 399,-919.2 406,-919.2"/>
<text text-anchor="middle" x="443" y="-928.5" font-family="Times New Roman,serif" font-size="14.00">graphAnd#104</text>
</g>
</g>
</svg>
