<?xml version="1.0" encoding="UTF-8" standalone="no"?>
<!DOCTYPE svg PUBLIC "-//W3C//DTD SVG 1.1//EN"
 "http://www.w3.org/Graphics/SVG/1.1/DTD/svg11.dtd">
<!-- Generated by graphviz version 12.2.1 (20241206.2353)
 -->
<!-- Title: CLG Pages: 1 -->
<svg width="250pt" height="348pt"
 viewBox="0.00 0.00 249.75 348.30" xmlns="http://www.w3.org/2000/svg" xmlns:xlink="http://www.w3.org/1999/xlink">
<g id="graph0" class="graph" transform="scale(1 1) rotate(0) translate(4 344.3)">
<title>CLG</title>
<polygon fill="white" stroke="none" points="-4,4 -4,-344.3 245.75,-344.3 245.75,4 -4,4"/>
<!-- 3 -->
<g id="node1" class="node">
<title>3</title>
<ellipse fill="black" stroke="black" cx="128.75" cy="-316.6" rx="7.2" ry="7.2"/>
<text text-anchor="middle" x="113.67" y="-327" font-family="Times New Roman,serif" font-size="14.00">[0]</text>
</g>
<!-- 4 -->
<g id="node2" class="node">
<title>4</title>
<polygon fill="yellow" stroke="black" points="213.25,-272.4 44.25,-272.4 44.25,-236.4 213.25,-236.4 213.25,-272.4"/>
<text text-anchor="middle" x="128.75" y="-249.35" font-family="Times New Roman,serif" font-size="14.00">self.dimension = dimension</text>
<text text-anchor="middle" x="36.38" y="-275.6" font-family="Times New Roman,serif" font-size="14.00">[4]</text>
</g>
<!-- 3&#45;&gt;4 -->
<g id="edge1" class="edge">
<title>3&#45;&gt;4</title>
<path fill="none" stroke="black" d="M128.75,-309.16C128.75,-303.1 128.75,-293.59 128.75,-284.24"/>
<polygon fill="black" stroke="black" points="132.25,-284.28 128.75,-274.28 125.25,-284.28 132.25,-284.28"/>
</g>
<!-- 7 -->
<g id="node3" class="node">
<title>7</title>
<polygon fill="yellow" stroke="black" points="241.75,-183.9 15.75,-183.9 15.75,-147.9 241.75,-147.9 241.75,-183.9"/>
<text text-anchor="middle" x="128.75" y="-160.85" font-family="Times New Roman,serif" font-size="14.00">self.dimensionSizes = dimensionSizes</text>
<text text-anchor="middle" x="7.88" y="-187.1" font-family="Times New Roman,serif" font-size="14.00">[7]</text>
</g>
<!-- 4&#45;&gt;7 -->
<g id="edge2" class="edge">
<title>4&#45;&gt;7</title>
<path fill="none" stroke="black" d="M128.75,-236.31C128.75,-224.66 128.75,-208.95 128.75,-195.42"/>
<polygon fill="black" stroke="black" points="132.25,-195.76 128.75,-185.76 125.25,-195.76 132.25,-195.76"/>
<text text-anchor="middle" x="162.5" y="-205.1" font-family="Times New Roman,serif" font-size="14.00">graphAnd#6</text>
</g>
<!-- 10 -->
<g id="node4" class="node">
<title>10</title>
<polygon fill="yellow" stroke="black" points="210.25,-95.4 47.25,-95.4 47.25,-59.4 210.25,-59.4 210.25,-95.4"/>
<text text-anchor="middle" x="128.75" y="-72.35" font-family="Times New Roman,serif" font-size="14.00">self.elements = inputArray</text>
<text text-anchor="middle" x="36" y="-98.6" font-family="Times New Roman,serif" font-size="14.00">[10]</text>
</g>
<!-- 7&#45;&gt;10 -->
<g id="edge4" class="edge">
<title>7&#45;&gt;10</title>
<path fill="none" stroke="black" d="M128.75,-147.81C128.75,-136.16 128.75,-120.45 128.75,-106.92"/>
<polygon fill="black" stroke="black" points="132.25,-107.26 128.75,-97.26 125.25,-107.26 132.25,-107.26"/>
<text text-anchor="middle" x="162.5" y="-116.6" font-family="Times New Roman,serif" font-size="14.00">graphAnd#9</text>
</g>
<!-- 11 -->
<g id="node5" class="node">
<title>11</title>
<ellipse fill="black" stroke="black" cx="128.75" cy="-11.2" rx="7.2" ry="7.2"/>
<ellipse fill="none" stroke="black" cx="128.75" cy="-11.2" rx="11.2" ry="11.2"/>
<text text-anchor="middle" x="107.42" y="-25.6" font-family="Times New Roman,serif" font-size="14.00">[&#45;1]</text>
</g>
<!-- 10&#45;&gt;11 -->
<g id="edge3" class="edge">
<title>10&#45;&gt;11</title>
<path fill="none" stroke="black" d="M128.75,-59.2C128.75,-51.5 128.75,-42.34 128.75,-34.15"/>
<polygon fill="black" stroke="black" points="132.25,-34.32 128.75,-24.32 125.25,-34.32 132.25,-34.32"/>
</g>
</g>
</svg>
