<?xml version="1.0" encoding="UTF-8" standalone="no"?>
<!DOCTYPE svg PUBLIC "-//W3C//DTD SVG 1.1//EN"
 "http://www.w3.org/Graphics/SVG/1.1/DTD/svg11.dtd">
<!-- Generated by graphviz version 12.2.1 (20241206.2353)
 -->
<!-- Title: CLG Pages: 1 -->
<svg width="804pt" height="1410pt"
 viewBox="0.00 0.00 804.12 1409.60" xmlns="http://www.w3.org/2000/svg" xmlns:xlink="http://www.w3.org/1999/xlink">
<g id="graph0" class="graph" transform="scale(1 1) rotate(0) translate(4 1405.6)">
<title>CLG</title>
<polygon fill="white" stroke="none" points="-4,4 -4,-1405.6 800.12,-1405.6 800.12,4 -4,4"/>
<!-- 64 -->
<g id="node1" class="node">
<title>64</title>
<polygon fill="yellow" stroke="black" points="377,-301.5 243.25,-301.5 243.25,-265.5 377,-265.5 377,-301.5"/>
<text text-anchor="middle" x="310.12" y="-278.45" font-family="Times New Roman,serif" font-size="14.00">Index &gt; length &#45; 1 &#45; 0</text>
<text text-anchor="middle" x="232" y="-304.7" font-family="Times New Roman,serif" font-size="14.00">[64]</text>
</g>
<!-- 80 -->
<g id="node9" class="node">
<title>80</title>
<polygon fill="yellow" stroke="black" points="314.12,-213 260.12,-213 260.12,-177 314.12,-177 314.12,-213"/>
<text text-anchor="middle" x="287.12" y="-189.95" font-family="Times New Roman,serif" font-size="14.00">check</text>
<text text-anchor="middle" x="248.88" y="-216.2" font-family="Times New Roman,serif" font-size="14.00">[80]</text>
</g>
<!-- 64&#45;&gt;80 -->
<g id="edge6" class="edge">
<title>64&#45;&gt;80</title>
<path fill="none" stroke="black" d="M305.58,-265.41C302.45,-253.64 298.22,-237.73 294.6,-224.11"/>
<polygon fill="black" stroke="black" points="298.08,-223.58 292.13,-214.81 291.31,-225.38 298.08,-223.58"/>
<text text-anchor="middle" x="337.81" y="-234.2" font-family="Times New Roman,serif" font-size="14.00">graphAnd#81</text>
</g>
<!-- 67 -->
<g id="node2" class="node">
<title>67</title>
<polygon fill="yellow" stroke="black" points="537.12,-301.5 395.12,-301.5 395.12,-265.5 537.12,-265.5 537.12,-301.5"/>
<text text-anchor="middle" x="466.12" y="-278.45" font-family="Times New Roman,serif" font-size="14.00">Index &lt;= length &#45; 1 &#45; 0</text>
<text text-anchor="middle" x="383.88" y="-304.7" font-family="Times New Roman,serif" font-size="14.00">[67]</text>
</g>
<!-- 70 -->
<g id="node3" class="node">
<title>70</title>
<polygon fill="yellow" stroke="black" points="558.5,-213 367.75,-213 367.75,-177 558.5,-177 558.5,-213"/>
<text text-anchor="middle" x="463.12" y="-189.95" font-family="Times New Roman,serif" font-size="14.00">elem = Sequence{0..length &#45; 1}</text>
<text text-anchor="middle" x="356.5" y="-216.2" font-family="Times New Roman,serif" font-size="14.00">[70]</text>
</g>
<!-- 67&#45;&gt;70 -->
<g id="edge1" class="edge">
<title>67&#45;&gt;70</title>
<path fill="none" stroke="black" d="M465.53,-265.41C465.13,-253.76 464.58,-238.05 464.11,-224.52"/>
<polygon fill="black" stroke="black" points="467.62,-224.74 463.78,-214.86 460.63,-224.98 467.62,-224.74"/>
<text text-anchor="middle" x="502.02" y="-234.2" font-family="Times New Roman,serif" font-size="14.00">graphAnd#72</text>
</g>
<!-- 73 -->
<g id="node4" class="node">
<title>73</title>
<polygon fill="yellow" stroke="black" points="647,-124.5 267.25,-124.5 267.25,-88.5 647,-88.5 647,-124.5"/>
<text text-anchor="middle" x="457.12" y="-101.45" font-family="Times New Roman,serif" font-size="14.00">result.elements[elem] = self.elements[elem] + arg.elements[elem]</text>
<text text-anchor="middle" x="256" y="-127.7" font-family="Times New Roman,serif" font-size="14.00">[73]</text>
</g>
<!-- 70&#45;&gt;73 -->
<g id="edge2" class="edge">
<title>70&#45;&gt;73</title>
<path fill="none" stroke="black" d="M461.94,-176.91C461.13,-165.26 460.04,-149.55 459.1,-136.02"/>
<polygon fill="black" stroke="black" points="462.62,-136.09 458.43,-126.36 455.63,-136.58 462.62,-136.09"/>
<text text-anchor="middle" x="497.79" y="-145.7" font-family="Times New Roman,serif" font-size="14.00">graphAnd#73</text>
</g>
<!-- 76 -->
<g id="node5" class="node">
<title>76</title>
<polygon fill="yellow" stroke="black" points="656,-36 540.25,-36 540.25,0 656,0 656,-36"/>
<text text-anchor="middle" x="598.12" y="-12.95" font-family="Times New Roman,serif" font-size="14.00">Index = Index + 1</text>
<text text-anchor="middle" x="529" y="-39.2" font-family="Times New Roman,serif" font-size="14.00">[76]</text>
</g>
<!-- 73&#45;&gt;76 -->
<g id="edge3" class="edge">
<title>73&#45;&gt;76</title>
<path fill="none" stroke="black" d="M485.32,-88.2C506.84,-75 536.7,-56.68 560.29,-42.21"/>
<polygon fill="black" stroke="black" points="562,-45.27 568.69,-37.06 558.34,-39.3 562,-45.27"/>
<text text-anchor="middle" x="577.38" y="-57.2" font-family="Times New Roman,serif" font-size="14.00">graphAnd#74</text>
</g>
<!-- 78 -->
<g id="node7" class="node">
<title>78</title>
<polygon fill="aquamarine" stroke="black" points="466.12,-368.4 458.93,-361.2 466.12,-354 473.32,-361.2 466.12,-368.4"/>
<text text-anchor="middle" x="443.93" y="-371.6" font-family="Times New Roman,serif" font-size="14.00">&lt;78&gt;</text>
</g>
<!-- 76&#45;&gt;78 -->
<g id="edge5" class="edge">
<title>76&#45;&gt;78</title>
<path fill="none" stroke="black" d="M627.67,-36.31C649.39,-51.48 675.12,-75.74 675.12,-105.5 675.12,-284.5 675.12,-284.5 675.12,-284.5 675.12,-325.15 533.57,-350.16 483.45,-357.75"/>
<polygon fill="black" stroke="black" points="483.04,-354.27 473.65,-359.17 484.05,-361.19 483.04,-354.27"/>
<text text-anchor="middle" x="702.12" y="-189.95" font-family="Times New Roman,serif" font-size="14.00">iterate#77</text>
</g>
<!-- 13 -->
<g id="node6" class="node">
<title>13</title>
<polygon fill="yellow" stroke="black" points="286.88,-931.8 143.38,-931.8 143.38,-895.8 286.88,-895.8 286.88,-931.8"/>
<text text-anchor="middle" x="215.12" y="-908.75" font-family="Times New Roman,serif" font-size="14.00">exception=&quot;Exception&quot;</text>
<text text-anchor="middle" x="132.12" y="-935" font-family="Times New Roman,serif" font-size="14.00">[13]</text>
</g>
<!-- 83 -->
<g id="node13" class="node">
<title>83</title>
<polygon fill="aquamarine" stroke="black" points="233.12,-113.7 225.93,-106.5 233.12,-99.3 240.32,-106.5 233.12,-113.7"/>
<text text-anchor="middle" x="210.93" y="-116.9" font-family="Times New Roman,serif" font-size="14.00">&lt;83&gt;</text>
</g>
<!-- 13&#45;&gt;83 -->
<g id="edge21" class="edge">
<title>13&#45;&gt;83</title>
<path fill="none" stroke="black" d="M215.12,-895.41C215.12,-876.14 215.12,-844.12 215.12,-816.55 215.12,-816.55 215.12,-816.55 215.12,-194 215.12,-168.82 222.53,-140.37 227.84,-123.19"/>
<polygon fill="black" stroke="black" points="231.08,-124.53 230.86,-113.93 224.43,-122.35 231.08,-124.53"/>
<text text-anchor="middle" x="245.88" y="-522.35" font-family="Times New Roman,serif" font-size="14.00">merge2#91</text>
</g>
<!-- 78&#45;&gt;64 -->
<g id="edge8" class="edge">
<title>78&#45;&gt;64</title>
<path fill="none" stroke="black" d="M460.61,-359.07C447.55,-356.26 413.83,-348.3 387.88,-336 371.83,-328.4 355.26,-317.85 341.56,-308.29"/>
<polygon fill="black" stroke="black" points="343.98,-305.71 333.81,-302.75 339.91,-311.41 343.98,-305.71"/>
<text text-anchor="middle" x="425" y="-322.7" font-family="Times New Roman,serif" font-size="14.00">graphAnd#82</text>
</g>
<!-- 78&#45;&gt;67 -->
<g id="edge4" class="edge">
<title>78&#45;&gt;67</title>
<path fill="none" stroke="black" d="M466.12,-353.48C466.12,-344.4 466.12,-327.65 466.12,-312.93"/>
<polygon fill="black" stroke="black" points="469.63,-313.26 466.13,-303.26 462.63,-313.26 469.63,-313.26"/>
<text text-anchor="middle" x="493.12" y="-322.7" font-family="Times New Roman,serif" font-size="14.00">iterate#76</text>
</g>
<!-- 14 -->
<g id="node8" class="node">
<title>14</title>
<ellipse fill="black" stroke="black" cx="233.12" cy="-18" rx="7.2" ry="7.2"/>
<ellipse fill="none" stroke="black" cx="233.12" cy="-18" rx="11.2" ry="11.2"/>
<text text-anchor="middle" x="211.8" y="-32.4" font-family="Times New Roman,serif" font-size="14.00">[&#45;1]</text>
</g>
<!-- 80&#45;&gt;83 -->
<g id="edge20" class="edge">
<title>80&#45;&gt;83</title>
<path fill="none" stroke="black" d="M276.46,-176.91C266.27,-160.59 251.11,-136.31 241.68,-121.21"/>
<polygon fill="black" stroke="black" points="244.84,-119.66 236.58,-113.03 238.9,-123.37 244.84,-119.66"/>
<text text-anchor="middle" x="295.71" y="-145.7" font-family="Times New Roman,serif" font-size="14.00">merge1#90</text>
</g>
<!-- 16 -->
<g id="node10" class="node">
<title>16</title>
<polygon fill="yellow" stroke="black" points="494.25,-1162.8 296,-1162.8 296,-1126.8 494.25,-1126.8 494.25,-1162.8"/>
<text text-anchor="middle" x="395.12" y="-1139.75" font-family="Times New Roman,serif" font-size="14.00">arg.dimension &lt;&gt; self.dimension</text>
<text text-anchor="middle" x="284.75" y="-1166" font-family="Times New Roman,serif" font-size="14.00">[16]</text>
</g>
<!-- 22 -->
<g id="node15" class="node">
<title>22</title>
<polygon fill="aquamarine" stroke="black" points="215.12,-1063.5 207.93,-1056.3 215.12,-1049.1 222.32,-1056.3 215.12,-1063.5"/>
<text text-anchor="middle" x="192.93" y="-1066.7" font-family="Times New Roman,serif" font-size="14.00">&lt;22&gt;</text>
</g>
<!-- 16&#45;&gt;22 -->
<g id="edge11" class="edge">
<title>16&#45;&gt;22</title>
<path fill="none" stroke="black" d="M359.13,-1126.5C319.63,-1107.52 258.1,-1077.95 230.01,-1064.45"/>
<polygon fill="black" stroke="black" points="231.55,-1061.31 221.02,-1060.14 228.52,-1067.62 231.55,-1061.31"/>
<text text-anchor="middle" x="352" y="-1095.5" font-family="Times New Roman,serif" font-size="14.00">merge1#19</text>
</g>
<!-- 82 -->
<g id="node11" class="node">
<title>82</title>
<polygon fill="aquamarine" stroke="black" points="454.12,-1318.2 446.93,-1311 454.12,-1303.8 461.32,-1311 454.12,-1318.2"/>
<text text-anchor="middle" x="431.93" y="-1321.4" font-family="Times New Roman,serif" font-size="14.00">&lt;82&gt;</text>
</g>
<!-- 21 -->
<g id="node14" class="node">
<title>21</title>
<polygon fill="aquamarine" stroke="black" points="395.12,-1240.5 387.93,-1233.3 395.12,-1226.1 402.32,-1233.3 395.12,-1240.5"/>
<text text-anchor="middle" x="372.93" y="-1243.7" font-family="Times New Roman,serif" font-size="14.00">&lt;21&gt;</text>
</g>
<!-- 82&#45;&gt;21 -->
<g id="edge18" class="edge">
<title>82&#45;&gt;21</title>
<path fill="none" stroke="black" d="M451.28,-1306.35C443.04,-1295.78 418.9,-1264.81 405.1,-1247.1"/>
<polygon fill="black" stroke="black" points="407.92,-1245.02 399.01,-1239.29 402.4,-1249.33 407.92,-1245.02"/>
<text text-anchor="middle" x="460.17" y="-1272.5" font-family="Times New Roman,serif" font-size="14.00">split2#89</text>
</g>
<!-- 24 -->
<g id="node17" class="node">
<title>24</title>
<polygon fill="yellow" stroke="black" points="640.12,-1251.3 450.12,-1251.3 450.12,-1215.3 640.12,-1215.3 640.12,-1251.3"/>
<text text-anchor="middle" x="545.12" y="-1228.25" font-family="Times New Roman,serif" font-size="14.00">arg.dimension = self.dimension</text>
<text text-anchor="middle" x="438.88" y="-1254.5" font-family="Times New Roman,serif" font-size="14.00">[24]</text>
</g>
<!-- 82&#45;&gt;24 -->
<g id="edge17" class="edge">
<title>82&#45;&gt;24</title>
<path fill="none" stroke="black" d="M458.35,-1307.35C465.07,-1303.08 478.51,-1294.29 489.12,-1285.8 499.39,-1277.59 510.14,-1267.98 519.45,-1259.3"/>
<polygon fill="black" stroke="black" points="521.57,-1262.11 526.43,-1252.7 516.76,-1257.02 521.57,-1262.11"/>
<text text-anchor="middle" x="533.36" y="-1272.5" font-family="Times New Roman,serif" font-size="14.00">split1#88</text>
</g>
<!-- 19 -->
<g id="node12" class="node">
<title>19</title>
<polygon fill="yellow" stroke="black" points="277.75,-1162.8 22.5,-1162.8 22.5,-1126.8 277.75,-1126.8 277.75,-1162.8"/>
<text text-anchor="middle" x="150.12" y="-1139.75" font-family="Times New Roman,serif" font-size="14.00">arg.dimensionSizes &lt;&gt; self.dimensionSizes</text>
<text text-anchor="middle" x="11.25" y="-1166" font-family="Times New Roman,serif" font-size="14.00">[19]</text>
</g>
<!-- 19&#45;&gt;22 -->
<g id="edge13" class="edge">
<title>19&#45;&gt;22</title>
<path fill="none" stroke="black" d="M162.97,-1126.71C175.47,-1110.07 194.19,-1085.15 205.48,-1070.14"/>
<polygon fill="black" stroke="black" points="208.06,-1072.52 211.27,-1062.42 202.47,-1068.32 208.06,-1072.52"/>
<text text-anchor="middle" x="219.2" y="-1095.5" font-family="Times New Roman,serif" font-size="14.00">merge2#20</text>
</g>
<!-- 83&#45;&gt;14 -->
<g id="edge22" class="edge">
<title>83&#45;&gt;14</title>
<path fill="none" stroke="black" d="M233.12,-98.71C233.12,-86.42 233.12,-59.99 233.12,-40.93"/>
<polygon fill="black" stroke="black" points="236.63,-40.94 233.13,-30.94 229.63,-40.94 236.63,-40.94"/>
<text text-anchor="middle" x="278.88" y="-57.2" font-family="Times New Roman,serif" font-size="14.00">graphOr_end#92</text>
</g>
<!-- 21&#45;&gt;16 -->
<g id="edge7" class="edge">
<title>21&#45;&gt;16</title>
<path fill="none" stroke="black" d="M395.12,-1225.51C395.12,-1214.65 395.12,-1192.75 395.12,-1174.65"/>
<polygon fill="black" stroke="black" points="398.63,-1174.69 395.13,-1164.69 391.63,-1174.69 398.63,-1174.69"/>
<text text-anchor="middle" x="420.25" y="-1184" font-family="Times New Roman,serif" font-size="14.00">split1#17</text>
</g>
<!-- 21&#45;&gt;19 -->
<g id="edge9" class="edge">
<title>21&#45;&gt;19</title>
<path fill="none" stroke="black" d="M390.45,-1230.65C368.5,-1222.9 274.07,-1189.56 210.32,-1167.05"/>
<polygon fill="black" stroke="black" points="211.6,-1163.79 201.01,-1163.77 209.27,-1170.39 211.6,-1163.79"/>
<text text-anchor="middle" x="319.69" y="-1184" font-family="Times New Roman,serif" font-size="14.00">split2#18</text>
</g>
<!-- 22&#45;&gt;13 -->
<g id="edge14" class="edge">
<title>22&#45;&gt;13</title>
<path fill="none" stroke="black" d="M215.12,-1048.52C215.12,-1029.87 215.12,-976.96 215.12,-943.56"/>
<polygon fill="black" stroke="black" points="218.63,-943.75 215.13,-933.75 211.63,-943.75 218.63,-943.75"/>
<text text-anchor="middle" x="252.25" y="-1007" font-family="Times New Roman,serif" font-size="14.00">graphAnd#85</text>
</g>
<!-- 23 -->
<g id="node16" class="node">
<title>23</title>
<ellipse fill="black" stroke="black" cx="454.12" cy="-1377.9" rx="7.2" ry="7.2"/>
<text text-anchor="middle" x="439.05" y="-1388.3" font-family="Times New Roman,serif" font-size="14.00">[0]</text>
</g>
<!-- 23&#45;&gt;82 -->
<g id="edge16" class="edge">
<title>23&#45;&gt;82</title>
<path fill="none" stroke="black" d="M454.12,-1370.44C454.12,-1361.11 454.12,-1343.51 454.12,-1330.05"/>
<polygon fill="black" stroke="black" points="457.63,-1330.34 454.13,-1320.34 450.63,-1330.34 457.63,-1330.34"/>
<text text-anchor="middle" x="501.75" y="-1339.4" font-family="Times New Roman,serif" font-size="14.00">graphOr_start#87</text>
</g>
<!-- 27 -->
<g id="node18" class="node">
<title>27</title>
<polygon fill="yellow" stroke="black" points="759.62,-1162.8 512.62,-1162.8 512.62,-1126.8 759.62,-1126.8 759.62,-1162.8"/>
<text text-anchor="middle" x="636.12" y="-1139.75" font-family="Times New Roman,serif" font-size="14.00">arg.dimensionSizes = self.dimensionSizes</text>
<text text-anchor="middle" x="501.38" y="-1166" font-family="Times New Roman,serif" font-size="14.00">[27]</text>
</g>
<!-- 24&#45;&gt;27 -->
<g id="edge19" class="edge">
<title>24&#45;&gt;27</title>
<path fill="none" stroke="black" d="M563.1,-1215.21C576.48,-1202.5 594.93,-1184.96 609.94,-1170.69"/>
<polygon fill="black" stroke="black" points="611.94,-1173.62 616.78,-1164.19 607.12,-1168.55 611.94,-1173.62"/>
<text text-anchor="middle" x="635.9" y="-1184" font-family="Times New Roman,serif" font-size="14.00">graphAnd#26</text>
</g>
<!-- 30 -->
<g id="node19" class="node">
<title>30</title>
<polygon fill="yellow" stroke="black" points="697,-1074.3 575.25,-1074.3 575.25,-1038.3 697,-1038.3 697,-1074.3"/>
<text text-anchor="middle" x="636.12" y="-1051.25" font-family="Times New Roman,serif" font-size="14.00">length = IterateExp</text>
<text text-anchor="middle" x="564" y="-1077.5" font-family="Times New Roman,serif" font-size="14.00">[30]</text>
</g>
<!-- 27&#45;&gt;30 -->
<g id="edge15" class="edge">
<title>27&#45;&gt;30</title>
<path fill="none" stroke="black" d="M636.12,-1126.71C636.12,-1115.06 636.12,-1099.35 636.12,-1085.82"/>
<polygon fill="black" stroke="black" points="639.63,-1086.16 636.13,-1076.16 632.63,-1086.16 639.63,-1086.16"/>
<text text-anchor="middle" x="673.25" y="-1095.5" font-family="Times New Roman,serif" font-size="14.00">graphAnd#86</text>
</g>
<!-- 36 -->
<g id="node21" class="node">
<title>36</title>
<polygon fill="yellow" stroke="black" points="664.38,-985.8 607.88,-985.8 607.88,-949.8 664.38,-949.8 664.38,-985.8"/>
<text text-anchor="middle" x="636.12" y="-962.75" font-family="Times New Roman,serif" font-size="14.00">acc = 1</text>
<text text-anchor="middle" x="596.62" y="-989" font-family="Times New Roman,serif" font-size="14.00">[36]</text>
</g>
<!-- 30&#45;&gt;36 -->
<g id="edge32" class="edge">
<title>30&#45;&gt;36</title>
<path fill="none" stroke="black" d="M636.12,-1038.21C636.12,-1026.56 636.12,-1010.85 636.12,-997.32"/>
<polygon fill="black" stroke="black" points="639.63,-997.66 636.13,-987.66 632.63,-997.66 639.63,-997.66"/>
<text text-anchor="middle" x="673.25" y="-1007" font-family="Times New Roman,serif" font-size="14.00">graphAnd#56</text>
</g>
<!-- 33 -->
<g id="node20" class="node">
<title>33</title>
<polygon fill="yellow" stroke="black" points="670.75,-877.8 601.5,-877.8 601.5,-841.8 670.75,-841.8 670.75,-877.8"/>
<text text-anchor="middle" x="636.12" y="-854.75" font-family="Times New Roman,serif" font-size="14.00">Index = 0</text>
<text text-anchor="middle" x="590.25" y="-881" font-family="Times New Roman,serif" font-size="14.00">[33]</text>
</g>
<!-- 53 -->
<g id="node27" class="node">
<title>53</title>
<polygon fill="aquamarine" stroke="black" points="636.12,-789.3 628.92,-782.1 636.12,-774.9 643.33,-782.1 636.12,-789.3"/>
<text text-anchor="middle" x="613.92" y="-792.5" font-family="Times New Roman,serif" font-size="14.00">&lt;53&gt;</text>
</g>
<!-- 33&#45;&gt;53 -->
<g id="edge31" class="edge">
<title>33&#45;&gt;53</title>
<path fill="none" stroke="black" d="M636.12,-841.62C636.12,-829.58 636.12,-813.5 636.12,-801.25"/>
<polygon fill="black" stroke="black" points="639.63,-801.34 636.13,-791.34 632.63,-801.34 639.63,-801.34"/>
<text text-anchor="middle" x="673.25" y="-810.5" font-family="Times New Roman,serif" font-size="14.00">graphAnd#55</text>
</g>
<!-- 36&#45;&gt;33 -->
<g id="edge23" class="edge">
<title>36&#45;&gt;33</title>
<path fill="none" stroke="black" d="M636.12,-949.77C636.12,-933.56 636.12,-908.86 636.12,-889.59"/>
<polygon fill="black" stroke="black" points="639.63,-889.65 636.13,-879.65 632.63,-889.65 639.63,-889.65"/>
<text text-anchor="middle" x="673.25" y="-908.75" font-family="Times New Roman,serif" font-size="14.00">graphAnd#33</text>
</g>
<!-- 39 -->
<g id="node22" class="node">
<title>39</title>
<polygon fill="yellow" stroke="black" points="540.12,-722.4 392.12,-722.4 392.12,-686.4 540.12,-686.4 540.12,-722.4"/>
<text text-anchor="middle" x="466.12" y="-699.35" font-family="Times New Roman,serif" font-size="14.00">Index &gt; dimensionSizes</text>
<text text-anchor="middle" x="380.88" y="-725.6" font-family="Times New Roman,serif" font-size="14.00">[39]</text>
</g>
<!-- 55 -->
<g id="node28" class="node">
<title>55</title>
<polygon fill="yellow" stroke="black" points="493.12,-633.9 439.12,-633.9 439.12,-597.9 493.12,-597.9 493.12,-633.9"/>
<text text-anchor="middle" x="466.12" y="-610.85" font-family="Times New Roman,serif" font-size="14.00">acc</text>
<text text-anchor="middle" x="427.88" y="-637.1" font-family="Times New Roman,serif" font-size="14.00">[55]</text>
</g>
<!-- 39&#45;&gt;55 -->
<g id="edge29" class="edge">
<title>39&#45;&gt;55</title>
<path fill="none" stroke="black" d="M466.12,-686.31C466.12,-674.66 466.12,-658.95 466.12,-645.42"/>
<polygon fill="black" stroke="black" points="469.63,-645.76 466.13,-635.76 462.63,-645.76 469.63,-645.76"/>
<text text-anchor="middle" x="503.25" y="-655.1" font-family="Times New Roman,serif" font-size="14.00">graphAnd#53</text>
</g>
<!-- 42 -->
<g id="node23" class="node">
<title>42</title>
<polygon fill="yellow" stroke="black" points="714.25,-722.4 558,-722.4 558,-686.4 714.25,-686.4 714.25,-722.4"/>
<text text-anchor="middle" x="636.12" y="-699.35" font-family="Times New Roman,serif" font-size="14.00">Index &lt;= dimensionSizes</text>
<text text-anchor="middle" x="546.75" y="-725.6" font-family="Times New Roman,serif" font-size="14.00">[42]</text>
</g>
<!-- 45 -->
<g id="node24" class="node">
<title>45</title>
<polygon fill="yellow" stroke="black" points="699.62,-633.9 578.62,-633.9 578.62,-597.9 699.62,-597.9 699.62,-633.9"/>
<text text-anchor="middle" x="639.12" y="-610.85" font-family="Times New Roman,serif" font-size="14.00">i = dimensionSizes</text>
<text text-anchor="middle" x="567.38" y="-637.1" font-family="Times New Roman,serif" font-size="14.00">[45]</text>
</g>
<!-- 42&#45;&gt;45 -->
<g id="edge24" class="edge">
<title>42&#45;&gt;45</title>
<path fill="none" stroke="black" d="M636.72,-686.31C637.12,-674.66 637.67,-658.95 638.14,-645.42"/>
<polygon fill="black" stroke="black" points="641.62,-645.88 638.47,-635.76 634.63,-645.64 641.62,-645.88"/>
<text text-anchor="middle" x="675.02" y="-655.1" font-family="Times New Roman,serif" font-size="14.00">graphAnd#44</text>
</g>
<!-- 48 -->
<g id="node25" class="node">
<title>48</title>
<polygon fill="yellow" stroke="black" points="680.12,-545.4 616.12,-545.4 616.12,-509.4 680.12,-509.4 680.12,-545.4"/>
<text text-anchor="middle" x="648.12" y="-522.35" font-family="Times New Roman,serif" font-size="14.00">result * i</text>
<text text-anchor="middle" x="604.88" y="-548.6" font-family="Times New Roman,serif" font-size="14.00">[48]</text>
</g>
<!-- 45&#45;&gt;48 -->
<g id="edge25" class="edge">
<title>45&#45;&gt;48</title>
<path fill="none" stroke="black" d="M640.9,-597.81C642.12,-586.16 643.75,-570.45 645.16,-556.92"/>
<polygon fill="black" stroke="black" points="648.61,-557.56 646.16,-547.26 641.65,-556.84 648.61,-557.56"/>
<text text-anchor="middle" x="681.56" y="-566.6" font-family="Times New Roman,serif" font-size="14.00">graphAnd#45</text>
</g>
<!-- 51 -->
<g id="node26" class="node">
<title>51</title>
<polygon fill="yellow" stroke="black" points="763,-456.9 647.25,-456.9 647.25,-420.9 763,-420.9 763,-456.9"/>
<text text-anchor="middle" x="705.12" y="-433.85" font-family="Times New Roman,serif" font-size="14.00">Index = Index + 1</text>
<text text-anchor="middle" x="636" y="-460.1" font-family="Times New Roman,serif" font-size="14.00">[51]</text>
</g>
<!-- 48&#45;&gt;51 -->
<g id="edge26" class="edge">
<title>48&#45;&gt;51</title>
<path fill="none" stroke="black" d="M646.56,-509.02C646.42,-498.45 647.76,-485.08 653.88,-474.9 656.15,-471.11 659.02,-467.64 662.22,-464.48"/>
<polygon fill="black" stroke="black" points="664.22,-467.37 669.58,-458.24 659.69,-462.03 664.22,-467.37"/>
<text text-anchor="middle" x="691" y="-478.1" font-family="Times New Roman,serif" font-size="14.00">graphAnd#46</text>
</g>
<!-- 51&#45;&gt;53 -->
<g id="edge28" class="edge">
<title>51&#45;&gt;53</title>
<path fill="none" stroke="black" d="M717.96,-457.08C721.63,-462.57 725.38,-468.8 728.12,-474.9 737.87,-496.53 742.12,-502.68 742.12,-526.4 742.12,-705.4 742.12,-705.4 742.12,-705.4 742.12,-748.74 682.72,-769.61 652.86,-777.37"/>
<polygon fill="black" stroke="black" points="652.22,-773.92 643.3,-779.63 653.83,-780.73 652.22,-773.92"/>
<text text-anchor="middle" x="769.12" y="-610.85" font-family="Times New Roman,serif" font-size="14.00">iterate#49</text>
</g>
<!-- 53&#45;&gt;39 -->
<g id="edge30" class="edge">
<title>53&#45;&gt;39</title>
<path fill="none" stroke="black" d="M630.67,-779.84C617.73,-776.75 584.27,-768.24 557.88,-756.9 539.25,-748.9 519.53,-738.16 503.17,-728.56"/>
<polygon fill="black" stroke="black" points="505.13,-725.65 494.75,-723.53 501.55,-731.66 505.13,-725.65"/>
<text text-anchor="middle" x="595" y="-743.6" font-family="Times New Roman,serif" font-size="14.00">graphAnd#54</text>
</g>
<!-- 53&#45;&gt;42 -->
<g id="edge27" class="edge">
<title>53&#45;&gt;42</title>
<path fill="none" stroke="black" d="M636.12,-774.38C636.12,-765.3 636.12,-748.55 636.12,-733.83"/>
<polygon fill="black" stroke="black" points="639.63,-734.16 636.13,-724.16 632.63,-734.16 639.63,-734.16"/>
<text text-anchor="middle" x="663.12" y="-743.6" font-family="Times New Roman,serif" font-size="14.00">iterate#48</text>
</g>
<!-- 61 -->
<g id="node30" class="node">
<title>61</title>
<polygon fill="yellow" stroke="black" points="508.25,-545.4 424,-545.4 424,-509.4 508.25,-509.4 508.25,-545.4"/>
<text text-anchor="middle" x="466.12" y="-522.35" font-family="Times New Roman,serif" font-size="14.00">check = true</text>
<text text-anchor="middle" x="412.75" y="-548.6" font-family="Times New Roman,serif" font-size="14.00">[61]</text>
</g>
<!-- 55&#45;&gt;61 -->
<g id="edge12" class="edge">
<title>55&#45;&gt;61</title>
<path fill="none" stroke="black" d="M466.12,-597.81C466.12,-586.16 466.12,-570.45 466.12,-556.92"/>
<polygon fill="black" stroke="black" points="469.63,-557.26 466.13,-547.26 462.63,-557.26 469.63,-557.26"/>
<text text-anchor="middle" x="503.25" y="-566.6" font-family="Times New Roman,serif" font-size="14.00">graphAnd#84</text>
</g>
<!-- 58 -->
<g id="node29" class="node">
<title>58</title>
<polygon fill="yellow" stroke="black" points="500.75,-456.9 431.5,-456.9 431.5,-420.9 500.75,-420.9 500.75,-456.9"/>
<text text-anchor="middle" x="466.12" y="-433.85" font-family="Times New Roman,serif" font-size="14.00">Index = 0</text>
<text text-anchor="middle" x="420.25" y="-460.1" font-family="Times New Roman,serif" font-size="14.00">[58]</text>
</g>
<!-- 58&#45;&gt;78 -->
<g id="edge10" class="edge">
<title>58&#45;&gt;78</title>
<path fill="none" stroke="black" d="M466.12,-420.72C466.12,-408.68 466.12,-392.6 466.12,-380.35"/>
<polygon fill="black" stroke="black" points="469.63,-380.44 466.13,-370.44 462.63,-380.44 469.63,-380.44"/>
<text text-anchor="middle" x="503.25" y="-389.6" font-family="Times New Roman,serif" font-size="14.00">graphAnd#83</text>
</g>
<!-- 61&#45;&gt;58 -->
<g id="edge33" class="edge">
<title>61&#45;&gt;58</title>
<path fill="none" stroke="black" d="M466.12,-509.31C466.12,-497.66 466.12,-481.95 466.12,-468.42"/>
<polygon fill="black" stroke="black" points="469.63,-468.76 466.13,-458.76 462.63,-468.76 469.63,-468.76"/>
<text text-anchor="middle" x="503.25" y="-478.1" font-family="Times New Roman,serif" font-size="14.00">graphAnd#61</text>
</g>
</g>
</svg>
