<?xml version="1.0" encoding="UTF-8" standalone="no"?>
<!DOCTYPE svg PUBLIC "-//W3C//DTD SVG 1.1//EN"
 "http://www.w3.org/Graphics/SVG/1.1/DTD/svg11.dtd">
<!-- Generated by graphviz version 12.2.1 (20241206.2353)
 -->
<!-- Title: CLG Pages: 1 -->
<svg width="1688pt" height="2007pt"
 viewBox="0.00 0.00 1688.10 2007.30" xmlns="http://www.w3.org/2000/svg" xmlns:xlink="http://www.w3.org/1999/xlink">
<g id="graph0" class="graph" transform="scale(1 1) rotate(0) translate(4 2003.3)">
<title>CLG</title>
<polygon fill="white" stroke="none" points="-4,4 -4,-2003.3 1684.1,-2003.3 1684.1,4 -4,4"/>
<!-- 130 -->
<g id="node1" class="node">
<title>130</title>
<polygon fill="yellow" stroke="black" points="342.85,-1029 213.6,-1029 213.6,-993 342.85,-993 342.85,-1029"/>
<text text-anchor="middle" x="278.22" y="-1005.95" font-family="Times New Roman,serif" font-size="14.00">Index2 = Index2 + 1</text>
<text text-anchor="middle" x="198.97" y="-1032.2" font-family="Times New Roman,serif" font-size="14.00">[130]</text>
</g>
<!-- 132 -->
<g id="node2" class="node">
<title>132</title>
<polygon fill="aquamarine" stroke="black" points="184.22,-929.7 177.02,-922.5 184.22,-915.3 191.42,-922.5 184.22,-929.7"/>
<text text-anchor="middle" x="158.65" y="-932.9" font-family="Times New Roman,serif" font-size="14.00">&lt;132&gt;</text>
</g>
<!-- 130&#45;&gt;132 -->
<g id="edge55" class="edge">
<title>130&#45;&gt;132</title>
<path fill="none" stroke="black" d="M259.65,-992.91C240.69,-975.46 211.83,-948.91 195.87,-934.22"/>
<polygon fill="black" stroke="black" points="198.64,-932.01 188.91,-927.82 193.9,-937.16 198.64,-932.01"/>
<text text-anchor="middle" x="270.02" y="-961.7" font-family="Times New Roman,serif" font-size="14.00">iterate#123</text>
</g>
<!-- 118 -->
<g id="node48" class="node">
<title>118</title>
<polygon fill="yellow" stroke="black" points="161.35,-832.5 41.1,-832.5 41.1,-796.5 161.35,-796.5 161.35,-832.5"/>
<text text-anchor="middle" x="101.22" y="-809.45" font-family="Times New Roman,serif" font-size="14.00">Index2 &gt; d3 &#45; 1+ 1</text>
<text text-anchor="middle" x="26.47" y="-835.7" font-family="Times New Roman,serif" font-size="14.00">[118]</text>
</g>
<!-- 132&#45;&gt;118 -->
<g id="edge56" class="edge">
<title>132&#45;&gt;118</title>
<path fill="none" stroke="black" d="M178.99,-920.17C166.74,-916.78 136.03,-906.62 120.22,-886.5 110.74,-874.43 105.97,-858.02 103.59,-844.02"/>
<polygon fill="black" stroke="black" points="107.1,-843.91 102.29,-834.47 100.17,-844.85 107.1,-843.91"/>
<text text-anchor="middle" x="160.72" y="-863.45" font-family="Times New Roman,serif" font-size="14.00">graphAnd#125</text>
</g>
<!-- 121 -->
<g id="node49" class="node">
<title>121</title>
<polygon fill="yellow" stroke="black" points="308.47,-832.5 179.97,-832.5 179.97,-796.5 308.47,-796.5 308.47,-832.5"/>
<text text-anchor="middle" x="244.22" y="-809.45" font-family="Times New Roman,serif" font-size="14.00">Index2 &lt;= d3 &#45; 1+ 1</text>
<text text-anchor="middle" x="165.35" y="-835.7" font-family="Times New Roman,serif" font-size="14.00">[121]</text>
</g>
<!-- 132&#45;&gt;121 -->
<g id="edge54" class="edge">
<title>132&#45;&gt;121</title>
<path fill="none" stroke="black" d="M186.5,-917.47C193.35,-905.38 214.18,-868.58 228.84,-842.68"/>
<polygon fill="black" stroke="black" points="231.87,-844.43 233.75,-834 225.78,-840.98 231.87,-844.43"/>
<text text-anchor="middle" x="253.48" y="-863.45" font-family="Times New Roman,serif" font-size="14.00">iterate#122</text>
</g>
<!-- 134 -->
<g id="node3" class="node">
<title>134</title>
<polygon fill="yellow" stroke="black" points="160.85,-744 31.6,-744 31.6,-708 160.85,-708 160.85,-744"/>
<text text-anchor="middle" x="96.22" y="-720.95" font-family="Times New Roman,serif" font-size="14.00">Index1 = Index1 + 1</text>
<text text-anchor="middle" x="16.97" y="-747.2" font-family="Times New Roman,serif" font-size="14.00">[134]</text>
</g>
<!-- 136 -->
<g id="node4" class="node">
<title>136</title>
<polygon fill="aquamarine" stroke="black" points="97.22,-644.7 90.02,-637.5 97.22,-630.3 104.42,-637.5 97.22,-644.7"/>
<text text-anchor="middle" x="71.65" y="-647.9" font-family="Times New Roman,serif" font-size="14.00">&lt;136&gt;</text>
</g>
<!-- 134&#45;&gt;136 -->
<g id="edge5" class="edge">
<title>134&#45;&gt;136</title>
<path fill="none" stroke="black" d="M96.42,-707.91C96.59,-692.98 96.84,-671.4 97.02,-656.27"/>
<polygon fill="black" stroke="black" points="100.52,-656.52 97.13,-646.48 93.52,-656.44 100.52,-656.52"/>
<text text-anchor="middle" x="127.19" y="-676.7" font-family="Times New Roman,serif" font-size="14.00">iterate#134</text>
</g>
<!-- 103 -->
<g id="node43" class="node">
<title>103</title>
<polygon fill="yellow" stroke="black" points="404.35,-567 284.1,-567 284.1,-531 404.35,-531 404.35,-567"/>
<text text-anchor="middle" x="344.22" y="-543.95" font-family="Times New Roman,serif" font-size="14.00">Index1 &gt; d2 &#45; 1+ 1</text>
<text text-anchor="middle" x="269.47" y="-570.2" font-family="Times New Roman,serif" font-size="14.00">[103]</text>
</g>
<!-- 136&#45;&gt;103 -->
<g id="edge6" class="edge">
<title>136&#45;&gt;103</title>
<path fill="none" stroke="black" d="M99.88,-632.43C102.7,-628.46 107.52,-622.59 113.22,-619.5 152.92,-597.97 169.78,-613.82 213.22,-601.5 240.97,-593.63 270.98,-582.07 295.27,-571.89"/>
<polygon fill="black" stroke="black" points="296.42,-575.21 304.26,-568.08 293.68,-568.77 296.42,-575.21"/>
<text text-anchor="middle" x="301.39" y="-588.2" font-family="Times New Roman,serif" font-size="14.00">graphAnd#136</text>
</g>
<!-- 106 -->
<g id="node44" class="node">
<title>106</title>
<polygon fill="yellow" stroke="black" points="255.47,-567 126.97,-567 126.97,-531 255.47,-531 255.47,-567"/>
<text text-anchor="middle" x="191.22" y="-543.95" font-family="Times New Roman,serif" font-size="14.00">Index1 &lt;= d2 &#45; 1+ 1</text>
<text text-anchor="middle" x="112.35" y="-570.2" font-family="Times New Roman,serif" font-size="14.00">[106]</text>
</g>
<!-- 136&#45;&gt;106 -->
<g id="edge4" class="edge">
<title>136&#45;&gt;106</title>
<path fill="none" stroke="black" d="M100.33,-633.03C103.49,-629.53 108.58,-624.02 113.22,-619.5 129.09,-604.06 147.55,-587.55 162.54,-574.49"/>
<polygon fill="black" stroke="black" points="164.5,-577.42 169.76,-568.23 159.91,-572.13 164.5,-577.42"/>
<text text-anchor="middle" x="179.3" y="-588.2" font-family="Times New Roman,serif" font-size="14.00">iterate#133</text>
</g>
<!-- 138 -->
<g id="node5" class="node">
<title>138</title>
<polygon fill="yellow" stroke="black" points="438.85,-478.5 309.6,-478.5 309.6,-442.5 438.85,-442.5 438.85,-478.5"/>
<text text-anchor="middle" x="374.22" y="-455.45" font-family="Times New Roman,serif" font-size="14.00">Index0 = Index0 + 1</text>
<text text-anchor="middle" x="294.97" y="-481.7" font-family="Times New Roman,serif" font-size="14.00">[138]</text>
</g>
<!-- 140 -->
<g id="node6" class="node">
<title>140</title>
<polygon fill="aquamarine" stroke="black" points="444.22,-379.2 437.02,-372 444.22,-364.8 451.42,-372 444.22,-379.2"/>
<text text-anchor="middle" x="418.65" y="-382.4" font-family="Times New Roman,serif" font-size="14.00">&lt;140&gt;</text>
</g>
<!-- 138&#45;&gt;140 -->
<g id="edge12" class="edge">
<title>138&#45;&gt;140</title>
<path fill="none" stroke="black" d="M388.05,-442.41C401.65,-425.61 422.07,-400.38 434.18,-385.41"/>
<polygon fill="black" stroke="black" points="436.79,-387.75 440.36,-377.77 431.35,-383.34 436.79,-387.75"/>
<text text-anchor="middle" x="445.87" y="-411.2" font-family="Times New Roman,serif" font-size="14.00">iterate#145</text>
</g>
<!-- 88 -->
<g id="node38" class="node">
<title>88</title>
<polygon fill="yellow" stroke="black" points="533.35,-301.5 413.1,-301.5 413.1,-265.5 533.35,-265.5 533.35,-301.5"/>
<text text-anchor="middle" x="473.22" y="-278.45" font-family="Times New Roman,serif" font-size="14.00">Index0 &gt; d1 &#45; 1+ 1</text>
<text text-anchor="middle" x="401.85" y="-304.7" font-family="Times New Roman,serif" font-size="14.00">[88]</text>
</g>
<!-- 140&#45;&gt;88 -->
<g id="edge13" class="edge">
<title>140&#45;&gt;88</title>
<path fill="none" stroke="black" d="M445.95,-365.85C449.42,-355.51 457.44,-331.58 463.89,-312.34"/>
<polygon fill="black" stroke="black" points="467.12,-313.72 466.98,-303.12 460.48,-311.49 467.12,-313.72"/>
<text text-anchor="middle" x="501.82" y="-322.7" font-family="Times New Roman,serif" font-size="14.00">graphAnd#147</text>
</g>
<!-- 91 -->
<g id="node39" class="node">
<title>91</title>
<polygon fill="yellow" stroke="black" points="377.47,-301.5 248.97,-301.5 248.97,-265.5 377.47,-265.5 377.47,-301.5"/>
<text text-anchor="middle" x="313.22" y="-278.45" font-family="Times New Roman,serif" font-size="14.00">Index0 &lt;= d1 &#45; 1+ 1</text>
<text text-anchor="middle" x="237.72" y="-304.7" font-family="Times New Roman,serif" font-size="14.00">[91]</text>
</g>
<!-- 140&#45;&gt;91 -->
<g id="edge11" class="edge">
<title>140&#45;&gt;91</title>
<path fill="none" stroke="black" d="M440.16,-368.32C426.52,-359.31 381.41,-329.52 348.84,-308.02"/>
<polygon fill="black" stroke="black" points="351.14,-305.34 340.87,-302.75 347.29,-311.19 351.14,-305.34"/>
<text text-anchor="middle" x="420.83" y="-322.7" font-family="Times New Roman,serif" font-size="14.00">iterate#144</text>
</g>
<!-- 141 -->
<g id="node7" class="node">
<title>141</title>
<ellipse fill="black" stroke="black" cx="696.22" cy="-1975.6" rx="7.2" ry="7.2"/>
<text text-anchor="middle" x="681.15" y="-1986" font-family="Times New Roman,serif" font-size="14.00">[0]</text>
</g>
<!-- 142 -->
<g id="node8" class="node">
<title>142</title>
<polygon fill="yellow" stroke="black" points="800.6,-1931.4 591.85,-1931.4 591.85,-1895.4 800.6,-1895.4 800.6,-1931.4"/>
<text text-anchor="middle" x="696.22" y="-1908.35" font-family="Times New Roman,serif" font-size="14.00">self.data.getDimensionSizes(1) &gt; 0</text>
<text text-anchor="middle" x="577.22" y="-1934.6" font-family="Times New Roman,serif" font-size="14.00">[142]</text>
</g>
<!-- 141&#45;&gt;142 -->
<g id="edge19" class="edge">
<title>141&#45;&gt;142</title>
<path fill="none" stroke="black" d="M696.22,-1968.16C696.22,-1962.1 696.22,-1952.59 696.22,-1943.24"/>
<polygon fill="black" stroke="black" points="699.72,-1943.28 696.22,-1933.28 692.72,-1943.28 699.72,-1943.28"/>
</g>
<!-- 145 -->
<g id="node9" class="node">
<title>145</title>
<polygon fill="yellow" stroke="black" points="800.6,-1842.9 591.85,-1842.9 591.85,-1806.9 800.6,-1806.9 800.6,-1842.9"/>
<text text-anchor="middle" x="696.22" y="-1819.85" font-family="Times New Roman,serif" font-size="14.00">self.data.getDimensionSizes(2) &gt; 0</text>
<text text-anchor="middle" x="577.22" y="-1846.1" font-family="Times New Roman,serif" font-size="14.00">[145]</text>
</g>
<!-- 142&#45;&gt;145 -->
<g id="edge20" class="edge">
<title>142&#45;&gt;145</title>
<path fill="none" stroke="black" d="M696.22,-1895.31C696.22,-1883.66 696.22,-1867.95 696.22,-1854.42"/>
<polygon fill="black" stroke="black" points="699.72,-1854.76 696.22,-1844.76 692.72,-1854.76 699.72,-1854.76"/>
<text text-anchor="middle" x="736.72" y="-1864.1" font-family="Times New Roman,serif" font-size="14.00">graphAnd#157</text>
</g>
<!-- 148 -->
<g id="node10" class="node">
<title>148</title>
<polygon fill="yellow" stroke="black" points="800.6,-1754.4 591.85,-1754.4 591.85,-1718.4 800.6,-1718.4 800.6,-1754.4"/>
<text text-anchor="middle" x="696.22" y="-1731.35" font-family="Times New Roman,serif" font-size="14.00">self.data.getDimensionSizes(3) &gt; 0</text>
<text text-anchor="middle" x="577.22" y="-1757.6" font-family="Times New Roman,serif" font-size="14.00">[148]</text>
</g>
<!-- 145&#45;&gt;148 -->
<g id="edge23" class="edge">
<title>145&#45;&gt;148</title>
<path fill="none" stroke="black" d="M696.22,-1806.81C696.22,-1795.16 696.22,-1779.45 696.22,-1765.92"/>
<polygon fill="black" stroke="black" points="699.72,-1766.26 696.22,-1756.26 692.72,-1766.26 699.72,-1766.26"/>
<text text-anchor="middle" x="736.72" y="-1775.6" font-family="Times New Roman,serif" font-size="14.00">graphAnd#160</text>
</g>
<!-- 150 -->
<g id="node11" class="node">
<title>150</title>
<polygon fill="aquamarine" stroke="black" points="696.22,-1665.9 689.02,-1658.7 696.22,-1651.5 703.42,-1658.7 696.22,-1665.9"/>
<text text-anchor="middle" x="670.65" y="-1669.1" font-family="Times New Roman,serif" font-size="14.00">&lt;150&gt;</text>
</g>
<!-- 148&#45;&gt;150 -->
<g id="edge32" class="edge">
<title>148&#45;&gt;150</title>
<path fill="none" stroke="black" d="M696.22,-1718.22C696.22,-1706.18 696.22,-1690.1 696.22,-1677.85"/>
<polygon fill="black" stroke="black" points="699.72,-1677.94 696.22,-1667.94 692.72,-1677.94 699.72,-1677.94"/>
<text text-anchor="middle" x="736.72" y="-1687.1" font-family="Times New Roman,serif" font-size="14.00">graphAnd#167</text>
</g>
<!-- 46 -->
<g id="node23" class="node">
<title>46</title>
<polygon fill="aquamarine" stroke="black" points="807.22,-1588.2 800.02,-1581 807.22,-1573.8 814.42,-1581 807.22,-1588.2"/>
<text text-anchor="middle" x="785.02" y="-1591.4" font-family="Times New Roman,serif" font-size="14.00">&lt;46&gt;</text>
</g>
<!-- 150&#45;&gt;46 -->
<g id="edge27" class="edge">
<title>150&#45;&gt;46</title>
<path fill="none" stroke="black" d="M700.17,-1655.01C715.18,-1644.77 769.05,-1608.04 794.16,-1590.91"/>
<polygon fill="black" stroke="black" points="795.89,-1593.96 802.18,-1585.44 791.95,-1588.18 795.89,-1593.96"/>
<text text-anchor="middle" x="783.55" y="-1620.2" font-family="Times New Roman,serif" font-size="14.00">split2#163</text>
</g>
<!-- 49 -->
<g id="node25" class="node">
<title>49</title>
<polygon fill="yellow" stroke="black" points="758.97,-1599 459.47,-1599 459.47,-1563 758.97,-1563 758.97,-1599"/>
<text text-anchor="middle" x="609.22" y="-1575.95" font-family="Times New Roman,serif" font-size="14.00">self.data.getDimension() = arg.data.getDimension()</text>
<text text-anchor="middle" x="448.22" y="-1602.2" font-family="Times New Roman,serif" font-size="14.00">[49]</text>
</g>
<!-- 150&#45;&gt;49 -->
<g id="edge26" class="edge">
<title>150&#45;&gt;49</title>
<path fill="none" stroke="black" d="M692.92,-1654.82C683.9,-1646.98 658.17,-1624.59 637.6,-1606.69"/>
<polygon fill="black" stroke="black" points="640.15,-1604.27 630.3,-1600.34 635.55,-1609.55 640.15,-1604.27"/>
<text text-anchor="middle" x="696.58" y="-1620.2" font-family="Times New Roman,serif" font-size="14.00">split1#162</text>
</g>
<!-- 151 -->
<g id="node12" class="node">
<title>151</title>
<polygon fill="aquamarine" stroke="black" points="710.22,-202.2 703.02,-195 710.22,-187.8 717.42,-195 710.22,-202.2"/>
<text text-anchor="middle" x="684.65" y="-205.4" font-family="Times New Roman,serif" font-size="14.00">&lt;151&gt;</text>
</g>
<!-- 29 -->
<g id="node14" class="node">
<title>29</title>
<ellipse fill="black" stroke="black" cx="710.22" cy="-106.5" rx="7.2" ry="7.2"/>
<ellipse fill="none" stroke="black" cx="710.22" cy="-106.5" rx="11.2" ry="11.2"/>
<text text-anchor="middle" x="688.9" y="-120.9" font-family="Times New Roman,serif" font-size="14.00">[&#45;1]</text>
</g>
<!-- 151&#45;&gt;29 -->
<g id="edge30" class="edge">
<title>151&#45;&gt;29</title>
<path fill="none" stroke="black" d="M710.22,-187.21C710.22,-174.92 710.22,-148.49 710.22,-129.43"/>
<polygon fill="black" stroke="black" points="713.72,-129.44 710.22,-119.44 706.72,-129.44 713.72,-129.44"/>
<text text-anchor="middle" x="759.35" y="-145.7" font-family="Times New Roman,serif" font-size="14.00">graphOr_end#166</text>
</g>
<!-- 28 -->
<g id="node13" class="node">
<title>28</title>
<polygon fill="yellow" stroke="black" points="842.97,-886.5 717.47,-886.5 717.47,-850.5 842.97,-850.5 842.97,-886.5"/>
<text text-anchor="middle" x="780.22" y="-863.45" font-family="Times New Roman,serif" font-size="14.00">Result = &#39;Exception&#39;</text>
<text text-anchor="middle" x="706.22" y="-889.7" font-family="Times New Roman,serif" font-size="14.00">[28]</text>
</g>
<!-- 28&#45;&gt;151 -->
<g id="edge29" class="edge">
<title>28&#45;&gt;151</title>
<path fill="none" stroke="black" d="M779.93,-850.11C779.64,-830.84 779.22,-798.82 779.22,-771.25 779.22,-771.25 779.22,-771.25 779.22,-282.5 779.22,-247.33 743.93,-218.22 723.83,-204.49"/>
<polygon fill="black" stroke="black" points="725.91,-201.67 715.61,-199.2 722.12,-207.56 725.91,-201.67"/>
<text text-anchor="middle" x="813.35" y="-543.95" font-family="Times New Roman,serif" font-size="14.00">merge2#165</text>
</g>
<!-- 31 -->
<g id="node15" class="node">
<title>31</title>
<polygon fill="yellow" stroke="black" points="1680.1,-1294.5 1372.35,-1294.5 1372.35,-1258.5 1680.1,-1258.5 1680.1,-1294.5"/>
<text text-anchor="middle" x="1526.22" y="-1271.45" font-family="Times New Roman,serif" font-size="14.00">self.data.getDimension() &lt;&gt; arg.data.getDimension()</text>
<text text-anchor="middle" x="1361.1" y="-1297.7" font-family="Times New Roman,serif" font-size="14.00">[31]</text>
</g>
<!-- 37 -->
<g id="node18" class="node">
<title>37</title>
<polygon fill="aquamarine" stroke="black" points="1165.22,-1195.2 1158.02,-1188 1165.22,-1180.8 1172.42,-1188 1165.22,-1195.2"/>
<text text-anchor="middle" x="1143.02" y="-1198.4" font-family="Times New Roman,serif" font-size="14.00">&lt;37&gt;</text>
</g>
<!-- 31&#45;&gt;37 -->
<g id="edge24" class="edge">
<title>31&#45;&gt;37</title>
<path fill="none" stroke="black" d="M1453.6,-1258.1C1367.22,-1237.4 1228.76,-1204.22 1181.58,-1192.92"/>
<polygon fill="black" stroke="black" points="1182.62,-1189.57 1172.08,-1190.64 1180.99,-1196.38 1182.62,-1189.57"/>
<text text-anchor="middle" x="1408.81" y="-1227.2" font-family="Times New Roman,serif" font-size="14.00">merge1#32</text>
</g>
<!-- 34 -->
<g id="node16" class="node">
<title>34</title>
<polygon fill="yellow" stroke="black" points="1354.35,-1294.5 976.1,-1294.5 976.1,-1258.5 1354.35,-1258.5 1354.35,-1294.5"/>
<text text-anchor="middle" x="1165.22" y="-1271.45" font-family="Times New Roman,serif" font-size="14.00">self.data.getDimensionSizes(1) &lt;&gt; arg.data.getDimensionSizes(1)</text>
<text text-anchor="middle" x="964.85" y="-1297.7" font-family="Times New Roman,serif" font-size="14.00">[34]</text>
</g>
<!-- 34&#45;&gt;37 -->
<g id="edge25" class="edge">
<title>34&#45;&gt;37</title>
<path fill="none" stroke="black" d="M1165.22,-1258.41C1165.22,-1243.64 1165.22,-1222.33 1165.22,-1207.23"/>
<polygon fill="black" stroke="black" points="1168.72,-1207.39 1165.22,-1197.39 1161.72,-1207.39 1168.72,-1207.39"/>
<text text-anchor="middle" x="1195.97" y="-1227.2" font-family="Times New Roman,serif" font-size="14.00">merge2#33</text>
</g>
<!-- 36 -->
<g id="node17" class="node">
<title>36</title>
<polygon fill="aquamarine" stroke="black" points="1222.22,-1391.7 1215.02,-1384.5 1222.22,-1377.3 1229.42,-1384.5 1222.22,-1391.7"/>
<text text-anchor="middle" x="1200.02" y="-1394.9" font-family="Times New Roman,serif" font-size="14.00">&lt;36&gt;</text>
</g>
<!-- 36&#45;&gt;31 -->
<g id="edge21" class="edge">
<title>36&#45;&gt;31</title>
<path fill="none" stroke="black" d="M1227,-1381.83C1253.66,-1372.54 1385.72,-1326.49 1465.22,-1298.77"/>
<polygon fill="black" stroke="black" points="1466.36,-1302.08 1474.65,-1295.48 1464.05,-1295.47 1466.36,-1302.08"/>
<text text-anchor="middle" x="1444.34" y="-1325.45" font-family="Times New Roman,serif" font-size="14.00">split1#30</text>
</g>
<!-- 36&#45;&gt;34 -->
<g id="edge22" class="edge">
<title>36&#45;&gt;34</title>
<path fill="none" stroke="black" d="M1221.38,-1377.59C1219.37,-1364.89 1213.42,-1334.38 1200.22,-1312.5 1198.31,-1309.34 1196.06,-1306.25 1193.63,-1303.3"/>
<polygon fill="black" stroke="black" points="1196.33,-1301.07 1187,-1296.05 1191.16,-1305.79 1196.33,-1301.07"/>
<text text-anchor="middle" x="1239.94" y="-1325.45" font-family="Times New Roman,serif" font-size="14.00">split2#31</text>
</g>
<!-- 42 -->
<g id="node21" class="node">
<title>42</title>
<polygon fill="aquamarine" stroke="black" points="948.22,-1106.7 941.02,-1099.5 948.22,-1092.3 955.42,-1099.5 948.22,-1106.7"/>
<text text-anchor="middle" x="926.02" y="-1109.9" font-family="Times New Roman,serif" font-size="14.00">&lt;42&gt;</text>
</g>
<!-- 37&#45;&gt;42 -->
<g id="edge34" class="edge">
<title>37&#45;&gt;42</title>
<path fill="none" stroke="black" d="M1160.69,-1185.19C1135.1,-1174.99 1008.24,-1124.42 963.71,-1106.67"/>
<polygon fill="black" stroke="black" points="965.09,-1103.46 954.51,-1103.01 962.5,-1109.96 965.09,-1103.46"/>
<text text-anchor="middle" x="1106.91" y="-1138.7" font-family="Times New Roman,serif" font-size="14.00">merge1#40</text>
</g>
<!-- 39 -->
<g id="node19" class="node">
<title>39</title>
<polygon fill="yellow" stroke="black" points="1199.35,-1348.5 821.1,-1348.5 821.1,-1312.5 1199.35,-1312.5 1199.35,-1348.5"/>
<text text-anchor="middle" x="1010.22" y="-1325.45" font-family="Times New Roman,serif" font-size="14.00">self.data.getDimensionSizes(2) &lt;&gt; arg.data.getDimensionSizes(2)</text>
<text text-anchor="middle" x="809.85" y="-1351.7" font-family="Times New Roman,serif" font-size="14.00">[39]</text>
</g>
<!-- 39&#45;&gt;42 -->
<g id="edge35" class="edge">
<title>39&#45;&gt;42</title>
<path fill="none" stroke="black" d="M982.36,-1312.24C976.43,-1307.25 970.87,-1301.28 967.22,-1294.5 935.72,-1235.8 941.43,-1152.67 945.75,-1117.38"/>
<polygon fill="black" stroke="black" points="949.17,-1118.24 947.05,-1107.85 942.23,-1117.29 949.17,-1118.24"/>
<text text-anchor="middle" x="979.26" y="-1227.2" font-family="Times New Roman,serif" font-size="14.00">merge2#41</text>
</g>
<!-- 41 -->
<g id="node20" class="node">
<title>41</title>
<polygon fill="aquamarine" stroke="black" points="1019.22,-1499.7 1012.02,-1492.5 1019.22,-1485.3 1026.42,-1492.5 1019.22,-1499.7"/>
<text text-anchor="middle" x="997.02" y="-1502.9" font-family="Times New Roman,serif" font-size="14.00">&lt;41&gt;</text>
</g>
<!-- 41&#45;&gt;36 -->
<g id="edge31" class="edge">
<title>41&#45;&gt;36</title>
<path fill="none" stroke="black" d="M1023.46,-1489.29C1047.46,-1476.76 1166.6,-1414.55 1208.01,-1392.92"/>
<polygon fill="black" stroke="black" points="1209.42,-1396.13 1216.67,-1388.4 1206.18,-1389.93 1209.42,-1396.13"/>
<text text-anchor="middle" x="1175.89" y="-1433.45" font-family="Times New Roman,serif" font-size="14.00">split1#38</text>
</g>
<!-- 41&#45;&gt;39 -->
<g id="edge33" class="edge">
<title>41&#45;&gt;39</title>
<path fill="none" stroke="black" d="M1018.86,-1485.03C1017.69,-1464.3 1014,-1398.63 1011.84,-1360.22"/>
<polygon fill="black" stroke="black" points="1015.34,-1360.1 1011.28,-1350.31 1008.35,-1360.49 1015.34,-1360.1"/>
<text text-anchor="middle" x="1042.24" y="-1433.45" font-family="Times New Roman,serif" font-size="14.00">split2#39</text>
</g>
<!-- 47 -->
<g id="node24" class="node">
<title>47</title>
<polygon fill="aquamarine" stroke="black" points="806.22,-1018.2 799.02,-1011 806.22,-1003.8 813.42,-1011 806.22,-1018.2"/>
<text text-anchor="middle" x="814.02" y="-1021.4" font-family="Times New Roman,serif" font-size="14.00">&lt;47&gt;</text>
</g>
<!-- 42&#45;&gt;47 -->
<g id="edge38" class="edge">
<title>42&#45;&gt;47</title>
<path fill="none" stroke="black" d="M944.13,-1096C925.82,-1084.85 851.05,-1039.3 819.92,-1020.34"/>
<polygon fill="black" stroke="black" points="821.99,-1017.51 811.63,-1015.29 818.35,-1023.48 821.99,-1017.51"/>
<text text-anchor="middle" x="920.69" y="-1050.2" font-family="Times New Roman,serif" font-size="14.00">merge1#48</text>
</g>
<!-- 44 -->
<g id="node22" class="node">
<title>44</title>
<polygon fill="yellow" stroke="black" points="996.35,-1456.5 618.1,-1456.5 618.1,-1420.5 996.35,-1420.5 996.35,-1456.5"/>
<text text-anchor="middle" x="807.22" y="-1433.45" font-family="Times New Roman,serif" font-size="14.00">self.data.getDimensionSizes(3) &lt;&gt; arg.data.getDimensionSizes(3)</text>
<text text-anchor="middle" x="606.85" y="-1459.7" font-family="Times New Roman,serif" font-size="14.00">[44]</text>
</g>
<!-- 44&#45;&gt;47 -->
<g id="edge39" class="edge">
<title>44&#45;&gt;47</title>
<path fill="none" stroke="black" d="M806.96,-1420.24C806.66,-1399.26 806.22,-1362.79 806.22,-1331.5 806.22,-1331.5 806.22,-1331.5 806.22,-1098.5 806.22,-1074.92 806.22,-1047.73 806.22,-1030.22"/>
<polygon fill="black" stroke="black" points="809.72,-1030.24 806.22,-1020.24 802.72,-1030.24 809.72,-1030.24"/>
<text text-anchor="middle" x="836.97" y="-1227.2" font-family="Times New Roman,serif" font-size="14.00">merge2#49</text>
</g>
<!-- 46&#45;&gt;41 -->
<g id="edge36" class="edge">
<title>46&#45;&gt;41</title>
<path fill="none" stroke="black" d="M812.05,-1578.03C837.91,-1567.48 960.52,-1517.45 1003.94,-1499.74"/>
<polygon fill="black" stroke="black" points="1005.16,-1503.02 1013.1,-1496 1002.51,-1496.54 1005.16,-1503.02"/>
<text text-anchor="middle" x="957.34" y="-1531.7" font-family="Times New Roman,serif" font-size="14.00">split1#46</text>
</g>
<!-- 46&#45;&gt;44 -->
<g id="edge37" class="edge">
<title>46&#45;&gt;44</title>
<path fill="none" stroke="black" d="M807.22,-1573.22C807.22,-1554.57 807.22,-1501.66 807.22,-1468.26"/>
<polygon fill="black" stroke="black" points="810.72,-1468.45 807.22,-1458.45 803.72,-1468.45 810.72,-1468.45"/>
<text text-anchor="middle" x="832.35" y="-1531.7" font-family="Times New Roman,serif" font-size="14.00">split2#47</text>
</g>
<!-- 47&#45;&gt;28 -->
<g id="edge17" class="edge">
<title>47&#45;&gt;28</title>
<path fill="none" stroke="black" d="M805.23,-1004.27C802.48,-988.41 794.45,-942.53 787.22,-904.5 786.83,-902.44 786.42,-900.32 786.01,-898.18"/>
<polygon fill="black" stroke="black" points="789.45,-897.55 784.07,-888.42 782.58,-898.91 789.45,-897.55"/>
<text text-anchor="middle" x="840.56" y="-961.7" font-family="Times New Roman,serif" font-size="14.00">graphAnd#151</text>
</g>
<!-- 52 -->
<g id="node26" class="node">
<title>52</title>
<polygon fill="yellow" stroke="black" points="752.22,-1510.5 382.22,-1510.5 382.22,-1474.5 752.22,-1474.5 752.22,-1510.5"/>
<text text-anchor="middle" x="567.22" y="-1487.45" font-family="Times New Roman,serif" font-size="14.00">self.data.getDimensionSizes(1) = arg.data.getDimensionSizes(1)</text>
<text text-anchor="middle" x="370.97" y="-1513.7" font-family="Times New Roman,serif" font-size="14.00">[52]</text>
</g>
<!-- 49&#45;&gt;52 -->
<g id="edge40" class="edge">
<title>49&#45;&gt;52</title>
<path fill="none" stroke="black" d="M600.93,-1562.91C595.15,-1551.02 587.33,-1534.91 580.67,-1521.2"/>
<polygon fill="black" stroke="black" points="583.83,-1519.68 576.31,-1512.21 577.53,-1522.74 583.83,-1519.68"/>
<text text-anchor="middle" x="629.11" y="-1531.7" font-family="Times New Roman,serif" font-size="14.00">graphAnd#55</text>
</g>
<!-- 55 -->
<g id="node27" class="node">
<title>55</title>
<polygon fill="yellow" stroke="black" points="748.22,-1402.5 378.22,-1402.5 378.22,-1366.5 748.22,-1366.5 748.22,-1402.5"/>
<text text-anchor="middle" x="563.22" y="-1379.45" font-family="Times New Roman,serif" font-size="14.00">self.data.getDimensionSizes(2) = arg.data.getDimensionSizes(2)</text>
<text text-anchor="middle" x="366.97" y="-1405.7" font-family="Times New Roman,serif" font-size="14.00">[55]</text>
</g>
<!-- 52&#45;&gt;55 -->
<g id="edge41" class="edge">
<title>52&#45;&gt;55</title>
<path fill="none" stroke="black" d="M546.53,-1474.09C541.84,-1468.96 537.5,-1462.97 534.97,-1456.5 529.15,-1441.6 529.64,-1435.59 534.97,-1420.5 535.99,-1417.63 537.35,-1414.82 538.92,-1412.13"/>
<polygon fill="black" stroke="black" points="541.63,-1414.37 544.49,-1404.17 535.89,-1410.36 541.63,-1414.37"/>
<text text-anchor="middle" x="572.1" y="-1433.45" font-family="Times New Roman,serif" font-size="14.00">graphAnd#58</text>
</g>
<!-- 58 -->
<g id="node28" class="node">
<title>58</title>
<polygon fill="yellow" stroke="black" points="766.22,-1294.5 396.22,-1294.5 396.22,-1258.5 766.22,-1258.5 766.22,-1294.5"/>
<text text-anchor="middle" x="581.22" y="-1271.45" font-family="Times New Roman,serif" font-size="14.00">self.data.getDimensionSizes(3) = arg.data.getDimensionSizes(3)</text>
<text text-anchor="middle" x="384.97" y="-1297.7" font-family="Times New Roman,serif" font-size="14.00">[58]</text>
</g>
<!-- 55&#45;&gt;58 -->
<g id="edge42" class="edge">
<title>55&#45;&gt;58</title>
<path fill="none" stroke="black" d="M566.12,-1366.47C568.88,-1350.19 573.1,-1325.32 576.38,-1306.02"/>
<polygon fill="black" stroke="black" points="579.8,-1306.78 578.03,-1296.33 572.9,-1305.61 579.8,-1306.78"/>
<text text-anchor="middle" x="612.01" y="-1325.45" font-family="Times New Roman,serif" font-size="14.00">graphAnd#61</text>
</g>
<!-- 61 -->
<g id="node29" class="node">
<title>61</title>
<polygon fill="yellow" stroke="black" points="742.35,-1206 430.1,-1206 430.1,-1170 742.35,-1170 742.35,-1206"/>
<text text-anchor="middle" x="586.22" y="-1182.95" font-family="Times New Roman,serif" font-size="14.00">self.data.getDimension() = result.data.getDimension()</text>
<text text-anchor="middle" x="418.85" y="-1209.2" font-family="Times New Roman,serif" font-size="14.00">[61]</text>
</g>
<!-- 58&#45;&gt;61 -->
<g id="edge18" class="edge">
<title>58&#45;&gt;61</title>
<path fill="none" stroke="black" d="M582.21,-1258.41C582.89,-1246.76 583.79,-1231.05 584.58,-1217.52"/>
<polygon fill="black" stroke="black" points="588.05,-1218.05 585.13,-1207.86 581.06,-1217.64 588.05,-1218.05"/>
<text text-anchor="middle" x="624.67" y="-1227.2" font-family="Times New Roman,serif" font-size="14.00">graphAnd#152</text>
</g>
<!-- 64 -->
<g id="node30" class="node">
<title>64</title>
<polygon fill="yellow" stroke="black" points="778.6,-1117.5 395.85,-1117.5 395.85,-1081.5 778.6,-1081.5 778.6,-1117.5"/>
<text text-anchor="middle" x="587.22" y="-1094.45" font-family="Times New Roman,serif" font-size="14.00">self.data.getDimensionSizes(1) = result.data.getDimensionSizes(1)</text>
<text text-anchor="middle" x="384.6" y="-1120.7" font-family="Times New Roman,serif" font-size="14.00">[64]</text>
</g>
<!-- 61&#45;&gt;64 -->
<g id="edge43" class="edge">
<title>61&#45;&gt;64</title>
<path fill="none" stroke="black" d="M586.42,-1169.91C586.56,-1158.26 586.74,-1142.55 586.89,-1129.02"/>
<polygon fill="black" stroke="black" points="590.39,-1129.4 587.01,-1119.36 583.39,-1129.32 590.39,-1129.4"/>
<text text-anchor="middle" x="623.94" y="-1138.7" font-family="Times New Roman,serif" font-size="14.00">graphAnd#66</text>
</g>
<!-- 67 -->
<g id="node31" class="node">
<title>67</title>
<polygon fill="yellow" stroke="black" points="778.6,-1029 395.85,-1029 395.85,-993 778.6,-993 778.6,-1029"/>
<text text-anchor="middle" x="587.22" y="-1005.95" font-family="Times New Roman,serif" font-size="14.00">self.data.getDimensionSizes(2) = result.data.getDimensionSizes(2)</text>
<text text-anchor="middle" x="384.6" y="-1032.2" font-family="Times New Roman,serif" font-size="14.00">[67]</text>
</g>
<!-- 64&#45;&gt;67 -->
<g id="edge44" class="edge">
<title>64&#45;&gt;67</title>
<path fill="none" stroke="black" d="M587.22,-1081.41C587.22,-1069.76 587.22,-1054.05 587.22,-1040.52"/>
<polygon fill="black" stroke="black" points="590.72,-1040.86 587.22,-1030.86 583.72,-1040.86 590.72,-1040.86"/>
<text text-anchor="middle" x="624.35" y="-1050.2" font-family="Times New Roman,serif" font-size="14.00">graphAnd#69</text>
</g>
<!-- 70 -->
<g id="node32" class="node">
<title>70</title>
<polygon fill="yellow" stroke="black" points="778.6,-940.5 395.85,-940.5 395.85,-904.5 778.6,-904.5 778.6,-940.5"/>
<text text-anchor="middle" x="587.22" y="-917.45" font-family="Times New Roman,serif" font-size="14.00">self.data.getDimensionSizes(3) = result.data.getDimensionSizes(3)</text>
<text text-anchor="middle" x="384.6" y="-943.7" font-family="Times New Roman,serif" font-size="14.00">[70]</text>
</g>
<!-- 67&#45;&gt;70 -->
<g id="edge45" class="edge">
<title>67&#45;&gt;70</title>
<path fill="none" stroke="black" d="M587.22,-992.91C587.22,-981.26 587.22,-965.55 587.22,-952.02"/>
<polygon fill="black" stroke="black" points="590.72,-952.36 587.22,-942.36 583.72,-952.36 590.72,-952.36"/>
<text text-anchor="middle" x="624.35" y="-961.7" font-family="Times New Roman,serif" font-size="14.00">graphAnd#72</text>
</g>
<!-- 73 -->
<g id="node33" class="node">
<title>73</title>
<polygon fill="yellow" stroke="black" points="714.85,-832.5 501.6,-832.5 501.6,-796.5 714.85,-796.5 714.85,-832.5"/>
<text text-anchor="middle" x="608.22" y="-809.45" font-family="Times New Roman,serif" font-size="14.00">d1 = arg.data.getDimensionSizes(1)</text>
<text text-anchor="middle" x="490.35" y="-835.7" font-family="Times New Roman,serif" font-size="14.00">[73]</text>
</g>
<!-- 70&#45;&gt;73 -->
<g id="edge16" class="edge">
<title>70&#45;&gt;73</title>
<path fill="none" stroke="black" d="M590.6,-904.47C593.82,-888.19 598.75,-863.32 602.57,-844.02"/>
<polygon fill="black" stroke="black" points="605.98,-844.81 604.49,-834.33 599.12,-843.45 605.98,-844.81"/>
<text text-anchor="middle" x="641.33" y="-863.45" font-family="Times New Roman,serif" font-size="14.00">graphAnd#150</text>
</g>
<!-- 76 -->
<g id="node34" class="node">
<title>76</title>
<polygon fill="yellow" stroke="black" points="726.85,-744 513.6,-744 513.6,-708 726.85,-708 726.85,-744"/>
<text text-anchor="middle" x="620.22" y="-720.95" font-family="Times New Roman,serif" font-size="14.00">d2 = arg.data.getDimensionSizes(2)</text>
<text text-anchor="middle" x="502.35" y="-747.2" font-family="Times New Roman,serif" font-size="14.00">[76]</text>
</g>
<!-- 73&#45;&gt;76 -->
<g id="edge46" class="edge">
<title>73&#45;&gt;76</title>
<path fill="none" stroke="black" d="M610.59,-796.41C612.21,-784.76 614.39,-769.05 616.27,-755.52"/>
<polygon fill="black" stroke="black" points="619.7,-756.24 617.61,-745.85 612.77,-755.27 619.7,-756.24"/>
<text text-anchor="middle" x="652.42" y="-765.2" font-family="Times New Roman,serif" font-size="14.00">graphAnd#79</text>
</g>
<!-- 79 -->
<g id="node35" class="node">
<title>79</title>
<polygon fill="yellow" stroke="black" points="735.85,-655.5 522.6,-655.5 522.6,-619.5 735.85,-619.5 735.85,-655.5"/>
<text text-anchor="middle" x="629.22" y="-632.45" font-family="Times New Roman,serif" font-size="14.00">d3 = arg.data.getDimensionSizes(3)</text>
<text text-anchor="middle" x="511.35" y="-658.7" font-family="Times New Roman,serif" font-size="14.00">[79]</text>
</g>
<!-- 76&#45;&gt;79 -->
<g id="edge47" class="edge">
<title>76&#45;&gt;79</title>
<path fill="none" stroke="black" d="M622,-707.91C623.21,-696.26 624.85,-680.55 626.26,-667.02"/>
<polygon fill="black" stroke="black" points="629.71,-667.66 627.26,-657.36 622.75,-666.94 629.71,-667.66"/>
<text text-anchor="middle" x="662.65" y="-676.7" font-family="Times New Roman,serif" font-size="14.00">graphAnd#80</text>
</g>
<!-- 85 -->
<g id="node37" class="node">
<title>85</title>
<polygon fill="yellow" stroke="black" points="638.6,-567 567.85,-567 567.85,-531 638.6,-531 638.6,-567"/>
<text text-anchor="middle" x="603.22" y="-543.95" font-family="Times New Roman,serif" font-size="14.00">acc = true</text>
<text text-anchor="middle" x="556.6" y="-570.2" font-family="Times New Roman,serif" font-size="14.00">[85]</text>
</g>
<!-- 79&#45;&gt;85 -->
<g id="edge15" class="edge">
<title>79&#45;&gt;85</title>
<path fill="none" stroke="black" d="M624.09,-619.41C620.55,-607.64 615.77,-591.73 611.67,-578.11"/>
<polygon fill="black" stroke="black" points="615.11,-577.37 608.87,-568.8 608.4,-579.38 615.11,-577.37"/>
<text text-anchor="middle" x="659.05" y="-588.2" font-family="Times New Roman,serif" font-size="14.00">graphAnd#149</text>
</g>
<!-- 82 -->
<g id="node36" class="node">
<title>82</title>
<polygon fill="yellow" stroke="black" points="597.22,-478.5 521.22,-478.5 521.22,-442.5 597.22,-442.5 597.22,-478.5"/>
<text text-anchor="middle" x="559.22" y="-455.45" font-family="Times New Roman,serif" font-size="14.00">Index0 = 1</text>
<text text-anchor="middle" x="509.97" y="-481.7" font-family="Times New Roman,serif" font-size="14.00">[82]</text>
</g>
<!-- 82&#45;&gt;140 -->
<g id="edge14" class="edge">
<title>82&#45;&gt;140</title>
<path fill="none" stroke="black" d="M536.23,-442.2C512.34,-424.23 475.84,-396.78 456.79,-382.45"/>
<polygon fill="black" stroke="black" points="459.12,-379.82 449.02,-376.61 454.91,-385.42 459.12,-379.82"/>
<text text-anchor="middle" x="552.52" y="-411.2" font-family="Times New Roman,serif" font-size="14.00">graphAnd#148</text>
</g>
<!-- 85&#45;&gt;82 -->
<g id="edge48" class="edge">
<title>85&#45;&gt;82</title>
<path fill="none" stroke="black" d="M594.53,-530.91C588.42,-518.9 580.13,-502.59 573.11,-488.8"/>
<polygon fill="black" stroke="black" points="576.39,-487.53 568.74,-480.2 570.15,-490.7 576.39,-487.53"/>
<text text-anchor="middle" x="622.29" y="-499.7" font-family="Times New Roman,serif" font-size="14.00">graphAnd#85</text>
</g>
<!-- 88&#45;&gt;151 -->
<g id="edge28" class="edge">
<title>88&#45;&gt;151</title>
<path fill="none" stroke="black" d="M520.9,-265.1C574.84,-245.41 659.69,-214.44 694.52,-201.73"/>
<polygon fill="black" stroke="black" points="695.63,-205.05 703.82,-198.34 693.23,-198.48 695.63,-205.05"/>
<text text-anchor="middle" x="647.08" y="-234.2" font-family="Times New Roman,serif" font-size="14.00">merge1#164</text>
</g>
<!-- 94 -->
<g id="node40" class="node">
<title>94</title>
<polygon fill="yellow" stroke="black" points="319.35,-213 187.1,-213 187.1,-177 319.35,-177 319.35,-213"/>
<text text-anchor="middle" x="253.22" y="-189.95" font-family="Times New Roman,serif" font-size="14.00">it = Sequence{1..d1}</text>
<text text-anchor="middle" x="175.85" y="-216.2" font-family="Times New Roman,serif" font-size="14.00">[94]</text>
</g>
<!-- 91&#45;&gt;94 -->
<g id="edge8" class="edge">
<title>91&#45;&gt;94</title>
<path fill="none" stroke="black" d="M301.37,-265.41C292.88,-253.17 281.28,-236.45 271.6,-222.49"/>
<polygon fill="black" stroke="black" points="274.7,-220.82 266.12,-214.59 268.94,-224.81 274.7,-220.82"/>
<text text-anchor="middle" x="329.1" y="-234.2" font-family="Times New Roman,serif" font-size="14.00">graphAnd#140</text>
</g>
<!-- 100 -->
<g id="node42" class="node">
<title>100</title>
<polygon fill="yellow" stroke="black" points="264.97,-124.5 187.47,-124.5 187.47,-88.5 264.97,-88.5 264.97,-124.5"/>
<text text-anchor="middle" x="226.22" y="-101.45" font-family="Times New Roman,serif" font-size="14.00">acc2 = true</text>
<text text-anchor="middle" x="172.85" y="-127.7" font-family="Times New Roman,serif" font-size="14.00">[100]</text>
</g>
<!-- 94&#45;&gt;100 -->
<g id="edge9" class="edge">
<title>94&#45;&gt;100</title>
<path fill="none" stroke="black" d="M247.89,-176.91C244.22,-165.14 239.25,-149.23 235,-135.61"/>
<polygon fill="black" stroke="black" points="238.41,-134.8 232.09,-126.29 231.73,-136.88 238.41,-134.8"/>
<text text-anchor="middle" x="282.64" y="-145.7" font-family="Times New Roman,serif" font-size="14.00">graphAnd#141</text>
</g>
<!-- 97 -->
<g id="node41" class="node">
<title>97</title>
<polygon fill="yellow" stroke="black" points="139.22,-36 63.22,-36 63.22,0 139.22,0 139.22,-36"/>
<text text-anchor="middle" x="101.22" y="-12.95" font-family="Times New Roman,serif" font-size="14.00">Index1 = 1</text>
<text text-anchor="middle" x="51.97" y="-39.2" font-family="Times New Roman,serif" font-size="14.00">[97]</text>
</g>
<!-- 97&#45;&gt;136 -->
<g id="edge7" class="edge">
<title>97&#45;&gt;136</title>
<path fill="none" stroke="black" d="M96.07,-36.39C91.4,-53.73 85.22,-81.22 85.22,-105.5 85.22,-284.5 85.22,-284.5 85.22,-284.5 85.22,-413.04 93.32,-567.83 96.21,-619.08"/>
<polygon fill="black" stroke="black" points="92.7,-618.96 96.76,-628.74 99.68,-618.56 92.7,-618.96"/>
<text text-anchor="middle" x="126.1" y="-322.7" font-family="Times New Roman,serif" font-size="14.00">graphAnd#137</text>
</g>
<!-- 100&#45;&gt;97 -->
<g id="edge49" class="edge">
<title>100&#45;&gt;97</title>
<path fill="none" stroke="black" d="M201.23,-88.2C182.41,-75.18 156.39,-57.17 135.61,-42.79"/>
<polygon fill="black" stroke="black" points="137.64,-39.94 127.42,-37.13 133.65,-45.7 137.64,-39.94"/>
<text text-anchor="middle" x="212.04" y="-57.2" font-family="Times New Roman,serif" font-size="14.00">graphAnd#96</text>
</g>
<!-- 103&#45;&gt;138 -->
<g id="edge10" class="edge">
<title>103&#45;&gt;138</title>
<path fill="none" stroke="black" d="M350.15,-530.91C354.23,-519.14 359.75,-503.23 364.47,-489.61"/>
<polygon fill="black" stroke="black" points="367.74,-490.87 367.71,-480.28 361.13,-488.58 367.74,-490.87"/>
<text text-anchor="middle" x="402.41" y="-499.7" font-family="Times New Roman,serif" font-size="14.00">graphAnd#142</text>
</g>
<!-- 109 -->
<g id="node45" class="node">
<title>109</title>
<polygon fill="yellow" stroke="black" points="263.72,-478.5 124.72,-478.5 124.72,-442.5 263.72,-442.5 263.72,-478.5"/>
<text text-anchor="middle" x="194.22" y="-455.45" font-family="Times New Roman,serif" font-size="14.00">it2 = Sequence{1..d2}</text>
<text text-anchor="middle" x="110.1" y="-481.7" font-family="Times New Roman,serif" font-size="14.00">[109]</text>
</g>
<!-- 106&#45;&gt;109 -->
<g id="edge1" class="edge">
<title>106&#45;&gt;109</title>
<path fill="none" stroke="black" d="M191.82,-530.91C192.22,-519.26 192.77,-503.55 193.23,-490.02"/>
<polygon fill="black" stroke="black" points="196.72,-490.48 193.57,-480.36 189.72,-490.24 196.72,-490.48"/>
<text text-anchor="middle" x="233.49" y="-499.7" font-family="Times New Roman,serif" font-size="14.00">graphAnd#129</text>
</g>
<!-- 115 -->
<g id="node47" class="node">
<title>115</title>
<polygon fill="yellow" stroke="black" points="248.97,-390 171.47,-390 171.47,-354 248.97,-354 248.97,-390"/>
<text text-anchor="middle" x="210.22" y="-366.95" font-family="Times New Roman,serif" font-size="14.00">acc3 = true</text>
<text text-anchor="middle" x="156.85" y="-393.2" font-family="Times New Roman,serif" font-size="14.00">[115]</text>
</g>
<!-- 109&#45;&gt;115 -->
<g id="edge2" class="edge">
<title>109&#45;&gt;115</title>
<path fill="none" stroke="black" d="M197.38,-442.41C199.54,-430.76 202.45,-415.05 204.95,-401.52"/>
<polygon fill="black" stroke="black" points="208.36,-402.31 206.74,-391.84 201.48,-401.04 208.36,-402.31"/>
<text text-anchor="middle" x="244.16" y="-411.2" font-family="Times New Roman,serif" font-size="14.00">graphAnd#130</text>
</g>
<!-- 112 -->
<g id="node46" class="node">
<title>112</title>
<polygon fill="yellow" stroke="black" points="223.22,-301.5 147.22,-301.5 147.22,-265.5 223.22,-265.5 223.22,-301.5"/>
<text text-anchor="middle" x="185.22" y="-278.45" font-family="Times New Roman,serif" font-size="14.00">Index2 = 1</text>
<text text-anchor="middle" x="132.6" y="-304.7" font-family="Times New Roman,serif" font-size="14.00">[112]</text>
</g>
<!-- 112&#45;&gt;132 -->
<g id="edge57" class="edge">
<title>112&#45;&gt;132</title>
<path fill="none" stroke="black" d="M180.76,-301.81C177.73,-312.11 173.18,-325.22 167.22,-336 137.93,-389 115.91,-392.17 82.22,-442.5 41.94,-502.68 22.04,-515.07 3.22,-585 -2.72,-607.11 2.22,-613.61 2.22,-636.5 2.22,-815.5 2.22,-815.5 2.22,-815.5 2.22,-891.22 121.3,-913.8 166.82,-919.66"/>
<polygon fill="black" stroke="black" points="166.33,-923.13 176.66,-920.79 167.13,-916.17 166.33,-923.13"/>
<text text-anchor="middle" x="43.72" y="-588.2" font-family="Times New Roman,serif" font-size="14.00">graphAnd#126</text>
</g>
<!-- 115&#45;&gt;112 -->
<g id="edge50" class="edge">
<title>115&#45;&gt;112</title>
<path fill="none" stroke="black" d="M205.28,-353.91C201.88,-342.14 197.28,-326.23 193.35,-312.61"/>
<polygon fill="black" stroke="black" points="196.8,-311.94 190.66,-303.3 190.07,-313.88 196.8,-311.94"/>
<text text-anchor="middle" x="240.46" y="-322.7" font-family="Times New Roman,serif" font-size="14.00">graphAnd#107</text>
</g>
<!-- 118&#45;&gt;134 -->
<g id="edge3" class="edge">
<title>118&#45;&gt;134</title>
<path fill="none" stroke="black" d="M100.24,-796.41C99.56,-784.76 98.65,-769.05 97.87,-755.52"/>
<polygon fill="black" stroke="black" points="101.39,-755.64 97.31,-745.86 94.4,-756.05 101.39,-755.64"/>
<text text-anchor="middle" x="139.67" y="-765.2" font-family="Times New Roman,serif" font-size="14.00">graphAnd#131</text>
</g>
<!-- 124 -->
<g id="node50" class="node">
<title>124</title>
<polygon fill="yellow" stroke="black" points="317.72,-744 178.72,-744 178.72,-708 317.72,-708 317.72,-744"/>
<text text-anchor="middle" x="248.22" y="-720.95" font-family="Times New Roman,serif" font-size="14.00">it3 = Sequence{1..d3}</text>
<text text-anchor="middle" x="164.1" y="-747.2" font-family="Times New Roman,serif" font-size="14.00">[124]</text>
</g>
<!-- 121&#45;&gt;124 -->
<g id="edge51" class="edge">
<title>121&#45;&gt;124</title>
<path fill="none" stroke="black" d="M245.01,-796.41C245.55,-784.76 246.28,-769.05 246.9,-755.52"/>
<polygon fill="black" stroke="black" points="250.39,-756.01 247.35,-745.86 243.39,-755.69 250.39,-756.01"/>
<text text-anchor="middle" x="287.08" y="-765.2" font-family="Times New Roman,serif" font-size="14.00">graphAnd#118</text>
</g>
<!-- 127 -->
<g id="node51" class="node">
<title>127</title>
<polygon fill="yellow" stroke="black" points="504.22,-655.5 122.22,-655.5 122.22,-619.5 504.22,-619.5 504.22,-655.5"/>
<text text-anchor="middle" x="313.22" y="-632.45" font-family="Times New Roman,serif" font-size="14.00">result.data[it][it2][it3] = self.data[it][it2][it3] + arg.data[it][it2][it3]</text>
<text text-anchor="middle" x="107.6" y="-658.7" font-family="Times New Roman,serif" font-size="14.00">[127]</text>
</g>
<!-- 124&#45;&gt;127 -->
<g id="edge52" class="edge">
<title>124&#45;&gt;127</title>
<path fill="none" stroke="black" d="M245.25,-707.52C244.37,-696.91 244.97,-683.53 251.22,-673.5 253.73,-669.49 256.86,-665.89 260.39,-662.68"/>
<polygon fill="black" stroke="black" points="262.25,-665.67 268.02,-656.79 257.97,-660.13 262.25,-665.67"/>
<text text-anchor="middle" x="291.72" y="-676.7" font-family="Times New Roman,serif" font-size="14.00">graphAnd#119</text>
</g>
<!-- 127&#45;&gt;130 -->
<g id="edge53" class="edge">
<title>127&#45;&gt;130</title>
<path fill="none" stroke="black" d="M324.21,-655.98C333.81,-672.95 346.22,-699.77 346.22,-725 346.22,-923.5 346.22,-923.5 346.22,-923.5 346.22,-948.12 328.98,-969.88 311.86,-985.42"/>
<polygon fill="black" stroke="black" points="310.02,-982.39 304.69,-991.54 314.57,-987.71 310.02,-982.39"/>
<text text-anchor="middle" x="386.72" y="-809.45" font-family="Times New Roman,serif" font-size="14.00">graphAnd#120</text>
</g>
</g>
</svg>
