<?xml version="1.0" encoding="UTF-8" standalone="no"?>
<!DOCTYPE svg PUBLIC "-//W3C//DTD SVG 1.1//EN"
 "http://www.w3.org/Graphics/SVG/1.1/DTD/svg11.dtd">
<!-- Generated by graphviz version 12.2.1 (20241206.2353)
 -->
<!-- Title: CLG Pages: 1 -->
<svg width="802pt" height="1077pt"
 viewBox="0.00 0.00 802.00 1076.70" xmlns="http://www.w3.org/2000/svg" xmlns:xlink="http://www.w3.org/1999/xlink">
<g id="graph0" class="graph" transform="scale(1 1) rotate(0) translate(4 1072.7)">
<title>CLG</title>
<polygon fill="white" stroke="none" points="-4,4 -4,-1072.7 798,-1072.7 798,4 -4,4"/>
<!-- 34 -->
<g id="node1" class="node">
<title>34</title>
<polygon fill="yellow" stroke="black" points="637,-545.4 566.25,-545.4 566.25,-509.4 637,-509.4 637,-545.4"/>
<text text-anchor="middle" x="601.62" y="-522.35" font-family="Times New Roman,serif" font-size="14.00">acc = true</text>
<text text-anchor="middle" x="555" y="-548.6" font-family="Times New Roman,serif" font-size="14.00">[34]</text>
</g>
<!-- 31 -->
<g id="node18" class="node">
<title>31</title>
<polygon fill="yellow" stroke="black" points="631.88,-456.9 569.38,-456.9 569.38,-420.9 631.88,-420.9 631.88,-456.9"/>
<text text-anchor="middle" x="600.62" y="-433.85" font-family="Times New Roman,serif" font-size="14.00">idx0 = 1</text>
<text text-anchor="middle" x="558.12" y="-460.1" font-family="Times New Roman,serif" font-size="14.00">[31]</text>
</g>
<!-- 34&#45;&gt;31 -->
<g id="edge19" class="edge">
<title>34&#45;&gt;31</title>
<path fill="none" stroke="black" d="M601.43,-509.31C601.29,-497.66 601.11,-481.95 600.95,-468.42"/>
<polygon fill="black" stroke="black" points="604.46,-468.72 600.84,-458.76 597.46,-468.8 604.46,-468.72"/>
<text text-anchor="middle" x="638.34" y="-478.1" font-family="Times New Roman,serif" font-size="14.00">graphAnd#25</text>
</g>
<!-- 37 -->
<g id="node2" class="node">
<title>37</title>
<polygon fill="yellow" stroke="black" points="510.5,-301.5 388.75,-301.5 388.75,-265.5 510.5,-265.5 510.5,-301.5"/>
<text text-anchor="middle" x="449.62" y="-278.45" font-family="Times New Roman,serif" font-size="14.00">idx0 &gt; dim1 &#45; 1+ 1</text>
<text text-anchor="middle" x="377.5" y="-304.7" font-family="Times New Roman,serif" font-size="14.00">[37]</text>
</g>
<!-- 56 -->
<g id="node15" class="node">
<title>56</title>
<polygon fill="aquamarine" stroke="black" points="393.62,-202.2 386.43,-195 393.62,-187.8 400.82,-195 393.62,-202.2"/>
<text text-anchor="middle" x="371.43" y="-205.4" font-family="Times New Roman,serif" font-size="14.00">&lt;56&gt;</text>
</g>
<!-- 37&#45;&gt;56 -->
<g id="edge15" class="edge">
<title>37&#45;&gt;56</title>
<path fill="none" stroke="black" d="M438.56,-265.41C427.89,-248.93 411.97,-224.34 402.22,-209.28"/>
<polygon fill="black" stroke="black" points="405.35,-207.68 396.98,-201.19 399.48,-211.48 405.35,-207.68"/>
<text text-anchor="middle" x="457.39" y="-234.2" font-family="Times New Roman,serif" font-size="14.00">merge1#54</text>
</g>
<!-- 40 -->
<g id="node3" class="node">
<title>40</title>
<polygon fill="yellow" stroke="black" points="663.62,-301.5 533.62,-301.5 533.62,-265.5 663.62,-265.5 663.62,-301.5"/>
<text text-anchor="middle" x="598.62" y="-278.45" font-family="Times New Roman,serif" font-size="14.00">idx0 &lt;= dim1 &#45; 1+ 1</text>
<text text-anchor="middle" x="522.38" y="-304.7" font-family="Times New Roman,serif" font-size="14.00">[40]</text>
</g>
<!-- 43 -->
<g id="node4" class="node">
<title>43</title>
<polygon fill="yellow" stroke="black" points="640.25,-213 493,-213 493,-177 640.25,-177 640.25,-213"/>
<text text-anchor="middle" x="566.62" y="-189.95" font-family="Times New Roman,serif" font-size="14.00">it = Sequence{1..dim1}</text>
<text text-anchor="middle" x="481.75" y="-216.2" font-family="Times New Roman,serif" font-size="14.00">[43]</text>
</g>
<!-- 40&#45;&gt;43 -->
<g id="edge1" class="edge">
<title>40&#45;&gt;43</title>
<path fill="none" stroke="black" d="M592.3,-265.41C587.95,-253.64 582.06,-237.73 577.02,-224.11"/>
<polygon fill="black" stroke="black" points="580.32,-222.93 573.57,-214.77 573.76,-225.36 580.32,-222.93"/>
<text text-anchor="middle" x="622.62" y="-234.2" font-family="Times New Roman,serif" font-size="14.00">graphAnd#36</text>
</g>
<!-- 46 -->
<g id="node5" class="node">
<title>46</title>
<polygon fill="yellow" stroke="black" points="677.88,-124.5 435.38,-124.5 435.38,-88.5 677.88,-88.5 677.88,-124.5"/>
<text text-anchor="middle" x="556.62" y="-101.45" font-family="Times New Roman,serif" font-size="14.00">result.data[it] = self.data[it] + arg.data[it]</text>
<text text-anchor="middle" x="424.12" y="-127.7" font-family="Times New Roman,serif" font-size="14.00">[46]</text>
</g>
<!-- 43&#45;&gt;46 -->
<g id="edge2" class="edge">
<title>43&#45;&gt;46</title>
<path fill="none" stroke="black" d="M564.65,-176.91C563.3,-165.26 561.49,-149.55 559.92,-136.02"/>
<polygon fill="black" stroke="black" points="563.43,-135.89 558.8,-126.35 556.48,-136.69 563.43,-135.89"/>
<text text-anchor="middle" x="599.65" y="-145.7" font-family="Times New Roman,serif" font-size="14.00">graphAnd#37</text>
</g>
<!-- 49 -->
<g id="node7" class="node">
<title>49</title>
<polygon fill="yellow" stroke="black" points="681.75,-36 579.5,-36 579.5,0 681.75,0 681.75,-36"/>
<text text-anchor="middle" x="630.62" y="-12.95" font-family="Times New Roman,serif" font-size="14.00">idx0 = idx0 + 1</text>
<text text-anchor="middle" x="568.25" y="-39.2" font-family="Times New Roman,serif" font-size="14.00">[49]</text>
</g>
<!-- 46&#45;&gt;49 -->
<g id="edge3" class="edge">
<title>46&#45;&gt;49</title>
<path fill="none" stroke="black" d="M571.25,-88.41C581.82,-76.05 596.3,-59.13 608.31,-45.08"/>
<polygon fill="black" stroke="black" points="610.96,-47.37 614.8,-37.5 605.64,-42.82 610.96,-47.37"/>
<text text-anchor="middle" x="637.38" y="-57.2" font-family="Times New Roman,serif" font-size="14.00">graphAnd#38</text>
</g>
<!-- 16 -->
<g id="node6" class="node">
<title>16</title>
<polygon fill="yellow" stroke="black" points="393.38,-687.9 267.88,-687.9 267.88,-651.9 393.38,-651.9 393.38,-687.9"/>
<text text-anchor="middle" x="330.62" y="-664.85" font-family="Times New Roman,serif" font-size="14.00">Result = &#39;Exception&#39;</text>
<text text-anchor="middle" x="256.62" y="-691.1" font-family="Times New Roman,serif" font-size="14.00">[16]</text>
</g>
<!-- 16&#45;&gt;56 -->
<g id="edge16" class="edge">
<title>16&#45;&gt;56</title>
<path fill="none" stroke="black" d="M336.41,-651.74C342.32,-632.65 350.62,-600.81 350.62,-572.65 350.62,-572.65 350.62,-572.65 350.62,-282.5 350.62,-253.34 370.46,-223.89 383.19,-207.99"/>
<polygon fill="black" stroke="black" points="385.76,-210.37 389.55,-200.48 380.42,-205.85 385.76,-210.37"/>
<text text-anchor="middle" x="381.38" y="-433.85" font-family="Times New Roman,serif" font-size="14.00">merge2#55</text>
</g>
<!-- 51 -->
<g id="node9" class="node">
<title>51</title>
<polygon fill="aquamarine" stroke="black" points="598.62,-368.4 591.42,-361.2 598.62,-354 605.83,-361.2 598.62,-368.4"/>
<text text-anchor="middle" x="576.42" y="-371.6" font-family="Times New Roman,serif" font-size="14.00">&lt;51&gt;</text>
</g>
<!-- 49&#45;&gt;51 -->
<g id="edge5" class="edge">
<title>49&#45;&gt;51</title>
<path fill="none" stroke="black" d="M659.41,-36.49C680.56,-51.77 705.62,-76.08 705.62,-105.5 705.62,-284.5 705.62,-284.5 705.62,-284.5 705.62,-328.11 645.66,-348.85 615.51,-356.52"/>
<polygon fill="black" stroke="black" points="614.8,-353.09 605.85,-358.76 616.38,-359.91 614.8,-353.09"/>
<text text-anchor="middle" x="732.62" y="-189.95" font-family="Times New Roman,serif" font-size="14.00">iterate#41</text>
</g>
<!-- 17 -->
<g id="node8" class="node">
<title>17</title>
<ellipse fill="black" stroke="black" cx="393.62" cy="-106.5" rx="7.2" ry="7.2"/>
<ellipse fill="none" stroke="black" cx="393.62" cy="-106.5" rx="11.2" ry="11.2"/>
<text text-anchor="middle" x="372.3" y="-120.9" font-family="Times New Roman,serif" font-size="14.00">[&#45;1]</text>
</g>
<!-- 51&#45;&gt;37 -->
<g id="edge6" class="edge">
<title>51&#45;&gt;37</title>
<path fill="none" stroke="black" d="M593.08,-359.14C579.93,-356.5 546.05,-348.87 520.38,-336 505.76,-328.68 490.94,-318.41 478.66,-308.98"/>
<polygon fill="black" stroke="black" points="481.01,-306.38 471,-302.92 476.67,-311.87 481.01,-306.38"/>
<text text-anchor="middle" x="557.5" y="-322.7" font-family="Times New Roman,serif" font-size="14.00">graphAnd#43</text>
</g>
<!-- 51&#45;&gt;40 -->
<g id="edge4" class="edge">
<title>51&#45;&gt;40</title>
<path fill="none" stroke="black" d="M598.62,-353.48C598.62,-344.4 598.62,-327.65 598.62,-312.93"/>
<polygon fill="black" stroke="black" points="602.13,-313.26 598.63,-303.26 595.13,-313.26 602.13,-313.26"/>
<text text-anchor="middle" x="625.62" y="-322.7" font-family="Times New Roman,serif" font-size="14.00">iterate#40</text>
</g>
<!-- 19 -->
<g id="node10" class="node">
<title>19</title>
<polygon fill="yellow" stroke="black" points="400.75,-840.4 22.5,-840.4 22.5,-799.4 400.75,-799.4 400.75,-840.4"/>
<text text-anchor="middle" x="211.62" y="-823.1" font-family="Times New Roman,serif" font-size="14.00">self.data.getDimension() &lt;&gt; arg.data.getDimension() or</text>
<text text-anchor="middle" x="211.62" y="-806.6" font-family="Times New Roman,serif" font-size="14.00">self.data.getDimensionSizes(1) &lt;&gt; arg.data.getDimensionSizes(1)</text>
<text text-anchor="middle" x="11.25" y="-843.6" font-family="Times New Roman,serif" font-size="14.00">[19]</text>
</g>
<!-- 19&#45;&gt;16 -->
<g id="edge10" class="edge">
<title>19&#45;&gt;16</title>
<path fill="none" stroke="black" d="M227.67,-798.94C248.85,-772.6 286.19,-726.17 309.6,-697.05"/>
<polygon fill="black" stroke="black" points="312.19,-699.41 315.73,-689.43 306.74,-695.03 312.19,-699.41"/>
<text text-anchor="middle" x="290.64" y="-768.1" font-family="Times New Roman,serif" font-size="14.00">graphAnd#47</text>
</g>
<!-- 52 -->
<g id="node11" class="node">
<title>52</title>
<ellipse fill="black" stroke="black" cx="406.62" cy="-1045" rx="7.2" ry="7.2"/>
<text text-anchor="middle" x="391.55" y="-1055.4" font-family="Times New Roman,serif" font-size="14.00">[0]</text>
</g>
<!-- 53 -->
<g id="node12" class="node">
<title>53</title>
<polygon fill="yellow" stroke="black" points="522.62,-1000.8 290.62,-1000.8 290.62,-959.8 522.62,-959.8 522.62,-1000.8"/>
<text text-anchor="middle" x="406.62" y="-983.5" font-family="Times New Roman,serif" font-size="14.00">self.data.getDimensionSizes(1) &gt; 0 and</text>
<text text-anchor="middle" x="406.62" y="-967" font-family="Times New Roman,serif" font-size="14.00">self.data.getDimensionSizes(1) &lt; 10</text>
<text text-anchor="middle" x="279.38" y="-1004" font-family="Times New Roman,serif" font-size="14.00">[53]</text>
</g>
<!-- 52&#45;&gt;53 -->
<g id="edge12" class="edge">
<title>52&#45;&gt;53</title>
<path fill="none" stroke="black" d="M406.62,-1037.76C406.62,-1031.73 406.62,-1022.11 406.62,-1012.51"/>
<polygon fill="black" stroke="black" points="410.13,-1012.57 406.63,-1002.57 403.13,-1012.57 410.13,-1012.57"/>
</g>
<!-- 55 -->
<g id="node14" class="node">
<title>55</title>
<polygon fill="aquamarine" stroke="black" points="406.62,-907.3 399.43,-900.1 406.62,-892.9 413.82,-900.1 406.62,-907.3"/>
<text text-anchor="middle" x="384.43" y="-910.5" font-family="Times New Roman,serif" font-size="14.00">&lt;55&gt;</text>
</g>
<!-- 53&#45;&gt;55 -->
<g id="edge18" class="edge">
<title>53&#45;&gt;55</title>
<path fill="none" stroke="black" d="M406.62,-959.57C406.62,-947.07 406.62,-931.05 406.62,-918.94"/>
<polygon fill="black" stroke="black" points="410.13,-919.2 406.63,-909.2 403.13,-919.2 410.13,-919.2"/>
<text text-anchor="middle" x="443.75" y="-928.5" font-family="Times New Roman,serif" font-size="14.00">graphAnd#57</text>
</g>
<!-- 22 -->
<g id="node13" class="node">
<title>22</title>
<polygon fill="yellow" stroke="black" points="788.62,-840.4 418.62,-840.4 418.62,-799.4 788.62,-799.4 788.62,-840.4"/>
<text text-anchor="middle" x="603.62" y="-823.1" font-family="Times New Roman,serif" font-size="14.00">self.data.getDimension() = arg.data.getDimension() and</text>
<text text-anchor="middle" x="603.62" y="-806.6" font-family="Times New Roman,serif" font-size="14.00">self.data.getDimensionSizes(1) = arg.data.getDimensionSizes(1)</text>
<text text-anchor="middle" x="407.38" y="-843.6" font-family="Times New Roman,serif" font-size="14.00">[22]</text>
</g>
<!-- 25 -->
<g id="node16" class="node">
<title>25</title>
<polygon fill="yellow" stroke="black" points="794,-746.9 411.25,-746.9 411.25,-705.9 794,-705.9 794,-746.9"/>
<text text-anchor="middle" x="602.62" y="-729.6" font-family="Times New Roman,serif" font-size="14.00">self.data.getDimension() = result.data.getDimension() and</text>
<text text-anchor="middle" x="602.62" y="-713.1" font-family="Times New Roman,serif" font-size="14.00">self.data.getDimensionSizes(1) = result.data.getDimensionSizes(1)</text>
<text text-anchor="middle" x="400" y="-750.1" font-family="Times New Roman,serif" font-size="14.00">[25]</text>
</g>
<!-- 22&#45;&gt;25 -->
<g id="edge11" class="edge">
<title>22&#45;&gt;25</title>
<path fill="none" stroke="black" d="M603.41,-799.05C603.28,-787.18 603.11,-771.84 602.96,-758.4"/>
<polygon fill="black" stroke="black" points="606.47,-758.69 602.86,-748.73 599.47,-758.77 606.47,-758.69"/>
<text text-anchor="middle" x="640.34" y="-768.1" font-family="Times New Roman,serif" font-size="14.00">graphAnd#48</text>
</g>
<!-- 55&#45;&gt;19 -->
<g id="edge14" class="edge">
<title>55&#45;&gt;19</title>
<path fill="none" stroke="black" d="M401.8,-897.17C383.99,-890.02 320.39,-864.52 271.59,-844.95"/>
<polygon fill="black" stroke="black" points="273.1,-841.78 262.52,-841.31 270.5,-848.28 273.1,-841.78"/>
<text text-anchor="middle" x="368.68" y="-861.6" font-family="Times New Roman,serif" font-size="14.00">split2#53</text>
</g>
<!-- 55&#45;&gt;22 -->
<g id="edge13" class="edge">
<title>55&#45;&gt;22</title>
<path fill="none" stroke="black" d="M411.49,-897.17C429.49,-890.02 493.74,-864.52 543.04,-844.95"/>
<polygon fill="black" stroke="black" points="544.22,-848.25 552.22,-841.31 541.63,-841.74 544.22,-848.25"/>
<text text-anchor="middle" x="530.25" y="-861.6" font-family="Times New Roman,serif" font-size="14.00">split1#52</text>
</g>
<!-- 56&#45;&gt;17 -->
<g id="edge17" class="edge">
<title>56&#45;&gt;17</title>
<path fill="none" stroke="black" d="M393.62,-187.21C393.62,-174.92 393.62,-148.49 393.62,-129.43"/>
<polygon fill="black" stroke="black" points="397.13,-129.44 393.63,-119.44 390.13,-129.44 397.13,-129.44"/>
<text text-anchor="middle" x="439.38" y="-145.7" font-family="Times New Roman,serif" font-size="14.00">graphOr_end#56</text>
</g>
<!-- 28 -->
<g id="node17" class="node">
<title>28</title>
<polygon fill="yellow" stroke="black" points="716.75,-633.9 488.5,-633.9 488.5,-597.9 716.75,-597.9 716.75,-633.9"/>
<text text-anchor="middle" x="602.62" y="-610.85" font-family="Times New Roman,serif" font-size="14.00">dim1 = arg.data.getDimensionSizes(1)</text>
<text text-anchor="middle" x="477.25" y="-637.1" font-family="Times New Roman,serif" font-size="14.00">[28]</text>
</g>
<!-- 25&#45;&gt;28 -->
<g id="edge9" class="edge">
<title>25&#45;&gt;28</title>
<path fill="none" stroke="black" d="M602.62,-705.5C602.62,-688.74 602.62,-664.54 602.62,-645.67"/>
<polygon fill="black" stroke="black" points="606.13,-645.68 602.63,-635.68 599.13,-645.68 606.13,-645.68"/>
<text text-anchor="middle" x="639.75" y="-664.85" font-family="Times New Roman,serif" font-size="14.00">graphAnd#46</text>
</g>
<!-- 28&#45;&gt;34 -->
<g id="edge8" class="edge">
<title>28&#45;&gt;34</title>
<path fill="none" stroke="black" d="M602.43,-597.81C602.29,-586.16 602.11,-570.45 601.95,-556.92"/>
<polygon fill="black" stroke="black" points="605.46,-557.22 601.84,-547.26 598.46,-557.3 605.46,-557.22"/>
<text text-anchor="middle" x="639.34" y="-566.6" font-family="Times New Roman,serif" font-size="14.00">graphAnd#45</text>
</g>
<!-- 31&#45;&gt;51 -->
<g id="edge7" class="edge">
<title>31&#45;&gt;51</title>
<path fill="none" stroke="black" d="M600.17,-420.72C599.85,-408.68 599.43,-392.6 599.1,-380.35"/>
<polygon fill="black" stroke="black" points="602.61,-380.34 598.84,-370.44 595.61,-380.52 602.61,-380.34"/>
<text text-anchor="middle" x="636.81" y="-389.6" font-family="Times New Roman,serif" font-size="14.00">graphAnd#44</text>
</g>
</g>
</svg>
