<?xml version="1.0" encoding="UTF-8" standalone="no"?>
<!DOCTYPE svg PUBLIC "-//W3C//DTD SVG 1.1//EN"
 "http://www.w3.org/Graphics/SVG/1.1/DTD/svg11.dtd">
<!-- Generated by graphviz version 12.2.1 (20241206.2353)
 -->
<!-- Title: CLG Pages: 1 -->
<svg width="1329pt" height="1694pt"
 viewBox="0.00 0.00 1329.25 1693.90" xmlns="http://www.w3.org/2000/svg" xmlns:xlink="http://www.w3.org/1999/xlink">
<g id="graph0" class="graph" transform="scale(1 1) rotate(0) translate(4 1689.9)">
<title>CLG</title>
<polygon fill="white" stroke="none" points="-4,4 -4,-1689.9 1325.25,-1689.9 1325.25,4 -4,4"/>
<!-- 258 -->
<g id="node1" class="node">
<title>258</title>
<polygon fill="yellow" stroke="black" points="822.12,-706.7 596.12,-706.7 596.12,-670.7 822.12,-670.7 822.12,-706.7"/>
<text text-anchor="middle" x="709.12" y="-683.65" font-family="Times New Roman,serif" font-size="14.00">indez = indices.indices[dimension &#45; 1]</text>
<text text-anchor="middle" x="581.5" y="-709.9" font-family="Times New Roman,serif" font-size="14.00">[258]</text>
</g>
<!-- 255 -->
<g id="node43" class="node">
<title>255</title>
<polygon fill="yellow" stroke="black" points="743.75,-598.7 674.5,-598.7 674.5,-562.7 743.75,-562.7 743.75,-598.7"/>
<text text-anchor="middle" x="709.12" y="-575.65" font-family="Times New Roman,serif" font-size="14.00">Index = 0</text>
<text text-anchor="middle" x="659.88" y="-601.9" font-family="Times New Roman,serif" font-size="14.00">[255]</text>
</g>
<!-- 258&#45;&gt;255 -->
<g id="edge8" class="edge">
<title>258&#45;&gt;255</title>
<path fill="none" stroke="black" d="M709.12,-670.67C709.12,-654.46 709.12,-629.76 709.12,-610.49"/>
<polygon fill="black" stroke="black" points="712.63,-610.55 709.13,-600.55 705.63,-610.55 712.63,-610.55"/>
<text text-anchor="middle" x="749.62" y="-629.65" font-family="Times New Roman,serif" font-size="14.00">graphAnd#283</text>
</g>
<!-- 194 -->
<g id="node2" class="node">
<title>194</title>
<polygon fill="yellow" stroke="black" points="383.5,-1085.2 162.75,-1085.2 162.75,-1049.2 383.5,-1049.2 383.5,-1085.2"/>
<text text-anchor="middle" x="273.12" y="-1062.15" font-family="Times New Roman,serif" font-size="14.00">i = Sequence{0..dimension@pre &#45; 1}</text>
<text text-anchor="middle" x="148.12" y="-1088.4" font-family="Times New Roman,serif" font-size="14.00">[194]</text>
</g>
<!-- 197 -->
<g id="node4" class="node">
<title>197</title>
<polygon fill="yellow" stroke="black" points="493.38,-996.7 52.88,-996.7 52.88,-955.7 493.38,-955.7 493.38,-996.7"/>
<text text-anchor="middle" x="273.12" y="-979.4" font-family="Times New Roman,serif" font-size="14.00">indices@pre.indices[i@pre] &lt; 0 or</text>
<text text-anchor="middle" x="273.12" y="-962.9" font-family="Times New Roman,serif" font-size="14.00">indices@pre.indices[i@pre] &gt;= dimensionSizes@pre.dimensionSizes[i@pre]</text>
<text text-anchor="middle" x="38.25" y="-999.9" font-family="Times New Roman,serif" font-size="14.00">[197]</text>
</g>
<!-- 194&#45;&gt;197 -->
<g id="edge35" class="edge">
<title>194&#45;&gt;197</title>
<path fill="none" stroke="black" d="M273.12,-1049.04C273.12,-1037.55 273.12,-1022.1 273.12,-1008.47"/>
<polygon fill="black" stroke="black" points="276.63,-1008.62 273.13,-998.62 269.63,-1008.62 276.63,-1008.62"/>
<text text-anchor="middle" x="313.62" y="-1017.9" font-family="Times New Roman,serif" font-size="14.00">graphAnd#219</text>
</g>
<!-- 261 -->
<g id="node3" class="node">
<title>261</title>
<polygon fill="yellow" stroke="black" points="895.62,-443.3 738.62,-443.3 738.62,-407.3 895.62,-407.3 895.62,-443.3"/>
<text text-anchor="middle" x="817.12" y="-420.25" font-family="Times New Roman,serif" font-size="14.00">Index &gt; 0 &#45; dimension &#45; 2</text>
<text text-anchor="middle" x="724" y="-446.5" font-family="Times New Roman,serif" font-size="14.00">[261]</text>
</g>
<!-- 277 -->
<g id="node17" class="node">
<title>277</title>
<polygon fill="yellow" stroke="black" points="851.12,-354.8 797.12,-354.8 797.12,-318.8 851.12,-318.8 851.12,-354.8"/>
<text text-anchor="middle" x="824.12" y="-331.75" font-family="Times New Roman,serif" font-size="14.00">indez</text>
<text text-anchor="middle" x="782.5" y="-358" font-family="Times New Roman,serif" font-size="14.00">[277]</text>
</g>
<!-- 261&#45;&gt;277 -->
<g id="edge14" class="edge">
<title>261&#45;&gt;277</title>
<path fill="none" stroke="black" d="M818.51,-407.21C819.45,-395.56 820.72,-379.85 821.82,-366.32"/>
<polygon fill="black" stroke="black" points="825.28,-366.91 822.6,-356.66 818.3,-366.34 825.28,-366.91"/>
<text text-anchor="middle" x="861.75" y="-376" font-family="Times New Roman,serif" font-size="14.00">graphAnd#303</text>
</g>
<!-- 200 -->
<g id="node6" class="node">
<title>200</title>
<polygon fill="yellow" stroke="black" points="145,-903.2 29.25,-903.2 29.25,-867.2 145,-867.2 145,-903.2"/>
<text text-anchor="middle" x="87.12" y="-880.15" font-family="Times New Roman,serif" font-size="14.00">Index = Index + 1</text>
<text text-anchor="middle" x="14.62" y="-906.4" font-family="Times New Roman,serif" font-size="14.00">[200]</text>
</g>
<!-- 197&#45;&gt;200 -->
<g id="edge36" class="edge">
<title>197&#45;&gt;200</title>
<path fill="none" stroke="black" d="M231.38,-955.23C202.45,-941.38 163.89,-922.93 133.91,-908.59"/>
<polygon fill="black" stroke="black" points="135.59,-905.51 125.06,-904.35 132.57,-911.83 135.59,-905.51"/>
<text text-anchor="middle" x="231.76" y="-924.4" font-family="Times New Roman,serif" font-size="14.00">graphAnd#220</text>
</g>
<!-- 264 -->
<g id="node5" class="node">
<title>264</title>
<polygon fill="yellow" stroke="black" points="668.75,-443.3 503.5,-443.3 503.5,-407.3 668.75,-407.3 668.75,-443.3"/>
<text text-anchor="middle" x="586.12" y="-420.25" font-family="Times New Roman,serif" font-size="14.00">Index &lt;= 0 &#45; dimension &#45; 2</text>
<text text-anchor="middle" x="488.88" y="-446.5" font-family="Times New Roman,serif" font-size="14.00">[264]</text>
</g>
<!-- 267 -->
<g id="node8" class="node">
<title>267</title>
<polygon fill="yellow" stroke="black" points="669.5,-354.8 478.75,-354.8 478.75,-318.8 669.5,-318.8 669.5,-354.8"/>
<text text-anchor="middle" x="574.12" y="-331.75" font-family="Times New Roman,serif" font-size="14.00">i = Sequence{dimension &#45; 2..0}</text>
<text text-anchor="middle" x="464.12" y="-358" font-family="Times New Roman,serif" font-size="14.00">[267]</text>
</g>
<!-- 264&#45;&gt;267 -->
<g id="edge9" class="edge">
<title>264&#45;&gt;267</title>
<path fill="none" stroke="black" d="M583.75,-407.21C582.14,-395.56 579.96,-379.85 578.08,-366.32"/>
<polygon fill="black" stroke="black" points="581.58,-366.07 576.74,-356.65 574.65,-367.04 581.58,-366.07"/>
<text text-anchor="middle" x="621.7" y="-376" font-family="Times New Roman,serif" font-size="14.00">graphAnd#294</text>
</g>
<!-- 202 -->
<g id="node7" class="node">
<title>202</title>
<polygon fill="aquamarine" stroke="black" points="291.12,-1240.6 283.93,-1233.4 291.12,-1226.2 298.32,-1233.4 291.12,-1240.6"/>
<text text-anchor="middle" x="265.55" y="-1243.8" font-family="Times New Roman,serif" font-size="14.00">&lt;202&gt;</text>
</g>
<!-- 200&#45;&gt;202 -->
<g id="edge38" class="edge">
<title>200&#45;&gt;202</title>
<path fill="none" stroke="black" d="M65.44,-903.52C47.56,-919.88 25.12,-946.2 25.12,-975.2 25.12,-1156.7 25.12,-1156.7 25.12,-1156.7 25.12,-1208.59 214.78,-1226.82 273.81,-1231.24"/>
<polygon fill="black" stroke="black" points="273.34,-1234.72 283.56,-1231.93 273.83,-1227.73 273.34,-1234.72"/>
<text text-anchor="middle" x="55.5" y="-1062.15" font-family="Times New Roman,serif" font-size="14.00">iterate#223</text>
</g>
<!-- 188 -->
<g id="node42" class="node">
<title>188</title>
<polygon fill="yellow" stroke="black" points="575.62,-1173.7 388.62,-1173.7 388.62,-1137.7 575.62,-1137.7 575.62,-1173.7"/>
<text text-anchor="middle" x="482.12" y="-1150.65" font-family="Times New Roman,serif" font-size="14.00">Index &gt; dimension@pre &#45; 1 &#45; 0</text>
<text text-anchor="middle" x="374" y="-1176.9" font-family="Times New Roman,serif" font-size="14.00">[188]</text>
</g>
<!-- 202&#45;&gt;188 -->
<g id="edge40" class="edge">
<title>202&#45;&gt;188</title>
<path fill="none" stroke="black" d="M295.85,-1230.53C313.79,-1223.42 379.18,-1197.5 427.44,-1178.37"/>
<polygon fill="black" stroke="black" points="428.65,-1181.66 436.66,-1174.72 426.07,-1175.15 428.65,-1181.66"/>
<text text-anchor="middle" x="432.85" y="-1194.9" font-family="Times New Roman,serif" font-size="14.00">graphAnd#228</text>
</g>
<!-- 191 -->
<g id="node44" class="node">
<title>191</title>
<polygon fill="yellow" stroke="black" points="370.75,-1173.7 175.5,-1173.7 175.5,-1137.7 370.75,-1137.7 370.75,-1173.7"/>
<text text-anchor="middle" x="273.12" y="-1150.65" font-family="Times New Roman,serif" font-size="14.00">Index &lt;= dimension@pre &#45; 1 &#45; 0</text>
<text text-anchor="middle" x="160.88" y="-1176.9" font-family="Times New Roman,serif" font-size="14.00">[191]</text>
</g>
<!-- 202&#45;&gt;191 -->
<g id="edge37" class="edge">
<title>202&#45;&gt;191</title>
<path fill="none" stroke="black" d="M289.83,-1226.96C287.76,-1218.26 283.57,-1200.63 279.9,-1185.21"/>
<polygon fill="black" stroke="black" points="283.32,-1184.43 277.6,-1175.51 276.51,-1186.05 283.32,-1184.43"/>
<text text-anchor="middle" x="315.68" y="-1194.9" font-family="Times New Roman,serif" font-size="14.00">iterate#222</text>
</g>
<!-- 270 -->
<g id="node10" class="node">
<title>270</title>
<polygon fill="yellow" stroke="black" points="681.38,-266.3 456.88,-266.3 456.88,-230.3 681.38,-230.3 681.38,-266.3"/>
<text text-anchor="middle" x="569.12" y="-243.25" font-family="Times New Roman,serif" font-size="14.00">indez + indices.indices[i] * IterateExp</text>
<text text-anchor="middle" x="442.25" y="-269.5" font-family="Times New Roman,serif" font-size="14.00">[270]</text>
</g>
<!-- 267&#45;&gt;270 -->
<g id="edge10" class="edge">
<title>267&#45;&gt;270</title>
<path fill="none" stroke="black" d="M573.14,-318.71C572.46,-307.06 571.56,-291.35 570.77,-277.82"/>
<polygon fill="black" stroke="black" points="574.29,-277.94 570.22,-268.16 567.3,-278.35 574.29,-277.94"/>
<text text-anchor="middle" x="612.57" y="-287.5" font-family="Times New Roman,serif" font-size="14.00">graphAnd#295</text>
</g>
<!-- 204 -->
<g id="node9" class="node">
<title>204</title>
<polygon fill="yellow" stroke="black" points="522.12,-1085.2 468.12,-1085.2 468.12,-1049.2 522.12,-1049.2 522.12,-1085.2"/>
<text text-anchor="middle" x="495.12" y="-1062.15" font-family="Times New Roman,serif" font-size="14.00">check</text>
<text text-anchor="middle" x="453.5" y="-1088.4" font-family="Times New Roman,serif" font-size="14.00">[204]</text>
</g>
<!-- 210 -->
<g id="node14" class="node">
<title>210</title>
<polygon fill="aquamarine" stroke="black" points="518.12,-983.4 510.93,-976.2 518.12,-969 525.33,-976.2 518.12,-983.4"/>
<text text-anchor="middle" x="529.3" y="-986.6" font-family="Times New Roman,serif" font-size="14.00">&lt;210&gt;</text>
</g>
<!-- 204&#45;&gt;210 -->
<g id="edge45" class="edge">
<title>204&#45;&gt;210</title>
<path fill="none" stroke="black" d="M499.56,-1049.04C503.72,-1032.94 509.9,-1009.04 513.97,-993.3"/>
<polygon fill="black" stroke="black" points="517.31,-994.36 516.42,-983.8 510.53,-992.61 517.31,-994.36"/>
<text text-anchor="middle" x="542.13" y="-1017.9" font-family="Times New Roman,serif" font-size="14.00">merge2#236</text>
</g>
<!-- 273 -->
<g id="node12" class="node">
<title>273</title>
<polygon fill="yellow" stroke="black" points="697,-177.8 581.25,-177.8 581.25,-141.8 697,-141.8 697,-177.8"/>
<text text-anchor="middle" x="639.12" y="-154.75" font-family="Times New Roman,serif" font-size="14.00">Index = Index + 1</text>
<text text-anchor="middle" x="566.62" y="-181" font-family="Times New Roman,serif" font-size="14.00">[273]</text>
</g>
<!-- 270&#45;&gt;273 -->
<g id="edge11" class="edge">
<title>270&#45;&gt;273</title>
<path fill="none" stroke="black" d="M582.95,-230.21C592.96,-217.85 606.65,-200.93 618.02,-186.88"/>
<polygon fill="black" stroke="black" points="620.56,-189.3 624.13,-179.33 615.12,-184.9 620.56,-189.3"/>
<text text-anchor="middle" x="650.89" y="-199" font-family="Times New Roman,serif" font-size="14.00">graphAnd#296</text>
</g>
<!-- 207 -->
<g id="node11" class="node">
<title>207</title>
<polygon fill="yellow" stroke="black" points="736.25,-1388.1 472,-1388.1 472,-1347.1 736.25,-1347.1 736.25,-1388.1"/>
<text text-anchor="middle" x="604.12" y="-1370.8" font-family="Times New Roman,serif" font-size="14.00">indices&#45;&gt;size() &lt;&gt; dimensionSizes&#45;&gt;size() or</text>
<text text-anchor="middle" x="604.12" y="-1354.3" font-family="Times New Roman,serif" font-size="14.00">IterateExp</text>
<text text-anchor="middle" x="457.38" y="-1391.3" font-family="Times New Roman,serif" font-size="14.00">[207]</text>
</g>
<!-- 207&#45;&gt;210 -->
<g id="edge44" class="edge">
<title>207&#45;&gt;210</title>
<path fill="none" stroke="black" d="M604.12,-1346.93C604.12,-1327 604.12,-1295.28 604.12,-1267.85 604.12,-1267.85 604.12,-1267.85 604.12,-1066.2 604.12,-1040.95 596.99,-1033.49 580.12,-1014.7 567.13,-1000.22 547.21,-989.55 533.47,-983.37"/>
<polygon fill="black" stroke="black" points="534.94,-980.19 524.37,-979.56 532.24,-986.65 534.94,-980.19"/>
<text text-anchor="middle" x="638.25" y="-1194.9" font-family="Times New Roman,serif" font-size="14.00">merge1#235</text>
</g>
<!-- 275 -->
<g id="node15" class="node">
<title>275</title>
<polygon fill="aquamarine" stroke="black" points="709.12,-510.2 701.92,-503 709.12,-495.8 716.33,-503 709.12,-510.2"/>
<text text-anchor="middle" x="683.55" y="-513.4" font-family="Times New Roman,serif" font-size="14.00">&lt;275&gt;</text>
</g>
<!-- 273&#45;&gt;275 -->
<g id="edge13" class="edge">
<title>273&#45;&gt;275</title>
<path fill="none" stroke="black" d="M675.83,-178.2C683.07,-183.03 690,-188.9 695.12,-195.8 709.27,-214.84 709.12,-223.58 709.12,-247.3 709.12,-426.3 709.12,-426.3 709.12,-426.3 709.12,-446.02 709.12,-468.63 709.12,-483.97"/>
<polygon fill="black" stroke="black" points="705.63,-483.8 709.13,-493.8 712.63,-483.8 705.63,-483.8"/>
<text text-anchor="middle" x="739.5" y="-331.75" font-family="Times New Roman,serif" font-size="14.00">iterate#299</text>
</g>
<!-- 209 -->
<g id="node13" class="node">
<title>209</title>
<polygon fill="aquamarine" stroke="black" points="604.12,-1522.3 596.92,-1515.1 604.12,-1507.9 611.33,-1515.1 604.12,-1522.3"/>
<text text-anchor="middle" x="578.55" y="-1525.5" font-family="Times New Roman,serif" font-size="14.00">&lt;209&gt;</text>
</g>
<!-- 209&#45;&gt;207 -->
<g id="edge42" class="edge">
<title>209&#45;&gt;207</title>
<path fill="none" stroke="black" d="M604.12,-1507.47C604.12,-1488.77 604.12,-1434.71 604.12,-1399.82"/>
<polygon fill="black" stroke="black" points="607.63,-1399.88 604.13,-1389.88 600.63,-1399.88 607.63,-1399.88"/>
<text text-anchor="middle" x="632.62" y="-1463.3" font-family="Times New Roman,serif" font-size="14.00">split1#233</text>
</g>
<!-- 185 -->
<g id="node40" class="node">
<title>185</title>
<polygon fill="yellow" stroke="black" points="490.25,-1442.1 406,-1442.1 406,-1406.1 490.25,-1406.1 490.25,-1442.1"/>
<text text-anchor="middle" x="448.12" y="-1419.05" font-family="Times New Roman,serif" font-size="14.00">check = true</text>
<text text-anchor="middle" x="391.38" y="-1445.3" font-family="Times New Roman,serif" font-size="14.00">[185]</text>
</g>
<!-- 209&#45;&gt;185 -->
<g id="edge43" class="edge">
<title>209&#45;&gt;185</title>
<path fill="none" stroke="black" d="M599.37,-1512.13C586.9,-1506.91 552.32,-1492.04 525.12,-1476.6 510.38,-1468.23 494.72,-1458.02 481.41,-1448.91"/>
<polygon fill="black" stroke="black" points="483.62,-1446.19 473.41,-1443.37 479.64,-1451.94 483.62,-1446.19"/>
<text text-anchor="middle" x="553.62" y="-1463.3" font-family="Times New Roman,serif" font-size="14.00">split2#234</text>
</g>
<!-- 179 -->
<g id="node35" class="node">
<title>179</title>
<polygon fill="yellow" stroke="black" points="525.88,-849.2 382.38,-849.2 382.38,-813.2 525.88,-813.2 525.88,-849.2"/>
<text text-anchor="middle" x="454.12" y="-826.15" font-family="Times New Roman,serif" font-size="14.00">exception=&quot;Exception&quot;</text>
<text text-anchor="middle" x="367.75" y="-852.4" font-family="Times New Roman,serif" font-size="14.00">[179]</text>
</g>
<!-- 210&#45;&gt;179 -->
<g id="edge25" class="edge">
<title>210&#45;&gt;179</title>
<path fill="none" stroke="black" d="M516,-970.44C508.39,-953.45 482.17,-894.87 466.41,-859.65"/>
<polygon fill="black" stroke="black" points="469.78,-858.62 462.51,-850.92 463.4,-861.48 469.78,-858.62"/>
<text text-anchor="middle" x="541.21" y="-924.4" font-family="Times New Roman,serif" font-size="14.00">graphAnd#318</text>
</g>
<!-- 275&#45;&gt;261 -->
<g id="edge15" class="edge">
<title>275&#45;&gt;261</title>
<path fill="none" stroke="black" d="M712.97,-499.31C724.08,-491.52 757.1,-468.38 783.01,-450.21"/>
<polygon fill="black" stroke="black" points="784.76,-453.26 790.94,-444.65 780.75,-447.53 784.76,-453.26"/>
<text text-anchor="middle" x="806.86" y="-464.5" font-family="Times New Roman,serif" font-size="14.00">graphAnd#304</text>
</g>
<!-- 275&#45;&gt;264 -->
<g id="edge12" class="edge">
<title>275&#45;&gt;264</title>
<path fill="none" stroke="black" d="M703.27,-501.13C690.08,-498.97 657.41,-492.42 634.38,-477.8 623.82,-471.1 614.02,-461.57 606.04,-452.52"/>
<polygon fill="black" stroke="black" points="608.79,-450.34 599.69,-444.91 603.42,-454.83 608.79,-450.34"/>
<text text-anchor="middle" x="664.75" y="-464.5" font-family="Times New Roman,serif" font-size="14.00">iterate#298</text>
</g>
<!-- 212 -->
<g id="node16" class="node">
<title>212</title>
<polygon fill="yellow" stroke="black" points="858.75,-1329.1 789.5,-1329.1 789.5,-1293.1 858.75,-1293.1 858.75,-1329.1"/>
<text text-anchor="middle" x="824.12" y="-1306.05" font-family="Times New Roman,serif" font-size="14.00">Index = 0</text>
<text text-anchor="middle" x="774.88" y="-1332.3" font-family="Times New Roman,serif" font-size="14.00">[212]</text>
</g>
<!-- 232 -->
<g id="node29" class="node">
<title>232</title>
<polygon fill="aquamarine" stroke="black" points="847.12,-1240.6 839.92,-1233.4 847.12,-1226.2 854.33,-1233.4 847.12,-1240.6"/>
<text text-anchor="middle" x="821.55" y="-1243.8" font-family="Times New Roman,serif" font-size="14.00">&lt;232&gt;</text>
</g>
<!-- 212&#45;&gt;232 -->
<g id="edge5" class="edge">
<title>212&#45;&gt;232</title>
<path fill="none" stroke="black" d="M829.34,-1292.92C833.24,-1280.1 838.52,-1262.72 842.32,-1250.23"/>
<polygon fill="black" stroke="black" points="845.61,-1251.42 845.17,-1240.84 838.91,-1249.39 845.61,-1251.42"/>
<text text-anchor="middle" x="880.19" y="-1261.8" font-family="Times New Roman,serif" font-size="14.00">graphAnd#264</text>
</g>
<!-- 280 -->
<g id="node19" class="node">
<title>280</title>
<polygon fill="yellow" stroke="black" points="915.5,-266.3 736.75,-266.3 736.75,-230.3 915.5,-230.3 915.5,-266.3"/>
<text text-anchor="middle" x="826.12" y="-243.25" font-family="Times New Roman,serif" font-size="14.00">result = elements.elements[x]</text>
<text text-anchor="middle" x="722.12" y="-269.5" font-family="Times New Roman,serif" font-size="14.00">[280]</text>
</g>
<!-- 277&#45;&gt;280 -->
<g id="edge18" class="edge">
<title>277&#45;&gt;280</title>
<path fill="none" stroke="black" d="M824.52,-318.71C824.79,-307.06 825.15,-291.35 825.47,-277.82"/>
<polygon fill="black" stroke="black" points="828.96,-278.24 825.69,-268.16 821.96,-278.08 828.96,-278.24"/>
<text text-anchor="middle" x="865.8" y="-287.5" font-family="Times New Roman,serif" font-size="14.00">graphAnd#309</text>
</g>
<!-- 215 -->
<g id="node18" class="node">
<title>215</title>
<polygon fill="yellow" stroke="black" points="854.25,-1442.1 770,-1442.1 770,-1406.1 854.25,-1406.1 854.25,-1442.1"/>
<text text-anchor="middle" x="812.12" y="-1419.05" font-family="Times New Roman,serif" font-size="14.00">check = true</text>
<text text-anchor="middle" x="755.38" y="-1445.3" font-family="Times New Roman,serif" font-size="14.00">[215]</text>
</g>
<!-- 215&#45;&gt;212 -->
<g id="edge46" class="edge">
<title>215&#45;&gt;212</title>
<path fill="none" stroke="black" d="M814,-1405.76C815.88,-1388.32 818.82,-1361.16 821.05,-1340.56"/>
<polygon fill="black" stroke="black" points="824.51,-1341.15 822.1,-1330.83 817.55,-1340.39 824.51,-1341.15"/>
<text text-anchor="middle" x="860.74" y="-1362.55" font-family="Times New Roman,serif" font-size="14.00">graphAnd#242</text>
</g>
<!-- 283 -->
<g id="node22" class="node">
<title>283</title>
<polygon fill="aquamarine" stroke="black" points="826.12,-167 818.92,-159.8 826.12,-152.6 833.33,-159.8 826.12,-167"/>
<text text-anchor="middle" x="800.55" y="-170.2" font-family="Times New Roman,serif" font-size="14.00">&lt;283&gt;</text>
</g>
<!-- 280&#45;&gt;283 -->
<g id="edge24" class="edge">
<title>280&#45;&gt;283</title>
<path fill="none" stroke="black" d="M826.12,-230.21C826.12,-215.44 826.12,-194.13 826.12,-179.03"/>
<polygon fill="black" stroke="black" points="829.63,-179.19 826.13,-169.19 822.63,-179.19 829.63,-179.19"/>
<text text-anchor="middle" x="860.25" y="-199" font-family="Times New Roman,serif" font-size="14.00">merge2#316</text>
</g>
<!-- 218 -->
<g id="node20" class="node">
<title>218</title>
<polygon fill="yellow" stroke="black" points="832.62,-1173.7 645.62,-1173.7 645.62,-1137.7 832.62,-1137.7 832.62,-1173.7"/>
<text text-anchor="middle" x="739.12" y="-1150.65" font-family="Times New Roman,serif" font-size="14.00">Index &gt; dimension@pre &#45; 1 &#45; 0</text>
<text text-anchor="middle" x="631" y="-1176.9" font-family="Times New Roman,serif" font-size="14.00">[218]</text>
</g>
<!-- 234 -->
<g id="node30" class="node">
<title>234</title>
<polygon fill="yellow" stroke="black" points="766.12,-1085.2 712.12,-1085.2 712.12,-1049.2 766.12,-1049.2 766.12,-1085.2"/>
<text text-anchor="middle" x="739.12" y="-1062.15" font-family="Times New Roman,serif" font-size="14.00">check</text>
<text text-anchor="middle" x="697.5" y="-1088.4" font-family="Times New Roman,serif" font-size="14.00">[234]</text>
</g>
<!-- 218&#45;&gt;234 -->
<g id="edge3" class="edge">
<title>218&#45;&gt;234</title>
<path fill="none" stroke="black" d="M739.12,-1137.61C739.12,-1125.96 739.12,-1110.25 739.12,-1096.72"/>
<polygon fill="black" stroke="black" points="742.63,-1097.06 739.13,-1087.06 735.63,-1097.06 742.63,-1097.06"/>
<text text-anchor="middle" x="779.62" y="-1106.4" font-family="Times New Roman,serif" font-size="14.00">graphAnd#262</text>
</g>
<!-- 282 -->
<g id="node21" class="node">
<title>282</title>
<polygon fill="aquamarine" stroke="black" points="739.12,-983.4 731.92,-976.2 739.12,-969 746.33,-976.2 739.12,-983.4"/>
<text text-anchor="middle" x="713.55" y="-986.6" font-family="Times New Roman,serif" font-size="14.00">&lt;282&gt;</text>
</g>
<!-- 240 -->
<g id="node33" class="node">
<title>240</title>
<polygon fill="yellow" stroke="black" points="885.88,-903.2 790.38,-903.2 790.38,-867.2 885.88,-867.2 885.88,-903.2"/>
<text text-anchor="middle" x="838.12" y="-880.15" font-family="Times New Roman,serif" font-size="14.00">dimension = 1</text>
<text text-anchor="middle" x="775.75" y="-906.4" font-family="Times New Roman,serif" font-size="14.00">[240]</text>
</g>
<!-- 282&#45;&gt;240 -->
<g id="edge21" class="edge">
<title>282&#45;&gt;240</title>
<path fill="none" stroke="black" d="M742.14,-971.57C749.72,-962.55 770.38,-938.59 790.12,-921.2 794.37,-917.46 799,-913.72 803.65,-910.15"/>
<polygon fill="black" stroke="black" points="805.4,-913.21 811.32,-904.43 801.21,-907.6 805.4,-913.21"/>
<text text-anchor="middle" x="818.62" y="-924.4" font-family="Times New Roman,serif" font-size="14.00">split1#313</text>
</g>
<!-- 249 -->
<g id="node39" class="node">
<title>249</title>
<polygon fill="yellow" stroke="black" points="761,-903.2 657.25,-903.2 657.25,-867.2 761,-867.2 761,-903.2"/>
<text text-anchor="middle" x="709.12" y="-880.15" font-family="Times New Roman,serif" font-size="14.00">dimension &lt;&gt; 1</text>
<text text-anchor="middle" x="642.62" y="-906.4" font-family="Times New Roman,serif" font-size="14.00">[249]</text>
</g>
<!-- 282&#45;&gt;249 -->
<g id="edge22" class="edge">
<title>282&#45;&gt;249</title>
<path fill="none" stroke="black" d="M735.58,-972.13C729.06,-966.25 715.38,-952.6 710.12,-937.7 707.59,-930.5 706.63,-922.39 706.48,-914.76"/>
<polygon fill="black" stroke="black" points="709.98,-914.99 706.76,-904.89 702.98,-914.79 709.98,-914.99"/>
<text text-anchor="middle" x="738.62" y="-924.4" font-family="Times New Roman,serif" font-size="14.00">split2#314</text>
</g>
<!-- 285 -->
<g id="node25" class="node">
<title>285</title>
<polygon fill="aquamarine" stroke="black" points="445.12,-89.3 437.93,-82.1 445.12,-74.9 452.32,-82.1 445.12,-89.3"/>
<text text-anchor="middle" x="419.55" y="-92.5" font-family="Times New Roman,serif" font-size="14.00">&lt;285&gt;</text>
</g>
<!-- 283&#45;&gt;285 -->
<g id="edge30" class="edge">
<title>283&#45;&gt;285</title>
<path fill="none" stroke="black" d="M820.44,-157.67C779.48,-149.53 528.98,-99.76 461.73,-86.4"/>
<polygon fill="black" stroke="black" points="462.81,-83.05 452.32,-84.53 461.45,-89.91 462.81,-83.05"/>
<text text-anchor="middle" x="681.17" y="-110.5" font-family="Times New Roman,serif" font-size="14.00">merge1#323</text>
</g>
<!-- 284 -->
<g id="node23" class="node">
<title>284</title>
<polygon fill="aquamarine" stroke="black" points="682.12,-1602.5 674.92,-1595.3 682.12,-1588.1 689.33,-1595.3 682.12,-1602.5"/>
<text text-anchor="middle" x="656.55" y="-1605.7" font-family="Times New Roman,serif" font-size="14.00">&lt;284&gt;</text>
</g>
<!-- 284&#45;&gt;209 -->
<g id="edge29" class="edge">
<title>284&#45;&gt;209</title>
<path fill="none" stroke="black" d="M678.77,-1590.94C667.95,-1580.09 633.57,-1545.62 615.49,-1527.5"/>
<polygon fill="black" stroke="black" points="617.99,-1525.04 608.45,-1520.43 613.03,-1529.98 617.99,-1525.04"/>
<text text-anchor="middle" x="685.4" y="-1556.8" font-family="Times New Roman,serif" font-size="14.00">split2#322</text>
</g>
<!-- 237 -->
<g id="node32" class="node">
<title>237</title>
<polygon fill="yellow" stroke="black" points="898.25,-1535.6 634,-1535.6 634,-1494.6 898.25,-1494.6 898.25,-1535.6"/>
<text text-anchor="middle" x="766.12" y="-1518.3" font-family="Times New Roman,serif" font-size="14.00">indices&#45;&gt;size() = dimensionSizes&#45;&gt;size() and</text>
<text text-anchor="middle" x="766.12" y="-1501.8" font-family="Times New Roman,serif" font-size="14.00">IterateExp</text>
<text text-anchor="middle" x="619.38" y="-1538.8" font-family="Times New Roman,serif" font-size="14.00">[237]</text>
</g>
<!-- 284&#45;&gt;237 -->
<g id="edge28" class="edge">
<title>284&#45;&gt;237</title>
<path fill="none" stroke="black" d="M686.14,-1592.06C693.05,-1588.1 707.46,-1579.41 718.12,-1570.1 726.89,-1562.44 735.6,-1553.25 743.16,-1544.63"/>
<polygon fill="black" stroke="black" points="745.75,-1546.98 749.58,-1537.1 740.42,-1542.44 745.75,-1546.98"/>
<text text-anchor="middle" x="762.28" y="-1556.8" font-family="Times New Roman,serif" font-size="14.00">split1#321</text>
</g>
<!-- 221 -->
<g id="node24" class="node">
<title>221</title>
<polygon fill="yellow" stroke="black" points="1129.75,-1173.7 934.5,-1173.7 934.5,-1137.7 1129.75,-1137.7 1129.75,-1173.7"/>
<text text-anchor="middle" x="1032.12" y="-1150.65" font-family="Times New Roman,serif" font-size="14.00">Index &lt;= dimension@pre &#45; 1 &#45; 0</text>
<text text-anchor="middle" x="919.88" y="-1176.9" font-family="Times New Roman,serif" font-size="14.00">[221]</text>
</g>
<!-- 224 -->
<g id="node26" class="node">
<title>224</title>
<polygon fill="yellow" stroke="black" points="1187.5,-1085.2 966.75,-1085.2 966.75,-1049.2 1187.5,-1049.2 1187.5,-1085.2"/>
<text text-anchor="middle" x="1077.12" y="-1062.15" font-family="Times New Roman,serif" font-size="14.00">i = Sequence{0..dimension@pre &#45; 1}</text>
<text text-anchor="middle" x="952.12" y="-1088.4" font-family="Times New Roman,serif" font-size="14.00">[224]</text>
</g>
<!-- 221&#45;&gt;224 -->
<g id="edge47" class="edge">
<title>221&#45;&gt;224</title>
<path fill="none" stroke="black" d="M1041.02,-1137.61C1047.26,-1125.6 1055.75,-1109.29 1062.93,-1095.5"/>
<polygon fill="black" stroke="black" points="1065.89,-1097.38 1067.4,-1086.89 1059.68,-1094.15 1065.89,-1097.38"/>
<text text-anchor="middle" x="1099.16" y="-1106.4" font-family="Times New Roman,serif" font-size="14.00">graphAnd#253</text>
</g>
<!-- 180 -->
<g id="node36" class="node">
<title>180</title>
<ellipse fill="black" stroke="black" cx="445.12" cy="-11.2" rx="7.2" ry="7.2"/>
<ellipse fill="none" stroke="black" cx="445.12" cy="-11.2" rx="11.2" ry="11.2"/>
<text text-anchor="middle" x="423.8" y="-25.6" font-family="Times New Roman,serif" font-size="14.00">[&#45;1]</text>
</g>
<!-- 285&#45;&gt;180 -->
<g id="edge32" class="edge">
<title>285&#45;&gt;180</title>
<path fill="none" stroke="black" d="M445.12,-74.24C445.12,-64.87 445.12,-47.63 445.12,-33.7"/>
<polygon fill="black" stroke="black" points="448.63,-34.11 445.13,-24.11 441.63,-34.11 448.63,-34.11"/>
<text text-anchor="middle" x="494.25" y="-43.6" font-family="Times New Roman,serif" font-size="14.00">graphOr_end#325</text>
</g>
<!-- 227 -->
<g id="node27" class="node">
<title>227</title>
<polygon fill="yellow" stroke="black" points="1321.25,-996.7 889,-996.7 889,-955.7 1321.25,-955.7 1321.25,-996.7"/>
<text text-anchor="middle" x="1105.12" y="-979.4" font-family="Times New Roman,serif" font-size="14.00">indices@pre.indices[i@pre] &gt;= 0 and</text>
<text text-anchor="middle" x="1105.12" y="-962.9" font-family="Times New Roman,serif" font-size="14.00">indices@pre.indices[i@pre] &lt; dimensionSizes@pre.dimensionSizes[i@pre]</text>
<text text-anchor="middle" x="874.38" y="-999.9" font-family="Times New Roman,serif" font-size="14.00">[227]</text>
</g>
<!-- 224&#45;&gt;227 -->
<g id="edge48" class="edge">
<title>224&#45;&gt;227</title>
<path fill="none" stroke="black" d="M1082.52,-1049.04C1086.17,-1037.44 1091.1,-1021.79 1095.42,-1008.06"/>
<polygon fill="black" stroke="black" points="1098.75,-1009.14 1098.41,-998.55 1092.07,-1007.04 1098.75,-1009.14"/>
<text text-anchor="middle" x="1133.3" y="-1017.9" font-family="Times New Roman,serif" font-size="14.00">graphAnd#254</text>
</g>
<!-- 230 -->
<g id="node28" class="node">
<title>230</title>
<polygon fill="yellow" stroke="black" points="1053,-903.2 937.25,-903.2 937.25,-867.2 1053,-867.2 1053,-903.2"/>
<text text-anchor="middle" x="995.12" y="-880.15" font-family="Times New Roman,serif" font-size="14.00">Index = Index + 1</text>
<text text-anchor="middle" x="922.62" y="-906.4" font-family="Times New Roman,serif" font-size="14.00">[230]</text>
</g>
<!-- 227&#45;&gt;230 -->
<g id="edge49" class="edge">
<title>227&#45;&gt;230</title>
<path fill="none" stroke="black" d="M1080.44,-955.23C1064.15,-942.05 1042.7,-924.69 1025.38,-910.68"/>
<polygon fill="black" stroke="black" points="1027.91,-908.22 1017.93,-904.65 1023.5,-913.66 1027.91,-908.22"/>
<text text-anchor="middle" x="1097.21" y="-924.4" font-family="Times New Roman,serif" font-size="14.00">graphAnd#255</text>
</g>
<!-- 230&#45;&gt;232 -->
<g id="edge2" class="edge">
<title>230&#45;&gt;232</title>
<path fill="none" stroke="black" d="M937.13,-900.51C900.91,-913.31 861.12,-936.24 861.12,-975.2 861.12,-1156.7 861.12,-1156.7 861.12,-1156.7 861.12,-1177.58 855.91,-1201.17 851.85,-1216.38"/>
<polygon fill="black" stroke="black" points="848.52,-1215.29 849.15,-1225.86 855.25,-1217.21 848.52,-1215.29"/>
<text text-anchor="middle" x="891.5" y="-1062.15" font-family="Times New Roman,serif" font-size="14.00">iterate#258</text>
</g>
<!-- 232&#45;&gt;218 -->
<g id="edge4" class="edge">
<title>232&#45;&gt;218</title>
<path fill="none" stroke="black" d="M840.89,-1232.14C826.21,-1231.22 789.01,-1227.05 766.12,-1208.2 758.48,-1201.9 752.73,-1192.87 748.54,-1184.12"/>
<polygon fill="black" stroke="black" points="751.89,-1183.04 744.78,-1175.19 745.44,-1185.76 751.89,-1183.04"/>
<text text-anchor="middle" x="806.62" y="-1194.9" font-family="Times New Roman,serif" font-size="14.00">graphAnd#263</text>
</g>
<!-- 232&#45;&gt;221 -->
<g id="edge1" class="edge">
<title>232&#45;&gt;221</title>
<path fill="none" stroke="black" d="M851.7,-1230.53C869.04,-1223.43 932.15,-1197.61 978.86,-1178.5"/>
<polygon fill="black" stroke="black" points="980.12,-1181.76 988.05,-1174.74 977.47,-1175.28 980.12,-1181.76"/>
<text text-anchor="middle" x="975.55" y="-1194.9" font-family="Times New Roman,serif" font-size="14.00">iterate#257</text>
</g>
<!-- 234&#45;&gt;282 -->
<g id="edge26" class="edge">
<title>234&#45;&gt;282</title>
<path fill="none" stroke="black" d="M739.12,-1049.04C739.12,-1033.57 739.12,-1010.9 739.12,-995.19"/>
<polygon fill="black" stroke="black" points="742.63,-995.44 739.13,-985.44 735.63,-995.44 742.63,-995.44"/>
<text text-anchor="middle" x="779.62" y="-1017.9" font-family="Times New Roman,serif" font-size="14.00">graphAnd#319</text>
</g>
<!-- 236 -->
<g id="node31" class="node">
<title>236</title>
<ellipse fill="black" stroke="black" cx="682.12" cy="-1662.2" rx="7.2" ry="7.2"/>
<text text-anchor="middle" x="667.05" y="-1672.6" font-family="Times New Roman,serif" font-size="14.00">[0]</text>
</g>
<!-- 236&#45;&gt;284 -->
<g id="edge27" class="edge">
<title>236&#45;&gt;284</title>
<path fill="none" stroke="black" d="M682.12,-1654.74C682.12,-1645.41 682.12,-1627.81 682.12,-1614.35"/>
<polygon fill="black" stroke="black" points="685.63,-1614.64 682.13,-1604.64 678.63,-1614.64 685.63,-1614.64"/>
<text text-anchor="middle" x="733.12" y="-1623.7" font-family="Times New Roman,serif" font-size="14.00">graphOr_start#320</text>
</g>
<!-- 237&#45;&gt;215 -->
<g id="edge6" class="edge">
<title>237&#45;&gt;215</title>
<path fill="none" stroke="black" d="M776.33,-1494.35C782.68,-1482.06 790.94,-1466.09 797.92,-1452.58"/>
<polygon fill="black" stroke="black" points="801.01,-1454.23 802.49,-1443.74 794.79,-1451.01 801.01,-1454.23"/>
<text text-anchor="middle" x="833.75" y="-1463.3" font-family="Times New Roman,serif" font-size="14.00">graphAnd#267</text>
</g>
<!-- 243 -->
<g id="node34" class="node">
<title>243</title>
<polygon fill="yellow" stroke="black" points="949.38,-795.2 814.88,-795.2 814.88,-759.2 949.38,-759.2 949.38,-795.2"/>
<text text-anchor="middle" x="882.12" y="-772.15" font-family="Times New Roman,serif" font-size="14.00">x = indices.indices[0]</text>
<text text-anchor="middle" x="800.25" y="-798.4" font-family="Times New Roman,serif" font-size="14.00">[243]</text>
</g>
<!-- 240&#45;&gt;243 -->
<g id="edge19" class="edge">
<title>240&#45;&gt;243</title>
<path fill="none" stroke="black" d="M845.19,-867.17C852.02,-850.73 862.47,-825.55 870.51,-806.17"/>
<polygon fill="black" stroke="black" points="873.75,-807.52 874.35,-796.94 867.28,-804.83 873.75,-807.52"/>
<text text-anchor="middle" x="907.14" y="-826.15" font-family="Times New Roman,serif" font-size="14.00">graphAnd#310</text>
</g>
<!-- 246 -->
<g id="node37" class="node">
<title>246</title>
<polygon fill="yellow" stroke="black" points="994.88,-652.7 845.38,-652.7 845.38,-616.7 994.88,-616.7 994.88,-652.7"/>
<text text-anchor="middle" x="920.12" y="-629.65" font-family="Times New Roman,serif" font-size="14.00">result = self.elements[x]</text>
<text text-anchor="middle" x="830.75" y="-655.9" font-family="Times New Roman,serif" font-size="14.00">[246]</text>
</g>
<!-- 243&#45;&gt;246 -->
<g id="edge7" class="edge">
<title>243&#45;&gt;246</title>
<path fill="none" stroke="black" d="M886.78,-758.97C893.19,-735.27 904.81,-692.32 912.5,-663.9"/>
<polygon fill="black" stroke="black" points="915.8,-665.1 915.03,-654.53 909.04,-663.27 915.8,-665.1"/>
<text text-anchor="middle" x="936" y="-727.9" font-family="Times New Roman,serif" font-size="14.00">graphAnd#274</text>
</g>
<!-- 179&#45;&gt;285 -->
<g id="edge31" class="edge">
<title>179&#45;&gt;285</title>
<path fill="none" stroke="black" d="M446.76,-812.81C439.39,-793.8 429.12,-762.26 429.12,-733.95 429.12,-733.95 429.12,-733.95 429.12,-158.8 429.12,-137.81 435.08,-114.25 439.73,-99.07"/>
<polygon fill="black" stroke="black" points="443.04,-100.19 442.82,-89.6 436.39,-98.02 443.04,-100.19"/>
<text text-anchor="middle" x="463.25" y="-464.5" font-family="Times New Roman,serif" font-size="14.00">merge2#324</text>
</g>
<!-- 246&#45;&gt;283 -->
<g id="edge23" class="edge">
<title>246&#45;&gt;283</title>
<path fill="none" stroke="black" d="M926.9,-616.26C933.69,-597.2 943.12,-565.63 943.12,-537.45 943.12,-537.45 943.12,-537.45 943.12,-247.3 943.12,-198.01 875.16,-173.61 842.83,-164.79"/>
<polygon fill="black" stroke="black" points="843.79,-161.42 833.24,-162.37 842.08,-168.21 843.79,-161.42"/>
<text text-anchor="middle" x="977.25" y="-420.25" font-family="Times New Roman,serif" font-size="14.00">merge1#315</text>
</g>
<!-- 182 -->
<g id="node38" class="node">
<title>182</title>
<polygon fill="yellow" stroke="black" points="357.75,-1329.1 288.5,-1329.1 288.5,-1293.1 357.75,-1293.1 357.75,-1329.1"/>
<text text-anchor="middle" x="323.12" y="-1306.05" font-family="Times New Roman,serif" font-size="14.00">Index = 0</text>
<text text-anchor="middle" x="273.88" y="-1332.3" font-family="Times New Roman,serif" font-size="14.00">[182]</text>
</g>
<!-- 182&#45;&gt;202 -->
<g id="edge41" class="edge">
<title>182&#45;&gt;202</title>
<path fill="none" stroke="black" d="M315.86,-1292.92C310.33,-1279.84 302.79,-1261.99 297.49,-1249.46"/>
<polygon fill="black" stroke="black" points="300.81,-1248.31 293.69,-1240.47 294.36,-1251.04 300.81,-1248.31"/>
<text text-anchor="middle" x="348.58" y="-1261.8" font-family="Times New Roman,serif" font-size="14.00">graphAnd#229</text>
</g>
<!-- 252 -->
<g id="node41" class="node">
<title>252</title>
<polygon fill="yellow" stroke="black" points="756.5,-795.2 661.75,-795.2 661.75,-759.2 756.5,-759.2 756.5,-795.2"/>
<text text-anchor="middle" x="709.12" y="-772.15" font-family="Times New Roman,serif" font-size="14.00">x = IterateExp</text>
<text text-anchor="middle" x="647.12" y="-798.4" font-family="Times New Roman,serif" font-size="14.00">[252]</text>
</g>
<!-- 249&#45;&gt;252 -->
<g id="edge20" class="edge">
<title>249&#45;&gt;252</title>
<path fill="none" stroke="black" d="M709.12,-867.17C709.12,-850.96 709.12,-826.26 709.12,-806.99"/>
<polygon fill="black" stroke="black" points="712.63,-807.05 709.13,-797.05 705.63,-807.05 712.63,-807.05"/>
<text text-anchor="middle" x="749.62" y="-826.15" font-family="Times New Roman,serif" font-size="14.00">graphAnd#311</text>
</g>
<!-- 185&#45;&gt;182 -->
<g id="edge33" class="edge">
<title>185&#45;&gt;182</title>
<path fill="none" stroke="black" d="M408.69,-1405.69C399.49,-1400.7 390.07,-1394.78 382.12,-1388.1 365.4,-1374.03 350.36,-1354.49 339.65,-1338.75"/>
<polygon fill="black" stroke="black" points="342.82,-1337.21 334.4,-1330.78 336.98,-1341.06 342.82,-1337.21"/>
<text text-anchor="middle" x="422.62" y="-1362.55" font-family="Times New Roman,serif" font-size="14.00">graphAnd#207</text>
</g>
<!-- 252&#45;&gt;258 -->
<g id="edge17" class="edge">
<title>252&#45;&gt;258</title>
<path fill="none" stroke="black" d="M709.12,-759.11C709.12,-747.46 709.12,-731.75 709.12,-718.22"/>
<polygon fill="black" stroke="black" points="712.63,-718.56 709.13,-708.56 705.63,-718.56 712.63,-718.56"/>
<text text-anchor="middle" x="749.62" y="-727.9" font-family="Times New Roman,serif" font-size="14.00">graphAnd#306</text>
</g>
<!-- 188&#45;&gt;204 -->
<g id="edge39" class="edge">
<title>188&#45;&gt;204</title>
<path fill="none" stroke="black" d="M484.69,-1137.61C486.44,-1125.96 488.81,-1110.25 490.84,-1096.72"/>
<polygon fill="black" stroke="black" points="494.27,-1097.46 492.29,-1087.05 487.35,-1096.42 494.27,-1097.46"/>
<text text-anchor="middle" x="530.29" y="-1106.4" font-family="Times New Roman,serif" font-size="14.00">graphAnd#227</text>
</g>
<!-- 255&#45;&gt;275 -->
<g id="edge16" class="edge">
<title>255&#45;&gt;275</title>
<path fill="none" stroke="black" d="M709.12,-562.52C709.12,-550.48 709.12,-534.4 709.12,-522.15"/>
<polygon fill="black" stroke="black" points="712.63,-522.24 709.13,-512.24 705.63,-522.24 712.63,-522.24"/>
<text text-anchor="middle" x="749.62" y="-531.4" font-family="Times New Roman,serif" font-size="14.00">graphAnd#305</text>
</g>
<!-- 191&#45;&gt;194 -->
<g id="edge34" class="edge">
<title>191&#45;&gt;194</title>
<path fill="none" stroke="black" d="M273.12,-1137.61C273.12,-1125.96 273.12,-1110.25 273.12,-1096.72"/>
<polygon fill="black" stroke="black" points="276.63,-1097.06 273.13,-1087.06 269.63,-1097.06 276.63,-1097.06"/>
<text text-anchor="middle" x="313.62" y="-1106.4" font-family="Times New Roman,serif" font-size="14.00">graphAnd#218</text>
</g>
</g>
</svg>
