<?xml version="1.0" encoding="UTF-8" standalone="no"?>
<!DOCTYPE svg PUBLIC "-//W3C//DTD SVG 1.1//EN"
 "http://www.w3.org/Graphics/SVG/1.1/DTD/svg11.dtd">
<!-- Generated by graphviz version 12.2.1 (20241206.2353)
 -->
<!-- Title: CLG Pages: 1 -->
<svg width="253pt" height="348pt"
 viewBox="0.00 0.00 252.75 348.30" xmlns="http://www.w3.org/2000/svg" xmlns:xlink="http://www.w3.org/1999/xlink">
<g id="graph0" class="graph" transform="scale(1 1) rotate(0) translate(4 344.3)">
<title>CLG</title>
<polygon fill="white" stroke="none" points="-4,4 -4,-344.3 248.75,-344.3 248.75,4 -4,4"/>
<!-- 137 -->
<g id="node1" class="node">
<title>137</title>
<polygon fill="yellow" stroke="black" points="190.75,-95.4 83.25,-95.4 83.25,-59.4 190.75,-59.4 190.75,-95.4"/>
<text text-anchor="middle" x="137" y="-72.35" font-family="Times New Roman,serif" font-size="14.00">result = self.data</text>
<text text-anchor="middle" x="68.62" y="-98.6" font-family="Times New Roman,serif" font-size="14.00">[137]</text>
</g>
<!-- 138 -->
<g id="node2" class="node">
<title>138</title>
<ellipse fill="black" stroke="black" cx="137" cy="-11.2" rx="7.2" ry="7.2"/>
<ellipse fill="none" stroke="black" cx="137" cy="-11.2" rx="11.2" ry="11.2"/>
<text text-anchor="middle" x="115.67" y="-25.6" font-family="Times New Roman,serif" font-size="14.00">[&#45;1]</text>
</g>
<!-- 137&#45;&gt;138 -->
<g id="edge1" class="edge">
<title>137&#45;&gt;138</title>
<path fill="none" stroke="black" d="M137,-59.2C137,-51.5 137,-42.34 137,-34.15"/>
<polygon fill="black" stroke="black" points="140.5,-34.32 137,-24.32 133.5,-34.32 140.5,-34.32"/>
</g>
<!-- 139 -->
<g id="node3" class="node">
<title>139</title>
<ellipse fill="black" stroke="black" cx="137" cy="-316.6" rx="7.2" ry="7.2"/>
<text text-anchor="middle" x="121.92" y="-327" font-family="Times New Roman,serif" font-size="14.00">[0]</text>
</g>
<!-- 140 -->
<g id="node4" class="node">
<title>140</title>
<polygon fill="yellow" stroke="black" points="241.38,-272.4 32.62,-272.4 32.62,-236.4 241.38,-236.4 241.38,-272.4"/>
<text text-anchor="middle" x="137" y="-249.35" font-family="Times New Roman,serif" font-size="14.00">self.data.getDimensionSizes(1) &gt; 0</text>
<text text-anchor="middle" x="18" y="-275.6" font-family="Times New Roman,serif" font-size="14.00">[140]</text>
</g>
<!-- 139&#45;&gt;140 -->
<g id="edge2" class="edge">
<title>139&#45;&gt;140</title>
<path fill="none" stroke="black" d="M137,-309.16C137,-303.1 137,-293.59 137,-284.24"/>
<polygon fill="black" stroke="black" points="140.5,-284.28 137,-274.28 133.5,-284.28 140.5,-284.28"/>
</g>
<!-- 143 -->
<g id="node5" class="node">
<title>143</title>
<polygon fill="yellow" stroke="black" points="244.75,-183.9 29.25,-183.9 29.25,-147.9 244.75,-147.9 244.75,-183.9"/>
<text text-anchor="middle" x="137" y="-160.85" font-family="Times New Roman,serif" font-size="14.00">self.data.getDimensionSizes(1) &lt; 10</text>
<text text-anchor="middle" x="14.62" y="-187.1" font-family="Times New Roman,serif" font-size="14.00">[143]</text>
</g>
<!-- 140&#45;&gt;143 -->
<g id="edge3" class="edge">
<title>140&#45;&gt;143</title>
<path fill="none" stroke="black" d="M137,-236.31C137,-224.66 137,-208.95 137,-195.42"/>
<polygon fill="black" stroke="black" points="140.5,-195.76 137,-185.76 133.5,-195.76 140.5,-195.76"/>
<text text-anchor="middle" x="177.5" y="-205.1" font-family="Times New Roman,serif" font-size="14.00">graphAnd#153</text>
</g>
<!-- 143&#45;&gt;137 -->
<g id="edge4" class="edge">
<title>143&#45;&gt;137</title>
<path fill="none" stroke="black" d="M137,-147.81C137,-136.16 137,-120.45 137,-106.92"/>
<polygon fill="black" stroke="black" points="140.5,-107.26 137,-97.26 133.5,-107.26 140.5,-107.26"/>
<text text-anchor="middle" x="177.5" y="-116.6" font-family="Times New Roman,serif" font-size="14.00">graphAnd#154</text>
</g>
</g>
</svg>
