<?xml version="1.0" encoding="UTF-8" standalone="no"?>
<!DOCTYPE svg PUBLIC "-//W3C//DTD SVG 1.1//EN"
 "http://www.w3.org/Graphics/SVG/1.1/DTD/svg11.dtd">
<!-- Generated by graphviz version 12.2.1 (20241206.2353)
 -->
<!-- Title: CLG Pages: 1 -->
<svg width="1611pt" height="1694pt"
 viewBox="0.00 0.00 1611.00 1693.90" xmlns="http://www.w3.org/2000/svg" xmlns:xlink="http://www.w3.org/1999/xlink">
<g id="graph0" class="graph" transform="scale(1 1) rotate(0) translate(4 1689.9)">
<title>CLG</title>
<polygon fill="white" stroke="none" points="-4,4 -4,-1689.9 1607,-1689.9 1607,4 -4,4"/>
<!-- 128 -->
<g id="node1" class="node">
<title>128</title>
<ellipse fill="black" stroke="black" cx="766.5" cy="-1662.2" rx="7.2" ry="7.2"/>
<text text-anchor="middle" x="751.42" y="-1672.6" font-family="Times New Roman,serif" font-size="14.00">[0]</text>
</g>
<!-- 176 -->
<g id="node37" class="node">
<title>176</title>
<polygon fill="aquamarine" stroke="black" points="766.5,-1602.5 759.3,-1595.3 766.5,-1588.1 773.7,-1595.3 766.5,-1602.5"/>
<text text-anchor="middle" x="740.92" y="-1605.7" font-family="Times New Roman,serif" font-size="14.00">&lt;176&gt;</text>
</g>
<!-- 128&#45;&gt;176 -->
<g id="edge30" class="edge">
<title>128&#45;&gt;176</title>
<path fill="none" stroke="black" d="M766.5,-1654.74C766.5,-1645.41 766.5,-1627.81 766.5,-1614.35"/>
<polygon fill="black" stroke="black" points="770,-1614.64 766.5,-1604.64 763,-1614.64 770,-1614.64"/>
<text text-anchor="middle" x="817.5" y="-1623.7" font-family="Times New Roman,serif" font-size="14.00">graphOr_start#195</text>
</g>
<!-- 129 -->
<g id="node2" class="node">
<title>129</title>
<polygon fill="yellow" stroke="black" points="810,-1535.6 587,-1535.6 587,-1494.6 810,-1494.6 810,-1535.6"/>
<text text-anchor="middle" x="698.5" y="-1518.3" font-family="Times New Roman,serif" font-size="14.00">indices&#45;&gt;size() = dimension@pre and</text>
<text text-anchor="middle" x="698.5" y="-1501.8" font-family="Times New Roman,serif" font-size="14.00">IterateExp</text>
<text text-anchor="middle" x="572.38" y="-1538.8" font-family="Times New Roman,serif" font-size="14.00">[129]</text>
</g>
<!-- 107 -->
<g id="node32" class="node">
<title>107</title>
<polygon fill="yellow" stroke="black" points="695.62,-1442.1 611.38,-1442.1 611.38,-1406.1 695.62,-1406.1 695.62,-1442.1"/>
<text text-anchor="middle" x="653.5" y="-1419.05" font-family="Times New Roman,serif" font-size="14.00">check = true</text>
<text text-anchor="middle" x="596.75" y="-1445.3" font-family="Times New Roman,serif" font-size="14.00">[107]</text>
</g>
<!-- 129&#45;&gt;107 -->
<g id="edge9" class="edge">
<title>129&#45;&gt;107</title>
<path fill="none" stroke="black" d="M688.51,-1494.35C682.3,-1482.06 674.23,-1466.09 667.39,-1452.58"/>
<polygon fill="black" stroke="black" points="670.56,-1451.09 662.93,-1443.74 664.31,-1454.25 670.56,-1451.09"/>
<text text-anchor="middle" x="719.19" y="-1463.3" font-family="Times New Roman,serif" font-size="14.00">graphAnd#142</text>
</g>
<!-- 132 -->
<g id="node3" class="node">
<title>132</title>
<polygon fill="yellow" stroke="black" points="470.25,-903.2 374.75,-903.2 374.75,-867.2 470.25,-867.2 470.25,-903.2"/>
<text text-anchor="middle" x="422.5" y="-880.15" font-family="Times New Roman,serif" font-size="14.00">dimension = 1</text>
<text text-anchor="middle" x="360.12" y="-906.4" font-family="Times New Roman,serif" font-size="14.00">[132]</text>
</g>
<!-- 135 -->
<g id="node4" class="node">
<title>135</title>
<polygon fill="yellow" stroke="black" points="513.75,-795.2 379.25,-795.2 379.25,-759.2 513.75,-759.2 513.75,-795.2"/>
<text text-anchor="middle" x="446.5" y="-772.15" font-family="Times New Roman,serif" font-size="14.00">x = indices.indices[0]</text>
<text text-anchor="middle" x="364.62" y="-798.4" font-family="Times New Roman,serif" font-size="14.00">[135]</text>
</g>
<!-- 132&#45;&gt;135 -->
<g id="edge22" class="edge">
<title>132&#45;&gt;135</title>
<path fill="none" stroke="black" d="M426.36,-867.17C430.04,-850.89 435.67,-826.02 440.04,-806.72"/>
<polygon fill="black" stroke="black" points="443.44,-807.54 442.24,-797.02 436.62,-806 443.44,-807.54"/>
<text text-anchor="middle" x="478.55" y="-826.15" font-family="Times New Roman,serif" font-size="14.00">graphAnd#185</text>
</g>
<!-- 138 -->
<g id="node7" class="node">
<title>138</title>
<polygon fill="yellow" stroke="black" points="552.88,-652.7 404.12,-652.7 404.12,-616.7 552.88,-616.7 552.88,-652.7"/>
<text text-anchor="middle" x="478.5" y="-629.65" font-family="Times New Roman,serif" font-size="14.00">self.elements[x] = value</text>
<text text-anchor="middle" x="389.5" y="-655.9" font-family="Times New Roman,serif" font-size="14.00">[138]</text>
</g>
<!-- 135&#45;&gt;138 -->
<g id="edge10" class="edge">
<title>135&#45;&gt;138</title>
<path fill="none" stroke="black" d="M450.42,-758.97C455.8,-735.38 465.52,-692.7 471.99,-664.28"/>
<polygon fill="black" stroke="black" points="475.4,-665.07 474.21,-654.54 468.57,-663.52 475.4,-665.07"/>
<text text-anchor="middle" x="498.26" y="-727.9" font-family="Times New Roman,serif" font-size="14.00">graphAnd#149</text>
</g>
<!-- 71 -->
<g id="node5" class="node">
<title>71</title>
<polygon fill="yellow" stroke="black" points="775.25,-849.2 631.75,-849.2 631.75,-813.2 775.25,-813.2 775.25,-849.2"/>
<text text-anchor="middle" x="703.5" y="-826.15" font-family="Times New Roman,serif" font-size="14.00">exception=&quot;Exception&quot;</text>
<text text-anchor="middle" x="620.5" y="-852.4" font-family="Times New Roman,serif" font-size="14.00">[71]</text>
</g>
<!-- 177 -->
<g id="node39" class="node">
<title>177</title>
<polygon fill="aquamarine" stroke="black" points="563.5,-89.3 556.3,-82.1 563.5,-74.9 570.7,-82.1 563.5,-89.3"/>
<text text-anchor="middle" x="537.92" y="-92.5" font-family="Times New Roman,serif" font-size="14.00">&lt;177&gt;</text>
</g>
<!-- 71&#45;&gt;177 -->
<g id="edge34" class="edge">
<title>71&#45;&gt;177</title>
<path fill="none" stroke="black" d="M670.29,-812.85C643.93,-796.43 611.5,-769.09 611.5,-733.95 611.5,-733.95 611.5,-733.95 611.5,-158.8 611.5,-135.08 611.07,-126.76 597.5,-107.3 592.62,-100.29 585.02,-94.61 578.25,-90.51"/>
<polygon fill="black" stroke="black" points="580.05,-87.51 569.58,-85.88 576.75,-93.68 580.05,-87.51"/>
<text text-anchor="middle" x="645.62" y="-464.5" font-family="Times New Roman,serif" font-size="14.00">merge2#199</text>
</g>
<!-- 72 -->
<g id="node6" class="node">
<title>72</title>
<ellipse fill="black" stroke="black" cx="563.5" cy="-11.2" rx="7.2" ry="7.2"/>
<ellipse fill="none" stroke="black" cx="563.5" cy="-11.2" rx="11.2" ry="11.2"/>
<text text-anchor="middle" x="542.17" y="-25.6" font-family="Times New Roman,serif" font-size="14.00">[&#45;1]</text>
</g>
<!-- 175 -->
<g id="node36" class="node">
<title>175</title>
<polygon fill="aquamarine" stroke="black" points="515.5,-167 508.3,-159.8 515.5,-152.6 522.7,-159.8 515.5,-167"/>
<text text-anchor="middle" x="489.93" y="-170.2" font-family="Times New Roman,serif" font-size="14.00">&lt;175&gt;</text>
</g>
<!-- 138&#45;&gt;175 -->
<g id="edge26" class="edge">
<title>138&#45;&gt;175</title>
<path fill="none" stroke="black" d="M489.6,-616.38C500.5,-597.67 515.5,-566.63 515.5,-537.45 515.5,-537.45 515.5,-537.45 515.5,-247.3 515.5,-223.72 515.5,-196.53 515.5,-179.02"/>
<polygon fill="black" stroke="black" points="519,-179.04 515.5,-169.04 512,-179.04 519,-179.04"/>
<text text-anchor="middle" x="549.62" y="-420.25" font-family="Times New Roman,serif" font-size="14.00">merge1#190</text>
</g>
<!-- 74 -->
<g id="node8" class="node">
<title>74</title>
<polygon fill="yellow" stroke="black" points="1045.12,-1329.1 975.88,-1329.1 975.88,-1293.1 1045.12,-1293.1 1045.12,-1329.1"/>
<text text-anchor="middle" x="1010.5" y="-1306.05" font-family="Times New Roman,serif" font-size="14.00">Index = 0</text>
<text text-anchor="middle" x="964.62" y="-1332.3" font-family="Times New Roman,serif" font-size="14.00">[74]</text>
</g>
<!-- 94 -->
<g id="node21" class="node">
<title>94</title>
<polygon fill="aquamarine" stroke="black" points="1038.5,-1240.6 1031.3,-1233.4 1038.5,-1226.2 1045.7,-1233.4 1038.5,-1240.6"/>
<text text-anchor="middle" x="1016.3" y="-1243.8" font-family="Times New Roman,serif" font-size="14.00">&lt;94&gt;</text>
</g>
<!-- 74&#45;&gt;94 -->
<g id="edge44" class="edge">
<title>74&#45;&gt;94</title>
<path fill="none" stroke="black" d="M1016.85,-1292.92C1021.65,-1279.97 1028.16,-1262.35 1032.79,-1249.84"/>
<polygon fill="black" stroke="black" points="1035.94,-1251.4 1036.13,-1240.81 1029.38,-1248.97 1035.94,-1251.4"/>
<text text-anchor="middle" x="1069.94" y="-1261.8" font-family="Times New Roman,serif" font-size="14.00">graphAnd#104</text>
</g>
<!-- 141 -->
<g id="node9" class="node">
<title>141</title>
<polygon fill="yellow" stroke="black" points="333.38,-903.2 229.62,-903.2 229.62,-867.2 333.38,-867.2 333.38,-903.2"/>
<text text-anchor="middle" x="281.5" y="-880.15" font-family="Times New Roman,serif" font-size="14.00">dimension &lt;&gt; 1</text>
<text text-anchor="middle" x="215" y="-906.4" font-family="Times New Roman,serif" font-size="14.00">[141]</text>
</g>
<!-- 144 -->
<g id="node11" class="node">
<title>144</title>
<polygon fill="yellow" stroke="black" points="328.88,-795.2 234.12,-795.2 234.12,-759.2 328.88,-759.2 328.88,-795.2"/>
<text text-anchor="middle" x="281.5" y="-772.15" font-family="Times New Roman,serif" font-size="14.00">x = IterateExp</text>
<text text-anchor="middle" x="219.5" y="-798.4" font-family="Times New Roman,serif" font-size="14.00">[144]</text>
</g>
<!-- 141&#45;&gt;144 -->
<g id="edge23" class="edge">
<title>141&#45;&gt;144</title>
<path fill="none" stroke="black" d="M281.5,-867.17C281.5,-850.96 281.5,-826.26 281.5,-806.99"/>
<polygon fill="black" stroke="black" points="285,-807.05 281.5,-797.05 278,-807.05 285,-807.05"/>
<text text-anchor="middle" x="322" y="-826.15" font-family="Times New Roman,serif" font-size="14.00">graphAnd#186</text>
</g>
<!-- 77 -->
<g id="node10" class="node">
<title>77</title>
<polygon fill="yellow" stroke="black" points="1009.62,-1442.1 925.38,-1442.1 925.38,-1406.1 1009.62,-1406.1 1009.62,-1442.1"/>
<text text-anchor="middle" x="967.5" y="-1419.05" font-family="Times New Roman,serif" font-size="14.00">check = true</text>
<text text-anchor="middle" x="914.12" y="-1445.3" font-family="Times New Roman,serif" font-size="14.00">[77]</text>
</g>
<!-- 77&#45;&gt;74 -->
<g id="edge36" class="edge">
<title>77&#45;&gt;74</title>
<path fill="none" stroke="black" d="M974.22,-1405.76C981.03,-1388.16 991.69,-1360.65 999.7,-1339.99"/>
<polygon fill="black" stroke="black" points="1002.93,-1341.32 1003.28,-1330.73 996.41,-1338.79 1002.93,-1341.32"/>
<text text-anchor="middle" x="1033.72" y="-1362.55" font-family="Times New Roman,serif" font-size="14.00">graphAnd#82</text>
</g>
<!-- 150 -->
<g id="node15" class="node">
<title>150</title>
<polygon fill="yellow" stroke="black" points="394.5,-706.7 168.5,-706.7 168.5,-670.7 394.5,-670.7 394.5,-706.7"/>
<text text-anchor="middle" x="281.5" y="-683.65" font-family="Times New Roman,serif" font-size="14.00">indez = indices.indices[dimension &#45; 1]</text>
<text text-anchor="middle" x="153.88" y="-709.9" font-family="Times New Roman,serif" font-size="14.00">[150]</text>
</g>
<!-- 144&#45;&gt;150 -->
<g id="edge20" class="edge">
<title>144&#45;&gt;150</title>
<path fill="none" stroke="black" d="M281.5,-759.11C281.5,-747.46 281.5,-731.75 281.5,-718.22"/>
<polygon fill="black" stroke="black" points="285,-718.56 281.5,-708.56 278,-718.56 285,-718.56"/>
<text text-anchor="middle" x="322" y="-727.9" font-family="Times New Roman,serif" font-size="14.00">graphAnd#181</text>
</g>
<!-- 80 -->
<g id="node12" class="node">
<title>80</title>
<polygon fill="yellow" stroke="black" points="1059,-1173.7 872,-1173.7 872,-1137.7 1059,-1137.7 1059,-1173.7"/>
<text text-anchor="middle" x="965.5" y="-1150.65" font-family="Times New Roman,serif" font-size="14.00">Index &gt; dimension@pre &#45; 1 &#45; 0</text>
<text text-anchor="middle" x="860.75" y="-1176.9" font-family="Times New Roman,serif" font-size="14.00">[80]</text>
</g>
<!-- 96 -->
<g id="node23" class="node">
<title>96</title>
<polygon fill="yellow" stroke="black" points="992.5,-1085.2 938.5,-1085.2 938.5,-1049.2 992.5,-1049.2 992.5,-1085.2"/>
<text text-anchor="middle" x="965.5" y="-1062.15" font-family="Times New Roman,serif" font-size="14.00">check</text>
<text text-anchor="middle" x="927.25" y="-1088.4" font-family="Times New Roman,serif" font-size="14.00">[96]</text>
</g>
<!-- 80&#45;&gt;96 -->
<g id="edge42" class="edge">
<title>80&#45;&gt;96</title>
<path fill="none" stroke="black" d="M965.5,-1137.61C965.5,-1125.96 965.5,-1110.25 965.5,-1096.72"/>
<polygon fill="black" stroke="black" points="969,-1097.06 965.5,-1087.06 962,-1097.06 969,-1097.06"/>
<text text-anchor="middle" x="1006" y="-1106.4" font-family="Times New Roman,serif" font-size="14.00">graphAnd#102</text>
</g>
<!-- 147 -->
<g id="node13" class="node">
<title>147</title>
<polygon fill="yellow" stroke="black" points="316.12,-598.7 246.88,-598.7 246.88,-562.7 316.12,-562.7 316.12,-598.7"/>
<text text-anchor="middle" x="281.5" y="-575.65" font-family="Times New Roman,serif" font-size="14.00">Index = 0</text>
<text text-anchor="middle" x="232.25" y="-601.9" font-family="Times New Roman,serif" font-size="14.00">[147]</text>
</g>
<!-- 167 -->
<g id="node29" class="node">
<title>167</title>
<polygon fill="aquamarine" stroke="black" points="281.5,-510.2 274.3,-503 281.5,-495.8 288.7,-503 281.5,-510.2"/>
<text text-anchor="middle" x="255.93" y="-513.4" font-family="Times New Roman,serif" font-size="14.00">&lt;167&gt;</text>
</g>
<!-- 147&#45;&gt;167 -->
<g id="edge19" class="edge">
<title>147&#45;&gt;167</title>
<path fill="none" stroke="black" d="M281.5,-562.52C281.5,-550.48 281.5,-534.4 281.5,-522.15"/>
<polygon fill="black" stroke="black" points="285,-522.24 281.5,-512.24 278,-522.24 285,-522.24"/>
<text text-anchor="middle" x="322" y="-531.4" font-family="Times New Roman,serif" font-size="14.00">graphAnd#180</text>
</g>
<!-- 83 -->
<g id="node14" class="node">
<title>83</title>
<polygon fill="yellow" stroke="black" points="1345.12,-1173.7 1149.88,-1173.7 1149.88,-1137.7 1345.12,-1137.7 1345.12,-1173.7"/>
<text text-anchor="middle" x="1247.5" y="-1150.65" font-family="Times New Roman,serif" font-size="14.00">Index &lt;= dimension@pre &#45; 1 &#45; 0</text>
<text text-anchor="middle" x="1138.62" y="-1176.9" font-family="Times New Roman,serif" font-size="14.00">[83]</text>
</g>
<!-- 86 -->
<g id="node16" class="node">
<title>86</title>
<polygon fill="yellow" stroke="black" points="1442.5,-1085.2 1198.5,-1085.2 1198.5,-1049.2 1442.5,-1049.2 1442.5,-1085.2"/>
<text text-anchor="middle" x="1320.5" y="-1062.15" font-family="Times New Roman,serif" font-size="14.00">elem = Sequence{0..dimension@pre &#45; 1}</text>
<text text-anchor="middle" x="1187.25" y="-1088.4" font-family="Times New Roman,serif" font-size="14.00">[86]</text>
</g>
<!-- 83&#45;&gt;86 -->
<g id="edge37" class="edge">
<title>83&#45;&gt;86</title>
<path fill="none" stroke="black" d="M1261.92,-1137.61C1272.35,-1125.25 1286.64,-1108.33 1298.49,-1094.28"/>
<polygon fill="black" stroke="black" points="1301.11,-1096.61 1304.88,-1086.71 1295.76,-1092.09 1301.11,-1096.61"/>
<text text-anchor="middle" x="1327.66" y="-1106.4" font-family="Times New Roman,serif" font-size="14.00">graphAnd#93</text>
</g>
<!-- 150&#45;&gt;147 -->
<g id="edge11" class="edge">
<title>150&#45;&gt;147</title>
<path fill="none" stroke="black" d="M281.5,-670.67C281.5,-654.46 281.5,-629.76 281.5,-610.49"/>
<polygon fill="black" stroke="black" points="285,-610.55 281.5,-600.55 278,-610.55 285,-610.55"/>
<text text-anchor="middle" x="322" y="-629.65" font-family="Times New Roman,serif" font-size="14.00">graphAnd#158</text>
</g>
<!-- 89 -->
<g id="node18" class="node">
<title>89</title>
<polygon fill="yellow" stroke="black" points="1603,-996.7 1116,-996.7 1116,-955.7 1603,-955.7 1603,-996.7"/>
<text text-anchor="middle" x="1359.5" y="-979.4" font-family="Times New Roman,serif" font-size="14.00">indices@pre.indices[elem@pre] &lt; 0 or</text>
<text text-anchor="middle" x="1359.5" y="-962.9" font-family="Times New Roman,serif" font-size="14.00">indices@pre.indices[elem@pre] &gt;= dimensionSizes@pre.dimensionSizes[elem@pre]</text>
<text text-anchor="middle" x="1104.75" y="-999.9" font-family="Times New Roman,serif" font-size="14.00">[89]</text>
</g>
<!-- 86&#45;&gt;89 -->
<g id="edge38" class="edge">
<title>86&#45;&gt;89</title>
<path fill="none" stroke="black" d="M1328.02,-1049.04C1333.15,-1037.32 1340.1,-1021.47 1346.16,-1007.64"/>
<polygon fill="black" stroke="black" points="1349.36,-1009.05 1350.17,-998.49 1342.95,-1006.24 1349.36,-1009.05"/>
<text text-anchor="middle" x="1379.46" y="-1017.9" font-family="Times New Roman,serif" font-size="14.00">graphAnd#94</text>
</g>
<!-- 153 -->
<g id="node17" class="node">
<title>153</title>
<polygon fill="yellow" stroke="black" points="468,-443.3 311,-443.3 311,-407.3 468,-407.3 468,-443.3"/>
<text text-anchor="middle" x="389.5" y="-420.25" font-family="Times New Roman,serif" font-size="14.00">Index &gt; 0 &#45; dimension &#45; 2</text>
<text text-anchor="middle" x="296.38" y="-446.5" font-family="Times New Roman,serif" font-size="14.00">[153]</text>
</g>
<!-- 169 -->
<g id="node31" class="node">
<title>169</title>
<polygon fill="yellow" stroke="black" points="422.5,-354.8 368.5,-354.8 368.5,-318.8 422.5,-318.8 422.5,-354.8"/>
<text text-anchor="middle" x="395.5" y="-331.75" font-family="Times New Roman,serif" font-size="14.00">indez</text>
<text text-anchor="middle" x="353.88" y="-358" font-family="Times New Roman,serif" font-size="14.00">[169]</text>
</g>
<!-- 153&#45;&gt;169 -->
<g id="edge17" class="edge">
<title>153&#45;&gt;169</title>
<path fill="none" stroke="black" d="M390.69,-407.21C391.49,-395.56 392.58,-379.85 393.52,-366.32"/>
<polygon fill="black" stroke="black" points="396.99,-366.88 394.19,-356.66 390.01,-366.39 396.99,-366.88"/>
<text text-anchor="middle" x="433.54" y="-376" font-family="Times New Roman,serif" font-size="14.00">graphAnd#178</text>
</g>
<!-- 92 -->
<g id="node20" class="node">
<title>92</title>
<polygon fill="yellow" stroke="black" points="1161.38,-903.2 1045.62,-903.2 1045.62,-867.2 1161.38,-867.2 1161.38,-903.2"/>
<text text-anchor="middle" x="1103.5" y="-880.15" font-family="Times New Roman,serif" font-size="14.00">Index = Index + 1</text>
<text text-anchor="middle" x="1034.38" y="-906.4" font-family="Times New Roman,serif" font-size="14.00">[92]</text>
</g>
<!-- 89&#45;&gt;92 -->
<g id="edge39" class="edge">
<title>89&#45;&gt;92</title>
<path fill="none" stroke="black" d="M1302.05,-955.23C1261.18,-941.02 1206.36,-921.96 1164.68,-907.47"/>
<polygon fill="black" stroke="black" points="1165.86,-904.17 1155.27,-904.2 1163.56,-910.79 1165.86,-904.17"/>
<text text-anchor="middle" x="1283.95" y="-924.4" font-family="Times New Roman,serif" font-size="14.00">graphAnd#95</text>
</g>
<!-- 156 -->
<g id="node19" class="node">
<title>156</title>
<polygon fill="yellow" stroke="black" points="249.12,-443.3 83.88,-443.3 83.88,-407.3 249.12,-407.3 249.12,-443.3"/>
<text text-anchor="middle" x="166.5" y="-420.25" font-family="Times New Roman,serif" font-size="14.00">Index &lt;= 0 &#45; dimension &#45; 2</text>
<text text-anchor="middle" x="69.25" y="-446.5" font-family="Times New Roman,serif" font-size="14.00">[156]</text>
</g>
<!-- 159 -->
<g id="node22" class="node">
<title>159</title>
<polygon fill="yellow" stroke="black" points="242.88,-354.8 52.12,-354.8 52.12,-318.8 242.88,-318.8 242.88,-354.8"/>
<text text-anchor="middle" x="147.5" y="-331.75" font-family="Times New Roman,serif" font-size="14.00">i = Sequence{dimension &#45; 2..0}</text>
<text text-anchor="middle" x="37.5" y="-358" font-family="Times New Roman,serif" font-size="14.00">[159]</text>
</g>
<!-- 156&#45;&gt;159 -->
<g id="edge12" class="edge">
<title>156&#45;&gt;159</title>
<path fill="none" stroke="black" d="M162.75,-407.21C160.19,-395.56 156.74,-379.85 153.76,-366.32"/>
<polygon fill="black" stroke="black" points="157.2,-365.64 151.64,-356.63 150.36,-367.15 157.2,-365.64"/>
<text text-anchor="middle" x="199.2" y="-376" font-family="Times New Roman,serif" font-size="14.00">graphAnd#169</text>
</g>
<!-- 92&#45;&gt;94 -->
<g id="edge41" class="edge">
<title>92&#45;&gt;94</title>
<path fill="none" stroke="black" d="M1098.53,-903.43C1093.83,-921.24 1087.5,-949.92 1087.5,-975.2 1087.5,-1156.7 1087.5,-1156.7 1087.5,-1156.7 1087.5,-1180.42 1087.2,-1188.84 1073.5,-1208.2 1068.3,-1215.55 1060.12,-1221.39 1052.97,-1225.49"/>
<polygon fill="black" stroke="black" points="1051.59,-1222.26 1044.25,-1229.9 1054.75,-1228.51 1051.59,-1222.26"/>
<text text-anchor="middle" x="1114.5" y="-1062.15" font-family="Times New Roman,serif" font-size="14.00">iterate#98</text>
</g>
<!-- 94&#45;&gt;80 -->
<g id="edge43" class="edge">
<title>94&#45;&gt;80</title>
<path fill="none" stroke="black" d="M1033.32,-1230.82C1024.09,-1227.79 1004.61,-1220.33 992.5,-1208.2 985.78,-1201.47 980.35,-1192.72 976.17,-1184.34"/>
<polygon fill="black" stroke="black" points="979.48,-1183.16 972.16,-1175.5 973.1,-1186.05 979.48,-1183.16"/>
<text text-anchor="middle" x="1033" y="-1194.9" font-family="Times New Roman,serif" font-size="14.00">graphAnd#103</text>
</g>
<!-- 94&#45;&gt;83 -->
<g id="edge40" class="edge">
<title>94&#45;&gt;83</title>
<path fill="none" stroke="black" d="M1043.26,-1230.68C1062.41,-1223.74 1135.42,-1197.29 1188.7,-1178"/>
<polygon fill="black" stroke="black" points="1189.77,-1181.33 1197.98,-1174.64 1187.39,-1174.75 1189.77,-1181.33"/>
<text text-anchor="middle" x="1176.27" y="-1194.9" font-family="Times New Roman,serif" font-size="14.00">iterate#97</text>
</g>
<!-- 162 -->
<g id="node24" class="node">
<title>162</title>
<polygon fill="yellow" stroke="black" points="253.75,-266.3 29.25,-266.3 29.25,-230.3 253.75,-230.3 253.75,-266.3"/>
<text text-anchor="middle" x="141.5" y="-243.25" font-family="Times New Roman,serif" font-size="14.00">indez + indices.indices[i] * IterateExp</text>
<text text-anchor="middle" x="14.62" y="-269.5" font-family="Times New Roman,serif" font-size="14.00">[162]</text>
</g>
<!-- 159&#45;&gt;162 -->
<g id="edge13" class="edge">
<title>159&#45;&gt;162</title>
<path fill="none" stroke="black" d="M146.31,-318.71C145.51,-307.06 144.42,-291.35 143.48,-277.82"/>
<polygon fill="black" stroke="black" points="146.99,-277.89 142.81,-268.16 140.01,-278.38 146.99,-277.89"/>
<text text-anchor="middle" x="185.54" y="-287.5" font-family="Times New Roman,serif" font-size="14.00">graphAnd#170</text>
</g>
<!-- 102 -->
<g id="node28" class="node">
<title>102</title>
<polygon fill="aquamarine" stroke="black" points="965.5,-983.4 958.3,-976.2 965.5,-969 972.7,-976.2 965.5,-983.4"/>
<text text-anchor="middle" x="976.67" y="-986.6" font-family="Times New Roman,serif" font-size="14.00">&lt;102&gt;</text>
</g>
<!-- 96&#45;&gt;102 -->
<g id="edge48" class="edge">
<title>96&#45;&gt;102</title>
<path fill="none" stroke="black" d="M965.5,-1049.04C965.5,-1033.57 965.5,-1010.9 965.5,-995.19"/>
<polygon fill="black" stroke="black" points="969,-995.44 965.5,-985.44 962,-995.44 969,-995.44"/>
<text text-anchor="middle" x="999.62" y="-1017.9" font-family="Times New Roman,serif" font-size="14.00">merge2#111</text>
</g>
<!-- 165 -->
<g id="node26" class="node">
<title>165</title>
<polygon fill="yellow" stroke="black" points="280.38,-177.8 164.62,-177.8 164.62,-141.8 280.38,-141.8 280.38,-177.8"/>
<text text-anchor="middle" x="222.5" y="-154.75" font-family="Times New Roman,serif" font-size="14.00">Index = Index + 1</text>
<text text-anchor="middle" x="150" y="-181" font-family="Times New Roman,serif" font-size="14.00">[165]</text>
</g>
<!-- 162&#45;&gt;165 -->
<g id="edge14" class="edge">
<title>162&#45;&gt;165</title>
<path fill="none" stroke="black" d="M156.16,-229.82C164.79,-219.7 176.04,-206.83 186.5,-195.8 189.58,-192.55 192.88,-189.19 196.18,-185.9"/>
<polygon fill="black" stroke="black" points="198.5,-188.53 203.19,-179.03 193.6,-183.53 198.5,-188.53"/>
<text text-anchor="middle" x="227" y="-199" font-family="Times New Roman,serif" font-size="14.00">graphAnd#171</text>
</g>
<!-- 99 -->
<g id="node25" class="node">
<title>99</title>
<polygon fill="yellow" stroke="black" points="955,-1388.1 732,-1388.1 732,-1347.1 955,-1347.1 955,-1388.1"/>
<text text-anchor="middle" x="843.5" y="-1370.8" font-family="Times New Roman,serif" font-size="14.00">indices&#45;&gt;size() &lt;&gt; dimension@pre or</text>
<text text-anchor="middle" x="843.5" y="-1354.3" font-family="Times New Roman,serif" font-size="14.00">IterateExp</text>
<text text-anchor="middle" x="720.75" y="-1391.3" font-family="Times New Roman,serif" font-size="14.00">[99]</text>
</g>
<!-- 99&#45;&gt;102 -->
<g id="edge47" class="edge">
<title>99&#45;&gt;102</title>
<path fill="none" stroke="black" d="M843.5,-1346.93C843.5,-1327 843.5,-1295.28 843.5,-1267.85 843.5,-1267.85 843.5,-1267.85 843.5,-1066.2 843.5,-1010.24 906.4,-1033.57 948.5,-996.7 950.84,-994.65 953.15,-992.29 955.29,-989.93"/>
<polygon fill="black" stroke="black" points="957.98,-992.16 961.67,-982.23 952.59,-987.69 957.98,-992.16"/>
<text text-anchor="middle" x="877.62" y="-1194.9" font-family="Times New Roman,serif" font-size="14.00">merge1#110</text>
</g>
<!-- 165&#45;&gt;167 -->
<g id="edge16" class="edge">
<title>165&#45;&gt;167</title>
<path fill="none" stroke="black" d="M250.37,-177.97C256.77,-183.03 263,-189.05 267.5,-195.8 280.65,-215.54 281.5,-223.58 281.5,-247.3 281.5,-426.3 281.5,-426.3 281.5,-426.3 281.5,-446.02 281.5,-468.63 281.5,-483.97"/>
<polygon fill="black" stroke="black" points="278,-483.8 281.5,-493.8 285,-483.8 278,-483.8"/>
<text text-anchor="middle" x="311.88" y="-331.75" font-family="Times New Roman,serif" font-size="14.00">iterate#174</text>
</g>
<!-- 101 -->
<g id="node27" class="node">
<title>101</title>
<polygon fill="aquamarine" stroke="black" points="843.5,-1522.3 836.3,-1515.1 843.5,-1507.9 850.7,-1515.1 843.5,-1522.3"/>
<text text-anchor="middle" x="854.67" y="-1525.5" font-family="Times New Roman,serif" font-size="14.00">&lt;101&gt;</text>
</g>
<!-- 101&#45;&gt;77 -->
<g id="edge46" class="edge">
<title>101&#45;&gt;77</title>
<path fill="none" stroke="black" d="M847.77,-1511.74C857.89,-1506.09 884.04,-1491.15 904.5,-1476.6 916.07,-1468.37 928.28,-1458.66 938.83,-1449.9"/>
<polygon fill="black" stroke="black" points="941.05,-1452.6 946.46,-1443.48 936.55,-1447.24 941.05,-1452.6"/>
<text text-anchor="middle" x="954.4" y="-1463.3" font-family="Times New Roman,serif" font-size="14.00">split2#109</text>
</g>
<!-- 101&#45;&gt;99 -->
<g id="edge45" class="edge">
<title>101&#45;&gt;99</title>
<path fill="none" stroke="black" d="M843.5,-1507.47C843.5,-1488.77 843.5,-1434.71 843.5,-1399.82"/>
<polygon fill="black" stroke="black" points="847,-1399.88 843.5,-1389.88 840,-1399.88 847,-1399.88"/>
<text text-anchor="middle" x="872" y="-1463.3" font-family="Times New Roman,serif" font-size="14.00">split1#108</text>
</g>
<!-- 102&#45;&gt;71 -->
<g id="edge28" class="edge">
<title>102&#45;&gt;71</title>
<path fill="none" stroke="black" d="M962.75,-971.21C959.66,-966.95 954.32,-960.22 948.5,-955.7 890.43,-910.6 813.31,-874.98 761.23,-853.81"/>
<polygon fill="black" stroke="black" points="762.82,-850.68 752.24,-850.21 760.22,-857.18 762.82,-850.68"/>
<text text-anchor="middle" x="963.21" y="-924.4" font-family="Times New Roman,serif" font-size="14.00">graphAnd#193</text>
</g>
<!-- 167&#45;&gt;153 -->
<g id="edge18" class="edge">
<title>167&#45;&gt;153</title>
<path fill="none" stroke="black" d="M285.34,-499.31C296.45,-491.52 329.47,-468.38 355.38,-450.21"/>
<polygon fill="black" stroke="black" points="357.14,-453.26 363.32,-444.65 353.12,-447.53 357.14,-453.26"/>
<text text-anchor="middle" x="379.24" y="-464.5" font-family="Times New Roman,serif" font-size="14.00">graphAnd#179</text>
</g>
<!-- 167&#45;&gt;156 -->
<g id="edge15" class="edge">
<title>167&#45;&gt;156</title>
<path fill="none" stroke="black" d="M275.54,-501.28C262.15,-499.41 229.11,-493.43 206.75,-477.8 197.33,-471.21 189.06,-461.77 182.5,-452.76"/>
<polygon fill="black" stroke="black" points="185.45,-450.88 176.94,-444.57 179.66,-454.81 185.45,-450.88"/>
<text text-anchor="middle" x="237.12" y="-464.5" font-family="Times New Roman,serif" font-size="14.00">iterate#173</text>
</g>
<!-- 104 -->
<g id="node30" class="node">
<title>104</title>
<polygon fill="yellow" stroke="black" points="641.12,-1329.1 571.88,-1329.1 571.88,-1293.1 641.12,-1293.1 641.12,-1329.1"/>
<text text-anchor="middle" x="606.5" y="-1306.05" font-family="Times New Roman,serif" font-size="14.00">Index = 0</text>
<text text-anchor="middle" x="557.25" y="-1332.3" font-family="Times New Roman,serif" font-size="14.00">[104]</text>
</g>
<!-- 124 -->
<g id="node43" class="node">
<title>124</title>
<polygon fill="aquamarine" stroke="black" points="447.5,-1240.6 440.3,-1233.4 447.5,-1226.2 454.7,-1233.4 447.5,-1240.6"/>
<text text-anchor="middle" x="421.93" y="-1243.8" font-family="Times New Roman,serif" font-size="14.00">&lt;124&gt;</text>
</g>
<!-- 104&#45;&gt;124 -->
<g id="edge8" class="edge">
<title>104&#45;&gt;124</title>
<path fill="none" stroke="black" d="M571.61,-1293.49C537.35,-1277.18 486.77,-1253.1 462.1,-1241.35"/>
<polygon fill="black" stroke="black" points="463.69,-1238.23 453.15,-1237.09 460.68,-1244.55 463.69,-1238.23"/>
<text text-anchor="middle" x="572.27" y="-1261.8" font-family="Times New Roman,serif" font-size="14.00">graphAnd#139</text>
</g>
<!-- 172 -->
<g id="node33" class="node">
<title>172</title>
<polygon fill="yellow" stroke="black" points="487.5,-266.3 309.5,-266.3 309.5,-230.3 487.5,-230.3 487.5,-266.3"/>
<text text-anchor="middle" x="398.5" y="-243.25" font-family="Times New Roman,serif" font-size="14.00">elements.elements[x] = value</text>
<text text-anchor="middle" x="294.88" y="-269.5" font-family="Times New Roman,serif" font-size="14.00">[172]</text>
</g>
<!-- 169&#45;&gt;172 -->
<g id="edge21" class="edge">
<title>169&#45;&gt;172</title>
<path fill="none" stroke="black" d="M396.09,-318.71C396.5,-307.06 397.04,-291.35 397.51,-277.82"/>
<polygon fill="black" stroke="black" points="401,-278.28 397.85,-268.16 394,-278.04 401,-278.28"/>
<text text-anchor="middle" x="437.77" y="-287.5" font-family="Times New Roman,serif" font-size="14.00">graphAnd#184</text>
</g>
<!-- 107&#45;&gt;104 -->
<g id="edge49" class="edge">
<title>107&#45;&gt;104</title>
<path fill="none" stroke="black" d="M646.16,-1405.76C638.67,-1388.08 626.95,-1360.4 618.19,-1339.7"/>
<polygon fill="black" stroke="black" points="621.5,-1338.56 614.38,-1330.72 615.06,-1341.29 621.5,-1338.56"/>
<text text-anchor="middle" x="678.8" y="-1362.55" font-family="Times New Roman,serif" font-size="14.00">graphAnd#117</text>
</g>
<!-- 172&#45;&gt;175 -->
<g id="edge27" class="edge">
<title>172&#45;&gt;175</title>
<path fill="none" stroke="black" d="M406.79,-230.11C412.83,-219.09 421.93,-205.13 433.25,-195.8 453,-179.51 481.45,-169.68 499.18,-164.75"/>
<polygon fill="black" stroke="black" points="499.84,-168.19 508.67,-162.33 498.11,-161.41 499.84,-168.19"/>
<text text-anchor="middle" x="467.38" y="-199" font-family="Times New Roman,serif" font-size="14.00">merge2#191</text>
</g>
<!-- 110 -->
<g id="node34" class="node">
<title>110</title>
<polygon fill="yellow" stroke="black" points="405,-1173.7 218,-1173.7 218,-1137.7 405,-1137.7 405,-1173.7"/>
<text text-anchor="middle" x="311.5" y="-1150.65" font-family="Times New Roman,serif" font-size="14.00">Index &gt; dimension@pre &#45; 1 &#45; 0</text>
<text text-anchor="middle" x="203.38" y="-1176.9" font-family="Times New Roman,serif" font-size="14.00">[110]</text>
</g>
<!-- 126 -->
<g id="node44" class="node">
<title>126</title>
<polygon fill="yellow" stroke="black" points="338.5,-1085.2 284.5,-1085.2 284.5,-1049.2 338.5,-1049.2 338.5,-1085.2"/>
<text text-anchor="middle" x="311.5" y="-1062.15" font-family="Times New Roman,serif" font-size="14.00">check</text>
<text text-anchor="middle" x="269.88" y="-1088.4" font-family="Times New Roman,serif" font-size="14.00">[126]</text>
</g>
<!-- 110&#45;&gt;126 -->
<g id="edge6" class="edge">
<title>110&#45;&gt;126</title>
<path fill="none" stroke="black" d="M311.5,-1137.61C311.5,-1125.96 311.5,-1110.25 311.5,-1096.72"/>
<polygon fill="black" stroke="black" points="315,-1097.06 311.5,-1087.06 308,-1097.06 315,-1097.06"/>
<text text-anchor="middle" x="352" y="-1106.4" font-family="Times New Roman,serif" font-size="14.00">graphAnd#137</text>
</g>
<!-- 174 -->
<g id="node35" class="node">
<title>174</title>
<polygon fill="aquamarine" stroke="black" points="311.5,-983.4 304.3,-976.2 311.5,-969 318.7,-976.2 311.5,-983.4"/>
<text text-anchor="middle" x="285.93" y="-986.6" font-family="Times New Roman,serif" font-size="14.00">&lt;174&gt;</text>
</g>
<!-- 174&#45;&gt;132 -->
<g id="edge24" class="edge">
<title>174&#45;&gt;132</title>
<path fill="none" stroke="black" d="M314.41,-971.45C321.74,-962.14 341.9,-937.56 362.5,-921.2 367.64,-917.12 373.31,-913.19 379.05,-909.53"/>
<polygon fill="black" stroke="black" points="380.69,-912.63 387.4,-904.44 377.04,-906.66 380.69,-912.63"/>
<text text-anchor="middle" x="391" y="-924.4" font-family="Times New Roman,serif" font-size="14.00">split1#188</text>
</g>
<!-- 174&#45;&gt;141 -->
<g id="edge25" class="edge">
<title>174&#45;&gt;141</title>
<path fill="none" stroke="black" d="M307.95,-972.13C301.44,-966.25 287.75,-952.6 282.5,-937.7 279.96,-930.5 279.01,-922.39 278.86,-914.76"/>
<polygon fill="black" stroke="black" points="282.35,-914.99 279.14,-904.89 275.36,-914.79 282.35,-914.99"/>
<text text-anchor="middle" x="311" y="-924.4" font-family="Times New Roman,serif" font-size="14.00">split2#189</text>
</g>
<!-- 175&#45;&gt;177 -->
<g id="edge33" class="edge">
<title>175&#45;&gt;177</title>
<path fill="none" stroke="black" d="M515.82,-152.52C516.61,-142.21 519.41,-121.43 529.25,-107.3 534.15,-100.26 541.8,-94.57 548.63,-90.48"/>
<polygon fill="black" stroke="black" points="550.17,-93.63 557.37,-85.86 546.9,-87.44 550.17,-93.63"/>
<text text-anchor="middle" x="563.38" y="-110.5" font-family="Times New Roman,serif" font-size="14.00">merge1#198</text>
</g>
<!-- 176&#45;&gt;129 -->
<g id="edge31" class="edge">
<title>176&#45;&gt;129</title>
<path fill="none" stroke="black" d="M763.13,-1591.3C758.2,-1586.84 748.81,-1578.15 741.5,-1570.1 734.36,-1562.23 727.01,-1553.34 720.45,-1545.08"/>
<polygon fill="black" stroke="black" points="723.28,-1543.01 714.37,-1537.29 717.77,-1547.33 723.28,-1543.01"/>
<text text-anchor="middle" x="770" y="-1556.8" font-family="Times New Roman,serif" font-size="14.00">split1#196</text>
</g>
<!-- 176&#45;&gt;101 -->
<g id="edge32" class="edge">
<title>176&#45;&gt;101</title>
<path fill="none" stroke="black" d="M770.47,-1591.73C776.75,-1587.58 789.23,-1578.95 798.5,-1570.1 812.02,-1557.21 825.46,-1540.42 834.08,-1529.01"/>
<polygon fill="black" stroke="black" points="836.7,-1531.37 839.82,-1521.24 831.07,-1527.21 836.7,-1531.37"/>
<text text-anchor="middle" x="841.65" y="-1556.8" font-family="Times New Roman,serif" font-size="14.00">split2#197</text>
</g>
<!-- 113 -->
<g id="node38" class="node">
<title>113</title>
<polygon fill="yellow" stroke="black" points="699.12,-1173.7 503.88,-1173.7 503.88,-1137.7 699.12,-1137.7 699.12,-1173.7"/>
<text text-anchor="middle" x="601.5" y="-1150.65" font-family="Times New Roman,serif" font-size="14.00">Index &lt;= dimension@pre &#45; 1 &#45; 0</text>
<text text-anchor="middle" x="489.25" y="-1176.9" font-family="Times New Roman,serif" font-size="14.00">[113]</text>
</g>
<!-- 116 -->
<g id="node40" class="node">
<title>116</title>
<polygon fill="yellow" stroke="black" points="786.5,-1085.2 542.5,-1085.2 542.5,-1049.2 786.5,-1049.2 786.5,-1085.2"/>
<text text-anchor="middle" x="664.5" y="-1062.15" font-family="Times New Roman,serif" font-size="14.00">elem = Sequence{0..dimension@pre &#45; 1}</text>
<text text-anchor="middle" x="527.88" y="-1088.4" font-family="Times New Roman,serif" font-size="14.00">[116]</text>
</g>
<!-- 113&#45;&gt;116 -->
<g id="edge1" class="edge">
<title>113&#45;&gt;116</title>
<path fill="none" stroke="black" d="M613.95,-1137.61C622.86,-1125.37 635.04,-1108.65 645.21,-1094.69"/>
<polygon fill="black" stroke="black" points="647.91,-1096.92 650.97,-1086.77 642.26,-1092.8 647.91,-1096.92"/>
<text text-anchor="middle" x="679.14" y="-1106.4" font-family="Times New Roman,serif" font-size="14.00">graphAnd#128</text>
</g>
<!-- 177&#45;&gt;72 -->
<g id="edge35" class="edge">
<title>177&#45;&gt;72</title>
<path fill="none" stroke="black" d="M563.5,-74.24C563.5,-64.87 563.5,-47.63 563.5,-33.7"/>
<polygon fill="black" stroke="black" points="567,-34.11 563.5,-24.11 560,-34.11 567,-34.11"/>
<text text-anchor="middle" x="612.62" y="-43.6" font-family="Times New Roman,serif" font-size="14.00">graphOr_end#200</text>
</g>
<!-- 119 -->
<g id="node41" class="node">
<title>119</title>
<polygon fill="yellow" stroke="black" points="939.88,-996.7 461.12,-996.7 461.12,-955.7 939.88,-955.7 939.88,-996.7"/>
<text text-anchor="middle" x="700.5" y="-979.4" font-family="Times New Roman,serif" font-size="14.00">indices@pre.indices[elem@pre] &gt;= 0 and</text>
<text text-anchor="middle" x="700.5" y="-962.9" font-family="Times New Roman,serif" font-size="14.00">indices@pre.indices[elem@pre] &lt; dimensionSizes@pre.dimensionSizes[elem@pre]</text>
<text text-anchor="middle" x="446.5" y="-999.9" font-family="Times New Roman,serif" font-size="14.00">[119]</text>
</g>
<!-- 116&#45;&gt;119 -->
<g id="edge2" class="edge">
<title>116&#45;&gt;119</title>
<path fill="none" stroke="black" d="M671.44,-1049.04C676.18,-1037.32 682.59,-1021.47 688.19,-1007.64"/>
<polygon fill="black" stroke="black" points="691.38,-1009.09 691.88,-998.51 684.89,-1006.47 691.38,-1009.09"/>
<text text-anchor="middle" x="725.16" y="-1017.9" font-family="Times New Roman,serif" font-size="14.00">graphAnd#129</text>
</g>
<!-- 122 -->
<g id="node42" class="node">
<title>122</title>
<polygon fill="yellow" stroke="black" points="677.38,-903.2 561.62,-903.2 561.62,-867.2 677.38,-867.2 677.38,-903.2"/>
<text text-anchor="middle" x="619.5" y="-880.15" font-family="Times New Roman,serif" font-size="14.00">Index = Index + 1</text>
<text text-anchor="middle" x="547" y="-906.4" font-family="Times New Roman,serif" font-size="14.00">[122]</text>
</g>
<!-- 119&#45;&gt;122 -->
<g id="edge3" class="edge">
<title>119&#45;&gt;122</title>
<path fill="none" stroke="black" d="M682.52,-955.45C670.79,-942.56 655.36,-925.6 642.7,-911.69"/>
<polygon fill="black" stroke="black" points="645.58,-909.65 636.26,-904.61 640.4,-914.36 645.58,-909.65"/>
<text text-anchor="middle" x="705.35" y="-924.4" font-family="Times New Roman,serif" font-size="14.00">graphAnd#130</text>
</g>
<!-- 122&#45;&gt;124 -->
<g id="edge5" class="edge">
<title>122&#45;&gt;124</title>
<path fill="none" stroke="black" d="M561.16,-890.13C506.61,-897.35 433.5,-917.74 433.5,-975.2 433.5,-1156.7 433.5,-1156.7 433.5,-1156.7 433.5,-1177.58 438.71,-1201.17 442.78,-1216.38"/>
<polygon fill="black" stroke="black" points="439.37,-1217.21 445.48,-1225.86 446.11,-1215.29 439.37,-1217.21"/>
<text text-anchor="middle" x="463.88" y="-1062.15" font-family="Times New Roman,serif" font-size="14.00">iterate#133</text>
</g>
<!-- 124&#45;&gt;110 -->
<g id="edge7" class="edge">
<title>124&#45;&gt;110</title>
<path fill="none" stroke="black" d="M440.28,-1232.77C421.47,-1233.35 370.21,-1232.47 338.5,-1208.2 330.63,-1202.18 324.83,-1193.21 320.67,-1184.44"/>
<polygon fill="black" stroke="black" points="324,-1183.34 316.95,-1175.44 317.53,-1186.02 324,-1183.34"/>
<text text-anchor="middle" x="379" y="-1194.9" font-family="Times New Roman,serif" font-size="14.00">graphAnd#138</text>
</g>
<!-- 124&#45;&gt;113 -->
<g id="edge4" class="edge">
<title>124&#45;&gt;113</title>
<path fill="none" stroke="black" d="M451.94,-1230.22C467.11,-1222.76 518.01,-1197.74 556.25,-1178.94"/>
<polygon fill="black" stroke="black" points="557.37,-1182.29 564.8,-1174.74 554.28,-1176.01 557.37,-1182.29"/>
<text text-anchor="middle" x="559.49" y="-1194.9" font-family="Times New Roman,serif" font-size="14.00">iterate#132</text>
</g>
<!-- 126&#45;&gt;174 -->
<g id="edge29" class="edge">
<title>126&#45;&gt;174</title>
<path fill="none" stroke="black" d="M311.5,-1049.04C311.5,-1033.57 311.5,-1010.9 311.5,-995.19"/>
<polygon fill="black" stroke="black" points="315,-995.44 311.5,-985.44 308,-995.44 315,-995.44"/>
<text text-anchor="middle" x="352" y="-1017.9" font-family="Times New Roman,serif" font-size="14.00">graphAnd#194</text>
</g>
</g>
</svg>
