<?xml version="1.0" encoding="UTF-8" standalone="no"?>
<!DOCTYPE svg PUBLIC "-//W3C//DTD SVG 1.1//EN"
 "http://www.w3.org/Graphics/SVG/1.1/DTD/svg11.dtd">
<!-- Generated by graphviz version 12.2.1 (20241206.2353)
 -->
<!-- Title: CLG Pages: 1 -->
<svg width="1616pt" height="1679pt"
 viewBox="0.00 0.00 1615.50 1678.90" xmlns="http://www.w3.org/2000/svg" xmlns:xlink="http://www.w3.org/1999/xlink">
<g id="graph0" class="graph" transform="scale(1 1) rotate(0) translate(4 1674.9)">
<title>CLG</title>
<polygon fill="white" stroke="none" points="-4,4 -4,-1674.9 1611.5,-1674.9 1611.5,4 -4,4"/>
<!-- 129 -->
<g id="node1" class="node">
<title>129</title>
<polygon fill="yellow" stroke="black" points="1015.88,-1432.1 931.62,-1432.1 931.62,-1396.1 1015.88,-1396.1 1015.88,-1432.1"/>
<text text-anchor="middle" x="973.75" y="-1409.05" font-family="Times New Roman,serif" font-size="14.00">check = true</text>
<text text-anchor="middle" x="917" y="-1435.3" font-family="Times New Roman,serif" font-size="14.00">[129]</text>
</g>
<!-- 126 -->
<g id="node48" class="node">
<title>126</title>
<polygon fill="yellow" stroke="black" points="1134.38,-1324.1 1065.12,-1324.1 1065.12,-1288.1 1134.38,-1288.1 1134.38,-1324.1"/>
<text text-anchor="middle" x="1099.75" y="-1301.05" font-family="Times New Roman,serif" font-size="14.00">Index = 0</text>
<text text-anchor="middle" x="1050.5" y="-1327.3" font-family="Times New Roman,serif" font-size="14.00">[126]</text>
</g>
<!-- 129&#45;&gt;126 -->
<g id="edge8" class="edge">
<title>129&#45;&gt;126</title>
<path fill="none" stroke="black" d="M994.27,-1395.83C1014.96,-1378.43 1047.08,-1351.41 1070.44,-1331.76"/>
<polygon fill="black" stroke="black" points="1072.68,-1334.45 1078.08,-1325.33 1068.17,-1329.09 1072.68,-1334.45"/>
<text text-anchor="middle" x="1095.9" y="-1355.05" font-family="Times New Roman,serif" font-size="14.00">graphAnd#144</text>
</g>
<!-- 132 -->
<g id="node2" class="node">
<title>132</title>
<polygon fill="yellow" stroke="black" points="1102.25,-1168.7 915.25,-1168.7 915.25,-1132.7 1102.25,-1132.7 1102.25,-1168.7"/>
<text text-anchor="middle" x="1008.75" y="-1145.65" font-family="Times New Roman,serif" font-size="14.00">Index &gt; dimension@pre &#45; 1 &#45; 0</text>
<text text-anchor="middle" x="900.62" y="-1171.9" font-family="Times New Roman,serif" font-size="14.00">[132]</text>
</g>
<!-- 151 -->
<g id="node9" class="node">
<title>151</title>
<polygon fill="yellow" stroke="black" points="1010.75,-1080.2 956.75,-1080.2 956.75,-1044.2 1010.75,-1044.2 1010.75,-1080.2"/>
<text text-anchor="middle" x="983.75" y="-1057.15" font-family="Times New Roman,serif" font-size="14.00">check</text>
<text text-anchor="middle" x="942.12" y="-1083.4" font-family="Times New Roman,serif" font-size="14.00">[151]</text>
</g>
<!-- 132&#45;&gt;151 -->
<g id="edge15" class="edge">
<title>132&#45;&gt;151</title>
<path fill="none" stroke="black" d="M1003.81,-1132.61C1000.41,-1120.84 995.81,-1104.93 991.87,-1091.31"/>
<polygon fill="black" stroke="black" points="995.32,-1090.64 989.18,-1082 988.6,-1092.58 995.32,-1090.64"/>
<text text-anchor="middle" x="1038.99" y="-1101.4" font-family="Times New Roman,serif" font-size="14.00">graphAnd#167</text>
</g>
<!-- 135 -->
<g id="node3" class="node">
<title>135</title>
<polygon fill="yellow" stroke="black" points="1315.38,-1168.7 1120.12,-1168.7 1120.12,-1132.7 1315.38,-1132.7 1315.38,-1168.7"/>
<text text-anchor="middle" x="1217.75" y="-1145.65" font-family="Times New Roman,serif" font-size="14.00">Index &lt;= dimension@pre &#45; 1 &#45; 0</text>
<text text-anchor="middle" x="1105.5" y="-1171.9" font-family="Times New Roman,serif" font-size="14.00">[135]</text>
</g>
<!-- 138 -->
<g id="node4" class="node">
<title>138</title>
<polygon fill="yellow" stroke="black" points="1351.75,-1080.2 1107.75,-1080.2 1107.75,-1044.2 1351.75,-1044.2 1351.75,-1080.2"/>
<text text-anchor="middle" x="1229.75" y="-1057.15" font-family="Times New Roman,serif" font-size="14.00">elem = Sequence{0..dimension@pre &#45; 1}</text>
<text text-anchor="middle" x="1093.12" y="-1083.4" font-family="Times New Roman,serif" font-size="14.00">[138]</text>
</g>
<!-- 135&#45;&gt;138 -->
<g id="edge10" class="edge">
<title>135&#45;&gt;138</title>
<path fill="none" stroke="black" d="M1220.12,-1132.61C1221.74,-1120.96 1223.92,-1105.25 1225.79,-1091.72"/>
<polygon fill="black" stroke="black" points="1229.23,-1092.44 1227.14,-1082.05 1222.29,-1091.47 1229.23,-1092.44"/>
<text text-anchor="middle" x="1265.32" y="-1101.4" font-family="Times New Roman,serif" font-size="14.00">graphAnd#158</text>
</g>
<!-- 141 -->
<g id="node5" class="node">
<title>141</title>
<polygon fill="yellow" stroke="black" points="1342.25,-991.7 1119.25,-991.7 1119.25,-955.7 1342.25,-955.7 1342.25,-991.7"/>
<text text-anchor="middle" x="1230.75" y="-968.65" font-family="Times New Roman,serif" font-size="14.00">indices@pre.indices[elem@pre] &gt;= 0</text>
<text text-anchor="middle" x="1104.62" y="-994.9" font-family="Times New Roman,serif" font-size="14.00">[141]</text>
</g>
<!-- 138&#45;&gt;141 -->
<g id="edge11" class="edge">
<title>138&#45;&gt;141</title>
<path fill="none" stroke="black" d="M1229.95,-1044.11C1230.08,-1032.46 1230.26,-1016.75 1230.42,-1003.22"/>
<polygon fill="black" stroke="black" points="1233.92,-1003.6 1230.53,-993.56 1226.92,-1003.52 1233.92,-1003.6"/>
<text text-anchor="middle" x="1270.84" y="-1012.9" font-family="Times New Roman,serif" font-size="14.00">graphAnd#159</text>
</g>
<!-- 144 -->
<g id="node6" class="node">
<title>144</title>
<polygon fill="yellow" stroke="black" points="1519.12,-903.2 1040.38,-903.2 1040.38,-867.2 1519.12,-867.2 1519.12,-903.2"/>
<text text-anchor="middle" x="1279.75" y="-880.15" font-family="Times New Roman,serif" font-size="14.00">indices@pre.indices[elem@pre] &lt; dimensionSizes@pre.dimensionSizes[elem@pre]</text>
<text text-anchor="middle" x="1025.75" y="-906.4" font-family="Times New Roman,serif" font-size="14.00">[144]</text>
</g>
<!-- 141&#45;&gt;144 -->
<g id="edge9" class="edge">
<title>141&#45;&gt;144</title>
<path fill="none" stroke="black" d="M1240.43,-955.61C1247.23,-943.6 1256.47,-927.29 1264.29,-913.5"/>
<polygon fill="black" stroke="black" points="1267.29,-915.29 1269.18,-904.87 1261.2,-911.84 1267.29,-915.29"/>
<text text-anchor="middle" x="1300.14" y="-924.4" font-family="Times New Roman,serif" font-size="14.00">graphAnd#155</text>
</g>
<!-- 147 -->
<g id="node7" class="node">
<title>147</title>
<polygon fill="yellow" stroke="black" points="1537.62,-795.2 1421.88,-795.2 1421.88,-759.2 1537.62,-759.2 1537.62,-795.2"/>
<text text-anchor="middle" x="1479.75" y="-772.15" font-family="Times New Roman,serif" font-size="14.00">Index = Index + 1</text>
<text text-anchor="middle" x="1407.25" y="-798.4" font-family="Times New Roman,serif" font-size="14.00">[147]</text>
</g>
<!-- 144&#45;&gt;147 -->
<g id="edge12" class="edge">
<title>144&#45;&gt;147</title>
<path fill="none" stroke="black" d="M1312.33,-866.93C1346.22,-848.97 1399.46,-820.75 1436.78,-800.98"/>
<polygon fill="black" stroke="black" points="1438.32,-804.12 1445.52,-796.34 1435.04,-797.93 1438.32,-804.12"/>
<text text-anchor="middle" x="1449.85" y="-826.15" font-family="Times New Roman,serif" font-size="14.00">graphAnd#160</text>
</g>
<!-- 149 -->
<g id="node8" class="node">
<title>149</title>
<polygon fill="aquamarine" stroke="black" points="1112.75,-1235.6 1105.55,-1228.4 1112.75,-1221.2 1119.95,-1228.4 1112.75,-1235.6"/>
<text text-anchor="middle" x="1087.17" y="-1238.8" font-family="Times New Roman,serif" font-size="14.00">&lt;149&gt;</text>
</g>
<!-- 147&#45;&gt;149 -->
<g id="edge14" class="edge">
<title>147&#45;&gt;149</title>
<path fill="none" stroke="black" d="M1499.49,-795.6C1519.25,-815.04 1546.75,-848.5 1546.75,-884.2 1546.75,-1151.7 1546.75,-1151.7 1546.75,-1151.7 1546.75,-1194.72 1211.57,-1220.59 1130.33,-1226.23"/>
<polygon fill="black" stroke="black" points="1130.47,-1222.71 1120.73,-1226.88 1130.95,-1229.7 1130.47,-1222.71"/>
<text text-anchor="middle" x="1577.12" y="-1012.9" font-family="Times New Roman,serif" font-size="14.00">iterate#163</text>
</g>
<!-- 149&#45;&gt;132 -->
<g id="edge16" class="edge">
<title>149&#45;&gt;132</title>
<path fill="none" stroke="black" d="M1107.79,-1225.6C1098.48,-1222.09 1077.97,-1213.75 1062.75,-1203.2 1051.83,-1195.63 1040.99,-1185.85 1031.92,-1176.86"/>
<polygon fill="black" stroke="black" points="1034.69,-1174.68 1025.19,-1169.98 1029.68,-1179.58 1034.69,-1174.68"/>
<text text-anchor="middle" x="1103.25" y="-1189.9" font-family="Times New Roman,serif" font-size="14.00">graphAnd#168</text>
</g>
<!-- 149&#45;&gt;135 -->
<g id="edge13" class="edge">
<title>149&#45;&gt;135</title>
<path fill="none" stroke="black" d="M1116.74,-1224.52C1127.77,-1216.57 1159.51,-1193.69 1184.5,-1175.67"/>
<polygon fill="black" stroke="black" points="1186.39,-1178.62 1192.46,-1169.93 1182.3,-1172.94 1186.39,-1178.62"/>
<text text-anchor="middle" x="1198.77" y="-1189.9" font-family="Times New Roman,serif" font-size="14.00">iterate#162</text>
</g>
<!-- 196 -->
<g id="node25" class="node">
<title>196</title>
<polygon fill="aquamarine" stroke="black" points="974.75,-980.9 967.55,-973.7 974.75,-966.5 981.95,-973.7 974.75,-980.9"/>
<text text-anchor="middle" x="949.17" y="-984.1" font-family="Times New Roman,serif" font-size="14.00">&lt;196&gt;</text>
</g>
<!-- 151&#45;&gt;196 -->
<g id="edge38" class="edge">
<title>151&#45;&gt;196</title>
<path fill="none" stroke="black" d="M981.97,-1044.11C980.4,-1029.03 978.13,-1007.15 976.55,-992.01"/>
<polygon fill="black" stroke="black" points="980.05,-991.86 975.54,-982.28 973.09,-992.59 980.05,-991.86"/>
<text text-anchor="middle" x="1020.56" y="-1012.9" font-family="Times New Roman,serif" font-size="14.00">graphAnd#222</text>
</g>
<!-- 154 -->
<g id="node10" class="node">
<title>154</title>
<polygon fill="yellow" stroke="black" points="1022.5,-903.2 927,-903.2 927,-867.2 1022.5,-867.2 1022.5,-903.2"/>
<text text-anchor="middle" x="974.75" y="-880.15" font-family="Times New Roman,serif" font-size="14.00">dimension = 1</text>
<text text-anchor="middle" x="912.38" y="-906.4" font-family="Times New Roman,serif" font-size="14.00">[154]</text>
</g>
<!-- 157 -->
<g id="node11" class="node">
<title>157</title>
<polygon fill="yellow" stroke="black" points="1052,-795.2 917.5,-795.2 917.5,-759.2 1052,-759.2 1052,-795.2"/>
<text text-anchor="middle" x="984.75" y="-772.15" font-family="Times New Roman,serif" font-size="14.00">x = indices.indices[0]</text>
<text text-anchor="middle" x="902.88" y="-798.4" font-family="Times New Roman,serif" font-size="14.00">[157]</text>
</g>
<!-- 154&#45;&gt;157 -->
<g id="edge31" class="edge">
<title>154&#45;&gt;157</title>
<path fill="none" stroke="black" d="M976.36,-867.17C977.89,-850.96 980.22,-826.26 982.03,-806.99"/>
<polygon fill="black" stroke="black" points="985.52,-807.33 982.97,-797.05 978.55,-806.67 985.52,-807.33"/>
<text text-anchor="middle" x="1021.73" y="-826.15" font-family="Times New Roman,serif" font-size="14.00">graphAnd#213</text>
</g>
<!-- 160 -->
<g id="node12" class="node">
<title>160</title>
<polygon fill="yellow" stroke="black" points="1059.12,-652.7 910.38,-652.7 910.38,-616.7 1059.12,-616.7 1059.12,-652.7"/>
<text text-anchor="middle" x="984.75" y="-629.65" font-family="Times New Roman,serif" font-size="14.00">self.elements[x] = value</text>
<text text-anchor="middle" x="895.75" y="-655.9" font-family="Times New Roman,serif" font-size="14.00">[160]</text>
</g>
<!-- 157&#45;&gt;160 -->
<g id="edge19" class="edge">
<title>157&#45;&gt;160</title>
<path fill="none" stroke="black" d="M984.75,-758.97C984.75,-735.38 984.75,-692.7 984.75,-664.28"/>
<polygon fill="black" stroke="black" points="988.25,-664.58 984.75,-654.58 981.25,-664.58 988.25,-664.58"/>
<text text-anchor="middle" x="1025.25" y="-727.9" font-family="Times New Roman,serif" font-size="14.00">graphAnd#177</text>
</g>
<!-- 197 -->
<g id="node26" class="node">
<title>197</title>
<polygon fill="aquamarine" stroke="black" points="867.75,-167 860.55,-159.8 867.75,-152.6 874.95,-159.8 867.75,-167"/>
<text text-anchor="middle" x="842.17" y="-170.2" font-family="Times New Roman,serif" font-size="14.00">&lt;197&gt;</text>
</g>
<!-- 160&#45;&gt;197 -->
<g id="edge35" class="edge">
<title>160&#45;&gt;197</title>
<path fill="none" stroke="black" d="M984.75,-616.31C984.75,-597.04 984.75,-565.02 984.75,-537.45 984.75,-537.45 984.75,-537.45 984.75,-247.3 984.75,-198.01 916.78,-173.61 884.45,-164.79"/>
<polygon fill="black" stroke="black" points="885.41,-161.42 874.86,-162.37 883.71,-168.21 885.41,-161.42"/>
<text text-anchor="middle" x="1018.88" y="-420.25" font-family="Times New Roman,serif" font-size="14.00">merge1#218</text>
</g>
<!-- 163 -->
<g id="node13" class="node">
<title>163</title>
<polygon fill="yellow" stroke="black" points="908.62,-903.2 804.88,-903.2 804.88,-867.2 908.62,-867.2 908.62,-903.2"/>
<text text-anchor="middle" x="856.75" y="-880.15" font-family="Times New Roman,serif" font-size="14.00">dimension &lt;&gt; 1</text>
<text text-anchor="middle" x="790.25" y="-906.4" font-family="Times New Roman,serif" font-size="14.00">[163]</text>
</g>
<!-- 166 -->
<g id="node14" class="node">
<title>166</title>
<polygon fill="yellow" stroke="black" points="899.12,-795.2 804.38,-795.2 804.38,-759.2 899.12,-759.2 899.12,-795.2"/>
<text text-anchor="middle" x="851.75" y="-772.15" font-family="Times New Roman,serif" font-size="14.00">x = IterateExp</text>
<text text-anchor="middle" x="789.75" y="-798.4" font-family="Times New Roman,serif" font-size="14.00">[166]</text>
</g>
<!-- 163&#45;&gt;166 -->
<g id="edge32" class="edge">
<title>163&#45;&gt;166</title>
<path fill="none" stroke="black" d="M855.95,-867.17C855.18,-850.96 854.02,-826.26 853.11,-806.99"/>
<polygon fill="black" stroke="black" points="856.61,-806.88 852.64,-797.05 849.61,-807.21 856.61,-806.88"/>
<text text-anchor="middle" x="895.49" y="-826.15" font-family="Times New Roman,serif" font-size="14.00">graphAnd#214</text>
</g>
<!-- 172 -->
<g id="node16" class="node">
<title>172</title>
<polygon fill="yellow" stroke="black" points="953.75,-706.7 727.75,-706.7 727.75,-670.7 953.75,-670.7 953.75,-706.7"/>
<text text-anchor="middle" x="840.75" y="-683.65" font-family="Times New Roman,serif" font-size="14.00">indez = indices.indices[dimension &#45; 1]</text>
<text text-anchor="middle" x="713.12" y="-709.9" font-family="Times New Roman,serif" font-size="14.00">[172]</text>
</g>
<!-- 166&#45;&gt;172 -->
<g id="edge29" class="edge">
<title>166&#45;&gt;172</title>
<path fill="none" stroke="black" d="M849.58,-759.11C848.09,-747.46 846.1,-731.75 844.38,-718.22"/>
<polygon fill="black" stroke="black" points="847.88,-718.03 843.15,-708.55 840.94,-718.91 847.88,-718.03"/>
<text text-anchor="middle" x="887.74" y="-727.9" font-family="Times New Roman,serif" font-size="14.00">graphAnd#209</text>
</g>
<!-- 169 -->
<g id="node15" class="node">
<title>169</title>
<polygon fill="yellow" stroke="black" points="817.38,-598.7 748.12,-598.7 748.12,-562.7 817.38,-562.7 817.38,-598.7"/>
<text text-anchor="middle" x="782.75" y="-575.65" font-family="Times New Roman,serif" font-size="14.00">Index = 0</text>
<text text-anchor="middle" x="733.5" y="-601.9" font-family="Times New Roman,serif" font-size="14.00">[169]</text>
</g>
<!-- 189 -->
<g id="node22" class="node">
<title>189</title>
<polygon fill="aquamarine" stroke="black" points="755.75,-510.2 748.55,-503 755.75,-495.8 762.95,-503 755.75,-510.2"/>
<text text-anchor="middle" x="730.17" y="-513.4" font-family="Times New Roman,serif" font-size="14.00">&lt;189&gt;</text>
</g>
<!-- 169&#45;&gt;189 -->
<g id="edge28" class="edge">
<title>169&#45;&gt;189</title>
<path fill="none" stroke="black" d="M776.62,-562.52C772.05,-549.7 765.85,-532.32 761.4,-519.83"/>
<polygon fill="black" stroke="black" points="764.69,-518.66 758.04,-510.42 758.1,-521.01 764.69,-518.66"/>
<text text-anchor="middle" x="810.56" y="-531.4" font-family="Times New Roman,serif" font-size="14.00">graphAnd#208</text>
</g>
<!-- 172&#45;&gt;169 -->
<g id="edge20" class="edge">
<title>172&#45;&gt;169</title>
<path fill="none" stroke="black" d="M830.68,-670.31C827.48,-664.7 823.93,-658.46 820.75,-652.7 812.79,-638.32 804.13,-622.17 797.09,-608.91"/>
<polygon fill="black" stroke="black" points="800.31,-607.52 792.54,-600.33 794.13,-610.8 800.31,-607.52"/>
<text text-anchor="middle" x="861.25" y="-629.65" font-family="Times New Roman,serif" font-size="14.00">graphAnd#186</text>
</g>
<!-- 175 -->
<g id="node17" class="node">
<title>175</title>
<polygon fill="yellow" stroke="black" points="937.25,-443.3 780.25,-443.3 780.25,-407.3 937.25,-407.3 937.25,-443.3"/>
<text text-anchor="middle" x="858.75" y="-420.25" font-family="Times New Roman,serif" font-size="14.00">Index &gt; 0 &#45; dimension &#45; 2</text>
<text text-anchor="middle" x="765.62" y="-446.5" font-family="Times New Roman,serif" font-size="14.00">[175]</text>
</g>
<!-- 191 -->
<g id="node23" class="node">
<title>191</title>
<polygon fill="yellow" stroke="black" points="891.75,-354.8 837.75,-354.8 837.75,-318.8 891.75,-318.8 891.75,-354.8"/>
<text text-anchor="middle" x="864.75" y="-331.75" font-family="Times New Roman,serif" font-size="14.00">indez</text>
<text text-anchor="middle" x="823.12" y="-358" font-family="Times New Roman,serif" font-size="14.00">[191]</text>
</g>
<!-- 175&#45;&gt;191 -->
<g id="edge26" class="edge">
<title>175&#45;&gt;191</title>
<path fill="none" stroke="black" d="M859.94,-407.21C860.74,-395.56 861.83,-379.85 862.77,-366.32"/>
<polygon fill="black" stroke="black" points="866.24,-366.88 863.44,-356.66 859.26,-366.39 866.24,-366.88"/>
<text text-anchor="middle" x="902.79" y="-376" font-family="Times New Roman,serif" font-size="14.00">graphAnd#206</text>
</g>
<!-- 178 -->
<g id="node18" class="node">
<title>178</title>
<polygon fill="yellow" stroke="black" points="710.38,-443.3 545.12,-443.3 545.12,-407.3 710.38,-407.3 710.38,-443.3"/>
<text text-anchor="middle" x="627.75" y="-420.25" font-family="Times New Roman,serif" font-size="14.00">Index &lt;= 0 &#45; dimension &#45; 2</text>
<text text-anchor="middle" x="530.5" y="-446.5" font-family="Times New Roman,serif" font-size="14.00">[178]</text>
</g>
<!-- 181 -->
<g id="node19" class="node">
<title>181</title>
<polygon fill="yellow" stroke="black" points="712.12,-354.8 521.38,-354.8 521.38,-318.8 712.12,-318.8 712.12,-354.8"/>
<text text-anchor="middle" x="616.75" y="-331.75" font-family="Times New Roman,serif" font-size="14.00">i = Sequence{dimension &#45; 2..0}</text>
<text text-anchor="middle" x="506.75" y="-358" font-family="Times New Roman,serif" font-size="14.00">[181]</text>
</g>
<!-- 178&#45;&gt;181 -->
<g id="edge21" class="edge">
<title>178&#45;&gt;181</title>
<path fill="none" stroke="black" d="M625.58,-407.21C624.09,-395.56 622.1,-379.85 620.38,-366.32"/>
<polygon fill="black" stroke="black" points="623.88,-366.13 619.15,-356.65 616.94,-367.01 623.88,-366.13"/>
<text text-anchor="middle" x="663.74" y="-376" font-family="Times New Roman,serif" font-size="14.00">graphAnd#197</text>
</g>
<!-- 184 -->
<g id="node20" class="node">
<title>184</title>
<polygon fill="yellow" stroke="black" points="723,-266.3 498.5,-266.3 498.5,-230.3 723,-230.3 723,-266.3"/>
<text text-anchor="middle" x="610.75" y="-243.25" font-family="Times New Roman,serif" font-size="14.00">indez + indices.indices[i] * IterateExp</text>
<text text-anchor="middle" x="483.88" y="-269.5" font-family="Times New Roman,serif" font-size="14.00">[184]</text>
</g>
<!-- 181&#45;&gt;184 -->
<g id="edge22" class="edge">
<title>181&#45;&gt;184</title>
<path fill="none" stroke="black" d="M615.56,-318.71C614.76,-307.06 613.67,-291.35 612.73,-277.82"/>
<polygon fill="black" stroke="black" points="616.24,-277.89 612.06,-268.16 609.26,-278.38 616.24,-277.89"/>
<text text-anchor="middle" x="654.79" y="-287.5" font-family="Times New Roman,serif" font-size="14.00">graphAnd#198</text>
</g>
<!-- 187 -->
<g id="node21" class="node">
<title>187</title>
<polygon fill="yellow" stroke="black" points="749.62,-177.8 633.88,-177.8 633.88,-141.8 749.62,-141.8 749.62,-177.8"/>
<text text-anchor="middle" x="691.75" y="-154.75" font-family="Times New Roman,serif" font-size="14.00">Index = Index + 1</text>
<text text-anchor="middle" x="619.25" y="-181" font-family="Times New Roman,serif" font-size="14.00">[187]</text>
</g>
<!-- 184&#45;&gt;187 -->
<g id="edge23" class="edge">
<title>184&#45;&gt;187</title>
<path fill="none" stroke="black" d="M625.41,-229.82C634.04,-219.7 645.29,-206.83 655.75,-195.8 658.83,-192.55 662.13,-189.19 665.43,-185.9"/>
<polygon fill="black" stroke="black" points="667.75,-188.53 672.44,-179.03 662.85,-183.53 667.75,-188.53"/>
<text text-anchor="middle" x="696.25" y="-199" font-family="Times New Roman,serif" font-size="14.00">graphAnd#199</text>
</g>
<!-- 187&#45;&gt;189 -->
<g id="edge25" class="edge">
<title>187&#45;&gt;189</title>
<path fill="none" stroke="black" d="M719.62,-177.97C726.02,-183.03 732.25,-189.05 736.75,-195.8 749.9,-215.54 750.75,-223.58 750.75,-247.3 750.75,-426.3 750.75,-426.3 750.75,-426.3 750.75,-446.47 752.54,-469.6 753.98,-484.93"/>
<polygon fill="black" stroke="black" points="750.47,-485.01 754.95,-494.61 757.43,-484.31 750.47,-485.01"/>
<text text-anchor="middle" x="781.12" y="-331.75" font-family="Times New Roman,serif" font-size="14.00">iterate#202</text>
</g>
<!-- 189&#45;&gt;175 -->
<g id="edge27" class="edge">
<title>189&#45;&gt;175</title>
<path fill="none" stroke="black" d="M759.66,-499.12C770.48,-491.17 801.62,-468.29 826.13,-450.27"/>
<polygon fill="black" stroke="black" points="827.94,-453.29 833.92,-444.55 823.79,-447.65 827.94,-453.29"/>
<text text-anchor="middle" x="850.84" y="-464.5" font-family="Times New Roman,serif" font-size="14.00">graphAnd#207</text>
</g>
<!-- 189&#45;&gt;178 -->
<g id="edge24" class="edge">
<title>189&#45;&gt;178</title>
<path fill="none" stroke="black" d="M749.91,-501.28C736.12,-499.38 700.82,-493.23 676,-477.8 665.12,-471.03 655.08,-461.2 647,-451.94"/>
<polygon fill="black" stroke="black" points="649.94,-449.99 640.87,-444.51 644.54,-454.45 649.94,-449.99"/>
<text text-anchor="middle" x="706.38" y="-464.5" font-family="Times New Roman,serif" font-size="14.00">iterate#201</text>
</g>
<!-- 194 -->
<g id="node24" class="node">
<title>194</title>
<polygon fill="yellow" stroke="black" points="956.75,-266.3 778.75,-266.3 778.75,-230.3 956.75,-230.3 956.75,-266.3"/>
<text text-anchor="middle" x="867.75" y="-243.25" font-family="Times New Roman,serif" font-size="14.00">elements.elements[x] = value</text>
<text text-anchor="middle" x="764.12" y="-269.5" font-family="Times New Roman,serif" font-size="14.00">[194]</text>
</g>
<!-- 191&#45;&gt;194 -->
<g id="edge30" class="edge">
<title>191&#45;&gt;194</title>
<path fill="none" stroke="black" d="M865.34,-318.71C865.75,-307.06 866.29,-291.35 866.76,-277.82"/>
<polygon fill="black" stroke="black" points="870.25,-278.28 867.1,-268.16 863.25,-278.04 870.25,-278.28"/>
<text text-anchor="middle" x="907.02" y="-287.5" font-family="Times New Roman,serif" font-size="14.00">graphAnd#212</text>
</g>
<!-- 194&#45;&gt;197 -->
<g id="edge36" class="edge">
<title>194&#45;&gt;197</title>
<path fill="none" stroke="black" d="M867.75,-230.21C867.75,-215.44 867.75,-194.13 867.75,-179.03"/>
<polygon fill="black" stroke="black" points="871.25,-179.19 867.75,-169.19 864.25,-179.19 871.25,-179.19"/>
<text text-anchor="middle" x="901.88" y="-199" font-family="Times New Roman,serif" font-size="14.00">merge2#219</text>
</g>
<!-- 196&#45;&gt;154 -->
<g id="edge33" class="edge">
<title>196&#45;&gt;154</title>
<path fill="none" stroke="black" d="M974.75,-965.91C974.75,-955.05 974.75,-933.15 974.75,-915.05"/>
<polygon fill="black" stroke="black" points="978.25,-915.09 974.75,-905.09 971.25,-915.09 978.25,-915.09"/>
<text text-anchor="middle" x="1003.25" y="-924.4" font-family="Times New Roman,serif" font-size="14.00">split1#216</text>
</g>
<!-- 196&#45;&gt;163 -->
<g id="edge34" class="edge">
<title>196&#45;&gt;163</title>
<path fill="none" stroke="black" d="M970.11,-970.47C959.63,-965.34 933.51,-952.04 913.75,-937.7 902.84,-929.78 891.66,-920.09 882.13,-911.26"/>
<polygon fill="black" stroke="black" points="884.66,-908.83 874.99,-904.5 879.85,-913.92 884.66,-908.83"/>
<text text-anchor="middle" x="942.25" y="-924.4" font-family="Times New Roman,serif" font-size="14.00">split2#217</text>
</g>
<!-- 199 -->
<g id="node28" class="node">
<title>199</title>
<polygon fill="aquamarine" stroke="black" points="340.75,-89.3 333.55,-82.1 340.75,-74.9 347.95,-82.1 340.75,-89.3"/>
<text text-anchor="middle" x="315.18" y="-92.5" font-family="Times New Roman,serif" font-size="14.00">&lt;199&gt;</text>
</g>
<!-- 197&#45;&gt;199 -->
<g id="edge42" class="edge">
<title>197&#45;&gt;199</title>
<path fill="none" stroke="black" d="M861.85,-157.85C845.48,-155.21 798.16,-147.64 758.75,-141.8 603.38,-118.78 415.18,-93.16 358.02,-85.43"/>
<polygon fill="black" stroke="black" points="358.53,-81.97 348.15,-84.1 357.59,-88.9 358.53,-81.97"/>
<text text-anchor="middle" x="666.57" y="-110.5" font-family="Times New Roman,serif" font-size="14.00">merge1#226</text>
</g>
<!-- 198 -->
<g id="node27" class="node">
<title>198</title>
<polygon fill="aquamarine" stroke="black" points="706.75,-1587.5 699.55,-1580.3 706.75,-1573.1 713.95,-1580.3 706.75,-1587.5"/>
<text text-anchor="middle" x="681.17" y="-1590.7" font-family="Times New Roman,serif" font-size="14.00">&lt;198&gt;</text>
</g>
<!-- 120 -->
<g id="node44" class="node">
<title>120</title>
<polygon fill="aquamarine" stroke="black" points="644.75,-1509.8 637.55,-1502.6 644.75,-1495.4 651.95,-1502.6 644.75,-1509.8"/>
<text text-anchor="middle" x="619.17" y="-1513" font-family="Times New Roman,serif" font-size="14.00">&lt;120&gt;</text>
</g>
<!-- 198&#45;&gt;120 -->
<g id="edge41" class="edge">
<title>198&#45;&gt;120</title>
<path fill="none" stroke="black" d="M703.76,-1575.65C695.02,-1564.98 669.26,-1533.52 654.83,-1515.9"/>
<polygon fill="black" stroke="black" points="657.86,-1514.08 648.82,-1508.56 652.44,-1518.52 657.86,-1514.08"/>
<text text-anchor="middle" x="715.2" y="-1541.8" font-family="Times New Roman,serif" font-size="14.00">split2#225</text>
</g>
<!-- 123 -->
<g id="node47" class="node">
<title>123</title>
<polygon fill="yellow" stroke="black" points="904.62,-1520.6 704.88,-1520.6 704.88,-1484.6 904.62,-1484.6 904.62,-1520.6"/>
<text text-anchor="middle" x="804.75" y="-1497.55" font-family="Times New Roman,serif" font-size="14.00">indices&#45;&gt;size() = dimension@pre</text>
<text text-anchor="middle" x="690.25" y="-1523.8" font-family="Times New Roman,serif" font-size="14.00">[123]</text>
</g>
<!-- 198&#45;&gt;123 -->
<g id="edge40" class="edge">
<title>198&#45;&gt;123</title>
<path fill="none" stroke="black" d="M711.24,-1577.03C718.99,-1573.04 735.23,-1564.3 747.75,-1555.1 758.61,-1547.12 769.78,-1537.41 779.32,-1528.58"/>
<polygon fill="black" stroke="black" points="781.59,-1531.25 786.47,-1521.84 776.79,-1526.16 781.59,-1531.25"/>
<text text-anchor="middle" x="795.96" y="-1541.8" font-family="Times New Roman,serif" font-size="14.00">split1#224</text>
</g>
<!-- 86 -->
<g id="node30" class="node">
<title>86</title>
<ellipse fill="black" stroke="black" cx="340.75" cy="-11.2" rx="7.2" ry="7.2"/>
<ellipse fill="none" stroke="black" cx="340.75" cy="-11.2" rx="11.2" ry="11.2"/>
<text text-anchor="middle" x="319.43" y="-25.6" font-family="Times New Roman,serif" font-size="14.00">[&#45;1]</text>
</g>
<!-- 199&#45;&gt;86 -->
<g id="edge44" class="edge">
<title>199&#45;&gt;86</title>
<path fill="none" stroke="black" d="M340.75,-74.24C340.75,-64.87 340.75,-47.63 340.75,-33.7"/>
<polygon fill="black" stroke="black" points="344.25,-34.11 340.75,-24.11 337.25,-34.11 344.25,-34.11"/>
<text text-anchor="middle" x="389.88" y="-43.6" font-family="Times New Roman,serif" font-size="14.00">graphOr_end#228</text>
</g>
<!-- 85 -->
<g id="node29" class="node">
<title>85</title>
<polygon fill="yellow" stroke="black" points="278.5,-849.2 135,-849.2 135,-813.2 278.5,-813.2 278.5,-849.2"/>
<text text-anchor="middle" x="206.75" y="-826.15" font-family="Times New Roman,serif" font-size="14.00">exception=&quot;Exception&quot;</text>
<text text-anchor="middle" x="123.75" y="-852.4" font-family="Times New Roman,serif" font-size="14.00">[85]</text>
</g>
<!-- 85&#45;&gt;199 -->
<g id="edge43" class="edge">
<title>85&#45;&gt;199</title>
<path fill="none" stroke="black" d="M255.09,-812.75C287.67,-797.54 324.75,-771.89 324.75,-733.95 324.75,-733.95 324.75,-733.95 324.75,-158.8 324.75,-137.81 330.71,-114.25 335.35,-99.07"/>
<polygon fill="black" stroke="black" points="338.67,-100.19 338.44,-89.6 332.01,-98.02 338.67,-100.19"/>
<text text-anchor="middle" x="358.88" y="-464.5" font-family="Times New Roman,serif" font-size="14.00">merge2#227</text>
</g>
<!-- 88 -->
<g id="node31" class="node">
<title>88</title>
<polygon fill="yellow" stroke="black" points="519.75,-1378.1 311.75,-1378.1 311.75,-1342.1 519.75,-1342.1 519.75,-1378.1"/>
<text text-anchor="middle" x="415.75" y="-1355.05" font-family="Times New Roman,serif" font-size="14.00">indices&#45;&gt;size() &lt;&gt; dimension@pre</text>
<text text-anchor="middle" x="300.5" y="-1381.3" font-family="Times New Roman,serif" font-size="14.00">[88]</text>
</g>
<!-- 121 -->
<g id="node45" class="node">
<title>121</title>
<polygon fill="aquamarine" stroke="black" points="313.75,-980.9 306.55,-973.7 313.75,-966.5 320.95,-973.7 313.75,-980.9"/>
<text text-anchor="middle" x="288.18" y="-984.1" font-family="Times New Roman,serif" font-size="14.00">&lt;121&gt;</text>
</g>
<!-- 88&#45;&gt;121 -->
<g id="edge6" class="edge">
<title>88&#45;&gt;121</title>
<path fill="none" stroke="black" d="M377.19,-1341.73C348.3,-1325.78 313.75,-1299.13 313.75,-1262.85 313.75,-1262.85 313.75,-1262.85 313.75,-1061.2 313.75,-1037.62 313.75,-1010.43 313.75,-992.92"/>
<polygon fill="black" stroke="black" points="317.25,-992.94 313.75,-982.94 310.25,-992.94 317.25,-992.94"/>
<text text-anchor="middle" x="347.88" y="-1189.9" font-family="Times New Roman,serif" font-size="14.00">merge1#135</text>
</g>
<!-- 91 -->
<g id="node32" class="node">
<title>91</title>
<polygon fill="yellow" stroke="black" points="679.38,-1324.1 610.12,-1324.1 610.12,-1288.1 679.38,-1288.1 679.38,-1324.1"/>
<text text-anchor="middle" x="644.75" y="-1301.05" font-family="Times New Roman,serif" font-size="14.00">Index = 0</text>
<text text-anchor="middle" x="598.88" y="-1327.3" font-family="Times New Roman,serif" font-size="14.00">[91]</text>
</g>
<!-- 116 -->
<g id="node42" class="node">
<title>116</title>
<polygon fill="aquamarine" stroke="black" points="644.75,-1235.6 637.55,-1228.4 644.75,-1221.2 651.95,-1228.4 644.75,-1235.6"/>
<text text-anchor="middle" x="619.17" y="-1238.8" font-family="Times New Roman,serif" font-size="14.00">&lt;116&gt;</text>
</g>
<!-- 91&#45;&gt;116 -->
<g id="edge3" class="edge">
<title>91&#45;&gt;116</title>
<path fill="none" stroke="black" d="M644.75,-1287.92C644.75,-1275.88 644.75,-1259.8 644.75,-1247.55"/>
<polygon fill="black" stroke="black" points="648.25,-1247.64 644.75,-1237.64 641.25,-1247.64 648.25,-1247.64"/>
<text text-anchor="middle" x="685.25" y="-1256.8" font-family="Times New Roman,serif" font-size="14.00">graphAnd#131</text>
</g>
<!-- 94 -->
<g id="node33" class="node">
<title>94</title>
<polygon fill="yellow" stroke="black" points="686.88,-1432.1 602.62,-1432.1 602.62,-1396.1 686.88,-1396.1 686.88,-1432.1"/>
<text text-anchor="middle" x="644.75" y="-1409.05" font-family="Times New Roman,serif" font-size="14.00">check = true</text>
<text text-anchor="middle" x="591.38" y="-1435.3" font-family="Times New Roman,serif" font-size="14.00">[94]</text>
</g>
<!-- 94&#45;&gt;91 -->
<g id="edge45" class="edge">
<title>94&#45;&gt;91</title>
<path fill="none" stroke="black" d="M644.75,-1396.07C644.75,-1379.86 644.75,-1355.16 644.75,-1335.89"/>
<polygon fill="black" stroke="black" points="648.25,-1335.95 644.75,-1325.95 641.25,-1335.95 648.25,-1335.95"/>
<text text-anchor="middle" x="685.25" y="-1355.05" font-family="Times New Roman,serif" font-size="14.00">graphAnd#101</text>
</g>
<!-- 97 -->
<g id="node34" class="node">
<title>97</title>
<polygon fill="yellow" stroke="black" points="529.25,-1168.7 342.25,-1168.7 342.25,-1132.7 529.25,-1132.7 529.25,-1168.7"/>
<text text-anchor="middle" x="435.75" y="-1145.65" font-family="Times New Roman,serif" font-size="14.00">Index &gt; dimension@pre &#45; 1 &#45; 0</text>
<text text-anchor="middle" x="331" y="-1171.9" font-family="Times New Roman,serif" font-size="14.00">[97]</text>
</g>
<!-- 118 -->
<g id="node43" class="node">
<title>118</title>
<polygon fill="yellow" stroke="black" points="429.75,-1080.2 375.75,-1080.2 375.75,-1044.2 429.75,-1044.2 429.75,-1080.2"/>
<text text-anchor="middle" x="402.75" y="-1057.15" font-family="Times New Roman,serif" font-size="14.00">check</text>
<text text-anchor="middle" x="361.12" y="-1083.4" font-family="Times New Roman,serif" font-size="14.00">[118]</text>
</g>
<!-- 97&#45;&gt;118 -->
<g id="edge1" class="edge">
<title>97&#45;&gt;118</title>
<path fill="none" stroke="black" d="M429.23,-1132.61C424.69,-1120.72 418.55,-1104.61 413.32,-1090.9"/>
<polygon fill="black" stroke="black" points="416.74,-1090.06 409.91,-1081.96 410.2,-1092.56 416.74,-1090.06"/>
<text text-anchor="middle" x="462.71" y="-1101.4" font-family="Times New Roman,serif" font-size="14.00">graphAnd#129</text>
</g>
<!-- 100 -->
<g id="node35" class="node">
<title>100</title>
<polygon fill="yellow" stroke="black" points="742.38,-1168.7 547.12,-1168.7 547.12,-1132.7 742.38,-1132.7 742.38,-1168.7"/>
<text text-anchor="middle" x="644.75" y="-1145.65" font-family="Times New Roman,serif" font-size="14.00">Index &lt;= dimension@pre &#45; 1 &#45; 0</text>
<text text-anchor="middle" x="532.5" y="-1171.9" font-family="Times New Roman,serif" font-size="14.00">[100]</text>
</g>
<!-- 103 -->
<g id="node36" class="node">
<title>103</title>
<polygon fill="yellow" stroke="black" points="748.75,-1080.2 504.75,-1080.2 504.75,-1044.2 748.75,-1044.2 748.75,-1080.2"/>
<text text-anchor="middle" x="626.75" y="-1057.15" font-family="Times New Roman,serif" font-size="14.00">elem = Sequence{0..dimension@pre &#45; 1}</text>
<text text-anchor="middle" x="490.12" y="-1083.4" font-family="Times New Roman,serif" font-size="14.00">[103]</text>
</g>
<!-- 100&#45;&gt;103 -->
<g id="edge50" class="edge">
<title>100&#45;&gt;103</title>
<path fill="none" stroke="black" d="M641.19,-1132.61C638.77,-1120.96 635.5,-1105.25 632.68,-1091.72"/>
<polygon fill="black" stroke="black" points="636.13,-1091.11 630.67,-1082.03 629.28,-1092.54 636.13,-1091.11"/>
<text text-anchor="middle" x="677.86" y="-1101.4" font-family="Times New Roman,serif" font-size="14.00">graphAnd#120</text>
</g>
<!-- 111 -->
<g id="node39" class="node">
<title>111</title>
<polygon fill="aquamarine" stroke="black" points="626.75,-980.9 619.55,-973.7 626.75,-966.5 633.95,-973.7 626.75,-980.9"/>
<text text-anchor="middle" x="601.17" y="-984.1" font-family="Times New Roman,serif" font-size="14.00">&lt;111&gt;</text>
</g>
<!-- 103&#45;&gt;111 -->
<g id="edge51" class="edge">
<title>103&#45;&gt;111</title>
<path fill="none" stroke="black" d="M626.75,-1044.11C626.75,-1029.34 626.75,-1008.03 626.75,-992.93"/>
<polygon fill="black" stroke="black" points="630.25,-993.09 626.75,-983.09 623.25,-993.09 630.25,-993.09"/>
<text text-anchor="middle" x="667.25" y="-1012.9" font-family="Times New Roman,serif" font-size="14.00">graphAnd#121</text>
</g>
<!-- 106 -->
<g id="node37" class="node">
<title>106</title>
<polygon fill="yellow" stroke="black" points="749.12,-903.2 534.38,-903.2 534.38,-867.2 749.12,-867.2 749.12,-903.2"/>
<text text-anchor="middle" x="641.75" y="-880.15" font-family="Times New Roman,serif" font-size="14.00">indices@pre.indices[elem@pre] &lt; 0</text>
<text text-anchor="middle" x="519.75" y="-906.4" font-family="Times New Roman,serif" font-size="14.00">[106]</text>
</g>
<!-- 112 -->
<g id="node40" class="node">
<title>112</title>
<polygon fill="aquamarine" stroke="black" points="641.75,-784.4 634.55,-777.2 641.75,-770 648.95,-777.2 641.75,-784.4"/>
<text text-anchor="middle" x="616.17" y="-787.6" font-family="Times New Roman,serif" font-size="14.00">&lt;112&gt;</text>
</g>
<!-- 106&#45;&gt;112 -->
<g id="edge48" class="edge">
<title>106&#45;&gt;112</title>
<path fill="none" stroke="black" d="M641.75,-867.17C641.75,-847.68 641.75,-815.89 641.75,-796.06"/>
<polygon fill="black" stroke="black" points="645.25,-796.28 641.75,-786.28 638.25,-796.28 645.25,-796.28"/>
<text text-anchor="middle" x="675.88" y="-826.15" font-family="Times New Roman,serif" font-size="14.00">merge1#115</text>
</g>
<!-- 109 -->
<g id="node38" class="node">
<title>109</title>
<polygon fill="yellow" stroke="black" points="516.25,-903.2 29.25,-903.2 29.25,-867.2 516.25,-867.2 516.25,-903.2"/>
<text text-anchor="middle" x="272.75" y="-880.15" font-family="Times New Roman,serif" font-size="14.00">indices@pre.indices[elem@pre] &gt;= dimensionSizes@pre.dimensionSizes[elem@pre]</text>
<text text-anchor="middle" x="14.62" y="-906.4" font-family="Times New Roman,serif" font-size="14.00">[109]</text>
</g>
<!-- 109&#45;&gt;112 -->
<g id="edge49" class="edge">
<title>109&#45;&gt;112</title>
<path fill="none" stroke="black" d="M333.27,-866.81C420.17,-841.85 575.38,-797.27 625.59,-782.84"/>
<polygon fill="black" stroke="black" points="626.53,-786.21 635.17,-780.09 624.59,-779.49 626.53,-786.21"/>
<text text-anchor="middle" x="545.99" y="-826.15" font-family="Times New Roman,serif" font-size="14.00">merge2#116</text>
</g>
<!-- 111&#45;&gt;106 -->
<g id="edge46" class="edge">
<title>111&#45;&gt;106</title>
<path fill="none" stroke="black" d="M627.73,-967.02C629.55,-956.55 633.54,-933.55 636.8,-914.75"/>
<polygon fill="black" stroke="black" points="640.24,-915.4 638.5,-904.95 633.34,-914.2 640.24,-915.4"/>
<text text-anchor="middle" x="664.09" y="-924.4" font-family="Times New Roman,serif" font-size="14.00">split1#113</text>
</g>
<!-- 111&#45;&gt;109 -->
<g id="edge47" class="edge">
<title>111&#45;&gt;109</title>
<path fill="none" stroke="black" d="M621.47,-971.41C592.34,-964.29 449.12,-929.3 355.52,-906.43"/>
<polygon fill="black" stroke="black" points="356.38,-903.03 345.83,-904.06 354.72,-909.83 356.38,-903.03"/>
<text text-anchor="middle" x="509.96" y="-924.4" font-family="Times New Roman,serif" font-size="14.00">split2#114</text>
</g>
<!-- 114 -->
<g id="node41" class="node">
<title>114</title>
<polygon fill="yellow" stroke="black" points="703.62,-706.7 587.88,-706.7 587.88,-670.7 703.62,-670.7 703.62,-706.7"/>
<text text-anchor="middle" x="645.75" y="-683.65" font-family="Times New Roman,serif" font-size="14.00">Index = Index + 1</text>
<text text-anchor="middle" x="573.25" y="-709.9" font-family="Times New Roman,serif" font-size="14.00">[114]</text>
</g>
<!-- 112&#45;&gt;114 -->
<g id="edge52" class="edge">
<title>112&#45;&gt;114</title>
<path fill="none" stroke="black" d="M642.05,-769.7C642.55,-758.87 643.59,-736.52 644.43,-718.18"/>
<polygon fill="black" stroke="black" points="647.92,-718.54 644.89,-708.39 640.93,-718.22 647.92,-718.54"/>
<text text-anchor="middle" x="684.61" y="-727.9" font-family="Times New Roman,serif" font-size="14.00">graphAnd#122</text>
</g>
<!-- 114&#45;&gt;116 -->
<g id="edge54" class="edge">
<title>114&#45;&gt;116</title>
<path fill="none" stroke="black" d="M703.97,-704.06C738.96,-716.55 776.75,-738.73 776.75,-776.2 776.75,-1151.7 776.75,-1151.7 776.75,-1151.7 776.75,-1203.94 698,-1220.64 662.15,-1225.54"/>
<polygon fill="black" stroke="black" points="661.79,-1222.06 652.27,-1226.71 662.61,-1229.01 661.79,-1222.06"/>
<text text-anchor="middle" x="807.12" y="-968.65" font-family="Times New Roman,serif" font-size="14.00">iterate#125</text>
</g>
<!-- 116&#45;&gt;97 -->
<g id="edge2" class="edge">
<title>116&#45;&gt;97</title>
<path fill="none" stroke="black" d="M639.31,-1226.09C625.73,-1222.75 589.31,-1213.51 559.75,-1203.2 534.67,-1194.45 507.35,-1183.29 484.75,-1173.59"/>
<polygon fill="black" stroke="black" points="486.35,-1170.47 475.78,-1169.71 483.57,-1176.9 486.35,-1170.47"/>
<text text-anchor="middle" x="600.25" y="-1189.9" font-family="Times New Roman,serif" font-size="14.00">graphAnd#130</text>
</g>
<!-- 116&#45;&gt;100 -->
<g id="edge53" class="edge">
<title>116&#45;&gt;100</title>
<path fill="none" stroke="black" d="M644.75,-1220.68C644.75,-1211.6 644.75,-1194.85 644.75,-1180.13"/>
<polygon fill="black" stroke="black" points="648.25,-1180.46 644.75,-1170.46 641.25,-1180.46 648.25,-1180.46"/>
<text text-anchor="middle" x="675.12" y="-1189.9" font-family="Times New Roman,serif" font-size="14.00">iterate#124</text>
</g>
<!-- 118&#45;&gt;121 -->
<g id="edge7" class="edge">
<title>118&#45;&gt;121</title>
<path fill="none" stroke="black" d="M385.17,-1044.11C367.38,-1026.82 340.41,-1000.61 325.21,-985.84"/>
<polygon fill="black" stroke="black" points="327.83,-983.5 318.22,-979.05 322.95,-988.52 327.83,-983.5"/>
<text text-anchor="middle" x="400.35" y="-1012.9" font-family="Times New Roman,serif" font-size="14.00">merge2#136</text>
</g>
<!-- 120&#45;&gt;88 -->
<g id="edge4" class="edge">
<title>120&#45;&gt;88</title>
<path fill="none" stroke="black" d="M640.57,-1499.28C630.65,-1493.75 604.89,-1479.3 583.75,-1466.6 537.93,-1439.08 485.93,-1406.16 452.08,-1384.5"/>
<polygon fill="black" stroke="black" points="454.19,-1381.69 443.88,-1379.24 450.41,-1387.59 454.19,-1381.69"/>
<text text-anchor="middle" x="612.25" y="-1453.3" font-family="Times New Roman,serif" font-size="14.00">split1#133</text>
</g>
<!-- 120&#45;&gt;94 -->
<g id="edge5" class="edge">
<title>120&#45;&gt;94</title>
<path fill="none" stroke="black" d="M644.75,-1494.81C644.75,-1483.95 644.75,-1462.05 644.75,-1443.95"/>
<polygon fill="black" stroke="black" points="648.25,-1443.99 644.75,-1433.99 641.25,-1443.99 648.25,-1443.99"/>
<text text-anchor="middle" x="673.25" y="-1453.3" font-family="Times New Roman,serif" font-size="14.00">split2#134</text>
</g>
<!-- 121&#45;&gt;85 -->
<g id="edge37" class="edge">
<title>121&#45;&gt;85</title>
<path fill="none" stroke="black" d="M307.48,-972.24C268.29,-969.23 57.5,-950.91 19.75,-903.2 9.82,-890.65 9.53,-879.51 19.75,-867.2 33.29,-850.89 80.24,-842.14 123.71,-837.47"/>
<polygon fill="black" stroke="black" points="123.85,-840.97 133.45,-836.49 123.15,-834 123.85,-840.97"/>
<text text-anchor="middle" x="126.3" y="-924.4" font-family="Times New Roman,serif" font-size="14.00">graphAnd#221</text>
</g>
<!-- 122 -->
<g id="node46" class="node">
<title>122</title>
<ellipse fill="black" stroke="black" cx="706.75" cy="-1647.2" rx="7.2" ry="7.2"/>
<text text-anchor="middle" x="691.67" y="-1657.6" font-family="Times New Roman,serif" font-size="14.00">[0]</text>
</g>
<!-- 122&#45;&gt;198 -->
<g id="edge39" class="edge">
<title>122&#45;&gt;198</title>
<path fill="none" stroke="black" d="M706.75,-1639.74C706.75,-1630.41 706.75,-1612.81 706.75,-1599.35"/>
<polygon fill="black" stroke="black" points="710.25,-1599.64 706.75,-1589.64 703.25,-1599.64 710.25,-1599.64"/>
<text text-anchor="middle" x="757.75" y="-1608.7" font-family="Times New Roman,serif" font-size="14.00">graphOr_start#223</text>
</g>
<!-- 123&#45;&gt;129 -->
<g id="edge18" class="edge">
<title>123&#45;&gt;129</title>
<path fill="none" stroke="black" d="M838.54,-1484.3C864.71,-1470.91 901.17,-1452.25 929.63,-1437.68"/>
<polygon fill="black" stroke="black" points="931.07,-1440.88 938.38,-1433.2 927.88,-1434.64 931.07,-1440.88"/>
<text text-anchor="middle" x="944.89" y="-1453.3" font-family="Times New Roman,serif" font-size="14.00">graphAnd#170</text>
</g>
<!-- 126&#45;&gt;149 -->
<g id="edge17" class="edge">
<title>126&#45;&gt;149</title>
<path fill="none" stroke="black" d="M1102.7,-1287.92C1104.83,-1275.49 1107.71,-1258.77 1109.83,-1246.39"/>
<polygon fill="black" stroke="black" points="1113.28,-1247 1111.52,-1236.55 1106.38,-1245.81 1113.28,-1247"/>
<text text-anchor="middle" x="1149.05" y="-1256.8" font-family="Times New Roman,serif" font-size="14.00">graphAnd#169</text>
</g>
</g>
</svg>
