<?xml version="1.0" encoding="UTF-8" standalone="no"?>
<!DOCTYPE svg PUBLIC "-//W3C//DTD SVG 1.1//EN"
 "http://www.w3.org/Graphics/SVG/1.1/DTD/svg11.dtd">
<!-- Generated by graphviz version 12.2.1 (20241206.2353)
 -->
<!-- Title: CLG Pages: 1 -->
<svg width="1122pt" height="1239pt"
 viewBox="0.00 0.00 1122.38 1238.70" xmlns="http://www.w3.org/2000/svg" xmlns:xlink="http://www.w3.org/1999/xlink">
<g id="graph0" class="graph" transform="scale(1 1) rotate(0) translate(4 1234.7)">
<title>CLG</title>
<polygon fill="white" stroke="none" points="-4,4 -4,-1234.7 1118.38,-1234.7 1118.38,4 -4,4"/>
<!-- 66 -->
<g id="node1" class="node">
<title>66</title>
<polygon fill="yellow" stroke="black" points="1050,-368.4 920.75,-368.4 920.75,-332.4 1050,-332.4 1050,-368.4"/>
<text text-anchor="middle" x="985.38" y="-345.35" font-family="Times New Roman,serif" font-size="14.00">Index0 = Index0 + 1</text>
<text text-anchor="middle" x="909.5" y="-371.6" font-family="Times New Roman,serif" font-size="14.00">[66]</text>
</g>
<!-- 68 -->
<g id="node2" class="node">
<title>68</title>
<polygon fill="aquamarine" stroke="black" points="856.38,-279.9 849.17,-272.7 856.38,-265.5 863.58,-272.7 856.38,-279.9"/>
<text text-anchor="middle" x="834.17" y="-283.1" font-family="Times New Roman,serif" font-size="14.00">&lt;68&gt;</text>
</g>
<!-- 66&#45;&gt;68 -->
<g id="edge25" class="edge">
<title>66&#45;&gt;68</title>
<path fill="none" stroke="black" d="M962.56,-331.91C944.42,-318.09 921.29,-300.67 916.38,-297.9 902.13,-289.89 884.7,-283.17 872.31,-278.86"/>
<polygon fill="black" stroke="black" points="873.59,-275.6 862.99,-275.76 871.38,-282.24 873.59,-275.6"/>
<text text-anchor="middle" x="965.59" y="-301.1" font-family="Times New Roman,serif" font-size="14.00">iterate#61</text>
</g>
<!-- 54 -->
<g id="node21" class="node">
<title>54</title>
<polygon fill="yellow" stroke="black" points="808,-213 672.75,-213 672.75,-177 808,-177 808,-213"/>
<text text-anchor="middle" x="740.38" y="-189.95" font-family="Times New Roman,serif" font-size="14.00">Index0 &gt; dim1 &#45; 1+ 1</text>
<text text-anchor="middle" x="661.5" y="-216.2" font-family="Times New Roman,serif" font-size="14.00">[54]</text>
</g>
<!-- 68&#45;&gt;54 -->
<g id="edge26" class="edge">
<title>68&#45;&gt;54</title>
<path fill="none" stroke="black" d="M851.03,-270.5C839.55,-267.76 811.97,-260.27 792.12,-247.5 781.14,-240.43 770.61,-230.71 761.95,-221.61"/>
<polygon fill="black" stroke="black" points="764.62,-219.34 755.29,-214.31 759.44,-224.06 764.62,-219.34"/>
<text text-anchor="middle" x="829.25" y="-234.2" font-family="Times New Roman,serif" font-size="14.00">graphAnd#63</text>
</g>
<!-- 57 -->
<g id="node22" class="node">
<title>57</title>
<polygon fill="yellow" stroke="black" points="970.12,-213 826.62,-213 826.62,-177 970.12,-177 970.12,-213"/>
<text text-anchor="middle" x="898.38" y="-189.95" font-family="Times New Roman,serif" font-size="14.00">Index0 &lt;= dim1 &#45; 1+ 1</text>
<text text-anchor="middle" x="815.38" y="-216.2" font-family="Times New Roman,serif" font-size="14.00">[57]</text>
</g>
<!-- 68&#45;&gt;57 -->
<g id="edge24" class="edge">
<title>68&#45;&gt;57</title>
<path fill="none" stroke="black" d="M858.63,-267.63C863.26,-259.29 874.16,-239.64 883.38,-223.02"/>
<polygon fill="black" stroke="black" points="886.31,-224.97 888.1,-214.52 880.19,-221.57 886.31,-224.97"/>
<text text-anchor="middle" x="905.63" y="-234.2" font-family="Times New Roman,serif" font-size="14.00">iterate#60</text>
</g>
<!-- 69 -->
<g id="node3" class="node">
<title>69</title>
<ellipse fill="black" stroke="black" cx="624.38" cy="-1207" rx="7.2" ry="7.2"/>
<text text-anchor="middle" x="609.3" y="-1217.4" font-family="Times New Roman,serif" font-size="14.00">[0]</text>
</g>
<!-- 70 -->
<g id="node4" class="node">
<title>70</title>
<polygon fill="yellow" stroke="black" points="728.75,-1162.8 520,-1162.8 520,-1126.8 728.75,-1126.8 728.75,-1162.8"/>
<text text-anchor="middle" x="624.38" y="-1139.75" font-family="Times New Roman,serif" font-size="14.00">self.data.getDimensionSizes(1) &gt; 0</text>
<text text-anchor="middle" x="508.75" y="-1166" font-family="Times New Roman,serif" font-size="14.00">[70]</text>
</g>
<!-- 69&#45;&gt;70 -->
<g id="edge6" class="edge">
<title>69&#45;&gt;70</title>
<path fill="none" stroke="black" d="M624.38,-1199.56C624.38,-1193.5 624.38,-1183.99 624.38,-1174.64"/>
<polygon fill="black" stroke="black" points="627.88,-1174.68 624.38,-1164.68 620.88,-1174.68 627.88,-1174.68"/>
</g>
<!-- 73 -->
<g id="node5" class="node">
<title>73</title>
<polygon fill="yellow" stroke="black" points="732.12,-1074.3 516.62,-1074.3 516.62,-1038.3 732.12,-1038.3 732.12,-1074.3"/>
<text text-anchor="middle" x="624.38" y="-1051.25" font-family="Times New Roman,serif" font-size="14.00">self.data.getDimensionSizes(1) &lt; 10</text>
<text text-anchor="middle" x="505.38" y="-1077.5" font-family="Times New Roman,serif" font-size="14.00">[73]</text>
</g>
<!-- 70&#45;&gt;73 -->
<g id="edge7" class="edge">
<title>70&#45;&gt;73</title>
<path fill="none" stroke="black" d="M624.38,-1126.71C624.38,-1115.06 624.38,-1099.35 624.38,-1085.82"/>
<polygon fill="black" stroke="black" points="627.88,-1086.16 624.38,-1076.16 620.88,-1086.16 627.88,-1086.16"/>
<text text-anchor="middle" x="661.5" y="-1095.5" font-family="Times New Roman,serif" font-size="14.00">graphAnd#73</text>
</g>
<!-- 75 -->
<g id="node6" class="node">
<title>75</title>
<polygon fill="aquamarine" stroke="black" points="624.38,-985.8 617.17,-978.6 624.38,-971.4 631.58,-978.6 624.38,-985.8"/>
<text text-anchor="middle" x="602.17" y="-989" font-family="Times New Roman,serif" font-size="14.00">&lt;75&gt;</text>
</g>
<!-- 73&#45;&gt;75 -->
<g id="edge13" class="edge">
<title>73&#45;&gt;75</title>
<path fill="none" stroke="black" d="M624.38,-1038.12C624.38,-1026.08 624.38,-1010 624.38,-997.75"/>
<polygon fill="black" stroke="black" points="627.88,-997.84 624.38,-987.84 620.88,-997.84 627.88,-997.84"/>
<text text-anchor="middle" x="661.5" y="-1007" font-family="Times New Roman,serif" font-size="14.00">graphAnd#80</text>
</g>
<!-- 30 -->
<g id="node12" class="node">
<title>30</title>
<polygon fill="aquamarine" stroke="black" points="537.38,-908.1 530.17,-900.9 537.38,-893.7 544.58,-900.9 537.38,-908.1"/>
<text text-anchor="middle" x="515.17" y="-911.3" font-family="Times New Roman,serif" font-size="14.00">&lt;30&gt;</text>
</g>
<!-- 75&#45;&gt;30 -->
<g id="edge9" class="edge">
<title>75&#45;&gt;30</title>
<path fill="none" stroke="black" d="M621.07,-974.72C609.44,-964.61 570.01,-930.3 549.7,-912.62"/>
<polygon fill="black" stroke="black" points="552.05,-910.03 542.21,-906.1 547.45,-915.31 552.05,-910.03"/>
<text text-anchor="middle" x="621.36" y="-940.1" font-family="Times New Roman,serif" font-size="14.00">split2#76</text>
</g>
<!-- 33 -->
<g id="node14" class="node">
<title>33</title>
<polygon fill="yellow" stroke="black" points="970.12,-918.9 670.62,-918.9 670.62,-882.9 970.12,-882.9 970.12,-918.9"/>
<text text-anchor="middle" x="820.38" y="-895.85" font-family="Times New Roman,serif" font-size="14.00">self.data.getDimension() = arg.data.getDimension()</text>
<text text-anchor="middle" x="659.38" y="-922.1" font-family="Times New Roman,serif" font-size="14.00">[33]</text>
</g>
<!-- 75&#45;&gt;33 -->
<g id="edge8" class="edge">
<title>75&#45;&gt;33</title>
<path fill="none" stroke="black" d="M629.22,-975.73C647.67,-968.6 715.02,-942.59 764.57,-923.45"/>
<polygon fill="black" stroke="black" points="765.68,-926.78 773.75,-919.91 763.16,-920.25 765.68,-926.78"/>
<text text-anchor="middle" x="753.38" y="-940.1" font-family="Times New Roman,serif" font-size="14.00">split1#75</text>
</g>
<!-- 76 -->
<g id="node7" class="node">
<title>76</title>
<polygon fill="aquamarine" stroke="black" points="677.38,-113.7 670.17,-106.5 677.38,-99.3 684.58,-106.5 677.38,-113.7"/>
<text text-anchor="middle" x="655.17" y="-116.9" font-family="Times New Roman,serif" font-size="14.00">&lt;76&gt;</text>
</g>
<!-- 23 -->
<g id="node9" class="node">
<title>23</title>
<ellipse fill="black" stroke="black" cx="677.38" cy="-18" rx="7.2" ry="7.2"/>
<ellipse fill="none" stroke="black" cx="677.38" cy="-18" rx="11.2" ry="11.2"/>
<text text-anchor="middle" x="656.05" y="-32.4" font-family="Times New Roman,serif" font-size="14.00">[&#45;1]</text>
</g>
<!-- 76&#45;&gt;23 -->
<g id="edge12" class="edge">
<title>76&#45;&gt;23</title>
<path fill="none" stroke="black" d="M677.38,-98.71C677.38,-86.42 677.38,-59.99 677.38,-40.93"/>
<polygon fill="black" stroke="black" points="680.88,-40.94 677.38,-30.94 673.88,-40.94 680.88,-40.94"/>
<text text-anchor="middle" x="723.12" y="-57.2" font-family="Times New Roman,serif" font-size="14.00">graphOr_end#79</text>
</g>
<!-- 22 -->
<g id="node8" class="node">
<title>22</title>
<polygon fill="yellow" stroke="black" points="698.12,-599.4 572.62,-599.4 572.62,-563.4 698.12,-563.4 698.12,-599.4"/>
<text text-anchor="middle" x="635.38" y="-576.35" font-family="Times New Roman,serif" font-size="14.00">Result = &#39;Exception&#39;</text>
<text text-anchor="middle" x="561.38" y="-602.6" font-family="Times New Roman,serif" font-size="14.00">[22]</text>
</g>
<!-- 22&#45;&gt;76 -->
<g id="edge11" class="edge">
<title>22&#45;&gt;76</title>
<path fill="none" stroke="black" d="M637.11,-563.03C638.88,-543.77 641.38,-511.78 641.38,-484.15 641.38,-484.15 641.38,-484.15 641.38,-194 641.38,-166.25 657.36,-137.07 668.03,-120.69"/>
<polygon fill="black" stroke="black" points="670.9,-122.7 673.69,-112.48 665.13,-118.72 670.9,-122.7"/>
<text text-anchor="middle" x="672.12" y="-345.35" font-family="Times New Roman,serif" font-size="14.00">merge2#78</text>
</g>
<!-- 25 -->
<g id="node10" class="node">
<title>25</title>
<polygon fill="yellow" stroke="black" points="330.25,-830.4 22.5,-830.4 22.5,-794.4 330.25,-794.4 330.25,-830.4"/>
<text text-anchor="middle" x="176.38" y="-807.35" font-family="Times New Roman,serif" font-size="14.00">self.data.getDimension() &lt;&gt; arg.data.getDimension()</text>
<text text-anchor="middle" x="11.25" y="-833.6" font-family="Times New Roman,serif" font-size="14.00">[25]</text>
</g>
<!-- 31 -->
<g id="node13" class="node">
<title>31</title>
<polygon fill="aquamarine" stroke="black" points="537.38,-731.1 530.17,-723.9 537.38,-716.7 544.58,-723.9 537.38,-731.1"/>
<text text-anchor="middle" x="515.17" y="-734.3" font-family="Times New Roman,serif" font-size="14.00">&lt;31&gt;</text>
</g>
<!-- 25&#45;&gt;31 -->
<g id="edge16" class="edge">
<title>25&#45;&gt;31</title>
<path fill="none" stroke="black" d="M248.99,-794C335.38,-773.3 473.84,-740.12 521.02,-728.82"/>
<polygon fill="black" stroke="black" points="521.61,-732.28 530.51,-726.54 519.97,-725.47 521.61,-732.28"/>
<text text-anchor="middle" x="419.96" y="-763.1" font-family="Times New Roman,serif" font-size="14.00">merge1#26</text>
</g>
<!-- 28 -->
<g id="node11" class="node">
<title>28</title>
<polygon fill="yellow" stroke="black" points="726.5,-830.4 348.25,-830.4 348.25,-794.4 726.5,-794.4 726.5,-830.4"/>
<text text-anchor="middle" x="537.38" y="-807.35" font-family="Times New Roman,serif" font-size="14.00">self.data.getDimensionSizes(1) &lt;&gt; arg.data.getDimensionSizes(1)</text>
<text text-anchor="middle" x="337" y="-833.6" font-family="Times New Roman,serif" font-size="14.00">[28]</text>
</g>
<!-- 28&#45;&gt;31 -->
<g id="edge17" class="edge">
<title>28&#45;&gt;31</title>
<path fill="none" stroke="black" d="M537.38,-794.31C537.38,-779.54 537.38,-758.23 537.38,-743.13"/>
<polygon fill="black" stroke="black" points="540.88,-743.29 537.38,-733.29 533.88,-743.29 540.88,-743.29"/>
<text text-anchor="middle" x="568.12" y="-763.1" font-family="Times New Roman,serif" font-size="14.00">merge2#27</text>
</g>
<!-- 30&#45;&gt;25 -->
<g id="edge14" class="edge">
<title>30&#45;&gt;25</title>
<path fill="none" stroke="black" d="M531.99,-898.61C502.25,-891.48 355.94,-856.42 260.49,-833.56"/>
<polygon fill="black" stroke="black" points="261.42,-830.18 250.88,-831.25 259.79,-836.99 261.42,-830.18"/>
<text text-anchor="middle" x="414.33" y="-851.6" font-family="Times New Roman,serif" font-size="14.00">split1#24</text>
</g>
<!-- 30&#45;&gt;28 -->
<g id="edge15" class="edge">
<title>30&#45;&gt;28</title>
<path fill="none" stroke="black" d="M537.38,-893.11C537.38,-882.25 537.38,-860.35 537.38,-842.25"/>
<polygon fill="black" stroke="black" points="540.88,-842.29 537.38,-832.29 533.88,-842.29 540.88,-842.29"/>
<text text-anchor="middle" x="562.5" y="-851.6" font-family="Times New Roman,serif" font-size="14.00">split2#25</text>
</g>
<!-- 31&#45;&gt;22 -->
<g id="edge4" class="edge">
<title>31&#45;&gt;22</title>
<path fill="none" stroke="black" d="M540.2,-718.85C551.3,-702.93 592.5,-643.88 616.9,-608.89"/>
<polygon fill="black" stroke="black" points="619.58,-611.16 622.43,-600.96 613.84,-607.15 619.58,-611.16"/>
<text text-anchor="middle" x="609" y="-674.6" font-family="Times New Roman,serif" font-size="14.00">graphAnd#67</text>
</g>
<!-- 36 -->
<g id="node15" class="node">
<title>36</title>
<polygon fill="yellow" stroke="black" points="1114.38,-830.4 744.38,-830.4 744.38,-794.4 1114.38,-794.4 1114.38,-830.4"/>
<text text-anchor="middle" x="929.38" y="-807.35" font-family="Times New Roman,serif" font-size="14.00">self.data.getDimensionSizes(1) = arg.data.getDimensionSizes(1)</text>
<text text-anchor="middle" x="733.12" y="-833.6" font-family="Times New Roman,serif" font-size="14.00">[36]</text>
</g>
<!-- 33&#45;&gt;36 -->
<g id="edge18" class="edge">
<title>33&#45;&gt;36</title>
<path fill="none" stroke="black" d="M842.17,-882.6C858.36,-869.76 880.66,-852.06 898.65,-837.78"/>
<polygon fill="black" stroke="black" points="900.77,-840.57 906.43,-831.61 896.42,-835.08 900.77,-840.57"/>
<text text-anchor="middle" x="921.76" y="-851.6" font-family="Times New Roman,serif" font-size="14.00">graphAnd#33</text>
</g>
<!-- 39 -->
<g id="node16" class="node">
<title>39</title>
<polygon fill="yellow" stroke="black" points="1068.5,-741.9 756.25,-741.9 756.25,-705.9 1068.5,-705.9 1068.5,-741.9"/>
<text text-anchor="middle" x="912.38" y="-718.85" font-family="Times New Roman,serif" font-size="14.00">self.data.getDimension() = result.data.getDimension()</text>
<text text-anchor="middle" x="745" y="-745.1" font-family="Times New Roman,serif" font-size="14.00">[39]</text>
</g>
<!-- 36&#45;&gt;39 -->
<g id="edge5" class="edge">
<title>36&#45;&gt;39</title>
<path fill="none" stroke="black" d="M926.02,-794.31C923.73,-782.66 920.64,-766.95 917.98,-753.42"/>
<polygon fill="black" stroke="black" points="921.44,-752.87 916.08,-743.74 914.57,-754.22 921.44,-752.87"/>
<text text-anchor="middle" x="959.52" y="-763.1" font-family="Times New Roman,serif" font-size="14.00">graphAnd#68</text>
</g>
<!-- 42 -->
<g id="node17" class="node">
<title>42</title>
<polygon fill="yellow" stroke="black" points="1076.75,-653.4 694,-653.4 694,-617.4 1076.75,-617.4 1076.75,-653.4"/>
<text text-anchor="middle" x="885.38" y="-630.35" font-family="Times New Roman,serif" font-size="14.00">self.data.getDimensionSizes(1) = result.data.getDimensionSizes(1)</text>
<text text-anchor="middle" x="682.75" y="-656.6" font-family="Times New Roman,serif" font-size="14.00">[42]</text>
</g>
<!-- 39&#45;&gt;42 -->
<g id="edge19" class="edge">
<title>39&#45;&gt;42</title>
<path fill="none" stroke="black" d="M907.04,-705.81C903.37,-694.04 898.4,-678.13 894.15,-664.51"/>
<polygon fill="black" stroke="black" points="897.56,-663.7 891.24,-655.19 890.88,-665.78 897.56,-663.7"/>
<text text-anchor="middle" x="938.42" y="-674.6" font-family="Times New Roman,serif" font-size="14.00">graphAnd#38</text>
</g>
<!-- 45 -->
<g id="node18" class="node">
<title>45</title>
<polygon fill="yellow" stroke="black" points="971.5,-545.4 743.25,-545.4 743.25,-509.4 971.5,-509.4 971.5,-545.4"/>
<text text-anchor="middle" x="857.38" y="-522.35" font-family="Times New Roman,serif" font-size="14.00">dim1 = arg.data.getDimensionSizes(1)</text>
<text text-anchor="middle" x="732" y="-548.6" font-family="Times New Roman,serif" font-size="14.00">[45]</text>
</g>
<!-- 42&#45;&gt;45 -->
<g id="edge3" class="edge">
<title>42&#45;&gt;45</title>
<path fill="none" stroke="black" d="M880.88,-617.37C876.55,-601.01 869.95,-575.99 864.84,-556.64"/>
<polygon fill="black" stroke="black" points="868.28,-555.98 862.34,-547.2 861.51,-557.77 868.28,-555.98"/>
<text text-anchor="middle" x="912.64" y="-576.35" font-family="Times New Roman,serif" font-size="14.00">graphAnd#66</text>
</g>
<!-- 51 -->
<g id="node20" class="node">
<title>51</title>
<polygon fill="yellow" stroke="black" points="881.75,-456.9 811,-456.9 811,-420.9 881.75,-420.9 881.75,-456.9"/>
<text text-anchor="middle" x="846.38" y="-433.85" font-family="Times New Roman,serif" font-size="14.00">acc = true</text>
<text text-anchor="middle" x="799.75" y="-460.1" font-family="Times New Roman,serif" font-size="14.00">[51]</text>
</g>
<!-- 45&#45;&gt;51 -->
<g id="edge2" class="edge">
<title>45&#45;&gt;51</title>
<path fill="none" stroke="black" d="M855.2,-509.31C853.72,-497.66 851.72,-481.95 850,-468.42"/>
<polygon fill="black" stroke="black" points="853.51,-468.23 848.77,-458.75 846.56,-469.11 853.51,-468.23"/>
<text text-anchor="middle" x="889.99" y="-478.1" font-family="Times New Roman,serif" font-size="14.00">graphAnd#65</text>
</g>
<!-- 48 -->
<g id="node19" class="node">
<title>48</title>
<polygon fill="yellow" stroke="black" points="879.38,-368.4 803.38,-368.4 803.38,-332.4 879.38,-332.4 879.38,-368.4"/>
<text text-anchor="middle" x="841.38" y="-345.35" font-family="Times New Roman,serif" font-size="14.00">Index0 = 1</text>
<text text-anchor="middle" x="792.12" y="-371.6" font-family="Times New Roman,serif" font-size="14.00">[48]</text>
</g>
<!-- 48&#45;&gt;68 -->
<g id="edge1" class="edge">
<title>48&#45;&gt;68</title>
<path fill="none" stroke="black" d="M839.43,-331.92C838.85,-321.8 839.03,-308.92 842.12,-297.9 843.22,-293.99 845.11,-290.06 847.17,-286.54"/>
<polygon fill="black" stroke="black" points="849.94,-288.69 852.66,-278.45 844.15,-284.76 849.94,-288.69"/>
<text text-anchor="middle" x="879.25" y="-301.1" font-family="Times New Roman,serif" font-size="14.00">graphAnd#64</text>
</g>
<!-- 51&#45;&gt;48 -->
<g id="edge20" class="edge">
<title>51&#45;&gt;48</title>
<path fill="none" stroke="black" d="M845.39,-420.81C844.71,-409.16 843.81,-393.45 843.02,-379.92"/>
<polygon fill="black" stroke="black" points="846.54,-380.04 842.47,-370.26 839.55,-380.45 846.54,-380.04"/>
<text text-anchor="middle" x="881.45" y="-389.6" font-family="Times New Roman,serif" font-size="14.00">graphAnd#45</text>
</g>
<!-- 54&#45;&gt;76 -->
<g id="edge10" class="edge">
<title>54&#45;&gt;76</title>
<path fill="none" stroke="black" d="M727.93,-176.91C715.81,-160.27 697.66,-135.35 686.73,-120.34"/>
<polygon fill="black" stroke="black" points="689.83,-118.66 681.12,-112.64 684.18,-122.78 689.83,-118.66"/>
<text text-anchor="middle" x="745.27" y="-145.7" font-family="Times New Roman,serif" font-size="14.00">merge1#77</text>
</g>
<!-- 60 -->
<g id="node23" class="node">
<title>60</title>
<polygon fill="yellow" stroke="black" points="977,-124.5 829.75,-124.5 829.75,-88.5 977,-88.5 977,-124.5"/>
<text text-anchor="middle" x="903.38" y="-101.45" font-family="Times New Roman,serif" font-size="14.00">it = Sequence{1..dim1}</text>
<text text-anchor="middle" x="818.5" y="-127.7" font-family="Times New Roman,serif" font-size="14.00">[60]</text>
</g>
<!-- 57&#45;&gt;60 -->
<g id="edge21" class="edge">
<title>57&#45;&gt;60</title>
<path fill="none" stroke="black" d="M899.36,-176.91C900.04,-165.26 900.94,-149.55 901.73,-136.02"/>
<polygon fill="black" stroke="black" points="905.2,-136.55 902.28,-126.36 898.21,-136.14 905.2,-136.55"/>
<text text-anchor="middle" x="938.45" y="-145.7" font-family="Times New Roman,serif" font-size="14.00">graphAnd#56</text>
</g>
<!-- 63 -->
<g id="node24" class="node">
<title>63</title>
<polygon fill="yellow" stroke="black" points="1074.62,-36 832.12,-36 832.12,0 1074.62,0 1074.62,-36"/>
<text text-anchor="middle" x="953.38" y="-12.95" font-family="Times New Roman,serif" font-size="14.00">result.data[it] = self.data[it] + arg.data[it]</text>
<text text-anchor="middle" x="820.88" y="-39.2" font-family="Times New Roman,serif" font-size="14.00">[63]</text>
</g>
<!-- 60&#45;&gt;63 -->
<g id="edge22" class="edge">
<title>60&#45;&gt;63</title>
<path fill="none" stroke="black" d="M906.45,-88.43C908.83,-77.97 912.83,-64.61 919.12,-54 920.99,-50.86 923.2,-47.78 925.57,-44.84"/>
<polygon fill="black" stroke="black" points="927.98,-47.4 932.05,-37.61 922.77,-42.73 927.98,-47.4"/>
<text text-anchor="middle" x="956.25" y="-57.2" font-family="Times New Roman,serif" font-size="14.00">graphAnd#57</text>
</g>
<!-- 63&#45;&gt;66 -->
<g id="edge23" class="edge">
<title>63&#45;&gt;66</title>
<path fill="none" stroke="black" d="M977.72,-36.27C983.55,-41.4 989.27,-47.43 993.38,-54 1005.95,-74.11 1007.38,-81.78 1007.38,-105.5 1007.38,-273.7 1007.38,-273.7 1007.38,-273.7 1007.38,-290.01 1002.61,-307.53 997.51,-321.61"/>
<polygon fill="black" stroke="black" points="994.36,-320.07 993.99,-330.66 1000.88,-322.61 994.36,-320.07"/>
<text text-anchor="middle" x="1044.5" y="-189.95" font-family="Times New Roman,serif" font-size="14.00">graphAnd#58</text>
</g>
</g>
</svg>
