<?xml version="1.0" encoding="UTF-8" standalone="no"?>
<!DOCTYPE svg PUBLIC "-//W3C//DTD SVG 1.1//EN"
 "http://www.w3.org/Graphics/SVG/1.1/DTD/svg11.dtd">
<!-- Generated by graphviz version 12.2.1 (20241206.2353)
 -->
<!-- Title: CLG Pages: 1 -->
<svg width="1128pt" height="1327pt"
 viewBox="0.00 0.00 1128.00 1327.20" xmlns="http://www.w3.org/2000/svg" xmlns:xlink="http://www.w3.org/1999/xlink">
<g id="graph0" class="graph" transform="scale(1 1) rotate(0) translate(4 1323.2)">
<title>CLG</title>
<polygon fill="white" stroke="none" points="-4,4 -4,-1323.2 1124,-1323.2 1124,4 -4,4"/>
<!-- 129 -->
<g id="node1" class="node">
<title>129</title>
<polygon fill="yellow" stroke="black" points="767.38,-1162.8 551.88,-1162.8 551.88,-1126.8 767.38,-1126.8 767.38,-1162.8"/>
<text text-anchor="middle" x="659.62" y="-1139.75" font-family="Times New Roman,serif" font-size="14.00">self.data.getDimensionSizes(1) &lt; 10</text>
<text text-anchor="middle" x="537.25" y="-1166" font-family="Times New Roman,serif" font-size="14.00">[129]</text>
</g>
<!-- 131 -->
<g id="node2" class="node">
<title>131</title>
<polygon fill="aquamarine" stroke="black" points="659.62,-1074.3 652.42,-1067.1 659.62,-1059.9 666.83,-1067.1 659.62,-1074.3"/>
<text text-anchor="middle" x="634.05" y="-1077.5" font-family="Times New Roman,serif" font-size="14.00">&lt;131&gt;</text>
</g>
<!-- 129&#45;&gt;131 -->
<g id="edge13" class="edge">
<title>129&#45;&gt;131</title>
<path fill="none" stroke="black" d="M659.62,-1126.62C659.62,-1114.58 659.62,-1098.5 659.62,-1086.25"/>
<polygon fill="black" stroke="black" points="663.13,-1086.34 659.63,-1076.34 656.13,-1086.34 663.13,-1086.34"/>
<text text-anchor="middle" x="700.12" y="-1095.5" font-family="Times New Roman,serif" font-size="14.00">graphAnd#144</text>
</g>
<!-- 86 -->
<g id="node8" class="node">
<title>86</title>
<polygon fill="aquamarine" stroke="black" points="572.62,-996.6 565.42,-989.4 572.62,-982.2 579.83,-989.4 572.62,-996.6"/>
<text text-anchor="middle" x="550.42" y="-999.8" font-family="Times New Roman,serif" font-size="14.00">&lt;86&gt;</text>
</g>
<!-- 131&#45;&gt;86 -->
<g id="edge9" class="edge">
<title>131&#45;&gt;86</title>
<path fill="none" stroke="black" d="M656.32,-1063.22C644.69,-1053.11 605.26,-1018.8 584.95,-1001.12"/>
<polygon fill="black" stroke="black" points="587.3,-998.53 577.46,-994.6 582.7,-1003.81 587.3,-998.53"/>
<text text-anchor="middle" x="659.98" y="-1028.6" font-family="Times New Roman,serif" font-size="14.00">split2#140</text>
</g>
<!-- 89 -->
<g id="node10" class="node">
<title>89</title>
<polygon fill="yellow" stroke="black" points="988.38,-1007.4 688.88,-1007.4 688.88,-971.4 988.38,-971.4 988.38,-1007.4"/>
<text text-anchor="middle" x="838.62" y="-984.35" font-family="Times New Roman,serif" font-size="14.00">arg.data.getDimension() = self.data.getDimension()</text>
<text text-anchor="middle" x="677.62" y="-1010.6" font-family="Times New Roman,serif" font-size="14.00">[89]</text>
</g>
<!-- 131&#45;&gt;89 -->
<g id="edge8" class="edge">
<title>131&#45;&gt;89</title>
<path fill="none" stroke="black" d="M664.41,-1064.08C681.71,-1056.76 742.29,-1031.14 787.18,-1012.16"/>
<polygon fill="black" stroke="black" points="788.4,-1015.44 796.25,-1008.32 785.68,-1008.99 788.4,-1015.44"/>
<text text-anchor="middle" x="782.99" y="-1028.6" font-family="Times New Roman,serif" font-size="14.00">split1#139</text>
</g>
<!-- 132 -->
<g id="node3" class="node">
<title>132</title>
<polygon fill="aquamarine" stroke="black" points="713.62,-202.2 706.42,-195 713.62,-187.8 720.83,-195 713.62,-202.2"/>
<text text-anchor="middle" x="688.05" y="-205.4" font-family="Times New Roman,serif" font-size="14.00">&lt;132&gt;</text>
</g>
<!-- 79 -->
<g id="node5" class="node">
<title>79</title>
<ellipse fill="black" stroke="black" cx="713.62" cy="-106.5" rx="7.2" ry="7.2"/>
<ellipse fill="none" stroke="black" cx="713.62" cy="-106.5" rx="11.2" ry="11.2"/>
<text text-anchor="middle" x="692.3" y="-120.9" font-family="Times New Roman,serif" font-size="14.00">[&#45;1]</text>
</g>
<!-- 132&#45;&gt;79 -->
<g id="edge12" class="edge">
<title>132&#45;&gt;79</title>
<path fill="none" stroke="black" d="M713.62,-187.21C713.62,-174.92 713.62,-148.49 713.62,-129.43"/>
<polygon fill="black" stroke="black" points="717.13,-129.44 713.63,-119.44 710.13,-129.44 717.13,-129.44"/>
<text text-anchor="middle" x="762.75" y="-145.7" font-family="Times New Roman,serif" font-size="14.00">graphOr_end#143</text>
</g>
<!-- 78 -->
<g id="node4" class="node">
<title>78</title>
<polygon fill="yellow" stroke="black" points="713.38,-687.9 587.88,-687.9 587.88,-651.9 713.38,-651.9 713.38,-687.9"/>
<text text-anchor="middle" x="650.62" y="-664.85" font-family="Times New Roman,serif" font-size="14.00">Result = &#39;Exception&#39;</text>
<text text-anchor="middle" x="576.62" y="-691.1" font-family="Times New Roman,serif" font-size="14.00">[78]</text>
</g>
<!-- 78&#45;&gt;132 -->
<g id="edge11" class="edge">
<title>78&#45;&gt;132</title>
<path fill="none" stroke="black" d="M654.39,-651.61C658.22,-632.41 663.62,-600.47 663.62,-572.65 663.62,-572.65 663.62,-572.65 663.62,-282.5 663.62,-252.05 687.14,-222.69 701.91,-207.24"/>
<polygon fill="black" stroke="black" points="704.3,-209.8 708.95,-200.29 699.38,-204.82 704.3,-209.8"/>
<text text-anchor="middle" x="697.75" y="-433.85" font-family="Times New Roman,serif" font-size="14.00">merge2#142</text>
</g>
<!-- 81 -->
<g id="node6" class="node">
<title>81</title>
<polygon fill="yellow" stroke="black" points="726.5,-918.9 418.75,-918.9 418.75,-882.9 726.5,-882.9 726.5,-918.9"/>
<text text-anchor="middle" x="572.62" y="-895.85" font-family="Times New Roman,serif" font-size="14.00">arg.data.getDimension() &lt;&gt; self.data.getDimension()</text>
<text text-anchor="middle" x="407.5" y="-922.1" font-family="Times New Roman,serif" font-size="14.00">[81]</text>
</g>
<!-- 87 -->
<g id="node9" class="node">
<title>87</title>
<polygon fill="aquamarine" stroke="black" points="572.62,-819.6 565.42,-812.4 572.62,-805.2 579.83,-812.4 572.62,-819.6"/>
<text text-anchor="middle" x="550.42" y="-822.8" font-family="Times New Roman,serif" font-size="14.00">&lt;87&gt;</text>
</g>
<!-- 81&#45;&gt;87 -->
<g id="edge16" class="edge">
<title>81&#45;&gt;87</title>
<path fill="none" stroke="black" d="M572.62,-882.81C572.62,-868.04 572.62,-846.73 572.62,-831.63"/>
<polygon fill="black" stroke="black" points="576.13,-831.79 572.63,-821.79 569.13,-831.79 576.13,-831.79"/>
<text text-anchor="middle" x="603.38" y="-851.6" font-family="Times New Roman,serif" font-size="14.00">merge1#90</text>
</g>
<!-- 84 -->
<g id="node7" class="node">
<title>84</title>
<polygon fill="yellow" stroke="black" points="400.75,-918.9 22.5,-918.9 22.5,-882.9 400.75,-882.9 400.75,-918.9"/>
<text text-anchor="middle" x="211.62" y="-895.85" font-family="Times New Roman,serif" font-size="14.00">arg.data.getDimensionSizes(1) &lt;&gt; self.data.getDimensionSizes(1)</text>
<text text-anchor="middle" x="11.25" y="-922.1" font-family="Times New Roman,serif" font-size="14.00">[84]</text>
</g>
<!-- 84&#45;&gt;87 -->
<g id="edge17" class="edge">
<title>84&#45;&gt;87</title>
<path fill="none" stroke="black" d="M284.24,-882.5C370.63,-861.8 509.09,-828.62 556.27,-817.32"/>
<polygon fill="black" stroke="black" points="556.86,-820.78 565.76,-815.04 555.22,-813.97 556.86,-820.78"/>
<text text-anchor="middle" x="455.21" y="-851.6" font-family="Times New Roman,serif" font-size="14.00">merge2#91</text>
</g>
<!-- 86&#45;&gt;81 -->
<g id="edge14" class="edge">
<title>86&#45;&gt;81</title>
<path fill="none" stroke="black" d="M572.62,-981.61C572.62,-970.75 572.62,-948.85 572.62,-930.75"/>
<polygon fill="black" stroke="black" points="576.13,-930.79 572.63,-920.79 569.13,-930.79 576.13,-930.79"/>
<text text-anchor="middle" x="597.75" y="-940.1" font-family="Times New Roman,serif" font-size="14.00">split1#88</text>
</g>
<!-- 86&#45;&gt;84 -->
<g id="edge15" class="edge">
<title>86&#45;&gt;84</title>
<path fill="none" stroke="black" d="M567.24,-987.11C537.5,-979.98 391.19,-944.92 295.74,-922.06"/>
<polygon fill="black" stroke="black" points="296.67,-918.68 286.13,-919.75 295.04,-925.49 296.67,-918.68"/>
<text text-anchor="middle" x="449.58" y="-940.1" font-family="Times New Roman,serif" font-size="14.00">split2#89</text>
</g>
<!-- 87&#45;&gt;78 -->
<g id="edge4" class="edge">
<title>87&#45;&gt;78</title>
<path fill="none" stroke="black" d="M575.04,-807.04C584.04,-790.84 616.02,-733.23 635.39,-698.35"/>
<polygon fill="black" stroke="black" points="638.42,-700.09 640.21,-689.65 632.3,-696.7 638.42,-700.09"/>
<text text-anchor="middle" x="640.58" y="-763.1" font-family="Times New Roman,serif" font-size="14.00">graphAnd#131</text>
</g>
<!-- 92 -->
<g id="node11" class="node">
<title>92</title>
<polygon fill="yellow" stroke="black" points="1114.62,-918.9 744.62,-918.9 744.62,-882.9 1114.62,-882.9 1114.62,-918.9"/>
<text text-anchor="middle" x="929.62" y="-895.85" font-family="Times New Roman,serif" font-size="14.00">arg.data.getDimensionSizes(1) = self.data.getDimensionSizes(1)</text>
<text text-anchor="middle" x="733.38" y="-922.1" font-family="Times New Roman,serif" font-size="14.00">[92]</text>
</g>
<!-- 89&#45;&gt;92 -->
<g id="edge18" class="edge">
<title>89&#45;&gt;92</title>
<path fill="none" stroke="black" d="M856.6,-971.31C869.98,-958.6 888.43,-941.06 903.44,-926.79"/>
<polygon fill="black" stroke="black" points="905.44,-929.72 910.28,-920.29 900.62,-924.65 905.44,-929.72"/>
<text text-anchor="middle" x="929.4" y="-940.1" font-family="Times New Roman,serif" font-size="14.00">graphAnd#97</text>
</g>
<!-- 95 -->
<g id="node12" class="node">
<title>95</title>
<polygon fill="yellow" stroke="black" points="1084.75,-830.4 772.5,-830.4 772.5,-794.4 1084.75,-794.4 1084.75,-830.4"/>
<text text-anchor="middle" x="928.62" y="-807.35" font-family="Times New Roman,serif" font-size="14.00">self.data.getDimension() = result.data.getDimension()</text>
<text text-anchor="middle" x="761.25" y="-833.6" font-family="Times New Roman,serif" font-size="14.00">[95]</text>
</g>
<!-- 92&#45;&gt;95 -->
<g id="edge5" class="edge">
<title>92&#45;&gt;95</title>
<path fill="none" stroke="black" d="M929.43,-882.81C929.29,-871.16 929.11,-855.45 928.95,-841.92"/>
<polygon fill="black" stroke="black" points="932.46,-842.22 928.84,-832.26 925.46,-842.3 932.46,-842.22"/>
<text text-anchor="middle" x="969.71" y="-851.6" font-family="Times New Roman,serif" font-size="14.00">graphAnd#132</text>
</g>
<!-- 98 -->
<g id="node13" class="node">
<title>98</title>
<polygon fill="yellow" stroke="black" points="1120,-741.9 737.25,-741.9 737.25,-705.9 1120,-705.9 1120,-741.9"/>
<text text-anchor="middle" x="928.62" y="-718.85" font-family="Times New Roman,serif" font-size="14.00">self.data.getDimensionSizes(1) = result.data.getDimensionSizes(1)</text>
<text text-anchor="middle" x="726" y="-745.1" font-family="Times New Roman,serif" font-size="14.00">[98]</text>
</g>
<!-- 95&#45;&gt;98 -->
<g id="edge19" class="edge">
<title>95&#45;&gt;98</title>
<path fill="none" stroke="black" d="M928.62,-794.31C928.62,-782.66 928.62,-766.95 928.62,-753.42"/>
<polygon fill="black" stroke="black" points="932.13,-753.76 928.63,-743.76 925.13,-753.76 932.13,-753.76"/>
<text text-anchor="middle" x="969.12" y="-763.1" font-family="Times New Roman,serif" font-size="14.00">graphAnd#102</text>
</g>
<!-- 101 -->
<g id="node14" class="node">
<title>101</title>
<polygon fill="yellow" stroke="black" points="1042.75,-633.9 814.5,-633.9 814.5,-597.9 1042.75,-597.9 1042.75,-633.9"/>
<text text-anchor="middle" x="928.62" y="-610.85" font-family="Times New Roman,serif" font-size="14.00">dim1 = arg.data.getDimensionSizes(1)</text>
<text text-anchor="middle" x="799.88" y="-637.1" font-family="Times New Roman,serif" font-size="14.00">[101]</text>
</g>
<!-- 98&#45;&gt;101 -->
<g id="edge3" class="edge">
<title>98&#45;&gt;101</title>
<path fill="none" stroke="black" d="M928.62,-705.87C928.62,-689.66 928.62,-664.96 928.62,-645.69"/>
<polygon fill="black" stroke="black" points="932.13,-645.75 928.63,-635.75 925.13,-645.75 932.13,-645.75"/>
<text text-anchor="middle" x="969.12" y="-664.85" font-family="Times New Roman,serif" font-size="14.00">graphAnd#130</text>
</g>
<!-- 107 -->
<g id="node16" class="node">
<title>107</title>
<polygon fill="yellow" stroke="black" points="963,-545.4 892.25,-545.4 892.25,-509.4 963,-509.4 963,-545.4"/>
<text text-anchor="middle" x="927.62" y="-522.35" font-family="Times New Roman,serif" font-size="14.00">acc = true</text>
<text text-anchor="middle" x="877.62" y="-548.6" font-family="Times New Roman,serif" font-size="14.00">[107]</text>
</g>
<!-- 101&#45;&gt;107 -->
<g id="edge2" class="edge">
<title>101&#45;&gt;107</title>
<path fill="none" stroke="black" d="M928.43,-597.81C928.29,-586.16 928.11,-570.45 927.95,-556.92"/>
<polygon fill="black" stroke="black" points="931.46,-557.22 927.84,-547.26 924.46,-557.3 931.46,-557.22"/>
<text text-anchor="middle" x="968.71" y="-566.6" font-family="Times New Roman,serif" font-size="14.00">graphAnd#129</text>
</g>
<!-- 104 -->
<g id="node15" class="node">
<title>104</title>
<polygon fill="yellow" stroke="black" points="965.62,-456.9 889.62,-456.9 889.62,-420.9 965.62,-420.9 965.62,-456.9"/>
<text text-anchor="middle" x="927.62" y="-433.85" font-family="Times New Roman,serif" font-size="14.00">Index0 = 1</text>
<text text-anchor="middle" x="875" y="-460.1" font-family="Times New Roman,serif" font-size="14.00">[104]</text>
</g>
<!-- 124 -->
<g id="node22" class="node">
<title>124</title>
<polygon fill="aquamarine" stroke="black" points="925.62,-368.4 918.42,-361.2 925.62,-354 932.83,-361.2 925.62,-368.4"/>
<text text-anchor="middle" x="900.05" y="-371.6" font-family="Times New Roman,serif" font-size="14.00">&lt;124&gt;</text>
</g>
<!-- 104&#45;&gt;124 -->
<g id="edge1" class="edge">
<title>104&#45;&gt;124</title>
<path fill="none" stroke="black" d="M927.17,-420.72C926.85,-408.68 926.43,-392.6 926.1,-380.35"/>
<polygon fill="black" stroke="black" points="929.61,-380.34 925.84,-370.44 922.61,-380.52 929.61,-380.34"/>
<text text-anchor="middle" x="967.18" y="-389.6" font-family="Times New Roman,serif" font-size="14.00">graphAnd#128</text>
</g>
<!-- 107&#45;&gt;104 -->
<g id="edge20" class="edge">
<title>107&#45;&gt;104</title>
<path fill="none" stroke="black" d="M927.62,-509.31C927.62,-497.66 927.62,-481.95 927.62,-468.42"/>
<polygon fill="black" stroke="black" points="931.13,-468.76 927.63,-458.76 924.13,-468.76 931.13,-468.76"/>
<text text-anchor="middle" x="968.12" y="-478.1" font-family="Times New Roman,serif" font-size="14.00">graphAnd#109</text>
</g>
<!-- 110 -->
<g id="node17" class="node">
<title>110</title>
<polygon fill="yellow" stroke="black" points="833.25,-301.5 698,-301.5 698,-265.5 833.25,-265.5 833.25,-301.5"/>
<text text-anchor="middle" x="765.62" y="-278.45" font-family="Times New Roman,serif" font-size="14.00">Index0 &gt; dim1 &#45; 1+ 1</text>
<text text-anchor="middle" x="683.38" y="-304.7" font-family="Times New Roman,serif" font-size="14.00">[110]</text>
</g>
<!-- 110&#45;&gt;132 -->
<g id="edge10" class="edge">
<title>110&#45;&gt;132</title>
<path fill="none" stroke="black" d="M755.35,-265.41C745.54,-249.09 730.94,-224.81 721.87,-209.71"/>
<polygon fill="black" stroke="black" points="725.11,-208.31 716.96,-201.54 719.11,-211.92 725.11,-208.31"/>
<text text-anchor="middle" x="778.41" y="-234.2" font-family="Times New Roman,serif" font-size="14.00">merge1#141</text>
</g>
<!-- 113 -->
<g id="node18" class="node">
<title>113</title>
<polygon fill="yellow" stroke="black" points="997.38,-301.5 853.88,-301.5 853.88,-265.5 997.38,-265.5 997.38,-301.5"/>
<text text-anchor="middle" x="925.62" y="-278.45" font-family="Times New Roman,serif" font-size="14.00">Index0 &lt;= dim1 &#45; 1+ 1</text>
<text text-anchor="middle" x="839.25" y="-304.7" font-family="Times New Roman,serif" font-size="14.00">[113]</text>
</g>
<!-- 116 -->
<g id="node19" class="node">
<title>116</title>
<polygon fill="yellow" stroke="black" points="973.25,-213 826,-213 826,-177 973.25,-177 973.25,-213"/>
<text text-anchor="middle" x="899.62" y="-189.95" font-family="Times New Roman,serif" font-size="14.00">it = Sequence{1..dim1}</text>
<text text-anchor="middle" x="811.38" y="-216.2" font-family="Times New Roman,serif" font-size="14.00">[116]</text>
</g>
<!-- 113&#45;&gt;116 -->
<g id="edge21" class="edge">
<title>113&#45;&gt;116</title>
<path fill="none" stroke="black" d="M920.49,-265.41C916.95,-253.64 912.17,-237.73 908.07,-224.11"/>
<polygon fill="black" stroke="black" points="911.51,-223.37 905.28,-214.8 904.8,-225.38 911.51,-223.37"/>
<text text-anchor="middle" x="955.45" y="-234.2" font-family="Times New Roman,serif" font-size="14.00">graphAnd#120</text>
</g>
<!-- 119 -->
<g id="node20" class="node">
<title>119</title>
<polygon fill="yellow" stroke="black" points="1010,-124.5 771.25,-124.5 771.25,-88.5 1010,-88.5 1010,-124.5"/>
<text text-anchor="middle" x="890.62" y="-101.45" font-family="Times New Roman,serif" font-size="14.00">result.data[it] = self.data[it] &#45; arg.data[it]</text>
<text text-anchor="middle" x="756.62" y="-127.7" font-family="Times New Roman,serif" font-size="14.00">[119]</text>
</g>
<!-- 116&#45;&gt;119 -->
<g id="edge22" class="edge">
<title>116&#45;&gt;119</title>
<path fill="none" stroke="black" d="M897.85,-176.91C896.63,-165.26 895,-149.55 893.59,-136.02"/>
<polygon fill="black" stroke="black" points="897.1,-135.94 892.59,-126.36 890.14,-136.66 897.1,-135.94"/>
<text text-anchor="middle" x="936.43" y="-145.7" font-family="Times New Roman,serif" font-size="14.00">graphAnd#121</text>
</g>
<!-- 122 -->
<g id="node21" class="node">
<title>122</title>
<polygon fill="yellow" stroke="black" points="1029.25,-36 900,-36 900,0 1029.25,0 1029.25,-36"/>
<text text-anchor="middle" x="964.62" y="-12.95" font-family="Times New Roman,serif" font-size="14.00">Index0 = Index0 + 1</text>
<text text-anchor="middle" x="885.38" y="-39.2" font-family="Times New Roman,serif" font-size="14.00">[122]</text>
</g>
<!-- 119&#45;&gt;122 -->
<g id="edge23" class="edge">
<title>119&#45;&gt;122</title>
<path fill="none" stroke="black" d="M905.25,-88.41C915.82,-76.05 930.3,-59.13 942.31,-45.08"/>
<polygon fill="black" stroke="black" points="944.96,-47.37 948.8,-37.5 939.64,-42.82 944.96,-47.37"/>
<text text-anchor="middle" x="974.75" y="-57.2" font-family="Times New Roman,serif" font-size="14.00">graphAnd#122</text>
</g>
<!-- 122&#45;&gt;124 -->
<g id="edge25" class="edge">
<title>122&#45;&gt;124</title>
<path fill="none" stroke="black" d="M999.75,-36.39C1007.08,-41.28 1014.21,-47.17 1019.62,-54 1034.68,-73 1037.62,-81.25 1037.62,-105.5 1037.62,-284.5 1037.62,-284.5 1037.62,-284.5 1037.62,-329.88 973.72,-349.9 942.45,-356.97"/>
<polygon fill="black" stroke="black" points="941.91,-353.51 932.82,-358.95 943.31,-360.37 941.91,-353.51"/>
<text text-anchor="middle" x="1068" y="-189.95" font-family="Times New Roman,serif" font-size="14.00">iterate#125</text>
</g>
<!-- 124&#45;&gt;110 -->
<g id="edge26" class="edge">
<title>124&#45;&gt;110</title>
<path fill="none" stroke="black" d="M920.03,-359.26C906.11,-356.78 868.95,-349.32 840.62,-336 824.98,-328.64 809.01,-318.17 795.84,-308.58"/>
<polygon fill="black" stroke="black" points="798.12,-305.91 788.01,-302.72 793.92,-311.51 798.12,-305.91"/>
<text text-anchor="middle" x="881.12" y="-322.7" font-family="Times New Roman,serif" font-size="14.00">graphAnd#127</text>
</g>
<!-- 124&#45;&gt;113 -->
<g id="edge24" class="edge">
<title>124&#45;&gt;113</title>
<path fill="none" stroke="black" d="M925.62,-353.48C925.62,-344.4 925.62,-327.65 925.62,-312.93"/>
<polygon fill="black" stroke="black" points="929.13,-313.26 925.63,-303.26 922.13,-313.26 929.13,-313.26"/>
<text text-anchor="middle" x="956" y="-322.7" font-family="Times New Roman,serif" font-size="14.00">iterate#124</text>
</g>
<!-- 125 -->
<g id="node23" class="node">
<title>125</title>
<ellipse fill="black" stroke="black" cx="659.62" cy="-1295.5" rx="7.2" ry="7.2"/>
<text text-anchor="middle" x="644.55" y="-1305.9" font-family="Times New Roman,serif" font-size="14.00">[0]</text>
</g>
<!-- 126 -->
<g id="node24" class="node">
<title>126</title>
<polygon fill="yellow" stroke="black" points="764,-1251.3 555.25,-1251.3 555.25,-1215.3 764,-1215.3 764,-1251.3"/>
<text text-anchor="middle" x="659.62" y="-1228.25" font-family="Times New Roman,serif" font-size="14.00">self.data.getDimensionSizes(1) &gt; 0</text>
<text text-anchor="middle" x="540.62" y="-1254.5" font-family="Times New Roman,serif" font-size="14.00">[126]</text>
</g>
<!-- 125&#45;&gt;126 -->
<g id="edge6" class="edge">
<title>125&#45;&gt;126</title>
<path fill="none" stroke="black" d="M659.62,-1288.06C659.62,-1282 659.62,-1272.49 659.62,-1263.14"/>
<polygon fill="black" stroke="black" points="663.13,-1263.18 659.63,-1253.18 656.13,-1263.18 663.13,-1263.18"/>
</g>
<!-- 126&#45;&gt;129 -->
<g id="edge7" class="edge">
<title>126&#45;&gt;129</title>
<path fill="none" stroke="black" d="M659.62,-1215.21C659.62,-1203.56 659.62,-1187.85 659.62,-1174.32"/>
<polygon fill="black" stroke="black" points="663.13,-1174.66 659.63,-1164.66 656.13,-1174.66 663.13,-1174.66"/>
<text text-anchor="middle" x="700.12" y="-1184" font-family="Times New Roman,serif" font-size="14.00">graphAnd#137</text>
</g>
</g>
</svg>
