<?xml version="1.0" encoding="UTF-8" standalone="no"?>
<!DOCTYPE svg PUBLIC "-//W3C//DTD SVG 1.1//EN"
 "http://www.w3.org/Graphics/SVG/1.1/DTD/svg11.dtd">
<!-- Generated by graphviz version 12.2.1 (20241206.2353)
 -->
<!-- Title: CLG Pages: 1 -->
<svg width="239pt" height="437pt"
 viewBox="0.00 0.00 239.25 436.80" xmlns="http://www.w3.org/2000/svg" xmlns:xlink="http://www.w3.org/1999/xlink">
<g id="graph0" class="graph" transform="scale(1 1) rotate(0) translate(4 432.8)">
<title>CLG</title>
<polygon fill="white" stroke="none" points="-4,4 -4,-432.8 235.25,-432.8 235.25,4 -4,4"/>
<!-- 16 -->
<g id="node1" class="node">
<title>16</title>
<polygon fill="yellow" stroke="black" points="195.25,-95.4 58.5,-95.4 58.5,-59.4 195.25,-59.4 195.25,-95.4"/>
<text text-anchor="middle" x="126.88" y="-72.35" font-family="Times New Roman,serif" font-size="14.00">self.data = inputArray</text>
<text text-anchor="middle" x="47.25" y="-98.6" font-family="Times New Roman,serif" font-size="14.00">[16]</text>
</g>
<!-- 17 -->
<g id="node2" class="node">
<title>17</title>
<ellipse fill="black" stroke="black" cx="126.88" cy="-11.2" rx="7.2" ry="7.2"/>
<ellipse fill="none" stroke="black" cx="126.88" cy="-11.2" rx="11.2" ry="11.2"/>
<text text-anchor="middle" x="105.55" y="-25.6" font-family="Times New Roman,serif" font-size="14.00">[&#45;1]</text>
</g>
<!-- 16&#45;&gt;17 -->
<g id="edge4" class="edge">
<title>16&#45;&gt;17</title>
<path fill="none" stroke="black" d="M126.88,-59.2C126.88,-51.5 126.88,-42.34 126.88,-34.15"/>
<polygon fill="black" stroke="black" points="130.38,-34.32 126.88,-24.32 123.38,-34.32 130.38,-34.32"/>
</g>
<!-- 18 -->
<g id="node3" class="node">
<title>18</title>
<ellipse fill="black" stroke="black" cx="126.88" cy="-405.1" rx="7.2" ry="7.2"/>
<text text-anchor="middle" x="111.8" y="-415.5" font-family="Times New Roman,serif" font-size="14.00">[0]</text>
</g>
<!-- 19 -->
<g id="node4" class="node">
<title>19</title>
<polygon fill="yellow" stroke="black" points="231.25,-360.9 22.5,-360.9 22.5,-324.9 231.25,-324.9 231.25,-360.9"/>
<text text-anchor="middle" x="126.88" y="-337.85" font-family="Times New Roman,serif" font-size="14.00">self.data.getDimensionSizes(1) &gt; 0</text>
<text text-anchor="middle" x="11.25" y="-364.1" font-family="Times New Roman,serif" font-size="14.00">[19]</text>
</g>
<!-- 18&#45;&gt;19 -->
<g id="edge5" class="edge">
<title>18&#45;&gt;19</title>
<path fill="none" stroke="black" d="M126.88,-397.66C126.88,-391.6 126.88,-382.09 126.88,-372.74"/>
<polygon fill="black" stroke="black" points="130.38,-372.78 126.88,-362.78 123.38,-372.78 130.38,-372.78"/>
</g>
<!-- 22 -->
<g id="node5" class="node">
<title>22</title>
<polygon fill="yellow" stroke="black" points="231.25,-272.4 22.5,-272.4 22.5,-236.4 231.25,-236.4 231.25,-272.4"/>
<text text-anchor="middle" x="126.88" y="-249.35" font-family="Times New Roman,serif" font-size="14.00">self.data.getDimensionSizes(2) &gt; 0</text>
<text text-anchor="middle" x="11.25" y="-275.6" font-family="Times New Roman,serif" font-size="14.00">[22]</text>
</g>
<!-- 19&#45;&gt;22 -->
<g id="edge1" class="edge">
<title>19&#45;&gt;22</title>
<path fill="none" stroke="black" d="M126.88,-324.81C126.88,-313.16 126.88,-297.45 126.88,-283.92"/>
<polygon fill="black" stroke="black" points="130.38,-284.26 126.88,-274.26 123.38,-284.26 130.38,-284.26"/>
<text text-anchor="middle" x="164" y="-293.6" font-family="Times New Roman,serif" font-size="14.00">graphAnd#18</text>
</g>
<!-- 25 -->
<g id="node6" class="node">
<title>25</title>
<polygon fill="yellow" stroke="black" points="231.25,-183.9 22.5,-183.9 22.5,-147.9 231.25,-147.9 231.25,-183.9"/>
<text text-anchor="middle" x="126.88" y="-160.85" font-family="Times New Roman,serif" font-size="14.00">self.data.getDimensionSizes(3) &gt; 0</text>
<text text-anchor="middle" x="11.25" y="-187.1" font-family="Times New Roman,serif" font-size="14.00">[25]</text>
</g>
<!-- 22&#45;&gt;25 -->
<g id="edge2" class="edge">
<title>22&#45;&gt;25</title>
<path fill="none" stroke="black" d="M126.88,-236.31C126.88,-224.66 126.88,-208.95 126.88,-195.42"/>
<polygon fill="black" stroke="black" points="130.38,-195.76 126.88,-185.76 123.38,-195.76 130.38,-195.76"/>
<text text-anchor="middle" x="164" y="-205.1" font-family="Times New Roman,serif" font-size="14.00">graphAnd#21</text>
</g>
<!-- 25&#45;&gt;16 -->
<g id="edge3" class="edge">
<title>25&#45;&gt;16</title>
<path fill="none" stroke="black" d="M126.88,-147.81C126.88,-136.16 126.88,-120.45 126.88,-106.92"/>
<polygon fill="black" stroke="black" points="130.38,-107.26 126.88,-97.26 123.38,-107.26 130.38,-107.26"/>
<text text-anchor="middle" x="164" y="-116.6" font-family="Times New Roman,serif" font-size="14.00">graphAnd#22</text>
</g>
</g>
</svg>
