<?xml version="1.0" encoding="UTF-8" standalone="no"?>
<!DOCTYPE svg PUBLIC "-//W3C//DTD SVG 1.1//EN"
 "http://www.w3.org/Graphics/SVG/1.1/DTD/svg11.dtd">
<!-- Generated by graphviz version 12.2.1 (20241206.2353)
 -->
<!-- Title: CLG Pages: 1 -->
<svg width="1921pt" height="2007pt"
 viewBox="0.00 0.00 1921.38 2007.30" xmlns="http://www.w3.org/2000/svg" xmlns:xlink="http://www.w3.org/1999/xlink">
<g id="graph0" class="graph" transform="scale(1 1) rotate(0) translate(4 2003.3)">
<title>CLG</title>
<polygon fill="white" stroke="none" points="-4,4 -4,-2003.3 1917.38,-2003.3 1917.38,4 -4,4"/>
<!-- 257 -->
<g id="node1" class="node">
<title>257</title>
<polygon fill="aquamarine" stroke="black" points="259.25,-929.7 252.05,-922.5 259.25,-915.3 266.45,-922.5 259.25,-929.7"/>
<text text-anchor="middle" x="233.68" y="-932.9" font-family="Times New Roman,serif" font-size="14.00">&lt;257&gt;</text>
</g>
<!-- 243 -->
<g id="node47" class="node">
<title>243</title>
<polygon fill="yellow" stroke="black" points="266.38,-832.5 146.12,-832.5 146.12,-796.5 266.38,-796.5 266.38,-832.5"/>
<text text-anchor="middle" x="206.25" y="-809.45" font-family="Times New Roman,serif" font-size="14.00">Index2 &gt; d3 &#45; 1+ 1</text>
<text text-anchor="middle" x="131.5" y="-835.7" font-family="Times New Roman,serif" font-size="14.00">[243]</text>
</g>
<!-- 257&#45;&gt;243 -->
<g id="edge6" class="edge">
<title>257&#45;&gt;243</title>
<path fill="none" stroke="black" d="M254.43,-919.46C244.71,-915.07 222.84,-903.67 213.25,-886.5 206.15,-873.79 204.09,-857.78 203.95,-844.18"/>
<polygon fill="black" stroke="black" points="207.44,-844.59 204.19,-834.51 200.44,-844.42 207.44,-844.59"/>
<text text-anchor="middle" x="253.75" y="-863.45" font-family="Times New Roman,serif" font-size="14.00">graphAnd#270</text>
</g>
<!-- 246 -->
<g id="node48" class="node">
<title>246</title>
<polygon fill="yellow" stroke="black" points="472.5,-832.5 344,-832.5 344,-796.5 472.5,-796.5 472.5,-832.5"/>
<text text-anchor="middle" x="408.25" y="-809.45" font-family="Times New Roman,serif" font-size="14.00">Index2 &lt;= d3 &#45; 1+ 1</text>
<text text-anchor="middle" x="329.38" y="-835.7" font-family="Times New Roman,serif" font-size="14.00">[246]</text>
</g>
<!-- 257&#45;&gt;246 -->
<g id="edge4" class="edge">
<title>257&#45;&gt;246</title>
<path fill="none" stroke="black" d="M263.69,-919.39C274.22,-914.3 301.37,-900.74 322.25,-886.5 342.76,-872.51 364.31,-854.72 380.7,-840.44"/>
<polygon fill="black" stroke="black" points="382.91,-843.16 388.1,-833.92 378.29,-837.91 382.91,-843.16"/>
<text text-anchor="middle" x="398.39" y="-863.45" font-family="Times New Roman,serif" font-size="14.00">iterate#267</text>
</g>
<!-- 259 -->
<g id="node2" class="node">
<title>259</title>
<polygon fill="yellow" stroke="black" points="258.88,-744 129.62,-744 129.62,-708 258.88,-708 258.88,-744"/>
<text text-anchor="middle" x="194.25" y="-720.95" font-family="Times New Roman,serif" font-size="14.00">Index1 = Index1 + 1</text>
<text text-anchor="middle" x="115" y="-747.2" font-family="Times New Roman,serif" font-size="14.00">[259]</text>
</g>
<!-- 261 -->
<g id="node3" class="node">
<title>261</title>
<polygon fill="aquamarine" stroke="black" points="187.25,-644.7 180.05,-637.5 187.25,-630.3 194.45,-637.5 187.25,-644.7"/>
<text text-anchor="middle" x="161.68" y="-647.9" font-family="Times New Roman,serif" font-size="14.00">&lt;261&gt;</text>
</g>
<!-- 259&#45;&gt;261 -->
<g id="edge12" class="edge">
<title>259&#45;&gt;261</title>
<path fill="none" stroke="black" d="M192.87,-707.91C191.65,-692.83 189.88,-670.95 188.65,-655.81"/>
<polygon fill="black" stroke="black" points="192.16,-655.77 187.86,-646.08 185.18,-656.33 192.16,-655.77"/>
<text text-anchor="middle" x="221.75" y="-676.7" font-family="Times New Roman,serif" font-size="14.00">iterate#279</text>
</g>
<!-- 228 -->
<g id="node42" class="node">
<title>228</title>
<polygon fill="yellow" stroke="black" points="442.38,-567 322.12,-567 322.12,-531 442.38,-531 442.38,-567"/>
<text text-anchor="middle" x="382.25" y="-543.95" font-family="Times New Roman,serif" font-size="14.00">Index1 &gt; d2 &#45; 1+ 1</text>
<text text-anchor="middle" x="307.5" y="-570.2" font-family="Times New Roman,serif" font-size="14.00">[228]</text>
</g>
<!-- 261&#45;&gt;228 -->
<g id="edge13" class="edge">
<title>261&#45;&gt;228</title>
<path fill="none" stroke="black" d="M191.38,-634.04C200.74,-628.45 224.2,-614.27 243.25,-601.5 253.7,-594.5 254.96,-590.56 266.25,-585 274.93,-580.73 292.34,-575.01 311.09,-569.43"/>
<polygon fill="black" stroke="black" points="311.84,-572.86 320.46,-566.69 309.88,-566.14 311.84,-572.86"/>
<text text-anchor="middle" x="306.75" y="-588.2" font-family="Times New Roman,serif" font-size="14.00">graphAnd#281</text>
</g>
<!-- 231 -->
<g id="node43" class="node">
<title>231</title>
<polygon fill="yellow" stroke="black" points="304.5,-567 176,-567 176,-531 304.5,-531 304.5,-567"/>
<text text-anchor="middle" x="240.25" y="-543.95" font-family="Times New Roman,serif" font-size="14.00">Index1 &lt;= d2 &#45; 1+ 1</text>
<text text-anchor="middle" x="161.38" y="-570.2" font-family="Times New Roman,serif" font-size="14.00">[231]</text>
</g>
<!-- 261&#45;&gt;231 -->
<g id="edge11" class="edge">
<title>261&#45;&gt;231</title>
<path fill="none" stroke="black" d="M185.17,-631.87C181.24,-622.38 173.86,-600.33 182.5,-585 184.61,-581.26 187.3,-577.87 190.36,-574.81"/>
<polygon fill="black" stroke="black" points="192.57,-577.52 198.02,-568.43 188.09,-572.14 192.57,-577.52"/>
<text text-anchor="middle" x="212.88" y="-588.2" font-family="Times New Roman,serif" font-size="14.00">iterate#278</text>
</g>
<!-- 263 -->
<g id="node4" class="node">
<title>263</title>
<polygon fill="yellow" stroke="black" points="494.88,-478.5 365.62,-478.5 365.62,-442.5 494.88,-442.5 494.88,-478.5"/>
<text text-anchor="middle" x="430.25" y="-455.45" font-family="Times New Roman,serif" font-size="14.00">Index0 = Index0 + 1</text>
<text text-anchor="middle" x="351" y="-481.7" font-family="Times New Roman,serif" font-size="14.00">[263]</text>
</g>
<!-- 265 -->
<g id="node5" class="node">
<title>265</title>
<polygon fill="aquamarine" stroke="black" points="489.25,-379.2 482.05,-372 489.25,-364.8 496.45,-372 489.25,-379.2"/>
<text text-anchor="middle" x="463.68" y="-382.4" font-family="Times New Roman,serif" font-size="14.00">&lt;265&gt;</text>
</g>
<!-- 263&#45;&gt;265 -->
<g id="edge19" class="edge">
<title>263&#45;&gt;265</title>
<path fill="none" stroke="black" d="M441.91,-442.41C453.15,-425.93 469.92,-401.34 480.19,-386.28"/>
<polygon fill="black" stroke="black" points="482.98,-388.4 485.73,-378.17 477.2,-384.45 482.98,-388.4"/>
<text text-anchor="middle" x="495.41" y="-411.2" font-family="Times New Roman,serif" font-size="14.00">iterate#290</text>
</g>
<!-- 213 -->
<g id="node37" class="node">
<title>213</title>
<polygon fill="yellow" stroke="black" points="603.38,-301.5 483.12,-301.5 483.12,-265.5 603.38,-265.5 603.38,-301.5"/>
<text text-anchor="middle" x="543.25" y="-278.45" font-family="Times New Roman,serif" font-size="14.00">Index0 &gt; d1 &#45; 1+ 1</text>
<text text-anchor="middle" x="468.5" y="-304.7" font-family="Times New Roman,serif" font-size="14.00">[213]</text>
</g>
<!-- 265&#45;&gt;213 -->
<g id="edge20" class="edge">
<title>265&#45;&gt;213</title>
<path fill="none" stroke="black" d="M491.85,-366.83C498.02,-356.95 513.92,-331.48 526.42,-311.46"/>
<polygon fill="black" stroke="black" points="529.27,-313.5 531.6,-303.17 523.33,-309.8 529.27,-313.5"/>
<text text-anchor="middle" x="561.59" y="-322.7" font-family="Times New Roman,serif" font-size="14.00">graphAnd#292</text>
</g>
<!-- 216 -->
<g id="node38" class="node">
<title>216</title>
<polygon fill="yellow" stroke="black" points="437.5,-301.5 309,-301.5 309,-265.5 437.5,-265.5 437.5,-301.5"/>
<text text-anchor="middle" x="373.25" y="-278.45" font-family="Times New Roman,serif" font-size="14.00">Index0 &lt;= d1 &#45; 1+ 1</text>
<text text-anchor="middle" x="294.38" y="-304.7" font-family="Times New Roman,serif" font-size="14.00">[216]</text>
</g>
<!-- 265&#45;&gt;216 -->
<g id="edge18" class="edge">
<title>265&#45;&gt;216</title>
<path fill="none" stroke="black" d="M485.39,-368.12C473.12,-358.97 434.11,-329.89 405.54,-308.58"/>
<polygon fill="black" stroke="black" points="408,-306.05 397.89,-302.88 403.82,-311.66 408,-306.05"/>
<text text-anchor="middle" x="472.01" y="-322.7" font-family="Times New Roman,serif" font-size="14.00">iterate#289</text>
</g>
<!-- 266 -->
<g id="node6" class="node">
<title>266</title>
<ellipse fill="black" stroke="black" cx="922.25" cy="-1975.6" rx="7.2" ry="7.2"/>
<text text-anchor="middle" x="907.17" y="-1986" font-family="Times New Roman,serif" font-size="14.00">[0]</text>
</g>
<!-- 267 -->
<g id="node7" class="node">
<title>267</title>
<polygon fill="yellow" stroke="black" points="1026.62,-1931.4 817.88,-1931.4 817.88,-1895.4 1026.62,-1895.4 1026.62,-1931.4"/>
<text text-anchor="middle" x="922.25" y="-1908.35" font-family="Times New Roman,serif" font-size="14.00">self.data.getDimensionSizes(1) &gt; 0</text>
<text text-anchor="middle" x="803.25" y="-1934.6" font-family="Times New Roman,serif" font-size="14.00">[267]</text>
</g>
<!-- 266&#45;&gt;267 -->
<g id="edge26" class="edge">
<title>266&#45;&gt;267</title>
<path fill="none" stroke="black" d="M922.25,-1968.16C922.25,-1962.1 922.25,-1952.59 922.25,-1943.24"/>
<polygon fill="black" stroke="black" points="925.75,-1943.28 922.25,-1933.28 918.75,-1943.28 925.75,-1943.28"/>
</g>
<!-- 270 -->
<g id="node8" class="node">
<title>270</title>
<polygon fill="yellow" stroke="black" points="1026.62,-1842.9 817.88,-1842.9 817.88,-1806.9 1026.62,-1806.9 1026.62,-1842.9"/>
<text text-anchor="middle" x="922.25" y="-1819.85" font-family="Times New Roman,serif" font-size="14.00">self.data.getDimensionSizes(2) &gt; 0</text>
<text text-anchor="middle" x="803.25" y="-1846.1" font-family="Times New Roman,serif" font-size="14.00">[270]</text>
</g>
<!-- 267&#45;&gt;270 -->
<g id="edge27" class="edge">
<title>267&#45;&gt;270</title>
<path fill="none" stroke="black" d="M922.25,-1895.31C922.25,-1883.66 922.25,-1867.95 922.25,-1854.42"/>
<polygon fill="black" stroke="black" points="925.75,-1854.76 922.25,-1844.76 918.75,-1854.76 925.75,-1854.76"/>
<text text-anchor="middle" x="962.75" y="-1864.1" font-family="Times New Roman,serif" font-size="14.00">graphAnd#302</text>
</g>
<!-- 273 -->
<g id="node9" class="node">
<title>273</title>
<polygon fill="yellow" stroke="black" points="1026.62,-1754.4 817.88,-1754.4 817.88,-1718.4 1026.62,-1718.4 1026.62,-1754.4"/>
<text text-anchor="middle" x="922.25" y="-1731.35" font-family="Times New Roman,serif" font-size="14.00">self.data.getDimensionSizes(3) &gt; 0</text>
<text text-anchor="middle" x="803.25" y="-1757.6" font-family="Times New Roman,serif" font-size="14.00">[273]</text>
</g>
<!-- 270&#45;&gt;273 -->
<g id="edge30" class="edge">
<title>270&#45;&gt;273</title>
<path fill="none" stroke="black" d="M922.25,-1806.81C922.25,-1795.16 922.25,-1779.45 922.25,-1765.92"/>
<polygon fill="black" stroke="black" points="925.75,-1766.26 922.25,-1756.26 918.75,-1766.26 925.75,-1766.26"/>
<text text-anchor="middle" x="962.75" y="-1775.6" font-family="Times New Roman,serif" font-size="14.00">graphAnd#305</text>
</g>
<!-- 275 -->
<g id="node10" class="node">
<title>275</title>
<polygon fill="aquamarine" stroke="black" points="922.25,-1665.9 915.05,-1658.7 922.25,-1651.5 929.45,-1658.7 922.25,-1665.9"/>
<text text-anchor="middle" x="896.67" y="-1669.1" font-family="Times New Roman,serif" font-size="14.00">&lt;275&gt;</text>
</g>
<!-- 273&#45;&gt;275 -->
<g id="edge39" class="edge">
<title>273&#45;&gt;275</title>
<path fill="none" stroke="black" d="M922.25,-1718.22C922.25,-1706.18 922.25,-1690.1 922.25,-1677.85"/>
<polygon fill="black" stroke="black" points="925.75,-1677.94 922.25,-1667.94 918.75,-1677.94 925.75,-1677.94"/>
<text text-anchor="middle" x="962.75" y="-1687.1" font-family="Times New Roman,serif" font-size="14.00">graphAnd#312</text>
</g>
<!-- 171 -->
<g id="node22" class="node">
<title>171</title>
<polygon fill="aquamarine" stroke="black" points="1035.25,-1588.2 1028.05,-1581 1035.25,-1573.8 1042.45,-1581 1035.25,-1588.2"/>
<text text-anchor="middle" x="1009.67" y="-1591.4" font-family="Times New Roman,serif" font-size="14.00">&lt;171&gt;</text>
</g>
<!-- 275&#45;&gt;171 -->
<g id="edge34" class="edge">
<title>275&#45;&gt;171</title>
<path fill="none" stroke="black" d="M926.27,-1655.01C941.48,-1644.82 995.9,-1608.36 1021.61,-1591.14"/>
<polygon fill="black" stroke="black" points="1023.54,-1594.06 1029.9,-1585.58 1019.64,-1588.24 1023.54,-1594.06"/>
<text text-anchor="middle" x="1010.64" y="-1620.2" font-family="Times New Roman,serif" font-size="14.00">split2#308</text>
</g>
<!-- 174 -->
<g id="node24" class="node">
<title>174</title>
<polygon fill="yellow" stroke="black" points="985,-1599 685.5,-1599 685.5,-1563 985,-1563 985,-1599"/>
<text text-anchor="middle" x="835.25" y="-1575.95" font-family="Times New Roman,serif" font-size="14.00">self.data.getDimension() = arg.data.getDimension()</text>
<text text-anchor="middle" x="670.88" y="-1602.2" font-family="Times New Roman,serif" font-size="14.00">[174]</text>
</g>
<!-- 275&#45;&gt;174 -->
<g id="edge33" class="edge">
<title>275&#45;&gt;174</title>
<path fill="none" stroke="black" d="M918.95,-1654.82C909.93,-1646.98 884.2,-1624.59 863.63,-1606.69"/>
<polygon fill="black" stroke="black" points="866.17,-1604.27 856.33,-1600.34 861.58,-1609.55 866.17,-1604.27"/>
<text text-anchor="middle" x="922.61" y="-1620.2" font-family="Times New Roman,serif" font-size="14.00">split1#307</text>
</g>
<!-- 276 -->
<g id="node11" class="node">
<title>276</title>
<polygon fill="aquamarine" stroke="black" points="871.25,-202.2 864.05,-195 871.25,-187.8 878.45,-195 871.25,-202.2"/>
<text text-anchor="middle" x="845.67" y="-205.4" font-family="Times New Roman,serif" font-size="14.00">&lt;276&gt;</text>
</g>
<!-- 154 -->
<g id="node13" class="node">
<title>154</title>
<ellipse fill="black" stroke="black" cx="871.25" cy="-106.5" rx="7.2" ry="7.2"/>
<ellipse fill="none" stroke="black" cx="871.25" cy="-106.5" rx="11.2" ry="11.2"/>
<text text-anchor="middle" x="849.92" y="-120.9" font-family="Times New Roman,serif" font-size="14.00">[&#45;1]</text>
</g>
<!-- 276&#45;&gt;154 -->
<g id="edge37" class="edge">
<title>276&#45;&gt;154</title>
<path fill="none" stroke="black" d="M871.25,-187.21C871.25,-174.92 871.25,-148.49 871.25,-129.43"/>
<polygon fill="black" stroke="black" points="874.75,-129.44 871.25,-119.44 867.75,-129.44 874.75,-129.44"/>
<text text-anchor="middle" x="920.38" y="-145.7" font-family="Times New Roman,serif" font-size="14.00">graphOr_end#311</text>
</g>
<!-- 153 -->
<g id="node12" class="node">
<title>153</title>
<polygon fill="yellow" stroke="black" points="1046,-886.5 920.5,-886.5 920.5,-850.5 1046,-850.5 1046,-886.5"/>
<text text-anchor="middle" x="983.25" y="-863.45" font-family="Times New Roman,serif" font-size="14.00">Result = &#39;Exception&#39;</text>
<text text-anchor="middle" x="905.88" y="-889.7" font-family="Times New Roman,serif" font-size="14.00">[153]</text>
</g>
<!-- 153&#45;&gt;276 -->
<g id="edge36" class="edge">
<title>153&#45;&gt;276</title>
<path fill="none" stroke="black" d="M980.65,-850.16C977.99,-830.92 974.25,-798.94 974.25,-771.25 974.25,-771.25 974.25,-771.25 974.25,-282.5 974.25,-237.55 916,-211.29 887.11,-201.03"/>
<polygon fill="black" stroke="black" points="888.53,-197.81 877.94,-197.99 886.33,-204.45 888.53,-197.81"/>
<text text-anchor="middle" x="1008.38" y="-543.95" font-family="Times New Roman,serif" font-size="14.00">merge2#310</text>
</g>
<!-- 156 -->
<g id="node14" class="node">
<title>156</title>
<polygon fill="yellow" stroke="black" points="1517.12,-1294.5 1209.38,-1294.5 1209.38,-1258.5 1517.12,-1258.5 1517.12,-1294.5"/>
<text text-anchor="middle" x="1363.25" y="-1271.45" font-family="Times New Roman,serif" font-size="14.00">self.data.getDimension() &lt;&gt; arg.data.getDimension()</text>
<text text-anchor="middle" x="1194.75" y="-1297.7" font-family="Times New Roman,serif" font-size="14.00">[156]</text>
</g>
<!-- 162 -->
<g id="node17" class="node">
<title>162</title>
<polygon fill="aquamarine" stroke="black" points="1363.25,-1195.2 1356.05,-1188 1363.25,-1180.8 1370.45,-1188 1363.25,-1195.2"/>
<text text-anchor="middle" x="1337.67" y="-1198.4" font-family="Times New Roman,serif" font-size="14.00">&lt;162&gt;</text>
</g>
<!-- 156&#45;&gt;162 -->
<g id="edge31" class="edge">
<title>156&#45;&gt;162</title>
<path fill="none" stroke="black" d="M1363.25,-1258.41C1363.25,-1243.64 1363.25,-1222.33 1363.25,-1207.23"/>
<polygon fill="black" stroke="black" points="1366.75,-1207.39 1363.25,-1197.39 1359.75,-1207.39 1366.75,-1207.39"/>
<text text-anchor="middle" x="1397.38" y="-1227.2" font-family="Times New Roman,serif" font-size="14.00">merge1#177</text>
</g>
<!-- 159 -->
<g id="node15" class="node">
<title>159</title>
<polygon fill="yellow" stroke="black" points="1913.38,-1294.5 1535.12,-1294.5 1535.12,-1258.5 1913.38,-1258.5 1913.38,-1294.5"/>
<text text-anchor="middle" x="1724.25" y="-1271.45" font-family="Times New Roman,serif" font-size="14.00">self.data.getDimensionSizes(1) &lt;&gt; arg.data.getDimensionSizes(1)</text>
<text text-anchor="middle" x="1520.5" y="-1297.7" font-family="Times New Roman,serif" font-size="14.00">[159]</text>
</g>
<!-- 159&#45;&gt;162 -->
<g id="edge32" class="edge">
<title>159&#45;&gt;162</title>
<path fill="none" stroke="black" d="M1651.63,-1258.1C1565.24,-1237.4 1426.78,-1204.22 1379.61,-1192.92"/>
<polygon fill="black" stroke="black" points="1380.65,-1189.57 1370.11,-1190.64 1379.02,-1196.38 1380.65,-1189.57"/>
<text text-anchor="middle" x="1610.21" y="-1227.2" font-family="Times New Roman,serif" font-size="14.00">merge2#178</text>
</g>
<!-- 161 -->
<g id="node16" class="node">
<title>161</title>
<polygon fill="aquamarine" stroke="black" points="1450.25,-1391.7 1443.05,-1384.5 1450.25,-1377.3 1457.45,-1384.5 1450.25,-1391.7"/>
<text text-anchor="middle" x="1424.67" y="-1394.9" font-family="Times New Roman,serif" font-size="14.00">&lt;161&gt;</text>
</g>
<!-- 161&#45;&gt;156 -->
<g id="edge28" class="edge">
<title>161&#45;&gt;156</title>
<path fill="none" stroke="black" d="M1449.87,-1377.26C1448.77,-1363.91 1444.49,-1332.23 1428.25,-1312.5 1424.82,-1308.33 1420.75,-1304.58 1416.35,-1301.23"/>
<polygon fill="black" stroke="black" points="1418.47,-1298.44 1408.22,-1295.75 1414.56,-1304.24 1418.47,-1298.44"/>
<text text-anchor="middle" x="1473.07" y="-1325.45" font-family="Times New Roman,serif" font-size="14.00">split1#175</text>
</g>
<!-- 161&#45;&gt;159 -->
<g id="edge29" class="edge">
<title>161&#45;&gt;159</title>
<path fill="none" stroke="black" d="M1455.01,-1381.66C1479.95,-1372.01 1597.22,-1326.64 1668.51,-1299.06"/>
<polygon fill="black" stroke="black" points="1669.63,-1302.38 1677.7,-1295.51 1667.11,-1295.85 1669.63,-1302.38"/>
<text text-anchor="middle" x="1656.3" y="-1325.45" font-family="Times New Roman,serif" font-size="14.00">split2#176</text>
</g>
<!-- 167 -->
<g id="node20" class="node">
<title>167</title>
<polygon fill="aquamarine" stroke="black" points="1181.25,-1106.7 1174.05,-1099.5 1181.25,-1092.3 1188.45,-1099.5 1181.25,-1106.7"/>
<text text-anchor="middle" x="1155.67" y="-1109.9" font-family="Times New Roman,serif" font-size="14.00">&lt;167&gt;</text>
</g>
<!-- 162&#45;&gt;167 -->
<g id="edge41" class="edge">
<title>162&#45;&gt;167</title>
<path fill="none" stroke="black" d="M1358.75,-1184.86C1336.18,-1174.13 1234.82,-1125.96 1196.23,-1107.62"/>
<polygon fill="black" stroke="black" points="1197.82,-1104.5 1187.29,-1103.37 1194.82,-1110.82 1197.82,-1104.5"/>
<text text-anchor="middle" x="1322.68" y="-1138.7" font-family="Times New Roman,serif" font-size="14.00">merge1#185</text>
</g>
<!-- 164 -->
<g id="node18" class="node">
<title>164</title>
<polygon fill="yellow" stroke="black" points="1427.38,-1348.5 1049.12,-1348.5 1049.12,-1312.5 1427.38,-1312.5 1427.38,-1348.5"/>
<text text-anchor="middle" x="1238.25" y="-1325.45" font-family="Times New Roman,serif" font-size="14.00">self.data.getDimensionSizes(2) &lt;&gt; arg.data.getDimensionSizes(2)</text>
<text text-anchor="middle" x="1034.5" y="-1351.7" font-family="Times New Roman,serif" font-size="14.00">[164]</text>
</g>
<!-- 164&#45;&gt;167 -->
<g id="edge42" class="edge">
<title>164&#45;&gt;167</title>
<path fill="none" stroke="black" d="M1213.99,-1312.1C1208.61,-1307.04 1203.53,-1301.08 1200.25,-1294.5 1170.68,-1235.13 1175.25,-1152.96 1179.02,-1117.7"/>
<polygon fill="black" stroke="black" points="1182.49,-1118.15 1180.21,-1107.8 1175.54,-1117.31 1182.49,-1118.15"/>
<text text-anchor="middle" x="1216.6" y="-1227.2" font-family="Times New Roman,serif" font-size="14.00">merge2#186</text>
</g>
<!-- 166 -->
<g id="node19" class="node">
<title>166</title>
<polygon fill="aquamarine" stroke="black" points="1247.25,-1499.7 1240.05,-1492.5 1247.25,-1485.3 1254.45,-1492.5 1247.25,-1499.7"/>
<text text-anchor="middle" x="1221.67" y="-1502.9" font-family="Times New Roman,serif" font-size="14.00">&lt;166&gt;</text>
</g>
<!-- 166&#45;&gt;161 -->
<g id="edge38" class="edge">
<title>166&#45;&gt;161</title>
<path fill="none" stroke="black" d="M1251.49,-1489.29C1275.48,-1476.76 1394.63,-1414.55 1436.04,-1392.92"/>
<polygon fill="black" stroke="black" points="1437.45,-1396.13 1444.69,-1388.4 1434.21,-1389.93 1437.45,-1396.13"/>
<text text-anchor="middle" x="1407.29" y="-1433.45" font-family="Times New Roman,serif" font-size="14.00">split1#183</text>
</g>
<!-- 166&#45;&gt;164 -->
<g id="edge40" class="edge">
<title>166&#45;&gt;164</title>
<path fill="none" stroke="black" d="M1246.89,-1485.03C1245.72,-1464.3 1242.03,-1398.63 1239.87,-1360.22"/>
<polygon fill="black" stroke="black" points="1243.36,-1360.1 1239.31,-1350.31 1236.38,-1360.49 1243.36,-1360.1"/>
<text text-anchor="middle" x="1273.64" y="-1433.45" font-family="Times New Roman,serif" font-size="14.00">split2#184</text>
</g>
<!-- 172 -->
<g id="node23" class="node">
<title>172</title>
<polygon fill="aquamarine" stroke="black" points="1034.25,-1018.2 1027.05,-1011 1034.25,-1003.8 1041.45,-1011 1034.25,-1018.2"/>
<text text-anchor="middle" x="1045.42" y="-1021.4" font-family="Times New Roman,serif" font-size="14.00">&lt;172&gt;</text>
</g>
<!-- 167&#45;&gt;172 -->
<g id="edge45" class="edge">
<title>167&#45;&gt;172</title>
<path fill="none" stroke="black" d="M1177.01,-1096C1158.06,-1084.85 1080.65,-1039.3 1048.43,-1020.34"/>
<polygon fill="black" stroke="black" points="1050.21,-1017.33 1039.81,-1015.27 1046.66,-1023.36 1050.21,-1017.33"/>
<text text-anchor="middle" x="1155.04" y="-1050.2" font-family="Times New Roman,serif" font-size="14.00">merge1#193</text>
</g>
<!-- 169 -->
<g id="node21" class="node">
<title>169</title>
<polygon fill="yellow" stroke="black" points="1224.38,-1456.5 846.12,-1456.5 846.12,-1420.5 1224.38,-1420.5 1224.38,-1456.5"/>
<text text-anchor="middle" x="1035.25" y="-1433.45" font-family="Times New Roman,serif" font-size="14.00">self.data.getDimensionSizes(3) &lt;&gt; arg.data.getDimensionSizes(3)</text>
<text text-anchor="middle" x="831.5" y="-1459.7" font-family="Times New Roman,serif" font-size="14.00">[169]</text>
</g>
<!-- 169&#45;&gt;172 -->
<g id="edge46" class="edge">
<title>169&#45;&gt;172</title>
<path fill="none" stroke="black" d="M1034.99,-1420.24C1034.69,-1399.26 1034.25,-1362.79 1034.25,-1331.5 1034.25,-1331.5 1034.25,-1331.5 1034.25,-1098.5 1034.25,-1074.92 1034.25,-1047.73 1034.25,-1030.22"/>
<polygon fill="black" stroke="black" points="1037.75,-1030.24 1034.25,-1020.24 1030.75,-1030.24 1037.75,-1030.24"/>
<text text-anchor="middle" x="1068.38" y="-1227.2" font-family="Times New Roman,serif" font-size="14.00">merge2#194</text>
</g>
<!-- 171&#45;&gt;166 -->
<g id="edge43" class="edge">
<title>171&#45;&gt;166</title>
<path fill="none" stroke="black" d="M1040.08,-1578.03C1065.94,-1567.48 1188.55,-1517.45 1231.97,-1499.74"/>
<polygon fill="black" stroke="black" points="1233.19,-1503.02 1241.12,-1496 1230.54,-1496.54 1233.19,-1503.02"/>
<text text-anchor="middle" x="1188.74" y="-1531.7" font-family="Times New Roman,serif" font-size="14.00">split1#191</text>
</g>
<!-- 171&#45;&gt;169 -->
<g id="edge44" class="edge">
<title>171&#45;&gt;169</title>
<path fill="none" stroke="black" d="M1035.25,-1573.22C1035.25,-1554.57 1035.25,-1501.66 1035.25,-1468.26"/>
<polygon fill="black" stroke="black" points="1038.75,-1468.45 1035.25,-1458.45 1031.75,-1468.45 1038.75,-1468.45"/>
<text text-anchor="middle" x="1063.75" y="-1531.7" font-family="Times New Roman,serif" font-size="14.00">split2#192</text>
</g>
<!-- 172&#45;&gt;153 -->
<g id="edge24" class="edge">
<title>172&#45;&gt;153</title>
<path fill="none" stroke="black" d="M1033.66,-1003.77C1031.89,-987 1025.7,-939.82 1009.25,-904.5 1007.95,-901.7 1006.4,-898.91 1004.72,-896.18"/>
<polygon fill="black" stroke="black" points="1007.65,-894.27 999.1,-888.02 1001.89,-898.24 1007.65,-894.27"/>
<text text-anchor="middle" x="1069.88" y="-961.7" font-family="Times New Roman,serif" font-size="14.00">graphAnd#296</text>
</g>
<!-- 177 -->
<g id="node25" class="node">
<title>177</title>
<polygon fill="yellow" stroke="black" points="976.25,-1510.5 606.25,-1510.5 606.25,-1474.5 976.25,-1474.5 976.25,-1510.5"/>
<text text-anchor="middle" x="791.25" y="-1487.45" font-family="Times New Roman,serif" font-size="14.00">self.data.getDimensionSizes(1) = arg.data.getDimensionSizes(1)</text>
<text text-anchor="middle" x="591.62" y="-1513.7" font-family="Times New Roman,serif" font-size="14.00">[177]</text>
</g>
<!-- 174&#45;&gt;177 -->
<g id="edge47" class="edge">
<title>174&#45;&gt;177</title>
<path fill="none" stroke="black" d="M826.56,-1562.91C820.45,-1550.9 812.15,-1534.59 805.13,-1520.8"/>
<polygon fill="black" stroke="black" points="808.42,-1519.53 800.76,-1512.2 802.18,-1522.7 808.42,-1519.53"/>
<text text-anchor="middle" x="857.69" y="-1531.7" font-family="Times New Roman,serif" font-size="14.00">graphAnd#200</text>
</g>
<!-- 180 -->
<g id="node26" class="node">
<title>180</title>
<polygon fill="yellow" stroke="black" points="959.25,-1402.5 589.25,-1402.5 589.25,-1366.5 959.25,-1366.5 959.25,-1402.5"/>
<text text-anchor="middle" x="774.25" y="-1379.45" font-family="Times New Roman,serif" font-size="14.00">self.data.getDimensionSizes(2) = arg.data.getDimensionSizes(2)</text>
<text text-anchor="middle" x="574.62" y="-1405.7" font-family="Times New Roman,serif" font-size="14.00">[180]</text>
</g>
<!-- 177&#45;&gt;180 -->
<g id="edge48" class="edge">
<title>177&#45;&gt;180</title>
<path fill="none" stroke="black" d="M768.82,-1474.36C763.73,-1469.23 759.01,-1463.17 756.25,-1456.5 750.13,-1441.72 752.49,-1436.05 756.25,-1420.5 756.85,-1418.02 757.66,-1415.51 758.6,-1413.05"/>
<polygon fill="black" stroke="black" points="761.75,-1414.59 762.74,-1404.04 755.39,-1411.67 761.75,-1414.59"/>
<text text-anchor="middle" x="796.75" y="-1433.45" font-family="Times New Roman,serif" font-size="14.00">graphAnd#203</text>
</g>
<!-- 183 -->
<g id="node27" class="node">
<title>183</title>
<polygon fill="yellow" stroke="black" points="969.25,-1294.5 599.25,-1294.5 599.25,-1258.5 969.25,-1258.5 969.25,-1294.5"/>
<text text-anchor="middle" x="784.25" y="-1271.45" font-family="Times New Roman,serif" font-size="14.00">self.data.getDimensionSizes(3) = arg.data.getDimensionSizes(3)</text>
<text text-anchor="middle" x="584.62" y="-1297.7" font-family="Times New Roman,serif" font-size="14.00">[183]</text>
</g>
<!-- 180&#45;&gt;183 -->
<g id="edge49" class="edge">
<title>180&#45;&gt;183</title>
<path fill="none" stroke="black" d="M775.86,-1366.47C777.39,-1350.26 779.72,-1325.56 781.53,-1306.29"/>
<polygon fill="black" stroke="black" points="785.02,-1306.63 782.47,-1296.35 778.05,-1305.97 785.02,-1306.63"/>
<text text-anchor="middle" x="821.23" y="-1325.45" font-family="Times New Roman,serif" font-size="14.00">graphAnd#206</text>
</g>
<!-- 186 -->
<g id="node28" class="node">
<title>186</title>
<polygon fill="yellow" stroke="black" points="943.38,-1206 631.12,-1206 631.12,-1170 943.38,-1170 943.38,-1206"/>
<text text-anchor="middle" x="787.25" y="-1182.95" font-family="Times New Roman,serif" font-size="14.00">self.data.getDimension() = result.data.getDimension()</text>
<text text-anchor="middle" x="616.5" y="-1209.2" font-family="Times New Roman,serif" font-size="14.00">[186]</text>
</g>
<!-- 183&#45;&gt;186 -->
<g id="edge25" class="edge">
<title>183&#45;&gt;186</title>
<path fill="none" stroke="black" d="M784.84,-1258.41C785.25,-1246.76 785.79,-1231.05 786.26,-1217.52"/>
<polygon fill="black" stroke="black" points="789.75,-1217.98 786.6,-1207.86 782.75,-1217.74 789.75,-1217.98"/>
<text text-anchor="middle" x="826.52" y="-1227.2" font-family="Times New Roman,serif" font-size="14.00">graphAnd#297</text>
</g>
<!-- 189 -->
<g id="node29" class="node">
<title>189</title>
<polygon fill="yellow" stroke="black" points="978.62,-1117.5 595.88,-1117.5 595.88,-1081.5 978.62,-1081.5 978.62,-1117.5"/>
<text text-anchor="middle" x="787.25" y="-1094.45" font-family="Times New Roman,serif" font-size="14.00">self.data.getDimensionSizes(1) = result.data.getDimensionSizes(1)</text>
<text text-anchor="middle" x="581.25" y="-1120.7" font-family="Times New Roman,serif" font-size="14.00">[189]</text>
</g>
<!-- 186&#45;&gt;189 -->
<g id="edge50" class="edge">
<title>186&#45;&gt;189</title>
<path fill="none" stroke="black" d="M787.25,-1169.91C787.25,-1158.26 787.25,-1142.55 787.25,-1129.02"/>
<polygon fill="black" stroke="black" points="790.75,-1129.36 787.25,-1119.36 783.75,-1129.36 790.75,-1129.36"/>
<text text-anchor="middle" x="827.75" y="-1138.7" font-family="Times New Roman,serif" font-size="14.00">graphAnd#211</text>
</g>
<!-- 192 -->
<g id="node30" class="node">
<title>192</title>
<polygon fill="yellow" stroke="black" points="996.62,-1029 613.88,-1029 613.88,-993 996.62,-993 996.62,-1029"/>
<text text-anchor="middle" x="805.25" y="-1005.95" font-family="Times New Roman,serif" font-size="14.00">self.data.getDimensionSizes(2) = result.data.getDimensionSizes(2)</text>
<text text-anchor="middle" x="599.25" y="-1032.2" font-family="Times New Roman,serif" font-size="14.00">[192]</text>
</g>
<!-- 189&#45;&gt;192 -->
<g id="edge51" class="edge">
<title>189&#45;&gt;192</title>
<path fill="none" stroke="black" d="M790.81,-1081.41C793.23,-1069.76 796.5,-1054.05 799.32,-1040.52"/>
<polygon fill="black" stroke="black" points="802.72,-1041.34 801.33,-1030.83 795.87,-1039.91 802.72,-1041.34"/>
<text text-anchor="middle" x="838.36" y="-1050.2" font-family="Times New Roman,serif" font-size="14.00">graphAnd#214</text>
</g>
<!-- 195 -->
<g id="node31" class="node">
<title>195</title>
<polygon fill="yellow" stroke="black" points="1000.62,-940.5 617.88,-940.5 617.88,-904.5 1000.62,-904.5 1000.62,-940.5"/>
<text text-anchor="middle" x="809.25" y="-917.45" font-family="Times New Roman,serif" font-size="14.00">self.data.getDimensionSizes(3) = result.data.getDimensionSizes(3)</text>
<text text-anchor="middle" x="603.25" y="-943.7" font-family="Times New Roman,serif" font-size="14.00">[195]</text>
</g>
<!-- 192&#45;&gt;195 -->
<g id="edge52" class="edge">
<title>192&#45;&gt;195</title>
<path fill="none" stroke="black" d="M806.04,-992.91C806.58,-981.26 807.31,-965.55 807.93,-952.02"/>
<polygon fill="black" stroke="black" points="811.41,-952.51 808.38,-942.36 804.42,-952.19 811.41,-952.51"/>
<text text-anchor="middle" x="848.11" y="-961.7" font-family="Times New Roman,serif" font-size="14.00">graphAnd#217</text>
</g>
<!-- 198 -->
<g id="node32" class="node">
<title>198</title>
<polygon fill="yellow" stroke="black" points="926.88,-832.5 713.62,-832.5 713.62,-796.5 926.88,-796.5 926.88,-832.5"/>
<text text-anchor="middle" x="820.25" y="-809.45" font-family="Times New Roman,serif" font-size="14.00">d1 = arg.data.getDimensionSizes(1)</text>
<text text-anchor="middle" x="699" y="-835.7" font-family="Times New Roman,serif" font-size="14.00">[198]</text>
</g>
<!-- 195&#45;&gt;198 -->
<g id="edge23" class="edge">
<title>195&#45;&gt;198</title>
<path fill="none" stroke="black" d="M811.02,-904.47C812.7,-888.26 815.26,-863.56 817.26,-844.29"/>
<polygon fill="black" stroke="black" points="820.74,-844.65 818.29,-834.35 813.78,-843.93 820.74,-844.65"/>
<text text-anchor="middle" x="856.88" y="-863.45" font-family="Times New Roman,serif" font-size="14.00">graphAnd#295</text>
</g>
<!-- 201 -->
<g id="node33" class="node">
<title>201</title>
<polygon fill="yellow" stroke="black" points="940.88,-744 727.62,-744 727.62,-708 940.88,-708 940.88,-744"/>
<text text-anchor="middle" x="834.25" y="-720.95" font-family="Times New Roman,serif" font-size="14.00">d2 = arg.data.getDimensionSizes(2)</text>
<text text-anchor="middle" x="713" y="-747.2" font-family="Times New Roman,serif" font-size="14.00">[201]</text>
</g>
<!-- 198&#45;&gt;201 -->
<g id="edge53" class="edge">
<title>198&#45;&gt;201</title>
<path fill="none" stroke="black" d="M823.02,-796.41C824.9,-784.76 827.44,-769.05 829.63,-755.52"/>
<polygon fill="black" stroke="black" points="833.06,-756.28 831.2,-745.84 826.15,-755.16 833.06,-756.28"/>
<text text-anchor="middle" x="869" y="-765.2" font-family="Times New Roman,serif" font-size="14.00">graphAnd#224</text>
</g>
<!-- 204 -->
<g id="node34" class="node">
<title>204</title>
<polygon fill="yellow" stroke="black" points="945.88,-655.5 732.62,-655.5 732.62,-619.5 945.88,-619.5 945.88,-655.5"/>
<text text-anchor="middle" x="839.25" y="-632.45" font-family="Times New Roman,serif" font-size="14.00">d3 = arg.data.getDimensionSizes(3)</text>
<text text-anchor="middle" x="718" y="-658.7" font-family="Times New Roman,serif" font-size="14.00">[204]</text>
</g>
<!-- 201&#45;&gt;204 -->
<g id="edge54" class="edge">
<title>201&#45;&gt;204</title>
<path fill="none" stroke="black" d="M835.24,-707.91C835.91,-696.26 836.82,-680.55 837.6,-667.02"/>
<polygon fill="black" stroke="black" points="841.08,-667.55 838.16,-657.36 834.09,-667.14 841.08,-667.55"/>
<text text-anchor="middle" x="877.7" y="-676.7" font-family="Times New Roman,serif" font-size="14.00">graphAnd#225</text>
</g>
<!-- 210 -->
<g id="node36" class="node">
<title>210</title>
<polygon fill="yellow" stroke="black" points="727.62,-567 656.88,-567 656.88,-531 727.62,-531 727.62,-567"/>
<text text-anchor="middle" x="692.25" y="-543.95" font-family="Times New Roman,serif" font-size="14.00">acc = true</text>
<text text-anchor="middle" x="642.25" y="-570.2" font-family="Times New Roman,serif" font-size="14.00">[210]</text>
</g>
<!-- 204&#45;&gt;210 -->
<g id="edge22" class="edge">
<title>204&#45;&gt;210</title>
<path fill="none" stroke="black" d="M809.86,-619.2C787.4,-605.99 756.22,-587.64 731.6,-573.16"/>
<polygon fill="black" stroke="black" points="733.54,-570.24 723.15,-568.18 729.99,-576.27 733.54,-570.24"/>
<text text-anchor="middle" x="819.42" y="-588.2" font-family="Times New Roman,serif" font-size="14.00">graphAnd#294</text>
</g>
<!-- 207 -->
<g id="node35" class="node">
<title>207</title>
<polygon fill="yellow" stroke="black" points="604.25,-478.5 528.25,-478.5 528.25,-442.5 604.25,-442.5 604.25,-478.5"/>
<text text-anchor="middle" x="566.25" y="-455.45" font-family="Times New Roman,serif" font-size="14.00">Index0 = 1</text>
<text text-anchor="middle" x="513.62" y="-481.7" font-family="Times New Roman,serif" font-size="14.00">[207]</text>
</g>
<!-- 207&#45;&gt;265 -->
<g id="edge21" class="edge">
<title>207&#45;&gt;265</title>
<path fill="none" stroke="black" d="M554.33,-442.2C546.96,-431.91 537.05,-418.79 527.25,-408 519.29,-399.24 509.44,-390.2 501.76,-383.51"/>
<polygon fill="black" stroke="black" points="504.06,-380.87 494.17,-377.06 499.52,-386.2 504.06,-380.87"/>
<text text-anchor="middle" x="581.44" y="-411.2" font-family="Times New Roman,serif" font-size="14.00">graphAnd#293</text>
</g>
<!-- 210&#45;&gt;207 -->
<g id="edge55" class="edge">
<title>210&#45;&gt;207</title>
<path fill="none" stroke="black" d="M667.05,-530.7C648,-517.62 621.62,-499.51 600.62,-485.1"/>
<polygon fill="black" stroke="black" points="602.87,-482.4 592.65,-479.62 598.91,-488.17 602.87,-482.4"/>
<text text-anchor="middle" x="681.04" y="-499.7" font-family="Times New Roman,serif" font-size="14.00">graphAnd#230</text>
</g>
<!-- 213&#45;&gt;276 -->
<g id="edge35" class="edge">
<title>213&#45;&gt;276</title>
<path fill="none" stroke="black" d="M603.79,-266.53C681.12,-246.14 810.33,-212.07 855.27,-200.22"/>
<polygon fill="black" stroke="black" points="855.93,-203.66 864.71,-197.73 854.14,-196.89 855.93,-203.66"/>
<text text-anchor="middle" x="770.75" y="-234.2" font-family="Times New Roman,serif" font-size="14.00">merge1#309</text>
</g>
<!-- 219 -->
<g id="node39" class="node">
<title>219</title>
<polygon fill="yellow" stroke="black" points="391.38,-213 259.12,-213 259.12,-177 391.38,-177 391.38,-213"/>
<text text-anchor="middle" x="325.25" y="-189.95" font-family="Times New Roman,serif" font-size="14.00">it = Sequence{1..d1}</text>
<text text-anchor="middle" x="244.5" y="-216.2" font-family="Times New Roman,serif" font-size="14.00">[219]</text>
</g>
<!-- 216&#45;&gt;219 -->
<g id="edge15" class="edge">
<title>216&#45;&gt;219</title>
<path fill="none" stroke="black" d="M363.77,-265.41C357.1,-253.4 348.05,-237.09 340.4,-223.3"/>
<polygon fill="black" stroke="black" points="343.52,-221.72 335.61,-214.67 337.4,-225.12 343.52,-221.72"/>
<text text-anchor="middle" x="394.05" y="-234.2" font-family="Times New Roman,serif" font-size="14.00">graphAnd#285</text>
</g>
<!-- 225 -->
<g id="node41" class="node">
<title>225</title>
<polygon fill="yellow" stroke="black" points="322,-124.5 244.5,-124.5 244.5,-88.5 322,-88.5 322,-124.5"/>
<text text-anchor="middle" x="283.25" y="-101.45" font-family="Times New Roman,serif" font-size="14.00">acc2 = true</text>
<text text-anchor="middle" x="229.88" y="-127.7" font-family="Times New Roman,serif" font-size="14.00">[225]</text>
</g>
<!-- 219&#45;&gt;225 -->
<g id="edge16" class="edge">
<title>219&#45;&gt;225</title>
<path fill="none" stroke="black" d="M316.95,-176.91C311.18,-165.02 303.36,-148.91 296.7,-135.2"/>
<polygon fill="black" stroke="black" points="299.85,-133.68 292.34,-126.21 293.55,-136.74 299.85,-133.68"/>
<text text-anchor="middle" x="348.51" y="-145.7" font-family="Times New Roman,serif" font-size="14.00">graphAnd#286</text>
</g>
<!-- 222 -->
<g id="node40" class="node">
<title>222</title>
<polygon fill="yellow" stroke="black" points="202.25,-36 126.25,-36 126.25,0 202.25,0 202.25,-36"/>
<text text-anchor="middle" x="164.25" y="-12.95" font-family="Times New Roman,serif" font-size="14.00">Index1 = 1</text>
<text text-anchor="middle" x="111.62" y="-39.2" font-family="Times New Roman,serif" font-size="14.00">[222]</text>
</g>
<!-- 222&#45;&gt;261 -->
<g id="edge14" class="edge">
<title>222&#45;&gt;261</title>
<path fill="none" stroke="black" d="M159.1,-36.39C154.42,-53.73 148.25,-81.22 148.25,-105.5 148.25,-550 148.25,-550 148.25,-550 148.25,-578.38 165.91,-607.73 177.46,-623.89"/>
<polygon fill="black" stroke="black" points="174.46,-625.73 183.28,-631.6 180.04,-621.51 174.46,-625.73"/>
<text text-anchor="middle" x="188.75" y="-322.7" font-family="Times New Roman,serif" font-size="14.00">graphAnd#282</text>
</g>
<!-- 225&#45;&gt;222 -->
<g id="edge56" class="edge">
<title>225&#45;&gt;222</title>
<path fill="none" stroke="black" d="M259.45,-88.2C241.62,-75.24 216.99,-57.34 197.25,-42.99"/>
<polygon fill="black" stroke="black" points="199.38,-40.21 189.23,-37.16 195.26,-45.87 199.38,-40.21"/>
<text text-anchor="middle" x="274.91" y="-57.2" font-family="Times New Roman,serif" font-size="14.00">graphAnd#241</text>
</g>
<!-- 228&#45;&gt;263 -->
<g id="edge17" class="edge">
<title>228&#45;&gt;263</title>
<path fill="none" stroke="black" d="M391.73,-530.91C398.4,-518.9 407.45,-502.59 415.1,-488.8"/>
<polygon fill="black" stroke="black" points="418.1,-490.62 419.89,-480.17 411.98,-487.22 418.1,-490.62"/>
<text text-anchor="middle" x="451.05" y="-499.7" font-family="Times New Roman,serif" font-size="14.00">graphAnd#287</text>
</g>
<!-- 234 -->
<g id="node44" class="node">
<title>234</title>
<polygon fill="yellow" stroke="black" points="316.75,-478.5 177.75,-478.5 177.75,-442.5 316.75,-442.5 316.75,-478.5"/>
<text text-anchor="middle" x="247.25" y="-455.45" font-family="Times New Roman,serif" font-size="14.00">it2 = Sequence{1..d2}</text>
<text text-anchor="middle" x="163.12" y="-481.7" font-family="Times New Roman,serif" font-size="14.00">[234]</text>
</g>
<!-- 231&#45;&gt;234 -->
<g id="edge8" class="edge">
<title>231&#45;&gt;234</title>
<path fill="none" stroke="black" d="M241.63,-530.91C242.58,-519.26 243.85,-503.55 244.94,-490.02"/>
<polygon fill="black" stroke="black" points="248.41,-490.61 245.72,-480.36 241.43,-490.04 248.41,-490.61"/>
<text text-anchor="middle" x="284.88" y="-499.7" font-family="Times New Roman,serif" font-size="14.00">graphAnd#274</text>
</g>
<!-- 240 -->
<g id="node46" class="node">
<title>240</title>
<polygon fill="yellow" stroke="black" points="290,-390 212.5,-390 212.5,-354 290,-354 290,-390"/>
<text text-anchor="middle" x="251.25" y="-366.95" font-family="Times New Roman,serif" font-size="14.00">acc3 = true</text>
<text text-anchor="middle" x="197.88" y="-393.2" font-family="Times New Roman,serif" font-size="14.00">[240]</text>
</g>
<!-- 234&#45;&gt;240 -->
<g id="edge9" class="edge">
<title>234&#45;&gt;240</title>
<path fill="none" stroke="black" d="M248.04,-442.41C248.58,-430.76 249.31,-415.05 249.93,-401.52"/>
<polygon fill="black" stroke="black" points="253.41,-402.01 250.38,-391.86 246.42,-401.69 253.41,-402.01"/>
<text text-anchor="middle" x="290.11" y="-411.2" font-family="Times New Roman,serif" font-size="14.00">graphAnd#275</text>
</g>
<!-- 237 -->
<g id="node45" class="node">
<title>237</title>
<polygon fill="yellow" stroke="black" points="105.25,-301.5 29.25,-301.5 29.25,-265.5 105.25,-265.5 105.25,-301.5"/>
<text text-anchor="middle" x="67.25" y="-278.45" font-family="Times New Roman,serif" font-size="14.00">Index2 = 1</text>
<text text-anchor="middle" x="14.62" y="-304.7" font-family="Times New Roman,serif" font-size="14.00">[237]</text>
</g>
<!-- 237&#45;&gt;257 -->
<g id="edge7" class="edge">
<title>237&#45;&gt;257</title>
<path fill="none" stroke="black" d="M62.42,-301.91C58.04,-319.27 52.25,-346.77 52.25,-371 52.25,-815.5 52.25,-815.5 52.25,-815.5 52.25,-900.19 191.23,-917.26 241.43,-920.66"/>
<polygon fill="black" stroke="black" points="241.14,-924.15 251.32,-921.21 241.53,-917.16 241.14,-924.15"/>
<text text-anchor="middle" x="92.75" y="-588.2" font-family="Times New Roman,serif" font-size="14.00">graphAnd#271</text>
</g>
<!-- 240&#45;&gt;237 -->
<g id="edge57" class="edge">
<title>240&#45;&gt;237</title>
<path fill="none" stroke="black" d="M248.49,-353.72C245.77,-342.36 240.46,-328.06 230.25,-319.5 213.27,-305.27 158.3,-295.54 116.85,-290.02"/>
<polygon fill="black" stroke="black" points="117.43,-286.56 107.06,-288.77 116.54,-293.51 117.43,-286.56"/>
<text text-anchor="middle" x="282.36" y="-322.7" font-family="Times New Roman,serif" font-size="14.00">graphAnd#252</text>
</g>
<!-- 243&#45;&gt;259 -->
<g id="edge10" class="edge">
<title>243&#45;&gt;259</title>
<path fill="none" stroke="black" d="M203.88,-796.41C202.26,-784.76 200.08,-769.05 198.21,-755.52"/>
<polygon fill="black" stroke="black" points="201.71,-755.27 196.86,-745.85 194.77,-756.24 201.71,-755.27"/>
<text text-anchor="middle" x="241.82" y="-765.2" font-family="Times New Roman,serif" font-size="14.00">graphAnd#276</text>
</g>
<!-- 249 -->
<g id="node49" class="node">
<title>249</title>
<polygon fill="yellow" stroke="black" points="555.75,-744 416.75,-744 416.75,-708 555.75,-708 555.75,-744"/>
<text text-anchor="middle" x="486.25" y="-720.95" font-family="Times New Roman,serif" font-size="14.00">it3 = Sequence{1..d3}</text>
<text text-anchor="middle" x="402.12" y="-747.2" font-family="Times New Roman,serif" font-size="14.00">[249]</text>
</g>
<!-- 246&#45;&gt;249 -->
<g id="edge1" class="edge">
<title>246&#45;&gt;249</title>
<path fill="none" stroke="black" d="M423.66,-796.41C434.91,-783.93 450.36,-766.8 463.09,-752.68"/>
<polygon fill="black" stroke="black" points="465.49,-755.24 469.59,-745.47 460.3,-750.56 465.49,-755.24"/>
<text text-anchor="middle" x="494.74" y="-765.2" font-family="Times New Roman,serif" font-size="14.00">graphAnd#263</text>
</g>
<!-- 252 -->
<g id="node50" class="node">
<title>252</title>
<polygon fill="yellow" stroke="black" points="714.38,-655.5 336.12,-655.5 336.12,-619.5 714.38,-619.5 714.38,-655.5"/>
<text text-anchor="middle" x="525.25" y="-632.45" font-family="Times New Roman,serif" font-size="14.00">result.data[it][it2][it3] = self.data[it][it2][it3] &#45; arg.data[it][it2][it3]</text>
<text text-anchor="middle" x="321.5" y="-658.7" font-family="Times New Roman,serif" font-size="14.00">[252]</text>
</g>
<!-- 249&#45;&gt;252 -->
<g id="edge2" class="edge">
<title>249&#45;&gt;252</title>
<path fill="none" stroke="black" d="M493.96,-707.91C499.32,-696.02 506.58,-679.91 512.76,-666.2"/>
<polygon fill="black" stroke="black" points="515.89,-667.78 516.81,-657.23 509.5,-664.91 515.89,-667.78"/>
<text text-anchor="middle" x="549.74" y="-676.7" font-family="Times New Roman,serif" font-size="14.00">graphAnd#264</text>
</g>
<!-- 255 -->
<g id="node51" class="node">
<title>255</title>
<polygon fill="yellow" stroke="black" points="589.88,-567 460.62,-567 460.62,-531 589.88,-531 589.88,-567"/>
<text text-anchor="middle" x="525.25" y="-543.95" font-family="Times New Roman,serif" font-size="14.00">Index2 = Index2 + 1</text>
<text text-anchor="middle" x="446" y="-570.2" font-family="Times New Roman,serif" font-size="14.00">[255]</text>
</g>
<!-- 252&#45;&gt;255 -->
<g id="edge3" class="edge">
<title>252&#45;&gt;255</title>
<path fill="none" stroke="black" d="M525.25,-619.41C525.25,-607.76 525.25,-592.05 525.25,-578.52"/>
<polygon fill="black" stroke="black" points="528.75,-578.86 525.25,-568.86 521.75,-578.86 528.75,-578.86"/>
<text text-anchor="middle" x="565.75" y="-588.2" font-family="Times New Roman,serif" font-size="14.00">graphAnd#265</text>
</g>
<!-- 255&#45;&gt;257 -->
<g id="edge5" class="edge">
<title>255&#45;&gt;257</title>
<path fill="none" stroke="black" d="M460.27,-566.03C410.07,-579.62 346.09,-599.96 327.25,-619.5 307.47,-640.02 308.25,-652.25 308.25,-680.75 308.25,-815.5 308.25,-815.5 308.25,-815.5 308.25,-847.66 309.39,-858.12 294.25,-886.5 288.91,-896.51 279.77,-905.5 272.17,-911.86"/>
<polygon fill="black" stroke="black" points="270.23,-908.95 264.46,-917.83 274.51,-914.48 270.23,-908.95"/>
<text text-anchor="middle" x="338.62" y="-720.95" font-family="Times New Roman,serif" font-size="14.00">iterate#268</text>
</g>
</g>
</svg>
