<?xml version="1.0" encoding="UTF-8" standalone="no"?>
<!DOCTYPE svg PUBLIC "-//W3C//DTD SVG 1.1//EN"
 "http://www.w3.org/Graphics/SVG/1.1/DTD/svg11.dtd">
<!-- Generated by graphviz version 12.2.1 (20241206.2353)
 -->
<!-- Title: CLG Pages: 1 -->
<svg width="156pt" height="169pt"
 viewBox="0.00 0.00 156.00 169.30" xmlns="http://www.w3.org/2000/svg" xmlns:xlink="http://www.w3.org/1999/xlink">
<g id="graph0" class="graph" transform="scale(1 1) rotate(0) translate(4 165.3)">
<title>CLG</title>
<polygon fill="white" stroke="none" points="-4,4 -4,-165.3 152,-165.3 152,4 -4,4"/>
<!-- 320 -->
<g id="node1" class="node">
<title>320</title>
<polygon fill="yellow" stroke="black" points="148,-94.4 29.25,-94.4 29.25,-58.4 148,-58.4 148,-94.4"/>
<text text-anchor="middle" x="88.62" y="-71.35" font-family="Times New Roman,serif" font-size="14.00">result = dimension</text>
<text text-anchor="middle" x="14.62" y="-97.6" font-family="Times New Roman,serif" font-size="14.00">[320]</text>
</g>
<!-- 321 -->
<g id="node2" class="node">
<title>321</title>
<ellipse fill="black" stroke="black" cx="88.62" cy="-11.2" rx="7.2" ry="7.2"/>
<ellipse fill="none" stroke="black" cx="88.62" cy="-11.2" rx="11.2" ry="11.2"/>
<text text-anchor="middle" x="67.3" y="-25.6" font-family="Times New Roman,serif" font-size="14.00">[&#45;1]</text>
</g>
<!-- 320&#45;&gt;321 -->
<g id="edge1" class="edge">
<title>320&#45;&gt;321</title>
<path fill="none" stroke="black" d="M88.62,-58.13C88.62,-50.65 88.62,-41.8 88.62,-33.88"/>
<polygon fill="black" stroke="black" points="92.13,-34.04 88.63,-24.04 85.13,-34.04 92.13,-34.04"/>
</g>
<!-- 319 -->
<g id="node3" class="node">
<title>319</title>
<ellipse fill="black" stroke="black" cx="88.62" cy="-137.6" rx="7.2" ry="7.2"/>
<text text-anchor="middle" x="73.55" y="-148" font-family="Times New Roman,serif" font-size="14.00">[0]</text>
</g>
<!-- 319&#45;&gt;320 -->
<g id="edge2" class="edge">
<title>319&#45;&gt;320</title>
<path fill="none" stroke="black" d="M88.62,-130.26C88.62,-124.35 88.62,-115.09 88.62,-105.96"/>
<polygon fill="black" stroke="black" points="92.13,-106.24 88.63,-96.24 85.13,-106.24 92.13,-106.24"/>
</g>
</g>
</svg>
