<?xml version="1.0" encoding="UTF-8" standalone="no"?>
<!DOCTYPE svg PUBLIC "-//W3C//DTD SVG 1.1//EN"
 "http://www.w3.org/Graphics/SVG/1.1/DTD/svg11.dtd">
<!-- Generated by graphviz version 12.2.1 (20241206.2353)
 -->
<!-- Title: CLG Pages: 1 -->
<svg width="185pt" height="169pt"
 viewBox="0.00 0.00 184.50 169.30" xmlns="http://www.w3.org/2000/svg" xmlns:xlink="http://www.w3.org/1999/xlink">
<g id="graph0" class="graph" transform="scale(1 1) rotate(0) translate(4 165.3)">
<title>CLG</title>
<polygon fill="white" stroke="none" points="-4,4 -4,-165.3 180.5,-165.3 180.5,4 -4,4"/>
<!-- 295 -->
<g id="node1" class="node">
<title>295</title>
<ellipse fill="black" stroke="black" cx="102.88" cy="-137.6" rx="7.2" ry="7.2"/>
<text text-anchor="middle" x="87.8" y="-148" font-family="Times New Roman,serif" font-size="14.00">[0]</text>
</g>
<!-- 296 -->
<g id="node2" class="node">
<title>296</title>
<polygon fill="yellow" stroke="black" points="176.5,-94.4 29.25,-94.4 29.25,-58.4 176.5,-58.4 176.5,-94.4"/>
<text text-anchor="middle" x="102.88" y="-71.35" font-family="Times New Roman,serif" font-size="14.00">result = dimensionSizes</text>
<text text-anchor="middle" x="14.62" y="-97.6" font-family="Times New Roman,serif" font-size="14.00">[296]</text>
</g>
<!-- 295&#45;&gt;296 -->
<g id="edge1" class="edge">
<title>295&#45;&gt;296</title>
<path fill="none" stroke="black" d="M102.88,-130.26C102.88,-124.35 102.88,-115.09 102.88,-105.96"/>
<polygon fill="black" stroke="black" points="106.38,-106.24 102.88,-96.24 99.38,-106.24 106.38,-106.24"/>
</g>
<!-- 297 -->
<g id="node3" class="node">
<title>297</title>
<ellipse fill="black" stroke="black" cx="102.88" cy="-11.2" rx="7.2" ry="7.2"/>
<ellipse fill="none" stroke="black" cx="102.88" cy="-11.2" rx="11.2" ry="11.2"/>
<text text-anchor="middle" x="81.55" y="-25.6" font-family="Times New Roman,serif" font-size="14.00">[&#45;1]</text>
</g>
<!-- 296&#45;&gt;297 -->
<g id="edge2" class="edge">
<title>296&#45;&gt;297</title>
<path fill="none" stroke="black" d="M102.88,-58.13C102.88,-50.65 102.88,-41.8 102.88,-33.88"/>
<polygon fill="black" stroke="black" points="106.38,-34.04 102.88,-24.04 99.38,-34.04 106.38,-34.04"/>
</g>
</g>
</svg>
