<?xml version="1.0" encoding="UTF-8" standalone="no"?>
<!DOCTYPE svg PUBLIC "-//W3C//DTD SVG 1.1//EN"
 "http://www.w3.org/Graphics/SVG/1.1/DTD/svg11.dtd">
<!-- Generated by graphviz version 12.2.1 (20241206.2353)
 -->
<!-- Title: CLG Pages: 1 -->
<svg width="256pt" height="174pt"
 viewBox="0.00 0.00 255.75 174.30" xmlns="http://www.w3.org/2000/svg" xmlns:xlink="http://www.w3.org/1999/xlink">
<g id="graph0" class="graph" transform="scale(1 1) rotate(0) translate(4 170.3)">
<title>CLG</title>
<polygon fill="white" stroke="none" points="-4,4 -4,-170.3 251.75,-170.3 251.75,4 -4,4"/>
<!-- 3 -->
<g id="node1" class="node">
<title>3</title>
<ellipse fill="black" stroke="black" cx="131.75" cy="-142.6" rx="7.2" ry="7.2"/>
<text text-anchor="middle" x="116.67" y="-153" font-family="Times New Roman,serif" font-size="14.00">[0]</text>
</g>
<!-- 4 -->
<g id="node2" class="node">
<title>4</title>
<polygon fill="yellow" stroke="black" points="247.75,-99.4 15.75,-99.4 15.75,-58.4 247.75,-58.4 247.75,-99.4"/>
<text text-anchor="middle" x="131.75" y="-82.1" font-family="Times New Roman,serif" font-size="14.00">self.data.getDimensionSizes(1) &gt; 0 and</text>
<text text-anchor="middle" x="131.75" y="-65.6" font-family="Times New Roman,serif" font-size="14.00">self.data.getDimensionSizes(1) &lt; 10</text>
<text text-anchor="middle" x="7.88" y="-102.6" font-family="Times New Roman,serif" font-size="14.00">[4]</text>
</g>
<!-- 3&#45;&gt;4 -->
<g id="edge1" class="edge">
<title>3&#45;&gt;4</title>
<path fill="none" stroke="black" d="M131.75,-135C131.75,-129.14 131.75,-120.13 131.75,-111.08"/>
<polygon fill="black" stroke="black" points="135.25,-111.35 131.75,-101.35 128.25,-111.35 135.25,-111.35"/>
</g>
<!-- 5 -->
<g id="node3" class="node">
<title>5</title>
<ellipse fill="black" stroke="black" cx="131.75" cy="-11.2" rx="7.2" ry="7.2"/>
<ellipse fill="none" stroke="black" cx="131.75" cy="-11.2" rx="11.2" ry="11.2"/>
<text text-anchor="middle" x="110.42" y="-25.6" font-family="Times New Roman,serif" font-size="14.00">[&#45;1]</text>
</g>
<!-- 4&#45;&gt;5 -->
<g id="edge2" class="edge">
<title>4&#45;&gt;5</title>
<path fill="none" stroke="black" d="M131.75,-58.19C131.75,-50.64 131.75,-41.98 131.75,-34.23"/>
<polygon fill="black" stroke="black" points="135.25,-34.25 131.75,-24.25 128.25,-34.25 135.25,-34.25"/>
</g>
</g>
</svg>
