<?xml version="1.0" encoding="UTF-8" standalone="no"?>
<!DOCTYPE svg PUBLIC "-//W3C//DTD SVG 1.1//EN"
 "http://www.w3.org/Graphics/SVG/1.1/DTD/svg11.dtd">
<!-- Generated by graphviz version 12.2.1 (20241206.2353)
 -->
<!-- Title: CLG Pages: 1 -->
<svg width="273pt" height="191pt"
 viewBox="0.00 0.00 273.00 190.80" xmlns="http://www.w3.org/2000/svg" xmlns:xlink="http://www.w3.org/1999/xlink">
<g id="graph0" class="graph" transform="scale(1 1) rotate(0) translate(4 186.8)">
<title>CLG</title>
<polygon fill="white" stroke="none" points="-4,4 -4,-186.8 269,-186.8 269,4 -4,4"/>
<!-- 3 -->
<g id="node1" class="node">
<title>3</title>
<ellipse fill="black" stroke="black" cx="140.38" cy="-159.1" rx="7.2" ry="7.2"/>
<text text-anchor="middle" x="125.3" y="-169.5" font-family="Times New Roman,serif" font-size="14.00">[0]</text>
</g>
<!-- 4 -->
<g id="node2" class="node">
<title>4</title>
<polygon fill="yellow" stroke="black" points="265,-115.9 15.75,-115.9 15.75,-58.4 265,-58.4 265,-115.9"/>
<text text-anchor="middle" x="140.38" y="-98.6" font-family="Times New Roman,serif" font-size="14.00">self.dimension = dimension and</text>
<text text-anchor="middle" x="140.38" y="-82.1" font-family="Times New Roman,serif" font-size="14.00">self.dimensionSizes = dimensionSizes and</text>
<text text-anchor="middle" x="140.38" y="-65.6" font-family="Times New Roman,serif" font-size="14.00">self.elements = inputArray</text>
<text text-anchor="middle" x="7.88" y="-119.1" font-family="Times New Roman,serif" font-size="14.00">[4]</text>
</g>
<!-- 3&#45;&gt;4 -->
<g id="edge1" class="edge">
<title>3&#45;&gt;4</title>
<path fill="none" stroke="black" d="M140.38,-151.64C140.38,-145.92 140.38,-137.05 140.38,-127.73"/>
<polygon fill="black" stroke="black" points="143.88,-127.84 140.38,-117.84 136.88,-127.84 143.88,-127.84"/>
</g>
<!-- 5 -->
<g id="node3" class="node">
<title>5</title>
<ellipse fill="black" stroke="black" cx="140.38" cy="-11.2" rx="7.2" ry="7.2"/>
<ellipse fill="none" stroke="black" cx="140.38" cy="-11.2" rx="11.2" ry="11.2"/>
<text text-anchor="middle" x="119.05" y="-25.6" font-family="Times New Roman,serif" font-size="14.00">[&#45;1]</text>
</g>
<!-- 4&#45;&gt;5 -->
<g id="edge2" class="edge">
<title>4&#45;&gt;5</title>
<path fill="none" stroke="black" d="M140.38,-58.19C140.38,-50.23 140.38,-41.67 140.38,-34.12"/>
<polygon fill="black" stroke="black" points="143.88,-34.16 140.38,-24.16 136.88,-34.16 143.88,-34.16"/>
</g>
</g>
</svg>
