<?xml version="1.0" encoding="UTF-8" standalone="no"?>
<!DOCTYPE svg PUBLIC "-//W3C//DTD SVG 1.1//EN"
 "http://www.w3.org/Graphics/SVG/1.1/DTD/svg11.dtd">
<!-- Generated by graphviz version 12.2.1 (20241206.2353)
 -->
<!-- Title: CLG Pages: 1 -->
<svg width="1658pt" height="1659pt"
 viewBox="0.00 0.00 1658.12 1659.40" xmlns="http://www.w3.org/2000/svg" xmlns:xlink="http://www.w3.org/1999/xlink">
<g id="graph0" class="graph" transform="scale(1 1) rotate(0) translate(4 1655.4)">
<title>CLG</title>
<polygon fill="white" stroke="none" points="-4,4 -4,-1655.4 1654.12,-1655.4 1654.12,4 -4,4"/>
<!-- 257 -->
<g id="node1" class="node">
<title>257</title>
<polygon fill="yellow" stroke="black" points="621.25,-1501.1 421.5,-1501.1 421.5,-1465.1 621.25,-1465.1 621.25,-1501.1"/>
<text text-anchor="middle" x="521.38" y="-1478.05" font-family="Times New Roman,serif" font-size="14.00">indices@pre.indices[i@pre] &gt;= 0</text>
<text text-anchor="middle" x="406.88" y="-1504.3" font-family="Times New Roman,serif" font-size="14.00">[257]</text>
</g>
<!-- 260 -->
<g id="node2" class="node">
<title>260</title>
<polygon fill="yellow" stroke="black" points="563.5,-1412.6 131.25,-1412.6 131.25,-1376.6 563.5,-1376.6 563.5,-1412.6"/>
<text text-anchor="middle" x="347.38" y="-1389.55" font-family="Times New Roman,serif" font-size="14.00">indices@pre.indices[i@pre] &lt; dimensionSizes@pre.dimensionSizes[i@pre]</text>
<text text-anchor="middle" x="116.62" y="-1415.8" font-family="Times New Roman,serif" font-size="14.00">[260]</text>
</g>
<!-- 257&#45;&gt;260 -->
<g id="edge14" class="edge">
<title>257&#45;&gt;260</title>
<path fill="none" stroke="black" d="M486.58,-1464.8C459.52,-1451.35 421.77,-1432.59 392.41,-1417.99"/>
<polygon fill="black" stroke="black" points="394.27,-1415.01 383.76,-1413.69 391.16,-1421.27 394.27,-1415.01"/>
<text text-anchor="middle" x="490.46" y="-1433.8" font-family="Times New Roman,serif" font-size="14.00">graphAnd#291</text>
</g>
<!-- 263 -->
<g id="node3" class="node">
<title>263</title>
<polygon fill="yellow" stroke="black" points="391.25,-1304.6 275.5,-1304.6 275.5,-1268.6 391.25,-1268.6 391.25,-1304.6"/>
<text text-anchor="middle" x="333.38" y="-1281.55" font-family="Times New Roman,serif" font-size="14.00">Index = Index + 1</text>
<text text-anchor="middle" x="260.88" y="-1307.8" font-family="Times New Roman,serif" font-size="14.00">[263]</text>
</g>
<!-- 260&#45;&gt;263 -->
<g id="edge17" class="edge">
<title>260&#45;&gt;263</title>
<path fill="none" stroke="black" d="M345.13,-1376.57C342.97,-1360.29 339.69,-1335.42 337.14,-1316.12"/>
<polygon fill="black" stroke="black" points="340.64,-1315.9 335.86,-1306.44 333.7,-1316.81 340.64,-1315.9"/>
<text text-anchor="middle" x="382.95" y="-1335.55" font-family="Times New Roman,serif" font-size="14.00">graphAnd#296</text>
</g>
<!-- 265 -->
<g id="node4" class="node">
<title>265</title>
<polygon fill="aquamarine" stroke="black" points="307.38,-1216.1 300.18,-1208.9 307.38,-1201.7 314.57,-1208.9 307.38,-1216.1"/>
<text text-anchor="middle" x="281.8" y="-1219.3" font-family="Times New Roman,serif" font-size="14.00">&lt;265&gt;</text>
</g>
<!-- 263&#45;&gt;265 -->
<g id="edge19" class="edge">
<title>263&#45;&gt;265</title>
<path fill="none" stroke="black" d="M327.48,-1268.42C323.07,-1255.6 317.1,-1238.22 312.81,-1225.73"/>
<polygon fill="black" stroke="black" points="316.14,-1224.64 309.58,-1216.32 309.52,-1226.92 316.14,-1224.64"/>
<text text-anchor="middle" x="351.53" y="-1237.3" font-family="Times New Roman,serif" font-size="14.00">iterate#299</text>
</g>
<!-- 248 -->
<g id="node46" class="node">
<title>248</title>
<polygon fill="yellow" stroke="black" points="349.88,-1149.2 162.88,-1149.2 162.88,-1113.2 349.88,-1113.2 349.88,-1149.2"/>
<text text-anchor="middle" x="256.38" y="-1126.15" font-family="Times New Roman,serif" font-size="14.00">Index &gt; dimension@pre &#45; 1 &#45; 0</text>
<text text-anchor="middle" x="148.25" y="-1152.4" font-family="Times New Roman,serif" font-size="14.00">[248]</text>
</g>
<!-- 265&#45;&gt;248 -->
<g id="edge21" class="edge">
<title>265&#45;&gt;248</title>
<path fill="none" stroke="black" d="M304.63,-1203.83C298.96,-1195.41 285.52,-1175.47 274.27,-1158.75"/>
<polygon fill="black" stroke="black" points="277.3,-1156.99 268.81,-1150.66 271.49,-1160.91 277.3,-1156.99"/>
<text text-anchor="middle" x="331.38" y="-1170.4" font-family="Times New Roman,serif" font-size="14.00">graphAnd#304</text>
</g>
<!-- 251 -->
<g id="node47" class="node">
<title>251</title>
<polygon fill="yellow" stroke="black" points="563,-1149.2 367.75,-1149.2 367.75,-1113.2 563,-1113.2 563,-1149.2"/>
<text text-anchor="middle" x="465.38" y="-1126.15" font-family="Times New Roman,serif" font-size="14.00">Index &lt;= dimension@pre &#45; 1 &#45; 0</text>
<text text-anchor="middle" x="353.12" y="-1152.4" font-family="Times New Roman,serif" font-size="14.00">[251]</text>
</g>
<!-- 265&#45;&gt;251 -->
<g id="edge18" class="edge">
<title>265&#45;&gt;251</title>
<path fill="none" stroke="black" d="M312.52,-1206.46C324.17,-1203.11 353.31,-1194.31 376.38,-1183.7 394.24,-1175.49 413.21,-1164.81 429.02,-1155.31"/>
<polygon fill="black" stroke="black" points="430.41,-1158.56 437.13,-1150.36 426.77,-1152.58 430.41,-1158.56"/>
<text text-anchor="middle" x="436.94" y="-1170.4" font-family="Times New Roman,serif" font-size="14.00">iterate#298</text>
</g>
<!-- 267 -->
<g id="node5" class="node">
<title>267</title>
<polygon fill="yellow" stroke="black" points="283.38,-1060.7 229.38,-1060.7 229.38,-1024.7 283.38,-1024.7 283.38,-1060.7"/>
<text text-anchor="middle" x="256.38" y="-1037.65" font-family="Times New Roman,serif" font-size="14.00">check</text>
<text text-anchor="middle" x="214.75" y="-1063.9" font-family="Times New Roman,serif" font-size="14.00">[267]</text>
</g>
<!-- 312 -->
<g id="node21" class="node">
<title>312</title>
<polygon fill="aquamarine" stroke="black" points="256.38,-971.15 249.18,-963.95 256.38,-956.75 263.57,-963.95 256.38,-971.15"/>
<text text-anchor="middle" x="230.8" y="-974.35" font-family="Times New Roman,serif" font-size="14.00">&lt;312&gt;</text>
</g>
<!-- 267&#45;&gt;312 -->
<g id="edge43" class="edge">
<title>267&#45;&gt;312</title>
<path fill="none" stroke="black" d="M256.38,-1024.28C256.38,-1011.94 256.38,-995.43 256.38,-982.96"/>
<polygon fill="black" stroke="black" points="259.88,-983.28 256.38,-973.28 252.88,-983.28 259.88,-983.28"/>
<text text-anchor="middle" x="296.88" y="-993.4" font-family="Times New Roman,serif" font-size="14.00">graphAnd#358</text>
</g>
<!-- 270 -->
<g id="node6" class="node">
<title>270</title>
<polygon fill="yellow" stroke="black" points="280.12,-903.2 184.62,-903.2 184.62,-867.2 280.12,-867.2 280.12,-903.2"/>
<text text-anchor="middle" x="232.38" y="-880.15" font-family="Times New Roman,serif" font-size="14.00">dimension = 1</text>
<text text-anchor="middle" x="170" y="-906.4" font-family="Times New Roman,serif" font-size="14.00">[270]</text>
</g>
<!-- 273 -->
<g id="node7" class="node">
<title>273</title>
<polygon fill="yellow" stroke="black" points="288.62,-795.2 154.12,-795.2 154.12,-759.2 288.62,-759.2 288.62,-795.2"/>
<text text-anchor="middle" x="221.38" y="-772.15" font-family="Times New Roman,serif" font-size="14.00">x = indices.indices[0]</text>
<text text-anchor="middle" x="139.5" y="-798.4" font-family="Times New Roman,serif" font-size="14.00">[273]</text>
</g>
<!-- 270&#45;&gt;273 -->
<g id="edge36" class="edge">
<title>270&#45;&gt;273</title>
<path fill="none" stroke="black" d="M230.61,-867.17C228.93,-850.96 226.36,-826.26 224.36,-806.99"/>
<polygon fill="black" stroke="black" points="227.84,-806.63 223.33,-797.05 220.88,-807.35 227.84,-806.63"/>
<text text-anchor="middle" x="269" y="-826.15" font-family="Times New Roman,serif" font-size="14.00">graphAnd#349</text>
</g>
<!-- 276 -->
<g id="node8" class="node">
<title>276</title>
<polygon fill="yellow" stroke="black" points="285.12,-652.7 135.62,-652.7 135.62,-616.7 285.12,-616.7 285.12,-652.7"/>
<text text-anchor="middle" x="210.38" y="-629.65" font-family="Times New Roman,serif" font-size="14.00">result = self.elements[x]</text>
<text text-anchor="middle" x="121" y="-655.9" font-family="Times New Roman,serif" font-size="14.00">[276]</text>
</g>
<!-- 273&#45;&gt;276 -->
<g id="edge24" class="edge">
<title>273&#45;&gt;276</title>
<path fill="none" stroke="black" d="M220.03,-758.97C218.18,-735.38 214.84,-692.7 212.61,-664.28"/>
<polygon fill="black" stroke="black" points="216.12,-664.27 211.85,-654.58 209.14,-664.82 216.12,-664.27"/>
<text text-anchor="middle" x="259.09" y="-727.9" font-family="Times New Roman,serif" font-size="14.00">graphAnd#313</text>
</g>
<!-- 313 -->
<g id="node22" class="node">
<title>313</title>
<polygon fill="aquamarine" stroke="black" points="318.38,-167 311.18,-159.8 318.38,-152.6 325.57,-159.8 318.38,-167"/>
<text text-anchor="middle" x="292.8" y="-170.2" font-family="Times New Roman,serif" font-size="14.00">&lt;313&gt;</text>
</g>
<!-- 276&#45;&gt;313 -->
<g id="edge40" class="edge">
<title>276&#45;&gt;313</title>
<path fill="none" stroke="black" d="M196.02,-616.48C182.2,-598.12 163.38,-567.58 163.38,-537.45 163.38,-537.45 163.38,-537.45 163.38,-247.3 163.38,-185.01 260.02,-167.16 300.68,-162.4"/>
<polygon fill="black" stroke="black" points="301,-165.89 310.6,-161.4 300.3,-158.92 301,-165.89"/>
<text text-anchor="middle" x="197.5" y="-420.25" font-family="Times New Roman,serif" font-size="14.00">merge1#354</text>
</g>
<!-- 279 -->
<g id="node9" class="node">
<title>279</title>
<polygon fill="yellow" stroke="black" points="404.25,-903.2 300.5,-903.2 300.5,-867.2 404.25,-867.2 404.25,-903.2"/>
<text text-anchor="middle" x="352.38" y="-880.15" font-family="Times New Roman,serif" font-size="14.00">dimension &lt;&gt; 1</text>
<text text-anchor="middle" x="285.88" y="-906.4" font-family="Times New Roman,serif" font-size="14.00">[279]</text>
</g>
<!-- 282 -->
<g id="node10" class="node">
<title>282</title>
<polygon fill="yellow" stroke="black" points="403.75,-795.2 309,-795.2 309,-759.2 403.75,-759.2 403.75,-795.2"/>
<text text-anchor="middle" x="356.38" y="-772.15" font-family="Times New Roman,serif" font-size="14.00">x = IterateExp</text>
<text text-anchor="middle" x="294.38" y="-798.4" font-family="Times New Roman,serif" font-size="14.00">[282]</text>
</g>
<!-- 279&#45;&gt;282 -->
<g id="edge37" class="edge">
<title>279&#45;&gt;282</title>
<path fill="none" stroke="black" d="M353.02,-867.17C353.63,-850.96 354.56,-826.26 355.29,-806.99"/>
<polygon fill="black" stroke="black" points="358.78,-807.18 355.66,-797.05 351.79,-806.91 358.78,-807.18"/>
<text text-anchor="middle" x="395.47" y="-826.15" font-family="Times New Roman,serif" font-size="14.00">graphAnd#350</text>
</g>
<!-- 288 -->
<g id="node12" class="node">
<title>288</title>
<polygon fill="yellow" stroke="black" points="509.38,-706.7 283.38,-706.7 283.38,-670.7 509.38,-670.7 509.38,-706.7"/>
<text text-anchor="middle" x="396.38" y="-683.65" font-family="Times New Roman,serif" font-size="14.00">indez = indices.indices[dimension &#45; 1]</text>
<text text-anchor="middle" x="268.75" y="-709.9" font-family="Times New Roman,serif" font-size="14.00">[288]</text>
</g>
<!-- 282&#45;&gt;288 -->
<g id="edge34" class="edge">
<title>282&#45;&gt;288</title>
<path fill="none" stroke="black" d="M364.28,-759.11C369.78,-747.22 377.23,-731.11 383.56,-717.4"/>
<polygon fill="black" stroke="black" points="386.7,-718.97 387.72,-708.42 380.34,-716.03 386.7,-718.97"/>
<text text-anchor="middle" x="420.46" y="-727.9" font-family="Times New Roman,serif" font-size="14.00">graphAnd#345</text>
</g>
<!-- 285 -->
<g id="node11" class="node">
<title>285</title>
<polygon fill="yellow" stroke="black" points="445,-598.7 375.75,-598.7 375.75,-562.7 445,-562.7 445,-598.7"/>
<text text-anchor="middle" x="410.38" y="-575.65" font-family="Times New Roman,serif" font-size="14.00">Index = 0</text>
<text text-anchor="middle" x="361.12" y="-601.9" font-family="Times New Roman,serif" font-size="14.00">[285]</text>
</g>
<!-- 305 -->
<g id="node18" class="node">
<title>305</title>
<polygon fill="aquamarine" stroke="black" points="416.38,-510.2 409.18,-503 416.38,-495.8 423.57,-503 416.38,-510.2"/>
<text text-anchor="middle" x="390.8" y="-513.4" font-family="Times New Roman,serif" font-size="14.00">&lt;305&gt;</text>
</g>
<!-- 285&#45;&gt;305 -->
<g id="edge33" class="edge">
<title>285&#45;&gt;305</title>
<path fill="none" stroke="black" d="M411.74,-562.52C412.7,-550.35 413.99,-534.06 414.97,-521.76"/>
<polygon fill="black" stroke="black" points="418.45,-522.11 415.75,-511.87 411.47,-521.56 418.45,-522.11"/>
<text text-anchor="middle" x="454.93" y="-531.4" font-family="Times New Roman,serif" font-size="14.00">graphAnd#344</text>
</g>
<!-- 288&#45;&gt;285 -->
<g id="edge25" class="edge">
<title>288&#45;&gt;285</title>
<path fill="none" stroke="black" d="M398.62,-670.67C400.78,-654.39 404.06,-629.52 406.61,-610.22"/>
<polygon fill="black" stroke="black" points="410.05,-610.91 407.89,-600.54 403.11,-610 410.05,-610.91"/>
<text text-anchor="middle" x="445.95" y="-629.65" font-family="Times New Roman,serif" font-size="14.00">graphAnd#322</text>
</g>
<!-- 291 -->
<g id="node13" class="node">
<title>291</title>
<polygon fill="yellow" stroke="black" points="406.88,-443.3 249.88,-443.3 249.88,-407.3 406.88,-407.3 406.88,-443.3"/>
<text text-anchor="middle" x="328.38" y="-420.25" font-family="Times New Roman,serif" font-size="14.00">Index &gt; 0 &#45; dimension &#45; 2</text>
<text text-anchor="middle" x="235.25" y="-446.5" font-family="Times New Roman,serif" font-size="14.00">[291]</text>
</g>
<!-- 307 -->
<g id="node19" class="node">
<title>307</title>
<polygon fill="yellow" stroke="black" points="348.38,-354.8 294.38,-354.8 294.38,-318.8 348.38,-318.8 348.38,-354.8"/>
<text text-anchor="middle" x="321.38" y="-331.75" font-family="Times New Roman,serif" font-size="14.00">indez</text>
<text text-anchor="middle" x="279.75" y="-358" font-family="Times New Roman,serif" font-size="14.00">[307]</text>
</g>
<!-- 291&#45;&gt;307 -->
<g id="edge31" class="edge">
<title>291&#45;&gt;307</title>
<path fill="none" stroke="black" d="M326.99,-407.21C326.05,-395.56 324.78,-379.85 323.68,-366.32"/>
<polygon fill="black" stroke="black" points="327.2,-366.34 322.9,-356.66 320.22,-366.91 327.2,-366.34"/>
<text text-anchor="middle" x="366" y="-376" font-family="Times New Roman,serif" font-size="14.00">graphAnd#342</text>
</g>
<!-- 294 -->
<g id="node14" class="node">
<title>294</title>
<polygon fill="yellow" stroke="black" points="645,-443.3 479.75,-443.3 479.75,-407.3 645,-407.3 645,-443.3"/>
<text text-anchor="middle" x="562.38" y="-420.25" font-family="Times New Roman,serif" font-size="14.00">Index &lt;= 0 &#45; dimension &#45; 2</text>
<text text-anchor="middle" x="465.12" y="-446.5" font-family="Times New Roman,serif" font-size="14.00">[294]</text>
</g>
<!-- 297 -->
<g id="node15" class="node">
<title>297</title>
<polygon fill="yellow" stroke="black" points="704.75,-354.8 514,-354.8 514,-318.8 704.75,-318.8 704.75,-354.8"/>
<text text-anchor="middle" x="609.38" y="-331.75" font-family="Times New Roman,serif" font-size="14.00">i = Sequence{dimension &#45; 2..0}</text>
<text text-anchor="middle" x="499.38" y="-358" font-family="Times New Roman,serif" font-size="14.00">[297]</text>
</g>
<!-- 294&#45;&gt;297 -->
<g id="edge26" class="edge">
<title>294&#45;&gt;297</title>
<path fill="none" stroke="black" d="M571.66,-407.21C578.18,-395.2 587.05,-378.89 594.54,-365.1"/>
<polygon fill="black" stroke="black" points="597.53,-366.94 599.23,-356.48 591.38,-363.6 597.53,-366.94"/>
<text text-anchor="middle" x="630.58" y="-376" font-family="Times New Roman,serif" font-size="14.00">graphAnd#333</text>
</g>
<!-- 300 -->
<g id="node16" class="node">
<title>300</title>
<polygon fill="yellow" stroke="black" points="696.62,-266.3 472.12,-266.3 472.12,-230.3 696.62,-230.3 696.62,-266.3"/>
<text text-anchor="middle" x="584.38" y="-243.25" font-family="Times New Roman,serif" font-size="14.00">indez + indices.indices[i] * IterateExp</text>
<text text-anchor="middle" x="457.5" y="-269.5" font-family="Times New Roman,serif" font-size="14.00">[300]</text>
</g>
<!-- 297&#45;&gt;300 -->
<g id="edge27" class="edge">
<title>297&#45;&gt;300</title>
<path fill="none" stroke="black" d="M604.44,-318.71C601.03,-306.94 596.44,-291.03 592.5,-277.41"/>
<polygon fill="black" stroke="black" points="595.95,-276.74 589.81,-268.1 589.22,-278.68 595.95,-276.74"/>
<text text-anchor="middle" x="639.61" y="-287.5" font-family="Times New Roman,serif" font-size="14.00">graphAnd#334</text>
</g>
<!-- 303 -->
<g id="node17" class="node">
<title>303</title>
<polygon fill="yellow" stroke="black" points="538.25,-177.8 422.5,-177.8 422.5,-141.8 538.25,-141.8 538.25,-177.8"/>
<text text-anchor="middle" x="480.38" y="-154.75" font-family="Times New Roman,serif" font-size="14.00">Index = Index + 1</text>
<text text-anchor="middle" x="407.88" y="-181" font-family="Times New Roman,serif" font-size="14.00">[303]</text>
</g>
<!-- 300&#45;&gt;303 -->
<g id="edge28" class="edge">
<title>300&#45;&gt;303</title>
<path fill="none" stroke="black" d="M563.83,-230.21C548.4,-217.38 527.06,-199.63 509.82,-185.29"/>
<polygon fill="black" stroke="black" points="512.33,-182.82 502.4,-179.12 507.85,-188.2 512.33,-182.82"/>
<text text-anchor="middle" x="582.19" y="-199" font-family="Times New Roman,serif" font-size="14.00">graphAnd#335</text>
</g>
<!-- 303&#45;&gt;305 -->
<g id="edge30" class="edge">
<title>303&#45;&gt;305</title>
<path fill="none" stroke="black" d="M465.14,-178C452.09,-194.55 435.38,-220.89 435.38,-247.3 435.38,-426.3 435.38,-426.3 435.38,-426.3 435.38,-447.9 428.01,-471.94 422.45,-487.02"/>
<polygon fill="black" stroke="black" points="419.36,-485.32 418.96,-495.91 425.87,-487.88 419.36,-485.32"/>
<text text-anchor="middle" x="465.75" y="-331.75" font-family="Times New Roman,serif" font-size="14.00">iterate#338</text>
</g>
<!-- 305&#45;&gt;291 -->
<g id="edge32" class="edge">
<title>305&#45;&gt;291</title>
<path fill="none" stroke="black" d="M409.75,-501.95C394.98,-501.47 359.17,-498.14 340.38,-477.8 334.62,-471.57 331.45,-463.12 329.76,-454.87"/>
<polygon fill="black" stroke="black" points="333.25,-454.53 328.43,-445.09 326.31,-455.47 333.25,-454.53"/>
<text text-anchor="middle" x="380.88" y="-464.5" font-family="Times New Roman,serif" font-size="14.00">graphAnd#343</text>
</g>
<!-- 305&#45;&gt;294 -->
<g id="edge29" class="edge">
<title>305&#45;&gt;294</title>
<path fill="none" stroke="black" d="M420.9,-499.65C435.6,-492.03 483.07,-467.42 519,-448.79"/>
<polygon fill="black" stroke="black" points="520.19,-452.12 527.45,-444.41 516.96,-445.9 520.19,-452.12"/>
<text text-anchor="middle" x="524.13" y="-464.5" font-family="Times New Roman,serif" font-size="14.00">iterate#337</text>
</g>
<!-- 310 -->
<g id="node20" class="node">
<title>310</title>
<polygon fill="yellow" stroke="black" points="407.75,-266.3 229,-266.3 229,-230.3 407.75,-230.3 407.75,-266.3"/>
<text text-anchor="middle" x="318.38" y="-243.25" font-family="Times New Roman,serif" font-size="14.00">result = elements.elements[x]</text>
<text text-anchor="middle" x="214.38" y="-269.5" font-family="Times New Roman,serif" font-size="14.00">[310]</text>
</g>
<!-- 307&#45;&gt;310 -->
<g id="edge35" class="edge">
<title>307&#45;&gt;310</title>
<path fill="none" stroke="black" d="M320.78,-318.71C320.38,-307.06 319.83,-291.35 319.36,-277.82"/>
<polygon fill="black" stroke="black" points="322.87,-278.04 319.03,-268.16 315.88,-278.28 322.87,-278.04"/>
<text text-anchor="middle" x="360.64" y="-287.5" font-family="Times New Roman,serif" font-size="14.00">graphAnd#348</text>
</g>
<!-- 310&#45;&gt;313 -->
<g id="edge41" class="edge">
<title>310&#45;&gt;313</title>
<path fill="none" stroke="black" d="M318.38,-230.21C318.38,-215.44 318.38,-194.13 318.38,-179.03"/>
<polygon fill="black" stroke="black" points="321.88,-179.19 318.38,-169.19 314.88,-179.19 321.88,-179.19"/>
<text text-anchor="middle" x="352.5" y="-199" font-family="Times New Roman,serif" font-size="14.00">merge2#355</text>
</g>
<!-- 312&#45;&gt;270 -->
<g id="edge38" class="edge">
<title>312&#45;&gt;270</title>
<path fill="none" stroke="black" d="M254.8,-957.91C252.04,-949.08 246.13,-930.19 241.07,-914.02"/>
<polygon fill="black" stroke="black" points="244.53,-913.36 238.21,-904.86 237.85,-915.45 244.53,-913.36"/>
<text text-anchor="middle" x="276.43" y="-924.4" font-family="Times New Roman,serif" font-size="14.00">split1#352</text>
</g>
<!-- 312&#45;&gt;279 -->
<g id="edge39" class="edge">
<title>312&#45;&gt;279</title>
<path fill="none" stroke="black" d="M261.45,-961.36C271.37,-958.07 293.75,-949.82 309.38,-937.7 318.43,-930.67 326.88,-921.44 333.85,-912.73"/>
<polygon fill="black" stroke="black" points="336.6,-914.9 339.87,-904.83 331.03,-910.66 336.6,-914.9"/>
<text text-anchor="middle" x="355.15" y="-924.4" font-family="Times New Roman,serif" font-size="14.00">split2#353</text>
</g>
<!-- 315 -->
<g id="node24" class="node">
<title>315</title>
<polygon fill="aquamarine" stroke="black" points="607.38,-89.3 600.17,-82.1 607.38,-74.9 614.58,-82.1 607.38,-89.3"/>
<text text-anchor="middle" x="581.8" y="-92.5" font-family="Times New Roman,serif" font-size="14.00">&lt;315&gt;</text>
</g>
<!-- 313&#45;&gt;315 -->
<g id="edge47" class="edge">
<title>313&#45;&gt;315</title>
<path fill="none" stroke="black" d="M323.64,-157.42C356.71,-148.76 536.25,-101.73 591.31,-87.31"/>
<polygon fill="black" stroke="black" points="591.99,-90.75 600.78,-84.83 590.22,-83.98 591.99,-90.75"/>
<text text-anchor="middle" x="548.02" y="-110.5" font-family="Times New Roman,serif" font-size="14.00">merge1#362</text>
</g>
<!-- 314 -->
<g id="node23" class="node">
<title>314</title>
<polygon fill="aquamarine" stroke="black" points="417.38,-1568 410.18,-1560.8 417.38,-1553.6 424.57,-1560.8 417.38,-1568"/>
<text text-anchor="middle" x="391.8" y="-1571.2" font-family="Times New Roman,serif" font-size="14.00">&lt;314&gt;</text>
</g>
<!-- 236 -->
<g id="node40" class="node">
<title>236</title>
<polygon fill="aquamarine" stroke="black" points="731.38,-1490.3 724.17,-1483.1 731.38,-1475.9 738.58,-1483.1 731.38,-1490.3"/>
<text text-anchor="middle" x="705.8" y="-1493.5" font-family="Times New Roman,serif" font-size="14.00">&lt;236&gt;</text>
</g>
<!-- 314&#45;&gt;236 -->
<g id="edge46" class="edge">
<title>314&#45;&gt;236</title>
<path fill="none" stroke="black" d="M422.83,-1558.49C458.33,-1549.93 657.15,-1502 715.36,-1487.96"/>
<polygon fill="black" stroke="black" points="715.89,-1491.43 724.79,-1485.69 714.25,-1484.63 715.89,-1491.43"/>
<text text-anchor="middle" x="612.29" y="-1522.3" font-family="Times New Roman,serif" font-size="14.00">split2#361</text>
</g>
<!-- 239 -->
<g id="node43" class="node">
<title>239</title>
<polygon fill="yellow" stroke="black" points="348.88,-1501.1 107.88,-1501.1 107.88,-1465.1 348.88,-1465.1 348.88,-1501.1"/>
<text text-anchor="middle" x="228.38" y="-1478.05" font-family="Times New Roman,serif" font-size="14.00">indices&#45;&gt;size() = dimensionSizes&#45;&gt;size()</text>
<text text-anchor="middle" x="93.25" y="-1504.3" font-family="Times New Roman,serif" font-size="14.00">[239]</text>
</g>
<!-- 314&#45;&gt;239 -->
<g id="edge45" class="edge">
<title>314&#45;&gt;239</title>
<path fill="none" stroke="black" d="M412.7,-1557.93C394.95,-1550.82 330.24,-1524.9 282.49,-1505.77"/>
<polygon fill="black" stroke="black" points="283.96,-1502.59 273.38,-1502.12 281.36,-1509.09 283.96,-1502.59"/>
<text text-anchor="middle" x="384.74" y="-1522.3" font-family="Times New Roman,serif" font-size="14.00">split1#360</text>
</g>
<!-- 202 -->
<g id="node26" class="node">
<title>202</title>
<ellipse fill="black" stroke="black" cx="607.38" cy="-11.2" rx="7.2" ry="7.2"/>
<ellipse fill="none" stroke="black" cx="607.38" cy="-11.2" rx="11.2" ry="11.2"/>
<text text-anchor="middle" x="586.05" y="-25.6" font-family="Times New Roman,serif" font-size="14.00">[&#45;1]</text>
</g>
<!-- 315&#45;&gt;202 -->
<g id="edge49" class="edge">
<title>315&#45;&gt;202</title>
<path fill="none" stroke="black" d="M607.38,-74.24C607.38,-64.87 607.38,-47.63 607.38,-33.7"/>
<polygon fill="black" stroke="black" points="610.88,-34.11 607.38,-24.11 603.88,-34.11 610.88,-34.11"/>
<text text-anchor="middle" x="656.5" y="-43.6" font-family="Times New Roman,serif" font-size="14.00">graphOr_end#364</text>
</g>
<!-- 201 -->
<g id="node25" class="node">
<title>201</title>
<polygon fill="yellow" stroke="black" points="804.12,-849.2 660.62,-849.2 660.62,-813.2 804.12,-813.2 804.12,-849.2"/>
<text text-anchor="middle" x="732.38" y="-826.15" font-family="Times New Roman,serif" font-size="14.00">exception=&quot;Exception&quot;</text>
<text text-anchor="middle" x="646" y="-852.4" font-family="Times New Roman,serif" font-size="14.00">[201]</text>
</g>
<!-- 201&#45;&gt;315 -->
<g id="edge48" class="edge">
<title>201&#45;&gt;315</title>
<path fill="none" stroke="black" d="M732.38,-812.81C732.38,-793.54 732.38,-761.52 732.38,-733.95 732.38,-733.95 732.38,-733.95 732.38,-158.8 732.38,-109.08 659.11,-91.12 624.76,-85.43"/>
<polygon fill="black" stroke="black" points="625.3,-81.97 614.9,-83.99 624.29,-88.9 625.3,-81.97"/>
<text text-anchor="middle" x="766.5" y="-464.5" font-family="Times New Roman,serif" font-size="14.00">merge2#363</text>
</g>
<!-- 204 -->
<g id="node27" class="node">
<title>204</title>
<polygon fill="yellow" stroke="black" points="856,-1358.6 606.75,-1358.6 606.75,-1322.6 856,-1322.6 856,-1358.6"/>
<text text-anchor="middle" x="731.38" y="-1335.55" font-family="Times New Roman,serif" font-size="14.00">indices&#45;&gt;size() &lt;&gt; dimensionSizes&#45;&gt;size()</text>
<text text-anchor="middle" x="592.12" y="-1361.8" font-family="Times New Roman,serif" font-size="14.00">[204]</text>
</g>
<!-- 237 -->
<g id="node41" class="node">
<title>237</title>
<polygon fill="aquamarine" stroke="black" points="732.38,-971.15 725.17,-963.95 732.38,-956.75 739.58,-963.95 732.38,-971.15"/>
<text text-anchor="middle" x="706.8" y="-974.35" font-family="Times New Roman,serif" font-size="14.00">&lt;237&gt;</text>
</g>
<!-- 204&#45;&gt;237 -->
<g id="edge11" class="edge">
<title>204&#45;&gt;237</title>
<path fill="none" stroke="black" d="M730.51,-1322.22C729.62,-1302.95 728.38,-1270.94 728.38,-1243.35 728.38,-1243.35 728.38,-1243.35 728.38,-1041.7 728.38,-1021.27 729.81,-997.82 730.96,-982.27"/>
<polygon fill="black" stroke="black" points="734.44,-982.67 731.73,-972.42 727.46,-982.12 734.44,-982.67"/>
<text text-anchor="middle" x="762.5" y="-1170.4" font-family="Times New Roman,serif" font-size="14.00">merge1#271</text>
</g>
<!-- 207 -->
<g id="node28" class="node">
<title>207</title>
<polygon fill="yellow" stroke="black" points="914,-1304.6 844.75,-1304.6 844.75,-1268.6 914,-1268.6 914,-1304.6"/>
<text text-anchor="middle" x="879.38" y="-1281.55" font-family="Times New Roman,serif" font-size="14.00">Index = 0</text>
<text text-anchor="middle" x="830.12" y="-1307.8" font-family="Times New Roman,serif" font-size="14.00">[207]</text>
</g>
<!-- 232 -->
<g id="node38" class="node">
<title>232</title>
<polygon fill="aquamarine" stroke="black" points="879.38,-1216.1 872.17,-1208.9 879.38,-1201.7 886.58,-1208.9 879.38,-1216.1"/>
<text text-anchor="middle" x="853.8" y="-1219.3" font-family="Times New Roman,serif" font-size="14.00">&lt;232&gt;</text>
</g>
<!-- 207&#45;&gt;232 -->
<g id="edge8" class="edge">
<title>207&#45;&gt;232</title>
<path fill="none" stroke="black" d="M879.38,-1268.42C879.38,-1256.38 879.38,-1240.3 879.38,-1228.05"/>
<polygon fill="black" stroke="black" points="882.88,-1228.14 879.38,-1218.14 875.88,-1228.14 882.88,-1228.14"/>
<text text-anchor="middle" x="919.88" y="-1237.3" font-family="Times New Roman,serif" font-size="14.00">graphAnd#267</text>
</g>
<!-- 210 -->
<g id="node29" class="node">
<title>210</title>
<polygon fill="yellow" stroke="black" points="904.5,-1412.6 820.25,-1412.6 820.25,-1376.6 904.5,-1376.6 904.5,-1412.6"/>
<text text-anchor="middle" x="862.38" y="-1389.55" font-family="Times New Roman,serif" font-size="14.00">check = true</text>
<text text-anchor="middle" x="805.62" y="-1415.8" font-family="Times New Roman,serif" font-size="14.00">[210]</text>
</g>
<!-- 210&#45;&gt;207 -->
<g id="edge50" class="edge">
<title>210&#45;&gt;207</title>
<path fill="none" stroke="black" d="M865.11,-1376.57C867.72,-1360.29 871.71,-1335.42 874.8,-1316.12"/>
<polygon fill="black" stroke="black" points="878.23,-1316.86 876.35,-1306.44 871.31,-1315.75 878.23,-1316.86"/>
<text text-anchor="middle" x="913.89" y="-1335.55" font-family="Times New Roman,serif" font-size="14.00">graphAnd#237</text>
</g>
<!-- 213 -->
<g id="node30" class="node">
<title>213</title>
<polygon fill="yellow" stroke="black" points="943.88,-1149.2 756.88,-1149.2 756.88,-1113.2 943.88,-1113.2 943.88,-1149.2"/>
<text text-anchor="middle" x="850.38" y="-1126.15" font-family="Times New Roman,serif" font-size="14.00">Index &gt; dimension@pre &#45; 1 &#45; 0</text>
<text text-anchor="middle" x="742.25" y="-1152.4" font-family="Times New Roman,serif" font-size="14.00">[213]</text>
</g>
<!-- 234 -->
<g id="node39" class="node">
<title>234</title>
<polygon fill="yellow" stroke="black" points="844.38,-1060.7 790.38,-1060.7 790.38,-1024.7 844.38,-1024.7 844.38,-1060.7"/>
<text text-anchor="middle" x="817.38" y="-1037.65" font-family="Times New Roman,serif" font-size="14.00">check</text>
<text text-anchor="middle" x="775.75" y="-1063.9" font-family="Times New Roman,serif" font-size="14.00">[234]</text>
</g>
<!-- 213&#45;&gt;234 -->
<g id="edge6" class="edge">
<title>213&#45;&gt;234</title>
<path fill="none" stroke="black" d="M843.86,-1113.11C839.32,-1101.22 833.17,-1085.11 827.94,-1071.4"/>
<polygon fill="black" stroke="black" points="831.37,-1070.56 824.53,-1062.46 824.83,-1073.06 831.37,-1070.56"/>
<text text-anchor="middle" x="877.33" y="-1081.9" font-family="Times New Roman,serif" font-size="14.00">graphAnd#265</text>
</g>
<!-- 216 -->
<g id="node31" class="node">
<title>216</title>
<polygon fill="yellow" stroke="black" points="1202,-1149.2 1006.75,-1149.2 1006.75,-1113.2 1202,-1113.2 1202,-1149.2"/>
<text text-anchor="middle" x="1104.38" y="-1126.15" font-family="Times New Roman,serif" font-size="14.00">Index &lt;= dimension@pre &#45; 1 &#45; 0</text>
<text text-anchor="middle" x="992.12" y="-1152.4" font-family="Times New Roman,serif" font-size="14.00">[216]</text>
</g>
<!-- 219 -->
<g id="node32" class="node">
<title>219</title>
<polygon fill="yellow" stroke="black" points="1275.75,-1060.7 1055,-1060.7 1055,-1024.7 1275.75,-1024.7 1275.75,-1060.7"/>
<text text-anchor="middle" x="1165.38" y="-1037.65" font-family="Times New Roman,serif" font-size="14.00">i = Sequence{0..dimension@pre &#45; 1}</text>
<text text-anchor="middle" x="1040.38" y="-1063.9" font-family="Times New Roman,serif" font-size="14.00">[219]</text>
</g>
<!-- 216&#45;&gt;219 -->
<g id="edge1" class="edge">
<title>216&#45;&gt;219</title>
<path fill="none" stroke="black" d="M1116.43,-1113.11C1125.06,-1100.87 1136.85,-1084.15 1146.7,-1070.19"/>
<polygon fill="black" stroke="black" points="1149.36,-1072.48 1152.27,-1062.29 1143.64,-1068.44 1149.36,-1072.48"/>
<text text-anchor="middle" x="1180.84" y="-1081.9" font-family="Times New Roman,serif" font-size="14.00">graphAnd#256</text>
</g>
<!-- 227 -->
<g id="node35" class="node">
<title>227</title>
<polygon fill="aquamarine" stroke="black" points="1220.38,-971.15 1213.17,-963.95 1220.38,-956.75 1227.58,-963.95 1220.38,-971.15"/>
<text text-anchor="middle" x="1194.8" y="-974.35" font-family="Times New Roman,serif" font-size="14.00">&lt;227&gt;</text>
</g>
<!-- 219&#45;&gt;227 -->
<g id="edge2" class="edge">
<title>219&#45;&gt;227</title>
<path fill="none" stroke="black" d="M1177.86,-1024.28C1187.95,-1010.19 1201.95,-990.66 1211.08,-977.91"/>
<polygon fill="black" stroke="black" points="1213.78,-980.17 1216.76,-970 1208.09,-976.09 1213.78,-980.17"/>
<text text-anchor="middle" x="1241.51" y="-993.4" font-family="Times New Roman,serif" font-size="14.00">graphAnd#257</text>
</g>
<!-- 222 -->
<g id="node33" class="node">
<title>222</title>
<polygon fill="yellow" stroke="black" points="1650.12,-903.2 1458.62,-903.2 1458.62,-867.2 1650.12,-867.2 1650.12,-903.2"/>
<text text-anchor="middle" x="1554.38" y="-880.15" font-family="Times New Roman,serif" font-size="14.00">indices@pre.indices[i@pre] &lt; 0</text>
<text text-anchor="middle" x="1444" y="-906.4" font-family="Times New Roman,serif" font-size="14.00">[222]</text>
</g>
<!-- 228 -->
<g id="node36" class="node">
<title>228</title>
<polygon fill="aquamarine" stroke="black" points="1220.38,-784.4 1213.17,-777.2 1220.38,-770 1227.58,-777.2 1220.38,-784.4"/>
<text text-anchor="middle" x="1194.8" y="-787.6" font-family="Times New Roman,serif" font-size="14.00">&lt;228&gt;</text>
</g>
<!-- 222&#45;&gt;228 -->
<g id="edge53" class="edge">
<title>222&#45;&gt;228</title>
<path fill="none" stroke="black" d="M1499.6,-866.81C1421.61,-842.06 1282.85,-798.03 1236.19,-783.22"/>
<polygon fill="black" stroke="black" points="1237.43,-779.94 1226.84,-780.25 1235.31,-786.61 1237.43,-779.94"/>
<text text-anchor="middle" x="1470.93" y="-826.15" font-family="Times New Roman,serif" font-size="14.00">merge1#251</text>
</g>
<!-- 225 -->
<g id="node34" class="node">
<title>225</title>
<polygon fill="yellow" stroke="black" points="1440.62,-903.2 1000.12,-903.2 1000.12,-867.2 1440.62,-867.2 1440.62,-903.2"/>
<text text-anchor="middle" x="1220.38" y="-880.15" font-family="Times New Roman,serif" font-size="14.00">indices@pre.indices[i@pre] &gt;= dimensionSizes@pre.dimensionSizes[i@pre]</text>
<text text-anchor="middle" x="985.5" y="-906.4" font-family="Times New Roman,serif" font-size="14.00">[225]</text>
</g>
<!-- 225&#45;&gt;228 -->
<g id="edge54" class="edge">
<title>225&#45;&gt;228</title>
<path fill="none" stroke="black" d="M1220.38,-867.17C1220.38,-847.68 1220.38,-815.89 1220.38,-796.06"/>
<polygon fill="black" stroke="black" points="1223.88,-796.28 1220.38,-786.28 1216.88,-796.28 1223.88,-796.28"/>
<text text-anchor="middle" x="1254.5" y="-826.15" font-family="Times New Roman,serif" font-size="14.00">merge2#252</text>
</g>
<!-- 227&#45;&gt;222 -->
<g id="edge51" class="edge">
<title>227&#45;&gt;222</title>
<path fill="none" stroke="black" d="M1225.89,-961.68C1253.59,-955.32 1379.57,-926.37 1467.2,-906.23"/>
<polygon fill="black" stroke="black" points="1467.78,-909.69 1476.75,-904.04 1466.22,-902.87 1467.78,-909.69"/>
<text text-anchor="middle" x="1425.89" y="-924.4" font-family="Times New Roman,serif" font-size="14.00">split1#249</text>
</g>
<!-- 227&#45;&gt;225 -->
<g id="edge52" class="edge">
<title>227&#45;&gt;225</title>
<path fill="none" stroke="black" d="M1220.38,-956.14C1220.38,-946.93 1220.38,-929.95 1220.38,-915.03"/>
<polygon fill="black" stroke="black" points="1223.88,-915.2 1220.38,-905.2 1216.88,-915.2 1223.88,-915.2"/>
<text text-anchor="middle" x="1248.88" y="-924.4" font-family="Times New Roman,serif" font-size="14.00">split2#250</text>
</g>
<!-- 230 -->
<g id="node37" class="node">
<title>230</title>
<polygon fill="yellow" stroke="black" points="1100.25,-706.7 984.5,-706.7 984.5,-670.7 1100.25,-670.7 1100.25,-706.7"/>
<text text-anchor="middle" x="1042.38" y="-683.65" font-family="Times New Roman,serif" font-size="14.00">Index = Index + 1</text>
<text text-anchor="middle" x="969.88" y="-709.9" font-family="Times New Roman,serif" font-size="14.00">[230]</text>
</g>
<!-- 228&#45;&gt;230 -->
<g id="edge3" class="edge">
<title>228&#45;&gt;230</title>
<path fill="none" stroke="black" d="M1215.97,-774.06C1198.64,-765.64 1133.81,-734.13 1088.48,-712.11"/>
<polygon fill="black" stroke="black" points="1090.16,-709.03 1079.64,-707.81 1087.1,-715.33 1090.16,-709.03"/>
<text text-anchor="middle" x="1187.82" y="-727.9" font-family="Times New Roman,serif" font-size="14.00">graphAnd#258</text>
</g>
<!-- 230&#45;&gt;232 -->
<g id="edge5" class="edge">
<title>230&#45;&gt;232</title>
<path fill="none" stroke="black" d="M1016.31,-707C996.41,-722.51 972.38,-747.22 972.38,-776.2 972.38,-1132.2 972.38,-1132.2 972.38,-1132.2 972.38,-1156.3 972.51,-1166.75 955.38,-1183.7 939.76,-1199.15 914.33,-1204.74 897.23,-1206.76"/>
<polygon fill="black" stroke="black" points="897.04,-1203.27 887.38,-1207.6 897.64,-1210.24 897.04,-1203.27"/>
<text text-anchor="middle" x="1002.75" y="-958.9" font-family="Times New Roman,serif" font-size="14.00">iterate#261</text>
</g>
<!-- 232&#45;&gt;213 -->
<g id="edge7" class="edge">
<title>232&#45;&gt;213</title>
<path fill="none" stroke="black" d="M877.47,-1202.93C874.16,-1194.27 867.09,-1175.82 861,-1159.93"/>
<polygon fill="black" stroke="black" points="864.39,-1159 857.54,-1150.91 857.85,-1161.5 864.39,-1159"/>
<text text-anchor="middle" x="910.49" y="-1170.4" font-family="Times New Roman,serif" font-size="14.00">graphAnd#266</text>
</g>
<!-- 232&#45;&gt;216 -->
<g id="edge4" class="edge">
<title>232&#45;&gt;216</title>
<path fill="none" stroke="black" d="M885.28,-1206.97C901.62,-1204.31 948.73,-1196.05 986.38,-1183.7 1010.92,-1175.65 1037.36,-1164.37 1058.97,-1154.42"/>
<polygon fill="black" stroke="black" points="1060.22,-1157.7 1067.8,-1150.3 1057.26,-1151.36 1060.22,-1157.7"/>
<text text-anchor="middle" x="1059.76" y="-1170.4" font-family="Times New Roman,serif" font-size="14.00">iterate#260</text>
</g>
<!-- 234&#45;&gt;237 -->
<g id="edge12" class="edge">
<title>234&#45;&gt;237</title>
<path fill="none" stroke="black" d="M798.09,-1024.28C781.53,-1009.34 758.2,-988.27 744.25,-975.67"/>
<polygon fill="black" stroke="black" points="746.88,-973.33 737.11,-969.22 742.18,-978.52 746.88,-973.33"/>
<text text-anchor="middle" x="811.55" y="-993.4" font-family="Times New Roman,serif" font-size="14.00">merge2#272</text>
</g>
<!-- 236&#45;&gt;204 -->
<g id="edge9" class="edge">
<title>236&#45;&gt;204</title>
<path fill="none" stroke="black" d="M731.38,-1475.32C731.38,-1456.67 731.38,-1403.76 731.38,-1370.36"/>
<polygon fill="black" stroke="black" points="734.88,-1370.55 731.38,-1360.55 727.88,-1370.55 734.88,-1370.55"/>
<text text-anchor="middle" x="759.88" y="-1433.8" font-family="Times New Roman,serif" font-size="14.00">split1#269</text>
</g>
<!-- 236&#45;&gt;210 -->
<g id="edge10" class="edge">
<title>236&#45;&gt;210</title>
<path fill="none" stroke="black" d="M735.61,-1479.88C745.68,-1474.57 771.71,-1460.57 792.38,-1447.1 805.34,-1438.65 819.15,-1428.7 831.06,-1419.82"/>
<polygon fill="black" stroke="black" points="833.05,-1422.69 838.93,-1413.88 828.84,-1417.1 833.05,-1422.69"/>
<text text-anchor="middle" x="844.49" y="-1433.8" font-family="Times New Roman,serif" font-size="14.00">split2#270</text>
</g>
<!-- 237&#45;&gt;201 -->
<g id="edge42" class="edge">
<title>237&#45;&gt;201</title>
<path fill="none" stroke="black" d="M732.38,-956.29C732.38,-939.01 732.38,-891.98 732.38,-861.04"/>
<polygon fill="black" stroke="black" points="735.88,-861.19 732.38,-851.19 728.88,-861.19 735.88,-861.19"/>
<text text-anchor="middle" x="772.88" y="-924.4" font-family="Times New Roman,serif" font-size="14.00">graphAnd#357</text>
</g>
<!-- 238 -->
<g id="node42" class="node">
<title>238</title>
<ellipse fill="black" stroke="black" cx="417.38" cy="-1627.7" rx="7.2" ry="7.2"/>
<text text-anchor="middle" x="402.3" y="-1638.1" font-family="Times New Roman,serif" font-size="14.00">[0]</text>
</g>
<!-- 238&#45;&gt;314 -->
<g id="edge44" class="edge">
<title>238&#45;&gt;314</title>
<path fill="none" stroke="black" d="M417.38,-1620.24C417.38,-1610.91 417.38,-1593.31 417.38,-1579.85"/>
<polygon fill="black" stroke="black" points="420.88,-1580.14 417.38,-1570.14 413.88,-1580.14 420.88,-1580.14"/>
<text text-anchor="middle" x="468.38" y="-1589.2" font-family="Times New Roman,serif" font-size="14.00">graphOr_start#359</text>
</g>
<!-- 245 -->
<g id="node45" class="node">
<title>245</title>
<polygon fill="yellow" stroke="black" points="113.5,-1412.6 29.25,-1412.6 29.25,-1376.6 113.5,-1376.6 113.5,-1412.6"/>
<text text-anchor="middle" x="71.38" y="-1389.55" font-family="Times New Roman,serif" font-size="14.00">check = true</text>
<text text-anchor="middle" x="14.62" y="-1415.8" font-family="Times New Roman,serif" font-size="14.00">[245]</text>
</g>
<!-- 239&#45;&gt;245 -->
<g id="edge23" class="edge">
<title>239&#45;&gt;245</title>
<path fill="none" stroke="black" d="M196.98,-1464.8C172.89,-1451.53 139.4,-1433.08 113.06,-1418.56"/>
<polygon fill="black" stroke="black" points="114.76,-1415.51 104.31,-1413.75 111.38,-1421.64 114.76,-1415.51"/>
<text text-anchor="middle" x="204.44" y="-1433.8" font-family="Times New Roman,serif" font-size="14.00">graphAnd#306</text>
</g>
<!-- 242 -->
<g id="node44" class="node">
<title>242</title>
<polygon fill="yellow" stroke="black" points="217,-1304.6 147.75,-1304.6 147.75,-1268.6 217,-1268.6 217,-1304.6"/>
<text text-anchor="middle" x="182.38" y="-1281.55" font-family="Times New Roman,serif" font-size="14.00">Index = 0</text>
<text text-anchor="middle" x="133.12" y="-1307.8" font-family="Times New Roman,serif" font-size="14.00">[242]</text>
</g>
<!-- 242&#45;&gt;265 -->
<g id="edge22" class="edge">
<title>242&#45;&gt;265</title>
<path fill="none" stroke="black" d="M194.86,-1268.1C203.65,-1256.95 216.31,-1242.97 230.38,-1234.1 249.08,-1222.31 273.99,-1215.86 290.34,-1212.64"/>
<polygon fill="black" stroke="black" points="290.6,-1216.15 299.85,-1210.98 289.39,-1209.26 290.6,-1216.15"/>
<text text-anchor="middle" x="270.88" y="-1237.3" font-family="Times New Roman,serif" font-size="14.00">graphAnd#305</text>
</g>
<!-- 245&#45;&gt;242 -->
<g id="edge13" class="edge">
<title>245&#45;&gt;242</title>
<path fill="none" stroke="black" d="M89.21,-1376.57C107.31,-1359.29 135.52,-1332.34 156.16,-1312.63"/>
<polygon fill="black" stroke="black" points="158.31,-1315.42 163.12,-1305.99 153.47,-1310.36 158.31,-1315.42"/>
<text text-anchor="middle" x="183.8" y="-1335.55" font-family="Times New Roman,serif" font-size="14.00">graphAnd#280</text>
</g>
<!-- 248&#45;&gt;267 -->
<g id="edge20" class="edge">
<title>248&#45;&gt;267</title>
<path fill="none" stroke="black" d="M256.38,-1113.11C256.38,-1101.46 256.38,-1085.75 256.38,-1072.22"/>
<polygon fill="black" stroke="black" points="259.88,-1072.56 256.38,-1062.56 252.88,-1072.56 259.88,-1072.56"/>
<text text-anchor="middle" x="296.88" y="-1081.9" font-family="Times New Roman,serif" font-size="14.00">graphAnd#303</text>
</g>
<!-- 254 -->
<g id="node48" class="node">
<title>254</title>
<polygon fill="yellow" stroke="black" points="638.75,-1060.7 418,-1060.7 418,-1024.7 638.75,-1024.7 638.75,-1060.7"/>
<text text-anchor="middle" x="528.38" y="-1037.65" font-family="Times New Roman,serif" font-size="14.00">i = Sequence{0..dimension@pre &#45; 1}</text>
<text text-anchor="middle" x="403.38" y="-1063.9" font-family="Times New Roman,serif" font-size="14.00">[254]</text>
</g>
<!-- 251&#45;&gt;254 -->
<g id="edge15" class="edge">
<title>251&#45;&gt;254</title>
<path fill="none" stroke="black" d="M474.61,-1112.95C480.39,-1102.68 488.26,-1089.57 496.38,-1078.7 498.71,-1075.57 501.28,-1072.4 503.92,-1069.31"/>
<polygon fill="black" stroke="black" points="506.34,-1071.84 510.38,-1062.05 501.11,-1067.19 506.34,-1071.84"/>
<text text-anchor="middle" x="536.88" y="-1081.9" font-family="Times New Roman,serif" font-size="14.00">graphAnd#294</text>
</g>
<!-- 254&#45;&gt;257 -->
<g id="edge16" class="edge">
<title>254&#45;&gt;257</title>
<path fill="none" stroke="black" d="M559.49,-1061.04C566.19,-1065.99 572.66,-1071.92 577.38,-1078.7 590.92,-1098.17 591.38,-1106.48 591.38,-1130.2 591.38,-1395.6 591.38,-1395.6 591.38,-1395.6 591.38,-1420.5 573.63,-1442.26 556,-1457.72"/>
<polygon fill="black" stroke="black" points="554.09,-1454.76 548.61,-1463.83 558.55,-1460.16 554.09,-1454.76"/>
<text text-anchor="middle" x="631.88" y="-1237.3" font-family="Times New Roman,serif" font-size="14.00">graphAnd#295</text>
</g>
</g>
</svg>
