<?xml version="1.0" encoding="UTF-8" standalone="no"?>
<!DOCTYPE svg PUBLIC "-//W3C//DTD SVG 1.1//EN"
 "http://www.w3.org/Graphics/SVG/1.1/DTD/svg11.dtd">
<!-- Generated by graphviz version 12.2.1 (20241206.2353)
 -->
<!-- Title: CLG Pages: 1 -->
<svg width="1353pt" height="1358pt"
 viewBox="0.00 0.00 1352.62 1357.80" xmlns="http://www.w3.org/2000/svg" xmlns:xlink="http://www.w3.org/1999/xlink">
<g id="graph0" class="graph" transform="scale(1 1) rotate(0) translate(4 1353.8)">
<title>CLG</title>
<polygon fill="white" stroke="none" points="-4,4 -4,-1353.8 1348.62,-1353.8 1348.62,4 -4,4"/>
<!-- 64 -->
<g id="node1" class="node">
<title>64</title>
<polygon fill="yellow" stroke="black" points="534.5,-1271.15 395.5,-1271.15 395.5,-1235.15 534.5,-1235.15 534.5,-1271.15"/>
<text text-anchor="middle" x="465" y="-1248.1" font-family="Times New Roman,serif" font-size="14.00">it2 = Sequence{1..d2}</text>
<text text-anchor="middle" x="384.25" y="-1274.35" font-family="Times New Roman,serif" font-size="14.00">[64]</text>
</g>
<!-- 70 -->
<g id="node3" class="node">
<title>70</title>
<polygon fill="yellow" stroke="black" points="458.75,-1171.9 381.25,-1171.9 381.25,-1135.9 458.75,-1135.9 458.75,-1171.9"/>
<text text-anchor="middle" x="420" y="-1148.85" font-family="Times New Roman,serif" font-size="14.00">acc3 = true</text>
<text text-anchor="middle" x="370" y="-1175.1" font-family="Times New Roman,serif" font-size="14.00">[70]</text>
</g>
<!-- 64&#45;&gt;70 -->
<g id="edge9" class="edge">
<title>64&#45;&gt;70</title>
<path fill="none" stroke="black" d="M442.3,-1235.02C433.89,-1227.3 425.31,-1217.43 420.75,-1206.4 417.84,-1199.35 416.78,-1191.28 416.67,-1183.65"/>
<polygon fill="black" stroke="black" points="420.17,-1183.89 417.08,-1173.75 413.17,-1183.6 420.17,-1183.89"/>
<text text-anchor="middle" x="457.88" y="-1193.1" font-family="Times New Roman,serif" font-size="14.00">graphAnd#76</text>
</g>
<!-- 67 -->
<g id="node2" class="node">
<title>67</title>
<polygon fill="yellow" stroke="black" points="451.25,-1064.4 388.75,-1064.4 388.75,-1028.4 451.25,-1028.4 451.25,-1064.4"/>
<text text-anchor="middle" x="420" y="-1041.35" font-family="Times New Roman,serif" font-size="14.00">idx2 = 1</text>
<text text-anchor="middle" x="377.5" y="-1067.6" font-family="Times New Roman,serif" font-size="14.00">[67]</text>
</g>
<!-- 87 -->
<g id="node13" class="node">
<title>87</title>
<polygon fill="aquamarine" stroke="black" points="309,-927.1 301.8,-919.9 309,-912.7 316.2,-919.9 309,-927.1"/>
<text text-anchor="middle" x="286.8" y="-930.3" font-family="Times New Roman,serif" font-size="14.00">&lt;87&gt;</text>
</g>
<!-- 67&#45;&gt;87 -->
<g id="edge7" class="edge">
<title>67&#45;&gt;87</title>
<path fill="none" stroke="black" d="M404.57,-1028.09C381.73,-1002.48 339.53,-955.14 319.75,-932.96"/>
<polygon fill="black" stroke="black" points="322.48,-930.76 313.22,-925.63 317.26,-935.42 322.48,-930.76"/>
<text text-anchor="middle" x="408.27" y="-978.1" font-family="Times New Roman,serif" font-size="14.00">graphAnd#72</text>
</g>
<!-- 70&#45;&gt;67 -->
<g id="edge37" class="edge">
<title>70&#45;&gt;67</title>
<path fill="none" stroke="black" d="M420,-1135.48C420,-1119.37 420,-1095.12 420,-1076.14"/>
<polygon fill="black" stroke="black" points="423.5,-1076.36 420,-1066.36 416.5,-1076.36 423.5,-1076.36"/>
<text text-anchor="middle" x="457.12" y="-1104.6" font-family="Times New Roman,serif" font-size="14.00">graphAnd#53</text>
</g>
<!-- 73 -->
<g id="node4" class="node">
<title>73</title>
<polygon fill="yellow" stroke="black" points="457.38,-810.9 350.62,-810.9 350.62,-774.9 457.38,-774.9 457.38,-810.9"/>
<text text-anchor="middle" x="404" y="-787.85" font-family="Times New Roman,serif" font-size="14.00">idx2 &gt; d3 &#45; 1+ 1</text>
<text text-anchor="middle" x="339.38" y="-814.1" font-family="Times New Roman,serif" font-size="14.00">[73]</text>
</g>
<!-- 89 -->
<g id="node15" class="node">
<title>89</title>
<polygon fill="yellow" stroke="black" points="469.12,-722.4 366.88,-722.4 366.88,-686.4 469.12,-686.4 469.12,-722.4"/>
<text text-anchor="middle" x="418" y="-699.35" font-family="Times New Roman,serif" font-size="14.00">idx1 = idx1 + 1</text>
<text text-anchor="middle" x="355.62" y="-725.6" font-family="Times New Roman,serif" font-size="14.00">[89]</text>
</g>
<!-- 73&#45;&gt;89 -->
<g id="edge10" class="edge">
<title>73&#45;&gt;89</title>
<path fill="none" stroke="black" d="M406.77,-774.81C408.65,-763.16 411.19,-747.45 413.38,-733.92"/>
<polygon fill="black" stroke="black" points="416.81,-734.68 414.95,-724.24 409.9,-733.56 416.81,-734.68"/>
<text text-anchor="middle" x="449.38" y="-743.6" font-family="Times New Roman,serif" font-size="14.00">graphAnd#77</text>
</g>
<!-- 76 -->
<g id="node5" class="node">
<title>76</title>
<polygon fill="yellow" stroke="black" points="299.5,-810.9 184.5,-810.9 184.5,-774.9 299.5,-774.9 299.5,-810.9"/>
<text text-anchor="middle" x="242" y="-787.85" font-family="Times New Roman,serif" font-size="14.00">idx2 &lt;= d3 &#45; 1+ 1</text>
<text text-anchor="middle" x="173.25" y="-814.1" font-family="Times New Roman,serif" font-size="14.00">[76]</text>
</g>
<!-- 79 -->
<g id="node6" class="node">
<title>79</title>
<polygon fill="yellow" stroke="black" points="302.5,-722.4 163.5,-722.4 163.5,-686.4 302.5,-686.4 302.5,-722.4"/>
<text text-anchor="middle" x="233" y="-699.35" font-family="Times New Roman,serif" font-size="14.00">it3 = Sequence{1..d3}</text>
<text text-anchor="middle" x="152.25" y="-725.6" font-family="Times New Roman,serif" font-size="14.00">[79]</text>
</g>
<!-- 76&#45;&gt;79 -->
<g id="edge1" class="edge">
<title>76&#45;&gt;79</title>
<path fill="none" stroke="black" d="M240.22,-774.81C239.01,-763.16 237.37,-747.45 235.97,-733.92"/>
<polygon fill="black" stroke="black" points="239.48,-733.84 234.96,-724.26 232.52,-734.56 239.48,-733.84"/>
<text text-anchor="middle" x="275.43" y="-743.6" font-family="Times New Roman,serif" font-size="14.00">graphAnd#64</text>
</g>
<!-- 82 -->
<g id="node9" class="node">
<title>82</title>
<polygon fill="yellow" stroke="black" points="410,-633.9 28,-633.9 28,-597.9 410,-597.9 410,-633.9"/>
<text text-anchor="middle" x="219" y="-610.85" font-family="Times New Roman,serif" font-size="14.00">result.data[it][it2][it3] = self.data[it][it2][it3] + arg.data[it][it2][it3]</text>
<text text-anchor="middle" x="16.75" y="-637.1" font-family="Times New Roman,serif" font-size="14.00">[82]</text>
</g>
<!-- 79&#45;&gt;82 -->
<g id="edge2" class="edge">
<title>79&#45;&gt;82</title>
<path fill="none" stroke="black" d="M230.23,-686.31C228.35,-674.66 225.81,-658.95 223.62,-645.42"/>
<polygon fill="black" stroke="black" points="227.1,-645.06 222.05,-635.74 220.19,-646.18 227.1,-645.06"/>
<text text-anchor="middle" x="264.38" y="-655.1" font-family="Times New Roman,serif" font-size="14.00">graphAnd#65</text>
</g>
<!-- 16 -->
<g id="node7" class="node">
<title>16</title>
<polygon fill="yellow" stroke="black" points="1008.75,-864.9 883.25,-864.9 883.25,-828.9 1008.75,-828.9 1008.75,-864.9"/>
<text text-anchor="middle" x="946" y="-841.85" font-family="Times New Roman,serif" font-size="14.00">Result = &#39;Exception&#39;</text>
<text text-anchor="middle" x="872" y="-868.1" font-family="Times New Roman,serif" font-size="14.00">[16]</text>
</g>
<!-- 100 -->
<g id="node25" class="node">
<title>100</title>
<polygon fill="aquamarine" stroke="black" points="834,-202.2 826.8,-195 834,-187.8 841.2,-195 834,-202.2"/>
<text text-anchor="middle" x="808.42" y="-205.4" font-family="Times New Roman,serif" font-size="14.00">&lt;100&gt;</text>
</g>
<!-- 16&#45;&gt;100 -->
<g id="edge33" class="edge">
<title>16&#45;&gt;100</title>
<path fill="none" stroke="black" d="M925.72,-828.59C907.3,-810.84 883,-781.4 883,-749.65 883,-749.65 883,-749.65 883,-282.5 883,-252.2 859.96,-222.78 845.48,-207.28"/>
<polygon fill="black" stroke="black" points="848.11,-204.97 838.59,-200.31 843.13,-209.89 848.11,-204.97"/>
<text text-anchor="middle" x="917.12" y="-522.35" font-family="Times New Roman,serif" font-size="14.00">merge2#105</text>
</g>
<!-- 17 -->
<g id="node8" class="node">
<title>17</title>
<ellipse fill="black" stroke="black" cx="834" cy="-106.5" rx="7.2" ry="7.2"/>
<ellipse fill="none" stroke="black" cx="834" cy="-106.5" rx="11.2" ry="11.2"/>
<text text-anchor="middle" x="812.67" y="-120.9" font-family="Times New Roman,serif" font-size="14.00">[&#45;1]</text>
</g>
<!-- 85 -->
<g id="node11" class="node">
<title>85</title>
<polygon fill="yellow" stroke="black" points="153.12,-545.4 50.88,-545.4 50.88,-509.4 153.12,-509.4 153.12,-545.4"/>
<text text-anchor="middle" x="102" y="-522.35" font-family="Times New Roman,serif" font-size="14.00">idx2 = idx2 + 1</text>
<text text-anchor="middle" x="39.62" y="-548.6" font-family="Times New Roman,serif" font-size="14.00">[85]</text>
</g>
<!-- 82&#45;&gt;85 -->
<g id="edge3" class="edge">
<title>82&#45;&gt;85</title>
<path fill="none" stroke="black" d="M195.6,-597.6C178.07,-584.64 153.85,-566.74 134.45,-552.39"/>
<polygon fill="black" stroke="black" points="136.69,-549.7 126.57,-546.57 132.53,-555.33 136.69,-549.7"/>
<text text-anchor="middle" x="208.1" y="-566.6" font-family="Times New Roman,serif" font-size="14.00">graphAnd#66</text>
</g>
<!-- 19 -->
<g id="node10" class="node">
<title>19</title>
<polygon fill="yellow" stroke="black" points="1344.62,-1083.4 951.38,-1083.4 951.38,-1009.4 1344.62,-1009.4 1344.62,-1083.4"/>
<text text-anchor="middle" x="1148" y="-1066.1" font-family="Times New Roman,serif" font-size="14.00">self.data.getDimension() &lt;&gt; arg.data.getDimension() or</text>
<text text-anchor="middle" x="1148" y="-1049.6" font-family="Times New Roman,serif" font-size="14.00">self.data.getDimensionSizes(1) &lt;&gt; arg.data.getDimensionSizes(1) or</text>
<text text-anchor="middle" x="1148" y="-1033.1" font-family="Times New Roman,serif" font-size="14.00">self.data.getDimensionSizes(2) &lt;&gt; arg.data.getDimensionSizes(2) or</text>
<text text-anchor="middle" x="1148" y="-1016.6" font-family="Times New Roman,serif" font-size="14.00">self.data.getDimensionSizes(3) &lt;&gt; arg.data.getDimensionSizes(3)</text>
<text text-anchor="middle" x="940.12" y="-1086.6" font-family="Times New Roman,serif" font-size="14.00">[19]</text>
</g>
<!-- 19&#45;&gt;16 -->
<g id="edge27" class="edge">
<title>19&#45;&gt;16</title>
<path fill="none" stroke="black" d="M1110.95,-1009.18C1070.56,-969.69 1007.01,-907.55 971.74,-873.07"/>
<polygon fill="black" stroke="black" points="974.51,-870.88 964.91,-866.39 969.61,-875.88 974.51,-870.88"/>
<text text-anchor="middle" x="1126.23" y="-978.1" font-family="Times New Roman,serif" font-size="14.00">graphAnd#97</text>
</g>
<!-- 85&#45;&gt;87 -->
<g id="edge5" class="edge">
<title>85&#45;&gt;87</title>
<path fill="none" stroke="black" d="M57.56,-545.86C30.07,-559.9 0,-582.63 0,-614.9 0,-793.9 0,-793.9 0,-793.9 0,-857.52 227.92,-904.06 292.27,-915.93"/>
<polygon fill="black" stroke="black" points="291.42,-919.34 301.88,-917.67 292.66,-912.45 291.42,-919.34"/>
<text text-anchor="middle" x="27" y="-699.35" font-family="Times New Roman,serif" font-size="14.00">iterate#69</text>
</g>
<!-- 22 -->
<g id="node12" class="node">
<title>22</title>
<polygon fill="yellow" stroke="black" points="933.62,-1083.4 540.38,-1083.4 540.38,-1009.4 933.62,-1009.4 933.62,-1083.4"/>
<text text-anchor="middle" x="737" y="-1066.1" font-family="Times New Roman,serif" font-size="14.00">self.data.getDimension() = arg.data.getDimension() and</text>
<text text-anchor="middle" x="737" y="-1049.6" font-family="Times New Roman,serif" font-size="14.00">self.data.getDimensionSizes(1) = arg.data.getDimensionSizes(1) and</text>
<text text-anchor="middle" x="737" y="-1033.1" font-family="Times New Roman,serif" font-size="14.00">self.data.getDimensionSizes(2) = arg.data.getDimensionSizes(2) and</text>
<text text-anchor="middle" x="737" y="-1016.6" font-family="Times New Roman,serif" font-size="14.00">self.data.getDimensionSizes(3) = arg.data.getDimensionSizes(3)</text>
<text text-anchor="middle" x="529.12" y="-1086.6" font-family="Times New Roman,serif" font-size="14.00">[22]</text>
</g>
<!-- 25 -->
<g id="node14" class="node">
<title>25</title>
<polygon fill="yellow" stroke="black" points="943,-956.9 537,-956.9 537,-882.9 943,-882.9 943,-956.9"/>
<text text-anchor="middle" x="740" y="-939.6" font-family="Times New Roman,serif" font-size="14.00">self.data.getDimension() = result.data.getDimension() and</text>
<text text-anchor="middle" x="740" y="-923.1" font-family="Times New Roman,serif" font-size="14.00">self.data.getDimensionSizes(1) = result.data.getDimensionSizes(1) and</text>
<text text-anchor="middle" x="740" y="-906.6" font-family="Times New Roman,serif" font-size="14.00">self.data.getDimensionSizes(2) = result.data.getDimensionSizes(2) and</text>
<text text-anchor="middle" x="740" y="-890.1" font-family="Times New Roman,serif" font-size="14.00">self.data.getDimensionSizes(3) = result.data.getDimensionSizes(3)</text>
<text text-anchor="middle" x="525.75" y="-960.1" font-family="Times New Roman,serif" font-size="14.00">[25]</text>
</g>
<!-- 22&#45;&gt;25 -->
<g id="edge28" class="edge">
<title>22&#45;&gt;25</title>
<path fill="none" stroke="black" d="M737.88,-1009.05C738.18,-996.4 738.53,-982 738.85,-968.57"/>
<polygon fill="black" stroke="black" points="742.35,-968.67 739.09,-958.59 735.35,-968.5 742.35,-968.67"/>
<text text-anchor="middle" x="775.8" y="-978.1" font-family="Times New Roman,serif" font-size="14.00">graphAnd#98</text>
</g>
<!-- 87&#45;&gt;73 -->
<g id="edge6" class="edge">
<title>87&#45;&gt;73</title>
<path fill="none" stroke="black" d="M311.95,-915.02C322.68,-900.91 360.26,-851.46 383.95,-820.28"/>
<polygon fill="black" stroke="black" points="386.64,-822.53 389.9,-812.45 381.06,-818.29 386.64,-822.53"/>
<text text-anchor="middle" x="413.05" y="-841.85" font-family="Times New Roman,serif" font-size="14.00">graphAnd#71</text>
</g>
<!-- 87&#45;&gt;76 -->
<g id="edge4" class="edge">
<title>87&#45;&gt;76</title>
<path fill="none" stroke="black" d="M306.62,-914.45C298.73,-899.75 273.08,-851.89 256.57,-821.08"/>
<polygon fill="black" stroke="black" points="259.67,-819.47 251.87,-812.31 253.5,-822.77 259.67,-819.47"/>
<text text-anchor="middle" x="306.51" y="-841.85" font-family="Times New Roman,serif" font-size="14.00">iterate#68</text>
</g>
<!-- 28 -->
<g id="node17" class="node">
<title>28</title>
<polygon fill="yellow" stroke="black" points="795.62,-810.9 582.38,-810.9 582.38,-774.9 795.62,-774.9 795.62,-810.9"/>
<text text-anchor="middle" x="689" y="-787.85" font-family="Times New Roman,serif" font-size="14.00">d1 = arg.data.getDimensionSizes(1)</text>
<text text-anchor="middle" x="571.12" y="-814.1" font-family="Times New Roman,serif" font-size="14.00">[28]</text>
</g>
<!-- 25&#45;&gt;28 -->
<g id="edge26" class="edge">
<title>25&#45;&gt;28</title>
<path fill="none" stroke="black" d="M725.11,-882.41C717.21,-863.05 707.66,-839.63 700.36,-821.75"/>
<polygon fill="black" stroke="black" points="703.63,-820.49 696.61,-812.56 697.15,-823.14 703.63,-820.49"/>
<text text-anchor="middle" x="754.68" y="-841.85" font-family="Times New Roman,serif" font-size="14.00">graphAnd#96</text>
</g>
<!-- 91 -->
<g id="node16" class="node">
<title>91</title>
<polygon fill="aquamarine" stroke="black" points="435,-623.1 427.8,-615.9 435,-608.7 442.2,-615.9 435,-623.1"/>
<text text-anchor="middle" x="442.8" y="-626.3" font-family="Times New Roman,serif" font-size="14.00">&lt;91&gt;</text>
</g>
<!-- 89&#45;&gt;91 -->
<g id="edge12" class="edge">
<title>89&#45;&gt;91</title>
<path fill="none" stroke="black" d="M421.36,-686.31C424.35,-671.08 428.71,-648.91 431.69,-633.75"/>
<polygon fill="black" stroke="black" points="435.1,-634.56 433.59,-624.07 428.23,-633.21 435.1,-634.56"/>
<text text-anchor="middle" x="455.02" y="-655.1" font-family="Times New Roman,serif" font-size="14.00">iterate#80</text>
</g>
<!-- 58 -->
<g id="node33" class="node">
<title>58</title>
<polygon fill="yellow" stroke="black" points="438.38,-545.4 331.62,-545.4 331.62,-509.4 438.38,-509.4 438.38,-545.4"/>
<text text-anchor="middle" x="385" y="-522.35" font-family="Times New Roman,serif" font-size="14.00">idx1 &gt; d2 &#45; 1+ 1</text>
<text text-anchor="middle" x="320.38" y="-548.6" font-family="Times New Roman,serif" font-size="14.00">[58]</text>
</g>
<!-- 91&#45;&gt;58 -->
<g id="edge13" class="edge">
<title>91&#45;&gt;58</title>
<path fill="none" stroke="black" d="M432.3,-610.89C429.46,-606.98 424.61,-601.15 419,-597.9 389.25,-580.66 365.05,-606.9 343.75,-579.9 336.92,-571.24 341.06,-561.82 348.88,-553.42"/>
<polygon fill="black" stroke="black" points="351.13,-556.1 356.15,-546.77 346.41,-550.94 351.13,-556.1"/>
<text text-anchor="middle" x="380.88" y="-566.6" font-family="Times New Roman,serif" font-size="14.00">graphAnd#82</text>
</g>
<!-- 61 -->
<g id="node34" class="node">
<title>61</title>
<polygon fill="yellow" stroke="black" points="571.5,-545.4 456.5,-545.4 456.5,-509.4 571.5,-509.4 571.5,-545.4"/>
<text text-anchor="middle" x="514" y="-522.35" font-family="Times New Roman,serif" font-size="14.00">idx1 &lt;= d2 &#45; 1+ 1</text>
<text text-anchor="middle" x="445.25" y="-548.6" font-family="Times New Roman,serif" font-size="14.00">[61]</text>
</g>
<!-- 91&#45;&gt;61 -->
<g id="edge11" class="edge">
<title>91&#45;&gt;61</title>
<path fill="none" stroke="black" d="M434.01,-609.17C432.57,-598.95 431.06,-577.32 441,-563.4 443.97,-559.23 447.58,-555.54 451.58,-552.28"/>
<polygon fill="black" stroke="black" points="453.42,-555.26 459.62,-546.66 449.42,-549.52 453.42,-555.26"/>
<text text-anchor="middle" x="468" y="-566.6" font-family="Times New Roman,serif" font-size="14.00">iterate#79</text>
</g>
<!-- 31 -->
<g id="node19" class="node">
<title>31</title>
<polygon fill="yellow" stroke="black" points="787.62,-722.4 574.38,-722.4 574.38,-686.4 787.62,-686.4 787.62,-722.4"/>
<text text-anchor="middle" x="681" y="-699.35" font-family="Times New Roman,serif" font-size="14.00">d2 = arg.data.getDimensionSizes(2)</text>
<text text-anchor="middle" x="563.12" y="-725.6" font-family="Times New Roman,serif" font-size="14.00">[31]</text>
</g>
<!-- 28&#45;&gt;31 -->
<g id="edge18" class="edge">
<title>28&#45;&gt;31</title>
<path fill="none" stroke="black" d="M687.42,-774.81C686.34,-763.16 684.89,-747.45 683.64,-733.92"/>
<polygon fill="black" stroke="black" points="687.15,-733.89 682.74,-724.26 680.18,-734.54 687.15,-733.89"/>
<text text-anchor="middle" x="722.84" y="-743.6" font-family="Times New Roman,serif" font-size="14.00">graphAnd#25</text>
</g>
<!-- 93 -->
<g id="node18" class="node">
<title>93</title>
<polygon fill="yellow" stroke="black" points="468.12,-456.9 365.88,-456.9 365.88,-420.9 468.12,-420.9 468.12,-456.9"/>
<text text-anchor="middle" x="417" y="-433.85" font-family="Times New Roman,serif" font-size="14.00">idx0 = idx0 + 1</text>
<text text-anchor="middle" x="354.62" y="-460.1" font-family="Times New Roman,serif" font-size="14.00">[93]</text>
</g>
<!-- 95 -->
<g id="node20" class="node">
<title>95</title>
<polygon fill="aquamarine" stroke="black" points="581,-368.4 573.8,-361.2 581,-354 588.2,-361.2 581,-368.4"/>
<text text-anchor="middle" x="558.8" y="-371.6" font-family="Times New Roman,serif" font-size="14.00">&lt;95&gt;</text>
</g>
<!-- 93&#45;&gt;95 -->
<g id="edge21" class="edge">
<title>93&#45;&gt;95</title>
<path fill="none" stroke="black" d="M454.62,-420.53C490.06,-404.18 541.31,-380.52 566.25,-369.01"/>
<polygon fill="black" stroke="black" points="567.69,-372.2 575.3,-364.83 564.75,-365.84 567.69,-372.2"/>
<text text-anchor="middle" x="554.95" y="-389.6" font-family="Times New Roman,serif" font-size="14.00">iterate#91</text>
</g>
<!-- 34 -->
<g id="node23" class="node">
<title>34</title>
<polygon fill="yellow" stroke="black" points="762.62,-633.9 549.38,-633.9 549.38,-597.9 762.62,-597.9 762.62,-633.9"/>
<text text-anchor="middle" x="656" y="-610.85" font-family="Times New Roman,serif" font-size="14.00">d3 = arg.data.getDimensionSizes(3)</text>
<text text-anchor="middle" x="538.12" y="-637.1" font-family="Times New Roman,serif" font-size="14.00">[34]</text>
</g>
<!-- 31&#45;&gt;34 -->
<g id="edge19" class="edge">
<title>31&#45;&gt;34</title>
<path fill="none" stroke="black" d="M676.06,-686.31C672.66,-674.54 668.06,-658.63 664.12,-645.01"/>
<polygon fill="black" stroke="black" points="667.57,-644.34 661.43,-635.7 660.85,-646.28 667.57,-644.34"/>
<text text-anchor="middle" x="707.86" y="-655.1" font-family="Times New Roman,serif" font-size="14.00">graphAnd#26</text>
</g>
<!-- 43 -->
<g id="node28" class="node">
<title>43</title>
<polygon fill="yellow" stroke="black" points="703.38,-301.5 596.62,-301.5 596.62,-265.5 703.38,-265.5 703.38,-301.5"/>
<text text-anchor="middle" x="650" y="-278.45" font-family="Times New Roman,serif" font-size="14.00">idx0 &gt; d1 &#45; 1+ 1</text>
<text text-anchor="middle" x="585.38" y="-304.7" font-family="Times New Roman,serif" font-size="14.00">[43]</text>
</g>
<!-- 95&#45;&gt;43 -->
<g id="edge22" class="edge">
<title>95&#45;&gt;43</title>
<path fill="none" stroke="black" d="M583.96,-356.95C591.28,-348.92 610.75,-327.56 626.67,-310.1"/>
<polygon fill="black" stroke="black" points="628.96,-312.78 633.11,-303.03 623.78,-308.07 628.96,-312.78"/>
<text text-anchor="middle" x="654.69" y="-322.7" font-family="Times New Roman,serif" font-size="14.00">graphAnd#93</text>
</g>
<!-- 46 -->
<g id="node29" class="node">
<title>46</title>
<polygon fill="yellow" stroke="black" points="550.5,-301.5 435.5,-301.5 435.5,-265.5 550.5,-265.5 550.5,-301.5"/>
<text text-anchor="middle" x="493" y="-278.45" font-family="Times New Roman,serif" font-size="14.00">idx0 &lt;= d1 &#45; 1+ 1</text>
<text text-anchor="middle" x="424.25" y="-304.7" font-family="Times New Roman,serif" font-size="14.00">[46]</text>
</g>
<!-- 95&#45;&gt;46 -->
<g id="edge20" class="edge">
<title>95&#45;&gt;46</title>
<path fill="none" stroke="black" d="M577.05,-357.88C570.23,-353.82 555.95,-344.97 545,-336 535.17,-327.95 525.08,-318.32 516.44,-309.59"/>
<polygon fill="black" stroke="black" points="519.18,-307.39 509.7,-302.65 514.16,-312.26 519.18,-307.39"/>
<text text-anchor="middle" x="572" y="-322.7" font-family="Times New Roman,serif" font-size="14.00">iterate#90</text>
</g>
<!-- 96 -->
<g id="node21" class="node">
<title>96</title>
<ellipse fill="black" stroke="black" cx="942" cy="-1326.1" rx="7.2" ry="7.2"/>
<text text-anchor="middle" x="926.92" y="-1336.5" font-family="Times New Roman,serif" font-size="14.00">[0]</text>
</g>
<!-- 97 -->
<g id="node22" class="node">
<title>97</title>
<polygon fill="yellow" stroke="black" points="1058,-1281.9 826,-1281.9 826,-1224.4 1058,-1224.4 1058,-1281.9"/>
<text text-anchor="middle" x="942" y="-1264.6" font-family="Times New Roman,serif" font-size="14.00">self.data.getDimensionSizes(1) &gt; 0 and</text>
<text text-anchor="middle" x="942" y="-1248.1" font-family="Times New Roman,serif" font-size="14.00">self.data.getDimensionSizes(2) &gt; 0 and</text>
<text text-anchor="middle" x="942" y="-1231.6" font-family="Times New Roman,serif" font-size="14.00">self.data.getDimensionSizes(3) &gt; 0</text>
<text text-anchor="middle" x="814.75" y="-1285.1" font-family="Times New Roman,serif" font-size="14.00">[97]</text>
</g>
<!-- 96&#45;&gt;97 -->
<g id="edge29" class="edge">
<title>96&#45;&gt;97</title>
<path fill="none" stroke="black" d="M942,-1318.55C942,-1312.63 942,-1303.39 942,-1293.74"/>
<polygon fill="black" stroke="black" points="945.5,-1293.91 942,-1283.91 938.5,-1293.91 945.5,-1293.91"/>
</g>
<!-- 99 -->
<g id="node24" class="node">
<title>99</title>
<polygon fill="aquamarine" stroke="black" points="942,-1161.1 934.8,-1153.9 942,-1146.7 949.2,-1153.9 942,-1161.1"/>
<text text-anchor="middle" x="919.8" y="-1164.3" font-family="Times New Roman,serif" font-size="14.00">&lt;99&gt;</text>
</g>
<!-- 97&#45;&gt;99 -->
<g id="edge36" class="edge">
<title>97&#45;&gt;99</title>
<path fill="none" stroke="black" d="M942,-1224.02C942,-1207.53 942,-1187.19 942,-1172.85"/>
<polygon fill="black" stroke="black" points="945.5,-1173.17 942,-1163.17 938.5,-1173.17 945.5,-1173.17"/>
<text text-anchor="middle" x="982.5" y="-1193.1" font-family="Times New Roman,serif" font-size="14.00">graphAnd#107</text>
</g>
<!-- 40 -->
<g id="node27" class="node">
<title>40</title>
<polygon fill="yellow" stroke="black" points="681.38,-545.4 610.62,-545.4 610.62,-509.4 681.38,-509.4 681.38,-545.4"/>
<text text-anchor="middle" x="646" y="-522.35" font-family="Times New Roman,serif" font-size="14.00">acc = true</text>
<text text-anchor="middle" x="599.38" y="-548.6" font-family="Times New Roman,serif" font-size="14.00">[40]</text>
</g>
<!-- 34&#45;&gt;40 -->
<g id="edge24" class="edge">
<title>34&#45;&gt;40</title>
<path fill="none" stroke="black" d="M654.02,-597.81C652.68,-586.16 650.86,-570.45 649.3,-556.92"/>
<polygon fill="black" stroke="black" points="652.8,-556.79 648.18,-547.25 645.85,-557.59 652.8,-556.79"/>
<text text-anchor="middle" x="689.02" y="-566.6" font-family="Times New Roman,serif" font-size="14.00">graphAnd#95</text>
</g>
<!-- 99&#45;&gt;19 -->
<g id="edge31" class="edge">
<title>99&#45;&gt;19</title>
<path fill="none" stroke="black" d="M946.3,-1150.7C962.01,-1142.65 1017.87,-1114.05 1066.83,-1088.97"/>
<polygon fill="black" stroke="black" points="1068.19,-1092.21 1075.49,-1084.53 1065,-1085.98 1068.19,-1092.21"/>
<text text-anchor="middle" x="1067.32" y="-1104.6" font-family="Times New Roman,serif" font-size="14.00">split2#103</text>
</g>
<!-- 99&#45;&gt;22 -->
<g id="edge30" class="edge">
<title>99&#45;&gt;22</title>
<path fill="none" stroke="black" d="M937.72,-1150.7C922.09,-1142.65 866.5,-1114.05 817.77,-1088.97"/>
<polygon fill="black" stroke="black" points="819.66,-1086 809.16,-1084.54 816.45,-1092.23 819.66,-1086"/>
<text text-anchor="middle" x="898.34" y="-1104.6" font-family="Times New Roman,serif" font-size="14.00">split1#102</text>
</g>
<!-- 100&#45;&gt;17 -->
<g id="edge35" class="edge">
<title>100&#45;&gt;17</title>
<path fill="none" stroke="black" d="M834,-187.21C834,-174.92 834,-148.49 834,-129.43"/>
<polygon fill="black" stroke="black" points="837.5,-129.44 834,-119.44 830.5,-129.44 837.5,-129.44"/>
<text text-anchor="middle" x="883.12" y="-145.7" font-family="Times New Roman,serif" font-size="14.00">graphOr_end#106</text>
</g>
<!-- 37 -->
<g id="node26" class="node">
<title>37</title>
<polygon fill="yellow" stroke="black" points="655.25,-456.9 592.75,-456.9 592.75,-420.9 655.25,-420.9 655.25,-456.9"/>
<text text-anchor="middle" x="624" y="-433.85" font-family="Times New Roman,serif" font-size="14.00">idx0 = 1</text>
<text text-anchor="middle" x="581.5" y="-460.1" font-family="Times New Roman,serif" font-size="14.00">[37]</text>
</g>
<!-- 37&#45;&gt;95 -->
<g id="edge23" class="edge">
<title>37&#45;&gt;95</title>
<path fill="none" stroke="black" d="M614.24,-420.72C606.66,-407.37 596.26,-389.06 589.12,-376.5"/>
<polygon fill="black" stroke="black" points="592.21,-374.84 584.22,-367.88 586.12,-378.3 592.21,-374.84"/>
<text text-anchor="middle" x="640.91" y="-389.6" font-family="Times New Roman,serif" font-size="14.00">graphAnd#94</text>
</g>
<!-- 40&#45;&gt;37 -->
<g id="edge25" class="edge">
<title>40&#45;&gt;37</title>
<path fill="none" stroke="black" d="M641.65,-509.31C638.66,-497.54 634.61,-481.63 631.15,-468.01"/>
<polygon fill="black" stroke="black" points="634.64,-467.55 628.79,-458.72 627.86,-469.27 634.64,-467.55"/>
<text text-anchor="middle" x="674.1" y="-478.1" font-family="Times New Roman,serif" font-size="14.00">graphAnd#31</text>
</g>
<!-- 43&#45;&gt;100 -->
<g id="edge32" class="edge">
<title>43&#45;&gt;100</title>
<path fill="none" stroke="black" d="M686.79,-265.2C727.35,-246.13 790.64,-216.39 819.17,-202.97"/>
<polygon fill="black" stroke="black" points="820.43,-206.25 827.99,-198.82 817.46,-199.91 820.43,-206.25"/>
<text text-anchor="middle" x="792.61" y="-234.2" font-family="Times New Roman,serif" font-size="14.00">merge1#104</text>
</g>
<!-- 49 -->
<g id="node30" class="node">
<title>49</title>
<polygon fill="yellow" stroke="black" points="525.12,-213 392.88,-213 392.88,-177 525.12,-177 525.12,-213"/>
<text text-anchor="middle" x="459" y="-189.95" font-family="Times New Roman,serif" font-size="14.00">it = Sequence{1..d1}</text>
<text text-anchor="middle" x="381.62" y="-216.2" font-family="Times New Roman,serif" font-size="14.00">[49]</text>
</g>
<!-- 46&#45;&gt;49 -->
<g id="edge15" class="edge">
<title>46&#45;&gt;49</title>
<path fill="none" stroke="black" d="M486.28,-265.41C481.61,-253.52 475.28,-237.41 469.89,-223.7"/>
<polygon fill="black" stroke="black" points="473.29,-222.79 466.37,-214.76 466.77,-225.35 473.29,-222.79"/>
<text text-anchor="middle" x="516.17" y="-234.2" font-family="Times New Roman,serif" font-size="14.00">graphAnd#86</text>
</g>
<!-- 55 -->
<g id="node32" class="node">
<title>55</title>
<polygon fill="yellow" stroke="black" points="422.75,-124.5 345.25,-124.5 345.25,-88.5 422.75,-88.5 422.75,-124.5"/>
<text text-anchor="middle" x="384" y="-101.45" font-family="Times New Roman,serif" font-size="14.00">acc2 = true</text>
<text text-anchor="middle" x="334" y="-127.7" font-family="Times New Roman,serif" font-size="14.00">[55]</text>
</g>
<!-- 49&#45;&gt;55 -->
<g id="edge16" class="edge">
<title>49&#45;&gt;55</title>
<path fill="none" stroke="black" d="M444.18,-176.91C433.36,-164.43 418.51,-147.3 406.27,-133.18"/>
<polygon fill="black" stroke="black" points="409.23,-131.26 400.04,-125.99 403.94,-135.84 409.23,-131.26"/>
<text text-anchor="middle" x="465.34" y="-145.7" font-family="Times New Roman,serif" font-size="14.00">graphAnd#87</text>
</g>
<!-- 52 -->
<g id="node31" class="node">
<title>52</title>
<polygon fill="yellow" stroke="black" points="351.25,-36 288.75,-36 288.75,0 351.25,0 351.25,-36"/>
<text text-anchor="middle" x="320" y="-12.95" font-family="Times New Roman,serif" font-size="14.00">idx1 = 1</text>
<text text-anchor="middle" x="277.5" y="-39.2" font-family="Times New Roman,serif" font-size="14.00">[52]</text>
</g>
<!-- 52&#45;&gt;91 -->
<g id="edge14" class="edge">
<title>52&#45;&gt;91</title>
<path fill="none" stroke="black" d="M314.85,-36.39C310.17,-53.73 304,-81.22 304,-105.5 304,-528.4 304,-528.4 304,-528.4 304,-555.35 313.98,-564.37 336,-579.9 366.85,-601.65 386.14,-579.32 419,-597.9 421.12,-599.1 423.12,-600.67 424.95,-602.37"/>
<polygon fill="black" stroke="black" points="422.13,-604.46 431.33,-609.72 427.42,-599.88 422.13,-604.46"/>
<text text-anchor="middle" x="341.12" y="-322.7" font-family="Times New Roman,serif" font-size="14.00">graphAnd#83</text>
</g>
<!-- 55&#45;&gt;52 -->
<g id="edge34" class="edge">
<title>55&#45;&gt;52</title>
<path fill="none" stroke="black" d="M371.36,-88.41C362.3,-76.17 349.93,-59.45 339.6,-45.49"/>
<polygon fill="black" stroke="black" points="342.5,-43.52 333.74,-37.57 336.87,-47.69 342.5,-43.52"/>
<text text-anchor="middle" x="394.86" y="-57.2" font-family="Times New Roman,serif" font-size="14.00">graphAnd#42</text>
</g>
<!-- 58&#45;&gt;93 -->
<g id="edge17" class="edge">
<title>58&#45;&gt;93</title>
<path fill="none" stroke="black" d="M391.32,-509.31C395.68,-497.54 401.56,-481.63 406.6,-468.01"/>
<polygon fill="black" stroke="black" points="409.87,-469.26 410.06,-458.67 403.3,-466.83 409.87,-469.26"/>
<text text-anchor="middle" x="440.99" y="-478.1" font-family="Times New Roman,serif" font-size="14.00">graphAnd#88</text>
</g>
<!-- 61&#45;&gt;64 -->
<g id="edge8" class="edge">
<title>61&#45;&gt;64</title>
<path fill="none" stroke="black" d="M512.42,-545.62C510.95,-563.06 509,-590.83 509,-614.9 509,-1154.9 509,-1154.9 509,-1154.9 509,-1180.5 496.18,-1206.8 484.38,-1225.58"/>
<polygon fill="black" stroke="black" points="481.63,-1223.4 479.04,-1233.67 487.47,-1227.26 481.63,-1223.4"/>
<text text-anchor="middle" x="546.12" y="-841.85" font-family="Times New Roman,serif" font-size="14.00">graphAnd#75</text>
</g>
</g>
</svg>
