<?xml version="1.0" encoding="UTF-8" standalone="no"?>
<!DOCTYPE svg PUBLIC "-//W3C//DTD SVG 1.1//EN"
 "http://www.w3.org/Graphics/SVG/1.1/DTD/svg11.dtd">
<!-- Generated by graphviz version 12.2.1 (20241206.2353)
 -->
<!-- Title: CLG Pages: 1 -->
<svg width="166pt" height="169pt"
 viewBox="0.00 0.00 165.75 169.30" xmlns="http://www.w3.org/2000/svg" xmlns:xlink="http://www.w3.org/1999/xlink">
<g id="graph0" class="graph" transform="scale(1 1) rotate(0) translate(4 165.3)">
<title>CLG</title>
<polygon fill="white" stroke="none" points="-4,4 -4,-165.3 161.75,-165.3 161.75,4 -4,4"/>
<!-- 3 -->
<g id="node1" class="node">
<title>3</title>
<ellipse fill="black" stroke="black" cx="86.75" cy="-137.6" rx="7.2" ry="7.2"/>
<text text-anchor="middle" x="71.67" y="-148" font-family="Times New Roman,serif" font-size="14.00">[0]</text>
</g>
<!-- 4 -->
<g id="node2" class="node">
<title>4</title>
<polygon fill="yellow" stroke="black" points="157.75,-94.4 15.75,-94.4 15.75,-58.4 157.75,-58.4 157.75,-94.4"/>
<text text-anchor="middle" x="86.75" y="-71.35" font-family="Times New Roman,serif" font-size="14.00">self.datas = inputArray</text>
<text text-anchor="middle" x="7.88" y="-97.6" font-family="Times New Roman,serif" font-size="14.00">[4]</text>
</g>
<!-- 3&#45;&gt;4 -->
<g id="edge1" class="edge">
<title>3&#45;&gt;4</title>
<path fill="none" stroke="black" d="M86.75,-130.26C86.75,-124.35 86.75,-115.09 86.75,-105.96"/>
<polygon fill="black" stroke="black" points="90.25,-106.24 86.75,-96.24 83.25,-106.24 90.25,-106.24"/>
</g>
<!-- 5 -->
<g id="node3" class="node">
<title>5</title>
<ellipse fill="black" stroke="black" cx="86.75" cy="-11.2" rx="7.2" ry="7.2"/>
<ellipse fill="none" stroke="black" cx="86.75" cy="-11.2" rx="11.2" ry="11.2"/>
<text text-anchor="middle" x="65.42" y="-25.6" font-family="Times New Roman,serif" font-size="14.00">[&#45;1]</text>
</g>
<!-- 4&#45;&gt;5 -->
<g id="edge2" class="edge">
<title>4&#45;&gt;5</title>
<path fill="none" stroke="black" d="M86.75,-58.13C86.75,-50.65 86.75,-41.8 86.75,-33.88"/>
<polygon fill="black" stroke="black" points="90.25,-34.04 86.75,-24.04 83.25,-34.04 90.25,-34.04"/>
</g>
</g>
</svg>
