<?xml version="1.0" encoding="UTF-8" standalone="no"?>
<!DOCTYPE svg PUBLIC "-//W3C//DTD SVG 1.1//EN"
 "http://www.w3.org/Graphics/SVG/1.1/DTD/svg11.dtd">
<!-- Generated by graphviz version 12.2.1 (20241206.2353)
 -->
<!-- Title: CLG Pages: 1 -->
<svg width="269pt" height="281pt"
 viewBox="0.00 0.00 269.25 281.30" xmlns="http://www.w3.org/2000/svg" xmlns:xlink="http://www.w3.org/1999/xlink">
<g id="graph0" class="graph" transform="scale(1 1) rotate(0) translate(4 277.3)">
<title>CLG</title>
<polygon fill="white" stroke="none" points="-4,4 -4,-277.3 265.25,-277.3 265.25,4 -4,4"/>
<!-- 178 -->
<g id="node1" class="node">
<title>178</title>
<polygon fill="yellow" stroke="black" points="199,-95.4 91.5,-95.4 91.5,-59.4 199,-59.4 199,-95.4"/>
<text text-anchor="middle" x="145.25" y="-72.35" font-family="Times New Roman,serif" font-size="14.00">result = self.data</text>
<text text-anchor="middle" x="76.88" y="-98.6" font-family="Times New Roman,serif" font-size="14.00">[178]</text>
</g>
<!-- 179 -->
<g id="node2" class="node">
<title>179</title>
<ellipse fill="black" stroke="black" cx="145.25" cy="-11.2" rx="7.2" ry="7.2"/>
<ellipse fill="none" stroke="black" cx="145.25" cy="-11.2" rx="11.2" ry="11.2"/>
<text text-anchor="middle" x="123.92" y="-25.6" font-family="Times New Roman,serif" font-size="14.00">[&#45;1]</text>
</g>
<!-- 178&#45;&gt;179 -->
<g id="edge1" class="edge">
<title>178&#45;&gt;179</title>
<path fill="none" stroke="black" d="M145.25,-59.2C145.25,-51.5 145.25,-42.34 145.25,-34.15"/>
<polygon fill="black" stroke="black" points="148.75,-34.32 145.25,-24.32 141.75,-34.32 148.75,-34.32"/>
</g>
<!-- 183 -->
<g id="node3" class="node">
<title>183</title>
<ellipse fill="black" stroke="black" cx="145.25" cy="-249.6" rx="7.2" ry="7.2"/>
<text text-anchor="middle" x="130.18" y="-260" font-family="Times New Roman,serif" font-size="14.00">[0]</text>
</g>
<!-- 184 -->
<g id="node4" class="node">
<title>184</title>
<polygon fill="yellow" stroke="black" points="261.25,-205.4 29.25,-205.4 29.25,-147.9 261.25,-147.9 261.25,-205.4"/>
<text text-anchor="middle" x="145.25" y="-188.1" font-family="Times New Roman,serif" font-size="14.00">self.data.getDimensionSizes(1) &gt; 0 and</text>
<text text-anchor="middle" x="145.25" y="-171.6" font-family="Times New Roman,serif" font-size="14.00">self.data.getDimensionSizes(2) &gt; 0 and</text>
<text text-anchor="middle" x="145.25" y="-155.1" font-family="Times New Roman,serif" font-size="14.00">self.data.getDimensionSizes(3) &gt; 0</text>
<text text-anchor="middle" x="14.62" y="-208.6" font-family="Times New Roman,serif" font-size="14.00">[184]</text>
</g>
<!-- 183&#45;&gt;184 -->
<g id="edge2" class="edge">
<title>183&#45;&gt;184</title>
<path fill="none" stroke="black" d="M145.25,-242.05C145.25,-236.13 145.25,-226.89 145.25,-217.24"/>
<polygon fill="black" stroke="black" points="148.75,-217.41 145.25,-207.41 141.75,-217.41 148.75,-217.41"/>
</g>
<!-- 184&#45;&gt;178 -->
<g id="edge3" class="edge">
<title>184&#45;&gt;178</title>
<path fill="none" stroke="black" d="M145.25,-147.52C145.25,-134.85 145.25,-119.91 145.25,-107.17"/>
<polygon fill="black" stroke="black" points="148.75,-107.28 145.25,-97.28 141.75,-107.28 148.75,-107.28"/>
<text text-anchor="middle" x="185.75" y="-116.6" font-family="Times New Roman,serif" font-size="14.00">graphAnd#189</text>
</g>
</g>
</svg>
