<?xml version="1.0" encoding="UTF-8" standalone="no"?>
<!DOCTYPE svg PUBLIC "-//W3C//DTD SVG 1.1//EN"
 "http://www.w3.org/Graphics/SVG/1.1/DTD/svg11.dtd">
<!-- Generated by graphviz version 12.2.1 (20241206.2353)
 -->
<!-- Title: CLG Pages: 1 -->
<svg width="504pt" height="1839pt"
 viewBox="0.00 0.00 504.12 1838.60" xmlns="http://www.w3.org/2000/svg" xmlns:xlink="http://www.w3.org/1999/xlink">
<g id="graph0" class="graph" transform="scale(1 1) rotate(0) translate(4 1834.6)">
<title>CLG</title>
<polygon fill="white" stroke="none" points="-4,4 -4,-1834.6 500.12,-1834.6 500.12,4 -4,4"/>
<!-- 130 -->
<g id="node1" class="node">
<title>130</title>
<polygon fill="yellow" stroke="black" points="204.75,-1387.2 98,-1387.2 98,-1351.2 204.75,-1351.2 204.75,-1387.2"/>
<text text-anchor="middle" x="151.38" y="-1364.15" font-family="Times New Roman,serif" font-size="14.00">idx1 &gt; d2 &#45; 1+ 1</text>
<text text-anchor="middle" x="83.38" y="-1390.4" font-family="Times New Roman,serif" font-size="14.00">[130]</text>
</g>
<!-- 165 -->
<g id="node15" class="node">
<title>165</title>
<polygon fill="yellow" stroke="black" points="245.5,-1298.7 143.25,-1298.7 143.25,-1262.7 245.5,-1262.7 245.5,-1298.7"/>
<text text-anchor="middle" x="194.38" y="-1275.65" font-family="Times New Roman,serif" font-size="14.00">idx0 = idx0 + 1</text>
<text text-anchor="middle" x="128.62" y="-1301.9" font-family="Times New Roman,serif" font-size="14.00">[165]</text>
</g>
<!-- 130&#45;&gt;165 -->
<g id="edge18" class="edge">
<title>130&#45;&gt;165</title>
<path fill="none" stroke="black" d="M159.87,-1351.11C165.84,-1339.1 173.95,-1322.79 180.81,-1309"/>
<polygon fill="black" stroke="black" points="183.76,-1310.92 185.08,-1300.41 177.49,-1307.8 183.76,-1310.92"/>
<text text-anchor="middle" x="217.23" y="-1319.9" font-family="Times New Roman,serif" font-size="14.00">graphAnd#168</text>
</g>
<!-- 133 -->
<g id="node2" class="node">
<title>133</title>
<polygon fill="yellow" stroke="black" points="267.88,-722.4 152.88,-722.4 152.88,-686.4 267.88,-686.4 267.88,-722.4"/>
<text text-anchor="middle" x="210.38" y="-699.35" font-family="Times New Roman,serif" font-size="14.00">idx1 &lt;= d2 &#45; 1+ 1</text>
<text text-anchor="middle" x="138.25" y="-725.6" font-family="Times New Roman,serif" font-size="14.00">[133]</text>
</g>
<!-- 136 -->
<g id="node3" class="node">
<title>136</title>
<polygon fill="yellow" stroke="black" points="288.88,-633.9 149.88,-633.9 149.88,-597.9 288.88,-597.9 288.88,-633.9"/>
<text text-anchor="middle" x="219.38" y="-610.85" font-family="Times New Roman,serif" font-size="14.00">it2 = Sequence{1..d2}</text>
<text text-anchor="middle" x="135.25" y="-637.1" font-family="Times New Roman,serif" font-size="14.00">[136]</text>
</g>
<!-- 133&#45;&gt;136 -->
<g id="edge9" class="edge">
<title>133&#45;&gt;136</title>
<path fill="none" stroke="black" d="M212.15,-686.31C213.37,-674.66 215,-658.95 216.41,-645.42"/>
<polygon fill="black" stroke="black" points="219.86,-646.06 217.41,-635.76 212.9,-645.34 219.86,-646.06"/>
<text text-anchor="middle" x="256.18" y="-655.1" font-family="Times New Roman,serif" font-size="14.00">graphAnd#155</text>
</g>
<!-- 142 -->
<g id="node5" class="node">
<title>142</title>
<polygon fill="yellow" stroke="black" points="271.12,-545.4 193.62,-545.4 193.62,-509.4 271.12,-509.4 271.12,-545.4"/>
<text text-anchor="middle" x="232.38" y="-522.35" font-family="Times New Roman,serif" font-size="14.00">acc3 = true</text>
<text text-anchor="middle" x="179" y="-548.6" font-family="Times New Roman,serif" font-size="14.00">[142]</text>
</g>
<!-- 136&#45;&gt;142 -->
<g id="edge10" class="edge">
<title>136&#45;&gt;142</title>
<path fill="none" stroke="black" d="M221.94,-597.81C223.69,-586.16 226.06,-570.45 228.09,-556.92"/>
<polygon fill="black" stroke="black" points="231.52,-557.66 229.54,-547.25 224.6,-556.62 231.52,-557.66"/>
<text text-anchor="middle" x="267.54" y="-566.6" font-family="Times New Roman,serif" font-size="14.00">graphAnd#156</text>
</g>
<!-- 139 -->
<g id="node4" class="node">
<title>139</title>
<polygon fill="yellow" stroke="black" points="290.62,-456.9 228.12,-456.9 228.12,-420.9 290.62,-420.9 290.62,-456.9"/>
<text text-anchor="middle" x="259.38" y="-433.85" font-family="Times New Roman,serif" font-size="14.00">idx2 = 1</text>
<text text-anchor="middle" x="213.5" y="-460.1" font-family="Times New Roman,serif" font-size="14.00">[139]</text>
</g>
<!-- 159 -->
<g id="node11" class="node">
<title>159</title>
<polygon fill="aquamarine" stroke="black" points="312.38,-368.4 305.18,-361.2 312.38,-354 319.57,-361.2 312.38,-368.4"/>
<text text-anchor="middle" x="286.8" y="-371.6" font-family="Times New Roman,serif" font-size="14.00">&lt;159&gt;</text>
</g>
<!-- 139&#45;&gt;159 -->
<g id="edge8" class="edge">
<title>139&#45;&gt;159</title>
<path fill="none" stroke="black" d="M271.4,-420.72C281.04,-406.96 294.36,-387.93 303.17,-375.35"/>
<polygon fill="black" stroke="black" points="305.8,-377.7 308.66,-367.5 300.06,-373.68 305.8,-377.7"/>
<text text-anchor="middle" x="335.73" y="-389.6" font-family="Times New Roman,serif" font-size="14.00">graphAnd#152</text>
</g>
<!-- 142&#45;&gt;139 -->
<g id="edge1" class="edge">
<title>142&#45;&gt;139</title>
<path fill="none" stroke="black" d="M237.71,-509.31C241.38,-497.54 246.35,-481.63 250.6,-468.01"/>
<polygon fill="black" stroke="black" points="253.87,-469.28 253.51,-458.69 247.19,-467.2 253.87,-469.28"/>
<text text-anchor="middle" x="288.79" y="-478.1" font-family="Times New Roman,serif" font-size="14.00">graphAnd#133</text>
</g>
<!-- 145 -->
<g id="node6" class="node">
<title>145</title>
<polygon fill="yellow" stroke="black" points="249.75,-301.5 143,-301.5 143,-265.5 249.75,-265.5 249.75,-301.5"/>
<text text-anchor="middle" x="196.38" y="-278.45" font-family="Times New Roman,serif" font-size="14.00">idx2 &gt; d3 &#45; 1+ 1</text>
<text text-anchor="middle" x="128.38" y="-304.7" font-family="Times New Roman,serif" font-size="14.00">[145]</text>
</g>
<!-- 161 -->
<g id="node12" class="node">
<title>161</title>
<polygon fill="yellow" stroke="black" points="189.5,-213 87.25,-213 87.25,-177 189.5,-177 189.5,-213"/>
<text text-anchor="middle" x="138.38" y="-189.95" font-family="Times New Roman,serif" font-size="14.00">idx1 = idx1 + 1</text>
<text text-anchor="middle" x="72.62" y="-216.2" font-family="Times New Roman,serif" font-size="14.00">[161]</text>
</g>
<!-- 145&#45;&gt;161 -->
<g id="edge11" class="edge">
<title>145&#45;&gt;161</title>
<path fill="none" stroke="black" d="M184.92,-265.41C176.79,-253.29 165.71,-236.77 156.41,-222.89"/>
<polygon fill="black" stroke="black" points="159.33,-220.96 150.85,-214.61 153.51,-224.86 159.33,-220.96"/>
<text text-anchor="middle" x="213.07" y="-234.2" font-family="Times New Roman,serif" font-size="14.00">graphAnd#157</text>
</g>
<!-- 148 -->
<g id="node7" class="node">
<title>148</title>
<polygon fill="yellow" stroke="black" points="382.88,-301.5 267.88,-301.5 267.88,-265.5 382.88,-265.5 382.88,-301.5"/>
<text text-anchor="middle" x="325.38" y="-278.45" font-family="Times New Roman,serif" font-size="14.00">idx2 &lt;= d3 &#45; 1+ 1</text>
<text text-anchor="middle" x="253.25" y="-304.7" font-family="Times New Roman,serif" font-size="14.00">[148]</text>
</g>
<!-- 151 -->
<g id="node8" class="node">
<title>151</title>
<polygon fill="yellow" stroke="black" points="357.88,-213 218.88,-213 218.88,-177 357.88,-177 357.88,-213"/>
<text text-anchor="middle" x="288.38" y="-189.95" font-family="Times New Roman,serif" font-size="14.00">it3 = Sequence{1..d3}</text>
<text text-anchor="middle" x="204.25" y="-216.2" font-family="Times New Roman,serif" font-size="14.00">[151]</text>
</g>
<!-- 148&#45;&gt;151 -->
<g id="edge2" class="edge">
<title>148&#45;&gt;151</title>
<path fill="none" stroke="black" d="M318.06,-265.41C312.98,-253.52 306.09,-237.41 300.22,-223.7"/>
<polygon fill="black" stroke="black" points="303.54,-222.56 296.39,-214.74 297.11,-225.31 303.54,-222.56"/>
<text text-anchor="middle" x="350.69" y="-234.2" font-family="Times New Roman,serif" font-size="14.00">graphAnd#144</text>
</g>
<!-- 154 -->
<g id="node9" class="node">
<title>154</title>
<polygon fill="yellow" stroke="black" points="407.5,-124.5 29.25,-124.5 29.25,-88.5 407.5,-88.5 407.5,-124.5"/>
<text text-anchor="middle" x="218.38" y="-101.45" font-family="Times New Roman,serif" font-size="14.00">result.data[it][it2][it3] = self.data[it][it2][it3] &#45; arg.data[it][it2][it3]</text>
<text text-anchor="middle" x="14.62" y="-127.7" font-family="Times New Roman,serif" font-size="14.00">[154]</text>
</g>
<!-- 151&#45;&gt;154 -->
<g id="edge3" class="edge">
<title>151&#45;&gt;154</title>
<path fill="none" stroke="black" d="M274.55,-176.91C264.54,-164.55 250.85,-147.63 239.48,-133.58"/>
<polygon fill="black" stroke="black" points="242.38,-131.6 233.37,-126.03 236.94,-136 242.38,-131.6"/>
<text text-anchor="middle" x="300.14" y="-145.7" font-family="Times New Roman,serif" font-size="14.00">graphAnd#145</text>
</g>
<!-- 157 -->
<g id="node10" class="node">
<title>157</title>
<polygon fill="yellow" stroke="black" points="378.5,-36 276.25,-36 276.25,0 378.5,0 378.5,-36"/>
<text text-anchor="middle" x="327.38" y="-12.95" font-family="Times New Roman,serif" font-size="14.00">idx2 = idx2 + 1</text>
<text text-anchor="middle" x="261.62" y="-39.2" font-family="Times New Roman,serif" font-size="14.00">[157]</text>
</g>
<!-- 154&#45;&gt;157 -->
<g id="edge4" class="edge">
<title>154&#45;&gt;157</title>
<path fill="none" stroke="black" d="M240.17,-88.2C256.36,-75.36 278.66,-57.66 296.65,-43.38"/>
<polygon fill="black" stroke="black" points="298.77,-46.17 304.43,-37.21 294.42,-40.68 298.77,-46.17"/>
<text text-anchor="middle" x="323.14" y="-57.2" font-family="Times New Roman,serif" font-size="14.00">graphAnd#146</text>
</g>
<!-- 157&#45;&gt;159 -->
<g id="edge6" class="edge">
<title>157&#45;&gt;159</title>
<path fill="none" stroke="black" d="M375.69,-36.36C404.44,-50.13 435.38,-72.59 435.38,-105.5 435.38,-284.5 435.38,-284.5 435.38,-284.5 435.38,-333.64 363.29,-351.91 329.49,-357.77"/>
<polygon fill="black" stroke="black" points="329.15,-354.28 319.8,-359.26 330.22,-361.2 329.15,-354.28"/>
<text text-anchor="middle" x="465.75" y="-189.95" font-family="Times New Roman,serif" font-size="14.00">iterate#149</text>
</g>
<!-- 159&#45;&gt;145 -->
<g id="edge7" class="edge">
<title>159&#45;&gt;145</title>
<path fill="none" stroke="black" d="M306.28,-359.76C291.9,-358.46 255.29,-353.52 231.38,-336 222.63,-329.6 215.37,-320.31 209.77,-311.38"/>
<polygon fill="black" stroke="black" points="212.93,-309.86 204.91,-302.93 206.86,-313.35 212.93,-309.86"/>
<text text-anchor="middle" x="271.88" y="-322.7" font-family="Times New Roman,serif" font-size="14.00">graphAnd#151</text>
</g>
<!-- 159&#45;&gt;148 -->
<g id="edge5" class="edge">
<title>159&#45;&gt;148</title>
<path fill="none" stroke="black" d="M313.31,-354.76C314.8,-346.06 317.83,-328.43 320.48,-313.01"/>
<polygon fill="black" stroke="black" points="323.9,-313.77 322.14,-303.33 317,-312.59 323.9,-313.77"/>
<text text-anchor="middle" x="349.64" y="-322.7" font-family="Times New Roman,serif" font-size="14.00">iterate#148</text>
</g>
<!-- 163 -->
<g id="node13" class="node">
<title>163</title>
<polygon fill="aquamarine" stroke="black" points="131.38,-789.3 124.17,-782.1 131.38,-774.9 138.57,-782.1 131.38,-789.3"/>
<text text-anchor="middle" x="105.8" y="-792.5" font-family="Times New Roman,serif" font-size="14.00">&lt;163&gt;</text>
</g>
<!-- 161&#45;&gt;163 -->
<g id="edge13" class="edge">
<title>161&#45;&gt;163</title>
<path fill="none" stroke="black" d="M130.97,-213.2C124.25,-230.41 115.38,-257.79 115.38,-282.5 115.38,-705.4 115.38,-705.4 115.38,-705.4 115.38,-726.39 121.33,-749.95 125.98,-765.13"/>
<polygon fill="black" stroke="black" points="122.64,-766.18 129.07,-774.6 129.29,-764.01 122.64,-766.18"/>
<text text-anchor="middle" x="145.75" y="-478.1" font-family="Times New Roman,serif" font-size="14.00">iterate#160</text>
</g>
<!-- 163&#45;&gt;130 -->
<g id="edge14" class="edge">
<title>163&#45;&gt;130</title>
<path fill="none" stroke="black" d="M129.54,-788.16C125.34,-800.22 115.38,-831.67 115.38,-858.8 115.38,-1281.7 115.38,-1281.7 115.38,-1281.7 115.38,-1302.85 124.66,-1324.83 133.8,-1341.34"/>
<polygon fill="black" stroke="black" points="130.54,-1342.7 138.62,-1349.55 136.58,-1339.15 130.54,-1342.7"/>
<text text-anchor="middle" x="155.88" y="-1076" font-family="Times New Roman,serif" font-size="14.00">graphAnd#162</text>
</g>
<!-- 163&#45;&gt;133 -->
<g id="edge12" class="edge">
<title>163&#45;&gt;133</title>
<path fill="none" stroke="black" d="M134.77,-777.85C143.22,-769.75 165.84,-748.07 184.16,-730.52"/>
<polygon fill="black" stroke="black" points="186.31,-733.31 191.11,-723.86 181.47,-728.25 186.31,-733.31"/>
<text text-anchor="middle" x="203.62" y="-743.6" font-family="Times New Roman,serif" font-size="14.00">iterate#159</text>
</g>
<!-- 100 -->
<g id="node14" class="node">
<title>100</title>
<polygon fill="yellow" stroke="black" points="401,-1652.7 187.75,-1652.7 187.75,-1616.7 401,-1616.7 401,-1652.7"/>
<text text-anchor="middle" x="294.38" y="-1629.65" font-family="Times New Roman,serif" font-size="14.00">d1 = arg.data.getDimensionSizes(1)</text>
<text text-anchor="middle" x="173.12" y="-1655.9" font-family="Times New Roman,serif" font-size="14.00">[100]</text>
</g>
<!-- 103 -->
<g id="node16" class="node">
<title>103</title>
<polygon fill="yellow" stroke="black" points="401,-1564.2 187.75,-1564.2 187.75,-1528.2 401,-1528.2 401,-1564.2"/>
<text text-anchor="middle" x="294.38" y="-1541.15" font-family="Times New Roman,serif" font-size="14.00">d2 = arg.data.getDimensionSizes(2)</text>
<text text-anchor="middle" x="173.12" y="-1567.4" font-family="Times New Roman,serif" font-size="14.00">[103]</text>
</g>
<!-- 100&#45;&gt;103 -->
<g id="edge19" class="edge">
<title>100&#45;&gt;103</title>
<path fill="none" stroke="black" d="M294.38,-1616.61C294.38,-1604.96 294.38,-1589.25 294.38,-1575.72"/>
<polygon fill="black" stroke="black" points="297.88,-1576.06 294.38,-1566.06 290.88,-1576.06 297.88,-1576.06"/>
<text text-anchor="middle" x="334.88" y="-1585.4" font-family="Times New Roman,serif" font-size="14.00">graphAnd#105</text>
</g>
<!-- 167 -->
<g id="node17" class="node">
<title>167</title>
<polygon fill="aquamarine" stroke="black" points="259.38,-1210.2 252.18,-1203 259.38,-1195.8 266.57,-1203 259.38,-1210.2"/>
<text text-anchor="middle" x="233.8" y="-1213.4" font-family="Times New Roman,serif" font-size="14.00">&lt;167&gt;</text>
</g>
<!-- 165&#45;&gt;167 -->
<g id="edge22" class="edge">
<title>165&#45;&gt;167</title>
<path fill="none" stroke="black" d="M194.34,-1262.25C195.18,-1251.39 197.9,-1237.72 205.62,-1228.2 214.81,-1216.88 230.42,-1210.66 242.46,-1207.38"/>
<polygon fill="black" stroke="black" points="243.18,-1210.8 252.17,-1205.19 241.64,-1203.97 243.18,-1210.8"/>
<text text-anchor="middle" x="236" y="-1231.4" font-family="Times New Roman,serif" font-size="14.00">iterate#171</text>
</g>
<!-- 106 -->
<g id="node18" class="node">
<title>106</title>
<polygon fill="yellow" stroke="black" points="401,-1475.7 187.75,-1475.7 187.75,-1439.7 401,-1439.7 401,-1475.7"/>
<text text-anchor="middle" x="294.38" y="-1452.65" font-family="Times New Roman,serif" font-size="14.00">d3 = arg.data.getDimensionSizes(3)</text>
<text text-anchor="middle" x="173.12" y="-1478.9" font-family="Times New Roman,serif" font-size="14.00">[106]</text>
</g>
<!-- 103&#45;&gt;106 -->
<g id="edge20" class="edge">
<title>103&#45;&gt;106</title>
<path fill="none" stroke="black" d="M294.38,-1528.11C294.38,-1516.46 294.38,-1500.75 294.38,-1487.22"/>
<polygon fill="black" stroke="black" points="297.88,-1487.56 294.38,-1477.56 290.88,-1487.56 297.88,-1487.56"/>
<text text-anchor="middle" x="334.88" y="-1496.9" font-family="Times New Roman,serif" font-size="14.00">graphAnd#106</text>
</g>
<!-- 115 -->
<g id="node23" class="node">
<title>115</title>
<polygon fill="yellow" stroke="black" points="401.75,-1143.3 295,-1143.3 295,-1107.3 401.75,-1107.3 401.75,-1143.3"/>
<text text-anchor="middle" x="348.38" y="-1120.25" font-family="Times New Roman,serif" font-size="14.00">idx0 &gt; d1 &#45; 1+ 1</text>
<text text-anchor="middle" x="280.38" y="-1146.5" font-family="Times New Roman,serif" font-size="14.00">[115]</text>
</g>
<!-- 167&#45;&gt;115 -->
<g id="edge23" class="edge">
<title>167&#45;&gt;115</title>
<path fill="none" stroke="black" d="M264.74,-1200.51C274.76,-1197.51 296.65,-1189.99 311.38,-1177.8 319.75,-1170.86 327.18,-1161.61 333.13,-1152.86"/>
<polygon fill="black" stroke="black" points="335.96,-1154.93 338.39,-1144.62 330.06,-1151.16 335.96,-1154.93"/>
<text text-anchor="middle" x="367.35" y="-1164.5" font-family="Times New Roman,serif" font-size="14.00">graphAnd#173</text>
</g>
<!-- 118 -->
<g id="node25" class="node">
<title>118</title>
<polygon fill="yellow" stroke="black" points="276.88,-1143.3 161.88,-1143.3 161.88,-1107.3 276.88,-1107.3 276.88,-1143.3"/>
<text text-anchor="middle" x="219.38" y="-1120.25" font-family="Times New Roman,serif" font-size="14.00">idx0 &lt;= d1 &#45; 1+ 1</text>
<text text-anchor="middle" x="147.25" y="-1146.5" font-family="Times New Roman,serif" font-size="14.00">[118]</text>
</g>
<!-- 167&#45;&gt;118 -->
<g id="edge21" class="edge">
<title>167&#45;&gt;118</title>
<path fill="none" stroke="black" d="M256.99,-1197.49C252.49,-1188.98 242.43,-1169.94 233.85,-1153.69"/>
<polygon fill="black" stroke="black" points="236.96,-1152.1 229.2,-1144.89 230.78,-1155.37 236.96,-1152.1"/>
<text text-anchor="middle" x="276.81" y="-1164.5" font-family="Times New Roman,serif" font-size="14.00">iterate#170</text>
</g>
<!-- 112 -->
<g id="node22" class="node">
<title>112</title>
<polygon fill="yellow" stroke="black" points="329.75,-1387.2 259,-1387.2 259,-1351.2 329.75,-1351.2 329.75,-1387.2"/>
<text text-anchor="middle" x="294.38" y="-1364.15" font-family="Times New Roman,serif" font-size="14.00">acc = true</text>
<text text-anchor="middle" x="244.38" y="-1390.4" font-family="Times New Roman,serif" font-size="14.00">[112]</text>
</g>
<!-- 106&#45;&gt;112 -->
<g id="edge25" class="edge">
<title>106&#45;&gt;112</title>
<path fill="none" stroke="black" d="M294.38,-1439.61C294.38,-1427.96 294.38,-1412.25 294.38,-1398.72"/>
<polygon fill="black" stroke="black" points="297.88,-1399.06 294.38,-1389.06 290.88,-1399.06 297.88,-1399.06"/>
<text text-anchor="middle" x="334.88" y="-1408.4" font-family="Times New Roman,serif" font-size="14.00">graphAnd#175</text>
</g>
<!-- 171 -->
<g id="node19" class="node">
<title>171</title>
<ellipse fill="black" stroke="black" cx="294.38" cy="-1806.9" rx="7.2" ry="7.2"/>
<text text-anchor="middle" x="279.3" y="-1817.3" font-family="Times New Roman,serif" font-size="14.00">[0]</text>
</g>
<!-- 172 -->
<g id="node20" class="node">
<title>172</title>
<polygon fill="yellow" stroke="black" points="410.38,-1762.7 178.38,-1762.7 178.38,-1705.2 410.38,-1705.2 410.38,-1762.7"/>
<text text-anchor="middle" x="294.38" y="-1745.4" font-family="Times New Roman,serif" font-size="14.00">self.data.getDimensionSizes(1) &gt; 0 and</text>
<text text-anchor="middle" x="294.38" y="-1728.9" font-family="Times New Roman,serif" font-size="14.00">self.data.getDimensionSizes(2) &gt; 0 and</text>
<text text-anchor="middle" x="294.38" y="-1712.4" font-family="Times New Roman,serif" font-size="14.00">self.data.getDimensionSizes(3) &gt; 0</text>
<text text-anchor="middle" x="163.75" y="-1765.9" font-family="Times New Roman,serif" font-size="14.00">[172]</text>
</g>
<!-- 171&#45;&gt;172 -->
<g id="edge28" class="edge">
<title>171&#45;&gt;172</title>
<path fill="none" stroke="black" d="M294.38,-1799.35C294.38,-1793.43 294.38,-1784.19 294.38,-1774.54"/>
<polygon fill="black" stroke="black" points="297.88,-1774.71 294.38,-1764.71 290.88,-1774.71 297.88,-1774.71"/>
</g>
<!-- 172&#45;&gt;100 -->
<g id="edge29" class="edge">
<title>172&#45;&gt;100</title>
<path fill="none" stroke="black" d="M294.38,-1704.82C294.38,-1692.15 294.38,-1677.21 294.38,-1664.47"/>
<polygon fill="black" stroke="black" points="297.88,-1664.58 294.38,-1654.58 290.88,-1664.58 297.88,-1664.58"/>
<text text-anchor="middle" x="334.88" y="-1673.9" font-family="Times New Roman,serif" font-size="14.00">graphAnd#180</text>
</g>
<!-- 109 -->
<g id="node21" class="node">
<title>109</title>
<polygon fill="yellow" stroke="black" points="325.62,-1298.7 263.12,-1298.7 263.12,-1262.7 325.62,-1262.7 325.62,-1298.7"/>
<text text-anchor="middle" x="294.38" y="-1275.65" font-family="Times New Roman,serif" font-size="14.00">idx0 = 1</text>
<text text-anchor="middle" x="248.5" y="-1301.9" font-family="Times New Roman,serif" font-size="14.00">[109]</text>
</g>
<!-- 109&#45;&gt;167 -->
<g id="edge24" class="edge">
<title>109&#45;&gt;167</title>
<path fill="none" stroke="black" d="M286.43,-1262.52C280.38,-1249.44 272.13,-1231.59 266.34,-1219.06"/>
<polygon fill="black" stroke="black" points="269.54,-1217.65 262.17,-1210.04 263.19,-1220.59 269.54,-1217.65"/>
<text text-anchor="middle" x="318.42" y="-1231.4" font-family="Times New Roman,serif" font-size="14.00">graphAnd#174</text>
</g>
<!-- 112&#45;&gt;109 -->
<g id="edge26" class="edge">
<title>112&#45;&gt;109</title>
<path fill="none" stroke="black" d="M294.38,-1351.11C294.38,-1339.46 294.38,-1323.75 294.38,-1310.22"/>
<polygon fill="black" stroke="black" points="297.88,-1310.56 294.38,-1300.56 290.88,-1310.56 297.88,-1310.56"/>
<text text-anchor="middle" x="334.88" y="-1319.9" font-family="Times New Roman,serif" font-size="14.00">graphAnd#111</text>
</g>
<!-- 116 -->
<g id="node24" class="node">
<title>116</title>
<ellipse fill="black" stroke="black" cx="348.38" cy="-1036.8" rx="7.2" ry="7.2"/>
<ellipse fill="none" stroke="black" cx="348.38" cy="-1036.8" rx="11.2" ry="11.2"/>
<text text-anchor="middle" x="327.05" y="-1051.2" font-family="Times New Roman,serif" font-size="14.00">[&#45;1]</text>
</g>
<!-- 115&#45;&gt;116 -->
<g id="edge27" class="edge">
<title>115&#45;&gt;116</title>
<path fill="none" stroke="black" d="M348.38,-1107.21C348.38,-1093.52 348.38,-1074.22 348.38,-1059.45"/>
<polygon fill="black" stroke="black" points="351.88,-1059.84 348.38,-1049.84 344.88,-1059.84 351.88,-1059.84"/>
</g>
<!-- 121 -->
<g id="node26" class="node">
<title>121</title>
<polygon fill="yellow" stroke="black" points="280.5,-1054.8 148.25,-1054.8 148.25,-1018.8 280.5,-1018.8 280.5,-1054.8"/>
<text text-anchor="middle" x="214.38" y="-1031.75" font-family="Times New Roman,serif" font-size="14.00">it = Sequence{1..d1}</text>
<text text-anchor="middle" x="133.62" y="-1058" font-family="Times New Roman,serif" font-size="14.00">[121]</text>
</g>
<!-- 118&#45;&gt;121 -->
<g id="edge16" class="edge">
<title>118&#45;&gt;121</title>
<path fill="none" stroke="black" d="M218.39,-1107.21C217.71,-1095.56 216.81,-1079.85 216.02,-1066.32"/>
<polygon fill="black" stroke="black" points="219.54,-1066.44 215.47,-1056.66 212.55,-1066.85 219.54,-1066.44"/>
<text text-anchor="middle" x="257.82" y="-1076" font-family="Times New Roman,serif" font-size="14.00">graphAnd#166</text>
</g>
<!-- 127 -->
<g id="node28" class="node">
<title>127</title>
<polygon fill="yellow" stroke="black" points="239.12,-966.3 161.62,-966.3 161.62,-930.3 239.12,-930.3 239.12,-966.3"/>
<text text-anchor="middle" x="200.38" y="-943.25" font-family="Times New Roman,serif" font-size="14.00">acc2 = true</text>
<text text-anchor="middle" x="147" y="-969.5" font-family="Times New Roman,serif" font-size="14.00">[127]</text>
</g>
<!-- 121&#45;&gt;127 -->
<g id="edge17" class="edge">
<title>121&#45;&gt;127</title>
<path fill="none" stroke="black" d="M211.61,-1018.71C209.72,-1007.06 207.18,-991.35 204.99,-977.82"/>
<polygon fill="black" stroke="black" points="208.48,-977.46 203.42,-968.14 201.57,-978.58 208.48,-977.46"/>
<text text-anchor="middle" x="249.13" y="-987.5" font-family="Times New Roman,serif" font-size="14.00">graphAnd#167</text>
</g>
<!-- 124 -->
<g id="node27" class="node">
<title>124</title>
<polygon fill="yellow" stroke="black" points="209.62,-877.8 147.12,-877.8 147.12,-841.8 209.62,-841.8 209.62,-877.8"/>
<text text-anchor="middle" x="178.38" y="-854.75" font-family="Times New Roman,serif" font-size="14.00">idx1 = 1</text>
<text text-anchor="middle" x="132.5" y="-881" font-family="Times New Roman,serif" font-size="14.00">[124]</text>
</g>
<!-- 124&#45;&gt;163 -->
<g id="edge15" class="edge">
<title>124&#45;&gt;163</title>
<path fill="none" stroke="black" d="M167.71,-841.62C159.25,-828 147.59,-809.21 139.78,-796.64"/>
<polygon fill="black" stroke="black" points="142.94,-795.1 134.69,-788.45 137,-798.79 142.94,-795.1"/>
<text text-anchor="middle" x="196.78" y="-810.5" font-family="Times New Roman,serif" font-size="14.00">graphAnd#163</text>
</g>
<!-- 127&#45;&gt;124 -->
<g id="edge30" class="edge">
<title>127&#45;&gt;124</title>
<path fill="none" stroke="black" d="M196.03,-930.21C193.03,-918.44 188.99,-902.53 185.52,-888.91"/>
<polygon fill="black" stroke="black" points="189.02,-888.45 183.16,-879.62 182.23,-890.17 189.02,-888.45"/>
<text text-anchor="middle" x="231.85" y="-899" font-family="Times New Roman,serif" font-size="14.00">graphAnd#122</text>
</g>
</g>
</svg>
