<?xml version="1.0" encoding="UTF-8" standalone="no"?>
<!DOCTYPE svg PUBLIC "-//W3C//DTD SVG 1.1//EN"
 "http://www.w3.org/Graphics/SVG/1.1/DTD/svg11.dtd">
<!-- Generated by graphviz version 12.2.1 (20241206.2353)
 -->
<!-- Title: CLG Pages: 1 -->
<svg width="872pt" height="817pt"
 viewBox="0.00 0.00 872.12 816.70" xmlns="http://www.w3.org/2000/svg" xmlns:xlink="http://www.w3.org/1999/xlink">
<g id="graph0" class="graph" transform="scale(1 1) rotate(0) translate(4 812.7)">
<title>CLG</title>
<polygon fill="white" stroke="none" points="-4,4 -4,-812.7 868.12,-812.7 868.12,4 -4,4"/>
<!-- 65 -->
<g id="node1" class="node">
<title>65</title>
<polygon fill="yellow" stroke="black" points="800,-368.4 697.75,-368.4 697.75,-332.4 800,-332.4 800,-368.4"/>
<text text-anchor="middle" x="748.88" y="-345.35" font-family="Times New Roman,serif" font-size="14.00">idx0 = idx0 + 1</text>
<text text-anchor="middle" x="686.5" y="-371.6" font-family="Times New Roman,serif" font-size="14.00">[65]</text>
</g>
<!-- 67 -->
<g id="node2" class="node">
<title>67</title>
<polygon fill="aquamarine" stroke="black" points="627.88,-279.9 620.67,-272.7 627.88,-265.5 635.08,-272.7 627.88,-279.9"/>
<text text-anchor="middle" x="605.67" y="-283.1" font-family="Times New Roman,serif" font-size="14.00">&lt;67&gt;</text>
</g>
<!-- 65&#45;&gt;67 -->
<g id="edge16" class="edge">
<title>65&#45;&gt;67</title>
<path fill="none" stroke="black" d="M732.9,-332.33C721.91,-321.36 706.52,-307.42 690.88,-297.9 676.01,-288.86 657.19,-282.16 644.01,-278.14"/>
<polygon fill="black" stroke="black" points="645.09,-274.8 634.51,-275.42 643.17,-281.54 645.09,-274.8"/>
<text text-anchor="middle" x="740.18" y="-301.1" font-family="Times New Roman,serif" font-size="14.00">iterate#61</text>
</g>
<!-- 53 -->
<g id="node13" class="node">
<title>53</title>
<polygon fill="yellow" stroke="black" points="577.75,-213 456,-213 456,-177 577.75,-177 577.75,-213"/>
<text text-anchor="middle" x="516.88" y="-189.95" font-family="Times New Roman,serif" font-size="14.00">idx0 &gt; dim1 &#45; 1+ 1</text>
<text text-anchor="middle" x="444.75" y="-216.2" font-family="Times New Roman,serif" font-size="14.00">[53]</text>
</g>
<!-- 67&#45;&gt;53 -->
<g id="edge17" class="edge">
<title>67&#45;&gt;53</title>
<path fill="none" stroke="black" d="M622.29,-270.65C610.31,-268.21 581.6,-261.25 561.62,-247.5 551.78,-240.72 542.74,-231.28 535.4,-222.33"/>
<polygon fill="black" stroke="black" points="538.23,-220.27 529.34,-214.51 532.7,-224.56 538.23,-220.27"/>
<text text-anchor="middle" x="598.75" y="-234.2" font-family="Times New Roman,serif" font-size="14.00">graphAnd#63</text>
</g>
<!-- 56 -->
<g id="node14" class="node">
<title>56</title>
<polygon fill="yellow" stroke="black" points="729.88,-213 599.88,-213 599.88,-177 729.88,-177 729.88,-213"/>
<text text-anchor="middle" x="664.88" y="-189.95" font-family="Times New Roman,serif" font-size="14.00">idx0 &lt;= dim1 &#45; 1+ 1</text>
<text text-anchor="middle" x="588.62" y="-216.2" font-family="Times New Roman,serif" font-size="14.00">[56]</text>
</g>
<!-- 67&#45;&gt;56 -->
<g id="edge15" class="edge">
<title>67&#45;&gt;56</title>
<path fill="none" stroke="black" d="M630.08,-267.19C634.24,-258.68 643.55,-239.64 651.49,-223.39"/>
<polygon fill="black" stroke="black" points="654.53,-225.13 655.78,-214.61 648.24,-222.06 654.53,-225.13"/>
<text text-anchor="middle" x="674.48" y="-234.2" font-family="Times New Roman,serif" font-size="14.00">iterate#60</text>
</g>
<!-- 35 -->
<g id="node3" class="node">
<title>35</title>
<polygon fill="yellow" stroke="black" points="454.62,-510.9 329.12,-510.9 329.12,-474.9 454.62,-474.9 454.62,-510.9"/>
<text text-anchor="middle" x="391.88" y="-487.85" font-family="Times New Roman,serif" font-size="14.00">Result = &#39;Exception&#39;</text>
<text text-anchor="middle" x="317.88" y="-514.1" font-family="Times New Roman,serif" font-size="14.00">[35]</text>
</g>
<!-- 69 -->
<g id="node6" class="node">
<title>69</title>
<polygon fill="aquamarine" stroke="black" points="458.88,-113.7 451.68,-106.5 458.88,-99.3 466.07,-106.5 458.88,-113.7"/>
<text text-anchor="middle" x="436.68" y="-116.9" font-family="Times New Roman,serif" font-size="14.00">&lt;69&gt;</text>
</g>
<!-- 35&#45;&gt;69 -->
<g id="edge9" class="edge">
<title>35&#45;&gt;69</title>
<path fill="none" stroke="black" d="M400.42,-474.63C408.97,-455.72 420.88,-424.27 420.88,-395.65 420.88,-395.65 420.88,-395.65 420.88,-194 420.88,-165.75 438.08,-136.35 449.34,-120.14"/>
<polygon fill="black" stroke="black" points="451.9,-122.56 455,-112.43 446.26,-118.42 451.9,-122.56"/>
<text text-anchor="middle" x="451.62" y="-301.1" font-family="Times New Roman,serif" font-size="14.00">merge2#72</text>
</g>
<!-- 36 -->
<g id="node4" class="node">
<title>36</title>
<ellipse fill="black" stroke="black" cx="458.88" cy="-18" rx="7.2" ry="7.2"/>
<ellipse fill="none" stroke="black" cx="458.88" cy="-18" rx="11.2" ry="11.2"/>
<text text-anchor="middle" x="437.55" y="-32.4" font-family="Times New Roman,serif" font-size="14.00">[&#45;1]</text>
</g>
<!-- 68 -->
<g id="node5" class="node">
<title>68</title>
<polygon fill="aquamarine" stroke="black" points="417.88,-725.3 410.68,-718.1 417.88,-710.9 425.07,-718.1 417.88,-725.3"/>
<text text-anchor="middle" x="395.68" y="-728.5" font-family="Times New Roman,serif" font-size="14.00">&lt;68&gt;</text>
</g>
<!-- 38 -->
<g id="node7" class="node">
<title>38</title>
<polygon fill="yellow" stroke="black" points="411.25,-658.4 22.5,-658.4 22.5,-617.4 411.25,-617.4 411.25,-658.4"/>
<text text-anchor="middle" x="216.88" y="-641.1" font-family="Times New Roman,serif" font-size="14.00">arg.datas.getDimension() &lt;&gt; self.datas.getDimension() or</text>
<text text-anchor="middle" x="216.88" y="-624.6" font-family="Times New Roman,serif" font-size="14.00">arg.datas.getDimensionSizes(1) &lt;&gt; self.datas.getDimensionSizes(1)</text>
<text text-anchor="middle" x="11.25" y="-661.6" font-family="Times New Roman,serif" font-size="14.00">[38]</text>
</g>
<!-- 68&#45;&gt;38 -->
<g id="edge7" class="edge">
<title>68&#45;&gt;38</title>
<path fill="none" stroke="black" d="M412.91,-715.17C394.51,-708.01 328.71,-682.41 278.37,-662.83"/>
<polygon fill="black" stroke="black" points="279.89,-659.66 269.3,-659.3 277.35,-666.18 279.89,-659.66"/>
<text text-anchor="middle" x="377.99" y="-679.6" font-family="Times New Roman,serif" font-size="14.00">split2#70</text>
</g>
<!-- 41 -->
<g id="node9" class="node">
<title>41</title>
<polygon fill="yellow" stroke="black" points="810.12,-658.4 429.62,-658.4 429.62,-617.4 810.12,-617.4 810.12,-658.4"/>
<text text-anchor="middle" x="619.88" y="-641.1" font-family="Times New Roman,serif" font-size="14.00">arg.datas.getDimension() = self.datas.getDimension() and</text>
<text text-anchor="middle" x="619.88" y="-624.6" font-family="Times New Roman,serif" font-size="14.00">arg.datas.getDimensionSizes(1) = self.datas.getDimensionSizes(1)</text>
<text text-anchor="middle" x="418.38" y="-661.6" font-family="Times New Roman,serif" font-size="14.00">[41]</text>
</g>
<!-- 68&#45;&gt;41 -->
<g id="edge6" class="edge">
<title>68&#45;&gt;41</title>
<path fill="none" stroke="black" d="M422.47,-715.32C440.35,-708.4 506.72,-682.7 557.62,-663"/>
<polygon fill="black" stroke="black" points="558.75,-666.31 566.82,-659.44 556.23,-659.79 558.75,-666.31"/>
<text text-anchor="middle" x="544" y="-679.6" font-family="Times New Roman,serif" font-size="14.00">split1#69</text>
</g>
<!-- 69&#45;&gt;36 -->
<g id="edge10" class="edge">
<title>69&#45;&gt;36</title>
<path fill="none" stroke="black" d="M458.88,-98.71C458.88,-86.42 458.88,-59.99 458.88,-40.93"/>
<polygon fill="black" stroke="black" points="462.38,-40.94 458.88,-30.94 455.38,-40.94 462.38,-40.94"/>
<text text-anchor="middle" x="504.62" y="-57.2" font-family="Times New Roman,serif" font-size="14.00">graphOr_end#73</text>
</g>
<!-- 38&#45;&gt;35 -->
<g id="edge3" class="edge">
<title>38&#45;&gt;35</title>
<path fill="none" stroke="black" d="M241.21,-617.02C272.76,-591.23 327.78,-546.27 361.88,-518.41"/>
<polygon fill="black" stroke="black" points="363.79,-521.37 369.32,-512.33 359.36,-515.95 363.79,-521.37"/>
<text text-anchor="middle" x="319.22" y="-586.1" font-family="Times New Roman,serif" font-size="14.00">graphAnd#66</text>
</g>
<!-- 40 -->
<g id="node8" class="node">
<title>40</title>
<ellipse fill="black" stroke="black" cx="417.88" cy="-785" rx="7.2" ry="7.2"/>
<text text-anchor="middle" x="402.8" y="-795.4" font-family="Times New Roman,serif" font-size="14.00">[0]</text>
</g>
<!-- 40&#45;&gt;68 -->
<g id="edge5" class="edge">
<title>40&#45;&gt;68</title>
<path fill="none" stroke="black" d="M417.88,-777.54C417.88,-768.21 417.88,-750.61 417.88,-737.15"/>
<polygon fill="black" stroke="black" points="421.38,-737.44 417.88,-727.44 414.38,-737.44 421.38,-737.44"/>
<text text-anchor="middle" x="465.5" y="-746.5" font-family="Times New Roman,serif" font-size="14.00">graphOr_start#68</text>
</g>
<!-- 44 -->
<g id="node10" class="node">
<title>44</title>
<polygon fill="yellow" stroke="black" points="735.62,-564.9 502.12,-564.9 502.12,-528.9 735.62,-528.9 735.62,-564.9"/>
<text text-anchor="middle" x="618.88" y="-541.85" font-family="Times New Roman,serif" font-size="14.00">dim1 = arg.datas.getDimensionSizes(1)</text>
<text text-anchor="middle" x="490.88" y="-568.1" font-family="Times New Roman,serif" font-size="14.00">[44]</text>
</g>
<!-- 41&#45;&gt;44 -->
<g id="edge4" class="edge">
<title>41&#45;&gt;44</title>
<path fill="none" stroke="black" d="M619.65,-617.15C619.52,-605.23 619.35,-589.84 619.2,-576.59"/>
<polygon fill="black" stroke="black" points="622.7,-576.67 619.09,-566.71 615.7,-576.74 622.7,-576.67"/>
<text text-anchor="middle" x="656.56" y="-586.1" font-family="Times New Roman,serif" font-size="14.00">graphAnd#67</text>
</g>
<!-- 50 -->
<g id="node12" class="node">
<title>50</title>
<polygon fill="yellow" stroke="black" points="651.25,-456.9 580.5,-456.9 580.5,-420.9 651.25,-420.9 651.25,-456.9"/>
<text text-anchor="middle" x="615.88" y="-433.85" font-family="Times New Roman,serif" font-size="14.00">acc = true</text>
<text text-anchor="middle" x="569.25" y="-460.1" font-family="Times New Roman,serif" font-size="14.00">[50]</text>
</g>
<!-- 44&#45;&gt;50 -->
<g id="edge2" class="edge">
<title>44&#45;&gt;50</title>
<path fill="none" stroke="black" d="M618.39,-528.87C617.93,-512.66 617.24,-487.96 616.69,-468.69"/>
<polygon fill="black" stroke="black" points="620.19,-468.65 616.41,-458.75 613.19,-468.85 620.19,-468.65"/>
<text text-anchor="middle" x="654.94" y="-487.85" font-family="Times New Roman,serif" font-size="14.00">graphAnd#65</text>
</g>
<!-- 47 -->
<g id="node11" class="node">
<title>47</title>
<polygon fill="yellow" stroke="black" points="647.12,-368.4 584.62,-368.4 584.62,-332.4 647.12,-332.4 647.12,-368.4"/>
<text text-anchor="middle" x="615.88" y="-345.35" font-family="Times New Roman,serif" font-size="14.00">idx0 = 1</text>
<text text-anchor="middle" x="573.38" y="-371.6" font-family="Times New Roman,serif" font-size="14.00">[47]</text>
</g>
<!-- 47&#45;&gt;67 -->
<g id="edge1" class="edge">
<title>47&#45;&gt;67</title>
<path fill="none" stroke="black" d="M614.34,-332.02C613.89,-321.93 614.07,-309.06 616.62,-297.9 617.41,-294.46 618.72,-290.93 620.18,-287.66"/>
<polygon fill="black" stroke="black" points="623.2,-289.45 624.72,-278.97 616.99,-286.21 623.2,-289.45"/>
<text text-anchor="middle" x="653.75" y="-301.1" font-family="Times New Roman,serif" font-size="14.00">graphAnd#64</text>
</g>
<!-- 50&#45;&gt;47 -->
<g id="edge11" class="edge">
<title>50&#45;&gt;47</title>
<path fill="none" stroke="black" d="M615.88,-420.81C615.88,-409.16 615.88,-393.45 615.88,-379.92"/>
<polygon fill="black" stroke="black" points="619.38,-380.26 615.88,-370.26 612.38,-380.26 619.38,-380.26"/>
<text text-anchor="middle" x="653" y="-389.6" font-family="Times New Roman,serif" font-size="14.00">graphAnd#45</text>
</g>
<!-- 53&#45;&gt;69 -->
<g id="edge8" class="edge">
<title>53&#45;&gt;69</title>
<path fill="none" stroke="black" d="M505.42,-176.91C494.37,-160.43 477.88,-135.84 467.78,-120.78"/>
<polygon fill="black" stroke="black" points="470.82,-119.03 462.34,-112.67 465.01,-122.93 470.82,-119.03"/>
<text text-anchor="middle" x="523.82" y="-145.7" font-family="Times New Roman,serif" font-size="14.00">merge1#71</text>
</g>
<!-- 59 -->
<g id="node15" class="node">
<title>59</title>
<polygon fill="yellow" stroke="black" points="738.5,-124.5 591.25,-124.5 591.25,-88.5 738.5,-88.5 738.5,-124.5"/>
<text text-anchor="middle" x="664.88" y="-101.45" font-family="Times New Roman,serif" font-size="14.00">it = Sequence{1..dim1}</text>
<text text-anchor="middle" x="580" y="-127.7" font-family="Times New Roman,serif" font-size="14.00">[59]</text>
</g>
<!-- 56&#45;&gt;59 -->
<g id="edge12" class="edge">
<title>56&#45;&gt;59</title>
<path fill="none" stroke="black" d="M664.88,-176.91C664.88,-165.26 664.88,-149.55 664.88,-136.02"/>
<polygon fill="black" stroke="black" points="668.38,-136.36 664.88,-126.36 661.38,-136.36 668.38,-136.36"/>
<text text-anchor="middle" x="702" y="-145.7" font-family="Times New Roman,serif" font-size="14.00">graphAnd#56</text>
</g>
<!-- 62 -->
<g id="node16" class="node">
<title>62</title>
<polygon fill="yellow" stroke="black" points="864.12,-36 609.62,-36 609.62,0 864.12,0 864.12,-36"/>
<text text-anchor="middle" x="736.88" y="-12.95" font-family="Times New Roman,serif" font-size="14.00">result.datas[it] = self.datas[it] &#45; arg.datas[it]</text>
<text text-anchor="middle" x="598.38" y="-39.2" font-family="Times New Roman,serif" font-size="14.00">[62]</text>
</g>
<!-- 59&#45;&gt;62 -->
<g id="edge13" class="edge">
<title>59&#45;&gt;62</title>
<path fill="none" stroke="black" d="M672.45,-88.23C677.55,-77.71 684.92,-64.34 693.62,-54 696.63,-50.43 700.05,-46.95 703.61,-43.67"/>
<polygon fill="black" stroke="black" points="705.62,-46.56 710.92,-37.38 701.06,-41.25 705.62,-46.56"/>
<text text-anchor="middle" x="730.75" y="-57.2" font-family="Times New Roman,serif" font-size="14.00">graphAnd#57</text>
</g>
<!-- 62&#45;&gt;65 -->
<g id="edge14" class="edge">
<title>62&#45;&gt;65</title>
<path fill="none" stroke="black" d="M755.02,-36.32C759.76,-41.61 764.48,-47.71 767.88,-54 779.15,-74.87 781.88,-81.78 781.88,-105.5 781.88,-273.7 781.88,-273.7 781.88,-273.7 781.88,-290.72 774.78,-308.24 767.16,-322.13"/>
<polygon fill="black" stroke="black" points="764.19,-320.28 762.12,-330.67 770.22,-323.84 764.19,-320.28"/>
<text text-anchor="middle" x="819" y="-189.95" font-family="Times New Roman,serif" font-size="14.00">graphAnd#58</text>
</g>
</g>
</svg>
