<?xml version="1.0" encoding="UTF-8" standalone="no"?>
<!DOCTYPE svg PUBLIC "-//W3C//DTD SVG 1.1//EN"
 "http://www.w3.org/Graphics/SVG/1.1/DTD/svg11.dtd">
<!-- Generated by graphviz version 12.2.1 (20241206.2353)
 -->
<!-- Title: CLG Pages: 1 -->
<svg width="263pt" height="281pt"
 viewBox="0.00 0.00 262.50 281.30" xmlns="http://www.w3.org/2000/svg" xmlns:xlink="http://www.w3.org/1999/xlink">
<g id="graph0" class="graph" transform="scale(1 1) rotate(0) translate(4 277.3)">
<title>CLG</title>
<polygon fill="white" stroke="none" points="-4,4 -4,-277.3 258.5,-277.3 258.5,4 -4,4"/>
<!-- 16 -->
<g id="node1" class="node">
<title>16</title>
<polygon fill="yellow" stroke="black" points="254.5,-205.4 22.5,-205.4 22.5,-147.9 254.5,-147.9 254.5,-205.4"/>
<text text-anchor="middle" x="138.5" y="-188.1" font-family="Times New Roman,serif" font-size="14.00">self.data.getDimensionSizes(1) &gt; 0 and</text>
<text text-anchor="middle" x="138.5" y="-171.6" font-family="Times New Roman,serif" font-size="14.00">self.data.getDimensionSizes(2) &gt; 0 and</text>
<text text-anchor="middle" x="138.5" y="-155.1" font-family="Times New Roman,serif" font-size="14.00">self.data.getDimensionSizes(3) &gt; 0</text>
<text text-anchor="middle" x="11.25" y="-208.6" font-family="Times New Roman,serif" font-size="14.00">[16]</text>
</g>
<!-- 10 -->
<g id="node2" class="node">
<title>10</title>
<polygon fill="yellow" stroke="black" points="206.88,-95.4 70.12,-95.4 70.12,-59.4 206.88,-59.4 206.88,-95.4"/>
<text text-anchor="middle" x="138.5" y="-72.35" font-family="Times New Roman,serif" font-size="14.00">self.data = inputArray</text>
<text text-anchor="middle" x="58.88" y="-98.6" font-family="Times New Roman,serif" font-size="14.00">[10]</text>
</g>
<!-- 16&#45;&gt;10 -->
<g id="edge3" class="edge">
<title>16&#45;&gt;10</title>
<path fill="none" stroke="black" d="M138.5,-147.52C138.5,-134.85 138.5,-119.91 138.5,-107.17"/>
<polygon fill="black" stroke="black" points="142,-107.28 138.5,-97.28 135,-107.28 142,-107.28"/>
<text text-anchor="middle" x="175.62" y="-116.6" font-family="Times New Roman,serif" font-size="14.00">graphAnd#12</text>
</g>
<!-- 11 -->
<g id="node3" class="node">
<title>11</title>
<ellipse fill="black" stroke="black" cx="138.5" cy="-11.2" rx="7.2" ry="7.2"/>
<ellipse fill="none" stroke="black" cx="138.5" cy="-11.2" rx="11.2" ry="11.2"/>
<text text-anchor="middle" x="117.17" y="-25.6" font-family="Times New Roman,serif" font-size="14.00">[&#45;1]</text>
</g>
<!-- 10&#45;&gt;11 -->
<g id="edge1" class="edge">
<title>10&#45;&gt;11</title>
<path fill="none" stroke="black" d="M138.5,-59.2C138.5,-51.5 138.5,-42.34 138.5,-34.15"/>
<polygon fill="black" stroke="black" points="142,-34.32 138.5,-24.32 135,-34.32 142,-34.32"/>
</g>
<!-- 15 -->
<g id="node4" class="node">
<title>15</title>
<ellipse fill="black" stroke="black" cx="138.5" cy="-249.6" rx="7.2" ry="7.2"/>
<text text-anchor="middle" x="123.42" y="-260" font-family="Times New Roman,serif" font-size="14.00">[0]</text>
</g>
<!-- 15&#45;&gt;16 -->
<g id="edge2" class="edge">
<title>15&#45;&gt;16</title>
<path fill="none" stroke="black" d="M138.5,-242.05C138.5,-236.13 138.5,-226.89 138.5,-217.24"/>
<polygon fill="black" stroke="black" points="142,-217.41 138.5,-207.41 135,-217.41 142,-217.41"/>
</g>
</g>
</svg>
