<?xml version="1.0" encoding="UTF-8" standalone="no"?>
<!DOCTYPE svg PUBLIC "-//W3C//DTD SVG 1.1//EN"
 "http://www.w3.org/Graphics/SVG/1.1/DTD/svg11.dtd">
<!-- Generated by graphviz version 12.2.1 (20241206.2353)
 -->
<!-- Title: CLG Pages: 1 -->
<svg width="932pt" height="463pt"
 viewBox="0.00 0.00 931.75 462.60" xmlns="http://www.w3.org/2000/svg" xmlns:xlink="http://www.w3.org/1999/xlink">
<g id="graph0" class="graph" transform="scale(1 1) rotate(0) translate(4 458.6)">
<title>CLG</title>
<polygon fill="white" stroke="none" points="-4,4 -4,-458.6 927.75,-458.6 927.75,4 -4,4"/>
<!-- 1 -->
<g id="node1" class="node">
<title>1</title>
<polygon fill="yellow" stroke="black" points="536,-177.8 392.5,-177.8 392.5,-141.8 536,-141.8 536,-177.8"/>
<text text-anchor="middle" x="464.25" y="-154.75" font-family="Times New Roman,serif" font-size="14.00">exception=&quot;Exception&quot;</text>
<text text-anchor="middle" x="384.62" y="-181" font-family="Times New Roman,serif" font-size="14.00">[1]</text>
</g>
<!-- 13 -->
<g id="node8" class="node">
<title>13</title>
<polygon fill="aquamarine" stroke="black" points="544.25,-89.3 537.05,-82.1 544.25,-74.9 551.45,-82.1 544.25,-89.3"/>
<text text-anchor="middle" x="522.05" y="-92.5" font-family="Times New Roman,serif" font-size="14.00">&lt;13&gt;</text>
</g>
<!-- 1&#45;&gt;13 -->
<g id="edge7" class="edge">
<title>1&#45;&gt;13</title>
<path fill="none" stroke="black" d="M482.4,-141.62C497.83,-127.02 519.52,-106.5 532.69,-94.04"/>
<polygon fill="black" stroke="black" points="534.9,-96.77 539.75,-87.36 530.08,-91.69 534.9,-96.77"/>
<text text-anchor="middle" x="549.12" y="-110.5" font-family="Times New Roman,serif" font-size="14.00">merge2_14</text>
</g>
<!-- 2 -->
<g id="node2" class="node">
<title>2</title>
<ellipse fill="black" stroke="black" cx="544.25" cy="-11.2" rx="7.2" ry="7.2"/>
<ellipse fill="none" stroke="black" cx="544.25" cy="-11.2" rx="11.2" ry="11.2"/>
<text text-anchor="middle" x="522.92" y="-25.6" font-family="Times New Roman,serif" font-size="14.00">[&#45;1]</text>
</g>
<!-- 4 -->
<g id="node3" class="node">
<title>4</title>
<polygon fill="yellow" stroke="black" points="460.75,-304.3 15.75,-304.3 15.75,-230.3 460.75,-230.3 460.75,-304.3"/>
<text text-anchor="middle" x="238.25" y="-287" font-family="Times New Roman,serif" font-size="14.00">inputArray.datas.getDimension() &lt;&gt; self.datas.getDimension() or</text>
<text text-anchor="middle" x="238.25" y="-270.5" font-family="Times New Roman,serif" font-size="14.00">inputArray.datas.getDimensionSizes(0) &lt;&gt; self.datas.getDimensionSizes(0) or</text>
<text text-anchor="middle" x="238.25" y="-254" font-family="Times New Roman,serif" font-size="14.00">inputArray.datas.getDimensionSizes(1) &lt;&gt; self.datas.getDimensionSizes(1) or</text>
<text text-anchor="middle" x="238.25" y="-237.5" font-family="Times New Roman,serif" font-size="14.00">inputArray.datas.getDimensionSizes(2) &lt;&gt; self.datas.getDimensionSizes(2)</text>
<text text-anchor="middle" x="7.88" y="-307.5" font-family="Times New Roman,serif" font-size="14.00">[4]</text>
</g>
<!-- 4&#45;&gt;1 -->
<g id="edge1" class="edge">
<title>4&#45;&gt;1</title>
<path fill="none" stroke="black" d="M316.34,-229.85C349.75,-214.25 387.67,-196.55 416.75,-182.97"/>
<polygon fill="black" stroke="black" points="418.09,-186.21 425.67,-178.81 415.13,-179.87 418.09,-186.21"/>
<text text-anchor="middle" x="418.45" y="-199" font-family="Times New Roman,serif" font-size="14.00">graphAnd_8</text>
</g>
<!-- 6 -->
<g id="node4" class="node">
<title>6</title>
<ellipse fill="black" stroke="black" cx="469.25" cy="-430.9" rx="7.2" ry="7.2"/>
<text text-anchor="middle" x="454.18" y="-441.3" font-family="Times New Roman,serif" font-size="14.00">[0]</text>
</g>
<!-- 12 -->
<g id="node7" class="node">
<title>12</title>
<polygon fill="aquamarine" stroke="black" points="469.25,-371.2 462.05,-364 469.25,-356.8 476.45,-364 469.25,-371.2"/>
<text text-anchor="middle" x="447.05" y="-374.4" font-family="Times New Roman,serif" font-size="14.00">&lt;12&gt;</text>
</g>
<!-- 6&#45;&gt;12 -->
<g id="edge3" class="edge">
<title>6&#45;&gt;12</title>
<path fill="none" stroke="black" d="M469.25,-423.44C469.25,-414.11 469.25,-396.51 469.25,-383.05"/>
<polygon fill="black" stroke="black" points="472.75,-383.34 469.25,-373.34 465.75,-383.34 472.75,-383.34"/>
<text text-anchor="middle" x="516.88" y="-392.4" font-family="Times New Roman,serif" font-size="14.00">graphOr_start_10</text>
</g>
<!-- 7 -->
<g id="node5" class="node">
<title>7</title>
<polygon fill="yellow" stroke="black" points="923.75,-304.3 478.75,-304.3 478.75,-230.3 923.75,-230.3 923.75,-304.3"/>
<text text-anchor="middle" x="701.25" y="-287" font-family="Times New Roman,serif" font-size="14.00">inputArray.datas.getDimension() = self.datas.getDimension() and</text>
<text text-anchor="middle" x="701.25" y="-270.5" font-family="Times New Roman,serif" font-size="14.00">inputArray.datas.getDimensionSizes(0) = self.datas.getDimensionSizes(0) and</text>
<text text-anchor="middle" x="701.25" y="-254" font-family="Times New Roman,serif" font-size="14.00">inputArray.datas.getDimensionSizes(1) = self.datas.getDimensionSizes(1) and</text>
<text text-anchor="middle" x="701.25" y="-237.5" font-family="Times New Roman,serif" font-size="14.00">inputArray.datas.getDimensionSizes(2) = self.datas.getDimensionSizes(2)</text>
<text text-anchor="middle" x="470.88" y="-307.5" font-family="Times New Roman,serif" font-size="14.00">[7]</text>
</g>
<!-- 10 -->
<g id="node6" class="node">
<title>10</title>
<polygon fill="yellow" stroke="black" points="734.25,-177.8 592.25,-177.8 592.25,-141.8 734.25,-141.8 734.25,-177.8"/>
<text text-anchor="middle" x="663.25" y="-154.75" font-family="Times New Roman,serif" font-size="14.00">self.datas = inputArray</text>
<text text-anchor="middle" x="581" y="-181" font-family="Times New Roman,serif" font-size="14.00">[10]</text>
</g>
<!-- 7&#45;&gt;10 -->
<g id="edge2" class="edge">
<title>7&#45;&gt;10</title>
<path fill="none" stroke="black" d="M688.17,-229.99C683.34,-216.58 677.94,-201.58 673.4,-188.99"/>
<polygon fill="black" stroke="black" points="676.72,-187.87 670.04,-179.64 670.13,-190.24 676.72,-187.87"/>
<text text-anchor="middle" x="714.86" y="-199" font-family="Times New Roman,serif" font-size="14.00">graphAnd_9</text>
</g>
<!-- 10&#45;&gt;13 -->
<g id="edge6" class="edge">
<title>10&#45;&gt;13</title>
<path fill="none" stroke="black" d="M637.06,-141.41C621.75,-131.32 602,-118.45 584.25,-107.3 575.67,-101.91 565.95,-96.02 558.23,-91.4"/>
<polygon fill="black" stroke="black" points="560.17,-88.48 549.78,-86.37 556.58,-94.49 560.17,-88.48"/>
<text text-anchor="middle" x="639.04" y="-110.5" font-family="Times New Roman,serif" font-size="14.00">merge1_13</text>
</g>
<!-- 12&#45;&gt;4 -->
<g id="edge5" class="edge">
<title>12&#45;&gt;4</title>
<path fill="none" stroke="black" d="M464.43,-361.02C447.69,-354.16 390.28,-330.63 337.5,-308.99"/>
<polygon fill="black" stroke="black" points="339,-305.82 328.42,-305.26 336.34,-312.3 339,-305.82"/>
<text text-anchor="middle" x="432.42" y="-325.5" font-family="Times New Roman,serif" font-size="14.00">split2_12</text>
</g>
<!-- 12&#45;&gt;7 -->
<g id="edge4" class="edge">
<title>12&#45;&gt;7</title>
<path fill="none" stroke="black" d="M474.1,-361.02C490.9,-354.16 548.56,-330.63 601.57,-308.99"/>
<polygon fill="black" stroke="black" points="602.76,-312.28 610.7,-305.26 600.12,-305.8 602.76,-312.28"/>
<text text-anchor="middle" x="589.6" y="-325.5" font-family="Times New Roman,serif" font-size="14.00">split1_11</text>
</g>
<!-- 13&#45;&gt;2 -->
<g id="edge8" class="edge">
<title>13&#45;&gt;2</title>
<path fill="none" stroke="black" d="M544.25,-74.24C544.25,-64.87 544.25,-47.63 544.25,-33.7"/>
<polygon fill="black" stroke="black" points="547.75,-34.11 544.25,-24.11 540.75,-34.11 547.75,-34.11"/>
<text text-anchor="middle" x="590" y="-43.6" font-family="Times New Roman,serif" font-size="14.00">graphOr_end_15</text>
</g>
</g>
</svg>
