<?xml version="1.0" encoding="UTF-8" standalone="no"?>
<!DOCTYPE svg PUBLIC "-//W3C//DTD SVG 1.1//EN"
 "http://www.w3.org/Graphics/SVG/1.1/DTD/svg11.dtd">
<!-- Generated by graphviz version 12.2.1 (20241206.2353)
 -->
<!-- Title: CLG Pages: 1 -->
<svg width="1099pt" height="1604pt"
 viewBox="0.00 0.00 1099.12 1603.80" xmlns="http://www.w3.org/2000/svg" xmlns:xlink="http://www.w3.org/1999/xlink">
<g id="graph0" class="graph" transform="scale(1 1) rotate(0) translate(4 1599.8)">
<title>CLG</title>
<polygon fill="white" stroke="none" points="-4,4 -4,-1599.8 1095.12,-1599.8 1095.12,4 -4,4"/>
<!-- 128 -->
<g id="node1" class="node">
<title>128</title>
<polygon fill="yellow" stroke="black" points="153.25,-945.5 29.25,-945.5 29.25,-909.5 153.25,-909.5 153.25,-945.5"/>
<text text-anchor="middle" x="91.25" y="-922.45" font-family="Times New Roman,serif" font-size="14.00">Sequence{0..dim3}</text>
<text text-anchor="middle" x="14.62" y="-948.7" font-family="Times New Roman,serif" font-size="14.00">[128]</text>
</g>
<!-- 131 -->
<g id="node2" class="node">
<title>131</title>
<polygon fill="yellow" stroke="black" points="236.25,-857 182.25,-857 182.25,-821 236.25,-821 236.25,-857"/>
<text text-anchor="middle" x="209.25" y="-833.95" font-family="Times New Roman,serif" font-size="14.00">it3</text>
<text text-anchor="middle" x="167.62" y="-860.2" font-family="Times New Roman,serif" font-size="14.00">[131]</text>
</g>
<!-- 128&#45;&gt;131 -->
<g id="edge3" class="edge">
<title>128&#45;&gt;131</title>
<path fill="none" stroke="black" d="M114.85,-909.2C132.53,-896.24 156.95,-878.34 176.53,-863.99"/>
<polygon fill="black" stroke="black" points="178.48,-866.9 184.47,-858.16 174.34,-861.25 178.48,-866.9"/>
<text text-anchor="middle" x="201.32" y="-878.2" font-family="Times New Roman,serif" font-size="14.00">graphAnd_140</text>
</g>
<!-- 134 -->
<g id="node3" class="node">
<title>134</title>
<polygon fill="yellow" stroke="black" points="266,-768.5 188.5,-768.5 188.5,-732.5 266,-732.5 266,-768.5"/>
<text text-anchor="middle" x="227.25" y="-745.45" font-family="Times New Roman,serif" font-size="14.00">acc3 = true</text>
<text text-anchor="middle" x="173.88" y="-771.7" font-family="Times New Roman,serif" font-size="14.00">[134]</text>
</g>
<!-- 131&#45;&gt;134 -->
<g id="edge4" class="edge">
<title>131&#45;&gt;134</title>
<path fill="none" stroke="black" d="M212.81,-820.91C215.23,-809.26 218.5,-793.55 221.32,-780.02"/>
<polygon fill="black" stroke="black" points="224.72,-780.84 223.33,-770.33 217.87,-779.41 224.72,-780.84"/>
<text text-anchor="middle" x="260.36" y="-789.7" font-family="Times New Roman,serif" font-size="14.00">graphAnd_141</text>
</g>
<!-- 139 -->
<g id="node5" class="node">
<title>139</title>
<polygon fill="#ff7256" stroke="black" points="403.65,-644 351.45,-680 247.05,-680 194.85,-644 247.05,-608 351.45,-608 403.65,-644"/>
<text text-anchor="middle" x="299.25" y="-663.7" font-family="Times New Roman,serif" font-size="14.00">i = 1</text>
<text text-anchor="middle" x="299.25" y="-647.2" font-family="Times New Roman,serif" font-size="14.00">i&lt;Sequence{0..dim3}</text>
<text text-anchor="middle" x="299.25" y="-630.7" font-family="Times New Roman,serif" font-size="14.00">Accumulator: acc3 = true</text>
<text text-anchor="middle" x="299.25" y="-614.2" font-family="Times New Roman,serif" font-size="14.00">Loop Var: it3</text>
<text text-anchor="middle" x="180.23" y="-683.2" font-family="Times New Roman,serif" font-size="14.00">[139]</text>
</g>
<!-- 134&#45;&gt;139 -->
<g id="edge7" class="edge">
<title>134&#45;&gt;139</title>
<path fill="none" stroke="black" d="M239.14,-732.24C247.14,-720.63 258.09,-704.74 268.45,-689.7"/>
<polygon fill="black" stroke="black" points="271.15,-691.96 273.94,-681.74 265.38,-687.99 271.15,-691.96"/>
<text text-anchor="middle" x="301.59" y="-701.2" font-family="Times New Roman,serif" font-size="14.00">graphAnd_148</text>
</g>
<!-- 137 -->
<g id="node4" class="node">
<title>137</title>
<polygon fill="yellow" stroke="black" points="457.25,-540 63.25,-540 63.25,-499 457.25,-499 457.25,-540"/>
<text text-anchor="middle" x="260.25" y="-522.7" font-family="Times New Roman,serif" font-size="14.00">acc3 and</text>
<text text-anchor="middle" x="260.25" y="-506.2" font-family="Times New Roman,serif" font-size="14.00">result.datas[it][it2][it3] = self.datas[it][it2][it3] &#45; arg.datas[it][it2][it3]</text>
<text text-anchor="middle" x="48.62" y="-543.2" font-family="Times New Roman,serif" font-size="14.00">[137]</text>
</g>
<!-- 137&#45;&gt;139 -->
<g id="edge6" class="edge">
<title>137&#45;&gt;139</title>
<path fill="none" stroke="black" d="M268.3,-540.48C272.14,-550.34 276.67,-562.46 280.25,-573.5 282.69,-581.02 285.08,-589.06 287.31,-596.92"/>
<polygon fill="black" stroke="black" points="283.88,-597.65 289.92,-606.35 290.62,-595.78 283.88,-597.65"/>
<text text-anchor="middle" x="315.28" y="-576.7" font-family="Times New Roman,serif" font-size="14.00">iterate_146</text>
</g>
<!-- 139&#45;&gt;137 -->
<g id="edge5" class="edge">
<title>139&#45;&gt;137</title>
<path fill="none" stroke="black" d="M239.27,-613.15C231.33,-606.62 224.29,-598.94 219.5,-590 212.09,-576.18 218.99,-561.13 229.08,-548.58"/>
<polygon fill="black" stroke="black" points="231.38,-551.26 235.44,-541.47 226.16,-546.6 231.38,-551.26"/>
<text text-anchor="middle" x="249.88" y="-576.7" font-family="Times New Roman,serif" font-size="14.00">iterate_145</text>
</g>
<!-- 143 -->
<g id="node7" class="node">
<title>143</title>
<polygon fill="#ff7256" stroke="black" points="683.65,-519.5 631.45,-555.5 527.05,-555.5 474.85,-519.5 527.05,-483.5 631.45,-483.5 683.65,-519.5"/>
<text text-anchor="middle" x="579.25" y="-539.2" font-family="Times New Roman,serif" font-size="14.00">i = 1</text>
<text text-anchor="middle" x="579.25" y="-522.7" font-family="Times New Roman,serif" font-size="14.00">i&lt;Sequence{0..dim2}</text>
<text text-anchor="middle" x="579.25" y="-506.2" font-family="Times New Roman,serif" font-size="14.00">Accumulator: acc2 = true</text>
<text text-anchor="middle" x="579.25" y="-489.7" font-family="Times New Roman,serif" font-size="14.00">Loop Var: it2</text>
<text text-anchor="middle" x="460.23" y="-558.7" font-family="Times New Roman,serif" font-size="14.00">[143]</text>
</g>
<!-- 139&#45;&gt;143 -->
<g id="edge10" class="edge">
<title>139&#45;&gt;143</title>
<path fill="none" stroke="black" d="M362.44,-615.36C404.84,-596.8 460.87,-572.29 505.35,-552.83"/>
<polygon fill="black" stroke="black" points="506.66,-556.08 514.42,-548.86 503.86,-549.66 506.66,-556.08"/>
<text text-anchor="middle" x="486.39" y="-576.7" font-family="Times New Roman,serif" font-size="14.00">iterate_154</text>
</g>
<!-- 141 -->
<g id="node6" class="node">
<title>141</title>
<polygon fill="yellow" stroke="black" points="191.38,-415.5 119.12,-415.5 119.12,-374.5 191.38,-374.5 191.38,-415.5"/>
<text text-anchor="middle" x="155.25" y="-398.2" font-family="Times New Roman,serif" font-size="14.00">acc2 and</text>
<text text-anchor="middle" x="155.25" y="-381.7" font-family="Times New Roman,serif" font-size="14.00">IterateExp</text>
<text text-anchor="middle" x="104.5" y="-418.7" font-family="Times New Roman,serif" font-size="14.00">[141]</text>
</g>
<!-- 141&#45;&gt;128 -->
<g id="edge8" class="edge">
<title>141&#45;&gt;128</title>
<path fill="none" stroke="black" d="M118.92,-413.73C83.6,-433.8 35.25,-470.12 35.25,-518.5 35.25,-840 35.25,-840 35.25,-840 35.25,-863.09 49.49,-884.89 63.61,-900.83"/>
<polygon fill="black" stroke="black" points="60.91,-903.07 70.31,-907.95 66.01,-898.27 60.91,-903.07"/>
<text text-anchor="middle" x="75.75" y="-701.2" font-family="Times New Roman,serif" font-size="14.00">graphAnd_151</text>
</g>
<!-- 143&#45;&gt;141 -->
<g id="edge9" class="edge">
<title>143&#45;&gt;141</title>
<path fill="none" stroke="black" d="M508.21,-496.19C494.31,-491.91 479.84,-487.52 466.25,-483.5 373.08,-455.97 263.6,-425.63 202.55,-408.89"/>
<polygon fill="black" stroke="black" points="203.76,-405.6 193.19,-406.33 201.91,-412.35 203.76,-405.6"/>
<text text-anchor="middle" x="428.65" y="-452.2" font-family="Times New Roman,serif" font-size="14.00">iterate_153</text>
</g>
<!-- 147 -->
<g id="node9" class="node">
<title>147</title>
<polygon fill="#ff7256" stroke="black" points="833.65,-395 781.45,-431 677.05,-431 624.85,-395 677.05,-359 781.45,-359 833.65,-395"/>
<text text-anchor="middle" x="729.25" y="-414.7" font-family="Times New Roman,serif" font-size="14.00">i = 1</text>
<text text-anchor="middle" x="729.25" y="-398.2" font-family="Times New Roman,serif" font-size="14.00">i&lt;Sequence{0..dim1}</text>
<text text-anchor="middle" x="729.25" y="-381.7" font-family="Times New Roman,serif" font-size="14.00">Accumulator: acc = true</text>
<text text-anchor="middle" x="729.25" y="-365.2" font-family="Times New Roman,serif" font-size="14.00">Loop Var: it</text>
<text text-anchor="middle" x="610.23" y="-434.2" font-family="Times New Roman,serif" font-size="14.00">[147]</text>
</g>
<!-- 143&#45;&gt;147 -->
<g id="edge14" class="edge">
<title>143&#45;&gt;147</title>
<path fill="none" stroke="black" d="M622.64,-483.07C639.74,-469.1 659.52,-452.94 677.37,-438.36"/>
<polygon fill="black" stroke="black" points="679.26,-441.35 684.79,-432.31 674.83,-435.92 679.26,-441.35"/>
<text text-anchor="middle" x="693.61" y="-452.2" font-family="Times New Roman,serif" font-size="14.00">iterate_162</text>
</g>
<!-- 145 -->
<g id="node8" class="node">
<title>145</title>
<polygon fill="yellow" stroke="black" points="732.38,-306.5 660.12,-306.5 660.12,-265.5 732.38,-265.5 732.38,-306.5"/>
<text text-anchor="middle" x="696.25" y="-289.2" font-family="Times New Roman,serif" font-size="14.00">acc and</text>
<text text-anchor="middle" x="696.25" y="-272.7" font-family="Times New Roman,serif" font-size="14.00">IterateExp</text>
<text text-anchor="middle" x="645.5" y="-309.7" font-family="Times New Roman,serif" font-size="14.00">[145]</text>
</g>
<!-- 119 -->
<g id="node26" class="node">
<title>119</title>
<polygon fill="yellow" stroke="black" points="750.25,-213 626.25,-213 626.25,-177 750.25,-177 750.25,-213"/>
<text text-anchor="middle" x="688.25" y="-189.95" font-family="Times New Roman,serif" font-size="14.00">Sequence{0..dim2}</text>
<text text-anchor="middle" x="611.62" y="-216.2" font-family="Times New Roman,serif" font-size="14.00">[119]</text>
</g>
<!-- 145&#45;&gt;119 -->
<g id="edge12" class="edge">
<title>145&#45;&gt;119</title>
<path fill="none" stroke="black" d="M694.47,-265.25C693.4,-253.33 692.02,-237.94 690.83,-224.69"/>
<polygon fill="black" stroke="black" points="694.32,-224.45 689.94,-214.8 687.35,-225.07 694.32,-224.45"/>
<text text-anchor="middle" x="733.23" y="-234.2" font-family="Times New Roman,serif" font-size="14.00">graphAnd_159</text>
</g>
<!-- 147&#45;&gt;145 -->
<g id="edge13" class="edge">
<title>147&#45;&gt;145</title>
<path fill="none" stroke="black" d="M711.05,-358.62C708.57,-352.84 706.27,-346.83 704.5,-341 702.3,-333.73 700.67,-325.73 699.46,-318.16"/>
<polygon fill="black" stroke="black" points="702.94,-317.73 698.11,-308.3 696,-318.68 702.94,-317.73"/>
<text text-anchor="middle" x="734.88" y="-327.7" font-family="Times New Roman,serif" font-size="14.00">iterate_161</text>
</g>
<!-- 149 -->
<g id="node13" class="node">
<title>149</title>
<polygon fill="aquamarine" stroke="black" points="830.25,-293.2 823.05,-286 830.25,-278.8 837.45,-286 830.25,-293.2"/>
<text text-anchor="middle" x="804.67" y="-296.4" font-family="Times New Roman,serif" font-size="14.00">&lt;149&gt;</text>
</g>
<!-- 147&#45;&gt;149 -->
<g id="edge23" class="edge">
<title>147&#45;&gt;149</title>
<path fill="none" stroke="black" d="M758.85,-358.73C768.54,-347.56 779.52,-335.32 790,-324.5 799.16,-315.05 810.12,-304.9 818.29,-297.55"/>
<polygon fill="black" stroke="black" points="820.51,-300.26 825.67,-291 815.87,-295.03 820.51,-300.26"/>
<text text-anchor="middle" x="824.12" y="-327.7" font-family="Times New Roman,serif" font-size="14.00">merge1_171</text>
</g>
<!-- 83 -->
<g id="node10" class="node">
<title>83</title>
<polygon fill="yellow" stroke="black" points="944,-1265 800.5,-1265 800.5,-1229 944,-1229 944,-1265"/>
<text text-anchor="middle" x="872.25" y="-1241.95" font-family="Times New Roman,serif" font-size="14.00">exception=&quot;Exception&quot;</text>
<text text-anchor="middle" x="789.25" y="-1268.2" font-family="Times New Roman,serif" font-size="14.00">[83]</text>
</g>
<!-- 83&#45;&gt;149 -->
<g id="edge24" class="edge">
<title>83&#45;&gt;149</title>
<path fill="none" stroke="black" d="M872.25,-1228.61C872.25,-1209.34 872.25,-1177.32 872.25,-1149.75 872.25,-1149.75 872.25,-1149.75 872.25,-394 872.25,-362.49 871.1,-353.27 858.25,-324.5 853.98,-314.93 846.9,-305.48 840.93,-298.46"/>
<polygon fill="black" stroke="black" points="843.76,-296.37 834.45,-291.31 838.57,-301.07 843.76,-296.37"/>
<text text-anchor="middle" x="906.38" y="-833.95" font-family="Times New Roman,serif" font-size="14.00">merge2_172</text>
</g>
<!-- 84 -->
<g id="node11" class="node">
<title>84</title>
<ellipse fill="black" stroke="black" cx="830.25" cy="-195" rx="7.2" ry="7.2"/>
<ellipse fill="none" stroke="black" cx="830.25" cy="-195" rx="11.2" ry="11.2"/>
<text text-anchor="middle" x="808.92" y="-209.4" font-family="Times New Roman,serif" font-size="14.00">[&#45;1]</text>
</g>
<!-- 148 -->
<g id="node12" class="node">
<title>148</title>
<polygon fill="aquamarine" stroke="black" points="678.25,-1512.4 671.05,-1505.2 678.25,-1498 685.45,-1505.2 678.25,-1512.4"/>
<text text-anchor="middle" x="652.67" y="-1515.6" font-family="Times New Roman,serif" font-size="14.00">&lt;148&gt;</text>
</g>
<!-- 86 -->
<g id="node14" class="node">
<title>86</title>
<polygon fill="yellow" stroke="black" points="1091.12,-1445.5 687.38,-1445.5 687.38,-1371.5 1091.12,-1371.5 1091.12,-1445.5"/>
<text text-anchor="middle" x="889.25" y="-1428.2" font-family="Times New Roman,serif" font-size="14.00">arg.datas.getDimension() &lt;&gt; self.datas.getDimension() or</text>
<text text-anchor="middle" x="889.25" y="-1411.7" font-family="Times New Roman,serif" font-size="14.00">arg.datas.getDimensionSizes(0) &lt;&gt; self.datas.getDimensionSizes(0) or</text>
<text text-anchor="middle" x="889.25" y="-1395.2" font-family="Times New Roman,serif" font-size="14.00">arg.datas.getDimensionSizes(1) &lt;&gt; self.datas.getDimensionSizes(1) or</text>
<text text-anchor="middle" x="889.25" y="-1378.7" font-family="Times New Roman,serif" font-size="14.00">arg.datas.getDimensionSizes(2) &lt;&gt; self.datas.getDimensionSizes(2)</text>
<text text-anchor="middle" x="676.12" y="-1448.7" font-family="Times New Roman,serif" font-size="14.00">[86]</text>
</g>
<!-- 148&#45;&gt;86 -->
<g id="edge22" class="edge">
<title>148&#45;&gt;86</title>
<path fill="none" stroke="black" d="M682.66,-1502.22C697.85,-1495.4 749.72,-1472.12 797.69,-1450.59"/>
<polygon fill="black" stroke="black" points="799.1,-1453.8 806.79,-1446.51 796.23,-1447.41 799.1,-1453.8"/>
<text text-anchor="middle" x="793.35" y="-1466.7" font-family="Times New Roman,serif" font-size="14.00">split2_170</text>
</g>
<!-- 89 -->
<g id="node16" class="node">
<title>89</title>
<polygon fill="yellow" stroke="black" points="669.12,-1445.5 265.38,-1445.5 265.38,-1371.5 669.12,-1371.5 669.12,-1445.5"/>
<text text-anchor="middle" x="467.25" y="-1428.2" font-family="Times New Roman,serif" font-size="14.00">arg.datas.getDimension() = self.datas.getDimension() and</text>
<text text-anchor="middle" x="467.25" y="-1411.7" font-family="Times New Roman,serif" font-size="14.00">arg.datas.getDimensionSizes(0) = self.datas.getDimensionSizes(0) and</text>
<text text-anchor="middle" x="467.25" y="-1395.2" font-family="Times New Roman,serif" font-size="14.00">arg.datas.getDimensionSizes(1) = self.datas.getDimensionSizes(1) and</text>
<text text-anchor="middle" x="467.25" y="-1378.7" font-family="Times New Roman,serif" font-size="14.00">arg.datas.getDimensionSizes(2) = self.datas.getDimensionSizes(2)</text>
<text text-anchor="middle" x="254.12" y="-1448.7" font-family="Times New Roman,serif" font-size="14.00">[89]</text>
</g>
<!-- 148&#45;&gt;89 -->
<g id="edge21" class="edge">
<title>148&#45;&gt;89</title>
<path fill="none" stroke="black" d="M673.84,-1502.22C658.65,-1495.4 606.78,-1472.12 558.81,-1450.59"/>
<polygon fill="black" stroke="black" points="560.27,-1447.41 549.71,-1446.51 557.4,-1453.8 560.27,-1447.41"/>
<text text-anchor="middle" x="650.16" y="-1466.7" font-family="Times New Roman,serif" font-size="14.00">split1_169</text>
</g>
<!-- 149&#45;&gt;84 -->
<g id="edge25" class="edge">
<title>149&#45;&gt;84</title>
<path fill="none" stroke="black" d="M830.25,-278.31C830.25,-265.65 830.25,-237.68 830.25,-217.86"/>
<polygon fill="black" stroke="black" points="833.75,-218.04 830.25,-208.04 826.75,-218.04 833.75,-218.04"/>
<text text-anchor="middle" x="879.38" y="-234.2" font-family="Times New Roman,serif" font-size="14.00">graphOr_end_173</text>
</g>
<!-- 86&#45;&gt;83 -->
<g id="edge17" class="edge">
<title>86&#45;&gt;83</title>
<path fill="none" stroke="black" d="M885.39,-1371.31C882.33,-1342.61 878.12,-1303.07 875.3,-1276.57"/>
<polygon fill="black" stroke="black" points="878.81,-1276.48 874.27,-1266.91 871.84,-1277.22 878.81,-1276.48"/>
<text text-anchor="middle" x="923.77" y="-1340.2" font-family="Times New Roman,serif" font-size="14.00">graphAnd_166</text>
</g>
<!-- 88 -->
<g id="node15" class="node">
<title>88</title>
<ellipse fill="black" stroke="black" cx="678.25" cy="-1572.1" rx="7.2" ry="7.2"/>
<text text-anchor="middle" x="663.17" y="-1582.5" font-family="Times New Roman,serif" font-size="14.00">[0]</text>
</g>
<!-- 88&#45;&gt;148 -->
<g id="edge19" class="edge">
<title>88&#45;&gt;148</title>
<path fill="none" stroke="black" d="M678.25,-1564.64C678.25,-1555.31 678.25,-1537.71 678.25,-1524.25"/>
<polygon fill="black" stroke="black" points="681.75,-1524.54 678.25,-1514.54 674.75,-1524.54 681.75,-1524.54"/>
<text text-anchor="middle" x="729.25" y="-1533.6" font-family="Times New Roman,serif" font-size="14.00">graphOr_start_168</text>
</g>
<!-- 92 -->
<g id="node17" class="node">
<title>92</title>
<polygon fill="yellow" stroke="black" points="791.38,-1319 539.12,-1319 539.12,-1283 791.38,-1283 791.38,-1319"/>
<text text-anchor="middle" x="665.25" y="-1295.95" font-family="Times New Roman,serif" font-size="14.00">dim1 = arg.datas.getDimensionSizes(0) &#45; 1</text>
<text text-anchor="middle" x="527.88" y="-1322.2" font-family="Times New Roman,serif" font-size="14.00">[92]</text>
</g>
<!-- 89&#45;&gt;92 -->
<g id="edge18" class="edge">
<title>89&#45;&gt;92</title>
<path fill="none" stroke="black" d="M535.67,-1371.05C564.55,-1355.66 597.29,-1338.21 622.63,-1324.71"/>
<polygon fill="black" stroke="black" points="624.14,-1327.87 631.32,-1320.08 620.85,-1321.69 624.14,-1327.87"/>
<text text-anchor="middle" x="636.05" y="-1340.2" font-family="Times New Roman,serif" font-size="14.00">graphAnd_167</text>
</g>
<!-- 95 -->
<g id="node18" class="node">
<title>95</title>
<polygon fill="yellow" stroke="black" points="804.25,-1211 596.25,-1211 596.25,-1175 804.25,-1175 804.25,-1211"/>
<text text-anchor="middle" x="700.25" y="-1187.95" font-family="Times New Roman,serif" font-size="14.00">arg.datas.getDimensionSizes(0) &#45; 1</text>
<text text-anchor="middle" x="585" y="-1214.2" font-family="Times New Roman,serif" font-size="14.00">[95]</text>
</g>
<!-- 92&#45;&gt;95 -->
<g id="edge20" class="edge">
<title>92&#45;&gt;95</title>
<path fill="none" stroke="black" d="M670.87,-1282.97C676.28,-1266.61 684.54,-1241.59 690.92,-1222.24"/>
<polygon fill="black" stroke="black" points="694.24,-1223.37 694.05,-1212.78 687.59,-1221.18 694.24,-1223.37"/>
<text text-anchor="middle" x="728.43" y="-1241.95" font-family="Times New Roman,serif" font-size="14.00">graphAnd_105</text>
</g>
<!-- 98 -->
<g id="node19" class="node">
<title>98</title>
<polygon fill="yellow" stroke="black" points="827.38,-1122.5 575.12,-1122.5 575.12,-1086.5 827.38,-1086.5 827.38,-1122.5"/>
<text text-anchor="middle" x="701.25" y="-1099.45" font-family="Times New Roman,serif" font-size="14.00">dim2 = arg.datas.getDimensionSizes(1) &#45; 1</text>
<text text-anchor="middle" x="563.88" y="-1125.7" font-family="Times New Roman,serif" font-size="14.00">[98]</text>
</g>
<!-- 95&#45;&gt;98 -->
<g id="edge28" class="edge">
<title>95&#45;&gt;98</title>
<path fill="none" stroke="black" d="M700.45,-1174.91C700.58,-1163.26 700.76,-1147.55 700.92,-1134.02"/>
<polygon fill="black" stroke="black" points="704.42,-1134.4 701.03,-1124.36 697.42,-1134.32 704.42,-1134.4"/>
<text text-anchor="middle" x="741.34" y="-1143.7" font-family="Times New Roman,serif" font-size="14.00">graphAnd_116</text>
</g>
<!-- 101 -->
<g id="node20" class="node">
<title>101</title>
<polygon fill="yellow" stroke="black" points="805.25,-1034 597.25,-1034 597.25,-998 805.25,-998 805.25,-1034"/>
<text text-anchor="middle" x="701.25" y="-1010.95" font-family="Times New Roman,serif" font-size="14.00">arg.datas.getDimensionSizes(1) &#45; 1</text>
<text text-anchor="middle" x="582.62" y="-1037.2" font-family="Times New Roman,serif" font-size="14.00">[101]</text>
</g>
<!-- 98&#45;&gt;101 -->
<g id="edge26" class="edge">
<title>98&#45;&gt;101</title>
<path fill="none" stroke="black" d="M701.25,-1086.41C701.25,-1074.76 701.25,-1059.05 701.25,-1045.52"/>
<polygon fill="black" stroke="black" points="704.75,-1045.86 701.25,-1035.86 697.75,-1045.86 704.75,-1045.86"/>
<text text-anchor="middle" x="741.75" y="-1055.2" font-family="Times New Roman,serif" font-size="14.00">graphAnd_110</text>
</g>
<!-- 104 -->
<g id="node21" class="node">
<title>104</title>
<polygon fill="yellow" stroke="black" points="831.38,-945.5 579.12,-945.5 579.12,-909.5 831.38,-909.5 831.38,-945.5"/>
<text text-anchor="middle" x="705.25" y="-922.45" font-family="Times New Roman,serif" font-size="14.00">dim3 = arg.datas.getDimensionSizes(2) &#45; 1</text>
<text text-anchor="middle" x="564.5" y="-948.7" font-family="Times New Roman,serif" font-size="14.00">[104]</text>
</g>
<!-- 101&#45;&gt;104 -->
<g id="edge29" class="edge">
<title>101&#45;&gt;104</title>
<path fill="none" stroke="black" d="M702.04,-997.91C702.58,-986.26 703.31,-970.55 703.93,-957.02"/>
<polygon fill="black" stroke="black" points="707.41,-957.51 704.38,-947.36 700.42,-957.19 707.41,-957.51"/>
<text text-anchor="middle" x="744.11" y="-966.7" font-family="Times New Roman,serif" font-size="14.00">graphAnd_117</text>
</g>
<!-- 107 -->
<g id="node22" class="node">
<title>107</title>
<polygon fill="yellow" stroke="black" points="821.25,-857 613.25,-857 613.25,-821 821.25,-821 821.25,-857"/>
<text text-anchor="middle" x="717.25" y="-833.95" font-family="Times New Roman,serif" font-size="14.00">arg.datas.getDimensionSizes(2) &#45; 1</text>
<text text-anchor="middle" x="598.62" y="-860.2" font-family="Times New Roman,serif" font-size="14.00">[107]</text>
</g>
<!-- 104&#45;&gt;107 -->
<g id="edge27" class="edge">
<title>104&#45;&gt;107</title>
<path fill="none" stroke="black" d="M707.62,-909.41C709.24,-897.76 711.42,-882.05 713.29,-868.52"/>
<polygon fill="black" stroke="black" points="716.73,-869.24 714.64,-858.85 709.79,-868.27 716.73,-869.24"/>
<text text-anchor="middle" x="752.82" y="-878.2" font-family="Times New Roman,serif" font-size="14.00">graphAnd_115</text>
</g>
<!-- 110 -->
<g id="node23" class="node">
<title>110</title>
<polygon fill="yellow" stroke="black" points="785.25,-768.5 661.25,-768.5 661.25,-732.5 785.25,-732.5 785.25,-768.5"/>
<text text-anchor="middle" x="723.25" y="-745.45" font-family="Times New Roman,serif" font-size="14.00">Sequence{0..dim1}</text>
<text text-anchor="middle" x="646.62" y="-771.7" font-family="Times New Roman,serif" font-size="14.00">[110]</text>
</g>
<!-- 107&#45;&gt;110 -->
<g id="edge16" class="edge">
<title>107&#45;&gt;110</title>
<path fill="none" stroke="black" d="M718.44,-820.91C719.24,-809.26 720.33,-793.55 721.27,-780.02"/>
<polygon fill="black" stroke="black" points="724.74,-780.58 721.94,-770.36 717.76,-780.09 724.74,-780.58"/>
<text text-anchor="middle" x="761.29" y="-789.7" font-family="Times New Roman,serif" font-size="14.00">graphAnd_165</text>
</g>
<!-- 113 -->
<g id="node24" class="node">
<title>113</title>
<polygon fill="yellow" stroke="black" points="753.25,-662 699.25,-662 699.25,-626 753.25,-626 753.25,-662"/>
<text text-anchor="middle" x="726.25" y="-638.95" font-family="Times New Roman,serif" font-size="14.00">it</text>
<text text-anchor="middle" x="684.62" y="-665.2" font-family="Times New Roman,serif" font-size="14.00">[113]</text>
</g>
<!-- 110&#45;&gt;113 -->
<g id="edge30" class="edge">
<title>110&#45;&gt;113</title>
<path fill="none" stroke="black" d="M723.75,-732.24C724.2,-716.36 724.89,-692.49 725.43,-673.74"/>
<polygon fill="black" stroke="black" points="728.92,-673.89 725.71,-663.79 721.92,-673.69 728.92,-673.89"/>
<text text-anchor="middle" x="765.16" y="-701.2" font-family="Times New Roman,serif" font-size="14.00">graphAnd_124</text>
</g>
<!-- 116 -->
<g id="node25" class="node">
<title>116</title>
<polygon fill="yellow" stroke="black" points="772.62,-537.5 701.88,-537.5 701.88,-501.5 772.62,-501.5 772.62,-537.5"/>
<text text-anchor="middle" x="737.25" y="-514.45" font-family="Times New Roman,serif" font-size="14.00">acc = true</text>
<text text-anchor="middle" x="716.5" y="-540.7" font-family="Times New Roman,serif" font-size="14.00">[116]</text>
</g>
<!-- 113&#45;&gt;116 -->
<g id="edge31" class="edge">
<title>113&#45;&gt;116</title>
<path fill="none" stroke="black" d="M727.8,-625.71C729.59,-605.83 732.55,-572.89 734.68,-549.16"/>
<polygon fill="black" stroke="black" points="738.16,-549.48 735.57,-539.21 731.19,-548.86 738.16,-549.48"/>
<text text-anchor="middle" x="772.91" y="-576.7" font-family="Times New Roman,serif" font-size="14.00">graphAnd_125</text>
</g>
<!-- 116&#45;&gt;147 -->
<g id="edge15" class="edge">
<title>116&#45;&gt;147</title>
<path fill="none" stroke="black" d="M736.12,-501.21C735.13,-486.03 733.64,-463.25 732.3,-442.75"/>
<polygon fill="black" stroke="black" points="735.8,-442.61 731.66,-432.86 728.82,-443.07 735.8,-442.61"/>
<text text-anchor="middle" x="774.23" y="-452.2" font-family="Times New Roman,serif" font-size="14.00">graphAnd_164</text>
</g>
<!-- 122 -->
<g id="node27" class="node">
<title>122</title>
<polygon fill="yellow" stroke="black" points="688.25,-124.5 634.25,-124.5 634.25,-88.5 688.25,-88.5 688.25,-124.5"/>
<text text-anchor="middle" x="661.25" y="-101.45" font-family="Times New Roman,serif" font-size="14.00">it2</text>
<text text-anchor="middle" x="619.62" y="-127.7" font-family="Times New Roman,serif" font-size="14.00">[122]</text>
</g>
<!-- 119&#45;&gt;122 -->
<g id="edge1" class="edge">
<title>119&#45;&gt;122</title>
<path fill="none" stroke="black" d="M682.92,-176.91C679.24,-165.14 674.28,-149.23 670.02,-135.61"/>
<polygon fill="black" stroke="black" points="673.44,-134.8 667.12,-126.29 666.76,-136.88 673.44,-134.8"/>
<text text-anchor="middle" x="717.67" y="-145.7" font-family="Times New Roman,serif" font-size="14.00">graphAnd_132</text>
</g>
<!-- 125 -->
<g id="node28" class="node">
<title>125</title>
<polygon fill="yellow" stroke="black" points="637,-36 559.5,-36 559.5,0 637,0 637,-36"/>
<text text-anchor="middle" x="598.25" y="-12.95" font-family="Times New Roman,serif" font-size="14.00">acc2 = true</text>
<text text-anchor="middle" x="544.88" y="-39.2" font-family="Times New Roman,serif" font-size="14.00">[125]</text>
</g>
<!-- 122&#45;&gt;125 -->
<g id="edge2" class="edge">
<title>122&#45;&gt;125</title>
<path fill="none" stroke="black" d="M648.8,-88.41C639.89,-76.17 627.71,-59.45 617.54,-45.49"/>
<polygon fill="black" stroke="black" points="620.49,-43.6 611.78,-37.57 614.84,-47.72 620.49,-43.6"/>
<text text-anchor="middle" x="675.89" y="-57.2" font-family="Times New Roman,serif" font-size="14.00">graphAnd_133</text>
</g>
<!-- 125&#45;&gt;143 -->
<g id="edge11" class="edge">
<title>125&#45;&gt;143</title>
<path fill="none" stroke="black" d="M593.1,-36.39C588.42,-53.73 582.25,-81.22 582.25,-105.5 582.25,-396 582.25,-396 582.25,-396 582.25,-421 581.62,-448.86 580.93,-471.69"/>
<polygon fill="black" stroke="black" points="577.44,-471.51 580.62,-481.61 584.43,-471.73 577.44,-471.51"/>
<text text-anchor="middle" x="622.75" y="-234.2" font-family="Times New Roman,serif" font-size="14.00">graphAnd_156</text>
</g>
</g>
</svg>
