<?xml version="1.0" encoding="UTF-8" standalone="no"?>
<!DOCTYPE svg PUBLIC "-//W3C//DTD SVG 1.1//EN"
 "http://www.w3.org/Graphics/SVG/1.1/DTD/svg11.dtd">
<!-- Generated by graphviz version 12.2.1 (20241206.2353)
 -->
<!-- Title: CLG Pages: 1 -->
<svg width="1296pt" height="1604pt"
 viewBox="0.00 0.00 1295.62 1603.80" xmlns="http://www.w3.org/2000/svg" xmlns:xlink="http://www.w3.org/1999/xlink">
<g id="graph0" class="graph" transform="scale(1 1) rotate(0) translate(4 1599.8)">
<title>CLG</title>
<polygon fill="white" stroke="none" points="-4,4 -4,-1599.8 1291.62,-1599.8 1291.62,4 -4,4"/>
<!-- 66 -->
<g id="node1" class="node">
<title>66</title>
<polygon fill="yellow" stroke="black" points="1194.12,-768.5 1116.62,-768.5 1116.62,-732.5 1194.12,-732.5 1194.12,-768.5"/>
<text text-anchor="middle" x="1155.38" y="-745.45" font-family="Times New Roman,serif" font-size="14.00">acc3 = true</text>
<text text-anchor="middle" x="1105.38" y="-771.7" font-family="Times New Roman,serif" font-size="14.00">[66]</text>
</g>
<!-- 71 -->
<g id="node3" class="node">
<title>71</title>
<polygon fill="#ff7256" stroke="black" points="1040.78,-644 988.58,-680 884.18,-680 831.98,-644 884.17,-608 988.57,-608 1040.78,-644"/>
<text text-anchor="middle" x="936.38" y="-663.7" font-family="Times New Roman,serif" font-size="14.00">i = 1</text>
<text text-anchor="middle" x="936.38" y="-647.2" font-family="Times New Roman,serif" font-size="14.00">i&lt;Sequence{0..dim3}</text>
<text text-anchor="middle" x="936.38" y="-630.7" font-family="Times New Roman,serif" font-size="14.00">Accumulator: acc3 = true</text>
<text text-anchor="middle" x="936.38" y="-614.2" font-family="Times New Roman,serif" font-size="14.00">Loop Var: it3</text>
<text text-anchor="middle" x="820.73" y="-683.2" font-family="Times New Roman,serif" font-size="14.00">[71]</text>
</g>
<!-- 66&#45;&gt;71 -->
<g id="edge3" class="edge">
<title>66&#45;&gt;71</title>
<path fill="none" stroke="black" d="M1118.72,-732.01C1088.56,-717.62 1044.9,-696.78 1007.86,-679.11"/>
<polygon fill="black" stroke="black" points="1009.51,-676.02 998.98,-674.87 1006.49,-682.34 1009.51,-676.02"/>
<text text-anchor="middle" x="1115.41" y="-701.2" font-family="Times New Roman,serif" font-size="14.00">graphAnd_69</text>
</g>
<!-- 69 -->
<g id="node2" class="node">
<title>69</title>
<polygon fill="yellow" stroke="black" points="959.25,-540 561.5,-540 561.5,-499 959.25,-499 959.25,-540"/>
<text text-anchor="middle" x="760.38" y="-522.7" font-family="Times New Roman,serif" font-size="14.00">acc3 and</text>
<text text-anchor="middle" x="760.38" y="-506.2" font-family="Times New Roman,serif" font-size="14.00">result.datas[it][it2][it3] = self.datas[it][it2][it3] + arg.datas[it][it2][it3]</text>
<text text-anchor="middle" x="550.25" y="-543.2" font-family="Times New Roman,serif" font-size="14.00">[69]</text>
</g>
<!-- 69&#45;&gt;71 -->
<g id="edge2" class="edge">
<title>69&#45;&gt;71</title>
<path fill="none" stroke="black" d="M801.69,-540.49C819.37,-549.7 839.93,-561.28 857.38,-573.5 868.83,-581.52 880.5,-590.96 891.22,-600.24"/>
<polygon fill="black" stroke="black" points="888.65,-602.64 898.47,-606.63 893.28,-597.39 888.65,-602.64"/>
<text text-anchor="middle" x="905.04" y="-576.7" font-family="Times New Roman,serif" font-size="14.00">iterate_67</text>
</g>
<!-- 71&#45;&gt;69 -->
<g id="edge1" class="edge">
<title>71&#45;&gt;69</title>
<path fill="none" stroke="black" d="M862.06,-622.91C841.56,-614.95 820.32,-604.22 803.38,-590 790.64,-579.32 780.56,-563.86 773.36,-550.23"/>
<polygon fill="black" stroke="black" points="776.68,-549.04 769.1,-541.64 770.41,-552.15 776.68,-549.04"/>
<text text-anchor="middle" x="830.38" y="-576.7" font-family="Times New Roman,serif" font-size="14.00">iterate_66</text>
</g>
<!-- 75 -->
<g id="node5" class="node">
<title>75</title>
<polygon fill="#ff7256" stroke="black" points="1185.78,-519.5 1133.58,-555.5 1029.17,-555.5 976.98,-519.5 1029.17,-483.5 1133.57,-483.5 1185.78,-519.5"/>
<text text-anchor="middle" x="1081.38" y="-539.2" font-family="Times New Roman,serif" font-size="14.00">i = 1</text>
<text text-anchor="middle" x="1081.38" y="-522.7" font-family="Times New Roman,serif" font-size="14.00">i&lt;Sequence{0..dim2}</text>
<text text-anchor="middle" x="1081.38" y="-506.2" font-family="Times New Roman,serif" font-size="14.00">Accumulator: acc2 = true</text>
<text text-anchor="middle" x="1081.38" y="-489.7" font-family="Times New Roman,serif" font-size="14.00">Loop Var: it2</text>
<text text-anchor="middle" x="965.73" y="-558.7" font-family="Times New Roman,serif" font-size="14.00">[75]</text>
</g>
<!-- 71&#45;&gt;75 -->
<g id="edge6" class="edge">
<title>71&#45;&gt;75</title>
<path fill="none" stroke="black" d="M978.32,-607.57C994.7,-593.73 1013.63,-577.74 1030.76,-563.26"/>
<polygon fill="black" stroke="black" points="1032.99,-565.96 1038.37,-556.83 1028.48,-560.61 1032.99,-565.96"/>
<text text-anchor="middle" x="1044.56" y="-576.7" font-family="Times New Roman,serif" font-size="14.00">iterate_75</text>
</g>
<!-- 73 -->
<g id="node4" class="node">
<title>73</title>
<polygon fill="yellow" stroke="black" points="1141.5,-415.5 1069.25,-415.5 1069.25,-374.5 1141.5,-374.5 1141.5,-415.5"/>
<text text-anchor="middle" x="1105.38" y="-398.2" font-family="Times New Roman,serif" font-size="14.00">acc2 and</text>
<text text-anchor="middle" x="1105.38" y="-381.7" font-family="Times New Roman,serif" font-size="14.00">IterateExp</text>
<text text-anchor="middle" x="1058" y="-418.7" font-family="Times New Roman,serif" font-size="14.00">[73]</text>
</g>
<!-- 60 -->
<g id="node27" class="node">
<title>60</title>
<polygon fill="yellow" stroke="black" points="1175.38,-304 1051.38,-304 1051.38,-268 1175.38,-268 1175.38,-304"/>
<text text-anchor="middle" x="1113.38" y="-280.95" font-family="Times New Roman,serif" font-size="14.00">Sequence{0..dim3}</text>
<text text-anchor="middle" x="1040.12" y="-307.2" font-family="Times New Roman,serif" font-size="14.00">[60]</text>
</g>
<!-- 73&#45;&gt;60 -->
<g id="edge4" class="edge">
<title>73&#45;&gt;60</title>
<path fill="none" stroke="black" d="M1106.86,-374.12C1108.09,-357.67 1109.86,-334.07 1111.24,-315.58"/>
<polygon fill="black" stroke="black" points="1114.71,-316.04 1111.97,-305.8 1107.73,-315.51 1114.71,-316.04"/>
<text text-anchor="middle" x="1147.68" y="-327.7" font-family="Times New Roman,serif" font-size="14.00">graphAnd_72</text>
</g>
<!-- 75&#45;&gt;73 -->
<g id="edge5" class="edge">
<title>75&#45;&gt;73</title>
<path fill="none" stroke="black" d="M1088.32,-483.07C1091.8,-465.27 1095.99,-443.91 1099.34,-426.8"/>
<polygon fill="black" stroke="black" points="1102.73,-427.71 1101.22,-417.22 1095.86,-426.36 1102.73,-427.71"/>
<text text-anchor="middle" x="1121.81" y="-452.2" font-family="Times New Roman,serif" font-size="14.00">iterate_74</text>
</g>
<!-- 79 -->
<g id="node7" class="node">
<title>79</title>
<polygon fill="#ff7256" stroke="black" points="887.77,-395 835.58,-431 731.18,-431 678.98,-395 731.17,-359 835.57,-359 887.77,-395"/>
<text text-anchor="middle" x="783.38" y="-414.7" font-family="Times New Roman,serif" font-size="14.00">i = 1</text>
<text text-anchor="middle" x="783.38" y="-398.2" font-family="Times New Roman,serif" font-size="14.00">i&lt;Sequence{0..dim1}</text>
<text text-anchor="middle" x="783.38" y="-381.7" font-family="Times New Roman,serif" font-size="14.00">Accumulator: acc = true</text>
<text text-anchor="middle" x="783.38" y="-365.2" font-family="Times New Roman,serif" font-size="14.00">Loop Var: it</text>
<text text-anchor="middle" x="667.73" y="-434.2" font-family="Times New Roman,serif" font-size="14.00">[79]</text>
</g>
<!-- 75&#45;&gt;79 -->
<g id="edge10" class="edge">
<title>75&#45;&gt;79</title>
<path fill="none" stroke="black" d="M1011.54,-495.33C997.35,-491.06 982.45,-486.88 968.38,-483.5 922.76,-472.54 906.81,-485.49 864.38,-465.5 850.21,-458.83 836.57,-448.99 824.66,-438.8"/>
<polygon fill="black" stroke="black" points="827.23,-436.4 817.43,-432.37 822.57,-441.63 827.23,-436.4"/>
<text text-anchor="middle" x="891.38" y="-452.2" font-family="Times New Roman,serif" font-size="14.00">iterate_83</text>
</g>
<!-- 77 -->
<g id="node6" class="node">
<title>77</title>
<polygon fill="yellow" stroke="black" points="845.5,-306.5 773.25,-306.5 773.25,-265.5 845.5,-265.5 845.5,-306.5"/>
<text text-anchor="middle" x="809.38" y="-289.2" font-family="Times New Roman,serif" font-size="14.00">acc and</text>
<text text-anchor="middle" x="809.38" y="-272.7" font-family="Times New Roman,serif" font-size="14.00">IterateExp</text>
<text text-anchor="middle" x="762" y="-309.7" font-family="Times New Roman,serif" font-size="14.00">[77]</text>
</g>
<!-- 51 -->
<g id="node24" class="node">
<title>51</title>
<polygon fill="yellow" stroke="black" points="901.38,-213 777.38,-213 777.38,-177 901.38,-177 901.38,-213"/>
<text text-anchor="middle" x="839.38" y="-189.95" font-family="Times New Roman,serif" font-size="14.00">Sequence{0..dim2}</text>
<text text-anchor="middle" x="766.12" y="-216.2" font-family="Times New Roman,serif" font-size="14.00">[51]</text>
</g>
<!-- 77&#45;&gt;51 -->
<g id="edge8" class="edge">
<title>77&#45;&gt;51</title>
<path fill="none" stroke="black" d="M816.03,-265.25C820.13,-253.09 825.45,-237.31 829.98,-223.88"/>
<polygon fill="black" stroke="black" points="833.19,-225.32 833.06,-214.73 826.55,-223.08 833.19,-225.32"/>
<text text-anchor="middle" x="864.19" y="-234.2" font-family="Times New Roman,serif" font-size="14.00">graphAnd_80</text>
</g>
<!-- 79&#45;&gt;77 -->
<g id="edge9" class="edge">
<title>79&#45;&gt;77</title>
<path fill="none" stroke="black" d="M791.96,-358.67C795.18,-345.43 798.8,-330.51 801.91,-317.73"/>
<polygon fill="black" stroke="black" points="805.27,-318.71 804.23,-308.16 798.47,-317.06 805.27,-318.71"/>
<text text-anchor="middle" x="827.22" y="-327.7" font-family="Times New Roman,serif" font-size="14.00">iterate_82</text>
</g>
<!-- 81 -->
<g id="node11" class="node">
<title>81</title>
<polygon fill="aquamarine" stroke="black" points="519.38,-293.2 512.17,-286 519.38,-278.8 526.58,-286 519.38,-293.2"/>
<text text-anchor="middle" x="497.18" y="-296.4" font-family="Times New Roman,serif" font-size="14.00">&lt;81&gt;</text>
</g>
<!-- 79&#45;&gt;81 -->
<g id="edge19" class="edge">
<title>79&#45;&gt;81</title>
<path fill="none" stroke="black" d="M718.12,-367.55C656.65,-342.64 568.98,-307.1 534.31,-293.05"/>
<polygon fill="black" stroke="black" points="536.06,-289.99 525.48,-289.48 533.44,-296.48 536.06,-289.99"/>
<text text-anchor="middle" x="682.12" y="-327.7" font-family="Times New Roman,serif" font-size="14.00">merge1_92</text>
</g>
<!-- 15 -->
<g id="node8" class="node">
<title>15</title>
<polygon fill="yellow" stroke="black" points="474.12,-1265 330.62,-1265 330.62,-1229 474.12,-1229 474.12,-1265"/>
<text text-anchor="middle" x="402.38" y="-1241.95" font-family="Times New Roman,serif" font-size="14.00">exception=&quot;Exception&quot;</text>
<text text-anchor="middle" x="319.38" y="-1268.2" font-family="Times New Roman,serif" font-size="14.00">[15]</text>
</g>
<!-- 15&#45;&gt;81 -->
<g id="edge20" class="edge">
<title>15&#45;&gt;81</title>
<path fill="none" stroke="black" d="M411.21,-1228.76C420.06,-1209.88 432.38,-1178.45 432.38,-1149.75 432.38,-1149.75 432.38,-1149.75 432.38,-394 432.38,-348.12 481.13,-310.96 505.65,-295.19"/>
<polygon fill="black" stroke="black" points="507.19,-298.35 513.89,-290.14 503.53,-292.38 507.19,-298.35"/>
<text text-anchor="middle" x="463.12" y="-833.95" font-family="Times New Roman,serif" font-size="14.00">merge2_93</text>
</g>
<!-- 16 -->
<g id="node9" class="node">
<title>16</title>
<ellipse fill="black" stroke="black" cx="519.38" cy="-195" rx="7.2" ry="7.2"/>
<ellipse fill="none" stroke="black" cx="519.38" cy="-195" rx="11.2" ry="11.2"/>
<text text-anchor="middle" x="498.05" y="-209.4" font-family="Times New Roman,serif" font-size="14.00">[&#45;1]</text>
</g>
<!-- 80 -->
<g id="node10" class="node">
<title>80</title>
<polygon fill="aquamarine" stroke="black" points="434.38,-1512.4 427.18,-1505.2 434.38,-1498 441.57,-1505.2 434.38,-1512.4"/>
<text text-anchor="middle" x="412.18" y="-1515.6" font-family="Times New Roman,serif" font-size="14.00">&lt;80&gt;</text>
</g>
<!-- 18 -->
<g id="node12" class="node">
<title>18</title>
<polygon fill="yellow" stroke="black" points="426.25,-1445.5 22.5,-1445.5 22.5,-1371.5 426.25,-1371.5 426.25,-1445.5"/>
<text text-anchor="middle" x="224.38" y="-1428.2" font-family="Times New Roman,serif" font-size="14.00">arg.datas.getDimension() &lt;&gt; self.datas.getDimension() or</text>
<text text-anchor="middle" x="224.38" y="-1411.7" font-family="Times New Roman,serif" font-size="14.00">arg.datas.getDimensionSizes(0) &lt;&gt; self.datas.getDimensionSizes(0) or</text>
<text text-anchor="middle" x="224.38" y="-1395.2" font-family="Times New Roman,serif" font-size="14.00">arg.datas.getDimensionSizes(1) &lt;&gt; self.datas.getDimensionSizes(1) or</text>
<text text-anchor="middle" x="224.38" y="-1378.7" font-family="Times New Roman,serif" font-size="14.00">arg.datas.getDimensionSizes(2) &lt;&gt; self.datas.getDimensionSizes(2)</text>
<text text-anchor="middle" x="11.25" y="-1448.7" font-family="Times New Roman,serif" font-size="14.00">[18]</text>
</g>
<!-- 80&#45;&gt;18 -->
<g id="edge18" class="edge">
<title>80&#45;&gt;18</title>
<path fill="none" stroke="black" d="M429.99,-1502.22C414.87,-1495.4 363.24,-1472.12 315.5,-1450.59"/>
<polygon fill="black" stroke="black" points="317.01,-1447.43 306.45,-1446.51 314.13,-1453.81 317.01,-1447.43"/>
<text text-anchor="middle" x="403.18" y="-1466.7" font-family="Times New Roman,serif" font-size="14.00">split2_91</text>
</g>
<!-- 21 -->
<g id="node14" class="node">
<title>21</title>
<polygon fill="yellow" stroke="black" points="848.25,-1445.5 444.5,-1445.5 444.5,-1371.5 848.25,-1371.5 848.25,-1445.5"/>
<text text-anchor="middle" x="646.38" y="-1428.2" font-family="Times New Roman,serif" font-size="14.00">arg.datas.getDimension() = self.datas.getDimension() and</text>
<text text-anchor="middle" x="646.38" y="-1411.7" font-family="Times New Roman,serif" font-size="14.00">arg.datas.getDimensionSizes(0) = self.datas.getDimensionSizes(0) and</text>
<text text-anchor="middle" x="646.38" y="-1395.2" font-family="Times New Roman,serif" font-size="14.00">arg.datas.getDimensionSizes(1) = self.datas.getDimensionSizes(1) and</text>
<text text-anchor="middle" x="646.38" y="-1378.7" font-family="Times New Roman,serif" font-size="14.00">arg.datas.getDimensionSizes(2) = self.datas.getDimensionSizes(2)</text>
<text text-anchor="middle" x="433.25" y="-1448.7" font-family="Times New Roman,serif" font-size="14.00">[21]</text>
</g>
<!-- 80&#45;&gt;21 -->
<g id="edge17" class="edge">
<title>80&#45;&gt;21</title>
<path fill="none" stroke="black" d="M438.8,-1502.22C454.1,-1495.39 506.41,-1472.02 554.68,-1450.46"/>
<polygon fill="black" stroke="black" points="555.83,-1453.78 563.53,-1446.51 552.97,-1447.39 555.83,-1453.78"/>
<text text-anchor="middle" x="546.51" y="-1466.7" font-family="Times New Roman,serif" font-size="14.00">split1_90</text>
</g>
<!-- 81&#45;&gt;16 -->
<g id="edge21" class="edge">
<title>81&#45;&gt;16</title>
<path fill="none" stroke="black" d="M519.38,-278.31C519.38,-265.65 519.38,-237.68 519.38,-217.86"/>
<polygon fill="black" stroke="black" points="522.88,-218.04 519.38,-208.04 515.88,-218.04 522.88,-218.04"/>
<text text-anchor="middle" x="565.12" y="-234.2" font-family="Times New Roman,serif" font-size="14.00">graphOr_end_94</text>
</g>
<!-- 18&#45;&gt;15 -->
<g id="edge13" class="edge">
<title>18&#45;&gt;15</title>
<path fill="none" stroke="black" d="M264.77,-1371.31C298.23,-1341.32 344.92,-1299.48 374.39,-1273.07"/>
<polygon fill="black" stroke="black" points="376.72,-1275.69 381.83,-1266.41 372.04,-1270.48 376.72,-1275.69"/>
<text text-anchor="middle" x="339.09" y="-1340.2" font-family="Times New Roman,serif" font-size="14.00">graphAnd_87</text>
</g>
<!-- 20 -->
<g id="node13" class="node">
<title>20</title>
<ellipse fill="black" stroke="black" cx="434.38" cy="-1572.1" rx="7.2" ry="7.2"/>
<text text-anchor="middle" x="419.3" y="-1582.5" font-family="Times New Roman,serif" font-size="14.00">[0]</text>
</g>
<!-- 20&#45;&gt;80 -->
<g id="edge15" class="edge">
<title>20&#45;&gt;80</title>
<path fill="none" stroke="black" d="M434.38,-1564.64C434.38,-1555.31 434.38,-1537.71 434.38,-1524.25"/>
<polygon fill="black" stroke="black" points="437.88,-1524.54 434.38,-1514.54 430.88,-1524.54 437.88,-1524.54"/>
<text text-anchor="middle" x="482" y="-1533.6" font-family="Times New Roman,serif" font-size="14.00">graphOr_start_89</text>
</g>
<!-- 24 -->
<g id="node15" class="node">
<title>24</title>
<polygon fill="yellow" stroke="black" points="771.5,-1319 519.25,-1319 519.25,-1283 771.5,-1283 771.5,-1319"/>
<text text-anchor="middle" x="645.38" y="-1295.95" font-family="Times New Roman,serif" font-size="14.00">dim1 = arg.datas.getDimensionSizes(0) &#45; 1</text>
<text text-anchor="middle" x="508" y="-1322.2" font-family="Times New Roman,serif" font-size="14.00">[24]</text>
</g>
<!-- 21&#45;&gt;24 -->
<g id="edge14" class="edge">
<title>21&#45;&gt;24</title>
<path fill="none" stroke="black" d="M646.03,-1371.19C645.9,-1357.91 645.76,-1343.09 645.65,-1330.58"/>
<polygon fill="black" stroke="black" points="649.15,-1330.9 645.55,-1320.93 642.15,-1330.97 649.15,-1330.9"/>
<text text-anchor="middle" x="682.97" y="-1340.2" font-family="Times New Roman,serif" font-size="14.00">graphAnd_88</text>
</g>
<!-- 27 -->
<g id="node16" class="node">
<title>27</title>
<polygon fill="yellow" stroke="black" points="748.38,-1211 540.38,-1211 540.38,-1175 748.38,-1175 748.38,-1211"/>
<text text-anchor="middle" x="644.38" y="-1187.95" font-family="Times New Roman,serif" font-size="14.00">arg.datas.getDimensionSizes(0) &#45; 1</text>
<text text-anchor="middle" x="529.12" y="-1214.2" font-family="Times New Roman,serif" font-size="14.00">[27]</text>
</g>
<!-- 24&#45;&gt;27 -->
<g id="edge16" class="edge">
<title>24&#45;&gt;27</title>
<path fill="none" stroke="black" d="M645.21,-1282.97C645.06,-1266.76 644.83,-1242.06 644.65,-1222.79"/>
<polygon fill="black" stroke="black" points="648.15,-1222.82 644.55,-1212.85 641.15,-1222.89 648.15,-1222.82"/>
<text text-anchor="middle" x="682.15" y="-1241.95" font-family="Times New Roman,serif" font-size="14.00">graphAnd_26</text>
</g>
<!-- 30 -->
<g id="node17" class="node">
<title>30</title>
<polygon fill="yellow" stroke="black" points="770.5,-1122.5 518.25,-1122.5 518.25,-1086.5 770.5,-1086.5 770.5,-1122.5"/>
<text text-anchor="middle" x="644.38" y="-1099.45" font-family="Times New Roman,serif" font-size="14.00">dim2 = arg.datas.getDimensionSizes(1) &#45; 1</text>
<text text-anchor="middle" x="507" y="-1125.7" font-family="Times New Roman,serif" font-size="14.00">[30]</text>
</g>
<!-- 27&#45;&gt;30 -->
<g id="edge24" class="edge">
<title>27&#45;&gt;30</title>
<path fill="none" stroke="black" d="M644.38,-1174.91C644.38,-1163.26 644.38,-1147.55 644.38,-1134.02"/>
<polygon fill="black" stroke="black" points="647.88,-1134.36 644.38,-1124.36 640.88,-1134.36 647.88,-1134.36"/>
<text text-anchor="middle" x="681.5" y="-1143.7" font-family="Times New Roman,serif" font-size="14.00">graphAnd_37</text>
</g>
<!-- 33 -->
<g id="node18" class="node">
<title>33</title>
<polygon fill="yellow" stroke="black" points="744.38,-1034 536.38,-1034 536.38,-998 744.38,-998 744.38,-1034"/>
<text text-anchor="middle" x="640.38" y="-1010.95" font-family="Times New Roman,serif" font-size="14.00">arg.datas.getDimensionSizes(1) &#45; 1</text>
<text text-anchor="middle" x="525.12" y="-1037.2" font-family="Times New Roman,serif" font-size="14.00">[33]</text>
</g>
<!-- 30&#45;&gt;33 -->
<g id="edge22" class="edge">
<title>30&#45;&gt;33</title>
<path fill="none" stroke="black" d="M643.58,-1086.41C643.05,-1074.76 642.32,-1059.05 641.69,-1045.52"/>
<polygon fill="black" stroke="black" points="645.21,-1045.69 641.25,-1035.86 638.21,-1046.01 645.21,-1045.69"/>
<text text-anchor="middle" x="679.86" y="-1055.2" font-family="Times New Roman,serif" font-size="14.00">graphAnd_31</text>
</g>
<!-- 36 -->
<g id="node19" class="node">
<title>36</title>
<polygon fill="yellow" stroke="black" points="764.5,-945.5 512.25,-945.5 512.25,-909.5 764.5,-909.5 764.5,-945.5"/>
<text text-anchor="middle" x="638.38" y="-922.45" font-family="Times New Roman,serif" font-size="14.00">dim3 = arg.datas.getDimensionSizes(2) &#45; 1</text>
<text text-anchor="middle" x="501" y="-948.7" font-family="Times New Roman,serif" font-size="14.00">[36]</text>
</g>
<!-- 33&#45;&gt;36 -->
<g id="edge25" class="edge">
<title>33&#45;&gt;36</title>
<path fill="none" stroke="black" d="M639.98,-997.91C639.71,-986.26 639.35,-970.55 639.03,-957.02"/>
<polygon fill="black" stroke="black" points="642.54,-957.28 638.81,-947.36 635.54,-957.44 642.54,-957.28"/>
<text text-anchor="middle" x="676.68" y="-966.7" font-family="Times New Roman,serif" font-size="14.00">graphAnd_38</text>
</g>
<!-- 39 -->
<g id="node20" class="node">
<title>39</title>
<polygon fill="yellow" stroke="black" points="735.38,-857 527.38,-857 527.38,-821 735.38,-821 735.38,-857"/>
<text text-anchor="middle" x="631.38" y="-833.95" font-family="Times New Roman,serif" font-size="14.00">arg.datas.getDimensionSizes(2) &#45; 1</text>
<text text-anchor="middle" x="516.12" y="-860.2" font-family="Times New Roman,serif" font-size="14.00">[39]</text>
</g>
<!-- 36&#45;&gt;39 -->
<g id="edge23" class="edge">
<title>36&#45;&gt;39</title>
<path fill="none" stroke="black" d="M636.99,-909.41C636.05,-897.76 634.78,-882.05 633.68,-868.52"/>
<polygon fill="black" stroke="black" points="637.2,-868.54 632.9,-858.86 630.22,-869.11 637.2,-868.54"/>
<text text-anchor="middle" x="672.63" y="-878.2" font-family="Times New Roman,serif" font-size="14.00">graphAnd_36</text>
</g>
<!-- 42 -->
<g id="node21" class="node">
<title>42</title>
<polygon fill="yellow" stroke="black" points="631.38,-768.5 507.38,-768.5 507.38,-732.5 631.38,-732.5 631.38,-768.5"/>
<text text-anchor="middle" x="569.38" y="-745.45" font-family="Times New Roman,serif" font-size="14.00">Sequence{0..dim1}</text>
<text text-anchor="middle" x="496.12" y="-771.7" font-family="Times New Roman,serif" font-size="14.00">[42]</text>
</g>
<!-- 39&#45;&gt;42 -->
<g id="edge12" class="edge">
<title>39&#45;&gt;42</title>
<path fill="none" stroke="black" d="M619.13,-820.91C610.35,-808.67 598.37,-791.95 588.36,-777.99"/>
<polygon fill="black" stroke="black" points="591.36,-776.17 582.69,-770.08 585.67,-780.25 591.36,-776.17"/>
<text text-anchor="middle" x="643.05" y="-789.7" font-family="Times New Roman,serif" font-size="14.00">graphAnd_86</text>
</g>
<!-- 45 -->
<g id="node22" class="node">
<title>45</title>
<polygon fill="yellow" stroke="black" points="556.38,-662 502.38,-662 502.38,-626 556.38,-626 556.38,-662"/>
<text text-anchor="middle" x="529.38" y="-638.95" font-family="Times New Roman,serif" font-size="14.00">it</text>
<text text-anchor="middle" x="491.12" y="-665.2" font-family="Times New Roman,serif" font-size="14.00">[45]</text>
</g>
<!-- 42&#45;&gt;45 -->
<g id="edge26" class="edge">
<title>42&#45;&gt;45</title>
<path fill="none" stroke="black" d="M562.77,-732.24C556.6,-716.13 547.29,-691.81 540.07,-672.93"/>
<polygon fill="black" stroke="black" points="543.37,-671.78 536.53,-663.7 536.84,-674.29 543.37,-671.78"/>
<text text-anchor="middle" x="592.42" y="-701.2" font-family="Times New Roman,serif" font-size="14.00">graphAnd_45</text>
</g>
<!-- 48 -->
<g id="node23" class="node">
<title>48</title>
<polygon fill="yellow" stroke="black" points="543.75,-537.5 473,-537.5 473,-501.5 543.75,-501.5 543.75,-537.5"/>
<text text-anchor="middle" x="508.38" y="-514.45" font-family="Times New Roman,serif" font-size="14.00">acc = true</text>
<text text-anchor="middle" x="461.75" y="-540.7" font-family="Times New Roman,serif" font-size="14.00">[48]</text>
</g>
<!-- 45&#45;&gt;48 -->
<g id="edge27" class="edge">
<title>45&#45;&gt;48</title>
<path fill="none" stroke="black" d="M526.41,-625.71C522.99,-605.74 517.3,-572.58 513.23,-548.83"/>
<polygon fill="black" stroke="black" points="516.72,-548.46 511.58,-539.2 509.82,-549.64 516.72,-548.46"/>
<text text-anchor="middle" x="557.26" y="-576.7" font-family="Times New Roman,serif" font-size="14.00">graphAnd_46</text>
</g>
<!-- 48&#45;&gt;79 -->
<g id="edge11" class="edge">
<title>48&#45;&gt;79</title>
<path fill="none" stroke="black" d="M527.59,-501.08C534.98,-494.98 543.72,-488.42 552.38,-483.5 598.7,-457.16 654.47,-435.78 699.61,-420.74"/>
<polygon fill="black" stroke="black" points="700.7,-424.07 709.11,-417.63 698.52,-417.42 700.7,-424.07"/>
<text text-anchor="middle" x="656.44" y="-452.2" font-family="Times New Roman,serif" font-size="14.00">graphAnd_85</text>
</g>
<!-- 54 -->
<g id="node25" class="node">
<title>54</title>
<polygon fill="yellow" stroke="black" points="868.38,-124.5 814.38,-124.5 814.38,-88.5 868.38,-88.5 868.38,-124.5"/>
<text text-anchor="middle" x="841.38" y="-101.45" font-family="Times New Roman,serif" font-size="14.00">it2</text>
<text text-anchor="middle" x="803.12" y="-127.7" font-family="Times New Roman,serif" font-size="14.00">[54]</text>
</g>
<!-- 51&#45;&gt;54 -->
<g id="edge28" class="edge">
<title>51&#45;&gt;54</title>
<path fill="none" stroke="black" d="M839.77,-176.91C840.04,-165.26 840.4,-149.55 840.72,-136.02"/>
<polygon fill="black" stroke="black" points="844.21,-136.44 840.94,-126.36 837.21,-136.28 844.21,-136.44"/>
<text text-anchor="middle" x="877.68" y="-145.7" font-family="Times New Roman,serif" font-size="14.00">graphAnd_53</text>
</g>
<!-- 57 -->
<g id="node26" class="node">
<title>57</title>
<polygon fill="yellow" stroke="black" points="925.12,-36 847.62,-36 847.62,0 925.12,0 925.12,-36"/>
<text text-anchor="middle" x="886.38" y="-12.95" font-family="Times New Roman,serif" font-size="14.00">acc2 = true</text>
<text text-anchor="middle" x="836.38" y="-39.2" font-family="Times New Roman,serif" font-size="14.00">[57]</text>
</g>
<!-- 54&#45;&gt;57 -->
<g id="edge29" class="edge">
<title>54&#45;&gt;57</title>
<path fill="none" stroke="black" d="M838.95,-88.39C838.25,-77.92 838.81,-64.56 844.12,-54 845.89,-50.49 848.18,-47.2 850.79,-44.16"/>
<polygon fill="black" stroke="black" points="853.07,-46.82 857.71,-37.3 848.14,-41.85 853.07,-46.82"/>
<text text-anchor="middle" x="881.25" y="-57.2" font-family="Times New Roman,serif" font-size="14.00">graphAnd_54</text>
</g>
<!-- 57&#45;&gt;75 -->
<g id="edge7" class="edge">
<title>57&#45;&gt;75</title>
<path fill="none" stroke="black" d="M905.12,-36.23C910.01,-41.53 914.88,-47.65 918.38,-54 929.81,-74.78 932.38,-81.78 932.38,-105.5 932.38,-396 932.38,-396 932.38,-396 932.38,-437.96 968.07,-468.19 1004.52,-488.13"/>
<polygon fill="black" stroke="black" points="1002.46,-491 1012.94,-492.52 1005.7,-484.79 1002.46,-491"/>
<text text-anchor="middle" x="969.5" y="-234.2" font-family="Times New Roman,serif" font-size="14.00">graphAnd_77</text>
</g>
<!-- 63 -->
<g id="node28" class="node">
<title>63</title>
<polygon fill="yellow" stroke="black" points="1190.38,-213 1136.38,-213 1136.38,-177 1190.38,-177 1190.38,-213"/>
<text text-anchor="middle" x="1163.38" y="-189.95" font-family="Times New Roman,serif" font-size="14.00">it3</text>
<text text-anchor="middle" x="1125.12" y="-216.2" font-family="Times New Roman,serif" font-size="14.00">[63]</text>
</g>
<!-- 60&#45;&gt;63 -->
<g id="edge30" class="edge">
<title>60&#45;&gt;63</title>
<path fill="none" stroke="black" d="M1114.41,-267.98C1115.71,-256.84 1118.62,-242.31 1125.12,-231 1127.07,-227.62 1129.45,-224.38 1132.06,-221.34"/>
<polygon fill="black" stroke="black" points="1134.37,-223.99 1138.83,-214.38 1129.35,-219.11 1134.37,-223.99"/>
<text text-anchor="middle" x="1162.25" y="-234.2" font-family="Times New Roman,serif" font-size="14.00">graphAnd_61</text>
</g>
<!-- 63&#45;&gt;66 -->
<g id="edge31" class="edge">
<title>63&#45;&gt;66</title>
<path fill="none" stroke="black" d="M1184.93,-213.23C1190.31,-218.44 1195.61,-224.52 1199.38,-231 1211.84,-252.43 1213.38,-260.21 1213.38,-285 1213.38,-645 1213.38,-645 1213.38,-645 1213.38,-674.56 1195.42,-703.57 1179.49,-723.5"/>
<polygon fill="black" stroke="black" points="1176.87,-721.18 1173.12,-731.09 1182.23,-725.68 1176.87,-721.18"/>
<text text-anchor="middle" x="1250.5" y="-452.2" font-family="Times New Roman,serif" font-size="14.00">graphAnd_62</text>
</g>
</g>
</svg>
