<?xml version="1.0" encoding="UTF-8" standalone="no"?>
<!DOCTYPE svg PUBLIC "-//W3C//DTD SVG 1.1//EN"
 "http://www.w3.org/Graphics/SVG/1.1/DTD/svg11.dtd">
<!-- Generated by graphviz version 12.2.1 (20241206.2353)
 -->
<!-- Title: CLG Pages: 1 -->
<svg width="246pt" height="348pt"
 viewBox="0.00 0.00 246.00 348.30" xmlns="http://www.w3.org/2000/svg" xmlns:xlink="http://www.w3.org/1999/xlink">
<g id="graph0" class="graph" transform="scale(1 1) rotate(0) translate(4 344.3)">
<title>CLG</title>
<polygon fill="white" stroke="none" points="-4,4 -4,-344.3 242,-344.3 242,4 -4,4"/>
<!-- 18 -->
<g id="node1" class="node">
<title>18</title>
<ellipse fill="black" stroke="black" cx="130.25" cy="-316.6" rx="7.2" ry="7.2"/>
<text text-anchor="middle" x="115.17" y="-327" font-family="Times New Roman,serif" font-size="14.00">[0]</text>
</g>
<!-- 19 -->
<g id="node2" class="node">
<title>19</title>
<polygon fill="yellow" stroke="black" points="234.62,-272.4 25.88,-272.4 25.88,-236.4 234.62,-236.4 234.62,-272.4"/>
<text text-anchor="middle" x="130.25" y="-249.35" font-family="Times New Roman,serif" font-size="14.00">self.data.getDimensionSizes(1) &gt; 0</text>
<text text-anchor="middle" x="14.62" y="-275.6" font-family="Times New Roman,serif" font-size="14.00">[19]</text>
</g>
<!-- 18&#45;&gt;19 -->
<g id="edge4" class="edge">
<title>18&#45;&gt;19</title>
<path fill="none" stroke="black" d="M130.25,-309.16C130.25,-303.1 130.25,-293.59 130.25,-284.24"/>
<polygon fill="black" stroke="black" points="133.75,-284.28 130.25,-274.28 126.75,-284.28 133.75,-284.28"/>
</g>
<!-- 22 -->
<g id="node3" class="node">
<title>22</title>
<polygon fill="yellow" stroke="black" points="238,-183.9 22.5,-183.9 22.5,-147.9 238,-147.9 238,-183.9"/>
<text text-anchor="middle" x="130.25" y="-160.85" font-family="Times New Roman,serif" font-size="14.00">self.data.getDimensionSizes(1) &lt; 10</text>
<text text-anchor="middle" x="11.25" y="-187.1" font-family="Times New Roman,serif" font-size="14.00">[22]</text>
</g>
<!-- 19&#45;&gt;22 -->
<g id="edge1" class="edge">
<title>19&#45;&gt;22</title>
<path fill="none" stroke="black" d="M130.25,-236.31C130.25,-224.66 130.25,-208.95 130.25,-195.42"/>
<polygon fill="black" stroke="black" points="133.75,-195.76 130.25,-185.76 126.75,-195.76 133.75,-195.76"/>
<text text-anchor="middle" x="167.38" y="-205.1" font-family="Times New Roman,serif" font-size="14.00">graphAnd#17</text>
</g>
<!-- 13 -->
<g id="node4" class="node">
<title>13</title>
<polygon fill="yellow" stroke="black" points="198.62,-95.4 61.88,-95.4 61.88,-59.4 198.62,-59.4 198.62,-95.4"/>
<text text-anchor="middle" x="130.25" y="-72.35" font-family="Times New Roman,serif" font-size="14.00">self.data = inputArray</text>
<text text-anchor="middle" x="50.62" y="-98.6" font-family="Times New Roman,serif" font-size="14.00">[13]</text>
</g>
<!-- 22&#45;&gt;13 -->
<g id="edge2" class="edge">
<title>22&#45;&gt;13</title>
<path fill="none" stroke="black" d="M130.25,-147.81C130.25,-136.16 130.25,-120.45 130.25,-106.92"/>
<polygon fill="black" stroke="black" points="133.75,-107.26 130.25,-97.26 126.75,-107.26 133.75,-107.26"/>
<text text-anchor="middle" x="167.38" y="-116.6" font-family="Times New Roman,serif" font-size="14.00">graphAnd#18</text>
</g>
<!-- 14 -->
<g id="node5" class="node">
<title>14</title>
<ellipse fill="black" stroke="black" cx="130.25" cy="-11.2" rx="7.2" ry="7.2"/>
<ellipse fill="none" stroke="black" cx="130.25" cy="-11.2" rx="11.2" ry="11.2"/>
<text text-anchor="middle" x="108.92" y="-25.6" font-family="Times New Roman,serif" font-size="14.00">[&#45;1]</text>
</g>
<!-- 13&#45;&gt;14 -->
<g id="edge3" class="edge">
<title>13&#45;&gt;14</title>
<path fill="none" stroke="black" d="M130.25,-59.2C130.25,-51.5 130.25,-42.34 130.25,-34.15"/>
<polygon fill="black" stroke="black" points="133.75,-34.32 130.25,-24.32 126.75,-34.32 133.75,-34.32"/>
</g>
</g>
</svg>
