<?xml version="1.0" encoding="UTF-8" standalone="no"?>
<!DOCTYPE svg PUBLIC "-//W3C//DTD SVG 1.1//EN"
 "http://www.w3.org/Graphics/SVG/1.1/DTD/svg11.dtd">
<!-- Generated by graphviz version 12.2.1 (20241206.2353)
 -->
<!-- Title: CLG Pages: 1 -->
<svg width="706pt" height="1278pt"
 viewBox="0.00 0.00 705.50 1277.90" xmlns="http://www.w3.org/2000/svg" xmlns:xlink="http://www.w3.org/1999/xlink">
<g id="graph0" class="graph" transform="scale(1 1) rotate(0) translate(4 1273.9)">
<title>CLG</title>
<polygon fill="white" stroke="none" points="-4,4 -4,-1273.9 701.5,-1273.9 701.5,4 -4,4"/>
<!-- 130 -->
<g id="node1" class="node">
<title>130</title>
<polygon fill="yellow" stroke="black" points="456.38,-1253.4 326.38,-1253.4 326.38,-1217.4 456.38,-1217.4 456.38,-1253.4"/>
<text text-anchor="middle" x="391.38" y="-1230.35" font-family="Times New Roman,serif" font-size="14.00">idx2 &lt;= dim3 &#45; 1+ 1</text>
<text text-anchor="middle" x="311.75" y="-1256.6" font-family="Times New Roman,serif" font-size="14.00">[130]</text>
</g>
<!-- 133 -->
<g id="node2" class="node">
<title>133</title>
<polygon fill="yellow" stroke="black" points="385.38,-1164.9 231.38,-1164.9 231.38,-1128.9 385.38,-1128.9 385.38,-1164.9"/>
<text text-anchor="middle" x="308.38" y="-1141.85" font-family="Times New Roman,serif" font-size="14.00">it3 = Sequence{1..dim3}</text>
<text text-anchor="middle" x="216.75" y="-1168.1" font-family="Times New Roman,serif" font-size="14.00">[133]</text>
</g>
<!-- 130&#45;&gt;133 -->
<g id="edge1" class="edge">
<title>130&#45;&gt;133</title>
<path fill="none" stroke="black" d="M368.22,-1217.15C361.54,-1211.76 354.43,-1205.6 348.38,-1199.4 340.9,-1191.75 333.5,-1182.74 327.13,-1174.41"/>
<polygon fill="black" stroke="black" points="330.11,-1172.55 321.33,-1166.61 324.49,-1176.73 330.11,-1172.55"/>
<text text-anchor="middle" x="388.88" y="-1186.1" font-family="Times New Roman,serif" font-size="14.00">graphAnd#130</text>
</g>
<!-- 136 -->
<g id="node3" class="node">
<title>136</title>
<polygon fill="yellow" stroke="black" points="407.5,-1076.4 29.25,-1076.4 29.25,-1040.4 407.5,-1040.4 407.5,-1076.4"/>
<text text-anchor="middle" x="218.38" y="-1053.35" font-family="Times New Roman,serif" font-size="14.00">result.data[it][it2][it3] = self.data[it][it2][it3] &#45; arg.data[it][it2][it3]</text>
<text text-anchor="middle" x="14.62" y="-1079.6" font-family="Times New Roman,serif" font-size="14.00">[136]</text>
</g>
<!-- 133&#45;&gt;136 -->
<g id="edge2" class="edge">
<title>133&#45;&gt;136</title>
<path fill="none" stroke="black" d="M290.59,-1128.81C277.49,-1116.22 259.45,-1098.88 244.68,-1084.69"/>
<polygon fill="black" stroke="black" points="247.15,-1082.21 237.52,-1077.8 242.3,-1087.25 247.15,-1082.21"/>
<text text-anchor="middle" x="311.94" y="-1097.6" font-family="Times New Roman,serif" font-size="14.00">graphAnd#131</text>
</g>
<!-- 139 -->
<g id="node4" class="node">
<title>139</title>
<polygon fill="yellow" stroke="black" points="375.5,-987.9 273.25,-987.9 273.25,-951.9 375.5,-951.9 375.5,-987.9"/>
<text text-anchor="middle" x="324.38" y="-964.85" font-family="Times New Roman,serif" font-size="14.00">idx2 = idx2 + 1</text>
<text text-anchor="middle" x="258.62" y="-991.1" font-family="Times New Roman,serif" font-size="14.00">[139]</text>
</g>
<!-- 136&#45;&gt;139 -->
<g id="edge3" class="edge">
<title>136&#45;&gt;139</title>
<path fill="none" stroke="black" d="M239.57,-1040.1C255.31,-1027.26 277,-1009.56 294.5,-995.28"/>
<polygon fill="black" stroke="black" points="296.51,-998.16 302.04,-989.12 292.08,-992.73 296.51,-998.16"/>
<text text-anchor="middle" x="321.37" y="-1009.1" font-family="Times New Roman,serif" font-size="14.00">graphAnd#132</text>
</g>
<!-- 141 -->
<g id="node5" class="node">
<title>141</title>
<polygon fill="aquamarine" stroke="black" points="384.38,-899.4 377.18,-892.2 384.38,-885 391.57,-892.2 384.38,-899.4"/>
<text text-anchor="middle" x="358.8" y="-902.6" font-family="Times New Roman,serif" font-size="14.00">&lt;141&gt;</text>
</g>
<!-- 139&#45;&gt;141 -->
<g id="edge5" class="edge">
<title>139&#45;&gt;141</title>
<path fill="none" stroke="black" d="M337.99,-951.72C349.01,-937.82 364.28,-918.56 374.24,-905.99"/>
<polygon fill="black" stroke="black" points="376.98,-908.17 380.45,-898.15 371.49,-903.82 376.98,-908.17"/>
<text text-anchor="middle" x="395.34" y="-920.6" font-family="Times New Roman,serif" font-size="14.00">iterate#135</text>
</g>
<!-- 141&#45;&gt;130 -->
<g id="edge4" class="edge">
<title>141&#45;&gt;130</title>
<path fill="none" stroke="black" d="M389.72,-894.56C399.18,-897.27 418.89,-904.2 429.38,-917.4 444.13,-935.97 443.38,-945.18 443.38,-968.9 443.38,-1147.9 443.38,-1147.9 443.38,-1147.9 443.38,-1171.62 441.69,-1179.13 429.38,-1199.4 427.36,-1202.72 424.94,-1205.92 422.3,-1208.94"/>
<polygon fill="black" stroke="black" points="420.02,-1206.27 415.55,-1215.87 425.03,-1211.15 420.02,-1206.27"/>
<text text-anchor="middle" x="473.75" y="-1053.35" font-family="Times New Roman,serif" font-size="14.00">iterate#134</text>
</g>
<!-- 127 -->
<g id="node27" class="node">
<title>127</title>
<polygon fill="yellow" stroke="black" points="368.25,-832.5 246.5,-832.5 246.5,-796.5 368.25,-796.5 368.25,-832.5"/>
<text text-anchor="middle" x="307.38" y="-809.45" font-family="Times New Roman,serif" font-size="14.00">idx2 &gt; dim3 &#45; 1+ 1</text>
<text text-anchor="middle" x="231.88" y="-835.7" font-family="Times New Roman,serif" font-size="14.00">[127]</text>
</g>
<!-- 141&#45;&gt;127 -->
<g id="edge6" class="edge">
<title>141&#45;&gt;127</title>
<path fill="none" stroke="black" d="M380.04,-889.09C372.61,-885.35 357.19,-876.97 346.38,-867 338.47,-859.71 331.01,-850.65 324.78,-842.18"/>
<polygon fill="black" stroke="black" points="327.79,-840.38 319.17,-834.22 322.07,-844.41 327.79,-840.38"/>
<text text-anchor="middle" x="386.88" y="-853.7" font-family="Times New Roman,serif" font-size="14.00">graphAnd#137</text>
</g>
<!-- 143 -->
<g id="node6" class="node">
<title>143</title>
<polygon fill="yellow" stroke="black" points="289.5,-744 187.25,-744 187.25,-708 289.5,-708 289.5,-744"/>
<text text-anchor="middle" x="238.38" y="-720.95" font-family="Times New Roman,serif" font-size="14.00">idx1 = idx1 + 1</text>
<text text-anchor="middle" x="172.62" y="-747.2" font-family="Times New Roman,serif" font-size="14.00">[143]</text>
</g>
<!-- 145 -->
<g id="node8" class="node">
<title>145</title>
<polygon fill="aquamarine" stroke="black" points="221.38,-644.7 214.18,-637.5 221.38,-630.3 228.57,-637.5 221.38,-644.7"/>
<text text-anchor="middle" x="195.8" y="-647.9" font-family="Times New Roman,serif" font-size="14.00">&lt;145&gt;</text>
</g>
<!-- 143&#45;&gt;145 -->
<g id="edge12" class="edge">
<title>143&#45;&gt;145</title>
<path fill="none" stroke="black" d="M235.02,-707.91C232.02,-692.68 227.67,-670.51 224.69,-655.35"/>
<polygon fill="black" stroke="black" points="228.15,-654.81 222.78,-645.67 221.28,-656.16 228.15,-654.81"/>
<text text-anchor="middle" x="261.77" y="-676.7" font-family="Times New Roman,serif" font-size="14.00">iterate#146</text>
</g>
<!-- 81 -->
<g id="node7" class="node">
<title>81</title>
<ellipse fill="black" stroke="black" cx="583.38" cy="-892.2" rx="7.2" ry="7.2"/>
<text text-anchor="middle" x="568.3" y="-902.6" font-family="Times New Roman,serif" font-size="14.00">[0]</text>
</g>
<!-- 82 -->
<g id="node9" class="node">
<title>82</title>
<polygon fill="yellow" stroke="black" points="697.5,-832.5 469.25,-832.5 469.25,-796.5 697.5,-796.5 697.5,-832.5"/>
<text text-anchor="middle" x="583.38" y="-809.45" font-family="Times New Roman,serif" font-size="14.00">dim1 = arg.data.getDimensionSizes(1)</text>
<text text-anchor="middle" x="458" y="-835.7" font-family="Times New Roman,serif" font-size="14.00">[82]</text>
</g>
<!-- 81&#45;&gt;82 -->
<g id="edge14" class="edge">
<title>81&#45;&gt;82</title>
<path fill="none" stroke="black" d="M583.38,-884.75C583.38,-875.77 583.38,-858.96 583.38,-844.15"/>
<polygon fill="black" stroke="black" points="586.88,-844.41 583.38,-834.41 579.88,-844.41 586.88,-844.41"/>
</g>
<!-- 112 -->
<g id="node22" class="node">
<title>112</title>
<polygon fill="yellow" stroke="black" points="411.25,-567 289.5,-567 289.5,-531 411.25,-531 411.25,-567"/>
<text text-anchor="middle" x="350.38" y="-543.95" font-family="Times New Roman,serif" font-size="14.00">idx1 &gt; dim2 &#45; 1+ 1</text>
<text text-anchor="middle" x="274.88" y="-570.2" font-family="Times New Roman,serif" font-size="14.00">[112]</text>
</g>
<!-- 145&#45;&gt;112 -->
<g id="edge13" class="edge">
<title>145&#45;&gt;112</title>
<path fill="none" stroke="black" d="M225.76,-634.1C235.68,-628.62 260.51,-614.65 280.38,-601.5 293.28,-592.96 307.08,-582.99 318.99,-574.11"/>
<polygon fill="black" stroke="black" points="320.98,-576.99 326.87,-568.19 316.77,-571.4 320.98,-576.99"/>
<text text-anchor="middle" x="344.43" y="-588.2" font-family="Times New Roman,serif" font-size="14.00">graphAnd#148</text>
</g>
<!-- 115 -->
<g id="node23" class="node">
<title>115</title>
<polygon fill="yellow" stroke="black" points="271.38,-567 141.38,-567 141.38,-531 271.38,-531 271.38,-567"/>
<text text-anchor="middle" x="206.38" y="-543.95" font-family="Times New Roman,serif" font-size="14.00">idx1 &lt;= dim2 &#45; 1+ 1</text>
<text text-anchor="middle" x="126.75" y="-570.2" font-family="Times New Roman,serif" font-size="14.00">[115]</text>
</g>
<!-- 145&#45;&gt;115 -->
<g id="edge11" class="edge">
<title>145&#45;&gt;115</title>
<path fill="none" stroke="black" d="M220.39,-630.82C218.58,-620.35 214.59,-597.35 211.33,-578.55"/>
<polygon fill="black" stroke="black" points="214.78,-578 209.63,-568.75 207.89,-579.2 214.78,-578"/>
<text text-anchor="middle" x="245.59" y="-588.2" font-family="Times New Roman,serif" font-size="14.00">iterate#145</text>
</g>
<!-- 85 -->
<g id="node11" class="node">
<title>85</title>
<polygon fill="yellow" stroke="black" points="697.5,-744 469.25,-744 469.25,-708 697.5,-708 697.5,-744"/>
<text text-anchor="middle" x="583.38" y="-720.95" font-family="Times New Roman,serif" font-size="14.00">dim2 = arg.data.getDimensionSizes(2)</text>
<text text-anchor="middle" x="458" y="-747.2" font-family="Times New Roman,serif" font-size="14.00">[85]</text>
</g>
<!-- 82&#45;&gt;85 -->
<g id="edge19" class="edge">
<title>82&#45;&gt;85</title>
<path fill="none" stroke="black" d="M583.38,-796.41C583.38,-784.76 583.38,-769.05 583.38,-755.52"/>
<polygon fill="black" stroke="black" points="586.88,-755.86 583.38,-745.86 579.88,-755.86 586.88,-755.86"/>
<text text-anchor="middle" x="620.5" y="-765.2" font-family="Times New Roman,serif" font-size="14.00">graphAnd#91</text>
</g>
<!-- 147 -->
<g id="node10" class="node">
<title>147</title>
<polygon fill="yellow" stroke="black" points="413.5,-478.5 311.25,-478.5 311.25,-442.5 413.5,-442.5 413.5,-478.5"/>
<text text-anchor="middle" x="362.38" y="-455.45" font-family="Times New Roman,serif" font-size="14.00">idx0 = idx0 + 1</text>
<text text-anchor="middle" x="296.62" y="-481.7" font-family="Times New Roman,serif" font-size="14.00">[147]</text>
</g>
<!-- 149 -->
<g id="node12" class="node">
<title>149</title>
<polygon fill="aquamarine" stroke="black" points="488.38,-379.2 481.18,-372 488.38,-364.8 495.57,-372 488.38,-379.2"/>
<text text-anchor="middle" x="462.8" y="-382.4" font-family="Times New Roman,serif" font-size="14.00">&lt;149&gt;</text>
</g>
<!-- 147&#45;&gt;149 -->
<g id="edge22" class="edge">
<title>147&#45;&gt;149</title>
<path fill="none" stroke="black" d="M387.57,-442.2C413.99,-424.07 454.48,-396.27 475.19,-382.05"/>
<polygon fill="black" stroke="black" points="476.93,-385.1 483.19,-376.56 472.97,-379.33 476.93,-385.1"/>
<text text-anchor="middle" x="467.04" y="-411.2" font-family="Times New Roman,serif" font-size="14.00">iterate#157</text>
</g>
<!-- 88 -->
<g id="node13" class="node">
<title>88</title>
<polygon fill="yellow" stroke="black" points="697.5,-655.5 469.25,-655.5 469.25,-619.5 697.5,-619.5 697.5,-655.5"/>
<text text-anchor="middle" x="583.38" y="-632.45" font-family="Times New Roman,serif" font-size="14.00">dim3 = arg.data.getDimensionSizes(3)</text>
<text text-anchor="middle" x="458" y="-658.7" font-family="Times New Roman,serif" font-size="14.00">[88]</text>
</g>
<!-- 85&#45;&gt;88 -->
<g id="edge20" class="edge">
<title>85&#45;&gt;88</title>
<path fill="none" stroke="black" d="M583.38,-707.91C583.38,-696.26 583.38,-680.55 583.38,-667.02"/>
<polygon fill="black" stroke="black" points="586.88,-667.36 583.38,-657.36 579.88,-667.36 586.88,-667.36"/>
<text text-anchor="middle" x="620.5" y="-676.7" font-family="Times New Roman,serif" font-size="14.00">graphAnd#92</text>
</g>
<!-- 97 -->
<g id="node16" class="node">
<title>97</title>
<polygon fill="yellow" stroke="black" points="619.25,-301.5 497.5,-301.5 497.5,-265.5 619.25,-265.5 619.25,-301.5"/>
<text text-anchor="middle" x="558.38" y="-278.45" font-family="Times New Roman,serif" font-size="14.00">idx0 &gt; dim1 &#45; 1+ 1</text>
<text text-anchor="middle" x="486.25" y="-304.7" font-family="Times New Roman,serif" font-size="14.00">[97]</text>
</g>
<!-- 149&#45;&gt;97 -->
<g id="edge23" class="edge">
<title>149&#45;&gt;97</title>
<path fill="none" stroke="black" d="M492.97,-368.74C502.34,-363.93 523.79,-351.82 536.38,-336 541.87,-329.1 546.23,-320.62 549.58,-312.54"/>
<polygon fill="black" stroke="black" points="552.77,-313.99 552.99,-303.39 546.22,-311.54 552.77,-313.99"/>
<text text-anchor="middle" x="586.51" y="-322.7" font-family="Times New Roman,serif" font-size="14.00">graphAnd#159</text>
</g>
<!-- 100 -->
<g id="node18" class="node">
<title>100</title>
<polygon fill="yellow" stroke="black" points="469.38,-301.5 339.38,-301.5 339.38,-265.5 469.38,-265.5 469.38,-301.5"/>
<text text-anchor="middle" x="404.38" y="-278.45" font-family="Times New Roman,serif" font-size="14.00">idx0 &lt;= dim1 &#45; 1+ 1</text>
<text text-anchor="middle" x="324.75" y="-304.7" font-family="Times New Roman,serif" font-size="14.00">[100]</text>
</g>
<!-- 149&#45;&gt;100 -->
<g id="edge21" class="edge">
<title>149&#45;&gt;100</title>
<path fill="none" stroke="black" d="M486,-366.64C480.76,-357.3 467.5,-334.92 452.38,-319.5 448.79,-315.84 444.78,-312.28 440.65,-308.92"/>
<polygon fill="black" stroke="black" points="442.81,-306.16 432.75,-302.85 438.55,-311.71 442.81,-306.16"/>
<text text-anchor="middle" x="496.11" y="-322.7" font-family="Times New Roman,serif" font-size="14.00">iterate#156</text>
</g>
<!-- 94 -->
<g id="node15" class="node">
<title>94</title>
<polygon fill="yellow" stroke="black" points="603.75,-567 533,-567 533,-531 603.75,-531 603.75,-567"/>
<text text-anchor="middle" x="568.38" y="-543.95" font-family="Times New Roman,serif" font-size="14.00">acc = true</text>
<text text-anchor="middle" x="521.75" y="-570.2" font-family="Times New Roman,serif" font-size="14.00">[94]</text>
</g>
<!-- 88&#45;&gt;94 -->
<g id="edge25" class="edge">
<title>88&#45;&gt;94</title>
<path fill="none" stroke="black" d="M580.41,-619.41C578.39,-607.76 575.67,-592.05 573.32,-578.52"/>
<polygon fill="black" stroke="black" points="576.8,-578.1 571.64,-568.84 569.9,-579.29 576.8,-578.1"/>
<text text-anchor="middle" x="617.72" y="-588.2" font-family="Times New Roman,serif" font-size="14.00">graphAnd#161</text>
</g>
<!-- 91 -->
<g id="node14" class="node">
<title>91</title>
<polygon fill="yellow" stroke="black" points="572.62,-478.5 510.12,-478.5 510.12,-442.5 572.62,-442.5 572.62,-478.5"/>
<text text-anchor="middle" x="541.38" y="-455.45" font-family="Times New Roman,serif" font-size="14.00">idx0 = 1</text>
<text text-anchor="middle" x="498.88" y="-481.7" font-family="Times New Roman,serif" font-size="14.00">[91]</text>
</g>
<!-- 91&#45;&gt;149 -->
<g id="edge24" class="edge">
<title>91&#45;&gt;149</title>
<path fill="none" stroke="black" d="M530.9,-442.41C520.9,-426.09 506.02,-401.81 496.78,-386.71"/>
<polygon fill="black" stroke="black" points="499.98,-385.23 491.77,-378.54 494.01,-388.89 499.98,-385.23"/>
<text text-anchor="middle" x="560.12" y="-411.2" font-family="Times New Roman,serif" font-size="14.00">graphAnd#160</text>
</g>
<!-- 94&#45;&gt;91 -->
<g id="edge26" class="edge">
<title>94&#45;&gt;91</title>
<path fill="none" stroke="black" d="M563.04,-530.91C559.37,-519.14 554.4,-503.23 550.15,-489.61"/>
<polygon fill="black" stroke="black" points="553.56,-488.8 547.24,-480.29 546.88,-490.88 553.56,-488.8"/>
<text text-anchor="middle" x="594.42" y="-499.7" font-family="Times New Roman,serif" font-size="14.00">graphAnd#97</text>
</g>
<!-- 98 -->
<g id="node17" class="node">
<title>98</title>
<ellipse fill="black" stroke="black" cx="558.38" cy="-195" rx="7.2" ry="7.2"/>
<ellipse fill="none" stroke="black" cx="558.38" cy="-195" rx="11.2" ry="11.2"/>
<text text-anchor="middle" x="537.05" y="-209.4" font-family="Times New Roman,serif" font-size="14.00">[&#45;1]</text>
</g>
<!-- 97&#45;&gt;98 -->
<g id="edge27" class="edge">
<title>97&#45;&gt;98</title>
<path fill="none" stroke="black" d="M558.38,-265.41C558.38,-251.72 558.38,-232.42 558.38,-217.65"/>
<polygon fill="black" stroke="black" points="561.88,-218.04 558.38,-208.04 554.88,-218.04 561.88,-218.04"/>
</g>
<!-- 103 -->
<g id="node19" class="node">
<title>103</title>
<polygon fill="yellow" stroke="black" points="395,-213 247.75,-213 247.75,-177 395,-177 395,-213"/>
<text text-anchor="middle" x="321.38" y="-189.95" font-family="Times New Roman,serif" font-size="14.00">it = Sequence{1..dim1}</text>
<text text-anchor="middle" x="233.12" y="-216.2" font-family="Times New Roman,serif" font-size="14.00">[103]</text>
</g>
<!-- 100&#45;&gt;103 -->
<g id="edge16" class="edge">
<title>100&#45;&gt;103</title>
<path fill="none" stroke="black" d="M387.98,-265.41C375.89,-252.82 359.26,-235.48 345.64,-221.29"/>
<polygon fill="black" stroke="black" points="348.52,-219.23 339.07,-214.44 343.47,-224.08 348.52,-219.23"/>
<text text-anchor="middle" x="410.81" y="-234.2" font-family="Times New Roman,serif" font-size="14.00">graphAnd#152</text>
</g>
<!-- 109 -->
<g id="node21" class="node">
<title>109</title>
<polygon fill="yellow" stroke="black" points="335.12,-124.5 257.62,-124.5 257.62,-88.5 335.12,-88.5 335.12,-124.5"/>
<text text-anchor="middle" x="296.38" y="-101.45" font-family="Times New Roman,serif" font-size="14.00">acc2 = true</text>
<text text-anchor="middle" x="243" y="-127.7" font-family="Times New Roman,serif" font-size="14.00">[109]</text>
</g>
<!-- 103&#45;&gt;109 -->
<g id="edge17" class="edge">
<title>103&#45;&gt;109</title>
<path fill="none" stroke="black" d="M316.44,-176.91C313.03,-165.14 308.44,-149.23 304.5,-135.61"/>
<polygon fill="black" stroke="black" points="307.95,-134.94 301.81,-126.3 301.22,-136.88 307.95,-134.94"/>
<text text-anchor="middle" x="351.61" y="-145.7" font-family="Times New Roman,serif" font-size="14.00">graphAnd#153</text>
</g>
<!-- 106 -->
<g id="node20" class="node">
<title>106</title>
<polygon fill="yellow" stroke="black" points="158.62,-36 96.12,-36 96.12,0 158.62,0 158.62,-36"/>
<text text-anchor="middle" x="127.38" y="-12.95" font-family="Times New Roman,serif" font-size="14.00">idx1 = 1</text>
<text text-anchor="middle" x="81.5" y="-39.2" font-family="Times New Roman,serif" font-size="14.00">[106]</text>
</g>
<!-- 106&#45;&gt;145 -->
<g id="edge15" class="edge">
<title>106&#45;&gt;145</title>
<path fill="none" stroke="black" d="M122.22,-36.39C117.55,-53.73 111.38,-81.22 111.38,-105.5 111.38,-550 111.38,-550 111.38,-550 111.38,-597.19 174.71,-622.57 205.26,-632.07"/>
<polygon fill="black" stroke="black" points="204.04,-635.36 214.62,-634.76 205.98,-628.63 204.04,-635.36"/>
<text text-anchor="middle" x="151.88" y="-322.7" font-family="Times New Roman,serif" font-size="14.00">graphAnd#149</text>
</g>
<!-- 109&#45;&gt;106 -->
<g id="edge28" class="edge">
<title>109&#45;&gt;106</title>
<path fill="none" stroke="black" d="M262.58,-88.2C235.73,-74.46 198.04,-55.17 169.27,-40.44"/>
<polygon fill="black" stroke="black" points="170.95,-37.37 160.46,-35.93 167.76,-43.6 170.95,-37.37"/>
<text text-anchor="middle" x="267.51" y="-57.2" font-family="Times New Roman,serif" font-size="14.00">graphAnd#108</text>
</g>
<!-- 112&#45;&gt;147 -->
<g id="edge18" class="edge">
<title>112&#45;&gt;147</title>
<path fill="none" stroke="black" d="M346.54,-530.66C344.93,-520.59 343.93,-507.72 346.38,-496.5 346.89,-494.15 347.57,-491.78 348.36,-489.42"/>
<polygon fill="black" stroke="black" points="351.59,-490.78 352.13,-480.2 345.11,-488.13 351.59,-490.78"/>
<text text-anchor="middle" x="386.88" y="-499.7" font-family="Times New Roman,serif" font-size="14.00">graphAnd#154</text>
</g>
<!-- 118 -->
<g id="node24" class="node">
<title>118</title>
<polygon fill="yellow" stroke="black" points="293.38,-478.5 139.38,-478.5 139.38,-442.5 293.38,-442.5 293.38,-478.5"/>
<text text-anchor="middle" x="216.38" y="-455.45" font-family="Times New Roman,serif" font-size="14.00">it2 = Sequence{1..dim2}</text>
<text text-anchor="middle" x="124.75" y="-481.7" font-family="Times New Roman,serif" font-size="14.00">[118]</text>
</g>
<!-- 115&#45;&gt;118 -->
<g id="edge8" class="edge">
<title>115&#45;&gt;118</title>
<path fill="none" stroke="black" d="M208.35,-530.91C209.7,-519.26 211.51,-503.55 213.08,-490.02"/>
<polygon fill="black" stroke="black" points="216.52,-490.69 214.2,-480.35 209.57,-489.89 216.52,-490.69"/>
<text text-anchor="middle" x="252.77" y="-499.7" font-family="Times New Roman,serif" font-size="14.00">graphAnd#141</text>
</g>
<!-- 124 -->
<g id="node26" class="node">
<title>124</title>
<polygon fill="yellow" stroke="black" points="280.12,-390 202.62,-390 202.62,-354 280.12,-354 280.12,-390"/>
<text text-anchor="middle" x="241.38" y="-366.95" font-family="Times New Roman,serif" font-size="14.00">acc3 = true</text>
<text text-anchor="middle" x="188" y="-393.2" font-family="Times New Roman,serif" font-size="14.00">[124]</text>
</g>
<!-- 118&#45;&gt;124 -->
<g id="edge9" class="edge">
<title>118&#45;&gt;124</title>
<path fill="none" stroke="black" d="M221.31,-442.41C224.72,-430.64 229.31,-414.73 233.25,-401.11"/>
<polygon fill="black" stroke="black" points="236.53,-402.38 235.94,-391.8 229.8,-400.44 236.53,-402.38"/>
<text text-anchor="middle" x="271.61" y="-411.2" font-family="Times New Roman,serif" font-size="14.00">graphAnd#142</text>
</g>
<!-- 121 -->
<g id="node25" class="node">
<title>121</title>
<polygon fill="yellow" stroke="black" points="300.62,-301.5 238.12,-301.5 238.12,-265.5 300.62,-265.5 300.62,-301.5"/>
<text text-anchor="middle" x="269.38" y="-278.45" font-family="Times New Roman,serif" font-size="14.00">idx2 = 1</text>
<text text-anchor="middle" x="223.5" y="-304.7" font-family="Times New Roman,serif" font-size="14.00">[121]</text>
</g>
<!-- 121&#45;&gt;141 -->
<g id="edge7" class="edge">
<title>121&#45;&gt;141</title>
<path fill="none" stroke="black" d="M300.92,-293.39C350.58,-308.34 441.38,-339.92 441.38,-371 441.38,-815.5 441.38,-815.5 441.38,-815.5 441.38,-839.22 441.95,-848.29 427.38,-867 420.5,-875.83 409.44,-881.95 400.27,-885.82"/>
<polygon fill="black" stroke="black" points="399.09,-882.53 390.9,-889.24 401.5,-889.1 399.09,-882.53"/>
<text text-anchor="middle" x="481.88" y="-588.2" font-family="Times New Roman,serif" font-size="14.00">graphAnd#138</text>
</g>
<!-- 124&#45;&gt;121 -->
<g id="edge29" class="edge">
<title>124&#45;&gt;121</title>
<path fill="none" stroke="black" d="M246.91,-353.91C250.72,-342.14 255.87,-326.23 260.28,-312.61"/>
<polygon fill="black" stroke="black" points="263.54,-313.88 263.29,-303.29 256.88,-311.73 263.54,-313.88"/>
<text text-anchor="middle" x="298.38" y="-322.7" font-family="Times New Roman,serif" font-size="14.00">graphAnd#119</text>
</g>
<!-- 127&#45;&gt;143 -->
<g id="edge10" class="edge">
<title>127&#45;&gt;143</title>
<path fill="none" stroke="black" d="M293.74,-796.41C283.88,-784.05 270.38,-767.13 259.18,-753.08"/>
<polygon fill="black" stroke="black" points="262.13,-751.17 253.16,-745.53 256.66,-755.53 262.13,-751.17"/>
<text text-anchor="middle" x="319.56" y="-765.2" font-family="Times New Roman,serif" font-size="14.00">graphAnd#143</text>
</g>
</g>
</svg>
