<?xml version="1.0" encoding="UTF-8" standalone="no"?>
<!DOCTYPE svg PUBLIC "-//W3C//DTD SVG 1.1//EN"
 "http://www.w3.org/Graphics/SVG/1.1/DTD/svg11.dtd">
<!-- Generated by graphviz version 12.2.1 (20241206.2353)
 -->
<!-- Title: CLG Pages: 1 -->
<svg width="779pt" height="680pt"
 viewBox="0.00 0.00 779.00 680.00" xmlns="http://www.w3.org/2000/svg" xmlns:xlink="http://www.w3.org/1999/xlink">
<g id="graph0" class="graph" transform="scale(1 1) rotate(0) translate(4 676)">
<title>CLG</title>
<polygon fill="white" stroke="none" points="-4,4 -4,-676 775,-676 775,4 -4,4"/>
<!-- 34 -->
<g id="node1" class="node">
<title>34</title>
<polygon fill="yellow" stroke="black" points="100,-655.5 22.5,-655.5 22.5,-619.5 100,-619.5 100,-655.5"/>
<text text-anchor="middle" x="61.25" y="-632.45" font-family="Times New Roman,serif" font-size="14.00">acc2 = true</text>
<text text-anchor="middle" x="11.25" y="-658.7" font-family="Times New Roman,serif" font-size="14.00">[34]</text>
</g>
<!-- 31 -->
<g id="node19" class="node">
<title>31</title>
<polygon fill="yellow" stroke="black" points="378.5,-567 316,-567 316,-531 378.5,-531 378.5,-567"/>
<text text-anchor="middle" x="347.25" y="-543.95" font-family="Times New Roman,serif" font-size="14.00">idx1 = 1</text>
<text text-anchor="middle" x="304.75" y="-570.2" font-family="Times New Roman,serif" font-size="14.00">[31]</text>
</g>
<!-- 34&#45;&gt;31 -->
<g id="edge20" class="edge">
<title>34&#45;&gt;31</title>
<path fill="none" stroke="black" d="M100.42,-624.65C153.95,-608.46 249.59,-579.54 304.79,-562.84"/>
<polygon fill="black" stroke="black" points="305.58,-566.26 314.14,-560.01 303.56,-559.56 305.58,-566.26"/>
<text text-anchor="middle" x="266.99" y="-588.2" font-family="Times New Roman,serif" font-size="14.00">graphAnd#26</text>
</g>
<!-- 37 -->
<g id="node2" class="node">
<title>37</title>
<polygon fill="yellow" stroke="black" points="591.12,-390 469.38,-390 469.38,-354 591.12,-354 591.12,-390"/>
<text text-anchor="middle" x="530.25" y="-366.95" font-family="Times New Roman,serif" font-size="14.00">idx1 &gt; dim2 &#45; 1+ 1</text>
<text text-anchor="middle" x="458.12" y="-393.2" font-family="Times New Roman,serif" font-size="14.00">[37]</text>
</g>
<!-- 53 -->
<g id="node13" class="node">
<title>53</title>
<polygon fill="yellow" stroke="black" points="605.38,-301.5 503.12,-301.5 503.12,-265.5 605.38,-265.5 605.38,-301.5"/>
<text text-anchor="middle" x="554.25" y="-278.45" font-family="Times New Roman,serif" font-size="14.00">idx0 = idx0 + 1</text>
<text text-anchor="middle" x="491.88" y="-304.7" font-family="Times New Roman,serif" font-size="14.00">[53]</text>
</g>
<!-- 37&#45;&gt;53 -->
<g id="edge14" class="edge">
<title>37&#45;&gt;53</title>
<path fill="none" stroke="black" d="M534.99,-353.91C538.26,-342.14 542.67,-326.23 546.45,-312.61"/>
<polygon fill="black" stroke="black" points="549.73,-313.88 549.03,-303.31 542.99,-312.01 549.73,-313.88"/>
<text text-anchor="middle" x="581.52" y="-322.7" font-family="Times New Roman,serif" font-size="14.00">graphAnd#50</text>
</g>
<!-- 40 -->
<g id="node3" class="node">
<title>40</title>
<polygon fill="yellow" stroke="black" points="388.25,-390 258.25,-390 258.25,-354 388.25,-354 388.25,-390"/>
<text text-anchor="middle" x="323.25" y="-366.95" font-family="Times New Roman,serif" font-size="14.00">idx1 &lt;= dim2 &#45; 1+ 1</text>
<text text-anchor="middle" x="247" y="-393.2" font-family="Times New Roman,serif" font-size="14.00">[40]</text>
</g>
<!-- 43 -->
<g id="node6" class="node">
<title>43</title>
<polygon fill="yellow" stroke="black" points="356.25,-301.5 202.25,-301.5 202.25,-265.5 356.25,-265.5 356.25,-301.5"/>
<text text-anchor="middle" x="279.25" y="-278.45" font-family="Times New Roman,serif" font-size="14.00">it2 = Sequence{1..dim2}</text>
<text text-anchor="middle" x="191" y="-304.7" font-family="Times New Roman,serif" font-size="14.00">[43]</text>
</g>
<!-- 40&#45;&gt;43 -->
<g id="edge1" class="edge">
<title>40&#45;&gt;43</title>
<path fill="none" stroke="black" d="M314.56,-353.91C308.45,-341.9 300.15,-325.59 293.13,-311.8"/>
<polygon fill="black" stroke="black" points="296.42,-310.53 288.76,-303.2 290.18,-313.7 296.42,-310.53"/>
<text text-anchor="middle" x="342.32" y="-322.7" font-family="Times New Roman,serif" font-size="14.00">graphAnd#37</text>
</g>
<!-- 9 -->
<g id="node4" class="node">
<title>9</title>
<ellipse fill="black" stroke="black" cx="654.25" cy="-637.5" rx="7.2" ry="7.2"/>
<text text-anchor="middle" x="639.17" y="-647.9" font-family="Times New Roman,serif" font-size="14.00">[0]</text>
</g>
<!-- 10 -->
<g id="node5" class="node">
<title>10</title>
<polygon fill="yellow" stroke="black" points="771,-567 537.5,-567 537.5,-531 771,-531 771,-567"/>
<text text-anchor="middle" x="654.25" y="-543.95" font-family="Times New Roman,serif" font-size="14.00">dim1 = arg.datas.getDimensionSizes(1)</text>
<text text-anchor="middle" x="526.25" y="-570.2" font-family="Times New Roman,serif" font-size="14.00">[10]</text>
</g>
<!-- 9&#45;&gt;10 -->
<g id="edge2" class="edge">
<title>9&#45;&gt;10</title>
<path fill="none" stroke="black" d="M654.25,-630C654.25,-619.17 654.25,-596.82 654.25,-578.48"/>
<polygon fill="black" stroke="black" points="657.75,-578.69 654.25,-568.69 650.75,-578.69 657.75,-578.69"/>
</g>
<!-- 13 -->
<g id="node7" class="node">
<title>13</title>
<polygon fill="yellow" stroke="black" points="771,-478.5 537.5,-478.5 537.5,-442.5 771,-442.5 771,-478.5"/>
<text text-anchor="middle" x="654.25" y="-455.45" font-family="Times New Roman,serif" font-size="14.00">dim2 = arg.datas.getDimensionSizes(2)</text>
<text text-anchor="middle" x="526.25" y="-481.7" font-family="Times New Roman,serif" font-size="14.00">[13]</text>
</g>
<!-- 10&#45;&gt;13 -->
<g id="edge6" class="edge">
<title>10&#45;&gt;13</title>
<path fill="none" stroke="black" d="M654.25,-530.91C654.25,-519.26 654.25,-503.55 654.25,-490.02"/>
<polygon fill="black" stroke="black" points="657.75,-490.36 654.25,-480.36 650.75,-490.36 657.75,-490.36"/>
<text text-anchor="middle" x="691.38" y="-499.7" font-family="Times New Roman,serif" font-size="14.00">graphAnd#10</text>
</g>
<!-- 46 -->
<g id="node8" class="node">
<title>46</title>
<polygon fill="yellow" stroke="black" points="403.5,-213 77,-213 77,-177 403.5,-177 403.5,-213"/>
<text text-anchor="middle" x="240.25" y="-189.95" font-family="Times New Roman,serif" font-size="14.00">result.datas[it][it2] = self.datas[it][it2] * arg.datas[it][it2]</text>
<text text-anchor="middle" x="65.75" y="-216.2" font-family="Times New Roman,serif" font-size="14.00">[46]</text>
</g>
<!-- 43&#45;&gt;46 -->
<g id="edge3" class="edge">
<title>43&#45;&gt;46</title>
<path fill="none" stroke="black" d="M271.54,-265.41C266.18,-253.52 258.92,-237.41 252.74,-223.7"/>
<polygon fill="black" stroke="black" points="256,-222.41 248.69,-214.73 249.61,-225.28 256,-222.41"/>
<text text-anchor="middle" x="300.37" y="-234.2" font-family="Times New Roman,serif" font-size="14.00">graphAnd#38</text>
</g>
<!-- 19 -->
<g id="node11" class="node">
<title>19</title>
<polygon fill="yellow" stroke="black" points="689.62,-390 618.88,-390 618.88,-354 689.62,-354 689.62,-390"/>
<text text-anchor="middle" x="654.25" y="-366.95" font-family="Times New Roman,serif" font-size="14.00">acc = true</text>
<text text-anchor="middle" x="607.62" y="-393.2" font-family="Times New Roman,serif" font-size="14.00">[19]</text>
</g>
<!-- 13&#45;&gt;19 -->
<g id="edge19" class="edge">
<title>13&#45;&gt;19</title>
<path fill="none" stroke="black" d="M654.25,-442.41C654.25,-430.76 654.25,-415.05 654.25,-401.52"/>
<polygon fill="black" stroke="black" points="657.75,-401.86 654.25,-391.86 650.75,-401.86 657.75,-401.86"/>
<text text-anchor="middle" x="691.38" y="-411.2" font-family="Times New Roman,serif" font-size="14.00">graphAnd#57</text>
</g>
<!-- 49 -->
<g id="node10" class="node">
<title>49</title>
<polygon fill="yellow" stroke="black" points="304.38,-124.5 202.12,-124.5 202.12,-88.5 304.38,-88.5 304.38,-124.5"/>
<text text-anchor="middle" x="253.25" y="-101.45" font-family="Times New Roman,serif" font-size="14.00">idx1 = idx1 + 1</text>
<text text-anchor="middle" x="190.88" y="-127.7" font-family="Times New Roman,serif" font-size="14.00">[49]</text>
</g>
<!-- 46&#45;&gt;49 -->
<g id="edge4" class="edge">
<title>46&#45;&gt;49</title>
<path fill="none" stroke="black" d="M242.82,-176.91C244.57,-165.26 246.93,-149.55 248.96,-136.02"/>
<polygon fill="black" stroke="black" points="252.39,-136.76 250.42,-126.35 245.47,-135.72 252.39,-136.76"/>
<text text-anchor="middle" x="285.04" y="-145.7" font-family="Times New Roman,serif" font-size="14.00">graphAnd#39</text>
</g>
<!-- 16 -->
<g id="node9" class="node">
<title>16</title>
<polygon fill="yellow" stroke="black" points="685.5,-301.5 623,-301.5 623,-265.5 685.5,-265.5 685.5,-301.5"/>
<text text-anchor="middle" x="654.25" y="-278.45" font-family="Times New Roman,serif" font-size="14.00">idx0 = 1</text>
<text text-anchor="middle" x="611.75" y="-304.7" font-family="Times New Roman,serif" font-size="14.00">[16]</text>
</g>
<!-- 55 -->
<g id="node15" class="node">
<title>55</title>
<polygon fill="aquamarine" stroke="black" points="554.25,-202.2 547.05,-195 554.25,-187.8 561.45,-195 554.25,-202.2"/>
<text text-anchor="middle" x="532.05" y="-205.4" font-family="Times New Roman,serif" font-size="14.00">&lt;55&gt;</text>
</g>
<!-- 16&#45;&gt;55 -->
<g id="edge18" class="edge">
<title>16&#45;&gt;55</title>
<path fill="none" stroke="black" d="M642.68,-265.46C634.89,-254.77 623.93,-241.13 612.25,-231 598.93,-219.44 581.3,-209.41 568.99,-203.09"/>
<polygon fill="black" stroke="black" points="570.69,-200.02 560.17,-198.75 567.6,-206.3 570.69,-200.02"/>
<text text-anchor="middle" x="664.75" y="-234.2" font-family="Times New Roman,serif" font-size="14.00">graphAnd#56</text>
</g>
<!-- 51 -->
<g id="node12" class="node">
<title>51</title>
<polygon fill="aquamarine" stroke="black" points="383.25,-467.7 376.05,-460.5 383.25,-453.3 390.45,-460.5 383.25,-467.7"/>
<text text-anchor="middle" x="361.05" y="-470.9" font-family="Times New Roman,serif" font-size="14.00">&lt;51&gt;</text>
</g>
<!-- 49&#45;&gt;51 -->
<g id="edge7" class="edge">
<title>49&#45;&gt;51</title>
<path fill="none" stroke="black" d="M304.73,-121.77C357.31,-137.91 431.25,-165.65 431.25,-194 431.25,-373 431.25,-373 431.25,-373 431.25,-396.84 428.09,-403.81 416.25,-424.5 410.9,-433.85 402.56,-442.67 395.61,-449.11"/>
<polygon fill="black" stroke="black" points="393.32,-446.46 388.06,-455.65 397.91,-451.75 393.32,-446.46"/>
<text text-anchor="middle" x="458.25" y="-278.45" font-family="Times New Roman,serif" font-size="14.00">iterate#42</text>
</g>
<!-- 19&#45;&gt;16 -->
<g id="edge10" class="edge">
<title>19&#45;&gt;16</title>
<path fill="none" stroke="black" d="M654.25,-353.91C654.25,-342.26 654.25,-326.55 654.25,-313.02"/>
<polygon fill="black" stroke="black" points="657.75,-313.36 654.25,-303.36 650.75,-313.36 657.75,-313.36"/>
<text text-anchor="middle" x="691.38" y="-322.7" font-family="Times New Roman,serif" font-size="14.00">graphAnd#15</text>
</g>
<!-- 51&#45;&gt;37 -->
<g id="edge8" class="edge">
<title>51&#45;&gt;37</title>
<path fill="none" stroke="black" d="M387.49,-457.17C397.56,-451.61 423.7,-437.11 445.25,-424.5 460.74,-415.44 477.67,-405.24 492.32,-396.32"/>
<polygon fill="black" stroke="black" points="494.04,-399.37 500.76,-391.17 490.4,-393.4 494.04,-399.37"/>
<text text-anchor="middle" x="508.22" y="-411.2" font-family="Times New Roman,serif" font-size="14.00">graphAnd#44</text>
</g>
<!-- 51&#45;&gt;40 -->
<g id="edge5" class="edge">
<title>51&#45;&gt;40</title>
<path fill="none" stroke="black" d="M380.67,-455.78C374.04,-446.22 355.92,-420.1 341.8,-399.74"/>
<polygon fill="black" stroke="black" points="344.69,-397.76 336.11,-391.54 338.93,-401.75 344.69,-397.76"/>
<text text-anchor="middle" x="385.62" y="-411.2" font-family="Times New Roman,serif" font-size="14.00">iterate#41</text>
</g>
<!-- 53&#45;&gt;55 -->
<g id="edge16" class="edge">
<title>53&#45;&gt;55</title>
<path fill="none" stroke="black" d="M554.25,-265.41C554.25,-250.64 554.25,-229.33 554.25,-214.23"/>
<polygon fill="black" stroke="black" points="557.75,-214.39 554.25,-204.39 550.75,-214.39 557.75,-214.39"/>
<text text-anchor="middle" x="581.25" y="-234.2" font-family="Times New Roman,serif" font-size="14.00">iterate#53</text>
</g>
<!-- 22 -->
<g id="node14" class="node">
<title>22</title>
<polygon fill="yellow" stroke="black" points="615.12,-124.5 493.38,-124.5 493.38,-88.5 615.12,-88.5 615.12,-124.5"/>
<text text-anchor="middle" x="554.25" y="-101.45" font-family="Times New Roman,serif" font-size="14.00">idx0 &gt; dim1 &#45; 1+ 1</text>
<text text-anchor="middle" x="482.12" y="-127.7" font-family="Times New Roman,serif" font-size="14.00">[22]</text>
</g>
<!-- 23 -->
<g id="node16" class="node">
<title>23</title>
<ellipse fill="black" stroke="black" cx="554.25" cy="-18" rx="7.2" ry="7.2"/>
<ellipse fill="none" stroke="black" cx="554.25" cy="-18" rx="11.2" ry="11.2"/>
<text text-anchor="middle" x="532.92" y="-32.4" font-family="Times New Roman,serif" font-size="14.00">[&#45;1]</text>
</g>
<!-- 22&#45;&gt;23 -->
<g id="edge13" class="edge">
<title>22&#45;&gt;23</title>
<path fill="none" stroke="black" d="M554.25,-88.41C554.25,-74.72 554.25,-55.42 554.25,-40.65"/>
<polygon fill="black" stroke="black" points="557.75,-41.04 554.25,-31.04 550.75,-41.04 557.75,-41.04"/>
</g>
<!-- 55&#45;&gt;22 -->
<g id="edge17" class="edge">
<title>55&#45;&gt;22</title>
<path fill="none" stroke="black" d="M554.25,-187.21C554.25,-176.35 554.25,-154.45 554.25,-136.35"/>
<polygon fill="black" stroke="black" points="557.75,-136.39 554.25,-126.39 550.75,-136.39 557.75,-136.39"/>
<text text-anchor="middle" x="591.38" y="-145.7" font-family="Times New Roman,serif" font-size="14.00">graphAnd#55</text>
</g>
<!-- 25 -->
<g id="node17" class="node">
<title>25</title>
<polygon fill="yellow" stroke="black" points="457.25,-124.5 327.25,-124.5 327.25,-88.5 457.25,-88.5 457.25,-124.5"/>
<text text-anchor="middle" x="392.25" y="-101.45" font-family="Times New Roman,serif" font-size="14.00">idx0 &lt;= dim1 &#45; 1+ 1</text>
<text text-anchor="middle" x="316" y="-127.7" font-family="Times New Roman,serif" font-size="14.00">[25]</text>
</g>
<!-- 55&#45;&gt;25 -->
<g id="edge15" class="edge">
<title>55&#45;&gt;25</title>
<path fill="none" stroke="black" d="M549.92,-191.69C533.73,-183.04 475.63,-152.02 434.68,-130.16"/>
<polygon fill="black" stroke="black" points="436.48,-127.15 426.01,-125.53 433.18,-133.32 436.48,-127.15"/>
<text text-anchor="middle" x="514.76" y="-145.7" font-family="Times New Roman,serif" font-size="14.00">iterate#52</text>
</g>
<!-- 28 -->
<g id="node18" class="node">
<title>28</title>
<polygon fill="yellow" stroke="black" points="203.88,-36 56.62,-36 56.62,0 203.88,0 203.88,-36"/>
<text text-anchor="middle" x="130.25" y="-12.95" font-family="Times New Roman,serif" font-size="14.00">it = Sequence{1..dim1}</text>
<text text-anchor="middle" x="45.38" y="-39.2" font-family="Times New Roman,serif" font-size="14.00">[28]</text>
</g>
<!-- 25&#45;&gt;28 -->
<g id="edge11" class="edge">
<title>25&#45;&gt;28</title>
<path fill="none" stroke="black" d="M339.55,-88.1C297.44,-74.2 238.29,-54.67 193.61,-39.92"/>
<polygon fill="black" stroke="black" points="194.9,-36.66 184.31,-36.85 192.71,-43.31 194.9,-36.66"/>
<text text-anchor="middle" x="321.84" y="-57.2" font-family="Times New Roman,serif" font-size="14.00">graphAnd#48</text>
</g>
<!-- 28&#45;&gt;34 -->
<g id="edge12" class="edge">
<title>28&#45;&gt;34</title>
<path fill="none" stroke="black" d="M98.7,-36.24C75.96,-51.22 49.25,-75.26 49.25,-105.5 49.25,-550 49.25,-550 49.25,-550 49.25,-569.4 52.25,-591.01 55.25,-607.78"/>
<polygon fill="black" stroke="black" points="51.8,-608.38 57.1,-617.55 58.67,-607.07 51.8,-608.38"/>
<text text-anchor="middle" x="86.38" y="-322.7" font-family="Times New Roman,serif" font-size="14.00">graphAnd#49</text>
</g>
<!-- 31&#45;&gt;51 -->
<g id="edge9" class="edge">
<title>31&#45;&gt;51</title>
<path fill="none" stroke="black" d="M354.36,-530.91C360.96,-515.06 370.68,-491.71 376.99,-476.55"/>
<polygon fill="black" stroke="black" points="380.15,-478.06 380.76,-467.48 373.69,-475.37 380.15,-478.06"/>
<text text-anchor="middle" x="405.6" y="-499.7" font-family="Times New Roman,serif" font-size="14.00">graphAnd#45</text>
</g>
</g>
</svg>
