<?xml version="1.0" encoding="UTF-8" standalone="no"?>
<!DOCTYPE svg PUBLIC "-//W3C//DTD SVG 1.1//EN"
 "http://www.w3.org/Graphics/SVG/1.1/DTD/svg11.dtd">
<!-- Generated by graphviz version 12.2.1 (20241206.2353)
 -->
<!-- Title: CLG Pages: 1 -->
<svg width="393pt" height="710pt"
 viewBox="0.00 0.00 393.38 709.80" xmlns="http://www.w3.org/2000/svg" xmlns:xlink="http://www.w3.org/1999/xlink">
<g id="graph0" class="graph" transform="scale(1 1) rotate(0) translate(4 705.8)">
<title>CLG</title>
<polygon fill="white" stroke="none" points="-4,4 -4,-705.8 389.38,-705.8 389.38,4 -4,4"/>
<!-- 16 -->
<g id="node1" class="node">
<title>16</title>
<polygon fill="yellow" stroke="black" points="262.75,-545.4 192,-545.4 192,-509.4 262.75,-509.4 262.75,-545.4"/>
<text text-anchor="middle" x="227.38" y="-522.35" font-family="Times New Roman,serif" font-size="14.00">acc = true</text>
<text text-anchor="middle" x="180.75" y="-548.6" font-family="Times New Roman,serif" font-size="14.00">[16]</text>
</g>
<!-- 13 -->
<g id="node10" class="node">
<title>13</title>
<polygon fill="yellow" stroke="black" points="258.62,-456.9 196.12,-456.9 196.12,-420.9 258.62,-420.9 258.62,-456.9"/>
<text text-anchor="middle" x="227.38" y="-433.85" font-family="Times New Roman,serif" font-size="14.00">idx0 = 1</text>
<text text-anchor="middle" x="184.88" y="-460.1" font-family="Times New Roman,serif" font-size="14.00">[13]</text>
</g>
<!-- 16&#45;&gt;13 -->
<g id="edge7" class="edge">
<title>16&#45;&gt;13</title>
<path fill="none" stroke="black" d="M227.38,-509.31C227.38,-497.66 227.38,-481.95 227.38,-468.42"/>
<polygon fill="black" stroke="black" points="230.88,-468.76 227.38,-458.76 223.88,-468.76 230.88,-468.76"/>
<text text-anchor="middle" x="264.5" y="-478.1" font-family="Times New Roman,serif" font-size="14.00">graphAnd#12</text>
</g>
<!-- 33 -->
<g id="node2" class="node">
<title>33</title>
<polygon fill="aquamarine" stroke="black" points="227.38,-368.4 220.18,-361.2 227.38,-354 234.57,-361.2 227.38,-368.4"/>
<text text-anchor="middle" x="205.18" y="-371.6" font-family="Times New Roman,serif" font-size="14.00">&lt;33&gt;</text>
</g>
<!-- 19 -->
<g id="node3" class="node">
<title>19</title>
<polygon fill="yellow" stroke="black" points="144.25,-301.5 22.5,-301.5 22.5,-265.5 144.25,-265.5 144.25,-301.5"/>
<text text-anchor="middle" x="83.38" y="-278.45" font-family="Times New Roman,serif" font-size="14.00">idx0 &gt; dim1 &#45; 1+ 1</text>
<text text-anchor="middle" x="11.25" y="-304.7" font-family="Times New Roman,serif" font-size="14.00">[19]</text>
</g>
<!-- 33&#45;&gt;19 -->
<g id="edge9" class="edge">
<title>33&#45;&gt;19</title>
<path fill="none" stroke="black" d="M221.8,-359.2C208.58,-356.69 174.57,-349.32 149.12,-336 135.34,-328.78 121.56,-318.57 110.2,-309.14"/>
<polygon fill="black" stroke="black" points="112.67,-306.65 102.8,-302.8 108.12,-311.96 112.67,-306.65"/>
<text text-anchor="middle" x="186.25" y="-322.7" font-family="Times New Roman,serif" font-size="14.00">graphAnd#30</text>
</g>
<!-- 22 -->
<g id="node5" class="node">
<title>22</title>
<polygon fill="yellow" stroke="black" points="292.38,-301.5 162.38,-301.5 162.38,-265.5 292.38,-265.5 292.38,-301.5"/>
<text text-anchor="middle" x="227.38" y="-278.45" font-family="Times New Roman,serif" font-size="14.00">idx0 &lt;= dim1 &#45; 1+ 1</text>
<text text-anchor="middle" x="151.12" y="-304.7" font-family="Times New Roman,serif" font-size="14.00">[22]</text>
</g>
<!-- 33&#45;&gt;22 -->
<g id="edge6" class="edge">
<title>33&#45;&gt;22</title>
<path fill="none" stroke="black" d="M227.38,-353.48C227.38,-344.4 227.38,-327.65 227.38,-312.93"/>
<polygon fill="black" stroke="black" points="230.88,-313.26 227.38,-303.26 223.88,-313.26 230.88,-313.26"/>
<text text-anchor="middle" x="254.38" y="-322.7" font-family="Times New Roman,serif" font-size="14.00">iterate#27</text>
</g>
<!-- 20 -->
<g id="node4" class="node">
<title>20</title>
<ellipse fill="black" stroke="black" cx="83.38" cy="-195" rx="7.2" ry="7.2"/>
<ellipse fill="none" stroke="black" cx="83.38" cy="-195" rx="11.2" ry="11.2"/>
<text text-anchor="middle" x="62.05" y="-209.4" font-family="Times New Roman,serif" font-size="14.00">[&#45;1]</text>
</g>
<!-- 19&#45;&gt;20 -->
<g id="edge10" class="edge">
<title>19&#45;&gt;20</title>
<path fill="none" stroke="black" d="M83.38,-265.41C83.38,-251.72 83.38,-232.42 83.38,-217.65"/>
<polygon fill="black" stroke="black" points="86.88,-218.04 83.38,-208.04 79.88,-218.04 86.88,-218.04"/>
</g>
<!-- 25 -->
<g id="node7" class="node">
<title>25</title>
<polygon fill="yellow" stroke="black" points="280,-213 132.75,-213 132.75,-177 280,-177 280,-213"/>
<text text-anchor="middle" x="206.38" y="-189.95" font-family="Times New Roman,serif" font-size="14.00">it = Sequence{1..dim1}</text>
<text text-anchor="middle" x="121.5" y="-216.2" font-family="Times New Roman,serif" font-size="14.00">[25]</text>
</g>
<!-- 22&#45;&gt;25 -->
<g id="edge3" class="edge">
<title>22&#45;&gt;25</title>
<path fill="none" stroke="black" d="M223.23,-265.41C220.4,-253.76 216.58,-238.05 213.3,-224.52"/>
<polygon fill="black" stroke="black" points="216.7,-223.71 210.94,-214.82 209.9,-225.36 216.7,-223.71"/>
<text text-anchor="middle" x="255.88" y="-234.2" font-family="Times New Roman,serif" font-size="14.00">graphAnd#23</text>
</g>
<!-- 9 -->
<g id="node6" class="node">
<title>9</title>
<ellipse fill="black" stroke="black" cx="227.38" cy="-678.1" rx="7.2" ry="7.2"/>
<text text-anchor="middle" x="212.3" y="-688.5" font-family="Times New Roman,serif" font-size="14.00">[0]</text>
</g>
<!-- 10 -->
<g id="node8" class="node">
<title>10</title>
<polygon fill="yellow" stroke="black" points="344.12,-633.9 110.62,-633.9 110.62,-597.9 344.12,-597.9 344.12,-633.9"/>
<text text-anchor="middle" x="227.38" y="-610.85" font-family="Times New Roman,serif" font-size="14.00">dim1 = arg.datas.getDimensionSizes(1)</text>
<text text-anchor="middle" x="99.38" y="-637.1" font-family="Times New Roman,serif" font-size="14.00">[10]</text>
</g>
<!-- 9&#45;&gt;10 -->
<g id="edge2" class="edge">
<title>9&#45;&gt;10</title>
<path fill="none" stroke="black" d="M227.38,-670.66C227.38,-664.6 227.38,-655.09 227.38,-645.74"/>
<polygon fill="black" stroke="black" points="230.88,-645.78 227.38,-635.78 223.88,-645.78 230.88,-645.78"/>
</g>
<!-- 28 -->
<g id="node9" class="node">
<title>28</title>
<polygon fill="yellow" stroke="black" points="303.5,-124.5 45.25,-124.5 45.25,-88.5 303.5,-88.5 303.5,-124.5"/>
<text text-anchor="middle" x="174.38" y="-101.45" font-family="Times New Roman,serif" font-size="14.00">result.datas[it] = self.datas[it] + arg.datas[it]</text>
<text text-anchor="middle" x="34" y="-127.7" font-family="Times New Roman,serif" font-size="14.00">[28]</text>
</g>
<!-- 25&#45;&gt;28 -->
<g id="edge4" class="edge">
<title>25&#45;&gt;28</title>
<path fill="none" stroke="black" d="M200.05,-176.91C195.7,-165.14 189.81,-149.23 184.77,-135.61"/>
<polygon fill="black" stroke="black" points="188.07,-134.43 181.32,-126.27 181.51,-136.86 188.07,-134.43"/>
<text text-anchor="middle" x="230.37" y="-145.7" font-family="Times New Roman,serif" font-size="14.00">graphAnd#24</text>
</g>
<!-- 10&#45;&gt;16 -->
<g id="edge1" class="edge">
<title>10&#45;&gt;16</title>
<path fill="none" stroke="black" d="M227.38,-597.81C227.38,-586.16 227.38,-570.45 227.38,-556.92"/>
<polygon fill="black" stroke="black" points="230.88,-557.26 227.38,-547.26 223.88,-557.26 230.88,-557.26"/>
<text text-anchor="middle" x="264.5" y="-566.6" font-family="Times New Roman,serif" font-size="14.00">graphAnd#32</text>
</g>
<!-- 31 -->
<g id="node11" class="node">
<title>31</title>
<polygon fill="yellow" stroke="black" points="303.5,-36 201.25,-36 201.25,0 303.5,0 303.5,-36"/>
<text text-anchor="middle" x="252.38" y="-12.95" font-family="Times New Roman,serif" font-size="14.00">idx0 = idx0 + 1</text>
<text text-anchor="middle" x="190" y="-39.2" font-family="Times New Roman,serif" font-size="14.00">[31]</text>
</g>
<!-- 28&#45;&gt;31 -->
<g id="edge5" class="edge">
<title>28&#45;&gt;31</title>
<path fill="none" stroke="black" d="M189.79,-88.41C201.04,-75.93 216.48,-58.8 229.21,-44.68"/>
<polygon fill="black" stroke="black" points="231.62,-47.24 235.72,-37.47 226.42,-42.56 231.62,-47.24"/>
<text text-anchor="middle" x="257.49" y="-57.2" font-family="Times New Roman,serif" font-size="14.00">graphAnd#25</text>
</g>
<!-- 13&#45;&gt;33 -->
<g id="edge11" class="edge">
<title>13&#45;&gt;33</title>
<path fill="none" stroke="black" d="M227.38,-420.72C227.38,-408.68 227.38,-392.6 227.38,-380.35"/>
<polygon fill="black" stroke="black" points="230.88,-380.44 227.38,-370.44 223.88,-380.44 230.88,-380.44"/>
<text text-anchor="middle" x="264.5" y="-389.6" font-family="Times New Roman,serif" font-size="14.00">graphAnd#31</text>
</g>
<!-- 31&#45;&gt;33 -->
<g id="edge8" class="edge">
<title>31&#45;&gt;33</title>
<path fill="none" stroke="black" d="M283.14,-36.43C305.33,-51.52 331.38,-75.6 331.38,-105.5 331.38,-284.5 331.38,-284.5 331.38,-284.5 331.38,-327.3 273.09,-348.44 243.79,-356.37"/>
<polygon fill="black" stroke="black" points="243.3,-352.88 234.44,-358.68 244.98,-359.68 243.3,-352.88"/>
<text text-anchor="middle" x="358.38" y="-189.95" font-family="Times New Roman,serif" font-size="14.00">iterate#28</text>
</g>
</g>
</svg>
