<?xml version="1.0" encoding="UTF-8" standalone="no"?>
<!DOCTYPE svg PUBLIC "-//W3C//DTD SVG 1.1//EN"
 "http://www.w3.org/Graphics/SVG/1.1/DTD/svg11.dtd">
<!-- Generated by graphviz version 12.2.1 (20241206.2353)
 -->
<!-- Title: CLG Pages: 1 -->
<svg width="733pt" height="1092pt"
 viewBox="0.00 0.00 733.00 1092.20" xmlns="http://www.w3.org/2000/svg" xmlns:xlink="http://www.w3.org/1999/xlink">
<g id="graph0" class="graph" transform="scale(1 1) rotate(0) translate(4 1088.2)">
<title>CLG</title>
<polygon fill="white" stroke="none" points="-4,4 -4,-1088.2 729,-1088.2 729,4 -4,4"/>
<!-- 34 -->
<g id="node1" class="node">
<title>34</title>
<polygon fill="yellow" stroke="black" points="563.88,-456.9 501.38,-456.9 501.38,-420.9 563.88,-420.9 563.88,-456.9"/>
<text text-anchor="middle" x="532.62" y="-433.85" font-family="Times New Roman,serif" font-size="14.00">idx0 = 1</text>
<text text-anchor="middle" x="490.12" y="-460.1" font-family="Times New Roman,serif" font-size="14.00">[34]</text>
</g>
<!-- 54 -->
<g id="node10" class="node">
<title>54</title>
<polygon fill="aquamarine" stroke="black" points="531.62,-368.4 524.42,-361.2 531.62,-354 538.83,-361.2 531.62,-368.4"/>
<text text-anchor="middle" x="509.43" y="-371.6" font-family="Times New Roman,serif" font-size="14.00">&lt;54&gt;</text>
</g>
<!-- 34&#45;&gt;54 -->
<g id="edge7" class="edge">
<title>34&#45;&gt;54</title>
<path fill="none" stroke="black" d="M532.4,-420.72C532.24,-408.68 532.03,-392.6 531.86,-380.35"/>
<polygon fill="black" stroke="black" points="535.37,-380.39 531.73,-370.44 528.37,-380.48 535.37,-380.39"/>
<text text-anchor="middle" x="569.28" y="-389.6" font-family="Times New Roman,serif" font-size="14.00">graphAnd#46</text>
</g>
<!-- 37 -->
<g id="node2" class="node">
<title>37</title>
<polygon fill="yellow" stroke="black" points="568,-545.4 497.25,-545.4 497.25,-509.4 568,-509.4 568,-545.4"/>
<text text-anchor="middle" x="532.62" y="-522.35" font-family="Times New Roman,serif" font-size="14.00">acc = true</text>
<text text-anchor="middle" x="486" y="-548.6" font-family="Times New Roman,serif" font-size="14.00">[37]</text>
</g>
<!-- 37&#45;&gt;34 -->
<g id="edge16" class="edge">
<title>37&#45;&gt;34</title>
<path fill="none" stroke="black" d="M532.62,-509.31C532.62,-497.66 532.62,-481.95 532.62,-468.42"/>
<polygon fill="black" stroke="black" points="536.13,-468.76 532.63,-458.76 529.13,-468.76 536.13,-468.76"/>
<text text-anchor="middle" x="569.75" y="-478.1" font-family="Times New Roman,serif" font-size="14.00">graphAnd#27</text>
</g>
<!-- 40 -->
<g id="node3" class="node">
<title>40</title>
<polygon fill="yellow" stroke="black" points="445.5,-301.5 323.75,-301.5 323.75,-265.5 445.5,-265.5 445.5,-301.5"/>
<text text-anchor="middle" x="384.62" y="-278.45" font-family="Times New Roman,serif" font-size="14.00">idx0 &gt; dim1 &#45; 1+ 1</text>
<text text-anchor="middle" x="312.5" y="-304.7" font-family="Times New Roman,serif" font-size="14.00">[40]</text>
</g>
<!-- 62 -->
<g id="node17" class="node">
<title>62</title>
<polygon fill="aquamarine" stroke="black" points="326.62,-202.2 319.43,-195 326.62,-187.8 333.82,-195 326.62,-202.2"/>
<text text-anchor="middle" x="304.43" y="-205.4" font-family="Times New Roman,serif" font-size="14.00">&lt;62&gt;</text>
</g>
<!-- 40&#45;&gt;62 -->
<g id="edge17" class="edge">
<title>40&#45;&gt;62</title>
<path fill="none" stroke="black" d="M373.17,-265.41C362.12,-248.93 345.63,-224.34 335.53,-209.28"/>
<polygon fill="black" stroke="black" points="338.57,-207.53 330.09,-201.17 332.76,-211.43 338.57,-207.53"/>
<text text-anchor="middle" x="391.57" y="-234.2" font-family="Times New Roman,serif" font-size="14.00">merge1#59</text>
</g>
<!-- 43 -->
<g id="node4" class="node">
<title>43</title>
<polygon fill="yellow" stroke="black" points="596.62,-301.5 466.62,-301.5 466.62,-265.5 596.62,-265.5 596.62,-301.5"/>
<text text-anchor="middle" x="531.62" y="-278.45" font-family="Times New Roman,serif" font-size="14.00">idx0 &lt;= dim1 &#45; 1+ 1</text>
<text text-anchor="middle" x="455.38" y="-304.7" font-family="Times New Roman,serif" font-size="14.00">[43]</text>
</g>
<!-- 46 -->
<g id="node5" class="node">
<title>46</title>
<polygon fill="yellow" stroke="black" points="573.25,-213 426,-213 426,-177 573.25,-177 573.25,-213"/>
<text text-anchor="middle" x="499.62" y="-189.95" font-family="Times New Roman,serif" font-size="14.00">it = Sequence{1..dim1}</text>
<text text-anchor="middle" x="414.75" y="-216.2" font-family="Times New Roman,serif" font-size="14.00">[46]</text>
</g>
<!-- 43&#45;&gt;46 -->
<g id="edge1" class="edge">
<title>43&#45;&gt;46</title>
<path fill="none" stroke="black" d="M525.3,-265.41C520.95,-253.64 515.06,-237.73 510.02,-224.11"/>
<polygon fill="black" stroke="black" points="513.32,-222.93 506.57,-214.77 506.76,-225.36 513.32,-222.93"/>
<text text-anchor="middle" x="555.62" y="-234.2" font-family="Times New Roman,serif" font-size="14.00">graphAnd#38</text>
</g>
<!-- 49 -->
<g id="node6" class="node">
<title>49</title>
<polygon fill="yellow" stroke="black" points="610.88,-124.5 368.38,-124.5 368.38,-88.5 610.88,-88.5 610.88,-124.5"/>
<text text-anchor="middle" x="489.62" y="-101.45" font-family="Times New Roman,serif" font-size="14.00">result.data[it] = self.data[it] + arg.data[it]</text>
<text text-anchor="middle" x="357.12" y="-127.7" font-family="Times New Roman,serif" font-size="14.00">[49]</text>
</g>
<!-- 46&#45;&gt;49 -->
<g id="edge2" class="edge">
<title>46&#45;&gt;49</title>
<path fill="none" stroke="black" d="M497.65,-176.91C496.3,-165.26 494.49,-149.55 492.92,-136.02"/>
<polygon fill="black" stroke="black" points="496.43,-135.89 491.8,-126.35 489.48,-136.69 496.43,-135.89"/>
<text text-anchor="middle" x="532.65" y="-145.7" font-family="Times New Roman,serif" font-size="14.00">graphAnd#39</text>
</g>
<!-- 52 -->
<g id="node8" class="node">
<title>52</title>
<polygon fill="yellow" stroke="black" points="614.75,-36 512.5,-36 512.5,0 614.75,0 614.75,-36"/>
<text text-anchor="middle" x="563.62" y="-12.95" font-family="Times New Roman,serif" font-size="14.00">idx0 = idx0 + 1</text>
<text text-anchor="middle" x="501.25" y="-39.2" font-family="Times New Roman,serif" font-size="14.00">[52]</text>
</g>
<!-- 49&#45;&gt;52 -->
<g id="edge3" class="edge">
<title>49&#45;&gt;52</title>
<path fill="none" stroke="black" d="M504.25,-88.41C514.82,-76.05 529.3,-59.13 541.31,-45.08"/>
<polygon fill="black" stroke="black" points="543.96,-47.37 547.8,-37.5 538.64,-42.82 543.96,-47.37"/>
<text text-anchor="middle" x="570.38" y="-57.2" font-family="Times New Roman,serif" font-size="14.00">graphAnd#40</text>
</g>
<!-- 19 -->
<g id="node7" class="node">
<title>19</title>
<polygon fill="yellow" stroke="black" points="341.38,-781.4 215.88,-781.4 215.88,-745.4 341.38,-745.4 341.38,-781.4"/>
<text text-anchor="middle" x="278.62" y="-758.35" font-family="Times New Roman,serif" font-size="14.00">Result = &#39;Exception&#39;</text>
<text text-anchor="middle" x="204.62" y="-784.6" font-family="Times New Roman,serif" font-size="14.00">[19]</text>
</g>
<!-- 19&#45;&gt;62 -->
<g id="edge18" class="edge">
<title>19&#45;&gt;62</title>
<path fill="none" stroke="black" d="M281.69,-744.9C284.94,-724.77 289.62,-690.68 289.62,-661.15 289.62,-661.15 289.62,-661.15 289.62,-282.5 289.62,-254.37 306.38,-224.93 317.34,-208.68"/>
<polygon fill="black" stroke="black" points="319.89,-211.13 322.84,-200.95 314.19,-207.07 319.89,-211.13"/>
<text text-anchor="middle" x="320.38" y="-478.1" font-family="Times New Roman,serif" font-size="14.00">merge2#60</text>
</g>
<!-- 52&#45;&gt;54 -->
<g id="edge5" class="edge">
<title>52&#45;&gt;54</title>
<path fill="none" stroke="black" d="M592.41,-36.49C613.56,-51.77 638.62,-76.08 638.62,-105.5 638.62,-284.5 638.62,-284.5 638.62,-284.5 638.62,-328.11 578.66,-348.85 548.51,-356.52"/>
<polygon fill="black" stroke="black" points="547.8,-353.09 538.85,-358.76 549.38,-359.91 547.8,-353.09"/>
<text text-anchor="middle" x="665.62" y="-189.95" font-family="Times New Roman,serif" font-size="14.00">iterate#43</text>
</g>
<!-- 20 -->
<g id="node9" class="node">
<title>20</title>
<ellipse fill="black" stroke="black" cx="326.62" cy="-106.5" rx="7.2" ry="7.2"/>
<ellipse fill="none" stroke="black" cx="326.62" cy="-106.5" rx="11.2" ry="11.2"/>
<text text-anchor="middle" x="305.3" y="-120.9" font-family="Times New Roman,serif" font-size="14.00">[&#45;1]</text>
</g>
<!-- 54&#45;&gt;40 -->
<g id="edge6" class="edge">
<title>54&#45;&gt;40</title>
<path fill="none" stroke="black" d="M526.06,-359.17C512.89,-356.57 478.97,-349.05 453.38,-336 438.98,-328.66 424.45,-318.3 412.48,-308.8"/>
<polygon fill="black" stroke="black" points="415,-306.34 405.04,-302.73 410.57,-311.76 415,-306.34"/>
<text text-anchor="middle" x="490.5" y="-322.7" font-family="Times New Roman,serif" font-size="14.00">graphAnd#45</text>
</g>
<!-- 54&#45;&gt;43 -->
<g id="edge4" class="edge">
<title>54&#45;&gt;43</title>
<path fill="none" stroke="black" d="M531.62,-353.48C531.62,-344.4 531.62,-327.65 531.62,-312.93"/>
<polygon fill="black" stroke="black" points="535.13,-313.26 531.63,-303.26 528.13,-313.26 535.13,-313.26"/>
<text text-anchor="middle" x="558.62" y="-322.7" font-family="Times New Roman,serif" font-size="14.00">iterate#42</text>
</g>
<!-- 22 -->
<g id="node11" class="node">
<title>22</title>
<polygon fill="yellow" stroke="black" points="400.75,-933.9 22.5,-933.9 22.5,-892.9 400.75,-892.9 400.75,-933.9"/>
<text text-anchor="middle" x="211.62" y="-916.6" font-family="Times New Roman,serif" font-size="14.00">self.data.getDimension() &lt;&gt; arg.data.getDimension() or</text>
<text text-anchor="middle" x="211.62" y="-900.1" font-family="Times New Roman,serif" font-size="14.00">self.data.getDimensionSizes(1) &lt;&gt; arg.data.getDimensionSizes(1)</text>
<text text-anchor="middle" x="11.25" y="-937.1" font-family="Times New Roman,serif" font-size="14.00">[22]</text>
</g>
<!-- 22&#45;&gt;19 -->
<g id="edge10" class="edge">
<title>22&#45;&gt;19</title>
<path fill="none" stroke="black" d="M220.66,-892.44C232.38,-866.55 252.88,-821.27 266.1,-792.07"/>
<polygon fill="black" stroke="black" points="269.21,-793.68 270.15,-783.13 262.84,-790.79 269.21,-793.68"/>
<text text-anchor="middle" x="272.33" y="-861.6" font-family="Times New Roman,serif" font-size="14.00">graphAnd#49</text>
</g>
<!-- 25 -->
<g id="node12" class="node">
<title>25</title>
<polygon fill="yellow" stroke="black" points="718.62,-840.4 348.62,-840.4 348.62,-799.4 718.62,-799.4 718.62,-840.4"/>
<text text-anchor="middle" x="533.62" y="-823.1" font-family="Times New Roman,serif" font-size="14.00">self.data.getDimension() = arg.data.getDimension() and</text>
<text text-anchor="middle" x="533.62" y="-806.6" font-family="Times New Roman,serif" font-size="14.00">self.data.getDimensionSizes(1) = arg.data.getDimensionSizes(1)</text>
<text text-anchor="middle" x="337.38" y="-843.6" font-family="Times New Roman,serif" font-size="14.00">[25]</text>
</g>
<!-- 28 -->
<g id="node15" class="node">
<title>28</title>
<polygon fill="yellow" stroke="black" points="725,-727.4 342.25,-727.4 342.25,-686.4 725,-686.4 725,-727.4"/>
<text text-anchor="middle" x="533.62" y="-710.1" font-family="Times New Roman,serif" font-size="14.00">self.data.getDimension() = result.data.getDimension() and</text>
<text text-anchor="middle" x="533.62" y="-693.6" font-family="Times New Roman,serif" font-size="14.00">self.data.getDimensionSizes(1) = result.data.getDimensionSizes(1)</text>
<text text-anchor="middle" x="331" y="-730.6" font-family="Times New Roman,serif" font-size="14.00">[28]</text>
</g>
<!-- 25&#45;&gt;28 -->
<g id="edge11" class="edge">
<title>25&#45;&gt;28</title>
<path fill="none" stroke="black" d="M533.62,-799.06C533.62,-782.32 533.62,-758.09 533.62,-738.82"/>
<polygon fill="black" stroke="black" points="537.13,-739.09 533.63,-729.09 530.13,-739.09 537.13,-739.09"/>
<text text-anchor="middle" x="570.75" y="-758.35" font-family="Times New Roman,serif" font-size="14.00">graphAnd#50</text>
</g>
<!-- 58 -->
<g id="node13" class="node">
<title>58</title>
<ellipse fill="black" stroke="black" cx="372.62" cy="-1060.5" rx="7.2" ry="7.2"/>
<text text-anchor="middle" x="357.55" y="-1070.9" font-family="Times New Roman,serif" font-size="14.00">[0]</text>
</g>
<!-- 61 -->
<g id="node16" class="node">
<title>61</title>
<polygon fill="aquamarine" stroke="black" points="372.62,-1000.8 365.43,-993.6 372.62,-986.4 379.82,-993.6 372.62,-1000.8"/>
<text text-anchor="middle" x="350.43" y="-1004" font-family="Times New Roman,serif" font-size="14.00">&lt;61&gt;</text>
</g>
<!-- 58&#45;&gt;61 -->
<g id="edge13" class="edge">
<title>58&#45;&gt;61</title>
<path fill="none" stroke="black" d="M372.62,-1053.04C372.62,-1043.71 372.62,-1026.11 372.62,-1012.65"/>
<polygon fill="black" stroke="black" points="376.13,-1012.94 372.63,-1002.94 369.13,-1012.94 376.13,-1012.94"/>
<text text-anchor="middle" x="420.25" y="-1022" font-family="Times New Roman,serif" font-size="14.00">graphOr_start#56</text>
</g>
<!-- 59 -->
<g id="node14" class="node">
<title>59</title>
<polygon fill="yellow" stroke="black" points="650.62,-933.9 418.62,-933.9 418.62,-892.9 650.62,-892.9 650.62,-933.9"/>
<text text-anchor="middle" x="534.62" y="-916.6" font-family="Times New Roman,serif" font-size="14.00">self.data.getDimensionSizes(1) &gt; 0 and</text>
<text text-anchor="middle" x="534.62" y="-900.1" font-family="Times New Roman,serif" font-size="14.00">self.data.getDimensionSizes(1) &lt; 10</text>
<text text-anchor="middle" x="407.38" y="-937.1" font-family="Times New Roman,serif" font-size="14.00">[59]</text>
</g>
<!-- 59&#45;&gt;25 -->
<g id="edge12" class="edge">
<title>59&#45;&gt;25</title>
<path fill="none" stroke="black" d="M534.41,-892.55C534.28,-880.68 534.11,-865.34 533.96,-851.9"/>
<polygon fill="black" stroke="black" points="537.47,-852.19 533.86,-842.23 530.47,-852.27 537.47,-852.19"/>
<text text-anchor="middle" x="571.34" y="-861.6" font-family="Times New Roman,serif" font-size="14.00">graphAnd#55</text>
</g>
<!-- 31 -->
<g id="node18" class="node">
<title>31</title>
<polygon fill="yellow" stroke="black" points="647.75,-633.9 419.5,-633.9 419.5,-597.9 647.75,-597.9 647.75,-633.9"/>
<text text-anchor="middle" x="533.62" y="-610.85" font-family="Times New Roman,serif" font-size="14.00">dim1 = arg.data.getDimensionSizes(1)</text>
<text text-anchor="middle" x="408.25" y="-637.1" font-family="Times New Roman,serif" font-size="14.00">[31]</text>
</g>
<!-- 28&#45;&gt;31 -->
<g id="edge9" class="edge">
<title>28&#45;&gt;31</title>
<path fill="none" stroke="black" d="M533.62,-686.15C533.62,-674.23 533.62,-658.84 533.62,-645.59"/>
<polygon fill="black" stroke="black" points="537.13,-645.71 533.63,-635.71 530.13,-645.71 537.13,-645.71"/>
<text text-anchor="middle" x="570.75" y="-655.1" font-family="Times New Roman,serif" font-size="14.00">graphAnd#48</text>
</g>
<!-- 61&#45;&gt;22 -->
<g id="edge15" class="edge">
<title>61&#45;&gt;22</title>
<path fill="none" stroke="black" d="M367.98,-990.34C352.65,-982.9 302.37,-958.47 262.91,-939.31"/>
<polygon fill="black" stroke="black" points="264.52,-936.2 253.99,-934.98 261.46,-942.5 264.52,-936.2"/>
<text text-anchor="middle" x="345.67" y="-955.1" font-family="Times New Roman,serif" font-size="14.00">split2#58</text>
</g>
<!-- 61&#45;&gt;59 -->
<g id="edge14" class="edge">
<title>61&#45;&gt;59</title>
<path fill="none" stroke="black" d="M376.96,-990.51C392,-983.25 443.24,-958.51 483.27,-939.19"/>
<polygon fill="black" stroke="black" points="484.59,-942.44 492.07,-934.94 481.55,-936.14 484.59,-942.44"/>
<text text-anchor="middle" x="478.75" y="-955.1" font-family="Times New Roman,serif" font-size="14.00">split1#57</text>
</g>
<!-- 62&#45;&gt;20 -->
<g id="edge19" class="edge">
<title>62&#45;&gt;20</title>
<path fill="none" stroke="black" d="M326.62,-187.21C326.62,-174.92 326.62,-148.49 326.62,-129.43"/>
<polygon fill="black" stroke="black" points="330.13,-129.44 326.63,-119.44 323.13,-129.44 330.13,-129.44"/>
<text text-anchor="middle" x="372.38" y="-145.7" font-family="Times New Roman,serif" font-size="14.00">graphOr_end#61</text>
</g>
<!-- 31&#45;&gt;37 -->
<g id="edge8" class="edge">
<title>31&#45;&gt;37</title>
<path fill="none" stroke="black" d="M533.43,-597.81C533.29,-586.16 533.11,-570.45 532.95,-556.92"/>
<polygon fill="black" stroke="black" points="536.46,-557.22 532.84,-547.26 529.46,-557.3 536.46,-557.22"/>
<text text-anchor="middle" x="570.34" y="-566.6" font-family="Times New Roman,serif" font-size="14.00">graphAnd#47</text>
</g>
</g>
</svg>
