<?xml version="1.0" encoding="UTF-8" standalone="no"?>
<!DOCTYPE svg PUBLIC "-//W3C//DTD SVG 1.1//EN"
 "http://www.w3.org/Graphics/SVG/1.1/DTD/svg11.dtd">
<!-- Generated by graphviz version 12.2.1 (20241206.2353)
 -->
<!-- Title: CLG Pages: 1 -->
<svg width="406pt" height="710pt"
 viewBox="0.00 0.00 405.75 709.80" xmlns="http://www.w3.org/2000/svg" xmlns:xlink="http://www.w3.org/1999/xlink">
<g id="graph0" class="graph" transform="scale(1 1) rotate(0) translate(4 705.8)">
<title>CLG</title>
<polygon fill="white" stroke="none" points="-4,4 -4,-705.8 401.75,-705.8 401.75,4 -4,4"/>
<!-- 48 -->
<g id="node1" class="node">
<title>48</title>
<ellipse fill="black" stroke="black" cx="330.12" cy="-195" rx="7.2" ry="7.2"/>
<ellipse fill="none" stroke="black" cx="330.12" cy="-195" rx="11.2" ry="11.2"/>
<text text-anchor="middle" x="308.8" y="-209.4" font-family="Times New Roman,serif" font-size="14.00">[&#45;1]</text>
</g>
<!-- 50 -->
<g id="node2" class="node">
<title>50</title>
<polygon fill="yellow" stroke="black" points="244.88,-301.5 101.38,-301.5 101.38,-265.5 244.88,-265.5 244.88,-301.5"/>
<text text-anchor="middle" x="173.12" y="-278.45" font-family="Times New Roman,serif" font-size="14.00">Index0 &lt;= dim1 &#45; 1+ 1</text>
<text text-anchor="middle" x="90.12" y="-304.7" font-family="Times New Roman,serif" font-size="14.00">[50]</text>
</g>
<!-- 53 -->
<g id="node4" class="node">
<title>53</title>
<polygon fill="yellow" stroke="black" points="296.75,-213 149.5,-213 149.5,-177 296.75,-177 296.75,-213"/>
<text text-anchor="middle" x="223.12" y="-189.95" font-family="Times New Roman,serif" font-size="14.00">it = Sequence{1..dim1}</text>
<text text-anchor="middle" x="138.25" y="-216.2" font-family="Times New Roman,serif" font-size="14.00">[53]</text>
</g>
<!-- 50&#45;&gt;53 -->
<g id="edge2" class="edge">
<title>50&#45;&gt;53</title>
<path fill="none" stroke="black" d="M183,-265.41C189.94,-253.4 199.37,-237.09 207.35,-223.3"/>
<polygon fill="black" stroke="black" points="210.36,-225.07 212.34,-214.66 204.3,-221.57 210.36,-225.07"/>
<text text-anchor="middle" x="239.73" y="-234.2" font-family="Times New Roman,serif" font-size="14.00">graphAnd#52</text>
</g>
<!-- 37 -->
<g id="node3" class="node">
<title>37</title>
<ellipse fill="black" stroke="black" cx="173.12" cy="-678.1" rx="7.2" ry="7.2"/>
<text text-anchor="middle" x="158.05" y="-688.5" font-family="Times New Roman,serif" font-size="14.00">[0]</text>
</g>
<!-- 38 -->
<g id="node5" class="node">
<title>38</title>
<polygon fill="yellow" stroke="black" points="289.88,-633.9 56.37,-633.9 56.37,-597.9 289.88,-597.9 289.88,-633.9"/>
<text text-anchor="middle" x="173.12" y="-610.85" font-family="Times New Roman,serif" font-size="14.00">dim1 = arg.datas.getDimensionSizes(1)</text>
<text text-anchor="middle" x="45.12" y="-637.1" font-family="Times New Roman,serif" font-size="14.00">[38]</text>
</g>
<!-- 37&#45;&gt;38 -->
<g id="edge1" class="edge">
<title>37&#45;&gt;38</title>
<path fill="none" stroke="black" d="M173.12,-670.66C173.12,-664.6 173.12,-655.09 173.12,-645.74"/>
<polygon fill="black" stroke="black" points="176.63,-645.78 173.13,-635.78 169.63,-645.78 176.63,-645.78"/>
</g>
<!-- 56 -->
<g id="node6" class="node">
<title>56</title>
<polygon fill="yellow" stroke="black" points="353.38,-124.5 98.88,-124.5 98.88,-88.5 353.38,-88.5 353.38,-124.5"/>
<text text-anchor="middle" x="226.12" y="-101.45" font-family="Times New Roman,serif" font-size="14.00">result.datas[it] = self.datas[it] &#45; arg.datas[it]</text>
<text text-anchor="middle" x="87.62" y="-127.7" font-family="Times New Roman,serif" font-size="14.00">[56]</text>
</g>
<!-- 53&#45;&gt;56 -->
<g id="edge3" class="edge">
<title>53&#45;&gt;56</title>
<path fill="none" stroke="black" d="M223.72,-176.91C224.12,-165.26 224.67,-149.55 225.14,-136.02"/>
<polygon fill="black" stroke="black" points="228.62,-136.48 225.47,-126.36 221.63,-136.24 228.62,-136.48"/>
<text text-anchor="middle" x="262.02" y="-145.7" font-family="Times New Roman,serif" font-size="14.00">graphAnd#53</text>
</g>
<!-- 44 -->
<g id="node9" class="node">
<title>44</title>
<polygon fill="yellow" stroke="black" points="208.5,-545.4 137.75,-545.4 137.75,-509.4 208.5,-509.4 208.5,-545.4"/>
<text text-anchor="middle" x="173.12" y="-522.35" font-family="Times New Roman,serif" font-size="14.00">acc = true</text>
<text text-anchor="middle" x="126.5" y="-548.6" font-family="Times New Roman,serif" font-size="14.00">[44]</text>
</g>
<!-- 38&#45;&gt;44 -->
<g id="edge11" class="edge">
<title>38&#45;&gt;44</title>
<path fill="none" stroke="black" d="M173.12,-597.81C173.12,-586.16 173.12,-570.45 173.12,-556.92"/>
<polygon fill="black" stroke="black" points="176.63,-557.26 173.13,-547.26 169.63,-557.26 176.63,-557.26"/>
<text text-anchor="middle" x="210.25" y="-566.6" font-family="Times New Roman,serif" font-size="14.00">graphAnd#61</text>
</g>
<!-- 59 -->
<g id="node8" class="node">
<title>59</title>
<polygon fill="yellow" stroke="black" points="151.75,-36 22.5,-36 22.5,0 151.75,0 151.75,-36"/>
<text text-anchor="middle" x="87.12" y="-12.95" font-family="Times New Roman,serif" font-size="14.00">Index0 = Index0 + 1</text>
<text text-anchor="middle" x="11.25" y="-39.2" font-family="Times New Roman,serif" font-size="14.00">[59]</text>
</g>
<!-- 56&#45;&gt;59 -->
<g id="edge4" class="edge">
<title>56&#45;&gt;59</title>
<path fill="none" stroke="black" d="M198.33,-88.2C177.12,-75 147.68,-56.68 124.42,-42.21"/>
<polygon fill="black" stroke="black" points="126.5,-39.38 116.16,-37.07 122.8,-45.32 126.5,-39.38"/>
<text text-anchor="middle" x="206.2" y="-57.2" font-family="Times New Roman,serif" font-size="14.00">graphAnd#54</text>
</g>
<!-- 41 -->
<g id="node7" class="node">
<title>41</title>
<polygon fill="yellow" stroke="black" points="211.12,-456.9 135.12,-456.9 135.12,-420.9 211.12,-420.9 211.12,-456.9"/>
<text text-anchor="middle" x="173.12" y="-433.85" font-family="Times New Roman,serif" font-size="14.00">Index0 = 1</text>
<text text-anchor="middle" x="123.88" y="-460.1" font-family="Times New Roman,serif" font-size="14.00">[41]</text>
</g>
<!-- 61 -->
<g id="node10" class="node">
<title>61</title>
<polygon fill="aquamarine" stroke="black" points="173.12,-368.4 165.93,-361.2 173.12,-354 180.32,-361.2 173.12,-368.4"/>
<text text-anchor="middle" x="150.93" y="-371.6" font-family="Times New Roman,serif" font-size="14.00">&lt;61&gt;</text>
</g>
<!-- 41&#45;&gt;61 -->
<g id="edge10" class="edge">
<title>41&#45;&gt;61</title>
<path fill="none" stroke="black" d="M173.12,-420.72C173.12,-408.68 173.12,-392.6 173.12,-380.35"/>
<polygon fill="black" stroke="black" points="176.63,-380.44 173.13,-370.44 169.63,-380.44 176.63,-380.44"/>
<text text-anchor="middle" x="210.25" y="-389.6" font-family="Times New Roman,serif" font-size="14.00">graphAnd#60</text>
</g>
<!-- 59&#45;&gt;61 -->
<g id="edge7" class="edge">
<title>59&#45;&gt;61</title>
<path fill="none" stroke="black" d="M81.97,-36.39C77.3,-53.73 71.12,-81.22 71.12,-105.5 71.12,-284.5 71.12,-284.5 71.12,-284.5 71.12,-326.57 127.77,-347.98 156.64,-356.16"/>
<polygon fill="black" stroke="black" points="155.62,-359.51 166.18,-358.63 157.37,-352.73 155.62,-359.51"/>
<text text-anchor="middle" x="98.12" y="-189.95" font-family="Times New Roman,serif" font-size="14.00">iterate#57</text>
</g>
<!-- 44&#45;&gt;41 -->
<g id="edge6" class="edge">
<title>44&#45;&gt;41</title>
<path fill="none" stroke="black" d="M173.12,-509.31C173.12,-497.66 173.12,-481.95 173.12,-468.42"/>
<polygon fill="black" stroke="black" points="176.63,-468.76 173.13,-458.76 169.63,-468.76 176.63,-468.76"/>
<text text-anchor="middle" x="210.25" y="-478.1" font-family="Times New Roman,serif" font-size="14.00">graphAnd#41</text>
</g>
<!-- 61&#45;&gt;50 -->
<g id="edge5" class="edge">
<title>61&#45;&gt;50</title>
<path fill="none" stroke="black" d="M173.12,-353.48C173.12,-344.4 173.12,-327.65 173.12,-312.93"/>
<polygon fill="black" stroke="black" points="176.63,-313.26 173.13,-303.26 169.63,-313.26 176.63,-313.26"/>
<text text-anchor="middle" x="200.12" y="-322.7" font-family="Times New Roman,serif" font-size="14.00">iterate#56</text>
</g>
<!-- 47 -->
<g id="node11" class="node">
<title>47</title>
<polygon fill="yellow" stroke="black" points="397.75,-301.5 262.5,-301.5 262.5,-265.5 397.75,-265.5 397.75,-301.5"/>
<text text-anchor="middle" x="330.12" y="-278.45" font-family="Times New Roman,serif" font-size="14.00">Index0 &gt; dim1 &#45; 1+ 1</text>
<text text-anchor="middle" x="251.25" y="-304.7" font-family="Times New Roman,serif" font-size="14.00">[47]</text>
</g>
<!-- 61&#45;&gt;47 -->
<g id="edge8" class="edge">
<title>61&#45;&gt;47</title>
<path fill="none" stroke="black" d="M178,-358.33C188.05,-354.43 211.75,-345.06 231.12,-336 250.2,-327.08 270.92,-316.45 288.45,-307.18"/>
<polygon fill="black" stroke="black" points="289.85,-310.39 297.03,-302.6 286.56,-304.22 289.85,-310.39"/>
<text text-anchor="middle" x="301.3" y="-322.7" font-family="Times New Roman,serif" font-size="14.00">graphAnd#59</text>
</g>
<!-- 47&#45;&gt;48 -->
<g id="edge9" class="edge">
<title>47&#45;&gt;48</title>
<path fill="none" stroke="black" d="M330.12,-265.41C330.12,-251.72 330.12,-232.42 330.12,-217.65"/>
<polygon fill="black" stroke="black" points="333.63,-218.04 330.13,-208.04 326.63,-218.04 333.63,-218.04"/>
</g>
</g>
</svg>
