<?xml version="1.0" encoding="UTF-8" standalone="no"?>
<!DOCTYPE svg PUBLIC "-//W3C//DTD SVG 1.1//EN"
 "http://www.w3.org/Graphics/SVG/1.1/DTD/svg11.dtd">
<!-- Generated by graphviz version 12.2.1 (20241206.2353)
 -->
<!-- Title: CLG Pages: 1 -->
<svg width="143pt" height="169pt"
 viewBox="0.00 0.00 143.25 169.30" xmlns="http://www.w3.org/2000/svg" xmlns:xlink="http://www.w3.org/1999/xlink">
<g id="graph0" class="graph" transform="scale(1 1) rotate(0) translate(4 165.3)">
<title>CLG</title>
<polygon fill="white" stroke="none" points="-4,4 -4,-165.3 139.25,-165.3 139.25,4 -4,4"/>
<!-- 73 -->
<g id="node1" class="node">
<title>73</title>
<ellipse fill="black" stroke="black" cx="78.88" cy="-137.6" rx="7.2" ry="7.2"/>
<text text-anchor="middle" x="63.8" y="-148" font-family="Times New Roman,serif" font-size="14.00">[0]</text>
</g>
<!-- 74 -->
<g id="node2" class="node">
<title>74</title>
<polygon fill="yellow" stroke="black" points="135.25,-94.4 22.5,-94.4 22.5,-58.4 135.25,-58.4 135.25,-94.4"/>
<text text-anchor="middle" x="78.88" y="-71.35" font-family="Times New Roman,serif" font-size="14.00">result = self.datas</text>
<text text-anchor="middle" x="11.25" y="-97.6" font-family="Times New Roman,serif" font-size="14.00">[74]</text>
</g>
<!-- 73&#45;&gt;74 -->
<g id="edge1" class="edge">
<title>73&#45;&gt;74</title>
<path fill="none" stroke="black" d="M78.88,-130.26C78.88,-124.35 78.88,-115.09 78.88,-105.96"/>
<polygon fill="black" stroke="black" points="82.38,-106.24 78.88,-96.24 75.38,-106.24 82.38,-106.24"/>
</g>
<!-- 75 -->
<g id="node3" class="node">
<title>75</title>
<ellipse fill="black" stroke="black" cx="78.88" cy="-11.2" rx="7.2" ry="7.2"/>
<ellipse fill="none" stroke="black" cx="78.88" cy="-11.2" rx="11.2" ry="11.2"/>
<text text-anchor="middle" x="57.55" y="-25.6" font-family="Times New Roman,serif" font-size="14.00">[&#45;1]</text>
</g>
<!-- 74&#45;&gt;75 -->
<g id="edge2" class="edge">
<title>74&#45;&gt;75</title>
<path fill="none" stroke="black" d="M78.88,-58.13C78.88,-50.65 78.88,-41.8 78.88,-33.88"/>
<polygon fill="black" stroke="black" points="82.38,-34.04 78.88,-24.04 75.38,-34.04 82.38,-34.04"/>
</g>
</g>
</svg>
