<?xml version="1.0" encoding="UTF-8" standalone="no"?>
<!DOCTYPE svg PUBLIC "-//W3C//DTD SVG 1.1//EN"
 "http://www.w3.org/Graphics/SVG/1.1/DTD/svg11.dtd">
<!-- Generated by graphviz version 12.2.1 (20241206.2353)
 -->
<!-- Title: CLG Pages: 1 -->
<svg width="701pt" height="835pt"
 viewBox="0.00 0.00 700.50 835.40" xmlns="http://www.w3.org/2000/svg" xmlns:xlink="http://www.w3.org/1999/xlink">
<g id="graph0" class="graph" transform="scale(1 1) rotate(0) translate(4 831.4)">
<title>CLG</title>
<polygon fill="white" stroke="none" points="-4,4 -4,-831.4 696.5,-831.4 696.5,4 -4,4"/>
<!-- 96 -->
<g id="node1" class="node">
<title>96</title>
<polygon fill="yellow" stroke="black" points="510.38,-810.9 186.12,-810.9 186.12,-774.9 510.38,-774.9 510.38,-810.9"/>
<text text-anchor="middle" x="348.25" y="-787.85" font-family="Times New Roman,serif" font-size="14.00">result.datas[it][it2] = self.datas[it][it2] &#45; arg.datas[it][it2]</text>
<text text-anchor="middle" x="174.88" y="-814.1" font-family="Times New Roman,serif" font-size="14.00">[96]</text>
</g>
<!-- 99 -->
<g id="node3" class="node">
<title>99</title>
<polygon fill="yellow" stroke="black" points="484.38,-722.4 382.12,-722.4 382.12,-686.4 484.38,-686.4 484.38,-722.4"/>
<text text-anchor="middle" x="433.25" y="-699.35" font-family="Times New Roman,serif" font-size="14.00">idx1 = idx1 + 1</text>
<text text-anchor="middle" x="370.88" y="-725.6" font-family="Times New Roman,serif" font-size="14.00">[99]</text>
</g>
<!-- 96&#45;&gt;99 -->
<g id="edge19" class="edge">
<title>96&#45;&gt;99</title>
<path fill="none" stroke="black" d="M365.04,-774.81C377.42,-762.22 394.45,-744.88 408.4,-730.69"/>
<polygon fill="black" stroke="black" points="410.63,-733.42 415.14,-723.83 405.63,-728.51 410.63,-733.42"/>
<text text-anchor="middle" x="435.49" y="-743.6" font-family="Times New Roman,serif" font-size="14.00">graphAnd#93</text>
</g>
<!-- 66 -->
<g id="node2" class="node">
<title>66</title>
<polygon fill="yellow" stroke="black" points="229.5,-456.9 167,-456.9 167,-420.9 229.5,-420.9 229.5,-456.9"/>
<text text-anchor="middle" x="198.25" y="-433.85" font-family="Times New Roman,serif" font-size="14.00">idx0 = 1</text>
<text text-anchor="middle" x="155.75" y="-460.1" font-family="Times New Roman,serif" font-size="14.00">[66]</text>
</g>
<!-- 105 -->
<g id="node8" class="node">
<title>105</title>
<polygon fill="aquamarine" stroke="black" points="434.25,-368.4 427.05,-361.2 434.25,-354 441.45,-361.2 434.25,-368.4"/>
<text text-anchor="middle" x="408.68" y="-371.6" font-family="Times New Roman,serif" font-size="14.00">&lt;105&gt;</text>
</g>
<!-- 66&#45;&gt;105 -->
<g id="edge13" class="edge">
<title>66&#45;&gt;105</title>
<path fill="none" stroke="black" d="M229.59,-427.85C280.62,-411.48 379.85,-379.65 418.4,-367.28"/>
<polygon fill="black" stroke="black" points="419.26,-370.68 427.72,-364.3 417.13,-364.02 419.26,-370.68"/>
<text text-anchor="middle" x="398.41" y="-389.6" font-family="Times New Roman,serif" font-size="14.00">graphAnd#110</text>
</g>
<!-- 101 -->
<g id="node5" class="node">
<title>101</title>
<polygon fill="aquamarine" stroke="black" points="497.25,-623.1 490.05,-615.9 497.25,-608.7 504.45,-615.9 497.25,-623.1"/>
<text text-anchor="middle" x="471.68" y="-626.3" font-family="Times New Roman,serif" font-size="14.00">&lt;101&gt;</text>
</g>
<!-- 99&#45;&gt;101 -->
<g id="edge2" class="edge">
<title>99&#45;&gt;101</title>
<path fill="none" stroke="black" d="M445.89,-686.31C458.21,-669.67 476.64,-644.75 487.75,-629.74"/>
<polygon fill="black" stroke="black" points="490.32,-632.15 493.45,-622.03 484.69,-627.99 490.32,-632.15"/>
<text text-anchor="middle" x="497.98" y="-655.1" font-family="Times New Roman,serif" font-size="14.00">iterate#96</text>
</g>
<!-- 69 -->
<g id="node4" class="node">
<title>69</title>
<polygon fill="yellow" stroke="black" points="220.62,-545.4 149.88,-545.4 149.88,-509.4 220.62,-509.4 220.62,-545.4"/>
<text text-anchor="middle" x="185.25" y="-522.35" font-family="Times New Roman,serif" font-size="14.00">acc = true</text>
<text text-anchor="middle" x="138.62" y="-548.6" font-family="Times New Roman,serif" font-size="14.00">[69]</text>
</g>
<!-- 69&#45;&gt;66 -->
<g id="edge5" class="edge">
<title>69&#45;&gt;66</title>
<path fill="none" stroke="black" d="M187.82,-509.31C189.57,-497.66 191.93,-481.95 193.96,-468.42"/>
<polygon fill="black" stroke="black" points="197.39,-469.16 195.42,-458.75 190.47,-468.12 197.39,-469.16"/>
<text text-anchor="middle" x="230.04" y="-478.1" font-family="Times New Roman,serif" font-size="14.00">graphAnd#69</text>
</g>
<!-- 87 -->
<g id="node14" class="node">
<title>87</title>
<polygon fill="yellow" stroke="black" points="590.12,-545.4 468.38,-545.4 468.38,-509.4 590.12,-509.4 590.12,-545.4"/>
<text text-anchor="middle" x="529.25" y="-522.35" font-family="Times New Roman,serif" font-size="14.00">idx1 &gt; dim2 &#45; 1+ 1</text>
<text text-anchor="middle" x="457.12" y="-548.6" font-family="Times New Roman,serif" font-size="14.00">[87]</text>
</g>
<!-- 101&#45;&gt;87 -->
<g id="edge3" class="edge">
<title>101&#45;&gt;87</title>
<path fill="none" stroke="black" d="M499.06,-610C502.82,-599.84 511.71,-575.82 518.87,-556.45"/>
<polygon fill="black" stroke="black" points="522.13,-557.74 522.32,-547.15 515.56,-555.31 522.13,-557.74"/>
<text text-anchor="middle" x="553.24" y="-566.6" font-family="Times New Roman,serif" font-size="14.00">graphAnd#98</text>
</g>
<!-- 90 -->
<g id="node15" class="node">
<title>90</title>
<polygon fill="yellow" stroke="black" points="450.25,-545.4 320.25,-545.4 320.25,-509.4 450.25,-509.4 450.25,-545.4"/>
<text text-anchor="middle" x="385.25" y="-522.35" font-family="Times New Roman,serif" font-size="14.00">idx1 &lt;= dim2 &#45; 1+ 1</text>
<text text-anchor="middle" x="309" y="-548.6" font-family="Times New Roman,serif" font-size="14.00">[90]</text>
</g>
<!-- 101&#45;&gt;90 -->
<g id="edge20" class="edge">
<title>101&#45;&gt;90</title>
<path fill="none" stroke="black" d="M493.52,-612.02C481.72,-602.91 444.34,-574.04 416.79,-552.76"/>
<polygon fill="black" stroke="black" points="419.12,-550.14 409.07,-546.8 414.85,-555.68 419.12,-550.14"/>
<text text-anchor="middle" x="478.28" y="-566.6" font-family="Times New Roman,serif" font-size="14.00">iterate#95</text>
</g>
<!-- 103 -->
<g id="node6" class="node">
<title>103</title>
<polygon fill="yellow" stroke="black" points="563.38,-456.9 461.12,-456.9 461.12,-420.9 563.38,-420.9 563.38,-456.9"/>
<text text-anchor="middle" x="512.25" y="-433.85" font-family="Times New Roman,serif" font-size="14.00">idx0 = idx0 + 1</text>
<text text-anchor="middle" x="446.5" y="-460.1" font-family="Times New Roman,serif" font-size="14.00">[103]</text>
</g>
<!-- 103&#45;&gt;105 -->
<g id="edge11" class="edge">
<title>103&#45;&gt;105</title>
<path fill="none" stroke="black" d="M494.55,-420.72C479.51,-406.12 458.36,-385.6 445.52,-373.14"/>
<polygon fill="black" stroke="black" points="448.26,-370.92 438.65,-366.47 443.39,-375.95 448.26,-370.92"/>
<text text-anchor="middle" x="505.96" y="-389.6" font-family="Times New Roman,serif" font-size="14.00">iterate#107</text>
</g>
<!-- 72 -->
<g id="node7" class="node">
<title>72</title>
<polygon fill="yellow" stroke="black" points="433.12,-301.5 311.38,-301.5 311.38,-265.5 433.12,-265.5 433.12,-301.5"/>
<text text-anchor="middle" x="372.25" y="-278.45" font-family="Times New Roman,serif" font-size="14.00">idx0 &gt; dim1 &#45; 1+ 1</text>
<text text-anchor="middle" x="300.12" y="-304.7" font-family="Times New Roman,serif" font-size="14.00">[72]</text>
</g>
<!-- 73 -->
<g id="node9" class="node">
<title>73</title>
<ellipse fill="black" stroke="black" cx="372.25" cy="-195" rx="7.2" ry="7.2"/>
<ellipse fill="none" stroke="black" cx="372.25" cy="-195" rx="11.2" ry="11.2"/>
<text text-anchor="middle" x="350.93" y="-209.4" font-family="Times New Roman,serif" font-size="14.00">[&#45;1]</text>
</g>
<!-- 72&#45;&gt;73 -->
<g id="edge8" class="edge">
<title>72&#45;&gt;73</title>
<path fill="none" stroke="black" d="M372.25,-265.41C372.25,-251.72 372.25,-232.42 372.25,-217.65"/>
<polygon fill="black" stroke="black" points="375.75,-218.04 372.25,-208.04 368.75,-218.04 375.75,-218.04"/>
</g>
<!-- 105&#45;&gt;72 -->
<g id="edge12" class="edge">
<title>105&#45;&gt;72</title>
<path fill="none" stroke="black" d="M430.25,-357.77C423.95,-353.79 411.58,-345.4 403.25,-336 396.83,-328.75 390.99,-319.99 386.15,-311.76"/>
<polygon fill="black" stroke="black" points="389.25,-310.14 381.33,-303.11 383.14,-313.55 389.25,-310.14"/>
<text text-anchor="middle" x="443.75" y="-322.7" font-family="Times New Roman,serif" font-size="14.00">graphAnd#109</text>
</g>
<!-- 75 -->
<g id="node10" class="node">
<title>75</title>
<polygon fill="yellow" stroke="black" points="581.25,-301.5 451.25,-301.5 451.25,-265.5 581.25,-265.5 581.25,-301.5"/>
<text text-anchor="middle" x="516.25" y="-278.45" font-family="Times New Roman,serif" font-size="14.00">idx0 &lt;= dim1 &#45; 1+ 1</text>
<text text-anchor="middle" x="440" y="-304.7" font-family="Times New Roman,serif" font-size="14.00">[75]</text>
</g>
<!-- 105&#45;&gt;75 -->
<g id="edge10" class="edge">
<title>105&#45;&gt;75</title>
<path fill="none" stroke="black" d="M439.48,-358.74C449.24,-355.81 470.49,-348.39 484.25,-336 491.82,-329.19 498.23,-320.18 503.29,-311.6"/>
<polygon fill="black" stroke="black" points="506.34,-313.31 508.04,-302.86 500.19,-309.97 506.34,-313.31"/>
<text text-anchor="middle" x="528.55" y="-322.7" font-family="Times New Roman,serif" font-size="14.00">iterate#106</text>
</g>
<!-- 78 -->
<g id="node11" class="node">
<title>78</title>
<polygon fill="yellow" stroke="black" points="589.88,-213 442.62,-213 442.62,-177 589.88,-177 589.88,-213"/>
<text text-anchor="middle" x="516.25" y="-189.95" font-family="Times New Roman,serif" font-size="14.00">it = Sequence{1..dim1}</text>
<text text-anchor="middle" x="431.38" y="-216.2" font-family="Times New Roman,serif" font-size="14.00">[78]</text>
</g>
<!-- 75&#45;&gt;78 -->
<g id="edge6" class="edge">
<title>75&#45;&gt;78</title>
<path fill="none" stroke="black" d="M516.25,-265.41C516.25,-253.76 516.25,-238.05 516.25,-224.52"/>
<polygon fill="black" stroke="black" points="519.75,-224.86 516.25,-214.86 512.75,-224.86 519.75,-224.86"/>
<text text-anchor="middle" x="556.75" y="-234.2" font-family="Times New Roman,serif" font-size="14.00">graphAnd#102</text>
</g>
<!-- 84 -->
<g id="node13" class="node">
<title>84</title>
<polygon fill="yellow" stroke="black" points="561,-124.5 483.5,-124.5 483.5,-88.5 561,-88.5 561,-124.5"/>
<text text-anchor="middle" x="522.25" y="-101.45" font-family="Times New Roman,serif" font-size="14.00">acc2 = true</text>
<text text-anchor="middle" x="472.25" y="-127.7" font-family="Times New Roman,serif" font-size="14.00">[84]</text>
</g>
<!-- 78&#45;&gt;84 -->
<g id="edge7" class="edge">
<title>78&#45;&gt;84</title>
<path fill="none" stroke="black" d="M517.44,-176.91C518.24,-165.26 519.33,-149.55 520.27,-136.02"/>
<polygon fill="black" stroke="black" points="523.74,-136.58 520.94,-126.36 516.76,-136.09 523.74,-136.58"/>
<text text-anchor="middle" x="560.29" y="-145.7" font-family="Times New Roman,serif" font-size="14.00">graphAnd#103</text>
</g>
<!-- 81 -->
<g id="node12" class="node">
<title>81</title>
<polygon fill="yellow" stroke="black" points="601.5,-36 539,-36 539,0 601.5,0 601.5,-36"/>
<text text-anchor="middle" x="570.25" y="-12.95" font-family="Times New Roman,serif" font-size="14.00">idx1 = 1</text>
<text text-anchor="middle" x="527.75" y="-39.2" font-family="Times New Roman,serif" font-size="14.00">[81]</text>
</g>
<!-- 81&#45;&gt;101 -->
<g id="edge4" class="edge">
<title>81&#45;&gt;101</title>
<path fill="none" stroke="black" d="M590.54,-36.43C595.62,-41.64 600.64,-47.67 604.25,-54 616,-74.61 618.25,-81.78 618.25,-105.5 618.25,-528.4 618.25,-528.4 618.25,-528.4 618.25,-553.65 612.89,-562.86 594.25,-579.9 571.7,-600.51 536.13,-609.19 514.9,-612.69"/>
<polygon fill="black" stroke="black" points="514.46,-609.22 505.04,-614.08 515.43,-616.15 514.46,-609.22"/>
<text text-anchor="middle" x="655.38" y="-322.7" font-family="Times New Roman,serif" font-size="14.00">graphAnd#99</text>
</g>
<!-- 84&#45;&gt;81 -->
<g id="edge15" class="edge">
<title>84&#45;&gt;81</title>
<path fill="none" stroke="black" d="M521.9,-88.32C522.37,-77.83 524.25,-64.46 530,-54 531.88,-50.57 534.24,-47.32 536.87,-44.28"/>
<polygon fill="black" stroke="black" points="539.17,-46.93 543.74,-37.38 534.21,-41.99 539.17,-46.93"/>
<text text-anchor="middle" x="567.12" y="-57.2" font-family="Times New Roman,serif" font-size="14.00">graphAnd#80</text>
</g>
<!-- 87&#45;&gt;103 -->
<g id="edge9" class="edge">
<title>87&#45;&gt;103</title>
<path fill="none" stroke="black" d="M525.89,-509.31C523.6,-497.66 520.51,-481.95 517.85,-468.42"/>
<polygon fill="black" stroke="black" points="521.31,-467.87 515.95,-458.74 514.45,-469.22 521.31,-467.87"/>
<text text-anchor="middle" x="562.77" y="-478.1" font-family="Times New Roman,serif" font-size="14.00">graphAnd#104</text>
</g>
<!-- 93 -->
<g id="node18" class="node">
<title>93</title>
<polygon fill="yellow" stroke="black" points="429.25,-456.9 275.25,-456.9 275.25,-420.9 429.25,-420.9 429.25,-456.9"/>
<text text-anchor="middle" x="352.25" y="-433.85" font-family="Times New Roman,serif" font-size="14.00">it2 = Sequence{1..dim2}</text>
<text text-anchor="middle" x="264" y="-460.1" font-family="Times New Roman,serif" font-size="14.00">[93]</text>
</g>
<!-- 90&#45;&gt;93 -->
<g id="edge16" class="edge">
<title>90&#45;&gt;93</title>
<path fill="none" stroke="black" d="M378.73,-509.31C374.19,-497.42 368.05,-481.31 362.82,-467.6"/>
<polygon fill="black" stroke="black" points="366.24,-466.76 359.41,-458.66 359.7,-469.26 366.24,-466.76"/>
<text text-anchor="middle" x="408.83" y="-478.1" font-family="Times New Roman,serif" font-size="14.00">graphAnd#91</text>
</g>
<!-- 59 -->
<g id="node16" class="node">
<title>59</title>
<ellipse fill="black" stroke="black" cx="139.25" cy="-792.9" rx="7.2" ry="7.2"/>
<text text-anchor="middle" x="124.18" y="-803.3" font-family="Times New Roman,serif" font-size="14.00">[0]</text>
</g>
<!-- 60 -->
<g id="node17" class="node">
<title>60</title>
<polygon fill="yellow" stroke="black" points="256,-722.4 22.5,-722.4 22.5,-686.4 256,-686.4 256,-722.4"/>
<text text-anchor="middle" x="139.25" y="-699.35" font-family="Times New Roman,serif" font-size="14.00">dim1 = arg.datas.getDimensionSizes(1)</text>
<text text-anchor="middle" x="11.25" y="-725.6" font-family="Times New Roman,serif" font-size="14.00">[60]</text>
</g>
<!-- 59&#45;&gt;60 -->
<g id="edge17" class="edge">
<title>59&#45;&gt;60</title>
<path fill="none" stroke="black" d="M139.25,-785.4C139.25,-774.57 139.25,-752.22 139.25,-733.88"/>
<polygon fill="black" stroke="black" points="142.75,-734.09 139.25,-724.09 135.75,-734.09 142.75,-734.09"/>
</g>
<!-- 63 -->
<g id="node19" class="node">
<title>63</title>
<polygon fill="yellow" stroke="black" points="256,-633.9 22.5,-633.9 22.5,-597.9 256,-597.9 256,-633.9"/>
<text text-anchor="middle" x="139.25" y="-610.85" font-family="Times New Roman,serif" font-size="14.00">dim2 = arg.datas.getDimensionSizes(2)</text>
<text text-anchor="middle" x="11.25" y="-637.1" font-family="Times New Roman,serif" font-size="14.00">[63]</text>
</g>
<!-- 60&#45;&gt;63 -->
<g id="edge1" class="edge">
<title>60&#45;&gt;63</title>
<path fill="none" stroke="black" d="M139.25,-686.31C139.25,-674.66 139.25,-658.95 139.25,-645.42"/>
<polygon fill="black" stroke="black" points="142.75,-645.76 139.25,-635.76 135.75,-645.76 142.75,-645.76"/>
<text text-anchor="middle" x="176.38" y="-655.1" font-family="Times New Roman,serif" font-size="14.00">graphAnd#64</text>
</g>
<!-- 93&#45;&gt;96 -->
<g id="edge18" class="edge">
<title>93&#45;&gt;96</title>
<path fill="none" stroke="black" d="M330.59,-457.37C313.4,-473.33 292.25,-498.62 292.25,-526.4 292.25,-705.4 292.25,-705.4 292.25,-705.4 292.25,-728.49 306.49,-750.29 320.61,-766.23"/>
<polygon fill="black" stroke="black" points="317.91,-768.47 327.31,-773.35 323.01,-763.67 317.91,-768.47"/>
<text text-anchor="middle" x="329.38" y="-610.85" font-family="Times New Roman,serif" font-size="14.00">graphAnd#92</text>
</g>
<!-- 63&#45;&gt;69 -->
<g id="edge14" class="edge">
<title>63&#45;&gt;69</title>
<path fill="none" stroke="black" d="M148.34,-597.81C154.72,-585.8 163.4,-569.49 170.73,-555.7"/>
<polygon fill="black" stroke="black" points="173.71,-557.56 175.31,-547.09 167.53,-554.27 173.71,-557.56"/>
<text text-anchor="middle" x="206.87" y="-566.6" font-family="Times New Roman,serif" font-size="14.00">graphAnd#111</text>
</g>
</g>
</svg>
