<?xml version="1.0" encoding="UTF-8" standalone="no"?>
<!DOCTYPE svg PUBLIC "-//W3C//DTD SVG 1.1//EN"
 "http://www.w3.org/Graphics/SVG/1.1/DTD/svg11.dtd">
<!-- Generated by graphviz version 12.2.1 (20241206.2353)
 -->
<!-- Title: CLG Pages: 1 -->
<svg width="239pt" height="260pt"
 viewBox="0.00 0.00 239.25 259.80" xmlns="http://www.w3.org/2000/svg" xmlns:xlink="http://www.w3.org/1999/xlink">
<g id="graph0" class="graph" transform="scale(1 1) rotate(0) translate(4 255.8)">
<title>CLG</title>
<polygon fill="white" stroke="none" points="-4,4 -4,-255.8 235.25,-255.8 235.25,4 -4,4"/>
<!-- 3 -->
<g id="node1" class="node">
<title>3</title>
<ellipse fill="black" stroke="black" cx="123.5" cy="-228.1" rx="7.2" ry="7.2"/>
<text text-anchor="middle" x="108.42" y="-238.5" font-family="Times New Roman,serif" font-size="14.00">[0]</text>
</g>
<!-- 4 -->
<g id="node2" class="node">
<title>4</title>
<polygon fill="yellow" stroke="black" points="227.88,-183.9 19.12,-183.9 19.12,-147.9 227.88,-147.9 227.88,-183.9"/>
<text text-anchor="middle" x="123.5" y="-160.85" font-family="Times New Roman,serif" font-size="14.00">self.data.getDimensionSizes(1) &gt; 0</text>
<text text-anchor="middle" x="11.25" y="-187.1" font-family="Times New Roman,serif" font-size="14.00">[4]</text>
</g>
<!-- 3&#45;&gt;4 -->
<g id="edge1" class="edge">
<title>3&#45;&gt;4</title>
<path fill="none" stroke="black" d="M123.5,-220.66C123.5,-214.6 123.5,-205.09 123.5,-195.74"/>
<polygon fill="black" stroke="black" points="127,-195.78 123.5,-185.78 120,-195.78 127,-195.78"/>
</g>
<!-- 7 -->
<g id="node3" class="node">
<title>7</title>
<polygon fill="yellow" stroke="black" points="231.25,-95.4 15.75,-95.4 15.75,-59.4 231.25,-59.4 231.25,-95.4"/>
<text text-anchor="middle" x="123.5" y="-72.35" font-family="Times New Roman,serif" font-size="14.00">self.data.getDimensionSizes(1) &lt; 10</text>
<text text-anchor="middle" x="7.88" y="-98.6" font-family="Times New Roman,serif" font-size="14.00">[7]</text>
</g>
<!-- 4&#45;&gt;7 -->
<g id="edge3" class="edge">
<title>4&#45;&gt;7</title>
<path fill="none" stroke="black" d="M123.5,-147.81C123.5,-136.16 123.5,-120.45 123.5,-106.92"/>
<polygon fill="black" stroke="black" points="127,-107.26 123.5,-97.26 120,-107.26 127,-107.26"/>
<text text-anchor="middle" x="157.25" y="-116.6" font-family="Times New Roman,serif" font-size="14.00">graphAnd#6</text>
</g>
<!-- 8 -->
<g id="node4" class="node">
<title>8</title>
<ellipse fill="black" stroke="black" cx="123.5" cy="-11.2" rx="7.2" ry="7.2"/>
<ellipse fill="none" stroke="black" cx="123.5" cy="-11.2" rx="11.2" ry="11.2"/>
<text text-anchor="middle" x="102.17" y="-25.6" font-family="Times New Roman,serif" font-size="14.00">[&#45;1]</text>
</g>
<!-- 7&#45;&gt;8 -->
<g id="edge2" class="edge">
<title>7&#45;&gt;8</title>
<path fill="none" stroke="black" d="M123.5,-59.2C123.5,-51.5 123.5,-42.34 123.5,-34.15"/>
<polygon fill="black" stroke="black" points="127,-34.32 123.5,-24.32 120,-34.32 127,-34.32"/>
</g>
</g>
</svg>
