<?xml version="1.0" encoding="UTF-8" standalone="no"?>
<!DOCTYPE svg PUBLIC "-//W3C//DTD SVG 1.1//EN"
 "http://www.w3.org/Graphics/SVG/1.1/DTD/svg11.dtd">
<!-- Generated by graphviz version 12.2.1 (20241206.2353)
 -->
<!-- Title: CLG Pages: 1 -->
<svg width="972pt" height="1122pt"
 viewBox="0.00 0.00 971.88 1122.40" xmlns="http://www.w3.org/2000/svg" xmlns:xlink="http://www.w3.org/1999/xlink">
<g id="graph0" class="graph" transform="scale(1 1) rotate(0) translate(4 1118.4)">
<title>CLG</title>
<polygon fill="white" stroke="none" points="-4,4 -4,-1118.4 967.88,-1118.4 967.88,4 -4,4"/>
<!-- 64 -->
<g id="node1" class="node">
<title>64</title>
<polygon fill="yellow" stroke="black" points="697.62,-1097.9 620.12,-1097.9 620.12,-1061.9 697.62,-1061.9 697.62,-1097.9"/>
<text text-anchor="middle" x="658.88" y="-1074.85" font-family="Times New Roman,serif" font-size="14.00">acc3 = true</text>
<text text-anchor="middle" x="608.88" y="-1101.1" font-family="Times New Roman,serif" font-size="14.00">[64]</text>
</g>
<!-- 61 -->
<g id="node28" class="node">
<title>61</title>
<polygon fill="yellow" stroke="black" points="646.12,-1009.4 583.62,-1009.4 583.62,-973.4 646.12,-973.4 646.12,-1009.4"/>
<text text-anchor="middle" x="614.88" y="-986.35" font-family="Times New Roman,serif" font-size="14.00">idx2 = 1</text>
<text text-anchor="middle" x="572.38" y="-1012.6" font-family="Times New Roman,serif" font-size="14.00">[61]</text>
</g>
<!-- 64&#45;&gt;61 -->
<g id="edge27" class="edge">
<title>64&#45;&gt;61</title>
<path fill="none" stroke="black" d="M630,-1061.5C624.22,-1056.57 618.92,-1050.68 615.62,-1043.9 612.2,-1036.85 611.03,-1028.59 610.98,-1020.78"/>
<polygon fill="black" stroke="black" points="614.46,-1021.16 611.52,-1010.98 607.47,-1020.77 614.46,-1021.16"/>
<text text-anchor="middle" x="652.75" y="-1030.6" font-family="Times New Roman,serif" font-size="14.00">graphAnd#49</text>
</g>
<!-- 67 -->
<g id="node2" class="node">
<title>67</title>
<polygon fill="yellow" stroke="black" points="230.25,-810.9 123.5,-810.9 123.5,-774.9 230.25,-774.9 230.25,-810.9"/>
<text text-anchor="middle" x="176.88" y="-787.85" font-family="Times New Roman,serif" font-size="14.00">idx2 &gt; d3 &#45; 1+ 1</text>
<text text-anchor="middle" x="112.25" y="-814.1" font-family="Times New Roman,serif" font-size="14.00">[67]</text>
</g>
<!-- 83 -->
<g id="node8" class="node">
<title>83</title>
<polygon fill="yellow" stroke="black" points="225,-722.4 122.75,-722.4 122.75,-686.4 225,-686.4 225,-722.4"/>
<text text-anchor="middle" x="173.88" y="-699.35" font-family="Times New Roman,serif" font-size="14.00">idx1 = idx1 + 1</text>
<text text-anchor="middle" x="111.5" y="-725.6" font-family="Times New Roman,serif" font-size="14.00">[83]</text>
</g>
<!-- 67&#45;&gt;83 -->
<g id="edge7" class="edge">
<title>67&#45;&gt;83</title>
<path fill="none" stroke="black" d="M176.28,-774.81C175.88,-763.16 175.33,-747.45 174.86,-733.92"/>
<polygon fill="black" stroke="black" points="178.37,-734.14 174.53,-724.26 171.38,-734.38 178.37,-734.14"/>
<text text-anchor="middle" x="212.77" y="-743.6" font-family="Times New Roman,serif" font-size="14.00">graphAnd#73</text>
</g>
<!-- 70 -->
<g id="node3" class="node">
<title>70</title>
<polygon fill="yellow" stroke="black" points="475.38,-810.9 360.38,-810.9 360.38,-774.9 475.38,-774.9 475.38,-810.9"/>
<text text-anchor="middle" x="417.88" y="-787.85" font-family="Times New Roman,serif" font-size="14.00">idx2 &lt;= d3 &#45; 1+ 1</text>
<text text-anchor="middle" x="349.12" y="-814.1" font-family="Times New Roman,serif" font-size="14.00">[70]</text>
</g>
<!-- 73 -->
<g id="node4" class="node">
<title>73</title>
<polygon fill="yellow" stroke="black" points="504.38,-722.4 365.38,-722.4 365.38,-686.4 504.38,-686.4 504.38,-722.4"/>
<text text-anchor="middle" x="434.88" y="-699.35" font-family="Times New Roman,serif" font-size="14.00">it3 = Sequence{1..d3}</text>
<text text-anchor="middle" x="354.12" y="-725.6" font-family="Times New Roman,serif" font-size="14.00">[73]</text>
</g>
<!-- 70&#45;&gt;73 -->
<g id="edge28" class="edge">
<title>70&#45;&gt;73</title>
<path fill="none" stroke="black" d="M421.23,-774.81C423.52,-763.16 426.61,-747.45 429.27,-733.92"/>
<polygon fill="black" stroke="black" points="432.68,-734.72 431.17,-724.24 425.81,-733.37 432.68,-734.72"/>
<text text-anchor="middle" x="465.02" y="-743.6" font-family="Times New Roman,serif" font-size="14.00">graphAnd#60</text>
</g>
<!-- 76 -->
<g id="node5" class="node">
<title>76</title>
<polygon fill="yellow" stroke="black" points="675.88,-633.9 293.88,-633.9 293.88,-597.9 675.88,-597.9 675.88,-633.9"/>
<text text-anchor="middle" x="484.88" y="-610.85" font-family="Times New Roman,serif" font-size="14.00">result.data[it][it2][it3] = self.data[it][it2][it3] + arg.data[it][it2][it3]</text>
<text text-anchor="middle" x="282.62" y="-637.1" font-family="Times New Roman,serif" font-size="14.00">[76]</text>
</g>
<!-- 73&#45;&gt;76 -->
<g id="edge29" class="edge">
<title>73&#45;&gt;76</title>
<path fill="none" stroke="black" d="M444.75,-686.31C451.69,-674.3 461.12,-657.99 469.1,-644.2"/>
<polygon fill="black" stroke="black" points="472.11,-645.97 474.09,-635.56 466.05,-642.47 472.11,-645.97"/>
<text text-anchor="middle" x="501.48" y="-655.1" font-family="Times New Roman,serif" font-size="14.00">graphAnd#61</text>
</g>
<!-- 79 -->
<g id="node6" class="node">
<title>79</title>
<polygon fill="yellow" stroke="black" points="509,-545.4 406.75,-545.4 406.75,-509.4 509,-509.4 509,-545.4"/>
<text text-anchor="middle" x="457.88" y="-522.35" font-family="Times New Roman,serif" font-size="14.00">idx2 = idx2 + 1</text>
<text text-anchor="middle" x="395.5" y="-548.6" font-family="Times New Roman,serif" font-size="14.00">[79]</text>
</g>
<!-- 76&#45;&gt;79 -->
<g id="edge30" class="edge">
<title>76&#45;&gt;79</title>
<path fill="none" stroke="black" d="M479.54,-597.81C475.87,-586.04 470.9,-570.13 466.65,-556.51"/>
<polygon fill="black" stroke="black" points="470.06,-555.7 463.74,-547.19 463.38,-557.78 470.06,-555.7"/>
<text text-anchor="middle" x="510.92" y="-566.6" font-family="Times New Roman,serif" font-size="14.00">graphAnd#62</text>
</g>
<!-- 81 -->
<g id="node7" class="node">
<title>81</title>
<polygon fill="aquamarine" stroke="black" points="295.88,-899.35 288.68,-892.15 295.88,-884.95 303.07,-892.15 295.88,-899.35"/>
<text text-anchor="middle" x="273.68" y="-902.55" font-family="Times New Roman,serif" font-size="14.00">&lt;81&gt;</text>
</g>
<!-- 79&#45;&gt;81 -->
<g id="edge2" class="edge">
<title>79&#45;&gt;81</title>
<path fill="none" stroke="black" d="M406.45,-536.81C367.96,-545.68 316.69,-563.39 284.88,-597.9 265.56,-618.86 265.88,-630.65 265.88,-659.15 265.88,-793.9 265.88,-793.9 265.88,-793.9 265.88,-824.48 279.59,-858.16 288.47,-876.78"/>
<polygon fill="black" stroke="black" points="285.23,-878.12 292.84,-885.49 291.49,-874.98 285.23,-878.12"/>
<text text-anchor="middle" x="292.88" y="-699.35" font-family="Times New Roman,serif" font-size="14.00">iterate#65</text>
</g>
<!-- 81&#45;&gt;67 -->
<g id="edge3" class="edge">
<title>81&#45;&gt;67</title>
<path fill="none" stroke="black" d="M289.25,-890.97C268.49,-890 204.41,-883.88 177.62,-845.4 173.03,-838.79 171.57,-830.46 171.61,-822.44"/>
<polygon fill="black" stroke="black" points="175.09,-822.91 172.43,-812.65 168.11,-822.32 175.09,-822.91"/>
<text text-anchor="middle" x="214.75" y="-832.1" font-family="Times New Roman,serif" font-size="14.00">graphAnd#67</text>
</g>
<!-- 81&#45;&gt;70 -->
<g id="edge1" class="edge">
<title>81&#45;&gt;70</title>
<path fill="none" stroke="black" d="M299.66,-888.13C312.71,-877.73 356.69,-842.67 387.16,-818.39"/>
<polygon fill="black" stroke="black" points="389.31,-821.15 394.95,-812.18 384.95,-815.67 389.31,-821.15"/>
<text text-anchor="middle" x="398.39" y="-832.1" font-family="Times New Roman,serif" font-size="14.00">iterate#64</text>
</g>
<!-- 85 -->
<g id="node9" class="node">
<title>85</title>
<polygon fill="aquamarine" stroke="black" points="164.88,-623.1 157.68,-615.9 164.88,-608.7 172.07,-615.9 164.88,-623.1"/>
<text text-anchor="middle" x="142.67" y="-626.3" font-family="Times New Roman,serif" font-size="14.00">&lt;85&gt;</text>
</g>
<!-- 83&#45;&gt;85 -->
<g id="edge9" class="edge">
<title>83&#45;&gt;85</title>
<path fill="none" stroke="black" d="M172.1,-686.31C170.53,-671.23 168.25,-649.35 166.68,-634.21"/>
<polygon fill="black" stroke="black" points="170.18,-634.06 165.66,-624.48 163.22,-634.79 170.18,-634.06"/>
<text text-anchor="middle" x="197.18" y="-655.1" font-family="Times New Roman,serif" font-size="14.00">iterate#76</text>
</g>
<!-- 52 -->
<g id="node25" class="node">
<title>52</title>
<polygon fill="yellow" stroke="black" points="129.25,-545.4 22.5,-545.4 22.5,-509.4 129.25,-509.4 129.25,-545.4"/>
<text text-anchor="middle" x="75.88" y="-522.35" font-family="Times New Roman,serif" font-size="14.00">idx1 &gt; d2 &#45; 1+ 1</text>
<text text-anchor="middle" x="11.25" y="-548.6" font-family="Times New Roman,serif" font-size="14.00">[52]</text>
</g>
<!-- 85&#45;&gt;52 -->
<g id="edge10" class="edge">
<title>85&#45;&gt;52</title>
<path fill="none" stroke="black" d="M158.3,-614.61C141.3,-613.48 95.91,-607.85 76.62,-579.9 72.05,-573.27 70.6,-564.94 70.65,-556.92"/>
<polygon fill="black" stroke="black" points="74.12,-557.39 71.46,-547.13 67.14,-556.8 74.12,-557.39"/>
<text text-anchor="middle" x="113.75" y="-566.6" font-family="Times New Roman,serif" font-size="14.00">graphAnd#78</text>
</g>
<!-- 55 -->
<g id="node26" class="node">
<title>55</title>
<polygon fill="yellow" stroke="black" points="361.38,-545.4 246.38,-545.4 246.38,-509.4 361.38,-509.4 361.38,-545.4"/>
<text text-anchor="middle" x="303.88" y="-522.35" font-family="Times New Roman,serif" font-size="14.00">idx1 &lt;= d2 &#45; 1+ 1</text>
<text text-anchor="middle" x="235.12" y="-548.6" font-family="Times New Roman,serif" font-size="14.00">[55]</text>
</g>
<!-- 85&#45;&gt;55 -->
<g id="edge8" class="edge">
<title>85&#45;&gt;55</title>
<path fill="none" stroke="black" d="M166.73,-610.16C170.91,-600.06 182.05,-576.31 198.88,-563.4 209.59,-555.17 222.35,-548.83 235.2,-543.95"/>
<polygon fill="black" stroke="black" points="236.27,-547.28 244.56,-540.68 233.97,-540.67 236.27,-547.28"/>
<text text-anchor="middle" x="225.88" y="-566.6" font-family="Times New Roman,serif" font-size="14.00">iterate#75</text>
</g>
<!-- 22 -->
<g id="node10" class="node">
<title>22</title>
<polygon fill="yellow" stroke="black" points="949.5,-810.9 736.25,-810.9 736.25,-774.9 949.5,-774.9 949.5,-810.9"/>
<text text-anchor="middle" x="842.88" y="-787.85" font-family="Times New Roman,serif" font-size="14.00">d1 = arg.data.getDimensionSizes(1)</text>
<text text-anchor="middle" x="725" y="-814.1" font-family="Times New Roman,serif" font-size="14.00">[22]</text>
</g>
<!-- 25 -->
<g id="node12" class="node">
<title>25</title>
<polygon fill="yellow" stroke="black" points="947.5,-722.4 734.25,-722.4 734.25,-686.4 947.5,-686.4 947.5,-722.4"/>
<text text-anchor="middle" x="840.88" y="-699.35" font-family="Times New Roman,serif" font-size="14.00">d2 = arg.data.getDimensionSizes(2)</text>
<text text-anchor="middle" x="723" y="-725.6" font-family="Times New Roman,serif" font-size="14.00">[25]</text>
</g>
<!-- 22&#45;&gt;25 -->
<g id="edge15" class="edge">
<title>22&#45;&gt;25</title>
<path fill="none" stroke="black" d="M842.48,-774.81C842.21,-763.16 841.85,-747.45 841.53,-733.92"/>
<polygon fill="black" stroke="black" points="845.04,-734.18 841.31,-724.26 838.04,-734.34 845.04,-734.18"/>
<text text-anchor="middle" x="879.18" y="-743.6" font-family="Times New Roman,serif" font-size="14.00">graphAnd#21</text>
</g>
<!-- 87 -->
<g id="node11" class="node">
<title>87</title>
<polygon fill="yellow" stroke="black" points="132,-456.9 29.75,-456.9 29.75,-420.9 132,-420.9 132,-456.9"/>
<text text-anchor="middle" x="80.88" y="-433.85" font-family="Times New Roman,serif" font-size="14.00">idx0 = idx0 + 1</text>
<text text-anchor="middle" x="18.5" y="-460.1" font-family="Times New Roman,serif" font-size="14.00">[87]</text>
</g>
<!-- 89 -->
<g id="node13" class="node">
<title>89</title>
<polygon fill="aquamarine" stroke="black" points="319.88,-368.4 312.68,-361.2 319.88,-354 327.07,-361.2 319.88,-368.4"/>
<text text-anchor="middle" x="297.68" y="-371.6" font-family="Times New Roman,serif" font-size="14.00">&lt;89&gt;</text>
</g>
<!-- 87&#45;&gt;89 -->
<g id="edge18" class="edge">
<title>87&#45;&gt;89</title>
<path fill="none" stroke="black" d="M132.44,-421.57C186.95,-404.3 269.71,-378.09 304.07,-367.21"/>
<polygon fill="black" stroke="black" points="304.78,-370.65 313.26,-364.3 302.67,-363.98 304.78,-370.65"/>
<text text-anchor="middle" x="269.57" y="-389.6" font-family="Times New Roman,serif" font-size="14.00">iterate#87</text>
</g>
<!-- 28 -->
<g id="node14" class="node">
<title>28</title>
<polygon fill="yellow" stroke="black" points="946.5,-633.9 733.25,-633.9 733.25,-597.9 946.5,-597.9 946.5,-633.9"/>
<text text-anchor="middle" x="839.88" y="-610.85" font-family="Times New Roman,serif" font-size="14.00">d3 = arg.data.getDimensionSizes(3)</text>
<text text-anchor="middle" x="722" y="-637.1" font-family="Times New Roman,serif" font-size="14.00">[28]</text>
</g>
<!-- 25&#45;&gt;28 -->
<g id="edge16" class="edge">
<title>25&#45;&gt;28</title>
<path fill="none" stroke="black" d="M840.68,-686.31C840.54,-674.66 840.36,-658.95 840.2,-645.42"/>
<polygon fill="black" stroke="black" points="843.71,-645.72 840.09,-635.76 836.71,-645.8 843.71,-645.72"/>
<text text-anchor="middle" x="877.59" y="-655.1" font-family="Times New Roman,serif" font-size="14.00">graphAnd#22</text>
</g>
<!-- 37 -->
<g id="node19" class="node">
<title>37</title>
<polygon fill="yellow" stroke="black" points="299.25,-301.5 192.5,-301.5 192.5,-265.5 299.25,-265.5 299.25,-301.5"/>
<text text-anchor="middle" x="245.88" y="-278.45" font-family="Times New Roman,serif" font-size="14.00">idx0 &gt; d1 &#45; 1+ 1</text>
<text text-anchor="middle" x="181.25" y="-304.7" font-family="Times New Roman,serif" font-size="14.00">[37]</text>
</g>
<!-- 89&#45;&gt;37 -->
<g id="edge19" class="edge">
<title>89&#45;&gt;37</title>
<path fill="none" stroke="black" d="M314.47,-358.9C304.41,-356.24 282.66,-349.26 269.62,-336 263.1,-329.36 258.15,-320.6 254.51,-312.19"/>
<polygon fill="black" stroke="black" points="257.82,-311.06 250.99,-302.96 251.28,-313.55 257.82,-311.06"/>
<text text-anchor="middle" x="306.75" y="-322.7" font-family="Times New Roman,serif" font-size="14.00">graphAnd#89</text>
</g>
<!-- 40 -->
<g id="node21" class="node">
<title>40</title>
<polygon fill="yellow" stroke="black" points="432.38,-301.5 317.38,-301.5 317.38,-265.5 432.38,-265.5 432.38,-301.5"/>
<text text-anchor="middle" x="374.88" y="-278.45" font-family="Times New Roman,serif" font-size="14.00">idx0 &lt;= d1 &#45; 1+ 1</text>
<text text-anchor="middle" x="306.12" y="-304.7" font-family="Times New Roman,serif" font-size="14.00">[40]</text>
</g>
<!-- 89&#45;&gt;40 -->
<g id="edge17" class="edge">
<title>89&#45;&gt;40</title>
<path fill="none" stroke="black" d="M323.91,-357.46C329.77,-353.34 340.69,-345.06 347.88,-336 353.63,-328.74 358.73,-320.07 362.91,-311.93"/>
<polygon fill="black" stroke="black" points="365.99,-313.59 367.18,-303.06 359.68,-310.55 365.99,-313.59"/>
<text text-anchor="middle" x="385.47" y="-322.7" font-family="Times New Roman,serif" font-size="14.00">iterate#86</text>
</g>
<!-- 34 -->
<g id="node18" class="node">
<title>34</title>
<polygon fill="yellow" stroke="black" points="838.25,-545.4 767.5,-545.4 767.5,-509.4 838.25,-509.4 838.25,-545.4"/>
<text text-anchor="middle" x="802.88" y="-522.35" font-family="Times New Roman,serif" font-size="14.00">acc = true</text>
<text text-anchor="middle" x="756.25" y="-548.6" font-family="Times New Roman,serif" font-size="14.00">[34]</text>
</g>
<!-- 28&#45;&gt;34 -->
<g id="edge21" class="edge">
<title>28&#45;&gt;34</title>
<path fill="none" stroke="black" d="M832.56,-597.81C827.48,-585.92 820.59,-569.81 814.72,-556.1"/>
<polygon fill="black" stroke="black" points="818.04,-554.96 810.89,-547.14 811.61,-557.71 818.04,-554.96"/>
<text text-anchor="middle" x="861.81" y="-566.6" font-family="Times New Roman,serif" font-size="14.00">graphAnd#91</text>
</g>
<!-- 93 -->
<g id="node15" class="node">
<title>93</title>
<ellipse fill="black" stroke="black" cx="847.88" cy="-991.4" rx="7.2" ry="7.2"/>
<text text-anchor="middle" x="832.8" y="-1001.8" font-family="Times New Roman,serif" font-size="14.00">[0]</text>
</g>
<!-- 94 -->
<g id="node16" class="node">
<title>94</title>
<polygon fill="yellow" stroke="black" points="963.88,-920.9 731.88,-920.9 731.88,-863.4 963.88,-863.4 963.88,-920.9"/>
<text text-anchor="middle" x="847.88" y="-903.6" font-family="Times New Roman,serif" font-size="14.00">self.data.getDimensionSizes(1) &gt; 0 and</text>
<text text-anchor="middle" x="847.88" y="-887.1" font-family="Times New Roman,serif" font-size="14.00">self.data.getDimensionSizes(2) &gt; 0 and</text>
<text text-anchor="middle" x="847.88" y="-870.6" font-family="Times New Roman,serif" font-size="14.00">self.data.getDimensionSizes(3) &gt; 0</text>
<text text-anchor="middle" x="720.62" y="-924.1" font-family="Times New Roman,serif" font-size="14.00">[94]</text>
</g>
<!-- 93&#45;&gt;94 -->
<g id="edge24" class="edge">
<title>93&#45;&gt;94</title>
<path fill="none" stroke="black" d="M847.88,-983.72C847.88,-973.15 847.88,-951.79 847.88,-932.47"/>
<polygon fill="black" stroke="black" points="851.38,-932.64 847.88,-922.64 844.38,-932.64 851.38,-932.64"/>
</g>
<!-- 94&#45;&gt;22 -->
<g id="edge25" class="edge">
<title>94&#45;&gt;22</title>
<path fill="none" stroke="black" d="M846.43,-863.02C845.78,-850.35 845.01,-835.41 844.35,-822.67"/>
<polygon fill="black" stroke="black" points="847.85,-822.59 843.85,-812.78 840.86,-822.95 847.85,-822.59"/>
<text text-anchor="middle" x="882.5" y="-832.1" font-family="Times New Roman,serif" font-size="14.00">graphAnd#96</text>
</g>
<!-- 31 -->
<g id="node17" class="node">
<title>31</title>
<polygon fill="yellow" stroke="black" points="714.12,-456.9 651.62,-456.9 651.62,-420.9 714.12,-420.9 714.12,-456.9"/>
<text text-anchor="middle" x="682.88" y="-433.85" font-family="Times New Roman,serif" font-size="14.00">idx0 = 1</text>
<text text-anchor="middle" x="640.38" y="-460.1" font-family="Times New Roman,serif" font-size="14.00">[31]</text>
</g>
<!-- 31&#45;&gt;89 -->
<g id="edge20" class="edge">
<title>31&#45;&gt;89</title>
<path fill="none" stroke="black" d="M651.3,-431.31C576.88,-415.8 392.57,-377.36 336.39,-365.64"/>
<polygon fill="black" stroke="black" points="337.46,-362.29 326.96,-363.68 336.03,-369.14 337.46,-362.29"/>
<text text-anchor="middle" x="549.38" y="-389.6" font-family="Times New Roman,serif" font-size="14.00">graphAnd#90</text>
</g>
<!-- 34&#45;&gt;31 -->
<g id="edge22" class="edge">
<title>34&#45;&gt;31</title>
<path fill="none" stroke="black" d="M778.88,-509.1C760.89,-496.14 736.06,-478.24 716.15,-463.89"/>
<polygon fill="black" stroke="black" points="718.22,-461.06 708.06,-458.05 714.12,-466.74 718.22,-461.06"/>
<text text-anchor="middle" x="790.75" y="-478.1" font-family="Times New Roman,serif" font-size="14.00">graphAnd#27</text>
</g>
<!-- 38 -->
<g id="node20" class="node">
<title>38</title>
<ellipse fill="black" stroke="black" cx="245.88" cy="-195" rx="7.2" ry="7.2"/>
<ellipse fill="none" stroke="black" cx="245.88" cy="-195" rx="11.2" ry="11.2"/>
<text text-anchor="middle" x="224.55" y="-209.4" font-family="Times New Roman,serif" font-size="14.00">[&#45;1]</text>
</g>
<!-- 37&#45;&gt;38 -->
<g id="edge23" class="edge">
<title>37&#45;&gt;38</title>
<path fill="none" stroke="black" d="M245.88,-265.41C245.88,-251.72 245.88,-232.42 245.88,-217.65"/>
<polygon fill="black" stroke="black" points="249.38,-218.04 245.88,-208.04 242.38,-218.04 249.38,-218.04"/>
</g>
<!-- 43 -->
<g id="node22" class="node">
<title>43</title>
<polygon fill="yellow" stroke="black" points="424,-213 291.75,-213 291.75,-177 424,-177 424,-213"/>
<text text-anchor="middle" x="357.88" y="-189.95" font-family="Times New Roman,serif" font-size="14.00">it = Sequence{1..d1}</text>
<text text-anchor="middle" x="280.5" y="-216.2" font-family="Times New Roman,serif" font-size="14.00">[43]</text>
</g>
<!-- 40&#45;&gt;43 -->
<g id="edge12" class="edge">
<title>40&#45;&gt;43</title>
<path fill="none" stroke="black" d="M371.52,-265.41C369.23,-253.76 366.14,-238.05 363.48,-224.52"/>
<polygon fill="black" stroke="black" points="366.94,-223.97 361.58,-214.84 360.07,-225.32 366.94,-223.97"/>
<text text-anchor="middle" x="405.02" y="-234.2" font-family="Times New Roman,serif" font-size="14.00">graphAnd#82</text>
</g>
<!-- 49 -->
<g id="node24" class="node">
<title>49</title>
<polygon fill="yellow" stroke="black" points="324.62,-124.5 247.12,-124.5 247.12,-88.5 324.62,-88.5 324.62,-124.5"/>
<text text-anchor="middle" x="285.88" y="-101.45" font-family="Times New Roman,serif" font-size="14.00">acc2 = true</text>
<text text-anchor="middle" x="235.88" y="-127.7" font-family="Times New Roman,serif" font-size="14.00">[49]</text>
</g>
<!-- 43&#45;&gt;49 -->
<g id="edge13" class="edge">
<title>43&#45;&gt;49</title>
<path fill="none" stroke="black" d="M343.65,-176.91C333.36,-164.55 319.28,-147.63 307.59,-133.58"/>
<polygon fill="black" stroke="black" points="310.37,-131.46 301.29,-126.01 304.99,-135.94 310.37,-131.46"/>
<text text-anchor="middle" x="365.45" y="-145.7" font-family="Times New Roman,serif" font-size="14.00">graphAnd#83</text>
</g>
<!-- 46 -->
<g id="node23" class="node">
<title>46</title>
<polygon fill="yellow" stroke="black" points="212.12,-36 149.62,-36 149.62,0 212.12,0 212.12,-36"/>
<text text-anchor="middle" x="180.88" y="-12.95" font-family="Times New Roman,serif" font-size="14.00">idx1 = 1</text>
<text text-anchor="middle" x="138.38" y="-39.2" font-family="Times New Roman,serif" font-size="14.00">[46]</text>
</g>
<!-- 46&#45;&gt;85 -->
<g id="edge11" class="edge">
<title>46&#45;&gt;85</title>
<path fill="none" stroke="black" d="M175.72,-36.39C171.05,-53.73 164.88,-81.22 164.88,-105.5 164.88,-528.4 164.88,-528.4 164.88,-528.4 164.88,-551.98 164.88,-579.17 164.88,-596.68"/>
<polygon fill="black" stroke="black" points="161.38,-596.66 164.88,-606.66 168.38,-596.66 161.38,-596.66"/>
<text text-anchor="middle" x="202" y="-322.7" font-family="Times New Roman,serif" font-size="14.00">graphAnd#79</text>
</g>
<!-- 49&#45;&gt;46 -->
<g id="edge26" class="edge">
<title>49&#45;&gt;46</title>
<path fill="none" stroke="black" d="M264.88,-88.2C249.28,-75.36 227.8,-57.66 210.47,-43.38"/>
<polygon fill="black" stroke="black" points="212.95,-40.89 203,-37.23 208.5,-46.29 212.95,-40.89"/>
<text text-anchor="middle" x="279.9" y="-57.2" font-family="Times New Roman,serif" font-size="14.00">graphAnd#38</text>
</g>
<!-- 52&#45;&gt;87 -->
<g id="edge14" class="edge">
<title>52&#45;&gt;87</title>
<path fill="none" stroke="black" d="M75.67,-509.21C75.66,-499.19 75.85,-486.32 76.62,-474.9 76.76,-472.84 76.94,-470.71 77.14,-468.57"/>
<polygon fill="black" stroke="black" points="80.6,-469.14 78.22,-458.82 73.64,-468.37 80.6,-469.14"/>
<text text-anchor="middle" x="113.75" y="-478.1" font-family="Times New Roman,serif" font-size="14.00">graphAnd#84</text>
</g>
<!-- 58 -->
<g id="node27" class="node">
<title>58</title>
<polygon fill="yellow" stroke="black" points="460.38,-456.9 321.38,-456.9 321.38,-420.9 460.38,-420.9 460.38,-456.9"/>
<text text-anchor="middle" x="390.88" y="-433.85" font-family="Times New Roman,serif" font-size="14.00">it2 = Sequence{1..d2}</text>
<text text-anchor="middle" x="310.12" y="-460.1" font-family="Times New Roman,serif" font-size="14.00">[58]</text>
</g>
<!-- 55&#45;&gt;58 -->
<g id="edge5" class="edge">
<title>55&#45;&gt;58</title>
<path fill="none" stroke="black" d="M321.06,-509.31C333.73,-496.72 351.17,-479.38 365.44,-465.19"/>
<polygon fill="black" stroke="black" points="367.73,-467.85 372.35,-458.32 362.79,-462.89 367.73,-467.85"/>
<text text-anchor="middle" x="392.29" y="-478.1" font-family="Times New Roman,serif" font-size="14.00">graphAnd#71</text>
</g>
<!-- 58&#45;&gt;64 -->
<g id="edge6" class="edge">
<title>58&#45;&gt;64</title>
<path fill="none" stroke="black" d="M460.73,-445.16C552.98,-454.07 703.88,-476.29 703.88,-526.4 703.88,-992.4 703.88,-992.4 703.88,-992.4 703.88,-1016.12 701.15,-1023.03 689.88,-1043.9 688.23,-1046.94 686.27,-1049.95 684.16,-1052.83"/>
<polygon fill="black" stroke="black" points="681.58,-1050.45 677.98,-1060.41 687.01,-1054.87 681.58,-1050.45"/>
<text text-anchor="middle" x="741" y="-743.6" font-family="Times New Roman,serif" font-size="14.00">graphAnd#72</text>
</g>
<!-- 61&#45;&gt;81 -->
<g id="edge4" class="edge">
<title>61&#45;&gt;81</title>
<path fill="none" stroke="black" d="M583.42,-980.81C516.46,-960.4 361.91,-913.28 311.84,-898.02"/>
<polygon fill="black" stroke="black" points="313.09,-894.74 302.51,-895.17 311.05,-901.44 313.09,-894.74"/>
<text text-anchor="middle" x="530.45" y="-942.1" font-family="Times New Roman,serif" font-size="14.00">graphAnd#68</text>
</g>
</g>
</svg>
