<?xml version="1.0" encoding="UTF-8" standalone="no"?>
<!DOCTYPE svg PUBLIC "-//W3C//DTD SVG 1.1//EN"
 "http://www.w3.org/Graphics/SVG/1.1/DTD/svg11.dtd">
<!-- Generated by graphviz version 12.2.1 (20241206.2353)
 -->
<!-- Title: CLG Pages: 1 -->
<svg width="733pt" height="1092pt"
 viewBox="0.00 0.00 733.00 1092.20" xmlns="http://www.w3.org/2000/svg" xmlns:xlink="http://www.w3.org/1999/xlink">
<g id="graph0" class="graph" transform="scale(1 1) rotate(0) translate(4 1088.2)">
<title>CLG</title>
<polygon fill="white" stroke="none" points="-4,4 -4,-1088.2 729,-1088.2 729,4 -4,4"/>
<!-- 64 -->
<g id="node1" class="node">
<title>64</title>
<polygon fill="yellow" stroke="black" points="341.38,-781.4 215.88,-781.4 215.88,-745.4 341.38,-745.4 341.38,-781.4"/>
<text text-anchor="middle" x="278.62" y="-758.35" font-family="Times New Roman,serif" font-size="14.00">Result = &#39;Exception&#39;</text>
<text text-anchor="middle" x="204.62" y="-784.6" font-family="Times New Roman,serif" font-size="14.00">[64]</text>
</g>
<!-- 107 -->
<g id="node11" class="node">
<title>107</title>
<polygon fill="aquamarine" stroke="black" points="327.62,-202.2 320.43,-195 327.62,-187.8 334.82,-195 327.62,-202.2"/>
<text text-anchor="middle" x="302.05" y="-205.4" font-family="Times New Roman,serif" font-size="14.00">&lt;107&gt;</text>
</g>
<!-- 64&#45;&gt;107 -->
<g id="edge11" class="edge">
<title>64&#45;&gt;107</title>
<path fill="none" stroke="black" d="M281.69,-744.9C284.94,-724.77 289.62,-690.68 289.62,-661.15 289.62,-661.15 289.62,-661.15 289.62,-282.5 289.62,-254.25 306.83,-224.85 318.09,-208.64"/>
<polygon fill="black" stroke="black" points="320.65,-211.06 323.75,-200.93 315.01,-206.92 320.65,-211.06"/>
<text text-anchor="middle" x="323.75" y="-478.1" font-family="Times New Roman,serif" font-size="14.00">merge2#109</text>
</g>
<!-- 97 -->
<g id="node2" class="node">
<title>97</title>
<polygon fill="yellow" stroke="black" points="615.75,-36 513.5,-36 513.5,0 615.75,0 615.75,-36"/>
<text text-anchor="middle" x="564.62" y="-12.95" font-family="Times New Roman,serif" font-size="14.00">idx0 = idx0 + 1</text>
<text text-anchor="middle" x="502.25" y="-39.2" font-family="Times New Roman,serif" font-size="14.00">[97]</text>
</g>
<!-- 99 -->
<g id="node4" class="node">
<title>99</title>
<polygon fill="aquamarine" stroke="black" points="531.62,-368.4 524.42,-361.2 531.62,-354 538.83,-361.2 531.62,-368.4"/>
<text text-anchor="middle" x="509.43" y="-371.6" font-family="Times New Roman,serif" font-size="14.00">&lt;99&gt;</text>
</g>
<!-- 97&#45;&gt;99 -->
<g id="edge17" class="edge">
<title>97&#45;&gt;99</title>
<path fill="none" stroke="black" d="M592.6,-36.27C613.56,-51.58 638.62,-76.05 638.62,-105.5 638.62,-284.5 638.62,-284.5 638.62,-284.5 638.62,-328.11 578.66,-348.85 548.51,-356.52"/>
<polygon fill="black" stroke="black" points="547.8,-353.09 538.85,-358.76 549.38,-359.91 547.8,-353.09"/>
<text text-anchor="middle" x="665.62" y="-189.95" font-family="Times New Roman,serif" font-size="14.00">iterate#92</text>
</g>
<!-- 65 -->
<g id="node3" class="node">
<title>65</title>
<ellipse fill="black" stroke="black" cx="327.62" cy="-106.5" rx="7.2" ry="7.2"/>
<ellipse fill="none" stroke="black" cx="327.62" cy="-106.5" rx="11.2" ry="11.2"/>
<text text-anchor="middle" x="306.3" y="-120.9" font-family="Times New Roman,serif" font-size="14.00">[&#45;1]</text>
</g>
<!-- 85 -->
<g id="node15" class="node">
<title>85</title>
<polygon fill="yellow" stroke="black" points="445.5,-301.5 323.75,-301.5 323.75,-265.5 445.5,-265.5 445.5,-301.5"/>
<text text-anchor="middle" x="384.62" y="-278.45" font-family="Times New Roman,serif" font-size="14.00">idx0 &gt; dim1 &#45; 1+ 1</text>
<text text-anchor="middle" x="312.5" y="-304.7" font-family="Times New Roman,serif" font-size="14.00">[85]</text>
</g>
<!-- 99&#45;&gt;85 -->
<g id="edge18" class="edge">
<title>99&#45;&gt;85</title>
<path fill="none" stroke="black" d="M526.06,-359.17C512.89,-356.57 478.97,-349.05 453.38,-336 438.98,-328.66 424.45,-318.3 412.48,-308.8"/>
<polygon fill="black" stroke="black" points="415,-306.34 405.04,-302.73 410.57,-311.76 415,-306.34"/>
<text text-anchor="middle" x="490.5" y="-322.7" font-family="Times New Roman,serif" font-size="14.00">graphAnd#94</text>
</g>
<!-- 88 -->
<g id="node16" class="node">
<title>88</title>
<polygon fill="yellow" stroke="black" points="596.62,-301.5 466.62,-301.5 466.62,-265.5 596.62,-265.5 596.62,-301.5"/>
<text text-anchor="middle" x="531.62" y="-278.45" font-family="Times New Roman,serif" font-size="14.00">idx0 &lt;= dim1 &#45; 1+ 1</text>
<text text-anchor="middle" x="455.38" y="-304.7" font-family="Times New Roman,serif" font-size="14.00">[88]</text>
</g>
<!-- 99&#45;&gt;88 -->
<g id="edge16" class="edge">
<title>99&#45;&gt;88</title>
<path fill="none" stroke="black" d="M531.62,-353.48C531.62,-344.4 531.62,-327.65 531.62,-312.93"/>
<polygon fill="black" stroke="black" points="535.13,-313.26 531.63,-303.26 528.13,-313.26 535.13,-313.26"/>
<text text-anchor="middle" x="558.62" y="-322.7" font-family="Times New Roman,serif" font-size="14.00">iterate#91</text>
</g>
<!-- 67 -->
<g id="node5" class="node">
<title>67</title>
<polygon fill="yellow" stroke="black" points="400.75,-933.9 22.5,-933.9 22.5,-892.9 400.75,-892.9 400.75,-933.9"/>
<text text-anchor="middle" x="211.62" y="-916.6" font-family="Times New Roman,serif" font-size="14.00">arg.data.getDimension() &lt;&gt; self.data.getDimension() or</text>
<text text-anchor="middle" x="211.62" y="-900.1" font-family="Times New Roman,serif" font-size="14.00">arg.data.getDimensionSizes(1) &lt;&gt; self.data.getDimensionSizes(1)</text>
<text text-anchor="middle" x="11.25" y="-937.1" font-family="Times New Roman,serif" font-size="14.00">[67]</text>
</g>
<!-- 67&#45;&gt;64 -->
<g id="edge3" class="edge">
<title>67&#45;&gt;64</title>
<path fill="none" stroke="black" d="M220.66,-892.44C232.38,-866.55 252.88,-821.27 266.1,-792.07"/>
<polygon fill="black" stroke="black" points="269.21,-793.68 270.15,-783.13 262.84,-790.79 269.21,-793.68"/>
<text text-anchor="middle" x="272.33" y="-861.6" font-family="Times New Roman,serif" font-size="14.00">graphAnd#98</text>
</g>
<!-- 70 -->
<g id="node6" class="node">
<title>70</title>
<polygon fill="yellow" stroke="black" points="718.62,-840.4 348.62,-840.4 348.62,-799.4 718.62,-799.4 718.62,-840.4"/>
<text text-anchor="middle" x="533.62" y="-823.1" font-family="Times New Roman,serif" font-size="14.00">arg.data.getDimension() = self.data.getDimension() and</text>
<text text-anchor="middle" x="533.62" y="-806.6" font-family="Times New Roman,serif" font-size="14.00">arg.data.getDimensionSizes(1) = self.data.getDimensionSizes(1)</text>
<text text-anchor="middle" x="337.38" y="-843.6" font-family="Times New Roman,serif" font-size="14.00">[70]</text>
</g>
<!-- 73 -->
<g id="node9" class="node">
<title>73</title>
<polygon fill="yellow" stroke="black" points="725,-727.4 342.25,-727.4 342.25,-686.4 725,-686.4 725,-727.4"/>
<text text-anchor="middle" x="533.62" y="-710.1" font-family="Times New Roman,serif" font-size="14.00">self.data.getDimension() = result.data.getDimension() and</text>
<text text-anchor="middle" x="533.62" y="-693.6" font-family="Times New Roman,serif" font-size="14.00">self.data.getDimensionSizes(1) = result.data.getDimensionSizes(1)</text>
<text text-anchor="middle" x="331" y="-730.6" font-family="Times New Roman,serif" font-size="14.00">[73]</text>
</g>
<!-- 70&#45;&gt;73 -->
<g id="edge4" class="edge">
<title>70&#45;&gt;73</title>
<path fill="none" stroke="black" d="M533.62,-799.06C533.62,-782.32 533.62,-758.09 533.62,-738.82"/>
<polygon fill="black" stroke="black" points="537.13,-739.09 533.63,-729.09 530.13,-739.09 537.13,-739.09"/>
<text text-anchor="middle" x="570.75" y="-758.35" font-family="Times New Roman,serif" font-size="14.00">graphAnd#99</text>
</g>
<!-- 103 -->
<g id="node7" class="node">
<title>103</title>
<ellipse fill="black" stroke="black" cx="372.62" cy="-1060.5" rx="7.2" ry="7.2"/>
<text text-anchor="middle" x="357.55" y="-1070.9" font-family="Times New Roman,serif" font-size="14.00">[0]</text>
</g>
<!-- 106 -->
<g id="node10" class="node">
<title>106</title>
<polygon fill="aquamarine" stroke="black" points="372.62,-1000.8 365.43,-993.6 372.62,-986.4 379.82,-993.6 372.62,-1000.8"/>
<text text-anchor="middle" x="347.05" y="-1004" font-family="Times New Roman,serif" font-size="14.00">&lt;106&gt;</text>
</g>
<!-- 103&#45;&gt;106 -->
<g id="edge6" class="edge">
<title>103&#45;&gt;106</title>
<path fill="none" stroke="black" d="M372.62,-1053.04C372.62,-1043.71 372.62,-1026.11 372.62,-1012.65"/>
<polygon fill="black" stroke="black" points="376.13,-1012.94 372.63,-1002.94 369.13,-1012.94 376.13,-1012.94"/>
<text text-anchor="middle" x="423.62" y="-1022" font-family="Times New Roman,serif" font-size="14.00">graphOr_start#105</text>
</g>
<!-- 104 -->
<g id="node8" class="node">
<title>104</title>
<polygon fill="yellow" stroke="black" points="650.62,-933.9 418.62,-933.9 418.62,-892.9 650.62,-892.9 650.62,-933.9"/>
<text text-anchor="middle" x="534.62" y="-916.6" font-family="Times New Roman,serif" font-size="14.00">self.data.getDimensionSizes(1) &gt; 0 and</text>
<text text-anchor="middle" x="534.62" y="-900.1" font-family="Times New Roman,serif" font-size="14.00">self.data.getDimensionSizes(1) &lt; 10</text>
<text text-anchor="middle" x="404" y="-937.1" font-family="Times New Roman,serif" font-size="14.00">[104]</text>
</g>
<!-- 104&#45;&gt;70 -->
<g id="edge5" class="edge">
<title>104&#45;&gt;70</title>
<path fill="none" stroke="black" d="M534.41,-892.55C534.28,-880.68 534.11,-865.34 533.96,-851.9"/>
<polygon fill="black" stroke="black" points="537.47,-852.19 533.86,-842.23 530.47,-852.27 537.47,-852.19"/>
<text text-anchor="middle" x="574.71" y="-861.6" font-family="Times New Roman,serif" font-size="14.00">graphAnd#104</text>
</g>
<!-- 76 -->
<g id="node12" class="node">
<title>76</title>
<polygon fill="yellow" stroke="black" points="647.75,-633.9 419.5,-633.9 419.5,-597.9 647.75,-597.9 647.75,-633.9"/>
<text text-anchor="middle" x="533.62" y="-610.85" font-family="Times New Roman,serif" font-size="14.00">dim1 = arg.data.getDimensionSizes(1)</text>
<text text-anchor="middle" x="408.25" y="-637.1" font-family="Times New Roman,serif" font-size="14.00">[76]</text>
</g>
<!-- 73&#45;&gt;76 -->
<g id="edge2" class="edge">
<title>73&#45;&gt;76</title>
<path fill="none" stroke="black" d="M533.62,-686.15C533.62,-674.23 533.62,-658.84 533.62,-645.59"/>
<polygon fill="black" stroke="black" points="537.13,-645.71 533.63,-635.71 530.13,-645.71 537.13,-645.71"/>
<text text-anchor="middle" x="570.75" y="-655.1" font-family="Times New Roman,serif" font-size="14.00">graphAnd#97</text>
</g>
<!-- 106&#45;&gt;67 -->
<g id="edge8" class="edge">
<title>106&#45;&gt;67</title>
<path fill="none" stroke="black" d="M367.98,-990.34C352.65,-982.9 302.37,-958.47 262.91,-939.31"/>
<polygon fill="black" stroke="black" points="264.52,-936.2 253.99,-934.98 261.46,-942.5 264.52,-936.2"/>
<text text-anchor="middle" x="349.05" y="-955.1" font-family="Times New Roman,serif" font-size="14.00">split2#107</text>
</g>
<!-- 106&#45;&gt;104 -->
<g id="edge7" class="edge">
<title>106&#45;&gt;104</title>
<path fill="none" stroke="black" d="M376.96,-990.51C392,-983.25 443.24,-958.51 483.27,-939.19"/>
<polygon fill="black" stroke="black" points="484.59,-942.44 492.07,-934.94 481.55,-936.14 484.59,-942.44"/>
<text text-anchor="middle" x="482.12" y="-955.1" font-family="Times New Roman,serif" font-size="14.00">split1#106</text>
</g>
<!-- 107&#45;&gt;65 -->
<g id="edge12" class="edge">
<title>107&#45;&gt;65</title>
<path fill="none" stroke="black" d="M327.62,-187.21C327.62,-174.92 327.62,-148.49 327.62,-129.43"/>
<polygon fill="black" stroke="black" points="331.13,-129.44 327.63,-119.44 324.13,-129.44 331.13,-129.44"/>
<text text-anchor="middle" x="376.75" y="-145.7" font-family="Times New Roman,serif" font-size="14.00">graphOr_end#110</text>
</g>
<!-- 82 -->
<g id="node14" class="node">
<title>82</title>
<polygon fill="yellow" stroke="black" points="569,-545.4 498.25,-545.4 498.25,-509.4 569,-509.4 569,-545.4"/>
<text text-anchor="middle" x="533.62" y="-522.35" font-family="Times New Roman,serif" font-size="14.00">acc = true</text>
<text text-anchor="middle" x="487" y="-548.6" font-family="Times New Roman,serif" font-size="14.00">[82]</text>
</g>
<!-- 76&#45;&gt;82 -->
<g id="edge1" class="edge">
<title>76&#45;&gt;82</title>
<path fill="none" stroke="black" d="M533.62,-597.81C533.62,-586.16 533.62,-570.45 533.62,-556.92"/>
<polygon fill="black" stroke="black" points="537.13,-557.26 533.63,-547.26 530.13,-557.26 537.13,-557.26"/>
<text text-anchor="middle" x="570.75" y="-566.6" font-family="Times New Roman,serif" font-size="14.00">graphAnd#96</text>
</g>
<!-- 79 -->
<g id="node13" class="node">
<title>79</title>
<polygon fill="yellow" stroke="black" points="563.88,-456.9 501.38,-456.9 501.38,-420.9 563.88,-420.9 563.88,-456.9"/>
<text text-anchor="middle" x="532.62" y="-433.85" font-family="Times New Roman,serif" font-size="14.00">idx0 = 1</text>
<text text-anchor="middle" x="490.12" y="-460.1" font-family="Times New Roman,serif" font-size="14.00">[79]</text>
</g>
<!-- 79&#45;&gt;99 -->
<g id="edge19" class="edge">
<title>79&#45;&gt;99</title>
<path fill="none" stroke="black" d="M532.4,-420.72C532.24,-408.68 532.03,-392.6 531.86,-380.35"/>
<polygon fill="black" stroke="black" points="535.37,-380.39 531.73,-370.44 528.37,-380.48 535.37,-380.39"/>
<text text-anchor="middle" x="569.28" y="-389.6" font-family="Times New Roman,serif" font-size="14.00">graphAnd#95</text>
</g>
<!-- 82&#45;&gt;79 -->
<g id="edge9" class="edge">
<title>82&#45;&gt;79</title>
<path fill="none" stroke="black" d="M533.43,-509.31C533.29,-497.66 533.11,-481.95 532.95,-468.42"/>
<polygon fill="black" stroke="black" points="536.46,-468.72 532.84,-458.76 529.46,-468.8 536.46,-468.72"/>
<text text-anchor="middle" x="570.34" y="-478.1" font-family="Times New Roman,serif" font-size="14.00">graphAnd#76</text>
</g>
<!-- 85&#45;&gt;107 -->
<g id="edge10" class="edge">
<title>85&#45;&gt;107</title>
<path fill="none" stroke="black" d="M373.36,-265.41C362.5,-248.93 346.3,-224.34 336.38,-209.28"/>
<polygon fill="black" stroke="black" points="339.46,-207.6 331.04,-201.18 333.62,-211.45 339.46,-207.6"/>
<text text-anchor="middle" x="395.36" y="-234.2" font-family="Times New Roman,serif" font-size="14.00">merge1#108</text>
</g>
<!-- 91 -->
<g id="node17" class="node">
<title>91</title>
<polygon fill="yellow" stroke="black" points="575.25,-213 428,-213 428,-177 575.25,-177 575.25,-213"/>
<text text-anchor="middle" x="501.62" y="-189.95" font-family="Times New Roman,serif" font-size="14.00">it = Sequence{1..dim1}</text>
<text text-anchor="middle" x="416.75" y="-216.2" font-family="Times New Roman,serif" font-size="14.00">[91]</text>
</g>
<!-- 88&#45;&gt;91 -->
<g id="edge13" class="edge">
<title>88&#45;&gt;91</title>
<path fill="none" stroke="black" d="M525.7,-265.41C521.62,-253.64 516.1,-237.73 511.37,-224.11"/>
<polygon fill="black" stroke="black" points="514.72,-223.08 508.14,-214.78 508.11,-225.37 514.72,-223.08"/>
<text text-anchor="middle" x="556.44" y="-234.2" font-family="Times New Roman,serif" font-size="14.00">graphAnd#87</text>
</g>
<!-- 94 -->
<g id="node18" class="node">
<title>94</title>
<polygon fill="yellow" stroke="black" points="611,-124.5 372.25,-124.5 372.25,-88.5 611,-88.5 611,-124.5"/>
<text text-anchor="middle" x="491.62" y="-101.45" font-family="Times New Roman,serif" font-size="14.00">result.data[it] = self.data[it] &#45; arg.data[it]</text>
<text text-anchor="middle" x="361" y="-127.7" font-family="Times New Roman,serif" font-size="14.00">[94]</text>
</g>
<!-- 91&#45;&gt;94 -->
<g id="edge14" class="edge">
<title>91&#45;&gt;94</title>
<path fill="none" stroke="black" d="M499.65,-176.91C498.3,-165.26 496.49,-149.55 494.92,-136.02"/>
<polygon fill="black" stroke="black" points="498.43,-135.89 493.8,-126.35 491.48,-136.69 498.43,-135.89"/>
<text text-anchor="middle" x="534.65" y="-145.7" font-family="Times New Roman,serif" font-size="14.00">graphAnd#88</text>
</g>
<!-- 94&#45;&gt;97 -->
<g id="edge15" class="edge">
<title>94&#45;&gt;97</title>
<path fill="none" stroke="black" d="M506.05,-88.41C516.48,-76.05 530.76,-59.13 542.61,-45.08"/>
<polygon fill="black" stroke="black" points="545.23,-47.41 549.01,-37.51 539.88,-42.89 545.23,-47.41"/>
<text text-anchor="middle" x="571.79" y="-57.2" font-family="Times New Roman,serif" font-size="14.00">graphAnd#89</text>
</g>
</g>
</svg>
