<?xml version="1.0" encoding="UTF-8" standalone="no"?>
<!DOCTYPE svg PUBLIC "-//W3C//DTD SVG 1.1//EN"
 "http://www.w3.org/Graphics/SVG/1.1/DTD/svg11.dtd">
<!-- Generated by graphviz version 12.2.1 (20241206.2353)
 -->
<!-- Title: CLG Pages: 1 -->
<svg width="1052pt" height="1166pt"
 viewBox="0.00 0.00 1051.75 1165.70" xmlns="http://www.w3.org/2000/svg" xmlns:xlink="http://www.w3.org/1999/xlink">
<g id="graph0" class="graph" transform="scale(1 1) rotate(0) translate(4 1161.7)">
<title>CLG</title>
<polygon fill="white" stroke="none" points="-4,4 -4,-1161.7 1047.75,-1161.7 1047.75,4 -4,4"/>
<!-- 128 -->
<g id="node1" class="node">
<title>128</title>
<ellipse fill="black" stroke="black" cx="391.62" cy="-1134" rx="7.2" ry="7.2"/>
<text text-anchor="middle" x="376.55" y="-1144.4" font-family="Times New Roman,serif" font-size="14.00">[0]</text>
</g>
<!-- 134 -->
<g id="node6" class="node">
<title>134</title>
<polygon fill="aquamarine" stroke="black" points="391.62,-1074.3 384.43,-1067.1 391.62,-1059.9 398.82,-1067.1 391.62,-1074.3"/>
<text text-anchor="middle" x="366.05" y="-1077.5" font-family="Times New Roman,serif" font-size="14.00">&lt;134&gt;</text>
</g>
<!-- 128&#45;&gt;134 -->
<g id="edge6" class="edge">
<title>128&#45;&gt;134</title>
<path fill="none" stroke="black" d="M391.62,-1126.54C391.62,-1117.21 391.62,-1099.61 391.62,-1086.15"/>
<polygon fill="black" stroke="black" points="395.13,-1086.44 391.63,-1076.44 388.13,-1086.44 395.13,-1086.44"/>
<text text-anchor="middle" x="442.62" y="-1095.5" font-family="Times New Roman,serif" font-size="14.00">graphOr_start#139</text>
</g>
<!-- 129 -->
<g id="node2" class="node">
<title>129</title>
<polygon fill="yellow" stroke="black" points="431,-1007.4 222.25,-1007.4 222.25,-971.4 431,-971.4 431,-1007.4"/>
<text text-anchor="middle" x="326.62" y="-984.35" font-family="Times New Roman,serif" font-size="14.00">self.data.getDimensionSizes(1) &gt; 0</text>
<text text-anchor="middle" x="207.62" y="-1010.6" font-family="Times New Roman,serif" font-size="14.00">[129]</text>
</g>
<!-- 132 -->
<g id="node4" class="node">
<title>132</title>
<polygon fill="yellow" stroke="black" points="321.38,-918.9 105.88,-918.9 105.88,-882.9 321.38,-882.9 321.38,-918.9"/>
<text text-anchor="middle" x="213.62" y="-895.85" font-family="Times New Roman,serif" font-size="14.00">self.data.getDimensionSizes(1) &lt; 10</text>
<text text-anchor="middle" x="91.25" y="-922.1" font-family="Times New Roman,serif" font-size="14.00">[132]</text>
</g>
<!-- 129&#45;&gt;132 -->
<g id="edge4" class="edge">
<title>129&#45;&gt;132</title>
<path fill="none" stroke="black" d="M304.03,-971.1C287.17,-958.2 263.92,-940.4 245.22,-926.08"/>
<polygon fill="black" stroke="black" points="247.45,-923.39 237.38,-920.09 243.2,-928.94 247.45,-923.39"/>
<text text-anchor="middle" x="320.75" y="-940.1" font-family="Times New Roman,serif" font-size="14.00">graphAnd#137</text>
</g>
<!-- 98 -->
<g id="node3" class="node">
<title>98</title>
<polygon fill="yellow" stroke="black" points="459.62,-741.9 89.62,-741.9 89.62,-705.9 459.62,-705.9 459.62,-741.9"/>
<text text-anchor="middle" x="274.62" y="-718.85" font-family="Times New Roman,serif" font-size="14.00">arg.data.getDimensionSizes(1) = self.data.getDimensionSizes(1)</text>
<text text-anchor="middle" x="78.38" y="-745.1" font-family="Times New Roman,serif" font-size="14.00">[98]</text>
</g>
<!-- 101 -->
<g id="node5" class="node">
<title>101</title>
<polygon fill="yellow" stroke="black" points="388.75,-633.9 160.5,-633.9 160.5,-597.9 388.75,-597.9 388.75,-633.9"/>
<text text-anchor="middle" x="274.62" y="-610.85" font-family="Times New Roman,serif" font-size="14.00">dim1 = arg.data.getDimensionSizes(1)</text>
<text text-anchor="middle" x="145.88" y="-637.1" font-family="Times New Roman,serif" font-size="14.00">[101]</text>
</g>
<!-- 98&#45;&gt;101 -->
<g id="edge3" class="edge">
<title>98&#45;&gt;101</title>
<path fill="none" stroke="black" d="M274.62,-705.87C274.62,-689.66 274.62,-664.96 274.62,-645.69"/>
<polygon fill="black" stroke="black" points="278.13,-645.75 274.63,-635.75 271.13,-645.75 278.13,-645.75"/>
<text text-anchor="middle" x="315.12" y="-664.85" font-family="Times New Roman,serif" font-size="14.00">graphAnd#130</text>
</g>
<!-- 95 -->
<g id="node22" class="node">
<title>95</title>
<polygon fill="yellow" stroke="black" points="388.38,-830.4 88.88,-830.4 88.88,-794.4 388.38,-794.4 388.38,-830.4"/>
<text text-anchor="middle" x="238.62" y="-807.35" font-family="Times New Roman,serif" font-size="14.00">arg.data.getDimension() = self.data.getDimension()</text>
<text text-anchor="middle" x="77.62" y="-833.6" font-family="Times New Roman,serif" font-size="14.00">[95]</text>
</g>
<!-- 132&#45;&gt;95 -->
<g id="edge5" class="edge">
<title>132&#45;&gt;95</title>
<path fill="none" stroke="black" d="M218.56,-882.81C221.97,-871.04 226.56,-855.13 230.5,-841.51"/>
<polygon fill="black" stroke="black" points="233.78,-842.78 233.19,-832.2 227.05,-840.84 233.78,-842.78"/>
<text text-anchor="middle" x="268.86" y="-851.6" font-family="Times New Roman,serif" font-size="14.00">graphAnd#138</text>
</g>
<!-- 107 -->
<g id="node9" class="node">
<title>107</title>
<polygon fill="yellow" stroke="black" points="311,-545.4 240.25,-545.4 240.25,-509.4 311,-509.4 311,-545.4"/>
<text text-anchor="middle" x="275.62" y="-522.35" font-family="Times New Roman,serif" font-size="14.00">acc = true</text>
<text text-anchor="middle" x="225.62" y="-548.6" font-family="Times New Roman,serif" font-size="14.00">[107]</text>
</g>
<!-- 101&#45;&gt;107 -->
<g id="edge1" class="edge">
<title>101&#45;&gt;107</title>
<path fill="none" stroke="black" d="M274.82,-597.81C274.96,-586.16 275.14,-570.45 275.3,-556.92"/>
<polygon fill="black" stroke="black" points="278.79,-557.3 275.41,-547.26 271.79,-557.22 278.79,-557.3"/>
<text text-anchor="middle" x="315.71" y="-566.6" font-family="Times New Roman,serif" font-size="14.00">graphAnd#128</text>
</g>
<!-- 134&#45;&gt;129 -->
<g id="edge7" class="edge">
<title>134&#45;&gt;129</title>
<path fill="none" stroke="black" d="M387.91,-1063.18C382.5,-1058.84 372.25,-1050.28 364.62,-1041.9 357.64,-1034.22 350.69,-1025.28 344.68,-1017.03"/>
<polygon fill="black" stroke="black" points="347.64,-1015.14 338.99,-1009.01 341.93,-1019.19 347.64,-1015.14"/>
<text text-anchor="middle" x="393.12" y="-1028.6" font-family="Times New Roman,serif" font-size="14.00">split1#140</text>
</g>
<!-- 92 -->
<g id="node20" class="node">
<title>92</title>
<polygon fill="aquamarine" stroke="black" points="493.62,-996.6 486.43,-989.4 493.62,-982.2 500.82,-989.4 493.62,-996.6"/>
<text text-anchor="middle" x="471.43" y="-999.8" font-family="Times New Roman,serif" font-size="14.00">&lt;92&gt;</text>
</g>
<!-- 134&#45;&gt;92 -->
<g id="edge8" class="edge">
<title>134&#45;&gt;92</title>
<path fill="none" stroke="black" d="M395.5,-1063.22C409.45,-1052.87 457.51,-1017.21 480.79,-999.93"/>
<polygon fill="black" stroke="black" points="482.59,-1002.95 488.53,-994.18 478.42,-997.33 482.59,-1002.95"/>
<text text-anchor="middle" x="474.18" y="-1028.6" font-family="Times New Roman,serif" font-size="14.00">split2#141</text>
</g>
<!-- 135 -->
<g id="node7" class="node">
<title>135</title>
<polygon fill="aquamarine" stroke="black" points="445.62,-202.2 438.43,-195 445.62,-187.8 452.82,-195 445.62,-202.2"/>
<text text-anchor="middle" x="420.05" y="-205.4" font-family="Times New Roman,serif" font-size="14.00">&lt;135&gt;</text>
</g>
<!-- 85 -->
<g id="node14" class="node">
<title>85</title>
<ellipse fill="black" stroke="black" cx="445.62" cy="-106.5" rx="7.2" ry="7.2"/>
<ellipse fill="none" stroke="black" cx="445.62" cy="-106.5" rx="11.2" ry="11.2"/>
<text text-anchor="middle" x="424.3" y="-120.9" font-family="Times New Roman,serif" font-size="14.00">[&#45;1]</text>
</g>
<!-- 135&#45;&gt;85 -->
<g id="edge11" class="edge">
<title>135&#45;&gt;85</title>
<path fill="none" stroke="black" d="M445.62,-187.21C445.62,-174.92 445.62,-148.49 445.62,-129.43"/>
<polygon fill="black" stroke="black" points="449.13,-129.44 445.63,-119.44 442.13,-129.44 449.13,-129.44"/>
<text text-anchor="middle" x="494.75" y="-145.7" font-family="Times New Roman,serif" font-size="14.00">graphOr_end#144</text>
</g>
<!-- 104 -->
<g id="node8" class="node">
<title>104</title>
<polygon fill="yellow" stroke="black" points="317.62,-456.9 241.62,-456.9 241.62,-420.9 317.62,-420.9 317.62,-456.9"/>
<text text-anchor="middle" x="279.62" y="-433.85" font-family="Times New Roman,serif" font-size="14.00">Index0 = 1</text>
<text text-anchor="middle" x="227" y="-460.1" font-family="Times New Roman,serif" font-size="14.00">[104]</text>
</g>
<!-- 124 -->
<g id="node19" class="node">
<title>124</title>
<polygon fill="aquamarine" stroke="black" points="294.62,-368.4 287.43,-361.2 294.62,-354 301.82,-361.2 294.62,-368.4"/>
<text text-anchor="middle" x="269.05" y="-371.6" font-family="Times New Roman,serif" font-size="14.00">&lt;124&gt;</text>
</g>
<!-- 104&#45;&gt;124 -->
<g id="edge24" class="edge">
<title>104&#45;&gt;124</title>
<path fill="none" stroke="black" d="M283.03,-420.72C285.52,-408.16 288.88,-391.22 291.34,-378.79"/>
<polygon fill="black" stroke="black" points="294.7,-379.83 293.21,-369.34 287.83,-378.47 294.7,-379.83"/>
<text text-anchor="middle" x="330.27" y="-389.6" font-family="Times New Roman,serif" font-size="14.00">graphAnd#127</text>
</g>
<!-- 107&#45;&gt;104 -->
<g id="edge17" class="edge">
<title>107&#45;&gt;104</title>
<path fill="none" stroke="black" d="M276.42,-509.31C276.95,-497.66 277.68,-481.95 278.31,-468.42"/>
<polygon fill="black" stroke="black" points="281.79,-468.91 278.75,-458.76 274.79,-468.59 281.79,-468.91"/>
<text text-anchor="middle" x="318.48" y="-478.1" font-family="Times New Roman,serif" font-size="14.00">graphAnd#108</text>
</g>
<!-- 110 -->
<g id="node10" class="node">
<title>110</title>
<polygon fill="yellow" stroke="black" points="459.25,-301.5 324,-301.5 324,-265.5 459.25,-265.5 459.25,-301.5"/>
<text text-anchor="middle" x="391.62" y="-278.45" font-family="Times New Roman,serif" font-size="14.00">Index0 &gt; dim1 &#45; 1+ 1</text>
<text text-anchor="middle" x="309.38" y="-304.7" font-family="Times New Roman,serif" font-size="14.00">[110]</text>
</g>
<!-- 110&#45;&gt;135 -->
<g id="edge9" class="edge">
<title>110&#45;&gt;135</title>
<path fill="none" stroke="black" d="M393.63,-265.25C395.45,-254.73 398.91,-241.36 405.38,-231 412.13,-220.17 423.28,-210.86 432.13,-204.57"/>
<polygon fill="black" stroke="black" points="433.92,-207.58 440.35,-199.16 430.07,-201.73 433.92,-207.58"/>
<text text-anchor="middle" x="439.5" y="-234.2" font-family="Times New Roman,serif" font-size="14.00">merge1#142</text>
</g>
<!-- 113 -->
<g id="node11" class="node">
<title>113</title>
<polygon fill="yellow" stroke="black" points="253.38,-301.5 109.88,-301.5 109.88,-265.5 253.38,-265.5 253.38,-301.5"/>
<text text-anchor="middle" x="181.62" y="-278.45" font-family="Times New Roman,serif" font-size="14.00">Index0 &lt;= dim1 &#45; 1+ 1</text>
<text text-anchor="middle" x="95.25" y="-304.7" font-family="Times New Roman,serif" font-size="14.00">[113]</text>
</g>
<!-- 116 -->
<g id="node12" class="node">
<title>116</title>
<polygon fill="yellow" stroke="black" points="228.25,-213 81,-213 81,-177 228.25,-177 228.25,-213"/>
<text text-anchor="middle" x="154.62" y="-189.95" font-family="Times New Roman,serif" font-size="14.00">it = Sequence{1..dim1}</text>
<text text-anchor="middle" x="66.38" y="-216.2" font-family="Times New Roman,serif" font-size="14.00">[116]</text>
</g>
<!-- 113&#45;&gt;116 -->
<g id="edge18" class="edge">
<title>113&#45;&gt;116</title>
<path fill="none" stroke="black" d="M176.29,-265.41C172.62,-253.64 167.65,-237.73 163.4,-224.11"/>
<polygon fill="black" stroke="black" points="166.81,-223.3 160.49,-214.79 160.13,-225.38 166.81,-223.3"/>
<text text-anchor="middle" x="211.04" y="-234.2" font-family="Times New Roman,serif" font-size="14.00">graphAnd#119</text>
</g>
<!-- 119 -->
<g id="node15" class="node">
<title>119</title>
<polygon fill="yellow" stroke="black" points="268,-124.5 29.25,-124.5 29.25,-88.5 268,-88.5 268,-124.5"/>
<text text-anchor="middle" x="148.62" y="-101.45" font-family="Times New Roman,serif" font-size="14.00">result.data[it] = self.data[it] &#45; arg.data[it]</text>
<text text-anchor="middle" x="14.62" y="-127.7" font-family="Times New Roman,serif" font-size="14.00">[119]</text>
</g>
<!-- 116&#45;&gt;119 -->
<g id="edge19" class="edge">
<title>116&#45;&gt;119</title>
<path fill="none" stroke="black" d="M153.44,-176.91C152.63,-165.26 151.54,-149.55 150.6,-136.02"/>
<polygon fill="black" stroke="black" points="154.12,-136.09 149.93,-126.36 147.13,-136.58 154.12,-136.09"/>
<text text-anchor="middle" x="192.66" y="-145.7" font-family="Times New Roman,serif" font-size="14.00">graphAnd#120</text>
</g>
<!-- 84 -->
<g id="node13" class="node">
<title>84</title>
<polygon fill="yellow" stroke="black" points="551.38,-687.9 425.88,-687.9 425.88,-651.9 551.38,-651.9 551.38,-687.9"/>
<text text-anchor="middle" x="488.62" y="-664.85" font-family="Times New Roman,serif" font-size="14.00">Result = &#39;Exception&#39;</text>
<text text-anchor="middle" x="414.62" y="-691.1" font-family="Times New Roman,serif" font-size="14.00">[84]</text>
</g>
<!-- 84&#45;&gt;135 -->
<g id="edge10" class="edge">
<title>84&#45;&gt;135</title>
<path fill="none" stroke="black" d="M488.34,-651.51C488.04,-632.24 487.62,-600.22 487.62,-572.65 487.62,-572.65 487.62,-572.65 487.62,-282.5 487.62,-258.78 484.37,-252.15 473.62,-231 469.28,-222.44 462.62,-214 456.88,-207.56"/>
<polygon fill="black" stroke="black" points="459.56,-205.29 450.14,-200.43 454.47,-210.1 459.56,-205.29"/>
<text text-anchor="middle" x="521.75" y="-433.85" font-family="Times New Roman,serif" font-size="14.00">merge2#143</text>
</g>
<!-- 122 -->
<g id="node17" class="node">
<title>122</title>
<polygon fill="yellow" stroke="black" points="287.25,-36 158,-36 158,0 287.25,0 287.25,-36"/>
<text text-anchor="middle" x="222.62" y="-12.95" font-family="Times New Roman,serif" font-size="14.00">Index0 = Index0 + 1</text>
<text text-anchor="middle" x="143.38" y="-39.2" font-family="Times New Roman,serif" font-size="14.00">[122]</text>
</g>
<!-- 119&#45;&gt;122 -->
<g id="edge20" class="edge">
<title>119&#45;&gt;122</title>
<path fill="none" stroke="black" d="M163.25,-88.41C173.82,-76.05 188.3,-59.13 200.31,-45.08"/>
<polygon fill="black" stroke="black" points="202.96,-47.37 206.8,-37.5 197.64,-42.82 202.96,-47.37"/>
<text text-anchor="middle" x="232.75" y="-57.2" font-family="Times New Roman,serif" font-size="14.00">graphAnd#121</text>
</g>
<!-- 87 -->
<g id="node16" class="node">
<title>87</title>
<polygon fill="yellow" stroke="black" points="647.5,-918.9 339.75,-918.9 339.75,-882.9 647.5,-882.9 647.5,-918.9"/>
<text text-anchor="middle" x="493.62" y="-895.85" font-family="Times New Roman,serif" font-size="14.00">arg.data.getDimension() &lt;&gt; self.data.getDimension()</text>
<text text-anchor="middle" x="328.5" y="-922.1" font-family="Times New Roman,serif" font-size="14.00">[87]</text>
</g>
<!-- 93 -->
<g id="node21" class="node">
<title>93</title>
<polygon fill="aquamarine" stroke="black" points="493.62,-819.6 486.43,-812.4 493.62,-805.2 500.82,-812.4 493.62,-819.6"/>
<text text-anchor="middle" x="471.43" y="-822.8" font-family="Times New Roman,serif" font-size="14.00">&lt;93&gt;</text>
</g>
<!-- 87&#45;&gt;93 -->
<g id="edge14" class="edge">
<title>87&#45;&gt;93</title>
<path fill="none" stroke="black" d="M493.62,-882.81C493.62,-868.04 493.62,-846.73 493.62,-831.63"/>
<polygon fill="black" stroke="black" points="497.13,-831.79 493.63,-821.79 490.13,-831.79 497.13,-831.79"/>
<text text-anchor="middle" x="524.38" y="-851.6" font-family="Times New Roman,serif" font-size="14.00">merge1#94</text>
</g>
<!-- 122&#45;&gt;124 -->
<g id="edge22" class="edge">
<title>122&#45;&gt;124</title>
<path fill="none" stroke="black" d="M257.75,-36.39C265.08,-41.28 272.21,-47.17 277.62,-54 292.68,-73 295.62,-81.25 295.62,-105.5 295.62,-284.5 295.62,-284.5 295.62,-284.5 295.62,-304.22 295.28,-326.83 295,-342.17"/>
<polygon fill="black" stroke="black" points="291.5,-341.94 294.8,-352 298.5,-342.07 291.5,-341.94"/>
<text text-anchor="middle" x="326" y="-189.95" font-family="Times New Roman,serif" font-size="14.00">iterate#124</text>
</g>
<!-- 90 -->
<g id="node18" class="node">
<title>90</title>
<polygon fill="yellow" stroke="black" points="1043.75,-918.9 665.5,-918.9 665.5,-882.9 1043.75,-882.9 1043.75,-918.9"/>
<text text-anchor="middle" x="854.62" y="-895.85" font-family="Times New Roman,serif" font-size="14.00">arg.data.getDimensionSizes(1) &lt;&gt; self.data.getDimensionSizes(1)</text>
<text text-anchor="middle" x="654.25" y="-922.1" font-family="Times New Roman,serif" font-size="14.00">[90]</text>
</g>
<!-- 90&#45;&gt;93 -->
<g id="edge15" class="edge">
<title>90&#45;&gt;93</title>
<path fill="none" stroke="black" d="M782.01,-882.5C695.62,-861.8 557.16,-828.62 509.98,-817.32"/>
<polygon fill="black" stroke="black" points="511.03,-813.97 500.49,-815.04 509.39,-820.78 511.03,-813.97"/>
<text text-anchor="middle" x="737.21" y="-851.6" font-family="Times New Roman,serif" font-size="14.00">merge2#95</text>
</g>
<!-- 124&#45;&gt;110 -->
<g id="edge23" class="edge">
<title>124&#45;&gt;110</title>
<path fill="none" stroke="black" d="M298.31,-357.32C308.45,-349.41 337.56,-326.69 360.6,-308.71"/>
<polygon fill="black" stroke="black" points="362.47,-311.69 368.2,-302.78 358.16,-306.17 362.47,-311.69"/>
<text text-anchor="middle" x="386.53" y="-322.7" font-family="Times New Roman,serif" font-size="14.00">graphAnd#126</text>
</g>
<!-- 124&#45;&gt;113 -->
<g id="edge21" class="edge">
<title>124&#45;&gt;113</title>
<path fill="none" stroke="black" d="M288.73,-359.48C275.5,-357.61 242.84,-351.62 220.88,-336 211.73,-329.49 203.74,-320.22 197.41,-311.34"/>
<polygon fill="black" stroke="black" points="200.49,-309.65 192.04,-303.26 194.66,-313.52 200.49,-309.65"/>
<text text-anchor="middle" x="251.25" y="-322.7" font-family="Times New Roman,serif" font-size="14.00">iterate#123</text>
</g>
<!-- 92&#45;&gt;87 -->
<g id="edge12" class="edge">
<title>92&#45;&gt;87</title>
<path fill="none" stroke="black" d="M493.62,-981.61C493.62,-970.75 493.62,-948.85 493.62,-930.75"/>
<polygon fill="black" stroke="black" points="497.13,-930.79 493.63,-920.79 490.13,-930.79 497.13,-930.79"/>
<text text-anchor="middle" x="518.75" y="-940.1" font-family="Times New Roman,serif" font-size="14.00">split1#92</text>
</g>
<!-- 92&#45;&gt;90 -->
<g id="edge13" class="edge">
<title>92&#45;&gt;90</title>
<path fill="none" stroke="black" d="M499.01,-987.11C528.75,-979.98 675.06,-944.92 770.51,-922.06"/>
<polygon fill="black" stroke="black" points="771.21,-925.49 780.12,-919.75 769.58,-918.68 771.21,-925.49"/>
<text text-anchor="middle" x="731.58" y="-940.1" font-family="Times New Roman,serif" font-size="14.00">split2#93</text>
</g>
<!-- 93&#45;&gt;84 -->
<g id="edge2" class="edge">
<title>93&#45;&gt;84</title>
<path fill="none" stroke="black" d="M493.4,-805C492.74,-786.64 490.83,-732.97 489.64,-699.36"/>
<polygon fill="black" stroke="black" points="493.14,-699.37 489.29,-689.5 486.14,-699.62 493.14,-699.37"/>
<text text-anchor="middle" x="532.86" y="-763.1" font-family="Times New Roman,serif" font-size="14.00">graphAnd#129</text>
</g>
<!-- 95&#45;&gt;98 -->
<g id="edge16" class="edge">
<title>95&#45;&gt;98</title>
<path fill="none" stroke="black" d="M245.74,-794.31C250.69,-782.42 257.39,-766.31 263.1,-752.6"/>
<polygon fill="black" stroke="black" points="266.21,-754.22 266.82,-743.65 259.75,-751.54 266.21,-754.22"/>
<text text-anchor="middle" x="300.35" y="-763.1" font-family="Times New Roman,serif" font-size="14.00">graphAnd#101</text>
</g>
</g>
</svg>
