<?xml version="1.0" encoding="UTF-8" standalone="no"?>
<!DOCTYPE svg PUBLIC "-//W3C//DTD SVG 1.1//EN"
 "http://www.w3.org/Graphics/SVG/1.1/DTD/svg11.dtd">
<!-- Generated by graphviz version 12.2.1 (20241206.2353)
 -->
<!-- Title: CLG Pages: 1 -->
<svg width="1087pt" height="1243pt"
 viewBox="0.00 0.00 1086.62 1242.70" xmlns="http://www.w3.org/2000/svg" xmlns:xlink="http://www.w3.org/1999/xlink">
<g id="graph0" class="graph" transform="scale(1 1) rotate(0) translate(4 1238.7)">
<title>CLG</title>
<polygon fill="white" stroke="none" points="-4,4 -4,-1238.7 1082.62,-1238.7 1082.62,4 -4,4"/>
<!-- 66 -->
<g id="node1" class="node">
<title>66</title>
<polygon fill="yellow" stroke="black" points="1078.62,-445.4 836.12,-445.4 836.12,-409.4 1078.62,-409.4 1078.62,-445.4"/>
<text text-anchor="middle" x="957.38" y="-422.35" font-family="Times New Roman,serif" font-size="14.00">result.data[it] = self.data[it] + arg.data[it]</text>
<text text-anchor="middle" x="824.88" y="-448.6" font-family="Times New Roman,serif" font-size="14.00">[66]</text>
</g>
<!-- 69 -->
<g id="node2" class="node">
<title>69</title>
<polygon fill="yellow" stroke="black" points="948,-356.9 818.75,-356.9 818.75,-320.9 948,-320.9 948,-356.9"/>
<text text-anchor="middle" x="883.38" y="-333.85" font-family="Times New Roman,serif" font-size="14.00">Index0 = Index0 + 1</text>
<text text-anchor="middle" x="807.5" y="-360.1" font-family="Times New Roman,serif" font-size="14.00">[69]</text>
</g>
<!-- 66&#45;&gt;69 -->
<g id="edge24" class="edge">
<title>66&#45;&gt;69</title>
<path fill="none" stroke="black" d="M907.48,-409.11C899.94,-404.46 893.05,-398.64 888.12,-391.4 883.58,-384.72 881.64,-376.36 881.04,-368.34"/>
<polygon fill="black" stroke="black" points="884.54,-368.55 880.98,-358.58 877.54,-368.6 884.54,-368.55"/>
<text text-anchor="middle" x="925.25" y="-378.1" font-family="Times New Roman,serif" font-size="14.00">graphAnd#60</text>
</g>
<!-- 71 -->
<g id="node3" class="node">
<title>71</title>
<polygon fill="aquamarine" stroke="black" points="791.38,-267.35 784.17,-260.15 791.38,-252.95 798.58,-260.15 791.38,-267.35"/>
<text text-anchor="middle" x="769.17" y="-270.55" font-family="Times New Roman,serif" font-size="14.00">&lt;71&gt;</text>
</g>
<!-- 69&#45;&gt;71 -->
<g id="edge26" class="edge">
<title>69&#45;&gt;71</title>
<path fill="none" stroke="black" d="M875.32,-320.74C869.43,-309.72 860.53,-295.77 849.38,-286.4 837.15,-276.12 820.09,-269.37 807.64,-265.46"/>
<polygon fill="black" stroke="black" points="808.76,-262.14 798.18,-262.79 806.85,-268.87 808.76,-262.14"/>
<text text-anchor="middle" x="891.04" y="-289.6" font-family="Times New Roman,serif" font-size="14.00">iterate#63</text>
</g>
<!-- 57 -->
<g id="node22" class="node">
<title>57</title>
<polygon fill="yellow" stroke="black" points="786,-199.4 650.75,-199.4 650.75,-163.4 786,-163.4 786,-199.4"/>
<text text-anchor="middle" x="718.38" y="-176.35" font-family="Times New Roman,serif" font-size="14.00">Index0 &gt; dim1 &#45; 1+ 1</text>
<text text-anchor="middle" x="639.5" y="-202.6" font-family="Times New Roman,serif" font-size="14.00">[57]</text>
</g>
<!-- 71&#45;&gt;57 -->
<g id="edge1" class="edge">
<title>71&#45;&gt;57</title>
<path fill="none" stroke="black" d="M786.83,-257.02C779.04,-253.22 762.94,-244.63 752.12,-233.9 744.89,-226.73 738.37,-217.76 733.03,-209.33"/>
<polygon fill="black" stroke="black" points="736.05,-207.56 727.91,-200.77 730.04,-211.15 736.05,-207.56"/>
<text text-anchor="middle" x="789.25" y="-220.6" font-family="Times New Roman,serif" font-size="14.00">graphAnd#65</text>
</g>
<!-- 60 -->
<g id="node23" class="node">
<title>60</title>
<polygon fill="yellow" stroke="black" points="948.12,-199.4 804.62,-199.4 804.62,-163.4 948.12,-163.4 948.12,-199.4"/>
<text text-anchor="middle" x="876.38" y="-176.35" font-family="Times New Roman,serif" font-size="14.00">Index0 &lt;= dim1 &#45; 1+ 1</text>
<text text-anchor="middle" x="793.38" y="-202.6" font-family="Times New Roman,serif" font-size="14.00">[60]</text>
</g>
<!-- 71&#45;&gt;60 -->
<g id="edge25" class="edge">
<title>71&#45;&gt;60</title>
<path fill="none" stroke="black" d="M795.22,-256.7C801.84,-252.41 815.72,-243.11 826.38,-233.9 835.57,-225.96 845.01,-216.59 853.18,-208.04"/>
<polygon fill="black" stroke="black" points="855.54,-210.64 859.83,-200.95 850.44,-205.85 855.54,-210.64"/>
<text text-anchor="middle" x="870.67" y="-220.6" font-family="Times New Roman,serif" font-size="14.00">iterate#62</text>
</g>
<!-- 75 -->
<g id="node4" class="node">
<title>75</title>
<ellipse fill="black" stroke="black" cx="601.38" cy="-1211" rx="7.2" ry="7.2"/>
<text text-anchor="middle" x="586.3" y="-1221.4" font-family="Times New Roman,serif" font-size="14.00">[0]</text>
</g>
<!-- 81 -->
<g id="node7" class="node">
<title>81</title>
<polygon fill="aquamarine" stroke="black" points="601.38,-1151.3 594.17,-1144.1 601.38,-1136.9 608.58,-1144.1 601.38,-1151.3"/>
<text text-anchor="middle" x="579.17" y="-1154.5" font-family="Times New Roman,serif" font-size="14.00">&lt;81&gt;</text>
</g>
<!-- 75&#45;&gt;81 -->
<g id="edge9" class="edge">
<title>75&#45;&gt;81</title>
<path fill="none" stroke="black" d="M601.38,-1203.54C601.38,-1194.21 601.38,-1176.61 601.38,-1163.15"/>
<polygon fill="black" stroke="black" points="604.88,-1163.44 601.38,-1153.44 597.88,-1163.44 604.88,-1163.44"/>
<text text-anchor="middle" x="649" y="-1172.5" font-family="Times New Roman,serif" font-size="14.00">graphOr_start#79</text>
</g>
<!-- 76 -->
<g id="node5" class="node">
<title>76</title>
<polygon fill="yellow" stroke="black" points="817.75,-1084.4 609,-1084.4 609,-1048.4 817.75,-1048.4 817.75,-1084.4"/>
<text text-anchor="middle" x="713.38" y="-1061.35" font-family="Times New Roman,serif" font-size="14.00">self.data.getDimensionSizes(1) &gt; 0</text>
<text text-anchor="middle" x="597.75" y="-1087.6" font-family="Times New Roman,serif" font-size="14.00">[76]</text>
</g>
<!-- 79 -->
<g id="node6" class="node">
<title>79</title>
<polygon fill="yellow" stroke="black" points="960.12,-995.9 744.62,-995.9 744.62,-959.9 960.12,-959.9 960.12,-995.9"/>
<text text-anchor="middle" x="852.38" y="-972.85" font-family="Times New Roman,serif" font-size="14.00">self.data.getDimensionSizes(1) &lt; 10</text>
<text text-anchor="middle" x="733.38" y="-999.1" font-family="Times New Roman,serif" font-size="14.00">[79]</text>
</g>
<!-- 76&#45;&gt;79 -->
<g id="edge7" class="edge">
<title>76&#45;&gt;79</title>
<path fill="none" stroke="black" d="M741.17,-1048.1C762.38,-1034.9 791.82,-1016.58 815.08,-1002.11"/>
<polygon fill="black" stroke="black" points="816.7,-1005.22 823.34,-996.97 813,-999.28 816.7,-1005.22"/>
<text text-anchor="middle" x="832.45" y="-1017.1" font-family="Times New Roman,serif" font-size="14.00">graphAnd#77</text>
</g>
<!-- 36 -->
<g id="node15" class="node">
<title>36</title>
<polygon fill="yellow" stroke="black" points="1001.12,-907.4 701.62,-907.4 701.62,-871.4 1001.12,-871.4 1001.12,-907.4"/>
<text text-anchor="middle" x="851.38" y="-884.35" font-family="Times New Roman,serif" font-size="14.00">self.data.getDimension() = arg.data.getDimension()</text>
<text text-anchor="middle" x="690.38" y="-910.6" font-family="Times New Roman,serif" font-size="14.00">[36]</text>
</g>
<!-- 79&#45;&gt;36 -->
<g id="edge8" class="edge">
<title>79&#45;&gt;36</title>
<path fill="none" stroke="black" d="M852.18,-959.81C852.04,-948.16 851.86,-932.45 851.7,-918.92"/>
<polygon fill="black" stroke="black" points="855.21,-919.22 851.59,-909.26 848.21,-919.3 855.21,-919.22"/>
<text text-anchor="middle" x="889.09" y="-928.6" font-family="Times New Roman,serif" font-size="14.00">graphAnd#78</text>
</g>
<!-- 81&#45;&gt;76 -->
<g id="edge10" class="edge">
<title>81&#45;&gt;76</title>
<path fill="none" stroke="black" d="M605.36,-1140.41C616.88,-1132.62 651.12,-1109.48 678,-1091.31"/>
<polygon fill="black" stroke="black" points="679.93,-1094.23 686.25,-1085.73 676.01,-1088.43 679.93,-1094.23"/>
<text text-anchor="middle" x="685.86" y="-1105.6" font-family="Times New Roman,serif" font-size="14.00">split1#80</text>
</g>
<!-- 33 -->
<g id="node13" class="node">
<title>33</title>
<polygon fill="aquamarine" stroke="black" points="537.38,-1073.6 530.17,-1066.4 537.38,-1059.2 544.58,-1066.4 537.38,-1073.6"/>
<text text-anchor="middle" x="515.17" y="-1076.8" font-family="Times New Roman,serif" font-size="14.00">&lt;33&gt;</text>
</g>
<!-- 81&#45;&gt;33 -->
<g id="edge11" class="edge">
<title>81&#45;&gt;33</title>
<path fill="none" stroke="black" d="M598.29,-1139.45C589.19,-1128.68 562.18,-1096.74 547.37,-1079.22"/>
<polygon fill="black" stroke="black" points="550.39,-1077.37 541.26,-1072 545.04,-1081.89 550.39,-1077.37"/>
<text text-anchor="middle" x="605.8" y="-1105.6" font-family="Times New Roman,serif" font-size="14.00">split2#81</text>
</g>
<!-- 82 -->
<g id="node8" class="node">
<title>82</title>
<polygon fill="aquamarine" stroke="black" points="646.38,-100.1 639.17,-92.9 646.38,-85.7 653.58,-92.9 646.38,-100.1"/>
<text text-anchor="middle" x="624.17" y="-103.3" font-family="Times New Roman,serif" font-size="14.00">&lt;82&gt;</text>
</g>
<!-- 26 -->
<g id="node10" class="node">
<title>26</title>
<ellipse fill="black" stroke="black" cx="646.38" cy="-11.2" rx="7.2" ry="7.2"/>
<ellipse fill="none" stroke="black" cx="646.38" cy="-11.2" rx="11.2" ry="11.2"/>
<text text-anchor="middle" x="625.05" y="-25.6" font-family="Times New Roman,serif" font-size="14.00">[&#45;1]</text>
</g>
<!-- 82&#45;&gt;26 -->
<g id="edge14" class="edge">
<title>82&#45;&gt;26</title>
<path fill="none" stroke="black" d="M646.38,-85.1C646.38,-73.95 646.38,-51.29 646.38,-34.18"/>
<polygon fill="black" stroke="black" points="649.88,-34.21 646.38,-24.21 642.88,-34.21 649.88,-34.21"/>
<text text-anchor="middle" x="692.12" y="-43.6" font-family="Times New Roman,serif" font-size="14.00">graphOr_end#84</text>
</g>
<!-- 25 -->
<g id="node9" class="node">
<title>25</title>
<polygon fill="yellow" stroke="black" points="672.12,-764.9 546.62,-764.9 546.62,-728.9 672.12,-728.9 672.12,-764.9"/>
<text text-anchor="middle" x="609.38" y="-741.85" font-family="Times New Roman,serif" font-size="14.00">Result = &#39;Exception&#39;</text>
<text text-anchor="middle" x="535.38" y="-768.1" font-family="Times New Roman,serif" font-size="14.00">[25]</text>
</g>
<!-- 25&#45;&gt;82 -->
<g id="edge13" class="edge">
<title>25&#45;&gt;82</title>
<path fill="none" stroke="black" d="M612.85,-728.59C616.39,-709.39 621.38,-677.44 621.38,-649.65 621.38,-649.65 621.38,-649.65 621.38,-180.4 621.38,-154.24 632.06,-125.31 639.46,-108.42"/>
<polygon fill="black" stroke="black" points="642.41,-110.37 643.43,-99.83 636.06,-107.43 642.41,-110.37"/>
<text text-anchor="middle" x="652.12" y="-422.35" font-family="Times New Roman,serif" font-size="14.00">merge2#83</text>
</g>
<!-- 28 -->
<g id="node11" class="node">
<title>28</title>
<polygon fill="yellow" stroke="black" points="330.25,-995.9 22.5,-995.9 22.5,-959.9 330.25,-959.9 330.25,-995.9"/>
<text text-anchor="middle" x="176.38" y="-972.85" font-family="Times New Roman,serif" font-size="14.00">self.data.getDimension() &lt;&gt; arg.data.getDimension()</text>
<text text-anchor="middle" x="11.25" y="-999.1" font-family="Times New Roman,serif" font-size="14.00">[28]</text>
</g>
<!-- 34 -->
<g id="node14" class="node">
<title>34</title>
<polygon fill="aquamarine" stroke="black" points="537.38,-896.6 530.17,-889.4 537.38,-882.2 544.58,-889.4 537.38,-896.6"/>
<text text-anchor="middle" x="515.17" y="-899.8" font-family="Times New Roman,serif" font-size="14.00">&lt;34&gt;</text>
</g>
<!-- 28&#45;&gt;34 -->
<g id="edge17" class="edge">
<title>28&#45;&gt;34</title>
<path fill="none" stroke="black" d="M248.99,-959.5C335.38,-938.8 473.84,-905.62 521.02,-894.32"/>
<polygon fill="black" stroke="black" points="521.61,-897.78 530.51,-892.04 519.97,-890.97 521.61,-897.78"/>
<text text-anchor="middle" x="419.96" y="-928.6" font-family="Times New Roman,serif" font-size="14.00">merge1#28</text>
</g>
<!-- 31 -->
<g id="node12" class="node">
<title>31</title>
<polygon fill="yellow" stroke="black" points="726.5,-995.9 348.25,-995.9 348.25,-959.9 726.5,-959.9 726.5,-995.9"/>
<text text-anchor="middle" x="537.38" y="-972.85" font-family="Times New Roman,serif" font-size="14.00">self.data.getDimensionSizes(1) &lt;&gt; arg.data.getDimensionSizes(1)</text>
<text text-anchor="middle" x="337" y="-999.1" font-family="Times New Roman,serif" font-size="14.00">[31]</text>
</g>
<!-- 31&#45;&gt;34 -->
<g id="edge18" class="edge">
<title>31&#45;&gt;34</title>
<path fill="none" stroke="black" d="M537.38,-959.81C537.38,-945.04 537.38,-923.73 537.38,-908.63"/>
<polygon fill="black" stroke="black" points="540.88,-908.79 537.38,-898.79 533.88,-908.79 540.88,-908.79"/>
<text text-anchor="middle" x="568.12" y="-928.6" font-family="Times New Roman,serif" font-size="14.00">merge2#29</text>
</g>
<!-- 33&#45;&gt;28 -->
<g id="edge15" class="edge">
<title>33&#45;&gt;28</title>
<path fill="none" stroke="black" d="M531.99,-1064.11C502.25,-1056.98 355.94,-1021.92 260.49,-999.06"/>
<polygon fill="black" stroke="black" points="261.42,-995.68 250.88,-996.75 259.79,-1002.49 261.42,-995.68"/>
<text text-anchor="middle" x="414.33" y="-1017.1" font-family="Times New Roman,serif" font-size="14.00">split1#26</text>
</g>
<!-- 33&#45;&gt;31 -->
<g id="edge16" class="edge">
<title>33&#45;&gt;31</title>
<path fill="none" stroke="black" d="M537.38,-1058.61C537.38,-1047.75 537.38,-1025.85 537.38,-1007.75"/>
<polygon fill="black" stroke="black" points="540.88,-1007.79 537.38,-997.79 533.88,-1007.79 540.88,-1007.79"/>
<text text-anchor="middle" x="562.5" y="-1017.1" font-family="Times New Roman,serif" font-size="14.00">split2#27</text>
</g>
<!-- 34&#45;&gt;25 -->
<g id="edge5" class="edge">
<title>34&#45;&gt;25</title>
<path fill="none" stroke="black" d="M539.61,-884.04C547.91,-867.84 577.44,-810.23 595.31,-775.35"/>
<polygon fill="black" stroke="black" points="598.31,-777.17 599.75,-766.68 592.08,-773.98 598.31,-777.17"/>
<text text-anchor="middle" x="599.84" y="-840.1" font-family="Times New Roman,serif" font-size="14.00">graphAnd#69</text>
</g>
<!-- 39 -->
<g id="node16" class="node">
<title>39</title>
<polygon fill="yellow" stroke="black" points="1035.38,-818.9 665.38,-818.9 665.38,-782.9 1035.38,-782.9 1035.38,-818.9"/>
<text text-anchor="middle" x="850.38" y="-795.85" font-family="Times New Roman,serif" font-size="14.00">self.data.getDimensionSizes(1) = arg.data.getDimensionSizes(1)</text>
<text text-anchor="middle" x="654.12" y="-822.1" font-family="Times New Roman,serif" font-size="14.00">[39]</text>
</g>
<!-- 36&#45;&gt;39 -->
<g id="edge19" class="edge">
<title>36&#45;&gt;39</title>
<path fill="none" stroke="black" d="M851.18,-871.31C851.04,-859.66 850.86,-843.95 850.7,-830.42"/>
<polygon fill="black" stroke="black" points="854.21,-830.72 850.59,-820.76 847.21,-830.8 854.21,-830.72"/>
<text text-anchor="middle" x="888.09" y="-840.1" font-family="Times New Roman,serif" font-size="14.00">graphAnd#35</text>
</g>
<!-- 42 -->
<g id="node17" class="node">
<title>42</title>
<polygon fill="yellow" stroke="black" points="1005.5,-710.9 693.25,-710.9 693.25,-674.9 1005.5,-674.9 1005.5,-710.9"/>
<text text-anchor="middle" x="849.38" y="-687.85" font-family="Times New Roman,serif" font-size="14.00">self.data.getDimension() = result.data.getDimension()</text>
<text text-anchor="middle" x="682" y="-714.1" font-family="Times New Roman,serif" font-size="14.00">[42]</text>
</g>
<!-- 39&#45;&gt;42 -->
<g id="edge6" class="edge">
<title>39&#45;&gt;42</title>
<path fill="none" stroke="black" d="M850.21,-782.87C850.06,-766.66 849.83,-741.96 849.65,-722.69"/>
<polygon fill="black" stroke="black" points="853.15,-722.72 849.55,-712.75 846.15,-722.79 853.15,-722.72"/>
<text text-anchor="middle" x="887.15" y="-741.85" font-family="Times New Roman,serif" font-size="14.00">graphAnd#70</text>
</g>
<!-- 45 -->
<g id="node18" class="node">
<title>45</title>
<polygon fill="yellow" stroke="black" points="1037.75,-622.4 655,-622.4 655,-586.4 1037.75,-586.4 1037.75,-622.4"/>
<text text-anchor="middle" x="846.38" y="-599.35" font-family="Times New Roman,serif" font-size="14.00">self.data.getDimensionSizes(1) = result.data.getDimensionSizes(1)</text>
<text text-anchor="middle" x="643.75" y="-625.6" font-family="Times New Roman,serif" font-size="14.00">[45]</text>
</g>
<!-- 42&#45;&gt;45 -->
<g id="edge20" class="edge">
<title>42&#45;&gt;45</title>
<path fill="none" stroke="black" d="M848.78,-674.81C848.38,-663.16 847.83,-647.45 847.36,-633.92"/>
<polygon fill="black" stroke="black" points="850.87,-634.14 847.03,-624.26 843.88,-634.38 850.87,-634.14"/>
<text text-anchor="middle" x="885.27" y="-643.6" font-family="Times New Roman,serif" font-size="14.00">graphAnd#40</text>
</g>
<!-- 48 -->
<g id="node19" class="node">
<title>48</title>
<polygon fill="yellow" stroke="black" points="915.5,-533.9 687.25,-533.9 687.25,-497.9 915.5,-497.9 915.5,-533.9"/>
<text text-anchor="middle" x="801.38" y="-510.85" font-family="Times New Roman,serif" font-size="14.00">dim1 = arg.data.getDimensionSizes(1)</text>
<text text-anchor="middle" x="676" y="-537.1" font-family="Times New Roman,serif" font-size="14.00">[48]</text>
</g>
<!-- 45&#45;&gt;48 -->
<g id="edge4" class="edge">
<title>45&#45;&gt;48</title>
<path fill="none" stroke="black" d="M837.48,-586.31C831.24,-574.3 822.75,-557.99 815.57,-544.2"/>
<polygon fill="black" stroke="black" points="818.82,-542.85 811.1,-535.59 812.61,-546.08 818.82,-542.85"/>
<text text-anchor="middle" x="865.03" y="-555.1" font-family="Times New Roman,serif" font-size="14.00">graphAnd#68</text>
</g>
<!-- 54 -->
<g id="node21" class="node">
<title>54</title>
<polygon fill="yellow" stroke="black" points="807.75,-445.4 737,-445.4 737,-409.4 807.75,-409.4 807.75,-445.4"/>
<text text-anchor="middle" x="772.38" y="-422.35" font-family="Times New Roman,serif" font-size="14.00">acc = true</text>
<text text-anchor="middle" x="725.75" y="-448.6" font-family="Times New Roman,serif" font-size="14.00">[54]</text>
</g>
<!-- 48&#45;&gt;54 -->
<g id="edge3" class="edge">
<title>48&#45;&gt;54</title>
<path fill="none" stroke="black" d="M795.65,-497.81C791.7,-486.04 786.37,-470.13 781.8,-456.51"/>
<polygon fill="black" stroke="black" points="785.17,-455.55 778.67,-447.19 778.53,-457.78 785.17,-455.55"/>
<text text-anchor="middle" x="826.6" y="-466.6" font-family="Times New Roman,serif" font-size="14.00">graphAnd#67</text>
</g>
<!-- 51 -->
<g id="node20" class="node">
<title>51</title>
<polygon fill="yellow" stroke="black" points="800.38,-356.9 724.38,-356.9 724.38,-320.9 800.38,-320.9 800.38,-356.9"/>
<text text-anchor="middle" x="762.38" y="-333.85" font-family="Times New Roman,serif" font-size="14.00">Index0 = 1</text>
<text text-anchor="middle" x="713.12" y="-360.1" font-family="Times New Roman,serif" font-size="14.00">[51]</text>
</g>
<!-- 51&#45;&gt;71 -->
<g id="edge2" class="edge">
<title>51&#45;&gt;71</title>
<path fill="none" stroke="black" d="M765.15,-320.74C767.17,-310.5 770.38,-297.39 775.12,-286.4 776.96,-282.15 779.47,-277.82 781.97,-273.97"/>
<polygon fill="black" stroke="black" points="784.62,-276.28 787.55,-266.1 778.91,-272.23 784.62,-276.28"/>
<text text-anchor="middle" x="812.25" y="-289.6" font-family="Times New Roman,serif" font-size="14.00">graphAnd#66</text>
</g>
<!-- 54&#45;&gt;51 -->
<g id="edge21" class="edge">
<title>54&#45;&gt;51</title>
<path fill="none" stroke="black" d="M770.4,-409.31C769.05,-397.66 767.24,-381.95 765.67,-368.42"/>
<polygon fill="black" stroke="black" points="769.18,-368.29 764.55,-358.75 762.23,-369.09 769.18,-368.29"/>
<text text-anchor="middle" x="805.4" y="-378.1" font-family="Times New Roman,serif" font-size="14.00">graphAnd#47</text>
</g>
<!-- 57&#45;&gt;82 -->
<g id="edge12" class="edge">
<title>57&#45;&gt;82</title>
<path fill="none" stroke="black" d="M704.15,-163.31C690.17,-146.51 669.16,-121.28 656.71,-106.31"/>
<polygon fill="black" stroke="black" points="659.42,-104.11 650.34,-98.66 654.04,-108.58 659.42,-104.11"/>
<text text-anchor="middle" x="719.57" y="-132.1" font-family="Times New Roman,serif" font-size="14.00">merge1#82</text>
</g>
<!-- 63 -->
<g id="node24" class="node">
<title>63</title>
<polygon fill="yellow" stroke="black" points="1002,-110.9 854.75,-110.9 854.75,-74.9 1002,-74.9 1002,-110.9"/>
<text text-anchor="middle" x="928.38" y="-87.85" font-family="Times New Roman,serif" font-size="14.00">it = Sequence{1..dim1}</text>
<text text-anchor="middle" x="843.5" y="-114.1" font-family="Times New Roman,serif" font-size="14.00">[63]</text>
</g>
<!-- 60&#45;&gt;63 -->
<g id="edge22" class="edge">
<title>60&#45;&gt;63</title>
<path fill="none" stroke="black" d="M877.6,-163.17C878.97,-152.65 881.9,-139.28 888.12,-128.9 890.14,-125.54 892.58,-122.34 895.26,-119.33"/>
<polygon fill="black" stroke="black" points="897.55,-121.99 902.2,-112.46 892.63,-117.01 897.55,-121.99"/>
<text text-anchor="middle" x="925.25" y="-132.1" font-family="Times New Roman,serif" font-size="14.00">graphAnd#58</text>
</g>
<!-- 63&#45;&gt;66 -->
<g id="edge23" class="edge">
<title>63&#45;&gt;66</title>
<path fill="none" stroke="black" d="M948.67,-111.33C953.75,-116.54 958.77,-122.57 962.38,-128.9 974.12,-149.51 976.38,-156.68 976.38,-180.4 976.38,-339.9 976.38,-339.9 976.38,-339.9 976.38,-359.76 971.54,-381.61 966.74,-398.37"/>
<polygon fill="black" stroke="black" points="963.49,-397.05 963.93,-407.64 970.19,-399.08 963.49,-397.05"/>
<text text-anchor="middle" x="1013.5" y="-255.1" font-family="Times New Roman,serif" font-size="14.00">graphAnd#59</text>
</g>
</g>
</svg>
