<?xml version="1.0" encoding="UTF-8" standalone="no"?>
<!DOCTYPE svg PUBLIC "-//W3C//DTD SVG 1.1//EN"
 "http://www.w3.org/Graphics/SVG/1.1/DTD/svg11.dtd">
<!-- Generated by graphviz version 12.2.1 (20241206.2353)
 -->
<!-- Title: CLG Pages: 1 -->
<svg width="785pt" height="1103pt"
 viewBox="0.00 0.00 784.62 1103.00" xmlns="http://www.w3.org/2000/svg" xmlns:xlink="http://www.w3.org/1999/xlink">
<g id="graph0" class="graph" transform="scale(1 1) rotate(0) translate(4 1099)">
<title>CLG</title>
<polygon fill="white" stroke="none" points="-4,4 -4,-1099 780.62,-1099 780.62,4 -4,4"/>
<!-- 64 -->
<g id="node1" class="node">
<title>64</title>
<polygon fill="yellow" stroke="black" points="776.62,-1078.5 394.62,-1078.5 394.62,-1042.5 776.62,-1042.5 776.62,-1078.5"/>
<text text-anchor="middle" x="585.62" y="-1055.45" font-family="Times New Roman,serif" font-size="14.00">result.data[it][it2][it3] = self.data[it][it2][it3] + arg.data[it][it2][it3]</text>
<text text-anchor="middle" x="383.38" y="-1081.7" font-family="Times New Roman,serif" font-size="14.00">[64]</text>
</g>
<!-- 67 -->
<g id="node2" class="node">
<title>67</title>
<polygon fill="yellow" stroke="black" points="576.75,-990 474.5,-990 474.5,-954 576.75,-954 576.75,-990"/>
<text text-anchor="middle" x="525.62" y="-966.95" font-family="Times New Roman,serif" font-size="14.00">idx2 = idx2 + 1</text>
<text text-anchor="middle" x="463.25" y="-993.2" font-family="Times New Roman,serif" font-size="14.00">[67]</text>
</g>
<!-- 64&#45;&gt;67 -->
<g id="edge23" class="edge">
<title>64&#45;&gt;67</title>
<path fill="none" stroke="black" d="M565.69,-1042.05C560.32,-1036.75 554.78,-1030.68 550.38,-1024.5 545.16,-1017.17 540.53,-1008.56 536.72,-1000.5"/>
<polygon fill="black" stroke="black" points="539.95,-999.14 532.69,-991.42 533.55,-1001.98 539.95,-999.14"/>
<text text-anchor="middle" x="587.5" y="-1011.2" font-family="Times New Roman,serif" font-size="14.00">graphAnd#53</text>
</g>
<!-- 69 -->
<g id="node3" class="node">
<title>69</title>
<polygon fill="aquamarine" stroke="black" points="490.62,-900.45 483.43,-893.25 490.62,-886.05 497.82,-893.25 490.62,-900.45"/>
<text text-anchor="middle" x="468.43" y="-903.65" font-family="Times New Roman,serif" font-size="14.00">&lt;69&gt;</text>
</g>
<!-- 67&#45;&gt;69 -->
<g id="edge25" class="edge">
<title>67&#45;&gt;69</title>
<path fill="none" stroke="black" d="M517.68,-953.58C511.57,-940.18 503.21,-921.85 497.41,-909.12"/>
<polygon fill="black" stroke="black" points="500.75,-908.01 493.41,-900.36 494.38,-910.91 500.75,-908.01"/>
<text text-anchor="middle" x="536.17" y="-922.7" font-family="Times New Roman,serif" font-size="14.00">iterate#56</text>
</g>
<!-- 55 -->
<g id="node25" class="node">
<title>55</title>
<polygon fill="yellow" stroke="black" points="391.5,-832.5 269.75,-832.5 269.75,-796.5 391.5,-796.5 391.5,-832.5"/>
<text text-anchor="middle" x="330.62" y="-809.45" font-family="Times New Roman,serif" font-size="14.00">idx2 &gt; dim3 &#45; 1+ 1</text>
<text text-anchor="middle" x="258.5" y="-835.7" font-family="Times New Roman,serif" font-size="14.00">[55]</text>
</g>
<!-- 69&#45;&gt;55 -->
<g id="edge26" class="edge">
<title>69&#45;&gt;55</title>
<path fill="none" stroke="black" d="M484.95,-891.25C470.8,-888.63 433.07,-880.76 404.38,-867 388.97,-859.61 373.25,-849.13 360.31,-839.55"/>
<polygon fill="black" stroke="black" points="362.71,-836.97 352.63,-833.7 358.47,-842.54 362.71,-836.97"/>
<text text-anchor="middle" x="441.5" y="-853.7" font-family="Times New Roman,serif" font-size="14.00">graphAnd#58</text>
</g>
<!-- 58 -->
<g id="node26" class="node">
<title>58</title>
<polygon fill="yellow" stroke="black" points="539.62,-832.5 409.62,-832.5 409.62,-796.5 539.62,-796.5 539.62,-832.5"/>
<text text-anchor="middle" x="474.62" y="-809.45" font-family="Times New Roman,serif" font-size="14.00">idx2 &lt;= dim3 &#45; 1+ 1</text>
<text text-anchor="middle" x="398.38" y="-835.7" font-family="Times New Roman,serif" font-size="14.00">[58]</text>
</g>
<!-- 69&#45;&gt;58 -->
<g id="edge24" class="edge">
<title>69&#45;&gt;58</title>
<path fill="none" stroke="black" d="M489.47,-886.73C487.61,-877.77 483.79,-859.46 480.49,-843.66"/>
<polygon fill="black" stroke="black" points="484,-843.31 478.53,-834.24 477.15,-844.74 484,-843.31"/>
<text text-anchor="middle" x="511.99" y="-853.7" font-family="Times New Roman,serif" font-size="14.00">iterate#55</text>
</g>
<!-- 71 -->
<g id="node4" class="node">
<title>71</title>
<polygon fill="yellow" stroke="black" points="383.75,-744 281.5,-744 281.5,-708 383.75,-708 383.75,-744"/>
<text text-anchor="middle" x="332.62" y="-720.95" font-family="Times New Roman,serif" font-size="14.00">idx1 = idx1 + 1</text>
<text text-anchor="middle" x="270.25" y="-747.2" font-family="Times New Roman,serif" font-size="14.00">[71]</text>
</g>
<!-- 73 -->
<g id="node6" class="node">
<title>73</title>
<polygon fill="aquamarine" stroke="black" points="334.62,-644.7 327.43,-637.5 334.62,-630.3 341.82,-637.5 334.62,-644.7"/>
<text text-anchor="middle" x="312.43" y="-647.9" font-family="Times New Roman,serif" font-size="14.00">&lt;73&gt;</text>
</g>
<!-- 71&#45;&gt;73 -->
<g id="edge3" class="edge">
<title>71&#45;&gt;73</title>
<path fill="none" stroke="black" d="M333.02,-707.91C333.37,-692.98 333.86,-671.4 334.21,-656.27"/>
<polygon fill="black" stroke="black" points="337.71,-656.56 334.44,-646.48 330.71,-656.4 337.71,-656.56"/>
<text text-anchor="middle" x="360.8" y="-676.7" font-family="Times New Roman,serif" font-size="14.00">iterate#67</text>
</g>
<!-- 9 -->
<g id="node5" class="node">
<title>9</title>
<ellipse fill="black" stroke="black" cx="136.62" cy="-893.25" rx="7.2" ry="7.2"/>
<text text-anchor="middle" x="121.55" y="-903.65" font-family="Times New Roman,serif" font-size="14.00">[0]</text>
</g>
<!-- 10 -->
<g id="node7" class="node">
<title>10</title>
<polygon fill="yellow" stroke="black" points="250.75,-832.5 22.5,-832.5 22.5,-796.5 250.75,-796.5 250.75,-832.5"/>
<text text-anchor="middle" x="136.62" y="-809.45" font-family="Times New Roman,serif" font-size="14.00">dim1 = arg.data.getDimensionSizes(1)</text>
<text text-anchor="middle" x="11.25" y="-835.7" font-family="Times New Roman,serif" font-size="14.00">[10]</text>
</g>
<!-- 9&#45;&gt;10 -->
<g id="edge5" class="edge">
<title>9&#45;&gt;10</title>
<path fill="none" stroke="black" d="M136.62,-885.71C136.62,-876.55 136.62,-859.35 136.62,-844.27"/>
<polygon fill="black" stroke="black" points="140.13,-844.33 136.63,-834.33 133.13,-844.33 140.13,-844.33"/>
</g>
<!-- 40 -->
<g id="node20" class="node">
<title>40</title>
<polygon fill="yellow" stroke="black" points="311.5,-567 189.75,-567 189.75,-531 311.5,-531 311.5,-567"/>
<text text-anchor="middle" x="250.62" y="-543.95" font-family="Times New Roman,serif" font-size="14.00">idx1 &gt; dim2 &#45; 1+ 1</text>
<text text-anchor="middle" x="178.5" y="-570.2" font-family="Times New Roman,serif" font-size="14.00">[40]</text>
</g>
<!-- 73&#45;&gt;40 -->
<g id="edge4" class="edge">
<title>73&#45;&gt;40</title>
<path fill="none" stroke="black" d="M328.41,-636.08C312.34,-634.62 269.44,-628.27 251.38,-601.5 246.87,-594.83 245.44,-586.48 245.48,-578.46"/>
<polygon fill="black" stroke="black" points="248.96,-578.93 246.28,-568.68 241.98,-578.36 248.96,-578.93"/>
<text text-anchor="middle" x="288.5" y="-588.2" font-family="Times New Roman,serif" font-size="14.00">graphAnd#69</text>
</g>
<!-- 43 -->
<g id="node21" class="node">
<title>43</title>
<polygon fill="yellow" stroke="black" points="504.62,-567 374.62,-567 374.62,-531 504.62,-531 504.62,-567"/>
<text text-anchor="middle" x="439.62" y="-543.95" font-family="Times New Roman,serif" font-size="14.00">idx1 &lt;= dim2 &#45; 1+ 1</text>
<text text-anchor="middle" x="363.38" y="-570.2" font-family="Times New Roman,serif" font-size="14.00">[43]</text>
</g>
<!-- 73&#45;&gt;43 -->
<g id="edge2" class="edge">
<title>73&#45;&gt;43</title>
<path fill="none" stroke="black" d="M338.12,-633.62C349.13,-624.55 383.92,-595.89 409.72,-574.64"/>
<polygon fill="black" stroke="black" points="411.76,-577.49 417.25,-568.43 407.3,-572.09 411.76,-577.49"/>
<text text-anchor="middle" x="423.53" y="-588.2" font-family="Times New Roman,serif" font-size="14.00">iterate#66</text>
</g>
<!-- 13 -->
<g id="node9" class="node">
<title>13</title>
<polygon fill="yellow" stroke="black" points="250.75,-744 22.5,-744 22.5,-708 250.75,-708 250.75,-744"/>
<text text-anchor="middle" x="136.62" y="-720.95" font-family="Times New Roman,serif" font-size="14.00">dim2 = arg.data.getDimensionSizes(2)</text>
<text text-anchor="middle" x="11.25" y="-747.2" font-family="Times New Roman,serif" font-size="14.00">[13]</text>
</g>
<!-- 10&#45;&gt;13 -->
<g id="edge10" class="edge">
<title>10&#45;&gt;13</title>
<path fill="none" stroke="black" d="M136.62,-796.41C136.62,-784.76 136.62,-769.05 136.62,-755.52"/>
<polygon fill="black" stroke="black" points="140.13,-755.86 136.63,-745.86 133.13,-755.86 140.13,-755.86"/>
<text text-anchor="middle" x="173.75" y="-765.2" font-family="Times New Roman,serif" font-size="14.00">graphAnd#12</text>
</g>
<!-- 75 -->
<g id="node8" class="node">
<title>75</title>
<polygon fill="yellow" stroke="black" points="299.75,-478.5 197.5,-478.5 197.5,-442.5 299.75,-442.5 299.75,-478.5"/>
<text text-anchor="middle" x="248.62" y="-455.45" font-family="Times New Roman,serif" font-size="14.00">idx0 = idx0 + 1</text>
<text text-anchor="middle" x="186.25" y="-481.7" font-family="Times New Roman,serif" font-size="14.00">[75]</text>
</g>
<!-- 77 -->
<g id="node10" class="node">
<title>77</title>
<polygon fill="aquamarine" stroke="black" points="192.62,-379.2 185.43,-372 192.62,-364.8 199.82,-372 192.62,-379.2"/>
<text text-anchor="middle" x="170.43" y="-382.4" font-family="Times New Roman,serif" font-size="14.00">&lt;77&gt;</text>
</g>
<!-- 75&#45;&gt;77 -->
<g id="edge13" class="edge">
<title>75&#45;&gt;77</title>
<path fill="none" stroke="black" d="M242.53,-442.05C238.51,-431.71 232.69,-418.59 225.62,-408 219.65,-399.04 211.32,-390.22 204.52,-383.68"/>
<polygon fill="black" stroke="black" points="206.96,-381.17 197.23,-376.99 202.23,-386.33 206.96,-381.17"/>
<text text-anchor="middle" x="261.75" y="-411.2" font-family="Times New Roman,serif" font-size="14.00">iterate#78</text>
</g>
<!-- 16 -->
<g id="node11" class="node">
<title>16</title>
<polygon fill="yellow" stroke="black" points="250.75,-655.5 22.5,-655.5 22.5,-619.5 250.75,-619.5 250.75,-655.5"/>
<text text-anchor="middle" x="136.62" y="-632.45" font-family="Times New Roman,serif" font-size="14.00">dim3 = arg.data.getDimensionSizes(3)</text>
<text text-anchor="middle" x="11.25" y="-658.7" font-family="Times New Roman,serif" font-size="14.00">[16]</text>
</g>
<!-- 13&#45;&gt;16 -->
<g id="edge11" class="edge">
<title>13&#45;&gt;16</title>
<path fill="none" stroke="black" d="M136.62,-707.91C136.62,-696.26 136.62,-680.55 136.62,-667.02"/>
<polygon fill="black" stroke="black" points="140.13,-667.36 136.63,-657.36 133.13,-667.36 140.13,-667.36"/>
<text text-anchor="middle" x="173.75" y="-676.7" font-family="Times New Roman,serif" font-size="14.00">graphAnd#13</text>
</g>
<!-- 25 -->
<g id="node14" class="node">
<title>25</title>
<polygon fill="yellow" stroke="black" points="154.5,-301.5 32.75,-301.5 32.75,-265.5 154.5,-265.5 154.5,-301.5"/>
<text text-anchor="middle" x="93.62" y="-278.45" font-family="Times New Roman,serif" font-size="14.00">idx0 &gt; dim1 &#45; 1+ 1</text>
<text text-anchor="middle" x="21.5" y="-304.7" font-family="Times New Roman,serif" font-size="14.00">[25]</text>
</g>
<!-- 77&#45;&gt;25 -->
<g id="edge14" class="edge">
<title>77&#45;&gt;25</title>
<path fill="none" stroke="black" d="M187.83,-369.01C177.06,-364.39 150.47,-352.06 132.38,-336 124.23,-328.77 116.67,-319.59 110.44,-310.99"/>
<polygon fill="black" stroke="black" points="113.42,-309.15 104.86,-302.9 107.66,-313.12 113.42,-309.15"/>
<text text-anchor="middle" x="169.5" y="-322.7" font-family="Times New Roman,serif" font-size="14.00">graphAnd#80</text>
</g>
<!-- 28 -->
<g id="node16" class="node">
<title>28</title>
<polygon fill="yellow" stroke="black" points="302.62,-301.5 172.62,-301.5 172.62,-265.5 302.62,-265.5 302.62,-301.5"/>
<text text-anchor="middle" x="237.62" y="-278.45" font-family="Times New Roman,serif" font-size="14.00">idx0 &lt;= dim1 &#45; 1+ 1</text>
<text text-anchor="middle" x="161.38" y="-304.7" font-family="Times New Roman,serif" font-size="14.00">[28]</text>
</g>
<!-- 77&#45;&gt;28 -->
<g id="edge12" class="edge">
<title>77&#45;&gt;28</title>
<path fill="none" stroke="black" d="M194.8,-366.83C199.89,-357.04 212.94,-331.95 223.31,-312.01"/>
<polygon fill="black" stroke="black" points="226.37,-313.71 227.88,-303.23 220.16,-310.48 226.37,-313.71"/>
<text text-anchor="middle" x="246.16" y="-322.7" font-family="Times New Roman,serif" font-size="14.00">iterate#77</text>
</g>
<!-- 22 -->
<g id="node13" class="node">
<title>22</title>
<polygon fill="yellow" stroke="black" points="172,-567 101.25,-567 101.25,-531 172,-531 172,-567"/>
<text text-anchor="middle" x="136.62" y="-543.95" font-family="Times New Roman,serif" font-size="14.00">acc = true</text>
<text text-anchor="middle" x="90" y="-570.2" font-family="Times New Roman,serif" font-size="14.00">[22]</text>
</g>
<!-- 16&#45;&gt;22 -->
<g id="edge16" class="edge">
<title>16&#45;&gt;22</title>
<path fill="none" stroke="black" d="M136.62,-619.41C136.62,-607.76 136.62,-592.05 136.62,-578.52"/>
<polygon fill="black" stroke="black" points="140.13,-578.86 136.63,-568.86 133.13,-578.86 140.13,-578.86"/>
<text text-anchor="middle" x="173.75" y="-588.2" font-family="Times New Roman,serif" font-size="14.00">graphAnd#82</text>
</g>
<!-- 19 -->
<g id="node12" class="node">
<title>19</title>
<polygon fill="yellow" stroke="black" points="177.88,-478.5 115.38,-478.5 115.38,-442.5 177.88,-442.5 177.88,-478.5"/>
<text text-anchor="middle" x="146.62" y="-455.45" font-family="Times New Roman,serif" font-size="14.00">idx0 = 1</text>
<text text-anchor="middle" x="104.12" y="-481.7" font-family="Times New Roman,serif" font-size="14.00">[19]</text>
</g>
<!-- 19&#45;&gt;77 -->
<g id="edge15" class="edge">
<title>19&#45;&gt;77</title>
<path fill="none" stroke="black" d="M145.04,-442.36C144.81,-431.88 145.91,-418.52 151.38,-408 157.41,-396.39 169.1,-387.05 178.5,-380.95"/>
<polygon fill="black" stroke="black" points="180.15,-384.04 186.99,-375.94 176.59,-378.01 180.15,-384.04"/>
<text text-anchor="middle" x="188.5" y="-411.2" font-family="Times New Roman,serif" font-size="14.00">graphAnd#81</text>
</g>
<!-- 22&#45;&gt;19 -->
<g id="edge17" class="edge">
<title>22&#45;&gt;19</title>
<path fill="none" stroke="black" d="M138.6,-530.91C139.95,-519.26 141.76,-503.55 143.33,-490.02"/>
<polygon fill="black" stroke="black" points="146.77,-490.69 144.45,-480.35 139.82,-489.89 146.77,-490.69"/>
<text text-anchor="middle" x="179.65" y="-499.7" font-family="Times New Roman,serif" font-size="14.00">graphAnd#18</text>
</g>
<!-- 26 -->
<g id="node15" class="node">
<title>26</title>
<ellipse fill="black" stroke="black" cx="93.62" cy="-195" rx="7.2" ry="7.2"/>
<ellipse fill="none" stroke="black" cx="93.62" cy="-195" rx="11.2" ry="11.2"/>
<text text-anchor="middle" x="72.3" y="-209.4" font-family="Times New Roman,serif" font-size="14.00">[&#45;1]</text>
</g>
<!-- 25&#45;&gt;26 -->
<g id="edge18" class="edge">
<title>25&#45;&gt;26</title>
<path fill="none" stroke="black" d="M93.62,-265.41C93.62,-251.72 93.62,-232.42 93.62,-217.65"/>
<polygon fill="black" stroke="black" points="97.13,-218.04 93.63,-208.04 90.13,-218.04 97.13,-218.04"/>
</g>
<!-- 31 -->
<g id="node17" class="node">
<title>31</title>
<polygon fill="yellow" stroke="black" points="311.25,-213 164,-213 164,-177 311.25,-177 311.25,-213"/>
<text text-anchor="middle" x="237.62" y="-189.95" font-family="Times New Roman,serif" font-size="14.00">it = Sequence{1..dim1}</text>
<text text-anchor="middle" x="152.75" y="-216.2" font-family="Times New Roman,serif" font-size="14.00">[31]</text>
</g>
<!-- 28&#45;&gt;31 -->
<g id="edge7" class="edge">
<title>28&#45;&gt;31</title>
<path fill="none" stroke="black" d="M237.62,-265.41C237.62,-253.76 237.62,-238.05 237.62,-224.52"/>
<polygon fill="black" stroke="black" points="241.13,-224.86 237.63,-214.86 234.13,-224.86 241.13,-224.86"/>
<text text-anchor="middle" x="274.75" y="-234.2" font-family="Times New Roman,serif" font-size="14.00">graphAnd#73</text>
</g>
<!-- 37 -->
<g id="node19" class="node">
<title>37</title>
<polygon fill="yellow" stroke="black" points="283.38,-124.5 205.88,-124.5 205.88,-88.5 283.38,-88.5 283.38,-124.5"/>
<text text-anchor="middle" x="244.62" y="-101.45" font-family="Times New Roman,serif" font-size="14.00">acc2 = true</text>
<text text-anchor="middle" x="194.62" y="-127.7" font-family="Times New Roman,serif" font-size="14.00">[37]</text>
</g>
<!-- 31&#45;&gt;37 -->
<g id="edge8" class="edge">
<title>31&#45;&gt;37</title>
<path fill="none" stroke="black" d="M239.01,-176.91C239.95,-165.26 241.22,-149.55 242.32,-136.02"/>
<polygon fill="black" stroke="black" points="245.78,-136.61 243.1,-126.36 238.8,-136.04 245.78,-136.61"/>
<text text-anchor="middle" x="278.88" y="-145.7" font-family="Times New Roman,serif" font-size="14.00">graphAnd#74</text>
</g>
<!-- 34 -->
<g id="node18" class="node">
<title>34</title>
<polygon fill="yellow" stroke="black" points="322.88,-36 260.38,-36 260.38,0 322.88,0 322.88,-36"/>
<text text-anchor="middle" x="291.62" y="-12.95" font-family="Times New Roman,serif" font-size="14.00">idx1 = 1</text>
<text text-anchor="middle" x="249.12" y="-39.2" font-family="Times New Roman,serif" font-size="14.00">[34]</text>
</g>
<!-- 34&#45;&gt;73 -->
<g id="edge6" class="edge">
<title>34&#45;&gt;73</title>
<path fill="none" stroke="black" d="M311.92,-36.43C317,-41.64 322.02,-47.67 325.62,-54 337.37,-74.61 339.62,-81.78 339.62,-105.5 339.62,-550 339.62,-550 339.62,-550 339.62,-573.86 337.71,-601.35 336.25,-618.82"/>
<polygon fill="black" stroke="black" points="332.77,-618.44 335.37,-628.7 339.74,-619.05 332.77,-618.44"/>
<text text-anchor="middle" x="376.75" y="-322.7" font-family="Times New Roman,serif" font-size="14.00">graphAnd#70</text>
</g>
<!-- 37&#45;&gt;34 -->
<g id="edge19" class="edge">
<title>37&#45;&gt;34</title>
<path fill="none" stroke="black" d="M243.88,-88.34C244.13,-77.85 245.74,-64.49 251.38,-54 253.23,-50.55 255.57,-47.29 258.18,-44.24"/>
<polygon fill="black" stroke="black" points="260.47,-46.89 265.03,-37.33 255.5,-41.97 260.47,-46.89"/>
<text text-anchor="middle" x="288.5" y="-57.2" font-family="Times New Roman,serif" font-size="14.00">graphAnd#29</text>
</g>
<!-- 40&#45;&gt;75 -->
<g id="edge9" class="edge">
<title>40&#45;&gt;75</title>
<path fill="none" stroke="black" d="M250.23,-530.91C249.96,-519.26 249.6,-503.55 249.28,-490.02"/>
<polygon fill="black" stroke="black" points="252.79,-490.28 249.06,-480.36 245.79,-490.44 252.79,-490.28"/>
<text text-anchor="middle" x="286.93" y="-499.7" font-family="Times New Roman,serif" font-size="14.00">graphAnd#75</text>
</g>
<!-- 46 -->
<g id="node22" class="node">
<title>46</title>
<polygon fill="yellow" stroke="black" points="531.62,-478.5 377.62,-478.5 377.62,-442.5 531.62,-442.5 531.62,-478.5"/>
<text text-anchor="middle" x="454.62" y="-455.45" font-family="Times New Roman,serif" font-size="14.00">it2 = Sequence{1..dim2}</text>
<text text-anchor="middle" x="366.38" y="-481.7" font-family="Times New Roman,serif" font-size="14.00">[46]</text>
</g>
<!-- 43&#45;&gt;46 -->
<g id="edge28" class="edge">
<title>43&#45;&gt;46</title>
<path fill="none" stroke="black" d="M442.59,-530.91C444.61,-519.26 447.33,-503.55 449.68,-490.02"/>
<polygon fill="black" stroke="black" points="453.1,-490.79 451.36,-480.34 446.2,-489.6 453.1,-490.79"/>
<text text-anchor="middle" x="485.59" y="-499.7" font-family="Times New Roman,serif" font-size="14.00">graphAnd#62</text>
</g>
<!-- 52 -->
<g id="node24" class="node">
<title>52</title>
<polygon fill="yellow" stroke="black" points="505.38,-390 427.88,-390 427.88,-354 505.38,-354 505.38,-390"/>
<text text-anchor="middle" x="466.62" y="-366.95" font-family="Times New Roman,serif" font-size="14.00">acc3 = true</text>
<text text-anchor="middle" x="416.62" y="-393.2" font-family="Times New Roman,serif" font-size="14.00">[52]</text>
</g>
<!-- 46&#45;&gt;52 -->
<g id="edge29" class="edge">
<title>46&#45;&gt;52</title>
<path fill="none" stroke="black" d="M457,-442.41C458.61,-430.76 460.79,-415.05 462.67,-401.52"/>
<polygon fill="black" stroke="black" points="466.1,-402.24 464.01,-391.85 459.17,-401.27 466.1,-402.24"/>
<text text-anchor="middle" x="498.82" y="-411.2" font-family="Times New Roman,serif" font-size="14.00">graphAnd#63</text>
</g>
<!-- 49 -->
<g id="node23" class="node">
<title>49</title>
<polygon fill="yellow" stroke="black" points="549.88,-301.5 487.38,-301.5 487.38,-265.5 549.88,-265.5 549.88,-301.5"/>
<text text-anchor="middle" x="518.62" y="-278.45" font-family="Times New Roman,serif" font-size="14.00">idx2 = 1</text>
<text text-anchor="middle" x="476.12" y="-304.7" font-family="Times New Roman,serif" font-size="14.00">[49]</text>
</g>
<!-- 49&#45;&gt;69 -->
<g id="edge27" class="edge">
<title>49&#45;&gt;69</title>
<path fill="none" stroke="black" d="M539.53,-301.85C544.75,-307.06 549.92,-313.11 553.62,-319.5 565.52,-340.02 567.62,-347.28 567.62,-371 567.62,-815.5 567.62,-815.5 567.62,-815.5 567.62,-840.94 560.62,-849.01 542.62,-867 532.62,-877 517.87,-883.65 506.63,-887.6"/>
<polygon fill="black" stroke="black" points="505.83,-884.18 497.32,-890.5 507.91,-890.86 505.83,-884.18"/>
<text text-anchor="middle" x="604.75" y="-588.2" font-family="Times New Roman,serif" font-size="14.00">graphAnd#59</text>
</g>
<!-- 52&#45;&gt;49 -->
<g id="edge20" class="edge">
<title>52&#45;&gt;49</title>
<path fill="none" stroke="black" d="M468.28,-353.79C469.9,-343.28 473.1,-329.91 479.38,-319.5 481.42,-316.11 483.89,-312.87 486.59,-309.82"/>
<polygon fill="black" stroke="black" points="488.98,-312.39 493.57,-302.84 484.03,-307.44 488.98,-312.39"/>
<text text-anchor="middle" x="516.5" y="-322.7" font-family="Times New Roman,serif" font-size="14.00">graphAnd#40</text>
</g>
<!-- 55&#45;&gt;71 -->
<g id="edge1" class="edge">
<title>55&#45;&gt;71</title>
<path fill="none" stroke="black" d="M331.02,-796.41C331.29,-784.76 331.65,-769.05 331.97,-755.52"/>
<polygon fill="black" stroke="black" points="335.46,-755.94 332.19,-745.86 328.46,-755.78 335.46,-755.94"/>
<text text-anchor="middle" x="368.93" y="-765.2" font-family="Times New Roman,serif" font-size="14.00">graphAnd#64</text>
</g>
<!-- 61 -->
<g id="node27" class="node">
<title>61</title>
<polygon fill="yellow" stroke="black" points="749.62,-744 595.62,-744 595.62,-708 749.62,-708 749.62,-744"/>
<text text-anchor="middle" x="672.62" y="-720.95" font-family="Times New Roman,serif" font-size="14.00">it3 = Sequence{1..dim3}</text>
<text text-anchor="middle" x="584.38" y="-747.2" font-family="Times New Roman,serif" font-size="14.00">[61]</text>
</g>
<!-- 58&#45;&gt;61 -->
<g id="edge21" class="edge">
<title>58&#45;&gt;61</title>
<path fill="none" stroke="black" d="M496.04,-796.21C510.63,-785.13 530.79,-771.17 550.38,-762 561.82,-756.64 574.25,-751.93 586.67,-747.84"/>
<polygon fill="black" stroke="black" points="587.62,-751.21 596.1,-744.87 585.51,-744.54 587.62,-751.21"/>
<text text-anchor="middle" x="587.5" y="-765.2" font-family="Times New Roman,serif" font-size="14.00">graphAnd#51</text>
</g>
<!-- 61&#45;&gt;64 -->
<g id="edge22" class="edge">
<title>61&#45;&gt;64</title>
<path fill="none" stroke="black" d="M661.3,-744.44C651.41,-761.37 638.62,-788.17 638.62,-813.5 638.62,-973 638.62,-973 638.62,-973 638.62,-996.72 637.07,-1004.31 624.62,-1024.5 622.56,-1027.85 620.07,-1031.08 617.37,-1034.11"/>
<polygon fill="black" stroke="black" points="615.01,-1031.52 610.42,-1041.07 619.97,-1036.47 615.01,-1031.52"/>
<text text-anchor="middle" x="675.75" y="-888.2" font-family="Times New Roman,serif" font-size="14.00">graphAnd#52</text>
</g>
</g>
</svg>
