<?xml version="1.0" encoding="UTF-8" standalone="no"?>
<!DOCTYPE svg PUBLIC "-//W3C//DTD SVG 1.1//EN"
 "http://www.w3.org/Graphics/SVG/1.1/DTD/svg11.dtd">
<!-- Generated by graphviz version 12.2.1 (20241206.2353)
 -->
<!-- Title: CLG Pages: 1 -->
<svg width="417pt" height="710pt"
 viewBox="0.00 0.00 417.12 709.80" xmlns="http://www.w3.org/2000/svg" xmlns:xlink="http://www.w3.org/1999/xlink">
<g id="graph0" class="graph" transform="scale(1 1) rotate(0) translate(4 705.8)">
<title>CLG</title>
<polygon fill="white" stroke="none" points="-4,4 -4,-705.8 413.12,-705.8 413.12,4 -4,4"/>
<!-- 16 -->
<g id="node1" class="node">
<title>16</title>
<polygon fill="yellow" stroke="black" points="282.5,-545.4 211.75,-545.4 211.75,-509.4 282.5,-509.4 282.5,-545.4"/>
<text text-anchor="middle" x="247.12" y="-522.35" font-family="Times New Roman,serif" font-size="14.00">acc = true</text>
<text text-anchor="middle" x="200.5" y="-548.6" font-family="Times New Roman,serif" font-size="14.00">[16]</text>
</g>
<!-- 13 -->
<g id="node10" class="node">
<title>13</title>
<polygon fill="yellow" stroke="black" points="285.12,-456.9 209.12,-456.9 209.12,-420.9 285.12,-420.9 285.12,-456.9"/>
<text text-anchor="middle" x="247.12" y="-433.85" font-family="Times New Roman,serif" font-size="14.00">Index0 = 1</text>
<text text-anchor="middle" x="197.88" y="-460.1" font-family="Times New Roman,serif" font-size="14.00">[13]</text>
</g>
<!-- 16&#45;&gt;13 -->
<g id="edge7" class="edge">
<title>16&#45;&gt;13</title>
<path fill="none" stroke="black" d="M247.12,-509.31C247.12,-497.66 247.12,-481.95 247.12,-468.42"/>
<polygon fill="black" stroke="black" points="250.63,-468.76 247.13,-458.76 243.63,-468.76 250.63,-468.76"/>
<text text-anchor="middle" x="284.25" y="-478.1" font-family="Times New Roman,serif" font-size="14.00">graphAnd#12</text>
</g>
<!-- 33 -->
<g id="node2" class="node">
<title>33</title>
<polygon fill="aquamarine" stroke="black" points="247.12,-368.4 239.93,-361.2 247.12,-354 254.32,-361.2 247.12,-368.4"/>
<text text-anchor="middle" x="224.93" y="-371.6" font-family="Times New Roman,serif" font-size="14.00">&lt;33&gt;</text>
</g>
<!-- 19 -->
<g id="node3" class="node">
<title>19</title>
<polygon fill="yellow" stroke="black" points="157.75,-301.5 22.5,-301.5 22.5,-265.5 157.75,-265.5 157.75,-301.5"/>
<text text-anchor="middle" x="90.12" y="-278.45" font-family="Times New Roman,serif" font-size="14.00">Index0 &gt; dim1 &#45; 1+ 1</text>
<text text-anchor="middle" x="11.25" y="-304.7" font-family="Times New Roman,serif" font-size="14.00">[19]</text>
</g>
<!-- 33&#45;&gt;19 -->
<g id="edge9" class="edge">
<title>33&#45;&gt;19</title>
<path fill="none" stroke="black" d="M241.62,-359.06C228.56,-356.22 194.87,-348.22 168.88,-336 152.66,-328.38 135.88,-317.83 122,-308.27"/>
<polygon fill="black" stroke="black" points="124.33,-305.62 114.13,-302.72 120.29,-311.34 124.33,-305.62"/>
<text text-anchor="middle" x="206" y="-322.7" font-family="Times New Roman,serif" font-size="14.00">graphAnd#30</text>
</g>
<!-- 22 -->
<g id="node5" class="node">
<title>22</title>
<polygon fill="yellow" stroke="black" points="318.88,-301.5 175.38,-301.5 175.38,-265.5 318.88,-265.5 318.88,-301.5"/>
<text text-anchor="middle" x="247.12" y="-278.45" font-family="Times New Roman,serif" font-size="14.00">Index0 &lt;= dim1 &#45; 1+ 1</text>
<text text-anchor="middle" x="164.12" y="-304.7" font-family="Times New Roman,serif" font-size="14.00">[22]</text>
</g>
<!-- 33&#45;&gt;22 -->
<g id="edge6" class="edge">
<title>33&#45;&gt;22</title>
<path fill="none" stroke="black" d="M247.12,-353.48C247.12,-344.4 247.12,-327.65 247.12,-312.93"/>
<polygon fill="black" stroke="black" points="250.63,-313.26 247.13,-303.26 243.63,-313.26 250.63,-313.26"/>
<text text-anchor="middle" x="274.12" y="-322.7" font-family="Times New Roman,serif" font-size="14.00">iterate#27</text>
</g>
<!-- 20 -->
<g id="node4" class="node">
<title>20</title>
<ellipse fill="black" stroke="black" cx="90.12" cy="-195" rx="7.2" ry="7.2"/>
<ellipse fill="none" stroke="black" cx="90.12" cy="-195" rx="11.2" ry="11.2"/>
<text text-anchor="middle" x="68.8" y="-209.4" font-family="Times New Roman,serif" font-size="14.00">[&#45;1]</text>
</g>
<!-- 19&#45;&gt;20 -->
<g id="edge10" class="edge">
<title>19&#45;&gt;20</title>
<path fill="none" stroke="black" d="M90.12,-265.41C90.12,-251.72 90.12,-232.42 90.12,-217.65"/>
<polygon fill="black" stroke="black" points="93.63,-218.04 90.13,-208.04 86.63,-218.04 93.63,-218.04"/>
</g>
<!-- 25 -->
<g id="node7" class="node">
<title>25</title>
<polygon fill="yellow" stroke="black" points="293.75,-213 146.5,-213 146.5,-177 293.75,-177 293.75,-213"/>
<text text-anchor="middle" x="220.12" y="-189.95" font-family="Times New Roman,serif" font-size="14.00">it = Sequence{1..dim1}</text>
<text text-anchor="middle" x="135.25" y="-216.2" font-family="Times New Roman,serif" font-size="14.00">[25]</text>
</g>
<!-- 22&#45;&gt;25 -->
<g id="edge3" class="edge">
<title>22&#45;&gt;25</title>
<path fill="none" stroke="black" d="M241.79,-265.41C238.12,-253.64 233.15,-237.73 228.9,-224.11"/>
<polygon fill="black" stroke="black" points="232.31,-223.3 225.99,-214.79 225.63,-225.38 232.31,-223.3"/>
<text text-anchor="middle" x="273.17" y="-234.2" font-family="Times New Roman,serif" font-size="14.00">graphAnd#23</text>
</g>
<!-- 9 -->
<g id="node6" class="node">
<title>9</title>
<ellipse fill="black" stroke="black" cx="247.12" cy="-678.1" rx="7.2" ry="7.2"/>
<text text-anchor="middle" x="232.05" y="-688.5" font-family="Times New Roman,serif" font-size="14.00">[0]</text>
</g>
<!-- 10 -->
<g id="node8" class="node">
<title>10</title>
<polygon fill="yellow" stroke="black" points="363.88,-633.9 130.38,-633.9 130.38,-597.9 363.88,-597.9 363.88,-633.9"/>
<text text-anchor="middle" x="247.12" y="-610.85" font-family="Times New Roman,serif" font-size="14.00">dim1 = arg.datas.getDimensionSizes(1)</text>
<text text-anchor="middle" x="119.12" y="-637.1" font-family="Times New Roman,serif" font-size="14.00">[10]</text>
</g>
<!-- 9&#45;&gt;10 -->
<g id="edge2" class="edge">
<title>9&#45;&gt;10</title>
<path fill="none" stroke="black" d="M247.12,-670.66C247.12,-664.6 247.12,-655.09 247.12,-645.74"/>
<polygon fill="black" stroke="black" points="250.63,-645.78 247.13,-635.78 243.63,-645.78 250.63,-645.78"/>
</g>
<!-- 28 -->
<g id="node9" class="node">
<title>28</title>
<polygon fill="yellow" stroke="black" points="327.25,-124.5 69,-124.5 69,-88.5 327.25,-88.5 327.25,-124.5"/>
<text text-anchor="middle" x="198.12" y="-101.45" font-family="Times New Roman,serif" font-size="14.00">result.datas[it] = self.datas[it] + arg.datas[it]</text>
<text text-anchor="middle" x="57.75" y="-127.7" font-family="Times New Roman,serif" font-size="14.00">[28]</text>
</g>
<!-- 25&#45;&gt;28 -->
<g id="edge4" class="edge">
<title>25&#45;&gt;28</title>
<path fill="none" stroke="black" d="M215.78,-176.91C212.78,-165.14 208.74,-149.23 205.27,-135.61"/>
<polygon fill="black" stroke="black" points="208.77,-135.15 202.91,-126.32 201.98,-136.87 208.77,-135.15"/>
<text text-anchor="middle" x="248.22" y="-145.7" font-family="Times New Roman,serif" font-size="14.00">graphAnd#24</text>
</g>
<!-- 10&#45;&gt;16 -->
<g id="edge1" class="edge">
<title>10&#45;&gt;16</title>
<path fill="none" stroke="black" d="M247.12,-597.81C247.12,-586.16 247.12,-570.45 247.12,-556.92"/>
<polygon fill="black" stroke="black" points="250.63,-557.26 247.13,-547.26 243.63,-557.26 250.63,-557.26"/>
<text text-anchor="middle" x="284.25" y="-566.6" font-family="Times New Roman,serif" font-size="14.00">graphAnd#32</text>
</g>
<!-- 31 -->
<g id="node11" class="node">
<title>31</title>
<polygon fill="yellow" stroke="black" points="340.75,-36 211.5,-36 211.5,0 340.75,0 340.75,-36"/>
<text text-anchor="middle" x="276.12" y="-12.95" font-family="Times New Roman,serif" font-size="14.00">Index0 = Index0 + 1</text>
<text text-anchor="middle" x="200.25" y="-39.2" font-family="Times New Roman,serif" font-size="14.00">[31]</text>
</g>
<!-- 28&#45;&gt;31 -->
<g id="edge5" class="edge">
<title>28&#45;&gt;31</title>
<path fill="none" stroke="black" d="M213.54,-88.41C224.79,-75.93 240.23,-58.8 252.96,-44.68"/>
<polygon fill="black" stroke="black" points="255.37,-47.24 259.47,-37.47 250.17,-42.56 255.37,-47.24"/>
<text text-anchor="middle" x="281.24" y="-57.2" font-family="Times New Roman,serif" font-size="14.00">graphAnd#25</text>
</g>
<!-- 13&#45;&gt;33 -->
<g id="edge11" class="edge">
<title>13&#45;&gt;33</title>
<path fill="none" stroke="black" d="M247.12,-420.72C247.12,-408.68 247.12,-392.6 247.12,-380.35"/>
<polygon fill="black" stroke="black" points="250.63,-380.44 247.13,-370.44 243.63,-380.44 250.63,-380.44"/>
<text text-anchor="middle" x="284.25" y="-389.6" font-family="Times New Roman,serif" font-size="14.00">graphAnd#31</text>
</g>
<!-- 31&#45;&gt;33 -->
<g id="edge8" class="edge">
<title>31&#45;&gt;33</title>
<path fill="none" stroke="black" d="M306.89,-36.43C329.08,-51.52 355.12,-75.6 355.12,-105.5 355.12,-284.5 355.12,-284.5 355.12,-284.5 355.12,-328.58 294.06,-349.17 263.76,-356.67"/>
<polygon fill="black" stroke="black" points="263.39,-353.17 254.41,-358.79 264.93,-360 263.39,-353.17"/>
<text text-anchor="middle" x="382.12" y="-189.95" font-family="Times New Roman,serif" font-size="14.00">iterate#28</text>
</g>
</g>
</svg>
