<?xml version="1.0" encoding="UTF-8" standalone="no"?>
<!DOCTYPE svg PUBLIC "-//W3C//DTD SVG 1.1//EN"
 "http://www.w3.org/Graphics/SVG/1.1/DTD/svg11.dtd">
<!-- Generated by graphviz version 12.2.1 (20241206.2353)
 -->
<!-- Title: CLG Pages: 1 -->
<svg width="149pt" height="614pt"
 viewBox="0.00 0.00 149.12 613.80" xmlns="http://www.w3.org/2000/svg" xmlns:xlink="http://www.w3.org/1999/xlink">
<g id="graph0" class="graph" transform="scale(1 1) rotate(0) translate(4 609.8)">
<title>CLG</title>
<polygon fill="white" stroke="none" points="-4,4 -4,-609.8 145.12,-609.8 145.12,4 -4,4"/>
<!-- 16 -->
<g id="node1" class="node">
<title>16</title>
<polygon fill="yellow" stroke="black" points="103.38,-183.9 30.38,-183.9 30.38,-147.9 103.38,-147.9 103.38,-183.9"/>
<text text-anchor="middle" x="66.88" y="-160.85" font-family="Times New Roman,serif" font-size="14.00">day &lt;= 31</text>
<text text-anchor="middle" x="19.12" y="-187.1" font-family="Times New Roman,serif" font-size="14.00">[16]</text>
</g>
<!-- 19 -->
<g id="node3" class="node">
<title>19</title>
<polygon fill="yellow" stroke="black" points="100,-95.4 33.75,-95.4 33.75,-59.4 100,-59.4 100,-95.4"/>
<text text-anchor="middle" x="66.88" y="-72.35" font-family="Times New Roman,serif" font-size="14.00">day &gt;= 1</text>
<text text-anchor="middle" x="22.5" y="-98.6" font-family="Times New Roman,serif" font-size="14.00">[19]</text>
</g>
<!-- 16&#45;&gt;19 -->
<g id="edge3" class="edge">
<title>16&#45;&gt;19</title>
<path fill="none" stroke="black" d="M66.88,-147.81C66.88,-136.16 66.88,-120.45 66.88,-106.92"/>
<polygon fill="black" stroke="black" points="70.38,-107.26 66.88,-97.26 63.38,-107.26 70.38,-107.26"/>
<text text-anchor="middle" x="104" y="-116.6" font-family="Times New Roman,serif" font-size="14.00">graphAnd#18</text>
</g>
<!-- 3 -->
<g id="node2" class="node">
<title>3</title>
<ellipse fill="black" stroke="black" cx="66.88" cy="-582.1" rx="7.2" ry="7.2"/>
<text text-anchor="middle" x="51.8" y="-592.5" font-family="Times New Roman,serif" font-size="14.00">[0]</text>
</g>
<!-- 4 -->
<g id="node4" class="node">
<title>4</title>
<polygon fill="yellow" stroke="black" points="101.88,-537.9 31.88,-537.9 31.88,-501.9 101.88,-501.9 101.88,-537.9"/>
<text text-anchor="middle" x="66.88" y="-514.85" font-family="Times New Roman,serif" font-size="14.00">year &gt;= 1</text>
<text text-anchor="middle" x="24" y="-541.1" font-family="Times New Roman,serif" font-size="14.00">[4]</text>
</g>
<!-- 3&#45;&gt;4 -->
<g id="edge2" class="edge">
<title>3&#45;&gt;4</title>
<path fill="none" stroke="black" d="M66.88,-574.66C66.88,-568.6 66.88,-559.09 66.88,-549.74"/>
<polygon fill="black" stroke="black" points="70.38,-549.78 66.88,-539.78 63.38,-549.78 70.38,-549.78"/>
</g>
<!-- 20 -->
<g id="node5" class="node">
<title>20</title>
<ellipse fill="black" stroke="black" cx="66.88" cy="-11.2" rx="7.2" ry="7.2"/>
<ellipse fill="none" stroke="black" cx="66.88" cy="-11.2" rx="11.2" ry="11.2"/>
<text text-anchor="middle" x="45.55" y="-25.6" font-family="Times New Roman,serif" font-size="14.00">[&#45;1]</text>
</g>
<!-- 19&#45;&gt;20 -->
<g id="edge1" class="edge">
<title>19&#45;&gt;20</title>
<path fill="none" stroke="black" d="M66.88,-59.2C66.88,-51.5 66.88,-42.34 66.88,-34.15"/>
<polygon fill="black" stroke="black" points="70.38,-34.32 66.88,-24.32 63.38,-34.32 70.38,-34.32"/>
</g>
<!-- 7 -->
<g id="node6" class="node">
<title>7</title>
<polygon fill="yellow" stroke="black" points="112,-449.4 21.75,-449.4 21.75,-413.4 112,-413.4 112,-449.4"/>
<text text-anchor="middle" x="66.88" y="-426.35" font-family="Times New Roman,serif" font-size="14.00">year &lt;= 3999</text>
<text text-anchor="middle" x="13.88" y="-452.6" font-family="Times New Roman,serif" font-size="14.00">[7]</text>
</g>
<!-- 4&#45;&gt;7 -->
<g id="edge4" class="edge">
<title>4&#45;&gt;7</title>
<path fill="none" stroke="black" d="M66.88,-501.81C66.88,-490.16 66.88,-474.45 66.88,-460.92"/>
<polygon fill="black" stroke="black" points="70.38,-461.26 66.88,-451.26 63.38,-461.26 70.38,-461.26"/>
<text text-anchor="middle" x="100.62" y="-470.6" font-family="Times New Roman,serif" font-size="14.00">graphAnd#6</text>
</g>
<!-- 10 -->
<g id="node7" class="node">
<title>10</title>
<polygon fill="yellow" stroke="black" points="107.88,-360.9 25.88,-360.9 25.88,-324.9 107.88,-324.9 107.88,-360.9"/>
<text text-anchor="middle" x="66.88" y="-337.85" font-family="Times New Roman,serif" font-size="14.00">month &gt;= 1</text>
<text text-anchor="middle" x="14.62" y="-364.1" font-family="Times New Roman,serif" font-size="14.00">[10]</text>
</g>
<!-- 7&#45;&gt;10 -->
<g id="edge5" class="edge">
<title>7&#45;&gt;10</title>
<path fill="none" stroke="black" d="M66.88,-413.31C66.88,-401.66 66.88,-385.95 66.88,-372.42"/>
<polygon fill="black" stroke="black" points="70.38,-372.76 66.88,-362.76 63.38,-372.76 70.38,-372.76"/>
<text text-anchor="middle" x="100.62" y="-382.1" font-family="Times New Roman,serif" font-size="14.00">graphAnd#9</text>
</g>
<!-- 13 -->
<g id="node8" class="node">
<title>13</title>
<polygon fill="yellow" stroke="black" points="111.25,-272.4 22.5,-272.4 22.5,-236.4 111.25,-236.4 111.25,-272.4"/>
<text text-anchor="middle" x="66.88" y="-249.35" font-family="Times New Roman,serif" font-size="14.00">month &lt;= 12</text>
<text text-anchor="middle" x="11.25" y="-275.6" font-family="Times New Roman,serif" font-size="14.00">[13]</text>
</g>
<!-- 10&#45;&gt;13 -->
<g id="edge6" class="edge">
<title>10&#45;&gt;13</title>
<path fill="none" stroke="black" d="M66.88,-324.81C66.88,-313.16 66.88,-297.45 66.88,-283.92"/>
<polygon fill="black" stroke="black" points="70.38,-284.26 66.88,-274.26 63.38,-284.26 70.38,-284.26"/>
<text text-anchor="middle" x="104" y="-293.6" font-family="Times New Roman,serif" font-size="14.00">graphAnd#12</text>
</g>
<!-- 13&#45;&gt;16 -->
<g id="edge7" class="edge">
<title>13&#45;&gt;16</title>
<path fill="none" stroke="black" d="M66.88,-236.31C66.88,-224.66 66.88,-208.95 66.88,-195.42"/>
<polygon fill="black" stroke="black" points="70.38,-195.76 66.88,-185.76 63.38,-195.76 70.38,-195.76"/>
<text text-anchor="middle" x="104" y="-205.1" font-family="Times New Roman,serif" font-size="14.00">graphAnd#15</text>
</g>
</g>
</svg>
