<?xml version="1.0" encoding="UTF-8" standalone="no"?>
<!DOCTYPE svg PUBLIC "-//W3C//DTD SVG 1.1//EN"
 "http://www.w3.org/Graphics/SVG/1.1/DTD/svg11.dtd">
<!-- Generated by graphviz version 12.2.1 (20241206.2353)
 -->
<!-- Title: CLG Pages: 1 -->
<svg width="175pt" height="331pt"
 viewBox="0.00 0.00 175.00 330.80" xmlns="http://www.w3.org/2000/svg" xmlns:xlink="http://www.w3.org/1999/xlink">
<g id="graph0" class="graph" transform="scale(1 1) rotate(0) translate(4 326.8)">
<title>CLG</title>
<polygon fill="white" stroke="none" points="-4,4 -4,-326.8 171,-326.8 171,4 -4,4"/>
<!-- 245 -->
<g id="node1" class="node">
<title>245</title>
<polygon fill="yellow" stroke="black" points="126.62,-95.4 45.38,-95.4 45.38,-59.4 126.62,-59.4 126.62,-95.4"/>
<text text-anchor="middle" x="86" y="-72.35" font-family="Times New Roman,serif" font-size="14.00">result = day</text>
<text text-anchor="middle" x="30.75" y="-98.6" font-family="Times New Roman,serif" font-size="14.00">[245]</text>
</g>
<!-- 246 -->
<g id="node2" class="node">
<title>246</title>
<ellipse fill="black" stroke="black" cx="86" cy="-11.2" rx="7.2" ry="7.2"/>
<ellipse fill="none" stroke="black" cx="86" cy="-11.2" rx="11.2" ry="11.2"/>
<text text-anchor="middle" x="64.67" y="-25.6" font-family="Times New Roman,serif" font-size="14.00">[&#45;1]</text>
</g>
<!-- 245&#45;&gt;246 -->
<g id="edge2" class="edge">
<title>245&#45;&gt;246</title>
<path fill="none" stroke="black" d="M86,-59.2C86,-51.5 86,-42.34 86,-34.15"/>
<polygon fill="black" stroke="black" points="89.5,-34.32 86,-24.32 82.5,-34.32 89.5,-34.32"/>
</g>
<!-- 250 -->
<g id="node3" class="node">
<title>250</title>
<ellipse fill="black" stroke="black" cx="86" cy="-299.1" rx="7.2" ry="7.2"/>
<text text-anchor="middle" x="70.92" y="-309.5" font-family="Times New Roman,serif" font-size="14.00">[0]</text>
</g>
<!-- 251 -->
<g id="node4" class="node">
<title>251</title>
<polygon fill="yellow" stroke="black" points="142.75,-254.9 29.25,-254.9 29.25,-147.9 142.75,-147.9 142.75,-254.9"/>
<text text-anchor="middle" x="86" y="-237.6" font-family="Times New Roman,serif" font-size="14.00">year &gt;= 1 and</text>
<text text-anchor="middle" x="86" y="-221.1" font-family="Times New Roman,serif" font-size="14.00">year &lt;= 3999 and</text>
<text text-anchor="middle" x="86" y="-204.6" font-family="Times New Roman,serif" font-size="14.00">month &gt;= 1 and</text>
<text text-anchor="middle" x="86" y="-188.1" font-family="Times New Roman,serif" font-size="14.00">month &lt;= 12 and</text>
<text text-anchor="middle" x="86" y="-171.6" font-family="Times New Roman,serif" font-size="14.00">day &lt;= 31 and</text>
<text text-anchor="middle" x="86" y="-155.1" font-family="Times New Roman,serif" font-size="14.00">day &gt;= 1</text>
<text text-anchor="middle" x="14.62" y="-258.1" font-family="Times New Roman,serif" font-size="14.00">[251]</text>
</g>
<!-- 250&#45;&gt;251 -->
<g id="edge3" class="edge">
<title>250&#45;&gt;251</title>
<path fill="none" stroke="black" d="M86,-291.52C86,-285.75 86,-276.72 86,-266.57"/>
<polygon fill="black" stroke="black" points="89.5,-266.74 86,-256.74 82.5,-266.74 89.5,-266.74"/>
</g>
<!-- 251&#45;&gt;245 -->
<g id="edge1" class="edge">
<title>251&#45;&gt;245</title>
<path fill="none" stroke="black" d="M86,-147.6C86,-133.69 86,-119.2 86,-107.1"/>
<polygon fill="black" stroke="black" points="89.5,-107.41 86,-97.41 82.5,-107.41 89.5,-107.41"/>
<text text-anchor="middle" x="126.5" y="-116.6" font-family="Times New Roman,serif" font-size="14.00">graphAnd#288</text>
</g>
</g>
</svg>
