<?xml version="1.0" encoding="UTF-8" standalone="no"?>
<!DOCTYPE svg PUBLIC "-//W3C//DTD SVG 1.1//EN"
 "http://www.w3.org/Graphics/SVG/1.1/DTD/svg11.dtd">
<!-- Generated by graphviz version 12.2.1 (20241206.2353)
 -->
<!-- Title: CLG Pages: 1 -->
<svg width="616pt" height="1485pt"
 viewBox="0.00 0.00 615.63 1484.80" xmlns="http://www.w3.org/2000/svg" xmlns:xlink="http://www.w3.org/1999/xlink">
<g id="graph0" class="graph" transform="scale(1 1) rotate(0) translate(4 1480.8)">
<title>CLG</title>
<polygon fill="white" stroke="none" points="-4,4 -4,-1480.8 611.63,-1480.8 611.63,4 -4,4"/>
<!-- 66 -->
<g id="node1" class="node">
<title>66</title>
<polygon fill="yellow" stroke="black" points="564.62,-445.4 493.88,-445.4 493.88,-409.4 564.62,-409.4 564.62,-445.4"/>
<text text-anchor="middle" x="529.25" y="-422.35" font-family="Times New Roman,serif" font-size="14.00">result = A</text>
<text text-anchor="middle" x="482.62" y="-448.6" font-family="Times New Roman,serif" font-size="14.00">[66]</text>
</g>
<!-- 75 -->
<g id="node6" class="node">
<title>75</title>
<polygon fill="aquamarine" stroke="black" points="433.25,-356.9 426.05,-349.7 433.25,-342.5 440.45,-349.7 433.25,-356.9"/>
<text text-anchor="middle" x="411.05" y="-360.1" font-family="Times New Roman,serif" font-size="14.00">&lt;75&gt;</text>
</g>
<!-- 66&#45;&gt;75 -->
<g id="edge32" class="edge">
<title>66&#45;&gt;75</title>
<path fill="none" stroke="black" d="M522.76,-409.02C517.83,-397.91 510.04,-383.94 499.25,-374.9 485.07,-363.02 464.54,-356.72 450.15,-353.56"/>
<polygon fill="black" stroke="black" points="450.99,-350.16 440.51,-351.75 449.7,-357.04 450.99,-350.16"/>
<text text-anchor="middle" x="543.7" y="-378.1" font-family="Times New Roman,serif" font-size="14.00">merge1#62</text>
</g>
<!-- 69 -->
<g id="node2" class="node">
<title>69</title>
<polygon fill="yellow" stroke="black" points="470.88,-533.9 383.62,-533.9 383.62,-497.9 470.88,-497.9 470.88,-533.9"/>
<text text-anchor="middle" x="427.25" y="-510.85" font-family="Times New Roman,serif" font-size="14.00">number &lt; 90</text>
<text text-anchor="middle" x="372.38" y="-537.1" font-family="Times New Roman,serif" font-size="14.00">[69]</text>
</g>
<!-- 72 -->
<g id="node3" class="node">
<title>72</title>
<polygon fill="yellow" stroke="black" points="468.62,-445.4 397.88,-445.4 397.88,-409.4 468.62,-409.4 468.62,-445.4"/>
<text text-anchor="middle" x="433.25" y="-422.35" font-family="Times New Roman,serif" font-size="14.00">result = B</text>
<text text-anchor="middle" x="386.62" y="-448.6" font-family="Times New Roman,serif" font-size="14.00">[72]</text>
</g>
<!-- 69&#45;&gt;72 -->
<g id="edge29" class="edge">
<title>69&#45;&gt;72</title>
<path fill="none" stroke="black" d="M428.44,-497.81C429.24,-486.16 430.33,-470.45 431.27,-456.92"/>
<polygon fill="black" stroke="black" points="434.74,-457.48 431.94,-447.26 427.76,-456.99 434.74,-457.48"/>
<text text-anchor="middle" x="467.91" y="-466.6" font-family="Times New Roman,serif" font-size="14.00">graphAnd#58</text>
</g>
<!-- 72&#45;&gt;75 -->
<g id="edge33" class="edge">
<title>72&#45;&gt;75</title>
<path fill="none" stroke="black" d="M433.25,-409.22C433.25,-397.18 433.25,-381.1 433.25,-368.85"/>
<polygon fill="black" stroke="black" points="436.75,-368.94 433.25,-358.94 429.75,-368.94 436.75,-368.94"/>
<text text-anchor="middle" x="464" y="-378.1" font-family="Times New Roman,serif" font-size="14.00">merge2#63</text>
</g>
<!-- 73 -->
<g id="node4" class="node">
<title>73</title>
<ellipse fill="black" stroke="black" cx="86.25" cy="-11.2" rx="7.2" ry="7.2"/>
<ellipse fill="none" stroke="black" cx="86.25" cy="-11.2" rx="11.2" ry="11.2"/>
<text text-anchor="middle" x="64.92" y="-25.6" font-family="Times New Roman,serif" font-size="14.00">[&#45;1]</text>
</g>
<!-- 74 -->
<g id="node5" class="node">
<title>74</title>
<polygon fill="aquamarine" stroke="black" points="455.25,-620.3 448.05,-613.1 455.25,-605.9 462.45,-613.1 455.25,-620.3"/>
<text text-anchor="middle" x="433.05" y="-623.5" font-family="Times New Roman,serif" font-size="14.00">&lt;74&gt;</text>
</g>
<!-- 74&#45;&gt;69 -->
<g id="edge31" class="edge">
<title>74&#45;&gt;69</title>
<path fill="none" stroke="black" d="M453.74,-606.98C450.37,-595.52 442.01,-567.1 435.58,-545.22"/>
<polygon fill="black" stroke="black" points="438.94,-544.25 432.76,-535.64 432.23,-546.22 438.94,-544.25"/>
<text text-anchor="middle" x="472.87" y="-564.85" font-family="Times New Roman,serif" font-size="14.00">split2#61</text>
</g>
<!-- 63 -->
<g id="node29" class="node">
<title>63</title>
<polygon fill="yellow" stroke="black" points="584,-533.9 488.5,-533.9 488.5,-497.9 584,-497.9 584,-533.9"/>
<text text-anchor="middle" x="536.25" y="-510.85" font-family="Times New Roman,serif" font-size="14.00">number &gt;= 90</text>
<text text-anchor="middle" x="477.25" y="-537.1" font-family="Times New Roman,serif" font-size="14.00">[63]</text>
</g>
<!-- 74&#45;&gt;63 -->
<g id="edge30" class="edge">
<title>74&#45;&gt;63</title>
<path fill="none" stroke="black" d="M460.59,-610.6C470.1,-607.68 490.1,-600.41 502.25,-587.9 513.9,-575.91 522.18,-559.17 527.65,-544.96"/>
<polygon fill="black" stroke="black" points="530.9,-546.26 530.94,-535.67 524.3,-543.92 530.9,-546.26"/>
<text text-anchor="middle" x="549.88" y="-564.85" font-family="Times New Roman,serif" font-size="14.00">split1#60</text>
</g>
<!-- 77 -->
<g id="node8" class="node">
<title>77</title>
<polygon fill="aquamarine" stroke="black" points="318.25,-290 311.05,-282.8 318.25,-275.6 325.45,-282.8 318.25,-290"/>
<text text-anchor="middle" x="296.05" y="-293.2" font-family="Times New Roman,serif" font-size="14.00">&lt;77&gt;</text>
</g>
<!-- 75&#45;&gt;77 -->
<g id="edge6" class="edge">
<title>75&#45;&gt;77</title>
<path fill="none" stroke="black" d="M428.88,-346.24C413.09,-337.32 358.48,-306.5 332.37,-291.77"/>
<polygon fill="black" stroke="black" points="334.37,-288.88 323.94,-287.01 330.93,-294.97 334.37,-288.88"/>
<text text-anchor="middle" x="420.18" y="-311.2" font-family="Times New Roman,serif" font-size="14.00">merge2#71</text>
</g>
<!-- 76 -->
<g id="node7" class="node">
<title>76</title>
<polygon fill="aquamarine" stroke="black" points="368.25,-800.2 361.05,-793 368.25,-785.8 375.45,-793 368.25,-800.2"/>
<text text-anchor="middle" x="346.05" y="-803.4" font-family="Times New Roman,serif" font-size="14.00">&lt;76&gt;</text>
</g>
<!-- 54 -->
<g id="node26" class="node">
<title>54</title>
<polygon fill="yellow" stroke="black" points="385.62,-713.8 266.88,-713.8 266.88,-672.8 385.62,-672.8 385.62,-713.8"/>
<text text-anchor="middle" x="326.25" y="-696.5" font-family="Times New Roman,serif" font-size="14.00">number &gt;= 80 and</text>
<text text-anchor="middle" x="326.25" y="-680" font-family="Times New Roman,serif" font-size="14.00">number &lt;= 89</text>
<text text-anchor="middle" x="255.62" y="-717" font-family="Times New Roman,serif" font-size="14.00">[54]</text>
</g>
<!-- 76&#45;&gt;54 -->
<g id="edge3" class="edge">
<title>76&#45;&gt;54</title>
<path fill="none" stroke="black" d="M366.22,-787.29C361.41,-776.08 348.95,-747.1 339.21,-724.44"/>
<polygon fill="black" stroke="black" points="342.45,-723.13 335.29,-715.33 336.02,-725.9 342.45,-723.13"/>
<text text-anchor="middle" x="382.11" y="-744.75" font-family="Times New Roman,serif" font-size="14.00">split1#68</text>
</g>
<!-- 60 -->
<g id="node28" class="node">
<title>60</title>
<polygon fill="yellow" stroke="black" points="506.38,-713.8 404.12,-713.8 404.12,-672.8 506.38,-672.8 506.38,-713.8"/>
<text text-anchor="middle" x="455.25" y="-696.5" font-family="Times New Roman,serif" font-size="14.00">number &lt; 80 or</text>
<text text-anchor="middle" x="455.25" y="-680" font-family="Times New Roman,serif" font-size="14.00">number &gt; 89</text>
<text text-anchor="middle" x="392.88" y="-717" font-family="Times New Roman,serif" font-size="14.00">[60]</text>
</g>
<!-- 76&#45;&gt;60 -->
<g id="edge4" class="edge">
<title>76&#45;&gt;60</title>
<path fill="none" stroke="black" d="M373.3,-790.16C381.93,-786.82 399.71,-779.03 411.25,-767.8 424.03,-755.36 434.49,-738.45 442,-723.99"/>
<polygon fill="black" stroke="black" points="444.98,-725.86 446.27,-715.34 438.7,-722.76 444.98,-725.86"/>
<text text-anchor="middle" x="462.56" y="-744.75" font-family="Times New Roman,serif" font-size="14.00">split2#69</text>
</g>
<!-- 79 -->
<g id="node10" class="node">
<title>79</title>
<polygon fill="aquamarine" stroke="black" points="239.25,-223.1 232.05,-215.9 239.25,-208.7 246.45,-215.9 239.25,-223.1"/>
<text text-anchor="middle" x="217.05" y="-226.3" font-family="Times New Roman,serif" font-size="14.00">&lt;79&gt;</text>
</g>
<!-- 77&#45;&gt;79 -->
<g id="edge12" class="edge">
<title>77&#45;&gt;79</title>
<path fill="none" stroke="black" d="M314.86,-279.01C304.09,-270.17 270.34,-242.44 251.78,-227.2"/>
<polygon fill="black" stroke="black" points="254.02,-224.5 244.07,-220.86 249.58,-229.91 254.02,-224.5"/>
<text text-anchor="middle" x="318.9" y="-244.3" font-family="Times New Roman,serif" font-size="14.00">merge2#79</text>
</g>
<!-- 78 -->
<g id="node9" class="node">
<title>78</title>
<polygon fill="aquamarine" stroke="black" points="286.25,-980.1 279.05,-972.9 286.25,-965.7 293.45,-972.9 286.25,-980.1"/>
<text text-anchor="middle" x="264.05" y="-983.3" font-family="Times New Roman,serif" font-size="14.00">&lt;78&gt;</text>
</g>
<!-- 45 -->
<g id="node23" class="node">
<title>45</title>
<polygon fill="yellow" stroke="black" points="298.62,-893.7 179.88,-893.7 179.88,-852.7 298.62,-852.7 298.62,-893.7"/>
<text text-anchor="middle" x="239.25" y="-876.4" font-family="Times New Roman,serif" font-size="14.00">number &gt;= 70 and</text>
<text text-anchor="middle" x="239.25" y="-859.9" font-family="Times New Roman,serif" font-size="14.00">number &lt;= 79</text>
<text text-anchor="middle" x="168.62" y="-896.9" font-family="Times New Roman,serif" font-size="14.00">[45]</text>
</g>
<!-- 78&#45;&gt;45 -->
<g id="edge9" class="edge">
<title>78&#45;&gt;45</title>
<path fill="none" stroke="black" d="M284.11,-967.45C278.81,-956.43 264.7,-927.11 253.71,-904.26"/>
<polygon fill="black" stroke="black" points="256.92,-902.85 249.43,-895.36 250.61,-905.88 256.92,-902.85"/>
<text text-anchor="middle" x="298.77" y="-924.65" font-family="Times New Roman,serif" font-size="14.00">split1#76</text>
</g>
<!-- 51 -->
<g id="node25" class="node">
<title>51</title>
<polygon fill="yellow" stroke="black" points="419.38,-893.7 317.12,-893.7 317.12,-852.7 419.38,-852.7 419.38,-893.7"/>
<text text-anchor="middle" x="368.25" y="-876.4" font-family="Times New Roman,serif" font-size="14.00">number &lt; 70 or</text>
<text text-anchor="middle" x="368.25" y="-859.9" font-family="Times New Roman,serif" font-size="14.00">number &gt; 79</text>
<text text-anchor="middle" x="305.88" y="-896.9" font-family="Times New Roman,serif" font-size="14.00">[51]</text>
</g>
<!-- 78&#45;&gt;51 -->
<g id="edge10" class="edge">
<title>78&#45;&gt;51</title>
<path fill="none" stroke="black" d="M291.23,-970.08C299.73,-966.77 317.2,-959.02 328.25,-947.7 340.22,-935.44 349.65,-918.87 356.34,-904.58"/>
<polygon fill="black" stroke="black" points="359.47,-906.14 360.31,-895.58 353.07,-903.31 359.47,-906.14"/>
<text text-anchor="middle" x="377.7" y="-924.65" font-family="Times New Roman,serif" font-size="14.00">split2#77</text>
</g>
<!-- 81 -->
<g id="node12" class="node">
<title>81</title>
<polygon fill="aquamarine" stroke="black" points="149.25,-156.2 142.05,-149 149.25,-141.8 156.45,-149 149.25,-156.2"/>
<text text-anchor="middle" x="127.05" y="-159.4" font-family="Times New Roman,serif" font-size="14.00">&lt;81&gt;</text>
</g>
<!-- 79&#45;&gt;81 -->
<g id="edge18" class="edge">
<title>79&#45;&gt;81</title>
<path fill="none" stroke="black" d="M235.38,-212.11C222.83,-203.06 182.86,-174.24 162.08,-159.25"/>
<polygon fill="black" stroke="black" points="164.39,-156.6 154.23,-153.59 160.29,-162.28 164.39,-156.6"/>
<text text-anchor="middle" x="235.71" y="-177.4" font-family="Times New Roman,serif" font-size="14.00">merge2#87</text>
</g>
<!-- 80 -->
<g id="node11" class="node">
<title>80</title>
<polygon fill="aquamarine" stroke="black" points="179.25,-1160 172.05,-1152.8 179.25,-1145.6 186.45,-1152.8 179.25,-1160"/>
<text text-anchor="middle" x="157.05" y="-1163.2" font-family="Times New Roman,serif" font-size="14.00">&lt;80&gt;</text>
</g>
<!-- 36 -->
<g id="node20" class="node">
<title>36</title>
<polygon fill="yellow" stroke="black" points="216.62,-1073.6 97.88,-1073.6 97.88,-1032.6 216.62,-1032.6 216.62,-1073.6"/>
<text text-anchor="middle" x="157.25" y="-1056.3" font-family="Times New Roman,serif" font-size="14.00">number &lt;= 69 and</text>
<text text-anchor="middle" x="157.25" y="-1039.8" font-family="Times New Roman,serif" font-size="14.00">number &gt;= 60</text>
<text text-anchor="middle" x="86.62" y="-1076.8" font-family="Times New Roman,serif" font-size="14.00">[36]</text>
</g>
<!-- 80&#45;&gt;36 -->
<g id="edge15" class="edge">
<title>80&#45;&gt;36</title>
<path fill="none" stroke="black" d="M178,-1146.27C175.4,-1134.7 169.21,-1107.22 164.27,-1085.26"/>
<polygon fill="black" stroke="black" points="167.69,-1084.54 162.08,-1075.55 160.86,-1086.07 167.69,-1084.54"/>
<text text-anchor="middle" x="198.47" y="-1104.55" font-family="Times New Roman,serif" font-size="14.00">split1#84</text>
</g>
<!-- 42 -->
<g id="node22" class="node">
<title>42</title>
<polygon fill="yellow" stroke="black" points="337.38,-1073.6 235.12,-1073.6 235.12,-1032.6 337.38,-1032.6 337.38,-1073.6"/>
<text text-anchor="middle" x="286.25" y="-1056.3" font-family="Times New Roman,serif" font-size="14.00">number &gt; 69 or</text>
<text text-anchor="middle" x="286.25" y="-1039.8" font-family="Times New Roman,serif" font-size="14.00">number &lt; 60</text>
<text text-anchor="middle" x="223.88" y="-1076.8" font-family="Times New Roman,serif" font-size="14.00">[42]</text>
</g>
<!-- 80&#45;&gt;42 -->
<g id="edge16" class="edge">
<title>80&#45;&gt;42</title>
<path fill="none" stroke="black" d="M184.14,-1150.13C193.29,-1146.85 213.32,-1138.88 227.25,-1127.6 242.79,-1115.01 256.94,-1097.69 267.49,-1083.02"/>
<polygon fill="black" stroke="black" points="270.17,-1085.3 273.01,-1075.09 264.43,-1081.3 270.17,-1085.3"/>
<text text-anchor="middle" x="285.72" y="-1104.55" font-family="Times New Roman,serif" font-size="14.00">split2#85</text>
</g>
<!-- 83 -->
<g id="node14" class="node">
<title>83</title>
<polygon fill="aquamarine" stroke="black" points="86.25,-89.3 79.05,-82.1 86.25,-74.9 93.45,-82.1 86.25,-89.3"/>
<text text-anchor="middle" x="64.05" y="-92.5" font-family="Times New Roman,serif" font-size="14.00">&lt;83&gt;</text>
</g>
<!-- 81&#45;&gt;83 -->
<g id="edge24" class="edge">
<title>81&#45;&gt;83</title>
<path fill="none" stroke="black" d="M145.86,-144.51C136.81,-135.18 111.73,-109.35 97.15,-94.32"/>
<polygon fill="black" stroke="black" points="99.88,-92.12 90.41,-87.38 94.86,-97 99.88,-92.12"/>
<text text-anchor="middle" x="156" y="-110.5" font-family="Times New Roman,serif" font-size="14.00">merge2#95</text>
</g>
<!-- 82 -->
<g id="node13" class="node">
<title>82</title>
<polygon fill="aquamarine" stroke="black" points="124.25,-1315.4 117.05,-1308.2 124.25,-1301 131.45,-1308.2 124.25,-1315.4"/>
<text text-anchor="middle" x="102.05" y="-1318.6" font-family="Times New Roman,serif" font-size="14.00">&lt;82&gt;</text>
</g>
<!-- 27 -->
<g id="node17" class="node">
<title>27</title>
<polygon fill="yellow" stroke="black" points="118,-1248.5 22.5,-1248.5 22.5,-1212.5 118,-1212.5 118,-1248.5"/>
<text text-anchor="middle" x="70.25" y="-1225.45" font-family="Times New Roman,serif" font-size="14.00">number &lt;= 59</text>
<text text-anchor="middle" x="11.25" y="-1251.7" font-family="Times New Roman,serif" font-size="14.00">[27]</text>
</g>
<!-- 82&#45;&gt;27 -->
<g id="edge21" class="edge">
<title>82&#45;&gt;27</title>
<path fill="none" stroke="black" d="M120.49,-1304.4C115.04,-1300.2 104.84,-1291.81 98,-1283 92.28,-1275.64 87.1,-1266.93 82.8,-1258.8"/>
<polygon fill="black" stroke="black" points="85.97,-1257.32 78.37,-1249.94 79.71,-1260.45 85.97,-1257.32"/>
<text text-anchor="middle" x="123.12" y="-1269.7" font-family="Times New Roman,serif" font-size="14.00">split1#92</text>
</g>
<!-- 33 -->
<g id="node19" class="node">
<title>33</title>
<polygon fill="yellow" stroke="black" points="222.88,-1248.5 135.62,-1248.5 135.62,-1212.5 222.88,-1212.5 222.88,-1248.5"/>
<text text-anchor="middle" x="179.25" y="-1225.45" font-family="Times New Roman,serif" font-size="14.00">number &gt; 59</text>
<text text-anchor="middle" x="124.38" y="-1251.7" font-family="Times New Roman,serif" font-size="14.00">[33]</text>
</g>
<!-- 82&#45;&gt;33 -->
<g id="edge22" class="edge">
<title>82&#45;&gt;33</title>
<path fill="none" stroke="black" d="M127.94,-1303.99C132.91,-1299.57 141.85,-1291.22 148.25,-1283 154.11,-1275.47 159.74,-1266.76 164.55,-1258.66"/>
<polygon fill="black" stroke="black" points="167.47,-1260.6 169.42,-1250.18 161.4,-1257.11 167.47,-1260.6"/>
<text text-anchor="middle" x="184.7" y="-1269.7" font-family="Times New Roman,serif" font-size="14.00">split2#93</text>
</g>
<!-- 83&#45;&gt;73 -->
<g id="edge25" class="edge">
<title>83&#45;&gt;73</title>
<path fill="none" stroke="black" d="M86.25,-74.24C86.25,-64.87 86.25,-47.63 86.25,-33.7"/>
<polygon fill="black" stroke="black" points="89.75,-34.11 86.25,-24.11 82.75,-34.11 89.75,-34.11"/>
<text text-anchor="middle" x="132" y="-43.6" font-family="Times New Roman,serif" font-size="14.00">graphOr_end#96</text>
</g>
<!-- 84 -->
<g id="node15" class="node">
<title>84</title>
<ellipse fill="black" stroke="black" cx="124.25" cy="-1453.1" rx="7.2" ry="7.2"/>
<text text-anchor="middle" x="109.17" y="-1463.5" font-family="Times New Roman,serif" font-size="14.00">[0]</text>
</g>
<!-- 85 -->
<g id="node16" class="node">
<title>85</title>
<polygon fill="yellow" stroke="black" points="191.88,-1408.9 56.62,-1408.9 56.62,-1367.9 191.88,-1367.9 191.88,-1408.9"/>
<text text-anchor="middle" x="124.25" y="-1391.6" font-family="Times New Roman,serif" font-size="14.00">self.number &gt;= 0 and</text>
<text text-anchor="middle" x="124.25" y="-1375.1" font-family="Times New Roman,serif" font-size="14.00">self.number &lt;= 100</text>
<text text-anchor="middle" x="45.38" y="-1412.1" font-family="Times New Roman,serif" font-size="14.00">[85]</text>
</g>
<!-- 84&#45;&gt;85 -->
<g id="edge26" class="edge">
<title>84&#45;&gt;85</title>
<path fill="none" stroke="black" d="M124.25,-1445.86C124.25,-1439.83 124.25,-1430.21 124.25,-1420.61"/>
<polygon fill="black" stroke="black" points="127.75,-1420.67 124.25,-1410.67 120.75,-1420.67 127.75,-1420.67"/>
</g>
<!-- 85&#45;&gt;82 -->
<g id="edge27" class="edge">
<title>85&#45;&gt;82</title>
<path fill="none" stroke="black" d="M124.25,-1367.67C124.25,-1355.17 124.25,-1339.15 124.25,-1327.04"/>
<polygon fill="black" stroke="black" points="127.75,-1327.3 124.25,-1317.3 120.75,-1327.3 127.75,-1327.3"/>
<text text-anchor="middle" x="161.38" y="-1336.6" font-family="Times New Roman,serif" font-size="14.00">graphAnd#99</text>
</g>
<!-- 30 -->
<g id="node18" class="node">
<title>30</title>
<polygon fill="yellow" stroke="black" points="104.88,-1127.6 35.62,-1127.6 35.62,-1091.6 104.88,-1091.6 104.88,-1127.6"/>
<text text-anchor="middle" x="70.25" y="-1104.55" font-family="Times New Roman,serif" font-size="14.00">result = F</text>
<text text-anchor="middle" x="24.38" y="-1130.8" font-family="Times New Roman,serif" font-size="14.00">[30]</text>
</g>
<!-- 27&#45;&gt;30 -->
<g id="edge19" class="edge">
<title>27&#45;&gt;30</title>
<path fill="none" stroke="black" d="M70.25,-1212.21C70.25,-1193.1 70.25,-1162.02 70.25,-1139.26"/>
<polygon fill="black" stroke="black" points="73.75,-1139.42 70.25,-1129.42 66.75,-1139.42 73.75,-1139.42"/>
<text text-anchor="middle" x="107.38" y="-1181.2" font-family="Times New Roman,serif" font-size="14.00">graphAnd#89</text>
</g>
<!-- 30&#45;&gt;83 -->
<g id="edge23" class="edge">
<title>30&#45;&gt;83</title>
<path fill="none" stroke="black" d="M70.25,-1091.4C70.25,-1071.26 70.25,-1036.88 70.25,-1007.35 70.25,-1007.35 70.25,-1007.35 70.25,-148 70.25,-130.59 75.74,-111.3 80.29,-98.31"/>
<polygon fill="black" stroke="black" points="83.5,-99.73 83.75,-89.14 76.95,-97.26 83.5,-99.73"/>
<text text-anchor="middle" x="101" y="-564.85" font-family="Times New Roman,serif" font-size="14.00">merge1#94</text>
</g>
<!-- 33&#45;&gt;80 -->
<g id="edge20" class="edge">
<title>33&#45;&gt;80</title>
<path fill="none" stroke="black" d="M179.25,-1212.32C179.25,-1200.28 179.25,-1184.2 179.25,-1171.95"/>
<polygon fill="black" stroke="black" points="182.75,-1172.04 179.25,-1162.04 175.75,-1172.04 182.75,-1172.04"/>
<text text-anchor="middle" x="216.38" y="-1181.2" font-family="Times New Roman,serif" font-size="14.00">graphAnd#90</text>
</g>
<!-- 39 -->
<g id="node21" class="node">
<title>39</title>
<polygon fill="yellow" stroke="black" points="190,-947.7 118.5,-947.7 118.5,-911.7 190,-911.7 190,-947.7"/>
<text text-anchor="middle" x="154.25" y="-924.65" font-family="Times New Roman,serif" font-size="14.00">result = D</text>
<text text-anchor="middle" x="107.25" y="-950.9" font-family="Times New Roman,serif" font-size="14.00">[39]</text>
</g>
<!-- 36&#45;&gt;39 -->
<g id="edge13" class="edge">
<title>36&#45;&gt;39</title>
<path fill="none" stroke="black" d="M156.76,-1032.32C156.27,-1012.51 155.51,-981.79 154.96,-959.31"/>
<polygon fill="black" stroke="black" points="158.46,-959.53 154.72,-949.62 151.47,-959.7 158.46,-959.53"/>
<text text-anchor="middle" x="193.44" y="-1001.3" font-family="Times New Roman,serif" font-size="14.00">graphAnd#81</text>
</g>
<!-- 39&#45;&gt;81 -->
<g id="edge17" class="edge">
<title>39&#45;&gt;81</title>
<path fill="none" stroke="black" d="M152.88,-911.51C151.4,-891.38 149.25,-857.02 149.25,-827.45 149.25,-827.45 149.25,-827.45 149.25,-214.9 149.25,-199.18 149.25,-181.31 149.25,-168.31"/>
<polygon fill="black" stroke="black" points="152.75,-168.33 149.25,-158.33 145.75,-168.33 152.75,-168.33"/>
<text text-anchor="middle" x="180" y="-510.85" font-family="Times New Roman,serif" font-size="14.00">merge1#86</text>
</g>
<!-- 42&#45;&gt;78 -->
<g id="edge14" class="edge">
<title>42&#45;&gt;78</title>
<path fill="none" stroke="black" d="M286.25,-1032.37C286.25,-1019.87 286.25,-1003.85 286.25,-991.74"/>
<polygon fill="black" stroke="black" points="289.75,-992 286.25,-982 282.75,-992 289.75,-992"/>
<text text-anchor="middle" x="323.38" y="-1001.3" font-family="Times New Roman,serif" font-size="14.00">graphAnd#82</text>
</g>
<!-- 48 -->
<g id="node24" class="node">
<title>48</title>
<polygon fill="yellow" stroke="black" points="274.62,-767.8 203.88,-767.8 203.88,-731.8 274.62,-731.8 274.62,-767.8"/>
<text text-anchor="middle" x="239.25" y="-744.75" font-family="Times New Roman,serif" font-size="14.00">result = C</text>
<text text-anchor="middle" x="192.62" y="-771" font-family="Times New Roman,serif" font-size="14.00">[48]</text>
</g>
<!-- 45&#45;&gt;48 -->
<g id="edge7" class="edge">
<title>45&#45;&gt;48</title>
<path fill="none" stroke="black" d="M239.25,-852.42C239.25,-832.61 239.25,-801.89 239.25,-779.41"/>
<polygon fill="black" stroke="black" points="242.75,-779.72 239.25,-769.72 235.75,-779.72 242.75,-779.72"/>
<text text-anchor="middle" x="276.38" y="-821.4" font-family="Times New Roman,serif" font-size="14.00">graphAnd#73</text>
</g>
<!-- 48&#45;&gt;79 -->
<g id="edge11" class="edge">
<title>48&#45;&gt;79</title>
<path fill="none" stroke="black" d="M239.25,-731.6C239.25,-711.46 239.25,-677.08 239.25,-647.55 239.25,-647.55 239.25,-647.55 239.25,-281.8 239.25,-266.08 239.25,-248.21 239.25,-235.21"/>
<polygon fill="black" stroke="black" points="242.75,-235.23 239.25,-225.23 235.75,-235.23 242.75,-235.23"/>
<text text-anchor="middle" x="270" y="-466.6" font-family="Times New Roman,serif" font-size="14.00">merge1#78</text>
</g>
<!-- 51&#45;&gt;76 -->
<g id="edge8" class="edge">
<title>51&#45;&gt;76</title>
<path fill="none" stroke="black" d="M368.25,-852.47C368.25,-839.97 368.25,-823.95 368.25,-811.84"/>
<polygon fill="black" stroke="black" points="371.75,-812.1 368.25,-802.1 364.75,-812.1 371.75,-812.1"/>
<text text-anchor="middle" x="405.38" y="-821.4" font-family="Times New Roman,serif" font-size="14.00">graphAnd#74</text>
</g>
<!-- 57 -->
<g id="node27" class="node">
<title>57</title>
<polygon fill="yellow" stroke="black" points="358.62,-587.9 287.88,-587.9 287.88,-551.9 358.62,-551.9 358.62,-587.9"/>
<text text-anchor="middle" x="323.25" y="-564.85" font-family="Times New Roman,serif" font-size="14.00">result = B</text>
<text text-anchor="middle" x="276.62" y="-591.1" font-family="Times New Roman,serif" font-size="14.00">[57]</text>
</g>
<!-- 54&#45;&gt;57 -->
<g id="edge1" class="edge">
<title>54&#45;&gt;57</title>
<path fill="none" stroke="black" d="M325.76,-672.52C325.27,-652.71 324.51,-621.99 323.96,-599.51"/>
<polygon fill="black" stroke="black" points="327.46,-599.73 323.72,-589.82 320.47,-599.9 327.46,-599.73"/>
<text text-anchor="middle" x="362.44" y="-641.5" font-family="Times New Roman,serif" font-size="14.00">graphAnd#65</text>
</g>
<!-- 57&#45;&gt;77 -->
<g id="edge5" class="edge">
<title>57&#45;&gt;77</title>
<path fill="none" stroke="black" d="M321.8,-551.53C320.33,-532.26 318.25,-500.26 318.25,-472.65 318.25,-472.65 318.25,-472.65 318.25,-348.7 318.25,-332.98 318.25,-315.11 318.25,-302.11"/>
<polygon fill="black" stroke="black" points="321.75,-302.13 318.25,-292.13 314.75,-302.13 321.75,-302.13"/>
<text text-anchor="middle" x="349" y="-422.35" font-family="Times New Roman,serif" font-size="14.00">merge1#70</text>
</g>
<!-- 60&#45;&gt;74 -->
<g id="edge2" class="edge">
<title>60&#45;&gt;74</title>
<path fill="none" stroke="black" d="M455.25,-672.57C455.25,-660.07 455.25,-644.05 455.25,-631.94"/>
<polygon fill="black" stroke="black" points="458.75,-632.2 455.25,-622.2 451.75,-632.2 458.75,-632.2"/>
<text text-anchor="middle" x="492.38" y="-641.5" font-family="Times New Roman,serif" font-size="14.00">graphAnd#66</text>
</g>
<!-- 63&#45;&gt;66 -->
<g id="edge28" class="edge">
<title>63&#45;&gt;66</title>
<path fill="none" stroke="black" d="M534.87,-497.81C533.92,-486.16 532.65,-470.45 531.56,-456.92"/>
<polygon fill="black" stroke="black" points="535.07,-456.94 530.78,-447.26 528.09,-457.51 535.07,-456.94"/>
<text text-anchor="middle" x="570.5" y="-466.6" font-family="Times New Roman,serif" font-size="14.00">graphAnd#57</text>
</g>
</g>
</svg>
