<?xml version="1.0" encoding="UTF-8" standalone="no"?>
<!DOCTYPE svg PUBLIC "-//W3C//DTD SVG 1.1//EN"
 "http://www.w3.org/Graphics/SVG/1.1/DTD/svg11.dtd">
<!-- Generated by graphviz version 12.2.1 (20241206.2353)
 -->
<!-- Title: CLG Pages: 1 -->
<svg width="333pt" height="763pt"
 viewBox="0.00 0.00 333.25 763.10" xmlns="http://www.w3.org/2000/svg" xmlns:xlink="http://www.w3.org/1999/xlink">
<g id="graph0" class="graph" transform="scale(1 1) rotate(0) translate(4 759.1)">
<title>CLG</title>
<polygon fill="white" stroke="none" points="-4,4 -4,-759.1 329.25,-759.1 329.25,4 -4,4"/>
<!-- 32 -->
<g id="node1" class="node">
<title>32</title>
<ellipse fill="black" stroke="black" cx="191" cy="-731.4" rx="7.2" ry="7.2"/>
<text text-anchor="middle" x="175.93" y="-741.8" font-family="Times New Roman,serif" font-size="14.00">[0]</text>
</g>
<!-- 33 -->
<g id="node2" class="node">
<title>33</title>
<polygon fill="yellow" stroke="black" points="247,-687.2 135,-687.2 135,-651.2 247,-651.2 247,-687.2"/>
<text text-anchor="middle" x="191" y="-664.15" font-family="Times New Roman,serif" font-size="14.00">self.number &gt;= 0</text>
<text text-anchor="middle" x="123.75" y="-690.4" font-family="Times New Roman,serif" font-size="14.00">[33]</text>
</g>
<!-- 32&#45;&gt;33 -->
<g id="edge16" class="edge">
<title>32&#45;&gt;33</title>
<path fill="none" stroke="black" d="M191,-723.96C191,-717.9 191,-708.39 191,-699.04"/>
<polygon fill="black" stroke="black" points="194.5,-699.08 191,-689.08 187.5,-699.08 194.5,-699.08"/>
</g>
<!-- 36 -->
<g id="node3" class="node">
<title>36</title>
<polygon fill="yellow" stroke="black" points="253.75,-598.7 128.25,-598.7 128.25,-562.7 253.75,-562.7 253.75,-598.7"/>
<text text-anchor="middle" x="191" y="-575.65" font-family="Times New Roman,serif" font-size="14.00">self.number &lt;= 100</text>
<text text-anchor="middle" x="117" y="-601.9" font-family="Times New Roman,serif" font-size="14.00">[36]</text>
</g>
<!-- 33&#45;&gt;36 -->
<g id="edge1" class="edge">
<title>33&#45;&gt;36</title>
<path fill="none" stroke="black" d="M191,-651.11C191,-639.46 191,-623.75 191,-610.22"/>
<polygon fill="black" stroke="black" points="194.5,-610.56 191,-600.56 187.5,-610.56 194.5,-610.56"/>
<text text-anchor="middle" x="228.12" y="-619.9" font-family="Times New Roman,serif" font-size="14.00">graphAnd#35</text>
</g>
<!-- 38 -->
<g id="node4" class="node">
<title>38</title>
<polygon fill="aquamarine" stroke="black" points="191,-510.2 183.8,-503 191,-495.8 198.2,-503 191,-510.2"/>
<text text-anchor="middle" x="168.8" y="-513.4" font-family="Times New Roman,serif" font-size="14.00">&lt;38&gt;</text>
</g>
<!-- 36&#45;&gt;38 -->
<g id="edge7" class="edge">
<title>36&#45;&gt;38</title>
<path fill="none" stroke="black" d="M191,-562.52C191,-550.48 191,-534.4 191,-522.15"/>
<polygon fill="black" stroke="black" points="194.5,-522.24 191,-512.24 187.5,-522.24 194.5,-522.24"/>
<text text-anchor="middle" x="228.12" y="-531.4" font-family="Times New Roman,serif" font-size="14.00">graphAnd#42</text>
</g>
<!-- 18 -->
<g id="node10" class="node">
<title>18</title>
<polygon fill="aquamarine" stroke="black" points="148,-432.5 140.8,-425.3 148,-418.1 155.2,-425.3 148,-432.5"/>
<text text-anchor="middle" x="125.8" y="-435.7" font-family="Times New Roman,serif" font-size="14.00">&lt;18&gt;</text>
</g>
<!-- 38&#45;&gt;18 -->
<g id="edge3" class="edge">
<title>38&#45;&gt;18</title>
<path fill="none" stroke="black" d="M186.02,-500.24C177.95,-497.11 162.18,-489.75 154.75,-477.8 148.46,-467.68 146.86,-454.28 146.79,-443.68"/>
<polygon fill="black" stroke="black" points="150.29,-443.88 147.22,-433.74 143.29,-443.58 150.29,-443.88"/>
<text text-anchor="middle" x="179.88" y="-464.5" font-family="Times New Roman,serif" font-size="14.00">split2#38</text>
</g>
<!-- 21 -->
<g id="node12" class="node">
<title>21</title>
<polygon fill="yellow" stroke="black" points="271.62,-443.3 196.38,-443.3 196.38,-407.3 271.62,-407.3 271.62,-443.3"/>
<text text-anchor="middle" x="234" y="-420.25" font-family="Times New Roman,serif" font-size="14.00">score &gt;= 0</text>
<text text-anchor="middle" x="185.12" y="-446.5" font-family="Times New Roman,serif" font-size="14.00">[21]</text>
</g>
<!-- 38&#45;&gt;21 -->
<g id="edge2" class="edge">
<title>38&#45;&gt;21</title>
<path fill="none" stroke="black" d="M194.03,-498.38C197.81,-493.78 204.33,-485.5 209,-477.8 213.61,-470.21 218.05,-461.64 221.87,-453.7"/>
<polygon fill="black" stroke="black" points="224.97,-455.33 226.03,-444.79 218.63,-452.38 224.97,-455.33"/>
<text text-anchor="middle" x="242.53" y="-464.5" font-family="Times New Roman,serif" font-size="14.00">split1#37</text>
</g>
<!-- 39 -->
<g id="node5" class="node">
<title>39</title>
<polygon fill="aquamarine" stroke="black" points="180,-89.3 172.8,-82.1 180,-74.9 187.2,-82.1 180,-89.3"/>
<text text-anchor="middle" x="157.8" y="-92.5" font-family="Times New Roman,serif" font-size="14.00">&lt;39&gt;</text>
</g>
<!-- 11 -->
<g id="node7" class="node">
<title>11</title>
<ellipse fill="black" stroke="black" cx="180" cy="-11.2" rx="7.2" ry="7.2"/>
<ellipse fill="none" stroke="black" cx="180" cy="-11.2" rx="11.2" ry="11.2"/>
<text text-anchor="middle" x="158.68" y="-25.6" font-family="Times New Roman,serif" font-size="14.00">[&#45;1]</text>
</g>
<!-- 39&#45;&gt;11 -->
<g id="edge6" class="edge">
<title>39&#45;&gt;11</title>
<path fill="none" stroke="black" d="M180,-74.24C180,-64.87 180,-47.63 180,-33.7"/>
<polygon fill="black" stroke="black" points="183.5,-34.11 180,-24.11 176.5,-34.11 183.5,-34.11"/>
<text text-anchor="middle" x="225.75" y="-43.6" font-family="Times New Roman,serif" font-size="14.00">graphOr_end#41</text>
</g>
<!-- 10 -->
<g id="node6" class="node">
<title>10</title>
<polygon fill="yellow" stroke="black" points="173.75,-177.8 48.25,-177.8 48.25,-141.8 173.75,-141.8 173.75,-177.8"/>
<text text-anchor="middle" x="111" y="-154.75" font-family="Times New Roman,serif" font-size="14.00">Result = &#39;Exception&#39;</text>
<text text-anchor="middle" x="37" y="-181" font-family="Times New Roman,serif" font-size="14.00">[10]</text>
</g>
<!-- 10&#45;&gt;39 -->
<g id="edge5" class="edge">
<title>10&#45;&gt;39</title>
<path fill="none" stroke="black" d="M124.2,-141.59C132.32,-131.33 143.11,-118.22 153.5,-107.3 157.97,-102.6 163.18,-97.72 167.8,-93.59"/>
<polygon fill="black" stroke="black" points="170.04,-96.28 175.28,-87.08 165.44,-91 170.04,-96.28"/>
<text text-anchor="middle" x="184.25" y="-110.5" font-family="Times New Roman,serif" font-size="14.00">merge2#40</text>
</g>
<!-- 13 -->
<g id="node8" class="node">
<title>13</title>
<polygon fill="yellow" stroke="black" points="89.5,-354.8 22.5,-354.8 22.5,-318.8 89.5,-318.8 89.5,-354.8"/>
<text text-anchor="middle" x="56" y="-331.75" font-family="Times New Roman,serif" font-size="14.00">score &lt; 0</text>
<text text-anchor="middle" x="11.25" y="-358" font-family="Times New Roman,serif" font-size="14.00">[13]</text>
</g>
<!-- 19 -->
<g id="node11" class="node">
<title>19</title>
<polygon fill="aquamarine" stroke="black" points="111,-255.5 103.8,-248.3 111,-241.1 118.2,-248.3 111,-255.5"/>
<text text-anchor="middle" x="88.8" y="-258.7" font-family="Times New Roman,serif" font-size="14.00">&lt;19&gt;</text>
</g>
<!-- 13&#45;&gt;19 -->
<g id="edge10" class="edge">
<title>13&#45;&gt;19</title>
<path fill="none" stroke="black" d="M53.96,-318.47C53.54,-307.92 54.55,-294.55 60.5,-284.3 68.37,-270.74 83.85,-261.22 95.6,-255.56"/>
<polygon fill="black" stroke="black" points="96.85,-258.84 104.64,-251.66 94.07,-252.41 96.85,-258.84"/>
<text text-anchor="middle" x="91.25" y="-287.5" font-family="Times New Roman,serif" font-size="14.00">merge1#16</text>
</g>
<!-- 16 -->
<g id="node9" class="node">
<title>16</title>
<polygon fill="yellow" stroke="black" points="188.25,-354.8 107.75,-354.8 107.75,-318.8 188.25,-318.8 188.25,-354.8"/>
<text text-anchor="middle" x="148" y="-331.75" font-family="Times New Roman,serif" font-size="14.00">score &gt; 100</text>
<text text-anchor="middle" x="96.5" y="-358" font-family="Times New Roman,serif" font-size="14.00">[16]</text>
</g>
<!-- 16&#45;&gt;19 -->
<g id="edge11" class="edge">
<title>16&#45;&gt;19</title>
<path fill="none" stroke="black" d="M140.69,-318.71C133.91,-302.86 123.92,-279.51 117.44,-264.35"/>
<polygon fill="black" stroke="black" points="120.71,-263.1 113.56,-255.28 114.27,-265.85 120.71,-263.1"/>
<text text-anchor="middle" x="163.56" y="-287.5" font-family="Times New Roman,serif" font-size="14.00">merge2#17</text>
</g>
<!-- 18&#45;&gt;13 -->
<g id="edge8" class="edge">
<title>18&#45;&gt;13</title>
<path fill="none" stroke="black" d="M143.4,-422.07C133.52,-417.13 109.9,-404.52 93.75,-389.3 86.09,-382.09 78.93,-373.15 72.94,-364.75"/>
<polygon fill="black" stroke="black" points="75.87,-362.83 67.35,-356.53 70.08,-366.77 75.87,-362.83"/>
<text text-anchor="middle" x="118.88" y="-376" font-family="Times New Roman,serif" font-size="14.00">split1#14</text>
</g>
<!-- 18&#45;&gt;16 -->
<g id="edge9" class="edge">
<title>18&#45;&gt;16</title>
<path fill="none" stroke="black" d="M148,-417.51C148,-406.65 148,-384.75 148,-366.65"/>
<polygon fill="black" stroke="black" points="151.5,-366.69 148,-356.69 144.5,-366.69 151.5,-366.69"/>
<text text-anchor="middle" x="173.12" y="-376" font-family="Times New Roman,serif" font-size="14.00">split2#15</text>
</g>
<!-- 19&#45;&gt;10 -->
<g id="edge14" class="edge">
<title>19&#45;&gt;10</title>
<path fill="none" stroke="black" d="M111,-240.51C111,-229.65 111,-207.75 111,-189.65"/>
<polygon fill="black" stroke="black" points="114.5,-189.69 111,-179.69 107.5,-189.69 114.5,-189.69"/>
<text text-anchor="middle" x="148.12" y="-199" font-family="Times New Roman,serif" font-size="14.00">graphAnd#29</text>
</g>
<!-- 24 -->
<g id="node13" class="node">
<title>24</title>
<polygon fill="yellow" stroke="black" points="295.38,-354.8 206.62,-354.8 206.62,-318.8 295.38,-318.8 295.38,-354.8"/>
<text text-anchor="middle" x="251" y="-331.75" font-family="Times New Roman,serif" font-size="14.00">score &lt;= 100</text>
<text text-anchor="middle" x="195.38" y="-358" font-family="Times New Roman,serif" font-size="14.00">[24]</text>
</g>
<!-- 21&#45;&gt;24 -->
<g id="edge12" class="edge">
<title>21&#45;&gt;24</title>
<path fill="none" stroke="black" d="M237.36,-407.21C239.65,-395.56 242.74,-379.85 245.4,-366.32"/>
<polygon fill="black" stroke="black" points="248.8,-367.12 247.3,-356.64 241.94,-365.77 248.8,-367.12"/>
<text text-anchor="middle" x="281.15" y="-376" font-family="Times New Roman,serif" font-size="14.00">graphAnd#23</text>
</g>
<!-- 27 -->
<g id="node14" class="node">
<title>27</title>
<polygon fill="yellow" stroke="black" points="302.12,-266.3 199.88,-266.3 199.88,-230.3 302.12,-230.3 302.12,-266.3"/>
<text text-anchor="middle" x="251" y="-243.25" font-family="Times New Roman,serif" font-size="14.00">number = score</text>
<text text-anchor="middle" x="188.62" y="-269.5" font-family="Times New Roman,serif" font-size="14.00">[27]</text>
</g>
<!-- 24&#45;&gt;27 -->
<g id="edge15" class="edge">
<title>24&#45;&gt;27</title>
<path fill="none" stroke="black" d="M251,-318.71C251,-307.06 251,-291.35 251,-277.82"/>
<polygon fill="black" stroke="black" points="254.5,-278.16 251,-268.16 247.5,-278.16 254.5,-278.16"/>
<text text-anchor="middle" x="288.12" y="-287.5" font-family="Times New Roman,serif" font-size="14.00">graphAnd#30</text>
</g>
<!-- 30 -->
<g id="node15" class="node">
<title>30</title>
<polygon fill="yellow" stroke="black" points="310.38,-177.8 191.62,-177.8 191.62,-141.8 310.38,-141.8 310.38,-177.8"/>
<text text-anchor="middle" x="251" y="-154.75" font-family="Times New Roman,serif" font-size="14.00">score@pre = score</text>
<text text-anchor="middle" x="180.38" y="-181" font-family="Times New Roman,serif" font-size="14.00">[30]</text>
</g>
<!-- 27&#45;&gt;30 -->
<g id="edge13" class="edge">
<title>27&#45;&gt;30</title>
<path fill="none" stroke="black" d="M251,-230.21C251,-218.56 251,-202.85 251,-189.32"/>
<polygon fill="black" stroke="black" points="254.5,-189.66 251,-179.66 247.5,-189.66 254.5,-189.66"/>
<text text-anchor="middle" x="288.12" y="-199" font-family="Times New Roman,serif" font-size="14.00">graphAnd#28</text>
</g>
<!-- 30&#45;&gt;39 -->
<g id="edge4" class="edge">
<title>30&#45;&gt;39</title>
<path fill="none" stroke="black" d="M241.03,-141.41C234.46,-130.83 225.21,-117.46 215,-107.3 208.83,-101.16 200.92,-95.54 194.18,-91.27"/>
<polygon fill="black" stroke="black" points="196.15,-88.37 185.76,-86.26 192.57,-94.38 196.15,-88.37"/>
<text text-anchor="middle" x="259.21" y="-110.5" font-family="Times New Roman,serif" font-size="14.00">merge1#39</text>
</g>
</g>
</svg>
