<?xml version="1.0" encoding="UTF-8" standalone="no"?>
<!DOCTYPE svg PUBLIC "-//W3C//DTD SVG 1.1//EN"
 "http://www.w3.org/Graphics/SVG/1.1/DTD/svg11.dtd">
<!-- Generated by graphviz version 12.2.1 (20241206.2353)
 -->
<!-- Title: CLG Pages: 1 -->
<svg width="167pt" height="702pt"
 viewBox="0.00 0.00 166.75 702.30" xmlns="http://www.w3.org/2000/svg" xmlns:xlink="http://www.w3.org/1999/xlink">
<g id="graph0" class="graph" transform="scale(1 1) rotate(0) translate(4 698.3)">
<title>CLG</title>
<polygon fill="white" stroke="none" points="-4,4 -4,-698.3 162.75,-698.3 162.75,4 -4,4"/>
<!-- 737 -->
<g id="node1" class="node">
<title>737</title>
<polygon fill="yellow" stroke="black" points="118.75,-449.4 36.75,-449.4 36.75,-413.4 118.75,-413.4 118.75,-449.4"/>
<text text-anchor="middle" x="77.75" y="-426.35" font-family="Times New Roman,serif" font-size="14.00">month &gt;= 1</text>
<text text-anchor="middle" x="22.12" y="-452.6" font-family="Times New Roman,serif" font-size="14.00">[737]</text>
</g>
<!-- 740 -->
<g id="node2" class="node">
<title>740</title>
<polygon fill="yellow" stroke="black" points="122.12,-360.9 33.38,-360.9 33.38,-324.9 122.12,-324.9 122.12,-360.9"/>
<text text-anchor="middle" x="77.75" y="-337.85" font-family="Times New Roman,serif" font-size="14.00">month &lt;= 12</text>
<text text-anchor="middle" x="18.75" y="-364.1" font-family="Times New Roman,serif" font-size="14.00">[740]</text>
</g>
<!-- 737&#45;&gt;740 -->
<g id="edge4" class="edge">
<title>737&#45;&gt;740</title>
<path fill="none" stroke="black" d="M77.75,-413.31C77.75,-401.66 77.75,-385.95 77.75,-372.42"/>
<polygon fill="black" stroke="black" points="81.25,-372.76 77.75,-362.76 74.25,-372.76 81.25,-372.76"/>
<text text-anchor="middle" x="118.25" y="-382.1" font-family="Times New Roman,serif" font-size="14.00">graphAnd#905</text>
</g>
<!-- 743 -->
<g id="node5" class="node">
<title>743</title>
<polygon fill="yellow" stroke="black" points="114.25,-272.4 41.25,-272.4 41.25,-236.4 114.25,-236.4 114.25,-272.4"/>
<text text-anchor="middle" x="77.75" y="-249.35" font-family="Times New Roman,serif" font-size="14.00">day &lt;= 31</text>
<text text-anchor="middle" x="26.62" y="-275.6" font-family="Times New Roman,serif" font-size="14.00">[743]</text>
</g>
<!-- 740&#45;&gt;743 -->
<g id="edge5" class="edge">
<title>740&#45;&gt;743</title>
<path fill="none" stroke="black" d="M77.75,-324.81C77.75,-313.16 77.75,-297.45 77.75,-283.92"/>
<polygon fill="black" stroke="black" points="81.25,-284.26 77.75,-274.26 74.25,-284.26 81.25,-284.26"/>
<text text-anchor="middle" x="118.25" y="-293.6" font-family="Times New Roman,serif" font-size="14.00">graphAnd#908</text>
</g>
<!-- 725 -->
<g id="node3" class="node">
<title>725</title>
<polygon fill="yellow" stroke="black" points="126.25,-95.4 29.25,-95.4 29.25,-59.4 126.25,-59.4 126.25,-95.4"/>
<text text-anchor="middle" x="77.75" y="-72.35" font-family="Times New Roman,serif" font-size="14.00">result = month</text>
<text text-anchor="middle" x="14.62" y="-98.6" font-family="Times New Roman,serif" font-size="14.00">[725]</text>
</g>
<!-- 726 -->
<g id="node4" class="node">
<title>726</title>
<ellipse fill="black" stroke="black" cx="77.75" cy="-11.2" rx="7.2" ry="7.2"/>
<ellipse fill="none" stroke="black" cx="77.75" cy="-11.2" rx="11.2" ry="11.2"/>
<text text-anchor="middle" x="56.42" y="-25.6" font-family="Times New Roman,serif" font-size="14.00">[&#45;1]</text>
</g>
<!-- 725&#45;&gt;726 -->
<g id="edge6" class="edge">
<title>725&#45;&gt;726</title>
<path fill="none" stroke="black" d="M77.75,-59.2C77.75,-51.5 77.75,-42.34 77.75,-34.15"/>
<polygon fill="black" stroke="black" points="81.25,-34.32 77.75,-24.32 74.25,-34.32 81.25,-34.32"/>
</g>
<!-- 746 -->
<g id="node7" class="node">
<title>746</title>
<polygon fill="yellow" stroke="black" points="110.88,-183.9 44.62,-183.9 44.62,-147.9 110.88,-147.9 110.88,-183.9"/>
<text text-anchor="middle" x="77.75" y="-160.85" font-family="Times New Roman,serif" font-size="14.00">day &gt;= 1</text>
<text text-anchor="middle" x="30" y="-187.1" font-family="Times New Roman,serif" font-size="14.00">[746]</text>
</g>
<!-- 743&#45;&gt;746 -->
<g id="edge8" class="edge">
<title>743&#45;&gt;746</title>
<path fill="none" stroke="black" d="M77.75,-236.31C77.75,-224.66 77.75,-208.95 77.75,-195.42"/>
<polygon fill="black" stroke="black" points="81.25,-195.76 77.75,-185.76 74.25,-195.76 81.25,-195.76"/>
<text text-anchor="middle" x="118.25" y="-205.1" font-family="Times New Roman,serif" font-size="14.00">graphAnd#911</text>
</g>
<!-- 730 -->
<g id="node6" class="node">
<title>730</title>
<ellipse fill="black" stroke="black" cx="77.75" cy="-670.6" rx="7.2" ry="7.2"/>
<text text-anchor="middle" x="62.67" y="-681" font-family="Times New Roman,serif" font-size="14.00">[0]</text>
</g>
<!-- 731 -->
<g id="node8" class="node">
<title>731</title>
<polygon fill="yellow" stroke="black" points="112.75,-626.4 42.75,-626.4 42.75,-590.4 112.75,-590.4 112.75,-626.4"/>
<text text-anchor="middle" x="77.75" y="-603.35" font-family="Times New Roman,serif" font-size="14.00">year &gt;= 1</text>
<text text-anchor="middle" x="28.12" y="-629.6" font-family="Times New Roman,serif" font-size="14.00">[731]</text>
</g>
<!-- 730&#45;&gt;731 -->
<g id="edge7" class="edge">
<title>730&#45;&gt;731</title>
<path fill="none" stroke="black" d="M77.75,-663.16C77.75,-657.1 77.75,-647.59 77.75,-638.24"/>
<polygon fill="black" stroke="black" points="81.25,-638.28 77.75,-628.28 74.25,-638.28 81.25,-638.28"/>
</g>
<!-- 746&#45;&gt;725 -->
<g id="edge1" class="edge">
<title>746&#45;&gt;725</title>
<path fill="none" stroke="black" d="M77.75,-147.81C77.75,-136.16 77.75,-120.45 77.75,-106.92"/>
<polygon fill="black" stroke="black" points="81.25,-107.26 77.75,-97.26 74.25,-107.26 81.25,-107.26"/>
<text text-anchor="middle" x="118.25" y="-116.6" font-family="Times New Roman,serif" font-size="14.00">graphAnd#912</text>
</g>
<!-- 734 -->
<g id="node9" class="node">
<title>734</title>
<polygon fill="yellow" stroke="black" points="122.88,-537.9 32.62,-537.9 32.62,-501.9 122.88,-501.9 122.88,-537.9"/>
<text text-anchor="middle" x="77.75" y="-514.85" font-family="Times New Roman,serif" font-size="14.00">year &lt;= 3999</text>
<text text-anchor="middle" x="18" y="-541.1" font-family="Times New Roman,serif" font-size="14.00">[734]</text>
</g>
<!-- 731&#45;&gt;734 -->
<g id="edge2" class="edge">
<title>731&#45;&gt;734</title>
<path fill="none" stroke="black" d="M77.75,-590.31C77.75,-578.66 77.75,-562.95 77.75,-549.42"/>
<polygon fill="black" stroke="black" points="81.25,-549.76 77.75,-539.76 74.25,-549.76 81.25,-549.76"/>
<text text-anchor="middle" x="118.25" y="-559.1" font-family="Times New Roman,serif" font-size="14.00">graphAnd#899</text>
</g>
<!-- 734&#45;&gt;737 -->
<g id="edge3" class="edge">
<title>734&#45;&gt;737</title>
<path fill="none" stroke="black" d="M77.75,-501.81C77.75,-490.16 77.75,-474.45 77.75,-460.92"/>
<polygon fill="black" stroke="black" points="81.25,-461.26 77.75,-451.26 74.25,-461.26 81.25,-461.26"/>
<text text-anchor="middle" x="118.25" y="-470.6" font-family="Times New Roman,serif" font-size="14.00">graphAnd#902</text>
</g>
</g>
</svg>
