<?xml version="1.0" encoding="UTF-8" standalone="no"?>
<!DOCTYPE svg PUBLIC "-//W3C//DTD SVG 1.1//EN"
 "http://www.w3.org/Graphics/SVG/1.1/DTD/svg11.dtd">
<!-- Generated by graphviz version 12.2.1 (20241206.2353)
 -->
<!-- Title: CLG Pages: 1 -->
<svg width="137pt" height="240pt"
 viewBox="0.00 0.00 137.25 240.30" xmlns="http://www.w3.org/2000/svg" xmlns:xlink="http://www.w3.org/1999/xlink">
<g id="graph0" class="graph" transform="scale(1 1) rotate(0) translate(4 236.3)">
<title>CLG</title>
<polygon fill="white" stroke="none" points="-4,4 -4,-236.3 133.25,-236.3 133.25,4 -4,4"/>
<!-- 3 -->
<g id="node1" class="node">
<title>3</title>
<ellipse fill="black" stroke="black" cx="72.5" cy="-208.6" rx="7.2" ry="7.2"/>
<text text-anchor="middle" x="57.42" y="-219" font-family="Times New Roman,serif" font-size="14.00">[0]</text>
</g>
<!-- 4 -->
<g id="node2" class="node">
<title>4</title>
<polygon fill="yellow" stroke="black" points="129.25,-165.4 15.75,-165.4 15.75,-58.4 129.25,-58.4 129.25,-165.4"/>
<text text-anchor="middle" x="72.5" y="-148.1" font-family="Times New Roman,serif" font-size="14.00">year &gt;= 1 and</text>
<text text-anchor="middle" x="72.5" y="-131.6" font-family="Times New Roman,serif" font-size="14.00">year &lt;= 3999 and</text>
<text text-anchor="middle" x="72.5" y="-115.1" font-family="Times New Roman,serif" font-size="14.00">month &gt;= 1 and</text>
<text text-anchor="middle" x="72.5" y="-98.6" font-family="Times New Roman,serif" font-size="14.00">month &lt;= 12 and</text>
<text text-anchor="middle" x="72.5" y="-82.1" font-family="Times New Roman,serif" font-size="14.00">day &lt;= 31 and</text>
<text text-anchor="middle" x="72.5" y="-65.6" font-family="Times New Roman,serif" font-size="14.00">day &gt;= 1</text>
<text text-anchor="middle" x="7.88" y="-168.6" font-family="Times New Roman,serif" font-size="14.00">[4]</text>
</g>
<!-- 3&#45;&gt;4 -->
<g id="edge1" class="edge">
<title>3&#45;&gt;4</title>
<path fill="none" stroke="black" d="M72.5,-201.09C72.5,-195.5 72.5,-186.82 72.5,-177.04"/>
<polygon fill="black" stroke="black" points="76,-177.15 72.5,-167.15 69,-177.15 76,-177.15"/>
</g>
<!-- 5 -->
<g id="node3" class="node">
<title>5</title>
<ellipse fill="black" stroke="black" cx="72.5" cy="-11.2" rx="7.2" ry="7.2"/>
<ellipse fill="none" stroke="black" cx="72.5" cy="-11.2" rx="11.2" ry="11.2"/>
<text text-anchor="middle" x="51.17" y="-25.6" font-family="Times New Roman,serif" font-size="14.00">[&#45;1]</text>
</g>
<!-- 4&#45;&gt;5 -->
<g id="edge2" class="edge">
<title>4&#45;&gt;5</title>
<path fill="none" stroke="black" d="M72.5,-58.08C72.5,-49.6 72.5,-41.26 72.5,-34.06"/>
<polygon fill="black" stroke="black" points="76,-34.08 72.5,-24.08 69,-34.08 76,-34.08"/>
</g>
</g>
</svg>
