<?xml version="1.0" encoding="UTF-8" standalone="no"?>
<!DOCTYPE svg PUBLIC "-//W3C//DTD SVG 1.1//EN"
 "http://www.w3.org/Graphics/SVG/1.1/DTD/svg11.dtd">
<!-- Generated by graphviz version 12.2.1 (20241206.2353)
 -->
<!-- Title: CLG Pages: 1 -->
<svg width="163pt" height="702pt"
 viewBox="0.00 0.00 163.38 702.30" xmlns="http://www.w3.org/2000/svg" xmlns:xlink="http://www.w3.org/1999/xlink">
<g id="graph0" class="graph" transform="scale(1 1) rotate(0) translate(4 698.3)">
<title>CLG</title>
<polygon fill="white" stroke="none" points="-4,4 -4,-698.3 159.38,-698.3 159.38,4 -4,4"/>
<!-- 752 -->
<g id="node1" class="node">
<title>752</title>
<polygon fill="yellow" stroke="black" points="115,-95.4 33.75,-95.4 33.75,-59.4 115,-59.4 115,-95.4"/>
<text text-anchor="middle" x="74.38" y="-72.35" font-family="Times New Roman,serif" font-size="14.00">result = day</text>
<text text-anchor="middle" x="19.12" y="-98.6" font-family="Times New Roman,serif" font-size="14.00">[752]</text>
</g>
<!-- 753 -->
<g id="node2" class="node">
<title>753</title>
<ellipse fill="black" stroke="black" cx="74.38" cy="-11.2" rx="7.2" ry="7.2"/>
<ellipse fill="none" stroke="black" cx="74.38" cy="-11.2" rx="11.2" ry="11.2"/>
<text text-anchor="middle" x="53.05" y="-25.6" font-family="Times New Roman,serif" font-size="14.00">[&#45;1]</text>
</g>
<!-- 752&#45;&gt;753 -->
<g id="edge3" class="edge">
<title>752&#45;&gt;753</title>
<path fill="none" stroke="black" d="M74.38,-59.2C74.38,-51.5 74.38,-42.34 74.38,-34.15"/>
<polygon fill="black" stroke="black" points="77.88,-34.32 74.38,-24.32 70.88,-34.32 77.88,-34.32"/>
</g>
<!-- 770 -->
<g id="node3" class="node">
<title>770</title>
<polygon fill="yellow" stroke="black" points="110.88,-272.4 37.88,-272.4 37.88,-236.4 110.88,-236.4 110.88,-272.4"/>
<text text-anchor="middle" x="74.38" y="-249.35" font-family="Times New Roman,serif" font-size="14.00">day &lt;= 31</text>
<text text-anchor="middle" x="23.25" y="-275.6" font-family="Times New Roman,serif" font-size="14.00">[770]</text>
</g>
<!-- 773 -->
<g id="node5" class="node">
<title>773</title>
<polygon fill="yellow" stroke="black" points="107.5,-183.9 41.25,-183.9 41.25,-147.9 107.5,-147.9 107.5,-183.9"/>
<text text-anchor="middle" x="74.38" y="-160.85" font-family="Times New Roman,serif" font-size="14.00">day &gt;= 1</text>
<text text-anchor="middle" x="26.62" y="-187.1" font-family="Times New Roman,serif" font-size="14.00">[773]</text>
</g>
<!-- 770&#45;&gt;773 -->
<g id="edge5" class="edge">
<title>770&#45;&gt;773</title>
<path fill="none" stroke="black" d="M74.38,-236.31C74.38,-224.66 74.38,-208.95 74.38,-195.42"/>
<polygon fill="black" stroke="black" points="77.88,-195.76 74.38,-185.76 70.88,-195.76 77.88,-195.76"/>
<text text-anchor="middle" x="114.88" y="-205.1" font-family="Times New Roman,serif" font-size="14.00">graphAnd#935</text>
</g>
<!-- 757 -->
<g id="node4" class="node">
<title>757</title>
<ellipse fill="black" stroke="black" cx="74.38" cy="-670.6" rx="7.2" ry="7.2"/>
<text text-anchor="middle" x="59.3" y="-681" font-family="Times New Roman,serif" font-size="14.00">[0]</text>
</g>
<!-- 758 -->
<g id="node6" class="node">
<title>758</title>
<polygon fill="yellow" stroke="black" points="109.38,-626.4 39.38,-626.4 39.38,-590.4 109.38,-590.4 109.38,-626.4"/>
<text text-anchor="middle" x="74.38" y="-603.35" font-family="Times New Roman,serif" font-size="14.00">year &gt;= 1</text>
<text text-anchor="middle" x="24.75" y="-629.6" font-family="Times New Roman,serif" font-size="14.00">[758]</text>
</g>
<!-- 757&#45;&gt;758 -->
<g id="edge4" class="edge">
<title>757&#45;&gt;758</title>
<path fill="none" stroke="black" d="M74.38,-663.16C74.38,-657.1 74.38,-647.59 74.38,-638.24"/>
<polygon fill="black" stroke="black" points="77.88,-638.28 74.38,-628.28 70.88,-638.28 77.88,-638.28"/>
</g>
<!-- 773&#45;&gt;752 -->
<g id="edge6" class="edge">
<title>773&#45;&gt;752</title>
<path fill="none" stroke="black" d="M74.38,-147.81C74.38,-136.16 74.38,-120.45 74.38,-106.92"/>
<polygon fill="black" stroke="black" points="77.88,-107.26 74.38,-97.26 70.88,-107.26 77.88,-107.26"/>
<text text-anchor="middle" x="114.88" y="-116.6" font-family="Times New Roman,serif" font-size="14.00">graphAnd#936</text>
</g>
<!-- 761 -->
<g id="node7" class="node">
<title>761</title>
<polygon fill="yellow" stroke="black" points="119.5,-537.9 29.25,-537.9 29.25,-501.9 119.5,-501.9 119.5,-537.9"/>
<text text-anchor="middle" x="74.38" y="-514.85" font-family="Times New Roman,serif" font-size="14.00">year &lt;= 3999</text>
<text text-anchor="middle" x="14.62" y="-541.1" font-family="Times New Roman,serif" font-size="14.00">[761]</text>
</g>
<!-- 758&#45;&gt;761 -->
<g id="edge7" class="edge">
<title>758&#45;&gt;761</title>
<path fill="none" stroke="black" d="M74.38,-590.31C74.38,-578.66 74.38,-562.95 74.38,-549.42"/>
<polygon fill="black" stroke="black" points="77.88,-549.76 74.38,-539.76 70.88,-549.76 77.88,-549.76"/>
<text text-anchor="middle" x="114.88" y="-559.1" font-family="Times New Roman,serif" font-size="14.00">graphAnd#923</text>
</g>
<!-- 764 -->
<g id="node8" class="node">
<title>764</title>
<polygon fill="yellow" stroke="black" points="115.38,-449.4 33.38,-449.4 33.38,-413.4 115.38,-413.4 115.38,-449.4"/>
<text text-anchor="middle" x="74.38" y="-426.35" font-family="Times New Roman,serif" font-size="14.00">month &gt;= 1</text>
<text text-anchor="middle" x="18.75" y="-452.6" font-family="Times New Roman,serif" font-size="14.00">[764]</text>
</g>
<!-- 761&#45;&gt;764 -->
<g id="edge8" class="edge">
<title>761&#45;&gt;764</title>
<path fill="none" stroke="black" d="M74.38,-501.81C74.38,-490.16 74.38,-474.45 74.38,-460.92"/>
<polygon fill="black" stroke="black" points="77.88,-461.26 74.38,-451.26 70.88,-461.26 77.88,-461.26"/>
<text text-anchor="middle" x="114.88" y="-470.6" font-family="Times New Roman,serif" font-size="14.00">graphAnd#926</text>
</g>
<!-- 767 -->
<g id="node9" class="node">
<title>767</title>
<polygon fill="yellow" stroke="black" points="118.75,-360.9 30,-360.9 30,-324.9 118.75,-324.9 118.75,-360.9"/>
<text text-anchor="middle" x="74.38" y="-337.85" font-family="Times New Roman,serif" font-size="14.00">month &lt;= 12</text>
<text text-anchor="middle" x="15.38" y="-364.1" font-family="Times New Roman,serif" font-size="14.00">[767]</text>
</g>
<!-- 764&#45;&gt;767 -->
<g id="edge1" class="edge">
<title>764&#45;&gt;767</title>
<path fill="none" stroke="black" d="M74.38,-413.31C74.38,-401.66 74.38,-385.95 74.38,-372.42"/>
<polygon fill="black" stroke="black" points="77.88,-372.76 74.38,-362.76 70.88,-372.76 77.88,-372.76"/>
<text text-anchor="middle" x="114.88" y="-382.1" font-family="Times New Roman,serif" font-size="14.00">graphAnd#929</text>
</g>
<!-- 767&#45;&gt;770 -->
<g id="edge2" class="edge">
<title>767&#45;&gt;770</title>
<path fill="none" stroke="black" d="M74.38,-324.81C74.38,-313.16 74.38,-297.45 74.38,-283.92"/>
<polygon fill="black" stroke="black" points="77.88,-284.26 74.38,-274.26 70.88,-284.26 77.88,-284.26"/>
<text text-anchor="middle" x="114.88" y="-293.6" font-family="Times New Roman,serif" font-size="14.00">graphAnd#932</text>
</g>
</g>
</svg>
