<?xml version="1.0" encoding="UTF-8" standalone="no"?>
<!DOCTYPE svg PUBLIC "-//W3C//DTD SVG 1.1//EN"
 "http://www.w3.org/Graphics/SVG/1.1/DTD/svg11.dtd">
<!-- Generated by graphviz version 12.2.1 (20241206.2353)
 -->
<!-- Title: CLG Pages: 1 -->
<svg width="303pt" height="513pt"
 viewBox="0.00 0.00 302.70 512.60" xmlns="http://www.w3.org/2000/svg" xmlns:xlink="http://www.w3.org/1999/xlink">
<g id="graph0" class="graph" transform="scale(1 1) rotate(0) translate(4 508.6)">
<title>CLG</title>
<polygon fill="white" stroke="none" points="-4,4 -4,-508.6 298.7,-508.6 298.7,4 -4,4"/>
<!-- 16 -->
<g id="node1" class="node">
<title>16</title>
<polygon fill="yellow" stroke="black" points="285.25,-182.8 159.75,-182.8 159.75,-141.8 285.25,-141.8 285.25,-182.8"/>
<text text-anchor="middle" x="222.5" y="-165.5" font-family="Times New Roman,serif" font-size="14.00">number = score and</text>
<text text-anchor="middle" x="222.5" y="-149" font-family="Times New Roman,serif" font-size="14.00">score@pre = score</text>
<text text-anchor="middle" x="148.5" y="-186" font-family="Times New Roman,serif" font-size="14.00">[16]</text>
</g>
<!-- 22 -->
<g id="node5" class="node">
<title>22</title>
<polygon fill="aquamarine" stroke="black" points="149.5,-89.3 142.3,-82.1 149.5,-74.9 156.7,-82.1 149.5,-89.3"/>
<text text-anchor="middle" x="127.3" y="-92.5" font-family="Times New Roman,serif" font-size="14.00">&lt;22&gt;</text>
</g>
<!-- 16&#45;&gt;22 -->
<g id="edge3" class="edge">
<title>16&#45;&gt;22</title>
<path fill="none" stroke="black" d="M211.43,-141.47C204.79,-130.62 195.67,-117.38 185.5,-107.3 178.98,-100.84 170.51,-95.04 163.42,-90.74"/>
<polygon fill="black" stroke="black" points="165.39,-87.84 154.96,-85.95 161.93,-93.93 165.39,-87.84"/>
<text text-anchor="middle" x="230.21" y="-110.5" font-family="Times New Roman,serif" font-size="14.00">merge1#19</text>
</g>
<!-- 18 -->
<g id="node2" class="node">
<title>18</title>
<ellipse fill="black" stroke="black" cx="158.5" cy="-480.9" rx="7.2" ry="7.2"/>
<text text-anchor="middle" x="143.43" y="-491.3" font-family="Times New Roman,serif" font-size="14.00">[0]</text>
</g>
<!-- 19 -->
<g id="node3" class="node">
<title>19</title>
<polygon fill="yellow" stroke="black" points="226.12,-436.7 90.88,-436.7 90.88,-395.7 226.12,-395.7 226.12,-436.7"/>
<text text-anchor="middle" x="158.5" y="-419.4" font-family="Times New Roman,serif" font-size="14.00">self.number &gt;= 0 and</text>
<text text-anchor="middle" x="158.5" y="-402.9" font-family="Times New Roman,serif" font-size="14.00">self.number &lt;= 100</text>
<text text-anchor="middle" x="79.62" y="-439.9" font-family="Times New Roman,serif" font-size="14.00">[19]</text>
</g>
<!-- 18&#45;&gt;19 -->
<g id="edge9" class="edge">
<title>18&#45;&gt;19</title>
<path fill="none" stroke="black" d="M158.5,-473.66C158.5,-467.63 158.5,-458.01 158.5,-448.41"/>
<polygon fill="black" stroke="black" points="162,-448.47 158.5,-438.47 155,-448.47 162,-448.47"/>
</g>
<!-- 21 -->
<g id="node4" class="node">
<title>21</title>
<polygon fill="aquamarine" stroke="black" points="158.5,-343.2 151.3,-336 158.5,-328.8 165.7,-336 158.5,-343.2"/>
<text text-anchor="middle" x="136.3" y="-346.4" font-family="Times New Roman,serif" font-size="14.00">&lt;21&gt;</text>
</g>
<!-- 19&#45;&gt;21 -->
<g id="edge6" class="edge">
<title>19&#45;&gt;21</title>
<path fill="none" stroke="black" d="M158.5,-395.47C158.5,-382.97 158.5,-366.95 158.5,-354.84"/>
<polygon fill="black" stroke="black" points="162,-355.1 158.5,-345.1 155,-355.1 162,-355.1"/>
<text text-anchor="middle" x="195.62" y="-364.4" font-family="Times New Roman,serif" font-size="14.00">graphAnd#22</text>
</g>
<!-- 10 -->
<g id="node8" class="node">
<title>10</title>
<polygon fill="yellow" stroke="black" points="146.5,-276.3 64.5,-276.3 64.5,-235.3 146.5,-235.3 146.5,-276.3"/>
<text text-anchor="middle" x="105.5" y="-259" font-family="Times New Roman,serif" font-size="14.00">score &lt; 0 or</text>
<text text-anchor="middle" x="105.5" y="-242.5" font-family="Times New Roman,serif" font-size="14.00">score &gt; 100</text>
<text text-anchor="middle" x="53.25" y="-279.5" font-family="Times New Roman,serif" font-size="14.00">[10]</text>
</g>
<!-- 21&#45;&gt;10 -->
<g id="edge2" class="edge">
<title>21&#45;&gt;10</title>
<path fill="none" stroke="black" d="M155.04,-332.14C150.02,-327.87 140.62,-319.4 134.25,-310.8 128.8,-303.44 123.76,-294.92 119.47,-286.84"/>
<polygon fill="black" stroke="black" points="122.62,-285.32 114.98,-277.98 116.37,-288.48 122.62,-285.32"/>
<text text-anchor="middle" x="159.38" y="-297.5" font-family="Times New Roman,serif" font-size="14.00">split2#18</text>
</g>
<!-- 13 -->
<g id="node9" class="node">
<title>13</title>
<polygon fill="yellow" stroke="black" points="266.75,-276.3 168.25,-276.3 168.25,-235.3 266.75,-235.3 266.75,-276.3"/>
<text text-anchor="middle" x="217.5" y="-259" font-family="Times New Roman,serif" font-size="14.00">score &gt;= 0 and</text>
<text text-anchor="middle" x="217.5" y="-242.5" font-family="Times New Roman,serif" font-size="14.00">score &lt;= 100</text>
<text text-anchor="middle" x="157" y="-279.5" font-family="Times New Roman,serif" font-size="14.00">[13]</text>
</g>
<!-- 21&#45;&gt;13 -->
<g id="edge1" class="edge">
<title>21&#45;&gt;13</title>
<path fill="none" stroke="black" d="M162.16,-332.14C167.48,-327.87 177.48,-319.4 184.5,-310.8 190.63,-303.3 196.45,-294.56 201.45,-286.33"/>
<polygon fill="black" stroke="black" points="204.31,-288.36 206.34,-277.96 198.27,-284.82 204.31,-288.36"/>
<text text-anchor="middle" x="220.86" y="-297.5" font-family="Times New Roman,serif" font-size="14.00">split1#17</text>
</g>
<!-- 8 -->
<g id="node7" class="node">
<title>8</title>
<ellipse fill="black" stroke="black" cx="149.5" cy="-11.2" rx="7.2" ry="7.2"/>
<ellipse fill="none" stroke="black" cx="149.5" cy="-11.2" rx="11.2" ry="11.2"/>
<text text-anchor="middle" x="128.18" y="-25.6" font-family="Times New Roman,serif" font-size="14.00">[&#45;1]</text>
</g>
<!-- 22&#45;&gt;8 -->
<g id="edge5" class="edge">
<title>22&#45;&gt;8</title>
<path fill="none" stroke="black" d="M149.5,-74.24C149.5,-64.87 149.5,-47.63 149.5,-33.7"/>
<polygon fill="black" stroke="black" points="153,-34.11 149.5,-24.11 146,-34.11 153,-34.11"/>
<text text-anchor="middle" x="195.25" y="-43.6" font-family="Times New Roman,serif" font-size="14.00">graphOr_end#21</text>
</g>
<!-- 7 -->
<g id="node6" class="node">
<title>7</title>
<polygon fill="yellow" stroke="black" points="141.25,-180.3 15.75,-180.3 15.75,-144.3 141.25,-144.3 141.25,-180.3"/>
<text text-anchor="middle" x="78.5" y="-157.25" font-family="Times New Roman,serif" font-size="14.00">Result = &#39;Exception&#39;</text>
<text text-anchor="middle" x="7.88" y="-183.5" font-family="Times New Roman,serif" font-size="14.00">[7]</text>
</g>
<!-- 7&#45;&gt;22 -->
<g id="edge4" class="edge">
<title>7&#45;&gt;22</title>
<path fill="none" stroke="black" d="M92.37,-143.85C101.15,-133.06 112.9,-119.08 124,-107.3 128.36,-102.68 133.38,-97.82 137.82,-93.67"/>
<polygon fill="black" stroke="black" points="139.95,-96.47 144.97,-87.14 135.22,-91.3 139.95,-96.47"/>
<text text-anchor="middle" x="154.75" y="-110.5" font-family="Times New Roman,serif" font-size="14.00">merge2#20</text>
</g>
<!-- 10&#45;&gt;7 -->
<g id="edge7" class="edge">
<title>10&#45;&gt;7</title>
<path fill="none" stroke="black" d="M99.64,-234.95C95.91,-222.3 91.02,-205.71 86.88,-191.69"/>
<polygon fill="black" stroke="black" points="90.23,-190.7 84.05,-182.1 83.52,-192.68 90.23,-190.7"/>
<text text-anchor="middle" x="131.54" y="-204" font-family="Times New Roman,serif" font-size="14.00">graphAnd#12</text>
</g>
<!-- 13&#45;&gt;16 -->
<g id="edge8" class="edge">
<title>13&#45;&gt;16</title>
<path fill="none" stroke="black" d="M218.58,-234.95C219.23,-223.08 220.07,-207.74 220.81,-194.3"/>
<polygon fill="black" stroke="black" points="224.28,-194.8 221.33,-184.63 217.29,-194.42 224.28,-194.8"/>
<text text-anchor="middle" x="257.57" y="-204" font-family="Times New Roman,serif" font-size="14.00">graphAnd#13</text>
</g>
</g>
</svg>
