<?xml version="1.0" encoding="UTF-8" standalone="no"?>
<!DOCTYPE svg PUBLIC "-//W3C//DTD SVG 1.1//EN"
 "http://www.w3.org/Graphics/SVG/1.1/DTD/svg11.dtd">
<!-- Generated by graphviz version 12.2.1 (20241206.2353)
 -->
<!-- Title: CLG Pages: 1 -->
<svg width="595pt" height="2022pt"
 viewBox="0.00 0.00 595.38 2021.60" xmlns="http://www.w3.org/2000/svg" xmlns:xlink="http://www.w3.org/1999/xlink">
<g id="graph0" class="graph" transform="scale(1 1) rotate(0) translate(4 2017.6)">
<title>CLG</title>
<polygon fill="white" stroke="none" points="-4,4 -4,-2017.6 591.38,-2017.6 591.38,4 -4,4"/>
<!-- 129 -->
<g id="node1" class="node">
<title>129</title>
<polygon fill="yellow" stroke="black" points="220.88,-1857.2 95.38,-1857.2 95.38,-1821.2 220.88,-1821.2 220.88,-1857.2"/>
<text text-anchor="middle" x="158.12" y="-1834.15" font-family="Times New Roman,serif" font-size="14.00">self.number &lt;= 100</text>
<text text-anchor="middle" x="80.75" y="-1860.4" font-family="Times New Roman,serif" font-size="14.00">[129]</text>
</g>
<!-- 123 -->
<g id="node38" class="node">
<title>123</title>
<polygon fill="aquamarine" stroke="black" points="158.12,-1768.7 150.93,-1761.5 158.12,-1754.3 165.32,-1761.5 158.12,-1768.7"/>
<text text-anchor="middle" x="132.55" y="-1771.9" font-family="Times New Roman,serif" font-size="14.00">&lt;123&gt;</text>
</g>
<!-- 129&#45;&gt;123 -->
<g id="edge20" class="edge">
<title>129&#45;&gt;123</title>
<path fill="none" stroke="black" d="M158.12,-1821.02C158.12,-1808.98 158.12,-1792.9 158.12,-1780.65"/>
<polygon fill="black" stroke="black" points="161.63,-1780.74 158.13,-1770.74 154.63,-1780.74 161.63,-1780.74"/>
<text text-anchor="middle" x="198.62" y="-1789.9" font-family="Times New Roman,serif" font-size="14.00">graphAnd#155</text>
</g>
<!-- 65 -->
<g id="node2" class="node">
<title>65</title>
<polygon fill="yellow" stroke="black" points="255.75,-1438.4 168.5,-1438.4 168.5,-1402.4 255.75,-1402.4 255.75,-1438.4"/>
<text text-anchor="middle" x="212.12" y="-1415.35" font-family="Times New Roman,serif" font-size="14.00">number &lt; 60</text>
<text text-anchor="middle" x="157.25" y="-1441.6" font-family="Times New Roman,serif" font-size="14.00">[65]</text>
</g>
<!-- 68 -->
<g id="node4" class="node">
<title>68</title>
<polygon fill="aquamarine" stroke="black" points="219.12,-1349.9 211.93,-1342.7 219.12,-1335.5 226.32,-1342.7 219.12,-1349.9"/>
<text text-anchor="middle" x="196.93" y="-1353.1" font-family="Times New Roman,serif" font-size="14.00">&lt;68&gt;</text>
</g>
<!-- 65&#45;&gt;68 -->
<g id="edge25" class="edge">
<title>65&#45;&gt;68</title>
<path fill="none" stroke="black" d="M213.71,-1402.22C214.85,-1389.92 216.38,-1373.42 217.52,-1361.07"/>
<polygon fill="black" stroke="black" points="220.99,-1361.49 218.43,-1351.21 214.02,-1360.85 220.99,-1361.49"/>
<text text-anchor="middle" x="247.61" y="-1371.1" font-family="Times New Roman,serif" font-size="14.00">merge2#66</text>
</g>
<!-- 67 -->
<g id="node3" class="node">
<title>67</title>
<polygon fill="aquamarine" stroke="black" points="253.12,-1516.1 245.93,-1508.9 253.12,-1501.7 260.32,-1508.9 253.12,-1516.1"/>
<text text-anchor="middle" x="230.93" y="-1519.3" font-family="Times New Roman,serif" font-size="14.00">&lt;67&gt;</text>
</g>
<!-- 67&#45;&gt;65 -->
<g id="edge23" class="edge">
<title>67&#45;&gt;65</title>
<path fill="none" stroke="black" d="M250.92,-1503.25C246.15,-1493.18 234.55,-1468.7 225.26,-1449.12"/>
<polygon fill="black" stroke="black" points="228.5,-1447.77 221.05,-1440.23 222.17,-1450.77 228.5,-1447.77"/>
<text text-anchor="middle" x="261.42" y="-1459.6" font-family="Times New Roman,serif" font-size="14.00">split2#64</text>
</g>
<!-- 62 -->
<g id="node42" class="node">
<title>62</title>
<polygon fill="yellow" stroke="black" points="360.75,-1438.4 273.5,-1438.4 273.5,-1402.4 360.75,-1402.4 360.75,-1438.4"/>
<text text-anchor="middle" x="317.12" y="-1415.35" font-family="Times New Roman,serif" font-size="14.00">number &gt; 69</text>
<text text-anchor="middle" x="262.25" y="-1441.6" font-family="Times New Roman,serif" font-size="14.00">[62]</text>
</g>
<!-- 67&#45;&gt;62 -->
<g id="edge22" class="edge">
<title>67&#45;&gt;62</title>
<path fill="none" stroke="black" d="M256.59,-1504.86C263.08,-1499.07 277.29,-1485.86 287.12,-1472.9 292.78,-1465.45 298.18,-1456.84 302.8,-1448.82"/>
<polygon fill="black" stroke="black" points="305.86,-1450.52 307.65,-1440.08 299.74,-1447.13 305.86,-1450.52"/>
<text text-anchor="middle" x="323.26" y="-1459.6" font-family="Times New Roman,serif" font-size="14.00">split1#63</text>
</g>
<!-- 119 -->
<g id="node32" class="node">
<title>119</title>
<polygon fill="aquamarine" stroke="black" points="219.12,-1263.5 211.93,-1256.3 219.12,-1249.1 226.32,-1256.3 219.12,-1263.5"/>
<text text-anchor="middle" x="193.55" y="-1266.7" font-family="Times New Roman,serif" font-size="14.00">&lt;119&gt;</text>
</g>
<!-- 68&#45;&gt;119 -->
<g id="edge6" class="edge">
<title>68&#45;&gt;119</title>
<path fill="none" stroke="black" d="M219.12,-1334.79C219.12,-1321.93 219.12,-1293.94 219.12,-1275.35"/>
<polygon fill="black" stroke="black" points="222.63,-1275.58 219.13,-1265.58 215.63,-1275.58 222.63,-1275.58"/>
<text text-anchor="middle" x="259.62" y="-1294.45" font-family="Times New Roman,serif" font-size="14.00">graphAnd#135</text>
</g>
<!-- 70 -->
<g id="node5" class="node">
<title>70</title>
<polygon fill="yellow" stroke="black" points="189.88,-1196.6 94.38,-1196.6 94.38,-1160.6 189.88,-1160.6 189.88,-1196.6"/>
<text text-anchor="middle" x="142.12" y="-1173.55" font-family="Times New Roman,serif" font-size="14.00">number &gt;= 70</text>
<text text-anchor="middle" x="83.12" y="-1199.8" font-family="Times New Roman,serif" font-size="14.00">[70]</text>
</g>
<!-- 73 -->
<g id="node6" class="node">
<title>73</title>
<polygon fill="yellow" stroke="black" points="179.88,-1108.1 84.38,-1108.1 84.38,-1072.1 179.88,-1072.1 179.88,-1108.1"/>
<text text-anchor="middle" x="132.12" y="-1085.05" font-family="Times New Roman,serif" font-size="14.00">number &lt;= 79</text>
<text text-anchor="middle" x="73.12" y="-1111.3" font-family="Times New Roman,serif" font-size="14.00">[73]</text>
</g>
<!-- 70&#45;&gt;73 -->
<g id="edge26" class="edge">
<title>70&#45;&gt;73</title>
<path fill="none" stroke="black" d="M140.15,-1160.51C138.8,-1148.86 136.99,-1133.15 135.42,-1119.62"/>
<polygon fill="black" stroke="black" points="138.93,-1119.49 134.3,-1109.95 131.98,-1120.29 138.93,-1119.49"/>
<text text-anchor="middle" x="175.15" y="-1129.3" font-family="Times New Roman,serif" font-size="14.00">graphAnd#72</text>
</g>
<!-- 76 -->
<g id="node7" class="node">
<title>76</title>
<polygon fill="yellow" stroke="black" points="167.5,-987.2 96.75,-987.2 96.75,-951.2 167.5,-951.2 167.5,-987.2"/>
<text text-anchor="middle" x="132.12" y="-964.15" font-family="Times New Roman,serif" font-size="14.00">result = C</text>
<text text-anchor="middle" x="85.5" y="-990.4" font-family="Times New Roman,serif" font-size="14.00">[76]</text>
</g>
<!-- 73&#45;&gt;76 -->
<g id="edge48" class="edge">
<title>73&#45;&gt;76</title>
<path fill="none" stroke="black" d="M132.12,-1071.81C132.12,-1052.7 132.12,-1021.62 132.12,-998.86"/>
<polygon fill="black" stroke="black" points="135.63,-999.02 132.13,-989.02 128.63,-999.02 135.63,-999.02"/>
<text text-anchor="middle" x="172.62" y="-1040.8" font-family="Times New Roman,serif" font-size="14.00">graphAnd#126</text>
</g>
<!-- 120 -->
<g id="node34" class="node">
<title>120</title>
<polygon fill="aquamarine" stroke="black" points="180.12,-223.1 172.93,-215.9 180.12,-208.7 187.32,-215.9 180.12,-223.1"/>
<text text-anchor="middle" x="154.55" y="-226.3" font-family="Times New Roman,serif" font-size="14.00">&lt;120&gt;</text>
</g>
<!-- 76&#45;&gt;120 -->
<g id="edge3" class="edge">
<title>76&#45;&gt;120</title>
<path fill="none" stroke="black" d="M132.12,-950.7C132.12,-935.58 132.12,-913.12 132.12,-893.55 132.12,-893.55 132.12,-893.55 132.12,-281.8 132.12,-258.35 152.64,-237.82 166.84,-226.42"/>
<polygon fill="black" stroke="black" points="168.89,-229.26 174.82,-220.49 164.71,-223.65 168.89,-229.26"/>
<text text-anchor="middle" x="166.25" y="-589.6" font-family="Times New Roman,serif" font-size="14.00">merge1#131</text>
</g>
<!-- 79 -->
<g id="node8" class="node">
<title>79</title>
<polygon fill="yellow" stroke="black" points="284.75,-1108.1 197.5,-1108.1 197.5,-1072.1 284.75,-1072.1 284.75,-1108.1"/>
<text text-anchor="middle" x="241.12" y="-1085.05" font-family="Times New Roman,serif" font-size="14.00">number &lt; 70</text>
<text text-anchor="middle" x="186.25" y="-1111.3" font-family="Times New Roman,serif" font-size="14.00">[79]</text>
</g>
<!-- 85 -->
<g id="node11" class="node">
<title>85</title>
<polygon fill="aquamarine" stroke="black" points="291.12,-1019.6 283.93,-1012.4 291.12,-1005.2 298.32,-1012.4 291.12,-1019.6"/>
<text text-anchor="middle" x="268.93" y="-1022.8" font-family="Times New Roman,serif" font-size="14.00">&lt;85&gt;</text>
</g>
<!-- 79&#45;&gt;85 -->
<g id="edge29" class="edge">
<title>79&#45;&gt;85</title>
<path fill="none" stroke="black" d="M244.3,-1071.65C246.87,-1061.06 251.29,-1047.68 258.62,-1037.6 263.39,-1031.06 270.43,-1025.51 276.74,-1021.38"/>
<polygon fill="black" stroke="black" points="278.49,-1024.41 285.36,-1016.35 274.96,-1018.37 278.49,-1024.41"/>
<text text-anchor="middle" x="289.38" y="-1040.8" font-family="Times New Roman,serif" font-size="14.00">merge1#82</text>
</g>
<!-- 82 -->
<g id="node9" class="node">
<title>82</title>
<polygon fill="yellow" stroke="black" points="389.75,-1108.1 302.5,-1108.1 302.5,-1072.1 389.75,-1072.1 389.75,-1108.1"/>
<text text-anchor="middle" x="346.12" y="-1085.05" font-family="Times New Roman,serif" font-size="14.00">number &gt; 79</text>
<text text-anchor="middle" x="291.25" y="-1111.3" font-family="Times New Roman,serif" font-size="14.00">[82]</text>
</g>
<!-- 82&#45;&gt;85 -->
<g id="edge30" class="edge">
<title>82&#45;&gt;85</title>
<path fill="none" stroke="black" d="M339.52,-1071.84C335.01,-1061.32 328.35,-1047.95 320.12,-1037.6 315.65,-1031.97 309.69,-1026.72 304.33,-1022.56"/>
<polygon fill="black" stroke="black" points="306.72,-1019.97 296.56,-1016.97 302.64,-1025.65 306.72,-1019.97"/>
<text text-anchor="middle" x="361.28" y="-1040.8" font-family="Times New Roman,serif" font-size="14.00">merge2#83</text>
</g>
<!-- 84 -->
<g id="node10" class="node">
<title>84</title>
<polygon fill="aquamarine" stroke="black" points="241.12,-1185.8 233.93,-1178.6 241.12,-1171.4 248.32,-1178.6 241.12,-1185.8"/>
<text text-anchor="middle" x="218.93" y="-1189" font-family="Times New Roman,serif" font-size="14.00">&lt;84&gt;</text>
</g>
<!-- 84&#45;&gt;79 -->
<g id="edge27" class="edge">
<title>84&#45;&gt;79</title>
<path fill="none" stroke="black" d="M241.12,-1170.81C241.12,-1159.95 241.12,-1138.05 241.12,-1119.95"/>
<polygon fill="black" stroke="black" points="244.63,-1119.99 241.13,-1109.99 237.63,-1119.99 244.63,-1119.99"/>
<text text-anchor="middle" x="266.25" y="-1129.3" font-family="Times New Roman,serif" font-size="14.00">split1#80</text>
</g>
<!-- 84&#45;&gt;82 -->
<g id="edge28" class="edge">
<title>84&#45;&gt;82</title>
<path fill="none" stroke="black" d="M245.54,-1175.17C255.04,-1169.86 277.96,-1156.56 295.12,-1142.6 304.79,-1134.74 314.61,-1125.26 323.01,-1116.58"/>
<polygon fill="black" stroke="black" points="325.51,-1119.03 329.85,-1109.37 320.43,-1114.22 325.51,-1119.03"/>
<text text-anchor="middle" x="338.05" y="-1129.3" font-family="Times New Roman,serif" font-size="14.00">split2#81</text>
</g>
<!-- 117 -->
<g id="node30" class="node">
<title>117</title>
<polygon fill="aquamarine" stroke="black" points="291.12,-933.2 283.93,-926 291.12,-918.8 298.32,-926 291.12,-933.2"/>
<text text-anchor="middle" x="265.55" y="-936.4" font-family="Times New Roman,serif" font-size="14.00">&lt;117&gt;</text>
</g>
<!-- 85&#45;&gt;117 -->
<g id="edge49" class="edge">
<title>85&#45;&gt;117</title>
<path fill="none" stroke="black" d="M291.12,-1004.49C291.12,-991.63 291.12,-963.64 291.12,-945.05"/>
<polygon fill="black" stroke="black" points="294.63,-945.28 291.13,-935.28 287.63,-945.28 294.63,-945.28"/>
<text text-anchor="middle" x="331.62" y="-964.15" font-family="Times New Roman,serif" font-size="14.00">graphAnd#127</text>
</g>
<!-- 87 -->
<g id="node12" class="node">
<title>87</title>
<polygon fill="yellow" stroke="black" points="284.88,-866.3 189.38,-866.3 189.38,-830.3 284.88,-830.3 284.88,-866.3"/>
<text text-anchor="middle" x="237.12" y="-843.25" font-family="Times New Roman,serif" font-size="14.00">number &gt;= 80</text>
<text text-anchor="middle" x="178.12" y="-869.5" font-family="Times New Roman,serif" font-size="14.00">[87]</text>
</g>
<!-- 90 -->
<g id="node13" class="node">
<title>90</title>
<polygon fill="yellow" stroke="black" points="275.88,-777.8 180.38,-777.8 180.38,-741.8 275.88,-741.8 275.88,-777.8"/>
<text text-anchor="middle" x="228.12" y="-754.75" font-family="Times New Roman,serif" font-size="14.00">number &lt;= 89</text>
<text text-anchor="middle" x="169.12" y="-781" font-family="Times New Roman,serif" font-size="14.00">[90]</text>
</g>
<!-- 87&#45;&gt;90 -->
<g id="edge31" class="edge">
<title>87&#45;&gt;90</title>
<path fill="none" stroke="black" d="M235.35,-830.21C234.13,-818.56 232.5,-802.85 231.09,-789.32"/>
<polygon fill="black" stroke="black" points="234.6,-789.24 230.09,-779.66 227.64,-789.96 234.6,-789.24"/>
<text text-anchor="middle" x="270.56" y="-799" font-family="Times New Roman,serif" font-size="14.00">graphAnd#89</text>
</g>
<!-- 93 -->
<g id="node14" class="node">
<title>93</title>
<polygon fill="yellow" stroke="black" points="263.5,-656.9 192.75,-656.9 192.75,-620.9 263.5,-620.9 263.5,-656.9"/>
<text text-anchor="middle" x="228.12" y="-633.85" font-family="Times New Roman,serif" font-size="14.00">result = B</text>
<text text-anchor="middle" x="181.5" y="-660.1" font-family="Times New Roman,serif" font-size="14.00">[93]</text>
</g>
<!-- 90&#45;&gt;93 -->
<g id="edge42" class="edge">
<title>90&#45;&gt;93</title>
<path fill="none" stroke="black" d="M228.12,-741.51C228.12,-722.4 228.12,-691.32 228.12,-668.56"/>
<polygon fill="black" stroke="black" points="231.63,-668.72 228.13,-658.72 224.63,-668.72 231.63,-668.72"/>
<text text-anchor="middle" x="268.62" y="-710.5" font-family="Times New Roman,serif" font-size="14.00">graphAnd#118</text>
</g>
<!-- 118 -->
<g id="node31" class="node">
<title>118</title>
<polygon fill="aquamarine" stroke="black" points="228.12,-290 220.93,-282.8 228.12,-275.6 235.32,-282.8 228.12,-290"/>
<text text-anchor="middle" x="202.55" y="-293.2" font-family="Times New Roman,serif" font-size="14.00">&lt;118&gt;</text>
</g>
<!-- 93&#45;&gt;118 -->
<g id="edge46" class="edge">
<title>93&#45;&gt;118</title>
<path fill="none" stroke="black" d="M228.12,-620.53C228.12,-604.97 228.12,-581.54 228.12,-561.15 228.12,-561.15 228.12,-561.15 228.12,-348.7 228.12,-332.98 228.12,-315.11 228.12,-302.11"/>
<polygon fill="black" stroke="black" points="231.63,-302.13 228.13,-292.13 224.63,-302.13 231.63,-302.13"/>
<text text-anchor="middle" x="262.25" y="-466.6" font-family="Times New Roman,serif" font-size="14.00">merge1#123</text>
</g>
<!-- 96 -->
<g id="node15" class="node">
<title>96</title>
<polygon fill="yellow" stroke="black" points="380.75,-777.8 293.5,-777.8 293.5,-741.8 380.75,-741.8 380.75,-777.8"/>
<text text-anchor="middle" x="337.12" y="-754.75" font-family="Times New Roman,serif" font-size="14.00">number &lt; 80</text>
<text text-anchor="middle" x="282.25" y="-781" font-family="Times New Roman,serif" font-size="14.00">[96]</text>
</g>
<!-- 102 -->
<g id="node18" class="node">
<title>102</title>
<polygon fill="aquamarine" stroke="black" points="422.12,-689.3 414.93,-682.1 422.12,-674.9 429.32,-682.1 422.12,-689.3"/>
<text text-anchor="middle" x="396.55" y="-692.5" font-family="Times New Roman,serif" font-size="14.00">&lt;102&gt;</text>
</g>
<!-- 96&#45;&gt;102 -->
<g id="edge34" class="edge">
<title>96&#45;&gt;102</title>
<path fill="none" stroke="black" d="M341.01,-741.51C344.29,-730.44 350.04,-716.48 359.62,-707.3 372.1,-695.34 391.14,-689.11 404.93,-685.99"/>
<polygon fill="black" stroke="black" points="405.49,-689.45 414.66,-684.15 404.18,-682.57 405.49,-689.45"/>
<text text-anchor="middle" x="390.38" y="-710.5" font-family="Times New Roman,serif" font-size="14.00">merge1#99</text>
</g>
<!-- 99 -->
<g id="node16" class="node">
<title>99</title>
<polygon fill="yellow" stroke="black" points="485.75,-777.8 398.5,-777.8 398.5,-741.8 485.75,-741.8 485.75,-777.8"/>
<text text-anchor="middle" x="442.12" y="-754.75" font-family="Times New Roman,serif" font-size="14.00">number &gt; 89</text>
<text text-anchor="middle" x="387.25" y="-781" font-family="Times New Roman,serif" font-size="14.00">[99]</text>
</g>
<!-- 99&#45;&gt;102 -->
<g id="edge35" class="edge">
<title>99&#45;&gt;102</title>
<path fill="none" stroke="black" d="M434.83,-741.58C432.67,-735.98 430.46,-729.7 428.88,-723.8 426.85,-716.28 425.33,-707.8 424.24,-700.54"/>
<polygon fill="black" stroke="black" points="427.73,-700.21 422.96,-690.75 420.79,-701.12 427.73,-700.21"/>
<text text-anchor="middle" x="463" y="-710.5" font-family="Times New Roman,serif" font-size="14.00">merge2#100</text>
</g>
<!-- 101 -->
<g id="node17" class="node">
<title>101</title>
<polygon fill="aquamarine" stroke="black" points="337.12,-855.5 329.93,-848.3 337.12,-841.1 344.32,-848.3 337.12,-855.5"/>
<text text-anchor="middle" x="311.55" y="-858.7" font-family="Times New Roman,serif" font-size="14.00">&lt;101&gt;</text>
</g>
<!-- 101&#45;&gt;96 -->
<g id="edge32" class="edge">
<title>101&#45;&gt;96</title>
<path fill="none" stroke="black" d="M337.12,-840.51C337.12,-829.65 337.12,-807.75 337.12,-789.65"/>
<polygon fill="black" stroke="black" points="340.63,-789.69 337.13,-779.69 333.63,-789.69 340.63,-789.69"/>
<text text-anchor="middle" x="362.25" y="-799" font-family="Times New Roman,serif" font-size="14.00">split1#97</text>
</g>
<!-- 101&#45;&gt;99 -->
<g id="edge33" class="edge">
<title>101&#45;&gt;99</title>
<path fill="none" stroke="black" d="M341.54,-844.87C351.04,-839.56 373.96,-826.26 391.12,-812.3 400.79,-804.44 410.61,-794.96 419.01,-786.28"/>
<polygon fill="black" stroke="black" points="421.51,-788.73 425.85,-779.07 416.43,-783.92 421.51,-788.73"/>
<text text-anchor="middle" x="434.05" y="-799" font-family="Times New Roman,serif" font-size="14.00">split2#98</text>
</g>
<!-- 115 -->
<g id="node27" class="node">
<title>115</title>
<polygon fill="aquamarine" stroke="black" points="422.12,-601.85 414.93,-594.65 422.12,-587.45 429.32,-594.65 422.12,-601.85"/>
<text text-anchor="middle" x="396.55" y="-605.05" font-family="Times New Roman,serif" font-size="14.00">&lt;115&gt;</text>
</g>
<!-- 102&#45;&gt;115 -->
<g id="edge43" class="edge">
<title>102&#45;&gt;115</title>
<path fill="none" stroke="black" d="M422.12,-674.39C422.12,-661.42 422.12,-632.47 422.12,-613.52"/>
<polygon fill="black" stroke="black" points="425.63,-613.6 422.13,-603.6 418.63,-613.6 425.63,-613.6"/>
<text text-anchor="middle" x="462.62" y="-633.85" font-family="Times New Roman,serif" font-size="14.00">graphAnd#119</text>
</g>
<!-- 104 -->
<g id="node19" class="node">
<title>104</title>
<polygon fill="yellow" stroke="black" points="364.88,-533.9 269.38,-533.9 269.38,-497.9 364.88,-497.9 364.88,-533.9"/>
<text text-anchor="middle" x="317.12" y="-510.85" font-family="Times New Roman,serif" font-size="14.00">number &gt;= 90</text>
<text text-anchor="middle" x="254.75" y="-537.1" font-family="Times New Roman,serif" font-size="14.00">[104]</text>
</g>
<!-- 107 -->
<g id="node20" class="node">
<title>107</title>
<polygon fill="yellow" stroke="black" points="354.5,-445.4 283.75,-445.4 283.75,-409.4 354.5,-409.4 354.5,-445.4"/>
<text text-anchor="middle" x="319.12" y="-422.35" font-family="Times New Roman,serif" font-size="14.00">result = A</text>
<text text-anchor="middle" x="269.12" y="-448.6" font-family="Times New Roman,serif" font-size="14.00">[107]</text>
</g>
<!-- 104&#45;&gt;107 -->
<g id="edge36" class="edge">
<title>104&#45;&gt;107</title>
<path fill="none" stroke="black" d="M317.52,-497.81C317.79,-486.16 318.15,-470.45 318.47,-456.92"/>
<polygon fill="black" stroke="black" points="321.96,-457.34 318.69,-447.26 314.96,-457.18 321.96,-457.34"/>
<text text-anchor="middle" x="358.8" y="-466.6" font-family="Times New Roman,serif" font-size="14.00">graphAnd#110</text>
</g>
<!-- 116 -->
<g id="node28" class="node">
<title>116</title>
<polygon fill="aquamarine" stroke="black" points="319.12,-356.9 311.93,-349.7 319.12,-342.5 326.32,-349.7 319.12,-356.9"/>
<text text-anchor="middle" x="293.55" y="-360.1" font-family="Times New Roman,serif" font-size="14.00">&lt;116&gt;</text>
</g>
<!-- 107&#45;&gt;116 -->
<g id="edge40" class="edge">
<title>107&#45;&gt;116</title>
<path fill="none" stroke="black" d="M319.12,-409.22C319.12,-397.18 319.12,-381.1 319.12,-368.85"/>
<polygon fill="black" stroke="black" points="322.63,-368.94 319.13,-358.94 315.63,-368.94 322.63,-368.94"/>
<text text-anchor="middle" x="353.25" y="-378.1" font-family="Times New Roman,serif" font-size="14.00">merge1#115</text>
</g>
<!-- 44 -->
<g id="node21" class="node">
<title>44</title>
<polygon fill="yellow" stroke="black" points="151.88,-1701.8 56.38,-1701.8 56.38,-1665.8 151.88,-1665.8 151.88,-1701.8"/>
<text text-anchor="middle" x="104.12" y="-1678.75" font-family="Times New Roman,serif" font-size="14.00">number &lt;= 59</text>
<text text-anchor="middle" x="45.12" y="-1705" font-family="Times New Roman,serif" font-size="14.00">[44]</text>
</g>
<!-- 47 -->
<g id="node23" class="node">
<title>47</title>
<polygon fill="yellow" stroke="black" points="91.75,-1580.9 22.5,-1580.9 22.5,-1544.9 91.75,-1544.9 91.75,-1580.9"/>
<text text-anchor="middle" x="57.12" y="-1557.85" font-family="Times New Roman,serif" font-size="14.00">result = F</text>
<text text-anchor="middle" x="11.25" y="-1584.1" font-family="Times New Roman,serif" font-size="14.00">[47]</text>
</g>
<!-- 44&#45;&gt;47 -->
<g id="edge11" class="edge">
<title>44&#45;&gt;47</title>
<path fill="none" stroke="black" d="M97.29,-1665.51C89.63,-1646.14 77.11,-1614.46 68.08,-1591.62"/>
<polygon fill="black" stroke="black" points="71.45,-1590.63 64.52,-1582.62 64.95,-1593.2 71.45,-1590.63"/>
<text text-anchor="middle" x="129.99" y="-1634.5" font-family="Times New Roman,serif" font-size="14.00">graphAnd#142</text>
</g>
<!-- 110 -->
<g id="node22" class="node">
<title>110</title>
<polygon fill="yellow" stroke="black" points="469.75,-533.9 382.5,-533.9 382.5,-497.9 469.75,-497.9 469.75,-533.9"/>
<text text-anchor="middle" x="426.12" y="-510.85" font-family="Times New Roman,serif" font-size="14.00">number &lt; 90</text>
<text text-anchor="middle" x="367.88" y="-537.1" font-family="Times New Roman,serif" font-size="14.00">[110]</text>
</g>
<!-- 113 -->
<g id="node24" class="node">
<title>113</title>
<polygon fill="yellow" stroke="black" points="455.5,-445.4 384.75,-445.4 384.75,-409.4 455.5,-409.4 455.5,-445.4"/>
<text text-anchor="middle" x="420.12" y="-422.35" font-family="Times New Roman,serif" font-size="14.00">result = B</text>
<text text-anchor="middle" x="370.12" y="-448.6" font-family="Times New Roman,serif" font-size="14.00">[113]</text>
</g>
<!-- 110&#45;&gt;113 -->
<g id="edge37" class="edge">
<title>110&#45;&gt;113</title>
<path fill="none" stroke="black" d="M424.94,-497.81C424.13,-486.16 423.04,-470.45 422.1,-456.92"/>
<polygon fill="black" stroke="black" points="425.62,-456.99 421.43,-447.26 418.63,-457.48 425.62,-456.99"/>
<text text-anchor="middle" x="464.16" y="-466.6" font-family="Times New Roman,serif" font-size="14.00">graphAnd#111</text>
</g>
<!-- 124 -->
<g id="node39" class="node">
<title>124</title>
<polygon fill="aquamarine" stroke="black" points="65.12,-89.3 57.92,-82.1 65.12,-74.9 72.33,-82.1 65.12,-89.3"/>
<text text-anchor="middle" x="39.55" y="-92.5" font-family="Times New Roman,serif" font-size="14.00">&lt;124&gt;</text>
</g>
<!-- 47&#45;&gt;124 -->
<g id="edge15" class="edge">
<title>47&#45;&gt;124</title>
<path fill="none" stroke="black" d="M54.81,-1544.55C52.45,-1525.3 49.12,-1493.32 49.12,-1465.65 49.12,-1465.65 49.12,-1465.65 49.12,-148 49.12,-130.59 54.62,-111.3 59.17,-98.31"/>
<polygon fill="black" stroke="black" points="62.37,-99.73 62.63,-89.14 55.82,-97.26 62.37,-99.73"/>
<text text-anchor="middle" x="83.25" y="-799" font-family="Times New Roman,serif" font-size="14.00">merge1#147</text>
</g>
<!-- 113&#45;&gt;116 -->
<g id="edge41" class="edge">
<title>113&#45;&gt;116</title>
<path fill="none" stroke="black" d="M414.07,-408.92C409.39,-397.77 401.88,-383.79 391.12,-374.9 375.25,-361.77 351.93,-355.65 336.17,-352.88"/>
<polygon fill="black" stroke="black" points="336.93,-349.45 326.53,-351.47 335.92,-356.38 336.93,-349.45"/>
<text text-anchor="middle" x="438.76" y="-378.1" font-family="Times New Roman,serif" font-size="14.00">merge2#116</text>
</g>
<!-- 50 -->
<g id="node25" class="node">
<title>50</title>
<polygon fill="yellow" stroke="black" points="278.75,-1701.8 191.5,-1701.8 191.5,-1665.8 278.75,-1665.8 278.75,-1701.8"/>
<text text-anchor="middle" x="235.12" y="-1678.75" font-family="Times New Roman,serif" font-size="14.00">number &gt; 59</text>
<text text-anchor="middle" x="180.25" y="-1705" font-family="Times New Roman,serif" font-size="14.00">[50]</text>
</g>
<!-- 121 -->
<g id="node35" class="node">
<title>121</title>
<polygon fill="aquamarine" stroke="black" points="253.12,-1613.3 245.93,-1606.1 253.12,-1598.9 260.32,-1606.1 253.12,-1613.3"/>
<text text-anchor="middle" x="227.55" y="-1616.5" font-family="Times New Roman,serif" font-size="14.00">&lt;121&gt;</text>
</g>
<!-- 50&#45;&gt;121 -->
<g id="edge12" class="edge">
<title>50&#45;&gt;121</title>
<path fill="none" stroke="black" d="M239.21,-1665.62C242.23,-1652.93 246.31,-1635.77 249.27,-1623.31"/>
<polygon fill="black" stroke="black" points="252.6,-1624.43 251.51,-1613.89 245.79,-1622.81 252.6,-1624.43"/>
<text text-anchor="middle" x="287.8" y="-1634.5" font-family="Times New Roman,serif" font-size="14.00">graphAnd#143</text>
</g>
<!-- 114 -->
<g id="node26" class="node">
<title>114</title>
<ellipse fill="black" stroke="black" cx="65.12" cy="-11.2" rx="7.2" ry="7.2"/>
<ellipse fill="none" stroke="black" cx="65.12" cy="-11.2" rx="11.2" ry="11.2"/>
<text text-anchor="middle" x="43.8" y="-25.6" font-family="Times New Roman,serif" font-size="14.00">[&#45;1]</text>
</g>
<!-- 115&#45;&gt;104 -->
<g id="edge38" class="edge">
<title>115&#45;&gt;104</title>
<path fill="none" stroke="black" d="M416.74,-592.28C405.71,-589.28 380.08,-581.37 362.12,-568.4 352.41,-561.38 343.36,-551.89 335.96,-542.97"/>
<polygon fill="black" stroke="black" points="338.77,-540.88 329.83,-535.2 333.27,-545.21 338.77,-540.88"/>
<text text-anchor="middle" x="390.62" y="-555.1" font-family="Times New Roman,serif" font-size="14.00">split1#113</text>
</g>
<!-- 115&#45;&gt;110 -->
<g id="edge39" class="edge">
<title>115&#45;&gt;110</title>
<path fill="none" stroke="black" d="M422.47,-587.11C422.94,-577.95 423.84,-560.75 424.63,-545.67"/>
<polygon fill="black" stroke="black" points="428.12,-545.9 425.14,-535.73 421.13,-545.54 428.12,-545.9"/>
<text text-anchor="middle" x="452.74" y="-555.1" font-family="Times New Roman,serif" font-size="14.00">split2#114</text>
</g>
<!-- 116&#45;&gt;118 -->
<g id="edge47" class="edge">
<title>116&#45;&gt;118</title>
<path fill="none" stroke="black" d="M315.21,-345.91C302.53,-336.86 262.11,-308.04 241.1,-293.05"/>
<polygon fill="black" stroke="black" points="243.33,-290.34 233.15,-287.38 239.26,-296.04 243.33,-290.34"/>
<text text-anchor="middle" x="318.58" y="-311.2" font-family="Times New Roman,serif" font-size="14.00">merge2#124</text>
</g>
<!-- 53 -->
<g id="node29" class="node">
<title>53</title>
<polygon fill="yellow" stroke="black" points="453.88,-1526.9 358.38,-1526.9 358.38,-1490.9 453.88,-1490.9 453.88,-1526.9"/>
<text text-anchor="middle" x="406.12" y="-1503.85" font-family="Times New Roman,serif" font-size="14.00">number &lt;= 69</text>
<text text-anchor="middle" x="347.12" y="-1530.1" font-family="Times New Roman,serif" font-size="14.00">[53]</text>
</g>
<!-- 56 -->
<g id="node33" class="node">
<title>56</title>
<polygon fill="yellow" stroke="black" points="519.88,-1438.4 424.38,-1438.4 424.38,-1402.4 519.88,-1402.4 519.88,-1438.4"/>
<text text-anchor="middle" x="472.12" y="-1415.35" font-family="Times New Roman,serif" font-size="14.00">number &gt;= 60</text>
<text text-anchor="middle" x="413.12" y="-1441.6" font-family="Times New Roman,serif" font-size="14.00">[56]</text>
</g>
<!-- 53&#45;&gt;56 -->
<g id="edge21" class="edge">
<title>53&#45;&gt;56</title>
<path fill="none" stroke="black" d="M419.16,-1490.81C428.5,-1478.57 441.26,-1461.85 451.92,-1447.89"/>
<polygon fill="black" stroke="black" points="454.69,-1450.03 457.97,-1439.95 449.12,-1445.78 454.69,-1450.03"/>
<text text-anchor="middle" x="482.16" y="-1459.6" font-family="Times New Roman,serif" font-size="14.00">graphAnd#55</text>
</g>
<!-- 117&#45;&gt;87 -->
<g id="edge44" class="edge">
<title>117&#45;&gt;87</title>
<path fill="none" stroke="black" d="M285.52,-923.79C275.6,-921.32 255.09,-914.75 245.12,-900.8 240.39,-894.17 238,-885.84 236.88,-877.81"/>
<polygon fill="black" stroke="black" points="240.39,-877.74 236.15,-868.03 233.41,-878.26 240.39,-877.74"/>
<text text-anchor="middle" x="273.62" y="-887.5" font-family="Times New Roman,serif" font-size="14.00">split1#121</text>
</g>
<!-- 117&#45;&gt;101 -->
<g id="edge45" class="edge">
<title>117&#45;&gt;101</title>
<path fill="none" stroke="black" d="M293.6,-920.93C300.15,-910.15 318.18,-880.47 328.87,-862.88"/>
<polygon fill="black" stroke="black" points="331.65,-865.05 333.85,-854.68 325.67,-861.41 331.65,-865.05"/>
<text text-anchor="middle" x="344" y="-887.5" font-family="Times New Roman,serif" font-size="14.00">split2#122</text>
</g>
<!-- 118&#45;&gt;120 -->
<g id="edge4" class="edge">
<title>118&#45;&gt;120</title>
<path fill="none" stroke="black" d="M225.27,-277.93C218.38,-268.62 200.63,-244.62 189.55,-229.64"/>
<polygon fill="black" stroke="black" points="192.57,-227.84 183.81,-221.88 186.94,-232 192.57,-227.84"/>
<text text-anchor="middle" x="243.96" y="-244.3" font-family="Times New Roman,serif" font-size="14.00">merge2#132</text>
</g>
<!-- 119&#45;&gt;70 -->
<g id="edge1" class="edge">
<title>119&#45;&gt;70</title>
<path fill="none" stroke="black" d="M213.64,-1254.21C202.96,-1251.83 179.21,-1245.2 165.12,-1231.1 158.58,-1224.55 153.73,-1215.81 150.22,-1207.39"/>
<polygon fill="black" stroke="black" points="153.57,-1206.35 146.86,-1198.15 146.99,-1208.74 153.57,-1206.35"/>
<text text-anchor="middle" x="193.62" y="-1217.8" font-family="Times New Roman,serif" font-size="14.00">split1#129</text>
</g>
<!-- 119&#45;&gt;84 -->
<g id="edge2" class="edge">
<title>119&#45;&gt;84</title>
<path fill="none" stroke="black" d="M220.57,-1250.33C223.74,-1239.43 231.42,-1212.99 236.44,-1195.71"/>
<polygon fill="black" stroke="black" points="239.8,-1196.72 239.22,-1186.14 233.07,-1194.76 239.8,-1196.72"/>
<text text-anchor="middle" x="259.28" y="-1217.8" font-family="Times New Roman,serif" font-size="14.00">split2#130</text>
</g>
<!-- 59 -->
<g id="node37" class="node">
<title>59</title>
<polygon fill="yellow" stroke="black" points="541.88,-1317.5 470.38,-1317.5 470.38,-1281.5 541.88,-1281.5 541.88,-1317.5"/>
<text text-anchor="middle" x="506.12" y="-1294.45" font-family="Times New Roman,serif" font-size="14.00">result = D</text>
<text text-anchor="middle" x="459.12" y="-1320.7" font-family="Times New Roman,serif" font-size="14.00">[59]</text>
</g>
<!-- 56&#45;&gt;59 -->
<g id="edge5" class="edge">
<title>56&#45;&gt;59</title>
<path fill="none" stroke="black" d="M477.07,-1402.11C482.56,-1382.91 491.5,-1351.63 498.02,-1328.84"/>
<polygon fill="black" stroke="black" points="501.37,-1329.84 500.76,-1319.27 494.64,-1327.92 501.37,-1329.84"/>
<text text-anchor="middle" x="526.72" y="-1371.1" font-family="Times New Roman,serif" font-size="14.00">graphAnd#134</text>
</g>
<!-- 122 -->
<g id="node36" class="node">
<title>122</title>
<polygon fill="aquamarine" stroke="black" points="180.12,-156.2 172.93,-149 180.12,-141.8 187.32,-149 180.12,-156.2"/>
<text text-anchor="middle" x="154.55" y="-159.4" font-family="Times New Roman,serif" font-size="14.00">&lt;122&gt;</text>
</g>
<!-- 120&#45;&gt;122 -->
<g id="edge10" class="edge">
<title>120&#45;&gt;122</title>
<path fill="none" stroke="black" d="M180.12,-208.44C180.12,-199.11 180.12,-181.51 180.12,-168.05"/>
<polygon fill="black" stroke="black" points="183.63,-168.34 180.13,-158.34 176.63,-168.34 183.63,-168.34"/>
<text text-anchor="middle" x="214.25" y="-177.4" font-family="Times New Roman,serif" font-size="14.00">merge2#140</text>
</g>
<!-- 121&#45;&gt;67 -->
<g id="edge8" class="edge">
<title>121&#45;&gt;67</title>
<path fill="none" stroke="black" d="M253.12,-1598.25C253.12,-1583.71 253.12,-1549.31 253.12,-1527.98"/>
<polygon fill="black" stroke="black" points="256.63,-1528.2 253.13,-1518.2 249.63,-1528.2 256.63,-1528.2"/>
<text text-anchor="middle" x="281.62" y="-1557.85" font-family="Times New Roman,serif" font-size="14.00">split2#138</text>
</g>
<!-- 121&#45;&gt;53 -->
<g id="edge7" class="edge">
<title>121&#45;&gt;53</title>
<path fill="none" stroke="black" d="M258.41,-1603.56C269.27,-1600.26 294.72,-1591.95 314.12,-1580.9 337.27,-1567.73 361,-1549.26 378.57,-1534.47"/>
<polygon fill="black" stroke="black" points="380.69,-1537.26 386.01,-1528.09 376.13,-1531.94 380.69,-1537.26"/>
<text text-anchor="middle" x="392.05" y="-1557.85" font-family="Times New Roman,serif" font-size="14.00">split1#137</text>
</g>
<!-- 122&#45;&gt;124 -->
<g id="edge16" class="edge">
<title>122&#45;&gt;124</title>
<path fill="none" stroke="black" d="M175.76,-145.54C159.96,-136.62 105.36,-105.8 79.25,-91.07"/>
<polygon fill="black" stroke="black" points="81.24,-88.18 70.82,-86.31 77.8,-94.27 81.24,-88.18"/>
<text text-anchor="middle" x="170.43" y="-110.5" font-family="Times New Roman,serif" font-size="14.00">merge2#148</text>
</g>
<!-- 59&#45;&gt;122 -->
<g id="edge9" class="edge">
<title>59&#45;&gt;122</title>
<path fill="none" stroke="black" d="M510.89,-1281.15C514.6,-1266.12 519.12,-1243.71 519.12,-1223.85 519.12,-1223.85 519.12,-1223.85 519.12,-214.9 519.12,-149.04 269.15,-148.43 198.51,-149.58"/>
<polygon fill="black" stroke="black" points="198.65,-146.07 188.72,-149.77 198.79,-153.07 198.65,-146.07"/>
<text text-anchor="middle" x="553.25" y="-710.5" font-family="Times New Roman,serif" font-size="14.00">merge1#139</text>
</g>
<!-- 123&#45;&gt;44 -->
<g id="edge13" class="edge">
<title>123&#45;&gt;44</title>
<path fill="none" stroke="black" d="M154.97,-1757.18C150.72,-1752.64 142.99,-1744.14 137.12,-1736.3 131.31,-1728.53 125.44,-1719.74 120.3,-1711.65"/>
<polygon fill="black" stroke="black" points="123.29,-1709.83 115.03,-1703.2 117.35,-1713.54 123.29,-1709.83"/>
<text text-anchor="middle" x="165.62" y="-1723" font-family="Times New Roman,serif" font-size="14.00">split1#145</text>
</g>
<!-- 123&#45;&gt;50 -->
<g id="edge14" class="edge">
<title>123&#45;&gt;50</title>
<path fill="none" stroke="black" d="M162.19,-1758.32C169.18,-1754.45 183.72,-1745.9 194.12,-1736.3 202.18,-1728.87 209.96,-1719.78 216.53,-1711.31"/>
<polygon fill="black" stroke="black" points="219.29,-1713.46 222.48,-1703.36 213.69,-1709.26 219.29,-1713.46"/>
<text text-anchor="middle" x="237.52" y="-1723" font-family="Times New Roman,serif" font-size="14.00">split2#146</text>
</g>
<!-- 124&#45;&gt;114 -->
<g id="edge17" class="edge">
<title>124&#45;&gt;114</title>
<path fill="none" stroke="black" d="M65.12,-74.24C65.12,-64.87 65.12,-47.63 65.12,-33.7"/>
<polygon fill="black" stroke="black" points="68.63,-34.11 65.13,-24.11 61.63,-34.11 68.63,-34.11"/>
<text text-anchor="middle" x="114.25" y="-43.6" font-family="Times New Roman,serif" font-size="14.00">graphOr_end#149</text>
</g>
<!-- 125 -->
<g id="node40" class="node">
<title>125</title>
<ellipse fill="black" stroke="black" cx="158.12" cy="-1989.9" rx="7.2" ry="7.2"/>
<text text-anchor="middle" x="143.05" y="-2000.3" font-family="Times New Roman,serif" font-size="14.00">[0]</text>
</g>
<!-- 126 -->
<g id="node41" class="node">
<title>126</title>
<polygon fill="yellow" stroke="black" points="214.12,-1945.7 102.12,-1945.7 102.12,-1909.7 214.12,-1909.7 214.12,-1945.7"/>
<text text-anchor="middle" x="158.12" y="-1922.65" font-family="Times New Roman,serif" font-size="14.00">self.number &gt;= 0</text>
<text text-anchor="middle" x="87.5" y="-1948.9" font-family="Times New Roman,serif" font-size="14.00">[126]</text>
</g>
<!-- 125&#45;&gt;126 -->
<g id="edge18" class="edge">
<title>125&#45;&gt;126</title>
<path fill="none" stroke="black" d="M158.12,-1982.46C158.12,-1976.4 158.12,-1966.89 158.12,-1957.54"/>
<polygon fill="black" stroke="black" points="161.63,-1957.58 158.13,-1947.58 154.63,-1957.58 161.63,-1957.58"/>
</g>
<!-- 126&#45;&gt;129 -->
<g id="edge19" class="edge">
<title>126&#45;&gt;129</title>
<path fill="none" stroke="black" d="M158.12,-1909.61C158.12,-1897.96 158.12,-1882.25 158.12,-1868.72"/>
<polygon fill="black" stroke="black" points="161.63,-1869.06 158.13,-1859.06 154.63,-1869.06 161.63,-1869.06"/>
<text text-anchor="middle" x="198.62" y="-1878.4" font-family="Times New Roman,serif" font-size="14.00">graphAnd#154</text>
</g>
<!-- 62&#45;&gt;68 -->
<g id="edge24" class="edge">
<title>62&#45;&gt;68</title>
<path fill="none" stroke="black" d="M308.86,-1402.08C302.8,-1391 293.65,-1377.03 282.12,-1367.9 268.49,-1357.09 249.47,-1350.68 235.9,-1347.2"/>
<polygon fill="black" stroke="black" points="236.92,-1343.84 226.4,-1345.05 235.38,-1350.67 236.92,-1343.84"/>
<text text-anchor="middle" x="328.01" y="-1371.1" font-family="Times New Roman,serif" font-size="14.00">merge1#65</text>
</g>
</g>
</svg>
