<?xml version="1.0" encoding="UTF-8" standalone="no"?>
<!DOCTYPE svg PUBLIC "-//W3C//DTD SVG 1.1//EN"
 "http://www.w3.org/Graphics/SVG/1.1/DTD/svg11.dtd">
<!-- Generated by graphviz version 12.2.1 (20241206.2353)
 -->
<!-- Title: CLG Pages: 1 -->
<svg width="559pt" height="1737pt"
 viewBox="0.00 0.00 559.38 1736.50" xmlns="http://www.w3.org/2000/svg" xmlns:xlink="http://www.w3.org/1999/xlink">
<g id="graph0" class="graph" transform="scale(1 1) rotate(0) translate(4 1732.5)">
<title>CLG</title>
<polygon fill="white" stroke="none" points="-4,4 -4,-1732.5 555.38,-1732.5 555.38,4 -4,4"/>
<!-- 7 -->
<g id="node1" class="node">
<title>7</title>
<polygon fill="yellow" stroke="black" points="141.25,-1194.7 15.75,-1194.7 15.75,-1158.7 141.25,-1158.7 141.25,-1194.7"/>
<text text-anchor="middle" x="78.5" y="-1171.65" font-family="Times New Roman,serif" font-size="14.00">Result = &#39;Exception&#39;</text>
<text text-anchor="middle" x="7.88" y="-1197.9" font-family="Times New Roman,serif" font-size="14.00">[7]</text>
</g>
<!-- 61 -->
<g id="node25" class="node">
<title>61</title>
<polygon fill="aquamarine" stroke="black" points="96.5,-89.3 89.3,-82.1 96.5,-74.9 103.7,-82.1 96.5,-89.3"/>
<text text-anchor="middle" x="74.3" y="-92.5" font-family="Times New Roman,serif" font-size="14.00">&lt;61&gt;</text>
</g>
<!-- 7&#45;&gt;61 -->
<g id="edge5" class="edge">
<title>7&#45;&gt;61</title>
<path fill="none" stroke="black" d="M79.23,-1158.21C79.8,-1143.08 80.5,-1120.63 80.5,-1101.05 80.5,-1101.05 80.5,-1101.05 80.5,-169.55 80.5,-144.62 87.01,-116.3 91.73,-99.08"/>
<polygon fill="black" stroke="black" points="95.07,-100.14 94.49,-89.56 88.34,-98.19 95.07,-100.14"/>
<text text-anchor="middle" x="111.25" y="-564.7" font-family="Times New Roman,serif" font-size="14.00">merge2#68</text>
</g>
<!-- 8 -->
<g id="node2" class="node">
<title>8</title>
<ellipse fill="black" stroke="black" cx="96.5" cy="-11.2" rx="7.2" ry="7.2"/>
<ellipse fill="none" stroke="black" cx="96.5" cy="-11.2" rx="11.2" ry="11.2"/>
<text text-anchor="middle" x="75.17" y="-25.6" font-family="Times New Roman,serif" font-size="14.00">[&#45;1]</text>
</g>
<!-- 10 -->
<g id="node3" class="node">
<title>10</title>
<polygon fill="yellow" stroke="black" points="157.5,-1578.2 69.5,-1578.2 69.5,-1372.2 157.5,-1372.2 157.5,-1578.2"/>
<text text-anchor="middle" x="113.5" y="-1560.9" font-family="Times New Roman,serif" font-size="14.00">y &lt; 1 or</text>
<text text-anchor="middle" x="113.5" y="-1544.4" font-family="Times New Roman,serif" font-size="14.00">y &gt; 3999 or</text>
<text text-anchor="middle" x="113.5" y="-1527.9" font-family="Times New Roman,serif" font-size="14.00">m &lt; 1 or</text>
<text text-anchor="middle" x="113.5" y="-1511.4" font-family="Times New Roman,serif" font-size="14.00">m &gt; 12 or</text>
<text text-anchor="middle" x="113.5" y="-1494.9" font-family="Times New Roman,serif" font-size="14.00">d &lt; 1 or</text>
<text text-anchor="middle" x="113.5" y="-1478.4" font-family="Times New Roman,serif" font-size="14.00">m &lt;&gt; 1 and</text>
<text text-anchor="middle" x="113.5" y="-1461.9" font-family="Times New Roman,serif" font-size="14.00">m &lt;&gt; 3 and</text>
<text text-anchor="middle" x="113.5" y="-1445.4" font-family="Times New Roman,serif" font-size="14.00">m &lt;&gt; 5 and</text>
<text text-anchor="middle" x="113.5" y="-1428.9" font-family="Times New Roman,serif" font-size="14.00">m &lt;&gt; 7 and</text>
<text text-anchor="middle" x="113.5" y="-1412.4" font-family="Times New Roman,serif" font-size="14.00">m &lt;&gt; 8 and</text>
<text text-anchor="middle" x="113.5" y="-1395.9" font-family="Times New Roman,serif" font-size="14.00">m &lt;&gt; 10 and</text>
<text text-anchor="middle" x="113.5" y="-1379.4" font-family="Times New Roman,serif" font-size="14.00">m &lt;&gt; 12</text>
<text text-anchor="middle" x="58.25" y="-1581.4" font-family="Times New Roman,serif" font-size="14.00">[10]</text>
</g>
<!-- 10&#45;&gt;7 -->
<g id="edge26" class="edge">
<title>10&#45;&gt;7</title>
<path fill="none" stroke="black" d="M99.93,-1372.02C97.71,-1354.57 95.49,-1336.62 93.5,-1319.7 88.87,-1280.28 84.16,-1234.62 81.29,-1205.94"/>
<polygon fill="black" stroke="black" points="84.8,-1205.87 80.32,-1196.27 77.83,-1206.57 84.8,-1205.87"/>
<text text-anchor="middle" x="134.66" y="-1340.9" font-family="Times New Roman,serif" font-size="14.00">graphAnd#57</text>
</g>
<!-- 13 -->
<g id="node4" class="node">
<title>13</title>
<polygon fill="yellow" stroke="black" points="208.25,-1073.8 136.75,-1073.8 136.75,-950.3 208.25,-950.3 208.25,-1073.8"/>
<text text-anchor="middle" x="172.5" y="-1056.5" font-family="Times New Roman,serif" font-size="14.00">m = 1 or</text>
<text text-anchor="middle" x="172.5" y="-1040" font-family="Times New Roman,serif" font-size="14.00">m = 3 or</text>
<text text-anchor="middle" x="172.5" y="-1023.5" font-family="Times New Roman,serif" font-size="14.00">m = 5 or</text>
<text text-anchor="middle" x="172.5" y="-1007" font-family="Times New Roman,serif" font-size="14.00">m = 7 or</text>
<text text-anchor="middle" x="172.5" y="-990.5" font-family="Times New Roman,serif" font-size="14.00">m = 8 or</text>
<text text-anchor="middle" x="172.5" y="-974" font-family="Times New Roman,serif" font-size="14.00">m = 10 or</text>
<text text-anchor="middle" x="172.5" y="-957.5" font-family="Times New Roman,serif" font-size="14.00">m = 12</text>
<text text-anchor="middle" x="125.5" y="-1077" font-family="Times New Roman,serif" font-size="14.00">[13]</text>
</g>
<!-- 16 -->
<g id="node5" class="node">
<title>16</title>
<polygon fill="yellow" stroke="black" points="202.62,-865.4 142.38,-865.4 142.38,-829.4 202.62,-829.4 202.62,-865.4"/>
<text text-anchor="middle" x="172.5" y="-842.35" font-family="Times New Roman,serif" font-size="14.00">d &lt;= 31</text>
<text text-anchor="middle" x="131.12" y="-868.6" font-family="Times New Roman,serif" font-size="14.00">[16]</text>
</g>
<!-- 13&#45;&gt;16 -->
<g id="edge19" class="edge">
<title>13&#45;&gt;16</title>
<path fill="none" stroke="black" d="M172.5,-950.02C172.5,-925.09 172.5,-897.44 172.5,-877.28"/>
<polygon fill="black" stroke="black" points="176,-877.3 172.5,-867.3 169,-877.3 176,-877.3"/>
<text text-anchor="middle" x="209.62" y="-919" font-family="Times New Roman,serif" font-size="14.00">graphAnd#44</text>
</g>
<!-- 47 -->
<g id="node19" class="node">
<title>47</title>
<polygon fill="aquamarine" stroke="black" points="171.5,-266.2 164.3,-259 171.5,-251.8 178.7,-259 171.5,-266.2"/>
<text text-anchor="middle" x="149.3" y="-269.4" font-family="Times New Roman,serif" font-size="14.00">&lt;47&gt;</text>
</g>
<!-- 16&#45;&gt;47 -->
<g id="edge23" class="edge">
<title>16&#45;&gt;47</title>
<path fill="none" stroke="black" d="M172.29,-829.02C171.99,-803.43 171.5,-754.1 171.5,-712.15 171.5,-712.15 171.5,-712.15 171.5,-324.9 171.5,-309.18 171.5,-291.31 171.5,-278.31"/>
<polygon fill="black" stroke="black" points="175,-278.33 171.5,-268.33 168,-278.33 175,-278.33"/>
<text text-anchor="middle" x="202.25" y="-509.7" font-family="Times New Roman,serif" font-size="14.00">merge1#49</text>
</g>
<!-- 19 -->
<g id="node6" class="node">
<title>19</title>
<polygon fill="yellow" stroke="black" points="314.5,-1073.8 226.5,-1073.8 226.5,-950.3 314.5,-950.3 314.5,-1073.8"/>
<text text-anchor="middle" x="270.5" y="-1056.5" font-family="Times New Roman,serif" font-size="14.00">m &lt;&gt; 1 and</text>
<text text-anchor="middle" x="270.5" y="-1040" font-family="Times New Roman,serif" font-size="14.00">m &lt;&gt; 3 and</text>
<text text-anchor="middle" x="270.5" y="-1023.5" font-family="Times New Roman,serif" font-size="14.00">m &lt;&gt; 5 and</text>
<text text-anchor="middle" x="270.5" y="-1007" font-family="Times New Roman,serif" font-size="14.00">m &lt;&gt; 7 and</text>
<text text-anchor="middle" x="270.5" y="-990.5" font-family="Times New Roman,serif" font-size="14.00">m &lt;&gt; 8 and</text>
<text text-anchor="middle" x="270.5" y="-974" font-family="Times New Roman,serif" font-size="14.00">m &lt;&gt; 10 and</text>
<text text-anchor="middle" x="270.5" y="-957.5" font-family="Times New Roman,serif" font-size="14.00">m &lt;&gt; 12</text>
<text text-anchor="middle" x="215.25" y="-1077" font-family="Times New Roman,serif" font-size="14.00">[19]</text>
</g>
<!-- 44 -->
<g id="node16" class="node">
<title>44</title>
<polygon fill="aquamarine" stroke="black" points="270.5,-897.8 263.3,-890.6 270.5,-883.4 277.7,-890.6 270.5,-897.8"/>
<text text-anchor="middle" x="248.3" y="-901" font-family="Times New Roman,serif" font-size="14.00">&lt;44&gt;</text>
</g>
<!-- 19&#45;&gt;44 -->
<g id="edge20" class="edge">
<title>19&#45;&gt;44</title>
<path fill="none" stroke="black" d="M270.5,-949.93C270.5,-935.23 270.5,-920.66 270.5,-909.75"/>
<polygon fill="black" stroke="black" points="274,-910.02 270.5,-900.02 267,-910.02 274,-910.02"/>
<text text-anchor="middle" x="307.62" y="-919" font-family="Times New Roman,serif" font-size="14.00">graphAnd#45</text>
</g>
<!-- 22 -->
<g id="node7" class="node">
<title>22</title>
<polygon fill="yellow" stroke="black" points="281.88,-811.4 217.12,-811.4 217.12,-737.4 281.88,-737.4 281.88,-811.4"/>
<text text-anchor="middle" x="249.5" y="-794.1" font-family="Times New Roman,serif" font-size="14.00">m = 4 or</text>
<text text-anchor="middle" x="249.5" y="-777.6" font-family="Times New Roman,serif" font-size="14.00">m = 6 or</text>
<text text-anchor="middle" x="249.5" y="-761.1" font-family="Times New Roman,serif" font-size="14.00">m = 9 or</text>
<text text-anchor="middle" x="249.5" y="-744.6" font-family="Times New Roman,serif" font-size="14.00">m = 11</text>
<text text-anchor="middle" x="205.88" y="-814.6" font-family="Times New Roman,serif" font-size="14.00">[22]</text>
</g>
<!-- 25 -->
<g id="node8" class="node">
<title>25</title>
<polygon fill="yellow" stroke="black" points="278.62,-652.5 218.38,-652.5 218.38,-616.5 278.62,-616.5 278.62,-652.5"/>
<text text-anchor="middle" x="248.5" y="-629.45" font-family="Times New Roman,serif" font-size="14.00">d &lt;= 30</text>
<text text-anchor="middle" x="207.12" y="-655.7" font-family="Times New Roman,serif" font-size="14.00">[25]</text>
</g>
<!-- 22&#45;&gt;25 -->
<g id="edge13" class="edge">
<title>22&#45;&gt;25</title>
<path fill="none" stroke="black" d="M249.24,-737.17C249.07,-714.35 248.86,-685.32 248.71,-664.12"/>
<polygon fill="black" stroke="black" points="252.21,-664.14 248.64,-654.17 245.21,-664.19 252.21,-664.14"/>
<text text-anchor="middle" x="286.23" y="-706.1" font-family="Times New Roman,serif" font-size="14.00">graphAnd#36</text>
</g>
<!-- 45 -->
<g id="node17" class="node">
<title>45</title>
<polygon fill="aquamarine" stroke="black" points="248.5,-333.1 241.3,-325.9 248.5,-318.7 255.7,-325.9 248.5,-333.1"/>
<text text-anchor="middle" x="226.3" y="-336.3" font-family="Times New Roman,serif" font-size="14.00">&lt;45&gt;</text>
</g>
<!-- 25&#45;&gt;45 -->
<g id="edge17" class="edge">
<title>25&#45;&gt;45</title>
<path fill="none" stroke="black" d="M248.5,-616.34C248.5,-593.41 248.5,-551.52 248.5,-515.75 248.5,-515.75 248.5,-515.75 248.5,-391.8 248.5,-376.08 248.5,-358.21 248.5,-345.21"/>
<polygon fill="black" stroke="black" points="252,-345.23 248.5,-335.23 245,-345.23 252,-345.23"/>
<text text-anchor="middle" x="279.25" y="-465.45" font-family="Times New Roman,serif" font-size="14.00">merge1#41</text>
</g>
<!-- 28 -->
<g id="node9" class="node">
<title>28</title>
<polygon fill="yellow" stroke="black" points="384.12,-811.4 302.88,-811.4 302.88,-737.4 384.12,-737.4 384.12,-811.4"/>
<text text-anchor="middle" x="343.5" y="-794.1" font-family="Times New Roman,serif" font-size="14.00">m &lt;&gt; 4 and</text>
<text text-anchor="middle" x="343.5" y="-777.6" font-family="Times New Roman,serif" font-size="14.00">m &lt;&gt; 6 and</text>
<text text-anchor="middle" x="343.5" y="-761.1" font-family="Times New Roman,serif" font-size="14.00">m &lt;&gt; 9 and</text>
<text text-anchor="middle" x="343.5" y="-744.6" font-family="Times New Roman,serif" font-size="14.00">m &lt;&gt; 11</text>
<text text-anchor="middle" x="291.62" y="-814.6" font-family="Times New Roman,serif" font-size="14.00">[28]</text>
</g>
<!-- 42 -->
<g id="node14" class="node">
<title>42</title>
<polygon fill="aquamarine" stroke="black" points="345.5,-684.9 338.3,-677.7 345.5,-670.5 352.7,-677.7 345.5,-684.9"/>
<text text-anchor="middle" x="323.3" y="-688.1" font-family="Times New Roman,serif" font-size="14.00">&lt;42&gt;</text>
</g>
<!-- 28&#45;&gt;42 -->
<g id="edge14" class="edge">
<title>28&#45;&gt;42</title>
<path fill="none" stroke="black" d="M344.27,-737.06C344.56,-723.26 344.88,-708.14 345.12,-696.75"/>
<polygon fill="black" stroke="black" points="348.61,-696.98 345.33,-686.91 341.62,-696.83 348.61,-696.98"/>
<text text-anchor="middle" x="382.09" y="-706.1" font-family="Times New Roman,serif" font-size="14.00">graphAnd#37</text>
</g>
<!-- 31 -->
<g id="node10" class="node">
<title>31</title>
<polygon fill="yellow" stroke="black" points="399.12,-598.5 281.88,-598.5 281.88,-541 399.12,-541 399.12,-598.5"/>
<text text-anchor="middle" x="340.5" y="-581.2" font-family="Times New Roman,serif" font-size="14.00">y.mod(400) = 0 or</text>
<text text-anchor="middle" x="340.5" y="-564.7" font-family="Times New Roman,serif" font-size="14.00">y.mod(4) = 0 and</text>
<text text-anchor="middle" x="340.5" y="-548.2" font-family="Times New Roman,serif" font-size="14.00">y.mod(100) &lt;&gt; 0</text>
<text text-anchor="middle" x="270.62" y="-601.7" font-family="Times New Roman,serif" font-size="14.00">[31]</text>
</g>
<!-- 34 -->
<g id="node11" class="node">
<title>34</title>
<polygon fill="yellow" stroke="black" points="388.62,-488.5 328.38,-488.5 328.38,-452.5 388.62,-452.5 388.62,-488.5"/>
<text text-anchor="middle" x="358.5" y="-465.45" font-family="Times New Roman,serif" font-size="14.00">d &lt;= 29</text>
<text text-anchor="middle" x="317.12" y="-491.7" font-family="Times New Roman,serif" font-size="14.00">[34]</text>
</g>
<!-- 31&#45;&gt;34 -->
<g id="edge7" class="edge">
<title>31&#45;&gt;34</title>
<path fill="none" stroke="black" d="M345.71,-540.62C348.08,-527.82 350.87,-512.7 353.25,-499.88"/>
<polygon fill="black" stroke="black" points="356.63,-500.83 355.01,-490.36 349.75,-499.55 356.63,-500.83"/>
<text text-anchor="middle" x="388.77" y="-509.7" font-family="Times New Roman,serif" font-size="14.00">graphAnd#28</text>
</g>
<!-- 43 -->
<g id="node15" class="node">
<title>43</title>
<polygon fill="aquamarine" stroke="black" points="358.5,-400 351.3,-392.8 358.5,-385.6 365.7,-392.8 358.5,-400"/>
<text text-anchor="middle" x="336.3" y="-403.2" font-family="Times New Roman,serif" font-size="14.00">&lt;43&gt;</text>
</g>
<!-- 34&#45;&gt;43 -->
<g id="edge11" class="edge">
<title>34&#45;&gt;43</title>
<path fill="none" stroke="black" d="M358.5,-452.32C358.5,-440.28 358.5,-424.2 358.5,-411.95"/>
<polygon fill="black" stroke="black" points="362,-412.04 358.5,-402.04 355,-412.04 362,-412.04"/>
<text text-anchor="middle" x="389.25" y="-421.2" font-family="Times New Roman,serif" font-size="14.00">merge1#33</text>
</g>
<!-- 37 -->
<g id="node12" class="node">
<title>37</title>
<polygon fill="yellow" stroke="black" points="551.38,-598.5 417.62,-598.5 417.62,-541 551.38,-541 551.38,-598.5"/>
<text text-anchor="middle" x="484.5" y="-581.2" font-family="Times New Roman,serif" font-size="14.00">y.mod(400) &lt;&gt; 0 and</text>
<text text-anchor="middle" x="484.5" y="-564.7" font-family="Times New Roman,serif" font-size="14.00">y.mod(4) &lt;&gt; 0 or</text>
<text text-anchor="middle" x="484.5" y="-548.2" font-family="Times New Roman,serif" font-size="14.00">y.mod(100) = 0</text>
<text text-anchor="middle" x="406.38" y="-601.7" font-family="Times New Roman,serif" font-size="14.00">[37]</text>
</g>
<!-- 40 -->
<g id="node13" class="node">
<title>40</title>
<polygon fill="yellow" stroke="black" points="482.62,-488.5 422.38,-488.5 422.38,-452.5 482.62,-452.5 482.62,-488.5"/>
<text text-anchor="middle" x="452.5" y="-465.45" font-family="Times New Roman,serif" font-size="14.00">d &lt;= 28</text>
<text text-anchor="middle" x="411.12" y="-491.7" font-family="Times New Roman,serif" font-size="14.00">[40]</text>
</g>
<!-- 37&#45;&gt;40 -->
<g id="edge8" class="edge">
<title>37&#45;&gt;40</title>
<path fill="none" stroke="black" d="M475.24,-540.62C470.99,-527.69 465.96,-512.4 461.71,-499.48"/>
<polygon fill="black" stroke="black" points="465.14,-498.71 458.69,-490.31 458.49,-500.9 465.14,-498.71"/>
<text text-anchor="middle" x="505.62" y="-509.7" font-family="Times New Roman,serif" font-size="14.00">graphAnd#29</text>
</g>
<!-- 40&#45;&gt;43 -->
<g id="edge12" class="edge">
<title>40&#45;&gt;43</title>
<path fill="none" stroke="black" d="M446.72,-452.12C442.22,-441.01 434.98,-427.04 424.5,-418 410.5,-405.91 389.93,-399.65 375.49,-396.56"/>
<polygon fill="black" stroke="black" points="376.26,-393.14 365.8,-394.8 375.02,-400.03 376.26,-393.14"/>
<text text-anchor="middle" x="468.37" y="-421.2" font-family="Times New Roman,serif" font-size="14.00">merge2#34</text>
</g>
<!-- 42&#45;&gt;31 -->
<g id="edge9" class="edge">
<title>42&#45;&gt;31</title>
<path fill="none" stroke="black" d="M345.2,-670.39C344.65,-658.63 343.41,-632.51 342.35,-609.96"/>
<polygon fill="black" stroke="black" points="345.85,-609.93 341.89,-600.1 338.86,-610.26 345.85,-609.93"/>
<text text-anchor="middle" x="369.42" y="-629.45" font-family="Times New Roman,serif" font-size="14.00">split1#31</text>
</g>
<!-- 42&#45;&gt;37 -->
<g id="edge10" class="edge">
<title>42&#45;&gt;37</title>
<path fill="none" stroke="black" d="M350.46,-675.06C360.19,-671.72 382.24,-663.49 398.5,-652.5 417.51,-639.66 436.26,-622.51 451.37,-607.25"/>
<polygon fill="black" stroke="black" points="453.87,-609.7 458.32,-600.08 448.85,-604.82 453.87,-609.7"/>
<text text-anchor="middle" x="466.1" y="-629.45" font-family="Times New Roman,serif" font-size="14.00">split2#32</text>
</g>
<!-- 43&#45;&gt;45 -->
<g id="edge18" class="edge">
<title>43&#45;&gt;45</title>
<path fill="none" stroke="black" d="M354.32,-389.34C339.28,-380.46 287.45,-349.88 262.35,-335.07"/>
<polygon fill="black" stroke="black" points="264.38,-332.2 253.99,-330.14 260.82,-338.23 264.38,-332.2"/>
<text text-anchor="middle" x="347.34" y="-354.3" font-family="Times New Roman,serif" font-size="14.00">merge2#42</text>
</g>
<!-- 44&#45;&gt;22 -->
<g id="edge15" class="edge">
<title>44&#45;&gt;22</title>
<path fill="none" stroke="black" d="M269.23,-884.04C268.12,-879.14 266.51,-871.81 265.25,-865.4 262.56,-851.66 259.85,-836.69 257.46,-822.98"/>
<polygon fill="black" stroke="black" points="260.94,-822.56 255.79,-813.3 254.04,-823.75 260.94,-822.56"/>
<text text-anchor="middle" x="290.38" y="-842.35" font-family="Times New Roman,serif" font-size="14.00">split1#39</text>
</g>
<!-- 44&#45;&gt;28 -->
<g id="edge16" class="edge">
<title>44&#45;&gt;28</title>
<path fill="none" stroke="black" d="M275.79,-888.2C285.18,-885.44 304.78,-878.4 315.5,-865.4 325.45,-853.33 331.88,-837.72 336.02,-822.89"/>
<polygon fill="black" stroke="black" points="339.4,-823.8 338.4,-813.25 332.61,-822.12 339.4,-823.8"/>
<text text-anchor="middle" x="358.43" y="-842.35" font-family="Times New Roman,serif" font-size="14.00">split2#40</text>
</g>
<!-- 45&#45;&gt;47 -->
<g id="edge24" class="edge">
<title>45&#45;&gt;47</title>
<path fill="none" stroke="black" d="M244.79,-321.77C233.89,-312.58 201.64,-285.41 183.77,-270.34"/>
<polygon fill="black" stroke="black" points="186.06,-267.69 176.16,-263.92 181.55,-273.05 186.06,-267.69"/>
<text text-anchor="middle" x="249.91" y="-287.4" font-family="Times New Roman,serif" font-size="14.00">merge2#50</text>
</g>
<!-- 46 -->
<g id="node18" class="node">
<title>46</title>
<polygon fill="aquamarine" stroke="black" points="270.5,-1140.7 263.3,-1133.5 270.5,-1126.3 277.7,-1133.5 270.5,-1140.7"/>
<text text-anchor="middle" x="248.3" y="-1143.9" font-family="Times New Roman,serif" font-size="14.00">&lt;46&gt;</text>
</g>
<!-- 46&#45;&gt;13 -->
<g id="edge21" class="edge">
<title>46&#45;&gt;13</title>
<path fill="none" stroke="black" d="M265,-1131.4C254.29,-1129.01 230.47,-1122.37 216.25,-1108.3 209.2,-1101.33 203.17,-1093.01 198.04,-1084.23"/>
<polygon fill="black" stroke="black" points="201.17,-1082.65 193.35,-1075.5 195,-1085.97 201.17,-1082.65"/>
<text text-anchor="middle" x="241.38" y="-1095" font-family="Times New Roman,serif" font-size="14.00">split1#47</text>
</g>
<!-- 46&#45;&gt;19 -->
<g id="edge22" class="edge">
<title>46&#45;&gt;19</title>
<path fill="none" stroke="black" d="M270.5,-1125.74C270.5,-1117.31 270.5,-1101.99 270.5,-1085.3"/>
<polygon fill="black" stroke="black" points="274,-1085.71 270.5,-1075.71 267,-1085.71 274,-1085.71"/>
<text text-anchor="middle" x="295.62" y="-1095" font-family="Times New Roman,serif" font-size="14.00">split2#48</text>
</g>
<!-- 52 -->
<g id="node21" class="node">
<title>52</title>
<polygon fill="yellow" stroke="black" points="215.25,-199.3 113.75,-199.3 113.75,-141.8 215.25,-141.8 215.25,-199.3"/>
<text text-anchor="middle" x="164.5" y="-182" font-family="Times New Roman,serif" font-size="14.00">year = y and</text>
<text text-anchor="middle" x="164.5" y="-165.5" font-family="Times New Roman,serif" font-size="14.00">month = m and</text>
<text text-anchor="middle" x="164.5" y="-149" font-family="Times New Roman,serif" font-size="14.00">day = d</text>
<text text-anchor="middle" x="102.5" y="-202.5" font-family="Times New Roman,serif" font-size="14.00">[52]</text>
</g>
<!-- 47&#45;&gt;52 -->
<g id="edge27" class="edge">
<title>47&#45;&gt;52</title>
<path fill="none" stroke="black" d="M171,-251.78C170.3,-243.12 168.97,-226.71 167.69,-210.98"/>
<polygon fill="black" stroke="black" points="171.2,-210.96 166.91,-201.27 164.23,-211.52 171.2,-210.96"/>
<text text-anchor="middle" x="206.56" y="-220.5" font-family="Times New Roman,serif" font-size="14.00">graphAnd#58</text>
</g>
<!-- 49 -->
<g id="node20" class="node">
<title>49</title>
<polygon fill="yellow" stroke="black" points="440,-1319.7 103,-1319.7 103,-1212.7 440,-1212.7 440,-1319.7"/>
<text text-anchor="middle" x="271.5" y="-1302.4" font-family="Times New Roman,serif" font-size="14.00">y &gt;= 1 and</text>
<text text-anchor="middle" x="271.5" y="-1285.9" font-family="Times New Roman,serif" font-size="14.00">y &lt;= 3999 and</text>
<text text-anchor="middle" x="271.5" y="-1269.4" font-family="Times New Roman,serif" font-size="14.00">m &gt;= 1 and</text>
<text text-anchor="middle" x="271.5" y="-1252.9" font-family="Times New Roman,serif" font-size="14.00">m &lt;= 12 and</text>
<text text-anchor="middle" x="271.5" y="-1236.4" font-family="Times New Roman,serif" font-size="14.00">d &gt;= 1 and</text>
<text text-anchor="middle" x="271.5" y="-1219.9" font-family="Times New Roman,serif" font-size="14.00">IfExp ConditionNode:(75) thenNode: (78) elseNode: (121)</text>
<text text-anchor="middle" x="91.75" y="-1322.9" font-family="Times New Roman,serif" font-size="14.00">[49]</text>
</g>
<!-- 49&#45;&gt;46 -->
<g id="edge25" class="edge">
<title>49&#45;&gt;46</title>
<path fill="none" stroke="black" d="M271.1,-1212.42C270.93,-1191.16 270.76,-1168.05 270.64,-1152.57"/>
<polygon fill="black" stroke="black" points="274.14,-1152.65 270.56,-1142.67 267.14,-1152.7 274.14,-1152.65"/>
<text text-anchor="middle" x="308.07" y="-1171.65" font-family="Times New Roman,serif" font-size="14.00">graphAnd#54</text>
</g>
<!-- 52&#45;&gt;61 -->
<g id="edge4" class="edge">
<title>52&#45;&gt;61</title>
<path fill="none" stroke="black" d="M142.61,-141.72C130.48,-126.3 115.99,-107.88 106.53,-95.85"/>
<polygon fill="black" stroke="black" points="109.34,-93.77 100.41,-88.07 103.84,-98.09 109.34,-93.77"/>
<text text-anchor="middle" x="159.21" y="-110.5" font-family="Times New Roman,serif" font-size="14.00">merge1#67</text>
</g>
<!-- 57 -->
<g id="node22" class="node">
<title>57</title>
<ellipse fill="black" stroke="black" cx="172.5" cy="-1704.8" rx="7.2" ry="7.2"/>
<text text-anchor="middle" x="157.43" y="-1715.2" font-family="Times New Roman,serif" font-size="14.00">[0]</text>
</g>
<!-- 60 -->
<g id="node24" class="node">
<title>60</title>
<polygon fill="aquamarine" stroke="black" points="172.5,-1645.1 165.3,-1637.9 172.5,-1630.7 179.7,-1637.9 172.5,-1645.1"/>
<text text-anchor="middle" x="150.3" y="-1648.3" font-family="Times New Roman,serif" font-size="14.00">&lt;60&gt;</text>
</g>
<!-- 57&#45;&gt;60 -->
<g id="edge1" class="edge">
<title>57&#45;&gt;60</title>
<path fill="none" stroke="black" d="M172.5,-1697.34C172.5,-1688.01 172.5,-1670.41 172.5,-1656.95"/>
<polygon fill="black" stroke="black" points="176,-1657.24 172.5,-1647.24 169,-1657.24 176,-1657.24"/>
<text text-anchor="middle" x="220.12" y="-1666.3" font-family="Times New Roman,serif" font-size="14.00">graphOr_start#64</text>
</g>
<!-- 58 -->
<g id="node23" class="node">
<title>58</title>
<polygon fill="yellow" stroke="black" points="308.25,-1528.7 194.75,-1528.7 194.75,-1421.7 308.25,-1421.7 308.25,-1528.7"/>
<text text-anchor="middle" x="251.5" y="-1511.4" font-family="Times New Roman,serif" font-size="14.00">year &gt;= 1 and</text>
<text text-anchor="middle" x="251.5" y="-1494.9" font-family="Times New Roman,serif" font-size="14.00">year &lt;= 3999 and</text>
<text text-anchor="middle" x="251.5" y="-1478.4" font-family="Times New Roman,serif" font-size="14.00">month &gt;= 1 and</text>
<text text-anchor="middle" x="251.5" y="-1461.9" font-family="Times New Roman,serif" font-size="14.00">month &lt;= 12 and</text>
<text text-anchor="middle" x="251.5" y="-1445.4" font-family="Times New Roman,serif" font-size="14.00">day &lt;= 31 and</text>
<text text-anchor="middle" x="251.5" y="-1428.9" font-family="Times New Roman,serif" font-size="14.00">day &gt;= 1</text>
<text text-anchor="middle" x="183.5" y="-1531.9" font-family="Times New Roman,serif" font-size="14.00">[58]</text>
</g>
<!-- 58&#45;&gt;49 -->
<g id="edge28" class="edge">
<title>58&#45;&gt;49</title>
<path fill="none" stroke="black" d="M256.6,-1421.43C259.26,-1393.94 262.52,-1360.1 265.32,-1331.13"/>
<polygon fill="black" stroke="black" points="268.79,-1331.67 266.27,-1321.38 261.82,-1331 268.79,-1331.67"/>
<text text-anchor="middle" x="301.58" y="-1340.9" font-family="Times New Roman,serif" font-size="14.00">graphAnd#63</text>
</g>
<!-- 60&#45;&gt;10 -->
<g id="edge3" class="edge">
<title>60&#45;&gt;10</title>
<path fill="none" stroke="black" d="M169.8,-1632.93C166.71,-1628.25 161.62,-1620.16 158.25,-1612.7 154.82,-1605.12 151.53,-1597.19 148.39,-1589.14"/>
<polygon fill="black" stroke="black" points="151.71,-1588.02 144.89,-1579.91 145.17,-1590.51 151.71,-1588.02"/>
<text text-anchor="middle" x="183.38" y="-1599.4" font-family="Times New Roman,serif" font-size="14.00">split2#66</text>
</g>
<!-- 60&#45;&gt;58 -->
<g id="edge2" class="edge">
<title>60&#45;&gt;58</title>
<path fill="none" stroke="black" d="M176.98,-1635.08C184.58,-1631.77 200.02,-1624.04 208.5,-1612.7 224.31,-1591.56 234.4,-1564.46 240.8,-1539.99"/>
<polygon fill="black" stroke="black" points="244.16,-1540.97 243.13,-1530.43 237.36,-1539.32 244.16,-1540.97"/>
<text text-anchor="middle" x="244.08" y="-1599.4" font-family="Times New Roman,serif" font-size="14.00">split1#65</text>
</g>
<!-- 61&#45;&gt;8 -->
<g id="edge6" class="edge">
<title>61&#45;&gt;8</title>
<path fill="none" stroke="black" d="M96.5,-74.24C96.5,-64.87 96.5,-47.63 96.5,-33.7"/>
<polygon fill="black" stroke="black" points="100,-34.11 96.5,-24.11 93,-34.11 100,-34.11"/>
<text text-anchor="middle" x="142.25" y="-43.6" font-family="Times New Roman,serif" font-size="14.00">graphOr_end#69</text>
</g>
</g>
</svg>
