<?xml version="1.0" encoding="UTF-8" standalone="no"?>
<!DOCTYPE svg PUBLIC "-//W3C//DTD SVG 1.1//EN"
 "http://www.w3.org/Graphics/SVG/1.1/DTD/svg11.dtd">
<!-- Generated by graphviz version 12.2.1 (20241206.2353)
 -->
<!-- Title: CLG Pages: 1 -->
<svg width="269pt" height="265pt"
 viewBox="0.00 0.00 269.25 264.80" xmlns="http://www.w3.org/2000/svg" xmlns:xlink="http://www.w3.org/1999/xlink">
<g id="graph0" class="graph" transform="scale(1 1) rotate(0) translate(4 260.8)">
<title>CLG</title>
<polygon fill="white" stroke="none" points="-4,4 -4,-260.8 265.25,-260.8 265.25,4 -4,4"/>
<!-- 138 -->
<g id="node1" class="node">
<title>138</title>
<polygon fill="yellow" stroke="black" points="199,-95.4 91.5,-95.4 91.5,-59.4 199,-59.4 199,-95.4"/>
<text text-anchor="middle" x="145.25" y="-72.35" font-family="Times New Roman,serif" font-size="14.00">result = self.data</text>
<text text-anchor="middle" x="76.88" y="-98.6" font-family="Times New Roman,serif" font-size="14.00">[138]</text>
</g>
<!-- 139 -->
<g id="node2" class="node">
<title>139</title>
<ellipse fill="black" stroke="black" cx="145.25" cy="-11.2" rx="7.2" ry="7.2"/>
<ellipse fill="none" stroke="black" cx="145.25" cy="-11.2" rx="11.2" ry="11.2"/>
<text text-anchor="middle" x="123.92" y="-25.6" font-family="Times New Roman,serif" font-size="14.00">[&#45;1]</text>
</g>
<!-- 138&#45;&gt;139 -->
<g id="edge1" class="edge">
<title>138&#45;&gt;139</title>
<path fill="none" stroke="black" d="M145.25,-59.2C145.25,-51.5 145.25,-42.34 145.25,-34.15"/>
<polygon fill="black" stroke="black" points="148.75,-34.32 145.25,-24.32 141.75,-34.32 148.75,-34.32"/>
</g>
<!-- 140 -->
<g id="node3" class="node">
<title>140</title>
<ellipse fill="black" stroke="black" cx="145.25" cy="-233.1" rx="7.2" ry="7.2"/>
<text text-anchor="middle" x="130.18" y="-243.5" font-family="Times New Roman,serif" font-size="14.00">[0]</text>
</g>
<!-- 141 -->
<g id="node4" class="node">
<title>141</title>
<polygon fill="yellow" stroke="black" points="261.25,-188.9 29.25,-188.9 29.25,-147.9 261.25,-147.9 261.25,-188.9"/>
<text text-anchor="middle" x="145.25" y="-171.6" font-family="Times New Roman,serif" font-size="14.00">self.data.getDimensionSizes(1) &gt; 0 and</text>
<text text-anchor="middle" x="145.25" y="-155.1" font-family="Times New Roman,serif" font-size="14.00">self.data.getDimensionSizes(2) &gt; 0</text>
<text text-anchor="middle" x="14.62" y="-192.1" font-family="Times New Roman,serif" font-size="14.00">[141]</text>
</g>
<!-- 140&#45;&gt;141 -->
<g id="edge2" class="edge">
<title>140&#45;&gt;141</title>
<path fill="none" stroke="black" d="M145.25,-225.86C145.25,-219.83 145.25,-210.21 145.25,-200.61"/>
<polygon fill="black" stroke="black" points="148.75,-200.67 145.25,-190.67 141.75,-200.67 148.75,-200.67"/>
</g>
<!-- 141&#45;&gt;138 -->
<g id="edge3" class="edge">
<title>141&#45;&gt;138</title>
<path fill="none" stroke="black" d="M145.25,-147.65C145.25,-135.73 145.25,-120.34 145.25,-107.09"/>
<polygon fill="black" stroke="black" points="148.75,-107.21 145.25,-97.21 141.75,-107.21 148.75,-107.21"/>
<text text-anchor="middle" x="185.75" y="-116.6" font-family="Times New Roman,serif" font-size="14.00">graphAnd#155</text>
</g>
</g>
</svg>
