<?xml version="1.0" encoding="UTF-8" standalone="no"?>
<!DOCTYPE svg PUBLIC "-//W3C//DTD SVG 1.1//EN"
 "http://www.w3.org/Graphics/SVG/1.1/DTD/svg11.dtd">
<!-- Generated by graphviz version 12.2.1 (20241206.2353)
 -->
<!-- Title: CLG Pages: 1 -->
<svg width="1684pt" height="1510pt"
 viewBox="0.00 0.00 1683.62 1510.10" xmlns="http://www.w3.org/2000/svg" xmlns:xlink="http://www.w3.org/1999/xlink">
<g id="graph0" class="graph" transform="scale(1 1) rotate(0) translate(4 1506.1)">
<title>CLG</title>
<polygon fill="white" stroke="none" points="-4,4 -4,-1506.1 1679.62,-1506.1 1679.62,4 -4,4"/>
<!-- 193 -->
<g id="node1" class="node">
<title>193</title>
<polygon fill="yellow" stroke="black" points="641.62,-816.8 509.38,-816.8 509.38,-780.8 641.62,-780.8 641.62,-816.8"/>
<text text-anchor="middle" x="575.5" y="-793.75" font-family="Times New Roman,serif" font-size="14.00">it = Sequence{1..d1}</text>
<text text-anchor="middle" x="494.75" y="-820" font-family="Times New Roman,serif" font-size="14.00">[193]</text>
</g>
<!-- 199 -->
<g id="node5" class="node">
<title>199</title>
<polygon fill="yellow" stroke="black" points="598.25,-728.3 520.75,-728.3 520.75,-692.3 598.25,-692.3 598.25,-728.3"/>
<text text-anchor="middle" x="559.5" y="-705.25" font-family="Times New Roman,serif" font-size="14.00">acc2 = true</text>
<text text-anchor="middle" x="506.12" y="-731.5" font-family="Times New Roman,serif" font-size="14.00">[199]</text>
</g>
<!-- 193&#45;&gt;199 -->
<g id="edge24" class="edge">
<title>193&#45;&gt;199</title>
<path fill="none" stroke="black" d="M572.34,-780.71C570.18,-769.06 567.28,-753.35 564.78,-739.82"/>
<polygon fill="black" stroke="black" points="568.25,-739.34 562.98,-730.14 561.36,-740.61 568.25,-739.34"/>
<text text-anchor="middle" x="609.43" y="-749.5" font-family="Times New Roman,serif" font-size="14.00">graphAnd#231</text>
</g>
<!-- 129 -->
<g id="node2" class="node">
<title>129</title>
<polygon fill="yellow" stroke="black" points="1417.5,-816.8 1047.5,-816.8 1047.5,-780.8 1417.5,-780.8 1417.5,-816.8"/>
<text text-anchor="middle" x="1232.5" y="-793.75" font-family="Times New Roman,serif" font-size="14.00">self.data.getDimensionSizes(2) = arg.data.getDimensionSizes(2)</text>
<text text-anchor="middle" x="1032.88" y="-820" font-family="Times New Roman,serif" font-size="14.00">[129]</text>
</g>
<!-- 141 -->
<g id="node11" class="node">
<title>141</title>
<polygon fill="aquamarine" stroke="black" points="1143.5,-717.5 1136.3,-710.3 1143.5,-703.1 1150.7,-710.3 1143.5,-717.5"/>
<text text-anchor="middle" x="1117.92" y="-720.7" font-family="Times New Roman,serif" font-size="14.00">&lt;141&gt;</text>
</g>
<!-- 129&#45;&gt;141 -->
<g id="edge10" class="edge">
<title>129&#45;&gt;141</title>
<path fill="none" stroke="black" d="M1214.92,-780.71C1197.13,-763.42 1170.16,-737.21 1154.96,-722.44"/>
<polygon fill="black" stroke="black" points="1157.58,-720.1 1147.97,-715.65 1152.7,-725.12 1157.58,-720.1"/>
<text text-anchor="middle" x="1230.1" y="-749.5" font-family="Times New Roman,serif" font-size="14.00">merge1#153</text>
</g>
<!-- 196 -->
<g id="node3" class="node">
<title>196</title>
<polygon fill="yellow" stroke="black" points="579.5,-639.8 503.5,-639.8 503.5,-603.8 579.5,-603.8 579.5,-639.8"/>
<text text-anchor="middle" x="541.5" y="-616.75" font-family="Times New Roman,serif" font-size="14.00">Index1 = 1</text>
<text text-anchor="middle" x="488.88" y="-643" font-family="Times New Roman,serif" font-size="14.00">[196]</text>
</g>
<!-- 216 -->
<g id="node19" class="node">
<title>216</title>
<polygon fill="aquamarine" stroke="black" points="396.5,-540.5 389.3,-533.3 396.5,-526.1 403.7,-533.3 396.5,-540.5"/>
<text text-anchor="middle" x="370.93" y="-543.7" font-family="Times New Roman,serif" font-size="14.00">&lt;216&gt;</text>
</g>
<!-- 196&#45;&gt;216 -->
<g id="edge19" class="edge">
<title>196&#45;&gt;216</title>
<path fill="none" stroke="black" d="M520.2,-603.41C506.7,-592.84 488.63,-579.46 471.5,-569.3 451.8,-557.62 427.56,-546.91 412.07,-540.5"/>
<polygon fill="black" stroke="black" points="413.39,-537.26 402.81,-536.76 410.77,-543.75 413.39,-537.26"/>
<text text-anchor="middle" x="535.97" y="-572.5" font-family="Times New Roman,serif" font-size="14.00">graphAnd#227</text>
</g>
<!-- 132 -->
<g id="node4" class="node">
<title>132</title>
<polygon fill="yellow" stroke="black" points="960.25,-1013.3 660.75,-1013.3 660.75,-977.3 960.25,-977.3 960.25,-1013.3"/>
<text text-anchor="middle" x="810.5" y="-990.25" font-family="Times New Roman,serif" font-size="14.00">self.data.getDimension() = arg.data.getDimension()</text>
<text text-anchor="middle" x="646.12" y="-1016.5" font-family="Times New Roman,serif" font-size="14.00">[132]</text>
</g>
<!-- 135 -->
<g id="node6" class="node">
<title>135</title>
<polygon fill="yellow" stroke="black" points="1004.62,-924.8 626.38,-924.8 626.38,-888.8 1004.62,-888.8 1004.62,-924.8"/>
<text text-anchor="middle" x="815.5" y="-901.75" font-family="Times New Roman,serif" font-size="14.00">self.data.getDimensionSizes(1) &lt;&gt; arg.data.getDimensionSizes(1)</text>
<text text-anchor="middle" x="611.75" y="-928" font-family="Times New Roman,serif" font-size="14.00">[135]</text>
</g>
<!-- 132&#45;&gt;135 -->
<g id="edge6" class="edge">
<title>132&#45;&gt;135</title>
<path fill="none" stroke="black" d="M811.49,-977.21C812.16,-965.56 813.07,-949.85 813.85,-936.32"/>
<polygon fill="black" stroke="black" points="817.33,-936.85 814.41,-926.66 810.34,-936.44 817.33,-936.85"/>
<text text-anchor="middle" x="853.95" y="-946" font-family="Times New Roman,serif" font-size="14.00">graphAnd#146</text>
</g>
<!-- 199&#45;&gt;196 -->
<g id="edge5" class="edge">
<title>199&#45;&gt;196</title>
<path fill="none" stroke="black" d="M555.94,-692.21C553.52,-680.56 550.25,-664.85 547.43,-651.32"/>
<polygon fill="black" stroke="black" points="550.88,-650.71 545.42,-641.63 544.03,-652.14 550.88,-650.71"/>
<text text-anchor="middle" x="592.61" y="-661" font-family="Times New Roman,serif" font-size="14.00">graphAnd#208</text>
</g>
<!-- 138 -->
<g id="node8" class="node">
<title>138</title>
<polygon fill="yellow" stroke="black" points="1029.5,-816.8 659.5,-816.8 659.5,-780.8 1029.5,-780.8 1029.5,-816.8"/>
<text text-anchor="middle" x="844.5" y="-793.75" font-family="Times New Roman,serif" font-size="14.00">self.data.getDimensionSizes(2) = arg.data.getDimensionSizes(2)</text>
<text text-anchor="middle" x="644.88" y="-820" font-family="Times New Roman,serif" font-size="14.00">[138]</text>
</g>
<!-- 135&#45;&gt;138 -->
<g id="edge7" class="edge">
<title>135&#45;&gt;138</title>
<path fill="none" stroke="black" d="M820.16,-888.77C824.64,-872.41 831.48,-847.39 836.77,-828.04"/>
<polygon fill="black" stroke="black" points="840.09,-829.17 839.36,-818.6 833.34,-827.32 840.09,-829.17"/>
<text text-anchor="middle" x="874.79" y="-847.75" font-family="Times New Roman,serif" font-size="14.00">graphAnd#149</text>
</g>
<!-- 202 -->
<g id="node7" class="node">
<title>202</title>
<polygon fill="yellow" stroke="black" points="528.62,-443.3 408.38,-443.3 408.38,-407.3 528.62,-407.3 528.62,-443.3"/>
<text text-anchor="middle" x="468.5" y="-420.25" font-family="Times New Roman,serif" font-size="14.00">Index1 &gt; d2 &#45; 1+ 1</text>
<text text-anchor="middle" x="393.75" y="-446.5" font-family="Times New Roman,serif" font-size="14.00">[202]</text>
</g>
<!-- 218 -->
<g id="node21" class="node">
<title>218</title>
<polygon fill="yellow" stroke="black" points="573.12,-354.8 443.88,-354.8 443.88,-318.8 573.12,-318.8 573.12,-354.8"/>
<text text-anchor="middle" x="508.5" y="-331.75" font-family="Times New Roman,serif" font-size="14.00">Index0 = Index0 + 1</text>
<text text-anchor="middle" x="429.25" y="-358" font-family="Times New Roman,serif" font-size="14.00">[218]</text>
</g>
<!-- 202&#45;&gt;218 -->
<g id="edge26" class="edge">
<title>202&#45;&gt;218</title>
<path fill="none" stroke="black" d="M476.4,-407.21C481.9,-395.32 489.35,-379.21 495.69,-365.5"/>
<polygon fill="black" stroke="black" points="498.82,-367.07 499.84,-356.52 492.47,-364.13 498.82,-367.07"/>
<text text-anchor="middle" x="532.58" y="-376" font-family="Times New Roman,serif" font-size="14.00">graphAnd#232</text>
</g>
<!-- 138&#45;&gt;141 -->
<g id="edge11" class="edge">
<title>138&#45;&gt;141</title>
<path fill="none" stroke="black" d="M904.65,-780.4C974.66,-760.14 1085.98,-727.94 1127.34,-715.98"/>
<polygon fill="black" stroke="black" points="1128.26,-719.35 1136.89,-713.21 1126.31,-712.63 1128.26,-719.35"/>
<text text-anchor="middle" x="1054.91" y="-749.5" font-family="Times New Roman,serif" font-size="14.00">merge2#154</text>
</g>
<!-- 140 -->
<g id="node9" class="node">
<title>140</title>
<polygon fill="aquamarine" stroke="black" points="894.5,-1091 887.3,-1083.8 894.5,-1076.6 901.7,-1083.8 894.5,-1091"/>
<text text-anchor="middle" x="868.92" y="-1094.2" font-family="Times New Roman,serif" font-size="14.00">&lt;140&gt;</text>
</g>
<!-- 140&#45;&gt;132 -->
<g id="edge9" class="edge">
<title>140&#45;&gt;132</title>
<path fill="none" stroke="black" d="M891.19,-1079.55C884.95,-1073.39 871.02,-1059.61 859.5,-1047.8 851.31,-1039.41 842.45,-1030.15 834.55,-1021.83"/>
<polygon fill="black" stroke="black" points="837.19,-1019.52 827.77,-1014.67 832.1,-1024.33 837.19,-1019.52"/>
<text text-anchor="middle" x="888" y="-1034.5" font-family="Times New Roman,serif" font-size="14.00">split2#152</text>
</g>
<!-- 123 -->
<g id="node41" class="node">
<title>123</title>
<polygon fill="yellow" stroke="black" points="1286.38,-1013.3 978.62,-1013.3 978.62,-977.3 1286.38,-977.3 1286.38,-1013.3"/>
<text text-anchor="middle" x="1132.5" y="-990.25" font-family="Times New Roman,serif" font-size="14.00">self.data.getDimension() &lt;&gt; arg.data.getDimension()</text>
<text text-anchor="middle" x="964" y="-1016.5" font-family="Times New Roman,serif" font-size="14.00">[123]</text>
</g>
<!-- 140&#45;&gt;123 -->
<g id="edge8" class="edge">
<title>140&#45;&gt;123</title>
<path fill="none" stroke="black" d="M899.47,-1080.99C921.54,-1072.97 1012.29,-1039.99 1073.81,-1017.63"/>
<polygon fill="black" stroke="black" points="1074.93,-1020.95 1083.13,-1014.24 1072.54,-1014.37 1074.93,-1020.95"/>
<text text-anchor="middle" x="1063.32" y="-1034.5" font-family="Times New Roman,serif" font-size="14.00">split1#151</text>
</g>
<!-- 205 -->
<g id="node10" class="node">
<title>205</title>
<polygon fill="yellow" stroke="black" points="323.75,-443.3 195.25,-443.3 195.25,-407.3 323.75,-407.3 323.75,-443.3"/>
<text text-anchor="middle" x="259.5" y="-420.25" font-family="Times New Roman,serif" font-size="14.00">Index1 &lt;= d2 &#45; 1+ 1</text>
<text text-anchor="middle" x="180.62" y="-446.5" font-family="Times New Roman,serif" font-size="14.00">[205]</text>
</g>
<!-- 208 -->
<g id="node13" class="node">
<title>208</title>
<polygon fill="yellow" stroke="black" points="310,-354.8 171,-354.8 171,-318.8 310,-318.8 310,-354.8"/>
<text text-anchor="middle" x="240.5" y="-331.75" font-family="Times New Roman,serif" font-size="14.00">it2 = Sequence{1..d2}</text>
<text text-anchor="middle" x="156.38" y="-358" font-family="Times New Roman,serif" font-size="14.00">[208]</text>
</g>
<!-- 205&#45;&gt;208 -->
<g id="edge12" class="edge">
<title>205&#45;&gt;208</title>
<path fill="none" stroke="black" d="M255.75,-407.21C253.19,-395.56 249.74,-379.85 246.76,-366.32"/>
<polygon fill="black" stroke="black" points="250.2,-365.64 244.64,-356.63 243.36,-367.15 250.2,-365.64"/>
<text text-anchor="middle" x="292.2" y="-376" font-family="Times New Roman,serif" font-size="14.00">graphAnd#219</text>
</g>
<!-- 152 -->
<g id="node20" class="node">
<title>152</title>
<polygon fill="aquamarine" stroke="black" points="1143.5,-629 1136.3,-621.8 1143.5,-614.6 1150.7,-621.8 1143.5,-629"/>
<text text-anchor="middle" x="1117.92" y="-632.2" font-family="Times New Roman,serif" font-size="14.00">&lt;152&gt;</text>
</g>
<!-- 141&#45;&gt;152 -->
<g id="edge25" class="edge">
<title>141&#45;&gt;152</title>
<path fill="none" stroke="black" d="M1143.5,-702.51C1143.5,-689.31 1143.5,-659.79 1143.5,-640.61"/>
<polygon fill="black" stroke="black" points="1147,-640.83 1143.5,-630.83 1140,-640.83 1147,-640.83"/>
<text text-anchor="middle" x="1177.62" y="-661" font-family="Times New Roman,serif" font-size="14.00">merge1#167</text>
</g>
<!-- 143 -->
<g id="node12" class="node">
<title>143</title>
<polygon fill="yellow" stroke="black" points="1471.25,-1101.8 1171.75,-1101.8 1171.75,-1065.8 1471.25,-1065.8 1471.25,-1101.8"/>
<text text-anchor="middle" x="1321.5" y="-1078.75" font-family="Times New Roman,serif" font-size="14.00">self.data.getDimension() = arg.data.getDimension()</text>
<text text-anchor="middle" x="1157.12" y="-1105" font-family="Times New Roman,serif" font-size="14.00">[143]</text>
</g>
<!-- 146 -->
<g id="node14" class="node">
<title>146</title>
<polygon fill="yellow" stroke="black" points="1674.5,-1013.3 1304.5,-1013.3 1304.5,-977.3 1674.5,-977.3 1674.5,-1013.3"/>
<text text-anchor="middle" x="1489.5" y="-990.25" font-family="Times New Roman,serif" font-size="14.00">self.data.getDimensionSizes(1) = arg.data.getDimensionSizes(1)</text>
<text text-anchor="middle" x="1289.88" y="-1016.5" font-family="Times New Roman,serif" font-size="14.00">[146]</text>
</g>
<!-- 143&#45;&gt;146 -->
<g id="edge17" class="edge">
<title>143&#45;&gt;146</title>
<path fill="none" stroke="black" d="M1355.09,-1065.5C1381.1,-1052.11 1417.35,-1033.45 1445.65,-1018.88"/>
<polygon fill="black" stroke="black" points="1447.04,-1022.1 1454.33,-1014.41 1443.84,-1015.87 1447.04,-1022.1"/>
<text text-anchor="middle" x="1461.05" y="-1034.5" font-family="Times New Roman,serif" font-size="14.00">graphAnd#160</text>
</g>
<!-- 211 -->
<g id="node15" class="node">
<title>211</title>
<polygon fill="yellow" stroke="black" points="337.75,-266.3 29.25,-266.3 29.25,-230.3 337.75,-230.3 337.75,-266.3"/>
<text text-anchor="middle" x="183.5" y="-243.25" font-family="Times New Roman,serif" font-size="14.00">result.data[it][it2] = self.data[it][it2] &#45; arg.data[it][it2]</text>
<text text-anchor="middle" x="14.62" y="-269.5" font-family="Times New Roman,serif" font-size="14.00">[211]</text>
</g>
<!-- 208&#45;&gt;211 -->
<g id="edge13" class="edge">
<title>208&#45;&gt;211</title>
<path fill="none" stroke="black" d="M229.24,-318.71C221.25,-306.59 210.37,-290.07 201.22,-276.19"/>
<polygon fill="black" stroke="black" points="204.19,-274.34 195.77,-267.91 198.35,-278.19 204.19,-274.34"/>
<text text-anchor="middle" x="257.61" y="-287.5" font-family="Times New Roman,serif" font-size="14.00">graphAnd#220</text>
</g>
<!-- 149 -->
<g id="node16" class="node">
<title>149</title>
<polygon fill="yellow" stroke="black" points="1675.62,-870.8 1297.38,-870.8 1297.38,-834.8 1675.62,-834.8 1675.62,-870.8"/>
<text text-anchor="middle" x="1486.5" y="-847.75" font-family="Times New Roman,serif" font-size="14.00">self.data.getDimensionSizes(2) &lt;&gt; arg.data.getDimensionSizes(2)</text>
<text text-anchor="middle" x="1282.75" y="-874" font-family="Times New Roman,serif" font-size="14.00">[149]</text>
</g>
<!-- 146&#45;&gt;149 -->
<g id="edge20" class="edge">
<title>146&#45;&gt;149</title>
<path fill="none" stroke="black" d="M1489.13,-977.07C1488.63,-953.48 1487.72,-910.8 1487.11,-882.38"/>
<polygon fill="black" stroke="black" points="1490.62,-882.61 1486.9,-872.68 1483.62,-882.75 1490.62,-882.61"/>
<text text-anchor="middle" x="1529.24" y="-946" font-family="Times New Roman,serif" font-size="14.00">graphAnd#163</text>
</g>
<!-- 214 -->
<g id="node17" class="node">
<title>214</title>
<polygon fill="yellow" stroke="black" points="382.12,-177.8 252.88,-177.8 252.88,-141.8 382.12,-141.8 382.12,-177.8"/>
<text text-anchor="middle" x="317.5" y="-154.75" font-family="Times New Roman,serif" font-size="14.00">Index1 = Index1 + 1</text>
<text text-anchor="middle" x="238.25" y="-181" font-family="Times New Roman,serif" font-size="14.00">[214]</text>
</g>
<!-- 211&#45;&gt;214 -->
<g id="edge14" class="edge">
<title>211&#45;&gt;214</title>
<path fill="none" stroke="black" d="M210.29,-230C230.65,-216.86 258.87,-198.65 281.25,-184.2"/>
<polygon fill="black" stroke="black" points="282.98,-187.25 289.48,-178.89 279.18,-181.37 282.98,-187.25"/>
<text text-anchor="middle" x="303" y="-199" font-family="Times New Roman,serif" font-size="14.00">graphAnd#221</text>
</g>
<!-- 149&#45;&gt;152 -->
<g id="edge27" class="edge">
<title>149&#45;&gt;152</title>
<path fill="none" stroke="black" d="M1474.58,-834.58C1463.38,-819.23 1445.53,-796.78 1426.5,-780.8 1335.9,-704.72 1203.23,-647.04 1158.71,-628.85"/>
<polygon fill="black" stroke="black" points="1160.21,-625.68 1149.63,-625.2 1157.6,-632.17 1160.21,-625.68"/>
<text text-anchor="middle" x="1435.66" y="-749.5" font-family="Times New Roman,serif" font-size="14.00">merge2#168</text>
</g>
<!-- 214&#45;&gt;216 -->
<g id="edge16" class="edge">
<title>214&#45;&gt;216</title>
<path fill="none" stroke="black" d="M334.45,-177.99C339.13,-183.38 343.91,-189.56 347.5,-195.8 359.6,-216.81 365.5,-223.05 365.5,-247.3 365.5,-426.3 365.5,-426.3 365.5,-426.3 365.5,-460.12 380.22,-497.66 389.37,-517.73"/>
<polygon fill="black" stroke="black" points="386.15,-519.11 393.62,-526.62 392.47,-516.09 386.15,-519.11"/>
<text text-anchor="middle" x="395.88" y="-331.75" font-family="Times New Roman,serif" font-size="14.00">iterate#224</text>
</g>
<!-- 151 -->
<g id="node18" class="node">
<title>151</title>
<polygon fill="aquamarine" stroke="black" points="894.5,-1179.5 887.3,-1172.3 894.5,-1165.1 901.7,-1172.3 894.5,-1179.5"/>
<text text-anchor="middle" x="868.92" y="-1182.7" font-family="Times New Roman,serif" font-size="14.00">&lt;151&gt;</text>
</g>
<!-- 151&#45;&gt;140 -->
<g id="edge21" class="edge">
<title>151&#45;&gt;140</title>
<path fill="none" stroke="black" d="M894.5,-1164.51C894.5,-1151.31 894.5,-1121.79 894.5,-1102.61"/>
<polygon fill="black" stroke="black" points="898,-1102.83 894.5,-1092.83 891,-1102.83 898,-1102.83"/>
<text text-anchor="middle" x="923" y="-1123" font-family="Times New Roman,serif" font-size="14.00">split1#165</text>
</g>
<!-- 151&#45;&gt;143 -->
<g id="edge23" class="edge">
<title>151&#45;&gt;143</title>
<path fill="none" stroke="black" d="M900.21,-1170.14C934.07,-1163.28 1110.77,-1127.49 1224.31,-1104.49"/>
<polygon fill="black" stroke="black" points="1224.84,-1107.95 1233.95,-1102.54 1223.46,-1101.09 1224.84,-1107.95"/>
<text text-anchor="middle" x="1174.75" y="-1123" font-family="Times New Roman,serif" font-size="14.00">split2#166</text>
</g>
<!-- 216&#45;&gt;202 -->
<g id="edge18" class="edge">
<title>216&#45;&gt;202</title>
<path fill="none" stroke="black" d="M399.23,-528.27C407.53,-516.07 432.89,-478.73 450.51,-452.79"/>
<polygon fill="black" stroke="black" points="453.25,-454.98 455.98,-444.74 447.46,-451.04 453.25,-454.98"/>
<text text-anchor="middle" x="483.66" y="-474.25" font-family="Times New Roman,serif" font-size="14.00">graphAnd#226</text>
</g>
<!-- 216&#45;&gt;205 -->
<g id="edge15" class="edge">
<title>216&#45;&gt;205</title>
<path fill="none" stroke="black" d="M390.39,-531.96C372.71,-530.67 320.8,-524.62 290.75,-497.3 278.41,-486.08 270.69,-469.09 266.02,-454.54"/>
<polygon fill="black" stroke="black" points="269.41,-453.67 263.3,-445.02 262.67,-455.59 269.41,-453.67"/>
<text text-anchor="middle" x="321.12" y="-474.25" font-family="Times New Roman,serif" font-size="14.00">iterate#223</text>
</g>
<!-- 154 -->
<g id="node22" class="node">
<title>154</title>
<polygon fill="yellow" stroke="black" points="1003.75,-497.3 815.25,-497.3 815.25,-461.3 1003.75,-461.3 1003.75,-497.3"/>
<text text-anchor="middle" x="909.5" y="-474.25" font-family="Times New Roman,serif" font-size="14.00">Result = &#39;IllegalDimensionSize&#39;</text>
<text text-anchor="middle" x="800.62" y="-500.5" font-family="Times New Roman,serif" font-size="14.00">[154]</text>
</g>
<!-- 152&#45;&gt;154 -->
<g id="edge35" class="edge">
<title>152&#45;&gt;154</title>
<path fill="none" stroke="black" d="M1139.44,-618.36C1117.06,-604.93 1007.69,-539.26 948.21,-503.54"/>
<polygon fill="black" stroke="black" points="950.09,-500.59 939.71,-498.44 946.48,-506.59 950.09,-500.59"/>
<text text-anchor="middle" x="1124.81" y="-572.5" font-family="Times New Roman,serif" font-size="14.00">graphAnd#241</text>
</g>
<!-- 220 -->
<g id="node24" class="node">
<title>220</title>
<polygon fill="aquamarine" stroke="black" points="571.5,-255.5 564.3,-248.3 571.5,-241.1 578.7,-248.3 571.5,-255.5"/>
<text text-anchor="middle" x="545.92" y="-258.7" font-family="Times New Roman,serif" font-size="14.00">&lt;220&gt;</text>
</g>
<!-- 218&#45;&gt;220 -->
<g id="edge29" class="edge">
<title>218&#45;&gt;220</title>
<path fill="none" stroke="black" d="M513.74,-318.54C517.45,-308.02 523.13,-294.65 530.75,-284.3 538.37,-273.95 549.59,-264.6 558.33,-258.17"/>
<polygon fill="black" stroke="black" points="560.15,-261.17 566.38,-252.6 556.16,-255.42 560.15,-261.17"/>
<text text-anchor="middle" x="561.12" y="-287.5" font-family="Times New Roman,serif" font-size="14.00">iterate#235</text>
</g>
<!-- 228 -->
<g id="node32" class="node">
<title>228</title>
<polygon fill="aquamarine" stroke="black" points="764.5,-89.3 757.3,-82.1 764.5,-74.9 771.7,-82.1 764.5,-89.3"/>
<text text-anchor="middle" x="738.92" y="-92.5" font-family="Times New Roman,serif" font-size="14.00">&lt;228&gt;</text>
</g>
<!-- 154&#45;&gt;228 -->
<g id="edge45" class="edge">
<title>154&#45;&gt;228</title>
<path fill="none" stroke="black" d="M901.25,-461C892.99,-442.06 881.5,-410.59 881.5,-382.05 881.5,-382.05 881.5,-382.05 881.5,-158.8 881.5,-111.81 814.14,-92.55 781.64,-85.99"/>
<polygon fill="black" stroke="black" points="782.42,-82.57 771.95,-84.23 781.17,-89.46 782.42,-82.57"/>
<text text-anchor="middle" x="915.62" y="-287.5" font-family="Times New Roman,serif" font-size="14.00">merge2#252</text>
</g>
<!-- 155 -->
<g id="node23" class="node">
<title>155</title>
<ellipse fill="black" stroke="black" cx="764.5" cy="-11.2" rx="7.2" ry="7.2"/>
<ellipse fill="none" stroke="black" cx="764.5" cy="-11.2" rx="11.2" ry="11.2"/>
<text text-anchor="middle" x="743.17" y="-25.6" font-family="Times New Roman,serif" font-size="14.00">[&#45;1]</text>
</g>
<!-- 187 -->
<g id="node40" class="node">
<title>187</title>
<polygon fill="yellow" stroke="black" points="599.62,-177.8 479.38,-177.8 479.38,-141.8 599.62,-141.8 599.62,-177.8"/>
<text text-anchor="middle" x="539.5" y="-154.75" font-family="Times New Roman,serif" font-size="14.00">Index0 &gt; d1 &#45; 1+ 1</text>
<text text-anchor="middle" x="464.75" y="-181" font-family="Times New Roman,serif" font-size="14.00">[187]</text>
</g>
<!-- 220&#45;&gt;187 -->
<g id="edge30" class="edge">
<title>220&#45;&gt;187</title>
<path fill="none" stroke="black" d="M566.9,-245C558.05,-240.3 538.9,-228.6 531.5,-212.3 528.27,-205.19 528.13,-197.01 529.36,-189.31"/>
<polygon fill="black" stroke="black" points="532.75,-190.18 531.71,-179.63 525.95,-188.53 532.75,-190.18"/>
<text text-anchor="middle" x="572" y="-199" font-family="Times New Roman,serif" font-size="14.00">graphAnd#237</text>
</g>
<!-- 190 -->
<g id="node42" class="node">
<title>190</title>
<polygon fill="yellow" stroke="black" points="764.75,-177.8 636.25,-177.8 636.25,-141.8 764.75,-141.8 764.75,-177.8"/>
<text text-anchor="middle" x="700.5" y="-154.75" font-family="Times New Roman,serif" font-size="14.00">Index0 &lt;= d1 &#45; 1+ 1</text>
<text text-anchor="middle" x="621.62" y="-181" font-family="Times New Roman,serif" font-size="14.00">[190]</text>
</g>
<!-- 220&#45;&gt;190 -->
<g id="edge28" class="edge">
<title>220&#45;&gt;190</title>
<path fill="none" stroke="black" d="M575.09,-244.04C584.56,-235.51 611.21,-212.08 635.75,-195.8 642.05,-191.62 648.89,-187.51 655.69,-183.65"/>
<polygon fill="black" stroke="black" points="657.16,-186.84 664.23,-178.94 653.78,-180.71 657.16,-186.84"/>
<text text-anchor="middle" x="666.12" y="-199" font-family="Times New Roman,serif" font-size="14.00">iterate#234</text>
</g>
<!-- 221 -->
<g id="node25" class="node">
<title>221</title>
<ellipse fill="black" stroke="black" cx="768.5" cy="-1478.4" rx="7.2" ry="7.2"/>
<text text-anchor="middle" x="753.42" y="-1488.8" font-family="Times New Roman,serif" font-size="14.00">[0]</text>
</g>
<!-- 222 -->
<g id="node27" class="node">
<title>222</title>
<polygon fill="yellow" stroke="black" points="872.88,-1434.2 664.12,-1434.2 664.12,-1398.2 872.88,-1398.2 872.88,-1434.2"/>
<text text-anchor="middle" x="768.5" y="-1411.15" font-family="Times New Roman,serif" font-size="14.00">self.data.getDimensionSizes(1) &gt; 0</text>
<text text-anchor="middle" x="649.5" y="-1437.4" font-family="Times New Roman,serif" font-size="14.00">[222]</text>
</g>
<!-- 221&#45;&gt;222 -->
<g id="edge37" class="edge">
<title>221&#45;&gt;222</title>
<path fill="none" stroke="black" d="M768.5,-1470.96C768.5,-1464.9 768.5,-1455.39 768.5,-1446.04"/>
<polygon fill="black" stroke="black" points="772,-1446.08 768.5,-1436.08 765,-1446.08 772,-1446.08"/>
</g>
<!-- 157 -->
<g id="node26" class="node">
<title>157</title>
<polygon fill="yellow" stroke="black" points="813.25,-1190.3 513.75,-1190.3 513.75,-1154.3 813.25,-1154.3 813.25,-1190.3"/>
<text text-anchor="middle" x="663.5" y="-1167.25" font-family="Times New Roman,serif" font-size="14.00">self.data.getDimension() = arg.data.getDimension()</text>
<text text-anchor="middle" x="499.12" y="-1193.5" font-family="Times New Roman,serif" font-size="14.00">[157]</text>
</g>
<!-- 160 -->
<g id="node28" class="node">
<title>160</title>
<polygon fill="yellow" stroke="black" points="822.5,-1101.8 452.5,-1101.8 452.5,-1065.8 822.5,-1065.8 822.5,-1101.8"/>
<text text-anchor="middle" x="637.5" y="-1078.75" font-family="Times New Roman,serif" font-size="14.00">self.data.getDimensionSizes(1) = arg.data.getDimensionSizes(1)</text>
<text text-anchor="middle" x="437.88" y="-1105" font-family="Times New Roman,serif" font-size="14.00">[160]</text>
</g>
<!-- 157&#45;&gt;160 -->
<g id="edge34" class="edge">
<title>157&#45;&gt;160</title>
<path fill="none" stroke="black" d="M658.36,-1154.21C654.83,-1142.44 650.04,-1126.53 645.95,-1112.91"/>
<polygon fill="black" stroke="black" points="649.38,-1112.17 643.15,-1103.6 642.68,-1114.18 649.38,-1112.17"/>
<text text-anchor="middle" x="693.33" y="-1123" font-family="Times New Roman,serif" font-size="14.00">graphAnd#176</text>
</g>
<!-- 225 -->
<g id="node29" class="node">
<title>225</title>
<polygon fill="yellow" stroke="black" points="872.88,-1345.7 664.12,-1345.7 664.12,-1309.7 872.88,-1309.7 872.88,-1345.7"/>
<text text-anchor="middle" x="768.5" y="-1322.65" font-family="Times New Roman,serif" font-size="14.00">self.data.getDimensionSizes(2) &gt; 0</text>
<text text-anchor="middle" x="649.5" y="-1348.9" font-family="Times New Roman,serif" font-size="14.00">[225]</text>
</g>
<!-- 222&#45;&gt;225 -->
<g id="edge39" class="edge">
<title>222&#45;&gt;225</title>
<path fill="none" stroke="black" d="M768.5,-1398.11C768.5,-1386.46 768.5,-1370.75 768.5,-1357.22"/>
<polygon fill="black" stroke="black" points="772,-1357.56 768.5,-1347.56 765,-1357.56 772,-1357.56"/>
<text text-anchor="middle" x="809" y="-1366.9" font-family="Times New Roman,serif" font-size="14.00">graphAnd#247</text>
</g>
<!-- 163 -->
<g id="node30" class="node">
<title>163</title>
<polygon fill="yellow" stroke="black" points="619.5,-1013.3 249.5,-1013.3 249.5,-977.3 619.5,-977.3 619.5,-1013.3"/>
<text text-anchor="middle" x="434.5" y="-990.25" font-family="Times New Roman,serif" font-size="14.00">self.data.getDimensionSizes(2) = arg.data.getDimensionSizes(2)</text>
<text text-anchor="middle" x="234.88" y="-1016.5" font-family="Times New Roman,serif" font-size="14.00">[163]</text>
</g>
<!-- 160&#45;&gt;163 -->
<g id="edge38" class="edge">
<title>160&#45;&gt;163</title>
<path fill="none" stroke="black" d="M596.91,-1065.5C564.93,-1051.88 520.14,-1032.79 485.7,-1018.12"/>
<polygon fill="black" stroke="black" points="487.33,-1015.01 476.76,-1014.31 484.59,-1021.45 487.33,-1015.01"/>
<text text-anchor="middle" x="594.68" y="-1034.5" font-family="Times New Roman,serif" font-size="14.00">graphAnd#179</text>
</g>
<!-- 227 -->
<g id="node31" class="node">
<title>227</title>
<polygon fill="aquamarine" stroke="black" points="768.5,-1257.2 761.3,-1250 768.5,-1242.8 775.7,-1250 768.5,-1257.2"/>
<text text-anchor="middle" x="742.92" y="-1260.4" font-family="Times New Roman,serif" font-size="14.00">&lt;227&gt;</text>
</g>
<!-- 225&#45;&gt;227 -->
<g id="edge47" class="edge">
<title>225&#45;&gt;227</title>
<path fill="none" stroke="black" d="M768.5,-1309.52C768.5,-1297.48 768.5,-1281.4 768.5,-1269.15"/>
<polygon fill="black" stroke="black" points="772,-1269.24 768.5,-1259.24 765,-1269.24 772,-1269.24"/>
<text text-anchor="middle" x="809" y="-1278.4" font-family="Times New Roman,serif" font-size="14.00">graphAnd#254</text>
</g>
<!-- 166 -->
<g id="node33" class="node">
<title>166</title>
<polygon fill="yellow" stroke="black" points="564.62,-924.8 252.38,-924.8 252.38,-888.8 564.62,-888.8 564.62,-924.8"/>
<text text-anchor="middle" x="408.5" y="-901.75" font-family="Times New Roman,serif" font-size="14.00">self.data.getDimension() = result.data.getDimension()</text>
<text text-anchor="middle" x="237.75" y="-928" font-family="Times New Roman,serif" font-size="14.00">[166]</text>
</g>
<!-- 163&#45;&gt;166 -->
<g id="edge36" class="edge">
<title>163&#45;&gt;166</title>
<path fill="none" stroke="black" d="M429.36,-977.21C425.83,-965.44 421.04,-949.53 416.95,-935.91"/>
<polygon fill="black" stroke="black" points="420.38,-935.17 414.15,-926.6 413.68,-937.18 420.38,-935.17"/>
<text text-anchor="middle" x="464.33" y="-946" font-family="Times New Roman,serif" font-size="14.00">graphAnd#242</text>
</g>
<!-- 227&#45;&gt;151 -->
<g id="edge42" class="edge">
<title>227&#45;&gt;151</title>
<path fill="none" stroke="black" d="M772.69,-1246.48C789.58,-1236.33 853.06,-1198.2 881.07,-1181.37"/>
<polygon fill="black" stroke="black" points="882.6,-1184.53 889.37,-1176.38 879,-1178.53 882.6,-1184.53"/>
<text text-anchor="middle" x="863.78" y="-1211.5" font-family="Times New Roman,serif" font-size="14.00">split2#250</text>
</g>
<!-- 227&#45;&gt;157 -->
<g id="edge41" class="edge">
<title>227&#45;&gt;157</title>
<path fill="none" stroke="black" d="M764.51,-1246.12C753.48,-1238.17 721.74,-1215.29 696.75,-1197.27"/>
<polygon fill="black" stroke="black" points="698.95,-1194.54 688.79,-1191.53 694.86,-1200.22 698.95,-1194.54"/>
<text text-anchor="middle" x="763.04" y="-1211.5" font-family="Times New Roman,serif" font-size="14.00">split1#249</text>
</g>
<!-- 228&#45;&gt;155 -->
<g id="edge46" class="edge">
<title>228&#45;&gt;155</title>
<path fill="none" stroke="black" d="M764.5,-74.24C764.5,-64.87 764.5,-47.63 764.5,-33.7"/>
<polygon fill="black" stroke="black" points="768,-34.11 764.5,-24.11 761,-34.11 768,-34.11"/>
<text text-anchor="middle" x="813.62" y="-43.6" font-family="Times New Roman,serif" font-size="14.00">graphOr_end#253</text>
</g>
<!-- 169 -->
<g id="node34" class="node">
<title>169</title>
<polygon fill="yellow" stroke="black" points="490.88,-816.8 108.12,-816.8 108.12,-780.8 490.88,-780.8 490.88,-816.8"/>
<text text-anchor="middle" x="299.5" y="-793.75" font-family="Times New Roman,serif" font-size="14.00">self.data.getDimensionSizes(1) = result.data.getDimensionSizes(1)</text>
<text text-anchor="middle" x="93.5" y="-820" font-family="Times New Roman,serif" font-size="14.00">[169]</text>
</g>
<!-- 166&#45;&gt;169 -->
<g id="edge40" class="edge">
<title>166&#45;&gt;169</title>
<path fill="none" stroke="black" d="M390.99,-888.77C373.29,-871.56 345.75,-844.78 325.51,-825.09"/>
<polygon fill="black" stroke="black" points="328.03,-822.66 318.42,-818.2 323.15,-827.68 328.03,-822.66"/>
<text text-anchor="middle" x="410.63" y="-847.75" font-family="Times New Roman,serif" font-size="14.00">graphAnd#184</text>
</g>
<!-- 172 -->
<g id="node35" class="node">
<title>172</title>
<polygon fill="yellow" stroke="black" points="499.88,-728.3 117.12,-728.3 117.12,-692.3 499.88,-692.3 499.88,-728.3"/>
<text text-anchor="middle" x="308.5" y="-705.25" font-family="Times New Roman,serif" font-size="14.00">self.data.getDimensionSizes(2) = result.data.getDimensionSizes(2)</text>
<text text-anchor="middle" x="102.5" y="-731.5" font-family="Times New Roman,serif" font-size="14.00">[172]</text>
</g>
<!-- 169&#45;&gt;172 -->
<g id="edge43" class="edge">
<title>169&#45;&gt;172</title>
<path fill="none" stroke="black" d="M301.28,-780.71C302.49,-769.06 304.13,-753.35 305.53,-739.82"/>
<polygon fill="black" stroke="black" points="308.98,-740.46 306.54,-730.16 302.02,-739.74 308.98,-740.46"/>
<text text-anchor="middle" x="345.31" y="-749.5" font-family="Times New Roman,serif" font-size="14.00">graphAnd#187</text>
</g>
<!-- 175 -->
<g id="node36" class="node">
<title>175</title>
<polygon fill="yellow" stroke="black" points="464.12,-639.8 250.88,-639.8 250.88,-603.8 464.12,-603.8 464.12,-639.8"/>
<text text-anchor="middle" x="357.5" y="-616.75" font-family="Times New Roman,serif" font-size="14.00">d1 = arg.data.getDimensionSizes(1)</text>
<text text-anchor="middle" x="236.25" y="-643" font-family="Times New Roman,serif" font-size="14.00">[175]</text>
</g>
<!-- 172&#45;&gt;175 -->
<g id="edge33" class="edge">
<title>172&#45;&gt;175</title>
<path fill="none" stroke="black" d="M318.18,-692.21C324.98,-680.2 334.22,-663.89 342.04,-650.1"/>
<polygon fill="black" stroke="black" points="345.04,-651.89 346.93,-641.47 338.95,-648.44 345.04,-651.89"/>
<text text-anchor="middle" x="377.89" y="-661" font-family="Times New Roman,serif" font-size="14.00">graphAnd#240</text>
</g>
<!-- 178 -->
<g id="node37" class="node">
<title>178</title>
<polygon fill="yellow" stroke="black" points="666.12,-551.3 452.88,-551.3 452.88,-515.3 666.12,-515.3 666.12,-551.3"/>
<text text-anchor="middle" x="559.5" y="-528.25" font-family="Times New Roman,serif" font-size="14.00">d2 = arg.data.getDimensionSizes(2)</text>
<text text-anchor="middle" x="438.25" y="-554.5" font-family="Times New Roman,serif" font-size="14.00">[178]</text>
</g>
<!-- 175&#45;&gt;178 -->
<g id="edge1" class="edge">
<title>175&#45;&gt;178</title>
<path fill="none" stroke="black" d="M363,-603.37C367.52,-591.94 375.05,-577.63 386.5,-569.3 396.49,-562.03 417.36,-555.87 441.26,-550.84"/>
<polygon fill="black" stroke="black" points="441.82,-554.3 450.94,-548.9 440.45,-547.43 441.82,-554.3"/>
<text text-anchor="middle" x="427" y="-572.5" font-family="Times New Roman,serif" font-size="14.00">graphAnd#192</text>
</g>
<!-- 184 -->
<g id="node39" class="node">
<title>184</title>
<polygon fill="yellow" stroke="black" points="632.88,-443.3 562.12,-443.3 562.12,-407.3 632.88,-407.3 632.88,-443.3"/>
<text text-anchor="middle" x="597.5" y="-420.25" font-family="Times New Roman,serif" font-size="14.00">acc = true</text>
<text text-anchor="middle" x="547.5" y="-446.5" font-family="Times New Roman,serif" font-size="14.00">[184]</text>
</g>
<!-- 178&#45;&gt;184 -->
<g id="edge32" class="edge">
<title>178&#45;&gt;184</title>
<path fill="none" stroke="black" d="M565.61,-515.27C571.5,-498.83 580.52,-473.65 587.47,-454.27"/>
<polygon fill="black" stroke="black" points="590.69,-455.66 590.77,-445.07 584.1,-453.3 590.69,-455.66"/>
<text text-anchor="middle" x="624.62" y="-474.25" font-family="Times New Roman,serif" font-size="14.00">graphAnd#239</text>
</g>
<!-- 181 -->
<g id="node38" class="node">
<title>181</title>
<polygon fill="yellow" stroke="black" points="667.5,-354.8 591.5,-354.8 591.5,-318.8 667.5,-318.8 667.5,-354.8"/>
<text text-anchor="middle" x="629.5" y="-331.75" font-family="Times New Roman,serif" font-size="14.00">Index0 = 1</text>
<text text-anchor="middle" x="576.88" y="-358" font-family="Times New Roman,serif" font-size="14.00">[181]</text>
</g>
<!-- 181&#45;&gt;220 -->
<g id="edge31" class="edge">
<title>181&#45;&gt;220</title>
<path fill="none" stroke="black" d="M618.04,-318.71C606.99,-302.23 590.5,-277.64 580.4,-262.58"/>
<polygon fill="black" stroke="black" points="583.44,-260.83 574.97,-254.47 577.63,-264.73 583.44,-260.83"/>
<text text-anchor="middle" x="646.19" y="-287.5" font-family="Times New Roman,serif" font-size="14.00">graphAnd#238</text>
</g>
<!-- 184&#45;&gt;181 -->
<g id="edge2" class="edge">
<title>184&#45;&gt;181</title>
<path fill="none" stroke="black" d="M603.31,-407.06C606.75,-397.03 611.25,-384.15 615.5,-372.8 616.34,-370.55 617.23,-368.22 618.14,-365.89"/>
<polygon fill="black" stroke="black" points="621.39,-367.18 621.81,-356.6 614.88,-364.61 621.39,-367.18"/>
<text text-anchor="middle" x="656" y="-376" font-family="Times New Roman,serif" font-size="14.00">graphAnd#197</text>
</g>
<!-- 187&#45;&gt;228 -->
<g id="edge44" class="edge">
<title>187&#45;&gt;228</title>
<path fill="none" stroke="black" d="M591.4,-141.34C642.28,-124.22 716.71,-99.18 748.81,-88.38"/>
<polygon fill="black" stroke="black" points="749.7,-91.77 758.06,-85.27 747.47,-85.14 749.7,-91.77"/>
<text text-anchor="middle" x="725.85" y="-110.5" font-family="Times New Roman,serif" font-size="14.00">merge1#251</text>
</g>
<!-- 126 -->
<g id="node43" class="node">
<title>126</title>
<polygon fill="yellow" stroke="black" points="1393.5,-924.8 1023.5,-924.8 1023.5,-888.8 1393.5,-888.8 1393.5,-924.8"/>
<text text-anchor="middle" x="1208.5" y="-901.75" font-family="Times New Roman,serif" font-size="14.00">self.data.getDimensionSizes(1) = arg.data.getDimensionSizes(1)</text>
<text text-anchor="middle" x="1008.88" y="-928" font-family="Times New Roman,serif" font-size="14.00">[126]</text>
</g>
<!-- 123&#45;&gt;126 -->
<g id="edge3" class="edge">
<title>123&#45;&gt;126</title>
<path fill="none" stroke="black" d="M1147.52,-977.21C1158.48,-964.73 1173.53,-947.6 1185.93,-933.48"/>
<polygon fill="black" stroke="black" points="1188.29,-936.11 1192.26,-926.29 1183.03,-931.49 1188.29,-936.11"/>
<text text-anchor="middle" x="1217.81" y="-946" font-family="Times New Roman,serif" font-size="14.00">graphAnd#138</text>
</g>
<!-- 190&#45;&gt;193 -->
<g id="edge22" class="edge">
<title>190&#45;&gt;193</title>
<path fill="none" stroke="black" d="M703.72,-178.29C706.64,-195.72 710.5,-223.26 710.5,-247.3 710.5,-711.3 710.5,-711.3 710.5,-711.3 710.5,-743.69 682.62,-764.5 652.19,-777.57"/>
<polygon fill="black" stroke="black" points="651.21,-774.2 643.22,-781.15 653.8,-780.7 651.21,-774.2"/>
<text text-anchor="middle" x="751" y="-474.25" font-family="Times New Roman,serif" font-size="14.00">graphAnd#230</text>
</g>
<!-- 126&#45;&gt;129 -->
<g id="edge4" class="edge">
<title>126&#45;&gt;129</title>
<path fill="none" stroke="black" d="M1205.23,-888.42C1203.17,-873.76 1201.86,-852.41 1207.5,-834.8 1208.38,-832.06 1209.56,-829.36 1210.93,-826.73"/>
<polygon fill="black" stroke="black" points="1213.78,-828.77 1216.12,-818.43 1207.85,-825.06 1213.78,-828.77"/>
<text text-anchor="middle" x="1248" y="-847.75" font-family="Times New Roman,serif" font-size="14.00">graphAnd#141</text>
</g>
</g>
</svg>
