<?xml version="1.0" encoding="UTF-8" standalone="no"?>
<!DOCTYPE svg PUBLIC "-//W3C//DTD SVG 1.1//EN"
 "http://www.w3.org/Graphics/SVG/1.1/DTD/svg11.dtd">
<!-- Generated by graphviz version 12.2.1 (20241206.2353)
 -->
<!-- Title: CLG Pages: 1 -->
<svg width="256pt" height="265pt"
 viewBox="0.00 0.00 255.75 264.80" xmlns="http://www.w3.org/2000/svg" xmlns:xlink="http://www.w3.org/1999/xlink">
<g id="graph0" class="graph" transform="scale(1 1) rotate(0) translate(4 260.8)">
<title>CLG</title>
<polygon fill="white" stroke="none" points="-4,4 -4,-260.8 251.75,-260.8 251.75,4 -4,4"/>
<!-- 4 -->
<g id="node1" class="node">
<title>4</title>
<polygon fill="yellow" stroke="black" points="200.12,-95.4 63.38,-95.4 63.38,-59.4 200.12,-59.4 200.12,-95.4"/>
<text text-anchor="middle" x="131.75" y="-72.35" font-family="Times New Roman,serif" font-size="14.00">self.data = inputArray</text>
<text text-anchor="middle" x="55.5" y="-98.6" font-family="Times New Roman,serif" font-size="14.00">[4]</text>
</g>
<!-- 5 -->
<g id="node2" class="node">
<title>5</title>
<ellipse fill="black" stroke="black" cx="131.75" cy="-11.2" rx="7.2" ry="7.2"/>
<ellipse fill="none" stroke="black" cx="131.75" cy="-11.2" rx="11.2" ry="11.2"/>
<text text-anchor="middle" x="110.42" y="-25.6" font-family="Times New Roman,serif" font-size="14.00">[&#45;1]</text>
</g>
<!-- 4&#45;&gt;5 -->
<g id="edge1" class="edge">
<title>4&#45;&gt;5</title>
<path fill="none" stroke="black" d="M131.75,-59.2C131.75,-51.5 131.75,-42.34 131.75,-34.15"/>
<polygon fill="black" stroke="black" points="135.25,-34.32 131.75,-24.32 128.25,-34.32 135.25,-34.32"/>
</g>
<!-- 6 -->
<g id="node3" class="node">
<title>6</title>
<ellipse fill="black" stroke="black" cx="131.75" cy="-233.1" rx="7.2" ry="7.2"/>
<text text-anchor="middle" x="116.67" y="-243.5" font-family="Times New Roman,serif" font-size="14.00">[0]</text>
</g>
<!-- 7 -->
<g id="node4" class="node">
<title>7</title>
<polygon fill="yellow" stroke="black" points="247.75,-188.9 15.75,-188.9 15.75,-147.9 247.75,-147.9 247.75,-188.9"/>
<text text-anchor="middle" x="131.75" y="-171.6" font-family="Times New Roman,serif" font-size="14.00">self.data.getDimensionSizes(1) &gt; 0 and</text>
<text text-anchor="middle" x="131.75" y="-155.1" font-family="Times New Roman,serif" font-size="14.00">self.data.getDimensionSizes(2) &gt; 0</text>
<text text-anchor="middle" x="7.88" y="-192.1" font-family="Times New Roman,serif" font-size="14.00">[7]</text>
</g>
<!-- 6&#45;&gt;7 -->
<g id="edge2" class="edge">
<title>6&#45;&gt;7</title>
<path fill="none" stroke="black" d="M131.75,-225.86C131.75,-219.83 131.75,-210.21 131.75,-200.61"/>
<polygon fill="black" stroke="black" points="135.25,-200.67 131.75,-190.67 128.25,-200.67 135.25,-200.67"/>
</g>
<!-- 7&#45;&gt;4 -->
<g id="edge3" class="edge">
<title>7&#45;&gt;4</title>
<path fill="none" stroke="black" d="M131.75,-147.65C131.75,-135.73 131.75,-120.34 131.75,-107.09"/>
<polygon fill="black" stroke="black" points="135.25,-107.21 131.75,-97.21 128.25,-107.21 135.25,-107.21"/>
<text text-anchor="middle" x="165.5" y="-116.6" font-family="Times New Roman,serif" font-size="14.00">graphAnd#6</text>
</g>
</g>
</svg>
