<?xml version="1.0" encoding="UTF-8" standalone="no"?>
<!DOCTYPE svg PUBLIC "-//W3C//DTD SVG 1.1//EN"
 "http://www.w3.org/Graphics/SVG/1.1/DTD/svg11.dtd">
<!-- Generated by graphviz version 12.2.1 (20241206.2353)
 -->
<!-- Title: CLG Pages: 1 -->
<svg width="1477pt" height="2033pt"
 viewBox="0.00 0.00 1477.00 2033.10" xmlns="http://www.w3.org/2000/svg" xmlns:xlink="http://www.w3.org/1999/xlink">
<g id="graph0" class="graph" transform="scale(1 1) rotate(0) translate(4 2029.1)">
<title>CLG</title>
<polygon fill="white" stroke="none" points="-4,4 -4,-2029.1 1473,-2029.1 1473,4 -4,4"/>
<!-- 65 -->
<g id="node1" class="node">
<title>65</title>
<polygon fill="yellow" stroke="black" points="1390,-1251.3 1007.25,-1251.3 1007.25,-1215.3 1390,-1215.3 1390,-1251.3"/>
<text text-anchor="middle" x="1198.62" y="-1228.25" font-family="Times New Roman,serif" font-size="14.00">self.data.getDimensionSizes(2) = result.data.getDimensionSizes(2)</text>
<text text-anchor="middle" x="996" y="-1254.5" font-family="Times New Roman,serif" font-size="14.00">[65]</text>
</g>
<!-- 68 -->
<g id="node2" class="node">
<title>68</title>
<polygon fill="yellow" stroke="black" points="1266.25,-1162.8 1053,-1162.8 1053,-1126.8 1266.25,-1126.8 1266.25,-1162.8"/>
<text text-anchor="middle" x="1159.62" y="-1139.75" font-family="Times New Roman,serif" font-size="14.00">d1 = arg.data.getDimensionSizes(1)</text>
<text text-anchor="middle" x="1041.75" y="-1166" font-family="Times New Roman,serif" font-size="14.00">[68]</text>
</g>
<!-- 65&#45;&gt;68 -->
<g id="edge41" class="edge">
<title>65&#45;&gt;68</title>
<path fill="none" stroke="black" d="M1190.92,-1215.21C1185.56,-1203.32 1178.3,-1187.21 1172.11,-1173.5"/>
<polygon fill="black" stroke="black" points="1175.37,-1172.21 1168.07,-1164.53 1168.99,-1175.08 1175.37,-1172.21"/>
<text text-anchor="middle" x="1223.12" y="-1184" font-family="Times New Roman,serif" font-size="14.00">graphAnd#119</text>
</g>
<!-- 71 -->
<g id="node3" class="node">
<title>71</title>
<polygon fill="yellow" stroke="black" points="1266.25,-1074.3 1053,-1074.3 1053,-1038.3 1266.25,-1038.3 1266.25,-1074.3"/>
<text text-anchor="middle" x="1159.62" y="-1051.25" font-family="Times New Roman,serif" font-size="14.00">d2 = arg.data.getDimensionSizes(2)</text>
<text text-anchor="middle" x="1041.75" y="-1077.5" font-family="Times New Roman,serif" font-size="14.00">[71]</text>
</g>
<!-- 68&#45;&gt;71 -->
<g id="edge8" class="edge">
<title>68&#45;&gt;71</title>
<path fill="none" stroke="black" d="M1159.62,-1126.71C1159.62,-1115.06 1159.62,-1099.35 1159.62,-1085.82"/>
<polygon fill="black" stroke="black" points="1163.13,-1086.16 1159.63,-1076.16 1156.13,-1086.16 1163.13,-1086.16"/>
<text text-anchor="middle" x="1196.75" y="-1095.5" font-family="Times New Roman,serif" font-size="14.00">graphAnd#71</text>
</g>
<!-- 77 -->
<g id="node5" class="node">
<title>77</title>
<polygon fill="yellow" stroke="black" points="1194,-966.3 1123.25,-966.3 1123.25,-930.3 1194,-930.3 1194,-966.3"/>
<text text-anchor="middle" x="1158.62" y="-943.25" font-family="Times New Roman,serif" font-size="14.00">acc = true</text>
<text text-anchor="middle" x="1112" y="-969.5" font-family="Times New Roman,serif" font-size="14.00">[77]</text>
</g>
<!-- 71&#45;&gt;77 -->
<g id="edge39" class="edge">
<title>71&#45;&gt;77</title>
<path fill="none" stroke="black" d="M1159.46,-1038.27C1159.31,-1022.06 1159.08,-997.36 1158.9,-978.09"/>
<polygon fill="black" stroke="black" points="1162.4,-978.12 1158.8,-968.15 1155.4,-978.19 1162.4,-978.12"/>
<text text-anchor="middle" x="1199.77" y="-997.25" font-family="Times New Roman,serif" font-size="14.00">graphAnd#118</text>
</g>
<!-- 74 -->
<g id="node4" class="node">
<title>74</title>
<polygon fill="yellow" stroke="black" points="1196.62,-877.8 1120.62,-877.8 1120.62,-841.8 1196.62,-841.8 1196.62,-877.8"/>
<text text-anchor="middle" x="1158.62" y="-854.75" font-family="Times New Roman,serif" font-size="14.00">Index0 = 1</text>
<text text-anchor="middle" x="1109.38" y="-881" font-family="Times New Roman,serif" font-size="14.00">[74]</text>
</g>
<!-- 113 -->
<g id="node33" class="node">
<title>113</title>
<polygon fill="aquamarine" stroke="black" points="1158.62,-789.3 1151.42,-782.1 1158.62,-774.9 1165.83,-782.1 1158.62,-789.3"/>
<text text-anchor="middle" x="1133.05" y="-792.5" font-family="Times New Roman,serif" font-size="14.00">&lt;113&gt;</text>
</g>
<!-- 74&#45;&gt;113 -->
<g id="edge38" class="edge">
<title>74&#45;&gt;113</title>
<path fill="none" stroke="black" d="M1158.62,-841.62C1158.62,-829.58 1158.62,-813.5 1158.62,-801.25"/>
<polygon fill="black" stroke="black" points="1162.13,-801.34 1158.63,-791.34 1155.13,-801.34 1162.13,-801.34"/>
<text text-anchor="middle" x="1199.12" y="-810.5" font-family="Times New Roman,serif" font-size="14.00">graphAnd#117</text>
</g>
<!-- 77&#45;&gt;74 -->
<g id="edge9" class="edge">
<title>77&#45;&gt;74</title>
<path fill="none" stroke="black" d="M1158.62,-930.21C1158.62,-918.56 1158.62,-902.85 1158.62,-889.32"/>
<polygon fill="black" stroke="black" points="1162.13,-889.66 1158.63,-879.66 1155.13,-889.66 1162.13,-889.66"/>
<text text-anchor="middle" x="1195.75" y="-899" font-family="Times New Roman,serif" font-size="14.00">graphAnd#76</text>
</g>
<!-- 80 -->
<g id="node6" class="node">
<title>80</title>
<polygon fill="yellow" stroke="black" points="1075.75,-722.4 955.5,-722.4 955.5,-686.4 1075.75,-686.4 1075.75,-722.4"/>
<text text-anchor="middle" x="1015.62" y="-699.35" font-family="Times New Roman,serif" font-size="14.00">Index0 &gt; d1 &#45; 1+ 1</text>
<text text-anchor="middle" x="944.25" y="-725.6" font-family="Times New Roman,serif" font-size="14.00">[80]</text>
</g>
<!-- 121 -->
<g id="node41" class="node">
<title>121</title>
<polygon fill="aquamarine" stroke="black" points="958.62,-623.1 951.42,-615.9 958.62,-608.7 965.83,-615.9 958.62,-623.1"/>
<text text-anchor="middle" x="933.05" y="-626.3" font-family="Times New Roman,serif" font-size="14.00">&lt;121&gt;</text>
</g>
<!-- 80&#45;&gt;121 -->
<g id="edge3" class="edge">
<title>80&#45;&gt;121</title>
<path fill="none" stroke="black" d="M1004.36,-686.31C993.5,-669.83 977.3,-645.24 967.38,-630.18"/>
<polygon fill="black" stroke="black" points="970.46,-628.5 962.04,-622.08 964.62,-632.35 970.46,-628.5"/>
<text text-anchor="middle" x="1026.36" y="-655.1" font-family="Times New Roman,serif" font-size="14.00">merge1#130</text>
</g>
<!-- 16 -->
<g id="node7" class="node">
<title>16</title>
<polygon fill="yellow" stroke="black" points="687.5,-1536.3 379.75,-1536.3 379.75,-1500.3 687.5,-1500.3 687.5,-1536.3"/>
<text text-anchor="middle" x="533.62" y="-1513.25" font-family="Times New Roman,serif" font-size="14.00">self.data.getDimension() &lt;&gt; arg.data.getDimension()</text>
<text text-anchor="middle" x="368.5" y="-1539.5" font-family="Times New Roman,serif" font-size="14.00">[16]</text>
</g>
<!-- 19 -->
<g id="node9" class="node">
<title>19</title>
<polygon fill="yellow" stroke="black" points="788.62,-1447.8 418.62,-1447.8 418.62,-1411.8 788.62,-1411.8 788.62,-1447.8"/>
<text text-anchor="middle" x="603.62" y="-1424.75" font-family="Times New Roman,serif" font-size="14.00">self.data.getDimensionSizes(1) = arg.data.getDimensionSizes(1)</text>
<text text-anchor="middle" x="407.38" y="-1451" font-family="Times New Roman,serif" font-size="14.00">[19]</text>
</g>
<!-- 16&#45;&gt;19 -->
<g id="edge10" class="edge">
<title>16&#45;&gt;19</title>
<path fill="none" stroke="black" d="M547.45,-1500.21C557.46,-1487.85 571.15,-1470.93 582.52,-1456.88"/>
<polygon fill="black" stroke="black" points="585.06,-1459.3 588.63,-1449.33 579.62,-1454.9 585.06,-1459.3"/>
<text text-anchor="middle" x="612.02" y="-1469" font-family="Times New Roman,serif" font-size="14.00">graphAnd#17</text>
</g>
<!-- 83 -->
<g id="node8" class="node">
<title>83</title>
<polygon fill="yellow" stroke="black" points="1222.88,-722.4 1094.38,-722.4 1094.38,-686.4 1222.88,-686.4 1222.88,-722.4"/>
<text text-anchor="middle" x="1158.62" y="-699.35" font-family="Times New Roman,serif" font-size="14.00">Index0 &lt;= d1 &#45; 1+ 1</text>
<text text-anchor="middle" x="1083.12" y="-725.6" font-family="Times New Roman,serif" font-size="14.00">[83]</text>
</g>
<!-- 86 -->
<g id="node10" class="node">
<title>86</title>
<polygon fill="yellow" stroke="black" points="1222.75,-633.9 1090.5,-633.9 1090.5,-597.9 1222.75,-597.9 1222.75,-633.9"/>
<text text-anchor="middle" x="1156.62" y="-610.85" font-family="Times New Roman,serif" font-size="14.00">it = Sequence{1..d1}</text>
<text text-anchor="middle" x="1079.25" y="-637.1" font-family="Times New Roman,serif" font-size="14.00">[86]</text>
</g>
<!-- 83&#45;&gt;86 -->
<g id="edge29" class="edge">
<title>83&#45;&gt;86</title>
<path fill="none" stroke="black" d="M1158.1,-685.95C1157.93,-680.35 1157.76,-674.11 1157.62,-668.4 1157.45,-660.98 1157.28,-652.96 1157.13,-645.5"/>
<polygon fill="black" stroke="black" points="1160.63,-645.51 1156.95,-635.58 1153.64,-645.64 1160.63,-645.51"/>
<text text-anchor="middle" x="1198.12" y="-655.1" font-family="Times New Roman,serif" font-size="14.00">graphAnd#109</text>
</g>
<!-- 22 -->
<g id="node11" class="node">
<title>22</title>
<polygon fill="yellow" stroke="black" points="788.62,-1339.8 418.62,-1339.8 418.62,-1303.8 788.62,-1303.8 788.62,-1339.8"/>
<text text-anchor="middle" x="603.62" y="-1316.75" font-family="Times New Roman,serif" font-size="14.00">self.data.getDimensionSizes(2) = arg.data.getDimensionSizes(2)</text>
<text text-anchor="middle" x="407.38" y="-1343" font-family="Times New Roman,serif" font-size="14.00">[22]</text>
</g>
<!-- 19&#45;&gt;22 -->
<g id="edge11" class="edge">
<title>19&#45;&gt;22</title>
<path fill="none" stroke="black" d="M603.62,-1411.77C603.62,-1395.56 603.62,-1370.86 603.62,-1351.59"/>
<polygon fill="black" stroke="black" points="607.13,-1351.65 603.63,-1341.65 600.13,-1351.65 607.13,-1351.65"/>
<text text-anchor="middle" x="640.75" y="-1370.75" font-family="Times New Roman,serif" font-size="14.00">graphAnd#20</text>
</g>
<!-- 92 -->
<g id="node14" class="node">
<title>92</title>
<polygon fill="yellow" stroke="black" points="1195.38,-545.4 1117.88,-545.4 1117.88,-509.4 1195.38,-509.4 1195.38,-545.4"/>
<text text-anchor="middle" x="1156.62" y="-522.35" font-family="Times New Roman,serif" font-size="14.00">acc2 = true</text>
<text text-anchor="middle" x="1106.62" y="-548.6" font-family="Times New Roman,serif" font-size="14.00">[92]</text>
</g>
<!-- 86&#45;&gt;92 -->
<g id="edge31" class="edge">
<title>86&#45;&gt;92</title>
<path fill="none" stroke="black" d="M1156.62,-597.81C1156.62,-586.16 1156.62,-570.45 1156.62,-556.92"/>
<polygon fill="black" stroke="black" points="1160.13,-557.26 1156.63,-547.26 1153.13,-557.26 1160.13,-557.26"/>
<text text-anchor="middle" x="1197.12" y="-566.6" font-family="Times New Roman,serif" font-size="14.00">graphAnd#110</text>
</g>
<!-- 34 -->
<g id="node20" class="node">
<title>34</title>
<polygon fill="aquamarine" stroke="black" points="603.62,-1240.5 596.42,-1233.3 603.62,-1226.1 610.83,-1233.3 603.62,-1240.5"/>
<text text-anchor="middle" x="581.42" y="-1243.7" font-family="Times New Roman,serif" font-size="14.00">&lt;34&gt;</text>
</g>
<!-- 22&#45;&gt;34 -->
<g id="edge17" class="edge">
<title>22&#45;&gt;34</title>
<path fill="none" stroke="black" d="M603.62,-1303.71C603.62,-1288.94 603.62,-1267.63 603.62,-1252.53"/>
<polygon fill="black" stroke="black" points="607.13,-1252.69 603.63,-1242.69 600.13,-1252.69 607.13,-1252.69"/>
<text text-anchor="middle" x="634.38" y="-1272.5" font-family="Times New Roman,serif" font-size="14.00">merge1#32</text>
</g>
<!-- 89 -->
<g id="node12" class="node">
<title>89</title>
<polygon fill="yellow" stroke="black" points="1162.62,-456.9 1086.62,-456.9 1086.62,-420.9 1162.62,-420.9 1162.62,-456.9"/>
<text text-anchor="middle" x="1124.62" y="-433.85" font-family="Times New Roman,serif" font-size="14.00">Index1 = 1</text>
<text text-anchor="middle" x="1075.38" y="-460.1" font-family="Times New Roman,serif" font-size="14.00">[89]</text>
</g>
<!-- 109 -->
<g id="node28" class="node">
<title>109</title>
<polygon fill="aquamarine" stroke="black" points="1062.62,-368.4 1055.42,-361.2 1062.62,-354 1069.83,-361.2 1062.62,-368.4"/>
<text text-anchor="middle" x="1037.05" y="-371.6" font-family="Times New Roman,serif" font-size="14.00">&lt;109&gt;</text>
</g>
<!-- 89&#45;&gt;109 -->
<g id="edge26" class="edge">
<title>89&#45;&gt;109</title>
<path fill="none" stroke="black" d="M1110.56,-420.72C1099.06,-406.68 1083.07,-387.17 1072.79,-374.61"/>
<polygon fill="black" stroke="black" points="1075.71,-372.66 1066.67,-367.14 1070.3,-377.09 1075.71,-372.66"/>
<text text-anchor="middle" x="1135.98" y="-389.6" font-family="Times New Roman,serif" font-size="14.00">graphAnd#106</text>
</g>
<!-- 25 -->
<g id="node13" class="node">
<title>25</title>
<polygon fill="yellow" stroke="black" points="361.38,-1536.3 61.88,-1536.3 61.88,-1500.3 361.38,-1500.3 361.38,-1536.3"/>
<text text-anchor="middle" x="211.62" y="-1513.25" font-family="Times New Roman,serif" font-size="14.00">self.data.getDimension() = arg.data.getDimension()</text>
<text text-anchor="middle" x="50.62" y="-1539.5" font-family="Times New Roman,serif" font-size="14.00">[25]</text>
</g>
<!-- 28 -->
<g id="node15" class="node">
<title>28</title>
<polygon fill="yellow" stroke="black" points="400.75,-1447.8 22.5,-1447.8 22.5,-1411.8 400.75,-1411.8 400.75,-1447.8"/>
<text text-anchor="middle" x="211.62" y="-1424.75" font-family="Times New Roman,serif" font-size="14.00">self.data.getDimensionSizes(1) &lt;&gt; arg.data.getDimensionSizes(1)</text>
<text text-anchor="middle" x="11.25" y="-1451" font-family="Times New Roman,serif" font-size="14.00">[28]</text>
</g>
<!-- 25&#45;&gt;28 -->
<g id="edge13" class="edge">
<title>25&#45;&gt;28</title>
<path fill="none" stroke="black" d="M211.62,-1500.21C211.62,-1488.56 211.62,-1472.85 211.62,-1459.32"/>
<polygon fill="black" stroke="black" points="215.13,-1459.66 211.63,-1449.66 208.13,-1459.66 215.13,-1459.66"/>
<text text-anchor="middle" x="248.75" y="-1469" font-family="Times New Roman,serif" font-size="14.00">graphAnd#25</text>
</g>
<!-- 92&#45;&gt;89 -->
<g id="edge12" class="edge">
<title>92&#45;&gt;89</title>
<path fill="none" stroke="black" d="M1150.3,-509.31C1145.95,-497.54 1140.06,-481.63 1135.02,-468.01"/>
<polygon fill="black" stroke="black" points="1138.32,-466.83 1131.57,-458.67 1131.76,-469.26 1138.32,-466.83"/>
<text text-anchor="middle" x="1180.62" y="-478.1" font-family="Times New Roman,serif" font-size="14.00">graphAnd#87</text>
</g>
<!-- 31 -->
<g id="node17" class="node">
<title>31</title>
<polygon fill="yellow" stroke="black" points="399.62,-1339.8 29.62,-1339.8 29.62,-1303.8 399.62,-1303.8 399.62,-1339.8"/>
<text text-anchor="middle" x="214.62" y="-1316.75" font-family="Times New Roman,serif" font-size="14.00">self.data.getDimensionSizes(2) = arg.data.getDimensionSizes(2)</text>
<text text-anchor="middle" x="18.38" y="-1343" font-family="Times New Roman,serif" font-size="14.00">[31]</text>
</g>
<!-- 28&#45;&gt;31 -->
<g id="edge14" class="edge">
<title>28&#45;&gt;31</title>
<path fill="none" stroke="black" d="M212.11,-1411.77C212.57,-1395.56 213.26,-1370.86 213.81,-1351.59"/>
<polygon fill="black" stroke="black" points="217.31,-1351.75 214.09,-1341.65 210.31,-1351.55 217.31,-1351.75"/>
<text text-anchor="middle" x="250.69" y="-1370.75" font-family="Times New Roman,serif" font-size="14.00">graphAnd#28</text>
</g>
<!-- 95 -->
<g id="node16" class="node">
<title>95</title>
<polygon fill="yellow" stroke="black" points="1220.75,-301.5 1100.5,-301.5 1100.5,-265.5 1220.75,-265.5 1220.75,-301.5"/>
<text text-anchor="middle" x="1160.62" y="-278.45" font-family="Times New Roman,serif" font-size="14.00">Index1 &gt; d2 &#45; 1+ 1</text>
<text text-anchor="middle" x="1089.25" y="-304.7" font-family="Times New Roman,serif" font-size="14.00">[95]</text>
</g>
<!-- 111 -->
<g id="node30" class="node">
<title>111</title>
<polygon fill="yellow" stroke="black" points="1293.25,-213 1164,-213 1164,-177 1293.25,-177 1293.25,-213"/>
<text text-anchor="middle" x="1228.62" y="-189.95" font-family="Times New Roman,serif" font-size="14.00">Index0 = Index0 + 1</text>
<text text-anchor="middle" x="1149.38" y="-216.2" font-family="Times New Roman,serif" font-size="14.00">[111]</text>
</g>
<!-- 95&#45;&gt;111 -->
<g id="edge33" class="edge">
<title>95&#45;&gt;111</title>
<path fill="none" stroke="black" d="M1154.8,-265.02C1152.37,-254.42 1151.38,-241.04 1157.62,-231 1160.16,-226.93 1163.32,-223.32 1166.88,-220.12"/>
<polygon fill="black" stroke="black" points="1168.76,-223.09 1174.64,-214.28 1164.55,-217.5 1168.76,-223.09"/>
<text text-anchor="middle" x="1198.12" y="-234.2" font-family="Times New Roman,serif" font-size="14.00">graphAnd#111</text>
</g>
<!-- 31&#45;&gt;34 -->
<g id="edge18" class="edge">
<title>31&#45;&gt;34</title>
<path fill="none" stroke="black" d="M292.88,-1303.4C386.77,-1282.52 537.75,-1248.95 587.3,-1237.93"/>
<polygon fill="black" stroke="black" points="587.77,-1241.41 596.77,-1235.82 586.25,-1234.58 587.77,-1241.41"/>
<text text-anchor="middle" x="474.72" y="-1272.5" font-family="Times New Roman,serif" font-size="14.00">merge2#33</text>
</g>
<!-- 33 -->
<g id="node18" class="node">
<title>33</title>
<polygon fill="aquamarine" stroke="black" points="533.62,-1614 526.42,-1606.8 533.62,-1599.6 540.83,-1606.8 533.62,-1614"/>
<text text-anchor="middle" x="511.43" y="-1617.2" font-family="Times New Roman,serif" font-size="14.00">&lt;33&gt;</text>
</g>
<!-- 33&#45;&gt;16 -->
<g id="edge15" class="edge">
<title>33&#45;&gt;16</title>
<path fill="none" stroke="black" d="M533.62,-1599.01C533.62,-1588.15 533.62,-1566.25 533.62,-1548.15"/>
<polygon fill="black" stroke="black" points="537.13,-1548.19 533.63,-1538.19 530.13,-1548.19 537.13,-1548.19"/>
<text text-anchor="middle" x="558.75" y="-1557.5" font-family="Times New Roman,serif" font-size="14.00">split1#30</text>
</g>
<!-- 33&#45;&gt;25 -->
<g id="edge16" class="edge">
<title>33&#45;&gt;25</title>
<path fill="none" stroke="black" d="M528.3,-1604.37C500.76,-1596.97 372.37,-1562.48 287.76,-1539.75"/>
<polygon fill="black" stroke="black" points="288.67,-1536.37 278.1,-1537.16 286.85,-1543.13 288.67,-1536.37"/>
<text text-anchor="middle" x="426.59" y="-1557.5" font-family="Times New Roman,serif" font-size="14.00">split2#31</text>
</g>
<!-- 98 -->
<g id="node19" class="node">
<title>98</title>
<polygon fill="yellow" stroke="black" points="1082.88,-301.5 954.38,-301.5 954.38,-265.5 1082.88,-265.5 1082.88,-301.5"/>
<text text-anchor="middle" x="1018.62" y="-278.45" font-family="Times New Roman,serif" font-size="14.00">Index1 &lt;= d2 &#45; 1+ 1</text>
<text text-anchor="middle" x="943.12" y="-304.7" font-family="Times New Roman,serif" font-size="14.00">[98]</text>
</g>
<!-- 101 -->
<g id="node22" class="node">
<title>101</title>
<polygon fill="yellow" stroke="black" points="1122.12,-213 983.12,-213 983.12,-177 1122.12,-177 1122.12,-213"/>
<text text-anchor="middle" x="1052.62" y="-189.95" font-family="Times New Roman,serif" font-size="14.00">it2 = Sequence{1..d2}</text>
<text text-anchor="middle" x="968.5" y="-216.2" font-family="Times New Roman,serif" font-size="14.00">[101]</text>
</g>
<!-- 98&#45;&gt;101 -->
<g id="edge19" class="edge">
<title>98&#45;&gt;101</title>
<path fill="none" stroke="black" d="M1025.34,-265.41C1030.02,-253.52 1036.35,-237.41 1041.74,-223.7"/>
<polygon fill="black" stroke="black" points="1044.85,-225.35 1045.25,-214.76 1038.34,-222.79 1044.85,-225.35"/>
<text text-anchor="middle" x="1075.8" y="-234.2" font-family="Times New Roman,serif" font-size="14.00">graphAnd#98</text>
</g>
<!-- 45 -->
<g id="node29" class="node">
<title>45</title>
<polygon fill="aquamarine" stroke="black" points="890.62,-1152 883.42,-1144.8 890.62,-1137.6 897.83,-1144.8 890.62,-1152"/>
<text text-anchor="middle" x="868.42" y="-1155.2" font-family="Times New Roman,serif" font-size="14.00">&lt;45&gt;</text>
</g>
<!-- 34&#45;&gt;45 -->
<g id="edge32" class="edge">
<title>34&#45;&gt;45</title>
<path fill="none" stroke="black" d="M608.85,-1230.72C641.7,-1220.82 820,-1167.09 874.67,-1150.61"/>
<polygon fill="black" stroke="black" points="875.51,-1154.01 884.08,-1147.77 873.49,-1147.31 875.51,-1154.01"/>
<text text-anchor="middle" x="803.58" y="-1184" font-family="Times New Roman,serif" font-size="14.00">merge1#46</text>
</g>
<!-- 36 -->
<g id="node21" class="node">
<title>36</title>
<polygon fill="yellow" stroke="black" points="1040.38,-1624.8 740.88,-1624.8 740.88,-1588.8 1040.38,-1588.8 1040.38,-1624.8"/>
<text text-anchor="middle" x="890.62" y="-1601.75" font-family="Times New Roman,serif" font-size="14.00">self.data.getDimension() = arg.data.getDimension()</text>
<text text-anchor="middle" x="729.62" y="-1628" font-family="Times New Roman,serif" font-size="14.00">[36]</text>
</g>
<!-- 39 -->
<g id="node23" class="node">
<title>39</title>
<polygon fill="yellow" stroke="black" points="1075.62,-1536.3 705.62,-1536.3 705.62,-1500.3 1075.62,-1500.3 1075.62,-1536.3"/>
<text text-anchor="middle" x="890.62" y="-1513.25" font-family="Times New Roman,serif" font-size="14.00">self.data.getDimensionSizes(1) = arg.data.getDimensionSizes(1)</text>
<text text-anchor="middle" x="694.38" y="-1539.5" font-family="Times New Roman,serif" font-size="14.00">[39]</text>
</g>
<!-- 36&#45;&gt;39 -->
<g id="edge24" class="edge">
<title>36&#45;&gt;39</title>
<path fill="none" stroke="black" d="M890.62,-1588.71C890.62,-1577.06 890.62,-1561.35 890.62,-1547.82"/>
<polygon fill="black" stroke="black" points="894.13,-1548.16 890.63,-1538.16 887.13,-1548.16 894.13,-1548.16"/>
<text text-anchor="middle" x="927.75" y="-1557.5" font-family="Times New Roman,serif" font-size="14.00">graphAnd#39</text>
</g>
<!-- 104 -->
<g id="node24" class="node">
<title>104</title>
<polygon fill="yellow" stroke="black" points="1233.75,-124.5 921.5,-124.5 921.5,-88.5 1233.75,-88.5 1233.75,-124.5"/>
<text text-anchor="middle" x="1077.62" y="-101.45" font-family="Times New Roman,serif" font-size="14.00">result.data[it][it2] = self.data[it][it2] + arg.data[it][it2]</text>
<text text-anchor="middle" x="906.88" y="-127.7" font-family="Times New Roman,serif" font-size="14.00">[104]</text>
</g>
<!-- 101&#45;&gt;104 -->
<g id="edge20" class="edge">
<title>101&#45;&gt;104</title>
<path fill="none" stroke="black" d="M1057.56,-176.91C1060.97,-165.14 1065.56,-149.23 1069.5,-135.61"/>
<polygon fill="black" stroke="black" points="1072.78,-136.88 1072.19,-126.3 1066.05,-134.94 1072.78,-136.88"/>
<text text-anchor="middle" x="1104.49" y="-145.7" font-family="Times New Roman,serif" font-size="14.00">graphAnd#99</text>
</g>
<!-- 42 -->
<g id="node25" class="node">
<title>42</title>
<polygon fill="yellow" stroke="black" points="1079.75,-1393.8 701.5,-1393.8 701.5,-1357.8 1079.75,-1357.8 1079.75,-1393.8"/>
<text text-anchor="middle" x="890.62" y="-1370.75" font-family="Times New Roman,serif" font-size="14.00">self.data.getDimensionSizes(2) &lt;&gt; arg.data.getDimensionSizes(2)</text>
<text text-anchor="middle" x="690.25" y="-1397" font-family="Times New Roman,serif" font-size="14.00">[42]</text>
</g>
<!-- 39&#45;&gt;42 -->
<g id="edge27" class="edge">
<title>39&#45;&gt;42</title>
<path fill="none" stroke="black" d="M890.62,-1500.07C890.62,-1476.48 890.62,-1433.8 890.62,-1405.38"/>
<polygon fill="black" stroke="black" points="894.13,-1405.68 890.63,-1395.68 887.13,-1405.68 894.13,-1405.68"/>
<text text-anchor="middle" x="927.75" y="-1469" font-family="Times New Roman,serif" font-size="14.00">graphAnd#42</text>
</g>
<!-- 107 -->
<g id="node26" class="node">
<title>107</title>
<polygon fill="yellow" stroke="black" points="974.25,-36 845,-36 845,0 974.25,0 974.25,-36"/>
<text text-anchor="middle" x="909.62" y="-12.95" font-family="Times New Roman,serif" font-size="14.00">Index1 = Index1 + 1</text>
<text text-anchor="middle" x="830.38" y="-39.2" font-family="Times New Roman,serif" font-size="14.00">[107]</text>
</g>
<!-- 104&#45;&gt;107 -->
<g id="edge21" class="edge">
<title>104&#45;&gt;107</title>
<path fill="none" stroke="black" d="M1044.03,-88.2C1018.02,-74.81 981.78,-56.15 953.48,-41.58"/>
<polygon fill="black" stroke="black" points="955.29,-38.57 944.79,-37.11 952.08,-44.8 955.29,-38.57"/>
<text text-anchor="middle" x="1049.17" y="-57.2" font-family="Times New Roman,serif" font-size="14.00">graphAnd#100</text>
</g>
<!-- 42&#45;&gt;45 -->
<g id="edge34" class="edge">
<title>42&#45;&gt;45</title>
<path fill="none" stroke="black" d="M890.62,-1357.59C890.62,-1315.26 890.62,-1206.43 890.62,-1163.55"/>
<polygon fill="black" stroke="black" points="894.13,-1163.82 890.63,-1153.82 887.13,-1163.82 894.13,-1163.82"/>
<text text-anchor="middle" x="921.38" y="-1272.5" font-family="Times New Roman,serif" font-size="14.00">merge2#47</text>
</g>
<!-- 107&#45;&gt;109 -->
<g id="edge23" class="edge">
<title>107&#45;&gt;109</title>
<path fill="none" stroke="black" d="M904.47,-36.39C899.8,-53.73 893.62,-81.22 893.62,-105.5 893.62,-284.5 893.62,-284.5 893.62,-284.5 893.62,-350.05 1000.84,-359.21 1044.48,-360.22"/>
<polygon fill="black" stroke="black" points="1044.24,-363.71 1054.28,-360.31 1044.31,-356.71 1044.24,-363.71"/>
<text text-anchor="middle" x="924" y="-189.95" font-family="Times New Roman,serif" font-size="14.00">iterate#103</text>
</g>
<!-- 44 -->
<g id="node27" class="node">
<title>44</title>
<polygon fill="aquamarine" stroke="black" points="890.62,-1702.5 883.42,-1695.3 890.62,-1688.1 897.83,-1695.3 890.62,-1702.5"/>
<text text-anchor="middle" x="868.42" y="-1705.7" font-family="Times New Roman,serif" font-size="14.00">&lt;44&gt;</text>
</g>
<!-- 44&#45;&gt;33 -->
<g id="edge28" class="edge">
<title>44&#45;&gt;33</title>
<path fill="none" stroke="black" d="M885.3,-1693.01C847.08,-1683.75 614.15,-1627.31 549.98,-1611.76"/>
<polygon fill="black" stroke="black" points="550.99,-1608.41 540.45,-1609.45 549.34,-1615.21 550.99,-1608.41"/>
<text text-anchor="middle" x="769.23" y="-1646" font-family="Times New Roman,serif" font-size="14.00">split1#44</text>
</g>
<!-- 44&#45;&gt;36 -->
<g id="edge30" class="edge">
<title>44&#45;&gt;36</title>
<path fill="none" stroke="black" d="M890.62,-1687.51C890.62,-1676.65 890.62,-1654.75 890.62,-1636.65"/>
<polygon fill="black" stroke="black" points="894.13,-1636.69 890.63,-1626.69 887.13,-1636.69 894.13,-1636.69"/>
<text text-anchor="middle" x="915.75" y="-1646" font-family="Times New Roman,serif" font-size="14.00">split2#45</text>
</g>
<!-- 109&#45;&gt;95 -->
<g id="edge25" class="edge">
<title>109&#45;&gt;95</title>
<path fill="none" stroke="black" d="M1067.76,-358.52C1077.37,-355.21 1098.5,-347.19 1113.62,-336 1123.4,-328.76 1132.75,-319.27 1140.49,-310.41"/>
<polygon fill="black" stroke="black" points="1142.94,-312.94 1146.69,-303.03 1137.58,-308.44 1142.94,-312.94"/>
<text text-anchor="middle" x="1171.31" y="-322.7" font-family="Times New Roman,serif" font-size="14.00">graphAnd#105</text>
</g>
<!-- 109&#45;&gt;98 -->
<g id="edge22" class="edge">
<title>109&#45;&gt;98</title>
<path fill="none" stroke="black" d="M1060.26,-356.13C1055.41,-347.79 1043.99,-328.14 1034.33,-311.52"/>
<polygon fill="black" stroke="black" points="1037.43,-309.9 1029.38,-303.01 1031.38,-313.41 1037.43,-309.9"/>
<text text-anchor="middle" x="1078.77" y="-322.7" font-family="Times New Roman,serif" font-size="14.00">iterate#102</text>
</g>
<!-- 47 -->
<g id="node31" class="node">
<title>47</title>
<polygon fill="yellow" stroke="black" points="1014.88,-1020.3 826.38,-1020.3 826.38,-984.3 1014.88,-984.3 1014.88,-1020.3"/>
<text text-anchor="middle" x="920.62" y="-997.25" font-family="Times New Roman,serif" font-size="14.00">Result = &#39;IllegalDimensionSize&#39;</text>
<text text-anchor="middle" x="815.12" y="-1023.5" font-family="Times New Roman,serif" font-size="14.00">[47]</text>
</g>
<!-- 45&#45;&gt;47 -->
<g id="edge42" class="edge">
<title>45&#45;&gt;47</title>
<path fill="none" stroke="black" d="M891.84,-1138.12C895.6,-1120.48 907.27,-1065.83 914.55,-1031.76"/>
<polygon fill="black" stroke="black" points="917.93,-1032.66 916.6,-1022.15 911.09,-1031.2 917.93,-1032.66"/>
<text text-anchor="middle" x="941.68" y="-1095.5" font-family="Times New Roman,serif" font-size="14.00">graphAnd#120</text>
</g>
<!-- 111&#45;&gt;113 -->
<g id="edge36" class="edge">
<title>111&#45;&gt;113</title>
<path fill="none" stroke="black" d="M1236.48,-213.5C1243.48,-230.7 1252.62,-257.88 1252.62,-282.5 1252.62,-705.4 1252.62,-705.4 1252.62,-705.4 1252.62,-731.67 1243.59,-739.83 1223.62,-756.9 1209.75,-768.76 1189.51,-775.06 1175.32,-778.23"/>
<polygon fill="black" stroke="black" points="1174.98,-774.73 1165.82,-780.04 1176.3,-781.6 1174.98,-774.73"/>
<text text-anchor="middle" x="1283" y="-478.1" font-family="Times New Roman,serif" font-size="14.00">iterate#114</text>
</g>
<!-- 47&#45;&gt;121 -->
<g id="edge5" class="edge">
<title>47&#45;&gt;121</title>
<path fill="none" stroke="black" d="M922.07,-983.93C923.55,-964.66 925.62,-932.66 925.62,-905.05 925.62,-905.05 925.62,-905.05 925.62,-703.4 925.62,-675.98 940.28,-646.69 950.06,-630.2"/>
<polygon fill="black" stroke="black" points="952.88,-632.28 955.23,-621.95 946.95,-628.56 952.88,-632.28"/>
<text text-anchor="middle" x="959.75" y="-810.5" font-family="Times New Roman,serif" font-size="14.00">merge2#131</text>
</g>
<!-- 48 -->
<g id="node32" class="node">
<title>48</title>
<ellipse fill="black" stroke="black" cx="958.62" cy="-527.4" rx="7.2" ry="7.2"/>
<ellipse fill="none" stroke="black" cx="958.62" cy="-527.4" rx="11.2" ry="11.2"/>
<text text-anchor="middle" x="937.3" y="-541.8" font-family="Times New Roman,serif" font-size="14.00">[&#45;1]</text>
</g>
<!-- 113&#45;&gt;80 -->
<g id="edge37" class="edge">
<title>113&#45;&gt;80</title>
<path fill="none" stroke="black" d="M1152.93,-780.37C1138.75,-778.38 1101.07,-771.95 1073.62,-756.9 1061.02,-749.99 1048.85,-739.89 1038.93,-730.46"/>
<polygon fill="black" stroke="black" points="1041.49,-728.06 1031.92,-723.51 1036.56,-733.03 1041.49,-728.06"/>
<text text-anchor="middle" x="1114.12" y="-743.6" font-family="Times New Roman,serif" font-size="14.00">graphAnd#116</text>
</g>
<!-- 113&#45;&gt;83 -->
<g id="edge35" class="edge">
<title>113&#45;&gt;83</title>
<path fill="none" stroke="black" d="M1158.62,-774.38C1158.62,-765.3 1158.62,-748.55 1158.62,-733.83"/>
<polygon fill="black" stroke="black" points="1162.13,-734.16 1158.63,-724.16 1155.13,-734.16 1162.13,-734.16"/>
<text text-anchor="middle" x="1189" y="-743.6" font-family="Times New Roman,serif" font-size="14.00">iterate#113</text>
</g>
<!-- 114 -->
<g id="node34" class="node">
<title>114</title>
<ellipse fill="black" stroke="black" cx="977.62" cy="-2001.4" rx="7.2" ry="7.2"/>
<text text-anchor="middle" x="962.55" y="-2011.8" font-family="Times New Roman,serif" font-size="14.00">[0]</text>
</g>
<!-- 115 -->
<g id="node36" class="node">
<title>115</title>
<polygon fill="yellow" stroke="black" points="1082,-1957.2 873.25,-1957.2 873.25,-1921.2 1082,-1921.2 1082,-1957.2"/>
<text text-anchor="middle" x="977.62" y="-1934.15" font-family="Times New Roman,serif" font-size="14.00">self.data.getDimensionSizes(1) &gt; 0</text>
<text text-anchor="middle" x="858.62" y="-1960.4" font-family="Times New Roman,serif" font-size="14.00">[115]</text>
</g>
<!-- 114&#45;&gt;115 -->
<g id="edge44" class="edge">
<title>114&#45;&gt;115</title>
<path fill="none" stroke="black" d="M977.62,-1993.96C977.62,-1987.9 977.62,-1978.39 977.62,-1969.04"/>
<polygon fill="black" stroke="black" points="981.13,-1969.08 977.63,-1959.08 974.13,-1969.08 981.13,-1969.08"/>
</g>
<!-- 50 -->
<g id="node35" class="node">
<title>50</title>
<polygon fill="yellow" stroke="black" points="1312.38,-1713.3 1012.88,-1713.3 1012.88,-1677.3 1312.38,-1677.3 1312.38,-1713.3"/>
<text text-anchor="middle" x="1162.62" y="-1690.25" font-family="Times New Roman,serif" font-size="14.00">self.data.getDimension() = arg.data.getDimension()</text>
<text text-anchor="middle" x="1001.62" y="-1716.5" font-family="Times New Roman,serif" font-size="14.00">[50]</text>
</g>
<!-- 53 -->
<g id="node37" class="node">
<title>53</title>
<polygon fill="yellow" stroke="black" points="1445.62,-1624.8 1075.62,-1624.8 1075.62,-1588.8 1445.62,-1588.8 1445.62,-1624.8"/>
<text text-anchor="middle" x="1260.62" y="-1601.75" font-family="Times New Roman,serif" font-size="14.00">self.data.getDimensionSizes(1) = arg.data.getDimensionSizes(1)</text>
<text text-anchor="middle" x="1064.38" y="-1628" font-family="Times New Roman,serif" font-size="14.00">[53]</text>
</g>
<!-- 50&#45;&gt;53 -->
<g id="edge40" class="edge">
<title>50&#45;&gt;53</title>
<path fill="none" stroke="black" d="M1181.99,-1677.21C1196.39,-1664.5 1216.26,-1646.96 1232.43,-1632.69"/>
<polygon fill="black" stroke="black" points="1234.65,-1635.39 1239.83,-1626.15 1230.02,-1630.15 1234.65,-1635.39"/>
<text text-anchor="middle" x="1257.53" y="-1646" font-family="Times New Roman,serif" font-size="14.00">graphAnd#55</text>
</g>
<!-- 118 -->
<g id="node38" class="node">
<title>118</title>
<polygon fill="yellow" stroke="black" points="1082,-1868.7 873.25,-1868.7 873.25,-1832.7 1082,-1832.7 1082,-1868.7"/>
<text text-anchor="middle" x="977.62" y="-1845.65" font-family="Times New Roman,serif" font-size="14.00">self.data.getDimensionSizes(2) &gt; 0</text>
<text text-anchor="middle" x="858.62" y="-1871.9" font-family="Times New Roman,serif" font-size="14.00">[118]</text>
</g>
<!-- 115&#45;&gt;118 -->
<g id="edge46" class="edge">
<title>115&#45;&gt;118</title>
<path fill="none" stroke="black" d="M977.62,-1921.11C977.62,-1909.46 977.62,-1893.75 977.62,-1880.22"/>
<polygon fill="black" stroke="black" points="981.13,-1880.56 977.63,-1870.56 974.13,-1880.56 981.13,-1880.56"/>
<text text-anchor="middle" x="1018.12" y="-1889.9" font-family="Times New Roman,serif" font-size="14.00">graphAnd#126</text>
</g>
<!-- 56 -->
<g id="node39" class="node">
<title>56</title>
<polygon fill="yellow" stroke="black" points="1463.62,-1536.3 1093.62,-1536.3 1093.62,-1500.3 1463.62,-1500.3 1463.62,-1536.3"/>
<text text-anchor="middle" x="1278.62" y="-1513.25" font-family="Times New Roman,serif" font-size="14.00">self.data.getDimensionSizes(2) = arg.data.getDimensionSizes(2)</text>
<text text-anchor="middle" x="1082.38" y="-1539.5" font-family="Times New Roman,serif" font-size="14.00">[56]</text>
</g>
<!-- 53&#45;&gt;56 -->
<g id="edge45" class="edge">
<title>53&#45;&gt;56</title>
<path fill="none" stroke="black" d="M1264.18,-1588.71C1266.61,-1577.06 1269.88,-1561.35 1272.69,-1547.82"/>
<polygon fill="black" stroke="black" points="1276.1,-1548.64 1274.71,-1538.13 1269.24,-1547.21 1276.1,-1548.64"/>
<text text-anchor="middle" x="1308.36" y="-1557.5" font-family="Times New Roman,serif" font-size="14.00">graphAnd#58</text>
</g>
<!-- 120 -->
<g id="node40" class="node">
<title>120</title>
<polygon fill="aquamarine" stroke="black" points="977.62,-1780.2 970.42,-1773 977.62,-1765.8 984.83,-1773 977.62,-1780.2"/>
<text text-anchor="middle" x="952.05" y="-1783.4" font-family="Times New Roman,serif" font-size="14.00">&lt;120&gt;</text>
</g>
<!-- 118&#45;&gt;120 -->
<g id="edge7" class="edge">
<title>118&#45;&gt;120</title>
<path fill="none" stroke="black" d="M977.62,-1832.52C977.62,-1820.48 977.62,-1804.4 977.62,-1792.15"/>
<polygon fill="black" stroke="black" points="981.13,-1792.24 977.63,-1782.24 974.13,-1792.24 981.13,-1792.24"/>
<text text-anchor="middle" x="1018.12" y="-1801.4" font-family="Times New Roman,serif" font-size="14.00">graphAnd#133</text>
</g>
<!-- 59 -->
<g id="node42" class="node">
<title>59</title>
<polygon fill="yellow" stroke="black" points="1433.75,-1447.8 1121.5,-1447.8 1121.5,-1411.8 1433.75,-1411.8 1433.75,-1447.8"/>
<text text-anchor="middle" x="1277.62" y="-1424.75" font-family="Times New Roman,serif" font-size="14.00">self.data.getDimension() = result.data.getDimension()</text>
<text text-anchor="middle" x="1110.25" y="-1451" font-family="Times New Roman,serif" font-size="14.00">[59]</text>
</g>
<!-- 56&#45;&gt;59 -->
<g id="edge43" class="edge">
<title>56&#45;&gt;59</title>
<path fill="none" stroke="black" d="M1278.43,-1500.21C1278.29,-1488.56 1278.11,-1472.85 1277.95,-1459.32"/>
<polygon fill="black" stroke="black" points="1281.46,-1459.62 1277.84,-1449.66 1274.46,-1459.7 1281.46,-1459.62"/>
<text text-anchor="middle" x="1318.71" y="-1469" font-family="Times New Roman,serif" font-size="14.00">graphAnd#121</text>
</g>
<!-- 120&#45;&gt;44 -->
<g id="edge2" class="edge">
<title>120&#45;&gt;44</title>
<path fill="none" stroke="black" d="M974.32,-1769.12C962.69,-1759.01 923.26,-1724.7 902.95,-1707.02"/>
<polygon fill="black" stroke="black" points="905.3,-1704.43 895.46,-1700.5 900.7,-1709.71 905.3,-1704.43"/>
<text text-anchor="middle" x="977.98" y="-1734.5" font-family="Times New Roman,serif" font-size="14.00">split2#129</text>
</g>
<!-- 120&#45;&gt;50 -->
<g id="edge1" class="edge">
<title>120&#45;&gt;50</title>
<path fill="none" stroke="black" d="M982.2,-1770.13C999.54,-1763.03 1062.65,-1737.21 1109.36,-1718.1"/>
<polygon fill="black" stroke="black" points="1110.62,-1721.36 1118.55,-1714.34 1107.97,-1714.88 1110.62,-1721.36"/>
<text text-anchor="middle" x="1104.17" y="-1734.5" font-family="Times New Roman,serif" font-size="14.00">split1#128</text>
</g>
<!-- 121&#45;&gt;48 -->
<g id="edge6" class="edge">
<title>121&#45;&gt;48</title>
<path fill="none" stroke="black" d="M958.62,-608.11C958.62,-595.82 958.62,-569.39 958.62,-550.33"/>
<polygon fill="black" stroke="black" points="962.13,-550.34 958.63,-540.34 955.13,-550.34 962.13,-550.34"/>
<text text-anchor="middle" x="1007.75" y="-566.6" font-family="Times New Roman,serif" font-size="14.00">graphOr_end#132</text>
</g>
<!-- 62 -->
<g id="node43" class="node">
<title>62</title>
<polygon fill="yellow" stroke="black" points="1469,-1339.8 1086.25,-1339.8 1086.25,-1303.8 1469,-1303.8 1469,-1339.8"/>
<text text-anchor="middle" x="1277.62" y="-1316.75" font-family="Times New Roman,serif" font-size="14.00">self.data.getDimensionSizes(1) = result.data.getDimensionSizes(1)</text>
<text text-anchor="middle" x="1075" y="-1343" font-family="Times New Roman,serif" font-size="14.00">[62]</text>
</g>
<!-- 59&#45;&gt;62 -->
<g id="edge47" class="edge">
<title>59&#45;&gt;62</title>
<path fill="none" stroke="black" d="M1277.62,-1411.77C1277.62,-1395.56 1277.62,-1370.86 1277.62,-1351.59"/>
<polygon fill="black" stroke="black" points="1281.13,-1351.65 1277.63,-1341.65 1274.13,-1351.65 1281.13,-1351.65"/>
<text text-anchor="middle" x="1314.75" y="-1370.75" font-family="Times New Roman,serif" font-size="14.00">graphAnd#63</text>
</g>
<!-- 62&#45;&gt;65 -->
<g id="edge4" class="edge">
<title>62&#45;&gt;65</title>
<path fill="none" stroke="black" d="M1262.02,-1303.71C1250.62,-1291.23 1234.98,-1274.1 1222.08,-1259.98"/>
<polygon fill="black" stroke="black" points="1224.82,-1257.79 1215.49,-1252.77 1219.65,-1262.51 1224.82,-1257.79"/>
<text text-anchor="middle" x="1282.33" y="-1272.5" font-family="Times New Roman,serif" font-size="14.00">graphAnd#66</text>
</g>
</g>
</svg>
