<?xml version="1.0" encoding="UTF-8" standalone="no"?>
<!DOCTYPE svg PUBLIC "-//W3C//DTD SVG 1.1//EN"
 "http://www.w3.org/Graphics/SVG/1.1/DTD/svg11.dtd">
<!-- Generated by graphviz version 12.2.1 (20241206.2353)
 -->
<!-- Title: CLG Pages: 1 -->
<svg width="843pt" height="1718pt"
 viewBox="0.00 0.00 842.88 1718.10" xmlns="http://www.w3.org/2000/svg" xmlns:xlink="http://www.w3.org/1999/xlink">
<g id="graph0" class="graph" transform="scale(1 1) rotate(0) translate(4 1714.1)">
<title>CLG</title>
<polygon fill="white" stroke="none" points="-4,4 -4,-1714.1 838.88,-1714.1 838.88,4 -4,4"/>
<!-- 129 -->
<g id="node1" class="node">
<title>129</title>
<polygon fill="yellow" stroke="black" points="307.25,-877.8 205,-877.8 205,-841.8 307.25,-841.8 307.25,-877.8"/>
<text text-anchor="middle" x="256.12" y="-854.75" font-family="Times New Roman,serif" font-size="14.00">idx0 = idx0 + 1</text>
<text text-anchor="middle" x="190.38" y="-881" font-family="Times New Roman,serif" font-size="14.00">[129]</text>
</g>
<!-- 131 -->
<g id="node2" class="node">
<title>131</title>
<polygon fill="aquamarine" stroke="black" points="368.12,-789.3 360.93,-782.1 368.12,-774.9 375.32,-782.1 368.12,-789.3"/>
<text text-anchor="middle" x="342.55" y="-792.5" font-family="Times New Roman,serif" font-size="14.00">&lt;131&gt;</text>
</g>
<!-- 129&#45;&gt;131 -->
<g id="edge5" class="edge">
<title>129&#45;&gt;131</title>
<path fill="none" stroke="black" d="M267.12,-841.42C274.93,-830.31 286.32,-816.34 299.38,-807.3 315.31,-796.27 336.78,-789.78 351.46,-786.34"/>
<polygon fill="black" stroke="black" points="351.76,-789.85 360.83,-784.38 350.32,-783 351.76,-789.85"/>
<text text-anchor="middle" x="329.75" y="-810.5" font-family="Times New Roman,serif" font-size="14.00">iterate#134</text>
</g>
<!-- 98 -->
<g id="node16" class="node">
<title>98</title>
<polygon fill="yellow" stroke="black" points="556.5,-722.4 449.75,-722.4 449.75,-686.4 556.5,-686.4 556.5,-722.4"/>
<text text-anchor="middle" x="503.12" y="-699.35" font-family="Times New Roman,serif" font-size="14.00">idx0 &gt; d1 &#45; 1+ 1</text>
<text text-anchor="middle" x="438.5" y="-725.6" font-family="Times New Roman,serif" font-size="14.00">[98]</text>
</g>
<!-- 131&#45;&gt;98 -->
<g id="edge6" class="edge">
<title>131&#45;&gt;98</title>
<path fill="none" stroke="black" d="M373.57,-779.74C385.29,-776.67 413.6,-768.58 435.12,-756.9 448.89,-749.43 462.88,-739.34 474.57,-730.08"/>
<polygon fill="black" stroke="black" points="476.68,-732.87 482.22,-723.85 472.26,-727.44 476.68,-732.87"/>
<text text-anchor="middle" x="501.26" y="-743.6" font-family="Times New Roman,serif" font-size="14.00">graphAnd#136</text>
</g>
<!-- 101 -->
<g id="node17" class="node">
<title>101</title>
<polygon fill="yellow" stroke="black" points="430.62,-722.4 315.62,-722.4 315.62,-686.4 430.62,-686.4 430.62,-722.4"/>
<text text-anchor="middle" x="373.12" y="-699.35" font-family="Times New Roman,serif" font-size="14.00">idx0 &lt;= d1 &#45; 1+ 1</text>
<text text-anchor="middle" x="301" y="-725.6" font-family="Times New Roman,serif" font-size="14.00">[101]</text>
</g>
<!-- 131&#45;&gt;101 -->
<g id="edge4" class="edge">
<title>131&#45;&gt;101</title>
<path fill="none" stroke="black" d="M368.55,-774.65C369.14,-765.67 370.25,-748.86 371.23,-734.05"/>
<polygon fill="black" stroke="black" points="374.71,-734.51 371.88,-724.3 367.72,-734.05 374.71,-734.51"/>
<text text-anchor="middle" x="401.15" y="-743.6" font-family="Times New Roman,serif" font-size="14.00">iterate#133</text>
</g>
<!-- 132 -->
<g id="node3" class="node">
<title>132</title>
<ellipse fill="black" stroke="black" cx="426.12" cy="-1686.4" rx="7.2" ry="7.2"/>
<text text-anchor="middle" x="411.05" y="-1696.8" font-family="Times New Roman,serif" font-size="14.00">[0]</text>
</g>
<!-- 133 -->
<g id="node4" class="node">
<title>133</title>
<polygon fill="yellow" stroke="black" points="542.12,-1642.2 310.12,-1642.2 310.12,-1601.2 542.12,-1601.2 542.12,-1642.2"/>
<text text-anchor="middle" x="426.12" y="-1624.9" font-family="Times New Roman,serif" font-size="14.00">self.data.getDimensionSizes(1) &gt; 0 and</text>
<text text-anchor="middle" x="426.12" y="-1608.4" font-family="Times New Roman,serif" font-size="14.00">self.data.getDimensionSizes(2) &gt; 0</text>
<text text-anchor="middle" x="295.5" y="-1645.4" font-family="Times New Roman,serif" font-size="14.00">[133]</text>
</g>
<!-- 132&#45;&gt;133 -->
<g id="edge12" class="edge">
<title>132&#45;&gt;133</title>
<path fill="none" stroke="black" d="M426.12,-1679.16C426.12,-1673.13 426.12,-1663.51 426.12,-1653.91"/>
<polygon fill="black" stroke="black" points="429.63,-1653.97 426.13,-1643.97 422.63,-1653.97 429.63,-1653.97"/>
</g>
<!-- 135 -->
<g id="node5" class="node">
<title>135</title>
<polygon fill="aquamarine" stroke="black" points="426.12,-1548.7 418.93,-1541.5 426.12,-1534.3 433.32,-1541.5 426.12,-1548.7"/>
<text text-anchor="middle" x="400.55" y="-1551.9" font-family="Times New Roman,serif" font-size="14.00">&lt;135&gt;</text>
</g>
<!-- 133&#45;&gt;135 -->
<g id="edge18" class="edge">
<title>133&#45;&gt;135</title>
<path fill="none" stroke="black" d="M426.12,-1600.97C426.12,-1588.47 426.12,-1572.45 426.12,-1560.34"/>
<polygon fill="black" stroke="black" points="429.63,-1560.6 426.13,-1550.6 422.63,-1560.6 429.63,-1560.6"/>
<text text-anchor="middle" x="466.62" y="-1569.9" font-family="Times New Roman,serif" font-size="14.00">graphAnd#150</text>
</g>
<!-- 74 -->
<g id="node7" class="node">
<title>74</title>
<polygon fill="yellow" stroke="black" points="834.88,-1481.8 433.38,-1481.8 433.38,-1325.3 834.88,-1325.3 834.88,-1481.8"/>
<text text-anchor="middle" x="634.12" y="-1464.5" font-family="Times New Roman,serif" font-size="14.00">self.data.getDimension() &lt;&gt; arg.data.getDimension() and</text>
<text text-anchor="middle" x="634.12" y="-1448" font-family="Times New Roman,serif" font-size="14.00">self.data.getDimensionSizes(1) = arg.data.getDimensionSizes(1) and</text>
<text text-anchor="middle" x="634.12" y="-1431.5" font-family="Times New Roman,serif" font-size="14.00">self.data.getDimensionSizes(2) = arg.data.getDimensionSizes(2) or</text>
<text text-anchor="middle" x="634.12" y="-1415" font-family="Times New Roman,serif" font-size="14.00">self.data.getDimension() = arg.data.getDimension() and</text>
<text text-anchor="middle" x="634.12" y="-1398.5" font-family="Times New Roman,serif" font-size="14.00">self.data.getDimensionSizes(1) &lt;&gt; arg.data.getDimensionSizes(1) and</text>
<text text-anchor="middle" x="634.12" y="-1382" font-family="Times New Roman,serif" font-size="14.00">self.data.getDimensionSizes(2) = arg.data.getDimensionSizes(2) or</text>
<text text-anchor="middle" x="634.12" y="-1365.5" font-family="Times New Roman,serif" font-size="14.00">self.data.getDimension() = arg.data.getDimension() and</text>
<text text-anchor="middle" x="634.12" y="-1349" font-family="Times New Roman,serif" font-size="14.00">self.data.getDimensionSizes(1) = arg.data.getDimensionSizes(1) and</text>
<text text-anchor="middle" x="634.12" y="-1332.5" font-family="Times New Roman,serif" font-size="14.00">self.data.getDimensionSizes(2) &lt;&gt; arg.data.getDimensionSizes(2)</text>
<text text-anchor="middle" x="422.12" y="-1485" font-family="Times New Roman,serif" font-size="14.00">[74]</text>
</g>
<!-- 135&#45;&gt;74 -->
<g id="edge14" class="edge">
<title>135&#45;&gt;74</title>
<path fill="none" stroke="black" d="M430.09,-1537.91C440.74,-1530.95 471.47,-1510.86 505.95,-1488.32"/>
<polygon fill="black" stroke="black" points="507.55,-1491.46 514.01,-1483.06 503.72,-1485.6 507.55,-1491.46"/>
<text text-anchor="middle" x="516.09" y="-1503" font-family="Times New Roman,serif" font-size="14.00">split2#146</text>
</g>
<!-- 80 -->
<g id="node10" class="node">
<title>80</title>
<polygon fill="yellow" stroke="black" points="415.75,-1432.3 22.5,-1432.3 22.5,-1374.8 415.75,-1374.8 415.75,-1432.3"/>
<text text-anchor="middle" x="219.12" y="-1415" font-family="Times New Roman,serif" font-size="14.00">self.data.getDimension() = arg.data.getDimension() and</text>
<text text-anchor="middle" x="219.12" y="-1398.5" font-family="Times New Roman,serif" font-size="14.00">self.data.getDimensionSizes(1) = arg.data.getDimensionSizes(1) and</text>
<text text-anchor="middle" x="219.12" y="-1382" font-family="Times New Roman,serif" font-size="14.00">self.data.getDimensionSizes(2) = arg.data.getDimensionSizes(2)</text>
<text text-anchor="middle" x="11.25" y="-1435.5" font-family="Times New Roman,serif" font-size="14.00">[80]</text>
</g>
<!-- 135&#45;&gt;80 -->
<g id="edge13" class="edge">
<title>135&#45;&gt;80</title>
<path fill="none" stroke="black" d="M422.17,-1537.91C403.77,-1525.82 325.08,-1474.14 271.24,-1438.78"/>
<polygon fill="black" stroke="black" points="273.37,-1435.99 263.09,-1433.43 269.53,-1441.84 273.37,-1435.99"/>
<text text-anchor="middle" x="415.03" y="-1503" font-family="Times New Roman,serif" font-size="14.00">split1#145</text>
</g>
<!-- 136 -->
<g id="node6" class="node">
<title>136</title>
<polygon fill="aquamarine" stroke="black" points="556.12,-623.1 548.92,-615.9 556.12,-608.7 563.33,-615.9 556.12,-623.1"/>
<text text-anchor="middle" x="530.55" y="-626.3" font-family="Times New Roman,serif" font-size="14.00">&lt;136&gt;</text>
</g>
<!-- 78 -->
<g id="node9" class="node">
<title>78</title>
<ellipse fill="black" stroke="black" cx="556.12" cy="-527.4" rx="7.2" ry="7.2"/>
<ellipse fill="none" stroke="black" cx="556.12" cy="-527.4" rx="11.2" ry="11.2"/>
<text text-anchor="middle" x="534.8" y="-541.8" font-family="Times New Roman,serif" font-size="14.00">[&#45;1]</text>
</g>
<!-- 136&#45;&gt;78 -->
<g id="edge17" class="edge">
<title>136&#45;&gt;78</title>
<path fill="none" stroke="black" d="M556.12,-608.11C556.12,-595.82 556.12,-569.39 556.12,-550.33"/>
<polygon fill="black" stroke="black" points="559.63,-550.34 556.13,-540.34 552.63,-550.34 559.63,-550.34"/>
<text text-anchor="middle" x="605.25" y="-566.6" font-family="Times New Roman,serif" font-size="14.00">graphOr_end#149</text>
</g>
<!-- 77 -->
<g id="node8" class="node">
<title>77</title>
<polygon fill="yellow" stroke="black" points="693.38,-1197.3 504.88,-1197.3 504.88,-1161.3 693.38,-1161.3 693.38,-1197.3"/>
<text text-anchor="middle" x="599.12" y="-1174.25" font-family="Times New Roman,serif" font-size="14.00">Result = &#39;IllegalDimensionSize&#39;</text>
<text text-anchor="middle" x="493.62" y="-1200.5" font-family="Times New Roman,serif" font-size="14.00">[77]</text>
</g>
<!-- 74&#45;&gt;77 -->
<g id="edge10" class="edge">
<title>74&#45;&gt;77</title>
<path fill="none" stroke="black" d="M621.88,-1324.82C615.54,-1284.55 608.19,-1237.84 603.59,-1208.67"/>
<polygon fill="black" stroke="black" points="607.11,-1208.5 602.1,-1199.17 600.2,-1209.59 607.11,-1208.5"/>
<text text-anchor="middle" x="659.37" y="-1294" font-family="Times New Roman,serif" font-size="14.00">graphAnd#140</text>
</g>
<!-- 77&#45;&gt;136 -->
<g id="edge16" class="edge">
<title>77&#45;&gt;136</title>
<path fill="none" stroke="black" d="M599.12,-1160.91C599.12,-1141.64 599.12,-1109.62 599.12,-1082.05 599.12,-1082.05 599.12,-1082.05 599.12,-703.4 599.12,-679.68 596.05,-672.95 585.12,-651.9 580.55,-643.07 573.45,-634.46 567.42,-627.98"/>
<polygon fill="black" stroke="black" points="569.94,-625.55 560.41,-620.92 564.97,-630.48 569.94,-625.55"/>
<text text-anchor="middle" x="633.25" y="-899" font-family="Times New Roman,serif" font-size="14.00">merge2#148</text>
</g>
<!-- 83 -->
<g id="node11" class="node">
<title>83</title>
<polygon fill="yellow" stroke="black" points="560.12,-1272.8 154.12,-1272.8 154.12,-1215.3 560.12,-1215.3 560.12,-1272.8"/>
<text text-anchor="middle" x="357.12" y="-1255.5" font-family="Times New Roman,serif" font-size="14.00">self.data.getDimension() = result.data.getDimension() and</text>
<text text-anchor="middle" x="357.12" y="-1239" font-family="Times New Roman,serif" font-size="14.00">self.data.getDimensionSizes(1) = result.data.getDimensionSizes(1) and</text>
<text text-anchor="middle" x="357.12" y="-1222.5" font-family="Times New Roman,serif" font-size="14.00">self.data.getDimensionSizes(2) = result.data.getDimensionSizes(2)</text>
<text text-anchor="middle" x="142.88" y="-1276" font-family="Times New Roman,serif" font-size="14.00">[83]</text>
</g>
<!-- 80&#45;&gt;83 -->
<g id="edge11" class="edge">
<title>80&#45;&gt;83</title>
<path fill="none" stroke="black" d="M243.8,-1374.39C266.49,-1348.49 300.28,-1309.93 325.06,-1281.65"/>
<polygon fill="black" stroke="black" points="327.48,-1284.2 331.44,-1274.37 322.21,-1279.58 327.48,-1284.2"/>
<text text-anchor="middle" x="356.85" y="-1294" font-family="Times New Roman,serif" font-size="14.00">graphAnd#141</text>
</g>
<!-- 86 -->
<g id="node12" class="node">
<title>86</title>
<polygon fill="yellow" stroke="black" points="463.75,-1143.3 250.5,-1143.3 250.5,-1107.3 463.75,-1107.3 463.75,-1143.3"/>
<text text-anchor="middle" x="357.12" y="-1120.25" font-family="Times New Roman,serif" font-size="14.00">d1 = arg.data.getDimensionSizes(1)</text>
<text text-anchor="middle" x="239.25" y="-1146.5" font-family="Times New Roman,serif" font-size="14.00">[86]</text>
</g>
<!-- 83&#45;&gt;86 -->
<g id="edge9" class="edge">
<title>83&#45;&gt;86</title>
<path fill="none" stroke="black" d="M357.12,-1215.09C357.12,-1196.91 357.12,-1173.28 357.12,-1154.97"/>
<polygon fill="black" stroke="black" points="360.63,-1155.06 357.13,-1145.06 353.63,-1155.06 360.63,-1155.06"/>
<text text-anchor="middle" x="397.62" y="-1174.25" font-family="Times New Roman,serif" font-size="14.00">graphAnd#139</text>
</g>
<!-- 89 -->
<g id="node13" class="node">
<title>89</title>
<polygon fill="yellow" stroke="black" points="463.75,-1054.8 250.5,-1054.8 250.5,-1018.8 463.75,-1018.8 463.75,-1054.8"/>
<text text-anchor="middle" x="357.12" y="-1031.75" font-family="Times New Roman,serif" font-size="14.00">d2 = arg.data.getDimensionSizes(2)</text>
<text text-anchor="middle" x="239.25" y="-1058" font-family="Times New Roman,serif" font-size="14.00">[89]</text>
</g>
<!-- 86&#45;&gt;89 -->
<g id="edge19" class="edge">
<title>86&#45;&gt;89</title>
<path fill="none" stroke="black" d="M357.12,-1107.21C357.12,-1095.56 357.12,-1079.85 357.12,-1066.32"/>
<polygon fill="black" stroke="black" points="360.63,-1066.66 357.13,-1056.66 353.63,-1066.66 360.63,-1066.66"/>
<text text-anchor="middle" x="394.25" y="-1076" font-family="Times New Roman,serif" font-size="14.00">graphAnd#91</text>
</g>
<!-- 95 -->
<g id="node15" class="node">
<title>95</title>
<polygon fill="yellow" stroke="black" points="392.5,-966.3 321.75,-966.3 321.75,-930.3 392.5,-930.3 392.5,-966.3"/>
<text text-anchor="middle" x="357.12" y="-943.25" font-family="Times New Roman,serif" font-size="14.00">acc = true</text>
<text text-anchor="middle" x="310.5" y="-969.5" font-family="Times New Roman,serif" font-size="14.00">[95]</text>
</g>
<!-- 89&#45;&gt;95 -->
<g id="edge8" class="edge">
<title>89&#45;&gt;95</title>
<path fill="none" stroke="black" d="M357.12,-1018.71C357.12,-1007.06 357.12,-991.35 357.12,-977.82"/>
<polygon fill="black" stroke="black" points="360.63,-978.16 357.13,-968.16 353.63,-978.16 360.63,-978.16"/>
<text text-anchor="middle" x="397.62" y="-987.5" font-family="Times New Roman,serif" font-size="14.00">graphAnd#138</text>
</g>
<!-- 92 -->
<g id="node14" class="node">
<title>92</title>
<polygon fill="yellow" stroke="black" points="391.38,-877.8 328.88,-877.8 328.88,-841.8 391.38,-841.8 391.38,-877.8"/>
<text text-anchor="middle" x="360.12" y="-854.75" font-family="Times New Roman,serif" font-size="14.00">idx0 = 1</text>
<text text-anchor="middle" x="317.62" y="-881" font-family="Times New Roman,serif" font-size="14.00">[92]</text>
</g>
<!-- 92&#45;&gt;131 -->
<g id="edge7" class="edge">
<title>92&#45;&gt;131</title>
<path fill="none" stroke="black" d="M361.94,-841.62C363.24,-829.32 364.98,-812.82 366.29,-800.47"/>
<polygon fill="black" stroke="black" points="369.76,-800.92 367.33,-790.61 362.8,-800.19 369.76,-800.92"/>
<text text-anchor="middle" x="406.04" y="-810.5" font-family="Times New Roman,serif" font-size="14.00">graphAnd#137</text>
</g>
<!-- 95&#45;&gt;92 -->
<g id="edge20" class="edge">
<title>95&#45;&gt;92</title>
<path fill="none" stroke="black" d="M357.72,-930.21C358.12,-918.56 358.67,-902.85 359.14,-889.32"/>
<polygon fill="black" stroke="black" points="362.62,-889.78 359.47,-879.66 355.63,-889.54 362.62,-889.78"/>
<text text-anchor="middle" x="396.02" y="-899" font-family="Times New Roman,serif" font-size="14.00">graphAnd#96</text>
</g>
<!-- 98&#45;&gt;136 -->
<g id="edge15" class="edge">
<title>98&#45;&gt;136</title>
<path fill="none" stroke="black" d="M505.17,-686.18C507.02,-675.67 510.47,-662.3 516.88,-651.9 523.47,-641.18 534.34,-631.86 542.97,-625.54"/>
<polygon fill="black" stroke="black" points="544.66,-628.62 550.96,-620.11 540.72,-622.83 544.66,-628.62"/>
<text text-anchor="middle" x="551" y="-655.1" font-family="Times New Roman,serif" font-size="14.00">merge1#147</text>
</g>
<!-- 104 -->
<g id="node18" class="node">
<title>104</title>
<polygon fill="yellow" stroke="black" points="440.25,-633.9 308,-633.9 308,-597.9 440.25,-597.9 440.25,-633.9"/>
<text text-anchor="middle" x="374.12" y="-610.85" font-family="Times New Roman,serif" font-size="14.00">it = Sequence{1..d1}</text>
<text text-anchor="middle" x="293.38" y="-637.1" font-family="Times New Roman,serif" font-size="14.00">[104]</text>
</g>
<!-- 101&#45;&gt;104 -->
<g id="edge1" class="edge">
<title>101&#45;&gt;104</title>
<path fill="none" stroke="black" d="M373.32,-686.31C373.46,-674.66 373.64,-658.95 373.8,-645.42"/>
<polygon fill="black" stroke="black" points="377.29,-645.8 373.91,-635.76 370.29,-645.72 377.29,-645.8"/>
<text text-anchor="middle" x="414.21" y="-655.1" font-family="Times New Roman,serif" font-size="14.00">graphAnd#129</text>
</g>
<!-- 110 -->
<g id="node20" class="node">
<title>110</title>
<polygon fill="yellow" stroke="black" points="412.88,-545.4 335.38,-545.4 335.38,-509.4 412.88,-509.4 412.88,-545.4"/>
<text text-anchor="middle" x="374.12" y="-522.35" font-family="Times New Roman,serif" font-size="14.00">acc2 = true</text>
<text text-anchor="middle" x="320.75" y="-548.6" font-family="Times New Roman,serif" font-size="14.00">[110]</text>
</g>
<!-- 104&#45;&gt;110 -->
<g id="edge2" class="edge">
<title>104&#45;&gt;110</title>
<path fill="none" stroke="black" d="M374.12,-597.81C374.12,-586.16 374.12,-570.45 374.12,-556.92"/>
<polygon fill="black" stroke="black" points="377.63,-557.26 374.13,-547.26 370.63,-557.26 377.63,-557.26"/>
<text text-anchor="middle" x="414.62" y="-566.6" font-family="Times New Roman,serif" font-size="14.00">graphAnd#130</text>
</g>
<!-- 107 -->
<g id="node19" class="node">
<title>107</title>
<polygon fill="yellow" stroke="black" points="407.38,-456.9 344.88,-456.9 344.88,-420.9 407.38,-420.9 407.38,-456.9"/>
<text text-anchor="middle" x="376.12" y="-433.85" font-family="Times New Roman,serif" font-size="14.00">idx1 = 1</text>
<text text-anchor="middle" x="330.25" y="-460.1" font-family="Times New Roman,serif" font-size="14.00">[107]</text>
</g>
<!-- 127 -->
<g id="node26" class="node">
<title>127</title>
<polygon fill="aquamarine" stroke="black" points="380.12,-368.4 372.93,-361.2 380.12,-354 387.32,-361.2 380.12,-368.4"/>
<text text-anchor="middle" x="354.55" y="-371.6" font-family="Times New Roman,serif" font-size="14.00">&lt;127&gt;</text>
</g>
<!-- 107&#45;&gt;127 -->
<g id="edge28" class="edge">
<title>107&#45;&gt;127</title>
<path fill="none" stroke="black" d="M377.03,-420.72C377.68,-408.55 378.54,-392.26 379.19,-379.96"/>
<polygon fill="black" stroke="black" points="382.68,-380.24 379.71,-370.07 375.69,-379.87 382.68,-380.24"/>
<text text-anchor="middle" x="419.33" y="-389.6" font-family="Times New Roman,serif" font-size="14.00">graphAnd#126</text>
</g>
<!-- 110&#45;&gt;107 -->
<g id="edge21" class="edge">
<title>110&#45;&gt;107</title>
<path fill="none" stroke="black" d="M374.52,-509.31C374.79,-497.66 375.15,-481.95 375.47,-468.42"/>
<polygon fill="black" stroke="black" points="378.96,-468.84 375.69,-458.76 371.96,-468.68 378.96,-468.84"/>
<text text-anchor="middle" x="415.8" y="-478.1" font-family="Times New Roman,serif" font-size="14.00">graphAnd#107</text>
</g>
<!-- 113 -->
<g id="node21" class="node">
<title>113</title>
<polygon fill="yellow" stroke="black" points="300.5,-301.5 193.75,-301.5 193.75,-265.5 300.5,-265.5 300.5,-301.5"/>
<text text-anchor="middle" x="247.12" y="-278.45" font-family="Times New Roman,serif" font-size="14.00">idx1 &gt; d2 &#45; 1+ 1</text>
<text text-anchor="middle" x="179.12" y="-304.7" font-family="Times New Roman,serif" font-size="14.00">[113]</text>
</g>
<!-- 113&#45;&gt;129 -->
<g id="edge3" class="edge">
<title>113&#45;&gt;129</title>
<path fill="none" stroke="black" d="M245.68,-301.92C244.54,-317.26 243.12,-340.2 243.12,-360.2 243.12,-783.1 243.12,-783.1 243.12,-783.1 243.12,-798.94 245.92,-816.37 248.92,-830.51"/>
<polygon fill="black" stroke="black" points="245.46,-831.06 251.09,-840.03 252.28,-829.5 245.46,-831.06"/>
<text text-anchor="middle" x="283.62" y="-566.6" font-family="Times New Roman,serif" font-size="14.00">graphAnd#131</text>
</g>
<!-- 116 -->
<g id="node22" class="node">
<title>116</title>
<polygon fill="yellow" stroke="black" points="435.62,-301.5 320.62,-301.5 320.62,-265.5 435.62,-265.5 435.62,-301.5"/>
<text text-anchor="middle" x="378.12" y="-278.45" font-family="Times New Roman,serif" font-size="14.00">idx1 &lt;= d2 &#45; 1+ 1</text>
<text text-anchor="middle" x="306" y="-304.7" font-family="Times New Roman,serif" font-size="14.00">[116]</text>
</g>
<!-- 119 -->
<g id="node23" class="node">
<title>119</title>
<polygon fill="yellow" stroke="black" points="413.62,-213 274.62,-213 274.62,-177 413.62,-177 413.62,-213"/>
<text text-anchor="middle" x="344.12" y="-189.95" font-family="Times New Roman,serif" font-size="14.00">it2 = Sequence{1..d2}</text>
<text text-anchor="middle" x="260" y="-216.2" font-family="Times New Roman,serif" font-size="14.00">[119]</text>
</g>
<!-- 116&#45;&gt;119 -->
<g id="edge22" class="edge">
<title>116&#45;&gt;119</title>
<path fill="none" stroke="black" d="M371.41,-265.41C366.73,-253.52 360.4,-237.41 355.01,-223.7"/>
<polygon fill="black" stroke="black" points="358.41,-222.79 351.5,-214.76 351.9,-225.35 358.41,-222.79"/>
<text text-anchor="middle" x="404.67" y="-234.2" font-family="Times New Roman,serif" font-size="14.00">graphAnd#118</text>
</g>
<!-- 122 -->
<g id="node24" class="node">
<title>122</title>
<polygon fill="yellow" stroke="black" points="441.38,-124.5 132.88,-124.5 132.88,-88.5 441.38,-88.5 441.38,-124.5"/>
<text text-anchor="middle" x="287.12" y="-101.45" font-family="Times New Roman,serif" font-size="14.00">result.data[it][it2] = self.data[it][it2] &#45; arg.data[it][it2]</text>
<text text-anchor="middle" x="118.25" y="-127.7" font-family="Times New Roman,serif" font-size="14.00">[122]</text>
</g>
<!-- 119&#45;&gt;122 -->
<g id="edge23" class="edge">
<title>119&#45;&gt;122</title>
<path fill="none" stroke="black" d="M332.86,-176.91C324.87,-164.79 313.99,-148.27 304.84,-134.39"/>
<polygon fill="black" stroke="black" points="307.82,-132.54 299.39,-126.11 301.97,-136.39 307.82,-132.54"/>
<text text-anchor="middle" x="361.23" y="-145.7" font-family="Times New Roman,serif" font-size="14.00">graphAnd#119</text>
</g>
<!-- 125 -->
<g id="node25" class="node">
<title>125</title>
<polygon fill="yellow" stroke="black" points="429.25,-36 327,-36 327,0 429.25,0 429.25,-36"/>
<text text-anchor="middle" x="378.12" y="-12.95" font-family="Times New Roman,serif" font-size="14.00">idx1 = idx1 + 1</text>
<text text-anchor="middle" x="312.38" y="-39.2" font-family="Times New Roman,serif" font-size="14.00">[125]</text>
</g>
<!-- 122&#45;&gt;125 -->
<g id="edge24" class="edge">
<title>122&#45;&gt;125</title>
<path fill="none" stroke="black" d="M305.1,-88.41C318.48,-75.7 336.93,-58.16 351.94,-43.89"/>
<polygon fill="black" stroke="black" points="353.94,-46.82 358.78,-37.39 349.12,-41.75 353.94,-46.82"/>
<text text-anchor="middle" x="381.28" y="-57.2" font-family="Times New Roman,serif" font-size="14.00">graphAnd#120</text>
</g>
<!-- 125&#45;&gt;127 -->
<g id="edge26" class="edge">
<title>125&#45;&gt;127</title>
<path fill="none" stroke="black" d="M415.66,-36.46C440.73,-50.99 469.12,-74.33 469.12,-105.5 469.12,-284.5 469.12,-284.5 469.12,-284.5 469.12,-309.94 462.91,-318.84 444.12,-336 430.96,-348.02 411.24,-354.27 397.17,-357.37"/>
<polygon fill="black" stroke="black" points="396.87,-353.87 387.68,-359.15 398.15,-360.75 396.87,-353.87"/>
<text text-anchor="middle" x="499.5" y="-189.95" font-family="Times New Roman,serif" font-size="14.00">iterate#123</text>
</g>
<!-- 127&#45;&gt;113 -->
<g id="edge27" class="edge">
<title>127&#45;&gt;113</title>
<path fill="none" stroke="black" d="M373.82,-359.62C358.92,-358.01 320.79,-352.45 294.12,-336 283.46,-329.42 273.74,-319.75 265.94,-310.55"/>
<polygon fill="black" stroke="black" points="268.74,-308.45 259.76,-302.83 263.28,-312.83 268.74,-308.45"/>
<text text-anchor="middle" x="334.62" y="-322.7" font-family="Times New Roman,serif" font-size="14.00">graphAnd#125</text>
</g>
<!-- 127&#45;&gt;116 -->
<g id="edge25" class="edge">
<title>127&#45;&gt;116</title>
<path fill="none" stroke="black" d="M379.95,-353.48C379.71,-344.4 379.27,-327.65 378.88,-312.93"/>
<polygon fill="black" stroke="black" points="382.38,-313.17 378.62,-303.26 375.39,-313.35 382.38,-313.17"/>
<text text-anchor="middle" x="409.85" y="-322.7" font-family="Times New Roman,serif" font-size="14.00">iterate#122</text>
</g>
</g>
</svg>
