<?xml version="1.0" encoding="UTF-8" standalone="no"?>
<!DOCTYPE svg PUBLIC "-//W3C//DTD SVG 1.1//EN"
 "http://www.w3.org/Graphics/SVG/1.1/DTD/svg11.dtd">
<!-- Generated by graphviz version 12.2.1 (20241206.2353)
 -->
<!-- Title: CLG Pages: 1 -->
<svg width="843pt" height="1718pt"
 viewBox="0.00 0.00 842.88 1718.10" xmlns="http://www.w3.org/2000/svg" xmlns:xlink="http://www.w3.org/1999/xlink">
<g id="graph0" class="graph" transform="scale(1 1) rotate(0) translate(4 1714.1)">
<title>CLG</title>
<polygon fill="white" stroke="none" points="-4,4 -4,-1714.1 838.88,-1714.1 838.88,4 -4,4"/>
<!-- 65 -->
<g id="node1" class="node">
<title>65</title>
<polygon fill="yellow" stroke="black" points="310.25,-877.8 208,-877.8 208,-841.8 310.25,-841.8 310.25,-877.8"/>
<text text-anchor="middle" x="259.12" y="-854.75" font-family="Times New Roman,serif" font-size="14.00">idx0 = idx0 + 1</text>
<text text-anchor="middle" x="196.75" y="-881" font-family="Times New Roman,serif" font-size="14.00">[65]</text>
</g>
<!-- 67 -->
<g id="node2" class="node">
<title>67</title>
<polygon fill="aquamarine" stroke="black" points="366.12,-789.3 358.93,-782.1 366.12,-774.9 373.32,-782.1 366.12,-789.3"/>
<text text-anchor="middle" x="343.93" y="-792.5" font-family="Times New Roman,serif" font-size="14.00">&lt;67&gt;</text>
</g>
<!-- 65&#45;&gt;67 -->
<g id="edge28" class="edge">
<title>65&#45;&gt;67</title>
<path fill="none" stroke="black" d="M271.16,-841.62C279.61,-830.59 291.76,-816.64 305.12,-807.3 318.86,-797.71 336.93,-791.15 349.83,-787.31"/>
<polygon fill="black" stroke="black" points="350.47,-790.76 359.2,-784.76 348.63,-784.01 350.47,-790.76"/>
<text text-anchor="middle" x="332.12" y="-810.5" font-family="Times New Roman,serif" font-size="14.00">iterate#62</text>
</g>
<!-- 34 -->
<g id="node16" class="node">
<title>34</title>
<polygon fill="yellow" stroke="black" points="558.5,-722.4 451.75,-722.4 451.75,-686.4 558.5,-686.4 558.5,-722.4"/>
<text text-anchor="middle" x="505.12" y="-699.35" font-family="Times New Roman,serif" font-size="14.00">idx0 &gt; d1 &#45; 1+ 1</text>
<text text-anchor="middle" x="440.5" y="-725.6" font-family="Times New Roman,serif" font-size="14.00">[34]</text>
</g>
<!-- 67&#45;&gt;34 -->
<g id="edge1" class="edge">
<title>67&#45;&gt;34</title>
<path fill="none" stroke="black" d="M371.11,-779.57C381.84,-776.17 407.84,-767.48 428.12,-756.9 443.39,-748.94 459.34,-738.63 472.75,-729.34"/>
<polygon fill="black" stroke="black" points="474.63,-732.29 480.78,-723.66 470.59,-726.58 474.63,-732.29"/>
<text text-anchor="middle" x="491.61" y="-743.6" font-family="Times New Roman,serif" font-size="14.00">graphAnd#64</text>
</g>
<!-- 37 -->
<g id="node17" class="node">
<title>37</title>
<polygon fill="yellow" stroke="black" points="431.62,-722.4 316.62,-722.4 316.62,-686.4 431.62,-686.4 431.62,-722.4"/>
<text text-anchor="middle" x="374.12" y="-699.35" font-family="Times New Roman,serif" font-size="14.00">idx0 &lt;= d1 &#45; 1+ 1</text>
<text text-anchor="middle" x="305.38" y="-725.6" font-family="Times New Roman,serif" font-size="14.00">[37]</text>
</g>
<!-- 67&#45;&gt;37 -->
<g id="edge27" class="edge">
<title>67&#45;&gt;37</title>
<path fill="none" stroke="black" d="M366.78,-774.91C367.72,-765.99 369.52,-748.96 371.1,-733.99"/>
<polygon fill="black" stroke="black" points="374.58,-734.44 372.15,-724.13 367.61,-733.71 374.58,-734.44"/>
<text text-anchor="middle" x="397.36" y="-743.6" font-family="Times New Roman,serif" font-size="14.00">iterate#61</text>
</g>
<!-- 68 -->
<g id="node3" class="node">
<title>68</title>
<ellipse fill="black" stroke="black" cx="426.12" cy="-1686.4" rx="7.2" ry="7.2"/>
<text text-anchor="middle" x="411.05" y="-1696.8" font-family="Times New Roman,serif" font-size="14.00">[0]</text>
</g>
<!-- 69 -->
<g id="node4" class="node">
<title>69</title>
<polygon fill="yellow" stroke="black" points="542.12,-1642.2 310.12,-1642.2 310.12,-1601.2 542.12,-1601.2 542.12,-1642.2"/>
<text text-anchor="middle" x="426.12" y="-1624.9" font-family="Times New Roman,serif" font-size="14.00">self.data.getDimensionSizes(1) &gt; 0 and</text>
<text text-anchor="middle" x="426.12" y="-1608.4" font-family="Times New Roman,serif" font-size="14.00">self.data.getDimensionSizes(2) &gt; 0</text>
<text text-anchor="middle" x="298.88" y="-1645.4" font-family="Times New Roman,serif" font-size="14.00">[69]</text>
</g>
<!-- 68&#45;&gt;69 -->
<g id="edge7" class="edge">
<title>68&#45;&gt;69</title>
<path fill="none" stroke="black" d="M426.12,-1679.16C426.12,-1673.13 426.12,-1663.51 426.12,-1653.91"/>
<polygon fill="black" stroke="black" points="429.63,-1653.97 426.13,-1643.97 422.63,-1653.97 429.63,-1653.97"/>
</g>
<!-- 71 -->
<g id="node5" class="node">
<title>71</title>
<polygon fill="aquamarine" stroke="black" points="426.12,-1548.7 418.93,-1541.5 426.12,-1534.3 433.32,-1541.5 426.12,-1548.7"/>
<text text-anchor="middle" x="403.93" y="-1551.9" font-family="Times New Roman,serif" font-size="14.00">&lt;71&gt;</text>
</g>
<!-- 69&#45;&gt;71 -->
<g id="edge13" class="edge">
<title>69&#45;&gt;71</title>
<path fill="none" stroke="black" d="M426.12,-1600.97C426.12,-1588.47 426.12,-1572.45 426.12,-1560.34"/>
<polygon fill="black" stroke="black" points="429.63,-1560.6 426.13,-1550.6 422.63,-1560.6 429.63,-1560.6"/>
<text text-anchor="middle" x="463.25" y="-1569.9" font-family="Times New Roman,serif" font-size="14.00">graphAnd#78</text>
</g>
<!-- 10 -->
<g id="node7" class="node">
<title>10</title>
<polygon fill="yellow" stroke="black" points="834.88,-1481.8 433.38,-1481.8 433.38,-1325.3 834.88,-1325.3 834.88,-1481.8"/>
<text text-anchor="middle" x="634.12" y="-1464.5" font-family="Times New Roman,serif" font-size="14.00">self.data.getDimension() &lt;&gt; arg.data.getDimension() and</text>
<text text-anchor="middle" x="634.12" y="-1448" font-family="Times New Roman,serif" font-size="14.00">self.data.getDimensionSizes(1) = arg.data.getDimensionSizes(1) and</text>
<text text-anchor="middle" x="634.12" y="-1431.5" font-family="Times New Roman,serif" font-size="14.00">self.data.getDimensionSizes(2) = arg.data.getDimensionSizes(2) or</text>
<text text-anchor="middle" x="634.12" y="-1415" font-family="Times New Roman,serif" font-size="14.00">self.data.getDimension() = arg.data.getDimension() and</text>
<text text-anchor="middle" x="634.12" y="-1398.5" font-family="Times New Roman,serif" font-size="14.00">self.data.getDimensionSizes(1) &lt;&gt; arg.data.getDimensionSizes(1) and</text>
<text text-anchor="middle" x="634.12" y="-1382" font-family="Times New Roman,serif" font-size="14.00">self.data.getDimensionSizes(2) = arg.data.getDimensionSizes(2) or</text>
<text text-anchor="middle" x="634.12" y="-1365.5" font-family="Times New Roman,serif" font-size="14.00">self.data.getDimension() = arg.data.getDimension() and</text>
<text text-anchor="middle" x="634.12" y="-1349" font-family="Times New Roman,serif" font-size="14.00">self.data.getDimensionSizes(1) = arg.data.getDimensionSizes(1) and</text>
<text text-anchor="middle" x="634.12" y="-1332.5" font-family="Times New Roman,serif" font-size="14.00">self.data.getDimensionSizes(2) &lt;&gt; arg.data.getDimensionSizes(2)</text>
<text text-anchor="middle" x="422.12" y="-1485" font-family="Times New Roman,serif" font-size="14.00">[10]</text>
</g>
<!-- 71&#45;&gt;10 -->
<g id="edge9" class="edge">
<title>71&#45;&gt;10</title>
<path fill="none" stroke="black" d="M430.09,-1537.91C440.74,-1530.95 471.47,-1510.86 505.95,-1488.32"/>
<polygon fill="black" stroke="black" points="507.55,-1491.46 514.01,-1483.06 503.72,-1485.6 507.55,-1491.46"/>
<text text-anchor="middle" x="512.71" y="-1503" font-family="Times New Roman,serif" font-size="14.00">split2#74</text>
</g>
<!-- 16 -->
<g id="node10" class="node">
<title>16</title>
<polygon fill="yellow" stroke="black" points="415.75,-1432.3 22.5,-1432.3 22.5,-1374.8 415.75,-1374.8 415.75,-1432.3"/>
<text text-anchor="middle" x="219.12" y="-1415" font-family="Times New Roman,serif" font-size="14.00">self.data.getDimension() = arg.data.getDimension() and</text>
<text text-anchor="middle" x="219.12" y="-1398.5" font-family="Times New Roman,serif" font-size="14.00">self.data.getDimensionSizes(1) = arg.data.getDimensionSizes(1) and</text>
<text text-anchor="middle" x="219.12" y="-1382" font-family="Times New Roman,serif" font-size="14.00">self.data.getDimensionSizes(2) = arg.data.getDimensionSizes(2)</text>
<text text-anchor="middle" x="11.25" y="-1435.5" font-family="Times New Roman,serif" font-size="14.00">[16]</text>
</g>
<!-- 71&#45;&gt;16 -->
<g id="edge8" class="edge">
<title>71&#45;&gt;16</title>
<path fill="none" stroke="black" d="M422.17,-1537.91C403.77,-1525.82 325.08,-1474.14 271.24,-1438.78"/>
<polygon fill="black" stroke="black" points="273.37,-1435.99 263.09,-1433.43 269.53,-1441.84 273.37,-1435.99"/>
<text text-anchor="middle" x="411.65" y="-1503" font-family="Times New Roman,serif" font-size="14.00">split1#73</text>
</g>
<!-- 72 -->
<g id="node6" class="node">
<title>72</title>
<polygon fill="aquamarine" stroke="black" points="547.12,-623.1 539.92,-615.9 547.12,-608.7 554.33,-615.9 547.12,-623.1"/>
<text text-anchor="middle" x="524.92" y="-626.3" font-family="Times New Roman,serif" font-size="14.00">&lt;72&gt;</text>
</g>
<!-- 14 -->
<g id="node9" class="node">
<title>14</title>
<ellipse fill="black" stroke="black" cx="547.12" cy="-527.4" rx="7.2" ry="7.2"/>
<ellipse fill="none" stroke="black" cx="547.12" cy="-527.4" rx="11.2" ry="11.2"/>
<text text-anchor="middle" x="525.8" y="-541.8" font-family="Times New Roman,serif" font-size="14.00">[&#45;1]</text>
</g>
<!-- 72&#45;&gt;14 -->
<g id="edge12" class="edge">
<title>72&#45;&gt;14</title>
<path fill="none" stroke="black" d="M547.12,-608.11C547.12,-595.82 547.12,-569.39 547.12,-550.33"/>
<polygon fill="black" stroke="black" points="550.63,-550.34 547.13,-540.34 543.63,-550.34 550.63,-550.34"/>
<text text-anchor="middle" x="592.88" y="-566.6" font-family="Times New Roman,serif" font-size="14.00">graphOr_end#77</text>
</g>
<!-- 13 -->
<g id="node8" class="node">
<title>13</title>
<polygon fill="yellow" stroke="black" points="681.38,-1197.3 492.88,-1197.3 492.88,-1161.3 681.38,-1161.3 681.38,-1197.3"/>
<text text-anchor="middle" x="587.12" y="-1174.25" font-family="Times New Roman,serif" font-size="14.00">Result = &#39;IllegalDimensionSize&#39;</text>
<text text-anchor="middle" x="481.62" y="-1200.5" font-family="Times New Roman,serif" font-size="14.00">[13]</text>
</g>
<!-- 10&#45;&gt;13 -->
<g id="edge5" class="edge">
<title>10&#45;&gt;13</title>
<path fill="none" stroke="black" d="M617.69,-1324.82C609.17,-1284.55 599.29,-1237.84 593.12,-1208.67"/>
<polygon fill="black" stroke="black" points="596.61,-1208.22 591.11,-1199.16 589.76,-1209.66 596.61,-1208.22"/>
<text text-anchor="middle" x="650.76" y="-1294" font-family="Times New Roman,serif" font-size="14.00">graphAnd#68</text>
</g>
<!-- 13&#45;&gt;72 -->
<g id="edge11" class="edge">
<title>13&#45;&gt;72</title>
<path fill="none" stroke="black" d="M587.12,-1160.91C587.12,-1141.64 587.12,-1109.62 587.12,-1082.05 587.12,-1082.05 587.12,-1082.05 587.12,-703.4 587.12,-679.68 583.49,-673.24 573.12,-651.9 569.04,-643.5 562.86,-635.07 557.54,-628.58"/>
<polygon fill="black" stroke="black" points="560.53,-626.68 551.33,-621.43 555.24,-631.27 560.53,-626.68"/>
<text text-anchor="middle" x="617.88" y="-899" font-family="Times New Roman,serif" font-size="14.00">merge2#76</text>
</g>
<!-- 19 -->
<g id="node11" class="node">
<title>19</title>
<polygon fill="yellow" stroke="black" points="560.12,-1272.8 154.12,-1272.8 154.12,-1215.3 560.12,-1215.3 560.12,-1272.8"/>
<text text-anchor="middle" x="357.12" y="-1255.5" font-family="Times New Roman,serif" font-size="14.00">self.data.getDimension() = result.data.getDimension() and</text>
<text text-anchor="middle" x="357.12" y="-1239" font-family="Times New Roman,serif" font-size="14.00">self.data.getDimensionSizes(1) = result.data.getDimensionSizes(1) and</text>
<text text-anchor="middle" x="357.12" y="-1222.5" font-family="Times New Roman,serif" font-size="14.00">self.data.getDimensionSizes(2) = result.data.getDimensionSizes(2)</text>
<text text-anchor="middle" x="142.88" y="-1276" font-family="Times New Roman,serif" font-size="14.00">[19]</text>
</g>
<!-- 16&#45;&gt;19 -->
<g id="edge6" class="edge">
<title>16&#45;&gt;19</title>
<path fill="none" stroke="black" d="M243.8,-1374.39C266.49,-1348.49 300.28,-1309.93 325.06,-1281.65"/>
<polygon fill="black" stroke="black" points="327.48,-1284.2 331.44,-1274.37 322.21,-1279.58 327.48,-1284.2"/>
<text text-anchor="middle" x="353.47" y="-1294" font-family="Times New Roman,serif" font-size="14.00">graphAnd#69</text>
</g>
<!-- 22 -->
<g id="node12" class="node">
<title>22</title>
<polygon fill="yellow" stroke="black" points="463.75,-1143.3 250.5,-1143.3 250.5,-1107.3 463.75,-1107.3 463.75,-1143.3"/>
<text text-anchor="middle" x="357.12" y="-1120.25" font-family="Times New Roman,serif" font-size="14.00">d1 = arg.data.getDimensionSizes(1)</text>
<text text-anchor="middle" x="239.25" y="-1146.5" font-family="Times New Roman,serif" font-size="14.00">[22]</text>
</g>
<!-- 19&#45;&gt;22 -->
<g id="edge4" class="edge">
<title>19&#45;&gt;22</title>
<path fill="none" stroke="black" d="M357.12,-1215.09C357.12,-1196.91 357.12,-1173.28 357.12,-1154.97"/>
<polygon fill="black" stroke="black" points="360.63,-1155.06 357.13,-1145.06 353.63,-1155.06 360.63,-1155.06"/>
<text text-anchor="middle" x="394.25" y="-1174.25" font-family="Times New Roman,serif" font-size="14.00">graphAnd#67</text>
</g>
<!-- 25 -->
<g id="node13" class="node">
<title>25</title>
<polygon fill="yellow" stroke="black" points="463.75,-1054.8 250.5,-1054.8 250.5,-1018.8 463.75,-1018.8 463.75,-1054.8"/>
<text text-anchor="middle" x="357.12" y="-1031.75" font-family="Times New Roman,serif" font-size="14.00">d2 = arg.data.getDimensionSizes(2)</text>
<text text-anchor="middle" x="239.25" y="-1058" font-family="Times New Roman,serif" font-size="14.00">[25]</text>
</g>
<!-- 22&#45;&gt;25 -->
<g id="edge14" class="edge">
<title>22&#45;&gt;25</title>
<path fill="none" stroke="black" d="M357.12,-1107.21C357.12,-1095.56 357.12,-1079.85 357.12,-1066.32"/>
<polygon fill="black" stroke="black" points="360.63,-1066.66 357.13,-1056.66 353.63,-1066.66 360.63,-1066.66"/>
<text text-anchor="middle" x="394.25" y="-1076" font-family="Times New Roman,serif" font-size="14.00">graphAnd#19</text>
</g>
<!-- 31 -->
<g id="node15" class="node">
<title>31</title>
<polygon fill="yellow" stroke="black" points="392.5,-966.3 321.75,-966.3 321.75,-930.3 392.5,-930.3 392.5,-966.3"/>
<text text-anchor="middle" x="357.12" y="-943.25" font-family="Times New Roman,serif" font-size="14.00">acc = true</text>
<text text-anchor="middle" x="310.5" y="-969.5" font-family="Times New Roman,serif" font-size="14.00">[31]</text>
</g>
<!-- 25&#45;&gt;31 -->
<g id="edge3" class="edge">
<title>25&#45;&gt;31</title>
<path fill="none" stroke="black" d="M357.12,-1018.71C357.12,-1007.06 357.12,-991.35 357.12,-977.82"/>
<polygon fill="black" stroke="black" points="360.63,-978.16 357.13,-968.16 353.63,-978.16 360.63,-978.16"/>
<text text-anchor="middle" x="394.25" y="-987.5" font-family="Times New Roman,serif" font-size="14.00">graphAnd#66</text>
</g>
<!-- 28 -->
<g id="node14" class="node">
<title>28</title>
<polygon fill="yellow" stroke="black" points="392.38,-877.8 329.88,-877.8 329.88,-841.8 392.38,-841.8 392.38,-877.8"/>
<text text-anchor="middle" x="361.12" y="-854.75" font-family="Times New Roman,serif" font-size="14.00">idx0 = 1</text>
<text text-anchor="middle" x="318.62" y="-881" font-family="Times New Roman,serif" font-size="14.00">[28]</text>
</g>
<!-- 28&#45;&gt;67 -->
<g id="edge2" class="edge">
<title>28&#45;&gt;67</title>
<path fill="none" stroke="black" d="M362.26,-841.62C363.06,-829.45 364.14,-813.16 364.95,-800.86"/>
<polygon fill="black" stroke="black" points="368.44,-801.18 365.61,-790.97 361.45,-800.72 368.44,-801.18"/>
<text text-anchor="middle" x="401.63" y="-810.5" font-family="Times New Roman,serif" font-size="14.00">graphAnd#65</text>
</g>
<!-- 31&#45;&gt;28 -->
<g id="edge15" class="edge">
<title>31&#45;&gt;28</title>
<path fill="none" stroke="black" d="M357.92,-930.21C358.45,-918.56 359.18,-902.85 359.81,-889.32"/>
<polygon fill="black" stroke="black" points="363.29,-889.81 360.25,-879.66 356.29,-889.49 363.29,-889.81"/>
<text text-anchor="middle" x="396.61" y="-899" font-family="Times New Roman,serif" font-size="14.00">graphAnd#24</text>
</g>
<!-- 34&#45;&gt;72 -->
<g id="edge10" class="edge">
<title>34&#45;&gt;72</title>
<path fill="none" stroke="black" d="M504.51,-686.36C504.79,-675.92 506.35,-662.56 511.62,-651.9 516.69,-641.66 525.97,-632.67 533.77,-626.37"/>
<polygon fill="black" stroke="black" points="535.78,-629.24 541.74,-620.48 531.62,-623.61 535.78,-629.24"/>
<text text-anchor="middle" x="542.38" y="-655.1" font-family="Times New Roman,serif" font-size="14.00">merge1#75</text>
</g>
<!-- 40 -->
<g id="node18" class="node">
<title>40</title>
<polygon fill="yellow" stroke="black" points="441.25,-633.9 309,-633.9 309,-597.9 441.25,-597.9 441.25,-633.9"/>
<text text-anchor="middle" x="375.12" y="-610.85" font-family="Times New Roman,serif" font-size="14.00">it = Sequence{1..d1}</text>
<text text-anchor="middle" x="297.75" y="-637.1" font-family="Times New Roman,serif" font-size="14.00">[40]</text>
</g>
<!-- 37&#45;&gt;40 -->
<g id="edge24" class="edge">
<title>37&#45;&gt;40</title>
<path fill="none" stroke="black" d="M374.32,-686.31C374.46,-674.66 374.64,-658.95 374.8,-645.42"/>
<polygon fill="black" stroke="black" points="378.29,-645.8 374.91,-635.76 371.29,-645.72 378.29,-645.8"/>
<text text-anchor="middle" x="411.84" y="-655.1" font-family="Times New Roman,serif" font-size="14.00">graphAnd#57</text>
</g>
<!-- 46 -->
<g id="node20" class="node">
<title>46</title>
<polygon fill="yellow" stroke="black" points="413.88,-545.4 336.38,-545.4 336.38,-509.4 413.88,-509.4 413.88,-545.4"/>
<text text-anchor="middle" x="375.12" y="-522.35" font-family="Times New Roman,serif" font-size="14.00">acc2 = true</text>
<text text-anchor="middle" x="325.12" y="-548.6" font-family="Times New Roman,serif" font-size="14.00">[46]</text>
</g>
<!-- 40&#45;&gt;46 -->
<g id="edge25" class="edge">
<title>40&#45;&gt;46</title>
<path fill="none" stroke="black" d="M375.12,-597.81C375.12,-586.16 375.12,-570.45 375.12,-556.92"/>
<polygon fill="black" stroke="black" points="378.63,-557.26 375.13,-547.26 371.63,-557.26 378.63,-557.26"/>
<text text-anchor="middle" x="412.25" y="-566.6" font-family="Times New Roman,serif" font-size="14.00">graphAnd#58</text>
</g>
<!-- 43 -->
<g id="node19" class="node">
<title>43</title>
<polygon fill="yellow" stroke="black" points="407.38,-456.9 344.88,-456.9 344.88,-420.9 407.38,-420.9 407.38,-456.9"/>
<text text-anchor="middle" x="376.12" y="-433.85" font-family="Times New Roman,serif" font-size="14.00">idx1 = 1</text>
<text text-anchor="middle" x="333.62" y="-460.1" font-family="Times New Roman,serif" font-size="14.00">[43]</text>
</g>
<!-- 63 -->
<g id="node26" class="node">
<title>63</title>
<polygon fill="aquamarine" stroke="black" points="379.12,-368.4 371.93,-361.2 379.12,-354 386.32,-361.2 379.12,-368.4"/>
<text text-anchor="middle" x="356.93" y="-371.6" font-family="Times New Roman,serif" font-size="14.00">&lt;63&gt;</text>
</g>
<!-- 43&#45;&gt;63 -->
<g id="edge23" class="edge">
<title>43&#45;&gt;63</title>
<path fill="none" stroke="black" d="M376.81,-420.72C377.29,-408.55 377.93,-392.26 378.42,-379.96"/>
<polygon fill="black" stroke="black" points="381.91,-380.2 378.81,-370.07 374.92,-379.92 381.91,-380.2"/>
<text text-anchor="middle" x="415.28" y="-389.6" font-family="Times New Roman,serif" font-size="14.00">graphAnd#54</text>
</g>
<!-- 46&#45;&gt;43 -->
<g id="edge16" class="edge">
<title>46&#45;&gt;43</title>
<path fill="none" stroke="black" d="M375.32,-509.31C375.46,-497.66 375.64,-481.95 375.8,-468.42"/>
<polygon fill="black" stroke="black" points="379.29,-468.8 375.91,-458.76 372.29,-468.72 379.29,-468.8"/>
<text text-anchor="middle" x="412.84" y="-478.1" font-family="Times New Roman,serif" font-size="14.00">graphAnd#35</text>
</g>
<!-- 49 -->
<g id="node21" class="node">
<title>49</title>
<polygon fill="yellow" stroke="black" points="303.5,-301.5 196.75,-301.5 196.75,-265.5 303.5,-265.5 303.5,-301.5"/>
<text text-anchor="middle" x="250.12" y="-278.45" font-family="Times New Roman,serif" font-size="14.00">idx1 &gt; d2 &#45; 1+ 1</text>
<text text-anchor="middle" x="185.5" y="-304.7" font-family="Times New Roman,serif" font-size="14.00">[49]</text>
</g>
<!-- 49&#45;&gt;65 -->
<g id="edge26" class="edge">
<title>49&#45;&gt;65</title>
<path fill="none" stroke="black" d="M250.12,-301.94C250.12,-317.28 250.12,-340.22 250.12,-360.2 250.12,-783.1 250.12,-783.1 250.12,-783.1 250.12,-798.82 252.06,-816.24 254.14,-830.41"/>
<polygon fill="black" stroke="black" points="250.63,-830.6 255.64,-839.94 257.54,-829.51 250.63,-830.6"/>
<text text-anchor="middle" x="287.25" y="-566.6" font-family="Times New Roman,serif" font-size="14.00">graphAnd#59</text>
</g>
<!-- 52 -->
<g id="node22" class="node">
<title>52</title>
<polygon fill="yellow" stroke="black" points="436.62,-301.5 321.62,-301.5 321.62,-265.5 436.62,-265.5 436.62,-301.5"/>
<text text-anchor="middle" x="379.12" y="-278.45" font-family="Times New Roman,serif" font-size="14.00">idx1 &lt;= d2 &#45; 1+ 1</text>
<text text-anchor="middle" x="310.38" y="-304.7" font-family="Times New Roman,serif" font-size="14.00">[52]</text>
</g>
<!-- 55 -->
<g id="node23" class="node">
<title>55</title>
<polygon fill="yellow" stroke="black" points="410.62,-213 271.62,-213 271.62,-177 410.62,-177 410.62,-213"/>
<text text-anchor="middle" x="341.12" y="-189.95" font-family="Times New Roman,serif" font-size="14.00">it2 = Sequence{1..d2}</text>
<text text-anchor="middle" x="260.38" y="-216.2" font-family="Times New Roman,serif" font-size="14.00">[55]</text>
</g>
<!-- 52&#45;&gt;55 -->
<g id="edge17" class="edge">
<title>52&#45;&gt;55</title>
<path fill="none" stroke="black" d="M371.62,-265.41C366.39,-253.52 359.32,-237.41 353.29,-223.7"/>
<polygon fill="black" stroke="black" points="356.58,-222.48 349.36,-214.74 350.17,-225.3 356.58,-222.48"/>
<text text-anchor="middle" x="400.65" y="-234.2" font-family="Times New Roman,serif" font-size="14.00">graphAnd#46</text>
</g>
<!-- 58 -->
<g id="node24" class="node">
<title>58</title>
<polygon fill="yellow" stroke="black" points="438.25,-124.5 126,-124.5 126,-88.5 438.25,-88.5 438.25,-124.5"/>
<text text-anchor="middle" x="282.12" y="-101.45" font-family="Times New Roman,serif" font-size="14.00">result.data[it][it2] = self.data[it][it2] + arg.data[it][it2]</text>
<text text-anchor="middle" x="114.75" y="-127.7" font-family="Times New Roman,serif" font-size="14.00">[58]</text>
</g>
<!-- 55&#45;&gt;58 -->
<g id="edge18" class="edge">
<title>55&#45;&gt;58</title>
<path fill="none" stroke="black" d="M329.47,-176.91C321.12,-164.67 309.71,-147.95 300.19,-133.99"/>
<polygon fill="black" stroke="black" points="303.34,-132.39 294.81,-126.1 297.56,-136.33 303.34,-132.39"/>
<text text-anchor="middle" x="354.03" y="-145.7" font-family="Times New Roman,serif" font-size="14.00">graphAnd#47</text>
</g>
<!-- 61 -->
<g id="node25" class="node">
<title>61</title>
<polygon fill="yellow" stroke="black" points="425.25,-36 323,-36 323,0 425.25,0 425.25,-36"/>
<text text-anchor="middle" x="374.12" y="-12.95" font-family="Times New Roman,serif" font-size="14.00">idx1 = idx1 + 1</text>
<text text-anchor="middle" x="311.75" y="-39.2" font-family="Times New Roman,serif" font-size="14.00">[61]</text>
</g>
<!-- 58&#45;&gt;61 -->
<g id="edge19" class="edge">
<title>58&#45;&gt;61</title>
<path fill="none" stroke="black" d="M300.3,-88.41C313.82,-75.7 332.48,-58.16 347.65,-43.89"/>
<polygon fill="black" stroke="black" points="349.68,-46.79 354.57,-37.39 344.89,-41.69 349.68,-46.79"/>
<text text-anchor="middle" x="373.49" y="-57.2" font-family="Times New Roman,serif" font-size="14.00">graphAnd#48</text>
</g>
<!-- 61&#45;&gt;63 -->
<g id="edge21" class="edge">
<title>61&#45;&gt;63</title>
<path fill="none" stroke="black" d="M412.08,-36.36C437.42,-50.83 466.12,-74.15 466.12,-105.5 466.12,-284.5 466.12,-284.5 466.12,-284.5 466.12,-310.77 456.76,-318.55 437.12,-336 425.38,-346.44 408.5,-352.79 395.98,-356.35"/>
<polygon fill="black" stroke="black" points="395.23,-352.93 386.37,-358.74 396.92,-359.72 395.23,-352.93"/>
<text text-anchor="middle" x="493.12" y="-189.95" font-family="Times New Roman,serif" font-size="14.00">iterate#51</text>
</g>
<!-- 63&#45;&gt;49 -->
<g id="edge22" class="edge">
<title>63&#45;&gt;49</title>
<path fill="none" stroke="black" d="M373.42,-359.42C359.95,-357.36 325.42,-350.92 300.88,-336 289.82,-329.28 279.44,-319.62 270.99,-310.48"/>
<polygon fill="black" stroke="black" points="273.74,-308.32 264.51,-303.13 268.49,-312.95 273.74,-308.32"/>
<text text-anchor="middle" x="338" y="-322.7" font-family="Times New Roman,serif" font-size="14.00">graphAnd#53</text>
</g>
<!-- 63&#45;&gt;52 -->
<g id="edge20" class="edge">
<title>63&#45;&gt;52</title>
<path fill="none" stroke="black" d="M379.12,-353.48C379.12,-344.4 379.12,-327.65 379.12,-312.93"/>
<polygon fill="black" stroke="black" points="382.63,-313.26 379.13,-303.26 375.63,-313.26 382.63,-313.26"/>
<text text-anchor="middle" x="406.12" y="-322.7" font-family="Times New Roman,serif" font-size="14.00">iterate#50</text>
</g>
</g>
</svg>
