<?xml version="1.0" encoding="UTF-8" standalone="no"?>
<!DOCTYPE svg PUBLIC "-//W3C//DTD SVG 1.1//EN"
 "http://www.w3.org/Graphics/SVG/1.1/DTD/svg11.dtd">
<!-- Generated by graphviz version 12.2.1 (20241206.2353)
 -->
<!-- Title: CLG Pages: 1 -->
<svg width="1174pt" height="2033pt"
 viewBox="0.00 0.00 1173.75 2033.10" xmlns="http://www.w3.org/2000/svg" xmlns:xlink="http://www.w3.org/1999/xlink">
<g id="graph0" class="graph" transform="scale(1 1) rotate(0) translate(4 2029.1)">
<title>CLG</title>
<polygon fill="white" stroke="none" points="-4,4 -4,-2029.1 1169.75,-2029.1 1169.75,4 -4,4"/>
<!-- 192 -->
<g id="node1" class="node">
<title>192</title>
<polygon fill="aquamarine" stroke="black" points="775.38,-623.1 768.17,-615.9 775.38,-608.7 782.58,-615.9 775.38,-623.1"/>
<text text-anchor="middle" x="749.8" y="-626.3" font-family="Times New Roman,serif" font-size="14.00">&lt;192&gt;</text>
</g>
<!-- 119 -->
<g id="node29" class="node">
<title>119</title>
<ellipse fill="black" stroke="black" cx="775.38" cy="-527.4" rx="7.2" ry="7.2"/>
<ellipse fill="none" stroke="black" cx="775.38" cy="-527.4" rx="11.2" ry="11.2"/>
<text text-anchor="middle" x="754.05" y="-541.8" font-family="Times New Roman,serif" font-size="14.00">[&#45;1]</text>
</g>
<!-- 192&#45;&gt;119 -->
<g id="edge26" class="edge">
<title>192&#45;&gt;119</title>
<path fill="none" stroke="black" d="M775.38,-608.11C775.38,-595.82 775.38,-569.39 775.38,-550.33"/>
<polygon fill="black" stroke="black" points="778.88,-550.34 775.38,-540.34 771.88,-550.34 778.88,-550.34"/>
<text text-anchor="middle" x="824.5" y="-566.6" font-family="Times New Roman,serif" font-size="14.00">graphOr_end#217</text>
</g>
<!-- 130 -->
<g id="node2" class="node">
<title>130</title>
<polygon fill="yellow" stroke="black" points="1130.5,-1428.3 818.25,-1428.3 818.25,-1392.3 1130.5,-1392.3 1130.5,-1428.3"/>
<text text-anchor="middle" x="974.38" y="-1405.25" font-family="Times New Roman,serif" font-size="14.00">self.data.getDimension() = result.data.getDimension()</text>
<text text-anchor="middle" x="803.62" y="-1431.5" font-family="Times New Roman,serif" font-size="14.00">[130]</text>
</g>
<!-- 133 -->
<g id="node3" class="node">
<title>133</title>
<polygon fill="yellow" stroke="black" points="1165.75,-1339.8 783,-1339.8 783,-1303.8 1165.75,-1303.8 1165.75,-1339.8"/>
<text text-anchor="middle" x="974.38" y="-1316.75" font-family="Times New Roman,serif" font-size="14.00">self.data.getDimensionSizes(1) = result.data.getDimensionSizes(1)</text>
<text text-anchor="middle" x="768.38" y="-1343" font-family="Times New Roman,serif" font-size="14.00">[133]</text>
</g>
<!-- 130&#45;&gt;133 -->
<g id="edge20" class="edge">
<title>130&#45;&gt;133</title>
<path fill="none" stroke="black" d="M974.38,-1392.21C974.38,-1380.56 974.38,-1364.85 974.38,-1351.32"/>
<polygon fill="black" stroke="black" points="977.88,-1351.66 974.38,-1341.66 970.88,-1351.66 977.88,-1351.66"/>
<text text-anchor="middle" x="1014.88" y="-1361" font-family="Times New Roman,serif" font-size="14.00">graphAnd#148</text>
</g>
<!-- 136 -->
<g id="node4" class="node">
<title>136</title>
<polygon fill="yellow" stroke="black" points="1165.75,-1251.3 783,-1251.3 783,-1215.3 1165.75,-1215.3 1165.75,-1251.3"/>
<text text-anchor="middle" x="974.38" y="-1228.25" font-family="Times New Roman,serif" font-size="14.00">self.data.getDimensionSizes(2) = result.data.getDimensionSizes(2)</text>
<text text-anchor="middle" x="768.38" y="-1254.5" font-family="Times New Roman,serif" font-size="14.00">[136]</text>
</g>
<!-- 133&#45;&gt;136 -->
<g id="edge23" class="edge">
<title>133&#45;&gt;136</title>
<path fill="none" stroke="black" d="M974.38,-1303.71C974.38,-1292.06 974.38,-1276.35 974.38,-1262.82"/>
<polygon fill="black" stroke="black" points="977.88,-1263.16 974.38,-1253.16 970.88,-1263.16 977.88,-1263.16"/>
<text text-anchor="middle" x="1014.88" y="-1272.5" font-family="Times New Roman,serif" font-size="14.00">graphAnd#151</text>
</g>
<!-- 139 -->
<g id="node5" class="node">
<title>139</title>
<polygon fill="yellow" stroke="black" points="1081,-1143.3 867.75,-1143.3 867.75,-1107.3 1081,-1107.3 1081,-1143.3"/>
<text text-anchor="middle" x="974.38" y="-1120.25" font-family="Times New Roman,serif" font-size="14.00">d1 = arg.data.getDimensionSizes(1)</text>
<text text-anchor="middle" x="853.12" y="-1146.5" font-family="Times New Roman,serif" font-size="14.00">[139]</text>
</g>
<!-- 136&#45;&gt;139 -->
<g id="edge13" class="edge">
<title>136&#45;&gt;139</title>
<path fill="none" stroke="black" d="M974.38,-1215.27C974.38,-1199.06 974.38,-1174.36 974.38,-1155.09"/>
<polygon fill="black" stroke="black" points="977.88,-1155.15 974.38,-1145.15 970.88,-1155.15 977.88,-1155.15"/>
<text text-anchor="middle" x="1014.88" y="-1174.25" font-family="Times New Roman,serif" font-size="14.00">graphAnd#204</text>
</g>
<!-- 142 -->
<g id="node6" class="node">
<title>142</title>
<polygon fill="yellow" stroke="black" points="1081,-1054.8 867.75,-1054.8 867.75,-1018.8 1081,-1018.8 1081,-1054.8"/>
<text text-anchor="middle" x="974.38" y="-1031.75" font-family="Times New Roman,serif" font-size="14.00">d2 = arg.data.getDimensionSizes(2)</text>
<text text-anchor="middle" x="853.12" y="-1058" font-family="Times New Roman,serif" font-size="14.00">[142]</text>
</g>
<!-- 139&#45;&gt;142 -->
<g id="edge28" class="edge">
<title>139&#45;&gt;142</title>
<path fill="none" stroke="black" d="M974.38,-1107.21C974.38,-1095.56 974.38,-1079.85 974.38,-1066.32"/>
<polygon fill="black" stroke="black" points="977.88,-1066.66 974.38,-1056.66 970.88,-1066.66 977.88,-1066.66"/>
<text text-anchor="middle" x="1014.88" y="-1076" font-family="Times New Roman,serif" font-size="14.00">graphAnd#156</text>
</g>
<!-- 148 -->
<g id="node8" class="node">
<title>148</title>
<polygon fill="yellow" stroke="black" points="1009.75,-966.3 939,-966.3 939,-930.3 1009.75,-930.3 1009.75,-966.3"/>
<text text-anchor="middle" x="974.38" y="-943.25" font-family="Times New Roman,serif" font-size="14.00">acc = true</text>
<text text-anchor="middle" x="924.38" y="-969.5" font-family="Times New Roman,serif" font-size="14.00">[148]</text>
</g>
<!-- 142&#45;&gt;148 -->
<g id="edge12" class="edge">
<title>142&#45;&gt;148</title>
<path fill="none" stroke="black" d="M974.38,-1018.71C974.38,-1007.06 974.38,-991.35 974.38,-977.82"/>
<polygon fill="black" stroke="black" points="977.88,-978.16 974.38,-968.16 970.88,-978.16 977.88,-978.16"/>
<text text-anchor="middle" x="1014.88" y="-987.5" font-family="Times New Roman,serif" font-size="14.00">graphAnd#203</text>
</g>
<!-- 145 -->
<g id="node7" class="node">
<title>145</title>
<polygon fill="yellow" stroke="black" points="1012.38,-877.8 936.38,-877.8 936.38,-841.8 1012.38,-841.8 1012.38,-877.8"/>
<text text-anchor="middle" x="974.38" y="-854.75" font-family="Times New Roman,serif" font-size="14.00">Index0 = 1</text>
<text text-anchor="middle" x="921.75" y="-881" font-family="Times New Roman,serif" font-size="14.00">[145]</text>
</g>
<!-- 184 -->
<g id="node30" class="node">
<title>184</title>
<polygon fill="aquamarine" stroke="black" points="974.38,-789.3 967.17,-782.1 974.38,-774.9 981.58,-782.1 974.38,-789.3"/>
<text text-anchor="middle" x="948.8" y="-792.5" font-family="Times New Roman,serif" font-size="14.00">&lt;184&gt;</text>
</g>
<!-- 145&#45;&gt;184 -->
<g id="edge11" class="edge">
<title>145&#45;&gt;184</title>
<path fill="none" stroke="black" d="M974.38,-841.62C974.38,-829.58 974.38,-813.5 974.38,-801.25"/>
<polygon fill="black" stroke="black" points="977.88,-801.34 974.38,-791.34 970.88,-801.34 977.88,-801.34"/>
<text text-anchor="middle" x="1014.88" y="-810.5" font-family="Times New Roman,serif" font-size="14.00">graphAnd#202</text>
</g>
<!-- 148&#45;&gt;145 -->
<g id="edge29" class="edge">
<title>148&#45;&gt;145</title>
<path fill="none" stroke="black" d="M974.38,-930.21C974.38,-918.56 974.38,-902.85 974.38,-889.32"/>
<polygon fill="black" stroke="black" points="977.88,-889.66 974.38,-879.66 970.88,-889.66 977.88,-889.66"/>
<text text-anchor="middle" x="1014.88" y="-899" font-family="Times New Roman,serif" font-size="14.00">graphAnd#161</text>
</g>
<!-- 151 -->
<g id="node9" class="node">
<title>151</title>
<polygon fill="yellow" stroke="black" points="892.5,-722.4 772.25,-722.4 772.25,-686.4 892.5,-686.4 892.5,-722.4"/>
<text text-anchor="middle" x="832.38" y="-699.35" font-family="Times New Roman,serif" font-size="14.00">Index0 &gt; d1 &#45; 1+ 1</text>
<text text-anchor="middle" x="757.62" y="-725.6" font-family="Times New Roman,serif" font-size="14.00">[151]</text>
</g>
<!-- 151&#45;&gt;192 -->
<g id="edge24" class="edge">
<title>151&#45;&gt;192</title>
<path fill="none" stroke="black" d="M821.11,-686.31C810.25,-669.83 794.05,-645.24 784.13,-630.18"/>
<polygon fill="black" stroke="black" points="787.21,-628.5 778.79,-622.08 781.37,-632.35 787.21,-628.5"/>
<text text-anchor="middle" x="843.11" y="-655.1" font-family="Times New Roman,serif" font-size="14.00">merge1#215</text>
</g>
<!-- 154 -->
<g id="node10" class="node">
<title>154</title>
<polygon fill="yellow" stroke="black" points="1038.62,-722.4 910.12,-722.4 910.12,-686.4 1038.62,-686.4 1038.62,-722.4"/>
<text text-anchor="middle" x="974.38" y="-699.35" font-family="Times New Roman,serif" font-size="14.00">Index0 &lt;= d1 &#45; 1+ 1</text>
<text text-anchor="middle" x="895.5" y="-725.6" font-family="Times New Roman,serif" font-size="14.00">[154]</text>
</g>
<!-- 157 -->
<g id="node11" class="node">
<title>157</title>
<polygon fill="yellow" stroke="black" points="1036.5,-633.9 904.25,-633.9 904.25,-597.9 1036.5,-597.9 1036.5,-633.9"/>
<text text-anchor="middle" x="970.38" y="-610.85" font-family="Times New Roman,serif" font-size="14.00">it = Sequence{1..d1}</text>
<text text-anchor="middle" x="889.62" y="-637.1" font-family="Times New Roman,serif" font-size="14.00">[157]</text>
</g>
<!-- 154&#45;&gt;157 -->
<g id="edge2" class="edge">
<title>154&#45;&gt;157</title>
<path fill="none" stroke="black" d="M973.58,-686.31C973.05,-674.66 972.32,-658.95 971.69,-645.42"/>
<polygon fill="black" stroke="black" points="975.21,-645.59 971.25,-635.76 968.21,-645.91 975.21,-645.59"/>
<text text-anchor="middle" x="1013.23" y="-655.1" font-family="Times New Roman,serif" font-size="14.00">graphAnd#194</text>
</g>
<!-- 163 -->
<g id="node13" class="node">
<title>163</title>
<polygon fill="yellow" stroke="black" points="1005.12,-545.4 927.62,-545.4 927.62,-509.4 1005.12,-509.4 1005.12,-545.4"/>
<text text-anchor="middle" x="966.38" y="-522.35" font-family="Times New Roman,serif" font-size="14.00">acc2 = true</text>
<text text-anchor="middle" x="913" y="-548.6" font-family="Times New Roman,serif" font-size="14.00">[163]</text>
</g>
<!-- 157&#45;&gt;163 -->
<g id="edge4" class="edge">
<title>157&#45;&gt;163</title>
<path fill="none" stroke="black" d="M969.58,-597.81C969.05,-586.16 968.32,-570.45 967.69,-556.92"/>
<polygon fill="black" stroke="black" points="971.21,-557.09 967.25,-547.26 964.21,-557.41 971.21,-557.09"/>
<text text-anchor="middle" x="1009.23" y="-566.6" font-family="Times New Roman,serif" font-size="14.00">graphAnd#195</text>
</g>
<!-- 160 -->
<g id="node12" class="node">
<title>160</title>
<polygon fill="yellow" stroke="black" points="988.38,-456.9 912.38,-456.9 912.38,-420.9 988.38,-420.9 988.38,-456.9"/>
<text text-anchor="middle" x="950.38" y="-433.85" font-family="Times New Roman,serif" font-size="14.00">Index1 = 1</text>
<text text-anchor="middle" x="897.75" y="-460.1" font-family="Times New Roman,serif" font-size="14.00">[160]</text>
</g>
<!-- 180 -->
<g id="node25" class="node">
<title>180</title>
<polygon fill="aquamarine" stroke="black" points="856.38,-368.4 849.17,-361.2 856.38,-354 863.58,-361.2 856.38,-368.4"/>
<text text-anchor="middle" x="830.8" y="-371.6" font-family="Times New Roman,serif" font-size="14.00">&lt;180&gt;</text>
</g>
<!-- 160&#45;&gt;180 -->
<g id="edge41" class="edge">
<title>160&#45;&gt;180</title>
<path fill="none" stroke="black" d="M929.04,-420.72C910.38,-405.69 883.94,-384.39 868.63,-372.07"/>
<polygon fill="black" stroke="black" points="871.2,-369.65 861.22,-366.1 866.81,-375.1 871.2,-369.65"/>
<text text-anchor="middle" x="946.69" y="-389.6" font-family="Times New Roman,serif" font-size="14.00">graphAnd#191</text>
</g>
<!-- 163&#45;&gt;160 -->
<g id="edge30" class="edge">
<title>163&#45;&gt;160</title>
<path fill="none" stroke="black" d="M963.21,-509.31C961.06,-497.66 958.15,-481.95 955.65,-468.42"/>
<polygon fill="black" stroke="black" points="959.12,-467.94 953.86,-458.74 952.24,-469.21 959.12,-467.94"/>
<text text-anchor="middle" x="1000.31" y="-478.1" font-family="Times New Roman,serif" font-size="14.00">graphAnd#172</text>
</g>
<!-- 166 -->
<g id="node14" class="node">
<title>166</title>
<polygon fill="yellow" stroke="black" points="1036.5,-301.5 916.25,-301.5 916.25,-265.5 1036.5,-265.5 1036.5,-301.5"/>
<text text-anchor="middle" x="976.38" y="-278.45" font-family="Times New Roman,serif" font-size="14.00">Index1 &gt; d2 &#45; 1+ 1</text>
<text text-anchor="middle" x="901.62" y="-304.7" font-family="Times New Roman,serif" font-size="14.00">[166]</text>
</g>
<!-- 182 -->
<g id="node27" class="node">
<title>182</title>
<polygon fill="yellow" stroke="black" points="1090,-213 960.75,-213 960.75,-177 1090,-177 1090,-213"/>
<text text-anchor="middle" x="1025.38" y="-189.95" font-family="Times New Roman,serif" font-size="14.00">Index0 = Index0 + 1</text>
<text text-anchor="middle" x="946.12" y="-216.2" font-family="Times New Roman,serif" font-size="14.00">[182]</text>
</g>
<!-- 166&#45;&gt;182 -->
<g id="edge6" class="edge">
<title>166&#45;&gt;182</title>
<path fill="none" stroke="black" d="M971.04,-265.3C968.79,-254.8 967.82,-241.44 973.38,-231 975.36,-227.27 977.93,-223.87 980.88,-220.79"/>
<polygon fill="black" stroke="black" points="983.02,-223.56 988.23,-214.33 978.41,-218.3 983.02,-223.56"/>
<text text-anchor="middle" x="1013.88" y="-234.2" font-family="Times New Roman,serif" font-size="14.00">graphAnd#196</text>
</g>
<!-- 169 -->
<g id="node15" class="node">
<title>169</title>
<polygon fill="yellow" stroke="black" points="898.62,-301.5 770.12,-301.5 770.12,-265.5 898.62,-265.5 898.62,-301.5"/>
<text text-anchor="middle" x="834.38" y="-278.45" font-family="Times New Roman,serif" font-size="14.00">Index1 &lt;= d2 &#45; 1+ 1</text>
<text text-anchor="middle" x="755.5" y="-304.7" font-family="Times New Roman,serif" font-size="14.00">[169]</text>
</g>
<!-- 172 -->
<g id="node17" class="node">
<title>172</title>
<polygon fill="yellow" stroke="black" points="937.88,-213 798.88,-213 798.88,-177 937.88,-177 937.88,-213"/>
<text text-anchor="middle" x="868.38" y="-189.95" font-family="Times New Roman,serif" font-size="14.00">it2 = Sequence{1..d2}</text>
<text text-anchor="middle" x="784.25" y="-216.2" font-family="Times New Roman,serif" font-size="14.00">[172]</text>
</g>
<!-- 169&#45;&gt;172 -->
<g id="edge31" class="edge">
<title>169&#45;&gt;172</title>
<path fill="none" stroke="black" d="M841.09,-265.41C845.77,-253.52 852.1,-237.41 857.49,-223.7"/>
<polygon fill="black" stroke="black" points="860.6,-225.35 861,-214.76 854.09,-222.79 860.6,-225.35"/>
<text text-anchor="middle" x="894.92" y="-234.2" font-family="Times New Roman,serif" font-size="14.00">graphAnd#183</text>
</g>
<!-- 105 -->
<g id="node16" class="node">
<title>105</title>
<polygon fill="yellow" stroke="black" points="733.25,-1516.8 425.5,-1516.8 425.5,-1480.8 733.25,-1480.8 733.25,-1516.8"/>
<text text-anchor="middle" x="579.38" y="-1493.75" font-family="Times New Roman,serif" font-size="14.00">self.data.getDimension() &lt;&gt; arg.data.getDimension()</text>
<text text-anchor="middle" x="410.88" y="-1520" font-family="Times New Roman,serif" font-size="14.00">[105]</text>
</g>
<!-- 111 -->
<g id="node21" class="node">
<title>111</title>
<polygon fill="aquamarine" stroke="black" points="579.38,-1417.5 572.17,-1410.3 579.38,-1403.1 586.58,-1410.3 579.38,-1417.5"/>
<text text-anchor="middle" x="553.8" y="-1420.7" font-family="Times New Roman,serif" font-size="14.00">&lt;111&gt;</text>
</g>
<!-- 105&#45;&gt;111 -->
<g id="edge37" class="edge">
<title>105&#45;&gt;111</title>
<path fill="none" stroke="black" d="M579.38,-1480.71C579.38,-1465.94 579.38,-1444.63 579.38,-1429.53"/>
<polygon fill="black" stroke="black" points="582.88,-1429.69 579.38,-1419.69 575.88,-1429.69 582.88,-1429.69"/>
<text text-anchor="middle" x="613.5" y="-1449.5" font-family="Times New Roman,serif" font-size="14.00">merge1#123</text>
</g>
<!-- 175 -->
<g id="node20" class="node">
<title>175</title>
<polygon fill="yellow" stroke="black" points="1045.62,-124.5 737.12,-124.5 737.12,-88.5 1045.62,-88.5 1045.62,-124.5"/>
<text text-anchor="middle" x="891.38" y="-101.45" font-family="Times New Roman,serif" font-size="14.00">result.data[it][it2] = self.data[it][it2] &#45; arg.data[it][it2]</text>
<text text-anchor="middle" x="722.5" y="-127.7" font-family="Times New Roman,serif" font-size="14.00">[175]</text>
</g>
<!-- 172&#45;&gt;175 -->
<g id="edge32" class="edge">
<title>172&#45;&gt;175</title>
<path fill="none" stroke="black" d="M872.92,-176.91C876.05,-165.14 880.28,-149.23 883.9,-135.61"/>
<polygon fill="black" stroke="black" points="887.19,-136.88 886.37,-126.31 880.42,-135.08 887.19,-136.88"/>
<text text-anchor="middle" x="922.44" y="-145.7" font-family="Times New Roman,serif" font-size="14.00">graphAnd#184</text>
</g>
<!-- 108 -->
<g id="node18" class="node">
<title>108</title>
<polygon fill="yellow" stroke="black" points="407.5,-1516.8 29.25,-1516.8 29.25,-1480.8 407.5,-1480.8 407.5,-1516.8"/>
<text text-anchor="middle" x="218.38" y="-1493.75" font-family="Times New Roman,serif" font-size="14.00">self.data.getDimensionSizes(1) &lt;&gt; arg.data.getDimensionSizes(1)</text>
<text text-anchor="middle" x="14.62" y="-1520" font-family="Times New Roman,serif" font-size="14.00">[108]</text>
</g>
<!-- 108&#45;&gt;111 -->
<g id="edge39" class="edge">
<title>108&#45;&gt;111</title>
<path fill="none" stroke="black" d="M290.99,-1480.4C377.38,-1459.7 515.84,-1426.52 563.02,-1415.22"/>
<polygon fill="black" stroke="black" points="563.61,-1418.68 572.51,-1412.94 561.97,-1411.87 563.61,-1418.68"/>
<text text-anchor="middle" x="465.33" y="-1449.5" font-family="Times New Roman,serif" font-size="14.00">merge2#124</text>
</g>
<!-- 110 -->
<g id="node19" class="node">
<title>110</title>
<polygon fill="aquamarine" stroke="black" points="510.38,-1614 503.18,-1606.8 510.38,-1599.6 517.58,-1606.8 510.38,-1614"/>
<text text-anchor="middle" x="484.8" y="-1617.2" font-family="Times New Roman,serif" font-size="14.00">&lt;110&gt;</text>
</g>
<!-- 110&#45;&gt;105 -->
<g id="edge34" class="edge">
<title>110&#45;&gt;105</title>
<path fill="none" stroke="black" d="M508.43,-1601.2C503.67,-1589.18 492.83,-1556.32 506.38,-1534.8 508.94,-1530.72 512.14,-1527.1 515.74,-1523.9"/>
<polygon fill="black" stroke="black" points="517.65,-1526.84 523.57,-1518.06 513.46,-1521.23 517.65,-1526.84"/>
<text text-anchor="middle" x="534.88" y="-1547.75" font-family="Times New Roman,serif" font-size="14.00">split1#121</text>
</g>
<!-- 110&#45;&gt;108 -->
<g id="edge35" class="edge">
<title>110&#45;&gt;108</title>
<path fill="none" stroke="black" d="M505.79,-1604.13C480.18,-1594.84 353.33,-1548.79 276.97,-1521.07"/>
<polygon fill="black" stroke="black" points="278.56,-1517.92 267.97,-1517.8 276.17,-1524.5 278.56,-1517.92"/>
<text text-anchor="middle" x="436.09" y="-1547.75" font-family="Times New Roman,serif" font-size="14.00">split2#122</text>
</g>
<!-- 178 -->
<g id="node23" class="node">
<title>178</title>
<polygon fill="yellow" stroke="black" points="790,-36 660.75,-36 660.75,0 790,0 790,-36"/>
<text text-anchor="middle" x="725.38" y="-12.95" font-family="Times New Roman,serif" font-size="14.00">Index1 = Index1 + 1</text>
<text text-anchor="middle" x="646.12" y="-39.2" font-family="Times New Roman,serif" font-size="14.00">[178]</text>
</g>
<!-- 175&#45;&gt;178 -->
<g id="edge33" class="edge">
<title>175&#45;&gt;178</title>
<path fill="none" stroke="black" d="M858.18,-88.2C832.48,-74.81 796.67,-56.15 768.71,-41.58"/>
<polygon fill="black" stroke="black" points="770.62,-38.63 760.14,-37.11 767.39,-44.84 770.62,-38.63"/>
<text text-anchor="middle" x="863.74" y="-57.2" font-family="Times New Roman,serif" font-size="14.00">graphAnd#185</text>
</g>
<!-- 116 -->
<g id="node26" class="node">
<title>116</title>
<polygon fill="aquamarine" stroke="black" points="744.38,-1329 737.17,-1321.8 744.38,-1314.6 751.58,-1321.8 744.38,-1329"/>
<text text-anchor="middle" x="718.8" y="-1332.2" font-family="Times New Roman,serif" font-size="14.00">&lt;116&gt;</text>
</g>
<!-- 111&#45;&gt;116 -->
<g id="edge5" class="edge">
<title>111&#45;&gt;116</title>
<path fill="none" stroke="black" d="M583.79,-1406.99C604.69,-1396.03 694.22,-1349.1 729.75,-1330.47"/>
<polygon fill="black" stroke="black" points="731.3,-1333.61 738.53,-1325.86 728.05,-1327.41 731.3,-1333.61"/>
<text text-anchor="middle" x="710.78" y="-1361" font-family="Times New Roman,serif" font-size="14.00">merge1#131</text>
</g>
<!-- 113 -->
<g id="node22" class="node">
<title>113</title>
<polygon fill="yellow" stroke="black" points="950.5,-1570.8 572.25,-1570.8 572.25,-1534.8 950.5,-1534.8 950.5,-1570.8"/>
<text text-anchor="middle" x="761.38" y="-1547.75" font-family="Times New Roman,serif" font-size="14.00">self.data.getDimensionSizes(2) &lt;&gt; arg.data.getDimensionSizes(2)</text>
<text text-anchor="middle" x="557.62" y="-1574" font-family="Times New Roman,serif" font-size="14.00">[113]</text>
</g>
<!-- 113&#45;&gt;116 -->
<g id="edge7" class="edge">
<title>113&#45;&gt;116</title>
<path fill="none" stroke="black" d="M760.2,-1534.4C757.88,-1500.44 752.52,-1422.94 747.38,-1357.8 746.93,-1352.12 746.41,-1345.93 745.93,-1340.35"/>
<polygon fill="black" stroke="black" points="749.42,-1340.16 745.06,-1330.5 742.45,-1340.77 749.42,-1340.16"/>
<text text-anchor="middle" x="789.21" y="-1449.5" font-family="Times New Roman,serif" font-size="14.00">merge2#132</text>
</g>
<!-- 178&#45;&gt;180 -->
<g id="edge38" class="edge">
<title>178&#45;&gt;180</title>
<path fill="none" stroke="black" d="M720.22,-36.39C715.55,-53.73 709.38,-81.22 709.38,-105.5 709.38,-284.5 709.38,-284.5 709.38,-284.5 709.38,-342.15 799.83,-355.93 838.83,-359.2"/>
<polygon fill="black" stroke="black" points="838.33,-362.67 848.55,-359.86 838.81,-355.69 838.33,-362.67"/>
<text text-anchor="middle" x="739.75" y="-189.95" font-family="Times New Roman,serif" font-size="14.00">iterate#188</text>
</g>
<!-- 115 -->
<g id="node24" class="node">
<title>115</title>
<polygon fill="aquamarine" stroke="black" points="761.38,-1702.5 754.17,-1695.3 761.38,-1688.1 768.58,-1695.3 761.38,-1702.5"/>
<text text-anchor="middle" x="735.8" y="-1705.7" font-family="Times New Roman,serif" font-size="14.00">&lt;115&gt;</text>
</g>
<!-- 115&#45;&gt;110 -->
<g id="edge1" class="edge">
<title>115&#45;&gt;110</title>
<path fill="none" stroke="black" d="M756.59,-1692.65C727.59,-1682.66 575.18,-1630.13 525.82,-1613.12"/>
<polygon fill="black" stroke="black" points="527.24,-1609.91 516.65,-1609.96 524.96,-1616.53 527.24,-1609.91"/>
<text text-anchor="middle" x="686.86" y="-1646" font-family="Times New Roman,serif" font-size="14.00">split1#129</text>
</g>
<!-- 115&#45;&gt;113 -->
<g id="edge3" class="edge">
<title>115&#45;&gt;113</title>
<path fill="none" stroke="black" d="M761.38,-1687.52C761.38,-1668.87 761.38,-1615.96 761.38,-1582.56"/>
<polygon fill="black" stroke="black" points="764.88,-1582.75 761.38,-1572.75 757.88,-1582.75 764.88,-1582.75"/>
<text text-anchor="middle" x="789.88" y="-1646" font-family="Times New Roman,serif" font-size="14.00">split2#130</text>
</g>
<!-- 180&#45;&gt;166 -->
<g id="edge40" class="edge">
<title>180&#45;&gt;166</title>
<path fill="none" stroke="black" d="M861.42,-358.66C871.8,-355.38 896.08,-347.07 914.38,-336 926.91,-328.42 939.56,-318.42 950.13,-309.26"/>
<polygon fill="black" stroke="black" points="952.21,-312.1 957.35,-302.83 947.56,-306.87 952.21,-312.1"/>
<text text-anchor="middle" x="976.62" y="-322.7" font-family="Times New Roman,serif" font-size="14.00">graphAnd#190</text>
</g>
<!-- 180&#45;&gt;169 -->
<g id="edge36" class="edge">
<title>180&#45;&gt;169</title>
<path fill="none" stroke="black" d="M854.93,-355.23C852.44,-346.66 847.15,-328.47 842.57,-312.69"/>
<polygon fill="black" stroke="black" points="845.98,-311.88 839.82,-303.25 839.25,-313.83 845.98,-311.88"/>
<text text-anchor="middle" x="879.63" y="-322.7" font-family="Times New Roman,serif" font-size="14.00">iterate#187</text>
</g>
<!-- 118 -->
<g id="node28" class="node">
<title>118</title>
<polygon fill="yellow" stroke="black" points="838.62,-1197.3 650.12,-1197.3 650.12,-1161.3 838.62,-1161.3 838.62,-1197.3"/>
<text text-anchor="middle" x="744.38" y="-1174.25" font-family="Times New Roman,serif" font-size="14.00">Result = &#39;IllegalDimensionSize&#39;</text>
<text text-anchor="middle" x="635.5" y="-1200.5" font-family="Times New Roman,serif" font-size="14.00">[118]</text>
</g>
<!-- 116&#45;&gt;118 -->
<g id="edge15" class="edge">
<title>116&#45;&gt;118</title>
<path fill="none" stroke="black" d="M744.38,-1314.02C744.38,-1295.37 744.38,-1242.46 744.38,-1209.06"/>
<polygon fill="black" stroke="black" points="747.88,-1209.25 744.38,-1199.25 740.88,-1209.25 747.88,-1209.25"/>
<text text-anchor="middle" x="784.88" y="-1272.5" font-family="Times New Roman,serif" font-size="14.00">graphAnd#205</text>
</g>
<!-- 182&#45;&gt;184 -->
<g id="edge9" class="edge">
<title>182&#45;&gt;184</title>
<path fill="none" stroke="black" d="M1042.32,-213.47C1046.75,-218.77 1051.18,-224.84 1054.38,-231 1065.3,-252.05 1068.38,-258.78 1068.38,-282.5 1068.38,-705.4 1068.38,-705.4 1068.38,-705.4 1068.38,-731.67 1059.34,-739.83 1039.38,-756.9 1025.5,-768.76 1005.26,-775.06 991.07,-778.23"/>
<polygon fill="black" stroke="black" points="990.73,-774.73 981.57,-780.04 992.05,-781.6 990.73,-774.73"/>
<text text-anchor="middle" x="1098.75" y="-478.1" font-family="Times New Roman,serif" font-size="14.00">iterate#199</text>
</g>
<!-- 118&#45;&gt;192 -->
<g id="edge25" class="edge">
<title>118&#45;&gt;192</title>
<path fill="none" stroke="black" d="M744.38,-1160.91C744.38,-1141.64 744.38,-1109.62 744.38,-1082.05 744.38,-1082.05 744.38,-1082.05 744.38,-703.4 744.38,-676.44 757.88,-647.38 767.07,-630.74"/>
<polygon fill="black" stroke="black" points="769.95,-632.74 771.97,-622.34 763.91,-629.21 769.95,-632.74"/>
<text text-anchor="middle" x="778.5" y="-899" font-family="Times New Roman,serif" font-size="14.00">merge2#216</text>
</g>
<!-- 184&#45;&gt;151 -->
<g id="edge10" class="edge">
<title>184&#45;&gt;151</title>
<path fill="none" stroke="black" d="M968.24,-780.33C953.73,-778.31 916.48,-771.92 889.38,-756.9 876.92,-750 864.95,-739.9 855.21,-730.47"/>
<polygon fill="black" stroke="black" points="857.87,-728.18 848.35,-723.53 852.89,-733.1 857.87,-728.18"/>
<text text-anchor="middle" x="929.88" y="-743.6" font-family="Times New Roman,serif" font-size="14.00">graphAnd#201</text>
</g>
<!-- 184&#45;&gt;154 -->
<g id="edge8" class="edge">
<title>184&#45;&gt;154</title>
<path fill="none" stroke="black" d="M974.38,-774.38C974.38,-765.3 974.38,-748.55 974.38,-733.83"/>
<polygon fill="black" stroke="black" points="977.88,-734.16 974.38,-724.16 970.88,-734.16 977.88,-734.16"/>
<text text-anchor="middle" x="1004.75" y="-743.6" font-family="Times New Roman,serif" font-size="14.00">iterate#198</text>
</g>
<!-- 185 -->
<g id="node31" class="node">
<title>185</title>
<ellipse fill="black" stroke="black" cx="848.38" cy="-2001.4" rx="7.2" ry="7.2"/>
<text text-anchor="middle" x="833.3" y="-2011.8" font-family="Times New Roman,serif" font-size="14.00">[0]</text>
</g>
<!-- 186 -->
<g id="node33" class="node">
<title>186</title>
<polygon fill="yellow" stroke="black" points="952.75,-1957.2 744,-1957.2 744,-1921.2 952.75,-1921.2 952.75,-1957.2"/>
<text text-anchor="middle" x="848.38" y="-1934.15" font-family="Times New Roman,serif" font-size="14.00">self.data.getDimensionSizes(1) &gt; 0</text>
<text text-anchor="middle" x="729.38" y="-1960.4" font-family="Times New Roman,serif" font-size="14.00">[186]</text>
</g>
<!-- 185&#45;&gt;186 -->
<g id="edge17" class="edge">
<title>185&#45;&gt;186</title>
<path fill="none" stroke="black" d="M848.38,-1993.96C848.38,-1987.9 848.38,-1978.39 848.38,-1969.04"/>
<polygon fill="black" stroke="black" points="851.88,-1969.08 848.38,-1959.08 844.88,-1969.08 851.88,-1969.08"/>
</g>
<!-- 121 -->
<g id="node32" class="node">
<title>121</title>
<polygon fill="yellow" stroke="black" points="1105.12,-1713.3 805.62,-1713.3 805.62,-1677.3 1105.12,-1677.3 1105.12,-1713.3"/>
<text text-anchor="middle" x="955.38" y="-1690.25" font-family="Times New Roman,serif" font-size="14.00">self.data.getDimension() = arg.data.getDimension()</text>
<text text-anchor="middle" x="791" y="-1716.5" font-family="Times New Roman,serif" font-size="14.00">[121]</text>
</g>
<!-- 124 -->
<g id="node34" class="node">
<title>124</title>
<polygon fill="yellow" stroke="black" points="1159.38,-1624.8 789.38,-1624.8 789.38,-1588.8 1159.38,-1588.8 1159.38,-1624.8"/>
<text text-anchor="middle" x="974.38" y="-1601.75" font-family="Times New Roman,serif" font-size="14.00">self.data.getDimensionSizes(1) = arg.data.getDimensionSizes(1)</text>
<text text-anchor="middle" x="774.75" y="-1628" font-family="Times New Roman,serif" font-size="14.00">[124]</text>
</g>
<!-- 121&#45;&gt;124 -->
<g id="edge14" class="edge">
<title>121&#45;&gt;124</title>
<path fill="none" stroke="black" d="M959.13,-1677.21C961.69,-1665.56 965.14,-1649.85 968.11,-1636.32"/>
<polygon fill="black" stroke="black" points="971.51,-1637.15 970.24,-1626.63 964.68,-1635.64 971.51,-1637.15"/>
<text text-anchor="middle" x="1007.08" y="-1646" font-family="Times New Roman,serif" font-size="14.00">graphAnd#140</text>
</g>
<!-- 189 -->
<g id="node35" class="node">
<title>189</title>
<polygon fill="yellow" stroke="black" points="952.75,-1868.7 744,-1868.7 744,-1832.7 952.75,-1832.7 952.75,-1868.7"/>
<text text-anchor="middle" x="848.38" y="-1845.65" font-family="Times New Roman,serif" font-size="14.00">self.data.getDimensionSizes(2) &gt; 0</text>
<text text-anchor="middle" x="729.38" y="-1871.9" font-family="Times New Roman,serif" font-size="14.00">[189]</text>
</g>
<!-- 186&#45;&gt;189 -->
<g id="edge19" class="edge">
<title>186&#45;&gt;189</title>
<path fill="none" stroke="black" d="M848.38,-1921.11C848.38,-1909.46 848.38,-1893.75 848.38,-1880.22"/>
<polygon fill="black" stroke="black" points="851.88,-1880.56 848.38,-1870.56 844.88,-1880.56 851.88,-1880.56"/>
<text text-anchor="middle" x="888.88" y="-1889.9" font-family="Times New Roman,serif" font-size="14.00">graphAnd#211</text>
</g>
<!-- 127 -->
<g id="node36" class="node">
<title>127</title>
<polygon fill="yellow" stroke="black" points="1159.38,-1516.8 789.38,-1516.8 789.38,-1480.8 1159.38,-1480.8 1159.38,-1516.8"/>
<text text-anchor="middle" x="974.38" y="-1493.75" font-family="Times New Roman,serif" font-size="14.00">self.data.getDimensionSizes(2) = arg.data.getDimensionSizes(2)</text>
<text text-anchor="middle" x="774.75" y="-1520" font-family="Times New Roman,serif" font-size="14.00">[127]</text>
</g>
<!-- 124&#45;&gt;127 -->
<g id="edge18" class="edge">
<title>124&#45;&gt;127</title>
<path fill="none" stroke="black" d="M974.38,-1588.77C974.38,-1572.56 974.38,-1547.86 974.38,-1528.59"/>
<polygon fill="black" stroke="black" points="977.88,-1528.65 974.38,-1518.65 970.88,-1528.65 977.88,-1528.65"/>
<text text-anchor="middle" x="1014.88" y="-1547.75" font-family="Times New Roman,serif" font-size="14.00">graphAnd#143</text>
</g>
<!-- 191 -->
<g id="node37" class="node">
<title>191</title>
<polygon fill="aquamarine" stroke="black" points="848.38,-1780.2 841.17,-1773 848.38,-1765.8 855.58,-1773 848.38,-1780.2"/>
<text text-anchor="middle" x="822.8" y="-1783.4" font-family="Times New Roman,serif" font-size="14.00">&lt;191&gt;</text>
</g>
<!-- 189&#45;&gt;191 -->
<g id="edge27" class="edge">
<title>189&#45;&gt;191</title>
<path fill="none" stroke="black" d="M848.38,-1832.52C848.38,-1820.48 848.38,-1804.4 848.38,-1792.15"/>
<polygon fill="black" stroke="black" points="851.88,-1792.24 848.38,-1782.24 844.88,-1792.24 851.88,-1792.24"/>
<text text-anchor="middle" x="888.88" y="-1801.4" font-family="Times New Roman,serif" font-size="14.00">graphAnd#218</text>
</g>
<!-- 127&#45;&gt;130 -->
<g id="edge16" class="edge">
<title>127&#45;&gt;130</title>
<path fill="none" stroke="black" d="M974.38,-1480.71C974.38,-1469.06 974.38,-1453.35 974.38,-1439.82"/>
<polygon fill="black" stroke="black" points="977.88,-1440.16 974.38,-1430.16 970.88,-1440.16 977.88,-1440.16"/>
<text text-anchor="middle" x="1014.88" y="-1449.5" font-family="Times New Roman,serif" font-size="14.00">graphAnd#206</text>
</g>
<!-- 191&#45;&gt;115 -->
<g id="edge22" class="edge">
<title>191&#45;&gt;115</title>
<path fill="none" stroke="black" d="M845.07,-1769.12C833.44,-1759.01 794.01,-1724.7 773.7,-1707.02"/>
<polygon fill="black" stroke="black" points="776.05,-1704.43 766.21,-1700.5 771.45,-1709.71 776.05,-1704.43"/>
<text text-anchor="middle" x="848.73" y="-1734.5" font-family="Times New Roman,serif" font-size="14.00">split2#214</text>
</g>
<!-- 191&#45;&gt;121 -->
<g id="edge21" class="edge">
<title>191&#45;&gt;121</title>
<path fill="none" stroke="black" d="M852.18,-1769.31C863.19,-1761.52 895.9,-1738.38 921.58,-1720.21"/>
<polygon fill="black" stroke="black" points="923.29,-1723.29 929.43,-1714.66 919.24,-1717.58 923.29,-1723.29"/>
<text text-anchor="middle" x="933.58" y="-1734.5" font-family="Times New Roman,serif" font-size="14.00">split1#213</text>
</g>
</g>
</svg>
