<?xml version="1.0" encoding="UTF-8" standalone="no"?>
<!DOCTYPE svg PUBLIC "-//W3C//DTD SVG 1.1//EN"
 "http://www.w3.org/Graphics/SVG/1.1/DTD/svg11.dtd">
<!-- Generated by graphviz version 12.2.1 (20241206.2353)
 -->
<!-- Title: CLG Pages: 1 -->
<svg width="1444pt" height="1510pt"
 viewBox="0.00 0.00 1444.12 1510.10" xmlns="http://www.w3.org/2000/svg" xmlns:xlink="http://www.w3.org/1999/xlink">
<g id="graph0" class="graph" transform="scale(1 1) rotate(0) translate(4 1506.1)">
<title>CLG</title>
<polygon fill="white" stroke="none" points="-4,4 -4,-1506.1 1440.12,-1506.1 1440.12,4 -4,4"/>
<!-- 65 -->
<g id="node1" class="node">
<title>65</title>
<polygon fill="yellow" stroke="black" points="405.25,-905.3 276.75,-905.3 276.75,-869.3 405.25,-869.3 405.25,-905.3"/>
<text text-anchor="middle" x="341" y="-882.25" font-family="Times New Roman,serif" font-size="14.00">Index0 &lt;= d1 &#45; 1+ 1</text>
<text text-anchor="middle" x="265.5" y="-908.5" font-family="Times New Roman,serif" font-size="14.00">[65]</text>
</g>
<!-- 68 -->
<g id="node2" class="node">
<title>68</title>
<polygon fill="yellow" stroke="black" points="380.12,-816.8 247.88,-816.8 247.88,-780.8 380.12,-780.8 380.12,-816.8"/>
<text text-anchor="middle" x="314" y="-793.75" font-family="Times New Roman,serif" font-size="14.00">it = Sequence{1..d1}</text>
<text text-anchor="middle" x="236.62" y="-820" font-family="Times New Roman,serif" font-size="14.00">[68]</text>
</g>
<!-- 65&#45;&gt;68 -->
<g id="edge14" class="edge">
<title>65&#45;&gt;68</title>
<path fill="none" stroke="black" d="M328.39,-868.87C325.05,-863.48 321.81,-857.36 319.75,-851.3 317.27,-844.04 315.81,-835.89 314.96,-828.26"/>
<polygon fill="black" stroke="black" points="318.46,-828.11 314.18,-818.41 311.48,-828.65 318.46,-828.11"/>
<text text-anchor="middle" x="356.88" y="-838" font-family="Times New Roman,serif" font-size="14.00">graphAnd#91</text>
</g>
<!-- 74 -->
<g id="node4" class="node">
<title>74</title>
<polygon fill="yellow" stroke="black" points="352.75,-728.3 275.25,-728.3 275.25,-692.3 352.75,-692.3 352.75,-728.3"/>
<text text-anchor="middle" x="314" y="-705.25" font-family="Times New Roman,serif" font-size="14.00">acc2 = true</text>
<text text-anchor="middle" x="264" y="-731.5" font-family="Times New Roman,serif" font-size="14.00">[74]</text>
</g>
<!-- 68&#45;&gt;74 -->
<g id="edge16" class="edge">
<title>68&#45;&gt;74</title>
<path fill="none" stroke="black" d="M314,-780.71C314,-769.06 314,-753.35 314,-739.82"/>
<polygon fill="black" stroke="black" points="317.5,-740.16 314,-730.16 310.5,-740.16 317.5,-740.16"/>
<text text-anchor="middle" x="351.12" y="-749.5" font-family="Times New Roman,serif" font-size="14.00">graphAnd#92</text>
</g>
<!-- 71 -->
<g id="node3" class="node">
<title>71</title>
<polygon fill="yellow" stroke="black" points="350,-620.3 274,-620.3 274,-584.3 350,-584.3 350,-620.3"/>
<text text-anchor="middle" x="312" y="-597.25" font-family="Times New Roman,serif" font-size="14.00">Index1 = 1</text>
<text text-anchor="middle" x="262.75" y="-623.5" font-family="Times New Roman,serif" font-size="14.00">[71]</text>
</g>
<!-- 91 -->
<g id="node16" class="node">
<title>91</title>
<polygon fill="aquamarine" stroke="black" points="221,-521 213.8,-513.8 221,-506.6 228.2,-513.8 221,-521"/>
<text text-anchor="middle" x="198.8" y="-524.2" font-family="Times New Roman,serif" font-size="14.00">&lt;91&gt;</text>
</g>
<!-- 71&#45;&gt;91 -->
<g id="edge12" class="edge">
<title>71&#45;&gt;91</title>
<path fill="none" stroke="black" d="M294.02,-584.21C275.84,-566.92 248.25,-540.71 232.71,-525.94"/>
<polygon fill="black" stroke="black" points="235.22,-523.49 225.56,-519.13 230.4,-528.56 235.22,-523.49"/>
<text text-anchor="middle" x="311.78" y="-553" font-family="Times New Roman,serif" font-size="14.00">graphAnd#88</text>
</g>
<!-- 74&#45;&gt;71 -->
<g id="edge1" class="edge">
<title>74&#45;&gt;71</title>
<path fill="none" stroke="black" d="M313.68,-692.27C313.37,-676.06 312.91,-651.36 312.54,-632.09"/>
<polygon fill="black" stroke="black" points="316.04,-632.09 312.36,-622.15 309.05,-632.22 316.04,-632.09"/>
<text text-anchor="middle" x="350.42" y="-651.25" font-family="Times New Roman,serif" font-size="14.00">graphAnd#69</text>
</g>
<!-- 77 -->
<g id="node5" class="node">
<title>77</title>
<polygon fill="yellow" stroke="black" points="372.12,-443.3 251.88,-443.3 251.88,-407.3 372.12,-407.3 372.12,-443.3"/>
<text text-anchor="middle" x="312" y="-420.25" font-family="Times New Roman,serif" font-size="14.00">Index1 &gt; d2 &#45; 1+ 1</text>
<text text-anchor="middle" x="240.62" y="-446.5" font-family="Times New Roman,serif" font-size="14.00">[77]</text>
</g>
<!-- 93 -->
<g id="node18" class="node">
<title>93</title>
<polygon fill="yellow" stroke="black" points="379.62,-354.8 250.38,-354.8 250.38,-318.8 379.62,-318.8 379.62,-354.8"/>
<text text-anchor="middle" x="315" y="-331.75" font-family="Times New Roman,serif" font-size="14.00">Index0 = Index0 + 1</text>
<text text-anchor="middle" x="239.12" y="-358" font-family="Times New Roman,serif" font-size="14.00">[93]</text>
</g>
<!-- 77&#45;&gt;93 -->
<g id="edge18" class="edge">
<title>77&#45;&gt;93</title>
<path fill="none" stroke="black" d="M312.59,-407.21C313,-395.56 313.54,-379.85 314.01,-366.32"/>
<polygon fill="black" stroke="black" points="317.5,-366.78 314.35,-356.66 310.5,-366.54 317.5,-366.78"/>
<text text-anchor="middle" x="350.89" y="-376" font-family="Times New Roman,serif" font-size="14.00">graphAnd#93</text>
</g>
<!-- 80 -->
<g id="node6" class="node">
<title>80</title>
<polygon fill="yellow" stroke="black" points="233.25,-443.3 104.75,-443.3 104.75,-407.3 233.25,-407.3 233.25,-443.3"/>
<text text-anchor="middle" x="169" y="-420.25" font-family="Times New Roman,serif" font-size="14.00">Index1 &lt;= d2 &#45; 1+ 1</text>
<text text-anchor="middle" x="93.5" y="-446.5" font-family="Times New Roman,serif" font-size="14.00">[80]</text>
</g>
<!-- 83 -->
<g id="node8" class="node">
<title>83</title>
<polygon fill="yellow" stroke="black" points="232.5,-354.8 93.5,-354.8 93.5,-318.8 232.5,-318.8 232.5,-354.8"/>
<text text-anchor="middle" x="163" y="-331.75" font-family="Times New Roman,serif" font-size="14.00">it2 = Sequence{1..d2}</text>
<text text-anchor="middle" x="82.25" y="-358" font-family="Times New Roman,serif" font-size="14.00">[83]</text>
</g>
<!-- 80&#45;&gt;83 -->
<g id="edge2" class="edge">
<title>80&#45;&gt;83</title>
<path fill="none" stroke="black" d="M167.81,-407.21C167.01,-395.56 165.92,-379.85 164.98,-366.32"/>
<polygon fill="black" stroke="black" points="168.49,-366.39 164.31,-356.66 161.51,-366.88 168.49,-366.39"/>
<text text-anchor="middle" x="203.66" y="-376" font-family="Times New Roman,serif" font-size="14.00">graphAnd#80</text>
</g>
<!-- 16 -->
<g id="node7" class="node">
<title>16</title>
<polygon fill="yellow" stroke="black" points="855.88,-993.8 548.12,-993.8 548.12,-957.8 855.88,-957.8 855.88,-993.8"/>
<text text-anchor="middle" x="702" y="-970.75" font-family="Times New Roman,serif" font-size="14.00">self.data.getDimension() &lt;&gt; arg.data.getDimension()</text>
<text text-anchor="middle" x="536.88" y="-997" font-family="Times New Roman,serif" font-size="14.00">[16]</text>
</g>
<!-- 22 -->
<g id="node12" class="node">
<title>22</title>
<polygon fill="aquamarine" stroke="black" points="1020,-894.5 1012.8,-887.3 1020,-880.1 1027.2,-887.3 1020,-894.5"/>
<text text-anchor="middle" x="997.8" y="-897.7" font-family="Times New Roman,serif" font-size="14.00">&lt;22&gt;</text>
</g>
<!-- 16&#45;&gt;22 -->
<g id="edge8" class="edge">
<title>16&#45;&gt;22</title>
<path fill="none" stroke="black" d="M765.97,-957.4C841.09,-936.97 960.9,-904.38 1003.95,-892.67"/>
<polygon fill="black" stroke="black" points="1004.7,-896.09 1013.43,-890.09 1002.86,-889.33 1004.7,-896.09"/>
<text text-anchor="middle" x="920.23" y="-926.5" font-family="Times New Roman,serif" font-size="14.00">merge1#20</text>
</g>
<!-- 86 -->
<g id="node11" class="node">
<title>86</title>
<polygon fill="yellow" stroke="black" points="340.12,-266.3 27.88,-266.3 27.88,-230.3 340.12,-230.3 340.12,-266.3"/>
<text text-anchor="middle" x="184" y="-243.25" font-family="Times New Roman,serif" font-size="14.00">result.data[it][it2] = self.data[it][it2] + arg.data[it][it2]</text>
<text text-anchor="middle" x="16.62" y="-269.5" font-family="Times New Roman,serif" font-size="14.00">[86]</text>
</g>
<!-- 83&#45;&gt;86 -->
<g id="edge3" class="edge">
<title>83&#45;&gt;86</title>
<path fill="none" stroke="black" d="M167.15,-318.71C169.98,-307.06 173.79,-291.35 177.08,-277.82"/>
<polygon fill="black" stroke="black" points="180.47,-278.66 179.43,-268.12 173.67,-277.01 180.47,-278.66"/>
<text text-anchor="middle" x="212.51" y="-287.5" font-family="Times New Roman,serif" font-size="14.00">graphAnd#81</text>
</g>
<!-- 19 -->
<g id="node9" class="node">
<title>19</title>
<polygon fill="yellow" stroke="black" points="1252.12,-993.8 873.88,-993.8 873.88,-957.8 1252.12,-957.8 1252.12,-993.8"/>
<text text-anchor="middle" x="1063" y="-970.75" font-family="Times New Roman,serif" font-size="14.00">self.data.getDimensionSizes(1) &lt;&gt; arg.data.getDimensionSizes(1)</text>
<text text-anchor="middle" x="862.62" y="-997" font-family="Times New Roman,serif" font-size="14.00">[19]</text>
</g>
<!-- 19&#45;&gt;22 -->
<g id="edge10" class="edge">
<title>19&#45;&gt;22</title>
<path fill="none" stroke="black" d="M1054.5,-957.71C1046.55,-941.7 1034.78,-918.04 1027.26,-902.9"/>
<polygon fill="black" stroke="black" points="1030.54,-901.64 1022.95,-894.24 1024.27,-904.76 1030.54,-901.64"/>
<text text-anchor="middle" x="1076.1" y="-926.5" font-family="Times New Roman,serif" font-size="14.00">merge2#21</text>
</g>
<!-- 21 -->
<g id="node10" class="node">
<title>21</title>
<polygon fill="aquamarine" stroke="black" points="836,-1091 828.8,-1083.8 836,-1076.6 843.2,-1083.8 836,-1091"/>
<text text-anchor="middle" x="813.8" y="-1094.2" font-family="Times New Roman,serif" font-size="14.00">&lt;21&gt;</text>
</g>
<!-- 21&#45;&gt;16 -->
<g id="edge5" class="edge">
<title>21&#45;&gt;16</title>
<path fill="none" stroke="black" d="M832.42,-1079.96C818.43,-1068.9 766.64,-1027.94 732.69,-1001.07"/>
<polygon fill="black" stroke="black" points="735.25,-998.64 725.24,-995.18 730.91,-1004.13 735.25,-998.64"/>
<text text-anchor="middle" x="813.96" y="-1024.75" font-family="Times New Roman,serif" font-size="14.00">split1#18</text>
</g>
<!-- 21&#45;&gt;19 -->
<g id="edge6" class="edge">
<title>21&#45;&gt;19</title>
<path fill="none" stroke="black" d="M840.33,-1080.78C861.67,-1070.81 956.92,-1026.34 1015.71,-998.88"/>
<polygon fill="black" stroke="black" points="1016.94,-1002.17 1024.52,-994.77 1013.97,-995.83 1016.94,-1002.17"/>
<text text-anchor="middle" x="1008.22" y="-1024.75" font-family="Times New Roman,serif" font-size="14.00">split2#19</text>
</g>
<!-- 89 -->
<g id="node14" class="node">
<title>89</title>
<polygon fill="yellow" stroke="black" points="156.62,-177.8 27.38,-177.8 27.38,-141.8 156.62,-141.8 156.62,-177.8"/>
<text text-anchor="middle" x="92" y="-154.75" font-family="Times New Roman,serif" font-size="14.00">Index1 = Index1 + 1</text>
<text text-anchor="middle" x="16.12" y="-181" font-family="Times New Roman,serif" font-size="14.00">[89]</text>
</g>
<!-- 86&#45;&gt;89 -->
<g id="edge4" class="edge">
<title>86&#45;&gt;89</title>
<path fill="none" stroke="black" d="M165.82,-230.21C152.3,-217.5 133.65,-199.96 118.47,-185.69"/>
<polygon fill="black" stroke="black" points="121.24,-183.49 111.56,-179.19 116.44,-188.59 121.24,-183.49"/>
<text text-anchor="middle" x="183.37" y="-199" font-family="Times New Roman,serif" font-size="14.00">graphAnd#82</text>
</g>
<!-- 27 -->
<g id="node17" class="node">
<title>27</title>
<polygon fill="aquamarine" stroke="black" points="1020,-806 1012.8,-798.8 1020,-791.6 1027.2,-798.8 1020,-806"/>
<text text-anchor="middle" x="997.8" y="-809.2" font-family="Times New Roman,serif" font-size="14.00">&lt;27&gt;</text>
</g>
<!-- 22&#45;&gt;27 -->
<g id="edge17" class="edge">
<title>22&#45;&gt;27</title>
<path fill="none" stroke="black" d="M1020,-879.51C1020,-866.31 1020,-836.79 1020,-817.61"/>
<polygon fill="black" stroke="black" points="1023.5,-817.83 1020,-807.83 1016.5,-817.83 1023.5,-817.83"/>
<text text-anchor="middle" x="1050.75" y="-838" font-family="Times New Roman,serif" font-size="14.00">merge1#28</text>
</g>
<!-- 24 -->
<g id="node13" class="node">
<title>24</title>
<polygon fill="yellow" stroke="black" points="1436.12,-1047.8 1057.88,-1047.8 1057.88,-1011.8 1436.12,-1011.8 1436.12,-1047.8"/>
<text text-anchor="middle" x="1247" y="-1024.75" font-family="Times New Roman,serif" font-size="14.00">self.data.getDimensionSizes(2) &lt;&gt; arg.data.getDimensionSizes(2)</text>
<text text-anchor="middle" x="1046.62" y="-1051" font-family="Times New Roman,serif" font-size="14.00">[24]</text>
</g>
<!-- 24&#45;&gt;27 -->
<g id="edge19" class="edge">
<title>24&#45;&gt;27</title>
<path fill="none" stroke="black" d="M1256.41,-1011.56C1263.22,-996.6 1269.8,-974.75 1261,-957.8 1212.72,-864.86 1082.25,-818.27 1036.29,-804.37"/>
<polygon fill="black" stroke="black" points="1037.34,-801.03 1026.77,-801.62 1035.4,-807.76 1037.34,-801.03"/>
<text text-anchor="middle" x="1279.06" y="-926.5" font-family="Times New Roman,serif" font-size="14.00">merge2#29</text>
</g>
<!-- 89&#45;&gt;91 -->
<g id="edge9" class="edge">
<title>89&#45;&gt;91</title>
<path fill="none" stroke="black" d="M54.05,-178.16C28.71,-192.63 0,-215.95 0,-247.3 0,-426.3 0,-426.3 0,-426.3 0,-470.08 152.28,-500.78 204.03,-509.95"/>
<polygon fill="black" stroke="black" points="203.15,-513.35 213.6,-511.59 204.33,-506.45 203.15,-513.35"/>
<text text-anchor="middle" x="27" y="-331.75" font-family="Times New Roman,serif" font-size="14.00">iterate#85</text>
</g>
<!-- 26 -->
<g id="node15" class="node">
<title>26</title>
<polygon fill="aquamarine" stroke="black" points="836,-1179.5 828.8,-1172.3 836,-1165.1 843.2,-1172.3 836,-1179.5"/>
<text text-anchor="middle" x="843.8" y="-1182.7" font-family="Times New Roman,serif" font-size="14.00">&lt;26&gt;</text>
</g>
<!-- 26&#45;&gt;21 -->
<g id="edge13" class="edge">
<title>26&#45;&gt;21</title>
<path fill="none" stroke="black" d="M836,-1164.51C836,-1151.31 836,-1121.79 836,-1102.61"/>
<polygon fill="black" stroke="black" points="839.5,-1102.83 836,-1092.83 832.5,-1102.83 839.5,-1102.83"/>
<text text-anchor="middle" x="861.12" y="-1123" font-family="Times New Roman,serif" font-size="14.00">split1#26</text>
</g>
<!-- 26&#45;&gt;24 -->
<g id="edge15" class="edge">
<title>26&#45;&gt;24</title>
<path fill="none" stroke="black" d="M840.9,-1169.62C875.15,-1157.92 1080.3,-1087.79 1185.24,-1051.91"/>
<polygon fill="black" stroke="black" points="1186.24,-1055.27 1194.57,-1048.72 1183.97,-1048.65 1186.24,-1055.27"/>
<text text-anchor="middle" x="1005.8" y="-1123" font-family="Times New Roman,serif" font-size="14.00">split2#27</text>
</g>
<!-- 91&#45;&gt;77 -->
<g id="edge11" class="edge">
<title>91&#45;&gt;77</title>
<path fill="none" stroke="black" d="M224.46,-509.51C234.37,-500.09 263.62,-472.29 285.6,-451.4"/>
<polygon fill="black" stroke="black" points="287.97,-453.97 292.81,-444.55 283.15,-448.9 287.97,-453.97"/>
<text text-anchor="middle" x="311.78" y="-464.5" font-family="Times New Roman,serif" font-size="14.00">graphAnd#87</text>
</g>
<!-- 91&#45;&gt;80 -->
<g id="edge7" class="edge">
<title>91&#45;&gt;80</title>
<path fill="none" stroke="black" d="M218.38,-508.73C214.21,-502.24 205.84,-489.1 199,-477.8 194.23,-469.92 189.15,-461.3 184.56,-453.4"/>
<polygon fill="black" stroke="black" points="187.65,-451.76 179.61,-444.86 181.6,-455.27 187.65,-451.76"/>
<text text-anchor="middle" x="226" y="-464.5" font-family="Times New Roman,serif" font-size="14.00">iterate#84</text>
</g>
<!-- 29 -->
<g id="node19" class="node">
<title>29</title>
<polygon fill="yellow" stroke="black" points="970.25,-674.3 781.75,-674.3 781.75,-638.3 970.25,-638.3 970.25,-674.3"/>
<text text-anchor="middle" x="876" y="-651.25" font-family="Times New Roman,serif" font-size="14.00">Result = &#39;IllegalDimensionSize&#39;</text>
<text text-anchor="middle" x="770.5" y="-677.5" font-family="Times New Roman,serif" font-size="14.00">[29]</text>
</g>
<!-- 27&#45;&gt;29 -->
<g id="edge27" class="edge">
<title>27&#45;&gt;29</title>
<path fill="none" stroke="black" d="M1016.72,-794.6C1001.68,-779.93 938.48,-718.26 902.1,-682.77"/>
<polygon fill="black" stroke="black" points="904.59,-680.31 894.99,-675.83 899.7,-685.32 904.59,-680.31"/>
<text text-anchor="middle" x="1024.08" y="-749.5" font-family="Times New Roman,serif" font-size="14.00">graphAnd#102</text>
</g>
<!-- 95 -->
<g id="node21" class="node">
<title>95</title>
<polygon fill="aquamarine" stroke="black" points="452,-255.5 444.8,-248.3 452,-241.1 459.2,-248.3 452,-255.5"/>
<text text-anchor="middle" x="429.8" y="-258.7" font-family="Times New Roman,serif" font-size="14.00">&lt;95&gt;</text>
</g>
<!-- 93&#45;&gt;95 -->
<g id="edge21" class="edge">
<title>93&#45;&gt;95</title>
<path fill="none" stroke="black" d="M319.41,-318.77C323.15,-307.52 329.61,-293.25 340,-284.3 367.23,-260.86 410.1,-253.1 434.13,-250.55"/>
<polygon fill="black" stroke="black" points="434.41,-254.04 444.08,-249.71 433.82,-247.06 434.41,-254.04"/>
<text text-anchor="middle" x="367" y="-287.5" font-family="Times New Roman,serif" font-size="14.00">iterate#96</text>
</g>
<!-- 103 -->
<g id="node29" class="node">
<title>103</title>
<polygon fill="aquamarine" stroke="black" points="793,-89.3 785.8,-82.1 793,-74.9 800.2,-82.1 793,-89.3"/>
<text text-anchor="middle" x="767.42" y="-92.5" font-family="Times New Roman,serif" font-size="14.00">&lt;103&gt;</text>
</g>
<!-- 29&#45;&gt;103 -->
<g id="edge37" class="edge">
<title>29&#45;&gt;103</title>
<path fill="none" stroke="black" d="M864.3,-638.06C852.81,-619.42 837,-588.44 837,-559.05 837,-559.05 837,-559.05 837,-158.8 837,-132.87 817.46,-107.88 804.42,-94.1"/>
<polygon fill="black" stroke="black" points="807.09,-91.81 797.53,-87.25 802.16,-96.78 807.09,-91.81"/>
<text text-anchor="middle" x="871.12" y="-376" font-family="Times New Roman,serif" font-size="14.00">merge2#113</text>
</g>
<!-- 30 -->
<g id="node20" class="node">
<title>30</title>
<ellipse fill="black" stroke="black" cx="793" cy="-11.2" rx="7.2" ry="7.2"/>
<ellipse fill="none" stroke="black" cx="793" cy="-11.2" rx="11.2" ry="11.2"/>
<text text-anchor="middle" x="771.67" y="-25.6" font-family="Times New Roman,serif" font-size="14.00">[&#45;1]</text>
</g>
<!-- 95&#45;&gt;65 -->
<g id="edge20" class="edge">
<title>95&#45;&gt;65</title>
<path fill="none" stroke="black" d="M448.84,-252.61C438.75,-263.52 408,-299.74 408,-335.8 408,-799.8 408,-799.8 408,-799.8 408,-823.52 407.9,-832.08 394,-851.3 391.2,-855.17 387.83,-858.73 384.17,-861.98"/>
<polygon fill="black" stroke="black" points="382.12,-859.14 376.39,-868.05 386.43,-864.65 382.12,-859.14"/>
<text text-anchor="middle" x="435" y="-553" font-family="Times New Roman,serif" font-size="14.00">iterate#95</text>
</g>
<!-- 62 -->
<g id="node37" class="node">
<title>62</title>
<polygon fill="yellow" stroke="black" points="652.12,-177.8 531.88,-177.8 531.88,-141.8 652.12,-141.8 652.12,-177.8"/>
<text text-anchor="middle" x="592" y="-154.75" font-family="Times New Roman,serif" font-size="14.00">Index0 &gt; d1 &#45; 1+ 1</text>
<text text-anchor="middle" x="520.62" y="-181" font-family="Times New Roman,serif" font-size="14.00">[62]</text>
</g>
<!-- 95&#45;&gt;62 -->
<g id="edge22" class="edge">
<title>95&#45;&gt;62</title>
<path fill="none" stroke="black" d="M456.04,-244.8C470.3,-235.99 519.32,-205.71 554.4,-184.03"/>
<polygon fill="black" stroke="black" points="555.93,-187.2 562.6,-178.96 552.26,-181.24 555.93,-187.2"/>
<text text-anchor="middle" x="571.66" y="-199" font-family="Times New Roman,serif" font-size="14.00">graphAnd#98</text>
</g>
<!-- 96 -->
<g id="node22" class="node">
<title>96</title>
<ellipse fill="black" stroke="black" cx="737" cy="-1478.4" rx="7.2" ry="7.2"/>
<text text-anchor="middle" x="721.92" y="-1488.8" font-family="Times New Roman,serif" font-size="14.00">[0]</text>
</g>
<!-- 97 -->
<g id="node24" class="node">
<title>97</title>
<polygon fill="yellow" stroke="black" points="841.38,-1434.2 632.62,-1434.2 632.62,-1398.2 841.38,-1398.2 841.38,-1434.2"/>
<text text-anchor="middle" x="737" y="-1411.15" font-family="Times New Roman,serif" font-size="14.00">self.data.getDimensionSizes(1) &gt; 0</text>
<text text-anchor="middle" x="621.38" y="-1437.4" font-family="Times New Roman,serif" font-size="14.00">[97]</text>
</g>
<!-- 96&#45;&gt;97 -->
<g id="edge29" class="edge">
<title>96&#45;&gt;97</title>
<path fill="none" stroke="black" d="M737,-1470.96C737,-1464.9 737,-1455.39 737,-1446.04"/>
<polygon fill="black" stroke="black" points="740.5,-1446.08 737,-1436.08 733.5,-1446.08 740.5,-1446.08"/>
</g>
<!-- 32 -->
<g id="node23" class="node">
<title>32</title>
<polygon fill="yellow" stroke="black" points="799.75,-1190.3 500.25,-1190.3 500.25,-1154.3 799.75,-1154.3 799.75,-1190.3"/>
<text text-anchor="middle" x="650" y="-1167.25" font-family="Times New Roman,serif" font-size="14.00">self.data.getDimension() = arg.data.getDimension()</text>
<text text-anchor="middle" x="489" y="-1193.5" font-family="Times New Roman,serif" font-size="14.00">[32]</text>
</g>
<!-- 35 -->
<g id="node25" class="node">
<title>35</title>
<polygon fill="yellow" stroke="black" points="598,-1101.8 228,-1101.8 228,-1065.8 598,-1065.8 598,-1101.8"/>
<text text-anchor="middle" x="413" y="-1078.75" font-family="Times New Roman,serif" font-size="14.00">self.data.getDimensionSizes(1) = arg.data.getDimensionSizes(1)</text>
<text text-anchor="middle" x="216.75" y="-1105" font-family="Times New Roman,serif" font-size="14.00">[35]</text>
</g>
<!-- 32&#45;&gt;35 -->
<g id="edge26" class="edge">
<title>32&#45;&gt;35</title>
<path fill="none" stroke="black" d="M602.32,-1153.9C564.56,-1140.12 511.64,-1120.8 471.34,-1106.09"/>
<polygon fill="black" stroke="black" points="472.61,-1102.83 462.02,-1102.69 470.21,-1109.41 472.61,-1102.83"/>
<text text-anchor="middle" x="589.85" y="-1123" font-family="Times New Roman,serif" font-size="14.00">graphAnd#37</text>
</g>
<!-- 100 -->
<g id="node26" class="node">
<title>100</title>
<polygon fill="yellow" stroke="black" points="841.38,-1345.7 632.62,-1345.7 632.62,-1309.7 841.38,-1309.7 841.38,-1345.7"/>
<text text-anchor="middle" x="737" y="-1322.65" font-family="Times New Roman,serif" font-size="14.00">self.data.getDimensionSizes(2) &gt; 0</text>
<text text-anchor="middle" x="618" y="-1348.9" font-family="Times New Roman,serif" font-size="14.00">[100]</text>
</g>
<!-- 97&#45;&gt;100 -->
<g id="edge31" class="edge">
<title>97&#45;&gt;100</title>
<path fill="none" stroke="black" d="M737,-1398.11C737,-1386.46 737,-1370.75 737,-1357.22"/>
<polygon fill="black" stroke="black" points="740.5,-1357.56 737,-1347.56 733.5,-1357.56 740.5,-1357.56"/>
<text text-anchor="middle" x="777.5" y="-1366.9" font-family="Times New Roman,serif" font-size="14.00">graphAnd#108</text>
</g>
<!-- 38 -->
<g id="node27" class="node">
<title>38</title>
<polygon fill="yellow" stroke="black" points="530,-993.8 160,-993.8 160,-957.8 530,-957.8 530,-993.8"/>
<text text-anchor="middle" x="345" y="-970.75" font-family="Times New Roman,serif" font-size="14.00">self.data.getDimensionSizes(2) = arg.data.getDimensionSizes(2)</text>
<text text-anchor="middle" x="148.75" y="-997" font-family="Times New Roman,serif" font-size="14.00">[38]</text>
</g>
<!-- 35&#45;&gt;38 -->
<g id="edge30" class="edge">
<title>35&#45;&gt;38</title>
<path fill="none" stroke="black" d="M402.07,-1065.77C391.33,-1049.02 374.77,-1023.21 362.25,-1003.69"/>
<polygon fill="black" stroke="black" points="365.29,-1001.94 356.94,-995.41 359.4,-1005.72 365.29,-1001.94"/>
<text text-anchor="middle" x="426.19" y="-1024.75" font-family="Times New Roman,serif" font-size="14.00">graphAnd#40</text>
</g>
<!-- 102 -->
<g id="node28" class="node">
<title>102</title>
<polygon fill="aquamarine" stroke="black" points="737,-1257.2 729.8,-1250 737,-1242.8 744.2,-1250 737,-1257.2"/>
<text text-anchor="middle" x="711.42" y="-1260.4" font-family="Times New Roman,serif" font-size="14.00">&lt;102&gt;</text>
</g>
<!-- 100&#45;&gt;102 -->
<g id="edge39" class="edge">
<title>100&#45;&gt;102</title>
<path fill="none" stroke="black" d="M737,-1309.52C737,-1297.48 737,-1281.4 737,-1269.15"/>
<polygon fill="black" stroke="black" points="740.5,-1269.24 737,-1259.24 733.5,-1269.24 740.5,-1269.24"/>
<text text-anchor="middle" x="777.5" y="-1278.4" font-family="Times New Roman,serif" font-size="14.00">graphAnd#115</text>
</g>
<!-- 41 -->
<g id="node30" class="node">
<title>41</title>
<polygon fill="yellow" stroke="black" points="748.12,-905.3 435.88,-905.3 435.88,-869.3 748.12,-869.3 748.12,-905.3"/>
<text text-anchor="middle" x="592" y="-882.25" font-family="Times New Roman,serif" font-size="14.00">self.data.getDimension() = result.data.getDimension()</text>
<text text-anchor="middle" x="424.62" y="-908.5" font-family="Times New Roman,serif" font-size="14.00">[41]</text>
</g>
<!-- 38&#45;&gt;41 -->
<g id="edge28" class="edge">
<title>38&#45;&gt;41</title>
<path fill="none" stroke="black" d="M394.69,-957.4C434.21,-943.56 489.67,-924.14 531.73,-909.41"/>
<polygon fill="black" stroke="black" points="532.68,-912.78 540.96,-906.17 530.37,-906.17 532.68,-912.78"/>
<text text-anchor="middle" x="531.12" y="-926.5" font-family="Times New Roman,serif" font-size="14.00">graphAnd#103</text>
</g>
<!-- 102&#45;&gt;26 -->
<g id="edge34" class="edge">
<title>102&#45;&gt;26</title>
<path fill="none" stroke="black" d="M740.89,-1246.21C747.09,-1241.74 759.57,-1232.69 770,-1224.8 788.65,-1210.69 809.94,-1193.97 823.17,-1183.49"/>
<polygon fill="black" stroke="black" points="825.32,-1186.26 830.98,-1177.3 820.97,-1180.77 825.32,-1186.26"/>
<text text-anchor="middle" x="818.59" y="-1211.5" font-family="Times New Roman,serif" font-size="14.00">split2#111</text>
</g>
<!-- 102&#45;&gt;32 -->
<g id="edge33" class="edge">
<title>102&#45;&gt;32</title>
<path fill="none" stroke="black" d="M733.7,-1246.12C724.68,-1238.28 698.95,-1215.89 678.38,-1197.99"/>
<polygon fill="black" stroke="black" points="680.92,-1195.57 671.08,-1191.64 676.33,-1200.85 680.92,-1195.57"/>
<text text-anchor="middle" x="737.36" y="-1211.5" font-family="Times New Roman,serif" font-size="14.00">split1#110</text>
</g>
<!-- 103&#45;&gt;30 -->
<g id="edge38" class="edge">
<title>103&#45;&gt;30</title>
<path fill="none" stroke="black" d="M793,-74.24C793,-64.87 793,-47.63 793,-33.7"/>
<polygon fill="black" stroke="black" points="796.5,-34.11 793,-24.11 789.5,-34.11 796.5,-34.11"/>
<text text-anchor="middle" x="842.12" y="-43.6" font-family="Times New Roman,serif" font-size="14.00">graphOr_end#114</text>
</g>
<!-- 44 -->
<g id="node31" class="node">
<title>44</title>
<polygon fill="yellow" stroke="black" points="818.38,-816.8 435.62,-816.8 435.62,-780.8 818.38,-780.8 818.38,-816.8"/>
<text text-anchor="middle" x="627" y="-793.75" font-family="Times New Roman,serif" font-size="14.00">self.data.getDimensionSizes(1) = result.data.getDimensionSizes(1)</text>
<text text-anchor="middle" x="424.38" y="-820" font-family="Times New Roman,serif" font-size="14.00">[44]</text>
</g>
<!-- 41&#45;&gt;44 -->
<g id="edge32" class="edge">
<title>41&#45;&gt;44</title>
<path fill="none" stroke="black" d="M598.91,-869.21C603.73,-857.32 610.24,-841.21 615.79,-827.5"/>
<polygon fill="black" stroke="black" points="618.91,-829.14 619.41,-818.55 612.42,-826.51 618.91,-829.14"/>
<text text-anchor="middle" x="649.76" y="-838" font-family="Times New Roman,serif" font-size="14.00">graphAnd#45</text>
</g>
<!-- 47 -->
<g id="node32" class="node">
<title>47</title>
<polygon fill="yellow" stroke="black" points="818.38,-728.3 435.62,-728.3 435.62,-692.3 818.38,-692.3 818.38,-728.3"/>
<text text-anchor="middle" x="627" y="-705.25" font-family="Times New Roman,serif" font-size="14.00">self.data.getDimensionSizes(2) = result.data.getDimensionSizes(2)</text>
<text text-anchor="middle" x="424.38" y="-731.5" font-family="Times New Roman,serif" font-size="14.00">[47]</text>
</g>
<!-- 44&#45;&gt;47 -->
<g id="edge35" class="edge">
<title>44&#45;&gt;47</title>
<path fill="none" stroke="black" d="M627,-780.71C627,-769.06 627,-753.35 627,-739.82"/>
<polygon fill="black" stroke="black" points="630.5,-740.16 627,-730.16 623.5,-740.16 630.5,-740.16"/>
<text text-anchor="middle" x="664.12" y="-749.5" font-family="Times New Roman,serif" font-size="14.00">graphAnd#48</text>
</g>
<!-- 50 -->
<g id="node33" class="node">
<title>50</title>
<polygon fill="yellow" stroke="black" points="691.62,-620.3 478.38,-620.3 478.38,-584.3 691.62,-584.3 691.62,-620.3"/>
<text text-anchor="middle" x="585" y="-597.25" font-family="Times New Roman,serif" font-size="14.00">d1 = arg.data.getDimensionSizes(1)</text>
<text text-anchor="middle" x="467.12" y="-623.5" font-family="Times New Roman,serif" font-size="14.00">[50]</text>
</g>
<!-- 47&#45;&gt;50 -->
<g id="edge25" class="edge">
<title>47&#45;&gt;50</title>
<path fill="none" stroke="black" d="M620.25,-692.27C613.74,-675.83 603.76,-650.65 596.08,-631.27"/>
<polygon fill="black" stroke="black" points="599.37,-630.06 592.43,-622.05 592.86,-632.63 599.37,-630.06"/>
<text text-anchor="middle" x="652.72" y="-651.25" font-family="Times New Roman,serif" font-size="14.00">graphAnd#101</text>
</g>
<!-- 53 -->
<g id="node34" class="node">
<title>53</title>
<polygon fill="yellow" stroke="black" points="659.62,-531.8 446.38,-531.8 446.38,-495.8 659.62,-495.8 659.62,-531.8"/>
<text text-anchor="middle" x="553" y="-508.75" font-family="Times New Roman,serif" font-size="14.00">d2 = arg.data.getDimensionSizes(2)</text>
<text text-anchor="middle" x="435.12" y="-535" font-family="Times New Roman,serif" font-size="14.00">[53]</text>
</g>
<!-- 50&#45;&gt;53 -->
<g id="edge40" class="edge">
<title>50&#45;&gt;53</title>
<path fill="none" stroke="black" d="M578.68,-584.21C574.32,-572.44 568.44,-556.53 563.4,-542.91"/>
<polygon fill="black" stroke="black" points="566.7,-541.73 559.94,-533.57 560.13,-544.16 566.7,-541.73"/>
<text text-anchor="middle" x="608.99" y="-553" font-family="Times New Roman,serif" font-size="14.00">graphAnd#53</text>
</g>
<!-- 59 -->
<g id="node36" class="node">
<title>59</title>
<polygon fill="yellow" stroke="black" points="558.38,-443.3 487.62,-443.3 487.62,-407.3 558.38,-407.3 558.38,-443.3"/>
<text text-anchor="middle" x="523" y="-420.25" font-family="Times New Roman,serif" font-size="14.00">acc = true</text>
<text text-anchor="middle" x="476.38" y="-446.5" font-family="Times New Roman,serif" font-size="14.00">[59]</text>
</g>
<!-- 53&#45;&gt;59 -->
<g id="edge24" class="edge">
<title>53&#45;&gt;59</title>
<path fill="none" stroke="black" d="M547.07,-495.71C542.99,-483.94 537.47,-468.03 532.75,-454.41"/>
<polygon fill="black" stroke="black" points="536.1,-453.38 529.51,-445.08 529.48,-455.67 536.1,-453.38"/>
<text text-anchor="middle" x="581.19" y="-464.5" font-family="Times New Roman,serif" font-size="14.00">graphAnd#100</text>
</g>
<!-- 56 -->
<g id="node35" class="node">
<title>56</title>
<polygon fill="yellow" stroke="black" points="551,-354.8 475,-354.8 475,-318.8 551,-318.8 551,-354.8"/>
<text text-anchor="middle" x="513" y="-331.75" font-family="Times New Roman,serif" font-size="14.00">Index0 = 1</text>
<text text-anchor="middle" x="463.75" y="-358" font-family="Times New Roman,serif" font-size="14.00">[56]</text>
</g>
<!-- 56&#45;&gt;95 -->
<g id="edge23" class="edge">
<title>56&#45;&gt;95</title>
<path fill="none" stroke="black" d="M500.95,-318.71C489.33,-302.23 471.98,-277.64 461.36,-262.58"/>
<polygon fill="black" stroke="black" points="464.26,-260.61 455.63,-254.45 458.54,-264.64 464.26,-260.61"/>
<text text-anchor="middle" x="525.09" y="-287.5" font-family="Times New Roman,serif" font-size="14.00">graphAnd#99</text>
</g>
<!-- 59&#45;&gt;56 -->
<g id="edge41" class="edge">
<title>59&#45;&gt;56</title>
<path fill="none" stroke="black" d="M521.02,-407.21C519.68,-395.56 517.86,-379.85 516.3,-366.32"/>
<polygon fill="black" stroke="black" points="519.8,-366.19 515.18,-356.65 512.85,-366.99 519.8,-366.19"/>
<text text-anchor="middle" x="556.02" y="-376" font-family="Times New Roman,serif" font-size="14.00">graphAnd#58</text>
</g>
<!-- 62&#45;&gt;103 -->
<g id="edge36" class="edge">
<title>62&#45;&gt;103</title>
<path fill="none" stroke="black" d="M638.37,-141.34C683,-124.53 747.95,-100.07 777.42,-88.97"/>
<polygon fill="black" stroke="black" points="778.45,-92.32 786.58,-85.52 775.98,-85.77 778.45,-92.32"/>
<text text-anchor="middle" x="762.11" y="-110.5" font-family="Times New Roman,serif" font-size="14.00">merge1#112</text>
</g>
</g>
</svg>
