<?xml version="1.0" encoding="UTF-8" standalone="no"?>
<!DOCTYPE svg PUBLIC "-//W3C//DTD SVG 1.1//EN"
 "http://www.w3.org/Graphics/SVG/1.1/DTD/svg11.dtd">
<!-- Generated by graphviz version 12.2.1 (20241206.2353)
 -->
<!-- Title: CLG Pages: 1 -->
<svg width="150pt" height="169pt"
 viewBox="0.00 0.00 150.00 169.30" xmlns="http://www.w3.org/2000/svg" xmlns:xlink="http://www.w3.org/1999/xlink">
<g id="graph0" class="graph" transform="scale(1 1) rotate(0) translate(4 165.3)">
<title>CLG</title>
<polygon fill="white" stroke="none" points="-4,4 -4,-165.3 146,-165.3 146,4 -4,4"/>
<!-- 103 -->
<g id="node1" class="node">
<title>103</title>
<ellipse fill="black" stroke="black" cx="85.62" cy="-137.6" rx="7.2" ry="7.2"/>
<text text-anchor="middle" x="70.55" y="-148" font-family="Times New Roman,serif" font-size="14.00">[0]</text>
</g>
<!-- 104 -->
<g id="node2" class="node">
<title>104</title>
<polygon fill="yellow" stroke="black" points="142,-94.4 29.25,-94.4 29.25,-58.4 142,-58.4 142,-94.4"/>
<text text-anchor="middle" x="85.62" y="-71.35" font-family="Times New Roman,serif" font-size="14.00">result = self.datas</text>
<text text-anchor="middle" x="14.62" y="-97.6" font-family="Times New Roman,serif" font-size="14.00">[104]</text>
</g>
<!-- 103&#45;&gt;104 -->
<g id="edge1" class="edge">
<title>103&#45;&gt;104</title>
<path fill="none" stroke="black" d="M85.62,-130.26C85.62,-124.35 85.62,-115.09 85.62,-105.96"/>
<polygon fill="black" stroke="black" points="89.13,-106.24 85.63,-96.24 82.13,-106.24 89.13,-106.24"/>
</g>
<!-- 105 -->
<g id="node3" class="node">
<title>105</title>
<ellipse fill="black" stroke="black" cx="85.62" cy="-11.2" rx="7.2" ry="7.2"/>
<ellipse fill="none" stroke="black" cx="85.62" cy="-11.2" rx="11.2" ry="11.2"/>
<text text-anchor="middle" x="64.3" y="-25.6" font-family="Times New Roman,serif" font-size="14.00">[&#45;1]</text>
</g>
<!-- 104&#45;&gt;105 -->
<g id="edge2" class="edge">
<title>104&#45;&gt;105</title>
<path fill="none" stroke="black" d="M85.62,-58.13C85.62,-50.65 85.62,-41.8 85.62,-33.88"/>
<polygon fill="black" stroke="black" points="89.13,-34.04 85.63,-24.04 82.13,-34.04 89.13,-34.04"/>
</g>
</g>
</svg>
