<?xml version="1.0" encoding="UTF-8" standalone="no"?>
<!DOCTYPE svg PUBLIC "-//W3C//DTD SVG 1.1//EN"
 "http://www.w3.org/Graphics/SVG/1.1/DTD/svg11.dtd">
<!-- Generated by graphviz version 12.2.1 (20241206.2353)
 -->
<!-- Title: CLG Pages: 1 -->
<svg width="586pt" height="541pt"
 viewBox="0.00 0.00 586.38 540.80" xmlns="http://www.w3.org/2000/svg" xmlns:xlink="http://www.w3.org/1999/xlink">
<g id="graph0" class="graph" transform="scale(1 1) rotate(0) translate(4 536.8)">
<title>CLG</title>
<polygon fill="white" stroke="none" points="-4,4 -4,-536.8 582.38,-536.8 582.38,4 -4,4"/>
<!-- 16 -->
<g id="node1" class="node">
<title>16</title>
<polygon fill="yellow" stroke="black" points="341.38,-516.3 197.88,-516.3 197.88,-480.3 341.38,-480.3 341.38,-516.3"/>
<text text-anchor="middle" x="269.62" y="-493.25" font-family="Times New Roman,serif" font-size="14.00">Index0 &lt;= dim1 &#45; 1+ 1</text>
<text text-anchor="middle" x="186.62" y="-519.5" font-family="Times New Roman,serif" font-size="14.00">[16]</text>
</g>
<!-- 19 -->
<g id="node3" class="node">
<title>19</title>
<polygon fill="yellow" stroke="black" points="272.25,-427.8 125,-427.8 125,-391.8 272.25,-391.8 272.25,-427.8"/>
<text text-anchor="middle" x="198.62" y="-404.75" font-family="Times New Roman,serif" font-size="14.00">it = Sequence{1..dim1}</text>
<text text-anchor="middle" x="113.75" y="-431" font-family="Times New Roman,serif" font-size="14.00">[19]</text>
</g>
<!-- 16&#45;&gt;19 -->
<g id="edge2" class="edge">
<title>16&#45;&gt;19</title>
<path fill="none" stroke="black" d="M246.49,-480.06C240.2,-474.76 233.67,-468.65 228.38,-462.3 222.23,-454.94 216.64,-446.15 211.99,-437.93"/>
<polygon fill="black" stroke="black" points="215.18,-436.47 207.37,-429.31 209.01,-439.78 215.18,-436.47"/>
<text text-anchor="middle" x="265.5" y="-449" font-family="Times New Roman,serif" font-size="14.00">graphAnd#19</text>
</g>
<!-- 3 -->
<g id="node2" class="node">
<title>3</title>
<ellipse fill="black" stroke="black" cx="461.62" cy="-498.3" rx="7.2" ry="7.2"/>
<text text-anchor="middle" x="446.55" y="-508.7" font-family="Times New Roman,serif" font-size="14.00">[0]</text>
</g>
<!-- 4 -->
<g id="node4" class="node">
<title>4</title>
<polygon fill="yellow" stroke="black" points="578.38,-427.8 344.88,-427.8 344.88,-391.8 578.38,-391.8 578.38,-427.8"/>
<text text-anchor="middle" x="461.62" y="-404.75" font-family="Times New Roman,serif" font-size="14.00">dim1 = arg.datas.getDimensionSizes(1)</text>
<text text-anchor="middle" x="337" y="-431" font-family="Times New Roman,serif" font-size="14.00">[4]</text>
</g>
<!-- 3&#45;&gt;4 -->
<g id="edge1" class="edge">
<title>3&#45;&gt;4</title>
<path fill="none" stroke="black" d="M461.62,-490.8C461.62,-479.97 461.62,-457.62 461.62,-439.28"/>
<polygon fill="black" stroke="black" points="465.13,-439.49 461.63,-429.49 458.13,-439.49 465.13,-439.49"/>
</g>
<!-- 22 -->
<g id="node5" class="node">
<title>22</title>
<polygon fill="yellow" stroke="black" points="280.75,-339.3 22.5,-339.3 22.5,-303.3 280.75,-303.3 280.75,-339.3"/>
<text text-anchor="middle" x="151.62" y="-316.25" font-family="Times New Roman,serif" font-size="14.00">result.datas[it] = self.datas[it] + arg.datas[it]</text>
<text text-anchor="middle" x="11.25" y="-342.5" font-family="Times New Roman,serif" font-size="14.00">[22]</text>
</g>
<!-- 19&#45;&gt;22 -->
<g id="edge3" class="edge">
<title>19&#45;&gt;22</title>
<path fill="none" stroke="black" d="M189.34,-391.71C182.82,-379.7 173.95,-363.39 166.46,-349.6"/>
<polygon fill="black" stroke="black" points="169.62,-348.1 161.77,-340.98 163.47,-351.44 169.62,-348.1"/>
<text text-anchor="middle" x="216.46" y="-360.5" font-family="Times New Roman,serif" font-size="14.00">graphAnd#20</text>
</g>
<!-- 10 -->
<g id="node8" class="node">
<title>10</title>
<polygon fill="yellow" stroke="black" points="478,-339.3 407.25,-339.3 407.25,-303.3 478,-303.3 478,-339.3"/>
<text text-anchor="middle" x="442.62" y="-316.25" font-family="Times New Roman,serif" font-size="14.00">acc = true</text>
<text text-anchor="middle" x="396" y="-342.5" font-family="Times New Roman,serif" font-size="14.00">[10]</text>
</g>
<!-- 4&#45;&gt;10 -->
<g id="edge11" class="edge">
<title>4&#45;&gt;10</title>
<path fill="none" stroke="black" d="M457.87,-391.71C455.31,-380.06 451.86,-364.35 448.89,-350.82"/>
<polygon fill="black" stroke="black" points="452.32,-350.14 446.76,-341.13 445.49,-351.65 452.32,-350.14"/>
<text text-anchor="middle" x="490.95" y="-360.5" font-family="Times New Roman,serif" font-size="14.00">graphAnd#28</text>
</g>
<!-- 25 -->
<g id="node7" class="node">
<title>25</title>
<polygon fill="yellow" stroke="black" points="270.25,-250.8 141,-250.8 141,-214.8 270.25,-214.8 270.25,-250.8"/>
<text text-anchor="middle" x="205.62" y="-227.75" font-family="Times New Roman,serif" font-size="14.00">Index0 = Index0 + 1</text>
<text text-anchor="middle" x="129.75" y="-254" font-family="Times New Roman,serif" font-size="14.00">[25]</text>
</g>
<!-- 22&#45;&gt;25 -->
<g id="edge4" class="edge">
<title>22&#45;&gt;25</title>
<path fill="none" stroke="black" d="M162.29,-303.21C169.86,-291.09 180.17,-274.57 188.84,-260.69"/>
<polygon fill="black" stroke="black" points="191.67,-262.77 193.99,-252.43 185.73,-259.06 191.67,-262.77"/>
<text text-anchor="middle" x="220.59" y="-272" font-family="Times New Roman,serif" font-size="14.00">graphAnd#21</text>
</g>
<!-- 7 -->
<g id="node6" class="node">
<title>7</title>
<polygon fill="yellow" stroke="black" points="450.62,-250.8 374.62,-250.8 374.62,-214.8 450.62,-214.8 450.62,-250.8"/>
<text text-anchor="middle" x="412.62" y="-227.75" font-family="Times New Roman,serif" font-size="14.00">Index0 = 1</text>
<text text-anchor="middle" x="366.75" y="-254" font-family="Times New Roman,serif" font-size="14.00">[7]</text>
</g>
<!-- 27 -->
<g id="node9" class="node">
<title>27</title>
<polygon fill="aquamarine" stroke="black" points="316.62,-162.3 309.43,-155.1 316.62,-147.9 323.82,-155.1 316.62,-162.3"/>
<text text-anchor="middle" x="294.43" y="-165.5" font-family="Times New Roman,serif" font-size="14.00">&lt;27&gt;</text>
</g>
<!-- 7&#45;&gt;27 -->
<g id="edge10" class="edge">
<title>7&#45;&gt;27</title>
<path fill="none" stroke="black" d="M390.84,-214.62C371.78,-199.59 344.77,-178.29 329.14,-165.97"/>
<polygon fill="black" stroke="black" points="331.58,-163.43 321.56,-159.99 327.24,-168.93 331.58,-163.43"/>
<text text-anchor="middle" x="404.63" y="-183.5" font-family="Times New Roman,serif" font-size="14.00">graphAnd#27</text>
</g>
<!-- 25&#45;&gt;27 -->
<g id="edge7" class="edge">
<title>25&#45;&gt;27</title>
<path fill="none" stroke="black" d="M216.54,-214.43C224.3,-203.32 235.63,-189.36 248.62,-180.3 264.21,-169.44 285.18,-162.96 299.7,-159.47"/>
<polygon fill="black" stroke="black" points="300.35,-162.91 309.39,-157.4 298.88,-156.07 300.35,-162.91"/>
<text text-anchor="middle" x="275.62" y="-183.5" font-family="Times New Roman,serif" font-size="14.00">iterate#24</text>
</g>
<!-- 10&#45;&gt;7 -->
<g id="edge6" class="edge">
<title>10&#45;&gt;7</title>
<path fill="none" stroke="black" d="M436.7,-303.21C432.62,-291.44 427.1,-275.53 422.37,-261.91"/>
<polygon fill="black" stroke="black" points="425.72,-260.88 419.14,-252.58 419.11,-263.17 425.72,-260.88"/>
<text text-anchor="middle" x="464.06" y="-272" font-family="Times New Roman,serif" font-size="14.00">graphAnd#8</text>
</g>
<!-- 27&#45;&gt;16 -->
<g id="edge5" class="edge">
<title>27&#45;&gt;16</title>
<path fill="none" stroke="black" d="M316.62,-162.78C316.62,-175.98 316.62,-206.3 316.62,-231.8 316.62,-410.8 316.62,-410.8 316.62,-410.8 316.62,-434.52 314.22,-441.61 302.62,-462.3 300.83,-465.51 298.68,-468.64 296.34,-471.64"/>
<polygon fill="black" stroke="black" points="293.86,-469.16 289.96,-479 299.15,-473.74 293.86,-469.16"/>
<text text-anchor="middle" x="343.62" y="-316.25" font-family="Times New Roman,serif" font-size="14.00">iterate#23</text>
</g>
<!-- 13 -->
<g id="node10" class="node">
<title>13</title>
<polygon fill="yellow" stroke="black" points="384.25,-95.4 249,-95.4 249,-59.4 384.25,-59.4 384.25,-95.4"/>
<text text-anchor="middle" x="316.62" y="-72.35" font-family="Times New Roman,serif" font-size="14.00">Index0 &gt; dim1 &#45; 1+ 1</text>
<text text-anchor="middle" x="237.75" y="-98.6" font-family="Times New Roman,serif" font-size="14.00">[13]</text>
</g>
<!-- 27&#45;&gt;13 -->
<g id="edge8" class="edge">
<title>27&#45;&gt;13</title>
<path fill="none" stroke="black" d="M316.62,-147.38C316.62,-138.3 316.62,-121.55 316.62,-106.83"/>
<polygon fill="black" stroke="black" points="320.13,-107.16 316.63,-97.16 313.13,-107.16 320.13,-107.16"/>
<text text-anchor="middle" x="353.75" y="-116.6" font-family="Times New Roman,serif" font-size="14.00">graphAnd#26</text>
</g>
<!-- 14 -->
<g id="node11" class="node">
<title>14</title>
<ellipse fill="black" stroke="black" cx="316.62" cy="-11.2" rx="7.2" ry="7.2"/>
<ellipse fill="none" stroke="black" cx="316.62" cy="-11.2" rx="11.2" ry="11.2"/>
<text text-anchor="middle" x="295.3" y="-25.6" font-family="Times New Roman,serif" font-size="14.00">[&#45;1]</text>
</g>
<!-- 13&#45;&gt;14 -->
<g id="edge9" class="edge">
<title>13&#45;&gt;14</title>
<path fill="none" stroke="black" d="M316.62,-59.2C316.62,-51.5 316.62,-42.34 316.62,-34.15"/>
<polygon fill="black" stroke="black" points="320.13,-34.32 316.63,-24.32 313.13,-34.32 320.13,-34.32"/>
</g>
</g>
</svg>
