<?xml version="1.0" encoding="UTF-8" standalone="no"?>
<!DOCTYPE svg PUBLIC "-//W3C//DTD SVG 1.1//EN"
 "http://www.w3.org/Graphics/SVG/1.1/DTD/svg11.dtd">
<!-- Generated by graphviz version 12.2.1 (20241206.2353)
 -->
<!-- Title: CLG Pages: 1 -->
<svg width="404pt" height="710pt"
 viewBox="0.00 0.00 403.88 709.80" xmlns="http://www.w3.org/2000/svg" xmlns:xlink="http://www.w3.org/1999/xlink">
<g id="graph0" class="graph" transform="scale(1 1) rotate(0) translate(4 705.8)">
<title>CLG</title>
<polygon fill="white" stroke="none" points="-4,4 -4,-705.8 399.88,-705.8 399.88,4 -4,4"/>
<!-- 32 -->
<g id="node1" class="node">
<title>32</title>
<polygon fill="yellow" stroke="black" points="205.12,-456.9 129.12,-456.9 129.12,-420.9 205.12,-420.9 205.12,-456.9"/>
<text text-anchor="middle" x="167.12" y="-433.85" font-family="Times New Roman,serif" font-size="14.00">Index0 = 1</text>
<text text-anchor="middle" x="117.88" y="-460.1" font-family="Times New Roman,serif" font-size="14.00">[32]</text>
</g>
<!-- 52 -->
<g id="node4" class="node">
<title>52</title>
<polygon fill="aquamarine" stroke="black" points="167.12,-368.4 159.93,-361.2 167.12,-354 174.32,-361.2 167.12,-368.4"/>
<text text-anchor="middle" x="144.93" y="-371.6" font-family="Times New Roman,serif" font-size="14.00">&lt;52&gt;</text>
</g>
<!-- 32&#45;&gt;52 -->
<g id="edge7" class="edge">
<title>32&#45;&gt;52</title>
<path fill="none" stroke="black" d="M167.12,-420.72C167.12,-408.68 167.12,-392.6 167.12,-380.35"/>
<polygon fill="black" stroke="black" points="170.63,-380.44 167.13,-370.44 163.63,-380.44 170.63,-380.44"/>
<text text-anchor="middle" x="204.25" y="-389.6" font-family="Times New Roman,serif" font-size="14.00">graphAnd#54</text>
</g>
<!-- 50 -->
<g id="node2" class="node">
<title>50</title>
<polygon fill="yellow" stroke="black" points="151.75,-36 22.5,-36 22.5,0 151.75,0 151.75,-36"/>
<text text-anchor="middle" x="87.12" y="-12.95" font-family="Times New Roman,serif" font-size="14.00">Index0 = Index0 + 1</text>
<text text-anchor="middle" x="11.25" y="-39.2" font-family="Times New Roman,serif" font-size="14.00">[50]</text>
</g>
<!-- 50&#45;&gt;52 -->
<g id="edge4" class="edge">
<title>50&#45;&gt;52</title>
<path fill="none" stroke="black" d="M81.97,-36.39C77.3,-53.73 71.12,-81.22 71.12,-105.5 71.12,-284.5 71.12,-284.5 71.12,-284.5 71.12,-324.63 123.48,-346.77 150.87,-355.61"/>
<polygon fill="black" stroke="black" points="149.66,-358.9 160.24,-358.39 151.65,-352.19 149.66,-358.9"/>
<text text-anchor="middle" x="98.12" y="-189.95" font-family="Times New Roman,serif" font-size="14.00">iterate#51</text>
</g>
<!-- 35 -->
<g id="node3" class="node">
<title>35</title>
<polygon fill="yellow" stroke="black" points="202.5,-545.4 131.75,-545.4 131.75,-509.4 202.5,-509.4 202.5,-545.4"/>
<text text-anchor="middle" x="167.12" y="-522.35" font-family="Times New Roman,serif" font-size="14.00">acc = true</text>
<text text-anchor="middle" x="120.5" y="-548.6" font-family="Times New Roman,serif" font-size="14.00">[35]</text>
</g>
<!-- 35&#45;&gt;32 -->
<g id="edge3" class="edge">
<title>35&#45;&gt;32</title>
<path fill="none" stroke="black" d="M167.12,-509.31C167.12,-497.66 167.12,-481.95 167.12,-468.42"/>
<polygon fill="black" stroke="black" points="170.63,-468.76 167.13,-458.76 163.63,-468.76 170.63,-468.76"/>
<text text-anchor="middle" x="204.25" y="-478.1" font-family="Times New Roman,serif" font-size="14.00">graphAnd#35</text>
</g>
<!-- 38 -->
<g id="node5" class="node">
<title>38</title>
<polygon fill="yellow" stroke="black" points="234.75,-301.5 99.5,-301.5 99.5,-265.5 234.75,-265.5 234.75,-301.5"/>
<text text-anchor="middle" x="167.12" y="-278.45" font-family="Times New Roman,serif" font-size="14.00">Index0 &gt; dim1 &#45; 1+ 1</text>
<text text-anchor="middle" x="88.25" y="-304.7" font-family="Times New Roman,serif" font-size="14.00">[38]</text>
</g>
<!-- 52&#45;&gt;38 -->
<g id="edge5" class="edge">
<title>52&#45;&gt;38</title>
<path fill="none" stroke="black" d="M167.12,-353.48C167.12,-344.4 167.12,-327.65 167.12,-312.93"/>
<polygon fill="black" stroke="black" points="170.63,-313.26 167.13,-303.26 163.63,-313.26 170.63,-313.26"/>
<text text-anchor="middle" x="204.25" y="-322.7" font-family="Times New Roman,serif" font-size="14.00">graphAnd#53</text>
</g>
<!-- 41 -->
<g id="node7" class="node">
<title>41</title>
<polygon fill="yellow" stroke="black" points="395.88,-301.5 252.38,-301.5 252.38,-265.5 395.88,-265.5 395.88,-301.5"/>
<text text-anchor="middle" x="324.12" y="-278.45" font-family="Times New Roman,serif" font-size="14.00">Index0 &lt;= dim1 &#45; 1+ 1</text>
<text text-anchor="middle" x="241.12" y="-304.7" font-family="Times New Roman,serif" font-size="14.00">[41]</text>
</g>
<!-- 52&#45;&gt;41 -->
<g id="edge2" class="edge">
<title>52&#45;&gt;41</title>
<path fill="none" stroke="black" d="M172.61,-359.05C185.63,-356.21 219.2,-348.18 245.12,-336 261.38,-328.36 278.21,-317.82 292.13,-308.25"/>
<polygon fill="black" stroke="black" points="293.86,-311.32 300.03,-302.71 289.83,-305.59 293.86,-311.32"/>
<text text-anchor="middle" x="301.57" y="-322.7" font-family="Times New Roman,serif" font-size="14.00">iterate#50</text>
</g>
<!-- 39 -->
<g id="node6" class="node">
<title>39</title>
<ellipse fill="black" stroke="black" cx="167.12" cy="-195" rx="7.2" ry="7.2"/>
<ellipse fill="none" stroke="black" cx="167.12" cy="-195" rx="11.2" ry="11.2"/>
<text text-anchor="middle" x="145.8" y="-209.4" font-family="Times New Roman,serif" font-size="14.00">[&#45;1]</text>
</g>
<!-- 38&#45;&gt;39 -->
<g id="edge6" class="edge">
<title>38&#45;&gt;39</title>
<path fill="none" stroke="black" d="M167.12,-265.41C167.12,-251.72 167.12,-232.42 167.12,-217.65"/>
<polygon fill="black" stroke="black" points="170.63,-218.04 167.13,-208.04 163.63,-218.04 170.63,-218.04"/>
</g>
<!-- 44 -->
<g id="node9" class="node">
<title>44</title>
<polygon fill="yellow" stroke="black" points="370.75,-213 223.5,-213 223.5,-177 370.75,-177 370.75,-213"/>
<text text-anchor="middle" x="297.12" y="-189.95" font-family="Times New Roman,serif" font-size="14.00">it = Sequence{1..dim1}</text>
<text text-anchor="middle" x="212.25" y="-216.2" font-family="Times New Roman,serif" font-size="14.00">[44]</text>
</g>
<!-- 41&#45;&gt;44 -->
<g id="edge10" class="edge">
<title>41&#45;&gt;44</title>
<path fill="none" stroke="black" d="M318.79,-265.41C315.12,-253.64 310.15,-237.73 305.9,-224.11"/>
<polygon fill="black" stroke="black" points="309.31,-223.3 302.99,-214.79 302.63,-225.38 309.31,-223.3"/>
<text text-anchor="middle" x="350.17" y="-234.2" font-family="Times New Roman,serif" font-size="14.00">graphAnd#46</text>
</g>
<!-- 28 -->
<g id="node8" class="node">
<title>28</title>
<ellipse fill="black" stroke="black" cx="167.12" cy="-678.1" rx="7.2" ry="7.2"/>
<text text-anchor="middle" x="152.05" y="-688.5" font-family="Times New Roman,serif" font-size="14.00">[0]</text>
</g>
<!-- 29 -->
<g id="node10" class="node">
<title>29</title>
<polygon fill="yellow" stroke="black" points="283.88,-633.9 50.37,-633.9 50.37,-597.9 283.88,-597.9 283.88,-633.9"/>
<text text-anchor="middle" x="167.12" y="-610.85" font-family="Times New Roman,serif" font-size="14.00">dim1 = arg.datas.getDimensionSizes(1)</text>
<text text-anchor="middle" x="39.12" y="-637.1" font-family="Times New Roman,serif" font-size="14.00">[29]</text>
</g>
<!-- 28&#45;&gt;29 -->
<g id="edge9" class="edge">
<title>28&#45;&gt;29</title>
<path fill="none" stroke="black" d="M167.12,-670.66C167.12,-664.6 167.12,-655.09 167.12,-645.74"/>
<polygon fill="black" stroke="black" points="170.63,-645.78 167.13,-635.78 163.63,-645.78 170.63,-645.78"/>
</g>
<!-- 47 -->
<g id="node11" class="node">
<title>47</title>
<polygon fill="yellow" stroke="black" points="375.38,-124.5 120.88,-124.5 120.88,-88.5 375.38,-88.5 375.38,-124.5"/>
<text text-anchor="middle" x="248.12" y="-101.45" font-family="Times New Roman,serif" font-size="14.00">result.datas[it] = self.datas[it] &#45; arg.datas[it]</text>
<text text-anchor="middle" x="109.62" y="-127.7" font-family="Times New Roman,serif" font-size="14.00">[47]</text>
</g>
<!-- 44&#45;&gt;47 -->
<g id="edge11" class="edge">
<title>44&#45;&gt;47</title>
<path fill="none" stroke="black" d="M287.44,-176.91C280.64,-164.9 271.4,-148.59 263.59,-134.8"/>
<polygon fill="black" stroke="black" points="266.67,-133.14 258.7,-126.17 260.58,-136.59 266.67,-133.14"/>
<text text-anchor="middle" x="314.14" y="-145.7" font-family="Times New Roman,serif" font-size="14.00">graphAnd#47</text>
</g>
<!-- 29&#45;&gt;35 -->
<g id="edge8" class="edge">
<title>29&#45;&gt;35</title>
<path fill="none" stroke="black" d="M167.12,-597.81C167.12,-586.16 167.12,-570.45 167.12,-556.92"/>
<polygon fill="black" stroke="black" points="170.63,-557.26 167.13,-547.26 163.63,-557.26 170.63,-557.26"/>
<text text-anchor="middle" x="204.25" y="-566.6" font-family="Times New Roman,serif" font-size="14.00">graphAnd#55</text>
</g>
<!-- 47&#45;&gt;50 -->
<g id="edge1" class="edge">
<title>47&#45;&gt;50</title>
<path fill="none" stroke="black" d="M215.93,-88.2C191.11,-74.87 156.57,-56.31 129.51,-41.77"/>
<polygon fill="black" stroke="black" points="131.34,-38.78 120.87,-37.13 128.02,-44.95 131.34,-38.78"/>
<text text-anchor="middle" x="219.17" y="-57.2" font-family="Times New Roman,serif" font-size="14.00">graphAnd#48</text>
</g>
</g>
</svg>
