<?xml version="1.0" encoding="UTF-8" standalone="no"?>
<!DOCTYPE svg PUBLIC "-//W3C//DTD SVG 1.1//EN"
 "http://www.w3.org/Graphics/SVG/1.1/DTD/svg11.dtd">
<!-- Generated by graphviz version 12.2.1 (20241206.2353)
 -->
<!-- Title: CLG Pages: 1 -->
<svg width="586pt" height="541pt"
 viewBox="0.00 0.00 586.38 540.80" xmlns="http://www.w3.org/2000/svg" xmlns:xlink="http://www.w3.org/1999/xlink">
<g id="graph0" class="graph" transform="scale(1 1) rotate(0) translate(4 536.8)">
<title>CLG</title>
<polygon fill="white" stroke="none" points="-4,4 -4,-536.8 582.38,-536.8 582.38,4 -4,4"/>
<!-- 16 -->
<g id="node1" class="node">
<title>16</title>
<polygon fill="yellow" stroke="black" points="334.62,-516.3 204.62,-516.3 204.62,-480.3 334.62,-480.3 334.62,-516.3"/>
<text text-anchor="middle" x="269.62" y="-493.25" font-family="Times New Roman,serif" font-size="14.00">idx0 &lt;= dim1 &#45; 1+ 1</text>
<text text-anchor="middle" x="193.38" y="-519.5" font-family="Times New Roman,serif" font-size="14.00">[16]</text>
</g>
<!-- 19 -->
<g id="node3" class="node">
<title>19</title>
<polygon fill="yellow" stroke="black" points="272.25,-427.8 125,-427.8 125,-391.8 272.25,-391.8 272.25,-427.8"/>
<text text-anchor="middle" x="198.62" y="-404.75" font-family="Times New Roman,serif" font-size="14.00">it = Sequence{1..dim1}</text>
<text text-anchor="middle" x="113.75" y="-431" font-family="Times New Roman,serif" font-size="14.00">[19]</text>
</g>
<!-- 16&#45;&gt;19 -->
<g id="edge2" class="edge">
<title>16&#45;&gt;19</title>
<path fill="none" stroke="black" d="M246.49,-480.06C240.2,-474.76 233.67,-468.65 228.38,-462.3 222.23,-454.94 216.64,-446.15 211.99,-437.93"/>
<polygon fill="black" stroke="black" points="215.18,-436.47 207.37,-429.31 209.01,-439.78 215.18,-436.47"/>
<text text-anchor="middle" x="265.5" y="-449" font-family="Times New Roman,serif" font-size="14.00">graphAnd#19</text>
</g>
<!-- 3 -->
<g id="node2" class="node">
<title>3</title>
<ellipse fill="black" stroke="black" cx="461.62" cy="-498.3" rx="7.2" ry="7.2"/>
<text text-anchor="middle" x="446.55" y="-508.7" font-family="Times New Roman,serif" font-size="14.00">[0]</text>
</g>
<!-- 4 -->
<g id="node4" class="node">
<title>4</title>
<polygon fill="yellow" stroke="black" points="578.38,-427.8 344.88,-427.8 344.88,-391.8 578.38,-391.8 578.38,-427.8"/>
<text text-anchor="middle" x="461.62" y="-404.75" font-family="Times New Roman,serif" font-size="14.00">dim1 = arg.datas.getDimensionSizes(1)</text>
<text text-anchor="middle" x="337" y="-431" font-family="Times New Roman,serif" font-size="14.00">[4]</text>
</g>
<!-- 3&#45;&gt;4 -->
<g id="edge1" class="edge">
<title>3&#45;&gt;4</title>
<path fill="none" stroke="black" d="M461.62,-490.8C461.62,-479.97 461.62,-457.62 461.62,-439.28"/>
<polygon fill="black" stroke="black" points="465.13,-439.49 461.63,-429.49 458.13,-439.49 465.13,-439.49"/>
</g>
<!-- 22 -->
<g id="node5" class="node">
<title>22</title>
<polygon fill="yellow" stroke="black" points="280.75,-339.3 22.5,-339.3 22.5,-303.3 280.75,-303.3 280.75,-339.3"/>
<text text-anchor="middle" x="151.62" y="-316.25" font-family="Times New Roman,serif" font-size="14.00">result.datas[it] = self.datas[it] + arg.datas[it]</text>
<text text-anchor="middle" x="11.25" y="-342.5" font-family="Times New Roman,serif" font-size="14.00">[22]</text>
</g>
<!-- 19&#45;&gt;22 -->
<g id="edge3" class="edge">
<title>19&#45;&gt;22</title>
<path fill="none" stroke="black" d="M189.34,-391.71C182.82,-379.7 173.95,-363.39 166.46,-349.6"/>
<polygon fill="black" stroke="black" points="169.62,-348.1 161.77,-340.98 163.47,-351.44 169.62,-348.1"/>
<text text-anchor="middle" x="216.46" y="-360.5" font-family="Times New Roman,serif" font-size="14.00">graphAnd#20</text>
</g>
<!-- 10 -->
<g id="node8" class="node">
<title>10</title>
<polygon fill="yellow" stroke="black" points="478,-339.3 407.25,-339.3 407.25,-303.3 478,-303.3 478,-339.3"/>
<text text-anchor="middle" x="442.62" y="-316.25" font-family="Times New Roman,serif" font-size="14.00">acc = true</text>
<text text-anchor="middle" x="396" y="-342.5" font-family="Times New Roman,serif" font-size="14.00">[10]</text>
</g>
<!-- 4&#45;&gt;10 -->
<g id="edge11" class="edge">
<title>4&#45;&gt;10</title>
<path fill="none" stroke="black" d="M457.87,-391.71C455.31,-380.06 451.86,-364.35 448.89,-350.82"/>
<polygon fill="black" stroke="black" points="452.32,-350.14 446.76,-341.13 445.49,-351.65 452.32,-350.14"/>
<text text-anchor="middle" x="490.95" y="-360.5" font-family="Times New Roman,serif" font-size="14.00">graphAnd#28</text>
</g>
<!-- 25 -->
<g id="node7" class="node">
<title>25</title>
<polygon fill="yellow" stroke="black" points="264.75,-250.8 162.5,-250.8 162.5,-214.8 264.75,-214.8 264.75,-250.8"/>
<text text-anchor="middle" x="213.62" y="-227.75" font-family="Times New Roman,serif" font-size="14.00">idx0 = idx0 + 1</text>
<text text-anchor="middle" x="151.25" y="-254" font-family="Times New Roman,serif" font-size="14.00">[25]</text>
</g>
<!-- 22&#45;&gt;25 -->
<g id="edge4" class="edge">
<title>22&#45;&gt;25</title>
<path fill="none" stroke="black" d="M163.87,-303.21C172.65,-290.97 184.63,-274.25 194.64,-260.29"/>
<polygon fill="black" stroke="black" points="197.33,-262.55 200.31,-252.38 191.64,-258.47 197.33,-262.55"/>
<text text-anchor="middle" x="225.3" y="-272" font-family="Times New Roman,serif" font-size="14.00">graphAnd#21</text>
</g>
<!-- 7 -->
<g id="node6" class="node">
<title>7</title>
<polygon fill="yellow" stroke="black" points="439.88,-250.8 377.38,-250.8 377.38,-214.8 439.88,-214.8 439.88,-250.8"/>
<text text-anchor="middle" x="408.62" y="-227.75" font-family="Times New Roman,serif" font-size="14.00">idx0 = 1</text>
<text text-anchor="middle" x="369.5" y="-254" font-family="Times New Roman,serif" font-size="14.00">[7]</text>
</g>
<!-- 27 -->
<g id="node9" class="node">
<title>27</title>
<polygon fill="aquamarine" stroke="black" points="316.62,-162.3 309.43,-155.1 316.62,-147.9 323.82,-155.1 316.62,-162.3"/>
<text text-anchor="middle" x="294.43" y="-165.5" font-family="Times New Roman,serif" font-size="14.00">&lt;27&gt;</text>
</g>
<!-- 7&#45;&gt;27 -->
<g id="edge10" class="edge">
<title>7&#45;&gt;27</title>
<path fill="none" stroke="black" d="M387.75,-214.62C369.66,-199.74 344.1,-178.7 329.05,-166.33"/>
<polygon fill="black" stroke="black" points="331.33,-163.67 321.38,-160.01 326.88,-169.07 331.33,-163.67"/>
<text text-anchor="middle" x="402.51" y="-183.5" font-family="Times New Roman,serif" font-size="14.00">graphAnd#27</text>
</g>
<!-- 25&#45;&gt;27 -->
<g id="edge7" class="edge">
<title>25&#45;&gt;27</title>
<path fill="none" stroke="black" d="M221.82,-214.39C227.84,-203.26 236.99,-189.29 248.62,-180.3 263.81,-168.57 285.16,-162.21 299.87,-159"/>
<polygon fill="black" stroke="black" points="300.1,-162.52 309.27,-157.21 298.79,-155.64 300.1,-162.52"/>
<text text-anchor="middle" x="275.62" y="-183.5" font-family="Times New Roman,serif" font-size="14.00">iterate#24</text>
</g>
<!-- 10&#45;&gt;7 -->
<g id="edge6" class="edge">
<title>10&#45;&gt;7</title>
<path fill="none" stroke="black" d="M435.91,-303.21C431.23,-291.32 424.9,-275.21 419.51,-261.5"/>
<polygon fill="black" stroke="black" points="422.91,-260.59 416,-252.56 416.4,-263.15 422.91,-260.59"/>
<text text-anchor="middle" x="462.42" y="-272" font-family="Times New Roman,serif" font-size="14.00">graphAnd#8</text>
</g>
<!-- 27&#45;&gt;16 -->
<g id="edge5" class="edge">
<title>27&#45;&gt;16</title>
<path fill="none" stroke="black" d="M316.62,-162.78C316.62,-175.98 316.62,-206.3 316.62,-231.8 316.62,-410.8 316.62,-410.8 316.62,-410.8 316.62,-434.52 314.22,-441.61 302.62,-462.3 300.83,-465.51 298.68,-468.64 296.34,-471.64"/>
<polygon fill="black" stroke="black" points="293.86,-469.16 289.96,-479 299.15,-473.74 293.86,-469.16"/>
<text text-anchor="middle" x="343.62" y="-316.25" font-family="Times New Roman,serif" font-size="14.00">iterate#23</text>
</g>
<!-- 13 -->
<g id="node10" class="node">
<title>13</title>
<polygon fill="yellow" stroke="black" points="377.5,-95.4 255.75,-95.4 255.75,-59.4 377.5,-59.4 377.5,-95.4"/>
<text text-anchor="middle" x="316.62" y="-72.35" font-family="Times New Roman,serif" font-size="14.00">idx0 &gt; dim1 &#45; 1+ 1</text>
<text text-anchor="middle" x="244.5" y="-98.6" font-family="Times New Roman,serif" font-size="14.00">[13]</text>
</g>
<!-- 27&#45;&gt;13 -->
<g id="edge8" class="edge">
<title>27&#45;&gt;13</title>
<path fill="none" stroke="black" d="M316.62,-147.38C316.62,-138.3 316.62,-121.55 316.62,-106.83"/>
<polygon fill="black" stroke="black" points="320.13,-107.16 316.63,-97.16 313.13,-107.16 320.13,-107.16"/>
<text text-anchor="middle" x="353.75" y="-116.6" font-family="Times New Roman,serif" font-size="14.00">graphAnd#26</text>
</g>
<!-- 14 -->
<g id="node11" class="node">
<title>14</title>
<ellipse fill="black" stroke="black" cx="316.62" cy="-11.2" rx="7.2" ry="7.2"/>
<ellipse fill="none" stroke="black" cx="316.62" cy="-11.2" rx="11.2" ry="11.2"/>
<text text-anchor="middle" x="295.3" y="-25.6" font-family="Times New Roman,serif" font-size="14.00">[&#45;1]</text>
</g>
<!-- 13&#45;&gt;14 -->
<g id="edge9" class="edge">
<title>13&#45;&gt;14</title>
<path fill="none" stroke="black" d="M316.62,-59.2C316.62,-51.5 316.62,-42.34 316.62,-34.15"/>
<polygon fill="black" stroke="black" points="320.13,-34.32 316.63,-24.32 313.13,-34.32 320.13,-34.32"/>
</g>
</g>
</svg>
