<?xml version="1.0" encoding="UTF-8" standalone="no"?>
<!DOCTYPE svg PUBLIC "-//W3C//DTD SVG 1.1//EN"
 "http://www.w3.org/Graphics/SVG/1.1/DTD/svg11.dtd">
<!-- Generated by graphviz version 12.2.1 (20241206.2353)
 -->
<!-- Title: CLG Pages: 1 -->
<svg width="366pt" height="710pt"
 viewBox="0.00 0.00 365.88 709.80" xmlns="http://www.w3.org/2000/svg" xmlns:xlink="http://www.w3.org/1999/xlink">
<g id="graph0" class="graph" transform="scale(1 1) rotate(0) translate(4 705.8)">
<title>CLG</title>
<polygon fill="white" stroke="none" points="-4,4 -4,-705.8 361.88,-705.8 361.88,4 -4,4"/>
<!-- 32 -->
<g id="node1" class="node">
<title>32</title>
<polygon fill="yellow" stroke="black" points="177.88,-456.9 115.38,-456.9 115.38,-420.9 177.88,-420.9 177.88,-456.9"/>
<text text-anchor="middle" x="146.62" y="-433.85" font-family="Times New Roman,serif" font-size="14.00">idx0 = 1</text>
<text text-anchor="middle" x="104.12" y="-460.1" font-family="Times New Roman,serif" font-size="14.00">[32]</text>
</g>
<!-- 52 -->
<g id="node4" class="node">
<title>52</title>
<polygon fill="aquamarine" stroke="black" points="146.62,-368.4 139.43,-361.2 146.62,-354 153.82,-361.2 146.62,-368.4"/>
<text text-anchor="middle" x="124.42" y="-371.6" font-family="Times New Roman,serif" font-size="14.00">&lt;52&gt;</text>
</g>
<!-- 32&#45;&gt;52 -->
<g id="edge7" class="edge">
<title>32&#45;&gt;52</title>
<path fill="none" stroke="black" d="M146.62,-420.72C146.62,-408.68 146.62,-392.6 146.62,-380.35"/>
<polygon fill="black" stroke="black" points="150.13,-380.44 146.63,-370.44 143.13,-380.44 150.13,-380.44"/>
<text text-anchor="middle" x="183.75" y="-389.6" font-family="Times New Roman,serif" font-size="14.00">graphAnd#54</text>
</g>
<!-- 50 -->
<g id="node2" class="node">
<title>50</title>
<polygon fill="yellow" stroke="black" points="124.75,-36 22.5,-36 22.5,0 124.75,0 124.75,-36"/>
<text text-anchor="middle" x="73.62" y="-12.95" font-family="Times New Roman,serif" font-size="14.00">idx0 = idx0 + 1</text>
<text text-anchor="middle" x="11.25" y="-39.2" font-family="Times New Roman,serif" font-size="14.00">[50]</text>
</g>
<!-- 50&#45;&gt;52 -->
<g id="edge4" class="edge">
<title>50&#45;&gt;52</title>
<path fill="none" stroke="black" d="M68.47,-36.39C63.8,-53.73 57.62,-81.22 57.62,-105.5 57.62,-284.5 57.62,-284.5 57.62,-284.5 57.62,-322.33 104.86,-345.22 130.5,-354.85"/>
<polygon fill="black" stroke="black" points="129.3,-358.14 139.89,-358.12 131.6,-351.53 129.3,-358.14"/>
<text text-anchor="middle" x="84.62" y="-189.95" font-family="Times New Roman,serif" font-size="14.00">iterate#51</text>
</g>
<!-- 35 -->
<g id="node3" class="node">
<title>35</title>
<polygon fill="yellow" stroke="black" points="182,-545.4 111.25,-545.4 111.25,-509.4 182,-509.4 182,-545.4"/>
<text text-anchor="middle" x="146.62" y="-522.35" font-family="Times New Roman,serif" font-size="14.00">acc = true</text>
<text text-anchor="middle" x="100" y="-548.6" font-family="Times New Roman,serif" font-size="14.00">[35]</text>
</g>
<!-- 35&#45;&gt;32 -->
<g id="edge3" class="edge">
<title>35&#45;&gt;32</title>
<path fill="none" stroke="black" d="M146.62,-509.31C146.62,-497.66 146.62,-481.95 146.62,-468.42"/>
<polygon fill="black" stroke="black" points="150.13,-468.76 146.63,-458.76 143.13,-468.76 150.13,-468.76"/>
<text text-anchor="middle" x="183.75" y="-478.1" font-family="Times New Roman,serif" font-size="14.00">graphAnd#35</text>
</g>
<!-- 38 -->
<g id="node5" class="node">
<title>38</title>
<polygon fill="yellow" stroke="black" points="207.5,-301.5 85.75,-301.5 85.75,-265.5 207.5,-265.5 207.5,-301.5"/>
<text text-anchor="middle" x="146.62" y="-278.45" font-family="Times New Roman,serif" font-size="14.00">idx0 &gt; dim1 &#45; 1+ 1</text>
<text text-anchor="middle" x="74.5" y="-304.7" font-family="Times New Roman,serif" font-size="14.00">[38]</text>
</g>
<!-- 52&#45;&gt;38 -->
<g id="edge5" class="edge">
<title>52&#45;&gt;38</title>
<path fill="none" stroke="black" d="M146.62,-353.48C146.62,-344.4 146.62,-327.65 146.62,-312.93"/>
<polygon fill="black" stroke="black" points="150.13,-313.26 146.63,-303.26 143.13,-313.26 150.13,-313.26"/>
<text text-anchor="middle" x="183.75" y="-322.7" font-family="Times New Roman,serif" font-size="14.00">graphAnd#53</text>
</g>
<!-- 41 -->
<g id="node7" class="node">
<title>41</title>
<polygon fill="yellow" stroke="black" points="355.62,-301.5 225.62,-301.5 225.62,-265.5 355.62,-265.5 355.62,-301.5"/>
<text text-anchor="middle" x="290.62" y="-278.45" font-family="Times New Roman,serif" font-size="14.00">idx0 &lt;= dim1 &#45; 1+ 1</text>
<text text-anchor="middle" x="214.38" y="-304.7" font-family="Times New Roman,serif" font-size="14.00">[41]</text>
</g>
<!-- 52&#45;&gt;41 -->
<g id="edge2" class="edge">
<title>52&#45;&gt;41</title>
<path fill="none" stroke="black" d="M152.18,-359.2C165.35,-356.67 199.24,-349.27 224.62,-336 238.45,-328.77 252.28,-318.56 263.68,-309.13"/>
<polygon fill="black" stroke="black" points="265.78,-311.94 271.11,-302.79 261.23,-306.62 265.78,-311.94"/>
<text text-anchor="middle" x="276.77" y="-322.7" font-family="Times New Roman,serif" font-size="14.00">iterate#50</text>
</g>
<!-- 39 -->
<g id="node6" class="node">
<title>39</title>
<ellipse fill="black" stroke="black" cx="146.62" cy="-195" rx="7.2" ry="7.2"/>
<ellipse fill="none" stroke="black" cx="146.62" cy="-195" rx="11.2" ry="11.2"/>
<text text-anchor="middle" x="125.3" y="-209.4" font-family="Times New Roman,serif" font-size="14.00">[&#45;1]</text>
</g>
<!-- 38&#45;&gt;39 -->
<g id="edge6" class="edge">
<title>38&#45;&gt;39</title>
<path fill="none" stroke="black" d="M146.62,-265.41C146.62,-251.72 146.62,-232.42 146.62,-217.65"/>
<polygon fill="black" stroke="black" points="150.13,-218.04 146.63,-208.04 143.13,-218.04 150.13,-218.04"/>
</g>
<!-- 44 -->
<g id="node9" class="node">
<title>44</title>
<polygon fill="yellow" stroke="black" points="343.25,-213 196,-213 196,-177 343.25,-177 343.25,-213"/>
<text text-anchor="middle" x="269.62" y="-189.95" font-family="Times New Roman,serif" font-size="14.00">it = Sequence{1..dim1}</text>
<text text-anchor="middle" x="184.75" y="-216.2" font-family="Times New Roman,serif" font-size="14.00">[44]</text>
</g>
<!-- 41&#45;&gt;44 -->
<g id="edge10" class="edge">
<title>41&#45;&gt;44</title>
<path fill="none" stroke="black" d="M286.48,-265.41C283.65,-253.76 279.83,-238.05 276.55,-224.52"/>
<polygon fill="black" stroke="black" points="279.95,-223.71 274.19,-214.82 273.15,-225.36 279.95,-223.71"/>
<text text-anchor="middle" x="319.13" y="-234.2" font-family="Times New Roman,serif" font-size="14.00">graphAnd#46</text>
</g>
<!-- 28 -->
<g id="node8" class="node">
<title>28</title>
<ellipse fill="black" stroke="black" cx="146.62" cy="-678.1" rx="7.2" ry="7.2"/>
<text text-anchor="middle" x="131.55" y="-688.5" font-family="Times New Roman,serif" font-size="14.00">[0]</text>
</g>
<!-- 29 -->
<g id="node10" class="node">
<title>29</title>
<polygon fill="yellow" stroke="black" points="263.38,-633.9 29.87,-633.9 29.87,-597.9 263.38,-597.9 263.38,-633.9"/>
<text text-anchor="middle" x="146.62" y="-610.85" font-family="Times New Roman,serif" font-size="14.00">dim1 = arg.datas.getDimensionSizes(1)</text>
<text text-anchor="middle" x="18.62" y="-637.1" font-family="Times New Roman,serif" font-size="14.00">[29]</text>
</g>
<!-- 28&#45;&gt;29 -->
<g id="edge9" class="edge">
<title>28&#45;&gt;29</title>
<path fill="none" stroke="black" d="M146.62,-670.66C146.62,-664.6 146.62,-655.09 146.62,-645.74"/>
<polygon fill="black" stroke="black" points="150.13,-645.78 146.63,-635.78 143.13,-645.78 150.13,-645.78"/>
</g>
<!-- 47 -->
<g id="node11" class="node">
<title>47</title>
<polygon fill="yellow" stroke="black" points="357.88,-124.5 103.38,-124.5 103.38,-88.5 357.88,-88.5 357.88,-124.5"/>
<text text-anchor="middle" x="230.62" y="-101.45" font-family="Times New Roman,serif" font-size="14.00">result.datas[it] = self.datas[it] &#45; arg.datas[it]</text>
<text text-anchor="middle" x="92.12" y="-127.7" font-family="Times New Roman,serif" font-size="14.00">[47]</text>
</g>
<!-- 44&#45;&gt;47 -->
<g id="edge11" class="edge">
<title>44&#45;&gt;47</title>
<path fill="none" stroke="black" d="M261.92,-176.91C256.56,-165.02 249.3,-148.91 243.11,-135.2"/>
<polygon fill="black" stroke="black" points="246.37,-133.91 239.07,-126.23 239.99,-136.78 246.37,-133.91"/>
<text text-anchor="middle" x="290.74" y="-145.7" font-family="Times New Roman,serif" font-size="14.00">graphAnd#47</text>
</g>
<!-- 29&#45;&gt;35 -->
<g id="edge8" class="edge">
<title>29&#45;&gt;35</title>
<path fill="none" stroke="black" d="M146.62,-597.81C146.62,-586.16 146.62,-570.45 146.62,-556.92"/>
<polygon fill="black" stroke="black" points="150.13,-557.26 146.63,-547.26 143.13,-557.26 150.13,-557.26"/>
<text text-anchor="middle" x="183.75" y="-566.6" font-family="Times New Roman,serif" font-size="14.00">graphAnd#55</text>
</g>
<!-- 47&#45;&gt;50 -->
<g id="edge1" class="edge">
<title>47&#45;&gt;50</title>
<path fill="none" stroke="black" d="M199.23,-88.2C175.14,-74.93 141.65,-56.48 115.31,-41.96"/>
<polygon fill="black" stroke="black" points="117.01,-38.91 106.56,-37.15 113.63,-45.04 117.01,-38.91"/>
<text text-anchor="middle" x="203.31" y="-57.2" font-family="Times New Roman,serif" font-size="14.00">graphAnd#48</text>
</g>
</g>
</svg>
