<?xml version="1.0" encoding="UTF-8" standalone="no"?>
<!DOCTYPE svg PUBLIC "-//W3C//DTD SVG 1.1//EN"
 "http://www.w3.org/Graphics/SVG/1.1/DTD/svg11.dtd">
<!-- Generated by graphviz version 12.2.1 (20241206.2353)
 -->
<!-- Title: CLG Pages: 1 -->
<svg width="401pt" height="710pt"
 viewBox="0.00 0.00 400.50 709.80" xmlns="http://www.w3.org/2000/svg" xmlns:xlink="http://www.w3.org/1999/xlink">
<g id="graph0" class="graph" transform="scale(1 1) rotate(0) translate(4 705.8)">
<title>CLG</title>
<polygon fill="white" stroke="none" points="-4,4 -4,-705.8 396.5,-705.8 396.5,4 -4,4"/>
<!-- 64 -->
<g id="node1" class="node">
<title>64</title>
<ellipse fill="black" stroke="black" cx="331.62" cy="-195" rx="7.2" ry="7.2"/>
<ellipse fill="none" stroke="black" cx="331.62" cy="-195" rx="11.2" ry="11.2"/>
<text text-anchor="middle" x="310.3" y="-209.4" font-family="Times New Roman,serif" font-size="14.00">[&#45;1]</text>
</g>
<!-- 66 -->
<g id="node2" class="node">
<title>66</title>
<polygon fill="yellow" stroke="black" points="252.62,-301.5 122.62,-301.5 122.62,-265.5 252.62,-265.5 252.62,-301.5"/>
<text text-anchor="middle" x="187.62" y="-278.45" font-family="Times New Roman,serif" font-size="14.00">idx0 &lt;= dim1 &#45; 1+ 1</text>
<text text-anchor="middle" x="111.38" y="-304.7" font-family="Times New Roman,serif" font-size="14.00">[66]</text>
</g>
<!-- 69 -->
<g id="node4" class="node">
<title>69</title>
<polygon fill="yellow" stroke="black" points="282.25,-213 135,-213 135,-177 282.25,-177 282.25,-213"/>
<text text-anchor="middle" x="208.62" y="-189.95" font-family="Times New Roman,serif" font-size="14.00">it = Sequence{1..dim1}</text>
<text text-anchor="middle" x="123.75" y="-216.2" font-family="Times New Roman,serif" font-size="14.00">[69]</text>
</g>
<!-- 66&#45;&gt;69 -->
<g id="edge6" class="edge">
<title>66&#45;&gt;69</title>
<path fill="none" stroke="black" d="M191.77,-265.41C194.6,-253.76 198.42,-238.05 201.7,-224.52"/>
<polygon fill="black" stroke="black" points="205.1,-225.36 204.06,-214.82 198.3,-223.71 205.1,-225.36"/>
<text text-anchor="middle" x="237.13" y="-234.2" font-family="Times New Roman,serif" font-size="14.00">graphAnd#73</text>
</g>
<!-- 53 -->
<g id="node3" class="node">
<title>53</title>
<ellipse fill="black" stroke="black" cx="187.62" cy="-678.1" rx="7.2" ry="7.2"/>
<text text-anchor="middle" x="172.55" y="-688.5" font-family="Times New Roman,serif" font-size="14.00">[0]</text>
</g>
<!-- 54 -->
<g id="node5" class="node">
<title>54</title>
<polygon fill="yellow" stroke="black" points="304.38,-633.9 70.87,-633.9 70.87,-597.9 304.38,-597.9 304.38,-633.9"/>
<text text-anchor="middle" x="187.62" y="-610.85" font-family="Times New Roman,serif" font-size="14.00">dim1 = arg.datas.getDimensionSizes(1)</text>
<text text-anchor="middle" x="59.62" y="-637.1" font-family="Times New Roman,serif" font-size="14.00">[54]</text>
</g>
<!-- 53&#45;&gt;54 -->
<g id="edge5" class="edge">
<title>53&#45;&gt;54</title>
<path fill="none" stroke="black" d="M187.62,-670.66C187.62,-664.6 187.62,-655.09 187.62,-645.74"/>
<polygon fill="black" stroke="black" points="191.13,-645.78 187.63,-635.78 184.13,-645.78 191.13,-645.78"/>
</g>
<!-- 72 -->
<g id="node6" class="node">
<title>72</title>
<polygon fill="yellow" stroke="black" points="342,-124.5 85.25,-124.5 85.25,-88.5 342,-88.5 342,-124.5"/>
<text text-anchor="middle" x="213.62" y="-101.45" font-family="Times New Roman,serif" font-size="14.00">result.datas[it] = self.datas[it] * arg.datas[it]</text>
<text text-anchor="middle" x="74" y="-127.7" font-family="Times New Roman,serif" font-size="14.00">[72]</text>
</g>
<!-- 69&#45;&gt;72 -->
<g id="edge7" class="edge">
<title>69&#45;&gt;72</title>
<path fill="none" stroke="black" d="M209.61,-176.91C210.29,-165.26 211.19,-149.55 211.98,-136.02"/>
<polygon fill="black" stroke="black" points="215.45,-136.55 212.53,-126.36 208.46,-136.14 215.45,-136.55"/>
<text text-anchor="middle" x="248.7" y="-145.7" font-family="Times New Roman,serif" font-size="14.00">graphAnd#74</text>
</g>
<!-- 60 -->
<g id="node9" class="node">
<title>60</title>
<polygon fill="yellow" stroke="black" points="223,-545.4 152.25,-545.4 152.25,-509.4 223,-509.4 223,-545.4"/>
<text text-anchor="middle" x="187.62" y="-522.35" font-family="Times New Roman,serif" font-size="14.00">acc = true</text>
<text text-anchor="middle" x="141" y="-548.6" font-family="Times New Roman,serif" font-size="14.00">[60]</text>
</g>
<!-- 54&#45;&gt;60 -->
<g id="edge4" class="edge">
<title>54&#45;&gt;60</title>
<path fill="none" stroke="black" d="M187.62,-597.81C187.62,-586.16 187.62,-570.45 187.62,-556.92"/>
<polygon fill="black" stroke="black" points="191.13,-557.26 187.63,-547.26 184.13,-557.26 191.13,-557.26"/>
<text text-anchor="middle" x="224.75" y="-566.6" font-family="Times New Roman,serif" font-size="14.00">graphAnd#82</text>
</g>
<!-- 75 -->
<g id="node8" class="node">
<title>75</title>
<polygon fill="yellow" stroke="black" points="124.75,-36 22.5,-36 22.5,0 124.75,0 124.75,-36"/>
<text text-anchor="middle" x="73.62" y="-12.95" font-family="Times New Roman,serif" font-size="14.00">idx0 = idx0 + 1</text>
<text text-anchor="middle" x="11.25" y="-39.2" font-family="Times New Roman,serif" font-size="14.00">[75]</text>
</g>
<!-- 72&#45;&gt;75 -->
<g id="edge8" class="edge">
<title>72&#45;&gt;75</title>
<path fill="none" stroke="black" d="M185.63,-88.2C164.27,-75 134.61,-56.68 111.19,-42.21"/>
<polygon fill="black" stroke="black" points="113.21,-39.34 102.86,-37.06 109.53,-45.3 113.21,-39.34"/>
<text text-anchor="middle" x="193.29" y="-57.2" font-family="Times New Roman,serif" font-size="14.00">graphAnd#75</text>
</g>
<!-- 57 -->
<g id="node7" class="node">
<title>57</title>
<polygon fill="yellow" stroke="black" points="218.88,-456.9 156.38,-456.9 156.38,-420.9 218.88,-420.9 218.88,-456.9"/>
<text text-anchor="middle" x="187.62" y="-433.85" font-family="Times New Roman,serif" font-size="14.00">idx0 = 1</text>
<text text-anchor="middle" x="145.12" y="-460.1" font-family="Times New Roman,serif" font-size="14.00">[57]</text>
</g>
<!-- 77 -->
<g id="node10" class="node">
<title>77</title>
<polygon fill="aquamarine" stroke="black" points="187.62,-368.4 180.43,-361.2 187.62,-354 194.82,-361.2 187.62,-368.4"/>
<text text-anchor="middle" x="165.43" y="-371.6" font-family="Times New Roman,serif" font-size="14.00">&lt;77&gt;</text>
</g>
<!-- 57&#45;&gt;77 -->
<g id="edge3" class="edge">
<title>57&#45;&gt;77</title>
<path fill="none" stroke="black" d="M187.62,-420.72C187.62,-408.68 187.62,-392.6 187.62,-380.35"/>
<polygon fill="black" stroke="black" points="191.13,-380.44 187.63,-370.44 184.13,-380.44 191.13,-380.44"/>
<text text-anchor="middle" x="224.75" y="-389.6" font-family="Times New Roman,serif" font-size="14.00">graphAnd#81</text>
</g>
<!-- 75&#45;&gt;77 -->
<g id="edge11" class="edge">
<title>75&#45;&gt;77</title>
<path fill="none" stroke="black" d="M68.47,-36.39C63.8,-53.73 57.62,-81.22 57.62,-105.5 57.62,-284.5 57.62,-284.5 57.62,-284.5 57.62,-335.91 134.49,-353.02 170.01,-358.18"/>
<polygon fill="black" stroke="black" points="169.49,-361.64 179.85,-359.43 170.37,-354.7 169.49,-361.64"/>
<text text-anchor="middle" x="84.62" y="-189.95" font-family="Times New Roman,serif" font-size="14.00">iterate#78</text>
</g>
<!-- 60&#45;&gt;57 -->
<g id="edge10" class="edge">
<title>60&#45;&gt;57</title>
<path fill="none" stroke="black" d="M187.62,-509.31C187.62,-497.66 187.62,-481.95 187.62,-468.42"/>
<polygon fill="black" stroke="black" points="191.13,-468.76 187.63,-458.76 184.13,-468.76 191.13,-468.76"/>
<text text-anchor="middle" x="224.75" y="-478.1" font-family="Times New Roman,serif" font-size="14.00">graphAnd#62</text>
</g>
<!-- 77&#45;&gt;66 -->
<g id="edge9" class="edge">
<title>77&#45;&gt;66</title>
<path fill="none" stroke="black" d="M187.62,-353.48C187.62,-344.4 187.62,-327.65 187.62,-312.93"/>
<polygon fill="black" stroke="black" points="191.13,-313.26 187.63,-303.26 184.13,-313.26 191.13,-313.26"/>
<text text-anchor="middle" x="214.62" y="-322.7" font-family="Times New Roman,serif" font-size="14.00">iterate#77</text>
</g>
<!-- 63 -->
<g id="node11" class="node">
<title>63</title>
<polygon fill="yellow" stroke="black" points="392.5,-301.5 270.75,-301.5 270.75,-265.5 392.5,-265.5 392.5,-301.5"/>
<text text-anchor="middle" x="331.62" y="-278.45" font-family="Times New Roman,serif" font-size="14.00">idx0 &gt; dim1 &#45; 1+ 1</text>
<text text-anchor="middle" x="259.5" y="-304.7" font-family="Times New Roman,serif" font-size="14.00">[63]</text>
</g>
<!-- 77&#45;&gt;63 -->
<g id="edge1" class="edge">
<title>77&#45;&gt;63</title>
<path fill="none" stroke="black" d="M192.54,-358.42C202.68,-354.7 226.53,-345.64 245.62,-336 262.32,-327.57 280.15,-317.15 295.23,-307.88"/>
<polygon fill="black" stroke="black" points="296.76,-311.05 303.41,-302.8 293.07,-305.1 296.76,-311.05"/>
<text text-anchor="middle" x="311.77" y="-322.7" font-family="Times New Roman,serif" font-size="14.00">graphAnd#80</text>
</g>
<!-- 63&#45;&gt;64 -->
<g id="edge2" class="edge">
<title>63&#45;&gt;64</title>
<path fill="none" stroke="black" d="M331.62,-265.41C331.62,-251.72 331.62,-232.42 331.62,-217.65"/>
<polygon fill="black" stroke="black" points="335.13,-218.04 331.63,-208.04 328.13,-218.04 335.13,-218.04"/>
</g>
</g>
</svg>
