<?xml version="1.0" encoding="UTF-8" standalone="no"?>
<!DOCTYPE svg PUBLIC "-//W3C//DTD SVG 1.1//EN"
 "http://www.w3.org/Graphics/SVG/1.1/DTD/svg11.dtd">
<!-- Generated by graphviz version 12.2.1 (20241206.2353)
 -->
<!-- Title: CLG Pages: 1 -->
<svg width="455pt" height="535pt"
 viewBox="0.00 0.00 455.25 534.90" xmlns="http://www.w3.org/2000/svg" xmlns:xlink="http://www.w3.org/1999/xlink">
<g id="graph0" class="graph" transform="scale(1 1) rotate(0) translate(4 530.9)">
<title>CLG</title>
<polygon fill="white" stroke="none" points="-4,4 -4,-530.9 451.25,-530.9 451.25,4 -4,4"/>
<!-- 97 -->
<g id="node1" class="node">
<title>97</title>
<polygon fill="yellow" stroke="black" points="276.25,-370.5 22.5,-370.5 22.5,-334.5 276.25,-334.5 276.25,-370.5"/>
<text text-anchor="middle" x="149.38" y="-347.45" font-family="Times New Roman,serif" font-size="14.00">result.datas[it] = self.datas[it] / arg.datas[it]</text>
<text text-anchor="middle" x="11.25" y="-373.7" font-family="Times New Roman,serif" font-size="14.00">[97]</text>
</g>
<!-- 100 -->
<g id="node3" class="node">
<title>100</title>
<polygon fill="yellow" stroke="black" points="279.5,-282 177.25,-282 177.25,-246 279.5,-246 279.5,-282"/>
<text text-anchor="middle" x="228.38" y="-258.95" font-family="Times New Roman,serif" font-size="14.00">idx0 = idx0 + 1</text>
<text text-anchor="middle" x="162.62" y="-285.2" font-family="Times New Roman,serif" font-size="14.00">[100]</text>
</g>
<!-- 97&#45;&gt;100 -->
<g id="edge4" class="edge">
<title>97&#45;&gt;100</title>
<path fill="none" stroke="black" d="M164.98,-334.41C176.38,-321.93 192.02,-304.8 204.92,-290.68"/>
<polygon fill="black" stroke="black" points="207.35,-293.21 211.51,-283.47 202.18,-288.49 207.35,-293.21"/>
<text text-anchor="middle" x="236.45" y="-303.2" font-family="Times New Roman,serif" font-size="14.00">graphAnd#102</text>
</g>
<!-- 82 -->
<g id="node2" class="node">
<title>82</title>
<polygon fill="yellow" stroke="black" points="359.62,-282 297.12,-282 297.12,-246 359.62,-246 359.62,-282"/>
<text text-anchor="middle" x="328.38" y="-258.95" font-family="Times New Roman,serif" font-size="14.00">idx0 = 1</text>
<text text-anchor="middle" x="285.88" y="-285.2" font-family="Times New Roman,serif" font-size="14.00">[82]</text>
</g>
<!-- 102 -->
<g id="node5" class="node">
<title>102</title>
<polygon fill="aquamarine" stroke="black" points="283.38,-192.45 276.18,-185.25 283.38,-178.05 290.57,-185.25 283.38,-192.45"/>
<text text-anchor="middle" x="257.8" y="-195.65" font-family="Times New Roman,serif" font-size="14.00">&lt;102&gt;</text>
</g>
<!-- 82&#45;&gt;102 -->
<g id="edge10" class="edge">
<title>82&#45;&gt;102</title>
<path fill="none" stroke="black" d="M318.16,-245.58C310.06,-231.77 298.9,-212.73 291.42,-199.98"/>
<polygon fill="black" stroke="black" points="294.63,-198.53 286.55,-191.67 288.59,-202.07 294.63,-198.53"/>
<text text-anchor="middle" x="347.72" y="-214.7" font-family="Times New Roman,serif" font-size="14.00">graphAnd#108</text>
</g>
<!-- 100&#45;&gt;102 -->
<g id="edge7" class="edge">
<title>100&#45;&gt;102</title>
<path fill="none" stroke="black" d="M226.59,-245.81C226.35,-235.06 227.74,-221.41 234.62,-211.5 242.21,-200.58 256,-194.06 266.99,-190.39"/>
<polygon fill="black" stroke="black" points="267.58,-193.86 276.26,-187.79 265.68,-187.12 267.58,-193.86"/>
<text text-anchor="middle" x="265" y="-214.7" font-family="Times New Roman,serif" font-size="14.00">iterate#105</text>
</g>
<!-- 85 -->
<g id="node4" class="node">
<title>85</title>
<polygon fill="yellow" stroke="black" points="364.75,-370.5 294,-370.5 294,-334.5 364.75,-334.5 364.75,-370.5"/>
<text text-anchor="middle" x="329.38" y="-347.45" font-family="Times New Roman,serif" font-size="14.00">acc = true</text>
<text text-anchor="middle" x="282.75" y="-373.7" font-family="Times New Roman,serif" font-size="14.00">[85]</text>
</g>
<!-- 85&#45;&gt;82 -->
<g id="edge6" class="edge">
<title>85&#45;&gt;82</title>
<path fill="none" stroke="black" d="M329.18,-334.41C329.04,-322.76 328.86,-307.05 328.7,-293.52"/>
<polygon fill="black" stroke="black" points="332.21,-293.82 328.59,-283.86 325.21,-293.9 332.21,-293.82"/>
<text text-anchor="middle" x="366.09" y="-303.2" font-family="Times New Roman,serif" font-size="14.00">graphAnd#89</text>
</g>
<!-- 88 -->
<g id="node6" class="node">
<title>88</title>
<polygon fill="yellow" stroke="black" points="447.25,-124.5 325.5,-124.5 325.5,-88.5 447.25,-88.5 447.25,-124.5"/>
<text text-anchor="middle" x="386.38" y="-101.45" font-family="Times New Roman,serif" font-size="14.00">idx0 &gt; dim1 &#45; 1+ 1</text>
<text text-anchor="middle" x="314.25" y="-127.7" font-family="Times New Roman,serif" font-size="14.00">[88]</text>
</g>
<!-- 102&#45;&gt;88 -->
<g id="edge8" class="edge">
<title>102&#45;&gt;88</title>
<path fill="none" stroke="black" d="M288.34,-182.34C297.65,-178.62 318.17,-169.84 333.38,-159 343.98,-151.44 354.52,-141.77 363.36,-132.86"/>
<polygon fill="black" stroke="black" points="365.81,-135.36 370.23,-125.73 360.77,-130.51 365.81,-135.36"/>
<text text-anchor="middle" x="392.69" y="-145.7" font-family="Times New Roman,serif" font-size="14.00">graphAnd#107</text>
</g>
<!-- 91 -->
<g id="node8" class="node">
<title>91</title>
<polygon fill="yellow" stroke="black" points="307.38,-124.5 177.38,-124.5 177.38,-88.5 307.38,-88.5 307.38,-124.5"/>
<text text-anchor="middle" x="242.38" y="-101.45" font-family="Times New Roman,serif" font-size="14.00">idx0 &lt;= dim1 &#45; 1+ 1</text>
<text text-anchor="middle" x="166.12" y="-127.7" font-family="Times New Roman,serif" font-size="14.00">[91]</text>
</g>
<!-- 102&#45;&gt;91 -->
<g id="edge5" class="edge">
<title>102&#45;&gt;91</title>
<path fill="none" stroke="black" d="M281.17,-180.12C276.65,-171.67 266.01,-151.74 257.01,-134.9"/>
<polygon fill="black" stroke="black" points="260.2,-133.45 252.4,-126.27 254.03,-136.74 260.2,-133.45"/>
<text text-anchor="middle" x="299.32" y="-145.7" font-family="Times New Roman,serif" font-size="14.00">iterate#104</text>
</g>
<!-- 89 -->
<g id="node7" class="node">
<title>89</title>
<ellipse fill="black" stroke="black" cx="386.38" cy="-18" rx="7.2" ry="7.2"/>
<ellipse fill="none" stroke="black" cx="386.38" cy="-18" rx="11.2" ry="11.2"/>
<text text-anchor="middle" x="365.05" y="-32.4" font-family="Times New Roman,serif" font-size="14.00">[&#45;1]</text>
</g>
<!-- 88&#45;&gt;89 -->
<g id="edge9" class="edge">
<title>88&#45;&gt;89</title>
<path fill="none" stroke="black" d="M386.38,-88.41C386.38,-74.72 386.38,-55.42 386.38,-40.65"/>
<polygon fill="black" stroke="black" points="389.88,-41.04 386.38,-31.04 382.88,-41.04 389.88,-41.04"/>
</g>
<!-- 94 -->
<g id="node10" class="node">
<title>94</title>
<polygon fill="yellow" stroke="black" points="255,-36 107.75,-36 107.75,0 255,0 255,-36"/>
<text text-anchor="middle" x="181.38" y="-12.95" font-family="Times New Roman,serif" font-size="14.00">it = Sequence{1..dim1}</text>
<text text-anchor="middle" x="96.5" y="-39.2" font-family="Times New Roman,serif" font-size="14.00">[94]</text>
</g>
<!-- 91&#45;&gt;94 -->
<g id="edge2" class="edge">
<title>91&#45;&gt;94</title>
<path fill="none" stroke="black" d="M230.32,-88.41C221.69,-76.17 209.9,-59.45 200.05,-45.49"/>
<polygon fill="black" stroke="black" points="203.11,-43.74 194.48,-37.59 197.39,-47.78 203.11,-43.74"/>
<text text-anchor="middle" x="257.84" y="-57.2" font-family="Times New Roman,serif" font-size="14.00">graphAnd#100</text>
</g>
<!-- 78 -->
<g id="node9" class="node">
<title>78</title>
<ellipse fill="black" stroke="black" cx="329.38" cy="-503.2" rx="7.2" ry="7.2"/>
<text text-anchor="middle" x="314.3" y="-513.6" font-family="Times New Roman,serif" font-size="14.00">[0]</text>
</g>
<!-- 79 -->
<g id="node11" class="node">
<title>79</title>
<polygon fill="yellow" stroke="black" points="446.12,-459 212.62,-459 212.62,-423 446.12,-423 446.12,-459"/>
<text text-anchor="middle" x="329.38" y="-435.95" font-family="Times New Roman,serif" font-size="14.00">dim1 = arg.datas.getDimensionSizes(1)</text>
<text text-anchor="middle" x="201.38" y="-462.2" font-family="Times New Roman,serif" font-size="14.00">[79]</text>
</g>
<!-- 78&#45;&gt;79 -->
<g id="edge1" class="edge">
<title>78&#45;&gt;79</title>
<path fill="none" stroke="black" d="M329.38,-495.76C329.38,-489.7 329.38,-480.19 329.38,-470.84"/>
<polygon fill="black" stroke="black" points="332.88,-470.88 329.38,-460.88 325.88,-470.88 332.88,-470.88"/>
</g>
<!-- 94&#45;&gt;97 -->
<g id="edge3" class="edge">
<title>94&#45;&gt;97</title>
<path fill="none" stroke="black" d="M170.9,-36.2C161.56,-53.18 149.38,-80.2 149.38,-105.5 149.38,-265 149.38,-265 149.38,-265 149.38,-284.33 149.38,-306.1 149.38,-322.96"/>
<polygon fill="black" stroke="black" points="145.88,-322.75 149.38,-332.75 152.88,-322.75 145.88,-322.75"/>
<text text-anchor="middle" x="189.88" y="-180.2" font-family="Times New Roman,serif" font-size="14.00">graphAnd#101</text>
</g>
<!-- 79&#45;&gt;85 -->
<g id="edge11" class="edge">
<title>79&#45;&gt;85</title>
<path fill="none" stroke="black" d="M329.38,-422.91C329.38,-411.26 329.38,-395.55 329.38,-382.02"/>
<polygon fill="black" stroke="black" points="332.88,-382.36 329.38,-372.36 325.88,-382.36 332.88,-382.36"/>
<text text-anchor="middle" x="369.88" y="-391.7" font-family="Times New Roman,serif" font-size="14.00">graphAnd#109</text>
</g>
</g>
</svg>
