<?xml version="1.0" encoding="UTF-8" standalone="no"?>
<!DOCTYPE svg PUBLIC "-//W3C//DTD SVG 1.1//EN"
 "http://www.w3.org/Graphics/SVG/1.1/DTD/svg11.dtd">
<!-- Generated by graphviz version 12.2.1 (20241206.2353)
 -->
<!-- Title: AST Pages: 1 -->
<svg width="475pt" height="349pt"
 viewBox="0.00 0.00 475.25 348.50" xmlns="http://www.w3.org/2000/svg" xmlns:xlink="http://www.w3.org/1999/xlink">
<g id="graph0" class="graph" transform="scale(1 1) rotate(0) translate(4 344.5)">
<title>AST</title>
<polygon fill="white" stroke="none" points="-4,4 -4,-344.5 471.25,-344.5 471.25,4 -4,4"/>
<!-- n23 -->
<g id="node1" class="node">
<title>n23</title>
<polygon fill="none" stroke="black" points="416.12,-324 169.12,-324 169.12,-288 416.12,-288 416.12,-324"/>
<text text-anchor="middle" x="292.62" y="-300.95" font-family="Times New Roman,serif" font-size="14.00">ContextDecl: node(17) Context: node (22)</text>
<text text-anchor="middle" x="157.88" y="-327.2" font-family="Times New Roman,serif" font-size="14.00">(23)</text>
</g>
<!-- n17 -->
<g id="node2" class="node">
<title>n17</title>
<polygon fill="none" stroke="black" points="341.12,-252 58.12,-252 58.12,-216 341.12,-216 341.12,-252"/>
<text text-anchor="middle" x="199.62" y="-228.95" font-family="Times New Roman,serif" font-size="14.00">TwoDimVarArray::TwoDimVarArray(node (16))</text>
<text text-anchor="middle" x="46.88" y="-255.2" font-family="Times New Roman,serif" font-size="14.00">(17)</text>
</g>
<!-- n23&#45;&gt;n17 -->
<g id="edge1" class="edge">
<title>n23&#45;&gt;n17</title>
<path fill="none" stroke="black" d="M269.64,-287.7C258.23,-279.11 244.27,-268.61 231.83,-259.24"/>
<polygon fill="black" stroke="black" points="233.98,-256.47 223.88,-253.26 229.77,-262.07 233.98,-256.47"/>
</g>
<!-- n22 -->
<g id="node3" class="node">
<title>n22</title>
<polygon fill="none" stroke="black" points="413.62,-252 359.62,-252 359.62,-216 413.62,-216 413.62,-252"/>
<text text-anchor="middle" x="386.62" y="-228.95" font-family="Times New Roman,serif" font-size="14.00"> post:</text>
<text text-anchor="middle" x="325.88" y="-255.2" font-family="Times New Roman,serif" font-size="14.00">(22)Boolean</text>
</g>
<!-- n23&#45;&gt;n22 -->
<g id="edge2" class="edge">
<title>n23&#45;&gt;n22</title>
<path fill="none" stroke="black" d="M315.86,-287.7C327.5,-279.03 341.77,-268.4 354.45,-258.96"/>
<polygon fill="black" stroke="black" points="356.19,-262.03 362.12,-253.25 352.01,-256.42 356.19,-262.03"/>
</g>
<!-- n16 -->
<g id="node4" class="node">
<title>n16</title>
<polygon fill="none" stroke="black" points="287.5,-180 111.75,-180 111.75,-144 287.5,-144 287.5,-180"/>
<text text-anchor="middle" x="199.62" y="-156.95" font-family="Times New Roman,serif" font-size="14.00">inputArray : int[dim1][dim2]</text>
<text text-anchor="middle" x="55.88" y="-183.2" font-family="Times New Roman,serif" font-size="14.00">(16)int[dim1][dim2]</text>
</g>
<!-- n17&#45;&gt;n16 -->
<g id="edge3" class="edge">
<title>n17&#45;&gt;n16</title>
<path fill="none" stroke="black" d="M199.62,-215.7C199.62,-208.41 199.62,-199.73 199.62,-191.54"/>
<polygon fill="black" stroke="black" points="203.13,-191.62 199.63,-181.62 196.13,-191.62 203.13,-191.62"/>
</g>
<!-- n21 -->
<g id="node5" class="node">
<title>n21</title>
<polygon fill="none" stroke="black" points="413.62,-180 359.62,-180 359.62,-144 413.62,-144 413.62,-180"/>
<text text-anchor="middle" x="386.62" y="-156.95" font-family="Times New Roman,serif" font-size="14.00">=</text>
<text text-anchor="middle" x="325.88" y="-183.2" font-family="Times New Roman,serif" font-size="14.00">(21)Boolean</text>
</g>
<!-- n22&#45;&gt;n21 -->
<g id="edge4" class="edge">
<title>n22&#45;&gt;n21</title>
<path fill="none" stroke="black" d="M386.62,-215.7C386.62,-208.41 386.62,-199.73 386.62,-191.54"/>
<polygon fill="black" stroke="black" points="390.13,-191.62 386.63,-181.62 383.13,-191.62 390.13,-191.62"/>
</g>
<!-- n19 -->
<g id="node6" class="node">
<title>n19</title>
<polygon fill="none" stroke="black" points="373.5,-108 311.75,-108 311.75,-72 373.5,-72 373.5,-108"/>
<text text-anchor="middle" x="342.62" y="-84.95" font-family="Times New Roman,serif" font-size="14.00">self.data</text>
<text text-anchor="middle" x="255.88" y="-111.2" font-family="Times New Roman,serif" font-size="14.00">(19)int[dim1][dim2]</text>
</g>
<!-- n21&#45;&gt;n19 -->
<g id="edge5" class="edge">
<title>n21&#45;&gt;n19</title>
<path fill="none" stroke="black" d="M375.75,-143.7C370.85,-135.9 364.94,-126.51 359.49,-117.83"/>
<polygon fill="black" stroke="black" points="362.47,-115.99 354.18,-109.39 356.54,-119.71 362.47,-115.99"/>
</g>
<!-- n20 -->
<g id="node7" class="node">
<title>n20</title>
<polygon fill="none" stroke="black" points="467.25,-108 392,-108 392,-72 467.25,-72 467.25,-108"/>
<text text-anchor="middle" x="429.62" y="-84.95" font-family="Times New Roman,serif" font-size="14.00">inputArray</text>
<text text-anchor="middle" x="336.12" y="-58.7" font-family="Times New Roman,serif" font-size="14.00">(20)int[dim1][dim2]</text>
</g>
<!-- n21&#45;&gt;n20 -->
<g id="edge6" class="edge">
<title>n21&#45;&gt;n20</title>
<path fill="none" stroke="black" d="M397.25,-143.7C402.04,-135.9 407.81,-126.51 413.14,-117.83"/>
<polygon fill="black" stroke="black" points="416.07,-119.75 418.33,-109.39 410.11,-116.08 416.07,-119.75"/>
</g>
<!-- n18 -->
<g id="node8" class="node">
<title>n18</title>
<polygon fill="none" stroke="black" points="369.62,-36 315.62,-36 315.62,0 369.62,0 369.62,-36"/>
<text text-anchor="middle" x="342.62" y="-12.95" font-family="Times New Roman,serif" font-size="14.00">self</text>
<text text-anchor="middle" x="254.88" y="-39.2" font-family="Times New Roman,serif" font-size="14.00">(18)TwoDimVarArray</text>
</g>
<!-- n19&#45;&gt;n18 -->
<g id="edge7" class="edge">
<title>n19&#45;&gt;n18</title>
<path fill="none" stroke="black" d="M342.62,-71.7C342.62,-64.41 342.62,-55.73 342.62,-47.54"/>
<polygon fill="black" stroke="black" points="346.13,-47.62 342.63,-37.62 339.13,-47.62 346.13,-47.62"/>
</g>
</g>
</svg>
