<?xml version="1.0" encoding="UTF-8" standalone="no"?>
<!DOCTYPE svg PUBLIC "-//W3C//DTD SVG 1.1//EN"
 "http://www.w3.org/Graphics/SVG/1.1/DTD/svg11.dtd">
<!-- Generated by graphviz version 12.2.1 (20241206.2353)
 -->
<!-- Title: AST Pages: 1 -->
<svg width="425pt" height="349pt"
 viewBox="0.00 0.00 425.12 348.50" xmlns="http://www.w3.org/2000/svg" xmlns:xlink="http://www.w3.org/1999/xlink">
<g id="graph0" class="graph" transform="scale(1 1) rotate(0) translate(4 344.5)">
<title>AST</title>
<polygon fill="white" stroke="none" points="-4,4 -4,-344.5 421.12,-344.5 421.12,4 -4,4"/>
<!-- n236 -->
<g id="node1" class="node">
<title>n236</title>
<polygon fill="none" stroke="black" points="387.5,-324 127,-324 127,-288 387.5,-288 387.5,-324"/>
<text text-anchor="middle" x="257.25" y="-300.95" font-family="Times New Roman,serif" font-size="14.00">ContextDecl: node(230) Context: node (235)</text>
<text text-anchor="middle" x="112.38" y="-327.2" font-family="Times New Roman,serif" font-size="14.00">(236)</text>
</g>
<!-- n230 -->
<g id="node2" class="node">
<title>n230</title>
<polygon fill="none" stroke="black" points="303.25,-252 29.25,-252 29.25,-216 303.25,-216 303.25,-252"/>
<text text-anchor="middle" x="166.25" y="-228.95" font-family="Times New Roman,serif" font-size="14.00">TwoDimVarArray::getData() : int[dim1][dim2]</text>
<text text-anchor="middle" x="14.62" y="-255.2" font-family="Times New Roman,serif" font-size="14.00">(230)</text>
</g>
<!-- n236&#45;&gt;n230 -->
<g id="edge1" class="edge">
<title>n236&#45;&gt;n230</title>
<path fill="none" stroke="black" d="M234.76,-287.7C223.6,-279.11 209.94,-268.61 197.76,-259.24"/>
<polygon fill="black" stroke="black" points="200.06,-256.59 190,-253.27 195.79,-262.14 200.06,-256.59"/>
</g>
<!-- n235 -->
<g id="node3" class="node">
<title>n235</title>
<polygon fill="none" stroke="black" points="375.25,-252 321.25,-252 321.25,-216 375.25,-216 375.25,-252"/>
<text text-anchor="middle" x="348.25" y="-228.95" font-family="Times New Roman,serif" font-size="14.00"> post:</text>
<text text-anchor="middle" x="284.12" y="-255.2" font-family="Times New Roman,serif" font-size="14.00">(235)Boolean</text>
</g>
<!-- n236&#45;&gt;n235 -->
<g id="edge2" class="edge">
<title>n236&#45;&gt;n235</title>
<path fill="none" stroke="black" d="M279.74,-287.7C290.9,-279.11 304.56,-268.61 316.74,-259.24"/>
<polygon fill="black" stroke="black" points="318.71,-262.14 324.5,-253.27 314.44,-256.59 318.71,-262.14"/>
</g>
<!-- n234 -->
<g id="node4" class="node">
<title>n234</title>
<polygon fill="none" stroke="black" points="375.25,-180 321.25,-180 321.25,-144 375.25,-144 375.25,-180"/>
<text text-anchor="middle" x="348.25" y="-156.95" font-family="Times New Roman,serif" font-size="14.00">=</text>
<text text-anchor="middle" x="284.12" y="-183.2" font-family="Times New Roman,serif" font-size="14.00">(234)Boolean</text>
</g>
<!-- n235&#45;&gt;n234 -->
<g id="edge3" class="edge">
<title>n235&#45;&gt;n234</title>
<path fill="none" stroke="black" d="M348.25,-215.7C348.25,-208.41 348.25,-199.73 348.25,-191.54"/>
<polygon fill="black" stroke="black" points="351.75,-191.62 348.25,-181.62 344.75,-191.62 351.75,-191.62"/>
</g>
<!-- n231 -->
<g id="node5" class="node">
<title>n231</title>
<polygon fill="none" stroke="black" points="337.25,-108 283.25,-108 283.25,-72 337.25,-72 337.25,-108"/>
<text text-anchor="middle" x="310.25" y="-84.95" font-family="Times New Roman,serif" font-size="14.00">result</text>
<text text-anchor="middle" x="224" y="-111.2" font-family="Times New Roman,serif" font-size="14.00">(231)int[dim1][dim2]</text>
</g>
<!-- n234&#45;&gt;n231 -->
<g id="edge4" class="edge">
<title>n234&#45;&gt;n231</title>
<path fill="none" stroke="black" d="M338.86,-143.7C334.67,-135.98 329.64,-126.71 324.97,-118.11"/>
<polygon fill="black" stroke="black" points="328.1,-116.55 320.26,-109.43 321.95,-119.89 328.1,-116.55"/>
</g>
<!-- n233 -->
<g id="node6" class="node">
<title>n233</title>
<polygon fill="none" stroke="black" points="417.12,-108 355.38,-108 355.38,-72 417.12,-72 417.12,-108"/>
<text text-anchor="middle" x="386.25" y="-84.95" font-family="Times New Roman,serif" font-size="14.00">self.data</text>
<text text-anchor="middle" x="296.12" y="-58.7" font-family="Times New Roman,serif" font-size="14.00">(233)int[dim1][dim2]</text>
</g>
<!-- n234&#45;&gt;n233 -->
<g id="edge5" class="edge">
<title>n234&#45;&gt;n233</title>
<path fill="none" stroke="black" d="M357.64,-143.7C361.83,-135.98 366.86,-126.71 371.53,-118.11"/>
<polygon fill="black" stroke="black" points="374.55,-119.89 376.24,-109.43 368.4,-116.55 374.55,-119.89"/>
</g>
<!-- n232 -->
<g id="node7" class="node">
<title>n232</title>
<polygon fill="none" stroke="black" points="413.25,-36 359.25,-36 359.25,0 413.25,0 413.25,-36"/>
<text text-anchor="middle" x="386.25" y="-12.95" font-family="Times New Roman,serif" font-size="14.00">self</text>
<text text-anchor="middle" x="295.12" y="-39.2" font-family="Times New Roman,serif" font-size="14.00">(232)TwoDimVarArray</text>
</g>
<!-- n233&#45;&gt;n232 -->
<g id="edge6" class="edge">
<title>n233&#45;&gt;n232</title>
<path fill="none" stroke="black" d="M386.25,-71.7C386.25,-64.41 386.25,-55.73 386.25,-47.54"/>
<polygon fill="black" stroke="black" points="389.75,-47.62 386.25,-37.62 382.75,-47.62 389.75,-47.62"/>
</g>
</g>
</svg>
