<?xml version="1.0" encoding="UTF-8" standalone="no"?>
<!DOCTYPE svg PUBLIC "-//W3C//DTD SVG 1.1//EN"
 "http://www.w3.org/Graphics/SVG/1.1/DTD/svg11.dtd">
<!-- Generated by graphviz version 12.2.1 (20241206.2353)
 -->
<!-- Title: AST Pages: 1 -->
<svg width="359pt" height="349pt"
 viewBox="0.00 0.00 358.88 348.50" xmlns="http://www.w3.org/2000/svg" xmlns:xlink="http://www.w3.org/1999/xlink">
<g id="graph0" class="graph" transform="scale(1 1) rotate(0) translate(4 344.5)">
<title>AST</title>
<polygon fill="white" stroke="none" points="-4,4 -4,-344.5 354.88,-344.5 354.88,4 -4,4"/>
<!-- n7 -->
<g id="node1" class="node">
<title>n7</title>
<polygon fill="none" stroke="black" points="327,-324 93.5,-324 93.5,-288 327,-288 327,-324"/>
<text text-anchor="middle" x="210.25" y="-300.95" font-family="Times New Roman,serif" font-size="14.00">ContextDecl: node(1) Context: node (6)</text>
<text text-anchor="middle" x="85.62" y="-327.2" font-family="Times New Roman,serif" font-size="14.00">(7)</text>
</g>
<!-- n1 -->
<g id="node2" class="node">
<title>n1</title>
<polygon fill="none" stroke="black" points="221.88,-252 86.62,-252 86.62,-216 221.88,-216 221.88,-252"/>
<text text-anchor="middle" x="154.25" y="-228.95" font-family="Times New Roman,serif" font-size="14.00">Cube::Cube(node (0))</text>
<text text-anchor="middle" x="78.75" y="-255.2" font-family="Times New Roman,serif" font-size="14.00">(1)</text>
</g>
<!-- n7&#45;&gt;n1 -->
<g id="edge1" class="edge">
<title>n7&#45;&gt;n1</title>
<path fill="none" stroke="black" d="M196.41,-287.7C189.96,-279.64 182.17,-269.89 175.04,-260.98"/>
<polygon fill="black" stroke="black" points="177.86,-258.91 168.88,-253.29 172.39,-263.28 177.86,-258.91"/>
</g>
<!-- n6 -->
<g id="node3" class="node">
<title>n6</title>
<polygon fill="none" stroke="black" points="295.25,-252 241.25,-252 241.25,-216 295.25,-216 295.25,-252"/>
<text text-anchor="middle" x="268.25" y="-228.95" font-family="Times New Roman,serif" font-size="14.00"> post:</text>
<text text-anchor="middle" x="210.88" y="-255.2" font-family="Times New Roman,serif" font-size="14.00">(6)Boolean</text>
</g>
<!-- n7&#45;&gt;n6 -->
<g id="edge2" class="edge">
<title>n7&#45;&gt;n6</title>
<path fill="none" stroke="black" d="M224.59,-287.7C231.33,-279.56 239.51,-269.69 246.95,-260.7"/>
<polygon fill="black" stroke="black" points="249.43,-263.2 253.11,-253.27 244.04,-258.74 249.43,-263.2"/>
</g>
<!-- n0 -->
<g id="node4" class="node">
<title>n0</title>
<polygon fill="none" stroke="black" points="225.25,-180 77.25,-180 77.25,-144 225.25,-144 225.25,-180"/>
<text text-anchor="middle" x="151.25" y="-156.95" font-family="Times New Roman,serif" font-size="14.00">inputArray : int[1][2][4]</text>
<text text-anchor="middle" x="38.62" y="-183.2" font-family="Times New Roman,serif" font-size="14.00">(0)int[1][2][4]</text>
</g>
<!-- n1&#45;&gt;n0 -->
<g id="edge3" class="edge">
<title>n1&#45;&gt;n0</title>
<path fill="none" stroke="black" d="M153.51,-215.7C153.2,-208.41 152.82,-199.73 152.47,-191.54"/>
<polygon fill="black" stroke="black" points="155.97,-191.46 152.05,-181.62 148.98,-191.76 155.97,-191.46"/>
</g>
<!-- n5 -->
<g id="node5" class="node">
<title>n5</title>
<polygon fill="none" stroke="black" points="297.25,-180 243.25,-180 243.25,-144 297.25,-144 297.25,-180"/>
<text text-anchor="middle" x="270.25" y="-156.95" font-family="Times New Roman,serif" font-size="14.00">=</text>
<text text-anchor="middle" x="212.88" y="-183.2" font-family="Times New Roman,serif" font-size="14.00">(5)Boolean</text>
</g>
<!-- n6&#45;&gt;n5 -->
<g id="edge4" class="edge">
<title>n6&#45;&gt;n5</title>
<path fill="none" stroke="black" d="M268.74,-215.7C268.95,-208.41 269.2,-199.73 269.43,-191.54"/>
<polygon fill="black" stroke="black" points="272.93,-191.71 269.72,-181.62 265.93,-191.51 272.93,-191.71"/>
</g>
<!-- n3 -->
<g id="node6" class="node">
<title>n3</title>
<polygon fill="none" stroke="black" points="257.12,-108 195.38,-108 195.38,-72 257.12,-72 257.12,-108"/>
<text text-anchor="middle" x="226.25" y="-84.95" font-family="Times New Roman,serif" font-size="14.00">self.data</text>
<text text-anchor="middle" x="156.75" y="-111.2" font-family="Times New Roman,serif" font-size="14.00">(3)int[1][2][4]</text>
</g>
<!-- n5&#45;&gt;n3 -->
<g id="edge5" class="edge">
<title>n5&#45;&gt;n3</title>
<path fill="none" stroke="black" d="M259.37,-143.7C254.47,-135.9 248.57,-126.51 243.11,-117.83"/>
<polygon fill="black" stroke="black" points="246.09,-115.99 237.81,-109.39 240.17,-119.71 246.09,-115.99"/>
</g>
<!-- n4 -->
<g id="node7" class="node">
<title>n4</title>
<polygon fill="none" stroke="black" points="350.88,-108 275.62,-108 275.62,-72 350.88,-72 350.88,-108"/>
<text text-anchor="middle" x="313.25" y="-84.95" font-family="Times New Roman,serif" font-size="14.00">inputArray</text>
<text text-anchor="middle" x="237" y="-111.2" font-family="Times New Roman,serif" font-size="14.00">(4)int[1][2][4]</text>
</g>
<!-- n5&#45;&gt;n4 -->
<g id="edge6" class="edge">
<title>n5&#45;&gt;n4</title>
<path fill="none" stroke="black" d="M280.88,-143.7C285.67,-135.9 291.44,-126.51 296.77,-117.83"/>
<polygon fill="black" stroke="black" points="299.7,-119.75 301.95,-109.39 293.73,-116.08 299.7,-119.75"/>
</g>
<!-- n2 -->
<g id="node8" class="node">
<title>n2</title>
<polygon fill="none" stroke="black" points="253.25,-36 199.25,-36 199.25,0 253.25,0 253.25,-36"/>
<text text-anchor="middle" x="226.25" y="-12.95" font-family="Times New Roman,serif" font-size="14.00">self</text>
<text text-anchor="middle" x="177.12" y="-39.2" font-family="Times New Roman,serif" font-size="14.00">(2)Cube</text>
</g>
<!-- n3&#45;&gt;n2 -->
<g id="edge7" class="edge">
<title>n3&#45;&gt;n2</title>
<path fill="none" stroke="black" d="M226.25,-71.7C226.25,-64.41 226.25,-55.73 226.25,-47.54"/>
<polygon fill="black" stroke="black" points="229.75,-47.62 226.25,-37.62 222.75,-47.62 229.75,-47.62"/>
</g>
</g>
</svg>
