<?xml version="1.0" encoding="UTF-8" standalone="no"?>
<!DOCTYPE svg PUBLIC "-//W3C//DTD SVG 1.1//EN"
 "http://www.w3.org/Graphics/SVG/1.1/DTD/svg11.dtd">
<!-- Generated by graphviz version 12.2.1 (20241206.2353)
 -->
<!-- Title: CLG Pages: 1 -->
<svg width="738pt" height="1219pt"
 viewBox="0.00 0.00 738.25 1219.20" xmlns="http://www.w3.org/2000/svg" xmlns:xlink="http://www.w3.org/1999/xlink">
<g id="graph0" class="graph" transform="scale(1 1) rotate(0) translate(4 1215.2)">
<title>CLG</title>
<polygon fill="white" stroke="none" points="-4,4 -4,-1215.2 734.25,-1215.2 734.25,4 -4,4"/>
<!-- 96 -->
<g id="node1" class="node">
<title>96</title>
<polygon fill="aquamarine" stroke="black" points="566.62,-789.3 559.42,-782.1 566.62,-774.9 573.83,-782.1 566.62,-789.3"/>
<text text-anchor="middle" x="544.42" y="-792.5" font-family="Times New Roman,serif" font-size="14.00">&lt;96&gt;</text>
</g>
<!-- 66 -->
<g id="node3" class="node">
<title>66</title>
<polygon fill="yellow" stroke="black" points="537.38,-722.4 393.88,-722.4 393.88,-686.4 537.38,-686.4 537.38,-722.4"/>
<text text-anchor="middle" x="465.62" y="-699.35" font-family="Times New Roman,serif" font-size="14.00">Index0 &lt;= dim1 &#45; 1+ 1</text>
<text text-anchor="middle" x="382.62" y="-725.6" font-family="Times New Roman,serif" font-size="14.00">[66]</text>
</g>
<!-- 96&#45;&gt;66 -->
<g id="edge5" class="edge">
<title>96&#45;&gt;66</title>
<path fill="none" stroke="black" d="M560.44,-780.67C546.58,-779.42 512.63,-774.61 491.88,-756.9 484.47,-750.58 478.9,-741.65 474.85,-733"/>
<polygon fill="black" stroke="black" points="478.11,-731.73 471.07,-723.81 471.64,-734.39 478.11,-731.73"/>
<text text-anchor="middle" x="522.25" y="-743.6" font-family="Times New Roman,serif" font-size="14.00">iterate#100</text>
</g>
<!-- 63 -->
<g id="node19" class="node">
<title>63</title>
<polygon fill="yellow" stroke="black" points="730.25,-722.4 595,-722.4 595,-686.4 730.25,-686.4 730.25,-722.4"/>
<text text-anchor="middle" x="662.62" y="-699.35" font-family="Times New Roman,serif" font-size="14.00">Index0 &gt; dim1 &#45; 1+ 1</text>
<text text-anchor="middle" x="583.75" y="-725.6" font-family="Times New Roman,serif" font-size="14.00">[63]</text>
</g>
<!-- 96&#45;&gt;63 -->
<g id="edge7" class="edge">
<title>96&#45;&gt;63</title>
<path fill="none" stroke="black" d="M570.27,-778.22C580.26,-770.34 608.86,-747.79 631.62,-729.85"/>
<polygon fill="black" stroke="black" points="633.75,-732.63 639.43,-723.69 629.42,-727.13 633.75,-732.63"/>
<text text-anchor="middle" x="658" y="-743.6" font-family="Times New Roman,serif" font-size="14.00">graphAnd#103</text>
</g>
<!-- 64 -->
<g id="node2" class="node">
<title>64</title>
<ellipse fill="black" stroke="black" cx="662.62" cy="-615.9" rx="7.2" ry="7.2"/>
<ellipse fill="none" stroke="black" cx="662.62" cy="-615.9" rx="11.2" ry="11.2"/>
<text text-anchor="middle" x="641.3" y="-630.3" font-family="Times New Roman,serif" font-size="14.00">[&#45;1]</text>
</g>
<!-- 69 -->
<g id="node4" class="node">
<title>69</title>
<polygon fill="yellow" stroke="black" points="537.25,-633.9 390,-633.9 390,-597.9 537.25,-597.9 537.25,-633.9"/>
<text text-anchor="middle" x="463.62" y="-610.85" font-family="Times New Roman,serif" font-size="14.00">it = Sequence{1..dim1}</text>
<text text-anchor="middle" x="378.75" y="-637.1" font-family="Times New Roman,serif" font-size="14.00">[69]</text>
</g>
<!-- 66&#45;&gt;69 -->
<g id="edge1" class="edge">
<title>66&#45;&gt;69</title>
<path fill="none" stroke="black" d="M465.23,-686.31C464.96,-674.66 464.6,-658.95 464.28,-645.42"/>
<polygon fill="black" stroke="black" points="467.79,-645.68 464.06,-635.76 460.79,-645.84 467.79,-645.68"/>
<text text-anchor="middle" x="501.93" y="-655.1" font-family="Times New Roman,serif" font-size="14.00">graphAnd#96</text>
</g>
<!-- 75 -->
<g id="node6" class="node">
<title>75</title>
<polygon fill="yellow" stroke="black" points="456.38,-545.4 378.88,-545.4 378.88,-509.4 456.38,-509.4 456.38,-545.4"/>
<text text-anchor="middle" x="417.62" y="-522.35" font-family="Times New Roman,serif" font-size="14.00">acc2 = true</text>
<text text-anchor="middle" x="367.62" y="-548.6" font-family="Times New Roman,serif" font-size="14.00">[75]</text>
</g>
<!-- 69&#45;&gt;75 -->
<g id="edge2" class="edge">
<title>69&#45;&gt;75</title>
<path fill="none" stroke="black" d="M454.54,-597.81C448.15,-585.8 439.48,-569.49 432.14,-555.7"/>
<polygon fill="black" stroke="black" points="435.35,-554.27 427.56,-547.09 429.17,-557.56 435.35,-554.27"/>
<text text-anchor="middle" x="481.87" y="-566.6" font-family="Times New Roman,serif" font-size="14.00">graphAnd#97</text>
</g>
<!-- 72 -->
<g id="node5" class="node">
<title>72</title>
<polygon fill="yellow" stroke="black" points="422.62,-456.9 346.62,-456.9 346.62,-420.9 422.62,-420.9 422.62,-456.9"/>
<text text-anchor="middle" x="384.62" y="-433.85" font-family="Times New Roman,serif" font-size="14.00">Index1 = 1</text>
<text text-anchor="middle" x="335.38" y="-460.1" font-family="Times New Roman,serif" font-size="14.00">[72]</text>
</g>
<!-- 92 -->
<g id="node17" class="node">
<title>92</title>
<polygon fill="aquamarine" stroke="black" points="375.62,-368.4 368.43,-361.2 375.62,-354 382.82,-361.2 375.62,-368.4"/>
<text text-anchor="middle" x="353.43" y="-371.6" font-family="Times New Roman,serif" font-size="14.00">&lt;92&gt;</text>
</g>
<!-- 72&#45;&gt;92 -->
<g id="edge19" class="edge">
<title>72&#45;&gt;92</title>
<path fill="none" stroke="black" d="M382.58,-420.72C381.12,-408.42 379.16,-391.92 377.69,-379.57"/>
<polygon fill="black" stroke="black" points="381.17,-379.22 376.52,-369.71 374.22,-380.05 381.17,-379.22"/>
<text text-anchor="middle" x="417.52" y="-389.6" font-family="Times New Roman,serif" font-size="14.00">graphAnd#93</text>
</g>
<!-- 75&#45;&gt;72 -->
<g id="edge10" class="edge">
<title>75&#45;&gt;72</title>
<path fill="none" stroke="black" d="M411.11,-509.31C406.57,-497.42 400.42,-481.31 395.19,-467.6"/>
<polygon fill="black" stroke="black" points="398.62,-466.76 391.78,-458.66 392.08,-469.26 398.62,-466.76"/>
<text text-anchor="middle" x="441.21" y="-478.1" font-family="Times New Roman,serif" font-size="14.00">graphAnd#74</text>
</g>
<!-- 78 -->
<g id="node7" class="node">
<title>78</title>
<polygon fill="yellow" stroke="black" points="538.25,-301.5 403,-301.5 403,-265.5 538.25,-265.5 538.25,-301.5"/>
<text text-anchor="middle" x="470.62" y="-278.45" font-family="Times New Roman,serif" font-size="14.00">Index1 &gt; dim2 &#45; 1+ 1</text>
<text text-anchor="middle" x="391.75" y="-304.7" font-family="Times New Roman,serif" font-size="14.00">[78]</text>
</g>
<!-- 94 -->
<g id="node18" class="node">
<title>94</title>
<polygon fill="yellow" stroke="black" points="604.25,-213 475,-213 475,-177 604.25,-177 604.25,-213"/>
<text text-anchor="middle" x="539.62" y="-189.95" font-family="Times New Roman,serif" font-size="14.00">Index0 = Index0 + 1</text>
<text text-anchor="middle" x="463.75" y="-216.2" font-family="Times New Roman,serif" font-size="14.00">[94]</text>
</g>
<!-- 78&#45;&gt;94 -->
<g id="edge4" class="edge">
<title>78&#45;&gt;94</title>
<path fill="none" stroke="black" d="M469.56,-265.37C469.73,-254.64 471.53,-241 478.38,-231 481.1,-227.02 484.44,-223.44 488.13,-220.22"/>
<polygon fill="black" stroke="black" points="490.16,-223.08 496.07,-214.29 485.97,-217.47 490.16,-223.08"/>
<text text-anchor="middle" x="515.5" y="-234.2" font-family="Times New Roman,serif" font-size="14.00">graphAnd#98</text>
</g>
<!-- 81 -->
<g id="node8" class="node">
<title>81</title>
<polygon fill="yellow" stroke="black" points="340.38,-301.5 196.88,-301.5 196.88,-265.5 340.38,-265.5 340.38,-301.5"/>
<text text-anchor="middle" x="268.62" y="-278.45" font-family="Times New Roman,serif" font-size="14.00">Index1 &lt;= dim2 &#45; 1+ 1</text>
<text text-anchor="middle" x="185.62" y="-304.7" font-family="Times New Roman,serif" font-size="14.00">[81]</text>
</g>
<!-- 84 -->
<g id="node11" class="node">
<title>84</title>
<polygon fill="yellow" stroke="black" points="294.62,-213 140.62,-213 140.62,-177 294.62,-177 294.62,-213"/>
<text text-anchor="middle" x="217.62" y="-189.95" font-family="Times New Roman,serif" font-size="14.00">it2 = Sequence{1..dim2}</text>
<text text-anchor="middle" x="129.38" y="-216.2" font-family="Times New Roman,serif" font-size="14.00">[84]</text>
</g>
<!-- 81&#45;&gt;84 -->
<g id="edge11" class="edge">
<title>81&#45;&gt;84</title>
<path fill="none" stroke="black" d="M258.55,-265.41C251.4,-253.29 241.66,-236.77 233.48,-222.89"/>
<polygon fill="black" stroke="black" points="236.72,-221.49 228.62,-214.65 230.69,-225.05 236.72,-221.49"/>
<text text-anchor="middle" x="284.82" y="-234.2" font-family="Times New Roman,serif" font-size="14.00">graphAnd#85</text>
</g>
<!-- 50 -->
<g id="node9" class="node">
<title>50</title>
<ellipse fill="black" stroke="black" cx="566.62" cy="-1187.5" rx="7.2" ry="7.2"/>
<text text-anchor="middle" x="551.55" y="-1197.9" font-family="Times New Roman,serif" font-size="14.00">[0]</text>
</g>
<!-- 51 -->
<g id="node10" class="node">
<title>51</title>
<polygon fill="yellow" stroke="black" points="683.38,-1143.3 449.88,-1143.3 449.88,-1107.3 683.38,-1107.3 683.38,-1143.3"/>
<text text-anchor="middle" x="566.62" y="-1120.25" font-family="Times New Roman,serif" font-size="14.00">dim1 = arg.datas.getDimensionSizes(1)</text>
<text text-anchor="middle" x="438.62" y="-1146.5" font-family="Times New Roman,serif" font-size="14.00">[51]</text>
</g>
<!-- 50&#45;&gt;51 -->
<g id="edge12" class="edge">
<title>50&#45;&gt;51</title>
<path fill="none" stroke="black" d="M566.62,-1180.06C566.62,-1174 566.62,-1164.49 566.62,-1155.14"/>
<polygon fill="black" stroke="black" points="570.13,-1155.18 566.63,-1145.18 563.13,-1155.18 570.13,-1155.18"/>
</g>
<!-- 54 -->
<g id="node12" class="node">
<title>54</title>
<polygon fill="yellow" stroke="black" points="683.38,-1054.8 449.88,-1054.8 449.88,-1018.8 683.38,-1018.8 683.38,-1054.8"/>
<text text-anchor="middle" x="566.62" y="-1031.75" font-family="Times New Roman,serif" font-size="14.00">dim2 = arg.datas.getDimensionSizes(2)</text>
<text text-anchor="middle" x="438.62" y="-1058" font-family="Times New Roman,serif" font-size="14.00">[54]</text>
</g>
<!-- 51&#45;&gt;54 -->
<g id="edge16" class="edge">
<title>51&#45;&gt;54</title>
<path fill="none" stroke="black" d="M566.62,-1107.21C566.62,-1095.56 566.62,-1079.85 566.62,-1066.32"/>
<polygon fill="black" stroke="black" points="570.13,-1066.66 566.63,-1056.66 563.13,-1066.66 570.13,-1066.66"/>
<text text-anchor="middle" x="603.75" y="-1076" font-family="Times New Roman,serif" font-size="14.00">graphAnd#58</text>
</g>
<!-- 87 -->
<g id="node13" class="node">
<title>87</title>
<polygon fill="yellow" stroke="black" points="346.75,-124.5 22.5,-124.5 22.5,-88.5 346.75,-88.5 346.75,-124.5"/>
<text text-anchor="middle" x="184.62" y="-101.45" font-family="Times New Roman,serif" font-size="14.00">result.datas[it][it2] = self.datas[it][it2] &#45; arg.datas[it][it2]</text>
<text text-anchor="middle" x="11.25" y="-127.7" font-family="Times New Roman,serif" font-size="14.00">[87]</text>
</g>
<!-- 84&#45;&gt;87 -->
<g id="edge13" class="edge">
<title>84&#45;&gt;87</title>
<path fill="none" stroke="black" d="M211.11,-176.91C206.57,-165.02 200.42,-148.91 195.19,-135.2"/>
<polygon fill="black" stroke="black" points="198.62,-134.36 191.78,-126.26 192.08,-136.86 198.62,-134.36"/>
<text text-anchor="middle" x="241.21" y="-145.7" font-family="Times New Roman,serif" font-size="14.00">graphAnd#86</text>
</g>
<!-- 60 -->
<g id="node16" class="node">
<title>60</title>
<polygon fill="yellow" stroke="black" points="602,-966.3 531.25,-966.3 531.25,-930.3 602,-930.3 602,-966.3"/>
<text text-anchor="middle" x="566.62" y="-943.25" font-family="Times New Roman,serif" font-size="14.00">acc = true</text>
<text text-anchor="middle" x="520" y="-969.5" font-family="Times New Roman,serif" font-size="14.00">[60]</text>
</g>
<!-- 54&#45;&gt;60 -->
<g id="edge9" class="edge">
<title>54&#45;&gt;60</title>
<path fill="none" stroke="black" d="M566.62,-1018.71C566.62,-1007.06 566.62,-991.35 566.62,-977.82"/>
<polygon fill="black" stroke="black" points="570.13,-978.16 566.63,-968.16 563.13,-978.16 570.13,-978.16"/>
<text text-anchor="middle" x="607.12" y="-987.5" font-family="Times New Roman,serif" font-size="14.00">graphAnd#105</text>
</g>
<!-- 90 -->
<g id="node15" class="node">
<title>90</title>
<polygon fill="yellow" stroke="black" points="344.25,-36 215,-36 215,0 344.25,0 344.25,-36"/>
<text text-anchor="middle" x="279.62" y="-12.95" font-family="Times New Roman,serif" font-size="14.00">Index1 = Index1 + 1</text>
<text text-anchor="middle" x="203.75" y="-39.2" font-family="Times New Roman,serif" font-size="14.00">[90]</text>
</g>
<!-- 87&#45;&gt;90 -->
<g id="edge14" class="edge">
<title>87&#45;&gt;90</title>
<path fill="none" stroke="black" d="M203.39,-88.41C217.36,-75.7 236.62,-58.16 252.29,-43.89"/>
<polygon fill="black" stroke="black" points="254.41,-46.69 259.45,-37.37 249.7,-41.51 254.41,-46.69"/>
<text text-anchor="middle" x="277.76" y="-57.2" font-family="Times New Roman,serif" font-size="14.00">graphAnd#87</text>
</g>
<!-- 57 -->
<g id="node14" class="node">
<title>57</title>
<polygon fill="yellow" stroke="black" points="604.62,-877.8 528.62,-877.8 528.62,-841.8 604.62,-841.8 604.62,-877.8"/>
<text text-anchor="middle" x="566.62" y="-854.75" font-family="Times New Roman,serif" font-size="14.00">Index0 = 1</text>
<text text-anchor="middle" x="517.38" y="-881" font-family="Times New Roman,serif" font-size="14.00">[57]</text>
</g>
<!-- 57&#45;&gt;96 -->
<g id="edge8" class="edge">
<title>57&#45;&gt;96</title>
<path fill="none" stroke="black" d="M566.62,-841.62C566.62,-829.58 566.62,-813.5 566.62,-801.25"/>
<polygon fill="black" stroke="black" points="570.13,-801.34 566.63,-791.34 563.13,-801.34 570.13,-801.34"/>
<text text-anchor="middle" x="607.12" y="-810.5" font-family="Times New Roman,serif" font-size="14.00">graphAnd#104</text>
</g>
<!-- 90&#45;&gt;92 -->
<g id="edge17" class="edge">
<title>90&#45;&gt;92</title>
<path fill="none" stroke="black" d="M319.64,-36.49C345.6,-50.84 374.62,-73.94 374.62,-105.5 374.62,-284.5 374.62,-284.5 374.62,-284.5 374.62,-304.22 374.97,-326.83 375.25,-342.17"/>
<polygon fill="black" stroke="black" points="371.75,-342.07 375.45,-352 378.75,-341.94 371.75,-342.07"/>
<text text-anchor="middle" x="401.62" y="-189.95" font-family="Times New Roman,serif" font-size="14.00">iterate#90</text>
</g>
<!-- 60&#45;&gt;57 -->
<g id="edge20" class="edge">
<title>60&#45;&gt;57</title>
<path fill="none" stroke="black" d="M566.62,-930.21C566.62,-918.56 566.62,-902.85 566.62,-889.32"/>
<polygon fill="black" stroke="black" points="570.13,-889.66 566.63,-879.66 563.13,-889.66 570.13,-889.66"/>
<text text-anchor="middle" x="603.75" y="-899" font-family="Times New Roman,serif" font-size="14.00">graphAnd#63</text>
</g>
<!-- 92&#45;&gt;78 -->
<g id="edge18" class="edge">
<title>92&#45;&gt;78</title>
<path fill="none" stroke="black" d="M379.23,-357.32C389.12,-349.44 417.42,-326.89 439.94,-308.95"/>
<polygon fill="black" stroke="black" points="442.03,-311.76 447.67,-302.79 437.67,-306.29 442.03,-311.76"/>
<text text-anchor="middle" x="463.1" y="-322.7" font-family="Times New Roman,serif" font-size="14.00">graphAnd#92</text>
</g>
<!-- 92&#45;&gt;81 -->
<g id="edge15" class="edge">
<title>92&#45;&gt;81</title>
<path fill="none" stroke="black" d="M369.72,-359.34C357.06,-357.24 326.84,-350.93 306.62,-336 297.79,-329.48 290.12,-320.32 284.02,-311.53"/>
<polygon fill="black" stroke="black" points="287.01,-309.7 278.65,-303.19 281.13,-313.49 287.01,-309.7"/>
<text text-anchor="middle" x="333.62" y="-322.7" font-family="Times New Roman,serif" font-size="14.00">iterate#89</text>
</g>
<!-- 94&#45;&gt;96 -->
<g id="edge6" class="edge">
<title>94&#45;&gt;96</title>
<path fill="none" stroke="black" d="M548.47,-213.4C556.34,-230.52 566.62,-257.64 566.62,-282.5 566.62,-705.4 566.62,-705.4 566.62,-705.4 566.62,-725.12 566.62,-747.73 566.62,-763.07"/>
<polygon fill="black" stroke="black" points="563.13,-762.9 566.63,-772.9 570.13,-762.9 563.13,-762.9"/>
<text text-anchor="middle" x="597" y="-478.1" font-family="Times New Roman,serif" font-size="14.00">iterate#101</text>
</g>
<!-- 63&#45;&gt;64 -->
<g id="edge3" class="edge">
<title>63&#45;&gt;64</title>
<path fill="none" stroke="black" d="M662.62,-686.31C662.62,-672.62 662.62,-653.32 662.62,-638.55"/>
<polygon fill="black" stroke="black" points="666.13,-638.94 662.63,-628.94 659.13,-638.94 666.13,-638.94"/>
</g>
</g>
</svg>
