<?xml version="1.0" encoding="UTF-8" standalone="no"?>
<!DOCTYPE svg PUBLIC "-//W3C//DTD SVG 1.1//EN"
 "http://www.w3.org/Graphics/SVG/1.1/DTD/svg11.dtd">
<!-- Generated by graphviz version 12.2.1 (20241206.2353)
 -->
<!-- Title: CLG Pages: 1 -->
<svg width="685pt" height="1012pt"
 viewBox="0.00 0.00 685.25 1012.40" xmlns="http://www.w3.org/2000/svg" xmlns:xlink="http://www.w3.org/1999/xlink">
<g id="graph0" class="graph" transform="scale(1 1) rotate(0) translate(4 1008.4)">
<title>CLG</title>
<polygon fill="white" stroke="none" points="-4,4 -4,-1008.4 681.25,-1008.4 681.25,4 -4,4"/>
<!-- 34 -->
<g id="node1" class="node">
<title>34</title>
<polygon fill="yellow" stroke="black" points="398.5,-987.9 268.5,-987.9 268.5,-951.9 398.5,-951.9 398.5,-987.9"/>
<text text-anchor="middle" x="333.5" y="-964.85" font-family="Times New Roman,serif" font-size="14.00">idx1 &lt;= dim2 &#45; 1+ 1</text>
<text text-anchor="middle" x="257.25" y="-991.1" font-family="Times New Roman,serif" font-size="14.00">[34]</text>
</g>
<!-- 37 -->
<g id="node4" class="node">
<title>37</title>
<polygon fill="yellow" stroke="black" points="334.5,-899.4 180.5,-899.4 180.5,-863.4 334.5,-863.4 334.5,-899.4"/>
<text text-anchor="middle" x="257.5" y="-876.35" font-family="Times New Roman,serif" font-size="14.00">it2 = Sequence{1..dim2}</text>
<text text-anchor="middle" x="169.25" y="-902.6" font-family="Times New Roman,serif" font-size="14.00">[37]</text>
</g>
<!-- 34&#45;&gt;37 -->
<g id="edge1" class="edge">
<title>34&#45;&gt;37</title>
<path fill="none" stroke="black" d="M315.14,-951.5C309.58,-946 303.54,-939.82 298.25,-933.9 291.08,-925.87 283.65,-916.75 277.13,-908.45"/>
<polygon fill="black" stroke="black" points="280.03,-906.48 271.15,-900.71 274.5,-910.76 280.03,-906.48"/>
<text text-anchor="middle" x="335.38" y="-920.6" font-family="Times New Roman,serif" font-size="14.00">graphAnd#33</text>
</g>
<!-- 3 -->
<g id="node2" class="node">
<title>3</title>
<ellipse fill="black" stroke="black" cx="560.5" cy="-792.9" rx="7.2" ry="7.2"/>
<text text-anchor="middle" x="545.42" y="-803.3" font-family="Times New Roman,serif" font-size="14.00">[0]</text>
</g>
<!-- 4 -->
<g id="node3" class="node">
<title>4</title>
<polygon fill="yellow" stroke="black" points="677.25,-722.4 443.75,-722.4 443.75,-686.4 677.25,-686.4 677.25,-722.4"/>
<text text-anchor="middle" x="560.5" y="-699.35" font-family="Times New Roman,serif" font-size="14.00">dim1 = arg.datas.getDimensionSizes(1)</text>
<text text-anchor="middle" x="435.88" y="-725.6" font-family="Times New Roman,serif" font-size="14.00">[4]</text>
</g>
<!-- 3&#45;&gt;4 -->
<g id="edge2" class="edge">
<title>3&#45;&gt;4</title>
<path fill="none" stroke="black" d="M560.5,-785.4C560.5,-774.57 560.5,-752.22 560.5,-733.88"/>
<polygon fill="black" stroke="black" points="564,-734.09 560.5,-724.09 557,-734.09 564,-734.09"/>
</g>
<!-- 7 -->
<g id="node5" class="node">
<title>7</title>
<polygon fill="yellow" stroke="black" points="677.25,-633.9 443.75,-633.9 443.75,-597.9 677.25,-597.9 677.25,-633.9"/>
<text text-anchor="middle" x="560.5" y="-610.85" font-family="Times New Roman,serif" font-size="14.00">dim2 = arg.datas.getDimensionSizes(2)</text>
<text text-anchor="middle" x="435.88" y="-637.1" font-family="Times New Roman,serif" font-size="14.00">[7]</text>
</g>
<!-- 4&#45;&gt;7 -->
<g id="edge6" class="edge">
<title>4&#45;&gt;7</title>
<path fill="none" stroke="black" d="M560.5,-686.31C560.5,-674.66 560.5,-658.95 560.5,-645.42"/>
<polygon fill="black" stroke="black" points="564,-645.76 560.5,-635.76 557,-645.76 564,-645.76"/>
<text text-anchor="middle" x="594.25" y="-655.1" font-family="Times New Roman,serif" font-size="14.00">graphAnd#6</text>
</g>
<!-- 40 -->
<g id="node6" class="node">
<title>40</title>
<polygon fill="yellow" stroke="black" points="350.5,-810.9 22.5,-810.9 22.5,-774.9 350.5,-774.9 350.5,-810.9"/>
<text text-anchor="middle" x="186.5" y="-787.85" font-family="Times New Roman,serif" font-size="14.00">result.datas[it][it2] = self.datas[it][it2] + arg.datas[it][it2]</text>
<text text-anchor="middle" x="11.25" y="-814.1" font-family="Times New Roman,serif" font-size="14.00">[40]</text>
</g>
<!-- 37&#45;&gt;40 -->
<g id="edge3" class="edge">
<title>37&#45;&gt;40</title>
<path fill="none" stroke="black" d="M243.47,-863.31C233.33,-850.95 219.44,-834.03 207.91,-819.98"/>
<polygon fill="black" stroke="black" points="210.75,-817.93 201.7,-812.42 205.34,-822.37 210.75,-817.93"/>
<text text-anchor="middle" x="265.48" y="-832.1" font-family="Times New Roman,serif" font-size="14.00">graphAnd#34</text>
</g>
<!-- 13 -->
<g id="node9" class="node">
<title>13</title>
<polygon fill="yellow" stroke="black" points="595.88,-545.4 525.12,-545.4 525.12,-509.4 595.88,-509.4 595.88,-545.4"/>
<text text-anchor="middle" x="560.5" y="-522.35" font-family="Times New Roman,serif" font-size="14.00">acc = true</text>
<text text-anchor="middle" x="513.88" y="-548.6" font-family="Times New Roman,serif" font-size="14.00">[13]</text>
</g>
<!-- 7&#45;&gt;13 -->
<g id="edge19" class="edge">
<title>7&#45;&gt;13</title>
<path fill="none" stroke="black" d="M560.5,-597.81C560.5,-586.16 560.5,-570.45 560.5,-556.92"/>
<polygon fill="black" stroke="black" points="564,-557.26 560.5,-547.26 557,-557.26 564,-557.26"/>
<text text-anchor="middle" x="597.62" y="-566.6" font-family="Times New Roman,serif" font-size="14.00">graphAnd#53</text>
</g>
<!-- 43 -->
<g id="node8" class="node">
<title>43</title>
<polygon fill="yellow" stroke="black" points="298.62,-722.4 196.38,-722.4 196.38,-686.4 298.62,-686.4 298.62,-722.4"/>
<text text-anchor="middle" x="247.5" y="-699.35" font-family="Times New Roman,serif" font-size="14.00">idx1 = idx1 + 1</text>
<text text-anchor="middle" x="185.12" y="-725.6" font-family="Times New Roman,serif" font-size="14.00">[43]</text>
</g>
<!-- 40&#45;&gt;43 -->
<g id="edge4" class="edge">
<title>40&#45;&gt;43</title>
<path fill="none" stroke="black" d="M198.55,-774.81C207.18,-762.57 218.98,-745.85 228.82,-731.89"/>
<polygon fill="black" stroke="black" points="231.49,-734.18 234.39,-723.99 225.77,-730.14 231.49,-734.18"/>
<text text-anchor="middle" x="259.59" y="-743.6" font-family="Times New Roman,serif" font-size="14.00">graphAnd#35</text>
</g>
<!-- 10 -->
<g id="node7" class="node">
<title>10</title>
<polygon fill="yellow" stroke="black" points="589.75,-456.9 527.25,-456.9 527.25,-420.9 589.75,-420.9 589.75,-456.9"/>
<text text-anchor="middle" x="558.5" y="-433.85" font-family="Times New Roman,serif" font-size="14.00">idx0 = 1</text>
<text text-anchor="middle" x="516" y="-460.1" font-family="Times New Roman,serif" font-size="14.00">[10]</text>
</g>
<!-- 49 -->
<g id="node13" class="node">
<title>49</title>
<polygon fill="aquamarine" stroke="black" points="519.5,-368.4 512.3,-361.2 519.5,-354 526.7,-361.2 519.5,-368.4"/>
<text text-anchor="middle" x="497.3" y="-371.6" font-family="Times New Roman,serif" font-size="14.00">&lt;49&gt;</text>
</g>
<!-- 10&#45;&gt;49 -->
<g id="edge18" class="edge">
<title>10&#45;&gt;49</title>
<path fill="none" stroke="black" d="M549.65,-420.72C542.77,-407.37 533.34,-389.06 526.87,-376.5"/>
<polygon fill="black" stroke="black" points="530.13,-375.19 522.44,-367.91 523.91,-378.4 530.13,-375.19"/>
<text text-anchor="middle" x="577.29" y="-389.6" font-family="Times New Roman,serif" font-size="14.00">graphAnd#52</text>
</g>
<!-- 45 -->
<g id="node10" class="node">
<title>45</title>
<polygon fill="aquamarine" stroke="black" points="371.5,-623.1 364.3,-615.9 371.5,-608.7 378.7,-615.9 371.5,-623.1"/>
<text text-anchor="middle" x="349.3" y="-626.3" font-family="Times New Roman,serif" font-size="14.00">&lt;45&gt;</text>
</g>
<!-- 43&#45;&gt;45 -->
<g id="edge7" class="edge">
<title>43&#45;&gt;45</title>
<path fill="none" stroke="black" d="M270.98,-685.97C284.72,-675.87 302.47,-663 318.5,-651.9 331.68,-642.77 346.99,-632.72 357.75,-625.74"/>
<polygon fill="black" stroke="black" points="359.56,-628.74 366.06,-620.38 355.76,-622.86 359.56,-628.74"/>
<text text-anchor="middle" x="345.5" y="-655.1" font-family="Times New Roman,serif" font-size="14.00">iterate#38</text>
</g>
<!-- 13&#45;&gt;10 -->
<g id="edge10" class="edge">
<title>13&#45;&gt;10</title>
<path fill="none" stroke="black" d="M560.1,-509.31C559.84,-497.66 559.47,-481.95 559.16,-468.42"/>
<polygon fill="black" stroke="black" points="562.67,-468.68 558.94,-458.76 555.67,-468.84 562.67,-468.68"/>
<text text-anchor="middle" x="596.8" y="-478.1" font-family="Times New Roman,serif" font-size="14.00">graphAnd#11</text>
</g>
<!-- 45&#45;&gt;34 -->
<g id="edge5" class="edge">
<title>45&#45;&gt;34</title>
<path fill="none" stroke="black" d="M372.99,-621.92C376.79,-635.12 386.5,-672 386.5,-703.4 386.5,-882.4 386.5,-882.4 386.5,-882.4 386.5,-906.12 384.95,-913.71 372.5,-933.9 370.43,-937.25 367.95,-940.48 365.25,-943.51"/>
<polygon fill="black" stroke="black" points="362.89,-940.92 358.3,-950.47 367.84,-945.87 362.89,-940.92"/>
<text text-anchor="middle" x="413.5" y="-787.85" font-family="Times New Roman,serif" font-size="14.00">iterate#37</text>
</g>
<!-- 31 -->
<g id="node19" class="node">
<title>31</title>
<polygon fill="yellow" stroke="black" points="507.38,-545.4 385.62,-545.4 385.62,-509.4 507.38,-509.4 507.38,-545.4"/>
<text text-anchor="middle" x="446.5" y="-522.35" font-family="Times New Roman,serif" font-size="14.00">idx1 &gt; dim2 &#45; 1+ 1</text>
<text text-anchor="middle" x="374.38" y="-548.6" font-family="Times New Roman,serif" font-size="14.00">[31]</text>
</g>
<!-- 45&#45;&gt;31 -->
<g id="edge8" class="edge">
<title>45&#45;&gt;31</title>
<path fill="none" stroke="black" d="M374.35,-611.61C382.45,-602.27 406.2,-574.88 424.26,-554.06"/>
<polygon fill="black" stroke="black" points="426.69,-556.59 430.59,-546.75 421.4,-552.01 426.69,-556.59"/>
<text text-anchor="middle" x="452.84" y="-566.6" font-family="Times New Roman,serif" font-size="14.00">graphAnd#40</text>
</g>
<!-- 47 -->
<g id="node11" class="node">
<title>47</title>
<polygon fill="yellow" stroke="black" points="502.62,-456.9 400.38,-456.9 400.38,-420.9 502.62,-420.9 502.62,-456.9"/>
<text text-anchor="middle" x="451.5" y="-433.85" font-family="Times New Roman,serif" font-size="14.00">idx0 = idx0 + 1</text>
<text text-anchor="middle" x="389.12" y="-460.1" font-family="Times New Roman,serif" font-size="14.00">[47]</text>
</g>
<!-- 47&#45;&gt;49 -->
<g id="edge16" class="edge">
<title>47&#45;&gt;49</title>
<path fill="none" stroke="black" d="M456.11,-420.51C459.69,-409.67 465.57,-396.01 474.5,-386.4 482.48,-377.82 494.2,-371.65 503.69,-367.69"/>
<polygon fill="black" stroke="black" points="504.78,-371.02 512.94,-364.26 502.34,-364.45 504.78,-371.02"/>
<text text-anchor="middle" x="501.5" y="-389.6" font-family="Times New Roman,serif" font-size="14.00">iterate#49</text>
</g>
<!-- 16 -->
<g id="node12" class="node">
<title>16</title>
<polygon fill="yellow" stroke="black" points="664.38,-301.5 542.62,-301.5 542.62,-265.5 664.38,-265.5 664.38,-301.5"/>
<text text-anchor="middle" x="603.5" y="-278.45" font-family="Times New Roman,serif" font-size="14.00">idx0 &gt; dim1 &#45; 1+ 1</text>
<text text-anchor="middle" x="531.38" y="-304.7" font-family="Times New Roman,serif" font-size="14.00">[16]</text>
</g>
<!-- 17 -->
<g id="node14" class="node">
<title>17</title>
<ellipse fill="black" stroke="black" cx="603.5" cy="-195" rx="7.2" ry="7.2"/>
<ellipse fill="none" stroke="black" cx="603.5" cy="-195" rx="11.2" ry="11.2"/>
<text text-anchor="middle" x="582.17" y="-209.4" font-family="Times New Roman,serif" font-size="14.00">[&#45;1]</text>
</g>
<!-- 16&#45;&gt;17 -->
<g id="edge13" class="edge">
<title>16&#45;&gt;17</title>
<path fill="none" stroke="black" d="M603.5,-265.41C603.5,-251.72 603.5,-232.42 603.5,-217.65"/>
<polygon fill="black" stroke="black" points="607,-218.04 603.5,-208.04 600,-218.04 607,-218.04"/>
</g>
<!-- 49&#45;&gt;16 -->
<g id="edge17" class="edge">
<title>49&#45;&gt;16</title>
<path fill="none" stroke="black" d="M523.88,-358.04C531.4,-354.2 547.08,-345.7 558.5,-336 567.37,-328.47 576.04,-319.16 583.36,-310.54"/>
<polygon fill="black" stroke="black" points="585.85,-313.02 589.5,-303.07 580.45,-308.57 585.85,-313.02"/>
<text text-anchor="middle" x="611.79" y="-322.7" font-family="Times New Roman,serif" font-size="14.00">graphAnd#51</text>
</g>
<!-- 19 -->
<g id="node15" class="node">
<title>19</title>
<polygon fill="yellow" stroke="black" points="524.5,-301.5 394.5,-301.5 394.5,-265.5 524.5,-265.5 524.5,-301.5"/>
<text text-anchor="middle" x="459.5" y="-278.45" font-family="Times New Roman,serif" font-size="14.00">idx0 &lt;= dim1 &#45; 1+ 1</text>
<text text-anchor="middle" x="383.25" y="-304.7" font-family="Times New Roman,serif" font-size="14.00">[19]</text>
</g>
<!-- 49&#45;&gt;19 -->
<g id="edge15" class="edge">
<title>49&#45;&gt;19</title>
<path fill="none" stroke="black" d="M516.61,-356.55C510.13,-348.38 493.97,-327.99 480.49,-310.98"/>
<polygon fill="black" stroke="black" points="483.24,-308.82 474.29,-303.16 477.76,-313.17 483.24,-308.82"/>
<text text-anchor="middle" x="527.09" y="-322.7" font-family="Times New Roman,serif" font-size="14.00">iterate#48</text>
</g>
<!-- 22 -->
<g id="node16" class="node">
<title>22</title>
<polygon fill="yellow" stroke="black" points="533.12,-213 385.88,-213 385.88,-177 533.12,-177 533.12,-213"/>
<text text-anchor="middle" x="459.5" y="-189.95" font-family="Times New Roman,serif" font-size="14.00">it = Sequence{1..dim1}</text>
<text text-anchor="middle" x="374.62" y="-216.2" font-family="Times New Roman,serif" font-size="14.00">[22]</text>
</g>
<!-- 19&#45;&gt;22 -->
<g id="edge11" class="edge">
<title>19&#45;&gt;22</title>
<path fill="none" stroke="black" d="M459.5,-265.41C459.5,-253.76 459.5,-238.05 459.5,-224.52"/>
<polygon fill="black" stroke="black" points="463,-224.86 459.5,-214.86 456,-224.86 463,-224.86"/>
<text text-anchor="middle" x="496.62" y="-234.2" font-family="Times New Roman,serif" font-size="14.00">graphAnd#44</text>
</g>
<!-- 28 -->
<g id="node18" class="node">
<title>28</title>
<polygon fill="yellow" stroke="black" points="480.25,-124.5 402.75,-124.5 402.75,-88.5 480.25,-88.5 480.25,-124.5"/>
<text text-anchor="middle" x="441.5" y="-101.45" font-family="Times New Roman,serif" font-size="14.00">acc2 = true</text>
<text text-anchor="middle" x="391.5" y="-127.7" font-family="Times New Roman,serif" font-size="14.00">[28]</text>
</g>
<!-- 22&#45;&gt;28 -->
<g id="edge12" class="edge">
<title>22&#45;&gt;28</title>
<path fill="none" stroke="black" d="M455.94,-176.91C453.52,-165.26 450.25,-149.55 447.43,-136.02"/>
<polygon fill="black" stroke="black" points="450.88,-135.41 445.42,-126.33 444.03,-136.84 450.88,-135.41"/>
<text text-anchor="middle" x="489.24" y="-145.7" font-family="Times New Roman,serif" font-size="14.00">graphAnd#45</text>
</g>
<!-- 25 -->
<g id="node17" class="node">
<title>25</title>
<polygon fill="yellow" stroke="black" points="404.75,-36 342.25,-36 342.25,0 404.75,0 404.75,-36"/>
<text text-anchor="middle" x="373.5" y="-12.95" font-family="Times New Roman,serif" font-size="14.00">idx1 = 1</text>
<text text-anchor="middle" x="331" y="-39.2" font-family="Times New Roman,serif" font-size="14.00">[25]</text>
</g>
<!-- 25&#45;&gt;45 -->
<g id="edge9" class="edge">
<title>25&#45;&gt;45</title>
<path fill="none" stroke="black" d="M368.35,-36.39C363.67,-53.73 357.5,-81.22 357.5,-105.5 357.5,-528.4 357.5,-528.4 357.5,-528.4 357.5,-553.25 363.2,-581.61 367.33,-598.88"/>
<polygon fill="black" stroke="black" points="363.89,-599.57 369.74,-608.41 370.68,-597.86 363.89,-599.57"/>
<text text-anchor="middle" x="394.62" y="-322.7" font-family="Times New Roman,serif" font-size="14.00">graphAnd#41</text>
</g>
<!-- 28&#45;&gt;25 -->
<g id="edge20" class="edge">
<title>28&#45;&gt;25</title>
<path fill="none" stroke="black" d="M428.07,-88.41C418.35,-76.05 405.05,-59.13 394.01,-45.08"/>
<polygon fill="black" stroke="black" points="397.01,-43.24 388.07,-37.54 391.5,-47.56 397.01,-43.24"/>
<text text-anchor="middle" x="450.72" y="-57.2" font-family="Times New Roman,serif" font-size="14.00">graphAnd#22</text>
</g>
<!-- 31&#45;&gt;47 -->
<g id="edge14" class="edge">
<title>31&#45;&gt;47</title>
<path fill="none" stroke="black" d="M447.49,-509.31C448.16,-497.66 449.07,-481.95 449.85,-468.42"/>
<polygon fill="black" stroke="black" points="453.33,-468.95 450.41,-458.76 446.34,-468.54 453.33,-468.95"/>
<text text-anchor="middle" x="486.57" y="-478.1" font-family="Times New Roman,serif" font-size="14.00">graphAnd#46</text>
</g>
</g>
</svg>
