<?xml version="1.0" encoding="UTF-8" standalone="no"?>
<!DOCTYPE svg PUBLIC "-//W3C//DTD SVG 1.1//EN"
 "http://www.w3.org/Graphics/SVG/1.1/DTD/svg11.dtd">
<!-- Generated by graphviz version 12.2.1 (20241206.2353)
 -->
<!-- Title: CLG Pages: 1 -->
<svg width="692pt" height="1012pt"
 viewBox="0.00 0.00 692.25 1012.40" xmlns="http://www.w3.org/2000/svg" xmlns:xlink="http://www.w3.org/1999/xlink">
<g id="graph0" class="graph" transform="scale(1 1) rotate(0) translate(4 1008.4)">
<title>CLG</title>
<polygon fill="white" stroke="none" points="-4,4 -4,-1008.4 688.25,-1008.4 688.25,4 -4,4"/>
<!-- 34 -->
<g id="node1" class="node">
<title>34</title>
<polygon fill="yellow" stroke="black" points="405.25,-987.9 261.75,-987.9 261.75,-951.9 405.25,-951.9 405.25,-987.9"/>
<text text-anchor="middle" x="333.5" y="-964.85" font-family="Times New Roman,serif" font-size="14.00">Index1 &lt;= dim2 &#45; 1+ 1</text>
<text text-anchor="middle" x="250.5" y="-991.1" font-family="Times New Roman,serif" font-size="14.00">[34]</text>
</g>
<!-- 37 -->
<g id="node4" class="node">
<title>37</title>
<polygon fill="yellow" stroke="black" points="334.5,-899.4 180.5,-899.4 180.5,-863.4 334.5,-863.4 334.5,-899.4"/>
<text text-anchor="middle" x="257.5" y="-876.35" font-family="Times New Roman,serif" font-size="14.00">it2 = Sequence{1..dim2}</text>
<text text-anchor="middle" x="169.25" y="-902.6" font-family="Times New Roman,serif" font-size="14.00">[37]</text>
</g>
<!-- 34&#45;&gt;37 -->
<g id="edge1" class="edge">
<title>34&#45;&gt;37</title>
<path fill="none" stroke="black" d="M315.14,-951.5C309.58,-946 303.54,-939.82 298.25,-933.9 291.08,-925.87 283.65,-916.75 277.13,-908.45"/>
<polygon fill="black" stroke="black" points="280.03,-906.48 271.15,-900.71 274.5,-910.76 280.03,-906.48"/>
<text text-anchor="middle" x="335.38" y="-920.6" font-family="Times New Roman,serif" font-size="14.00">graphAnd#33</text>
</g>
<!-- 3 -->
<g id="node2" class="node">
<title>3</title>
<ellipse fill="black" stroke="black" cx="567.5" cy="-792.9" rx="7.2" ry="7.2"/>
<text text-anchor="middle" x="552.42" y="-803.3" font-family="Times New Roman,serif" font-size="14.00">[0]</text>
</g>
<!-- 4 -->
<g id="node3" class="node">
<title>4</title>
<polygon fill="yellow" stroke="black" points="684.25,-722.4 450.75,-722.4 450.75,-686.4 684.25,-686.4 684.25,-722.4"/>
<text text-anchor="middle" x="567.5" y="-699.35" font-family="Times New Roman,serif" font-size="14.00">dim1 = arg.datas.getDimensionSizes(1)</text>
<text text-anchor="middle" x="442.88" y="-725.6" font-family="Times New Roman,serif" font-size="14.00">[4]</text>
</g>
<!-- 3&#45;&gt;4 -->
<g id="edge2" class="edge">
<title>3&#45;&gt;4</title>
<path fill="none" stroke="black" d="M567.5,-785.4C567.5,-774.57 567.5,-752.22 567.5,-733.88"/>
<polygon fill="black" stroke="black" points="571,-734.09 567.5,-724.09 564,-734.09 571,-734.09"/>
</g>
<!-- 7 -->
<g id="node5" class="node">
<title>7</title>
<polygon fill="yellow" stroke="black" points="684.25,-633.9 450.75,-633.9 450.75,-597.9 684.25,-597.9 684.25,-633.9"/>
<text text-anchor="middle" x="567.5" y="-610.85" font-family="Times New Roman,serif" font-size="14.00">dim2 = arg.datas.getDimensionSizes(2)</text>
<text text-anchor="middle" x="442.88" y="-637.1" font-family="Times New Roman,serif" font-size="14.00">[7]</text>
</g>
<!-- 4&#45;&gt;7 -->
<g id="edge6" class="edge">
<title>4&#45;&gt;7</title>
<path fill="none" stroke="black" d="M567.5,-686.31C567.5,-674.66 567.5,-658.95 567.5,-645.42"/>
<polygon fill="black" stroke="black" points="571,-645.76 567.5,-635.76 564,-645.76 571,-645.76"/>
<text text-anchor="middle" x="601.25" y="-655.1" font-family="Times New Roman,serif" font-size="14.00">graphAnd#6</text>
</g>
<!-- 40 -->
<g id="node6" class="node">
<title>40</title>
<polygon fill="yellow" stroke="black" points="350.5,-810.9 22.5,-810.9 22.5,-774.9 350.5,-774.9 350.5,-810.9"/>
<text text-anchor="middle" x="186.5" y="-787.85" font-family="Times New Roman,serif" font-size="14.00">result.datas[it][it2] = self.datas[it][it2] + arg.datas[it][it2]</text>
<text text-anchor="middle" x="11.25" y="-814.1" font-family="Times New Roman,serif" font-size="14.00">[40]</text>
</g>
<!-- 37&#45;&gt;40 -->
<g id="edge3" class="edge">
<title>37&#45;&gt;40</title>
<path fill="none" stroke="black" d="M243.47,-863.31C233.33,-850.95 219.44,-834.03 207.91,-819.98"/>
<polygon fill="black" stroke="black" points="210.75,-817.93 201.7,-812.42 205.34,-822.37 210.75,-817.93"/>
<text text-anchor="middle" x="265.48" y="-832.1" font-family="Times New Roman,serif" font-size="14.00">graphAnd#34</text>
</g>
<!-- 13 -->
<g id="node9" class="node">
<title>13</title>
<polygon fill="yellow" stroke="black" points="602.88,-545.4 532.12,-545.4 532.12,-509.4 602.88,-509.4 602.88,-545.4"/>
<text text-anchor="middle" x="567.5" y="-522.35" font-family="Times New Roman,serif" font-size="14.00">acc = true</text>
<text text-anchor="middle" x="520.88" y="-548.6" font-family="Times New Roman,serif" font-size="14.00">[13]</text>
</g>
<!-- 7&#45;&gt;13 -->
<g id="edge19" class="edge">
<title>7&#45;&gt;13</title>
<path fill="none" stroke="black" d="M567.5,-597.81C567.5,-586.16 567.5,-570.45 567.5,-556.92"/>
<polygon fill="black" stroke="black" points="571,-557.26 567.5,-547.26 564,-557.26 571,-557.26"/>
<text text-anchor="middle" x="604.62" y="-566.6" font-family="Times New Roman,serif" font-size="14.00">graphAnd#53</text>
</g>
<!-- 43 -->
<g id="node8" class="node">
<title>43</title>
<polygon fill="yellow" stroke="black" points="331.12,-722.4 201.88,-722.4 201.88,-686.4 331.12,-686.4 331.12,-722.4"/>
<text text-anchor="middle" x="266.5" y="-699.35" font-family="Times New Roman,serif" font-size="14.00">Index1 = Index1 + 1</text>
<text text-anchor="middle" x="190.62" y="-725.6" font-family="Times New Roman,serif" font-size="14.00">[43]</text>
</g>
<!-- 40&#45;&gt;43 -->
<g id="edge4" class="edge">
<title>40&#45;&gt;43</title>
<path fill="none" stroke="black" d="M202.31,-774.81C213.84,-762.33 229.69,-745.2 242.75,-731.08"/>
<polygon fill="black" stroke="black" points="245.21,-733.58 249.43,-723.86 240.07,-728.83 245.21,-733.58"/>
<text text-anchor="middle" x="270.79" y="-743.6" font-family="Times New Roman,serif" font-size="14.00">graphAnd#35</text>
</g>
<!-- 10 -->
<g id="node7" class="node">
<title>10</title>
<polygon fill="yellow" stroke="black" points="605.5,-456.9 529.5,-456.9 529.5,-420.9 605.5,-420.9 605.5,-456.9"/>
<text text-anchor="middle" x="567.5" y="-433.85" font-family="Times New Roman,serif" font-size="14.00">Index0 = 1</text>
<text text-anchor="middle" x="518.25" y="-460.1" font-family="Times New Roman,serif" font-size="14.00">[10]</text>
</g>
<!-- 49 -->
<g id="node13" class="node">
<title>49</title>
<polygon fill="aquamarine" stroke="black" points="520.5,-368.4 513.3,-361.2 520.5,-354 527.7,-361.2 520.5,-368.4"/>
<text text-anchor="middle" x="498.3" y="-371.6" font-family="Times New Roman,serif" font-size="14.00">&lt;49&gt;</text>
</g>
<!-- 10&#45;&gt;49 -->
<g id="edge18" class="edge">
<title>10&#45;&gt;49</title>
<path fill="none" stroke="black" d="M556.83,-420.72C548.37,-407.1 536.71,-388.31 528.91,-375.74"/>
<polygon fill="black" stroke="black" points="532.07,-374.2 523.82,-367.55 526.12,-377.89 532.07,-374.2"/>
<text text-anchor="middle" x="582.53" y="-389.6" font-family="Times New Roman,serif" font-size="14.00">graphAnd#52</text>
</g>
<!-- 45 -->
<g id="node10" class="node">
<title>45</title>
<polygon fill="aquamarine" stroke="black" points="368.5,-623.1 361.3,-615.9 368.5,-608.7 375.7,-615.9 368.5,-623.1"/>
<text text-anchor="middle" x="346.3" y="-626.3" font-family="Times New Roman,serif" font-size="14.00">&lt;45&gt;</text>
</g>
<!-- 43&#45;&gt;45 -->
<g id="edge7" class="edge">
<title>43&#45;&gt;45</title>
<path fill="none" stroke="black" d="M282.68,-685.95C292.61,-675.6 305.82,-662.49 318.5,-651.9 330.2,-642.13 344.54,-632.29 354.86,-625.54"/>
<polygon fill="black" stroke="black" points="356.63,-628.56 363.17,-620.22 352.86,-622.66 356.63,-628.56"/>
<text text-anchor="middle" x="345.5" y="-655.1" font-family="Times New Roman,serif" font-size="14.00">iterate#38</text>
</g>
<!-- 13&#45;&gt;10 -->
<g id="edge10" class="edge">
<title>13&#45;&gt;10</title>
<path fill="none" stroke="black" d="M567.5,-509.31C567.5,-497.66 567.5,-481.95 567.5,-468.42"/>
<polygon fill="black" stroke="black" points="571,-468.76 567.5,-458.76 564,-468.76 571,-468.76"/>
<text text-anchor="middle" x="604.62" y="-478.1" font-family="Times New Roman,serif" font-size="14.00">graphAnd#11</text>
</g>
<!-- 45&#45;&gt;34 -->
<g id="edge5" class="edge">
<title>45&#45;&gt;34</title>
<path fill="none" stroke="black" d="M370.29,-621.89C374.84,-635.05 386.5,-671.8 386.5,-703.4 386.5,-882.4 386.5,-882.4 386.5,-882.4 386.5,-906.12 384.95,-913.71 372.5,-933.9 370.43,-937.25 367.95,-940.48 365.25,-943.51"/>
<polygon fill="black" stroke="black" points="362.89,-940.92 358.3,-950.47 367.84,-945.87 362.89,-940.92"/>
<text text-anchor="middle" x="413.5" y="-787.85" font-family="Times New Roman,serif" font-size="14.00">iterate#37</text>
</g>
<!-- 31 -->
<g id="node19" class="node">
<title>31</title>
<polygon fill="yellow" stroke="black" points="514.12,-545.4 378.88,-545.4 378.88,-509.4 514.12,-509.4 514.12,-545.4"/>
<text text-anchor="middle" x="446.5" y="-522.35" font-family="Times New Roman,serif" font-size="14.00">Index1 &gt; dim2 &#45; 1+ 1</text>
<text text-anchor="middle" x="367.62" y="-548.6" font-family="Times New Roman,serif" font-size="14.00">[31]</text>
</g>
<!-- 45&#45;&gt;31 -->
<g id="edge8" class="edge">
<title>45&#45;&gt;31</title>
<path fill="none" stroke="black" d="M371.46,-611.61C379.89,-602.27 404.59,-574.88 423.37,-554.06"/>
<polygon fill="black" stroke="black" points="425.88,-556.5 429.97,-546.73 420.68,-551.81 425.88,-556.5"/>
<text text-anchor="middle" x="451.61" y="-566.6" font-family="Times New Roman,serif" font-size="14.00">graphAnd#40</text>
</g>
<!-- 47 -->
<g id="node11" class="node">
<title>47</title>
<polygon fill="yellow" stroke="black" points="511.12,-456.9 381.88,-456.9 381.88,-420.9 511.12,-420.9 511.12,-456.9"/>
<text text-anchor="middle" x="446.5" y="-433.85" font-family="Times New Roman,serif" font-size="14.00">Index0 = Index0 + 1</text>
<text text-anchor="middle" x="370.62" y="-460.1" font-family="Times New Roman,serif" font-size="14.00">[47]</text>
</g>
<!-- 47&#45;&gt;49 -->
<g id="edge16" class="edge">
<title>47&#45;&gt;49</title>
<path fill="none" stroke="black" d="M454.08,-420.6C459.44,-409.8 467.47,-396.14 477.5,-386.4 485.44,-378.69 496.33,-372.59 505.16,-368.45"/>
<polygon fill="black" stroke="black" points="506.25,-371.79 514.06,-364.64 503.49,-365.35 506.25,-371.79"/>
<text text-anchor="middle" x="504.5" y="-389.6" font-family="Times New Roman,serif" font-size="14.00">iterate#49</text>
</g>
<!-- 16 -->
<g id="node12" class="node">
<title>16</title>
<polygon fill="yellow" stroke="black" points="677.12,-301.5 541.88,-301.5 541.88,-265.5 677.12,-265.5 677.12,-301.5"/>
<text text-anchor="middle" x="609.5" y="-278.45" font-family="Times New Roman,serif" font-size="14.00">Index0 &gt; dim1 &#45; 1+ 1</text>
<text text-anchor="middle" x="530.62" y="-304.7" font-family="Times New Roman,serif" font-size="14.00">[16]</text>
</g>
<!-- 17 -->
<g id="node14" class="node">
<title>17</title>
<ellipse fill="black" stroke="black" cx="609.5" cy="-195" rx="7.2" ry="7.2"/>
<ellipse fill="none" stroke="black" cx="609.5" cy="-195" rx="11.2" ry="11.2"/>
<text text-anchor="middle" x="588.17" y="-209.4" font-family="Times New Roman,serif" font-size="14.00">[&#45;1]</text>
</g>
<!-- 16&#45;&gt;17 -->
<g id="edge13" class="edge">
<title>16&#45;&gt;17</title>
<path fill="none" stroke="black" d="M609.5,-265.41C609.5,-251.72 609.5,-232.42 609.5,-217.65"/>
<polygon fill="black" stroke="black" points="613,-218.04 609.5,-208.04 606,-218.04 613,-218.04"/>
</g>
<!-- 49&#45;&gt;16 -->
<g id="edge17" class="edge">
<title>49&#45;&gt;16</title>
<path fill="none" stroke="black" d="M524.44,-357.87C531.24,-353.79 545.5,-344.92 556.5,-336 566.47,-327.92 576.74,-318.29 585.55,-309.55"/>
<polygon fill="black" stroke="black" points="587.88,-312.18 592.43,-302.61 582.91,-307.25 587.88,-312.18"/>
<text text-anchor="middle" x="611.93" y="-322.7" font-family="Times New Roman,serif" font-size="14.00">graphAnd#51</text>
</g>
<!-- 19 -->
<g id="node15" class="node">
<title>19</title>
<polygon fill="yellow" stroke="black" points="524.25,-301.5 380.75,-301.5 380.75,-265.5 524.25,-265.5 524.25,-301.5"/>
<text text-anchor="middle" x="452.5" y="-278.45" font-family="Times New Roman,serif" font-size="14.00">Index0 &lt;= dim1 &#45; 1+ 1</text>
<text text-anchor="middle" x="369.5" y="-304.7" font-family="Times New Roman,serif" font-size="14.00">[19]</text>
</g>
<!-- 49&#45;&gt;19 -->
<g id="edge15" class="edge">
<title>49&#45;&gt;19</title>
<path fill="none" stroke="black" d="M517.58,-356.95C510.37,-348.92 491.18,-327.56 475.49,-310.1"/>
<polygon fill="black" stroke="black" points="478.44,-308.14 469.15,-303.04 473.23,-312.82 478.44,-308.14"/>
<text text-anchor="middle" x="525.5" y="-322.7" font-family="Times New Roman,serif" font-size="14.00">iterate#48</text>
</g>
<!-- 22 -->
<g id="node16" class="node">
<title>22</title>
<polygon fill="yellow" stroke="black" points="526.12,-213 378.88,-213 378.88,-177 526.12,-177 526.12,-213"/>
<text text-anchor="middle" x="452.5" y="-189.95" font-family="Times New Roman,serif" font-size="14.00">it = Sequence{1..dim1}</text>
<text text-anchor="middle" x="367.62" y="-216.2" font-family="Times New Roman,serif" font-size="14.00">[22]</text>
</g>
<!-- 19&#45;&gt;22 -->
<g id="edge11" class="edge">
<title>19&#45;&gt;22</title>
<path fill="none" stroke="black" d="M452.5,-265.41C452.5,-253.76 452.5,-238.05 452.5,-224.52"/>
<polygon fill="black" stroke="black" points="456,-224.86 452.5,-214.86 449,-224.86 456,-224.86"/>
<text text-anchor="middle" x="489.62" y="-234.2" font-family="Times New Roman,serif" font-size="14.00">graphAnd#44</text>
</g>
<!-- 28 -->
<g id="node18" class="node">
<title>28</title>
<polygon fill="yellow" stroke="black" points="473.25,-124.5 395.75,-124.5 395.75,-88.5 473.25,-88.5 473.25,-124.5"/>
<text text-anchor="middle" x="434.5" y="-101.45" font-family="Times New Roman,serif" font-size="14.00">acc2 = true</text>
<text text-anchor="middle" x="384.5" y="-127.7" font-family="Times New Roman,serif" font-size="14.00">[28]</text>
</g>
<!-- 22&#45;&gt;28 -->
<g id="edge12" class="edge">
<title>22&#45;&gt;28</title>
<path fill="none" stroke="black" d="M448.94,-176.91C446.52,-165.26 443.25,-149.55 440.43,-136.02"/>
<polygon fill="black" stroke="black" points="443.88,-135.41 438.42,-126.33 437.03,-136.84 443.88,-135.41"/>
<text text-anchor="middle" x="482.24" y="-145.7" font-family="Times New Roman,serif" font-size="14.00">graphAnd#45</text>
</g>
<!-- 25 -->
<g id="node17" class="node">
<title>25</title>
<polygon fill="yellow" stroke="black" points="404.5,-36 328.5,-36 328.5,0 404.5,0 404.5,-36"/>
<text text-anchor="middle" x="366.5" y="-12.95" font-family="Times New Roman,serif" font-size="14.00">Index1 = 1</text>
<text text-anchor="middle" x="317.25" y="-39.2" font-family="Times New Roman,serif" font-size="14.00">[25]</text>
</g>
<!-- 25&#45;&gt;45 -->
<g id="edge9" class="edge">
<title>25&#45;&gt;45</title>
<path fill="none" stroke="black" d="M361.35,-36.39C356.67,-53.73 350.5,-81.22 350.5,-105.5 350.5,-528.4 350.5,-528.4 350.5,-528.4 350.5,-553.58 357.9,-582.03 363.21,-599.21"/>
<polygon fill="black" stroke="black" points="359.8,-600.05 366.24,-608.47 366.46,-597.87 359.8,-600.05"/>
<text text-anchor="middle" x="387.62" y="-322.7" font-family="Times New Roman,serif" font-size="14.00">graphAnd#41</text>
</g>
<!-- 28&#45;&gt;25 -->
<g id="edge20" class="edge">
<title>28&#45;&gt;25</title>
<path fill="none" stroke="black" d="M421.07,-88.41C411.35,-76.05 398.05,-59.13 387.01,-45.08"/>
<polygon fill="black" stroke="black" points="390.01,-43.24 381.07,-37.54 384.5,-47.56 390.01,-43.24"/>
<text text-anchor="middle" x="443.72" y="-57.2" font-family="Times New Roman,serif" font-size="14.00">graphAnd#22</text>
</g>
<!-- 31&#45;&gt;47 -->
<g id="edge14" class="edge">
<title>31&#45;&gt;47</title>
<path fill="none" stroke="black" d="M446.5,-509.31C446.5,-497.66 446.5,-481.95 446.5,-468.42"/>
<polygon fill="black" stroke="black" points="450,-468.76 446.5,-458.76 443,-468.76 450,-468.76"/>
<text text-anchor="middle" x="483.62" y="-478.1" font-family="Times New Roman,serif" font-size="14.00">graphAnd#46</text>
</g>
</g>
</svg>
