<?xml version="1.0" encoding="UTF-8" standalone="no"?>
<!DOCTYPE svg PUBLIC "-//W3C//DTD SVG 1.1//EN"
 "http://www.w3.org/Graphics/SVG/1.1/DTD/svg11.dtd">
<!-- Generated by graphviz version 12.2.1 (20241206.2353)
 -->
<!-- Title: CLG Pages: 1 -->
<svg width="711pt" height="1219pt"
 viewBox="0.00 0.00 710.50 1219.20" xmlns="http://www.w3.org/2000/svg" xmlns:xlink="http://www.w3.org/1999/xlink">
<g id="graph0" class="graph" transform="scale(1 1) rotate(0) translate(4 1215.2)">
<title>CLG</title>
<polygon fill="white" stroke="none" points="-4,4 -4,-1215.2 706.5,-1215.2 706.5,4 -4,4"/>
<!-- 96 -->
<g id="node1" class="node">
<title>96</title>
<polygon fill="aquamarine" stroke="black" points="552.62,-789.3 545.42,-782.1 552.62,-774.9 559.83,-782.1 552.62,-789.3"/>
<text text-anchor="middle" x="530.42" y="-792.5" font-family="Times New Roman,serif" font-size="14.00">&lt;96&gt;</text>
</g>
<!-- 66 -->
<g id="node3" class="node">
<title>66</title>
<polygon fill="yellow" stroke="black" points="521.62,-722.4 391.62,-722.4 391.62,-686.4 521.62,-686.4 521.62,-722.4"/>
<text text-anchor="middle" x="456.62" y="-699.35" font-family="Times New Roman,serif" font-size="14.00">idx0 &lt;= dim1 &#45; 1+ 1</text>
<text text-anchor="middle" x="380.38" y="-725.6" font-family="Times New Roman,serif" font-size="14.00">[66]</text>
</g>
<!-- 96&#45;&gt;66 -->
<g id="edge5" class="edge">
<title>96&#45;&gt;66</title>
<path fill="none" stroke="black" d="M546.33,-780.79C532.26,-779.77 497.91,-775.42 477.88,-756.9 471.16,-750.69 466.51,-742.04 463.31,-733.6"/>
<polygon fill="black" stroke="black" points="466.71,-732.76 460.35,-724.29 460.04,-734.89 466.71,-732.76"/>
<text text-anchor="middle" x="508.25" y="-743.6" font-family="Times New Roman,serif" font-size="14.00">iterate#100</text>
</g>
<!-- 63 -->
<g id="node19" class="node">
<title>63</title>
<polygon fill="yellow" stroke="black" points="702.5,-722.4 580.75,-722.4 580.75,-686.4 702.5,-686.4 702.5,-722.4"/>
<text text-anchor="middle" x="641.62" y="-699.35" font-family="Times New Roman,serif" font-size="14.00">idx0 &gt; dim1 &#45; 1+ 1</text>
<text text-anchor="middle" x="569.5" y="-725.6" font-family="Times New Roman,serif" font-size="14.00">[63]</text>
</g>
<!-- 96&#45;&gt;63 -->
<g id="edge7" class="edge">
<title>96&#45;&gt;63</title>
<path fill="none" stroke="black" d="M556.01,-778.22C565.23,-770.38 591.55,-747.99 612.6,-730.09"/>
<polygon fill="black" stroke="black" points="614.72,-732.87 620.07,-723.73 610.19,-727.54 614.72,-732.87"/>
<text text-anchor="middle" x="640.29" y="-743.6" font-family="Times New Roman,serif" font-size="14.00">graphAnd#103</text>
</g>
<!-- 64 -->
<g id="node2" class="node">
<title>64</title>
<ellipse fill="black" stroke="black" cx="641.62" cy="-615.9" rx="7.2" ry="7.2"/>
<ellipse fill="none" stroke="black" cx="641.62" cy="-615.9" rx="11.2" ry="11.2"/>
<text text-anchor="middle" x="620.3" y="-630.3" font-family="Times New Roman,serif" font-size="14.00">[&#45;1]</text>
</g>
<!-- 69 -->
<g id="node4" class="node">
<title>69</title>
<polygon fill="yellow" stroke="black" points="523.25,-633.9 376,-633.9 376,-597.9 523.25,-597.9 523.25,-633.9"/>
<text text-anchor="middle" x="449.62" y="-610.85" font-family="Times New Roman,serif" font-size="14.00">it = Sequence{1..dim1}</text>
<text text-anchor="middle" x="364.75" y="-637.1" font-family="Times New Roman,serif" font-size="14.00">[69]</text>
</g>
<!-- 66&#45;&gt;69 -->
<g id="edge1" class="edge">
<title>66&#45;&gt;69</title>
<path fill="none" stroke="black" d="M455.24,-686.31C454.3,-674.66 453.03,-658.95 451.93,-645.42"/>
<polygon fill="black" stroke="black" points="455.45,-645.44 451.15,-635.76 448.47,-646.01 455.45,-645.44"/>
<text text-anchor="middle" x="490.88" y="-655.1" font-family="Times New Roman,serif" font-size="14.00">graphAnd#96</text>
</g>
<!-- 75 -->
<g id="node6" class="node">
<title>75</title>
<polygon fill="yellow" stroke="black" points="449.38,-545.4 371.88,-545.4 371.88,-509.4 449.38,-509.4 449.38,-545.4"/>
<text text-anchor="middle" x="410.62" y="-522.35" font-family="Times New Roman,serif" font-size="14.00">acc2 = true</text>
<text text-anchor="middle" x="360.62" y="-548.6" font-family="Times New Roman,serif" font-size="14.00">[75]</text>
</g>
<!-- 69&#45;&gt;75 -->
<g id="edge2" class="edge">
<title>69&#45;&gt;75</title>
<path fill="none" stroke="black" d="M441.92,-597.81C436.56,-585.92 429.3,-569.81 423.11,-556.1"/>
<polygon fill="black" stroke="black" points="426.37,-554.81 419.07,-547.13 419.99,-557.68 426.37,-554.81"/>
<text text-anchor="middle" x="470.74" y="-566.6" font-family="Times New Roman,serif" font-size="14.00">graphAnd#97</text>
</g>
<!-- 72 -->
<g id="node5" class="node">
<title>72</title>
<polygon fill="yellow" stroke="black" points="413.88,-456.9 351.38,-456.9 351.38,-420.9 413.88,-420.9 413.88,-456.9"/>
<text text-anchor="middle" x="382.62" y="-433.85" font-family="Times New Roman,serif" font-size="14.00">idx1 = 1</text>
<text text-anchor="middle" x="340.12" y="-460.1" font-family="Times New Roman,serif" font-size="14.00">[72]</text>
</g>
<!-- 92 -->
<g id="node17" class="node">
<title>92</title>
<polygon fill="aquamarine" stroke="black" points="375.62,-368.4 368.43,-361.2 375.62,-354 382.82,-361.2 375.62,-368.4"/>
<text text-anchor="middle" x="353.43" y="-371.6" font-family="Times New Roman,serif" font-size="14.00">&lt;92&gt;</text>
</g>
<!-- 72&#45;&gt;92 -->
<g id="edge19" class="edge">
<title>72&#45;&gt;92</title>
<path fill="none" stroke="black" d="M381.04,-420.72C379.9,-408.42 378.37,-391.92 377.23,-379.57"/>
<polygon fill="black" stroke="black" points="380.73,-379.35 376.32,-369.71 373.76,-379.99 380.73,-379.35"/>
<text text-anchor="middle" x="416.46" y="-389.6" font-family="Times New Roman,serif" font-size="14.00">graphAnd#93</text>
</g>
<!-- 75&#45;&gt;72 -->
<g id="edge10" class="edge">
<title>75&#45;&gt;72</title>
<path fill="none" stroke="black" d="M405.09,-509.31C401.28,-497.54 396.13,-481.63 391.72,-468.01"/>
<polygon fill="black" stroke="black" points="395.12,-467.13 388.71,-458.69 388.46,-469.28 395.12,-467.13"/>
<text text-anchor="middle" x="436.26" y="-478.1" font-family="Times New Roman,serif" font-size="14.00">graphAnd#74</text>
</g>
<!-- 78 -->
<g id="node7" class="node">
<title>78</title>
<polygon fill="yellow" stroke="black" points="524.5,-301.5 402.75,-301.5 402.75,-265.5 524.5,-265.5 524.5,-301.5"/>
<text text-anchor="middle" x="463.62" y="-278.45" font-family="Times New Roman,serif" font-size="14.00">idx1 &gt; dim2 &#45; 1+ 1</text>
<text text-anchor="middle" x="391.5" y="-304.7" font-family="Times New Roman,serif" font-size="14.00">[78]</text>
</g>
<!-- 94 -->
<g id="node18" class="node">
<title>94</title>
<polygon fill="yellow" stroke="black" points="576.75,-213 474.5,-213 474.5,-177 576.75,-177 576.75,-213"/>
<text text-anchor="middle" x="525.62" y="-189.95" font-family="Times New Roman,serif" font-size="14.00">idx0 = idx0 + 1</text>
<text text-anchor="middle" x="463.25" y="-216.2" font-family="Times New Roman,serif" font-size="14.00">[94]</text>
</g>
<!-- 78&#45;&gt;94 -->
<g id="edge4" class="edge">
<title>78&#45;&gt;94</title>
<path fill="none" stroke="black" d="M459.76,-265.11C458.36,-254.54 458.38,-241.17 464.38,-231 466.69,-227.08 469.62,-223.56 472.95,-220.4"/>
<polygon fill="black" stroke="black" points="475.05,-223.2 480.71,-214.24 470.7,-217.72 475.05,-223.2"/>
<text text-anchor="middle" x="501.5" y="-234.2" font-family="Times New Roman,serif" font-size="14.00">graphAnd#98</text>
</g>
<!-- 81 -->
<g id="node8" class="node">
<title>81</title>
<polygon fill="yellow" stroke="black" points="340.62,-301.5 210.62,-301.5 210.62,-265.5 340.62,-265.5 340.62,-301.5"/>
<text text-anchor="middle" x="275.62" y="-278.45" font-family="Times New Roman,serif" font-size="14.00">idx1 &lt;= dim2 &#45; 1+ 1</text>
<text text-anchor="middle" x="199.38" y="-304.7" font-family="Times New Roman,serif" font-size="14.00">[81]</text>
</g>
<!-- 84 -->
<g id="node11" class="node">
<title>84</title>
<polygon fill="yellow" stroke="black" points="297.62,-213 143.62,-213 143.62,-177 297.62,-177 297.62,-213"/>
<text text-anchor="middle" x="220.62" y="-189.95" font-family="Times New Roman,serif" font-size="14.00">it2 = Sequence{1..dim2}</text>
<text text-anchor="middle" x="132.38" y="-216.2" font-family="Times New Roman,serif" font-size="14.00">[84]</text>
</g>
<!-- 81&#45;&gt;84 -->
<g id="edge11" class="edge">
<title>81&#45;&gt;84</title>
<path fill="none" stroke="black" d="M264.76,-265.41C257.05,-253.29 246.55,-236.77 237.72,-222.89"/>
<polygon fill="black" stroke="black" points="240.79,-221.19 232.47,-214.63 234.88,-224.94 240.79,-221.19"/>
<text text-anchor="middle" x="290.18" y="-234.2" font-family="Times New Roman,serif" font-size="14.00">graphAnd#85</text>
</g>
<!-- 50 -->
<g id="node9" class="node">
<title>50</title>
<ellipse fill="black" stroke="black" cx="552.62" cy="-1187.5" rx="7.2" ry="7.2"/>
<text text-anchor="middle" x="537.55" y="-1197.9" font-family="Times New Roman,serif" font-size="14.00">[0]</text>
</g>
<!-- 51 -->
<g id="node10" class="node">
<title>51</title>
<polygon fill="yellow" stroke="black" points="669.38,-1143.3 435.88,-1143.3 435.88,-1107.3 669.38,-1107.3 669.38,-1143.3"/>
<text text-anchor="middle" x="552.62" y="-1120.25" font-family="Times New Roman,serif" font-size="14.00">dim1 = arg.datas.getDimensionSizes(1)</text>
<text text-anchor="middle" x="424.62" y="-1146.5" font-family="Times New Roman,serif" font-size="14.00">[51]</text>
</g>
<!-- 50&#45;&gt;51 -->
<g id="edge12" class="edge">
<title>50&#45;&gt;51</title>
<path fill="none" stroke="black" d="M552.62,-1180.06C552.62,-1174 552.62,-1164.49 552.62,-1155.14"/>
<polygon fill="black" stroke="black" points="556.13,-1155.18 552.63,-1145.18 549.13,-1155.18 556.13,-1155.18"/>
</g>
<!-- 54 -->
<g id="node12" class="node">
<title>54</title>
<polygon fill="yellow" stroke="black" points="669.38,-1054.8 435.88,-1054.8 435.88,-1018.8 669.38,-1018.8 669.38,-1054.8"/>
<text text-anchor="middle" x="552.62" y="-1031.75" font-family="Times New Roman,serif" font-size="14.00">dim2 = arg.datas.getDimensionSizes(2)</text>
<text text-anchor="middle" x="424.62" y="-1058" font-family="Times New Roman,serif" font-size="14.00">[54]</text>
</g>
<!-- 51&#45;&gt;54 -->
<g id="edge16" class="edge">
<title>51&#45;&gt;54</title>
<path fill="none" stroke="black" d="M552.62,-1107.21C552.62,-1095.56 552.62,-1079.85 552.62,-1066.32"/>
<polygon fill="black" stroke="black" points="556.13,-1066.66 552.63,-1056.66 549.13,-1066.66 556.13,-1066.66"/>
<text text-anchor="middle" x="589.75" y="-1076" font-family="Times New Roman,serif" font-size="14.00">graphAnd#58</text>
</g>
<!-- 87 -->
<g id="node13" class="node">
<title>87</title>
<polygon fill="yellow" stroke="black" points="346.75,-124.5 22.5,-124.5 22.5,-88.5 346.75,-88.5 346.75,-124.5"/>
<text text-anchor="middle" x="184.62" y="-101.45" font-family="Times New Roman,serif" font-size="14.00">result.datas[it][it2] = self.datas[it][it2] &#45; arg.datas[it][it2]</text>
<text text-anchor="middle" x="11.25" y="-127.7" font-family="Times New Roman,serif" font-size="14.00">[87]</text>
</g>
<!-- 84&#45;&gt;87 -->
<g id="edge13" class="edge">
<title>84&#45;&gt;87</title>
<path fill="none" stroke="black" d="M213.51,-176.91C208.56,-165.02 201.86,-148.91 196.15,-135.2"/>
<polygon fill="black" stroke="black" points="199.5,-134.14 192.43,-126.25 193.04,-136.82 199.5,-134.14"/>
<text text-anchor="middle" x="242.97" y="-145.7" font-family="Times New Roman,serif" font-size="14.00">graphAnd#86</text>
</g>
<!-- 60 -->
<g id="node16" class="node">
<title>60</title>
<polygon fill="yellow" stroke="black" points="588,-966.3 517.25,-966.3 517.25,-930.3 588,-930.3 588,-966.3"/>
<text text-anchor="middle" x="552.62" y="-943.25" font-family="Times New Roman,serif" font-size="14.00">acc = true</text>
<text text-anchor="middle" x="506" y="-969.5" font-family="Times New Roman,serif" font-size="14.00">[60]</text>
</g>
<!-- 54&#45;&gt;60 -->
<g id="edge9" class="edge">
<title>54&#45;&gt;60</title>
<path fill="none" stroke="black" d="M552.62,-1018.71C552.62,-1007.06 552.62,-991.35 552.62,-977.82"/>
<polygon fill="black" stroke="black" points="556.13,-978.16 552.63,-968.16 549.13,-978.16 556.13,-978.16"/>
<text text-anchor="middle" x="593.12" y="-987.5" font-family="Times New Roman,serif" font-size="14.00">graphAnd#105</text>
</g>
<!-- 90 -->
<g id="node15" class="node">
<title>90</title>
<polygon fill="yellow" stroke="black" points="330.75,-36 228.5,-36 228.5,0 330.75,0 330.75,-36"/>
<text text-anchor="middle" x="279.62" y="-12.95" font-family="Times New Roman,serif" font-size="14.00">idx1 = idx1 + 1</text>
<text text-anchor="middle" x="217.25" y="-39.2" font-family="Times New Roman,serif" font-size="14.00">[90]</text>
</g>
<!-- 87&#45;&gt;90 -->
<g id="edge14" class="edge">
<title>87&#45;&gt;90</title>
<path fill="none" stroke="black" d="M203.39,-88.41C217.36,-75.7 236.62,-58.16 252.29,-43.89"/>
<polygon fill="black" stroke="black" points="254.41,-46.69 259.45,-37.37 249.7,-41.51 254.41,-46.69"/>
<text text-anchor="middle" x="277.76" y="-57.2" font-family="Times New Roman,serif" font-size="14.00">graphAnd#87</text>
</g>
<!-- 57 -->
<g id="node14" class="node">
<title>57</title>
<polygon fill="yellow" stroke="black" points="583.88,-877.8 521.38,-877.8 521.38,-841.8 583.88,-841.8 583.88,-877.8"/>
<text text-anchor="middle" x="552.62" y="-854.75" font-family="Times New Roman,serif" font-size="14.00">idx0 = 1</text>
<text text-anchor="middle" x="510.12" y="-881" font-family="Times New Roman,serif" font-size="14.00">[57]</text>
</g>
<!-- 57&#45;&gt;96 -->
<g id="edge8" class="edge">
<title>57&#45;&gt;96</title>
<path fill="none" stroke="black" d="M552.62,-841.62C552.62,-829.58 552.62,-813.5 552.62,-801.25"/>
<polygon fill="black" stroke="black" points="556.13,-801.34 552.63,-791.34 549.13,-801.34 556.13,-801.34"/>
<text text-anchor="middle" x="593.12" y="-810.5" font-family="Times New Roman,serif" font-size="14.00">graphAnd#104</text>
</g>
<!-- 90&#45;&gt;92 -->
<g id="edge17" class="edge">
<title>90&#45;&gt;92</title>
<path fill="none" stroke="black" d="M319.64,-36.49C345.6,-50.84 374.62,-73.94 374.62,-105.5 374.62,-284.5 374.62,-284.5 374.62,-284.5 374.62,-304.22 374.97,-326.83 375.25,-342.17"/>
<polygon fill="black" stroke="black" points="371.75,-342.07 375.45,-352 378.75,-341.94 371.75,-342.07"/>
<text text-anchor="middle" x="401.62" y="-189.95" font-family="Times New Roman,serif" font-size="14.00">iterate#90</text>
</g>
<!-- 60&#45;&gt;57 -->
<g id="edge20" class="edge">
<title>60&#45;&gt;57</title>
<path fill="none" stroke="black" d="M552.62,-930.21C552.62,-918.56 552.62,-902.85 552.62,-889.32"/>
<polygon fill="black" stroke="black" points="556.13,-889.66 552.63,-879.66 549.13,-889.66 556.13,-889.66"/>
<text text-anchor="middle" x="589.75" y="-899" font-family="Times New Roman,serif" font-size="14.00">graphAnd#63</text>
</g>
<!-- 92&#45;&gt;78 -->
<g id="edge18" class="edge">
<title>92&#45;&gt;78</title>
<path fill="none" stroke="black" d="M378.97,-357.32C388.09,-349.48 414.11,-327.09 434.92,-309.19"/>
<polygon fill="black" stroke="black" points="437.01,-312.01 442.31,-302.84 432.45,-306.7 437.01,-312.01"/>
<text text-anchor="middle" x="459.39" y="-322.7" font-family="Times New Roman,serif" font-size="14.00">graphAnd#92</text>
</g>
<!-- 92&#45;&gt;81 -->
<g id="edge15" class="edge">
<title>92&#45;&gt;81</title>
<path fill="none" stroke="black" d="M369.61,-359.48C356.73,-357.67 326.12,-351.87 306.62,-336 298.8,-329.63 292.46,-320.73 287.61,-312.11"/>
<polygon fill="black" stroke="black" points="290.77,-310.6 283.11,-303.28 284.53,-313.78 290.77,-310.6"/>
<text text-anchor="middle" x="333.62" y="-322.7" font-family="Times New Roman,serif" font-size="14.00">iterate#89</text>
</g>
<!-- 94&#45;&gt;96 -->
<g id="edge6" class="edge">
<title>94&#45;&gt;96</title>
<path fill="none" stroke="black" d="M534.47,-213.4C542.34,-230.52 552.62,-257.64 552.62,-282.5 552.62,-705.4 552.62,-705.4 552.62,-705.4 552.62,-725.12 552.62,-747.73 552.62,-763.07"/>
<polygon fill="black" stroke="black" points="549.13,-762.9 552.63,-772.9 556.13,-762.9 549.13,-762.9"/>
<text text-anchor="middle" x="583" y="-478.1" font-family="Times New Roman,serif" font-size="14.00">iterate#101</text>
</g>
<!-- 63&#45;&gt;64 -->
<g id="edge3" class="edge">
<title>63&#45;&gt;64</title>
<path fill="none" stroke="black" d="M641.62,-686.31C641.62,-672.62 641.62,-653.32 641.62,-638.55"/>
<polygon fill="black" stroke="black" points="645.13,-638.94 641.63,-628.94 638.13,-638.94 645.13,-638.94"/>
</g>
</g>
</svg>
