<?xml version="1.0" encoding="UTF-8" standalone="no"?>
<!DOCTYPE svg PUBLIC "-//W3C//DTD SVG 1.1//EN"
 "http://www.w3.org/Graphics/SVG/1.1/DTD/svg11.dtd">
<!-- Generated by graphviz version 12.2.1 (20241206.2353)
 -->
<!-- Title: AST Pages: 1 -->
<svg width="687pt" height="493pt"
 viewBox="0.00 0.00 687.38 492.50" xmlns="http://www.w3.org/2000/svg" xmlns:xlink="http://www.w3.org/1999/xlink">
<g id="graph0" class="graph" transform="scale(1 1) rotate(0) translate(4 488.5)">
<title>AST</title>
<polygon fill="white" stroke="none" points="-4,4 -4,-488.5 683.38,-488.5 683.38,4 -4,4"/>
<!-- n19 -->
<g id="node1" class="node">
<title>n19</title>
<polygon fill="none" stroke="black" points="461.88,-468 221.62,-468 221.62,-432 461.88,-432 461.88,-468"/>
<text text-anchor="middle" x="341.75" y="-444.95" font-family="Times New Roman,serif" font-size="14.00">ContextDecl: node(3) Context: node (18)</text>
<text text-anchor="middle" x="210.38" y="-471.2" font-family="Times New Roman,serif" font-size="14.00">(19)</text>
</g>
<!-- n3 -->
<g id="node2" class="node">
<title>n3</title>
<polygon fill="none" stroke="black" points="409.12,-396 50.38,-396 50.38,-360 409.12,-360 409.12,-396"/>
<text text-anchor="middle" x="229.75" y="-372.95" font-family="Times New Roman,serif" font-size="14.00">MultiDimArray::MultiDimArray(node (0), node (1), node (2))</text>
<text text-anchor="middle" x="42.5" y="-399.2" font-family="Times New Roman,serif" font-size="14.00">(3)</text>
</g>
<!-- n19&#45;&gt;n3 -->
<g id="edge1" class="edge">
<title>n19&#45;&gt;n3</title>
<path fill="none" stroke="black" d="M313.78,-431.52C299.64,-422.68 282.29,-411.84 267.03,-402.3"/>
<polygon fill="black" stroke="black" points="268.99,-399.39 258.65,-397.06 265.28,-405.33 268.99,-399.39"/>
</g>
<!-- n18 -->
<g id="node3" class="node">
<title>n18</title>
<polygon fill="none" stroke="black" points="484.75,-396 430.75,-396 430.75,-360 484.75,-360 484.75,-396"/>
<text text-anchor="middle" x="457.75" y="-372.95" font-family="Times New Roman,serif" font-size="14.00"> post:</text>
<text text-anchor="middle" x="397" y="-399.2" font-family="Times New Roman,serif" font-size="14.00">(18)Boolean</text>
</g>
<!-- n19&#45;&gt;n18 -->
<g id="edge2" class="edge">
<title>n19&#45;&gt;n18</title>
<path fill="none" stroke="black" d="M370.72,-431.52C385.84,-422.4 404.5,-411.13 420.66,-401.38"/>
<polygon fill="black" stroke="black" points="422.29,-404.48 429.05,-396.32 418.68,-398.49 422.29,-404.48"/>
</g>
<!-- n0 -->
<g id="node4" class="node">
<title>n0</title>
<polygon fill="none" stroke="black" points="136,-324 37.5,-324 37.5,-288 136,-288 136,-324"/>
<text text-anchor="middle" x="86.75" y="-300.95" font-family="Times New Roman,serif" font-size="14.00">dimension : int</text>
<text text-anchor="middle" x="22.5" y="-327.2" font-family="Times New Roman,serif" font-size="14.00">(0)int</text>
</g>
<!-- n3&#45;&gt;n0 -->
<g id="edge3" class="edge">
<title>n3&#45;&gt;n0</title>
<path fill="none" stroke="black" d="M194.03,-359.52C175.3,-350.34 152.14,-339.01 132.14,-329.22"/>
<polygon fill="black" stroke="black" points="133.89,-326.18 123.37,-324.93 130.81,-332.47 133.89,-326.18"/>
</g>
<!-- n1 -->
<g id="node5" class="node">
<title>n1</title>
<polygon fill="none" stroke="black" points="289.75,-324 153.75,-324 153.75,-288 289.75,-288 289.75,-324"/>
<text text-anchor="middle" x="221.75" y="-300.95" font-family="Times New Roman,serif" font-size="14.00">dimensionSizes : int[]</text>
<text text-anchor="middle" x="134.25" y="-327.2" font-family="Times New Roman,serif" font-size="14.00">(1)int[]</text>
</g>
<!-- n3&#45;&gt;n1 -->
<g id="edge4" class="edge">
<title>n3&#45;&gt;n1</title>
<path fill="none" stroke="black" d="M227.77,-359.7C226.94,-352.41 225.95,-343.73 225.01,-335.54"/>
<polygon fill="black" stroke="black" points="228.49,-335.15 223.88,-325.61 221.53,-335.94 228.49,-335.15"/>
</g>
<!-- n2 -->
<g id="node6" class="node">
<title>n2</title>
<polygon fill="none" stroke="black" points="417.62,-324 307.88,-324 307.88,-288 417.62,-288 417.62,-324"/>
<text text-anchor="middle" x="362.75" y="-300.95" font-family="Times New Roman,serif" font-size="14.00">inputArray : int[]</text>
<text text-anchor="middle" x="288.38" y="-327.2" font-family="Times New Roman,serif" font-size="14.00">(2)int[]</text>
</g>
<!-- n3&#45;&gt;n2 -->
<g id="edge5" class="edge">
<title>n3&#45;&gt;n2</title>
<path fill="none" stroke="black" d="M262.97,-359.52C280.24,-350.43 301.54,-339.22 320.02,-329.49"/>
<polygon fill="black" stroke="black" points="321.4,-332.72 328.62,-324.97 318.14,-326.53 321.4,-332.72"/>
</g>
<!-- n17 -->
<g id="node7" class="node">
<title>n17</title>
<polygon fill="none" stroke="black" points="489.75,-324 435.75,-324 435.75,-288 489.75,-288 489.75,-324"/>
<text text-anchor="middle" x="462.75" y="-300.95" font-family="Times New Roman,serif" font-size="14.00">and</text>
<text text-anchor="middle" x="402" y="-327.2" font-family="Times New Roman,serif" font-size="14.00">(17)Boolean</text>
</g>
<!-- n18&#45;&gt;n17 -->
<g id="edge6" class="edge">
<title>n18&#45;&gt;n17</title>
<path fill="none" stroke="black" d="M458.99,-359.7C459.51,-352.41 460.13,-343.73 460.71,-335.54"/>
<polygon fill="black" stroke="black" points="464.2,-335.84 461.42,-325.61 457.22,-335.34 464.2,-335.84"/>
</g>
<!-- n12 -->
<g id="node8" class="node">
<title>n12</title>
<polygon fill="none" stroke="black" points="410.75,-252 356.75,-252 356.75,-216 410.75,-216 410.75,-252"/>
<text text-anchor="middle" x="383.75" y="-228.95" font-family="Times New Roman,serif" font-size="14.00">and</text>
<text text-anchor="middle" x="323" y="-255.2" font-family="Times New Roman,serif" font-size="14.00">(12)Boolean</text>
</g>
<!-- n17&#45;&gt;n12 -->
<g id="edge7" class="edge">
<title>n17&#45;&gt;n12</title>
<path fill="none" stroke="black" d="M443.22,-287.7C433.73,-279.28 422.14,-269.02 411.73,-259.79"/>
<polygon fill="black" stroke="black" points="414.27,-257.36 404.46,-253.35 409.62,-262.6 414.27,-257.36"/>
</g>
<!-- n16 -->
<g id="node9" class="node">
<title>n16</title>
<polygon fill="none" stroke="black" points="568.75,-252 514.75,-252 514.75,-216 568.75,-216 568.75,-252"/>
<text text-anchor="middle" x="541.75" y="-228.95" font-family="Times New Roman,serif" font-size="14.00">=</text>
<text text-anchor="middle" x="481" y="-255.2" font-family="Times New Roman,serif" font-size="14.00">(16)Boolean</text>
</g>
<!-- n17&#45;&gt;n16 -->
<g id="edge8" class="edge">
<title>n17&#45;&gt;n16</title>
<path fill="none" stroke="black" d="M482.28,-287.7C491.77,-279.28 503.36,-269.02 513.77,-259.79"/>
<polygon fill="black" stroke="black" points="515.88,-262.6 521.04,-253.35 511.23,-257.36 515.88,-262.6"/>
</g>
<!-- n7 -->
<g id="node10" class="node">
<title>n7</title>
<polygon fill="none" stroke="black" points="259.75,-180 205.75,-180 205.75,-144 259.75,-144 259.75,-180"/>
<text text-anchor="middle" x="232.75" y="-156.95" font-family="Times New Roman,serif" font-size="14.00">=</text>
<text text-anchor="middle" x="175.38" y="-183.2" font-family="Times New Roman,serif" font-size="14.00">(7)Boolean</text>
</g>
<!-- n12&#45;&gt;n7 -->
<g id="edge9" class="edge">
<title>n12&#45;&gt;n7</title>
<path fill="none" stroke="black" d="M356.41,-220.32C332.32,-209.16 297.02,-192.79 270.29,-180.4"/>
<polygon fill="black" stroke="black" points="272.06,-177.37 261.52,-176.34 269.12,-183.72 272.06,-177.37"/>
</g>
<!-- n11 -->
<g id="node11" class="node">
<title>n11</title>
<polygon fill="none" stroke="black" points="410.75,-180 356.75,-180 356.75,-144 410.75,-144 410.75,-180"/>
<text text-anchor="middle" x="383.75" y="-156.95" font-family="Times New Roman,serif" font-size="14.00">=</text>
<text text-anchor="middle" x="323" y="-183.2" font-family="Times New Roman,serif" font-size="14.00">(11)Boolean</text>
</g>
<!-- n12&#45;&gt;n11 -->
<g id="edge10" class="edge">
<title>n12&#45;&gt;n11</title>
<path fill="none" stroke="black" d="M383.75,-215.7C383.75,-208.41 383.75,-199.73 383.75,-191.54"/>
<polygon fill="black" stroke="black" points="387.25,-191.62 383.75,-181.62 380.25,-191.62 387.25,-191.62"/>
</g>
<!-- n14 -->
<g id="node12" class="node">
<title>n14</title>
<polygon fill="none" stroke="black" points="585.75,-180 497.75,-180 497.75,-144 585.75,-144 585.75,-180"/>
<text text-anchor="middle" x="541.75" y="-156.95" font-family="Times New Roman,serif" font-size="14.00">self.elements</text>
<text text-anchor="middle" x="474.88" y="-183.2" font-family="Times New Roman,serif" font-size="14.00">(14)int[]</text>
</g>
<!-- n16&#45;&gt;n14 -->
<g id="edge11" class="edge">
<title>n16&#45;&gt;n14</title>
<path fill="none" stroke="black" d="M541.75,-215.7C541.75,-208.41 541.75,-199.73 541.75,-191.54"/>
<polygon fill="black" stroke="black" points="545.25,-191.62 541.75,-181.62 538.25,-191.62 545.25,-191.62"/>
</g>
<!-- n15 -->
<g id="node13" class="node">
<title>n15</title>
<polygon fill="none" stroke="black" points="679.38,-180 604.12,-180 604.12,-144 679.38,-144 679.38,-180"/>
<text text-anchor="middle" x="641.75" y="-156.95" font-family="Times New Roman,serif" font-size="14.00">inputArray</text>
<text text-anchor="middle" x="581.25" y="-183.2" font-family="Times New Roman,serif" font-size="14.00">(15)int[]</text>
</g>
<!-- n16&#45;&gt;n15 -->
<g id="edge12" class="edge">
<title>n16&#45;&gt;n15</title>
<path fill="none" stroke="black" d="M566.73,-215.52C579.11,-206.85 594.25,-196.25 607.68,-186.85"/>
<polygon fill="black" stroke="black" points="609.67,-189.73 615.85,-181.13 605.65,-184 609.67,-189.73"/>
</g>
<!-- n5 -->
<g id="node14" class="node">
<title>n5</title>
<polygon fill="none" stroke="black" points="177.88,-108 81.62,-108 81.62,-72 177.88,-72 177.88,-108"/>
<text text-anchor="middle" x="129.75" y="-84.95" font-family="Times New Roman,serif" font-size="14.00">self.dimension</text>
<text text-anchor="middle" x="66.62" y="-111.2" font-family="Times New Roman,serif" font-size="14.00">(5)int</text>
</g>
<!-- n7&#45;&gt;n5 -->
<g id="edge13" class="edge">
<title>n7&#45;&gt;n5</title>
<path fill="none" stroke="black" d="M207.02,-143.52C194.15,-134.76 178.37,-124.04 164.44,-114.58"/>
<polygon fill="black" stroke="black" points="166.64,-111.84 156.4,-109.11 162.7,-117.63 166.64,-111.84"/>
</g>
<!-- n6 -->
<g id="node15" class="node">
<title>n6</title>
<polygon fill="none" stroke="black" points="269.25,-108 196.25,-108 196.25,-72 269.25,-72 269.25,-108"/>
<text text-anchor="middle" x="232.75" y="-84.95" font-family="Times New Roman,serif" font-size="14.00">dimension</text>
<text text-anchor="middle" x="181.25" y="-111.2" font-family="Times New Roman,serif" font-size="14.00">(6)int</text>
</g>
<!-- n7&#45;&gt;n6 -->
<g id="edge14" class="edge">
<title>n7&#45;&gt;n6</title>
<path fill="none" stroke="black" d="M232.75,-143.7C232.75,-136.41 232.75,-127.73 232.75,-119.54"/>
<polygon fill="black" stroke="black" points="236.25,-119.62 232.75,-109.62 229.25,-119.62 236.25,-119.62"/>
</g>
<!-- n9 -->
<g id="node16" class="node">
<title>n9</title>
<polygon fill="none" stroke="black" points="412.12,-108 287.38,-108 287.38,-72 412.12,-72 412.12,-108"/>
<text text-anchor="middle" x="349.75" y="-84.95" font-family="Times New Roman,serif" font-size="14.00">self.dimensionSizes</text>
<text text-anchor="middle" x="267.88" y="-111.2" font-family="Times New Roman,serif" font-size="14.00">(9)int[]</text>
</g>
<!-- n11&#45;&gt;n9 -->
<g id="edge15" class="edge">
<title>n11&#45;&gt;n9</title>
<path fill="none" stroke="black" d="M375.35,-143.7C371.64,-136.07 367.19,-126.92 363.06,-118.4"/>
<polygon fill="black" stroke="black" points="366.24,-116.93 358.72,-109.47 359.94,-119.99 366.24,-116.93"/>
</g>
<!-- n10 -->
<g id="node17" class="node">
<title>n10</title>
<polygon fill="none" stroke="black" points="531.5,-108 430,-108 430,-72 531.5,-72 531.5,-108"/>
<text text-anchor="middle" x="480.75" y="-84.95" font-family="Times New Roman,serif" font-size="14.00">dimensionSizes</text>
<text text-anchor="middle" x="407.12" y="-111.2" font-family="Times New Roman,serif" font-size="14.00">(10)int[]</text>
</g>
<!-- n11&#45;&gt;n10 -->
<g id="edge16" class="edge">
<title>n11&#45;&gt;n10</title>
<path fill="none" stroke="black" d="M407.73,-143.7C419.74,-135.03 434.47,-124.4 447.54,-114.96"/>
<polygon fill="black" stroke="black" points="449.42,-117.92 455.48,-109.23 445.33,-112.25 449.42,-117.92"/>
</g>
<!-- n13 -->
<g id="node18" class="node">
<title>n13</title>
<polygon fill="none" stroke="black" points="603.75,-108 549.75,-108 549.75,-72 603.75,-72 603.75,-108"/>
<text text-anchor="middle" x="576.75" y="-84.95" font-family="Times New Roman,serif" font-size="14.00">self</text>
<text text-anchor="middle" x="495" y="-111.2" font-family="Times New Roman,serif" font-size="14.00">(13)MultiDimArray</text>
</g>
<!-- n14&#45;&gt;n13 -->
<g id="edge17" class="edge">
<title>n14&#45;&gt;n13</title>
<path fill="none" stroke="black" d="M550.4,-143.7C554.22,-136.07 558.79,-126.92 563.05,-118.4"/>
<polygon fill="black" stroke="black" points="566.18,-119.97 567.52,-109.46 559.92,-116.84 566.18,-119.97"/>
</g>
<!-- n4 -->
<g id="node19" class="node">
<title>n4</title>
<polygon fill="none" stroke="black" points="156.75,-36 102.75,-36 102.75,0 156.75,0 156.75,-36"/>
<text text-anchor="middle" x="129.75" y="-12.95" font-family="Times New Roman,serif" font-size="14.00">self</text>
<text text-anchor="middle" x="51.38" y="-39.2" font-family="Times New Roman,serif" font-size="14.00">(4)MultiDimArray</text>
</g>
<!-- n5&#45;&gt;n4 -->
<g id="edge18" class="edge">
<title>n5&#45;&gt;n4</title>
<path fill="none" stroke="black" d="M129.75,-71.7C129.75,-64.41 129.75,-55.73 129.75,-47.54"/>
<polygon fill="black" stroke="black" points="133.25,-47.62 129.75,-37.62 126.25,-47.62 133.25,-47.62"/>
</g>
<!-- n8 -->
<g id="node20" class="node">
<title>n8</title>
<polygon fill="none" stroke="black" points="376.75,-36 322.75,-36 322.75,0 376.75,0 376.75,-36"/>
<text text-anchor="middle" x="349.75" y="-12.95" font-family="Times New Roman,serif" font-size="14.00">self</text>
<text text-anchor="middle" x="271.38" y="-39.2" font-family="Times New Roman,serif" font-size="14.00">(8)MultiDimArray</text>
</g>
<!-- n9&#45;&gt;n8 -->
<g id="edge19" class="edge">
<title>n9&#45;&gt;n8</title>
<path fill="none" stroke="black" d="M349.75,-71.7C349.75,-64.41 349.75,-55.73 349.75,-47.54"/>
<polygon fill="black" stroke="black" points="353.25,-47.62 349.75,-37.62 346.25,-47.62 353.25,-47.62"/>
</g>
</g>
</svg>
