<?xml version="1.0" encoding="UTF-8" standalone="no"?>
<!DOCTYPE svg PUBLIC "-//W3C//DTD SVG 1.1//EN"
 "http://www.w3.org/Graphics/SVG/1.1/DTD/svg11.dtd">
<!-- Generated by graphviz version 12.2.1 (20241206.2353)
 -->
<!-- Title: AST Pages: 1 -->
<svg width="1737pt" height="629pt"
 viewBox="0.00 0.00 1736.50 629.00" xmlns="http://www.w3.org/2000/svg" xmlns:xlink="http://www.w3.org/1999/xlink">
<g id="graph0" class="graph" transform="scale(1 1) rotate(0) translate(4 625)">
<title>AST</title>
<polygon fill="white" stroke="none" points="-4,4 -4,-625 1732.5,-625 1732.5,4 -4,4"/>
<!-- n65 -->
<g id="node1" class="node">
<title>n65</title>
<polygon fill="none" stroke="black" points="675,-604.5 368,-604.5 368,-568.5 675,-568.5 675,-604.5"/>
<text text-anchor="middle" x="521.5" y="-581.45" font-family="Times New Roman,serif" font-size="14.00">ContextDecl: node(21) Context: node (33), node (64)</text>
<text text-anchor="middle" x="356.75" y="-607.7" font-family="Times New Roman,serif" font-size="14.00">(65)</text>
</g>
<!-- n21 -->
<g id="node2" class="node">
<title>n21</title>
<polygon fill="none" stroke="black" points="408.38,-532.5 118.62,-532.5 118.62,-496.5 408.38,-496.5 408.38,-532.5"/>
<text text-anchor="middle" x="263.5" y="-509.45" font-family="Times New Roman,serif" font-size="14.00">MultiDimArray::add(node (20)) : MultiDimArray</text>
<text text-anchor="middle" x="107.38" y="-535.7" font-family="Times New Roman,serif" font-size="14.00">(21)</text>
</g>
<!-- n65&#45;&gt;n21 -->
<g id="edge1" class="edge">
<title>n65&#45;&gt;n21</title>
<path fill="none" stroke="black" d="M457.06,-568.02C421.06,-558.25 376.03,-546.03 338.46,-535.84"/>
<polygon fill="black" stroke="black" points="339.59,-532.52 329.02,-533.28 337.76,-539.27 339.59,-532.52"/>
</g>
<!-- n33 -->
<g id="node3" class="node">
<title>n33</title>
<polygon fill="none" stroke="black" points="616.5,-532.5 426.5,-532.5 426.5,-496.5 616.5,-496.5 616.5,-532.5"/>
<text text-anchor="middle" x="521.5" y="-509.45" font-family="Times New Roman,serif" font-size="14.00">IllegalDimensionException pre:</text>
<text text-anchor="middle" x="392.75" y="-535.7" font-family="Times New Roman,serif" font-size="14.00">(33)Boolean</text>
</g>
<!-- n65&#45;&gt;n33 -->
<g id="edge2" class="edge">
<title>n65&#45;&gt;n33</title>
<path fill="none" stroke="black" d="M521.5,-568.2C521.5,-560.91 521.5,-552.23 521.5,-544.04"/>
<polygon fill="black" stroke="black" points="525,-544.12 521.5,-534.12 518,-544.12 525,-544.12"/>
</g>
<!-- n64 -->
<g id="node4" class="node">
<title>n64</title>
<polygon fill="none" stroke="black" points="727.5,-532.5 673.5,-532.5 673.5,-496.5 727.5,-496.5 727.5,-532.5"/>
<text text-anchor="middle" x="700.5" y="-509.45" font-family="Times New Roman,serif" font-size="14.00"> post:</text>
<text text-anchor="middle" x="639.75" y="-535.7" font-family="Times New Roman,serif" font-size="14.00">(64)Boolean</text>
</g>
<!-- n65&#45;&gt;n64 -->
<g id="edge3" class="edge">
<title>n65&#45;&gt;n64</title>
<path fill="none" stroke="black" d="M566.21,-568.02C595.83,-556.43 634.26,-541.4 662.42,-530.39"/>
<polygon fill="black" stroke="black" points="663.6,-533.69 671.64,-526.79 661.05,-527.17 663.6,-533.69"/>
</g>
<!-- n20 -->
<g id="node5" class="node">
<title>n20</title>
<polygon fill="none" stroke="black" points="329.25,-458 197.75,-458 197.75,-422 329.25,-422 329.25,-458"/>
<text text-anchor="middle" x="263.5" y="-434.95" font-family="Times New Roman,serif" font-size="14.00">arg : MultiDimArray</text>
<text text-anchor="middle" x="143" y="-461.2" font-family="Times New Roman,serif" font-size="14.00">(20)MultiDimArray</text>
</g>
<!-- n21&#45;&gt;n20 -->
<g id="edge4" class="edge">
<title>n21&#45;&gt;n20</title>
<path fill="none" stroke="black" d="M263.5,-496.32C263.5,-488.28 263.5,-478.5 263.5,-469.41"/>
<polygon fill="black" stroke="black" points="267,-469.57 263.5,-459.57 260,-469.57 267,-469.57"/>
</g>
<!-- n32 -->
<g id="node6" class="node">
<title>n32</title>
<polygon fill="none" stroke="black" points="474.5,-458 420.5,-458 420.5,-422 474.5,-422 474.5,-458"/>
<text text-anchor="middle" x="447.5" y="-434.95" font-family="Times New Roman,serif" font-size="14.00">and</text>
<text text-anchor="middle" x="386.75" y="-461.2" font-family="Times New Roman,serif" font-size="14.00">(32)Boolean</text>
</g>
<!-- n33&#45;&gt;n32 -->
<g id="edge5" class="edge">
<title>n33&#45;&gt;n32</title>
<path fill="none" stroke="black" d="M503.96,-496.32C494.81,-487.35 483.45,-476.22 473.31,-466.29"/>
<polygon fill="black" stroke="black" points="475.84,-463.87 466.25,-459.37 470.94,-468.87 475.84,-463.87"/>
</g>
<!-- n63 -->
<g id="node7" class="node">
<title>n63</title>
<polygon fill="none" stroke="black" points="843.25,-460.5 633.75,-460.5 633.75,-419.5 843.25,-419.5 843.25,-460.5"/>
<text text-anchor="middle" x="738.5" y="-443.2" font-family="Times New Roman,serif" font-size="14.00">LetExp </text>
<text text-anchor="middle" x="738.5" y="-426.7" font-family="Times New Roman,serif" font-size="14.00">Let node(42), node(62) in node(62)</text>
<text text-anchor="middle" x="600" y="-463.7" font-family="Times New Roman,serif" font-size="14.00">(63)Boolean</text>
</g>
<!-- n64&#45;&gt;n63 -->
<g id="edge6" class="edge">
<title>n64&#45;&gt;n63</title>
<path fill="none" stroke="black" d="M709.51,-496.32C713.47,-488.76 718.24,-479.65 722.76,-471.02"/>
<polygon fill="black" stroke="black" points="725.83,-472.7 727.38,-462.22 719.63,-469.45 725.83,-472.7"/>
</g>
<!-- n26 -->
<g id="node8" class="node">
<title>n26</title>
<polygon fill="none" stroke="black" points="276.5,-372.75 222.5,-372.75 222.5,-336.75 276.5,-336.75 276.5,-372.75"/>
<text text-anchor="middle" x="249.5" y="-349.7" font-family="Times New Roman,serif" font-size="14.00">=</text>
<text text-anchor="middle" x="188.75" y="-375.95" font-family="Times New Roman,serif" font-size="14.00">(26)Boolean</text>
</g>
<!-- n32&#45;&gt;n26 -->
<g id="edge7" class="edge">
<title>n32&#45;&gt;n26</title>
<path fill="none" stroke="black" d="M420.38,-427.6C385.92,-413.11 326.24,-388.01 287.31,-371.65"/>
<polygon fill="black" stroke="black" points="288.89,-368.52 278.32,-367.87 286.18,-374.97 288.89,-368.52"/>
</g>
<!-- n31 -->
<g id="node9" class="node">
<title>n31</title>
<polygon fill="none" stroke="black" points="474.5,-372.75 420.5,-372.75 420.5,-336.75 474.5,-336.75 474.5,-372.75"/>
<text text-anchor="middle" x="447.5" y="-349.7" font-family="Times New Roman,serif" font-size="14.00">=</text>
<text text-anchor="middle" x="386.75" y="-375.95" font-family="Times New Roman,serif" font-size="14.00">(31)Boolean</text>
</g>
<!-- n32&#45;&gt;n31 -->
<g id="edge8" class="edge">
<title>n32&#45;&gt;n31</title>
<path fill="none" stroke="black" d="M447.5,-421.75C447.5,-410.92 447.5,-396.7 447.5,-384.23"/>
<polygon fill="black" stroke="black" points="451,-384.49 447.5,-374.49 444,-384.49 451,-384.49"/>
</g>
<!-- n42 -->
<g id="node10" class="node">
<title>n42</title>
<polygon fill="none" stroke="black" points="808.38,-372.75 668.62,-372.75 668.62,-336.75 808.38,-336.75 808.38,-372.75"/>
<text text-anchor="middle" x="738.5" y="-349.7" font-family="Times New Roman,serif" font-size="14.00">length : int = node(41)</text>
<text text-anchor="middle" x="650.25" y="-375.95" font-family="Times New Roman,serif" font-size="14.00">(42)int</text>
</g>
<!-- n63&#45;&gt;n42 -->
<g id="edge9" class="edge">
<title>n63&#45;&gt;n42</title>
<path fill="none" stroke="black" d="M738.5,-419.27C738.5,-408.85 738.5,-395.87 738.5,-384.37"/>
<polygon fill="black" stroke="black" points="742,-384.59 738.5,-374.59 735,-384.59 742,-384.59"/>
</g>
<!-- n62 -->
<g id="node11" class="node">
<title>n62</title>
<polygon fill="none" stroke="black" points="1236.88,-383.5 1028.12,-383.5 1028.12,-326 1236.88,-326 1236.88,-383.5"/>
<text text-anchor="middle" x="1132.5" y="-366.2" font-family="Times New Roman,serif" font-size="14.00">IterateExp</text>
<text text-anchor="middle" x="1132.5" y="-349.7" font-family="Times New Roman,serif" font-size="14.00">source=node(47) Iterator=node(48)</text>
<text text-anchor="middle" x="1132.5" y="-333.2" font-family="Times New Roman,serif" font-size="14.00">Result=node(50) Body=node(61)</text>
<text text-anchor="middle" x="994.38" y="-386.7" font-family="Times New Roman,serif" font-size="14.00">(62)Boolean</text>
</g>
<!-- n63&#45;&gt;n62 -->
<g id="edge10" class="edge">
<title>n63&#45;&gt;n62</title>
<path fill="none" stroke="black" d="M833.12,-419.01C888.31,-407.35 958.34,-392.55 1016.79,-380.2"/>
<polygon fill="black" stroke="black" points="1017.4,-383.65 1026.46,-378.16 1015.95,-376.8 1017.4,-383.65"/>
</g>
<!-- n23 -->
<g id="node12" class="node">
<title>n23</title>
<polygon fill="none" stroke="black" points="183.5,-279.25 89.5,-279.25 89.5,-243.25 183.5,-243.25 183.5,-279.25"/>
<text text-anchor="middle" x="136.5" y="-256.2" font-family="Times New Roman,serif" font-size="14.00">arg.dimension</text>
<text text-anchor="middle" x="71.12" y="-282.45" font-family="Times New Roman,serif" font-size="14.00">(23)int</text>
</g>
<!-- n26&#45;&gt;n23 -->
<g id="edge11" class="edge">
<title>n26&#45;&gt;n23</title>
<path fill="none" stroke="black" d="M227.98,-336.32C210.62,-322.27 186,-302.33 166.67,-286.68"/>
<polygon fill="black" stroke="black" points="169.09,-284.14 159.12,-280.56 164.69,-289.58 169.09,-284.14"/>
</g>
<!-- n25 -->
<g id="node13" class="node">
<title>n25</title>
<polygon fill="none" stroke="black" points="297.62,-279.25 201.38,-279.25 201.38,-243.25 297.62,-243.25 297.62,-279.25"/>
<text text-anchor="middle" x="249.5" y="-256.2" font-family="Times New Roman,serif" font-size="14.00">self.dimension</text>
<text text-anchor="middle" x="183" y="-282.45" font-family="Times New Roman,serif" font-size="14.00">(25)int</text>
</g>
<!-- n26&#45;&gt;n25 -->
<g id="edge12" class="edge">
<title>n26&#45;&gt;n25</title>
<path fill="none" stroke="black" d="M249.5,-336.54C249.5,-323.71 249.5,-305.9 249.5,-290.94"/>
<polygon fill="black" stroke="black" points="253,-291.21 249.5,-281.21 246,-291.21 253,-291.21"/>
</g>
<!-- n28 -->
<g id="node14" class="node">
<title>n28</title>
<polygon fill="none" stroke="black" points="437.75,-279.25 315.25,-279.25 315.25,-243.25 437.75,-243.25 437.75,-279.25"/>
<text text-anchor="middle" x="376.5" y="-256.2" font-family="Times New Roman,serif" font-size="14.00">arg.dimensionSizes</text>
<text text-anchor="middle" x="292.38" y="-282.45" font-family="Times New Roman,serif" font-size="14.00">(28)int[]</text>
</g>
<!-- n31&#45;&gt;n28 -->
<g id="edge13" class="edge">
<title>n31&#45;&gt;n28</title>
<path fill="none" stroke="black" d="M434.15,-336.54C423.7,-323.08 409,-304.13 397.05,-288.74"/>
<polygon fill="black" stroke="black" points="399.86,-286.64 390.96,-280.89 394.33,-290.94 399.86,-286.64"/>
</g>
<!-- n30 -->
<g id="node15" class="node">
<title>n30</title>
<polygon fill="none" stroke="black" points="580.88,-279.25 456.12,-279.25 456.12,-243.25 580.88,-243.25 580.88,-279.25"/>
<text text-anchor="middle" x="518.5" y="-256.2" font-family="Times New Roman,serif" font-size="14.00">self.dimensionSizes</text>
<text text-anchor="middle" x="433.25" y="-282.45" font-family="Times New Roman,serif" font-size="14.00">(30)int[]</text>
</g>
<!-- n31&#45;&gt;n30 -->
<g id="edge14" class="edge">
<title>n31&#45;&gt;n30</title>
<path fill="none" stroke="black" d="M460.85,-336.54C471.3,-323.08 486,-304.13 497.95,-288.74"/>
<polygon fill="black" stroke="black" points="500.67,-290.94 504.04,-280.89 495.14,-286.64 500.67,-290.94"/>
</g>
<!-- n41 -->
<g id="node16" class="node">
<title>n41</title>
<polygon fill="none" stroke="black" points="842.88,-290 634.12,-290 634.12,-232.5 842.88,-232.5 842.88,-290"/>
<text text-anchor="middle" x="738.5" y="-272.7" font-family="Times New Roman,serif" font-size="14.00">IterateExp</text>
<text text-anchor="middle" x="738.5" y="-256.2" font-family="Times New Roman,serif" font-size="14.00">source=node(34) Iterator=node(35)</text>
<text text-anchor="middle" x="738.5" y="-239.7" font-family="Times New Roman,serif" font-size="14.00">Result=node(37) Body=node(40)</text>
<text text-anchor="middle" x="615.75" y="-293.2" font-family="Times New Roman,serif" font-size="14.00">(41)int</text>
</g>
<!-- n42&#45;&gt;n41 -->
<g id="edge15" class="edge">
<title>n42&#45;&gt;n41</title>
<path fill="none" stroke="black" d="M738.5,-336.54C738.5,-326.65 738.5,-313.81 738.5,-301.58"/>
<polygon fill="black" stroke="black" points="742,-301.69 738.5,-291.69 735,-301.69 742,-301.69"/>
</g>
<!-- n47 -->
<g id="node17" class="node">
<title>n47</title>
<polygon fill="none" stroke="black" points="1079.12,-279.25 877.88,-279.25 877.88,-243.25 1079.12,-243.25 1079.12,-279.25"/>
<text text-anchor="middle" x="978.5" y="-256.2" font-family="Times New Roman,serif" font-size="14.00">Sequence{ node(43) .. node(46) }</text>
<text text-anchor="middle" x="896.25" y="-282.45" font-family="Times New Roman,serif" font-size="14.00">(47)int</text>
</g>
<!-- n62&#45;&gt;n47 -->
<g id="edge16" class="edge">
<title>n62&#45;&gt;n47</title>
<path fill="none" stroke="black" d="M1085.04,-325.55C1063.32,-312.64 1037.9,-297.54 1017.34,-285.33"/>
<polygon fill="black" stroke="black" points="1019.36,-282.46 1008.98,-280.36 1015.78,-288.47 1019.36,-282.46"/>
</g>
<!-- n48 -->
<g id="node18" class="node">
<title>n48</title>
<polygon fill="none" stroke="black" points="1168.25,-279.25 1096.75,-279.25 1096.75,-243.25 1168.25,-243.25 1168.25,-279.25"/>
<text text-anchor="middle" x="1132.5" y="-256.2" font-family="Times New Roman,serif" font-size="14.00">index : int</text>
<text text-anchor="middle" x="1078.38" y="-282.45" font-family="Times New Roman,serif" font-size="14.00">(48)int</text>
</g>
<!-- n62&#45;&gt;n48 -->
<g id="edge17" class="edge">
<title>n62&#45;&gt;n48</title>
<path fill="none" stroke="black" d="M1132.5,-325.8C1132.5,-314.76 1132.5,-302.09 1132.5,-290.97"/>
<polygon fill="black" stroke="black" points="1136,-291.19 1132.5,-281.19 1129,-291.19 1136,-291.19"/>
</g>
<!-- n50 -->
<g id="node19" class="node">
<title>n50</title>
<polygon fill="none" stroke="black" points="1354.62,-279.25 1186.38,-279.25 1186.38,-243.25 1354.62,-243.25 1354.62,-279.25"/>
<text text-anchor="middle" x="1270.5" y="-256.2" font-family="Times New Roman,serif" font-size="14.00">check : Boolean = node(49)</text>
<text text-anchor="middle" x="1152.62" y="-282.45" font-family="Times New Roman,serif" font-size="14.00">(50)Boolean</text>
</g>
<!-- n62&#45;&gt;n50 -->
<g id="edge18" class="edge">
<title>n62&#45;&gt;n50</title>
<path fill="none" stroke="black" d="M1175.03,-325.55C1194.23,-312.82 1216.65,-297.95 1234.94,-285.83"/>
<polygon fill="black" stroke="black" points="1236.7,-288.86 1243.1,-280.42 1232.83,-283.03 1236.7,-288.86"/>
</g>
<!-- n61 -->
<g id="node20" class="node">
<title>n61</title>
<polygon fill="none" stroke="black" points="1426.5,-279.25 1372.5,-279.25 1372.5,-243.25 1426.5,-243.25 1426.5,-279.25"/>
<text text-anchor="middle" x="1399.5" y="-256.2" font-family="Times New Roman,serif" font-size="14.00">=</text>
<text text-anchor="middle" x="1338.75" y="-282.45" font-family="Times New Roman,serif" font-size="14.00">(61)Boolean</text>
</g>
<!-- n62&#45;&gt;n61 -->
<g id="edge19" class="edge">
<title>n62&#45;&gt;n61</title>
<path fill="none" stroke="black" d="M1237.13,-333.95C1277.88,-323.94 1324.14,-309.65 1363.5,-290 1365.88,-288.81 1368.26,-287.45 1370.6,-285.99"/>
<polygon fill="black" stroke="black" points="1372.4,-289.01 1378.62,-280.43 1368.4,-283.25 1372.4,-289.01"/>
</g>
<!-- n22 -->
<g id="node21" class="node">
<title>n22</title>
<polygon fill="none" stroke="black" points="163.5,-196.5 109.5,-196.5 109.5,-160.5 163.5,-160.5 163.5,-196.5"/>
<text text-anchor="middle" x="136.5" y="-173.45" font-family="Times New Roman,serif" font-size="14.00">arg</text>
<text text-anchor="middle" x="54.75" y="-199.7" font-family="Times New Roman,serif" font-size="14.00">(22)MultiDimArray</text>
</g>
<!-- n23&#45;&gt;n22 -->
<g id="edge20" class="edge">
<title>n23&#45;&gt;n22</title>
<path fill="none" stroke="black" d="M136.5,-243.13C136.5,-233.02 136.5,-219.98 136.5,-208.33"/>
<polygon fill="black" stroke="black" points="140,-208.39 136.5,-198.39 133,-208.39 140,-208.39"/>
</g>
<!-- n24 -->
<g id="node22" class="node">
<title>n24</title>
<polygon fill="none" stroke="black" points="276.5,-196.5 222.5,-196.5 222.5,-160.5 276.5,-160.5 276.5,-196.5"/>
<text text-anchor="middle" x="249.5" y="-173.45" font-family="Times New Roman,serif" font-size="14.00">self</text>
<text text-anchor="middle" x="167.75" y="-199.7" font-family="Times New Roman,serif" font-size="14.00">(24)MultiDimArray</text>
</g>
<!-- n25&#45;&gt;n24 -->
<g id="edge21" class="edge">
<title>n25&#45;&gt;n24</title>
<path fill="none" stroke="black" d="M249.5,-243.13C249.5,-233.02 249.5,-219.98 249.5,-208.33"/>
<polygon fill="black" stroke="black" points="253,-208.39 249.5,-198.39 246,-208.39 253,-208.39"/>
</g>
<!-- n27 -->
<g id="node23" class="node">
<title>n27</title>
<polygon fill="none" stroke="black" points="403.5,-196.5 349.5,-196.5 349.5,-160.5 403.5,-160.5 403.5,-196.5"/>
<text text-anchor="middle" x="376.5" y="-173.45" font-family="Times New Roman,serif" font-size="14.00">arg</text>
<text text-anchor="middle" x="294.75" y="-199.7" font-family="Times New Roman,serif" font-size="14.00">(27)MultiDimArray</text>
</g>
<!-- n28&#45;&gt;n27 -->
<g id="edge22" class="edge">
<title>n28&#45;&gt;n27</title>
<path fill="none" stroke="black" d="M376.5,-243.13C376.5,-233.02 376.5,-219.98 376.5,-208.33"/>
<polygon fill="black" stroke="black" points="380,-208.39 376.5,-198.39 373,-208.39 380,-208.39"/>
</g>
<!-- n29 -->
<g id="node24" class="node">
<title>n29</title>
<polygon fill="none" stroke="black" points="527.5,-196.5 473.5,-196.5 473.5,-160.5 527.5,-160.5 527.5,-196.5"/>
<text text-anchor="middle" x="500.5" y="-173.45" font-family="Times New Roman,serif" font-size="14.00">self</text>
<text text-anchor="middle" x="418.75" y="-199.7" font-family="Times New Roman,serif" font-size="14.00">(29)MultiDimArray</text>
</g>
<!-- n30&#45;&gt;n29 -->
<g id="edge23" class="edge">
<title>n30&#45;&gt;n29</title>
<path fill="none" stroke="black" d="M514.68,-243.13C512.41,-232.92 509.46,-219.7 506.84,-207.96"/>
<polygon fill="black" stroke="black" points="510.3,-207.35 504.7,-198.36 503.46,-208.88 510.3,-207.35"/>
</g>
<!-- n34 -->
<g id="node25" class="node">
<title>n34</title>
<polygon fill="none" stroke="black" points="647.25,-196.5 545.75,-196.5 545.75,-160.5 647.25,-160.5 647.25,-196.5"/>
<text text-anchor="middle" x="596.5" y="-173.45" font-family="Times New Roman,serif" font-size="14.00">dimensionSizes</text>
<text text-anchor="middle" x="522.88" y="-199.7" font-family="Times New Roman,serif" font-size="14.00">(34)int[]</text>
</g>
<!-- n41&#45;&gt;n34 -->
<g id="edge24" class="edge">
<title>n41&#45;&gt;n34</title>
<path fill="none" stroke="black" d="M688.84,-232.01C671.75,-222.29 652.84,-211.54 636.61,-202.31"/>
<polygon fill="black" stroke="black" points="638.63,-199.43 628.21,-197.53 635.17,-205.52 638.63,-199.43"/>
</g>
<!-- n35 -->
<g id="node26" class="node">
<title>n35</title>
<polygon fill="none" stroke="black" points="719.5,-196.5 665.5,-196.5 665.5,-160.5 719.5,-160.5 719.5,-196.5"/>
<text text-anchor="middle" x="692.5" y="-173.45" font-family="Times New Roman,serif" font-size="14.00">i : int</text>
<text text-anchor="middle" x="647.12" y="-199.7" font-family="Times New Roman,serif" font-size="14.00">(35)int</text>
</g>
<!-- n41&#45;&gt;n35 -->
<g id="edge25" class="edge">
<title>n41&#45;&gt;n35</title>
<path fill="none" stroke="black" d="M722.41,-232.01C717.68,-223.69 712.51,-214.62 707.82,-206.39"/>
<polygon fill="black" stroke="black" points="710.95,-204.82 702.96,-197.86 704.87,-208.28 710.95,-204.82"/>
</g>
<!-- n37 -->
<g id="node27" class="node">
<title>n37</title>
<polygon fill="none" stroke="black" points="861.5,-196.5 737.5,-196.5 737.5,-160.5 861.5,-160.5 861.5,-196.5"/>
<text text-anchor="middle" x="799.5" y="-173.45" font-family="Times New Roman,serif" font-size="14.00">acc : int = node(36)</text>
<text text-anchor="middle" x="719.12" y="-199.7" font-family="Times New Roman,serif" font-size="14.00">(37)int</text>
</g>
<!-- n41&#45;&gt;n37 -->
<g id="edge26" class="edge">
<title>n41&#45;&gt;n37</title>
<path fill="none" stroke="black" d="M759.83,-232.01C766.33,-223.42 773.43,-214.02 779.8,-205.57"/>
<polygon fill="black" stroke="black" points="782.48,-207.84 785.71,-197.75 776.89,-203.62 782.48,-207.84"/>
</g>
<!-- n40 -->
<g id="node28" class="node">
<title>n40</title>
<polygon fill="none" stroke="black" points="933.5,-196.5 879.5,-196.5 879.5,-160.5 933.5,-160.5 933.5,-196.5"/>
<text text-anchor="middle" x="906.5" y="-173.45" font-family="Times New Roman,serif" font-size="14.00">*</text>
<text text-anchor="middle" x="824.75" y="-199.7" font-family="Times New Roman,serif" font-size="14.00">(40)MultiDimArray</text>
</g>
<!-- n41&#45;&gt;n40 -->
<g id="edge27" class="edge">
<title>n41&#45;&gt;n40</title>
<path fill="none" stroke="black" d="M797.26,-232.01C821.06,-220.57 847.83,-207.7 868.92,-197.56"/>
<polygon fill="black" stroke="black" points="870.22,-200.82 877.72,-193.33 867.19,-194.51 870.22,-200.82"/>
</g>
<!-- n43 -->
<g id="node29" class="node">
<title>n43</title>
<polygon fill="none" stroke="black" points="1005.5,-196.5 951.5,-196.5 951.5,-160.5 1005.5,-160.5 1005.5,-196.5"/>
<text text-anchor="middle" x="978.5" y="-173.45" font-family="Times New Roman,serif" font-size="14.00">0</text>
<text text-anchor="middle" x="933.12" y="-199.7" font-family="Times New Roman,serif" font-size="14.00">(43)int</text>
</g>
<!-- n47&#45;&gt;n43 -->
<g id="edge28" class="edge">
<title>n47&#45;&gt;n43</title>
<path fill="none" stroke="black" d="M978.5,-243.13C978.5,-233.02 978.5,-219.98 978.5,-208.33"/>
<polygon fill="black" stroke="black" points="982,-208.39 978.5,-198.39 975,-208.39 982,-208.39"/>
</g>
<!-- n46 -->
<g id="node30" class="node">
<title>n46</title>
<polygon fill="none" stroke="black" points="1077.5,-196.5 1023.5,-196.5 1023.5,-160.5 1077.5,-160.5 1077.5,-196.5"/>
<text text-anchor="middle" x="1050.5" y="-173.45" font-family="Times New Roman,serif" font-size="14.00">&#45;</text>
<text text-anchor="middle" x="1005.12" y="-199.7" font-family="Times New Roman,serif" font-size="14.00">(46)int</text>
</g>
<!-- n47&#45;&gt;n46 -->
<g id="edge29" class="edge">
<title>n47&#45;&gt;n46</title>
<path fill="none" stroke="black" d="M993.77,-243.13C1003.54,-232.17 1016.39,-217.76 1027.39,-205.42"/>
<polygon fill="black" stroke="black" points="1029.95,-207.8 1034,-198.01 1024.73,-203.14 1029.95,-207.8"/>
</g>
<!-- n49 -->
<g id="node31" class="node">
<title>n49</title>
<polygon fill="none" stroke="black" points="1297.5,-196.5 1243.5,-196.5 1243.5,-160.5 1297.5,-160.5 1297.5,-196.5"/>
<text text-anchor="middle" x="1270.5" y="-173.45" font-family="Times New Roman,serif" font-size="14.00">true</text>
<text text-anchor="middle" x="1209.75" y="-199.7" font-family="Times New Roman,serif" font-size="14.00">(49)Boolean</text>
</g>
<!-- n50&#45;&gt;n49 -->
<g id="edge30" class="edge">
<title>n50&#45;&gt;n49</title>
<path fill="none" stroke="black" d="M1270.5,-243.13C1270.5,-233.02 1270.5,-219.98 1270.5,-208.33"/>
<polygon fill="black" stroke="black" points="1274,-208.39 1270.5,-198.39 1267,-208.39 1274,-208.39"/>
</g>
<!-- n53 -->
<g id="node32" class="node">
<title>n53</title>
<polygon fill="none" stroke="black" points="1460.25,-196.5 1322.75,-196.5 1322.75,-160.5 1460.25,-160.5 1460.25,-196.5"/>
<text text-anchor="middle" x="1391.5" y="-173.45" font-family="Times New Roman,serif" font-size="14.00">result.elements[index]</text>
<text text-anchor="middle" x="1304.38" y="-199.7" font-family="Times New Roman,serif" font-size="14.00">(53)int</text>
</g>
<!-- n61&#45;&gt;n53 -->
<g id="edge31" class="edge">
<title>n61&#45;&gt;n53</title>
<path fill="none" stroke="black" d="M1397.8,-243.13C1396.8,-233.02 1395.51,-219.98 1394.36,-208.33"/>
<polygon fill="black" stroke="black" points="1397.84,-207.99 1393.37,-198.38 1390.87,-208.68 1397.84,-207.99"/>
</g>
<!-- n60 -->
<g id="node33" class="node">
<title>n60</title>
<polygon fill="none" stroke="black" points="1532.5,-196.5 1478.5,-196.5 1478.5,-160.5 1532.5,-160.5 1532.5,-196.5"/>
<text text-anchor="middle" x="1505.5" y="-173.45" font-family="Times New Roman,serif" font-size="14.00">+</text>
<text text-anchor="middle" x="1460.12" y="-199.7" font-family="Times New Roman,serif" font-size="14.00">(60)int</text>
</g>
<!-- n61&#45;&gt;n60 -->
<g id="edge32" class="edge">
<title>n61&#45;&gt;n60</title>
<path fill="none" stroke="black" d="M1422.24,-242.93C1437.33,-231.43 1457.34,-216.19 1473.96,-203.52"/>
<polygon fill="black" stroke="black" points="1475.76,-206.56 1481.59,-197.71 1471.52,-200.99 1475.76,-206.56"/>
</g>
<!-- n36 -->
<g id="node34" class="node">
<title>n36</title>
<polygon fill="none" stroke="black" points="826.5,-124.5 772.5,-124.5 772.5,-88.5 826.5,-88.5 826.5,-124.5"/>
<text text-anchor="middle" x="799.5" y="-101.45" font-family="Times New Roman,serif" font-size="14.00">1</text>
<text text-anchor="middle" x="754.12" y="-127.7" font-family="Times New Roman,serif" font-size="14.00">(36)int</text>
</g>
<!-- n37&#45;&gt;n36 -->
<g id="edge33" class="edge">
<title>n37&#45;&gt;n36</title>
<path fill="none" stroke="black" d="M799.5,-160.2C799.5,-152.91 799.5,-144.23 799.5,-136.04"/>
<polygon fill="black" stroke="black" points="803,-136.12 799.5,-126.12 796,-136.12 803,-136.12"/>
</g>
<!-- n38 -->
<g id="node35" class="node">
<title>n38</title>
<polygon fill="none" stroke="black" points="916.5,-124.5 862.5,-124.5 862.5,-88.5 916.5,-88.5 916.5,-124.5"/>
<text text-anchor="middle" x="889.5" y="-101.45" font-family="Times New Roman,serif" font-size="14.00">result</text>
<text text-anchor="middle" x="807.75" y="-75.2" font-family="Times New Roman,serif" font-size="14.00">(38)MultiDimArray</text>
</g>
<!-- n40&#45;&gt;n38 -->
<g id="edge34" class="edge">
<title>n40&#45;&gt;n38</title>
<path fill="none" stroke="black" d="M902.3,-160.2C900.51,-152.82 898.37,-144.02 896.36,-135.75"/>
<polygon fill="black" stroke="black" points="899.77,-134.97 894.01,-126.08 892.97,-136.62 899.77,-134.97"/>
</g>
<!-- n39 -->
<g id="node36" class="node">
<title>n39</title>
<polygon fill="none" stroke="black" points="988.5,-124.5 934.5,-124.5 934.5,-88.5 988.5,-88.5 988.5,-124.5"/>
<text text-anchor="middle" x="961.5" y="-101.45" font-family="Times New Roman,serif" font-size="14.00">i</text>
<text text-anchor="middle" x="916.12" y="-127.7" font-family="Times New Roman,serif" font-size="14.00">(39)int</text>
</g>
<!-- n40&#45;&gt;n39 -->
<g id="edge35" class="edge">
<title>n40&#45;&gt;n39</title>
<path fill="none" stroke="black" d="M920.1,-160.2C926.42,-152.14 934.08,-142.39 941.09,-133.48"/>
<polygon fill="black" stroke="black" points="943.7,-135.82 947.13,-125.79 938.2,-131.5 943.7,-135.82"/>
</g>
<!-- n44 -->
<g id="node37" class="node">
<title>n44</title>
<polygon fill="none" stroke="black" points="1069.5,-124.5 1015.5,-124.5 1015.5,-88.5 1069.5,-88.5 1069.5,-124.5"/>
<text text-anchor="middle" x="1042.5" y="-101.45" font-family="Times New Roman,serif" font-size="14.00">length</text>
<text text-anchor="middle" x="997.12" y="-127.7" font-family="Times New Roman,serif" font-size="14.00">(44)int</text>
</g>
<!-- n46&#45;&gt;n44 -->
<g id="edge36" class="edge">
<title>n46&#45;&gt;n44</title>
<path fill="none" stroke="black" d="M1048.52,-160.2C1047.69,-152.91 1046.7,-144.23 1045.76,-136.04"/>
<polygon fill="black" stroke="black" points="1049.24,-135.65 1044.63,-126.11 1042.28,-136.44 1049.24,-135.65"/>
</g>
<!-- n45 -->
<g id="node38" class="node">
<title>n45</title>
<polygon fill="none" stroke="black" points="1141.5,-124.5 1087.5,-124.5 1087.5,-88.5 1141.5,-88.5 1141.5,-124.5"/>
<text text-anchor="middle" x="1114.5" y="-101.45" font-family="Times New Roman,serif" font-size="14.00">1</text>
<text text-anchor="middle" x="1069.12" y="-127.7" font-family="Times New Roman,serif" font-size="14.00">(45)int</text>
</g>
<!-- n46&#45;&gt;n45 -->
<g id="edge37" class="edge">
<title>n46&#45;&gt;n45</title>
<path fill="none" stroke="black" d="M1066.32,-160.2C1073.84,-151.97 1082.97,-141.98 1091.26,-132.92"/>
<polygon fill="black" stroke="black" points="1093.68,-135.46 1097.84,-125.72 1088.51,-130.74 1093.68,-135.46"/>
</g>
<!-- n51 -->
<g id="node39" class="node">
<title>n51</title>
<polygon fill="none" stroke="black" points="1347.5,-124.5 1293.5,-124.5 1293.5,-88.5 1347.5,-88.5 1347.5,-124.5"/>
<text text-anchor="middle" x="1320.5" y="-101.45" font-family="Times New Roman,serif" font-size="14.00">result</text>
<text text-anchor="middle" x="1238.75" y="-127.7" font-family="Times New Roman,serif" font-size="14.00">(51)MultiDimArray</text>
</g>
<!-- n53&#45;&gt;n51 -->
<g id="edge38" class="edge">
<title>n53&#45;&gt;n51</title>
<path fill="none" stroke="black" d="M1373.95,-160.2C1365.52,-151.89 1355.27,-141.78 1346,-132.64"/>
<polygon fill="black" stroke="black" points="1348.5,-130.2 1338.93,-125.67 1343.59,-135.18 1348.5,-130.2"/>
</g>
<!-- n52 -->
<g id="node40" class="node">
<title>n52</title>
<polygon fill="none" stroke="black" points="1419.5,-124.5 1365.5,-124.5 1365.5,-88.5 1419.5,-88.5 1419.5,-124.5"/>
<text text-anchor="middle" x="1392.5" y="-101.45" font-family="Times New Roman,serif" font-size="14.00">index</text>
<text text-anchor="middle" x="1347.12" y="-127.7" font-family="Times New Roman,serif" font-size="14.00">(52)int</text>
</g>
<!-- n53&#45;&gt;n52 -->
<g id="edge39" class="edge">
<title>n53&#45;&gt;n52</title>
<path fill="none" stroke="black" d="M1391.75,-160.2C1391.85,-152.91 1391.98,-144.23 1392.09,-136.04"/>
<polygon fill="black" stroke="black" points="1395.59,-136.17 1392.23,-126.12 1388.59,-136.07 1395.59,-136.17"/>
</g>
<!-- n56 -->
<g id="node41" class="node">
<title>n56</title>
<polygon fill="none" stroke="black" points="1567,-124.5 1440,-124.5 1440,-88.5 1567,-88.5 1567,-124.5"/>
<text text-anchor="middle" x="1503.5" y="-101.45" font-family="Times New Roman,serif" font-size="14.00">self.elements[index]</text>
<text text-anchor="middle" x="1421.62" y="-127.7" font-family="Times New Roman,serif" font-size="14.00">(56)int</text>
</g>
<!-- n60&#45;&gt;n56 -->
<g id="edge40" class="edge">
<title>n60&#45;&gt;n56</title>
<path fill="none" stroke="black" d="M1505.01,-160.2C1504.8,-152.91 1504.55,-144.23 1504.32,-136.04"/>
<polygon fill="black" stroke="black" points="1507.82,-136.01 1504.03,-126.12 1500.82,-136.21 1507.82,-136.01"/>
</g>
<!-- n59 -->
<g id="node42" class="node">
<title>n59</title>
<polygon fill="none" stroke="black" points="1709.88,-124.5 1585.12,-124.5 1585.12,-88.5 1709.88,-88.5 1709.88,-124.5"/>
<text text-anchor="middle" x="1647.5" y="-101.45" font-family="Times New Roman,serif" font-size="14.00">arg.elements[index]</text>
<text text-anchor="middle" x="1566.75" y="-127.7" font-family="Times New Roman,serif" font-size="14.00">(59)int</text>
</g>
<!-- n60&#45;&gt;n59 -->
<g id="edge41" class="edge">
<title>n60&#45;&gt;n59</title>
<path fill="none" stroke="black" d="M1532.88,-164C1552.45,-154.36 1579.24,-141.15 1601.99,-129.93"/>
<polygon fill="black" stroke="black" points="1603.35,-133.17 1610.77,-125.61 1600.25,-126.89 1603.35,-133.17"/>
</g>
<!-- n54 -->
<g id="node43" class="node">
<title>n54</title>
<polygon fill="none" stroke="black" points="1476.5,-52.5 1422.5,-52.5 1422.5,-16.5 1476.5,-16.5 1476.5,-52.5"/>
<text text-anchor="middle" x="1449.5" y="-29.45" font-family="Times New Roman,serif" font-size="14.00">self</text>
<text text-anchor="middle" x="1367.75" y="-55.7" font-family="Times New Roman,serif" font-size="14.00">(54)MultiDimArray</text>
</g>
<!-- n56&#45;&gt;n54 -->
<g id="edge42" class="edge">
<title>n56&#45;&gt;n54</title>
<path fill="none" stroke="black" d="M1490.15,-88.2C1483.94,-80.14 1476.42,-70.39 1469.54,-61.48"/>
<polygon fill="black" stroke="black" points="1472.5,-59.58 1463.62,-53.8 1466.96,-63.86 1472.5,-59.58"/>
</g>
<!-- n55 -->
<g id="node44" class="node">
<title>n55</title>
<polygon fill="none" stroke="black" points="1548.5,-52.5 1494.5,-52.5 1494.5,-16.5 1548.5,-16.5 1548.5,-52.5"/>
<text text-anchor="middle" x="1521.5" y="-29.45" font-family="Times New Roman,serif" font-size="14.00">index</text>
<text text-anchor="middle" x="1476.12" y="-55.7" font-family="Times New Roman,serif" font-size="14.00">(55)int</text>
</g>
<!-- n56&#45;&gt;n55 -->
<g id="edge43" class="edge">
<title>n56&#45;&gt;n55</title>
<path fill="none" stroke="black" d="M1507.95,-88.2C1509.85,-80.82 1512.11,-72.02 1514.24,-63.75"/>
<polygon fill="black" stroke="black" points="1517.62,-64.63 1516.72,-54.07 1510.84,-62.88 1517.62,-64.63"/>
</g>
<!-- n57 -->
<g id="node45" class="node">
<title>n57</title>
<polygon fill="none" stroke="black" points="1656.5,-52.5 1602.5,-52.5 1602.5,-16.5 1656.5,-16.5 1656.5,-52.5"/>
<text text-anchor="middle" x="1629.5" y="-29.45" font-family="Times New Roman,serif" font-size="14.00">arg</text>
<text text-anchor="middle" x="1547.75" y="-3.2" font-family="Times New Roman,serif" font-size="14.00">(57)MultiDimArray</text>
</g>
<!-- n59&#45;&gt;n57 -->
<g id="edge44" class="edge">
<title>n59&#45;&gt;n57</title>
<path fill="none" stroke="black" d="M1643.05,-88.2C1641.15,-80.82 1638.89,-72.02 1636.76,-63.75"/>
<polygon fill="black" stroke="black" points="1640.16,-62.88 1634.28,-54.07 1633.38,-64.63 1640.16,-62.88"/>
</g>
<!-- n58 -->
<g id="node46" class="node">
<title>n58</title>
<polygon fill="none" stroke="black" points="1728.5,-52.5 1674.5,-52.5 1674.5,-16.5 1728.5,-16.5 1728.5,-52.5"/>
<text text-anchor="middle" x="1701.5" y="-29.45" font-family="Times New Roman,serif" font-size="14.00">index</text>
<text text-anchor="middle" x="1656.12" y="-55.7" font-family="Times New Roman,serif" font-size="14.00">(58)int</text>
</g>
<!-- n59&#45;&gt;n58 -->
<g id="edge45" class="edge">
<title>n59&#45;&gt;n58</title>
<path fill="none" stroke="black" d="M1660.85,-88.2C1667.06,-80.14 1674.58,-70.39 1681.46,-61.48"/>
<polygon fill="black" stroke="black" points="1684.04,-63.86 1687.38,-53.8 1678.5,-59.58 1684.04,-63.86"/>
</g>
</g>
</svg>
