<?xml version="1.0" encoding="UTF-8" standalone="no"?>
<!DOCTYPE svg PUBLIC "-//W3C//DTD SVG 1.1//EN"
 "http://www.w3.org/Graphics/SVG/1.1/DTD/svg11.dtd">
<!-- Generated by graphviz version 12.2.1 (20241206.2353)
 -->
<!-- Title: AST Pages: 1 -->
<svg width="441pt" height="277pt"
 viewBox="0.00 0.00 440.50 276.50" xmlns="http://www.w3.org/2000/svg" xmlns:xlink="http://www.w3.org/1999/xlink">
<g id="graph0" class="graph" transform="scale(1 1) rotate(0) translate(4 272.5)">
<title>AST</title>
<polygon fill="white" stroke="none" points="-4,4 -4,-272.5 436.5,-272.5 436.5,4 -4,4"/>
<!-- n255 -->
<g id="node1" class="node">
<title>n255</title>
<polygon fill="none" stroke="black" points="376,-252 115.5,-252 115.5,-216 376,-216 376,-252"/>
<text text-anchor="middle" x="245.75" y="-228.95" font-family="Times New Roman,serif" font-size="14.00">ContextDecl: node(250) Context: node (254)</text>
<text text-anchor="middle" x="100.88" y="-255.2" font-family="Times New Roman,serif" font-size="14.00">(255)</text>
</g>
<!-- n250 -->
<g id="node2" class="node">
<title>n250</title>
<polygon fill="none" stroke="black" points="288.25,-180 29.25,-180 29.25,-144 288.25,-144 288.25,-180"/>
<text text-anchor="middle" x="158.75" y="-156.95" font-family="Times New Roman,serif" font-size="14.00">MultiDimArray::getDimensionSizes() : int[]</text>
<text text-anchor="middle" x="14.62" y="-183.2" font-family="Times New Roman,serif" font-size="14.00">(250)</text>
</g>
<!-- n255&#45;&gt;n250 -->
<g id="edge1" class="edge">
<title>n255&#45;&gt;n250</title>
<path fill="none" stroke="black" d="M224.24,-215.7C213.68,-207.2 200.77,-196.81 189.22,-187.51"/>
<polygon fill="black" stroke="black" points="191.47,-184.84 181.49,-181.3 187.09,-190.29 191.47,-184.84"/>
</g>
<!-- n254 -->
<g id="node3" class="node">
<title>n254</title>
<polygon fill="none" stroke="black" points="360.75,-180 306.75,-180 306.75,-144 360.75,-144 360.75,-180"/>
<text text-anchor="middle" x="333.75" y="-156.95" font-family="Times New Roman,serif" font-size="14.00"> post:</text>
<text text-anchor="middle" x="269.62" y="-183.2" font-family="Times New Roman,serif" font-size="14.00">(254)Boolean</text>
</g>
<!-- n255&#45;&gt;n254 -->
<g id="edge2" class="edge">
<title>n255&#45;&gt;n254</title>
<path fill="none" stroke="black" d="M267.5,-215.7C278.19,-207.2 291.24,-196.81 302.93,-187.51"/>
<polygon fill="black" stroke="black" points="305.11,-190.25 310.76,-181.29 300.75,-184.78 305.11,-190.25"/>
</g>
<!-- n253 -->
<g id="node4" class="node">
<title>n253</title>
<polygon fill="none" stroke="black" points="360.75,-108 306.75,-108 306.75,-72 360.75,-72 360.75,-108"/>
<text text-anchor="middle" x="333.75" y="-84.95" font-family="Times New Roman,serif" font-size="14.00">=</text>
<text text-anchor="middle" x="269.62" y="-111.2" font-family="Times New Roman,serif" font-size="14.00">(253)Boolean</text>
</g>
<!-- n254&#45;&gt;n253 -->
<g id="edge3" class="edge">
<title>n254&#45;&gt;n253</title>
<path fill="none" stroke="black" d="M333.75,-143.7C333.75,-136.41 333.75,-127.73 333.75,-119.54"/>
<polygon fill="black" stroke="black" points="337.25,-119.62 333.75,-109.62 330.25,-119.62 337.25,-119.62"/>
</g>
<!-- n251 -->
<g id="node5" class="node">
<title>n251</title>
<polygon fill="none" stroke="black" points="312.75,-36 258.75,-36 258.75,0 312.75,0 312.75,-36"/>
<text text-anchor="middle" x="285.75" y="-12.95" font-family="Times New Roman,serif" font-size="14.00">result</text>
<text text-anchor="middle" x="232.5" y="-39.2" font-family="Times New Roman,serif" font-size="14.00">(251)int[]</text>
</g>
<!-- n253&#45;&gt;n251 -->
<g id="edge4" class="edge">
<title>n253&#45;&gt;n251</title>
<path fill="none" stroke="black" d="M321.88,-71.7C316.48,-63.81 309.96,-54.3 303.95,-45.55"/>
<polygon fill="black" stroke="black" points="306.88,-43.62 298.33,-37.35 301.1,-47.58 306.88,-43.62"/>
</g>
<!-- n252 -->
<g id="node6" class="node">
<title>n252</title>
<polygon fill="none" stroke="black" points="432.5,-36 331,-36 331,0 432.5,0 432.5,-36"/>
<text text-anchor="middle" x="381.75" y="-12.95" font-family="Times New Roman,serif" font-size="14.00">dimensionSizes</text>
<text text-anchor="middle" x="304.75" y="-39.2" font-family="Times New Roman,serif" font-size="14.00">(252)int[]</text>
</g>
<!-- n253&#45;&gt;n252 -->
<g id="edge5" class="edge">
<title>n253&#45;&gt;n252</title>
<path fill="none" stroke="black" d="M345.62,-71.7C351.02,-63.81 357.54,-54.3 363.55,-45.55"/>
<polygon fill="black" stroke="black" points="366.4,-47.58 369.17,-37.35 360.62,-43.62 366.4,-47.58"/>
</g>
</g>
</svg>
