<?xml version="1.0" encoding="UTF-8" standalone="no"?>
<!DOCTYPE svg PUBLIC "-//W3C//DTD SVG 1.1//EN"
 "http://www.w3.org/Graphics/SVG/1.1/DTD/svg11.dtd">
<!-- Generated by graphviz version 12.2.1 (20241206.2353)
 -->
<!-- Title: AST Pages: 1 -->
<svg width="382pt" height="277pt"
 viewBox="0.00 0.00 381.50 276.50" xmlns="http://www.w3.org/2000/svg" xmlns:xlink="http://www.w3.org/1999/xlink">
<g id="graph0" class="graph" transform="scale(1 1) rotate(0) translate(4 272.5)">
<title>AST</title>
<polygon fill="white" stroke="none" points="-4,4 -4,-272.5 377.5,-272.5 377.5,4 -4,4"/>
<!-- n249 -->
<g id="node1" class="node">
<title>n249</title>
<polygon fill="none" stroke="black" points="348.25,-252 87.75,-252 87.75,-216 348.25,-216 348.25,-252"/>
<text text-anchor="middle" x="218" y="-228.95" font-family="Times New Roman,serif" font-size="14.00">ContextDecl: node(244) Context: node (248)</text>
<text text-anchor="middle" x="73.12" y="-255.2" font-family="Times New Roman,serif" font-size="14.00">(249)</text>
</g>
<!-- n244 -->
<g id="node2" class="node">
<title>n244</title>
<polygon fill="none" stroke="black" points="250.75,-180 29.25,-180 29.25,-144 250.75,-144 250.75,-180"/>
<text text-anchor="middle" x="140" y="-156.95" font-family="Times New Roman,serif" font-size="14.00">MultiDimArray::getDimension() : int</text>
<text text-anchor="middle" x="14.62" y="-183.2" font-family="Times New Roman,serif" font-size="14.00">(244)</text>
</g>
<!-- n249&#45;&gt;n244 -->
<g id="edge1" class="edge">
<title>n249&#45;&gt;n244</title>
<path fill="none" stroke="black" d="M198.72,-215.7C189.34,-207.28 177.91,-197.02 167.62,-187.79"/>
<polygon fill="black" stroke="black" points="170.24,-185.43 160.46,-181.36 165.56,-190.64 170.24,-185.43"/>
</g>
<!-- n248 -->
<g id="node3" class="node">
<title>n248</title>
<polygon fill="none" stroke="black" points="323,-180 269,-180 269,-144 323,-144 323,-180"/>
<text text-anchor="middle" x="296" y="-156.95" font-family="Times New Roman,serif" font-size="14.00"> post:</text>
<text text-anchor="middle" x="231.88" y="-183.2" font-family="Times New Roman,serif" font-size="14.00">(248)Boolean</text>
</g>
<!-- n249&#45;&gt;n248 -->
<g id="edge2" class="edge">
<title>n249&#45;&gt;n248</title>
<path fill="none" stroke="black" d="M237.28,-215.7C246.66,-207.28 258.09,-197.02 268.38,-187.79"/>
<polygon fill="black" stroke="black" points="270.44,-190.64 275.54,-181.36 265.76,-185.43 270.44,-190.64"/>
</g>
<!-- n247 -->
<g id="node4" class="node">
<title>n247</title>
<polygon fill="none" stroke="black" points="323,-108 269,-108 269,-72 323,-72 323,-108"/>
<text text-anchor="middle" x="296" y="-84.95" font-family="Times New Roman,serif" font-size="14.00">=</text>
<text text-anchor="middle" x="231.88" y="-111.2" font-family="Times New Roman,serif" font-size="14.00">(247)Boolean</text>
</g>
<!-- n248&#45;&gt;n247 -->
<g id="edge3" class="edge">
<title>n248&#45;&gt;n247</title>
<path fill="none" stroke="black" d="M296,-143.7C296,-136.41 296,-127.73 296,-119.54"/>
<polygon fill="black" stroke="black" points="299.5,-119.62 296,-109.62 292.5,-119.62 299.5,-119.62"/>
</g>
<!-- n245 -->
<g id="node5" class="node">
<title>n245</title>
<polygon fill="none" stroke="black" points="282,-36 228,-36 228,0 282,0 282,-36"/>
<text text-anchor="middle" x="255" y="-12.95" font-family="Times New Roman,serif" font-size="14.00">result</text>
<text text-anchor="middle" x="206.25" y="-39.2" font-family="Times New Roman,serif" font-size="14.00">(245)int</text>
</g>
<!-- n247&#45;&gt;n245 -->
<g id="edge4" class="edge">
<title>n247&#45;&gt;n245</title>
<path fill="none" stroke="black" d="M285.87,-71.7C281.3,-63.9 275.8,-54.51 270.71,-45.83"/>
<polygon fill="black" stroke="black" points="273.86,-44.27 265.78,-37.41 267.82,-47.81 273.86,-44.27"/>
</g>
<!-- n246 -->
<g id="node6" class="node">
<title>n246</title>
<polygon fill="none" stroke="black" points="373.5,-36 300.5,-36 300.5,0 373.5,0 373.5,-36"/>
<text text-anchor="middle" x="337" y="-12.95" font-family="Times New Roman,serif" font-size="14.00">dimension</text>
<text text-anchor="middle" x="278.75" y="-39.2" font-family="Times New Roman,serif" font-size="14.00">(246)int</text>
</g>
<!-- n247&#45;&gt;n246 -->
<g id="edge5" class="edge">
<title>n247&#45;&gt;n246</title>
<path fill="none" stroke="black" d="M306.13,-71.7C310.7,-63.9 316.2,-54.51 321.29,-45.83"/>
<polygon fill="black" stroke="black" points="324.18,-47.81 326.22,-37.41 318.14,-44.27 324.18,-47.81"/>
</g>
</g>
</svg>
