<?xml version="1.0" encoding="UTF-8" standalone="no"?>
<!DOCTYPE svg PUBLIC "-//W3C//DTD SVG 1.1//EN"
 "http://www.w3.org/Graphics/SVG/1.1/DTD/svg11.dtd">
<!-- Generated by graphviz version 12.2.1 (20241206.2353)
 -->
<!-- Title: AST Pages: 1 -->
<svg width="629pt" height="493pt"
 viewBox="0.00 0.00 628.75 492.50" xmlns="http://www.w3.org/2000/svg" xmlns:xlink="http://www.w3.org/1999/xlink">
<g id="graph0" class="graph" transform="scale(1 1) rotate(0) translate(4 488.5)">
<title>AST</title>
<polygon fill="white" stroke="none" points="-4,4 -4,-488.5 624.75,-488.5 624.75,4 -4,4"/>
<!-- n15 -->
<g id="node1" class="node">
<title>n15</title>
<polygon fill="none" stroke="black" points="454.88,-468 214.62,-468 214.62,-432 454.88,-432 454.88,-468"/>
<text text-anchor="middle" x="334.75" y="-444.95" font-family="Times New Roman,serif" font-size="14.00">ContextDecl: node(0) Context: node (14)</text>
<text text-anchor="middle" x="203.38" y="-471.2" font-family="Times New Roman,serif" font-size="14.00">(15)</text>
</g>
<!-- n0 -->
<g id="node2" class="node">
<title>n0</title>
<polygon fill="none" stroke="black" points="341.25,-396 226.25,-396 226.25,-360 341.25,-360 341.25,-396"/>
<text text-anchor="middle" x="283.75" y="-372.95" font-family="Times New Roman,serif" font-size="14.00">TwoDimVarArray</text>
<text text-anchor="middle" x="218.38" y="-399.2" font-family="Times New Roman,serif" font-size="14.00">(0)</text>
</g>
<!-- n15&#45;&gt;n0 -->
<g id="edge1" class="edge">
<title>n15&#45;&gt;n0</title>
<path fill="none" stroke="black" d="M322.14,-431.7C316.34,-423.73 309.32,-414.1 302.89,-405.26"/>
<polygon fill="black" stroke="black" points="305.82,-403.35 297.1,-397.33 300.16,-407.47 305.82,-403.35"/>
</g>
<!-- n14 -->
<g id="node3" class="node">
<title>n14</title>
<polygon fill="none" stroke="black" points="413.75,-396 359.75,-396 359.75,-360 413.75,-360 413.75,-396"/>
<text text-anchor="middle" x="386.75" y="-372.95" font-family="Times New Roman,serif" font-size="14.00"> inv:</text>
<text text-anchor="middle" x="326" y="-399.2" font-family="Times New Roman,serif" font-size="14.00">(14)Boolean</text>
</g>
<!-- n15&#45;&gt;n14 -->
<g id="edge2" class="edge">
<title>n15&#45;&gt;n14</title>
<path fill="none" stroke="black" d="M347.6,-431.7C353.52,-423.73 360.68,-414.1 367.24,-405.26"/>
<polygon fill="black" stroke="black" points="369.99,-407.43 373.14,-397.32 364.37,-403.26 369.99,-407.43"/>
</g>
<!-- n13 -->
<g id="node4" class="node">
<title>n13</title>
<polygon fill="none" stroke="black" points="413.75,-324 359.75,-324 359.75,-288 413.75,-288 413.75,-324"/>
<text text-anchor="middle" x="386.75" y="-300.95" font-family="Times New Roman,serif" font-size="14.00">and</text>
<text text-anchor="middle" x="326" y="-327.2" font-family="Times New Roman,serif" font-size="14.00">(13)Boolean</text>
</g>
<!-- n14&#45;&gt;n13 -->
<g id="edge3" class="edge">
<title>n14&#45;&gt;n13</title>
<path fill="none" stroke="black" d="M386.75,-359.7C386.75,-352.41 386.75,-343.73 386.75,-335.54"/>
<polygon fill="black" stroke="black" points="390.25,-335.62 386.75,-325.62 383.25,-335.62 390.25,-335.62"/>
</g>
<!-- n6 -->
<g id="node5" class="node">
<title>n6</title>
<polygon fill="none" stroke="black" points="344.75,-252 290.75,-252 290.75,-216 344.75,-216 344.75,-252"/>
<text text-anchor="middle" x="317.75" y="-228.95" font-family="Times New Roman,serif" font-size="14.00">&gt;</text>
<text text-anchor="middle" x="260.38" y="-255.2" font-family="Times New Roman,serif" font-size="14.00">(6)Boolean</text>
</g>
<!-- n13&#45;&gt;n6 -->
<g id="edge4" class="edge">
<title>n13&#45;&gt;n6</title>
<path fill="none" stroke="black" d="M369.69,-287.7C361.51,-279.39 351.54,-269.28 342.53,-260.14"/>
<polygon fill="black" stroke="black" points="345.19,-257.85 335.67,-253.18 340.2,-262.76 345.19,-257.85"/>
</g>
<!-- n12 -->
<g id="node6" class="node">
<title>n12</title>
<polygon fill="none" stroke="black" points="482.75,-252 428.75,-252 428.75,-216 482.75,-216 482.75,-252"/>
<text text-anchor="middle" x="455.75" y="-228.95" font-family="Times New Roman,serif" font-size="14.00">&gt;</text>
<text text-anchor="middle" x="395" y="-255.2" font-family="Times New Roman,serif" font-size="14.00">(12)Boolean</text>
</g>
<!-- n13&#45;&gt;n12 -->
<g id="edge5" class="edge">
<title>n13&#45;&gt;n12</title>
<path fill="none" stroke="black" d="M403.81,-287.7C411.99,-279.39 421.96,-269.28 430.97,-260.14"/>
<polygon fill="black" stroke="black" points="433.3,-262.76 437.83,-253.18 428.31,-257.85 433.3,-262.76"/>
</g>
<!-- n4 -->
<g id="node7" class="node">
<title>n4</title>
<polygon fill="none" stroke="black" points="272.88,-180 86.62,-180 86.62,-144 272.88,-144 272.88,-180"/>
<text text-anchor="middle" x="179.75" y="-156.95" font-family="Times New Roman,serif" font-size="14.00">self.data.getDimensionSizes(1)</text>
<text text-anchor="middle" x="71.62" y="-183.2" font-family="Times New Roman,serif" font-size="14.00">(4)int</text>
</g>
<!-- n6&#45;&gt;n4 -->
<g id="edge6" class="edge">
<title>n6&#45;&gt;n4</title>
<path fill="none" stroke="black" d="M290.49,-219.17C271.57,-209.57 245.94,-196.58 224.11,-185.5"/>
<polygon fill="black" stroke="black" points="225.91,-182.49 215.41,-181.09 222.75,-188.73 225.91,-182.49"/>
</g>
<!-- n5 -->
<g id="node8" class="node">
<title>n5</title>
<polygon fill="none" stroke="black" points="344.75,-180 290.75,-180 290.75,-144 344.75,-144 344.75,-180"/>
<text text-anchor="middle" x="317.75" y="-156.95" font-family="Times New Roman,serif" font-size="14.00">0</text>
<text text-anchor="middle" x="275.75" y="-183.2" font-family="Times New Roman,serif" font-size="14.00">(5)int</text>
</g>
<!-- n6&#45;&gt;n5 -->
<g id="edge7" class="edge">
<title>n6&#45;&gt;n5</title>
<path fill="none" stroke="black" d="M317.75,-215.7C317.75,-208.41 317.75,-199.73 317.75,-191.54"/>
<polygon fill="black" stroke="black" points="321.25,-191.62 317.75,-181.62 314.25,-191.62 321.25,-191.62"/>
</g>
<!-- n10 -->
<g id="node9" class="node">
<title>n10</title>
<polygon fill="none" stroke="black" points="548.88,-180 362.62,-180 362.62,-144 548.88,-144 548.88,-180"/>
<text text-anchor="middle" x="455.75" y="-156.95" font-family="Times New Roman,serif" font-size="14.00">self.data.getDimensionSizes(2)</text>
<text text-anchor="middle" x="344.25" y="-183.2" font-family="Times New Roman,serif" font-size="14.00">(10)int</text>
</g>
<!-- n12&#45;&gt;n10 -->
<g id="edge8" class="edge">
<title>n12&#45;&gt;n10</title>
<path fill="none" stroke="black" d="M455.75,-215.7C455.75,-208.41 455.75,-199.73 455.75,-191.54"/>
<polygon fill="black" stroke="black" points="459.25,-191.62 455.75,-181.62 452.25,-191.62 459.25,-191.62"/>
</g>
<!-- n11 -->
<g id="node10" class="node">
<title>n11</title>
<polygon fill="none" stroke="black" points="620.75,-180 566.75,-180 566.75,-144 620.75,-144 620.75,-180"/>
<text text-anchor="middle" x="593.75" y="-156.95" font-family="Times New Roman,serif" font-size="14.00">0</text>
<text text-anchor="middle" x="548.38" y="-183.2" font-family="Times New Roman,serif" font-size="14.00">(11)int</text>
</g>
<!-- n12&#45;&gt;n11 -->
<g id="edge9" class="edge">
<title>n12&#45;&gt;n11</title>
<path fill="none" stroke="black" d="M483.01,-219.17C503.99,-208.53 533.22,-193.7 556.38,-181.96"/>
<polygon fill="black" stroke="black" points="557.86,-185.13 565.19,-177.49 554.69,-178.89 557.86,-185.13"/>
</g>
<!-- n2 -->
<g id="node11" class="node">
<title>n2</title>
<polygon fill="none" stroke="black" points="172.62,-108 110.88,-108 110.88,-72 172.62,-72 172.62,-108"/>
<text text-anchor="middle" x="141.75" y="-84.95" font-family="Times New Roman,serif" font-size="14.00">self.data</text>
<text text-anchor="middle" x="65.12" y="-111.2" font-family="Times New Roman,serif" font-size="14.00">(2)int[dim][dim]</text>
</g>
<!-- n4&#45;&gt;n2 -->
<g id="edge10" class="edge">
<title>n4&#45;&gt;n2</title>
<path fill="none" stroke="black" d="M170.36,-143.7C166.17,-135.98 161.14,-126.71 156.47,-118.11"/>
<polygon fill="black" stroke="black" points="159.6,-116.55 151.76,-109.43 153.45,-119.89 159.6,-116.55"/>
</g>
<!-- n3 -->
<g id="node12" class="node">
<title>n3</title>
<polygon fill="none" stroke="black" points="244.75,-108 190.75,-108 190.75,-72 244.75,-72 244.75,-108"/>
<text text-anchor="middle" x="217.75" y="-84.95" font-family="Times New Roman,serif" font-size="14.00">1</text>
<text text-anchor="middle" x="175.75" y="-111.2" font-family="Times New Roman,serif" font-size="14.00">(3)int</text>
</g>
<!-- n4&#45;&gt;n3 -->
<g id="edge11" class="edge">
<title>n4&#45;&gt;n3</title>
<path fill="none" stroke="black" d="M189.14,-143.7C193.33,-135.98 198.36,-126.71 203.03,-118.11"/>
<polygon fill="black" stroke="black" points="206.05,-119.89 207.74,-109.43 199.9,-116.55 206.05,-119.89"/>
</g>
<!-- n8 -->
<g id="node13" class="node">
<title>n8</title>
<polygon fill="none" stroke="black" points="448.62,-108 386.88,-108 386.88,-72 448.62,-72 448.62,-108"/>
<text text-anchor="middle" x="417.75" y="-84.95" font-family="Times New Roman,serif" font-size="14.00">self.data</text>
<text text-anchor="middle" x="341.12" y="-111.2" font-family="Times New Roman,serif" font-size="14.00">(8)int[dim][dim]</text>
</g>
<!-- n10&#45;&gt;n8 -->
<g id="edge12" class="edge">
<title>n10&#45;&gt;n8</title>
<path fill="none" stroke="black" d="M446.36,-143.7C442.17,-135.98 437.14,-126.71 432.47,-118.11"/>
<polygon fill="black" stroke="black" points="435.6,-116.55 427.76,-109.43 429.45,-119.89 435.6,-116.55"/>
</g>
<!-- n9 -->
<g id="node14" class="node">
<title>n9</title>
<polygon fill="none" stroke="black" points="520.75,-108 466.75,-108 466.75,-72 520.75,-72 520.75,-108"/>
<text text-anchor="middle" x="493.75" y="-84.95" font-family="Times New Roman,serif" font-size="14.00">2</text>
<text text-anchor="middle" x="451.75" y="-111.2" font-family="Times New Roman,serif" font-size="14.00">(9)int</text>
</g>
<!-- n10&#45;&gt;n9 -->
<g id="edge13" class="edge">
<title>n10&#45;&gt;n9</title>
<path fill="none" stroke="black" d="M465.14,-143.7C469.33,-135.98 474.36,-126.71 479.03,-118.11"/>
<polygon fill="black" stroke="black" points="482.05,-119.89 483.74,-109.43 475.9,-116.55 482.05,-119.89"/>
</g>
<!-- n1 -->
<g id="node15" class="node">
<title>n1</title>
<polygon fill="none" stroke="black" points="168.75,-36 114.75,-36 114.75,0 168.75,0 168.75,-36"/>
<text text-anchor="middle" x="141.75" y="-12.95" font-family="Times New Roman,serif" font-size="14.00">self</text>
<text text-anchor="middle" x="57.38" y="-39.2" font-family="Times New Roman,serif" font-size="14.00">(1)TwoDimVarArray</text>
</g>
<!-- n2&#45;&gt;n1 -->
<g id="edge14" class="edge">
<title>n2&#45;&gt;n1</title>
<path fill="none" stroke="black" d="M141.75,-71.7C141.75,-64.41 141.75,-55.73 141.75,-47.54"/>
<polygon fill="black" stroke="black" points="145.25,-47.62 141.75,-37.62 138.25,-47.62 145.25,-47.62"/>
</g>
<!-- n7 -->
<g id="node16" class="node">
<title>n7</title>
<polygon fill="none" stroke="black" points="444.75,-36 390.75,-36 390.75,0 444.75,0 444.75,-36"/>
<text text-anchor="middle" x="417.75" y="-12.95" font-family="Times New Roman,serif" font-size="14.00">self</text>
<text text-anchor="middle" x="333.38" y="-39.2" font-family="Times New Roman,serif" font-size="14.00">(7)TwoDimVarArray</text>
</g>
<!-- n8&#45;&gt;n7 -->
<g id="edge15" class="edge">
<title>n8&#45;&gt;n7</title>
<path fill="none" stroke="black" d="M417.75,-71.7C417.75,-64.41 417.75,-55.73 417.75,-47.54"/>
<polygon fill="black" stroke="black" points="421.25,-47.62 417.75,-37.62 414.25,-47.62 421.25,-47.62"/>
</g>
</g>
</svg>
