<?xml version="1.0" encoding="UTF-8" standalone="no"?>
<!DOCTYPE svg PUBLIC "-//W3C//DTD SVG 1.1//EN"
 "http://www.w3.org/Graphics/SVG/1.1/DTD/svg11.dtd">
<!-- Generated by graphviz version 12.2.1 (20241206.2353)
 -->
<!-- Title: AST Pages: 1 -->
<svg width="273pt" height="349pt"
 viewBox="0.00 0.00 272.50 348.50" xmlns="http://www.w3.org/2000/svg" xmlns:xlink="http://www.w3.org/1999/xlink">
<g id="graph0" class="graph" transform="scale(1 1) rotate(0) translate(4 344.5)">
<title>AST</title>
<polygon fill="white" stroke="none" points="-4,4 -4,-344.5 268.5,-344.5 268.5,4 -4,4"/>
<!-- n141 -->
<g id="node1" class="node">
<title>n141</title>
<polygon fill="none" stroke="black" points="264.5,-324 63.25,-324 63.25,-288 264.5,-288 264.5,-324"/>
<text text-anchor="middle" x="163.88" y="-300.95" font-family="Times New Roman,serif" font-size="14.00">ContextDecl: node(140) Context: </text>
<text text-anchor="middle" x="48.62" y="-327.2" font-family="Times New Roman,serif" font-size="14.00">(141)</text>
</g>
<!-- n140 -->
<g id="node2" class="node">
<title>n140</title>
<polygon fill="none" stroke="black" points="190.88,-252 136.88,-252 136.88,-216 190.88,-216 190.88,-252"/>
<text text-anchor="middle" x="163.88" y="-228.95" font-family="Times New Roman,serif" font-size="14.00"> post:</text>
<text text-anchor="middle" x="99.75" y="-255.2" font-family="Times New Roman,serif" font-size="14.00">(140)Boolean</text>
</g>
<!-- n141&#45;&gt;n140 -->
<g id="edge1" class="edge">
<title>n141&#45;&gt;n140</title>
<path fill="none" stroke="black" d="M163.88,-287.7C163.88,-280.41 163.88,-271.73 163.88,-263.54"/>
<polygon fill="black" stroke="black" points="167.38,-263.62 163.88,-253.62 160.38,-263.62 167.38,-263.62"/>
</g>
<!-- n139 -->
<g id="node3" class="node">
<title>n139</title>
<polygon fill="none" stroke="black" points="190.88,-180 136.88,-180 136.88,-144 190.88,-144 190.88,-180"/>
<text text-anchor="middle" x="163.88" y="-156.95" font-family="Times New Roman,serif" font-size="14.00">=</text>
<text text-anchor="middle" x="99.75" y="-183.2" font-family="Times New Roman,serif" font-size="14.00">(139)Boolean</text>
</g>
<!-- n140&#45;&gt;n139 -->
<g id="edge2" class="edge">
<title>n140&#45;&gt;n139</title>
<path fill="none" stroke="black" d="M163.88,-215.7C163.88,-208.41 163.88,-199.73 163.88,-191.54"/>
<polygon fill="black" stroke="black" points="167.38,-191.62 163.88,-181.62 160.38,-191.62 167.38,-191.62"/>
</g>
<!-- n136 -->
<g id="node4" class="node">
<title>n136</title>
<polygon fill="none" stroke="black" points="157.75,-108 84,-108 84,-72 157.75,-72 157.75,-108"/>
<text text-anchor="middle" x="120.88" y="-84.95" font-family="Times New Roman,serif" font-size="14.00">ErrorNode</text>
<text text-anchor="middle" x="42" y="-111.2" font-family="Times New Roman,serif" font-size="14.00">(136)INVALID</text>
</g>
<!-- n139&#45;&gt;n136 -->
<g id="edge3" class="edge">
<title>n139&#45;&gt;n136</title>
<path fill="none" stroke="black" d="M153.25,-143.7C148.46,-135.9 142.69,-126.51 137.36,-117.83"/>
<polygon fill="black" stroke="black" points="140.39,-116.08 132.17,-109.39 134.43,-119.75 140.39,-116.08"/>
</g>
<!-- n138 -->
<g id="node5" class="node">
<title>n138</title>
<polygon fill="none" stroke="black" points="237.75,-108 176,-108 176,-72 237.75,-72 237.75,-108"/>
<text text-anchor="middle" x="206.88" y="-84.95" font-family="Times New Roman,serif" font-size="14.00">self.data</text>
<text text-anchor="middle" x="130.62" y="-111.2" font-family="Times New Roman,serif" font-size="14.00">(138)int[2][2][2]</text>
</g>
<!-- n139&#45;&gt;n138 -->
<g id="edge4" class="edge">
<title>n139&#45;&gt;n138</title>
<path fill="none" stroke="black" d="M174.5,-143.7C179.29,-135.9 185.06,-126.51 190.39,-117.83"/>
<polygon fill="black" stroke="black" points="193.32,-119.75 195.58,-109.39 187.36,-116.08 193.32,-119.75"/>
</g>
<!-- n137 -->
<g id="node6" class="node">
<title>n137</title>
<polygon fill="none" stroke="black" points="233.88,-36 179.88,-36 179.88,0 233.88,0 233.88,-36"/>
<text text-anchor="middle" x="206.88" y="-12.95" font-family="Times New Roman,serif" font-size="14.00">self</text>
<text text-anchor="middle" x="151" y="-39.2" font-family="Times New Roman,serif" font-size="14.00">(137)Cube</text>
</g>
<!-- n138&#45;&gt;n137 -->
<g id="edge5" class="edge">
<title>n138&#45;&gt;n137</title>
<path fill="none" stroke="black" d="M206.88,-71.7C206.88,-64.41 206.88,-55.73 206.88,-47.54"/>
<polygon fill="black" stroke="black" points="210.38,-47.62 206.88,-37.62 203.38,-47.62 210.38,-47.62"/>
</g>
</g>
</svg>
