<?xml version="1.0" encoding="UTF-8" standalone="no"?>
<!DOCTYPE svg PUBLIC "-//W3C//DTD SVG 1.1//EN"
 "http://www.w3.org/Graphics/SVG/1.1/DTD/svg11.dtd">
<!-- Generated by graphviz version 12.2.1 (20241206.2353)
 -->
<!-- Title: AST Pages: 1 -->
<svg width="1033pt" height="591pt"
 viewBox="0.00 0.00 1032.75 591.00" xmlns="http://www.w3.org/2000/svg" xmlns:xlink="http://www.w3.org/1999/xlink">
<g id="graph0" class="graph" transform="scale(1 1) rotate(0) translate(4 587)">
<title>AST</title>
<polygon fill="white" stroke="none" points="-4,4 -4,-587 1028.75,-587 1028.75,4 -4,4"/>
<!-- n37 -->
<g id="node1" class="node">
<title>n37</title>
<polygon fill="none" stroke="black" points="438.88,-566.5 198.62,-566.5 198.62,-530.5 438.88,-530.5 438.88,-566.5"/>
<text text-anchor="middle" x="318.75" y="-543.45" font-family="Times New Roman,serif" font-size="14.00">ContextDecl: node(9) Context: node (36)</text>
<text text-anchor="middle" x="187.38" y="-569.7" font-family="Times New Roman,serif" font-size="14.00">(37)</text>
</g>
<!-- n9 -->
<g id="node2" class="node">
<title>n9</title>
<polygon fill="none" stroke="black" points="339.38,-494.5 168.12,-494.5 168.12,-458.5 339.38,-458.5 339.38,-494.5"/>
<text text-anchor="middle" x="253.75" y="-471.45" font-family="Times New Roman,serif" font-size="14.00">Array::add(node (8)) : Array</text>
<text text-anchor="middle" x="160.25" y="-497.7" font-family="Times New Roman,serif" font-size="14.00">(9)</text>
</g>
<!-- n37&#45;&gt;n9 -->
<g id="edge1" class="edge">
<title>n37&#45;&gt;n9</title>
<path fill="none" stroke="black" d="M302.68,-530.2C295.05,-521.97 285.77,-511.98 277.35,-502.92"/>
<polygon fill="black" stroke="black" points="280.03,-500.66 270.66,-495.71 274.9,-505.42 280.03,-500.66"/>
</g>
<!-- n36 -->
<g id="node3" class="node">
<title>n36</title>
<polygon fill="none" stroke="black" points="418.75,-494.5 364.75,-494.5 364.75,-458.5 418.75,-458.5 418.75,-494.5"/>
<text text-anchor="middle" x="391.75" y="-471.45" font-family="Times New Roman,serif" font-size="14.00"> post:</text>
<text text-anchor="middle" x="331" y="-497.7" font-family="Times New Roman,serif" font-size="14.00">(36)Boolean</text>
</g>
<!-- n37&#45;&gt;n36 -->
<g id="edge2" class="edge">
<title>n37&#45;&gt;n36</title>
<path fill="none" stroke="black" d="M336.79,-530.2C345.48,-521.87 356.06,-511.72 365.61,-502.57"/>
<polygon fill="black" stroke="black" points="367.77,-505.34 372.57,-495.89 362.93,-500.29 367.77,-505.34"/>
</g>
<!-- n8 -->
<g id="node4" class="node">
<title>n8</title>
<polygon fill="none" stroke="black" points="277.38,-420 202.12,-420 202.12,-384 277.38,-384 277.38,-420"/>
<text text-anchor="middle" x="239.75" y="-396.95" font-family="Times New Roman,serif" font-size="14.00">arg : Array</text>
<text text-anchor="middle" x="178.5" y="-423.2" font-family="Times New Roman,serif" font-size="14.00">(8)Array</text>
</g>
<!-- n9&#45;&gt;n8 -->
<g id="edge3" class="edge">
<title>n9&#45;&gt;n8</title>
<path fill="none" stroke="black" d="M250.43,-458.32C248.86,-450.19 246.95,-440.28 245.18,-431.1"/>
<polygon fill="black" stroke="black" points="248.66,-430.7 243.33,-421.54 241.79,-432.03 248.66,-430.7"/>
</g>
<!-- n35 -->
<g id="node5" class="node">
<title>n35</title>
<polygon fill="none" stroke="black" points="504.5,-422.5 295,-422.5 295,-381.5 504.5,-381.5 504.5,-422.5"/>
<text text-anchor="middle" x="399.75" y="-405.2" font-family="Times New Roman,serif" font-size="14.00">LetExp </text>
<text text-anchor="middle" x="399.75" y="-388.7" font-family="Times New Roman,serif" font-size="14.00">Let node(15), node(34) in node(34)</text>
<text text-anchor="middle" x="261.25" y="-425.7" font-family="Times New Roman,serif" font-size="14.00">(35)Boolean</text>
</g>
<!-- n36&#45;&gt;n35 -->
<g id="edge4" class="edge">
<title>n36&#45;&gt;n35</title>
<path fill="none" stroke="black" d="M393.65,-458.32C394.44,-451.09 395.4,-442.45 396.31,-434.16"/>
<polygon fill="black" stroke="black" points="399.77,-434.71 397.39,-424.39 392.81,-433.94 399.77,-434.71"/>
</g>
<!-- n15 -->
<g id="node6" class="node">
<title>n15</title>
<polygon fill="none" stroke="black" points="246.75,-334.75 192.75,-334.75 192.75,-298.75 246.75,-298.75 246.75,-334.75"/>
<text text-anchor="middle" x="219.75" y="-311.7" font-family="Times New Roman,serif" font-size="14.00">=</text>
<text text-anchor="middle" x="159" y="-337.95" font-family="Times New Roman,serif" font-size="14.00">(15)Boolean</text>
</g>
<!-- n35&#45;&gt;n15 -->
<g id="edge5" class="edge">
<title>n35&#45;&gt;n15</title>
<path fill="none" stroke="black" d="M356.64,-381.06C326.35,-367.05 286.22,-348.49 257.26,-335.1"/>
<polygon fill="black" stroke="black" points="259.05,-332.07 248.5,-331.05 256.11,-338.42 259.05,-332.07"/>
</g>
<!-- n34 -->
<g id="node7" class="node">
<title>n34</title>
<polygon fill="none" stroke="black" points="683.12,-345.5 474.38,-345.5 474.38,-288 683.12,-288 683.12,-345.5"/>
<text text-anchor="middle" x="578.75" y="-328.2" font-family="Times New Roman,serif" font-size="14.00">IterateExp</text>
<text text-anchor="middle" x="578.75" y="-311.7" font-family="Times New Roman,serif" font-size="14.00">source=node(18) Iterator=node(19)</text>
<text text-anchor="middle" x="578.75" y="-295.2" font-family="Times New Roman,serif" font-size="14.00">Result=node(22) Body=node(33)</text>
<text text-anchor="middle" x="440.62" y="-348.7" font-family="Times New Roman,serif" font-size="14.00">(34)Boolean</text>
</g>
<!-- n35&#45;&gt;n34 -->
<g id="edge6" class="edge">
<title>n35&#45;&gt;n34</title>
<path fill="none" stroke="black" d="M442.62,-381.06C462.18,-371.97 485.85,-360.95 507.94,-350.68"/>
<polygon fill="black" stroke="black" points="509.32,-353.9 516.92,-346.51 506.37,-347.55 509.32,-353.9"/>
</g>
<!-- n14 -->
<g id="node8" class="node">
<title>n14</title>
<polygon fill="none" stroke="black" points="106.75,-252 36.75,-252 36.75,-216 106.75,-216 106.75,-252"/>
<text text-anchor="middle" x="71.75" y="-228.95" font-family="Times New Roman,serif" font-size="14.00">dim1 : int</text>
<text text-anchor="middle" x="18.38" y="-255.2" font-family="Times New Roman,serif" font-size="14.00">(14)int</text>
</g>
<!-- n15&#45;&gt;n14 -->
<g id="edge7" class="edge">
<title>n15&#45;&gt;n14</title>
<path fill="none" stroke="black" d="M192.26,-300.75C170.22,-288.72 138.92,-271.65 113.74,-257.91"/>
<polygon fill="black" stroke="black" points="115.51,-254.89 105.05,-253.17 112.15,-261.03 115.51,-254.89"/>
</g>
<!-- n13 -->
<g id="node9" class="node">
<title>n13</title>
<polygon fill="none" stroke="black" points="314.38,-252 125.12,-252 125.12,-216 314.38,-216 314.38,-252"/>
<text text-anchor="middle" x="219.75" y="-228.95" font-family="Times New Roman,serif" font-size="14.00">arg.datas.getDimensionSizes(1)</text>
<text text-anchor="middle" x="106.75" y="-255.2" font-family="Times New Roman,serif" font-size="14.00">(13)int</text>
</g>
<!-- n15&#45;&gt;n13 -->
<g id="edge8" class="edge">
<title>n15&#45;&gt;n13</title>
<path fill="none" stroke="black" d="M219.75,-298.63C219.75,-288.52 219.75,-275.48 219.75,-263.83"/>
<polygon fill="black" stroke="black" points="223.25,-263.89 219.75,-253.89 216.25,-263.89 223.25,-263.89"/>
</g>
<!-- n18 -->
<g id="node10" class="node">
<title>n18</title>
<polygon fill="none" stroke="black" points="533.38,-252 332.12,-252 332.12,-216 533.38,-216 533.38,-252"/>
<text text-anchor="middle" x="432.75" y="-228.95" font-family="Times New Roman,serif" font-size="14.00">Sequence{ node(16) .. node(17) }</text>
<text text-anchor="middle" x="313.75" y="-255.2" font-family="Times New Roman,serif" font-size="14.00">(18)int</text>
</g>
<!-- n34&#45;&gt;n18 -->
<g id="edge9" class="edge">
<title>n34&#45;&gt;n18</title>
<path fill="none" stroke="black" d="M527.69,-287.51C510.12,-277.79 490.68,-267.04 473.99,-257.81"/>
<polygon fill="black" stroke="black" points="475.77,-254.79 465.32,-253.02 472.38,-260.92 475.77,-254.79"/>
</g>
<!-- n19 -->
<g id="node11" class="node">
<title>n19</title>
<polygon fill="none" stroke="black" points="605.75,-252 551.75,-252 551.75,-216 605.75,-216 605.75,-252"/>
<text text-anchor="middle" x="578.75" y="-228.95" font-family="Times New Roman,serif" font-size="14.00">it : int</text>
<text text-anchor="middle" x="533.38" y="-255.2" font-family="Times New Roman,serif" font-size="14.00">(19)int</text>
</g>
<!-- n34&#45;&gt;n19 -->
<g id="edge10" class="edge">
<title>n34&#45;&gt;n19</title>
<path fill="none" stroke="black" d="M578.75,-287.51C578.75,-279.75 578.75,-271.33 578.75,-263.55"/>
<polygon fill="black" stroke="black" points="582.25,-263.56 578.75,-253.56 575.25,-263.56 582.25,-263.56"/>
</g>
<!-- n22 -->
<g id="node12" class="node">
<title>n22</title>
<polygon fill="none" stroke="black" points="677.75,-252 623.75,-252 623.75,-216 677.75,-216 677.75,-252"/>
<text text-anchor="middle" x="650.75" y="-228.95" font-family="Times New Roman,serif" font-size="14.00">=</text>
<text text-anchor="middle" x="590" y="-255.2" font-family="Times New Roman,serif" font-size="14.00">(22)Boolean</text>
</g>
<!-- n34&#45;&gt;n22 -->
<g id="edge11" class="edge">
<title>n34&#45;&gt;n22</title>
<path fill="none" stroke="black" d="M603.93,-287.51C611.76,-278.73 620.33,-269.11 627.99,-260.53"/>
<polygon fill="black" stroke="black" points="630.5,-262.97 634.54,-253.17 625.28,-258.31 630.5,-262.97"/>
</g>
<!-- n33 -->
<g id="node13" class="node">
<title>n33</title>
<polygon fill="none" stroke="black" points="769.75,-252 715.75,-252 715.75,-216 769.75,-216 769.75,-252"/>
<text text-anchor="middle" x="742.75" y="-228.95" font-family="Times New Roman,serif" font-size="14.00">=</text>
<text text-anchor="middle" x="682" y="-255.2" font-family="Times New Roman,serif" font-size="14.00">(33)Boolean</text>
</g>
<!-- n34&#45;&gt;n33 -->
<g id="edge12" class="edge">
<title>n34&#45;&gt;n33</title>
<path fill="none" stroke="black" d="M636.11,-287.51C659.08,-276.2 684.89,-263.49 705.36,-253.41"/>
<polygon fill="black" stroke="black" points="706.76,-256.62 714.18,-249.07 703.67,-250.34 706.76,-256.62"/>
</g>
<!-- n11 -->
<g id="node14" class="node">
<title>n11</title>
<polygon fill="none" stroke="black" points="209.12,-180 144.38,-180 144.38,-144 209.12,-144 209.12,-180"/>
<text text-anchor="middle" x="176.75" y="-156.95" font-family="Times New Roman,serif" font-size="14.00">arg.datas</text>
<text text-anchor="middle" x="118.12" y="-183.2" font-family="Times New Roman,serif" font-size="14.00">(11)int[5]</text>
</g>
<!-- n13&#45;&gt;n11 -->
<g id="edge13" class="edge">
<title>n13&#45;&gt;n11</title>
<path fill="none" stroke="black" d="M209.12,-215.7C204.33,-207.9 198.56,-198.51 193.23,-189.83"/>
<polygon fill="black" stroke="black" points="196.27,-188.08 188.05,-181.39 190.3,-191.75 196.27,-188.08"/>
</g>
<!-- n12 -->
<g id="node15" class="node">
<title>n12</title>
<polygon fill="none" stroke="black" points="280.75,-180 226.75,-180 226.75,-144 280.75,-144 280.75,-180"/>
<text text-anchor="middle" x="253.75" y="-156.95" font-family="Times New Roman,serif" font-size="14.00">1</text>
<text text-anchor="middle" x="208.38" y="-183.2" font-family="Times New Roman,serif" font-size="14.00">(12)int</text>
</g>
<!-- n13&#45;&gt;n12 -->
<g id="edge14" class="edge">
<title>n13&#45;&gt;n12</title>
<path fill="none" stroke="black" d="M228.15,-215.7C231.86,-208.07 236.31,-198.92 240.44,-190.4"/>
<polygon fill="black" stroke="black" points="243.56,-191.99 244.78,-181.47 237.26,-188.93 243.56,-191.99"/>
</g>
<!-- n16 -->
<g id="node16" class="node">
<title>n16</title>
<polygon fill="none" stroke="black" points="406.75,-180 352.75,-180 352.75,-144 406.75,-144 406.75,-180"/>
<text text-anchor="middle" x="379.75" y="-156.95" font-family="Times New Roman,serif" font-size="14.00">1</text>
<text text-anchor="middle" x="334.38" y="-183.2" font-family="Times New Roman,serif" font-size="14.00">(16)int</text>
</g>
<!-- n18&#45;&gt;n16 -->
<g id="edge15" class="edge">
<title>n18&#45;&gt;n16</title>
<path fill="none" stroke="black" d="M419.65,-215.7C413.62,-207.73 406.33,-198.1 399.64,-189.26"/>
<polygon fill="black" stroke="black" points="402.44,-187.17 393.61,-181.31 396.86,-191.4 402.44,-187.17"/>
</g>
<!-- n17 -->
<g id="node17" class="node">
<title>n17</title>
<polygon fill="none" stroke="black" points="478.75,-180 424.75,-180 424.75,-144 478.75,-144 478.75,-180"/>
<text text-anchor="middle" x="451.75" y="-156.95" font-family="Times New Roman,serif" font-size="14.00">dim1</text>
<text text-anchor="middle" x="406.38" y="-183.2" font-family="Times New Roman,serif" font-size="14.00">(17)int</text>
</g>
<!-- n18&#45;&gt;n17 -->
<g id="edge16" class="edge">
<title>n18&#45;&gt;n17</title>
<path fill="none" stroke="black" d="M437.45,-215.7C439.47,-208.24 441.89,-199.32 444.16,-190.97"/>
<polygon fill="black" stroke="black" points="447.47,-192.13 446.71,-181.57 440.71,-190.3 447.47,-192.13"/>
</g>
<!-- n21 -->
<g id="node18" class="node">
<title>n21</title>
<polygon fill="none" stroke="black" points="605.88,-180 515.62,-180 515.62,-144 605.88,-144 605.88,-180"/>
<text text-anchor="middle" x="560.75" y="-156.95" font-family="Times New Roman,serif" font-size="14.00">acc : Boolean</text>
<text text-anchor="middle" x="481.88" y="-183.2" font-family="Times New Roman,serif" font-size="14.00">(21)Boolean</text>
</g>
<!-- n22&#45;&gt;n21 -->
<g id="edge17" class="edge">
<title>n22&#45;&gt;n21</title>
<path fill="none" stroke="black" d="M628.5,-215.7C617.47,-207.11 603.96,-196.61 591.91,-187.24"/>
<polygon fill="black" stroke="black" points="594.29,-184.65 584.25,-181.28 589.99,-190.18 594.29,-184.65"/>
</g>
<!-- n20 -->
<g id="node19" class="node">
<title>n20</title>
<polygon fill="none" stroke="black" points="677.75,-180 623.75,-180 623.75,-144 677.75,-144 677.75,-180"/>
<text text-anchor="middle" x="650.75" y="-156.95" font-family="Times New Roman,serif" font-size="14.00">true</text>
<text text-anchor="middle" x="590" y="-183.2" font-family="Times New Roman,serif" font-size="14.00">(20)Boolean</text>
</g>
<!-- n22&#45;&gt;n20 -->
<g id="edge18" class="edge">
<title>n22&#45;&gt;n20</title>
<path fill="none" stroke="black" d="M650.75,-215.7C650.75,-208.41 650.75,-199.73 650.75,-191.54"/>
<polygon fill="black" stroke="black" points="654.25,-191.62 650.75,-181.62 647.25,-191.62 654.25,-191.62"/>
</g>
<!-- n25 -->
<g id="node20" class="node">
<title>n25</title>
<polygon fill="none" stroke="black" points="789.75,-180 695.75,-180 695.75,-144 789.75,-144 789.75,-180"/>
<text text-anchor="middle" x="742.75" y="-156.95" font-family="Times New Roman,serif" font-size="14.00">result.datas[it]</text>
<text text-anchor="middle" x="677.38" y="-183.2" font-family="Times New Roman,serif" font-size="14.00">(25)int</text>
</g>
<!-- n33&#45;&gt;n25 -->
<g id="edge19" class="edge">
<title>n33&#45;&gt;n25</title>
<path fill="none" stroke="black" d="M742.75,-215.7C742.75,-208.41 742.75,-199.73 742.75,-191.54"/>
<polygon fill="black" stroke="black" points="746.25,-191.62 742.75,-181.62 739.25,-191.62 746.25,-191.62"/>
</g>
<!-- n32 -->
<g id="node21" class="node">
<title>n32</title>
<polygon fill="none" stroke="black" points="861.75,-180 807.75,-180 807.75,-144 861.75,-144 861.75,-180"/>
<text text-anchor="middle" x="834.75" y="-156.95" font-family="Times New Roman,serif" font-size="14.00">+</text>
<text text-anchor="middle" x="789.38" y="-183.2" font-family="Times New Roman,serif" font-size="14.00">(32)int</text>
</g>
<!-- n33&#45;&gt;n32 -->
<g id="edge20" class="edge">
<title>n33&#45;&gt;n32</title>
<path fill="none" stroke="black" d="M765.49,-215.7C776.77,-207.11 790.58,-196.61 802.89,-187.24"/>
<polygon fill="black" stroke="black" points="804.91,-190.1 810.75,-181.26 800.67,-184.53 804.91,-190.1"/>
</g>
<!-- n10 -->
<g id="node22" class="node">
<title>n10</title>
<polygon fill="none" stroke="black" points="203.75,-108 149.75,-108 149.75,-72 203.75,-72 203.75,-108"/>
<text text-anchor="middle" x="176.75" y="-84.95" font-family="Times New Roman,serif" font-size="14.00">arg</text>
<text text-anchor="middle" x="122.75" y="-111.2" font-family="Times New Roman,serif" font-size="14.00">(10)Array</text>
</g>
<!-- n11&#45;&gt;n10 -->
<g id="edge21" class="edge">
<title>n11&#45;&gt;n10</title>
<path fill="none" stroke="black" d="M176.75,-143.7C176.75,-136.41 176.75,-127.73 176.75,-119.54"/>
<polygon fill="black" stroke="black" points="180.25,-119.62 176.75,-109.62 173.25,-119.62 180.25,-119.62"/>
</g>
<!-- n23 -->
<g id="node23" class="node">
<title>n23</title>
<polygon fill="none" stroke="black" points="698.75,-108 644.75,-108 644.75,-72 698.75,-72 698.75,-108"/>
<text text-anchor="middle" x="671.75" y="-84.95" font-family="Times New Roman,serif" font-size="14.00">result</text>
<text text-anchor="middle" x="617.75" y="-111.2" font-family="Times New Roman,serif" font-size="14.00">(23)Array</text>
</g>
<!-- n25&#45;&gt;n23 -->
<g id="edge22" class="edge">
<title>n25&#45;&gt;n23</title>
<path fill="none" stroke="black" d="M725.2,-143.7C716.77,-135.39 706.52,-125.28 697.25,-116.14"/>
<polygon fill="black" stroke="black" points="699.75,-113.7 690.18,-109.17 694.84,-118.68 699.75,-113.7"/>
</g>
<!-- n24 -->
<g id="node24" class="node">
<title>n24</title>
<polygon fill="none" stroke="black" points="770.75,-108 716.75,-108 716.75,-72 770.75,-72 770.75,-108"/>
<text text-anchor="middle" x="743.75" y="-84.95" font-family="Times New Roman,serif" font-size="14.00">it</text>
<text text-anchor="middle" x="698.38" y="-111.2" font-family="Times New Roman,serif" font-size="14.00">(24)int</text>
</g>
<!-- n25&#45;&gt;n24 -->
<g id="edge23" class="edge">
<title>n25&#45;&gt;n24</title>
<path fill="none" stroke="black" d="M743,-143.7C743.1,-136.41 743.23,-127.73 743.34,-119.54"/>
<polygon fill="black" stroke="black" points="746.84,-119.67 743.48,-109.62 739.84,-119.57 746.84,-119.67"/>
</g>
<!-- n28 -->
<g id="node25" class="node">
<title>n28</title>
<polygon fill="none" stroke="black" points="874.5,-108 791,-108 791,-72 874.5,-72 874.5,-108"/>
<text text-anchor="middle" x="832.75" y="-84.95" font-family="Times New Roman,serif" font-size="14.00">self.datas[it]</text>
<text text-anchor="middle" x="772.62" y="-111.2" font-family="Times New Roman,serif" font-size="14.00">(28)int</text>
</g>
<!-- n32&#45;&gt;n28 -->
<g id="edge24" class="edge">
<title>n32&#45;&gt;n28</title>
<path fill="none" stroke="black" d="M834.26,-143.7C834.05,-136.41 833.8,-127.73 833.57,-119.54"/>
<polygon fill="black" stroke="black" points="837.07,-119.51 833.28,-109.62 830.07,-119.71 837.07,-119.51"/>
</g>
<!-- n31 -->
<g id="node26" class="node">
<title>n31</title>
<polygon fill="none" stroke="black" points="973.38,-108 892.12,-108 892.12,-72 973.38,-72 973.38,-108"/>
<text text-anchor="middle" x="932.75" y="-84.95" font-family="Times New Roman,serif" font-size="14.00">arg.datas[it]</text>
<text text-anchor="middle" x="873.75" y="-111.2" font-family="Times New Roman,serif" font-size="14.00">(31)int</text>
</g>
<!-- n32&#45;&gt;n31 -->
<g id="edge25" class="edge">
<title>n32&#45;&gt;n31</title>
<path fill="none" stroke="black" d="M859.23,-143.52C871.36,-134.85 886.2,-124.25 899.36,-114.85"/>
<polygon fill="black" stroke="black" points="901.25,-117.8 907.35,-109.14 897.18,-112.1 901.25,-117.8"/>
</g>
<!-- n26 -->
<g id="node27" class="node">
<title>n26</title>
<polygon fill="none" stroke="black" points="794.75,-36 740.75,-36 740.75,0 794.75,0 794.75,-36"/>
<text text-anchor="middle" x="767.75" y="-12.95" font-family="Times New Roman,serif" font-size="14.00">self</text>
<text text-anchor="middle" x="713.75" y="-39.2" font-family="Times New Roman,serif" font-size="14.00">(26)Array</text>
</g>
<!-- n28&#45;&gt;n26 -->
<g id="edge26" class="edge">
<title>n28&#45;&gt;n26</title>
<path fill="none" stroke="black" d="M816.68,-71.7C809.05,-63.47 799.77,-53.48 791.35,-44.42"/>
<polygon fill="black" stroke="black" points="794.03,-42.16 784.66,-37.21 788.9,-46.92 794.03,-42.16"/>
</g>
<!-- n27 -->
<g id="node28" class="node">
<title>n27</title>
<polygon fill="none" stroke="black" points="866.75,-36 812.75,-36 812.75,0 866.75,0 866.75,-36"/>
<text text-anchor="middle" x="839.75" y="-12.95" font-family="Times New Roman,serif" font-size="14.00">it</text>
<text text-anchor="middle" x="794.38" y="-39.2" font-family="Times New Roman,serif" font-size="14.00">(27)int</text>
</g>
<!-- n28&#45;&gt;n27 -->
<g id="edge27" class="edge">
<title>n28&#45;&gt;n27</title>
<path fill="none" stroke="black" d="M834.48,-71.7C835.21,-64.41 836.08,-55.73 836.9,-47.54"/>
<polygon fill="black" stroke="black" points="840.38,-47.91 837.89,-37.61 833.41,-47.21 840.38,-47.91"/>
</g>
<!-- n29 -->
<g id="node29" class="node">
<title>n29</title>
<polygon fill="none" stroke="black" points="952.75,-36 898.75,-36 898.75,0 952.75,0 952.75,-36"/>
<text text-anchor="middle" x="925.75" y="-12.95" font-family="Times New Roman,serif" font-size="14.00">arg</text>
<text text-anchor="middle" x="871.75" y="-39.2" font-family="Times New Roman,serif" font-size="14.00">(29)Array</text>
</g>
<!-- n31&#45;&gt;n29 -->
<g id="edge28" class="edge">
<title>n31&#45;&gt;n29</title>
<path fill="none" stroke="black" d="M931.02,-71.7C930.29,-64.41 929.42,-55.73 928.6,-47.54"/>
<polygon fill="black" stroke="black" points="932.09,-47.21 927.61,-37.61 925.12,-47.91 932.09,-47.21"/>
</g>
<!-- n30 -->
<g id="node30" class="node">
<title>n30</title>
<polygon fill="none" stroke="black" points="1024.75,-36 970.75,-36 970.75,0 1024.75,0 1024.75,-36"/>
<text text-anchor="middle" x="997.75" y="-12.95" font-family="Times New Roman,serif" font-size="14.00">it</text>
<text text-anchor="middle" x="952.38" y="-39.2" font-family="Times New Roman,serif" font-size="14.00">(30)int</text>
</g>
<!-- n31&#45;&gt;n30 -->
<g id="edge29" class="edge">
<title>n31&#45;&gt;n30</title>
<path fill="none" stroke="black" d="M948.82,-71.7C956.45,-63.47 965.73,-53.48 974.15,-44.42"/>
<polygon fill="black" stroke="black" points="976.6,-46.92 980.84,-37.21 971.47,-42.16 976.6,-46.92"/>
</g>
</g>
</svg>
