<?xml version="1.0" encoding="UTF-8" standalone="no"?>
<!DOCTYPE svg PUBLIC "-//W3C//DTD SVG 1.1//EN"
 "http://www.w3.org/Graphics/SVG/1.1/DTD/svg11.dtd">
<!-- Generated by graphviz version 12.2.1 (20241206.2353)
 -->
<!-- Title: AST Pages: 1 -->
<svg width="2463pt" height="663pt"
 viewBox="0.00 0.00 2463.25 663.00" xmlns="http://www.w3.org/2000/svg" xmlns:xlink="http://www.w3.org/1999/xlink">
<g id="graph0" class="graph" transform="scale(1 1) rotate(0) translate(4 659)">
<title>AST</title>
<polygon fill="white" stroke="none" points="-4,4 -4,-659 2459.25,-659 2459.25,4 -4,4"/>
<!-- n89 -->
<g id="node1" class="node">
<title>n89</title>
<polygon fill="none" stroke="black" points="751.75,-638.5 444.75,-638.5 444.75,-602.5 751.75,-602.5 751.75,-638.5"/>
<text text-anchor="middle" x="598.25" y="-615.45" font-family="Times New Roman,serif" font-size="14.00">ContextDecl: node(25) Context: node (43), node (88)</text>
<text text-anchor="middle" x="433.5" y="-641.7" font-family="Times New Roman,serif" font-size="14.00">(89)</text>
</g>
<!-- n25 -->
<g id="node2" class="node">
<title>n25</title>
<polygon fill="none" stroke="black" points="553,-566.5 337.5,-566.5 337.5,-530.5 553,-530.5 553,-566.5"/>
<text text-anchor="middle" x="445.25" y="-543.45" font-family="Times New Roman,serif" font-size="14.00">VarArray::add(node (24)) : VarArray</text>
<text text-anchor="middle" x="326.25" y="-569.7" font-family="Times New Roman,serif" font-size="14.00">(25)</text>
</g>
<!-- n89&#45;&gt;n25 -->
<g id="edge1" class="edge">
<title>n89&#45;&gt;n25</title>
<path fill="none" stroke="black" d="M560.04,-602.02C539.88,-592.79 514.94,-581.39 493.47,-571.56"/>
<polygon fill="black" stroke="black" points="495.17,-568.49 484.62,-567.51 492.26,-574.85 495.17,-568.49"/>
</g>
<!-- n43 -->
<g id="node3" class="node">
<title>n43</title>
<polygon fill="none" stroke="black" points="625.25,-566.5 571.25,-566.5 571.25,-530.5 625.25,-530.5 625.25,-566.5"/>
<text text-anchor="middle" x="598.25" y="-543.45" font-family="Times New Roman,serif" font-size="14.00"> pre:</text>
<text text-anchor="middle" x="537.5" y="-569.7" font-family="Times New Roman,serif" font-size="14.00">(43)Boolean</text>
</g>
<!-- n89&#45;&gt;n43 -->
<g id="edge2" class="edge">
<title>n89&#45;&gt;n43</title>
<path fill="none" stroke="black" d="M598.25,-602.2C598.25,-594.91 598.25,-586.23 598.25,-578.04"/>
<polygon fill="black" stroke="black" points="601.75,-578.12 598.25,-568.12 594.75,-578.12 601.75,-578.12"/>
</g>
<!-- n88 -->
<g id="node4" class="node">
<title>n88</title>
<polygon fill="none" stroke="black" points="940.25,-566.5 886.25,-566.5 886.25,-530.5 940.25,-530.5 940.25,-566.5"/>
<text text-anchor="middle" x="913.25" y="-543.45" font-family="Times New Roman,serif" font-size="14.00"> post:</text>
<text text-anchor="middle" x="852.5" y="-569.7" font-family="Times New Roman,serif" font-size="14.00">(88)Boolean</text>
</g>
<!-- n89&#45;&gt;n88 -->
<g id="edge3" class="edge">
<title>n89&#45;&gt;n88</title>
<path fill="none" stroke="black" d="M676.93,-602.02C740.02,-588 825.85,-568.92 874.82,-558.04"/>
<polygon fill="black" stroke="black" points="875.37,-561.5 884.38,-555.92 873.85,-554.67 875.37,-561.5"/>
</g>
<!-- n24 -->
<g id="node5" class="node">
<title>n24</title>
<polygon fill="none" stroke="black" points="492.25,-494.5 398.25,-494.5 398.25,-458.5 492.25,-458.5 492.25,-494.5"/>
<text text-anchor="middle" x="445.25" y="-471.45" font-family="Times New Roman,serif" font-size="14.00">arg : VarArray</text>
<text text-anchor="middle" x="361.88" y="-497.7" font-family="Times New Roman,serif" font-size="14.00">(24)VarArray</text>
</g>
<!-- n25&#45;&gt;n24 -->
<g id="edge4" class="edge">
<title>n25&#45;&gt;n24</title>
<path fill="none" stroke="black" d="M445.25,-530.2C445.25,-522.91 445.25,-514.23 445.25,-506.04"/>
<polygon fill="black" stroke="black" points="448.75,-506.12 445.25,-496.12 441.75,-506.12 448.75,-506.12"/>
</g>
<!-- n42 -->
<g id="node6" class="node">
<title>n42</title>
<polygon fill="none" stroke="black" points="594.25,-494.5 540.25,-494.5 540.25,-458.5 594.25,-458.5 594.25,-494.5"/>
<text text-anchor="middle" x="567.25" y="-471.45" font-family="Times New Roman,serif" font-size="14.00">and</text>
<text text-anchor="middle" x="506.5" y="-497.7" font-family="Times New Roman,serif" font-size="14.00">(42)Boolean</text>
</g>
<!-- n43&#45;&gt;n42 -->
<g id="edge5" class="edge">
<title>n43&#45;&gt;n42</title>
<path fill="none" stroke="black" d="M590.59,-530.2C587.21,-522.57 583.16,-513.42 579.38,-504.9"/>
<polygon fill="black" stroke="black" points="582.69,-503.71 575.44,-495.99 576.29,-506.55 582.69,-503.71"/>
</g>
<!-- n87 -->
<g id="node7" class="node">
<title>n87</title>
<polygon fill="none" stroke="black" points="1087.25,-494.5 1033.25,-494.5 1033.25,-458.5 1087.25,-458.5 1087.25,-494.5"/>
<text text-anchor="middle" x="1060.25" y="-471.45" font-family="Times New Roman,serif" font-size="14.00">and</text>
<text text-anchor="middle" x="999.5" y="-497.7" font-family="Times New Roman,serif" font-size="14.00">(87)Boolean</text>
</g>
<!-- n88&#45;&gt;n87 -->
<g id="edge6" class="edge">
<title>n88&#45;&gt;n87</title>
<path fill="none" stroke="black" d="M940.56,-534.5C963.76,-523.45 997.3,-507.48 1022.97,-495.25"/>
<polygon fill="black" stroke="black" points="1024.2,-498.54 1031.72,-491.08 1021.19,-492.22 1024.2,-498.54"/>
</g>
<!-- n32 -->
<g id="node8" class="node">
<title>n32</title>
<polygon fill="none" stroke="black" points="307.25,-420 253.25,-420 253.25,-384 307.25,-384 307.25,-420"/>
<text text-anchor="middle" x="280.25" y="-396.95" font-family="Times New Roman,serif" font-size="14.00">=</text>
<text text-anchor="middle" x="219.5" y="-423.2" font-family="Times New Roman,serif" font-size="14.00">(32)Boolean</text>
</g>
<!-- n42&#45;&gt;n32 -->
<g id="edge7" class="edge">
<title>n42&#45;&gt;n32</title>
<path fill="none" stroke="black" d="M539.97,-468.43C528.08,-465.36 513.98,-461.74 501.25,-458.5 437.2,-442.21 362.62,-423.54 318.54,-412.54"/>
<polygon fill="black" stroke="black" points="319.5,-409.17 308.95,-410.15 317.81,-415.97 319.5,-409.17"/>
</g>
<!-- n41 -->
<g id="node9" class="node">
<title>n41</title>
<polygon fill="none" stroke="black" points="594.25,-420 540.25,-420 540.25,-384 594.25,-384 594.25,-420"/>
<text text-anchor="middle" x="567.25" y="-396.95" font-family="Times New Roman,serif" font-size="14.00">=</text>
<text text-anchor="middle" x="506.5" y="-423.2" font-family="Times New Roman,serif" font-size="14.00">(41)Boolean</text>
</g>
<!-- n42&#45;&gt;n41 -->
<g id="edge8" class="edge">
<title>n42&#45;&gt;n41</title>
<path fill="none" stroke="black" d="M567.25,-458.32C567.25,-450.28 567.25,-440.5 567.25,-431.41"/>
<polygon fill="black" stroke="black" points="570.75,-431.57 567.25,-421.57 563.75,-431.57 570.75,-431.57"/>
</g>
<!-- n60 -->
<g id="node10" class="node">
<title>n60</title>
<polygon fill="none" stroke="black" points="1087.25,-420 1033.25,-420 1033.25,-384 1087.25,-384 1087.25,-420"/>
<text text-anchor="middle" x="1060.25" y="-396.95" font-family="Times New Roman,serif" font-size="14.00">and</text>
<text text-anchor="middle" x="999.5" y="-423.2" font-family="Times New Roman,serif" font-size="14.00">(60)Boolean</text>
</g>
<!-- n87&#45;&gt;n60 -->
<g id="edge9" class="edge">
<title>n87&#45;&gt;n60</title>
<path fill="none" stroke="black" d="M1060.25,-458.32C1060.25,-450.28 1060.25,-440.5 1060.25,-431.41"/>
<polygon fill="black" stroke="black" points="1063.75,-431.57 1060.25,-421.57 1056.75,-431.57 1063.75,-431.57"/>
</g>
<!-- n86 -->
<g id="node11" class="node">
<title>n86</title>
<polygon fill="none" stroke="black" points="1694,-422.5 1484.5,-422.5 1484.5,-381.5 1694,-381.5 1694,-422.5"/>
<text text-anchor="middle" x="1589.25" y="-405.2" font-family="Times New Roman,serif" font-size="14.00">LetExp </text>
<text text-anchor="middle" x="1589.25" y="-388.7" font-family="Times New Roman,serif" font-size="14.00">Let node(66), node(85) in node(85)</text>
<text text-anchor="middle" x="1450.75" y="-425.7" font-family="Times New Roman,serif" font-size="14.00">(86)Boolean</text>
</g>
<!-- n87&#45;&gt;n86 -->
<g id="edge10" class="edge">
<title>n87&#45;&gt;n86</title>
<path fill="none" stroke="black" d="M1087.58,-471.75C1157.87,-462.12 1348.16,-436.04 1473.13,-418.91"/>
<polygon fill="black" stroke="black" points="1473.33,-422.42 1482.76,-417.59 1472.38,-415.48 1473.33,-422.42"/>
</g>
<!-- n28 -->
<g id="node12" class="node">
<title>n28</title>
<polygon fill="none" stroke="black" points="187.75,-334.75 36.75,-334.75 36.75,-298.75 187.75,-298.75 187.75,-334.75"/>
<text text-anchor="middle" x="112.25" y="-311.7" font-family="Times New Roman,serif" font-size="14.00">self.data.getDimension()</text>
<text text-anchor="middle" x="18.38" y="-337.95" font-family="Times New Roman,serif" font-size="14.00">(28)int</text>
</g>
<!-- n32&#45;&gt;n28 -->
<g id="edge11" class="edge">
<title>n32&#45;&gt;n28</title>
<path fill="none" stroke="black" d="M252.88,-387.44C227.07,-374.65 187.9,-355.24 157.45,-340.15"/>
<polygon fill="black" stroke="black" points="159.36,-337.19 148.85,-335.89 156.26,-343.46 159.36,-337.19"/>
</g>
<!-- n31 -->
<g id="node13" class="node">
<title>n31</title>
<polygon fill="none" stroke="black" points="354.62,-334.75 205.88,-334.75 205.88,-298.75 354.62,-298.75 354.62,-334.75"/>
<text text-anchor="middle" x="280.25" y="-311.7" font-family="Times New Roman,serif" font-size="14.00">arg.data.getDimension()</text>
<text text-anchor="middle" x="187.5" y="-337.95" font-family="Times New Roman,serif" font-size="14.00">(31)int</text>
</g>
<!-- n32&#45;&gt;n31 -->
<g id="edge12" class="edge">
<title>n32&#45;&gt;n31</title>
<path fill="none" stroke="black" d="M280.25,-383.75C280.25,-372.92 280.25,-358.7 280.25,-346.23"/>
<polygon fill="black" stroke="black" points="283.75,-346.49 280.25,-336.49 276.75,-346.49 283.75,-346.49"/>
</g>
<!-- n36 -->
<g id="node14" class="node">
<title>n36</title>
<polygon fill="none" stroke="black" points="559.38,-334.75 373.12,-334.75 373.12,-298.75 559.38,-298.75 559.38,-334.75"/>
<text text-anchor="middle" x="466.25" y="-311.7" font-family="Times New Roman,serif" font-size="14.00">self.data.getDimensionSizes(1)</text>
<text text-anchor="middle" x="354.75" y="-337.95" font-family="Times New Roman,serif" font-size="14.00">(36)int</text>
</g>
<!-- n41&#45;&gt;n36 -->
<g id="edge13" class="edge">
<title>n41&#45;&gt;n36</title>
<path fill="none" stroke="black" d="M546.32,-383.75C531.7,-371.7 511.96,-355.43 495.74,-342.06"/>
<polygon fill="black" stroke="black" points="498.26,-339.6 488.32,-335.94 493.81,-345 498.26,-339.6"/>
</g>
<!-- n40 -->
<g id="node15" class="node">
<title>n40</title>
<polygon fill="none" stroke="black" points="761.25,-334.75 577.25,-334.75 577.25,-298.75 761.25,-298.75 761.25,-334.75"/>
<text text-anchor="middle" x="669.25" y="-311.7" font-family="Times New Roman,serif" font-size="14.00">arg.data.getDimensionSizes(1)</text>
<text text-anchor="middle" x="558.88" y="-337.95" font-family="Times New Roman,serif" font-size="14.00">(40)int</text>
</g>
<!-- n41&#45;&gt;n40 -->
<g id="edge14" class="edge">
<title>n41&#45;&gt;n40</title>
<path fill="none" stroke="black" d="M588.38,-383.75C603.15,-371.7 623.09,-355.43 639.46,-342.06"/>
<polygon fill="black" stroke="black" points="641.44,-344.97 646.97,-335.93 637.01,-339.55 641.44,-344.97"/>
</g>
<!-- n50 -->
<g id="node16" class="node">
<title>n50</title>
<polygon fill="none" stroke="black" points="991.25,-334.75 937.25,-334.75 937.25,-298.75 991.25,-298.75 991.25,-334.75"/>
<text text-anchor="middle" x="964.25" y="-311.7" font-family="Times New Roman,serif" font-size="14.00">=</text>
<text text-anchor="middle" x="903.5" y="-337.95" font-family="Times New Roman,serif" font-size="14.00">(50)Boolean</text>
</g>
<!-- n60&#45;&gt;n50 -->
<g id="edge15" class="edge">
<title>n60&#45;&gt;n50</title>
<path fill="none" stroke="black" d="M1040.36,-383.75C1026.59,-371.81 1008.05,-355.73 992.71,-342.43"/>
<polygon fill="black" stroke="black" points="995.11,-339.88 985.26,-335.97 990.52,-345.16 995.11,-339.88"/>
</g>
<!-- n59 -->
<g id="node17" class="node">
<title>n59</title>
<polygon fill="none" stroke="black" points="1183.25,-334.75 1129.25,-334.75 1129.25,-298.75 1183.25,-298.75 1183.25,-334.75"/>
<text text-anchor="middle" x="1156.25" y="-311.7" font-family="Times New Roman,serif" font-size="14.00">=</text>
<text text-anchor="middle" x="1095.5" y="-337.95" font-family="Times New Roman,serif" font-size="14.00">(59)Boolean</text>
</g>
<!-- n60&#45;&gt;n59 -->
<g id="edge16" class="edge">
<title>n60&#45;&gt;n59</title>
<path fill="none" stroke="black" d="M1080.14,-383.75C1093.91,-371.81 1112.45,-355.73 1127.79,-342.43"/>
<polygon fill="black" stroke="black" points="1129.98,-345.16 1135.24,-335.97 1125.39,-339.88 1129.98,-345.16"/>
</g>
<!-- n66 -->
<g id="node18" class="node">
<title>n66</title>
<polygon fill="none" stroke="black" points="1616.25,-334.75 1562.25,-334.75 1562.25,-298.75 1616.25,-298.75 1616.25,-334.75"/>
<text text-anchor="middle" x="1589.25" y="-311.7" font-family="Times New Roman,serif" font-size="14.00">=</text>
<text text-anchor="middle" x="1528.5" y="-337.95" font-family="Times New Roman,serif" font-size="14.00">(66)Boolean</text>
</g>
<!-- n86&#45;&gt;n66 -->
<g id="edge17" class="edge">
<title>n86&#45;&gt;n66</title>
<path fill="none" stroke="black" d="M1589.25,-381.27C1589.25,-370.85 1589.25,-357.87 1589.25,-346.37"/>
<polygon fill="black" stroke="black" points="1592.75,-346.59 1589.25,-336.59 1585.75,-346.59 1592.75,-346.59"/>
</g>
<!-- n85 -->
<g id="node19" class="node">
<title>n85</title>
<polygon fill="none" stroke="black" points="2123.62,-345.5 1914.88,-345.5 1914.88,-288 2123.62,-288 2123.62,-345.5"/>
<text text-anchor="middle" x="2019.25" y="-328.2" font-family="Times New Roman,serif" font-size="14.00">IterateExp</text>
<text text-anchor="middle" x="2019.25" y="-311.7" font-family="Times New Roman,serif" font-size="14.00">source=node(69) Iterator=node(70)</text>
<text text-anchor="middle" x="2019.25" y="-295.2" font-family="Times New Roman,serif" font-size="14.00">Result=node(73) Body=node(84)</text>
<text text-anchor="middle" x="1881.12" y="-348.7" font-family="Times New Roman,serif" font-size="14.00">(85)Boolean</text>
</g>
<!-- n86&#45;&gt;n85 -->
<g id="edge18" class="edge">
<title>n86&#45;&gt;n85</title>
<path fill="none" stroke="black" d="M1692.52,-381.01C1756.06,-368.71 1837.63,-352.91 1903.37,-340.19"/>
<polygon fill="black" stroke="black" points="1903.97,-343.63 1913.13,-338.3 1902.64,-336.76 1903.97,-343.63"/>
</g>
<!-- n27 -->
<g id="node20" class="node">
<title>n27</title>
<polygon fill="none" stroke="black" points="143.12,-252 81.38,-252 81.38,-216 143.12,-216 143.12,-252"/>
<text text-anchor="middle" x="112.25" y="-228.95" font-family="Times New Roman,serif" font-size="14.00">self.data</text>
<text text-anchor="middle" x="47.62" y="-255.2" font-family="Times New Roman,serif" font-size="14.00">(27)int[dim]</text>
</g>
<!-- n28&#45;&gt;n27 -->
<g id="edge19" class="edge">
<title>n28&#45;&gt;n27</title>
<path fill="none" stroke="black" d="M112.25,-298.63C112.25,-288.52 112.25,-275.48 112.25,-263.83"/>
<polygon fill="black" stroke="black" points="115.75,-263.89 112.25,-253.89 108.75,-263.89 115.75,-263.89"/>
</g>
<!-- n30 -->
<g id="node21" class="node">
<title>n30</title>
<polygon fill="none" stroke="black" points="310,-252 250.5,-252 250.5,-216 310,-216 310,-252"/>
<text text-anchor="middle" x="280.25" y="-228.95" font-family="Times New Roman,serif" font-size="14.00">arg.data</text>
<text text-anchor="middle" x="216.75" y="-255.2" font-family="Times New Roman,serif" font-size="14.00">(30)int[dim]</text>
</g>
<!-- n31&#45;&gt;n30 -->
<g id="edge20" class="edge">
<title>n31&#45;&gt;n30</title>
<path fill="none" stroke="black" d="M280.25,-298.63C280.25,-288.52 280.25,-275.48 280.25,-263.83"/>
<polygon fill="black" stroke="black" points="283.75,-263.89 280.25,-253.89 276.75,-263.89 283.75,-263.89"/>
</g>
<!-- n34 -->
<g id="node22" class="node">
<title>n34</title>
<polygon fill="none" stroke="black" points="447.12,-252 385.38,-252 385.38,-216 447.12,-216 447.12,-252"/>
<text text-anchor="middle" x="416.25" y="-228.95" font-family="Times New Roman,serif" font-size="14.00">self.data</text>
<text text-anchor="middle" x="351.62" y="-255.2" font-family="Times New Roman,serif" font-size="14.00">(34)int[dim]</text>
</g>
<!-- n36&#45;&gt;n34 -->
<g id="edge21" class="edge">
<title>n36&#45;&gt;n34</title>
<path fill="none" stroke="black" d="M455.65,-298.63C449.06,-287.99 440.46,-274.09 432.97,-262"/>
<polygon fill="black" stroke="black" points="436.05,-260.33 427.81,-253.67 430.1,-264.01 436.05,-260.33"/>
</g>
<!-- n35 -->
<g id="node23" class="node">
<title>n35</title>
<polygon fill="none" stroke="black" points="519.25,-252 465.25,-252 465.25,-216 519.25,-216 519.25,-252"/>
<text text-anchor="middle" x="492.25" y="-228.95" font-family="Times New Roman,serif" font-size="14.00">1</text>
<text text-anchor="middle" x="446.88" y="-255.2" font-family="Times New Roman,serif" font-size="14.00">(35)int</text>
</g>
<!-- n36&#45;&gt;n35 -->
<g id="edge22" class="edge">
<title>n36&#45;&gt;n35</title>
<path fill="none" stroke="black" d="M471.76,-298.63C475.09,-288.31 479.39,-274.92 483.2,-263.09"/>
<polygon fill="black" stroke="black" points="486.46,-264.41 486.19,-253.82 479.79,-262.27 486.46,-264.41"/>
</g>
<!-- n38 -->
<g id="node24" class="node">
<title>n38</title>
<polygon fill="none" stroke="black" points="624,-252 564.5,-252 564.5,-216 624,-216 624,-252"/>
<text text-anchor="middle" x="594.25" y="-228.95" font-family="Times New Roman,serif" font-size="14.00">arg.data</text>
<text text-anchor="middle" x="530.75" y="-255.2" font-family="Times New Roman,serif" font-size="14.00">(38)int[dim]</text>
</g>
<!-- n40&#45;&gt;n38 -->
<g id="edge23" class="edge">
<title>n40&#45;&gt;n38</title>
<path fill="none" stroke="black" d="M653.34,-298.63C643.07,-287.57 629.52,-272.98 617.99,-260.56"/>
<polygon fill="black" stroke="black" points="620.79,-258.43 611.42,-253.49 615.66,-263.2 620.79,-258.43"/>
</g>
<!-- n39 -->
<g id="node25" class="node">
<title>n39</title>
<polygon fill="none" stroke="black" points="696.25,-252 642.25,-252 642.25,-216 696.25,-216 696.25,-252"/>
<text text-anchor="middle" x="669.25" y="-228.95" font-family="Times New Roman,serif" font-size="14.00">1</text>
<text text-anchor="middle" x="623.88" y="-255.2" font-family="Times New Roman,serif" font-size="14.00">(39)int</text>
</g>
<!-- n40&#45;&gt;n39 -->
<g id="edge24" class="edge">
<title>n40&#45;&gt;n39</title>
<path fill="none" stroke="black" d="M669.25,-298.63C669.25,-288.52 669.25,-275.48 669.25,-263.83"/>
<polygon fill="black" stroke="black" points="672.75,-263.89 669.25,-253.89 665.75,-263.89 672.75,-263.89"/>
</g>
<!-- n46 -->
<g id="node26" class="node">
<title>n46</title>
<polygon fill="none" stroke="black" points="865.75,-252 714.75,-252 714.75,-216 865.75,-216 865.75,-252"/>
<text text-anchor="middle" x="790.25" y="-228.95" font-family="Times New Roman,serif" font-size="14.00">self.data.getDimension()</text>
<text text-anchor="middle" x="696.38" y="-255.2" font-family="Times New Roman,serif" font-size="14.00">(46)int</text>
</g>
<!-- n50&#45;&gt;n46 -->
<g id="edge25" class="edge">
<title>n50&#45;&gt;n46</title>
<path fill="none" stroke="black" d="M937.06,-303.13C910.7,-290.9 870.13,-272.07 838.32,-257.31"/>
<polygon fill="black" stroke="black" points="839.82,-254.14 829.27,-253.11 836.87,-260.49 839.82,-254.14"/>
</g>
<!-- n49 -->
<g id="node27" class="node">
<title>n49</title>
<polygon fill="none" stroke="black" points="1045,-252 883.5,-252 883.5,-216 1045,-216 1045,-252"/>
<text text-anchor="middle" x="964.25" y="-228.95" font-family="Times New Roman,serif" font-size="14.00">result.data.getDimension()</text>
<text text-anchor="middle" x="865.12" y="-255.2" font-family="Times New Roman,serif" font-size="14.00">(49)int</text>
</g>
<!-- n50&#45;&gt;n49 -->
<g id="edge26" class="edge">
<title>n50&#45;&gt;n49</title>
<path fill="none" stroke="black" d="M964.25,-298.63C964.25,-288.52 964.25,-275.48 964.25,-263.83"/>
<polygon fill="black" stroke="black" points="967.75,-263.89 964.25,-253.89 960.75,-263.89 967.75,-263.89"/>
</g>
<!-- n54 -->
<g id="node28" class="node">
<title>n54</title>
<polygon fill="none" stroke="black" points="1249.38,-252 1063.12,-252 1063.12,-216 1249.38,-216 1249.38,-252"/>
<text text-anchor="middle" x="1156.25" y="-228.95" font-family="Times New Roman,serif" font-size="14.00">self.data.getDimensionSizes(1)</text>
<text text-anchor="middle" x="1044.75" y="-255.2" font-family="Times New Roman,serif" font-size="14.00">(54)int</text>
</g>
<!-- n59&#45;&gt;n54 -->
<g id="edge27" class="edge">
<title>n59&#45;&gt;n54</title>
<path fill="none" stroke="black" d="M1156.25,-298.63C1156.25,-288.52 1156.25,-275.48 1156.25,-263.83"/>
<polygon fill="black" stroke="black" points="1159.75,-263.89 1156.25,-253.89 1152.75,-263.89 1159.75,-263.89"/>
</g>
<!-- n58 -->
<g id="node29" class="node">
<title>n58</title>
<polygon fill="none" stroke="black" points="1464.62,-252 1267.88,-252 1267.88,-216 1464.62,-216 1464.62,-252"/>
<text text-anchor="middle" x="1366.25" y="-228.95" font-family="Times New Roman,serif" font-size="14.00">result.data.getDimensionSizes(1)</text>
<text text-anchor="middle" x="1249.5" y="-255.2" font-family="Times New Roman,serif" font-size="14.00">(58)int</text>
</g>
<!-- n59&#45;&gt;n58 -->
<g id="edge28" class="edge">
<title>n59&#45;&gt;n58</title>
<path fill="none" stroke="black" d="M1183.7,-305.19C1215.75,-292.87 1269.57,-272.18 1310.49,-256.44"/>
<polygon fill="black" stroke="black" points="1311.64,-259.75 1319.71,-252.89 1309.12,-253.22 1311.64,-259.75"/>
</g>
<!-- n65 -->
<g id="node30" class="node">
<title>n65</title>
<polygon fill="none" stroke="black" points="1552.25,-252 1482.25,-252 1482.25,-216 1552.25,-216 1552.25,-252"/>
<text text-anchor="middle" x="1517.25" y="-228.95" font-family="Times New Roman,serif" font-size="14.00">dim1 : int</text>
<text text-anchor="middle" x="1463.88" y="-255.2" font-family="Times New Roman,serif" font-size="14.00">(65)int</text>
</g>
<!-- n66&#45;&gt;n65 -->
<g id="edge29" class="edge">
<title>n66&#45;&gt;n65</title>
<path fill="none" stroke="black" d="M1573.98,-298.63C1564.21,-287.67 1551.36,-273.26 1540.36,-260.92"/>
<polygon fill="black" stroke="black" points="1543.02,-258.64 1533.75,-253.51 1537.8,-263.3 1543.02,-258.64"/>
</g>
<!-- n64 -->
<g id="node31" class="node">
<title>n64</title>
<polygon fill="none" stroke="black" points="1754.25,-252 1570.25,-252 1570.25,-216 1754.25,-216 1754.25,-252"/>
<text text-anchor="middle" x="1662.25" y="-228.95" font-family="Times New Roman,serif" font-size="14.00">arg.data.getDimensionSizes(1)</text>
<text text-anchor="middle" x="1551.88" y="-255.2" font-family="Times New Roman,serif" font-size="14.00">(64)int</text>
</g>
<!-- n66&#45;&gt;n64 -->
<g id="edge30" class="edge">
<title>n66&#45;&gt;n64</title>
<path fill="none" stroke="black" d="M1604.73,-298.63C1614.63,-287.67 1627.66,-273.26 1638.82,-260.92"/>
<polygon fill="black" stroke="black" points="1641.41,-263.27 1645.52,-253.5 1636.22,-258.57 1641.41,-263.27"/>
</g>
<!-- n69 -->
<g id="node32" class="node">
<title>n69</title>
<polygon fill="none" stroke="black" points="1973.88,-252 1772.62,-252 1772.62,-216 1973.88,-216 1973.88,-252"/>
<text text-anchor="middle" x="1873.25" y="-228.95" font-family="Times New Roman,serif" font-size="14.00">Sequence{ node(67) .. node(68) }</text>
<text text-anchor="middle" x="1754.25" y="-255.2" font-family="Times New Roman,serif" font-size="14.00">(69)int</text>
</g>
<!-- n85&#45;&gt;n69 -->
<g id="edge31" class="edge">
<title>n85&#45;&gt;n69</title>
<path fill="none" stroke="black" d="M1968.19,-287.51C1950.62,-277.79 1931.18,-267.04 1914.49,-257.81"/>
<polygon fill="black" stroke="black" points="1916.27,-254.79 1905.82,-253.02 1912.88,-260.92 1916.27,-254.79"/>
</g>
<!-- n70 -->
<g id="node33" class="node">
<title>n70</title>
<polygon fill="none" stroke="black" points="2046.25,-252 1992.25,-252 1992.25,-216 2046.25,-216 2046.25,-252"/>
<text text-anchor="middle" x="2019.25" y="-228.95" font-family="Times New Roman,serif" font-size="14.00">it : int</text>
<text text-anchor="middle" x="1973.88" y="-255.2" font-family="Times New Roman,serif" font-size="14.00">(70)int</text>
</g>
<!-- n85&#45;&gt;n70 -->
<g id="edge32" class="edge">
<title>n85&#45;&gt;n70</title>
<path fill="none" stroke="black" d="M2019.25,-287.51C2019.25,-279.75 2019.25,-271.33 2019.25,-263.55"/>
<polygon fill="black" stroke="black" points="2022.75,-263.56 2019.25,-253.56 2015.75,-263.56 2022.75,-263.56"/>
</g>
<!-- n73 -->
<g id="node34" class="node">
<title>n73</title>
<polygon fill="none" stroke="black" points="2118.25,-252 2064.25,-252 2064.25,-216 2118.25,-216 2118.25,-252"/>
<text text-anchor="middle" x="2091.25" y="-228.95" font-family="Times New Roman,serif" font-size="14.00">=</text>
<text text-anchor="middle" x="2030.5" y="-255.2" font-family="Times New Roman,serif" font-size="14.00">(73)Boolean</text>
</g>
<!-- n85&#45;&gt;n73 -->
<g id="edge33" class="edge">
<title>n85&#45;&gt;n73</title>
<path fill="none" stroke="black" d="M2044.43,-287.51C2052.26,-278.73 2060.83,-269.11 2068.49,-260.53"/>
<polygon fill="black" stroke="black" points="2071,-262.97 2075.04,-253.17 2065.78,-258.31 2071,-262.97"/>
</g>
<!-- n84 -->
<g id="node35" class="node">
<title>n84</title>
<polygon fill="none" stroke="black" points="2207.25,-252 2153.25,-252 2153.25,-216 2207.25,-216 2207.25,-252"/>
<text text-anchor="middle" x="2180.25" y="-228.95" font-family="Times New Roman,serif" font-size="14.00">=</text>
<text text-anchor="middle" x="2119.5" y="-255.2" font-family="Times New Roman,serif" font-size="14.00">(84)Boolean</text>
</g>
<!-- n85&#45;&gt;n84 -->
<g id="edge34" class="edge">
<title>n85&#45;&gt;n84</title>
<path fill="none" stroke="black" d="M2075.56,-287.51C2097.85,-276.33 2122.87,-263.78 2142.86,-253.75"/>
<polygon fill="black" stroke="black" points="2144.38,-256.91 2151.75,-249.29 2141.24,-250.65 2144.38,-256.91"/>
</g>
<!-- n26 -->
<g id="node36" class="node">
<title>n26</title>
<polygon fill="none" stroke="black" points="139.25,-180 85.25,-180 85.25,-144 139.25,-144 139.25,-180"/>
<text text-anchor="middle" x="112.25" y="-156.95" font-family="Times New Roman,serif" font-size="14.00">self</text>
<text text-anchor="middle" x="48.88" y="-183.2" font-family="Times New Roman,serif" font-size="14.00">(26)VarArray</text>
</g>
<!-- n27&#45;&gt;n26 -->
<g id="edge35" class="edge">
<title>n27&#45;&gt;n26</title>
<path fill="none" stroke="black" d="M112.25,-215.7C112.25,-208.41 112.25,-199.73 112.25,-191.54"/>
<polygon fill="black" stroke="black" points="115.75,-191.62 112.25,-181.62 108.75,-191.62 115.75,-191.62"/>
</g>
<!-- n29 -->
<g id="node37" class="node">
<title>n29</title>
<polygon fill="none" stroke="black" points="307.25,-180 253.25,-180 253.25,-144 307.25,-144 307.25,-180"/>
<text text-anchor="middle" x="280.25" y="-156.95" font-family="Times New Roman,serif" font-size="14.00">arg</text>
<text text-anchor="middle" x="216.88" y="-183.2" font-family="Times New Roman,serif" font-size="14.00">(29)VarArray</text>
</g>
<!-- n30&#45;&gt;n29 -->
<g id="edge36" class="edge">
<title>n30&#45;&gt;n29</title>
<path fill="none" stroke="black" d="M280.25,-215.7C280.25,-208.41 280.25,-199.73 280.25,-191.54"/>
<polygon fill="black" stroke="black" points="283.75,-191.62 280.25,-181.62 276.75,-191.62 283.75,-191.62"/>
</g>
<!-- n33 -->
<g id="node38" class="node">
<title>n33</title>
<polygon fill="none" stroke="black" points="443.25,-180 389.25,-180 389.25,-144 443.25,-144 443.25,-180"/>
<text text-anchor="middle" x="416.25" y="-156.95" font-family="Times New Roman,serif" font-size="14.00">self</text>
<text text-anchor="middle" x="352.88" y="-183.2" font-family="Times New Roman,serif" font-size="14.00">(33)VarArray</text>
</g>
<!-- n34&#45;&gt;n33 -->
<g id="edge37" class="edge">
<title>n34&#45;&gt;n33</title>
<path fill="none" stroke="black" d="M416.25,-215.7C416.25,-208.41 416.25,-199.73 416.25,-191.54"/>
<polygon fill="black" stroke="black" points="419.75,-191.62 416.25,-181.62 412.75,-191.62 419.75,-191.62"/>
</g>
<!-- n37 -->
<g id="node39" class="node">
<title>n37</title>
<polygon fill="none" stroke="black" points="621.25,-180 567.25,-180 567.25,-144 621.25,-144 621.25,-180"/>
<text text-anchor="middle" x="594.25" y="-156.95" font-family="Times New Roman,serif" font-size="14.00">arg</text>
<text text-anchor="middle" x="530.88" y="-183.2" font-family="Times New Roman,serif" font-size="14.00">(37)VarArray</text>
</g>
<!-- n38&#45;&gt;n37 -->
<g id="edge38" class="edge">
<title>n38&#45;&gt;n37</title>
<path fill="none" stroke="black" d="M594.25,-215.7C594.25,-208.41 594.25,-199.73 594.25,-191.54"/>
<polygon fill="black" stroke="black" points="597.75,-191.62 594.25,-181.62 590.75,-191.62 597.75,-191.62"/>
</g>
<!-- n45 -->
<g id="node40" class="node">
<title>n45</title>
<polygon fill="none" stroke="black" points="821.12,-180 759.38,-180 759.38,-144 821.12,-144 821.12,-180"/>
<text text-anchor="middle" x="790.25" y="-156.95" font-family="Times New Roman,serif" font-size="14.00">self.data</text>
<text text-anchor="middle" x="725.62" y="-183.2" font-family="Times New Roman,serif" font-size="14.00">(45)int[dim]</text>
</g>
<!-- n46&#45;&gt;n45 -->
<g id="edge39" class="edge">
<title>n46&#45;&gt;n45</title>
<path fill="none" stroke="black" d="M790.25,-215.7C790.25,-208.41 790.25,-199.73 790.25,-191.54"/>
<polygon fill="black" stroke="black" points="793.75,-191.62 790.25,-181.62 786.75,-191.62 793.75,-191.62"/>
</g>
<!-- n48 -->
<g id="node41" class="node">
<title>n48</title>
<polygon fill="none" stroke="black" points="1000.38,-180 928.12,-180 928.12,-144 1000.38,-144 1000.38,-180"/>
<text text-anchor="middle" x="964.25" y="-156.95" font-family="Times New Roman,serif" font-size="14.00">result.data</text>
<text text-anchor="middle" x="894.38" y="-183.2" font-family="Times New Roman,serif" font-size="14.00">(48)int[dim]</text>
</g>
<!-- n49&#45;&gt;n48 -->
<g id="edge40" class="edge">
<title>n49&#45;&gt;n48</title>
<path fill="none" stroke="black" d="M964.25,-215.7C964.25,-208.41 964.25,-199.73 964.25,-191.54"/>
<polygon fill="black" stroke="black" points="967.75,-191.62 964.25,-181.62 960.75,-191.62 967.75,-191.62"/>
</g>
<!-- n52 -->
<g id="node42" class="node">
<title>n52</title>
<polygon fill="none" stroke="black" points="1149.12,-180 1087.38,-180 1087.38,-144 1149.12,-144 1149.12,-180"/>
<text text-anchor="middle" x="1118.25" y="-156.95" font-family="Times New Roman,serif" font-size="14.00">self.data</text>
<text text-anchor="middle" x="1053.62" y="-183.2" font-family="Times New Roman,serif" font-size="14.00">(52)int[dim]</text>
</g>
<!-- n54&#45;&gt;n52 -->
<g id="edge41" class="edge">
<title>n54&#45;&gt;n52</title>
<path fill="none" stroke="black" d="M1146.86,-215.7C1142.67,-207.98 1137.64,-198.71 1132.97,-190.11"/>
<polygon fill="black" stroke="black" points="1136.1,-188.55 1128.26,-181.43 1129.95,-191.89 1136.1,-188.55"/>
</g>
<!-- n53 -->
<g id="node43" class="node">
<title>n53</title>
<polygon fill="none" stroke="black" points="1221.25,-180 1167.25,-180 1167.25,-144 1221.25,-144 1221.25,-180"/>
<text text-anchor="middle" x="1194.25" y="-156.95" font-family="Times New Roman,serif" font-size="14.00">1</text>
<text text-anchor="middle" x="1148.88" y="-183.2" font-family="Times New Roman,serif" font-size="14.00">(53)int</text>
</g>
<!-- n54&#45;&gt;n53 -->
<g id="edge42" class="edge">
<title>n54&#45;&gt;n53</title>
<path fill="none" stroke="black" d="M1165.64,-215.7C1169.83,-207.98 1174.86,-198.71 1179.53,-190.11"/>
<polygon fill="black" stroke="black" points="1182.55,-191.89 1184.24,-181.43 1176.4,-188.55 1182.55,-191.89"/>
</g>
<!-- n56 -->
<g id="node44" class="node">
<title>n56</title>
<polygon fill="none" stroke="black" points="1376.38,-180 1304.12,-180 1304.12,-144 1376.38,-144 1376.38,-180"/>
<text text-anchor="middle" x="1340.25" y="-156.95" font-family="Times New Roman,serif" font-size="14.00">result.data</text>
<text text-anchor="middle" x="1270.38" y="-183.2" font-family="Times New Roman,serif" font-size="14.00">(56)int[dim]</text>
</g>
<!-- n58&#45;&gt;n56 -->
<g id="edge43" class="edge">
<title>n58&#45;&gt;n56</title>
<path fill="none" stroke="black" d="M1359.82,-215.7C1357.02,-208.15 1353.67,-199.12 1350.53,-190.68"/>
<polygon fill="black" stroke="black" points="1353.89,-189.68 1347.13,-181.52 1347.33,-192.12 1353.89,-189.68"/>
</g>
<!-- n57 -->
<g id="node45" class="node">
<title>n57</title>
<polygon fill="none" stroke="black" points="1448.25,-180 1394.25,-180 1394.25,-144 1448.25,-144 1448.25,-180"/>
<text text-anchor="middle" x="1421.25" y="-156.95" font-family="Times New Roman,serif" font-size="14.00">1</text>
<text text-anchor="middle" x="1375.88" y="-183.2" font-family="Times New Roman,serif" font-size="14.00">(57)int</text>
</g>
<!-- n58&#45;&gt;n57 -->
<g id="edge44" class="edge">
<title>n58&#45;&gt;n57</title>
<path fill="none" stroke="black" d="M1379.85,-215.7C1386.17,-207.64 1393.83,-197.89 1400.84,-188.98"/>
<polygon fill="black" stroke="black" points="1403.45,-191.32 1406.88,-181.29 1397.95,-187 1403.45,-191.32"/>
</g>
<!-- n62 -->
<g id="node46" class="node">
<title>n62</title>
<polygon fill="none" stroke="black" points="1654,-180 1594.5,-180 1594.5,-144 1654,-144 1654,-180"/>
<text text-anchor="middle" x="1624.25" y="-156.95" font-family="Times New Roman,serif" font-size="14.00">arg.data</text>
<text text-anchor="middle" x="1560.75" y="-183.2" font-family="Times New Roman,serif" font-size="14.00">(62)int[dim]</text>
</g>
<!-- n64&#45;&gt;n62 -->
<g id="edge45" class="edge">
<title>n64&#45;&gt;n62</title>
<path fill="none" stroke="black" d="M1652.86,-215.7C1648.67,-207.98 1643.64,-198.71 1638.97,-190.11"/>
<polygon fill="black" stroke="black" points="1642.1,-188.55 1634.26,-181.43 1635.95,-191.89 1642.1,-188.55"/>
</g>
<!-- n63 -->
<g id="node47" class="node">
<title>n63</title>
<polygon fill="none" stroke="black" points="1726.25,-180 1672.25,-180 1672.25,-144 1726.25,-144 1726.25,-180"/>
<text text-anchor="middle" x="1699.25" y="-156.95" font-family="Times New Roman,serif" font-size="14.00">1</text>
<text text-anchor="middle" x="1653.88" y="-183.2" font-family="Times New Roman,serif" font-size="14.00">(63)int</text>
</g>
<!-- n64&#45;&gt;n63 -->
<g id="edge46" class="edge">
<title>n64&#45;&gt;n63</title>
<path fill="none" stroke="black" d="M1671.4,-215.7C1675.47,-207.98 1680.37,-198.71 1684.92,-190.11"/>
<polygon fill="black" stroke="black" points="1687.92,-191.92 1689.5,-181.44 1681.73,-188.65 1687.92,-191.92"/>
</g>
<!-- n67 -->
<g id="node48" class="node">
<title>n67</title>
<polygon fill="none" stroke="black" points="1847.25,-180 1793.25,-180 1793.25,-144 1847.25,-144 1847.25,-180"/>
<text text-anchor="middle" x="1820.25" y="-156.95" font-family="Times New Roman,serif" font-size="14.00">1</text>
<text text-anchor="middle" x="1774.88" y="-183.2" font-family="Times New Roman,serif" font-size="14.00">(67)int</text>
</g>
<!-- n69&#45;&gt;n67 -->
<g id="edge47" class="edge">
<title>n69&#45;&gt;n67</title>
<path fill="none" stroke="black" d="M1860.15,-215.7C1854.12,-207.73 1846.83,-198.1 1840.14,-189.26"/>
<polygon fill="black" stroke="black" points="1842.94,-187.17 1834.11,-181.31 1837.36,-191.4 1842.94,-187.17"/>
</g>
<!-- n68 -->
<g id="node49" class="node">
<title>n68</title>
<polygon fill="none" stroke="black" points="1919.25,-180 1865.25,-180 1865.25,-144 1919.25,-144 1919.25,-180"/>
<text text-anchor="middle" x="1892.25" y="-156.95" font-family="Times New Roman,serif" font-size="14.00">dim1</text>
<text text-anchor="middle" x="1846.88" y="-183.2" font-family="Times New Roman,serif" font-size="14.00">(68)int</text>
</g>
<!-- n69&#45;&gt;n68 -->
<g id="edge48" class="edge">
<title>n69&#45;&gt;n68</title>
<path fill="none" stroke="black" d="M1877.95,-215.7C1879.97,-208.24 1882.39,-199.32 1884.66,-190.97"/>
<polygon fill="black" stroke="black" points="1887.97,-192.13 1887.21,-181.57 1881.21,-190.3 1887.97,-192.13"/>
</g>
<!-- n72 -->
<g id="node50" class="node">
<title>n72</title>
<polygon fill="none" stroke="black" points="2046.38,-180 1956.12,-180 1956.12,-144 2046.38,-144 2046.38,-180"/>
<text text-anchor="middle" x="2001.25" y="-156.95" font-family="Times New Roman,serif" font-size="14.00">acc : Boolean</text>
<text text-anchor="middle" x="1922.38" y="-183.2" font-family="Times New Roman,serif" font-size="14.00">(72)Boolean</text>
</g>
<!-- n73&#45;&gt;n72 -->
<g id="edge49" class="edge">
<title>n73&#45;&gt;n72</title>
<path fill="none" stroke="black" d="M2069,-215.7C2057.97,-207.11 2044.46,-196.61 2032.41,-187.24"/>
<polygon fill="black" stroke="black" points="2034.79,-184.65 2024.75,-181.28 2030.49,-190.18 2034.79,-184.65"/>
</g>
<!-- n71 -->
<g id="node51" class="node">
<title>n71</title>
<polygon fill="none" stroke="black" points="2118.25,-180 2064.25,-180 2064.25,-144 2118.25,-144 2118.25,-180"/>
<text text-anchor="middle" x="2091.25" y="-156.95" font-family="Times New Roman,serif" font-size="14.00">true</text>
<text text-anchor="middle" x="2030.5" y="-183.2" font-family="Times New Roman,serif" font-size="14.00">(71)Boolean</text>
</g>
<!-- n73&#45;&gt;n71 -->
<g id="edge50" class="edge">
<title>n73&#45;&gt;n71</title>
<path fill="none" stroke="black" d="M2091.25,-215.7C2091.25,-208.41 2091.25,-199.73 2091.25,-191.54"/>
<polygon fill="black" stroke="black" points="2094.75,-191.62 2091.25,-181.62 2087.75,-191.62 2094.75,-191.62"/>
</g>
<!-- n76 -->
<g id="node52" class="node">
<title>n76</title>
<polygon fill="none" stroke="black" points="2224.62,-180 2135.88,-180 2135.88,-144 2224.62,-144 2224.62,-180"/>
<text text-anchor="middle" x="2180.25" y="-156.95" font-family="Times New Roman,serif" font-size="14.00">result.data[it]</text>
<text text-anchor="middle" x="2117.5" y="-183.2" font-family="Times New Roman,serif" font-size="14.00">(76)int</text>
</g>
<!-- n84&#45;&gt;n76 -->
<g id="edge51" class="edge">
<title>n84&#45;&gt;n76</title>
<path fill="none" stroke="black" d="M2180.25,-215.7C2180.25,-208.41 2180.25,-199.73 2180.25,-191.54"/>
<polygon fill="black" stroke="black" points="2183.75,-191.62 2180.25,-181.62 2176.75,-191.62 2183.75,-191.62"/>
</g>
<!-- n83 -->
<g id="node53" class="node">
<title>n83</title>
<polygon fill="none" stroke="black" points="2296.25,-180 2242.25,-180 2242.25,-144 2296.25,-144 2296.25,-180"/>
<text text-anchor="middle" x="2269.25" y="-156.95" font-family="Times New Roman,serif" font-size="14.00">+</text>
<text text-anchor="middle" x="2223.88" y="-183.2" font-family="Times New Roman,serif" font-size="14.00">(83)int</text>
</g>
<!-- n84&#45;&gt;n83 -->
<g id="edge52" class="edge">
<title>n84&#45;&gt;n83</title>
<path fill="none" stroke="black" d="M2202.25,-215.7C2213.16,-207.11 2226.52,-196.61 2238.43,-187.24"/>
<polygon fill="black" stroke="black" points="2240.31,-190.22 2246,-181.28 2235.98,-184.71 2240.31,-190.22"/>
</g>
<!-- n44 -->
<g id="node54" class="node">
<title>n44</title>
<polygon fill="none" stroke="black" points="817.25,-108 763.25,-108 763.25,-72 817.25,-72 817.25,-108"/>
<text text-anchor="middle" x="790.25" y="-84.95" font-family="Times New Roman,serif" font-size="14.00">self</text>
<text text-anchor="middle" x="726.88" y="-111.2" font-family="Times New Roman,serif" font-size="14.00">(44)VarArray</text>
</g>
<!-- n45&#45;&gt;n44 -->
<g id="edge53" class="edge">
<title>n45&#45;&gt;n44</title>
<path fill="none" stroke="black" d="M790.25,-143.7C790.25,-136.41 790.25,-127.73 790.25,-119.54"/>
<polygon fill="black" stroke="black" points="793.75,-119.62 790.25,-109.62 786.75,-119.62 793.75,-119.62"/>
</g>
<!-- n47 -->
<g id="node55" class="node">
<title>n47</title>
<polygon fill="none" stroke="black" points="991.25,-108 937.25,-108 937.25,-72 991.25,-72 991.25,-108"/>
<text text-anchor="middle" x="964.25" y="-84.95" font-family="Times New Roman,serif" font-size="14.00">result</text>
<text text-anchor="middle" x="900.88" y="-111.2" font-family="Times New Roman,serif" font-size="14.00">(47)VarArray</text>
</g>
<!-- n48&#45;&gt;n47 -->
<g id="edge54" class="edge">
<title>n48&#45;&gt;n47</title>
<path fill="none" stroke="black" d="M964.25,-143.7C964.25,-136.41 964.25,-127.73 964.25,-119.54"/>
<polygon fill="black" stroke="black" points="967.75,-119.62 964.25,-109.62 960.75,-119.62 967.75,-119.62"/>
</g>
<!-- n51 -->
<g id="node56" class="node">
<title>n51</title>
<polygon fill="none" stroke="black" points="1145.25,-108 1091.25,-108 1091.25,-72 1145.25,-72 1145.25,-108"/>
<text text-anchor="middle" x="1118.25" y="-84.95" font-family="Times New Roman,serif" font-size="14.00">self</text>
<text text-anchor="middle" x="1054.88" y="-111.2" font-family="Times New Roman,serif" font-size="14.00">(51)VarArray</text>
</g>
<!-- n52&#45;&gt;n51 -->
<g id="edge55" class="edge">
<title>n52&#45;&gt;n51</title>
<path fill="none" stroke="black" d="M1118.25,-143.7C1118.25,-136.41 1118.25,-127.73 1118.25,-119.54"/>
<polygon fill="black" stroke="black" points="1121.75,-119.62 1118.25,-109.62 1114.75,-119.62 1121.75,-119.62"/>
</g>
<!-- n55 -->
<g id="node57" class="node">
<title>n55</title>
<polygon fill="none" stroke="black" points="1367.25,-108 1313.25,-108 1313.25,-72 1367.25,-72 1367.25,-108"/>
<text text-anchor="middle" x="1340.25" y="-84.95" font-family="Times New Roman,serif" font-size="14.00">result</text>
<text text-anchor="middle" x="1276.88" y="-111.2" font-family="Times New Roman,serif" font-size="14.00">(55)VarArray</text>
</g>
<!-- n56&#45;&gt;n55 -->
<g id="edge56" class="edge">
<title>n56&#45;&gt;n55</title>
<path fill="none" stroke="black" d="M1340.25,-143.7C1340.25,-136.41 1340.25,-127.73 1340.25,-119.54"/>
<polygon fill="black" stroke="black" points="1343.75,-119.62 1340.25,-109.62 1336.75,-119.62 1343.75,-119.62"/>
</g>
<!-- n61 -->
<g id="node58" class="node">
<title>n61</title>
<polygon fill="none" stroke="black" points="1651.25,-108 1597.25,-108 1597.25,-72 1651.25,-72 1651.25,-108"/>
<text text-anchor="middle" x="1624.25" y="-84.95" font-family="Times New Roman,serif" font-size="14.00">arg</text>
<text text-anchor="middle" x="1560.88" y="-111.2" font-family="Times New Roman,serif" font-size="14.00">(61)VarArray</text>
</g>
<!-- n62&#45;&gt;n61 -->
<g id="edge57" class="edge">
<title>n62&#45;&gt;n61</title>
<path fill="none" stroke="black" d="M1624.25,-143.7C1624.25,-136.41 1624.25,-127.73 1624.25,-119.54"/>
<polygon fill="black" stroke="black" points="1627.75,-119.62 1624.25,-109.62 1620.75,-119.62 1627.75,-119.62"/>
</g>
<!-- n74 -->
<g id="node59" class="node">
<title>n74</title>
<polygon fill="none" stroke="black" points="2136.25,-108 2082.25,-108 2082.25,-72 2136.25,-72 2136.25,-108"/>
<text text-anchor="middle" x="2109.25" y="-84.95" font-family="Times New Roman,serif" font-size="14.00">result</text>
<text text-anchor="middle" x="2045.88" y="-111.2" font-family="Times New Roman,serif" font-size="14.00">(74)VarArray</text>
</g>
<!-- n76&#45;&gt;n74 -->
<g id="edge58" class="edge">
<title>n76&#45;&gt;n74</title>
<path fill="none" stroke="black" d="M2162.7,-143.7C2154.27,-135.39 2144.02,-125.28 2134.75,-116.14"/>
<polygon fill="black" stroke="black" points="2137.25,-113.7 2127.68,-109.17 2132.34,-118.68 2137.25,-113.7"/>
</g>
<!-- n75 -->
<g id="node60" class="node">
<title>n75</title>
<polygon fill="none" stroke="black" points="2208.25,-108 2154.25,-108 2154.25,-72 2208.25,-72 2208.25,-108"/>
<text text-anchor="middle" x="2181.25" y="-84.95" font-family="Times New Roman,serif" font-size="14.00">it</text>
<text text-anchor="middle" x="2135.88" y="-111.2" font-family="Times New Roman,serif" font-size="14.00">(75)int</text>
</g>
<!-- n76&#45;&gt;n75 -->
<g id="edge59" class="edge">
<title>n76&#45;&gt;n75</title>
<path fill="none" stroke="black" d="M2180.5,-143.7C2180.6,-136.41 2180.73,-127.73 2180.84,-119.54"/>
<polygon fill="black" stroke="black" points="2184.34,-119.67 2180.98,-109.62 2177.34,-119.57 2184.34,-119.67"/>
</g>
<!-- n79 -->
<g id="node61" class="node">
<title>n79</title>
<polygon fill="none" stroke="black" points="2306.38,-108 2228.12,-108 2228.12,-72 2306.38,-72 2306.38,-108"/>
<text text-anchor="middle" x="2267.25" y="-84.95" font-family="Times New Roman,serif" font-size="14.00">self.data[it]</text>
<text text-anchor="middle" x="2209.75" y="-111.2" font-family="Times New Roman,serif" font-size="14.00">(79)int</text>
</g>
<!-- n83&#45;&gt;n79 -->
<g id="edge60" class="edge">
<title>n83&#45;&gt;n79</title>
<path fill="none" stroke="black" d="M2268.76,-143.7C2268.55,-136.41 2268.3,-127.73 2268.07,-119.54"/>
<polygon fill="black" stroke="black" points="2271.57,-119.51 2267.78,-109.62 2264.57,-119.71 2271.57,-119.51"/>
</g>
<!-- n82 -->
<g id="node62" class="node">
<title>n82</title>
<polygon fill="none" stroke="black" points="2400.25,-108 2324.25,-108 2324.25,-72 2400.25,-72 2400.25,-108"/>
<text text-anchor="middle" x="2362.25" y="-84.95" font-family="Times New Roman,serif" font-size="14.00">arg.data[it]</text>
<text text-anchor="middle" x="2305.88" y="-111.2" font-family="Times New Roman,serif" font-size="14.00">(82)int</text>
</g>
<!-- n83&#45;&gt;n82 -->
<g id="edge61" class="edge">
<title>n83&#45;&gt;n82</title>
<path fill="none" stroke="black" d="M2292.24,-143.7C2303.64,-135.11 2317.6,-124.61 2330.05,-115.24"/>
<polygon fill="black" stroke="black" points="2332.11,-118.07 2337.99,-109.26 2327.9,-112.47 2332.11,-118.07"/>
</g>
<!-- n77 -->
<g id="node63" class="node">
<title>n77</title>
<polygon fill="none" stroke="black" points="2228.25,-36 2174.25,-36 2174.25,0 2228.25,0 2228.25,-36"/>
<text text-anchor="middle" x="2201.25" y="-12.95" font-family="Times New Roman,serif" font-size="14.00">self</text>
<text text-anchor="middle" x="2137.88" y="-39.2" font-family="Times New Roman,serif" font-size="14.00">(77)VarArray</text>
</g>
<!-- n79&#45;&gt;n77 -->
<g id="edge62" class="edge">
<title>n79&#45;&gt;n77</title>
<path fill="none" stroke="black" d="M2250.94,-71.7C2243.18,-63.47 2233.76,-53.48 2225.22,-44.42"/>
<polygon fill="black" stroke="black" points="2227.82,-42.08 2218.42,-37.21 2222.73,-46.88 2227.82,-42.08"/>
</g>
<!-- n78 -->
<g id="node64" class="node">
<title>n78</title>
<polygon fill="none" stroke="black" points="2300.25,-36 2246.25,-36 2246.25,0 2300.25,0 2300.25,-36"/>
<text text-anchor="middle" x="2273.25" y="-12.95" font-family="Times New Roman,serif" font-size="14.00">it</text>
<text text-anchor="middle" x="2227.88" y="-39.2" font-family="Times New Roman,serif" font-size="14.00">(78)int</text>
</g>
<!-- n79&#45;&gt;n78 -->
<g id="edge63" class="edge">
<title>n79&#45;&gt;n78</title>
<path fill="none" stroke="black" d="M2268.73,-71.7C2269.36,-64.41 2270.1,-55.73 2270.8,-47.54"/>
<polygon fill="black" stroke="black" points="2274.29,-47.87 2271.65,-37.61 2267.31,-47.28 2274.29,-47.87"/>
</g>
<!-- n80 -->
<g id="node65" class="node">
<title>n80</title>
<polygon fill="none" stroke="black" points="2383.25,-36 2329.25,-36 2329.25,0 2383.25,0 2383.25,-36"/>
<text text-anchor="middle" x="2356.25" y="-12.95" font-family="Times New Roman,serif" font-size="14.00">arg</text>
<text text-anchor="middle" x="2292.88" y="-39.2" font-family="Times New Roman,serif" font-size="14.00">(80)VarArray</text>
</g>
<!-- n82&#45;&gt;n80 -->
<g id="edge64" class="edge">
<title>n82&#45;&gt;n80</title>
<path fill="none" stroke="black" d="M2360.77,-71.7C2360.14,-64.41 2359.4,-55.73 2358.7,-47.54"/>
<polygon fill="black" stroke="black" points="2362.19,-47.28 2357.85,-37.61 2355.21,-47.87 2362.19,-47.28"/>
</g>
<!-- n81 -->
<g id="node66" class="node">
<title>n81</title>
<polygon fill="none" stroke="black" points="2455.25,-36 2401.25,-36 2401.25,0 2455.25,0 2455.25,-36"/>
<text text-anchor="middle" x="2428.25" y="-12.95" font-family="Times New Roman,serif" font-size="14.00">it</text>
<text text-anchor="middle" x="2382.88" y="-39.2" font-family="Times New Roman,serif" font-size="14.00">(81)int</text>
</g>
<!-- n82&#45;&gt;n81 -->
<g id="edge65" class="edge">
<title>n82&#45;&gt;n81</title>
<path fill="none" stroke="black" d="M2378.56,-71.7C2386.32,-63.47 2395.74,-53.48 2404.28,-44.42"/>
<polygon fill="black" stroke="black" points="2406.77,-46.88 2411.08,-37.21 2401.68,-42.08 2406.77,-46.88"/>
</g>
</g>
</svg>
