<?xml version="1.0" encoding="UTF-8" standalone="no"?>
<!DOCTYPE svg PUBLIC "-//W3C//DTD SVG 1.1//EN"
 "http://www.w3.org/Graphics/SVG/1.1/DTD/svg11.dtd">
<!-- Generated by graphviz version 12.2.1 (20241206.2353)
 -->
<!-- Title: AST Pages: 1 -->
<svg width="333pt" height="349pt"
 viewBox="0.00 0.00 332.62 348.50" xmlns="http://www.w3.org/2000/svg" xmlns:xlink="http://www.w3.org/1999/xlink">
<g id="graph0" class="graph" transform="scale(1 1) rotate(0) translate(4 344.5)">
<title>AST</title>
<polygon fill="white" stroke="none" points="-4,4 -4,-344.5 328.62,-344.5 328.62,4 -4,4"/>
<!-- n126 -->
<g id="node1" class="node">
<title>n126</title>
<polygon fill="none" stroke="black" points="318,-324 57.5,-324 57.5,-288 318,-288 318,-324"/>
<text text-anchor="middle" x="187.75" y="-300.95" font-family="Times New Roman,serif" font-size="14.00">ContextDecl: node(120) Context: node (125)</text>
<text text-anchor="middle" x="42.88" y="-327.2" font-family="Times New Roman,serif" font-size="14.00">(126)</text>
</g>
<!-- n120 -->
<g id="node2" class="node">
<title>n120</title>
<polygon fill="none" stroke="black" points="210.25,-252 29.25,-252 29.25,-216 210.25,-216 210.25,-252"/>
<text text-anchor="middle" x="119.75" y="-228.95" font-family="Times New Roman,serif" font-size="14.00">VarArray::getData() : int[dim]</text>
<text text-anchor="middle" x="14.62" y="-255.2" font-family="Times New Roman,serif" font-size="14.00">(120)</text>
</g>
<!-- n126&#45;&gt;n120 -->
<g id="edge1" class="edge">
<title>n126&#45;&gt;n120</title>
<path fill="none" stroke="black" d="M170.94,-287.7C162.87,-279.39 153.05,-269.28 144.17,-260.14"/>
<polygon fill="black" stroke="black" points="146.9,-257.92 137.42,-253.19 141.88,-262.8 146.9,-257.92"/>
</g>
<!-- n125 -->
<g id="node3" class="node">
<title>n125</title>
<polygon fill="none" stroke="black" points="282.75,-252 228.75,-252 228.75,-216 282.75,-216 282.75,-252"/>
<text text-anchor="middle" x="255.75" y="-228.95" font-family="Times New Roman,serif" font-size="14.00"> post:</text>
<text text-anchor="middle" x="191.62" y="-255.2" font-family="Times New Roman,serif" font-size="14.00">(125)Boolean</text>
</g>
<!-- n126&#45;&gt;n125 -->
<g id="edge2" class="edge">
<title>n126&#45;&gt;n125</title>
<path fill="none" stroke="black" d="M204.56,-287.7C212.63,-279.39 222.45,-269.28 231.33,-260.14"/>
<polygon fill="black" stroke="black" points="233.62,-262.8 238.08,-253.19 228.6,-257.92 233.62,-262.8"/>
</g>
<!-- n124 -->
<g id="node4" class="node">
<title>n124</title>
<polygon fill="none" stroke="black" points="282.75,-180 228.75,-180 228.75,-144 282.75,-144 282.75,-180"/>
<text text-anchor="middle" x="255.75" y="-156.95" font-family="Times New Roman,serif" font-size="14.00">=</text>
<text text-anchor="middle" x="191.62" y="-183.2" font-family="Times New Roman,serif" font-size="14.00">(124)Boolean</text>
</g>
<!-- n125&#45;&gt;n124 -->
<g id="edge3" class="edge">
<title>n125&#45;&gt;n124</title>
<path fill="none" stroke="black" d="M255.75,-215.7C255.75,-208.41 255.75,-199.73 255.75,-191.54"/>
<polygon fill="black" stroke="black" points="259.25,-191.62 255.75,-181.62 252.25,-191.62 259.25,-191.62"/>
</g>
<!-- n121 -->
<g id="node5" class="node">
<title>n121</title>
<polygon fill="none" stroke="black" points="244.75,-108 190.75,-108 190.75,-72 244.75,-72 244.75,-108"/>
<text text-anchor="middle" x="217.75" y="-84.95" font-family="Times New Roman,serif" font-size="14.00">result</text>
<text text-anchor="middle" x="153.62" y="-111.2" font-family="Times New Roman,serif" font-size="14.00">(121)int[dim]</text>
</g>
<!-- n124&#45;&gt;n121 -->
<g id="edge4" class="edge">
<title>n124&#45;&gt;n121</title>
<path fill="none" stroke="black" d="M246.36,-143.7C242.17,-135.98 237.14,-126.71 232.47,-118.11"/>
<polygon fill="black" stroke="black" points="235.6,-116.55 227.76,-109.43 229.45,-119.89 235.6,-116.55"/>
</g>
<!-- n123 -->
<g id="node6" class="node">
<title>n123</title>
<polygon fill="none" stroke="black" points="324.62,-108 262.88,-108 262.88,-72 324.62,-72 324.62,-108"/>
<text text-anchor="middle" x="293.75" y="-84.95" font-family="Times New Roman,serif" font-size="14.00">self.data</text>
<text text-anchor="middle" x="225.75" y="-58.7" font-family="Times New Roman,serif" font-size="14.00">(123)int[dim]</text>
</g>
<!-- n124&#45;&gt;n123 -->
<g id="edge5" class="edge">
<title>n124&#45;&gt;n123</title>
<path fill="none" stroke="black" d="M265.14,-143.7C269.33,-135.98 274.36,-126.71 279.03,-118.11"/>
<polygon fill="black" stroke="black" points="282.05,-119.89 283.74,-109.43 275.9,-116.55 282.05,-119.89"/>
</g>
<!-- n122 -->
<g id="node7" class="node">
<title>n122</title>
<polygon fill="none" stroke="black" points="320.75,-36 266.75,-36 266.75,0 320.75,0 320.75,-36"/>
<text text-anchor="middle" x="293.75" y="-12.95" font-family="Times New Roman,serif" font-size="14.00">self</text>
<text text-anchor="middle" x="227" y="-39.2" font-family="Times New Roman,serif" font-size="14.00">(122)VarArray</text>
</g>
<!-- n123&#45;&gt;n122 -->
<g id="edge6" class="edge">
<title>n123&#45;&gt;n122</title>
<path fill="none" stroke="black" d="M293.75,-71.7C293.75,-64.41 293.75,-55.73 293.75,-47.54"/>
<polygon fill="black" stroke="black" points="297.25,-47.62 293.75,-37.62 290.25,-47.62 297.25,-47.62"/>
</g>
</g>
</svg>
