<?xml version="1.0" encoding="UTF-8" standalone="no"?>
<!DOCTYPE svg PUBLIC "-//W3C//DTD SVG 1.1//EN"
 "http://www.w3.org/Graphics/SVG/1.1/DTD/svg11.dtd">
<!-- Generated by graphviz version 12.2.1 (20241206.2353)
 -->
<!-- Title: AST Pages: 1 -->
<svg width="580pt" height="493pt"
 viewBox="0.00 0.00 580.00 492.50" xmlns="http://www.w3.org/2000/svg" xmlns:xlink="http://www.w3.org/1999/xlink">
<g id="graph0" class="graph" transform="scale(1 1) rotate(0) translate(4 488.5)">
<title>AST</title>
<polygon fill="white" stroke="none" points="-4,4 -4,-488.5 576,-488.5 576,4 -4,4"/>
<!-- n15 -->
<g id="node1" class="node">
<title>n15</title>
<polygon fill="none" stroke="black" points="419.12,-468 178.88,-468 178.88,-432 419.12,-432 419.12,-468"/>
<text text-anchor="middle" x="299" y="-444.95" font-family="Times New Roman,serif" font-size="14.00">ContextDecl: node(0) Context: node (14)</text>
<text text-anchor="middle" x="167.62" y="-471.2" font-family="Times New Roman,serif" font-size="14.00">(15)</text>
</g>
<!-- n0 -->
<g id="node2" class="node">
<title>n0</title>
<polygon fill="none" stroke="black" points="293.12,-396 226.88,-396 226.88,-360 293.12,-360 293.12,-396"/>
<text text-anchor="middle" x="260" y="-372.95" font-family="Times New Roman,serif" font-size="14.00">VarArray</text>
<text text-anchor="middle" x="219" y="-399.2" font-family="Times New Roman,serif" font-size="14.00">(0)</text>
</g>
<!-- n15&#45;&gt;n0 -->
<g id="edge1" class="edge">
<title>n15&#45;&gt;n0</title>
<path fill="none" stroke="black" d="M289.36,-431.7C285.06,-423.98 279.9,-414.71 275.11,-406.11"/>
<polygon fill="black" stroke="black" points="278.19,-404.46 270.27,-397.43 272.08,-407.87 278.19,-404.46"/>
</g>
<!-- n14 -->
<g id="node3" class="node">
<title>n14</title>
<polygon fill="none" stroke="black" points="365,-396 311,-396 311,-360 365,-360 365,-396"/>
<text text-anchor="middle" x="338" y="-372.95" font-family="Times New Roman,serif" font-size="14.00"> inv:</text>
<text text-anchor="middle" x="277.25" y="-399.2" font-family="Times New Roman,serif" font-size="14.00">(14)Boolean</text>
</g>
<!-- n15&#45;&gt;n14 -->
<g id="edge2" class="edge">
<title>n15&#45;&gt;n14</title>
<path fill="none" stroke="black" d="M308.64,-431.7C312.94,-423.98 318.1,-414.71 322.89,-406.11"/>
<polygon fill="black" stroke="black" points="325.92,-407.87 327.73,-397.43 319.81,-404.46 325.92,-407.87"/>
</g>
<!-- n13 -->
<g id="node4" class="node">
<title>n13</title>
<polygon fill="none" stroke="black" points="365,-324 311,-324 311,-288 365,-288 365,-324"/>
<text text-anchor="middle" x="338" y="-300.95" font-family="Times New Roman,serif" font-size="14.00">and</text>
<text text-anchor="middle" x="277.25" y="-327.2" font-family="Times New Roman,serif" font-size="14.00">(13)Boolean</text>
</g>
<!-- n14&#45;&gt;n13 -->
<g id="edge3" class="edge">
<title>n14&#45;&gt;n13</title>
<path fill="none" stroke="black" d="M338,-359.7C338,-352.41 338,-343.73 338,-335.54"/>
<polygon fill="black" stroke="black" points="341.5,-335.62 338,-325.62 334.5,-335.62 341.5,-335.62"/>
</g>
<!-- n6 -->
<g id="node5" class="node">
<title>n6</title>
<polygon fill="none" stroke="black" points="296,-252 242,-252 242,-216 296,-216 296,-252"/>
<text text-anchor="middle" x="269" y="-228.95" font-family="Times New Roman,serif" font-size="14.00">&gt;</text>
<text text-anchor="middle" x="211.62" y="-255.2" font-family="Times New Roman,serif" font-size="14.00">(6)Boolean</text>
</g>
<!-- n13&#45;&gt;n6 -->
<g id="edge4" class="edge">
<title>n13&#45;&gt;n6</title>
<path fill="none" stroke="black" d="M320.94,-287.7C312.76,-279.39 302.79,-269.28 293.78,-260.14"/>
<polygon fill="black" stroke="black" points="296.44,-257.85 286.92,-253.18 291.45,-262.76 296.44,-257.85"/>
</g>
<!-- n12 -->
<g id="node6" class="node">
<title>n12</title>
<polygon fill="none" stroke="black" points="434,-252 380,-252 380,-216 434,-216 434,-252"/>
<text text-anchor="middle" x="407" y="-228.95" font-family="Times New Roman,serif" font-size="14.00">&lt;</text>
<text text-anchor="middle" x="346.25" y="-255.2" font-family="Times New Roman,serif" font-size="14.00">(12)Boolean</text>
</g>
<!-- n13&#45;&gt;n12 -->
<g id="edge5" class="edge">
<title>n13&#45;&gt;n12</title>
<path fill="none" stroke="black" d="M355.06,-287.7C363.24,-279.39 373.21,-269.28 382.22,-260.14"/>
<polygon fill="black" stroke="black" points="384.55,-262.76 389.08,-253.18 379.56,-257.85 384.55,-262.76"/>
</g>
<!-- n4 -->
<g id="node7" class="node">
<title>n4</title>
<polygon fill="none" stroke="black" points="224.12,-180 37.88,-180 37.88,-144 224.12,-144 224.12,-180"/>
<text text-anchor="middle" x="131" y="-156.95" font-family="Times New Roman,serif" font-size="14.00">self.data.getDimensionSizes(1)</text>
<text text-anchor="middle" x="22.88" y="-183.2" font-family="Times New Roman,serif" font-size="14.00">(4)int</text>
</g>
<!-- n6&#45;&gt;n4 -->
<g id="edge6" class="edge">
<title>n6&#45;&gt;n4</title>
<path fill="none" stroke="black" d="M241.74,-219.17C222.82,-209.57 197.19,-196.58 175.36,-185.5"/>
<polygon fill="black" stroke="black" points="177.16,-182.49 166.66,-181.09 174,-188.73 177.16,-182.49"/>
</g>
<!-- n5 -->
<g id="node8" class="node">
<title>n5</title>
<polygon fill="none" stroke="black" points="296,-180 242,-180 242,-144 296,-144 296,-180"/>
<text text-anchor="middle" x="269" y="-156.95" font-family="Times New Roman,serif" font-size="14.00">0</text>
<text text-anchor="middle" x="227" y="-183.2" font-family="Times New Roman,serif" font-size="14.00">(5)int</text>
</g>
<!-- n6&#45;&gt;n5 -->
<g id="edge7" class="edge">
<title>n6&#45;&gt;n5</title>
<path fill="none" stroke="black" d="M269,-215.7C269,-208.41 269,-199.73 269,-191.54"/>
<polygon fill="black" stroke="black" points="272.5,-191.62 269,-181.62 265.5,-191.62 272.5,-191.62"/>
</g>
<!-- n10 -->
<g id="node9" class="node">
<title>n10</title>
<polygon fill="none" stroke="black" points="500.12,-180 313.88,-180 313.88,-144 500.12,-144 500.12,-180"/>
<text text-anchor="middle" x="407" y="-156.95" font-family="Times New Roman,serif" font-size="14.00">self.data.getDimensionSizes(1)</text>
<text text-anchor="middle" x="295.5" y="-183.2" font-family="Times New Roman,serif" font-size="14.00">(10)int</text>
</g>
<!-- n12&#45;&gt;n10 -->
<g id="edge8" class="edge">
<title>n12&#45;&gt;n10</title>
<path fill="none" stroke="black" d="M407,-215.7C407,-208.41 407,-199.73 407,-191.54"/>
<polygon fill="black" stroke="black" points="410.5,-191.62 407,-181.62 403.5,-191.62 410.5,-191.62"/>
</g>
<!-- n11 -->
<g id="node10" class="node">
<title>n11</title>
<polygon fill="none" stroke="black" points="572,-180 518,-180 518,-144 572,-144 572,-180"/>
<text text-anchor="middle" x="545" y="-156.95" font-family="Times New Roman,serif" font-size="14.00">10</text>
<text text-anchor="middle" x="499.62" y="-183.2" font-family="Times New Roman,serif" font-size="14.00">(11)int</text>
</g>
<!-- n12&#45;&gt;n11 -->
<g id="edge9" class="edge">
<title>n12&#45;&gt;n11</title>
<path fill="none" stroke="black" d="M434.26,-219.17C455.24,-208.53 484.47,-193.7 507.63,-181.96"/>
<polygon fill="black" stroke="black" points="509.11,-185.13 516.44,-177.49 505.94,-178.89 509.11,-185.13"/>
</g>
<!-- n2 -->
<g id="node11" class="node">
<title>n2</title>
<polygon fill="none" stroke="black" points="123.88,-108 62.12,-108 62.12,-72 123.88,-72 123.88,-108"/>
<text text-anchor="middle" x="93" y="-84.95" font-family="Times New Roman,serif" font-size="14.00">self.data</text>
<text text-anchor="middle" x="31.75" y="-111.2" font-family="Times New Roman,serif" font-size="14.00">(2)int[dim]</text>
</g>
<!-- n4&#45;&gt;n2 -->
<g id="edge10" class="edge">
<title>n4&#45;&gt;n2</title>
<path fill="none" stroke="black" d="M121.61,-143.7C117.42,-135.98 112.39,-126.71 107.72,-118.11"/>
<polygon fill="black" stroke="black" points="110.85,-116.55 103.01,-109.43 104.7,-119.89 110.85,-116.55"/>
</g>
<!-- n3 -->
<g id="node12" class="node">
<title>n3</title>
<polygon fill="none" stroke="black" points="196,-108 142,-108 142,-72 196,-72 196,-108"/>
<text text-anchor="middle" x="169" y="-84.95" font-family="Times New Roman,serif" font-size="14.00">1</text>
<text text-anchor="middle" x="127" y="-111.2" font-family="Times New Roman,serif" font-size="14.00">(3)int</text>
</g>
<!-- n4&#45;&gt;n3 -->
<g id="edge11" class="edge">
<title>n4&#45;&gt;n3</title>
<path fill="none" stroke="black" d="M140.39,-143.7C144.58,-135.98 149.61,-126.71 154.28,-118.11"/>
<polygon fill="black" stroke="black" points="157.3,-119.89 158.99,-109.43 151.15,-116.55 157.3,-119.89"/>
</g>
<!-- n8 -->
<g id="node13" class="node">
<title>n8</title>
<polygon fill="none" stroke="black" points="399.88,-108 338.12,-108 338.12,-72 399.88,-72 399.88,-108"/>
<text text-anchor="middle" x="369" y="-84.95" font-family="Times New Roman,serif" font-size="14.00">self.data</text>
<text text-anchor="middle" x="307.75" y="-111.2" font-family="Times New Roman,serif" font-size="14.00">(8)int[dim]</text>
</g>
<!-- n10&#45;&gt;n8 -->
<g id="edge12" class="edge">
<title>n10&#45;&gt;n8</title>
<path fill="none" stroke="black" d="M397.61,-143.7C393.42,-135.98 388.39,-126.71 383.72,-118.11"/>
<polygon fill="black" stroke="black" points="386.85,-116.55 379.01,-109.43 380.7,-119.89 386.85,-116.55"/>
</g>
<!-- n9 -->
<g id="node14" class="node">
<title>n9</title>
<polygon fill="none" stroke="black" points="472,-108 418,-108 418,-72 472,-72 472,-108"/>
<text text-anchor="middle" x="445" y="-84.95" font-family="Times New Roman,serif" font-size="14.00">1</text>
<text text-anchor="middle" x="403" y="-111.2" font-family="Times New Roman,serif" font-size="14.00">(9)int</text>
</g>
<!-- n10&#45;&gt;n9 -->
<g id="edge13" class="edge">
<title>n10&#45;&gt;n9</title>
<path fill="none" stroke="black" d="M416.39,-143.7C420.58,-135.98 425.61,-126.71 430.28,-118.11"/>
<polygon fill="black" stroke="black" points="433.3,-119.89 434.99,-109.43 427.15,-116.55 433.3,-119.89"/>
</g>
<!-- n1 -->
<g id="node15" class="node">
<title>n1</title>
<polygon fill="none" stroke="black" points="120,-36 66,-36 66,0 120,0 120,-36"/>
<text text-anchor="middle" x="93" y="-12.95" font-family="Times New Roman,serif" font-size="14.00">self</text>
<text text-anchor="middle" x="33" y="-39.2" font-family="Times New Roman,serif" font-size="14.00">(1)VarArray</text>
</g>
<!-- n2&#45;&gt;n1 -->
<g id="edge14" class="edge">
<title>n2&#45;&gt;n1</title>
<path fill="none" stroke="black" d="M93,-71.7C93,-64.41 93,-55.73 93,-47.54"/>
<polygon fill="black" stroke="black" points="96.5,-47.62 93,-37.62 89.5,-47.62 96.5,-47.62"/>
</g>
<!-- n7 -->
<g id="node16" class="node">
<title>n7</title>
<polygon fill="none" stroke="black" points="396,-36 342,-36 342,0 396,0 396,-36"/>
<text text-anchor="middle" x="369" y="-12.95" font-family="Times New Roman,serif" font-size="14.00">self</text>
<text text-anchor="middle" x="309" y="-39.2" font-family="Times New Roman,serif" font-size="14.00">(7)VarArray</text>
</g>
<!-- n8&#45;&gt;n7 -->
<g id="edge15" class="edge">
<title>n8&#45;&gt;n7</title>
<path fill="none" stroke="black" d="M369,-71.7C369,-64.41 369,-55.73 369,-47.54"/>
<polygon fill="black" stroke="black" points="372.5,-47.62 369,-37.62 365.5,-47.62 372.5,-47.62"/>
</g>
</g>
</svg>
