<?xml version="1.0" encoding="UTF-8" standalone="no"?>
<!DOCTYPE svg PUBLIC "-//W3C//DTD SVG 1.1//EN"
 "http://www.w3.org/Graphics/SVG/1.1/DTD/svg11.dtd">
<!-- Generated by graphviz version 12.2.1 (20241206.2353)
 -->
<!-- Title: AST Pages: 1 -->
<svg width="305pt" height="349pt"
 viewBox="0.00 0.00 305.12 348.50" xmlns="http://www.w3.org/2000/svg" xmlns:xlink="http://www.w3.org/1999/xlink">
<g id="graph0" class="graph" transform="scale(1 1) rotate(0) translate(4 344.5)">
<title>AST</title>
<polygon fill="white" stroke="none" points="-4,4 -4,-344.5 301.12,-344.5 301.12,4 -4,4"/>
<!-- n92 -->
<g id="node1" class="node">
<title>n92</title>
<polygon fill="none" stroke="black" points="285.12,-324 38.12,-324 38.12,-288 285.12,-288 285.12,-324"/>
<text text-anchor="middle" x="161.62" y="-300.95" font-family="Times New Roman,serif" font-size="14.00">ContextDecl: node(86) Context: node (91)</text>
<text text-anchor="middle" x="26.88" y="-327.2" font-family="Times New Roman,serif" font-size="14.00">(92)</text>
</g>
<!-- n86 -->
<g id="node2" class="node">
<title>n86</title>
<polygon fill="none" stroke="black" points="178.75,-252 22.5,-252 22.5,-216 178.75,-216 178.75,-252"/>
<text text-anchor="middle" x="100.62" y="-228.95" font-family="Times New Roman,serif" font-size="14.00">Array::getData() : int[5][]</text>
<text text-anchor="middle" x="11.25" y="-255.2" font-family="Times New Roman,serif" font-size="14.00">(86)</text>
</g>
<!-- n92&#45;&gt;n86 -->
<g id="edge1" class="edge">
<title>n92&#45;&gt;n86</title>
<path fill="none" stroke="black" d="M146.55,-287.7C139.45,-279.56 130.85,-269.69 123.02,-260.7"/>
<polygon fill="black" stroke="black" points="125.73,-258.49 116.52,-253.25 120.46,-263.08 125.73,-258.49"/>
</g>
<!-- n91 -->
<g id="node3" class="node">
<title>n91</title>
<polygon fill="none" stroke="black" points="250.62,-252 196.62,-252 196.62,-216 250.62,-216 250.62,-252"/>
<text text-anchor="middle" x="223.62" y="-228.95" font-family="Times New Roman,serif" font-size="14.00"> post:</text>
<text text-anchor="middle" x="162.88" y="-255.2" font-family="Times New Roman,serif" font-size="14.00">(91)Boolean</text>
</g>
<!-- n92&#45;&gt;n91 -->
<g id="edge2" class="edge">
<title>n92&#45;&gt;n91</title>
<path fill="none" stroke="black" d="M176.95,-287.7C184.16,-279.56 192.9,-269.69 200.86,-260.7"/>
<polygon fill="black" stroke="black" points="203.46,-263.04 207.47,-253.24 198.22,-258.4 203.46,-263.04"/>
</g>
<!-- n90 -->
<g id="node4" class="node">
<title>n90</title>
<polygon fill="none" stroke="black" points="250.62,-180 196.62,-180 196.62,-144 250.62,-144 250.62,-180"/>
<text text-anchor="middle" x="223.62" y="-156.95" font-family="Times New Roman,serif" font-size="14.00">=</text>
<text text-anchor="middle" x="162.88" y="-183.2" font-family="Times New Roman,serif" font-size="14.00">(90)Boolean</text>
</g>
<!-- n91&#45;&gt;n90 -->
<g id="edge3" class="edge">
<title>n91&#45;&gt;n90</title>
<path fill="none" stroke="black" d="M223.62,-215.7C223.62,-208.41 223.62,-199.73 223.62,-191.54"/>
<polygon fill="black" stroke="black" points="227.13,-191.62 223.63,-181.62 220.13,-191.62 227.13,-191.62"/>
</g>
<!-- n87 -->
<g id="node5" class="node">
<title>n87</title>
<polygon fill="none" stroke="black" points="211.62,-108 157.62,-108 157.62,-72 211.62,-72 211.62,-108"/>
<text text-anchor="middle" x="184.62" y="-84.95" font-family="Times New Roman,serif" font-size="14.00">result</text>
<text text-anchor="middle" x="126.88" y="-111.2" font-family="Times New Roman,serif" font-size="14.00">(87)int[5][]</text>
</g>
<!-- n90&#45;&gt;n87 -->
<g id="edge4" class="edge">
<title>n90&#45;&gt;n87</title>
<path fill="none" stroke="black" d="M213.98,-143.7C209.69,-135.98 204.52,-126.71 199.73,-118.11"/>
<polygon fill="black" stroke="black" points="202.82,-116.46 194.89,-109.43 196.7,-119.87 202.82,-116.46"/>
</g>
<!-- n89 -->
<g id="node6" class="node">
<title>n89</title>
<polygon fill="none" stroke="black" points="297.12,-108 230.12,-108 230.12,-72 297.12,-72 297.12,-108"/>
<text text-anchor="middle" x="263.62" y="-84.95" font-family="Times New Roman,serif" font-size="14.00">self.datas</text>
<text text-anchor="middle" x="203.88" y="-111.2" font-family="Times New Roman,serif" font-size="14.00">(89)int[5]</text>
</g>
<!-- n90&#45;&gt;n89 -->
<g id="edge5" class="edge">
<title>n90&#45;&gt;n89</title>
<path fill="none" stroke="black" d="M233.51,-143.7C237.97,-135.9 243.33,-126.51 248.29,-117.83"/>
<polygon fill="black" stroke="black" points="251.18,-119.84 253.1,-109.42 245.1,-116.36 251.18,-119.84"/>
</g>
<!-- n88 -->
<g id="node7" class="node">
<title>n88</title>
<polygon fill="none" stroke="black" points="290.62,-36 236.62,-36 236.62,0 290.62,0 290.62,-36"/>
<text text-anchor="middle" x="263.62" y="-12.95" font-family="Times New Roman,serif" font-size="14.00">self</text>
<text text-anchor="middle" x="209.62" y="-39.2" font-family="Times New Roman,serif" font-size="14.00">(88)Array</text>
</g>
<!-- n89&#45;&gt;n88 -->
<g id="edge6" class="edge">
<title>n89&#45;&gt;n88</title>
<path fill="none" stroke="black" d="M263.62,-71.7C263.62,-64.41 263.62,-55.73 263.62,-47.54"/>
<polygon fill="black" stroke="black" points="267.13,-47.62 263.63,-37.62 260.13,-47.62 267.13,-47.62"/>
</g>
</g>
</svg>
