<?xml version="1.0" encoding="UTF-8" standalone="no"?>
<!DOCTYPE svg PUBLIC "-//W3C//DTD SVG 1.1//EN"
 "http://www.w3.org/Graphics/SVG/1.1/DTD/svg11.dtd">
<!-- Generated by graphviz version 12.2.1 (20241206.2353)
 -->
<!-- Title: AST Pages: 1 -->
<svg width="539pt" height="349pt"
 viewBox="0.00 0.00 538.50 348.50" xmlns="http://www.w3.org/2000/svg" xmlns:xlink="http://www.w3.org/1999/xlink">
<g id="graph0" class="graph" transform="scale(1 1) rotate(0) translate(4 344.5)">
<title>AST</title>
<polygon fill="white" stroke="none" points="-4,4 -4,-344.5 534.5,-344.5 534.5,4 -4,4"/>
<!-- n30 -->
<g id="node1" class="node">
<title>n30</title>
<polygon fill="none" stroke="black" points="476.38,-324 229.38,-324 229.38,-288 476.38,-288 476.38,-324"/>
<text text-anchor="middle" x="352.88" y="-300.95" font-family="Times New Roman,serif" font-size="14.00">ContextDecl: node(24) Context: node (29)</text>
<text text-anchor="middle" x="218.12" y="-327.2" font-family="Times New Roman,serif" font-size="14.00">(30)</text>
</g>
<!-- n24 -->
<g id="node2" class="node">
<title>n24</title>
<polygon fill="none" stroke="black" points="404.88,-252 106.88,-252 106.88,-216 404.88,-216 404.88,-252"/>
<text text-anchor="middle" x="255.88" y="-228.95" font-family="Times New Roman,serif" font-size="14.00">ThreeDimVarArray::ThreeDimVarArray(node (23))</text>
<text text-anchor="middle" x="95.62" y="-255.2" font-family="Times New Roman,serif" font-size="14.00">(24)</text>
</g>
<!-- n30&#45;&gt;n24 -->
<g id="edge1" class="edge">
<title>n30&#45;&gt;n24</title>
<path fill="none" stroke="black" d="M328.9,-287.7C316.89,-279.03 302.16,-268.4 289.08,-258.96"/>
<polygon fill="black" stroke="black" points="291.3,-256.25 281.14,-253.23 287.2,-261.92 291.3,-256.25"/>
</g>
<!-- n29 -->
<g id="node3" class="node">
<title>n29</title>
<polygon fill="none" stroke="black" points="476.88,-252 422.88,-252 422.88,-216 476.88,-216 476.88,-252"/>
<text text-anchor="middle" x="449.88" y="-228.95" font-family="Times New Roman,serif" font-size="14.00"> post:</text>
<text text-anchor="middle" x="389.12" y="-255.2" font-family="Times New Roman,serif" font-size="14.00">(29)Boolean</text>
</g>
<!-- n30&#45;&gt;n29 -->
<g id="edge2" class="edge">
<title>n30&#45;&gt;n29</title>
<path fill="none" stroke="black" d="M376.85,-287.7C388.86,-279.03 403.59,-268.4 416.67,-258.96"/>
<polygon fill="black" stroke="black" points="418.55,-261.92 424.61,-253.23 414.45,-256.25 418.55,-261.92"/>
</g>
<!-- n23 -->
<g id="node4" class="node">
<title>n23</title>
<polygon fill="none" stroke="black" points="362.5,-180 149.25,-180 149.25,-144 362.5,-144 362.5,-180"/>
<text text-anchor="middle" x="255.88" y="-156.95" font-family="Times New Roman,serif" font-size="14.00">inputArray : int[dim1][dim2][dim3]</text>
<text text-anchor="middle" x="74.62" y="-183.2" font-family="Times New Roman,serif" font-size="14.00">(23)int[dim1][dim2][dim3]</text>
</g>
<!-- n24&#45;&gt;n23 -->
<g id="edge3" class="edge">
<title>n24&#45;&gt;n23</title>
<path fill="none" stroke="black" d="M255.88,-215.7C255.88,-208.41 255.88,-199.73 255.88,-191.54"/>
<polygon fill="black" stroke="black" points="259.38,-191.62 255.88,-181.62 252.38,-191.62 259.38,-191.62"/>
</g>
<!-- n28 -->
<g id="node5" class="node">
<title>n28</title>
<polygon fill="none" stroke="black" points="476.88,-180 422.88,-180 422.88,-144 476.88,-144 476.88,-180"/>
<text text-anchor="middle" x="449.88" y="-156.95" font-family="Times New Roman,serif" font-size="14.00">=</text>
<text text-anchor="middle" x="389.12" y="-183.2" font-family="Times New Roman,serif" font-size="14.00">(28)Boolean</text>
</g>
<!-- n29&#45;&gt;n28 -->
<g id="edge4" class="edge">
<title>n29&#45;&gt;n28</title>
<path fill="none" stroke="black" d="M449.88,-215.7C449.88,-208.41 449.88,-199.73 449.88,-191.54"/>
<polygon fill="black" stroke="black" points="453.38,-191.62 449.88,-181.62 446.38,-191.62 453.38,-191.62"/>
</g>
<!-- n26 -->
<g id="node6" class="node">
<title>n26</title>
<polygon fill="none" stroke="black" points="436.75,-108 375,-108 375,-72 436.75,-72 436.75,-108"/>
<text text-anchor="middle" x="405.88" y="-84.95" font-family="Times New Roman,serif" font-size="14.00">self.data</text>
<text text-anchor="middle" x="300.38" y="-111.2" font-family="Times New Roman,serif" font-size="14.00">(26)int[dim1][dim2][dim3]</text>
</g>
<!-- n28&#45;&gt;n26 -->
<g id="edge5" class="edge">
<title>n28&#45;&gt;n26</title>
<path fill="none" stroke="black" d="M439,-143.7C434.1,-135.9 428.19,-126.51 422.74,-117.83"/>
<polygon fill="black" stroke="black" points="425.72,-115.99 417.43,-109.39 419.79,-119.71 425.72,-115.99"/>
</g>
<!-- n27 -->
<g id="node7" class="node">
<title>n27</title>
<polygon fill="none" stroke="black" points="530.5,-108 455.25,-108 455.25,-72 530.5,-72 530.5,-108"/>
<text text-anchor="middle" x="492.88" y="-84.95" font-family="Times New Roman,serif" font-size="14.00">inputArray</text>
<text text-anchor="middle" x="380.62" y="-58.7" font-family="Times New Roman,serif" font-size="14.00">(27)int[dim1][dim2][dim3]</text>
</g>
<!-- n28&#45;&gt;n27 -->
<g id="edge6" class="edge">
<title>n28&#45;&gt;n27</title>
<path fill="none" stroke="black" d="M460.5,-143.7C465.29,-135.9 471.06,-126.51 476.39,-117.83"/>
<polygon fill="black" stroke="black" points="479.32,-119.75 481.58,-109.39 473.36,-116.08 479.32,-119.75"/>
</g>
<!-- n25 -->
<g id="node8" class="node">
<title>n25</title>
<polygon fill="none" stroke="black" points="432.88,-36 378.88,-36 378.88,0 432.88,0 432.88,-36"/>
<text text-anchor="middle" x="405.88" y="-12.95" font-family="Times New Roman,serif" font-size="14.00">self</text>
<text text-anchor="middle" x="314.38" y="-39.2" font-family="Times New Roman,serif" font-size="14.00">(25)ThreeDimVarArray</text>
</g>
<!-- n26&#45;&gt;n25 -->
<g id="edge7" class="edge">
<title>n26&#45;&gt;n25</title>
<path fill="none" stroke="black" d="M405.88,-71.7C405.88,-64.41 405.88,-55.73 405.88,-47.54"/>
<polygon fill="black" stroke="black" points="409.38,-47.62 405.88,-37.62 402.38,-47.62 409.38,-47.62"/>
</g>
</g>
</svg>
