<?xml version="1.0" encoding="UTF-8" standalone="no"?>
<!DOCTYPE svg PUBLIC "-//W3C//DTD SVG 1.1//EN"
 "http://www.w3.org/Graphics/SVG/1.1/DTD/svg11.dtd">
<!-- Generated by graphviz version 12.2.1 (20241206.2353)
 -->
<!-- Title: AST Pages: 1 -->
<svg width="1760pt" height="591pt"
 viewBox="0.00 0.00 1760.12 591.00" xmlns="http://www.w3.org/2000/svg" xmlns:xlink="http://www.w3.org/1999/xlink">
<g id="graph0" class="graph" transform="scale(1 1) rotate(0) translate(4 587)">
<title>AST</title>
<polygon fill="white" stroke="none" points="-4,4 -4,-587 1756.12,-587 1756.12,4 -4,4"/>
<!-- n119 -->
<g id="node1" class="node">
<title>n119</title>
<polygon fill="none" stroke="black" points="763,-566.5 449.25,-566.5 449.25,-530.5 763,-530.5 763,-566.5"/>
<text text-anchor="middle" x="606.12" y="-543.45" font-family="Times New Roman,serif" font-size="14.00">ContextDecl: node(73) Context: node (91), node (118)</text>
<text text-anchor="middle" x="434.62" y="-569.7" font-family="Times New Roman,serif" font-size="14.00">(119)</text>
</g>
<!-- n73 -->
<g id="node2" class="node">
<title>n73</title>
<polygon fill="none" stroke="black" points="508.5,-494.5 293.75,-494.5 293.75,-458.5 508.5,-458.5 508.5,-494.5"/>
<text text-anchor="middle" x="401.12" y="-471.45" font-family="Times New Roman,serif" font-size="14.00">VarArray::sub(node (72)) : VarArray</text>
<text text-anchor="middle" x="282.5" y="-497.7" font-family="Times New Roman,serif" font-size="14.00">(73)</text>
</g>
<!-- n119&#45;&gt;n73 -->
<g id="edge1" class="edge">
<title>n119&#45;&gt;n73</title>
<path fill="none" stroke="black" d="M554.92,-530.02C526.93,-520.46 492.07,-508.55 462.61,-498.5"/>
<polygon fill="black" stroke="black" points="464.06,-495.29 453.46,-495.37 461.79,-501.91 464.06,-495.29"/>
</g>
<!-- n91 -->
<g id="node3" class="node">
<title>n91</title>
<polygon fill="none" stroke="black" points="685.38,-494.5 526.88,-494.5 526.88,-458.5 685.38,-458.5 685.38,-494.5"/>
<text text-anchor="middle" x="606.12" y="-471.45" font-family="Times New Roman,serif" font-size="14.00">IllegalDimensionSize pre:</text>
<text text-anchor="middle" x="493.12" y="-497.7" font-family="Times New Roman,serif" font-size="14.00">(91)Boolean</text>
</g>
<!-- n119&#45;&gt;n91 -->
<g id="edge2" class="edge">
<title>n119&#45;&gt;n91</title>
<path fill="none" stroke="black" d="M606.12,-530.2C606.12,-522.91 606.12,-514.23 606.12,-506.04"/>
<polygon fill="black" stroke="black" points="609.63,-506.12 606.13,-496.12 602.63,-506.12 609.63,-506.12"/>
</g>
<!-- n118 -->
<g id="node4" class="node">
<title>n118</title>
<polygon fill="none" stroke="black" points="871.12,-494.5 817.12,-494.5 817.12,-458.5 871.12,-458.5 871.12,-494.5"/>
<text text-anchor="middle" x="844.12" y="-471.45" font-family="Times New Roman,serif" font-size="14.00"> post:</text>
<text text-anchor="middle" x="780" y="-497.7" font-family="Times New Roman,serif" font-size="14.00">(118)Boolean</text>
</g>
<!-- n119&#45;&gt;n118 -->
<g id="edge3" class="edge">
<title>n119&#45;&gt;n118</title>
<path fill="none" stroke="black" d="M665.57,-530.02C709.68,-517.04 768.5,-499.74 806.35,-488.61"/>
<polygon fill="black" stroke="black" points="806.85,-492.11 815.46,-485.93 804.88,-485.4 806.85,-492.11"/>
</g>
<!-- n72 -->
<g id="node5" class="node">
<title>n72</title>
<polygon fill="none" stroke="black" points="448.12,-420 354.12,-420 354.12,-384 448.12,-384 448.12,-420"/>
<text text-anchor="middle" x="401.12" y="-396.95" font-family="Times New Roman,serif" font-size="14.00">arg : VarArray</text>
<text text-anchor="middle" x="317.75" y="-423.2" font-family="Times New Roman,serif" font-size="14.00">(72)VarArray</text>
</g>
<!-- n73&#45;&gt;n72 -->
<g id="edge4" class="edge">
<title>n73&#45;&gt;n72</title>
<path fill="none" stroke="black" d="M401.12,-458.32C401.12,-450.28 401.12,-440.5 401.12,-431.41"/>
<polygon fill="black" stroke="black" points="404.63,-431.57 401.13,-421.57 397.63,-431.57 404.63,-431.57"/>
</g>
<!-- n90 -->
<g id="node6" class="node">
<title>n90</title>
<polygon fill="none" stroke="black" points="576.12,-420 522.12,-420 522.12,-384 576.12,-384 576.12,-420"/>
<text text-anchor="middle" x="549.12" y="-396.95" font-family="Times New Roman,serif" font-size="14.00">and</text>
<text text-anchor="middle" x="488.38" y="-423.2" font-family="Times New Roman,serif" font-size="14.00">(90)Boolean</text>
</g>
<!-- n91&#45;&gt;n90 -->
<g id="edge5" class="edge">
<title>n91&#45;&gt;n90</title>
<path fill="none" stroke="black" d="M592.62,-458.32C585.73,-449.56 577.21,-438.73 569.55,-428.97"/>
<polygon fill="black" stroke="black" points="572.4,-426.95 563.47,-421.25 566.9,-431.27 572.4,-426.95"/>
</g>
<!-- n117 -->
<g id="node7" class="node">
<title>n117</title>
<polygon fill="none" stroke="black" points="997.62,-422.5 774.62,-422.5 774.62,-381.5 997.62,-381.5 997.62,-422.5"/>
<text text-anchor="middle" x="886.12" y="-405.2" font-family="Times New Roman,serif" font-size="14.00">LetExp </text>
<text text-anchor="middle" x="886.12" y="-388.7" font-family="Times New Roman,serif" font-size="14.00">Let node(97), node(116) in node(116)</text>
<text text-anchor="middle" x="737.5" y="-425.7" font-family="Times New Roman,serif" font-size="14.00">(117)Boolean</text>
</g>
<!-- n118&#45;&gt;n117 -->
<g id="edge6" class="edge">
<title>n118&#45;&gt;n117</title>
<path fill="none" stroke="black" d="M854.08,-458.32C858.51,-450.67 863.85,-441.45 868.9,-432.74"/>
<polygon fill="black" stroke="black" points="871.86,-434.6 873.85,-424.19 865.81,-431.09 871.86,-434.6"/>
</g>
<!-- n80 -->
<g id="node8" class="node">
<title>n80</title>
<polygon fill="none" stroke="black" points="306.12,-334.75 252.12,-334.75 252.12,-298.75 306.12,-298.75 306.12,-334.75"/>
<text text-anchor="middle" x="279.12" y="-311.7" font-family="Times New Roman,serif" font-size="14.00">=</text>
<text text-anchor="middle" x="218.38" y="-337.95" font-family="Times New Roman,serif" font-size="14.00">(80)Boolean</text>
</g>
<!-- n90&#45;&gt;n80 -->
<g id="edge7" class="edge">
<title>n90&#45;&gt;n80</title>
<path fill="none" stroke="black" d="M521.75,-392.56C473.34,-377.63 372.52,-346.55 317.3,-329.52"/>
<polygon fill="black" stroke="black" points="318.61,-326.26 308.02,-326.66 316.54,-332.95 318.61,-326.26"/>
</g>
<!-- n89 -->
<g id="node9" class="node">
<title>n89</title>
<polygon fill="none" stroke="black" points="576.12,-334.75 522.12,-334.75 522.12,-298.75 576.12,-298.75 576.12,-334.75"/>
<text text-anchor="middle" x="549.12" y="-311.7" font-family="Times New Roman,serif" font-size="14.00">=</text>
<text text-anchor="middle" x="488.38" y="-337.95" font-family="Times New Roman,serif" font-size="14.00">(89)Boolean</text>
</g>
<!-- n90&#45;&gt;n89 -->
<g id="edge8" class="edge">
<title>n90&#45;&gt;n89</title>
<path fill="none" stroke="black" d="M549.12,-383.75C549.12,-372.92 549.12,-358.7 549.12,-346.23"/>
<polygon fill="black" stroke="black" points="552.63,-346.49 549.13,-336.49 545.63,-346.49 552.63,-346.49"/>
</g>
<!-- n97 -->
<g id="node10" class="node">
<title>n97</title>
<polygon fill="none" stroke="black" points="913.12,-334.75 859.12,-334.75 859.12,-298.75 913.12,-298.75 913.12,-334.75"/>
<text text-anchor="middle" x="886.12" y="-311.7" font-family="Times New Roman,serif" font-size="14.00">=</text>
<text text-anchor="middle" x="825.38" y="-337.95" font-family="Times New Roman,serif" font-size="14.00">(97)Boolean</text>
</g>
<!-- n117&#45;&gt;n97 -->
<g id="edge9" class="edge">
<title>n117&#45;&gt;n97</title>
<path fill="none" stroke="black" d="M886.12,-381.27C886.12,-370.85 886.12,-357.87 886.12,-346.37"/>
<polygon fill="black" stroke="black" points="889.63,-346.59 886.13,-336.59 882.63,-346.59 889.63,-346.59"/>
</g>
<!-- n116 -->
<g id="node11" class="node">
<title>n116</title>
<polygon fill="none" stroke="black" points="1427.25,-345.5 1205,-345.5 1205,-288 1427.25,-288 1427.25,-345.5"/>
<text text-anchor="middle" x="1316.12" y="-328.2" font-family="Times New Roman,serif" font-size="14.00">IterateExp</text>
<text text-anchor="middle" x="1316.12" y="-311.7" font-family="Times New Roman,serif" font-size="14.00">source=node(100) Iterator=node(101)</text>
<text text-anchor="middle" x="1316.12" y="-295.2" font-family="Times New Roman,serif" font-size="14.00">Result=node(104) Body=node(115)</text>
<text text-anchor="middle" x="1167.88" y="-348.7" font-family="Times New Roman,serif" font-size="14.00">(116)Boolean</text>
</g>
<!-- n117&#45;&gt;n116 -->
<g id="edge10" class="edge">
<title>n117&#45;&gt;n116</title>
<path fill="none" stroke="black" d="M989.39,-381.01C1050.82,-369.11 1129.09,-353.96 1193.63,-341.47"/>
<polygon fill="black" stroke="black" points="1194.05,-344.95 1203.2,-339.61 1192.72,-338.08 1194.05,-344.95"/>
</g>
<!-- n76 -->
<g id="node12" class="node">
<title>n76</title>
<polygon fill="none" stroke="black" points="185.5,-252 36.75,-252 36.75,-216 185.5,-216 185.5,-252"/>
<text text-anchor="middle" x="111.12" y="-228.95" font-family="Times New Roman,serif" font-size="14.00">arg.data.getDimension()</text>
<text text-anchor="middle" x="18.38" y="-255.2" font-family="Times New Roman,serif" font-size="14.00">(76)int</text>
</g>
<!-- n80&#45;&gt;n76 -->
<g id="edge11" class="edge">
<title>n80&#45;&gt;n76</title>
<path fill="none" stroke="black" d="M251.76,-302.6C226.31,-290.36 187.87,-271.89 157.61,-257.35"/>
<polygon fill="black" stroke="black" points="159.18,-254.21 148.65,-253.04 156.15,-260.52 159.18,-254.21"/>
</g>
<!-- n79 -->
<g id="node13" class="node">
<title>n79</title>
<polygon fill="none" stroke="black" points="354.62,-252 203.62,-252 203.62,-216 354.62,-216 354.62,-252"/>
<text text-anchor="middle" x="279.12" y="-228.95" font-family="Times New Roman,serif" font-size="14.00">self.data.getDimension()</text>
<text text-anchor="middle" x="185.25" y="-255.2" font-family="Times New Roman,serif" font-size="14.00">(79)int</text>
</g>
<!-- n80&#45;&gt;n79 -->
<g id="edge12" class="edge">
<title>n80&#45;&gt;n79</title>
<path fill="none" stroke="black" d="M279.12,-298.63C279.12,-288.52 279.12,-275.48 279.12,-263.83"/>
<polygon fill="black" stroke="black" points="282.63,-263.89 279.13,-253.89 275.63,-263.89 282.63,-263.89"/>
</g>
<!-- n84 -->
<g id="node14" class="node">
<title>n84</title>
<polygon fill="none" stroke="black" points="557.12,-252 373.12,-252 373.12,-216 557.12,-216 557.12,-252"/>
<text text-anchor="middle" x="465.12" y="-228.95" font-family="Times New Roman,serif" font-size="14.00">arg.data.getDimensionSizes(1)</text>
<text text-anchor="middle" x="354.75" y="-255.2" font-family="Times New Roman,serif" font-size="14.00">(84)int</text>
</g>
<!-- n89&#45;&gt;n84 -->
<g id="edge13" class="edge">
<title>n89&#45;&gt;n84</title>
<path fill="none" stroke="black" d="M531.31,-298.63C519.7,-287.46 504.34,-272.7 491.34,-260.2"/>
<polygon fill="black" stroke="black" points="493.93,-257.83 484.29,-253.43 489.08,-262.88 493.93,-257.83"/>
</g>
<!-- n88 -->
<g id="node15" class="node">
<title>n88</title>
<polygon fill="none" stroke="black" points="761.25,-252 575,-252 575,-216 761.25,-216 761.25,-252"/>
<text text-anchor="middle" x="668.12" y="-228.95" font-family="Times New Roman,serif" font-size="14.00">self.data.getDimensionSizes(1)</text>
<text text-anchor="middle" x="556.62" y="-255.2" font-family="Times New Roman,serif" font-size="14.00">(88)int</text>
</g>
<!-- n89&#45;&gt;n88 -->
<g id="edge14" class="edge">
<title>n89&#45;&gt;n88</title>
<path fill="none" stroke="black" d="M574.65,-298.43C591.75,-286.82 614.48,-271.4 633.24,-258.67"/>
<polygon fill="black" stroke="black" points="635.08,-261.66 641.39,-253.14 631.15,-255.86 635.08,-261.66"/>
</g>
<!-- n96 -->
<g id="node16" class="node">
<title>n96</title>
<polygon fill="none" stroke="black" points="849.12,-252 779.12,-252 779.12,-216 849.12,-216 849.12,-252"/>
<text text-anchor="middle" x="814.12" y="-228.95" font-family="Times New Roman,serif" font-size="14.00">dim1 : int</text>
<text text-anchor="middle" x="760.75" y="-255.2" font-family="Times New Roman,serif" font-size="14.00">(96)int</text>
</g>
<!-- n97&#45;&gt;n96 -->
<g id="edge15" class="edge">
<title>n97&#45;&gt;n96</title>
<path fill="none" stroke="black" d="M870.86,-298.63C861.09,-287.67 848.24,-273.26 837.23,-260.92"/>
<polygon fill="black" stroke="black" points="839.9,-258.64 830.63,-253.51 834.67,-263.3 839.9,-258.64"/>
</g>
<!-- n95 -->
<g id="node17" class="node">
<title>n95</title>
<polygon fill="none" stroke="black" points="1051.12,-252 867.12,-252 867.12,-216 1051.12,-216 1051.12,-252"/>
<text text-anchor="middle" x="959.12" y="-228.95" font-family="Times New Roman,serif" font-size="14.00">arg.data.getDimensionSizes(1)</text>
<text text-anchor="middle" x="848.75" y="-255.2" font-family="Times New Roman,serif" font-size="14.00">(95)int</text>
</g>
<!-- n97&#45;&gt;n95 -->
<g id="edge16" class="edge">
<title>n97&#45;&gt;n95</title>
<path fill="none" stroke="black" d="M901.61,-298.63C911.51,-287.67 924.54,-273.26 935.69,-260.92"/>
<polygon fill="black" stroke="black" points="938.29,-263.27 942.4,-253.5 933.1,-258.57 938.29,-263.27"/>
</g>
<!-- n100 -->
<g id="node18" class="node">
<title>n100</title>
<polygon fill="none" stroke="black" points="1270.75,-252 1069.5,-252 1069.5,-216 1270.75,-216 1270.75,-252"/>
<text text-anchor="middle" x="1170.12" y="-228.95" font-family="Times New Roman,serif" font-size="14.00">Sequence{ node(98) .. node(99) }</text>
<text text-anchor="middle" x="1047.75" y="-255.2" font-family="Times New Roman,serif" font-size="14.00">(100)int</text>
</g>
<!-- n116&#45;&gt;n100 -->
<g id="edge17" class="edge">
<title>n116&#45;&gt;n100</title>
<path fill="none" stroke="black" d="M1265.06,-287.51C1247.49,-277.79 1228.05,-267.04 1211.37,-257.81"/>
<polygon fill="black" stroke="black" points="1213.14,-254.79 1202.7,-253.02 1209.75,-260.92 1213.14,-254.79"/>
</g>
<!-- n101 -->
<g id="node19" class="node">
<title>n101</title>
<polygon fill="none" stroke="black" points="1343.12,-252 1289.12,-252 1289.12,-216 1343.12,-216 1343.12,-252"/>
<text text-anchor="middle" x="1316.12" y="-228.95" font-family="Times New Roman,serif" font-size="14.00">it : int</text>
<text text-anchor="middle" x="1267.38" y="-255.2" font-family="Times New Roman,serif" font-size="14.00">(101)int</text>
</g>
<!-- n116&#45;&gt;n101 -->
<g id="edge18" class="edge">
<title>n116&#45;&gt;n101</title>
<path fill="none" stroke="black" d="M1316.12,-287.51C1316.12,-279.75 1316.12,-271.33 1316.12,-263.55"/>
<polygon fill="black" stroke="black" points="1319.63,-263.56 1316.13,-253.56 1312.63,-263.56 1319.63,-263.56"/>
</g>
<!-- n104 -->
<g id="node20" class="node">
<title>n104</title>
<polygon fill="none" stroke="black" points="1415.12,-252 1361.12,-252 1361.12,-216 1415.12,-216 1415.12,-252"/>
<text text-anchor="middle" x="1388.12" y="-228.95" font-family="Times New Roman,serif" font-size="14.00">=</text>
<text text-anchor="middle" x="1324" y="-202.7" font-family="Times New Roman,serif" font-size="14.00">(104)Boolean</text>
</g>
<!-- n116&#45;&gt;n104 -->
<g id="edge19" class="edge">
<title>n116&#45;&gt;n104</title>
<path fill="none" stroke="black" d="M1341.31,-287.51C1349.13,-278.73 1357.71,-269.11 1365.36,-260.53"/>
<polygon fill="black" stroke="black" points="1367.88,-262.97 1371.92,-253.17 1362.65,-258.31 1367.88,-262.97"/>
</g>
<!-- n115 -->
<g id="node21" class="node">
<title>n115</title>
<polygon fill="none" stroke="black" points="1504.12,-252 1450.12,-252 1450.12,-216 1504.12,-216 1504.12,-252"/>
<text text-anchor="middle" x="1477.12" y="-228.95" font-family="Times New Roman,serif" font-size="14.00">=</text>
<text text-anchor="middle" x="1413" y="-255.2" font-family="Times New Roman,serif" font-size="14.00">(115)Boolean</text>
</g>
<!-- n116&#45;&gt;n115 -->
<g id="edge20" class="edge">
<title>n116&#45;&gt;n115</title>
<path fill="none" stroke="black" d="M1372.43,-287.51C1394.73,-276.33 1419.74,-263.78 1439.73,-253.75"/>
<polygon fill="black" stroke="black" points="1441.26,-256.91 1448.63,-249.29 1438.12,-250.65 1441.26,-256.91"/>
</g>
<!-- n75 -->
<g id="node22" class="node">
<title>n75</title>
<polygon fill="none" stroke="black" points="140.88,-180 81.38,-180 81.38,-144 140.88,-144 140.88,-180"/>
<text text-anchor="middle" x="111.12" y="-156.95" font-family="Times New Roman,serif" font-size="14.00">arg.data</text>
<text text-anchor="middle" x="47.62" y="-183.2" font-family="Times New Roman,serif" font-size="14.00">(75)int[dim]</text>
</g>
<!-- n76&#45;&gt;n75 -->
<g id="edge21" class="edge">
<title>n76&#45;&gt;n75</title>
<path fill="none" stroke="black" d="M111.12,-215.7C111.12,-208.41 111.12,-199.73 111.12,-191.54"/>
<polygon fill="black" stroke="black" points="114.63,-191.62 111.13,-181.62 107.63,-191.62 114.63,-191.62"/>
</g>
<!-- n78 -->
<g id="node23" class="node">
<title>n78</title>
<polygon fill="none" stroke="black" points="310,-180 248.25,-180 248.25,-144 310,-144 310,-180"/>
<text text-anchor="middle" x="279.12" y="-156.95" font-family="Times New Roman,serif" font-size="14.00">self.data</text>
<text text-anchor="middle" x="214.5" y="-183.2" font-family="Times New Roman,serif" font-size="14.00">(78)int[dim]</text>
</g>
<!-- n79&#45;&gt;n78 -->
<g id="edge22" class="edge">
<title>n79&#45;&gt;n78</title>
<path fill="none" stroke="black" d="M279.12,-215.7C279.12,-208.41 279.12,-199.73 279.12,-191.54"/>
<polygon fill="black" stroke="black" points="282.63,-191.62 279.13,-181.62 275.63,-191.62 282.63,-191.62"/>
</g>
<!-- n82 -->
<g id="node24" class="node">
<title>n82</title>
<polygon fill="none" stroke="black" points="457.88,-180 398.38,-180 398.38,-144 457.88,-144 457.88,-180"/>
<text text-anchor="middle" x="428.12" y="-156.95" font-family="Times New Roman,serif" font-size="14.00">arg.data</text>
<text text-anchor="middle" x="364.62" y="-183.2" font-family="Times New Roman,serif" font-size="14.00">(82)int[dim]</text>
</g>
<!-- n84&#45;&gt;n82 -->
<g id="edge23" class="edge">
<title>n84&#45;&gt;n82</title>
<path fill="none" stroke="black" d="M455.98,-215.7C451.9,-207.98 447,-198.71 442.46,-190.11"/>
<polygon fill="black" stroke="black" points="445.64,-188.65 437.87,-181.44 439.45,-191.92 445.64,-188.65"/>
</g>
<!-- n83 -->
<g id="node25" class="node">
<title>n83</title>
<polygon fill="none" stroke="black" points="530.12,-180 476.12,-180 476.12,-144 530.12,-144 530.12,-180"/>
<text text-anchor="middle" x="503.12" y="-156.95" font-family="Times New Roman,serif" font-size="14.00">1</text>
<text text-anchor="middle" x="457.75" y="-183.2" font-family="Times New Roman,serif" font-size="14.00">(83)int</text>
</g>
<!-- n84&#45;&gt;n83 -->
<g id="edge24" class="edge">
<title>n84&#45;&gt;n83</title>
<path fill="none" stroke="black" d="M474.52,-215.7C478.71,-207.98 483.74,-198.71 488.41,-190.11"/>
<polygon fill="black" stroke="black" points="491.42,-191.89 493.12,-181.43 485.27,-188.55 491.42,-191.89"/>
</g>
<!-- n86 -->
<g id="node26" class="node">
<title>n86</title>
<polygon fill="none" stroke="black" points="673,-180 611.25,-180 611.25,-144 673,-144 673,-180"/>
<text text-anchor="middle" x="642.12" y="-156.95" font-family="Times New Roman,serif" font-size="14.00">self.data</text>
<text text-anchor="middle" x="577.5" y="-183.2" font-family="Times New Roman,serif" font-size="14.00">(86)int[dim]</text>
</g>
<!-- n88&#45;&gt;n86 -->
<g id="edge25" class="edge">
<title>n88&#45;&gt;n86</title>
<path fill="none" stroke="black" d="M661.7,-215.7C658.9,-208.15 655.54,-199.12 652.41,-190.68"/>
<polygon fill="black" stroke="black" points="655.77,-189.68 649.01,-181.52 649.21,-192.12 655.77,-189.68"/>
</g>
<!-- n87 -->
<g id="node27" class="node">
<title>n87</title>
<polygon fill="none" stroke="black" points="745.12,-180 691.12,-180 691.12,-144 745.12,-144 745.12,-180"/>
<text text-anchor="middle" x="718.12" y="-156.95" font-family="Times New Roman,serif" font-size="14.00">1</text>
<text text-anchor="middle" x="672.75" y="-183.2" font-family="Times New Roman,serif" font-size="14.00">(87)int</text>
</g>
<!-- n88&#45;&gt;n87 -->
<g id="edge26" class="edge">
<title>n88&#45;&gt;n87</title>
<path fill="none" stroke="black" d="M680.48,-215.7C686.18,-207.73 693.05,-198.1 699.36,-189.26"/>
<polygon fill="black" stroke="black" points="702.06,-191.51 705.03,-181.34 696.37,-187.44 702.06,-191.51"/>
</g>
<!-- n93 -->
<g id="node28" class="node">
<title>n93</title>
<polygon fill="none" stroke="black" points="946.88,-180 887.38,-180 887.38,-144 946.88,-144 946.88,-180"/>
<text text-anchor="middle" x="917.12" y="-156.95" font-family="Times New Roman,serif" font-size="14.00">arg.data</text>
<text text-anchor="middle" x="853.62" y="-183.2" font-family="Times New Roman,serif" font-size="14.00">(93)int[dim]</text>
</g>
<!-- n95&#45;&gt;n93 -->
<g id="edge27" class="edge">
<title>n95&#45;&gt;n93</title>
<path fill="none" stroke="black" d="M948.74,-215.7C944.06,-207.9 938.43,-198.51 933.22,-189.83"/>
<polygon fill="black" stroke="black" points="936.31,-188.18 928.17,-181.4 930.31,-191.78 936.31,-188.18"/>
</g>
<!-- n94 -->
<g id="node29" class="node">
<title>n94</title>
<polygon fill="none" stroke="black" points="1019.12,-180 965.12,-180 965.12,-144 1019.12,-144 1019.12,-180"/>
<text text-anchor="middle" x="992.12" y="-156.95" font-family="Times New Roman,serif" font-size="14.00">1</text>
<text text-anchor="middle" x="946.75" y="-183.2" font-family="Times New Roman,serif" font-size="14.00">(94)int</text>
</g>
<!-- n95&#45;&gt;n94 -->
<g id="edge28" class="edge">
<title>n95&#45;&gt;n94</title>
<path fill="none" stroke="black" d="M967.28,-215.7C970.88,-208.07 975.19,-198.92 979.21,-190.4"/>
<polygon fill="black" stroke="black" points="982.32,-192.01 983.42,-181.47 975.99,-189.03 982.32,-192.01"/>
</g>
<!-- n98 -->
<g id="node30" class="node">
<title>n98</title>
<polygon fill="none" stroke="black" points="1144.12,-180 1090.12,-180 1090.12,-144 1144.12,-144 1144.12,-180"/>
<text text-anchor="middle" x="1117.12" y="-156.95" font-family="Times New Roman,serif" font-size="14.00">1</text>
<text text-anchor="middle" x="1071.75" y="-183.2" font-family="Times New Roman,serif" font-size="14.00">(98)int</text>
</g>
<!-- n100&#45;&gt;n98 -->
<g id="edge29" class="edge">
<title>n100&#45;&gt;n98</title>
<path fill="none" stroke="black" d="M1157.02,-215.7C1150.99,-207.73 1143.7,-198.1 1137.01,-189.26"/>
<polygon fill="black" stroke="black" points="1139.82,-187.17 1130.99,-181.31 1134.24,-191.4 1139.82,-187.17"/>
</g>
<!-- n99 -->
<g id="node31" class="node">
<title>n99</title>
<polygon fill="none" stroke="black" points="1216.12,-180 1162.12,-180 1162.12,-144 1216.12,-144 1216.12,-180"/>
<text text-anchor="middle" x="1189.12" y="-156.95" font-family="Times New Roman,serif" font-size="14.00">dim1</text>
<text text-anchor="middle" x="1143.75" y="-183.2" font-family="Times New Roman,serif" font-size="14.00">(99)int</text>
</g>
<!-- n100&#45;&gt;n99 -->
<g id="edge30" class="edge">
<title>n100&#45;&gt;n99</title>
<path fill="none" stroke="black" d="M1174.82,-215.7C1176.85,-208.24 1179.27,-199.32 1181.53,-190.97"/>
<polygon fill="black" stroke="black" points="1184.84,-192.13 1184.09,-181.57 1178.09,-190.3 1184.84,-192.13"/>
</g>
<!-- n103 -->
<g id="node32" class="node">
<title>n103</title>
<polygon fill="none" stroke="black" points="1343.25,-180 1253,-180 1253,-144 1343.25,-144 1343.25,-180"/>
<text text-anchor="middle" x="1298.12" y="-156.95" font-family="Times New Roman,serif" font-size="14.00">acc : Boolean</text>
<text text-anchor="middle" x="1215.88" y="-183.2" font-family="Times New Roman,serif" font-size="14.00">(103)Boolean</text>
</g>
<!-- n104&#45;&gt;n103 -->
<g id="edge31" class="edge">
<title>n104&#45;&gt;n103</title>
<path fill="none" stroke="black" d="M1365.88,-215.7C1354.84,-207.11 1341.33,-196.61 1329.29,-187.24"/>
<polygon fill="black" stroke="black" points="1331.67,-184.65 1321.62,-181.28 1327.37,-190.18 1331.67,-184.65"/>
</g>
<!-- n102 -->
<g id="node33" class="node">
<title>n102</title>
<polygon fill="none" stroke="black" points="1415.12,-180 1361.12,-180 1361.12,-144 1415.12,-144 1415.12,-180"/>
<text text-anchor="middle" x="1388.12" y="-156.95" font-family="Times New Roman,serif" font-size="14.00">true</text>
<text text-anchor="middle" x="1324" y="-183.2" font-family="Times New Roman,serif" font-size="14.00">(102)Boolean</text>
</g>
<!-- n104&#45;&gt;n102 -->
<g id="edge32" class="edge">
<title>n104&#45;&gt;n102</title>
<path fill="none" stroke="black" d="M1388.12,-215.7C1388.12,-208.41 1388.12,-199.73 1388.12,-191.54"/>
<polygon fill="black" stroke="black" points="1391.63,-191.62 1388.13,-181.62 1384.63,-191.62 1391.63,-191.62"/>
</g>
<!-- n107 -->
<g id="node34" class="node">
<title>n107</title>
<polygon fill="none" stroke="black" points="1521.5,-180 1432.75,-180 1432.75,-144 1521.5,-144 1521.5,-180"/>
<text text-anchor="middle" x="1477.12" y="-156.95" font-family="Times New Roman,serif" font-size="14.00">result.data[it]</text>
<text text-anchor="middle" x="1411" y="-183.2" font-family="Times New Roman,serif" font-size="14.00">(107)int</text>
</g>
<!-- n115&#45;&gt;n107 -->
<g id="edge33" class="edge">
<title>n115&#45;&gt;n107</title>
<path fill="none" stroke="black" d="M1477.12,-215.7C1477.12,-208.41 1477.12,-199.73 1477.12,-191.54"/>
<polygon fill="black" stroke="black" points="1480.63,-191.62 1477.13,-181.62 1473.63,-191.62 1480.63,-191.62"/>
</g>
<!-- n114 -->
<g id="node35" class="node">
<title>n114</title>
<polygon fill="none" stroke="black" points="1593.12,-180 1539.12,-180 1539.12,-144 1593.12,-144 1593.12,-180"/>
<text text-anchor="middle" x="1566.12" y="-156.95" font-family="Times New Roman,serif" font-size="14.00">&#45;</text>
<text text-anchor="middle" x="1517.38" y="-183.2" font-family="Times New Roman,serif" font-size="14.00">(114)int</text>
</g>
<!-- n115&#45;&gt;n114 -->
<g id="edge34" class="edge">
<title>n115&#45;&gt;n114</title>
<path fill="none" stroke="black" d="M1499.13,-215.7C1510.04,-207.11 1523.4,-196.61 1535.31,-187.24"/>
<polygon fill="black" stroke="black" points="1537.18,-190.22 1542.88,-181.28 1532.86,-184.71 1537.18,-190.22"/>
</g>
<!-- n74 -->
<g id="node36" class="node">
<title>n74</title>
<polygon fill="none" stroke="black" points="138.12,-108 84.12,-108 84.12,-72 138.12,-72 138.12,-108"/>
<text text-anchor="middle" x="111.12" y="-84.95" font-family="Times New Roman,serif" font-size="14.00">arg</text>
<text text-anchor="middle" x="47.75" y="-111.2" font-family="Times New Roman,serif" font-size="14.00">(74)VarArray</text>
</g>
<!-- n75&#45;&gt;n74 -->
<g id="edge35" class="edge">
<title>n75&#45;&gt;n74</title>
<path fill="none" stroke="black" d="M111.12,-143.7C111.12,-136.41 111.12,-127.73 111.12,-119.54"/>
<polygon fill="black" stroke="black" points="114.63,-119.62 111.13,-109.62 107.63,-119.62 114.63,-119.62"/>
</g>
<!-- n77 -->
<g id="node37" class="node">
<title>n77</title>
<polygon fill="none" stroke="black" points="306.12,-108 252.12,-108 252.12,-72 306.12,-72 306.12,-108"/>
<text text-anchor="middle" x="279.12" y="-84.95" font-family="Times New Roman,serif" font-size="14.00">self</text>
<text text-anchor="middle" x="215.75" y="-111.2" font-family="Times New Roman,serif" font-size="14.00">(77)VarArray</text>
</g>
<!-- n78&#45;&gt;n77 -->
<g id="edge36" class="edge">
<title>n78&#45;&gt;n77</title>
<path fill="none" stroke="black" d="M279.12,-143.7C279.12,-136.41 279.12,-127.73 279.12,-119.54"/>
<polygon fill="black" stroke="black" points="282.63,-119.62 279.13,-109.62 275.63,-119.62 282.63,-119.62"/>
</g>
<!-- n81 -->
<g id="node38" class="node">
<title>n81</title>
<polygon fill="none" stroke="black" points="455.12,-108 401.12,-108 401.12,-72 455.12,-72 455.12,-108"/>
<text text-anchor="middle" x="428.12" y="-84.95" font-family="Times New Roman,serif" font-size="14.00">arg</text>
<text text-anchor="middle" x="364.75" y="-111.2" font-family="Times New Roman,serif" font-size="14.00">(81)VarArray</text>
</g>
<!-- n82&#45;&gt;n81 -->
<g id="edge37" class="edge">
<title>n82&#45;&gt;n81</title>
<path fill="none" stroke="black" d="M428.12,-143.7C428.12,-136.41 428.12,-127.73 428.12,-119.54"/>
<polygon fill="black" stroke="black" points="431.63,-119.62 428.13,-109.62 424.63,-119.62 431.63,-119.62"/>
</g>
<!-- n85 -->
<g id="node39" class="node">
<title>n85</title>
<polygon fill="none" stroke="black" points="669.12,-108 615.12,-108 615.12,-72 669.12,-72 669.12,-108"/>
<text text-anchor="middle" x="642.12" y="-84.95" font-family="Times New Roman,serif" font-size="14.00">self</text>
<text text-anchor="middle" x="578.75" y="-111.2" font-family="Times New Roman,serif" font-size="14.00">(85)VarArray</text>
</g>
<!-- n86&#45;&gt;n85 -->
<g id="edge38" class="edge">
<title>n86&#45;&gt;n85</title>
<path fill="none" stroke="black" d="M642.12,-143.7C642.12,-136.41 642.12,-127.73 642.12,-119.54"/>
<polygon fill="black" stroke="black" points="645.63,-119.62 642.13,-109.62 638.63,-119.62 645.63,-119.62"/>
</g>
<!-- n92 -->
<g id="node40" class="node">
<title>n92</title>
<polygon fill="none" stroke="black" points="944.12,-108 890.12,-108 890.12,-72 944.12,-72 944.12,-108"/>
<text text-anchor="middle" x="917.12" y="-84.95" font-family="Times New Roman,serif" font-size="14.00">arg</text>
<text text-anchor="middle" x="853.75" y="-111.2" font-family="Times New Roman,serif" font-size="14.00">(92)VarArray</text>
</g>
<!-- n93&#45;&gt;n92 -->
<g id="edge39" class="edge">
<title>n93&#45;&gt;n92</title>
<path fill="none" stroke="black" d="M917.12,-143.7C917.12,-136.41 917.12,-127.73 917.12,-119.54"/>
<polygon fill="black" stroke="black" points="920.63,-119.62 917.13,-109.62 913.63,-119.62 920.63,-119.62"/>
</g>
<!-- n105 -->
<g id="node41" class="node">
<title>n105</title>
<polygon fill="none" stroke="black" points="1433.12,-108 1379.12,-108 1379.12,-72 1433.12,-72 1433.12,-108"/>
<text text-anchor="middle" x="1406.12" y="-84.95" font-family="Times New Roman,serif" font-size="14.00">result</text>
<text text-anchor="middle" x="1339.38" y="-111.2" font-family="Times New Roman,serif" font-size="14.00">(105)VarArray</text>
</g>
<!-- n107&#45;&gt;n105 -->
<g id="edge40" class="edge">
<title>n107&#45;&gt;n105</title>
<path fill="none" stroke="black" d="M1459.57,-143.7C1451.15,-135.39 1440.89,-125.28 1431.62,-116.14"/>
<polygon fill="black" stroke="black" points="1434.13,-113.7 1424.55,-109.17 1429.22,-118.68 1434.13,-113.7"/>
</g>
<!-- n106 -->
<g id="node42" class="node">
<title>n106</title>
<polygon fill="none" stroke="black" points="1505.12,-108 1451.12,-108 1451.12,-72 1505.12,-72 1505.12,-108"/>
<text text-anchor="middle" x="1478.12" y="-84.95" font-family="Times New Roman,serif" font-size="14.00">it</text>
<text text-anchor="middle" x="1429.38" y="-111.2" font-family="Times New Roman,serif" font-size="14.00">(106)int</text>
</g>
<!-- n107&#45;&gt;n106 -->
<g id="edge41" class="edge">
<title>n107&#45;&gt;n106</title>
<path fill="none" stroke="black" d="M1477.37,-143.7C1477.48,-136.41 1477.6,-127.73 1477.72,-119.54"/>
<polygon fill="black" stroke="black" points="1481.22,-119.67 1477.86,-109.62 1474.22,-119.57 1481.22,-119.67"/>
</g>
<!-- n110 -->
<g id="node43" class="node">
<title>n110</title>
<polygon fill="none" stroke="black" points="1603.25,-108 1525,-108 1525,-72 1603.25,-72 1603.25,-108"/>
<text text-anchor="middle" x="1564.12" y="-84.95" font-family="Times New Roman,serif" font-size="14.00">self.data[it]</text>
<text text-anchor="middle" x="1503.25" y="-111.2" font-family="Times New Roman,serif" font-size="14.00">(110)int</text>
</g>
<!-- n114&#45;&gt;n110 -->
<g id="edge42" class="edge">
<title>n114&#45;&gt;n110</title>
<path fill="none" stroke="black" d="M1565.63,-143.7C1565.42,-136.41 1565.17,-127.73 1564.94,-119.54"/>
<polygon fill="black" stroke="black" points="1568.44,-119.51 1564.66,-109.62 1561.44,-119.71 1568.44,-119.51"/>
</g>
<!-- n113 -->
<g id="node44" class="node">
<title>n113</title>
<polygon fill="none" stroke="black" points="1697.12,-108 1621.12,-108 1621.12,-72 1697.12,-72 1697.12,-108"/>
<text text-anchor="middle" x="1659.12" y="-84.95" font-family="Times New Roman,serif" font-size="14.00">arg.data[it]</text>
<text text-anchor="middle" x="1599.38" y="-111.2" font-family="Times New Roman,serif" font-size="14.00">(113)int</text>
</g>
<!-- n114&#45;&gt;n113 -->
<g id="edge43" class="edge">
<title>n114&#45;&gt;n113</title>
<path fill="none" stroke="black" d="M1589.11,-143.7C1600.52,-135.11 1614.48,-124.61 1626.92,-115.24"/>
<polygon fill="black" stroke="black" points="1628.98,-118.07 1634.87,-109.26 1624.77,-112.47 1628.98,-118.07"/>
</g>
<!-- n108 -->
<g id="node45" class="node">
<title>n108</title>
<polygon fill="none" stroke="black" points="1525.12,-36 1471.12,-36 1471.12,0 1525.12,0 1525.12,-36"/>
<text text-anchor="middle" x="1498.12" y="-12.95" font-family="Times New Roman,serif" font-size="14.00">self</text>
<text text-anchor="middle" x="1431.38" y="-39.2" font-family="Times New Roman,serif" font-size="14.00">(108)VarArray</text>
</g>
<!-- n110&#45;&gt;n108 -->
<g id="edge44" class="edge">
<title>n110&#45;&gt;n108</title>
<path fill="none" stroke="black" d="M1547.81,-71.7C1540.06,-63.47 1530.64,-53.48 1522.09,-44.42"/>
<polygon fill="black" stroke="black" points="1524.7,-42.08 1515.29,-37.21 1519.6,-46.88 1524.7,-42.08"/>
</g>
<!-- n109 -->
<g id="node46" class="node">
<title>n109</title>
<polygon fill="none" stroke="black" points="1597.12,-36 1543.12,-36 1543.12,0 1597.12,0 1597.12,-36"/>
<text text-anchor="middle" x="1570.12" y="-12.95" font-family="Times New Roman,serif" font-size="14.00">it</text>
<text text-anchor="middle" x="1521.38" y="-39.2" font-family="Times New Roman,serif" font-size="14.00">(109)int</text>
</g>
<!-- n110&#45;&gt;n109 -->
<g id="edge45" class="edge">
<title>n110&#45;&gt;n109</title>
<path fill="none" stroke="black" d="M1565.61,-71.7C1566.23,-64.41 1566.98,-55.73 1567.68,-47.54"/>
<polygon fill="black" stroke="black" points="1571.16,-47.87 1568.53,-37.61 1564.19,-47.28 1571.16,-47.87"/>
</g>
<!-- n111 -->
<g id="node47" class="node">
<title>n111</title>
<polygon fill="none" stroke="black" points="1680.12,-36 1626.12,-36 1626.12,0 1680.12,0 1680.12,-36"/>
<text text-anchor="middle" x="1653.12" y="-12.95" font-family="Times New Roman,serif" font-size="14.00">arg</text>
<text text-anchor="middle" x="1586.38" y="-39.2" font-family="Times New Roman,serif" font-size="14.00">(111)VarArray</text>
</g>
<!-- n113&#45;&gt;n111 -->
<g id="edge46" class="edge">
<title>n113&#45;&gt;n111</title>
<path fill="none" stroke="black" d="M1657.64,-71.7C1657.02,-64.41 1656.27,-55.73 1655.57,-47.54"/>
<polygon fill="black" stroke="black" points="1659.06,-47.28 1654.72,-37.61 1652.09,-47.87 1659.06,-47.28"/>
</g>
<!-- n112 -->
<g id="node48" class="node">
<title>n112</title>
<polygon fill="none" stroke="black" points="1752.12,-36 1698.12,-36 1698.12,0 1752.12,0 1752.12,-36"/>
<text text-anchor="middle" x="1725.12" y="-12.95" font-family="Times New Roman,serif" font-size="14.00">it</text>
<text text-anchor="middle" x="1676.38" y="-39.2" font-family="Times New Roman,serif" font-size="14.00">(112)int</text>
</g>
<!-- n113&#45;&gt;n112 -->
<g id="edge47" class="edge">
<title>n113&#45;&gt;n112</title>
<path fill="none" stroke="black" d="M1675.44,-71.7C1683.19,-63.47 1692.61,-53.48 1701.16,-44.42"/>
<polygon fill="black" stroke="black" points="1703.65,-46.88 1707.96,-37.21 1698.55,-42.08 1703.65,-46.88"/>
</g>
</g>
</svg>
