<?xml version="1.0" encoding="UTF-8" standalone="no"?>
<!DOCTYPE svg PUBLIC "-//W3C//DTD SVG 1.1//EN"
 "http://www.w3.org/Graphics/SVG/1.1/DTD/svg11.dtd">
<!-- Generated by graphviz version 12.2.1 (20241206.2353)
 -->
<!-- Title: AST Pages: 1 -->
<svg width="2645pt" height="778pt"
 viewBox="0.00 0.00 2644.75 778.00" xmlns="http://www.w3.org/2000/svg" xmlns:xlink="http://www.w3.org/1999/xlink">
<g id="graph0" class="graph" transform="scale(1 1) rotate(0) translate(4 774)">
<title>AST</title>
<polygon fill="white" stroke="none" points="-4,4 -4,-774 2640.75,-774 2640.75,4 -4,4"/>
<!-- n71 -->
<g id="node1" class="node">
<title>n71</title>
<polygon fill="none" stroke="black" points="591.88,-753.5 351.62,-753.5 351.62,-717.5 591.88,-717.5 591.88,-753.5"/>
<text text-anchor="middle" x="471.75" y="-730.45" font-family="Times New Roman,serif" font-size="14.00">ContextDecl: node(9) Context: node (70)</text>
<text text-anchor="middle" x="340.38" y="-756.7" font-family="Times New Roman,serif" font-size="14.00">(71)</text>
</g>
<!-- n9 -->
<g id="node2" class="node">
<title>n9</title>
<polygon fill="none" stroke="black" points="490.75,-681.5 324.75,-681.5 324.75,-645.5 490.75,-645.5 490.75,-681.5"/>
<text text-anchor="middle" x="407.75" y="-658.45" font-family="Times New Roman,serif" font-size="14.00">Cube::add(node (8)) : Cube</text>
<text text-anchor="middle" x="316.88" y="-684.7" font-family="Times New Roman,serif" font-size="14.00">(9)</text>
</g>
<!-- n71&#45;&gt;n9 -->
<g id="edge1" class="edge">
<title>n71&#45;&gt;n9</title>
<path fill="none" stroke="black" d="M455.93,-717.2C448.41,-708.97 439.28,-698.98 430.99,-689.92"/>
<polygon fill="black" stroke="black" points="433.74,-687.74 424.41,-682.72 428.57,-692.46 433.74,-687.74"/>
</g>
<!-- n70 -->
<g id="node3" class="node">
<title>n70</title>
<polygon fill="none" stroke="black" points="584.75,-681.5 530.75,-681.5 530.75,-645.5 584.75,-645.5 584.75,-681.5"/>
<text text-anchor="middle" x="557.75" y="-658.45" font-family="Times New Roman,serif" font-size="14.00"> post:</text>
<text text-anchor="middle" x="497" y="-684.7" font-family="Times New Roman,serif" font-size="14.00">(70)Boolean</text>
</g>
<!-- n71&#45;&gt;n70 -->
<g id="edge2" class="edge">
<title>n71&#45;&gt;n70</title>
<path fill="none" stroke="black" d="M493.01,-717.2C503.45,-708.7 516.21,-698.31 527.63,-689.01"/>
<polygon fill="black" stroke="black" points="529.72,-691.83 535.26,-682.8 525.3,-686.4 529.72,-691.83"/>
</g>
<!-- n8 -->
<g id="node4" class="node">
<title>n8</title>
<polygon fill="none" stroke="black" points="400.25,-607 327.25,-607 327.25,-571 400.25,-571 400.25,-607"/>
<text text-anchor="middle" x="363.75" y="-583.95" font-family="Times New Roman,serif" font-size="14.00">arg : Cube</text>
<text text-anchor="middle" x="305.12" y="-610.2" font-family="Times New Roman,serif" font-size="14.00">(8)Cube</text>
</g>
<!-- n9&#45;&gt;n8 -->
<g id="edge3" class="edge">
<title>n9&#45;&gt;n8</title>
<path fill="none" stroke="black" d="M397.32,-645.32C392.17,-636.83 385.84,-626.39 380.06,-616.88"/>
<polygon fill="black" stroke="black" points="383.07,-615.08 374.89,-608.35 377.08,-618.72 383.07,-615.08"/>
</g>
<!-- n69 -->
<g id="node5" class="node">
<title>n69</title>
<polygon fill="none" stroke="black" points="740.75,-609.5 418.75,-609.5 418.75,-568.5 740.75,-568.5 740.75,-609.5"/>
<text text-anchor="middle" x="579.75" y="-592.2" font-family="Times New Roman,serif" font-size="14.00">LetExp </text>
<text text-anchor="middle" x="579.75" y="-575.7" font-family="Times New Roman,serif" font-size="14.00">Let node(15), node(21), node(27), node(68) in node(68)</text>
<text text-anchor="middle" x="385" y="-612.7" font-family="Times New Roman,serif" font-size="14.00">(69)Boolean</text>
</g>
<!-- n70&#45;&gt;n69 -->
<g id="edge4" class="edge">
<title>n70&#45;&gt;n69</title>
<path fill="none" stroke="black" d="M562.96,-645.32C565.18,-638.01 567.84,-629.25 570.38,-620.88"/>
<polygon fill="black" stroke="black" points="573.72,-621.92 573.28,-611.33 567.02,-619.88 573.72,-621.92"/>
</g>
<!-- n15 -->
<g id="node6" class="node">
<title>n15</title>
<polygon fill="none" stroke="black" points="243.75,-521.75 189.75,-521.75 189.75,-485.75 243.75,-485.75 243.75,-521.75"/>
<text text-anchor="middle" x="216.75" y="-498.7" font-family="Times New Roman,serif" font-size="14.00">=</text>
<text text-anchor="middle" x="156" y="-524.95" font-family="Times New Roman,serif" font-size="14.00">(15)Boolean</text>
</g>
<!-- n69&#45;&gt;n15 -->
<g id="edge5" class="edge">
<title>n69&#45;&gt;n15</title>
<path fill="none" stroke="black" d="M492.8,-568.06C417.22,-550.72 311.28,-526.43 255.16,-513.56"/>
<polygon fill="black" stroke="black" points="255.97,-510.15 245.44,-511.33 254.41,-516.98 255.97,-510.15"/>
</g>
<!-- n21 -->
<g id="node7" class="node">
<title>n21</title>
<polygon fill="none" stroke="black" points="533.75,-521.75 479.75,-521.75 479.75,-485.75 533.75,-485.75 533.75,-521.75"/>
<text text-anchor="middle" x="506.75" y="-498.7" font-family="Times New Roman,serif" font-size="14.00">=</text>
<text text-anchor="middle" x="446" y="-524.95" font-family="Times New Roman,serif" font-size="14.00">(21)Boolean</text>
</g>
<!-- n69&#45;&gt;n21 -->
<g id="edge6" class="edge">
<title>n69&#45;&gt;n21</title>
<path fill="none" stroke="black" d="M562.45,-568.27C552.54,-556.97 540,-542.67 529.32,-530.49"/>
<polygon fill="black" stroke="black" points="532.17,-528.43 522.94,-523.22 526.9,-533.04 532.17,-528.43"/>
</g>
<!-- n27 -->
<g id="node8" class="node">
<title>n27</title>
<polygon fill="none" stroke="black" points="678.75,-521.75 624.75,-521.75 624.75,-485.75 678.75,-485.75 678.75,-521.75"/>
<text text-anchor="middle" x="651.75" y="-498.7" font-family="Times New Roman,serif" font-size="14.00">=</text>
<text text-anchor="middle" x="591" y="-524.95" font-family="Times New Roman,serif" font-size="14.00">(27)Boolean</text>
</g>
<!-- n69&#45;&gt;n27 -->
<g id="edge7" class="edge">
<title>n69&#45;&gt;n27</title>
<path fill="none" stroke="black" d="M596.81,-568.27C606.58,-556.97 618.96,-542.67 629.49,-530.49"/>
<polygon fill="black" stroke="black" points="631.88,-533.08 635.77,-523.22 626.58,-528.5 631.88,-533.08"/>
</g>
<!-- n68 -->
<g id="node9" class="node">
<title>n68</title>
<polygon fill="none" stroke="black" points="1258.12,-532.5 1049.38,-532.5 1049.38,-475 1258.12,-475 1258.12,-532.5"/>
<text text-anchor="middle" x="1153.75" y="-515.2" font-family="Times New Roman,serif" font-size="14.00">IterateExp</text>
<text text-anchor="middle" x="1153.75" y="-498.7" font-family="Times New Roman,serif" font-size="14.00">source=node(30) Iterator=node(31)</text>
<text text-anchor="middle" x="1153.75" y="-482.2" font-family="Times New Roman,serif" font-size="14.00">Result=node(34) Body=node(67)</text>
<text text-anchor="middle" x="1015.62" y="-535.7" font-family="Times New Roman,serif" font-size="14.00">(68)Boolean</text>
</g>
<!-- n69&#45;&gt;n68 -->
<g id="edge8" class="edge">
<title>n69&#45;&gt;n68</title>
<path fill="none" stroke="black" d="M717.6,-568.01C815.36,-553.83 945.08,-535.01 1037.58,-521.6"/>
<polygon fill="black" stroke="black" points="1038.06,-525.07 1047.46,-520.17 1037.06,-518.14 1038.06,-525.07"/>
</g>
<!-- n14 -->
<g id="node10" class="node">
<title>n14</title>
<polygon fill="none" stroke="black" points="106.75,-428.25 36.75,-428.25 36.75,-392.25 106.75,-392.25 106.75,-428.25"/>
<text text-anchor="middle" x="71.75" y="-405.2" font-family="Times New Roman,serif" font-size="14.00">dim1 : int</text>
<text text-anchor="middle" x="18.38" y="-431.45" font-family="Times New Roman,serif" font-size="14.00">(14)int</text>
</g>
<!-- n15&#45;&gt;n14 -->
<g id="edge9" class="edge">
<title>n15&#45;&gt;n14</title>
<path fill="none" stroke="black" d="M189.48,-485.54C166.74,-471.19 134.11,-450.6 108.97,-434.74"/>
<polygon fill="black" stroke="black" points="111,-431.88 100.67,-429.5 107.26,-437.8 111,-431.88"/>
</g>
<!-- n13 -->
<g id="node11" class="node">
<title>n13</title>
<polygon fill="none" stroke="black" points="308.75,-428.25 124.75,-428.25 124.75,-392.25 308.75,-392.25 308.75,-428.25"/>
<text text-anchor="middle" x="216.75" y="-405.2" font-family="Times New Roman,serif" font-size="14.00">arg.data.getDimensionSizes(1)</text>
<text text-anchor="middle" x="106.38" y="-431.45" font-family="Times New Roman,serif" font-size="14.00">(13)int</text>
</g>
<!-- n15&#45;&gt;n13 -->
<g id="edge10" class="edge">
<title>n15&#45;&gt;n13</title>
<path fill="none" stroke="black" d="M216.75,-485.54C216.75,-472.71 216.75,-454.9 216.75,-439.94"/>
<polygon fill="black" stroke="black" points="220.25,-440.21 216.75,-430.21 213.25,-440.21 220.25,-440.21"/>
</g>
<!-- n20 -->
<g id="node12" class="node">
<title>n20</title>
<polygon fill="none" stroke="black" points="396.75,-428.25 326.75,-428.25 326.75,-392.25 396.75,-392.25 396.75,-428.25"/>
<text text-anchor="middle" x="361.75" y="-405.2" font-family="Times New Roman,serif" font-size="14.00">dim2 : int</text>
<text text-anchor="middle" x="308.38" y="-431.45" font-family="Times New Roman,serif" font-size="14.00">(20)int</text>
</g>
<!-- n21&#45;&gt;n20 -->
<g id="edge11" class="edge">
<title>n21&#45;&gt;n20</title>
<path fill="none" stroke="black" d="M479.48,-485.54C456.74,-471.19 424.11,-450.6 398.97,-434.74"/>
<polygon fill="black" stroke="black" points="401,-431.88 390.67,-429.5 397.26,-437.8 401,-431.88"/>
</g>
<!-- n19 -->
<g id="node13" class="node">
<title>n19</title>
<polygon fill="none" stroke="black" points="598.75,-428.25 414.75,-428.25 414.75,-392.25 598.75,-392.25 598.75,-428.25"/>
<text text-anchor="middle" x="506.75" y="-405.2" font-family="Times New Roman,serif" font-size="14.00">arg.data.getDimensionSizes(2)</text>
<text text-anchor="middle" x="396.38" y="-431.45" font-family="Times New Roman,serif" font-size="14.00">(19)int</text>
</g>
<!-- n21&#45;&gt;n19 -->
<g id="edge12" class="edge">
<title>n21&#45;&gt;n19</title>
<path fill="none" stroke="black" d="M506.75,-485.54C506.75,-472.71 506.75,-454.9 506.75,-439.94"/>
<polygon fill="black" stroke="black" points="510.25,-440.21 506.75,-430.21 503.25,-440.21 510.25,-440.21"/>
</g>
<!-- n26 -->
<g id="node14" class="node">
<title>n26</title>
<polygon fill="none" stroke="black" points="686.75,-428.25 616.75,-428.25 616.75,-392.25 686.75,-392.25 686.75,-428.25"/>
<text text-anchor="middle" x="651.75" y="-405.2" font-family="Times New Roman,serif" font-size="14.00">dim3 : int</text>
<text text-anchor="middle" x="598.38" y="-431.45" font-family="Times New Roman,serif" font-size="14.00">(26)int</text>
</g>
<!-- n27&#45;&gt;n26 -->
<g id="edge13" class="edge">
<title>n27&#45;&gt;n26</title>
<path fill="none" stroke="black" d="M651.75,-485.54C651.75,-472.71 651.75,-454.9 651.75,-439.94"/>
<polygon fill="black" stroke="black" points="655.25,-440.21 651.75,-430.21 648.25,-440.21 655.25,-440.21"/>
</g>
<!-- n25 -->
<g id="node15" class="node">
<title>n25</title>
<polygon fill="none" stroke="black" points="888.75,-428.25 704.75,-428.25 704.75,-392.25 888.75,-392.25 888.75,-428.25"/>
<text text-anchor="middle" x="796.75" y="-405.2" font-family="Times New Roman,serif" font-size="14.00">arg.data.getDimensionSizes(3)</text>
<text text-anchor="middle" x="686.38" y="-431.45" font-family="Times New Roman,serif" font-size="14.00">(25)int</text>
</g>
<!-- n27&#45;&gt;n25 -->
<g id="edge14" class="edge">
<title>n27&#45;&gt;n25</title>
<path fill="none" stroke="black" d="M679.02,-485.54C701.76,-471.19 734.39,-450.6 759.53,-434.74"/>
<polygon fill="black" stroke="black" points="761.24,-437.8 767.83,-429.5 757.5,-431.88 761.24,-437.8"/>
</g>
<!-- n30 -->
<g id="node16" class="node">
<title>n30</title>
<polygon fill="none" stroke="black" points="1108.38,-428.25 907.12,-428.25 907.12,-392.25 1108.38,-392.25 1108.38,-428.25"/>
<text text-anchor="middle" x="1007.75" y="-405.2" font-family="Times New Roman,serif" font-size="14.00">Sequence{ node(28) .. node(29) }</text>
<text text-anchor="middle" x="888.75" y="-431.45" font-family="Times New Roman,serif" font-size="14.00">(30)int</text>
</g>
<!-- n68&#45;&gt;n30 -->
<g id="edge15" class="edge">
<title>n68&#45;&gt;n30</title>
<path fill="none" stroke="black" d="M1108.75,-474.55C1088.35,-461.76 1064.5,-446.82 1045.1,-434.66"/>
<polygon fill="black" stroke="black" points="1047.02,-431.73 1036.69,-429.39 1043.31,-437.66 1047.02,-431.73"/>
</g>
<!-- n31 -->
<g id="node17" class="node">
<title>n31</title>
<polygon fill="none" stroke="black" points="1180.75,-428.25 1126.75,-428.25 1126.75,-392.25 1180.75,-392.25 1180.75,-428.25"/>
<text text-anchor="middle" x="1153.75" y="-405.2" font-family="Times New Roman,serif" font-size="14.00">it : int</text>
<text text-anchor="middle" x="1108.38" y="-431.45" font-family="Times New Roman,serif" font-size="14.00">(31)int</text>
</g>
<!-- n68&#45;&gt;n31 -->
<g id="edge16" class="edge">
<title>n68&#45;&gt;n31</title>
<path fill="none" stroke="black" d="M1153.75,-474.8C1153.75,-463.76 1153.75,-451.09 1153.75,-439.97"/>
<polygon fill="black" stroke="black" points="1157.25,-440.19 1153.75,-430.19 1150.25,-440.19 1157.25,-440.19"/>
</g>
<!-- n34 -->
<g id="node18" class="node">
<title>n34</title>
<polygon fill="none" stroke="black" points="1252.75,-428.25 1198.75,-428.25 1198.75,-392.25 1252.75,-392.25 1252.75,-428.25"/>
<text text-anchor="middle" x="1225.75" y="-405.2" font-family="Times New Roman,serif" font-size="14.00">=</text>
<text text-anchor="middle" x="1165" y="-431.45" font-family="Times New Roman,serif" font-size="14.00">(34)Boolean</text>
</g>
<!-- n68&#45;&gt;n34 -->
<g id="edge17" class="edge">
<title>n68&#45;&gt;n34</title>
<path fill="none" stroke="black" d="M1175.74,-474.8C1185.08,-462.94 1195.9,-449.19 1205.08,-437.52"/>
<polygon fill="black" stroke="black" points="1207.67,-439.89 1211.1,-429.87 1202.16,-435.56 1207.67,-439.89"/>
</g>
<!-- n67 -->
<g id="node19" class="node">
<title>n67</title>
<polygon fill="none" stroke="black" points="1623.12,-439 1414.38,-439 1414.38,-381.5 1623.12,-381.5 1623.12,-439"/>
<text text-anchor="middle" x="1518.75" y="-421.7" font-family="Times New Roman,serif" font-size="14.00">IterateExp</text>
<text text-anchor="middle" x="1518.75" y="-405.2" font-family="Times New Roman,serif" font-size="14.00">source=node(37) Iterator=node(38)</text>
<text text-anchor="middle" x="1518.75" y="-388.7" font-family="Times New Roman,serif" font-size="14.00">Result=node(41) Body=node(66)</text>
<text text-anchor="middle" x="1380.62" y="-442.2" font-family="Times New Roman,serif" font-size="14.00">(67)Boolean</text>
</g>
<!-- n68&#45;&gt;n67 -->
<g id="edge18" class="edge">
<title>n68&#45;&gt;n67</title>
<path fill="none" stroke="black" d="M1258.34,-476.53C1303.59,-465.19 1356.7,-451.87 1403.11,-440.24"/>
<polygon fill="black" stroke="black" points="1403.82,-443.67 1412.67,-437.84 1402.12,-436.88 1403.82,-443.67"/>
</g>
<!-- n11 -->
<g id="node20" class="node">
<title>n11</title>
<polygon fill="none" stroke="black" points="209.5,-334.75 150,-334.75 150,-298.75 209.5,-298.75 209.5,-334.75"/>
<text text-anchor="middle" x="179.75" y="-311.7" font-family="Times New Roman,serif" font-size="14.00">arg.data</text>
<text text-anchor="middle" x="108" y="-337.95" font-family="Times New Roman,serif" font-size="14.00">(11)int[2][2][2]</text>
</g>
<!-- n13&#45;&gt;n11 -->
<g id="edge19" class="edge">
<title>n13&#45;&gt;n11</title>
<path fill="none" stroke="black" d="M209.79,-392.04C204.5,-378.96 197.12,-360.7 190.99,-345.55"/>
<polygon fill="black" stroke="black" points="194.37,-344.56 187.37,-336.6 187.88,-347.18 194.37,-344.56"/>
</g>
<!-- n12 -->
<g id="node21" class="node">
<title>n12</title>
<polygon fill="none" stroke="black" points="281.75,-334.75 227.75,-334.75 227.75,-298.75 281.75,-298.75 281.75,-334.75"/>
<text text-anchor="middle" x="254.75" y="-311.7" font-family="Times New Roman,serif" font-size="14.00">1</text>
<text text-anchor="middle" x="209.38" y="-337.95" font-family="Times New Roman,serif" font-size="14.00">(12)int</text>
</g>
<!-- n13&#45;&gt;n12 -->
<g id="edge20" class="edge">
<title>n13&#45;&gt;n12</title>
<path fill="none" stroke="black" d="M223.9,-392.04C229.33,-378.96 236.91,-360.7 243.2,-345.55"/>
<polygon fill="black" stroke="black" points="246.32,-347.17 246.92,-336.59 239.86,-344.49 246.32,-347.17"/>
</g>
<!-- n17 -->
<g id="node22" class="node">
<title>n17</title>
<polygon fill="none" stroke="black" points="498.5,-334.75 439,-334.75 439,-298.75 498.5,-298.75 498.5,-334.75"/>
<text text-anchor="middle" x="468.75" y="-311.7" font-family="Times New Roman,serif" font-size="14.00">arg.data</text>
<text text-anchor="middle" x="397" y="-337.95" font-family="Times New Roman,serif" font-size="14.00">(17)int[2][2][2]</text>
</g>
<!-- n19&#45;&gt;n17 -->
<g id="edge21" class="edge">
<title>n19&#45;&gt;n17</title>
<path fill="none" stroke="black" d="M499.6,-392.04C494.17,-378.96 486.59,-360.7 480.3,-345.55"/>
<polygon fill="black" stroke="black" points="483.64,-344.49 476.58,-336.59 477.18,-347.17 483.64,-344.49"/>
</g>
<!-- n18 -->
<g id="node23" class="node">
<title>n18</title>
<polygon fill="none" stroke="black" points="570.75,-334.75 516.75,-334.75 516.75,-298.75 570.75,-298.75 570.75,-334.75"/>
<text text-anchor="middle" x="543.75" y="-311.7" font-family="Times New Roman,serif" font-size="14.00">2</text>
<text text-anchor="middle" x="498.38" y="-337.95" font-family="Times New Roman,serif" font-size="14.00">(18)int</text>
</g>
<!-- n19&#45;&gt;n18 -->
<g id="edge22" class="edge">
<title>n19&#45;&gt;n18</title>
<path fill="none" stroke="black" d="M513.71,-392.04C519,-378.96 526.38,-360.7 532.51,-345.55"/>
<polygon fill="black" stroke="black" points="535.62,-347.18 536.13,-336.6 529.13,-344.56 535.62,-347.18"/>
</g>
<!-- n23 -->
<g id="node24" class="node">
<title>n23</title>
<polygon fill="none" stroke="black" points="784.5,-334.75 725,-334.75 725,-298.75 784.5,-298.75 784.5,-334.75"/>
<text text-anchor="middle" x="754.75" y="-311.7" font-family="Times New Roman,serif" font-size="14.00">arg.data</text>
<text text-anchor="middle" x="683" y="-337.95" font-family="Times New Roman,serif" font-size="14.00">(23)int[2][2][2]</text>
</g>
<!-- n25&#45;&gt;n23 -->
<g id="edge23" class="edge">
<title>n25&#45;&gt;n23</title>
<path fill="none" stroke="black" d="M788.85,-392.04C782.85,-378.96 774.46,-360.7 767.51,-345.55"/>
<polygon fill="black" stroke="black" points="770.74,-344.2 763.39,-336.57 764.38,-347.12 770.74,-344.2"/>
</g>
<!-- n24 -->
<g id="node25" class="node">
<title>n24</title>
<polygon fill="none" stroke="black" points="856.75,-334.75 802.75,-334.75 802.75,-298.75 856.75,-298.75 856.75,-334.75"/>
<text text-anchor="middle" x="829.75" y="-311.7" font-family="Times New Roman,serif" font-size="14.00">3</text>
<text text-anchor="middle" x="784.38" y="-337.95" font-family="Times New Roman,serif" font-size="14.00">(24)int</text>
</g>
<!-- n25&#45;&gt;n24 -->
<g id="edge24" class="edge">
<title>n25&#45;&gt;n24</title>
<path fill="none" stroke="black" d="M802.96,-392.04C807.63,-379.09 814.13,-361.05 819.56,-345.99"/>
<polygon fill="black" stroke="black" points="822.84,-347.21 822.95,-336.62 816.26,-344.84 822.84,-347.21"/>
</g>
<!-- n28 -->
<g id="node26" class="node">
<title>n28</title>
<polygon fill="none" stroke="black" points="981.75,-334.75 927.75,-334.75 927.75,-298.75 981.75,-298.75 981.75,-334.75"/>
<text text-anchor="middle" x="954.75" y="-311.7" font-family="Times New Roman,serif" font-size="14.00">1</text>
<text text-anchor="middle" x="909.38" y="-337.95" font-family="Times New Roman,serif" font-size="14.00">(28)int</text>
</g>
<!-- n30&#45;&gt;n28 -->
<g id="edge25" class="edge">
<title>n30&#45;&gt;n28</title>
<path fill="none" stroke="black" d="M997.78,-392.04C990.13,-378.83 979.42,-360.34 970.6,-345.11"/>
<polygon fill="black" stroke="black" points="973.65,-343.4 965.61,-336.5 967.6,-346.91 973.65,-343.4"/>
</g>
<!-- n29 -->
<g id="node27" class="node">
<title>n29</title>
<polygon fill="none" stroke="black" points="1053.75,-334.75 999.75,-334.75 999.75,-298.75 1053.75,-298.75 1053.75,-334.75"/>
<text text-anchor="middle" x="1026.75" y="-311.7" font-family="Times New Roman,serif" font-size="14.00">dim1</text>
<text text-anchor="middle" x="981.38" y="-337.95" font-family="Times New Roman,serif" font-size="14.00">(29)int</text>
</g>
<!-- n30&#45;&gt;n29 -->
<g id="edge26" class="edge">
<title>n30&#45;&gt;n29</title>
<path fill="none" stroke="black" d="M1011.32,-392.04C1013.99,-379.21 1017.69,-361.4 1020.79,-346.44"/>
<polygon fill="black" stroke="black" points="1024.21,-347.18 1022.82,-336.68 1017.36,-345.76 1024.21,-347.18"/>
</g>
<!-- n33 -->
<g id="node28" class="node">
<title>n33</title>
<polygon fill="none" stroke="black" points="1180.88,-334.75 1090.62,-334.75 1090.62,-298.75 1180.88,-298.75 1180.88,-334.75"/>
<text text-anchor="middle" x="1135.75" y="-311.7" font-family="Times New Roman,serif" font-size="14.00">acc : Boolean</text>
<text text-anchor="middle" x="1056.88" y="-337.95" font-family="Times New Roman,serif" font-size="14.00">(33)Boolean</text>
</g>
<!-- n34&#45;&gt;n33 -->
<g id="edge27" class="edge">
<title>n34&#45;&gt;n33</title>
<path fill="none" stroke="black" d="M1208.82,-392.04C1195.33,-378.32 1176.24,-358.91 1160.95,-343.37"/>
<polygon fill="black" stroke="black" points="1163.48,-340.95 1153.97,-336.27 1158.49,-345.86 1163.48,-340.95"/>
</g>
<!-- n32 -->
<g id="node29" class="node">
<title>n32</title>
<polygon fill="none" stroke="black" points="1252.75,-334.75 1198.75,-334.75 1198.75,-298.75 1252.75,-298.75 1252.75,-334.75"/>
<text text-anchor="middle" x="1225.75" y="-311.7" font-family="Times New Roman,serif" font-size="14.00">true</text>
<text text-anchor="middle" x="1165" y="-337.95" font-family="Times New Roman,serif" font-size="14.00">(32)Boolean</text>
</g>
<!-- n34&#45;&gt;n32 -->
<g id="edge28" class="edge">
<title>n34&#45;&gt;n32</title>
<path fill="none" stroke="black" d="M1225.75,-392.04C1225.75,-379.21 1225.75,-361.4 1225.75,-346.44"/>
<polygon fill="black" stroke="black" points="1229.25,-346.71 1225.75,-336.71 1222.25,-346.71 1229.25,-346.71"/>
</g>
<!-- n37 -->
<g id="node30" class="node">
<title>n37</title>
<polygon fill="none" stroke="black" points="1472.38,-334.75 1271.12,-334.75 1271.12,-298.75 1472.38,-298.75 1472.38,-334.75"/>
<text text-anchor="middle" x="1371.75" y="-311.7" font-family="Times New Roman,serif" font-size="14.00">Sequence{ node(35) .. node(36) }</text>
<text text-anchor="middle" x="1252.75" y="-337.95" font-family="Times New Roman,serif" font-size="14.00">(37)int</text>
</g>
<!-- n67&#45;&gt;n37 -->
<g id="edge29" class="edge">
<title>n67&#45;&gt;n37</title>
<path fill="none" stroke="black" d="M1473.45,-381.05C1452.9,-368.26 1428.89,-353.32 1409.36,-341.16"/>
<polygon fill="black" stroke="black" points="1411.22,-338.2 1400.88,-335.88 1407.52,-344.14 1411.22,-338.2"/>
</g>
<!-- n38 -->
<g id="node31" class="node">
<title>n38</title>
<polygon fill="none" stroke="black" points="1546.62,-334.75 1490.88,-334.75 1490.88,-298.75 1546.62,-298.75 1546.62,-334.75"/>
<text text-anchor="middle" x="1518.75" y="-311.7" font-family="Times New Roman,serif" font-size="14.00">it2 : int</text>
<text text-anchor="middle" x="1472.5" y="-337.95" font-family="Times New Roman,serif" font-size="14.00">(38)int</text>
</g>
<!-- n67&#45;&gt;n38 -->
<g id="edge30" class="edge">
<title>n67&#45;&gt;n38</title>
<path fill="none" stroke="black" d="M1518.75,-381.3C1518.75,-370.26 1518.75,-357.59 1518.75,-346.47"/>
<polygon fill="black" stroke="black" points="1522.25,-346.69 1518.75,-336.69 1515.25,-346.69 1522.25,-346.69"/>
</g>
<!-- n41 -->
<g id="node32" class="node">
<title>n41</title>
<polygon fill="none" stroke="black" points="1618.75,-334.75 1564.75,-334.75 1564.75,-298.75 1618.75,-298.75 1618.75,-334.75"/>
<text text-anchor="middle" x="1591.75" y="-311.7" font-family="Times New Roman,serif" font-size="14.00">=</text>
<text text-anchor="middle" x="1531" y="-337.95" font-family="Times New Roman,serif" font-size="14.00">(41)Boolean</text>
</g>
<!-- n67&#45;&gt;n41 -->
<g id="edge31" class="edge">
<title>n67&#45;&gt;n41</title>
<path fill="none" stroke="black" d="M1541.05,-381.3C1550.51,-369.44 1561.48,-355.69 1570.79,-344.02"/>
<polygon fill="black" stroke="black" points="1573.4,-346.36 1576.9,-336.36 1567.93,-342 1573.4,-346.36"/>
</g>
<!-- n66 -->
<g id="node33" class="node">
<title>n66</title>
<polygon fill="none" stroke="black" points="1989.12,-345.5 1780.38,-345.5 1780.38,-288 1989.12,-288 1989.12,-345.5"/>
<text text-anchor="middle" x="1884.75" y="-328.2" font-family="Times New Roman,serif" font-size="14.00">IterateExp</text>
<text text-anchor="middle" x="1884.75" y="-311.7" font-family="Times New Roman,serif" font-size="14.00">source=node(44) Iterator=node(45)</text>
<text text-anchor="middle" x="1884.75" y="-295.2" font-family="Times New Roman,serif" font-size="14.00">Result=node(48) Body=node(65)</text>
<text text-anchor="middle" x="1746.62" y="-348.7" font-family="Times New Roman,serif" font-size="14.00">(66)Boolean</text>
</g>
<!-- n67&#45;&gt;n66 -->
<g id="edge32" class="edge">
<title>n67&#45;&gt;n66</title>
<path fill="none" stroke="black" d="M1623.14,-383.15C1668.62,-371.78 1722.1,-358.41 1768.81,-346.74"/>
<polygon fill="black" stroke="black" points="1769.58,-350.15 1778.43,-344.33 1767.88,-343.36 1769.58,-350.15"/>
</g>
<!-- n10 -->
<g id="node34" class="node">
<title>n10</title>
<polygon fill="none" stroke="black" points="206.75,-252 152.75,-252 152.75,-216 206.75,-216 206.75,-252"/>
<text text-anchor="middle" x="179.75" y="-228.95" font-family="Times New Roman,serif" font-size="14.00">arg</text>
<text text-anchor="middle" x="127.25" y="-255.2" font-family="Times New Roman,serif" font-size="14.00">(10)Cube</text>
</g>
<!-- n11&#45;&gt;n10 -->
<g id="edge33" class="edge">
<title>n11&#45;&gt;n10</title>
<path fill="none" stroke="black" d="M179.75,-298.63C179.75,-288.52 179.75,-275.48 179.75,-263.83"/>
<polygon fill="black" stroke="black" points="183.25,-263.89 179.75,-253.89 176.25,-263.89 183.25,-263.89"/>
</g>
<!-- n16 -->
<g id="node35" class="node">
<title>n16</title>
<polygon fill="none" stroke="black" points="495.75,-252 441.75,-252 441.75,-216 495.75,-216 495.75,-252"/>
<text text-anchor="middle" x="468.75" y="-228.95" font-family="Times New Roman,serif" font-size="14.00">arg</text>
<text text-anchor="middle" x="416.25" y="-255.2" font-family="Times New Roman,serif" font-size="14.00">(16)Cube</text>
</g>
<!-- n17&#45;&gt;n16 -->
<g id="edge34" class="edge">
<title>n17&#45;&gt;n16</title>
<path fill="none" stroke="black" d="M468.75,-298.63C468.75,-288.52 468.75,-275.48 468.75,-263.83"/>
<polygon fill="black" stroke="black" points="472.25,-263.89 468.75,-253.89 465.25,-263.89 472.25,-263.89"/>
</g>
<!-- n22 -->
<g id="node36" class="node">
<title>n22</title>
<polygon fill="none" stroke="black" points="781.75,-252 727.75,-252 727.75,-216 781.75,-216 781.75,-252"/>
<text text-anchor="middle" x="754.75" y="-228.95" font-family="Times New Roman,serif" font-size="14.00">arg</text>
<text text-anchor="middle" x="702.25" y="-255.2" font-family="Times New Roman,serif" font-size="14.00">(22)Cube</text>
</g>
<!-- n23&#45;&gt;n22 -->
<g id="edge35" class="edge">
<title>n23&#45;&gt;n22</title>
<path fill="none" stroke="black" d="M754.75,-298.63C754.75,-288.52 754.75,-275.48 754.75,-263.83"/>
<polygon fill="black" stroke="black" points="758.25,-263.89 754.75,-253.89 751.25,-263.89 758.25,-263.89"/>
</g>
<!-- n35 -->
<g id="node37" class="node">
<title>n35</title>
<polygon fill="none" stroke="black" points="1342.75,-252 1288.75,-252 1288.75,-216 1342.75,-216 1342.75,-252"/>
<text text-anchor="middle" x="1315.75" y="-228.95" font-family="Times New Roman,serif" font-size="14.00">1</text>
<text text-anchor="middle" x="1270.38" y="-255.2" font-family="Times New Roman,serif" font-size="14.00">(35)int</text>
</g>
<!-- n37&#45;&gt;n35 -->
<g id="edge36" class="edge">
<title>n37&#45;&gt;n35</title>
<path fill="none" stroke="black" d="M1359.87,-298.63C1352.43,-287.89 1342.67,-273.82 1334.22,-261.64"/>
<polygon fill="black" stroke="black" points="1337.24,-259.85 1328.66,-253.62 1331.49,-263.83 1337.24,-259.85"/>
</g>
<!-- n36 -->
<g id="node38" class="node">
<title>n36</title>
<polygon fill="none" stroke="black" points="1414.75,-252 1360.75,-252 1360.75,-216 1414.75,-216 1414.75,-252"/>
<text text-anchor="middle" x="1387.75" y="-228.95" font-family="Times New Roman,serif" font-size="14.00">dim2</text>
<text text-anchor="middle" x="1342.38" y="-255.2" font-family="Times New Roman,serif" font-size="14.00">(36)int</text>
</g>
<!-- n37&#45;&gt;n36 -->
<g id="edge37" class="edge">
<title>n37&#45;&gt;n36</title>
<path fill="none" stroke="black" d="M1375.14,-298.63C1377.17,-288.42 1379.78,-275.2 1382.11,-263.46"/>
<polygon fill="black" stroke="black" points="1385.5,-264.35 1384.01,-253.86 1378.64,-262.99 1385.5,-264.35"/>
</g>
<!-- n40 -->
<g id="node39" class="node">
<title>n40</title>
<polygon fill="none" stroke="black" points="1546.25,-252 1449.25,-252 1449.25,-216 1546.25,-216 1546.25,-252"/>
<text text-anchor="middle" x="1497.75" y="-228.95" font-family="Times New Roman,serif" font-size="14.00">acc2 : Boolean</text>
<text text-anchor="middle" x="1415.5" y="-255.2" font-family="Times New Roman,serif" font-size="14.00">(40)Boolean</text>
</g>
<!-- n41&#45;&gt;n40 -->
<g id="edge38" class="edge">
<title>n41&#45;&gt;n40</title>
<path fill="none" stroke="black" d="M1571.82,-298.63C1558.69,-287.35 1541.3,-272.41 1526.67,-259.84"/>
<polygon fill="black" stroke="black" points="1528.99,-257.23 1519.13,-253.36 1524.43,-262.54 1528.99,-257.23"/>
</g>
<!-- n39 -->
<g id="node40" class="node">
<title>n39</title>
<polygon fill="none" stroke="black" points="1618.75,-252 1564.75,-252 1564.75,-216 1618.75,-216 1618.75,-252"/>
<text text-anchor="middle" x="1591.75" y="-228.95" font-family="Times New Roman,serif" font-size="14.00">true</text>
<text text-anchor="middle" x="1531" y="-255.2" font-family="Times New Roman,serif" font-size="14.00">(39)Boolean</text>
</g>
<!-- n41&#45;&gt;n39 -->
<g id="edge39" class="edge">
<title>n41&#45;&gt;n39</title>
<path fill="none" stroke="black" d="M1591.75,-298.63C1591.75,-288.52 1591.75,-275.48 1591.75,-263.83"/>
<polygon fill="black" stroke="black" points="1595.25,-263.89 1591.75,-253.89 1588.25,-263.89 1595.25,-263.89"/>
</g>
<!-- n44 -->
<g id="node41" class="node">
<title>n44</title>
<polygon fill="none" stroke="black" points="1838.38,-252 1637.12,-252 1637.12,-216 1838.38,-216 1838.38,-252"/>
<text text-anchor="middle" x="1737.75" y="-228.95" font-family="Times New Roman,serif" font-size="14.00">Sequence{ node(42) .. node(43) }</text>
<text text-anchor="middle" x="1618.75" y="-255.2" font-family="Times New Roman,serif" font-size="14.00">(44)int</text>
</g>
<!-- n66&#45;&gt;n44 -->
<g id="edge40" class="edge">
<title>n66&#45;&gt;n44</title>
<path fill="none" stroke="black" d="M1833.34,-287.51C1815.65,-277.79 1796.08,-267.04 1779.27,-257.81"/>
<polygon fill="black" stroke="black" points="1780.99,-254.76 1770.54,-253.01 1777.62,-260.89 1780.99,-254.76"/>
</g>
<!-- n45 -->
<g id="node42" class="node">
<title>n45</title>
<polygon fill="none" stroke="black" points="1912.62,-252 1856.88,-252 1856.88,-216 1912.62,-216 1912.62,-252"/>
<text text-anchor="middle" x="1884.75" y="-228.95" font-family="Times New Roman,serif" font-size="14.00">it3 : int</text>
<text text-anchor="middle" x="1838.5" y="-255.2" font-family="Times New Roman,serif" font-size="14.00">(45)int</text>
</g>
<!-- n66&#45;&gt;n45 -->
<g id="edge41" class="edge">
<title>n66&#45;&gt;n45</title>
<path fill="none" stroke="black" d="M1884.75,-287.51C1884.75,-279.75 1884.75,-271.33 1884.75,-263.55"/>
<polygon fill="black" stroke="black" points="1888.25,-263.56 1884.75,-253.56 1881.25,-263.56 1888.25,-263.56"/>
</g>
<!-- n48 -->
<g id="node43" class="node">
<title>n48</title>
<polygon fill="none" stroke="black" points="1984.75,-252 1930.75,-252 1930.75,-216 1984.75,-216 1984.75,-252"/>
<text text-anchor="middle" x="1957.75" y="-228.95" font-family="Times New Roman,serif" font-size="14.00">=</text>
<text text-anchor="middle" x="1897" y="-255.2" font-family="Times New Roman,serif" font-size="14.00">(48)Boolean</text>
</g>
<!-- n66&#45;&gt;n48 -->
<g id="edge42" class="edge">
<title>n66&#45;&gt;n48</title>
<path fill="none" stroke="black" d="M1910.28,-287.51C1918.22,-278.73 1926.91,-269.11 1934.67,-260.53"/>
<polygon fill="black" stroke="black" points="1937.22,-262.93 1941.33,-253.17 1932.02,-258.24 1937.22,-262.93"/>
</g>
<!-- n65 -->
<g id="node44" class="node">
<title>n65</title>
<polygon fill="none" stroke="black" points="2097.75,-252 2043.75,-252 2043.75,-216 2097.75,-216 2097.75,-252"/>
<text text-anchor="middle" x="2070.75" y="-228.95" font-family="Times New Roman,serif" font-size="14.00">=</text>
<text text-anchor="middle" x="2010" y="-255.2" font-family="Times New Roman,serif" font-size="14.00">(65)Boolean</text>
</g>
<!-- n66&#45;&gt;n65 -->
<g id="edge43" class="edge">
<title>n66&#45;&gt;n65</title>
<path fill="none" stroke="black" d="M1949.8,-287.51C1977.6,-275.44 2009.07,-261.78 2032.94,-251.41"/>
<polygon fill="black" stroke="black" points="2034.17,-254.7 2041.95,-247.5 2031.38,-248.28 2034.17,-254.7"/>
</g>
<!-- n42 -->
<g id="node45" class="node">
<title>n42</title>
<polygon fill="none" stroke="black" points="1708.75,-180 1654.75,-180 1654.75,-144 1708.75,-144 1708.75,-180"/>
<text text-anchor="middle" x="1681.75" y="-156.95" font-family="Times New Roman,serif" font-size="14.00">1</text>
<text text-anchor="middle" x="1636.38" y="-183.2" font-family="Times New Roman,serif" font-size="14.00">(42)int</text>
</g>
<!-- n44&#45;&gt;n42 -->
<g id="edge44" class="edge">
<title>n44&#45;&gt;n42</title>
<path fill="none" stroke="black" d="M1723.91,-215.7C1717.46,-207.64 1709.67,-197.89 1702.54,-188.98"/>
<polygon fill="black" stroke="black" points="1705.36,-186.91 1696.38,-181.29 1699.89,-191.28 1705.36,-186.91"/>
</g>
<!-- n43 -->
<g id="node46" class="node">
<title>n43</title>
<polygon fill="none" stroke="black" points="1780.75,-180 1726.75,-180 1726.75,-144 1780.75,-144 1780.75,-180"/>
<text text-anchor="middle" x="1753.75" y="-156.95" font-family="Times New Roman,serif" font-size="14.00">dim3</text>
<text text-anchor="middle" x="1708.38" y="-183.2" font-family="Times New Roman,serif" font-size="14.00">(43)int</text>
</g>
<!-- n44&#45;&gt;n43 -->
<g id="edge45" class="edge">
<title>n44&#45;&gt;n43</title>
<path fill="none" stroke="black" d="M1741.71,-215.7C1743.39,-208.32 1745.4,-199.52 1747.29,-191.25"/>
<polygon fill="black" stroke="black" points="1750.69,-192.11 1749.5,-181.58 1743.86,-190.55 1750.69,-192.11"/>
</g>
<!-- n47 -->
<g id="node47" class="node">
<title>n47</title>
<polygon fill="none" stroke="black" points="1912.25,-180 1815.25,-180 1815.25,-144 1912.25,-144 1912.25,-180"/>
<text text-anchor="middle" x="1863.75" y="-156.95" font-family="Times New Roman,serif" font-size="14.00">acc3 : Boolean</text>
<text text-anchor="middle" x="1781.5" y="-183.2" font-family="Times New Roman,serif" font-size="14.00">(47)Boolean</text>
</g>
<!-- n48&#45;&gt;n47 -->
<g id="edge46" class="edge">
<title>n48&#45;&gt;n47</title>
<path fill="none" stroke="black" d="M1934.51,-215.7C1922.88,-207.03 1908.6,-196.4 1895.93,-186.96"/>
<polygon fill="black" stroke="black" points="1898.37,-184.42 1888.26,-181.25 1894.19,-190.03 1898.37,-184.42"/>
</g>
<!-- n46 -->
<g id="node48" class="node">
<title>n46</title>
<polygon fill="none" stroke="black" points="1984.75,-180 1930.75,-180 1930.75,-144 1984.75,-144 1984.75,-180"/>
<text text-anchor="middle" x="1957.75" y="-156.95" font-family="Times New Roman,serif" font-size="14.00">true</text>
<text text-anchor="middle" x="1897" y="-183.2" font-family="Times New Roman,serif" font-size="14.00">(46)Boolean</text>
</g>
<!-- n48&#45;&gt;n46 -->
<g id="edge47" class="edge">
<title>n48&#45;&gt;n46</title>
<path fill="none" stroke="black" d="M1957.75,-215.7C1957.75,-208.41 1957.75,-199.73 1957.75,-191.54"/>
<polygon fill="black" stroke="black" points="1961.25,-191.62 1957.75,-181.62 1954.25,-191.62 1961.25,-191.62"/>
</g>
<!-- n53 -->
<g id="node49" class="node">
<title>n53</title>
<polygon fill="none" stroke="black" points="2138.38,-180 2003.12,-180 2003.12,-144 2138.38,-144 2138.38,-180"/>
<text text-anchor="middle" x="2070.75" y="-156.95" font-family="Times New Roman,serif" font-size="14.00">result.data[it][it2][it3]</text>
<text text-anchor="middle" x="1984.75" y="-183.2" font-family="Times New Roman,serif" font-size="14.00">(53)int</text>
</g>
<!-- n65&#45;&gt;n53 -->
<g id="edge48" class="edge">
<title>n65&#45;&gt;n53</title>
<path fill="none" stroke="black" d="M2070.75,-215.7C2070.75,-208.41 2070.75,-199.73 2070.75,-191.54"/>
<polygon fill="black" stroke="black" points="2074.25,-191.62 2070.75,-181.62 2067.25,-191.62 2074.25,-191.62"/>
</g>
<!-- n64 -->
<g id="node50" class="node">
<title>n64</title>
<polygon fill="none" stroke="black" points="2276.75,-180 2222.75,-180 2222.75,-144 2276.75,-144 2276.75,-180"/>
<text text-anchor="middle" x="2249.75" y="-156.95" font-family="Times New Roman,serif" font-size="14.00">+</text>
<text text-anchor="middle" x="2204.38" y="-183.2" font-family="Times New Roman,serif" font-size="14.00">(64)int</text>
</g>
<!-- n65&#45;&gt;n64 -->
<g id="edge49" class="edge">
<title>n65&#45;&gt;n64</title>
<path fill="none" stroke="black" d="M2097.94,-222.37C2128.29,-210.5 2177.64,-191.2 2211.8,-177.84"/>
<polygon fill="black" stroke="black" points="2212.86,-181.18 2220.9,-174.28 2210.31,-174.67 2212.86,-181.18"/>
</g>
<!-- n49 -->
<g id="node51" class="node">
<title>n49</title>
<polygon fill="none" stroke="black" points="1953.75,-108 1899.75,-108 1899.75,-72 1953.75,-72 1953.75,-108"/>
<text text-anchor="middle" x="1926.75" y="-84.95" font-family="Times New Roman,serif" font-size="14.00">result</text>
<text text-anchor="middle" x="1874.25" y="-111.2" font-family="Times New Roman,serif" font-size="14.00">(49)Cube</text>
</g>
<!-- n53&#45;&gt;n49 -->
<g id="edge50" class="edge">
<title>n53&#45;&gt;n49</title>
<path fill="none" stroke="black" d="M2034.78,-143.52C2013.31,-133.08 1986.07,-119.83 1964.31,-109.26"/>
<polygon fill="black" stroke="black" points="1966.01,-106.19 1955.49,-104.97 1962.95,-112.49 1966.01,-106.19"/>
</g>
<!-- n50 -->
<g id="node52" class="node">
<title>n50</title>
<polygon fill="none" stroke="black" points="2025.75,-108 1971.75,-108 1971.75,-72 2025.75,-72 2025.75,-108"/>
<text text-anchor="middle" x="1998.75" y="-84.95" font-family="Times New Roman,serif" font-size="14.00">it</text>
<text text-anchor="middle" x="1953.38" y="-111.2" font-family="Times New Roman,serif" font-size="14.00">(50)int</text>
</g>
<!-- n53&#45;&gt;n50 -->
<g id="edge51" class="edge">
<title>n53&#45;&gt;n50</title>
<path fill="none" stroke="black" d="M2052.95,-143.7C2044.47,-135.45 2034.16,-125.43 2024.82,-116.35"/>
<polygon fill="black" stroke="black" points="2027.29,-113.86 2017.68,-109.4 2022.41,-118.88 2027.29,-113.86"/>
</g>
<!-- n51 -->
<g id="node53" class="node">
<title>n51</title>
<polygon fill="none" stroke="black" points="2097.75,-108 2043.75,-108 2043.75,-72 2097.75,-72 2097.75,-108"/>
<text text-anchor="middle" x="2070.75" y="-84.95" font-family="Times New Roman,serif" font-size="14.00">it2</text>
<text text-anchor="middle" x="2025.38" y="-111.2" font-family="Times New Roman,serif" font-size="14.00">(51)int</text>
</g>
<!-- n53&#45;&gt;n51 -->
<g id="edge52" class="edge">
<title>n53&#45;&gt;n51</title>
<path fill="none" stroke="black" d="M2070.75,-143.7C2070.75,-136.41 2070.75,-127.73 2070.75,-119.54"/>
<polygon fill="black" stroke="black" points="2074.25,-119.62 2070.75,-109.62 2067.25,-119.62 2074.25,-119.62"/>
</g>
<!-- n52 -->
<g id="node54" class="node">
<title>n52</title>
<polygon fill="none" stroke="black" points="2169.75,-108 2115.75,-108 2115.75,-72 2169.75,-72 2169.75,-108"/>
<text text-anchor="middle" x="2142.75" y="-84.95" font-family="Times New Roman,serif" font-size="14.00">it3</text>
<text text-anchor="middle" x="2097.38" y="-111.2" font-family="Times New Roman,serif" font-size="14.00">(52)int</text>
</g>
<!-- n53&#45;&gt;n52 -->
<g id="edge53" class="edge">
<title>n53&#45;&gt;n52</title>
<path fill="none" stroke="black" d="M2088.55,-143.7C2097.03,-135.45 2107.34,-125.43 2116.68,-116.35"/>
<polygon fill="black" stroke="black" points="2119.09,-118.88 2123.82,-109.4 2114.21,-113.86 2119.09,-118.88"/>
</g>
<!-- n58 -->
<g id="node55" class="node">
<title>n58</title>
<polygon fill="none" stroke="black" points="2312.12,-108 2187.38,-108 2187.38,-72 2312.12,-72 2312.12,-108"/>
<text text-anchor="middle" x="2249.75" y="-84.95" font-family="Times New Roman,serif" font-size="14.00">self.data[it][it2][it3]</text>
<text text-anchor="middle" x="2169" y="-111.2" font-family="Times New Roman,serif" font-size="14.00">(58)int</text>
</g>
<!-- n64&#45;&gt;n58 -->
<g id="edge54" class="edge">
<title>n64&#45;&gt;n58</title>
<path fill="none" stroke="black" d="M2249.75,-143.7C2249.75,-136.41 2249.75,-127.73 2249.75,-119.54"/>
<polygon fill="black" stroke="black" points="2253.25,-119.62 2249.75,-109.62 2246.25,-119.62 2253.25,-119.62"/>
</g>
<!-- n63 -->
<g id="node56" class="node">
<title>n63</title>
<polygon fill="none" stroke="black" points="2527,-108 2404.5,-108 2404.5,-72 2527,-72 2527,-108"/>
<text text-anchor="middle" x="2465.75" y="-84.95" font-family="Times New Roman,serif" font-size="14.00">arg.data[it][it2][it3]</text>
<text text-anchor="middle" x="2386.12" y="-111.2" font-family="Times New Roman,serif" font-size="14.00">(63)int</text>
</g>
<!-- n64&#45;&gt;n63 -->
<g id="edge55" class="edge">
<title>n64&#45;&gt;n63</title>
<path fill="none" stroke="black" d="M2277.11,-152.13C2308.16,-142.07 2359.88,-125.31 2401.32,-111.88"/>
<polygon fill="black" stroke="black" points="2402.29,-115.25 2410.72,-108.83 2400.13,-108.59 2402.29,-115.25"/>
</g>
<!-- n54 -->
<g id="node57" class="node">
<title>n54</title>
<polygon fill="none" stroke="black" points="2132.75,-36 2078.75,-36 2078.75,0 2132.75,0 2132.75,-36"/>
<text text-anchor="middle" x="2105.75" y="-12.95" font-family="Times New Roman,serif" font-size="14.00">self</text>
<text text-anchor="middle" x="2053.25" y="-39.2" font-family="Times New Roman,serif" font-size="14.00">(54)Cube</text>
</g>
<!-- n58&#45;&gt;n54 -->
<g id="edge56" class="edge">
<title>n58&#45;&gt;n54</title>
<path fill="none" stroke="black" d="M2213.78,-71.52C2192.31,-61.08 2165.07,-47.83 2143.31,-37.26"/>
<polygon fill="black" stroke="black" points="2145.01,-34.19 2134.49,-32.97 2141.95,-40.49 2145.01,-34.19"/>
</g>
<!-- n55 -->
<g id="node58" class="node">
<title>n55</title>
<polygon fill="none" stroke="black" points="2204.75,-36 2150.75,-36 2150.75,0 2204.75,0 2204.75,-36"/>
<text text-anchor="middle" x="2177.75" y="-12.95" font-family="Times New Roman,serif" font-size="14.00">it</text>
<text text-anchor="middle" x="2132.38" y="-39.2" font-family="Times New Roman,serif" font-size="14.00">(55)int</text>
</g>
<!-- n58&#45;&gt;n55 -->
<g id="edge57" class="edge">
<title>n58&#45;&gt;n55</title>
<path fill="none" stroke="black" d="M2231.95,-71.7C2223.47,-63.45 2213.16,-53.43 2203.82,-44.35"/>
<polygon fill="black" stroke="black" points="2206.29,-41.86 2196.68,-37.4 2201.41,-46.88 2206.29,-41.86"/>
</g>
<!-- n56 -->
<g id="node59" class="node">
<title>n56</title>
<polygon fill="none" stroke="black" points="2276.75,-36 2222.75,-36 2222.75,0 2276.75,0 2276.75,-36"/>
<text text-anchor="middle" x="2249.75" y="-12.95" font-family="Times New Roman,serif" font-size="14.00">it2</text>
<text text-anchor="middle" x="2204.38" y="-39.2" font-family="Times New Roman,serif" font-size="14.00">(56)int</text>
</g>
<!-- n58&#45;&gt;n56 -->
<g id="edge58" class="edge">
<title>n58&#45;&gt;n56</title>
<path fill="none" stroke="black" d="M2249.75,-71.7C2249.75,-64.41 2249.75,-55.73 2249.75,-47.54"/>
<polygon fill="black" stroke="black" points="2253.25,-47.62 2249.75,-37.62 2246.25,-47.62 2253.25,-47.62"/>
</g>
<!-- n57 -->
<g id="node60" class="node">
<title>n57</title>
<polygon fill="none" stroke="black" points="2348.75,-36 2294.75,-36 2294.75,0 2348.75,0 2348.75,-36"/>
<text text-anchor="middle" x="2321.75" y="-12.95" font-family="Times New Roman,serif" font-size="14.00">it3</text>
<text text-anchor="middle" x="2276.38" y="-39.2" font-family="Times New Roman,serif" font-size="14.00">(57)int</text>
</g>
<!-- n58&#45;&gt;n57 -->
<g id="edge59" class="edge">
<title>n58&#45;&gt;n57</title>
<path fill="none" stroke="black" d="M2267.55,-71.7C2276.03,-63.45 2286.34,-53.43 2295.68,-44.35"/>
<polygon fill="black" stroke="black" points="2298.09,-46.88 2302.82,-37.4 2293.21,-41.86 2298.09,-46.88"/>
</g>
<!-- n59 -->
<g id="node61" class="node">
<title>n59</title>
<polygon fill="none" stroke="black" points="2420.75,-36 2366.75,-36 2366.75,0 2420.75,0 2420.75,-36"/>
<text text-anchor="middle" x="2393.75" y="-12.95" font-family="Times New Roman,serif" font-size="14.00">arg</text>
<text text-anchor="middle" x="2341.25" y="-39.2" font-family="Times New Roman,serif" font-size="14.00">(59)Cube</text>
</g>
<!-- n63&#45;&gt;n59 -->
<g id="edge60" class="edge">
<title>n63&#45;&gt;n59</title>
<path fill="none" stroke="black" d="M2447.95,-71.7C2439.47,-63.45 2429.16,-53.43 2419.82,-44.35"/>
<polygon fill="black" stroke="black" points="2422.29,-41.86 2412.68,-37.4 2417.41,-46.88 2422.29,-41.86"/>
</g>
<!-- n60 -->
<g id="node62" class="node">
<title>n60</title>
<polygon fill="none" stroke="black" points="2492.75,-36 2438.75,-36 2438.75,0 2492.75,0 2492.75,-36"/>
<text text-anchor="middle" x="2465.75" y="-12.95" font-family="Times New Roman,serif" font-size="14.00">it</text>
<text text-anchor="middle" x="2420.38" y="-39.2" font-family="Times New Roman,serif" font-size="14.00">(60)int</text>
</g>
<!-- n63&#45;&gt;n60 -->
<g id="edge61" class="edge">
<title>n63&#45;&gt;n60</title>
<path fill="none" stroke="black" d="M2465.75,-71.7C2465.75,-64.41 2465.75,-55.73 2465.75,-47.54"/>
<polygon fill="black" stroke="black" points="2469.25,-47.62 2465.75,-37.62 2462.25,-47.62 2469.25,-47.62"/>
</g>
<!-- n61 -->
<g id="node63" class="node">
<title>n61</title>
<polygon fill="none" stroke="black" points="2564.75,-36 2510.75,-36 2510.75,0 2564.75,0 2564.75,-36"/>
<text text-anchor="middle" x="2537.75" y="-12.95" font-family="Times New Roman,serif" font-size="14.00">it2</text>
<text text-anchor="middle" x="2492.38" y="-39.2" font-family="Times New Roman,serif" font-size="14.00">(61)int</text>
</g>
<!-- n63&#45;&gt;n61 -->
<g id="edge62" class="edge">
<title>n63&#45;&gt;n61</title>
<path fill="none" stroke="black" d="M2483.55,-71.7C2492.03,-63.45 2502.34,-53.43 2511.68,-44.35"/>
<polygon fill="black" stroke="black" points="2514.09,-46.88 2518.82,-37.4 2509.21,-41.86 2514.09,-46.88"/>
</g>
<!-- n62 -->
<g id="node64" class="node">
<title>n62</title>
<polygon fill="none" stroke="black" points="2636.75,-36 2582.75,-36 2582.75,0 2636.75,0 2636.75,-36"/>
<text text-anchor="middle" x="2609.75" y="-12.95" font-family="Times New Roman,serif" font-size="14.00">it3</text>
<text text-anchor="middle" x="2564.38" y="-39.2" font-family="Times New Roman,serif" font-size="14.00">(62)int</text>
</g>
<!-- n63&#45;&gt;n62 -->
<g id="edge63" class="edge">
<title>n63&#45;&gt;n62</title>
<path fill="none" stroke="black" d="M2501.72,-71.52C2523.19,-61.08 2550.43,-47.83 2572.19,-37.26"/>
<polygon fill="black" stroke="black" points="2573.55,-40.49 2581.01,-32.97 2570.49,-34.19 2573.55,-40.49"/>
</g>
</g>
</svg>
