<?xml version="1.0" encoding="UTF-8" standalone="no"?>
<!DOCTYPE svg PUBLIC "-//W3C//DTD SVG 1.1//EN"
 "http://www.w3.org/Graphics/SVG/1.1/DTD/svg11.dtd">
<!-- Generated by graphviz version 12.2.1 (20241206.2353)
 -->
<!-- Title: AST Pages: 1 -->
<svg width="411pt" height="349pt"
 viewBox="0.00 0.00 411.38 348.50" xmlns="http://www.w3.org/2000/svg" xmlns:xlink="http://www.w3.org/1999/xlink">
<g id="graph0" class="graph" transform="scale(1 1) rotate(0) translate(4 344.5)">
<title>AST</title>
<polygon fill="white" stroke="none" points="-4,4 -4,-344.5 407.38,-344.5 407.38,4 -4,4"/>
<!-- n242 -->
<g id="node1" class="node">
<title>n242</title>
<polygon fill="none" stroke="black" points="376.75,-324 116.25,-324 116.25,-288 376.75,-288 376.75,-324"/>
<text text-anchor="middle" x="246.5" y="-300.95" font-family="Times New Roman,serif" font-size="14.00">ContextDecl: node(236) Context: node (241)</text>
<text text-anchor="middle" x="101.62" y="-327.2" font-family="Times New Roman,serif" font-size="14.00">(242)</text>
</g>
<!-- n236 -->
<g id="node2" class="node">
<title>n236</title>
<polygon fill="none" stroke="black" points="289.75,-252 29.25,-252 29.25,-216 289.75,-216 289.75,-252"/>
<text text-anchor="middle" x="159.5" y="-228.95" font-family="Times New Roman,serif" font-size="14.00">TwoDimVarArray::getData() : int[dim][dim]</text>
<text text-anchor="middle" x="14.62" y="-255.2" font-family="Times New Roman,serif" font-size="14.00">(236)</text>
</g>
<!-- n242&#45;&gt;n236 -->
<g id="edge1" class="edge">
<title>n242&#45;&gt;n236</title>
<path fill="none" stroke="black" d="M224.99,-287.7C214.43,-279.2 201.52,-268.81 189.97,-259.51"/>
<polygon fill="black" stroke="black" points="192.22,-256.84 182.24,-253.3 187.84,-262.29 192.22,-256.84"/>
</g>
<!-- n241 -->
<g id="node3" class="node">
<title>n241</title>
<polygon fill="none" stroke="black" points="361.5,-252 307.5,-252 307.5,-216 361.5,-216 361.5,-252"/>
<text text-anchor="middle" x="334.5" y="-228.95" font-family="Times New Roman,serif" font-size="14.00"> post:</text>
<text text-anchor="middle" x="270.38" y="-255.2" font-family="Times New Roman,serif" font-size="14.00">(241)Boolean</text>
</g>
<!-- n242&#45;&gt;n241 -->
<g id="edge2" class="edge">
<title>n242&#45;&gt;n241</title>
<path fill="none" stroke="black" d="M268.25,-287.7C278.94,-279.2 291.99,-268.81 303.68,-259.51"/>
<polygon fill="black" stroke="black" points="305.86,-262.25 311.51,-253.29 301.5,-256.78 305.86,-262.25"/>
</g>
<!-- n240 -->
<g id="node4" class="node">
<title>n240</title>
<polygon fill="none" stroke="black" points="361.5,-180 307.5,-180 307.5,-144 361.5,-144 361.5,-180"/>
<text text-anchor="middle" x="334.5" y="-156.95" font-family="Times New Roman,serif" font-size="14.00">=</text>
<text text-anchor="middle" x="270.38" y="-183.2" font-family="Times New Roman,serif" font-size="14.00">(240)Boolean</text>
</g>
<!-- n241&#45;&gt;n240 -->
<g id="edge3" class="edge">
<title>n241&#45;&gt;n240</title>
<path fill="none" stroke="black" d="M334.5,-215.7C334.5,-208.41 334.5,-199.73 334.5,-191.54"/>
<polygon fill="black" stroke="black" points="338,-191.62 334.5,-181.62 331,-191.62 338,-191.62"/>
</g>
<!-- n237 -->
<g id="node5" class="node">
<title>n237</title>
<polygon fill="none" stroke="black" points="323.5,-108 269.5,-108 269.5,-72 323.5,-72 323.5,-108"/>
<text text-anchor="middle" x="296.5" y="-84.95" font-family="Times New Roman,serif" font-size="14.00">result</text>
<text text-anchor="middle" x="217" y="-111.2" font-family="Times New Roman,serif" font-size="14.00">(237)int[dim][dim]</text>
</g>
<!-- n240&#45;&gt;n237 -->
<g id="edge4" class="edge">
<title>n240&#45;&gt;n237</title>
<path fill="none" stroke="black" d="M325.11,-143.7C320.92,-135.98 315.89,-126.71 311.22,-118.11"/>
<polygon fill="black" stroke="black" points="314.35,-116.55 306.51,-109.43 308.2,-119.89 314.35,-116.55"/>
</g>
<!-- n239 -->
<g id="node6" class="node">
<title>n239</title>
<polygon fill="none" stroke="black" points="403.38,-108 341.62,-108 341.62,-72 403.38,-72 403.38,-108"/>
<text text-anchor="middle" x="372.5" y="-84.95" font-family="Times New Roman,serif" font-size="14.00">self.data</text>
<text text-anchor="middle" x="289.12" y="-58.7" font-family="Times New Roman,serif" font-size="14.00">(239)int[dim][dim]</text>
</g>
<!-- n240&#45;&gt;n239 -->
<g id="edge5" class="edge">
<title>n240&#45;&gt;n239</title>
<path fill="none" stroke="black" d="M343.89,-143.7C348.08,-135.98 353.11,-126.71 357.78,-118.11"/>
<polygon fill="black" stroke="black" points="360.8,-119.89 362.49,-109.43 354.65,-116.55 360.8,-119.89"/>
</g>
<!-- n238 -->
<g id="node7" class="node">
<title>n238</title>
<polygon fill="none" stroke="black" points="399.5,-36 345.5,-36 345.5,0 399.5,0 399.5,-36"/>
<text text-anchor="middle" x="372.5" y="-12.95" font-family="Times New Roman,serif" font-size="14.00">self</text>
<text text-anchor="middle" x="281.38" y="-39.2" font-family="Times New Roman,serif" font-size="14.00">(238)TwoDimVarArray</text>
</g>
<!-- n239&#45;&gt;n238 -->
<g id="edge6" class="edge">
<title>n239&#45;&gt;n238</title>
<path fill="none" stroke="black" d="M372.5,-71.7C372.5,-64.41 372.5,-55.73 372.5,-47.54"/>
<polygon fill="black" stroke="black" points="376,-47.62 372.5,-37.62 369,-47.62 376,-47.62"/>
</g>
</g>
</svg>
