<?xml version="1.0" encoding="UTF-8" standalone="no"?>
<!DOCTYPE svg PUBLIC "-//W3C//DTD SVG 1.1//EN"
 "http://www.w3.org/Graphics/SVG/1.1/DTD/svg11.dtd">
<!-- Generated by graphviz version 12.2.1 (20241206.2353)
 -->
<!-- Title: AST Pages: 1 -->
<svg width="327pt" height="349pt"
 viewBox="0.00 0.00 327.00 348.50" xmlns="http://www.w3.org/2000/svg" xmlns:xlink="http://www.w3.org/1999/xlink">
<g id="graph0" class="graph" transform="scale(1 1) rotate(0) translate(4 344.5)">
<title>AST</title>
<polygon fill="white" stroke="none" points="-4,4 -4,-344.5 323,-344.5 323,4 -4,4"/>
<!-- n142 -->
<g id="node1" class="node">
<title>n142</title>
<polygon fill="none" stroke="black" points="313.38,-324 52.88,-324 52.88,-288 313.38,-288 313.38,-324"/>
<text text-anchor="middle" x="183.12" y="-300.95" font-family="Times New Roman,serif" font-size="14.00">ContextDecl: node(136) Context: node (141)</text>
<text text-anchor="middle" x="38.25" y="-327.2" font-family="Times New Roman,serif" font-size="14.00">(142)</text>
</g>
<!-- n136 -->
<g id="node2" class="node">
<title>n136</title>
<polygon fill="none" stroke="black" points="205,-252 29.25,-252 29.25,-216 205,-216 205,-252"/>
<text text-anchor="middle" x="117.12" y="-228.95" font-family="Times New Roman,serif" font-size="14.00">Cube::getData() : int[2][2][2]</text>
<text text-anchor="middle" x="14.62" y="-255.2" font-family="Times New Roman,serif" font-size="14.00">(136)</text>
</g>
<!-- n142&#45;&gt;n136 -->
<g id="edge1" class="edge">
<title>n142&#45;&gt;n136</title>
<path fill="none" stroke="black" d="M166.81,-287.7C159.06,-279.47 149.64,-269.48 141.09,-260.42"/>
<polygon fill="black" stroke="black" points="143.7,-258.08 134.29,-253.21 138.6,-262.88 143.7,-258.08"/>
</g>
<!-- n141 -->
<g id="node3" class="node">
<title>n141</title>
<polygon fill="none" stroke="black" points="277.12,-252 223.12,-252 223.12,-216 277.12,-216 277.12,-252"/>
<text text-anchor="middle" x="250.12" y="-228.95" font-family="Times New Roman,serif" font-size="14.00"> post:</text>
<text text-anchor="middle" x="186" y="-255.2" font-family="Times New Roman,serif" font-size="14.00">(141)Boolean</text>
</g>
<!-- n142&#45;&gt;n141 -->
<g id="edge2" class="edge">
<title>n142&#45;&gt;n141</title>
<path fill="none" stroke="black" d="M199.69,-287.7C207.56,-279.47 217.12,-269.48 225.79,-260.42"/>
<polygon fill="black" stroke="black" points="228.32,-262.84 232.71,-253.2 223.26,-258 228.32,-262.84"/>
</g>
<!-- n140 -->
<g id="node4" class="node">
<title>n140</title>
<polygon fill="none" stroke="black" points="277.12,-180 223.12,-180 223.12,-144 277.12,-144 277.12,-180"/>
<text text-anchor="middle" x="250.12" y="-156.95" font-family="Times New Roman,serif" font-size="14.00">=</text>
<text text-anchor="middle" x="186" y="-183.2" font-family="Times New Roman,serif" font-size="14.00">(140)Boolean</text>
</g>
<!-- n141&#45;&gt;n140 -->
<g id="edge3" class="edge">
<title>n141&#45;&gt;n140</title>
<path fill="none" stroke="black" d="M250.12,-215.7C250.12,-208.41 250.12,-199.73 250.12,-191.54"/>
<polygon fill="black" stroke="black" points="253.63,-191.62 250.13,-181.62 246.63,-191.62 253.63,-191.62"/>
</g>
<!-- n137 -->
<g id="node5" class="node">
<title>n137</title>
<polygon fill="none" stroke="black" points="239.12,-108 185.12,-108 185.12,-72 239.12,-72 239.12,-108"/>
<text text-anchor="middle" x="212.12" y="-84.95" font-family="Times New Roman,serif" font-size="14.00">result</text>
<text text-anchor="middle" x="139.75" y="-111.2" font-family="Times New Roman,serif" font-size="14.00">(137)int[2][2][2]</text>
</g>
<!-- n140&#45;&gt;n137 -->
<g id="edge4" class="edge">
<title>n140&#45;&gt;n137</title>
<path fill="none" stroke="black" d="M240.73,-143.7C236.54,-135.98 231.51,-126.71 226.84,-118.11"/>
<polygon fill="black" stroke="black" points="229.98,-116.55 222.13,-109.43 223.83,-119.89 229.98,-116.55"/>
</g>
<!-- n139 -->
<g id="node6" class="node">
<title>n139</title>
<polygon fill="none" stroke="black" points="319,-108 257.25,-108 257.25,-72 319,-72 319,-108"/>
<text text-anchor="middle" x="288.12" y="-84.95" font-family="Times New Roman,serif" font-size="14.00">self.data</text>
<text text-anchor="middle" x="211.88" y="-58.7" font-family="Times New Roman,serif" font-size="14.00">(139)int[2][2][2]</text>
</g>
<!-- n140&#45;&gt;n139 -->
<g id="edge5" class="edge">
<title>n140&#45;&gt;n139</title>
<path fill="none" stroke="black" d="M259.52,-143.7C263.71,-135.98 268.74,-126.71 273.41,-118.11"/>
<polygon fill="black" stroke="black" points="276.42,-119.89 278.12,-109.43 270.27,-116.55 276.42,-119.89"/>
</g>
<!-- n138 -->
<g id="node7" class="node">
<title>n138</title>
<polygon fill="none" stroke="black" points="315.12,-36 261.12,-36 261.12,0 315.12,0 315.12,-36"/>
<text text-anchor="middle" x="288.12" y="-12.95" font-family="Times New Roman,serif" font-size="14.00">self</text>
<text text-anchor="middle" x="232.25" y="-39.2" font-family="Times New Roman,serif" font-size="14.00">(138)Cube</text>
</g>
<!-- n139&#45;&gt;n138 -->
<g id="edge6" class="edge">
<title>n139&#45;&gt;n138</title>
<path fill="none" stroke="black" d="M288.12,-71.7C288.12,-64.41 288.12,-55.73 288.12,-47.54"/>
<polygon fill="black" stroke="black" points="291.63,-47.62 288.13,-37.62 284.63,-47.62 291.63,-47.62"/>
</g>
</g>
</svg>
