<?xml version="1.0" encoding="UTF-8" standalone="no"?>
<!DOCTYPE svg PUBLIC "-//W3C//DTD SVG 1.1//EN"
 "http://www.w3.org/Graphics/SVG/1.1/DTD/svg11.dtd">
<!-- Generated by graphviz version 12.2.1 (20241206.2353)
 -->
<!-- Title: AST Pages: 1 -->
<svg width="263pt" height="349pt"
 viewBox="0.00 0.00 263.38 348.50" xmlns="http://www.w3.org/2000/svg" xmlns:xlink="http://www.w3.org/1999/xlink">
<g id="graph0" class="graph" transform="scale(1 1) rotate(0) translate(4 344.5)">
<title>AST</title>
<polygon fill="white" stroke="none" points="-4,4 -4,-344.5 259.38,-344.5 259.38,4 -4,4"/>
<!-- n91 -->
<g id="node1" class="node">
<title>n91</title>
<polygon fill="none" stroke="black" points="255.38,-324 60.88,-324 60.88,-288 255.38,-288 255.38,-324"/>
<text text-anchor="middle" x="158.12" y="-300.95" font-family="Times New Roman,serif" font-size="14.00">ContextDecl: node(90) Context: </text>
<text text-anchor="middle" x="49.62" y="-327.2" font-family="Times New Roman,serif" font-size="14.00">(91)</text>
</g>
<!-- n90 -->
<g id="node2" class="node">
<title>n90</title>
<polygon fill="none" stroke="black" points="185.12,-252 131.12,-252 131.12,-216 185.12,-216 185.12,-252"/>
<text text-anchor="middle" x="158.12" y="-228.95" font-family="Times New Roman,serif" font-size="14.00"> post:</text>
<text text-anchor="middle" x="97.38" y="-255.2" font-family="Times New Roman,serif" font-size="14.00">(90)Boolean</text>
</g>
<!-- n91&#45;&gt;n90 -->
<g id="edge1" class="edge">
<title>n91&#45;&gt;n90</title>
<path fill="none" stroke="black" d="M158.12,-287.7C158.12,-280.41 158.12,-271.73 158.12,-263.54"/>
<polygon fill="black" stroke="black" points="161.63,-263.62 158.13,-253.62 154.63,-263.62 161.63,-263.62"/>
</g>
<!-- n89 -->
<g id="node3" class="node">
<title>n89</title>
<polygon fill="none" stroke="black" points="185.12,-180 131.12,-180 131.12,-144 185.12,-144 185.12,-180"/>
<text text-anchor="middle" x="158.12" y="-156.95" font-family="Times New Roman,serif" font-size="14.00">=</text>
<text text-anchor="middle" x="97.38" y="-183.2" font-family="Times New Roman,serif" font-size="14.00">(89)Boolean</text>
</g>
<!-- n90&#45;&gt;n89 -->
<g id="edge2" class="edge">
<title>n90&#45;&gt;n89</title>
<path fill="none" stroke="black" d="M158.12,-215.7C158.12,-208.41 158.12,-199.73 158.12,-191.54"/>
<polygon fill="black" stroke="black" points="161.63,-191.62 158.13,-181.62 154.63,-191.62 161.63,-191.62"/>
</g>
<!-- n86 -->
<g id="node4" class="node">
<title>n86</title>
<polygon fill="none" stroke="black" points="151,-108 77.25,-108 77.25,-72 151,-72 151,-108"/>
<text text-anchor="middle" x="114.12" y="-84.95" font-family="Times New Roman,serif" font-size="14.00">ErrorNode</text>
<text text-anchor="middle" x="38.62" y="-111.2" font-family="Times New Roman,serif" font-size="14.00">(86)INVALID</text>
</g>
<!-- n89&#45;&gt;n86 -->
<g id="edge3" class="edge">
<title>n89&#45;&gt;n86</title>
<path fill="none" stroke="black" d="M147.25,-143.7C142.35,-135.9 136.44,-126.51 130.99,-117.83"/>
<polygon fill="black" stroke="black" points="133.97,-115.99 125.68,-109.39 128.04,-119.71 133.97,-115.99"/>
</g>
<!-- n88 -->
<g id="node5" class="node">
<title>n88</title>
<polygon fill="none" stroke="black" points="235.62,-108 168.62,-108 168.62,-72 235.62,-72 235.62,-108"/>
<text text-anchor="middle" x="202.12" y="-84.95" font-family="Times New Roman,serif" font-size="14.00">self.datas</text>
<text text-anchor="middle" x="142.38" y="-111.2" font-family="Times New Roman,serif" font-size="14.00">(88)int[5]</text>
</g>
<!-- n89&#45;&gt;n88 -->
<g id="edge4" class="edge">
<title>n89&#45;&gt;n88</title>
<path fill="none" stroke="black" d="M169,-143.7C173.9,-135.9 179.81,-126.51 185.26,-117.83"/>
<polygon fill="black" stroke="black" points="188.21,-119.71 190.57,-109.39 182.28,-115.99 188.21,-119.71"/>
</g>
<!-- n87 -->
<g id="node6" class="node">
<title>n87</title>
<polygon fill="none" stroke="black" points="229.12,-36 175.12,-36 175.12,0 229.12,0 229.12,-36"/>
<text text-anchor="middle" x="202.12" y="-12.95" font-family="Times New Roman,serif" font-size="14.00">self</text>
<text text-anchor="middle" x="148.12" y="-39.2" font-family="Times New Roman,serif" font-size="14.00">(87)Array</text>
</g>
<!-- n88&#45;&gt;n87 -->
<g id="edge5" class="edge">
<title>n88&#45;&gt;n87</title>
<path fill="none" stroke="black" d="M202.12,-71.7C202.12,-64.41 202.12,-55.73 202.12,-47.54"/>
<polygon fill="black" stroke="black" points="205.63,-47.62 202.13,-37.62 198.63,-47.62 205.63,-47.62"/>
</g>
</g>
</svg>
