<?xml version="1.0" encoding="UTF-8" standalone="no"?>
<!DOCTYPE svg PUBLIC "-//W3C//DTD SVG 1.1//EN"
 "http://www.w3.org/Graphics/SVG/1.1/DTD/svg11.dtd">
<!-- Generated by graphviz version 12.2.1 (20241206.2353)
 -->
<!-- Title: AST Pages: 1 -->
<svg width="1760pt" height="591pt"
 viewBox="0.00 0.00 1760.25 591.00" xmlns="http://www.w3.org/2000/svg" xmlns:xlink="http://www.w3.org/1999/xlink">
<g id="graph0" class="graph" transform="scale(1 1) rotate(0) translate(4 587)">
<title>AST</title>
<polygon fill="white" stroke="none" points="-4,4 -4,-587 1756.25,-587 1756.25,4 -4,4"/>
<!-- n71 -->
<g id="node1" class="node">
<title>n71</title>
<polygon fill="none" stroke="black" points="719.75,-566.5 412.75,-566.5 412.75,-530.5 719.75,-530.5 719.75,-566.5"/>
<text text-anchor="middle" x="566.25" y="-543.45" font-family="Times New Roman,serif" font-size="14.00">ContextDecl: node(25) Context: node (43), node (70)</text>
<text text-anchor="middle" x="401.5" y="-569.7" font-family="Times New Roman,serif" font-size="14.00">(71)</text>
</g>
<!-- n25 -->
<g id="node2" class="node">
<title>n25</title>
<polygon fill="none" stroke="black" points="521,-494.5 305.5,-494.5 305.5,-458.5 521,-458.5 521,-494.5"/>
<text text-anchor="middle" x="413.25" y="-471.45" font-family="Times New Roman,serif" font-size="14.00">VarArray::add(node (24)) : VarArray</text>
<text text-anchor="middle" x="294.25" y="-497.7" font-family="Times New Roman,serif" font-size="14.00">(25)</text>
</g>
<!-- n71&#45;&gt;n25 -->
<g id="edge1" class="edge">
<title>n71&#45;&gt;n25</title>
<path fill="none" stroke="black" d="M528.04,-530.02C507.88,-520.79 482.94,-509.39 461.47,-499.56"/>
<polygon fill="black" stroke="black" points="463.17,-496.49 452.62,-495.51 460.26,-502.85 463.17,-496.49"/>
</g>
<!-- n43 -->
<g id="node3" class="node">
<title>n43</title>
<polygon fill="none" stroke="black" points="593.25,-494.5 539.25,-494.5 539.25,-458.5 593.25,-458.5 593.25,-494.5"/>
<text text-anchor="middle" x="566.25" y="-471.45" font-family="Times New Roman,serif" font-size="14.00"> pre:</text>
<text text-anchor="middle" x="505.5" y="-497.7" font-family="Times New Roman,serif" font-size="14.00">(43)Boolean</text>
</g>
<!-- n71&#45;&gt;n43 -->
<g id="edge2" class="edge">
<title>n71&#45;&gt;n43</title>
<path fill="none" stroke="black" d="M566.25,-530.2C566.25,-522.91 566.25,-514.23 566.25,-506.04"/>
<polygon fill="black" stroke="black" points="569.75,-506.12 566.25,-496.12 562.75,-506.12 569.75,-506.12"/>
</g>
<!-- n70 -->
<g id="node4" class="node">
<title>n70</title>
<polygon fill="none" stroke="black" points="772.25,-494.5 718.25,-494.5 718.25,-458.5 772.25,-458.5 772.25,-494.5"/>
<text text-anchor="middle" x="745.25" y="-471.45" font-family="Times New Roman,serif" font-size="14.00"> post:</text>
<text text-anchor="middle" x="684.5" y="-497.7" font-family="Times New Roman,serif" font-size="14.00">(70)Boolean</text>
</g>
<!-- n71&#45;&gt;n70 -->
<g id="edge3" class="edge">
<title>n71&#45;&gt;n70</title>
<path fill="none" stroke="black" d="M610.96,-530.02C640.58,-518.43 679.01,-503.4 707.17,-492.39"/>
<polygon fill="black" stroke="black" points="708.35,-495.69 716.39,-488.79 705.8,-489.17 708.35,-495.69"/>
</g>
<!-- n24 -->
<g id="node5" class="node">
<title>n24</title>
<polygon fill="none" stroke="black" points="460.25,-420 366.25,-420 366.25,-384 460.25,-384 460.25,-420"/>
<text text-anchor="middle" x="413.25" y="-396.95" font-family="Times New Roman,serif" font-size="14.00">arg : VarArray</text>
<text text-anchor="middle" x="329.88" y="-423.2" font-family="Times New Roman,serif" font-size="14.00">(24)VarArray</text>
</g>
<!-- n25&#45;&gt;n24 -->
<g id="edge4" class="edge">
<title>n25&#45;&gt;n24</title>
<path fill="none" stroke="black" d="M413.25,-458.32C413.25,-450.28 413.25,-440.5 413.25,-431.41"/>
<polygon fill="black" stroke="black" points="416.75,-431.57 413.25,-421.57 409.75,-431.57 416.75,-431.57"/>
</g>
<!-- n42 -->
<g id="node6" class="node">
<title>n42</title>
<polygon fill="none" stroke="black" points="562.25,-420 508.25,-420 508.25,-384 562.25,-384 562.25,-420"/>
<text text-anchor="middle" x="535.25" y="-396.95" font-family="Times New Roman,serif" font-size="14.00">and</text>
<text text-anchor="middle" x="474.5" y="-423.2" font-family="Times New Roman,serif" font-size="14.00">(42)Boolean</text>
</g>
<!-- n43&#45;&gt;n42 -->
<g id="edge5" class="edge">
<title>n43&#45;&gt;n42</title>
<path fill="none" stroke="black" d="M558.9,-458.32C555.35,-450.01 551,-439.84 547,-430.49"/>
<polygon fill="black" stroke="black" points="550.29,-429.27 543.14,-421.45 543.85,-432.02 550.29,-429.27"/>
</g>
<!-- n69 -->
<g id="node7" class="node">
<title>n69</title>
<polygon fill="none" stroke="black" points="991,-422.5 781.5,-422.5 781.5,-381.5 991,-381.5 991,-422.5"/>
<text text-anchor="middle" x="886.25" y="-405.2" font-family="Times New Roman,serif" font-size="14.00">LetExp </text>
<text text-anchor="middle" x="886.25" y="-388.7" font-family="Times New Roman,serif" font-size="14.00">Let node(49), node(68) in node(68)</text>
<text text-anchor="middle" x="747.75" y="-425.7" font-family="Times New Roman,serif" font-size="14.00">(69)Boolean</text>
</g>
<!-- n70&#45;&gt;n69 -->
<g id="edge6" class="edge">
<title>n70&#45;&gt;n69</title>
<path fill="none" stroke="black" d="M772.44,-461.52C790.81,-452.07 815.6,-439.33 837.35,-428.14"/>
<polygon fill="black" stroke="black" points="838.78,-431.34 846.07,-423.66 835.58,-425.12 838.78,-431.34"/>
</g>
<!-- n32 -->
<g id="node8" class="node">
<title>n32</title>
<polygon fill="none" stroke="black" points="307.25,-334.75 253.25,-334.75 253.25,-298.75 307.25,-298.75 307.25,-334.75"/>
<text text-anchor="middle" x="280.25" y="-311.7" font-family="Times New Roman,serif" font-size="14.00">=</text>
<text text-anchor="middle" x="219.5" y="-337.95" font-family="Times New Roman,serif" font-size="14.00">(32)Boolean</text>
</g>
<!-- n42&#45;&gt;n32 -->
<g id="edge7" class="edge">
<title>n42&#45;&gt;n32</title>
<path fill="none" stroke="black" d="M507.96,-392.09C462.36,-377.2 370.54,-347.23 318.51,-330.24"/>
<polygon fill="black" stroke="black" points="319.76,-326.97 309.17,-327.19 317.59,-333.62 319.76,-326.97"/>
</g>
<!-- n41 -->
<g id="node9" class="node">
<title>n41</title>
<polygon fill="none" stroke="black" points="562.25,-334.75 508.25,-334.75 508.25,-298.75 562.25,-298.75 562.25,-334.75"/>
<text text-anchor="middle" x="535.25" y="-311.7" font-family="Times New Roman,serif" font-size="14.00">=</text>
<text text-anchor="middle" x="474.5" y="-337.95" font-family="Times New Roman,serif" font-size="14.00">(41)Boolean</text>
</g>
<!-- n42&#45;&gt;n41 -->
<g id="edge8" class="edge">
<title>n42&#45;&gt;n41</title>
<path fill="none" stroke="black" d="M535.25,-383.75C535.25,-372.92 535.25,-358.7 535.25,-346.23"/>
<polygon fill="black" stroke="black" points="538.75,-346.49 535.25,-336.49 531.75,-346.49 538.75,-346.49"/>
</g>
<!-- n49 -->
<g id="node10" class="node">
<title>n49</title>
<polygon fill="none" stroke="black" points="913.25,-334.75 859.25,-334.75 859.25,-298.75 913.25,-298.75 913.25,-334.75"/>
<text text-anchor="middle" x="886.25" y="-311.7" font-family="Times New Roman,serif" font-size="14.00">=</text>
<text text-anchor="middle" x="825.5" y="-337.95" font-family="Times New Roman,serif" font-size="14.00">(49)Boolean</text>
</g>
<!-- n69&#45;&gt;n49 -->
<g id="edge9" class="edge">
<title>n69&#45;&gt;n49</title>
<path fill="none" stroke="black" d="M886.25,-381.27C886.25,-370.85 886.25,-357.87 886.25,-346.37"/>
<polygon fill="black" stroke="black" points="889.75,-346.59 886.25,-336.59 882.75,-346.59 889.75,-346.59"/>
</g>
<!-- n68 -->
<g id="node11" class="node">
<title>n68</title>
<polygon fill="none" stroke="black" points="1420.62,-345.5 1211.88,-345.5 1211.88,-288 1420.62,-288 1420.62,-345.5"/>
<text text-anchor="middle" x="1316.25" y="-328.2" font-family="Times New Roman,serif" font-size="14.00">IterateExp</text>
<text text-anchor="middle" x="1316.25" y="-311.7" font-family="Times New Roman,serif" font-size="14.00">source=node(52) Iterator=node(53)</text>
<text text-anchor="middle" x="1316.25" y="-295.2" font-family="Times New Roman,serif" font-size="14.00">Result=node(56) Body=node(67)</text>
<text text-anchor="middle" x="1178.12" y="-348.7" font-family="Times New Roman,serif" font-size="14.00">(68)Boolean</text>
</g>
<!-- n69&#45;&gt;n68 -->
<g id="edge10" class="edge">
<title>n69&#45;&gt;n68</title>
<path fill="none" stroke="black" d="M989.52,-381.01C1053.06,-368.71 1134.63,-352.91 1200.37,-340.19"/>
<polygon fill="black" stroke="black" points="1200.97,-343.63 1210.13,-338.3 1199.64,-336.76 1200.97,-343.63"/>
</g>
<!-- n28 -->
<g id="node12" class="node">
<title>n28</title>
<polygon fill="none" stroke="black" points="187.75,-252 36.75,-252 36.75,-216 187.75,-216 187.75,-252"/>
<text text-anchor="middle" x="112.25" y="-228.95" font-family="Times New Roman,serif" font-size="14.00">self.data.getDimension()</text>
<text text-anchor="middle" x="18.38" y="-255.2" font-family="Times New Roman,serif" font-size="14.00">(28)int</text>
</g>
<!-- n32&#45;&gt;n28 -->
<g id="edge11" class="edge">
<title>n32&#45;&gt;n28</title>
<path fill="none" stroke="black" d="M252.88,-302.6C227.43,-290.36 189,-271.89 158.74,-257.35"/>
<polygon fill="black" stroke="black" points="160.3,-254.21 149.78,-253.04 157.27,-260.52 160.3,-254.21"/>
</g>
<!-- n31 -->
<g id="node13" class="node">
<title>n31</title>
<polygon fill="none" stroke="black" points="354.62,-252 205.88,-252 205.88,-216 354.62,-216 354.62,-252"/>
<text text-anchor="middle" x="280.25" y="-228.95" font-family="Times New Roman,serif" font-size="14.00">arg.data.getDimension()</text>
<text text-anchor="middle" x="187.5" y="-255.2" font-family="Times New Roman,serif" font-size="14.00">(31)int</text>
</g>
<!-- n32&#45;&gt;n31 -->
<g id="edge12" class="edge">
<title>n32&#45;&gt;n31</title>
<path fill="none" stroke="black" d="M280.25,-298.63C280.25,-288.52 280.25,-275.48 280.25,-263.83"/>
<polygon fill="black" stroke="black" points="283.75,-263.89 280.25,-253.89 276.75,-263.89 283.75,-263.89"/>
</g>
<!-- n36 -->
<g id="node14" class="node">
<title>n36</title>
<polygon fill="none" stroke="black" points="559.38,-252 373.12,-252 373.12,-216 559.38,-216 559.38,-252"/>
<text text-anchor="middle" x="466.25" y="-228.95" font-family="Times New Roman,serif" font-size="14.00">self.data.getDimensionSizes(1)</text>
<text text-anchor="middle" x="354.75" y="-255.2" font-family="Times New Roman,serif" font-size="14.00">(36)int</text>
</g>
<!-- n41&#45;&gt;n36 -->
<g id="edge13" class="edge">
<title>n41&#45;&gt;n36</title>
<path fill="none" stroke="black" d="M520.62,-298.63C511.26,-287.67 498.94,-273.26 488.4,-260.92"/>
<polygon fill="black" stroke="black" points="491.24,-258.86 482.08,-253.53 485.92,-263.41 491.24,-258.86"/>
</g>
<!-- n40 -->
<g id="node15" class="node">
<title>n40</title>
<polygon fill="none" stroke="black" points="761.25,-252 577.25,-252 577.25,-216 761.25,-216 761.25,-252"/>
<text text-anchor="middle" x="669.25" y="-228.95" font-family="Times New Roman,serif" font-size="14.00">arg.data.getDimensionSizes(1)</text>
<text text-anchor="middle" x="558.88" y="-255.2" font-family="Times New Roman,serif" font-size="14.00">(40)int</text>
</g>
<!-- n41&#45;&gt;n40 -->
<g id="edge14" class="edge">
<title>n41&#45;&gt;n40</title>
<path fill="none" stroke="black" d="M562.69,-299.21C582.34,-287.37 609.08,-271.26 630.85,-258.14"/>
<polygon fill="black" stroke="black" points="632.4,-261.29 639.16,-253.13 628.79,-255.3 632.4,-261.29"/>
</g>
<!-- n48 -->
<g id="node16" class="node">
<title>n48</title>
<polygon fill="none" stroke="black" points="849.25,-252 779.25,-252 779.25,-216 849.25,-216 849.25,-252"/>
<text text-anchor="middle" x="814.25" y="-228.95" font-family="Times New Roman,serif" font-size="14.00">dim1 : int</text>
<text text-anchor="middle" x="760.88" y="-255.2" font-family="Times New Roman,serif" font-size="14.00">(48)int</text>
</g>
<!-- n49&#45;&gt;n48 -->
<g id="edge15" class="edge">
<title>n49&#45;&gt;n48</title>
<path fill="none" stroke="black" d="M870.98,-298.63C861.21,-287.67 848.36,-273.26 837.36,-260.92"/>
<polygon fill="black" stroke="black" points="840.02,-258.64 830.75,-253.51 834.8,-263.3 840.02,-258.64"/>
</g>
<!-- n47 -->
<g id="node17" class="node">
<title>n47</title>
<polygon fill="none" stroke="black" points="1051.25,-252 867.25,-252 867.25,-216 1051.25,-216 1051.25,-252"/>
<text text-anchor="middle" x="959.25" y="-228.95" font-family="Times New Roman,serif" font-size="14.00">arg.data.getDimensionSizes(1)</text>
<text text-anchor="middle" x="848.88" y="-255.2" font-family="Times New Roman,serif" font-size="14.00">(47)int</text>
</g>
<!-- n49&#45;&gt;n47 -->
<g id="edge16" class="edge">
<title>n49&#45;&gt;n47</title>
<path fill="none" stroke="black" d="M901.73,-298.63C911.63,-287.67 924.66,-273.26 935.82,-260.92"/>
<polygon fill="black" stroke="black" points="938.41,-263.27 942.52,-253.5 933.22,-258.57 938.41,-263.27"/>
</g>
<!-- n52 -->
<g id="node18" class="node">
<title>n52</title>
<polygon fill="none" stroke="black" points="1270.88,-252 1069.62,-252 1069.62,-216 1270.88,-216 1270.88,-252"/>
<text text-anchor="middle" x="1170.25" y="-228.95" font-family="Times New Roman,serif" font-size="14.00">Sequence{ node(50) .. node(51) }</text>
<text text-anchor="middle" x="1051.25" y="-255.2" font-family="Times New Roman,serif" font-size="14.00">(52)int</text>
</g>
<!-- n68&#45;&gt;n52 -->
<g id="edge17" class="edge">
<title>n68&#45;&gt;n52</title>
<path fill="none" stroke="black" d="M1265.19,-287.51C1247.62,-277.79 1228.18,-267.04 1211.49,-257.81"/>
<polygon fill="black" stroke="black" points="1213.27,-254.79 1202.82,-253.02 1209.88,-260.92 1213.27,-254.79"/>
</g>
<!-- n53 -->
<g id="node19" class="node">
<title>n53</title>
<polygon fill="none" stroke="black" points="1343.25,-252 1289.25,-252 1289.25,-216 1343.25,-216 1343.25,-252"/>
<text text-anchor="middle" x="1316.25" y="-228.95" font-family="Times New Roman,serif" font-size="14.00">it : int</text>
<text text-anchor="middle" x="1270.88" y="-255.2" font-family="Times New Roman,serif" font-size="14.00">(53)int</text>
</g>
<!-- n68&#45;&gt;n53 -->
<g id="edge18" class="edge">
<title>n68&#45;&gt;n53</title>
<path fill="none" stroke="black" d="M1316.25,-287.51C1316.25,-279.75 1316.25,-271.33 1316.25,-263.55"/>
<polygon fill="black" stroke="black" points="1319.75,-263.56 1316.25,-253.56 1312.75,-263.56 1319.75,-263.56"/>
</g>
<!-- n56 -->
<g id="node20" class="node">
<title>n56</title>
<polygon fill="none" stroke="black" points="1415.25,-252 1361.25,-252 1361.25,-216 1415.25,-216 1415.25,-252"/>
<text text-anchor="middle" x="1388.25" y="-228.95" font-family="Times New Roman,serif" font-size="14.00">=</text>
<text text-anchor="middle" x="1327.5" y="-255.2" font-family="Times New Roman,serif" font-size="14.00">(56)Boolean</text>
</g>
<!-- n68&#45;&gt;n56 -->
<g id="edge19" class="edge">
<title>n68&#45;&gt;n56</title>
<path fill="none" stroke="black" d="M1341.43,-287.51C1349.26,-278.73 1357.83,-269.11 1365.49,-260.53"/>
<polygon fill="black" stroke="black" points="1368,-262.97 1372.04,-253.17 1362.78,-258.31 1368,-262.97"/>
</g>
<!-- n67 -->
<g id="node21" class="node">
<title>n67</title>
<polygon fill="none" stroke="black" points="1504.25,-252 1450.25,-252 1450.25,-216 1504.25,-216 1504.25,-252"/>
<text text-anchor="middle" x="1477.25" y="-228.95" font-family="Times New Roman,serif" font-size="14.00">=</text>
<text text-anchor="middle" x="1416.5" y="-255.2" font-family="Times New Roman,serif" font-size="14.00">(67)Boolean</text>
</g>
<!-- n68&#45;&gt;n67 -->
<g id="edge20" class="edge">
<title>n68&#45;&gt;n67</title>
<path fill="none" stroke="black" d="M1372.56,-287.51C1394.85,-276.33 1419.87,-263.78 1439.86,-253.75"/>
<polygon fill="black" stroke="black" points="1441.38,-256.91 1448.75,-249.29 1438.24,-250.65 1441.38,-256.91"/>
</g>
<!-- n27 -->
<g id="node22" class="node">
<title>n27</title>
<polygon fill="none" stroke="black" points="143.12,-180 81.38,-180 81.38,-144 143.12,-144 143.12,-180"/>
<text text-anchor="middle" x="112.25" y="-156.95" font-family="Times New Roman,serif" font-size="14.00">self.data</text>
<text text-anchor="middle" x="47.62" y="-183.2" font-family="Times New Roman,serif" font-size="14.00">(27)int[dim]</text>
</g>
<!-- n28&#45;&gt;n27 -->
<g id="edge21" class="edge">
<title>n28&#45;&gt;n27</title>
<path fill="none" stroke="black" d="M112.25,-215.7C112.25,-208.41 112.25,-199.73 112.25,-191.54"/>
<polygon fill="black" stroke="black" points="115.75,-191.62 112.25,-181.62 108.75,-191.62 115.75,-191.62"/>
</g>
<!-- n30 -->
<g id="node23" class="node">
<title>n30</title>
<polygon fill="none" stroke="black" points="310,-180 250.5,-180 250.5,-144 310,-144 310,-180"/>
<text text-anchor="middle" x="280.25" y="-156.95" font-family="Times New Roman,serif" font-size="14.00">arg.data</text>
<text text-anchor="middle" x="216.75" y="-183.2" font-family="Times New Roman,serif" font-size="14.00">(30)int[dim]</text>
</g>
<!-- n31&#45;&gt;n30 -->
<g id="edge22" class="edge">
<title>n31&#45;&gt;n30</title>
<path fill="none" stroke="black" d="M280.25,-215.7C280.25,-208.41 280.25,-199.73 280.25,-191.54"/>
<polygon fill="black" stroke="black" points="283.75,-191.62 280.25,-181.62 276.75,-191.62 283.75,-191.62"/>
</g>
<!-- n34 -->
<g id="node24" class="node">
<title>n34</title>
<polygon fill="none" stroke="black" points="459.12,-180 397.38,-180 397.38,-144 459.12,-144 459.12,-180"/>
<text text-anchor="middle" x="428.25" y="-156.95" font-family="Times New Roman,serif" font-size="14.00">self.data</text>
<text text-anchor="middle" x="363.62" y="-183.2" font-family="Times New Roman,serif" font-size="14.00">(34)int[dim]</text>
</g>
<!-- n36&#45;&gt;n34 -->
<g id="edge23" class="edge">
<title>n36&#45;&gt;n34</title>
<path fill="none" stroke="black" d="M456.86,-215.7C452.67,-207.98 447.64,-198.71 442.97,-190.11"/>
<polygon fill="black" stroke="black" points="446.1,-188.55 438.26,-181.43 439.95,-191.89 446.1,-188.55"/>
</g>
<!-- n35 -->
<g id="node25" class="node">
<title>n35</title>
<polygon fill="none" stroke="black" points="531.25,-180 477.25,-180 477.25,-144 531.25,-144 531.25,-180"/>
<text text-anchor="middle" x="504.25" y="-156.95" font-family="Times New Roman,serif" font-size="14.00">1</text>
<text text-anchor="middle" x="458.88" y="-183.2" font-family="Times New Roman,serif" font-size="14.00">(35)int</text>
</g>
<!-- n36&#45;&gt;n35 -->
<g id="edge24" class="edge">
<title>n36&#45;&gt;n35</title>
<path fill="none" stroke="black" d="M475.64,-215.7C479.83,-207.98 484.86,-198.71 489.53,-190.11"/>
<polygon fill="black" stroke="black" points="492.55,-191.89 494.24,-181.43 486.4,-188.55 492.55,-191.89"/>
</g>
<!-- n38 -->
<g id="node26" class="node">
<title>n38</title>
<polygon fill="none" stroke="black" points="673,-180 613.5,-180 613.5,-144 673,-144 673,-180"/>
<text text-anchor="middle" x="643.25" y="-156.95" font-family="Times New Roman,serif" font-size="14.00">arg.data</text>
<text text-anchor="middle" x="579.75" y="-183.2" font-family="Times New Roman,serif" font-size="14.00">(38)int[dim]</text>
</g>
<!-- n40&#45;&gt;n38 -->
<g id="edge25" class="edge">
<title>n40&#45;&gt;n38</title>
<path fill="none" stroke="black" d="M662.82,-215.7C660.02,-208.15 656.67,-199.12 653.53,-190.68"/>
<polygon fill="black" stroke="black" points="656.89,-189.68 650.13,-181.52 650.33,-192.12 656.89,-189.68"/>
</g>
<!-- n39 -->
<g id="node27" class="node">
<title>n39</title>
<polygon fill="none" stroke="black" points="745.25,-180 691.25,-180 691.25,-144 745.25,-144 745.25,-180"/>
<text text-anchor="middle" x="718.25" y="-156.95" font-family="Times New Roman,serif" font-size="14.00">1</text>
<text text-anchor="middle" x="672.88" y="-183.2" font-family="Times New Roman,serif" font-size="14.00">(39)int</text>
</g>
<!-- n40&#45;&gt;n39 -->
<g id="edge26" class="edge">
<title>n40&#45;&gt;n39</title>
<path fill="none" stroke="black" d="M681.36,-215.7C686.94,-207.73 693.68,-198.1 699.87,-189.26"/>
<polygon fill="black" stroke="black" points="702.54,-191.54 705.41,-181.34 696.81,-187.53 702.54,-191.54"/>
</g>
<!-- n45 -->
<g id="node28" class="node">
<title>n45</title>
<polygon fill="none" stroke="black" points="947,-180 887.5,-180 887.5,-144 947,-144 947,-180"/>
<text text-anchor="middle" x="917.25" y="-156.95" font-family="Times New Roman,serif" font-size="14.00">arg.data</text>
<text text-anchor="middle" x="853.75" y="-183.2" font-family="Times New Roman,serif" font-size="14.00">(45)int[dim]</text>
</g>
<!-- n47&#45;&gt;n45 -->
<g id="edge27" class="edge">
<title>n47&#45;&gt;n45</title>
<path fill="none" stroke="black" d="M948.87,-215.7C944.19,-207.9 938.56,-198.51 933.35,-189.83"/>
<polygon fill="black" stroke="black" points="936.44,-188.18 928.29,-181.4 930.44,-191.78 936.44,-188.18"/>
</g>
<!-- n46 -->
<g id="node29" class="node">
<title>n46</title>
<polygon fill="none" stroke="black" points="1019.25,-180 965.25,-180 965.25,-144 1019.25,-144 1019.25,-180"/>
<text text-anchor="middle" x="992.25" y="-156.95" font-family="Times New Roman,serif" font-size="14.00">1</text>
<text text-anchor="middle" x="946.88" y="-183.2" font-family="Times New Roman,serif" font-size="14.00">(46)int</text>
</g>
<!-- n47&#45;&gt;n46 -->
<g id="edge28" class="edge">
<title>n47&#45;&gt;n46</title>
<path fill="none" stroke="black" d="M967.41,-215.7C971,-208.07 975.32,-198.92 979.33,-190.4"/>
<polygon fill="black" stroke="black" points="982.44,-192.01 983.54,-181.47 976.11,-189.03 982.44,-192.01"/>
</g>
<!-- n50 -->
<g id="node30" class="node">
<title>n50</title>
<polygon fill="none" stroke="black" points="1144.25,-180 1090.25,-180 1090.25,-144 1144.25,-144 1144.25,-180"/>
<text text-anchor="middle" x="1117.25" y="-156.95" font-family="Times New Roman,serif" font-size="14.00">1</text>
<text text-anchor="middle" x="1071.88" y="-183.2" font-family="Times New Roman,serif" font-size="14.00">(50)int</text>
</g>
<!-- n52&#45;&gt;n50 -->
<g id="edge29" class="edge">
<title>n52&#45;&gt;n50</title>
<path fill="none" stroke="black" d="M1157.15,-215.7C1151.12,-207.73 1143.83,-198.1 1137.14,-189.26"/>
<polygon fill="black" stroke="black" points="1139.94,-187.17 1131.11,-181.31 1134.36,-191.4 1139.94,-187.17"/>
</g>
<!-- n51 -->
<g id="node31" class="node">
<title>n51</title>
<polygon fill="none" stroke="black" points="1216.25,-180 1162.25,-180 1162.25,-144 1216.25,-144 1216.25,-180"/>
<text text-anchor="middle" x="1189.25" y="-156.95" font-family="Times New Roman,serif" font-size="14.00">dim1</text>
<text text-anchor="middle" x="1143.88" y="-183.2" font-family="Times New Roman,serif" font-size="14.00">(51)int</text>
</g>
<!-- n52&#45;&gt;n51 -->
<g id="edge30" class="edge">
<title>n52&#45;&gt;n51</title>
<path fill="none" stroke="black" d="M1174.95,-215.7C1176.97,-208.24 1179.39,-199.32 1181.66,-190.97"/>
<polygon fill="black" stroke="black" points="1184.97,-192.13 1184.21,-181.57 1178.21,-190.3 1184.97,-192.13"/>
</g>
<!-- n55 -->
<g id="node32" class="node">
<title>n55</title>
<polygon fill="none" stroke="black" points="1343.38,-180 1253.12,-180 1253.12,-144 1343.38,-144 1343.38,-180"/>
<text text-anchor="middle" x="1298.25" y="-156.95" font-family="Times New Roman,serif" font-size="14.00">acc : Boolean</text>
<text text-anchor="middle" x="1219.38" y="-183.2" font-family="Times New Roman,serif" font-size="14.00">(55)Boolean</text>
</g>
<!-- n56&#45;&gt;n55 -->
<g id="edge31" class="edge">
<title>n56&#45;&gt;n55</title>
<path fill="none" stroke="black" d="M1366,-215.7C1354.97,-207.11 1341.46,-196.61 1329.41,-187.24"/>
<polygon fill="black" stroke="black" points="1331.79,-184.65 1321.75,-181.28 1327.49,-190.18 1331.79,-184.65"/>
</g>
<!-- n54 -->
<g id="node33" class="node">
<title>n54</title>
<polygon fill="none" stroke="black" points="1415.25,-180 1361.25,-180 1361.25,-144 1415.25,-144 1415.25,-180"/>
<text text-anchor="middle" x="1388.25" y="-156.95" font-family="Times New Roman,serif" font-size="14.00">true</text>
<text text-anchor="middle" x="1327.5" y="-183.2" font-family="Times New Roman,serif" font-size="14.00">(54)Boolean</text>
</g>
<!-- n56&#45;&gt;n54 -->
<g id="edge32" class="edge">
<title>n56&#45;&gt;n54</title>
<path fill="none" stroke="black" d="M1388.25,-215.7C1388.25,-208.41 1388.25,-199.73 1388.25,-191.54"/>
<polygon fill="black" stroke="black" points="1391.75,-191.62 1388.25,-181.62 1384.75,-191.62 1391.75,-191.62"/>
</g>
<!-- n59 -->
<g id="node34" class="node">
<title>n59</title>
<polygon fill="none" stroke="black" points="1521.62,-180 1432.88,-180 1432.88,-144 1521.62,-144 1521.62,-180"/>
<text text-anchor="middle" x="1477.25" y="-156.95" font-family="Times New Roman,serif" font-size="14.00">result.data[it]</text>
<text text-anchor="middle" x="1414.5" y="-183.2" font-family="Times New Roman,serif" font-size="14.00">(59)int</text>
</g>
<!-- n67&#45;&gt;n59 -->
<g id="edge33" class="edge">
<title>n67&#45;&gt;n59</title>
<path fill="none" stroke="black" d="M1477.25,-215.7C1477.25,-208.41 1477.25,-199.73 1477.25,-191.54"/>
<polygon fill="black" stroke="black" points="1480.75,-191.62 1477.25,-181.62 1473.75,-191.62 1480.75,-191.62"/>
</g>
<!-- n66 -->
<g id="node35" class="node">
<title>n66</title>
<polygon fill="none" stroke="black" points="1593.25,-180 1539.25,-180 1539.25,-144 1593.25,-144 1593.25,-180"/>
<text text-anchor="middle" x="1566.25" y="-156.95" font-family="Times New Roman,serif" font-size="14.00">+</text>
<text text-anchor="middle" x="1520.88" y="-183.2" font-family="Times New Roman,serif" font-size="14.00">(66)int</text>
</g>
<!-- n67&#45;&gt;n66 -->
<g id="edge34" class="edge">
<title>n67&#45;&gt;n66</title>
<path fill="none" stroke="black" d="M1499.25,-215.7C1510.16,-207.11 1523.52,-196.61 1535.43,-187.24"/>
<polygon fill="black" stroke="black" points="1537.31,-190.22 1543,-181.28 1532.98,-184.71 1537.31,-190.22"/>
</g>
<!-- n26 -->
<g id="node36" class="node">
<title>n26</title>
<polygon fill="none" stroke="black" points="139.25,-108 85.25,-108 85.25,-72 139.25,-72 139.25,-108"/>
<text text-anchor="middle" x="112.25" y="-84.95" font-family="Times New Roman,serif" font-size="14.00">self</text>
<text text-anchor="middle" x="48.88" y="-111.2" font-family="Times New Roman,serif" font-size="14.00">(26)VarArray</text>
</g>
<!-- n27&#45;&gt;n26 -->
<g id="edge35" class="edge">
<title>n27&#45;&gt;n26</title>
<path fill="none" stroke="black" d="M112.25,-143.7C112.25,-136.41 112.25,-127.73 112.25,-119.54"/>
<polygon fill="black" stroke="black" points="115.75,-119.62 112.25,-109.62 108.75,-119.62 115.75,-119.62"/>
</g>
<!-- n29 -->
<g id="node37" class="node">
<title>n29</title>
<polygon fill="none" stroke="black" points="307.25,-108 253.25,-108 253.25,-72 307.25,-72 307.25,-108"/>
<text text-anchor="middle" x="280.25" y="-84.95" font-family="Times New Roman,serif" font-size="14.00">arg</text>
<text text-anchor="middle" x="216.88" y="-111.2" font-family="Times New Roman,serif" font-size="14.00">(29)VarArray</text>
</g>
<!-- n30&#45;&gt;n29 -->
<g id="edge36" class="edge">
<title>n30&#45;&gt;n29</title>
<path fill="none" stroke="black" d="M280.25,-143.7C280.25,-136.41 280.25,-127.73 280.25,-119.54"/>
<polygon fill="black" stroke="black" points="283.75,-119.62 280.25,-109.62 276.75,-119.62 283.75,-119.62"/>
</g>
<!-- n33 -->
<g id="node38" class="node">
<title>n33</title>
<polygon fill="none" stroke="black" points="455.25,-108 401.25,-108 401.25,-72 455.25,-72 455.25,-108"/>
<text text-anchor="middle" x="428.25" y="-84.95" font-family="Times New Roman,serif" font-size="14.00">self</text>
<text text-anchor="middle" x="364.88" y="-111.2" font-family="Times New Roman,serif" font-size="14.00">(33)VarArray</text>
</g>
<!-- n34&#45;&gt;n33 -->
<g id="edge37" class="edge">
<title>n34&#45;&gt;n33</title>
<path fill="none" stroke="black" d="M428.25,-143.7C428.25,-136.41 428.25,-127.73 428.25,-119.54"/>
<polygon fill="black" stroke="black" points="431.75,-119.62 428.25,-109.62 424.75,-119.62 431.75,-119.62"/>
</g>
<!-- n37 -->
<g id="node39" class="node">
<title>n37</title>
<polygon fill="none" stroke="black" points="670.25,-108 616.25,-108 616.25,-72 670.25,-72 670.25,-108"/>
<text text-anchor="middle" x="643.25" y="-84.95" font-family="Times New Roman,serif" font-size="14.00">arg</text>
<text text-anchor="middle" x="579.88" y="-111.2" font-family="Times New Roman,serif" font-size="14.00">(37)VarArray</text>
</g>
<!-- n38&#45;&gt;n37 -->
<g id="edge38" class="edge">
<title>n38&#45;&gt;n37</title>
<path fill="none" stroke="black" d="M643.25,-143.7C643.25,-136.41 643.25,-127.73 643.25,-119.54"/>
<polygon fill="black" stroke="black" points="646.75,-119.62 643.25,-109.62 639.75,-119.62 646.75,-119.62"/>
</g>
<!-- n44 -->
<g id="node40" class="node">
<title>n44</title>
<polygon fill="none" stroke="black" points="944.25,-108 890.25,-108 890.25,-72 944.25,-72 944.25,-108"/>
<text text-anchor="middle" x="917.25" y="-84.95" font-family="Times New Roman,serif" font-size="14.00">arg</text>
<text text-anchor="middle" x="853.88" y="-111.2" font-family="Times New Roman,serif" font-size="14.00">(44)VarArray</text>
</g>
<!-- n45&#45;&gt;n44 -->
<g id="edge39" class="edge">
<title>n45&#45;&gt;n44</title>
<path fill="none" stroke="black" d="M917.25,-143.7C917.25,-136.41 917.25,-127.73 917.25,-119.54"/>
<polygon fill="black" stroke="black" points="920.75,-119.62 917.25,-109.62 913.75,-119.62 920.75,-119.62"/>
</g>
<!-- n57 -->
<g id="node41" class="node">
<title>n57</title>
<polygon fill="none" stroke="black" points="1433.25,-108 1379.25,-108 1379.25,-72 1433.25,-72 1433.25,-108"/>
<text text-anchor="middle" x="1406.25" y="-84.95" font-family="Times New Roman,serif" font-size="14.00">result</text>
<text text-anchor="middle" x="1342.88" y="-111.2" font-family="Times New Roman,serif" font-size="14.00">(57)VarArray</text>
</g>
<!-- n59&#45;&gt;n57 -->
<g id="edge40" class="edge">
<title>n59&#45;&gt;n57</title>
<path fill="none" stroke="black" d="M1459.7,-143.7C1451.27,-135.39 1441.02,-125.28 1431.75,-116.14"/>
<polygon fill="black" stroke="black" points="1434.25,-113.7 1424.68,-109.17 1429.34,-118.68 1434.25,-113.7"/>
</g>
<!-- n58 -->
<g id="node42" class="node">
<title>n58</title>
<polygon fill="none" stroke="black" points="1505.25,-108 1451.25,-108 1451.25,-72 1505.25,-72 1505.25,-108"/>
<text text-anchor="middle" x="1478.25" y="-84.95" font-family="Times New Roman,serif" font-size="14.00">it</text>
<text text-anchor="middle" x="1432.88" y="-111.2" font-family="Times New Roman,serif" font-size="14.00">(58)int</text>
</g>
<!-- n59&#45;&gt;n58 -->
<g id="edge41" class="edge">
<title>n59&#45;&gt;n58</title>
<path fill="none" stroke="black" d="M1477.5,-143.7C1477.6,-136.41 1477.73,-127.73 1477.84,-119.54"/>
<polygon fill="black" stroke="black" points="1481.34,-119.67 1477.98,-109.62 1474.34,-119.57 1481.34,-119.67"/>
</g>
<!-- n62 -->
<g id="node43" class="node">
<title>n62</title>
<polygon fill="none" stroke="black" points="1603.38,-108 1525.12,-108 1525.12,-72 1603.38,-72 1603.38,-108"/>
<text text-anchor="middle" x="1564.25" y="-84.95" font-family="Times New Roman,serif" font-size="14.00">self.data[it]</text>
<text text-anchor="middle" x="1506.75" y="-111.2" font-family="Times New Roman,serif" font-size="14.00">(62)int</text>
</g>
<!-- n66&#45;&gt;n62 -->
<g id="edge42" class="edge">
<title>n66&#45;&gt;n62</title>
<path fill="none" stroke="black" d="M1565.76,-143.7C1565.55,-136.41 1565.3,-127.73 1565.07,-119.54"/>
<polygon fill="black" stroke="black" points="1568.57,-119.51 1564.78,-109.62 1561.57,-119.71 1568.57,-119.51"/>
</g>
<!-- n65 -->
<g id="node44" class="node">
<title>n65</title>
<polygon fill="none" stroke="black" points="1697.25,-108 1621.25,-108 1621.25,-72 1697.25,-72 1697.25,-108"/>
<text text-anchor="middle" x="1659.25" y="-84.95" font-family="Times New Roman,serif" font-size="14.00">arg.data[it]</text>
<text text-anchor="middle" x="1602.88" y="-111.2" font-family="Times New Roman,serif" font-size="14.00">(65)int</text>
</g>
<!-- n66&#45;&gt;n65 -->
<g id="edge43" class="edge">
<title>n66&#45;&gt;n65</title>
<path fill="none" stroke="black" d="M1589.24,-143.7C1600.64,-135.11 1614.6,-124.61 1627.05,-115.24"/>
<polygon fill="black" stroke="black" points="1629.11,-118.07 1634.99,-109.26 1624.9,-112.47 1629.11,-118.07"/>
</g>
<!-- n60 -->
<g id="node45" class="node">
<title>n60</title>
<polygon fill="none" stroke="black" points="1525.25,-36 1471.25,-36 1471.25,0 1525.25,0 1525.25,-36"/>
<text text-anchor="middle" x="1498.25" y="-12.95" font-family="Times New Roman,serif" font-size="14.00">self</text>
<text text-anchor="middle" x="1434.88" y="-39.2" font-family="Times New Roman,serif" font-size="14.00">(60)VarArray</text>
</g>
<!-- n62&#45;&gt;n60 -->
<g id="edge44" class="edge">
<title>n62&#45;&gt;n60</title>
<path fill="none" stroke="black" d="M1547.94,-71.7C1540.18,-63.47 1530.76,-53.48 1522.22,-44.42"/>
<polygon fill="black" stroke="black" points="1524.82,-42.08 1515.42,-37.21 1519.73,-46.88 1524.82,-42.08"/>
</g>
<!-- n61 -->
<g id="node46" class="node">
<title>n61</title>
<polygon fill="none" stroke="black" points="1597.25,-36 1543.25,-36 1543.25,0 1597.25,0 1597.25,-36"/>
<text text-anchor="middle" x="1570.25" y="-12.95" font-family="Times New Roman,serif" font-size="14.00">it</text>
<text text-anchor="middle" x="1524.88" y="-39.2" font-family="Times New Roman,serif" font-size="14.00">(61)int</text>
</g>
<!-- n62&#45;&gt;n61 -->
<g id="edge45" class="edge">
<title>n62&#45;&gt;n61</title>
<path fill="none" stroke="black" d="M1565.73,-71.7C1566.36,-64.41 1567.1,-55.73 1567.8,-47.54"/>
<polygon fill="black" stroke="black" points="1571.29,-47.87 1568.65,-37.61 1564.31,-47.28 1571.29,-47.87"/>
</g>
<!-- n63 -->
<g id="node47" class="node">
<title>n63</title>
<polygon fill="none" stroke="black" points="1680.25,-36 1626.25,-36 1626.25,0 1680.25,0 1680.25,-36"/>
<text text-anchor="middle" x="1653.25" y="-12.95" font-family="Times New Roman,serif" font-size="14.00">arg</text>
<text text-anchor="middle" x="1589.88" y="-39.2" font-family="Times New Roman,serif" font-size="14.00">(63)VarArray</text>
</g>
<!-- n65&#45;&gt;n63 -->
<g id="edge46" class="edge">
<title>n65&#45;&gt;n63</title>
<path fill="none" stroke="black" d="M1657.77,-71.7C1657.14,-64.41 1656.4,-55.73 1655.7,-47.54"/>
<polygon fill="black" stroke="black" points="1659.19,-47.28 1654.85,-37.61 1652.21,-47.87 1659.19,-47.28"/>
</g>
<!-- n64 -->
<g id="node48" class="node">
<title>n64</title>
<polygon fill="none" stroke="black" points="1752.25,-36 1698.25,-36 1698.25,0 1752.25,0 1752.25,-36"/>
<text text-anchor="middle" x="1725.25" y="-12.95" font-family="Times New Roman,serif" font-size="14.00">it</text>
<text text-anchor="middle" x="1679.88" y="-39.2" font-family="Times New Roman,serif" font-size="14.00">(64)int</text>
</g>
<!-- n65&#45;&gt;n64 -->
<g id="edge47" class="edge">
<title>n65&#45;&gt;n64</title>
<path fill="none" stroke="black" d="M1675.56,-71.7C1683.32,-63.47 1692.74,-53.48 1701.28,-44.42"/>
<polygon fill="black" stroke="black" points="1703.77,-46.88 1708.08,-37.21 1698.68,-42.08 1703.77,-46.88"/>
</g>
</g>
</svg>
