<?xml version="1.0" encoding="UTF-8" standalone="no"?>
<!DOCTYPE svg PUBLIC "-//W3C//DTD SVG 1.1//EN"
 "http://www.w3.org/Graphics/SVG/1.1/DTD/svg11.dtd">
<!-- Generated by graphviz version 12.2.1 (20241206.2353)
 -->
<!-- Title: AST Pages: 1 -->
<svg width="360pt" height="349pt"
 viewBox="0.00 0.00 359.88 348.50" xmlns="http://www.w3.org/2000/svg" xmlns:xlink="http://www.w3.org/1999/xlink">
<g id="graph0" class="graph" transform="scale(1 1) rotate(0) translate(4 344.5)">
<title>AST</title>
<polygon fill="white" stroke="none" points="-4,4 -4,-344.5 355.88,-344.5 355.88,4 -4,4"/>
<!-- n23 -->
<g id="node1" class="node">
<title>n23</title>
<polygon fill="none" stroke="black" points="325.75,-324 78.75,-324 78.75,-288 325.75,-288 325.75,-324"/>
<text text-anchor="middle" x="202.25" y="-300.95" font-family="Times New Roman,serif" font-size="14.00">ContextDecl: node(17) Context: node (22)</text>
<text text-anchor="middle" x="67.5" y="-327.2" font-family="Times New Roman,serif" font-size="14.00">(23)</text>
</g>
<!-- n17 -->
<g id="node2" class="node">
<title>n17</title>
<polygon fill="none" stroke="black" points="226,-252 40.5,-252 40.5,-216 226,-216 226,-252"/>
<text text-anchor="middle" x="133.25" y="-228.95" font-family="Times New Roman,serif" font-size="14.00">VarArray::VarArray(node (16))</text>
<text text-anchor="middle" x="29.25" y="-255.2" font-family="Times New Roman,serif" font-size="14.00">(17)</text>
</g>
<!-- n23&#45;&gt;n17 -->
<g id="edge1" class="edge">
<title>n23&#45;&gt;n17</title>
<path fill="none" stroke="black" d="M185.19,-287.7C177.01,-279.39 167.04,-269.28 158.03,-260.14"/>
<polygon fill="black" stroke="black" points="160.69,-257.85 151.17,-253.18 155.7,-262.76 160.69,-257.85"/>
</g>
<!-- n22 -->
<g id="node3" class="node">
<title>n22</title>
<polygon fill="none" stroke="black" points="298.25,-252 244.25,-252 244.25,-216 298.25,-216 298.25,-252"/>
<text text-anchor="middle" x="271.25" y="-228.95" font-family="Times New Roman,serif" font-size="14.00"> post:</text>
<text text-anchor="middle" x="210.5" y="-255.2" font-family="Times New Roman,serif" font-size="14.00">(22)Boolean</text>
</g>
<!-- n23&#45;&gt;n22 -->
<g id="edge2" class="edge">
<title>n23&#45;&gt;n22</title>
<path fill="none" stroke="black" d="M219.31,-287.7C227.49,-279.39 237.46,-269.28 246.47,-260.14"/>
<polygon fill="black" stroke="black" points="248.8,-262.76 253.33,-253.18 243.81,-257.85 248.8,-262.76"/>
</g>
<!-- n16 -->
<g id="node4" class="node">
<title>n16</title>
<polygon fill="none" stroke="black" points="199,-180 67.5,-180 67.5,-144 199,-144 199,-180"/>
<text text-anchor="middle" x="133.25" y="-156.95" font-family="Times New Roman,serif" font-size="14.00">inputArray : int[dim]</text>
<text text-anchor="middle" x="33.75" y="-183.2" font-family="Times New Roman,serif" font-size="14.00">(16)int[dim]</text>
</g>
<!-- n17&#45;&gt;n16 -->
<g id="edge3" class="edge">
<title>n17&#45;&gt;n16</title>
<path fill="none" stroke="black" d="M133.25,-215.7C133.25,-208.41 133.25,-199.73 133.25,-191.54"/>
<polygon fill="black" stroke="black" points="136.75,-191.62 133.25,-181.62 129.75,-191.62 136.75,-191.62"/>
</g>
<!-- n21 -->
<g id="node5" class="node">
<title>n21</title>
<polygon fill="none" stroke="black" points="298.25,-180 244.25,-180 244.25,-144 298.25,-144 298.25,-180"/>
<text text-anchor="middle" x="271.25" y="-156.95" font-family="Times New Roman,serif" font-size="14.00">=</text>
<text text-anchor="middle" x="210.5" y="-183.2" font-family="Times New Roman,serif" font-size="14.00">(21)Boolean</text>
</g>
<!-- n22&#45;&gt;n21 -->
<g id="edge4" class="edge">
<title>n22&#45;&gt;n21</title>
<path fill="none" stroke="black" d="M271.25,-215.7C271.25,-208.41 271.25,-199.73 271.25,-191.54"/>
<polygon fill="black" stroke="black" points="274.75,-191.62 271.25,-181.62 267.75,-191.62 274.75,-191.62"/>
</g>
<!-- n19 -->
<g id="node6" class="node">
<title>n19</title>
<polygon fill="none" stroke="black" points="258.12,-108 196.38,-108 196.38,-72 258.12,-72 258.12,-108"/>
<text text-anchor="middle" x="227.25" y="-84.95" font-family="Times New Roman,serif" font-size="14.00">self.data</text>
<text text-anchor="middle" x="162.62" y="-111.2" font-family="Times New Roman,serif" font-size="14.00">(19)int[dim]</text>
</g>
<!-- n21&#45;&gt;n19 -->
<g id="edge5" class="edge">
<title>n21&#45;&gt;n19</title>
<path fill="none" stroke="black" d="M260.37,-143.7C255.47,-135.9 249.57,-126.51 244.11,-117.83"/>
<polygon fill="black" stroke="black" points="247.09,-115.99 238.81,-109.39 241.17,-119.71 247.09,-115.99"/>
</g>
<!-- n20 -->
<g id="node7" class="node">
<title>n20</title>
<polygon fill="none" stroke="black" points="351.88,-108 276.62,-108 276.62,-72 351.88,-72 351.88,-108"/>
<text text-anchor="middle" x="314.25" y="-84.95" font-family="Times New Roman,serif" font-size="14.00">inputArray</text>
<text text-anchor="middle" x="242.88" y="-111.2" font-family="Times New Roman,serif" font-size="14.00">(20)int[dim]</text>
</g>
<!-- n21&#45;&gt;n20 -->
<g id="edge6" class="edge">
<title>n21&#45;&gt;n20</title>
<path fill="none" stroke="black" d="M281.88,-143.7C286.67,-135.9 292.44,-126.51 297.77,-117.83"/>
<polygon fill="black" stroke="black" points="300.7,-119.75 302.95,-109.39 294.73,-116.08 300.7,-119.75"/>
</g>
<!-- n18 -->
<g id="node8" class="node">
<title>n18</title>
<polygon fill="none" stroke="black" points="254.25,-36 200.25,-36 200.25,0 254.25,0 254.25,-36"/>
<text text-anchor="middle" x="227.25" y="-12.95" font-family="Times New Roman,serif" font-size="14.00">self</text>
<text text-anchor="middle" x="163.88" y="-39.2" font-family="Times New Roman,serif" font-size="14.00">(18)VarArray</text>
</g>
<!-- n19&#45;&gt;n18 -->
<g id="edge7" class="edge">
<title>n19&#45;&gt;n18</title>
<path fill="none" stroke="black" d="M227.25,-71.7C227.25,-64.41 227.25,-55.73 227.25,-47.54"/>
<polygon fill="black" stroke="black" points="230.75,-47.62 227.25,-37.62 223.75,-47.62 230.75,-47.62"/>
</g>
</g>
</svg>
