<?xml version="1.0" encoding="UTF-8" standalone="no"?>
<!DOCTYPE svg PUBLIC "-//W3C//DTD SVG 1.1//EN"
 "http://www.w3.org/Graphics/SVG/1.1/DTD/svg11.dtd">
<!-- Generated by graphviz version 12.2.1 (20241206.2353)
 -->
<!-- Title: AST Pages: 1 -->
<svg width="2653pt" height="795pt"
 viewBox="0.00 0.00 2653.00 794.50" xmlns="http://www.w3.org/2000/svg" xmlns:xlink="http://www.w3.org/1999/xlink">
<g id="graph0" class="graph" transform="scale(1 1) rotate(0) translate(4 790.5)">
<title>AST</title>
<polygon fill="white" stroke="none" points="-4,4 -4,-790.5 2649,-790.5 2649,4 -4,4"/>
<!-- n158 -->
<g id="node1" class="node">
<title>n158</title>
<polygon fill="none" stroke="black" points="552.88,-770 299.12,-770 299.12,-734 552.88,-734 552.88,-770"/>
<text text-anchor="middle" x="426" y="-746.95" font-family="Times New Roman,serif" font-size="14.00">ContextDecl: node(96) Context: node (157)</text>
<text text-anchor="middle" x="284.5" y="-773.2" font-family="Times New Roman,serif" font-size="14.00">(158)</text>
</g>
<!-- n96 -->
<g id="node2" class="node">
<title>n96</title>
<polygon fill="none" stroke="black" points="485.62,-698 158.38,-698 158.38,-662 485.62,-662 485.62,-698"/>
<text text-anchor="middle" x="322" y="-674.95" font-family="Times New Roman,serif" font-size="14.00">ThreeDimVarArray::sub(node (95)) : ThreeDimVarArray</text>
<text text-anchor="middle" x="147.12" y="-701.2" font-family="Times New Roman,serif" font-size="14.00">(96)</text>
</g>
<!-- n158&#45;&gt;n96 -->
<g id="edge1" class="edge">
<title>n158&#45;&gt;n96</title>
<path fill="none" stroke="black" d="M400.02,-733.52C387.02,-724.76 371.09,-714.04 357.03,-704.58"/>
<polygon fill="black" stroke="black" points="359.15,-701.79 348.9,-699.11 355.24,-707.59 359.15,-701.79"/>
</g>
<!-- n157 -->
<g id="node3" class="node">
<title>n157</title>
<polygon fill="none" stroke="black" points="573,-698 519,-698 519,-662 573,-662 573,-698"/>
<text text-anchor="middle" x="546" y="-674.95" font-family="Times New Roman,serif" font-size="14.00"> post:</text>
<text text-anchor="middle" x="481.88" y="-701.2" font-family="Times New Roman,serif" font-size="14.00">(157)Boolean</text>
</g>
<!-- n158&#45;&gt;n157 -->
<g id="edge2" class="edge">
<title>n158&#45;&gt;n157</title>
<path fill="none" stroke="black" d="M455.97,-733.52C472.1,-724.11 492.14,-712.42 509.21,-702.46"/>
<polygon fill="black" stroke="black" points="510.69,-705.65 517.56,-697.59 507.16,-699.61 510.69,-705.65"/>
</g>
<!-- n95 -->
<g id="node4" class="node">
<title>n95</title>
<polygon fill="none" stroke="black" points="366.12,-623.5 215.88,-623.5 215.88,-587.5 366.12,-587.5 366.12,-623.5"/>
<text text-anchor="middle" x="291" y="-600.45" font-family="Times New Roman,serif" font-size="14.00">arg : ThreeDimVarArray</text>
<text text-anchor="middle" x="151.38" y="-626.7" font-family="Times New Roman,serif" font-size="14.00">(95)ThreeDimVarArray</text>
</g>
<!-- n96&#45;&gt;n95 -->
<g id="edge3" class="edge">
<title>n96&#45;&gt;n95</title>
<path fill="none" stroke="black" d="M314.65,-661.82C311.1,-653.51 306.75,-643.34 302.75,-633.99"/>
<polygon fill="black" stroke="black" points="306.04,-632.77 298.89,-624.95 299.6,-635.52 306.04,-632.77"/>
</g>
<!-- n156 -->
<g id="node5" class="node">
<title>n156</title>
<polygon fill="none" stroke="black" points="739.88,-626 384.12,-626 384.12,-585 739.88,-585 739.88,-626"/>
<text text-anchor="middle" x="562" y="-608.7" font-family="Times New Roman,serif" font-size="14.00">LetExp </text>
<text text-anchor="middle" x="562" y="-592.2" font-family="Times New Roman,serif" font-size="14.00">Let node(102), node(108), node(114), node(155) in node(155)</text>
<text text-anchor="middle" x="347" y="-629.2" font-family="Times New Roman,serif" font-size="14.00">(156)Boolean</text>
</g>
<!-- n157&#45;&gt;n156 -->
<g id="edge4" class="edge">
<title>n157&#45;&gt;n156</title>
<path fill="none" stroke="black" d="M549.79,-661.82C551.41,-654.51 553.34,-645.75 555.19,-637.38"/>
<polygon fill="black" stroke="black" points="558.55,-638.38 557.29,-627.86 551.71,-636.87 558.55,-638.38"/>
</g>
<!-- n102 -->
<g id="node6" class="node">
<title>n102</title>
<polygon fill="none" stroke="black" points="244,-538.25 190,-538.25 190,-502.25 244,-502.25 244,-538.25"/>
<text text-anchor="middle" x="217" y="-515.2" font-family="Times New Roman,serif" font-size="14.00">=</text>
<text text-anchor="middle" x="152.88" y="-541.45" font-family="Times New Roman,serif" font-size="14.00">(102)Boolean</text>
</g>
<!-- n156&#45;&gt;n102 -->
<g id="edge5" class="edge">
<title>n156&#45;&gt;n102</title>
<path fill="none" stroke="black" d="M479.36,-584.56C408.42,-567.44 309.34,-543.53 255.51,-530.54"/>
<polygon fill="black" stroke="black" points="256.44,-527.17 245.9,-528.22 254.8,-533.97 256.44,-527.17"/>
</g>
<!-- n108 -->
<g id="node7" class="node">
<title>n108</title>
<polygon fill="none" stroke="black" points="520,-538.25 466,-538.25 466,-502.25 520,-502.25 520,-538.25"/>
<text text-anchor="middle" x="493" y="-515.2" font-family="Times New Roman,serif" font-size="14.00">=</text>
<text text-anchor="middle" x="428.88" y="-541.45" font-family="Times New Roman,serif" font-size="14.00">(108)Boolean</text>
</g>
<!-- n156&#45;&gt;n108 -->
<g id="edge6" class="edge">
<title>n156&#45;&gt;n108</title>
<path fill="none" stroke="black" d="M545.65,-584.77C536.37,-573.58 524.66,-559.44 514.63,-547.35"/>
<polygon fill="black" stroke="black" points="517.4,-545.21 508.33,-539.74 512.01,-549.68 517.4,-545.21"/>
</g>
<!-- n114 -->
<g id="node8" class="node">
<title>n114</title>
<polygon fill="none" stroke="black" points="658,-538.25 604,-538.25 604,-502.25 658,-502.25 658,-538.25"/>
<text text-anchor="middle" x="631" y="-515.2" font-family="Times New Roman,serif" font-size="14.00">=</text>
<text text-anchor="middle" x="566.88" y="-541.45" font-family="Times New Roman,serif" font-size="14.00">(114)Boolean</text>
</g>
<!-- n156&#45;&gt;n114 -->
<g id="edge7" class="edge">
<title>n156&#45;&gt;n114</title>
<path fill="none" stroke="black" d="M578.35,-584.77C587.63,-573.58 599.34,-559.44 609.37,-547.35"/>
<polygon fill="black" stroke="black" points="611.99,-549.68 615.67,-539.74 606.6,-545.21 611.99,-549.68"/>
</g>
<!-- n155 -->
<g id="node9" class="node">
<title>n155</title>
<polygon fill="none" stroke="black" points="1249.12,-549 1026.88,-549 1026.88,-491.5 1249.12,-491.5 1249.12,-549"/>
<text text-anchor="middle" x="1138" y="-531.7" font-family="Times New Roman,serif" font-size="14.00">IterateExp</text>
<text text-anchor="middle" x="1138" y="-515.2" font-family="Times New Roman,serif" font-size="14.00">source=node(117) Iterator=node(118)</text>
<text text-anchor="middle" x="1138" y="-498.7" font-family="Times New Roman,serif" font-size="14.00">Result=node(121) Body=node(154)</text>
<text text-anchor="middle" x="989.75" y="-552.2" font-family="Times New Roman,serif" font-size="14.00">(155)Boolean</text>
</g>
<!-- n156&#45;&gt;n155 -->
<g id="edge8" class="edge">
<title>n156&#45;&gt;n155</title>
<path fill="none" stroke="black" d="M700.33,-584.51C796.19,-570.65 922.68,-552.37 1015.02,-539.02"/>
<polygon fill="black" stroke="black" points="1015.49,-542.49 1024.89,-537.6 1014.49,-535.56 1015.49,-542.49"/>
</g>
<!-- n101 -->
<g id="node10" class="node">
<title>n101</title>
<polygon fill="none" stroke="black" points="106.5,-444.75 51.5,-444.75 51.5,-408.75 106.5,-408.75 106.5,-444.75"/>
<text text-anchor="middle" x="79" y="-421.7" font-family="Times New Roman,serif" font-size="14.00">d1 : int</text>
<text text-anchor="middle" x="29.75" y="-447.95" font-family="Times New Roman,serif" font-size="14.00">(101)int</text>
</g>
<!-- n102&#45;&gt;n101 -->
<g id="edge9" class="edge">
<title>n102&#45;&gt;n101</title>
<path fill="none" stroke="black" d="M189.61,-502.79C169.07,-490.24 140.42,-472.32 116,-455.5 114.21,-454.27 112.39,-452.99 110.57,-451.69"/>
<polygon fill="black" stroke="black" points="112.85,-449.02 102.71,-445.96 108.73,-454.68 112.85,-449.02"/>
</g>
<!-- n100 -->
<g id="node11" class="node">
<title>n100</title>
<polygon fill="none" stroke="black" points="309,-444.75 125,-444.75 125,-408.75 309,-408.75 309,-444.75"/>
<text text-anchor="middle" x="217" y="-421.7" font-family="Times New Roman,serif" font-size="14.00">arg.data.getDimensionSizes(1)</text>
<text text-anchor="middle" x="103.25" y="-447.95" font-family="Times New Roman,serif" font-size="14.00">(100)int</text>
</g>
<!-- n102&#45;&gt;n100 -->
<g id="edge10" class="edge">
<title>n102&#45;&gt;n100</title>
<path fill="none" stroke="black" d="M217,-502.04C217,-489.21 217,-471.4 217,-456.44"/>
<polygon fill="black" stroke="black" points="220.5,-456.71 217,-446.71 213.5,-456.71 220.5,-456.71"/>
</g>
<!-- n107 -->
<g id="node12" class="node">
<title>n107</title>
<polygon fill="none" stroke="black" points="382.5,-444.75 327.5,-444.75 327.5,-408.75 382.5,-408.75 382.5,-444.75"/>
<text text-anchor="middle" x="355" y="-421.7" font-family="Times New Roman,serif" font-size="14.00">d2 : int</text>
<text text-anchor="middle" x="305.75" y="-447.95" font-family="Times New Roman,serif" font-size="14.00">(107)int</text>
</g>
<!-- n108&#45;&gt;n107 -->
<g id="edge11" class="edge">
<title>n108&#45;&gt;n107</title>
<path fill="none" stroke="black" d="M465.61,-502.79C445.07,-490.24 416.42,-472.32 392,-455.5 390.21,-454.27 388.39,-452.99 386.57,-451.69"/>
<polygon fill="black" stroke="black" points="388.85,-449.02 378.71,-445.96 384.73,-454.68 388.85,-449.02"/>
</g>
<!-- n106 -->
<g id="node13" class="node">
<title>n106</title>
<polygon fill="none" stroke="black" points="585,-444.75 401,-444.75 401,-408.75 585,-408.75 585,-444.75"/>
<text text-anchor="middle" x="493" y="-421.7" font-family="Times New Roman,serif" font-size="14.00">arg.data.getDimensionSizes(2)</text>
<text text-anchor="middle" x="379.25" y="-447.95" font-family="Times New Roman,serif" font-size="14.00">(106)int</text>
</g>
<!-- n108&#45;&gt;n106 -->
<g id="edge12" class="edge">
<title>n108&#45;&gt;n106</title>
<path fill="none" stroke="black" d="M493,-502.04C493,-489.21 493,-471.4 493,-456.44"/>
<polygon fill="black" stroke="black" points="496.5,-456.71 493,-446.71 489.5,-456.71 496.5,-456.71"/>
</g>
<!-- n113 -->
<g id="node14" class="node">
<title>n113</title>
<polygon fill="none" stroke="black" points="658.5,-444.75 603.5,-444.75 603.5,-408.75 658.5,-408.75 658.5,-444.75"/>
<text text-anchor="middle" x="631" y="-421.7" font-family="Times New Roman,serif" font-size="14.00">d3 : int</text>
<text text-anchor="middle" x="581.75" y="-447.95" font-family="Times New Roman,serif" font-size="14.00">(113)int</text>
</g>
<!-- n114&#45;&gt;n113 -->
<g id="edge13" class="edge">
<title>n114&#45;&gt;n113</title>
<path fill="none" stroke="black" d="M631,-502.04C631,-489.21 631,-471.4 631,-456.44"/>
<polygon fill="black" stroke="black" points="634.5,-456.71 631,-446.71 627.5,-456.71 634.5,-456.71"/>
</g>
<!-- n112 -->
<g id="node15" class="node">
<title>n112</title>
<polygon fill="none" stroke="black" points="861,-444.75 677,-444.75 677,-408.75 861,-408.75 861,-444.75"/>
<text text-anchor="middle" x="769" y="-421.7" font-family="Times New Roman,serif" font-size="14.00">arg.data.getDimensionSizes(3)</text>
<text text-anchor="middle" x="655.25" y="-447.95" font-family="Times New Roman,serif" font-size="14.00">(112)int</text>
</g>
<!-- n114&#45;&gt;n112 -->
<g id="edge14" class="edge">
<title>n114&#45;&gt;n112</title>
<path fill="none" stroke="black" d="M657.28,-501.82C678.86,-487.51 709.64,-467.11 733.42,-451.34"/>
<polygon fill="black" stroke="black" points="735.15,-454.39 741.55,-445.95 731.29,-448.56 735.15,-454.39"/>
</g>
<!-- n117 -->
<g id="node16" class="node">
<title>n117</title>
<polygon fill="none" stroke="black" points="1093.38,-444.75 878.62,-444.75 878.62,-408.75 1093.38,-408.75 1093.38,-444.75"/>
<text text-anchor="middle" x="986" y="-421.7" font-family="Times New Roman,serif" font-size="14.00">Sequence{ node(115) .. node(116) }</text>
<text text-anchor="middle" x="856.88" y="-447.95" font-family="Times New Roman,serif" font-size="14.00">(117)int</text>
</g>
<!-- n155&#45;&gt;n117 -->
<g id="edge15" class="edge">
<title>n155&#45;&gt;n117</title>
<path fill="none" stroke="black" d="M1091.15,-491.05C1069.81,-478.2 1044.86,-463.18 1024.61,-450.99"/>
<polygon fill="black" stroke="black" points="1026.46,-448.02 1016.09,-445.86 1022.85,-454.02 1026.46,-448.02"/>
</g>
<!-- n118 -->
<g id="node17" class="node">
<title>n118</title>
<polygon fill="none" stroke="black" points="1165,-444.75 1111,-444.75 1111,-408.75 1165,-408.75 1165,-444.75"/>
<text text-anchor="middle" x="1138" y="-421.7" font-family="Times New Roman,serif" font-size="14.00">it : int</text>
<text text-anchor="middle" x="1089.25" y="-447.95" font-family="Times New Roman,serif" font-size="14.00">(118)int</text>
</g>
<!-- n155&#45;&gt;n118 -->
<g id="edge16" class="edge">
<title>n155&#45;&gt;n118</title>
<path fill="none" stroke="black" d="M1138,-491.3C1138,-480.26 1138,-467.59 1138,-456.47"/>
<polygon fill="black" stroke="black" points="1141.5,-456.69 1138,-446.69 1134.5,-456.69 1141.5,-456.69"/>
</g>
<!-- n121 -->
<g id="node18" class="node">
<title>n121</title>
<polygon fill="none" stroke="black" points="1237,-444.75 1183,-444.75 1183,-408.75 1237,-408.75 1237,-444.75"/>
<text text-anchor="middle" x="1210" y="-421.7" font-family="Times New Roman,serif" font-size="14.00">=</text>
<text text-anchor="middle" x="1145.88" y="-395.45" font-family="Times New Roman,serif" font-size="14.00">(121)Boolean</text>
</g>
<!-- n155&#45;&gt;n121 -->
<g id="edge17" class="edge">
<title>n155&#45;&gt;n121</title>
<path fill="none" stroke="black" d="M1159.99,-491.3C1169.33,-479.44 1180.15,-465.69 1189.33,-454.02"/>
<polygon fill="black" stroke="black" points="1191.92,-456.39 1195.35,-446.37 1186.41,-452.06 1191.92,-456.39"/>
</g>
<!-- n154 -->
<g id="node19" class="node">
<title>n154</title>
<polygon fill="none" stroke="black" points="1626.12,-455.5 1403.88,-455.5 1403.88,-398 1626.12,-398 1626.12,-455.5"/>
<text text-anchor="middle" x="1515" y="-438.2" font-family="Times New Roman,serif" font-size="14.00">IterateExp</text>
<text text-anchor="middle" x="1515" y="-421.7" font-family="Times New Roman,serif" font-size="14.00">source=node(124) Iterator=node(125)</text>
<text text-anchor="middle" x="1515" y="-405.2" font-family="Times New Roman,serif" font-size="14.00">Result=node(128) Body=node(153)</text>
<text text-anchor="middle" x="1366.75" y="-458.7" font-family="Times New Roman,serif" font-size="14.00">(154)Boolean</text>
</g>
<!-- n155&#45;&gt;n154 -->
<g id="edge18" class="edge">
<title>n155&#45;&gt;n154</title>
<path fill="none" stroke="black" d="M1249.58,-492.17C1294.51,-481.26 1346.47,-468.65 1392.44,-457.5"/>
<polygon fill="black" stroke="black" points="1393.02,-460.96 1401.91,-455.2 1391.36,-454.16 1393.02,-460.96"/>
</g>
<!-- n98 -->
<g id="node20" class="node">
<title>n98</title>
<polygon fill="none" stroke="black" points="208.75,-351.25 149.25,-351.25 149.25,-315.25 208.75,-315.25 208.75,-351.25"/>
<text text-anchor="middle" x="179" y="-328.2" font-family="Times New Roman,serif" font-size="14.00">arg.data</text>
<text text-anchor="middle" x="74.62" y="-354.45" font-family="Times New Roman,serif" font-size="14.00">(98)int[dim1][dim2][dim3]</text>
</g>
<!-- n100&#45;&gt;n98 -->
<g id="edge19" class="edge">
<title>n100&#45;&gt;n98</title>
<path fill="none" stroke="black" d="M209.85,-408.54C204.42,-395.46 196.84,-377.2 190.55,-362.05"/>
<polygon fill="black" stroke="black" points="193.89,-360.99 186.83,-353.09 187.43,-363.67 193.89,-360.99"/>
</g>
<!-- n99 -->
<g id="node21" class="node">
<title>n99</title>
<polygon fill="none" stroke="black" points="281,-351.25 227,-351.25 227,-315.25 281,-315.25 281,-351.25"/>
<text text-anchor="middle" x="254" y="-328.2" font-family="Times New Roman,serif" font-size="14.00">1</text>
<text text-anchor="middle" x="208.62" y="-354.45" font-family="Times New Roman,serif" font-size="14.00">(99)int</text>
</g>
<!-- n100&#45;&gt;n99 -->
<g id="edge20" class="edge">
<title>n100&#45;&gt;n99</title>
<path fill="none" stroke="black" d="M223.96,-408.54C229.25,-395.46 236.63,-377.2 242.76,-362.05"/>
<polygon fill="black" stroke="black" points="245.87,-363.68 246.38,-353.1 239.38,-361.06 245.87,-363.68"/>
</g>
<!-- n104 -->
<g id="node22" class="node">
<title>n104</title>
<polygon fill="none" stroke="black" points="484.75,-351.25 425.25,-351.25 425.25,-315.25 484.75,-315.25 484.75,-351.25"/>
<text text-anchor="middle" x="455" y="-328.2" font-family="Times New Roman,serif" font-size="14.00">arg.data</text>
<text text-anchor="middle" x="347.25" y="-354.45" font-family="Times New Roman,serif" font-size="14.00">(104)int[dim1][dim2][dim3]</text>
</g>
<!-- n106&#45;&gt;n104 -->
<g id="edge21" class="edge">
<title>n106&#45;&gt;n104</title>
<path fill="none" stroke="black" d="M485.85,-408.54C480.42,-395.46 472.84,-377.2 466.55,-362.05"/>
<polygon fill="black" stroke="black" points="469.89,-360.99 462.83,-353.09 463.43,-363.67 469.89,-360.99"/>
</g>
<!-- n105 -->
<g id="node23" class="node">
<title>n105</title>
<polygon fill="none" stroke="black" points="557,-351.25 503,-351.25 503,-315.25 557,-315.25 557,-351.25"/>
<text text-anchor="middle" x="530" y="-328.2" font-family="Times New Roman,serif" font-size="14.00">2</text>
<text text-anchor="middle" x="481.25" y="-354.45" font-family="Times New Roman,serif" font-size="14.00">(105)int</text>
</g>
<!-- n106&#45;&gt;n105 -->
<g id="edge22" class="edge">
<title>n106&#45;&gt;n105</title>
<path fill="none" stroke="black" d="M499.96,-408.54C505.25,-395.46 512.63,-377.2 518.76,-362.05"/>
<polygon fill="black" stroke="black" points="521.87,-363.68 522.38,-353.1 515.38,-361.06 521.87,-363.68"/>
</g>
<!-- n110 -->
<g id="node24" class="node">
<title>n110</title>
<polygon fill="none" stroke="black" points="759.75,-351.25 700.25,-351.25 700.25,-315.25 759.75,-315.25 759.75,-351.25"/>
<text text-anchor="middle" x="730" y="-328.2" font-family="Times New Roman,serif" font-size="14.00">arg.data</text>
<text text-anchor="middle" x="622.25" y="-354.45" font-family="Times New Roman,serif" font-size="14.00">(110)int[dim1][dim2][dim3]</text>
</g>
<!-- n112&#45;&gt;n110 -->
<g id="edge23" class="edge">
<title>n112&#45;&gt;n110</title>
<path fill="none" stroke="black" d="M761.66,-408.54C756.09,-395.46 748.31,-377.2 741.85,-362.05"/>
<polygon fill="black" stroke="black" points="745.17,-360.91 738.03,-353.09 738.73,-363.66 745.17,-360.91"/>
</g>
<!-- n111 -->
<g id="node25" class="node">
<title>n111</title>
<polygon fill="none" stroke="black" points="832,-351.25 778,-351.25 778,-315.25 832,-315.25 832,-351.25"/>
<text text-anchor="middle" x="805" y="-328.2" font-family="Times New Roman,serif" font-size="14.00">3</text>
<text text-anchor="middle" x="756.25" y="-354.45" font-family="Times New Roman,serif" font-size="14.00">(111)int</text>
</g>
<!-- n112&#45;&gt;n111 -->
<g id="edge24" class="edge">
<title>n112&#45;&gt;n111</title>
<path fill="none" stroke="black" d="M775.77,-408.54C780.92,-395.46 788.1,-377.2 794.06,-362.05"/>
<polygon fill="black" stroke="black" points="797.18,-363.69 797.58,-353.1 790.66,-361.13 797.18,-363.69"/>
</g>
<!-- n115 -->
<g id="node26" class="node">
<title>n115</title>
<polygon fill="none" stroke="black" points="963,-351.25 909,-351.25 909,-315.25 963,-315.25 963,-351.25"/>
<text text-anchor="middle" x="936" y="-328.2" font-family="Times New Roman,serif" font-size="14.00">1</text>
<text text-anchor="middle" x="887.25" y="-354.45" font-family="Times New Roman,serif" font-size="14.00">(115)int</text>
</g>
<!-- n117&#45;&gt;n115 -->
<g id="edge25" class="edge">
<title>n117&#45;&gt;n115</title>
<path fill="none" stroke="black" d="M976.6,-408.54C969.38,-395.33 959.27,-376.84 950.95,-361.61"/>
<polygon fill="black" stroke="black" points="954.12,-360.12 946.26,-353.02 947.98,-363.48 954.12,-360.12"/>
</g>
<!-- n116 -->
<g id="node27" class="node">
<title>n116</title>
<polygon fill="none" stroke="black" points="1035,-351.25 981,-351.25 981,-315.25 1035,-315.25 1035,-351.25"/>
<text text-anchor="middle" x="1008" y="-328.2" font-family="Times New Roman,serif" font-size="14.00">d1</text>
<text text-anchor="middle" x="959.25" y="-354.45" font-family="Times New Roman,serif" font-size="14.00">(116)int</text>
</g>
<!-- n117&#45;&gt;n116 -->
<g id="edge26" class="edge">
<title>n117&#45;&gt;n116</title>
<path fill="none" stroke="black" d="M990.14,-408.54C993.25,-395.59 997.59,-377.55 1001.21,-362.49"/>
<polygon fill="black" stroke="black" points="1004.52,-363.71 1003.45,-353.17 997.71,-362.07 1004.52,-363.71"/>
</g>
<!-- n120 -->
<g id="node28" class="node">
<title>n120</title>
<polygon fill="none" stroke="black" points="1165.12,-351.25 1074.88,-351.25 1074.88,-315.25 1165.12,-315.25 1165.12,-351.25"/>
<text text-anchor="middle" x="1120" y="-328.2" font-family="Times New Roman,serif" font-size="14.00">acc : Boolean</text>
<text text-anchor="middle" x="1037.75" y="-354.45" font-family="Times New Roman,serif" font-size="14.00">(120)Boolean</text>
</g>
<!-- n121&#45;&gt;n120 -->
<g id="edge27" class="edge">
<title>n121&#45;&gt;n120</title>
<path fill="none" stroke="black" d="M1193.07,-408.54C1179.58,-394.82 1160.49,-375.41 1145.2,-359.87"/>
<polygon fill="black" stroke="black" points="1147.73,-357.45 1138.22,-352.77 1142.74,-362.36 1147.73,-357.45"/>
</g>
<!-- n119 -->
<g id="node29" class="node">
<title>n119</title>
<polygon fill="none" stroke="black" points="1237,-351.25 1183,-351.25 1183,-315.25 1237,-315.25 1237,-351.25"/>
<text text-anchor="middle" x="1210" y="-328.2" font-family="Times New Roman,serif" font-size="14.00">true</text>
<text text-anchor="middle" x="1145.88" y="-354.45" font-family="Times New Roman,serif" font-size="14.00">(119)Boolean</text>
</g>
<!-- n121&#45;&gt;n119 -->
<g id="edge28" class="edge">
<title>n121&#45;&gt;n119</title>
<path fill="none" stroke="black" d="M1210,-408.54C1210,-395.71 1210,-377.9 1210,-362.94"/>
<polygon fill="black" stroke="black" points="1213.5,-363.21 1210,-353.21 1206.5,-363.21 1213.5,-363.21"/>
</g>
<!-- n124 -->
<g id="node30" class="node">
<title>n124</title>
<polygon fill="none" stroke="black" points="1469.38,-351.25 1254.62,-351.25 1254.62,-315.25 1469.38,-315.25 1469.38,-351.25"/>
<text text-anchor="middle" x="1362" y="-328.2" font-family="Times New Roman,serif" font-size="14.00">Sequence{ node(122) .. node(123) }</text>
<text text-anchor="middle" x="1232.88" y="-354.45" font-family="Times New Roman,serif" font-size="14.00">(124)int</text>
</g>
<!-- n154&#45;&gt;n124 -->
<g id="edge29" class="edge">
<title>n154&#45;&gt;n124</title>
<path fill="none" stroke="black" d="M1467.85,-397.55C1446.27,-384.64 1421.01,-369.54 1400.59,-357.33"/>
<polygon fill="black" stroke="black" points="1402.66,-354.49 1392.28,-352.36 1399.07,-360.5 1402.66,-354.49"/>
</g>
<!-- n125 -->
<g id="node31" class="node">
<title>n125</title>
<polygon fill="none" stroke="black" points="1542.88,-351.25 1487.12,-351.25 1487.12,-315.25 1542.88,-315.25 1542.88,-351.25"/>
<text text-anchor="middle" x="1515" y="-328.2" font-family="Times New Roman,serif" font-size="14.00">it2 : int</text>
<text text-anchor="middle" x="1465.38" y="-354.45" font-family="Times New Roman,serif" font-size="14.00">(125)int</text>
</g>
<!-- n154&#45;&gt;n125 -->
<g id="edge30" class="edge">
<title>n154&#45;&gt;n125</title>
<path fill="none" stroke="black" d="M1515,-397.8C1515,-386.76 1515,-374.09 1515,-362.97"/>
<polygon fill="black" stroke="black" points="1518.5,-363.19 1515,-353.19 1511.5,-363.19 1518.5,-363.19"/>
</g>
<!-- n128 -->
<g id="node32" class="node">
<title>n128</title>
<polygon fill="none" stroke="black" points="1615,-351.25 1561,-351.25 1561,-315.25 1615,-315.25 1615,-351.25"/>
<text text-anchor="middle" x="1588" y="-328.2" font-family="Times New Roman,serif" font-size="14.00">=</text>
<text text-anchor="middle" x="1523.88" y="-301.95" font-family="Times New Roman,serif" font-size="14.00">(128)Boolean</text>
</g>
<!-- n154&#45;&gt;n128 -->
<g id="edge31" class="edge">
<title>n154&#45;&gt;n128</title>
<path fill="none" stroke="black" d="M1537.3,-397.8C1546.76,-385.94 1557.73,-372.19 1567.04,-360.52"/>
<polygon fill="black" stroke="black" points="1569.65,-362.86 1573.15,-352.86 1564.18,-358.5 1569.65,-362.86"/>
</g>
<!-- n153 -->
<g id="node33" class="node">
<title>n153</title>
<polygon fill="none" stroke="black" points="2004.12,-362 1781.88,-362 1781.88,-304.5 2004.12,-304.5 2004.12,-362"/>
<text text-anchor="middle" x="1893" y="-344.7" font-family="Times New Roman,serif" font-size="14.00">IterateExp</text>
<text text-anchor="middle" x="1893" y="-328.2" font-family="Times New Roman,serif" font-size="14.00">source=node(131) Iterator=node(132)</text>
<text text-anchor="middle" x="1893" y="-311.7" font-family="Times New Roman,serif" font-size="14.00">Result=node(135) Body=node(152)</text>
<text text-anchor="middle" x="1744.75" y="-365.2" font-family="Times New Roman,serif" font-size="14.00">(153)Boolean</text>
</g>
<!-- n154&#45;&gt;n153 -->
<g id="edge32" class="edge">
<title>n154&#45;&gt;n153</title>
<path fill="none" stroke="black" d="M1626.62,-398.73C1671.88,-387.78 1724.29,-375.09 1770.58,-363.88"/>
<polygon fill="black" stroke="black" points="1771.23,-367.33 1780.12,-361.57 1769.58,-360.52 1771.23,-367.33"/>
</g>
<!-- n97 -->
<g id="node34" class="node">
<title>n97</title>
<polygon fill="none" stroke="black" points="206,-268.5 152,-268.5 152,-232.5 206,-232.5 206,-268.5"/>
<text text-anchor="middle" x="179" y="-245.45" font-family="Times New Roman,serif" font-size="14.00">arg</text>
<text text-anchor="middle" x="87.5" y="-271.7" font-family="Times New Roman,serif" font-size="14.00">(97)ThreeDimVarArray</text>
</g>
<!-- n98&#45;&gt;n97 -->
<g id="edge33" class="edge">
<title>n98&#45;&gt;n97</title>
<path fill="none" stroke="black" d="M179,-315.13C179,-305.02 179,-291.98 179,-280.33"/>
<polygon fill="black" stroke="black" points="182.5,-280.39 179,-270.39 175.5,-280.39 182.5,-280.39"/>
</g>
<!-- n103 -->
<g id="node35" class="node">
<title>n103</title>
<polygon fill="none" stroke="black" points="482,-268.5 428,-268.5 428,-232.5 482,-232.5 482,-268.5"/>
<text text-anchor="middle" x="455" y="-245.45" font-family="Times New Roman,serif" font-size="14.00">arg</text>
<text text-anchor="middle" x="360.12" y="-271.7" font-family="Times New Roman,serif" font-size="14.00">(103)ThreeDimVarArray</text>
</g>
<!-- n104&#45;&gt;n103 -->
<g id="edge34" class="edge">
<title>n104&#45;&gt;n103</title>
<path fill="none" stroke="black" d="M455,-315.13C455,-305.02 455,-291.98 455,-280.33"/>
<polygon fill="black" stroke="black" points="458.5,-280.39 455,-270.39 451.5,-280.39 458.5,-280.39"/>
</g>
<!-- n109 -->
<g id="node36" class="node">
<title>n109</title>
<polygon fill="none" stroke="black" points="757,-268.5 703,-268.5 703,-232.5 757,-232.5 757,-268.5"/>
<text text-anchor="middle" x="730" y="-245.45" font-family="Times New Roman,serif" font-size="14.00">arg</text>
<text text-anchor="middle" x="635.12" y="-271.7" font-family="Times New Roman,serif" font-size="14.00">(109)ThreeDimVarArray</text>
</g>
<!-- n110&#45;&gt;n109 -->
<g id="edge35" class="edge">
<title>n110&#45;&gt;n109</title>
<path fill="none" stroke="black" d="M730,-315.13C730,-305.02 730,-291.98 730,-280.33"/>
<polygon fill="black" stroke="black" points="733.5,-280.39 730,-270.39 726.5,-280.39 733.5,-280.39"/>
</g>
<!-- n122 -->
<g id="node37" class="node">
<title>n122</title>
<polygon fill="none" stroke="black" points="1336,-268.5 1282,-268.5 1282,-232.5 1336,-232.5 1336,-268.5"/>
<text text-anchor="middle" x="1309" y="-245.45" font-family="Times New Roman,serif" font-size="14.00">1</text>
<text text-anchor="middle" x="1260.25" y="-271.7" font-family="Times New Roman,serif" font-size="14.00">(122)int</text>
</g>
<!-- n124&#45;&gt;n122 -->
<g id="edge36" class="edge">
<title>n124&#45;&gt;n122</title>
<path fill="none" stroke="black" d="M1350.76,-315.13C1343.78,-304.49 1334.66,-290.59 1326.72,-278.5"/>
<polygon fill="black" stroke="black" points="1329.65,-276.58 1321.24,-270.14 1323.8,-280.42 1329.65,-276.58"/>
</g>
<!-- n123 -->
<g id="node38" class="node">
<title>n123</title>
<polygon fill="none" stroke="black" points="1408,-268.5 1354,-268.5 1354,-232.5 1408,-232.5 1408,-268.5"/>
<text text-anchor="middle" x="1381" y="-245.45" font-family="Times New Roman,serif" font-size="14.00">d2</text>
<text text-anchor="middle" x="1332.25" y="-271.7" font-family="Times New Roman,serif" font-size="14.00">(123)int</text>
</g>
<!-- n124&#45;&gt;n123 -->
<g id="edge37" class="edge">
<title>n124&#45;&gt;n123</title>
<path fill="none" stroke="black" d="M1366.03,-315.13C1368.43,-304.92 1371.54,-291.7 1374.3,-279.96"/>
<polygon fill="black" stroke="black" points="1377.68,-280.89 1376.56,-270.35 1370.87,-279.28 1377.68,-280.89"/>
</g>
<!-- n127 -->
<g id="node39" class="node">
<title>n127</title>
<polygon fill="none" stroke="black" points="1542.5,-268.5 1445.5,-268.5 1445.5,-232.5 1542.5,-232.5 1542.5,-268.5"/>
<text text-anchor="middle" x="1494" y="-245.45" font-family="Times New Roman,serif" font-size="14.00">acc2 : Boolean</text>
<text text-anchor="middle" x="1408.38" y="-271.7" font-family="Times New Roman,serif" font-size="14.00">(127)Boolean</text>
</g>
<!-- n128&#45;&gt;n127 -->
<g id="edge38" class="edge">
<title>n128&#45;&gt;n127</title>
<path fill="none" stroke="black" d="M1568.07,-315.13C1554.94,-303.85 1537.55,-288.91 1522.92,-276.34"/>
<polygon fill="black" stroke="black" points="1525.24,-273.73 1515.38,-269.86 1520.68,-279.04 1525.24,-273.73"/>
</g>
<!-- n126 -->
<g id="node40" class="node">
<title>n126</title>
<polygon fill="none" stroke="black" points="1615,-268.5 1561,-268.5 1561,-232.5 1615,-232.5 1615,-268.5"/>
<text text-anchor="middle" x="1588" y="-245.45" font-family="Times New Roman,serif" font-size="14.00">true</text>
<text text-anchor="middle" x="1523.88" y="-271.7" font-family="Times New Roman,serif" font-size="14.00">(126)Boolean</text>
</g>
<!-- n128&#45;&gt;n126 -->
<g id="edge39" class="edge">
<title>n128&#45;&gt;n126</title>
<path fill="none" stroke="black" d="M1588,-315.13C1588,-305.02 1588,-291.98 1588,-280.33"/>
<polygon fill="black" stroke="black" points="1591.5,-280.39 1588,-270.39 1584.5,-280.39 1591.5,-280.39"/>
</g>
<!-- n131 -->
<g id="node41" class="node">
<title>n131</title>
<polygon fill="none" stroke="black" points="1847.38,-268.5 1632.62,-268.5 1632.62,-232.5 1847.38,-232.5 1847.38,-268.5"/>
<text text-anchor="middle" x="1740" y="-245.45" font-family="Times New Roman,serif" font-size="14.00">Sequence{ node(129) .. node(130) }</text>
<text text-anchor="middle" x="1610.88" y="-271.7" font-family="Times New Roman,serif" font-size="14.00">(131)int</text>
</g>
<!-- n153&#45;&gt;n131 -->
<g id="edge40" class="edge">
<title>n153&#45;&gt;n131</title>
<path fill="none" stroke="black" d="M1839.49,-304.01C1820.9,-294.2 1800.32,-283.34 1782.72,-274.05"/>
<polygon fill="black" stroke="black" points="1784.56,-271.06 1774.08,-269.49 1781.29,-277.25 1784.56,-271.06"/>
</g>
<!-- n132 -->
<g id="node42" class="node">
<title>n132</title>
<polygon fill="none" stroke="black" points="1920.88,-268.5 1865.12,-268.5 1865.12,-232.5 1920.88,-232.5 1920.88,-268.5"/>
<text text-anchor="middle" x="1893" y="-245.45" font-family="Times New Roman,serif" font-size="14.00">it3 : int</text>
<text text-anchor="middle" x="1843.38" y="-271.7" font-family="Times New Roman,serif" font-size="14.00">(132)int</text>
</g>
<!-- n153&#45;&gt;n132 -->
<g id="edge41" class="edge">
<title>n153&#45;&gt;n132</title>
<path fill="none" stroke="black" d="M1893,-304.01C1893,-296.25 1893,-287.83 1893,-280.05"/>
<polygon fill="black" stroke="black" points="1896.5,-280.06 1893,-270.06 1889.5,-280.06 1896.5,-280.06"/>
</g>
<!-- n135 -->
<g id="node43" class="node">
<title>n135</title>
<polygon fill="none" stroke="black" points="1993,-268.5 1939,-268.5 1939,-232.5 1993,-232.5 1993,-268.5"/>
<text text-anchor="middle" x="1966" y="-245.45" font-family="Times New Roman,serif" font-size="14.00">=</text>
<text text-anchor="middle" x="1901.88" y="-219.2" font-family="Times New Roman,serif" font-size="14.00">(135)Boolean</text>
</g>
<!-- n153&#45;&gt;n135 -->
<g id="edge42" class="edge">
<title>n153&#45;&gt;n135</title>
<path fill="none" stroke="black" d="M1918.53,-304.01C1926.47,-295.23 1935.16,-285.61 1942.92,-277.03"/>
<polygon fill="black" stroke="black" points="1945.47,-279.43 1949.58,-269.67 1940.27,-274.74 1945.47,-279.43"/>
</g>
<!-- n152 -->
<g id="node44" class="node">
<title>n152</title>
<polygon fill="none" stroke="black" points="2106,-268.5 2052,-268.5 2052,-232.5 2106,-232.5 2106,-268.5"/>
<text text-anchor="middle" x="2079" y="-245.45" font-family="Times New Roman,serif" font-size="14.00">=</text>
<text text-anchor="middle" x="2014.88" y="-271.7" font-family="Times New Roman,serif" font-size="14.00">(152)Boolean</text>
</g>
<!-- n153&#45;&gt;n152 -->
<g id="edge43" class="edge">
<title>n153&#45;&gt;n152</title>
<path fill="none" stroke="black" d="M1958.05,-304.01C1985.85,-291.94 2017.32,-278.28 2041.19,-267.91"/>
<polygon fill="black" stroke="black" points="2042.42,-271.2 2050.2,-264 2039.63,-264.78 2042.42,-271.2"/>
</g>
<!-- n129 -->
<g id="node45" class="node">
<title>n129</title>
<polygon fill="none" stroke="black" points="1714,-196.5 1660,-196.5 1660,-160.5 1714,-160.5 1714,-196.5"/>
<text text-anchor="middle" x="1687" y="-173.45" font-family="Times New Roman,serif" font-size="14.00">1</text>
<text text-anchor="middle" x="1638.25" y="-199.7" font-family="Times New Roman,serif" font-size="14.00">(129)int</text>
</g>
<!-- n131&#45;&gt;n129 -->
<g id="edge44" class="edge">
<title>n131&#45;&gt;n129</title>
<path fill="none" stroke="black" d="M1726.9,-232.2C1720.87,-224.23 1713.58,-214.6 1706.89,-205.76"/>
<polygon fill="black" stroke="black" points="1709.69,-203.67 1700.86,-197.81 1704.11,-207.9 1709.69,-203.67"/>
</g>
<!-- n130 -->
<g id="node46" class="node">
<title>n130</title>
<polygon fill="none" stroke="black" points="1786,-196.5 1732,-196.5 1732,-160.5 1786,-160.5 1786,-196.5"/>
<text text-anchor="middle" x="1759" y="-173.45" font-family="Times New Roman,serif" font-size="14.00">d3</text>
<text text-anchor="middle" x="1710.25" y="-199.7" font-family="Times New Roman,serif" font-size="14.00">(130)int</text>
</g>
<!-- n131&#45;&gt;n130 -->
<g id="edge45" class="edge">
<title>n131&#45;&gt;n130</title>
<path fill="none" stroke="black" d="M1744.7,-232.2C1746.72,-224.74 1749.14,-215.82 1751.41,-207.47"/>
<polygon fill="black" stroke="black" points="1754.72,-208.63 1753.96,-198.07 1747.96,-206.8 1754.72,-208.63"/>
</g>
<!-- n134 -->
<g id="node47" class="node">
<title>n134</title>
<polygon fill="none" stroke="black" points="1920.5,-196.5 1823.5,-196.5 1823.5,-160.5 1920.5,-160.5 1920.5,-196.5"/>
<text text-anchor="middle" x="1872" y="-173.45" font-family="Times New Roman,serif" font-size="14.00">acc3 : Boolean</text>
<text text-anchor="middle" x="1786.38" y="-199.7" font-family="Times New Roman,serif" font-size="14.00">(134)Boolean</text>
</g>
<!-- n135&#45;&gt;n134 -->
<g id="edge46" class="edge">
<title>n135&#45;&gt;n134</title>
<path fill="none" stroke="black" d="M1942.76,-232.2C1931.13,-223.53 1916.85,-212.9 1904.18,-203.46"/>
<polygon fill="black" stroke="black" points="1906.62,-200.92 1896.51,-197.75 1902.44,-206.53 1906.62,-200.92"/>
</g>
<!-- n133 -->
<g id="node48" class="node">
<title>n133</title>
<polygon fill="none" stroke="black" points="1993,-196.5 1939,-196.5 1939,-160.5 1993,-160.5 1993,-196.5"/>
<text text-anchor="middle" x="1966" y="-173.45" font-family="Times New Roman,serif" font-size="14.00">true</text>
<text text-anchor="middle" x="1901.88" y="-199.7" font-family="Times New Roman,serif" font-size="14.00">(133)Boolean</text>
</g>
<!-- n135&#45;&gt;n133 -->
<g id="edge47" class="edge">
<title>n135&#45;&gt;n133</title>
<path fill="none" stroke="black" d="M1966,-232.2C1966,-224.91 1966,-216.23 1966,-208.04"/>
<polygon fill="black" stroke="black" points="1969.5,-208.12 1966,-198.12 1962.5,-208.12 1969.5,-208.12"/>
</g>
<!-- n140 -->
<g id="node49" class="node">
<title>n140</title>
<polygon fill="none" stroke="black" points="2146.62,-196.5 2011.38,-196.5 2011.38,-160.5 2146.62,-160.5 2146.62,-196.5"/>
<text text-anchor="middle" x="2079" y="-173.45" font-family="Times New Roman,serif" font-size="14.00">result.data[it][it2][it3]</text>
<text text-anchor="middle" x="1989.62" y="-199.7" font-family="Times New Roman,serif" font-size="14.00">(140)int</text>
</g>
<!-- n152&#45;&gt;n140 -->
<g id="edge48" class="edge">
<title>n152&#45;&gt;n140</title>
<path fill="none" stroke="black" d="M2079,-232.2C2079,-224.91 2079,-216.23 2079,-208.04"/>
<polygon fill="black" stroke="black" points="2082.5,-208.12 2079,-198.12 2075.5,-208.12 2082.5,-208.12"/>
</g>
<!-- n151 -->
<g id="node50" class="node">
<title>n151</title>
<polygon fill="none" stroke="black" points="2285,-196.5 2231,-196.5 2231,-160.5 2285,-160.5 2285,-196.5"/>
<text text-anchor="middle" x="2258" y="-173.45" font-family="Times New Roman,serif" font-size="14.00">&#45;</text>
<text text-anchor="middle" x="2209.25" y="-199.7" font-family="Times New Roman,serif" font-size="14.00">(151)int</text>
</g>
<!-- n152&#45;&gt;n151 -->
<g id="edge49" class="edge">
<title>n152&#45;&gt;n151</title>
<path fill="none" stroke="black" d="M2106.19,-238.87C2136.54,-227 2185.89,-207.7 2220.05,-194.34"/>
<polygon fill="black" stroke="black" points="2221.11,-197.68 2229.15,-190.78 2218.56,-191.17 2221.11,-197.68"/>
</g>
<!-- n136 -->
<g id="node51" class="node">
<title>n136</title>
<polygon fill="none" stroke="black" points="1962,-124.5 1908,-124.5 1908,-88.5 1962,-88.5 1962,-124.5"/>
<text text-anchor="middle" x="1935" y="-101.45" font-family="Times New Roman,serif" font-size="14.00">result</text>
<text text-anchor="middle" x="1840.12" y="-127.7" font-family="Times New Roman,serif" font-size="14.00">(136)ThreeDimVarArray</text>
</g>
<!-- n140&#45;&gt;n136 -->
<g id="edge50" class="edge">
<title>n140&#45;&gt;n136</title>
<path fill="none" stroke="black" d="M2043.03,-160.02C2021.56,-149.58 1994.32,-136.33 1972.56,-125.76"/>
<polygon fill="black" stroke="black" points="1974.26,-122.69 1963.74,-121.47 1971.2,-128.99 1974.26,-122.69"/>
</g>
<!-- n137 -->
<g id="node52" class="node">
<title>n137</title>
<polygon fill="none" stroke="black" points="2034,-124.5 1980,-124.5 1980,-88.5 2034,-88.5 2034,-124.5"/>
<text text-anchor="middle" x="2007" y="-101.45" font-family="Times New Roman,serif" font-size="14.00">it</text>
<text text-anchor="middle" x="1958.25" y="-127.7" font-family="Times New Roman,serif" font-size="14.00">(137)int</text>
</g>
<!-- n140&#45;&gt;n137 -->
<g id="edge51" class="edge">
<title>n140&#45;&gt;n137</title>
<path fill="none" stroke="black" d="M2061.2,-160.2C2052.72,-151.95 2042.41,-141.93 2033.07,-132.85"/>
<polygon fill="black" stroke="black" points="2035.54,-130.36 2025.93,-125.9 2030.66,-135.38 2035.54,-130.36"/>
</g>
<!-- n138 -->
<g id="node53" class="node">
<title>n138</title>
<polygon fill="none" stroke="black" points="2106,-124.5 2052,-124.5 2052,-88.5 2106,-88.5 2106,-124.5"/>
<text text-anchor="middle" x="2079" y="-101.45" font-family="Times New Roman,serif" font-size="14.00">it2</text>
<text text-anchor="middle" x="2030.25" y="-127.7" font-family="Times New Roman,serif" font-size="14.00">(138)int</text>
</g>
<!-- n140&#45;&gt;n138 -->
<g id="edge52" class="edge">
<title>n140&#45;&gt;n138</title>
<path fill="none" stroke="black" d="M2079,-160.2C2079,-152.91 2079,-144.23 2079,-136.04"/>
<polygon fill="black" stroke="black" points="2082.5,-136.12 2079,-126.12 2075.5,-136.12 2082.5,-136.12"/>
</g>
<!-- n139 -->
<g id="node54" class="node">
<title>n139</title>
<polygon fill="none" stroke="black" points="2178,-124.5 2124,-124.5 2124,-88.5 2178,-88.5 2178,-124.5"/>
<text text-anchor="middle" x="2151" y="-101.45" font-family="Times New Roman,serif" font-size="14.00">it3</text>
<text text-anchor="middle" x="2102.25" y="-127.7" font-family="Times New Roman,serif" font-size="14.00">(139)int</text>
</g>
<!-- n140&#45;&gt;n139 -->
<g id="edge53" class="edge">
<title>n140&#45;&gt;n139</title>
<path fill="none" stroke="black" d="M2096.8,-160.2C2105.28,-151.95 2115.59,-141.93 2124.93,-132.85"/>
<polygon fill="black" stroke="black" points="2127.34,-135.38 2132.07,-125.9 2122.46,-130.36 2127.34,-135.38"/>
</g>
<!-- n145 -->
<g id="node55" class="node">
<title>n145</title>
<polygon fill="none" stroke="black" points="2320.38,-124.5 2195.62,-124.5 2195.62,-88.5 2320.38,-88.5 2320.38,-124.5"/>
<text text-anchor="middle" x="2258" y="-101.45" font-family="Times New Roman,serif" font-size="14.00">self.data[it][it2][it3]</text>
<text text-anchor="middle" x="2173.88" y="-127.7" font-family="Times New Roman,serif" font-size="14.00">(145)int</text>
</g>
<!-- n151&#45;&gt;n145 -->
<g id="edge54" class="edge">
<title>n151&#45;&gt;n145</title>
<path fill="none" stroke="black" d="M2258,-160.2C2258,-152.91 2258,-144.23 2258,-136.04"/>
<polygon fill="black" stroke="black" points="2261.5,-136.12 2258,-126.12 2254.5,-136.12 2261.5,-136.12"/>
</g>
<!-- n150 -->
<g id="node56" class="node">
<title>n150</title>
<polygon fill="none" stroke="black" points="2535.25,-124.5 2412.75,-124.5 2412.75,-88.5 2535.25,-88.5 2535.25,-124.5"/>
<text text-anchor="middle" x="2474" y="-101.45" font-family="Times New Roman,serif" font-size="14.00">arg.data[it][it2][it3]</text>
<text text-anchor="middle" x="2391" y="-127.7" font-family="Times New Roman,serif" font-size="14.00">(150)int</text>
</g>
<!-- n151&#45;&gt;n150 -->
<g id="edge55" class="edge">
<title>n151&#45;&gt;n150</title>
<path fill="none" stroke="black" d="M2285.36,-168.63C2316.41,-158.57 2368.13,-141.81 2409.57,-128.38"/>
<polygon fill="black" stroke="black" points="2410.54,-131.75 2418.97,-125.33 2408.38,-125.09 2410.54,-131.75"/>
</g>
<!-- n141 -->
<g id="node57" class="node">
<title>n141</title>
<polygon fill="none" stroke="black" points="2141,-52.5 2087,-52.5 2087,-16.5 2141,-16.5 2141,-52.5"/>
<text text-anchor="middle" x="2114" y="-29.45" font-family="Times New Roman,serif" font-size="14.00">self</text>
<text text-anchor="middle" x="2019.12" y="-55.7" font-family="Times New Roman,serif" font-size="14.00">(141)ThreeDimVarArray</text>
</g>
<!-- n145&#45;&gt;n141 -->
<g id="edge56" class="edge">
<title>n145&#45;&gt;n141</title>
<path fill="none" stroke="black" d="M2222.03,-88.02C2200.56,-77.58 2173.32,-64.33 2151.56,-53.76"/>
<polygon fill="black" stroke="black" points="2153.26,-50.69 2142.74,-49.47 2150.2,-56.99 2153.26,-50.69"/>
</g>
<!-- n142 -->
<g id="node58" class="node">
<title>n142</title>
<polygon fill="none" stroke="black" points="2213,-52.5 2159,-52.5 2159,-16.5 2213,-16.5 2213,-52.5"/>
<text text-anchor="middle" x="2186" y="-29.45" font-family="Times New Roman,serif" font-size="14.00">it</text>
<text text-anchor="middle" x="2137.25" y="-55.7" font-family="Times New Roman,serif" font-size="14.00">(142)int</text>
</g>
<!-- n145&#45;&gt;n142 -->
<g id="edge57" class="edge">
<title>n145&#45;&gt;n142</title>
<path fill="none" stroke="black" d="M2240.2,-88.2C2231.72,-79.95 2221.41,-69.93 2212.07,-60.85"/>
<polygon fill="black" stroke="black" points="2214.54,-58.36 2204.93,-53.9 2209.66,-63.38 2214.54,-58.36"/>
</g>
<!-- n143 -->
<g id="node59" class="node">
<title>n143</title>
<polygon fill="none" stroke="black" points="2285,-52.5 2231,-52.5 2231,-16.5 2285,-16.5 2285,-52.5"/>
<text text-anchor="middle" x="2258" y="-29.45" font-family="Times New Roman,serif" font-size="14.00">it2</text>
<text text-anchor="middle" x="2209.25" y="-55.7" font-family="Times New Roman,serif" font-size="14.00">(143)int</text>
</g>
<!-- n145&#45;&gt;n143 -->
<g id="edge58" class="edge">
<title>n145&#45;&gt;n143</title>
<path fill="none" stroke="black" d="M2258,-88.2C2258,-80.91 2258,-72.23 2258,-64.04"/>
<polygon fill="black" stroke="black" points="2261.5,-64.12 2258,-54.12 2254.5,-64.12 2261.5,-64.12"/>
</g>
<!-- n144 -->
<g id="node60" class="node">
<title>n144</title>
<polygon fill="none" stroke="black" points="2357,-52.5 2303,-52.5 2303,-16.5 2357,-16.5 2357,-52.5"/>
<text text-anchor="middle" x="2330" y="-29.45" font-family="Times New Roman,serif" font-size="14.00">it3</text>
<text text-anchor="middle" x="2281.25" y="-55.7" font-family="Times New Roman,serif" font-size="14.00">(144)int</text>
</g>
<!-- n145&#45;&gt;n144 -->
<g id="edge59" class="edge">
<title>n145&#45;&gt;n144</title>
<path fill="none" stroke="black" d="M2275.8,-88.2C2284.28,-79.95 2294.59,-69.93 2303.93,-60.85"/>
<polygon fill="black" stroke="black" points="2306.34,-63.38 2311.07,-53.9 2301.46,-58.36 2306.34,-63.38"/>
</g>
<!-- n146 -->
<g id="node61" class="node">
<title>n146</title>
<polygon fill="none" stroke="black" points="2429,-52.5 2375,-52.5 2375,-16.5 2429,-16.5 2429,-52.5"/>
<text text-anchor="middle" x="2402" y="-29.45" font-family="Times New Roman,serif" font-size="14.00">arg</text>
<text text-anchor="middle" x="2307.12" y="-3.2" font-family="Times New Roman,serif" font-size="14.00">(146)ThreeDimVarArray</text>
</g>
<!-- n150&#45;&gt;n146 -->
<g id="edge60" class="edge">
<title>n150&#45;&gt;n146</title>
<path fill="none" stroke="black" d="M2456.2,-88.2C2447.72,-79.95 2437.41,-69.93 2428.07,-60.85"/>
<polygon fill="black" stroke="black" points="2430.54,-58.36 2420.93,-53.9 2425.66,-63.38 2430.54,-58.36"/>
</g>
<!-- n147 -->
<g id="node62" class="node">
<title>n147</title>
<polygon fill="none" stroke="black" points="2501,-52.5 2447,-52.5 2447,-16.5 2501,-16.5 2501,-52.5"/>
<text text-anchor="middle" x="2474" y="-29.45" font-family="Times New Roman,serif" font-size="14.00">it</text>
<text text-anchor="middle" x="2425.25" y="-55.7" font-family="Times New Roman,serif" font-size="14.00">(147)int</text>
</g>
<!-- n150&#45;&gt;n147 -->
<g id="edge61" class="edge">
<title>n150&#45;&gt;n147</title>
<path fill="none" stroke="black" d="M2474,-88.2C2474,-80.91 2474,-72.23 2474,-64.04"/>
<polygon fill="black" stroke="black" points="2477.5,-64.12 2474,-54.12 2470.5,-64.12 2477.5,-64.12"/>
</g>
<!-- n148 -->
<g id="node63" class="node">
<title>n148</title>
<polygon fill="none" stroke="black" points="2573,-52.5 2519,-52.5 2519,-16.5 2573,-16.5 2573,-52.5"/>
<text text-anchor="middle" x="2546" y="-29.45" font-family="Times New Roman,serif" font-size="14.00">it2</text>
<text text-anchor="middle" x="2497.25" y="-55.7" font-family="Times New Roman,serif" font-size="14.00">(148)int</text>
</g>
<!-- n150&#45;&gt;n148 -->
<g id="edge62" class="edge">
<title>n150&#45;&gt;n148</title>
<path fill="none" stroke="black" d="M2491.8,-88.2C2500.28,-79.95 2510.59,-69.93 2519.93,-60.85"/>
<polygon fill="black" stroke="black" points="2522.34,-63.38 2527.07,-53.9 2517.46,-58.36 2522.34,-63.38"/>
</g>
<!-- n149 -->
<g id="node64" class="node">
<title>n149</title>
<polygon fill="none" stroke="black" points="2645,-52.5 2591,-52.5 2591,-16.5 2645,-16.5 2645,-52.5"/>
<text text-anchor="middle" x="2618" y="-29.45" font-family="Times New Roman,serif" font-size="14.00">it3</text>
<text text-anchor="middle" x="2569.25" y="-55.7" font-family="Times New Roman,serif" font-size="14.00">(149)int</text>
</g>
<!-- n150&#45;&gt;n149 -->
<g id="edge63" class="edge">
<title>n150&#45;&gt;n149</title>
<path fill="none" stroke="black" d="M2509.97,-88.02C2531.44,-77.58 2558.68,-64.33 2580.44,-53.76"/>
<polygon fill="black" stroke="black" points="2581.8,-56.99 2589.26,-49.47 2578.74,-50.69 2581.8,-56.99"/>
</g>
</g>
</svg>
