<?xml version="1.0" encoding="UTF-8" standalone="no"?>
<!DOCTYPE svg PUBLIC "-//W3C//DTD SVG 1.1//EN"
 "http://www.w3.org/Graphics/SVG/1.1/DTD/svg11.dtd">
<!-- Generated by graphviz version 12.2.1 (20241206.2353)
 -->
<!-- Title: AST Pages: 1 -->
<svg width="2617pt" height="795pt"
 viewBox="0.00 0.00 2617.00 794.50" xmlns="http://www.w3.org/2000/svg" xmlns:xlink="http://www.w3.org/1999/xlink">
<g id="graph0" class="graph" transform="scale(1 1) rotate(0) translate(4 790.5)">
<title>AST</title>
<polygon fill="white" stroke="none" points="-4,4 -4,-790.5 2613,-790.5 2613,4 -4,4"/>
<!-- n94 -->
<g id="node1" class="node">
<title>n94</title>
<polygon fill="none" stroke="black" points="557.5,-770 310.5,-770 310.5,-734 557.5,-734 557.5,-770"/>
<text text-anchor="middle" x="434" y="-746.95" font-family="Times New Roman,serif" font-size="14.00">ContextDecl: node(32) Context: node (93)</text>
<text text-anchor="middle" x="299.25" y="-773.2" font-family="Times New Roman,serif" font-size="14.00">(94)</text>
</g>
<!-- n32 -->
<g id="node2" class="node">
<title>n32</title>
<polygon fill="none" stroke="black" points="494,-698 166,-698 166,-662 494,-662 494,-698"/>
<text text-anchor="middle" x="330" y="-674.95" font-family="Times New Roman,serif" font-size="14.00">ThreeDimVarArray::add(node (31)) : ThreeDimVarArray</text>
<text text-anchor="middle" x="154.75" y="-701.2" font-family="Times New Roman,serif" font-size="14.00">(32)</text>
</g>
<!-- n94&#45;&gt;n32 -->
<g id="edge1" class="edge">
<title>n94&#45;&gt;n32</title>
<path fill="none" stroke="black" d="M408.02,-733.52C395.02,-724.76 379.09,-714.04 365.03,-704.58"/>
<polygon fill="black" stroke="black" points="367.15,-701.79 356.9,-699.11 363.24,-707.59 367.15,-701.79"/>
</g>
<!-- n93 -->
<g id="node3" class="node">
<title>n93</title>
<polygon fill="none" stroke="black" points="577,-698 523,-698 523,-662 577,-662 577,-698"/>
<text text-anchor="middle" x="550" y="-674.95" font-family="Times New Roman,serif" font-size="14.00"> post:</text>
<text text-anchor="middle" x="489.25" y="-701.2" font-family="Times New Roman,serif" font-size="14.00">(93)Boolean</text>
</g>
<!-- n94&#45;&gt;n93 -->
<g id="edge2" class="edge">
<title>n94&#45;&gt;n93</title>
<path fill="none" stroke="black" d="M462.97,-733.52C478.09,-724.4 496.75,-713.13 512.91,-703.38"/>
<polygon fill="black" stroke="black" points="514.54,-706.48 521.3,-698.32 510.93,-700.49 514.54,-706.48"/>
</g>
<!-- n31 -->
<g id="node4" class="node">
<title>n31</title>
<polygon fill="none" stroke="black" points="383.12,-623.5 232.88,-623.5 232.88,-587.5 383.12,-587.5 383.12,-623.5"/>
<text text-anchor="middle" x="308" y="-600.45" font-family="Times New Roman,serif" font-size="14.00">arg : ThreeDimVarArray</text>
<text text-anchor="middle" x="168.38" y="-626.7" font-family="Times New Roman,serif" font-size="14.00">(31)ThreeDimVarArray</text>
</g>
<!-- n32&#45;&gt;n31 -->
<g id="edge3" class="edge">
<title>n32&#45;&gt;n31</title>
<path fill="none" stroke="black" d="M324.79,-661.82C322.29,-653.6 319.25,-643.56 316.43,-634.3"/>
<polygon fill="black" stroke="black" points="319.87,-633.56 313.62,-625.01 313.17,-635.59 319.87,-633.56"/>
</g>
<!-- n92 -->
<g id="node5" class="node">
<title>n92</title>
<polygon fill="none" stroke="black" points="723,-626 401,-626 401,-585 723,-585 723,-626"/>
<text text-anchor="middle" x="562" y="-608.7" font-family="Times New Roman,serif" font-size="14.00">LetExp </text>
<text text-anchor="middle" x="562" y="-592.2" font-family="Times New Roman,serif" font-size="14.00">Let node(38), node(44), node(50), node(91) in node(91)</text>
<text text-anchor="middle" x="367.25" y="-629.2" font-family="Times New Roman,serif" font-size="14.00">(92)Boolean</text>
</g>
<!-- n93&#45;&gt;n92 -->
<g id="edge4" class="edge">
<title>n93&#45;&gt;n92</title>
<path fill="none" stroke="black" d="M552.84,-661.82C554.04,-654.59 555.47,-645.95 556.84,-637.66"/>
<polygon fill="black" stroke="black" points="560.28,-638.31 558.46,-627.87 553.38,-637.17 560.28,-638.31"/>
</g>
<!-- n38 -->
<g id="node6" class="node">
<title>n38</title>
<polygon fill="none" stroke="black" points="244,-538.25 190,-538.25 190,-502.25 244,-502.25 244,-538.25"/>
<text text-anchor="middle" x="217" y="-515.2" font-family="Times New Roman,serif" font-size="14.00">=</text>
<text text-anchor="middle" x="156.25" y="-541.45" font-family="Times New Roman,serif" font-size="14.00">(38)Boolean</text>
</g>
<!-- n92&#45;&gt;n38 -->
<g id="edge5" class="edge">
<title>n92&#45;&gt;n38</title>
<path fill="none" stroke="black" d="M479.36,-584.56C408.42,-567.44 309.34,-543.53 255.51,-530.54"/>
<polygon fill="black" stroke="black" points="256.44,-527.17 245.9,-528.22 254.8,-533.97 256.44,-527.17"/>
</g>
<!-- n44 -->
<g id="node7" class="node">
<title>n44</title>
<polygon fill="none" stroke="black" points="520,-538.25 466,-538.25 466,-502.25 520,-502.25 520,-538.25"/>
<text text-anchor="middle" x="493" y="-515.2" font-family="Times New Roman,serif" font-size="14.00">=</text>
<text text-anchor="middle" x="432.25" y="-541.45" font-family="Times New Roman,serif" font-size="14.00">(44)Boolean</text>
</g>
<!-- n92&#45;&gt;n44 -->
<g id="edge6" class="edge">
<title>n92&#45;&gt;n44</title>
<path fill="none" stroke="black" d="M545.65,-584.77C536.37,-573.58 524.66,-559.44 514.63,-547.35"/>
<polygon fill="black" stroke="black" points="517.4,-545.21 508.33,-539.74 512.01,-549.68 517.4,-545.21"/>
</g>
<!-- n50 -->
<g id="node8" class="node">
<title>n50</title>
<polygon fill="none" stroke="black" points="658,-538.25 604,-538.25 604,-502.25 658,-502.25 658,-538.25"/>
<text text-anchor="middle" x="631" y="-515.2" font-family="Times New Roman,serif" font-size="14.00">=</text>
<text text-anchor="middle" x="570.25" y="-541.45" font-family="Times New Roman,serif" font-size="14.00">(50)Boolean</text>
</g>
<!-- n92&#45;&gt;n50 -->
<g id="edge7" class="edge">
<title>n92&#45;&gt;n50</title>
<path fill="none" stroke="black" d="M578.35,-584.77C587.63,-573.58 599.34,-559.44 609.37,-547.35"/>
<polygon fill="black" stroke="black" points="611.99,-549.68 615.67,-539.74 606.6,-545.21 611.99,-549.68"/>
</g>
<!-- n91 -->
<g id="node9" class="node">
<title>n91</title>
<polygon fill="none" stroke="black" points="1230.38,-549 1021.62,-549 1021.62,-491.5 1230.38,-491.5 1230.38,-549"/>
<text text-anchor="middle" x="1126" y="-531.7" font-family="Times New Roman,serif" font-size="14.00">IterateExp</text>
<text text-anchor="middle" x="1126" y="-515.2" font-family="Times New Roman,serif" font-size="14.00">source=node(53) Iterator=node(54)</text>
<text text-anchor="middle" x="1126" y="-498.7" font-family="Times New Roman,serif" font-size="14.00">Result=node(57) Body=node(90)</text>
<text text-anchor="middle" x="987.88" y="-552.2" font-family="Times New Roman,serif" font-size="14.00">(91)Boolean</text>
</g>
<!-- n92&#45;&gt;n91 -->
<g id="edge8" class="edge">
<title>n92&#45;&gt;n91</title>
<path fill="none" stroke="black" d="M697.45,-584.51C792.88,-570.42 919.31,-551.76 1010.07,-538.36"/>
<polygon fill="black" stroke="black" points="1010.36,-541.86 1019.74,-536.93 1009.34,-534.93 1010.36,-541.86"/>
</g>
<!-- n37 -->
<g id="node10" class="node">
<title>n37</title>
<polygon fill="none" stroke="black" points="106.5,-444.75 51.5,-444.75 51.5,-408.75 106.5,-408.75 106.5,-444.75"/>
<text text-anchor="middle" x="79" y="-421.7" font-family="Times New Roman,serif" font-size="14.00">d1 : int</text>
<text text-anchor="middle" x="33.12" y="-447.95" font-family="Times New Roman,serif" font-size="14.00">(37)int</text>
</g>
<!-- n38&#45;&gt;n37 -->
<g id="edge9" class="edge">
<title>n38&#45;&gt;n37</title>
<path fill="none" stroke="black" d="M189.61,-502.79C169.07,-490.24 140.42,-472.32 116,-455.5 114.21,-454.27 112.39,-452.99 110.57,-451.69"/>
<polygon fill="black" stroke="black" points="112.85,-449.02 102.71,-445.96 108.73,-454.68 112.85,-449.02"/>
</g>
<!-- n36 -->
<g id="node11" class="node">
<title>n36</title>
<polygon fill="none" stroke="black" points="309,-444.75 125,-444.75 125,-408.75 309,-408.75 309,-444.75"/>
<text text-anchor="middle" x="217" y="-421.7" font-family="Times New Roman,serif" font-size="14.00">arg.data.getDimensionSizes(1)</text>
<text text-anchor="middle" x="106.62" y="-447.95" font-family="Times New Roman,serif" font-size="14.00">(36)int</text>
</g>
<!-- n38&#45;&gt;n36 -->
<g id="edge10" class="edge">
<title>n38&#45;&gt;n36</title>
<path fill="none" stroke="black" d="M217,-502.04C217,-489.21 217,-471.4 217,-456.44"/>
<polygon fill="black" stroke="black" points="220.5,-456.71 217,-446.71 213.5,-456.71 220.5,-456.71"/>
</g>
<!-- n43 -->
<g id="node12" class="node">
<title>n43</title>
<polygon fill="none" stroke="black" points="382.5,-444.75 327.5,-444.75 327.5,-408.75 382.5,-408.75 382.5,-444.75"/>
<text text-anchor="middle" x="355" y="-421.7" font-family="Times New Roman,serif" font-size="14.00">d2 : int</text>
<text text-anchor="middle" x="309.12" y="-447.95" font-family="Times New Roman,serif" font-size="14.00">(43)int</text>
</g>
<!-- n44&#45;&gt;n43 -->
<g id="edge11" class="edge">
<title>n44&#45;&gt;n43</title>
<path fill="none" stroke="black" d="M465.61,-502.79C445.07,-490.24 416.42,-472.32 392,-455.5 390.21,-454.27 388.39,-452.99 386.57,-451.69"/>
<polygon fill="black" stroke="black" points="388.85,-449.02 378.71,-445.96 384.73,-454.68 388.85,-449.02"/>
</g>
<!-- n42 -->
<g id="node13" class="node">
<title>n42</title>
<polygon fill="none" stroke="black" points="585,-444.75 401,-444.75 401,-408.75 585,-408.75 585,-444.75"/>
<text text-anchor="middle" x="493" y="-421.7" font-family="Times New Roman,serif" font-size="14.00">arg.data.getDimensionSizes(2)</text>
<text text-anchor="middle" x="382.62" y="-447.95" font-family="Times New Roman,serif" font-size="14.00">(42)int</text>
</g>
<!-- n44&#45;&gt;n42 -->
<g id="edge12" class="edge">
<title>n44&#45;&gt;n42</title>
<path fill="none" stroke="black" d="M493,-502.04C493,-489.21 493,-471.4 493,-456.44"/>
<polygon fill="black" stroke="black" points="496.5,-456.71 493,-446.71 489.5,-456.71 496.5,-456.71"/>
</g>
<!-- n49 -->
<g id="node14" class="node">
<title>n49</title>
<polygon fill="none" stroke="black" points="658.5,-444.75 603.5,-444.75 603.5,-408.75 658.5,-408.75 658.5,-444.75"/>
<text text-anchor="middle" x="631" y="-421.7" font-family="Times New Roman,serif" font-size="14.00">d3 : int</text>
<text text-anchor="middle" x="585.12" y="-447.95" font-family="Times New Roman,serif" font-size="14.00">(49)int</text>
</g>
<!-- n50&#45;&gt;n49 -->
<g id="edge13" class="edge">
<title>n50&#45;&gt;n49</title>
<path fill="none" stroke="black" d="M631,-502.04C631,-489.21 631,-471.4 631,-456.44"/>
<polygon fill="black" stroke="black" points="634.5,-456.71 631,-446.71 627.5,-456.71 634.5,-456.71"/>
</g>
<!-- n48 -->
<g id="node15" class="node">
<title>n48</title>
<polygon fill="none" stroke="black" points="861,-444.75 677,-444.75 677,-408.75 861,-408.75 861,-444.75"/>
<text text-anchor="middle" x="769" y="-421.7" font-family="Times New Roman,serif" font-size="14.00">arg.data.getDimensionSizes(3)</text>
<text text-anchor="middle" x="658.62" y="-447.95" font-family="Times New Roman,serif" font-size="14.00">(48)int</text>
</g>
<!-- n50&#45;&gt;n48 -->
<g id="edge14" class="edge">
<title>n50&#45;&gt;n48</title>
<path fill="none" stroke="black" d="M657.28,-501.82C678.86,-487.51 709.64,-467.11 733.42,-451.34"/>
<polygon fill="black" stroke="black" points="735.15,-454.39 741.55,-445.95 731.29,-448.56 735.15,-454.39"/>
</g>
<!-- n53 -->
<g id="node16" class="node">
<title>n53</title>
<polygon fill="none" stroke="black" points="1080.62,-444.75 879.38,-444.75 879.38,-408.75 1080.62,-408.75 1080.62,-444.75"/>
<text text-anchor="middle" x="980" y="-421.7" font-family="Times New Roman,serif" font-size="14.00">Sequence{ node(51) .. node(52) }</text>
<text text-anchor="middle" x="861" y="-447.95" font-family="Times New Roman,serif" font-size="14.00">(53)int</text>
</g>
<!-- n91&#45;&gt;n53 -->
<g id="edge15" class="edge">
<title>n91&#45;&gt;n53</title>
<path fill="none" stroke="black" d="M1081,-491.05C1060.6,-478.26 1036.75,-463.32 1017.35,-451.16"/>
<polygon fill="black" stroke="black" points="1019.27,-448.23 1008.94,-445.89 1015.56,-454.16 1019.27,-448.23"/>
</g>
<!-- n54 -->
<g id="node17" class="node">
<title>n54</title>
<polygon fill="none" stroke="black" points="1153,-444.75 1099,-444.75 1099,-408.75 1153,-408.75 1153,-444.75"/>
<text text-anchor="middle" x="1126" y="-421.7" font-family="Times New Roman,serif" font-size="14.00">it : int</text>
<text text-anchor="middle" x="1080.62" y="-447.95" font-family="Times New Roman,serif" font-size="14.00">(54)int</text>
</g>
<!-- n91&#45;&gt;n54 -->
<g id="edge16" class="edge">
<title>n91&#45;&gt;n54</title>
<path fill="none" stroke="black" d="M1126,-491.3C1126,-480.26 1126,-467.59 1126,-456.47"/>
<polygon fill="black" stroke="black" points="1129.5,-456.69 1126,-446.69 1122.5,-456.69 1129.5,-456.69"/>
</g>
<!-- n57 -->
<g id="node18" class="node">
<title>n57</title>
<polygon fill="none" stroke="black" points="1225,-444.75 1171,-444.75 1171,-408.75 1225,-408.75 1225,-444.75"/>
<text text-anchor="middle" x="1198" y="-421.7" font-family="Times New Roman,serif" font-size="14.00">=</text>
<text text-anchor="middle" x="1137.25" y="-447.95" font-family="Times New Roman,serif" font-size="14.00">(57)Boolean</text>
</g>
<!-- n91&#45;&gt;n57 -->
<g id="edge17" class="edge">
<title>n91&#45;&gt;n57</title>
<path fill="none" stroke="black" d="M1147.99,-491.3C1157.33,-479.44 1168.15,-465.69 1177.33,-454.02"/>
<polygon fill="black" stroke="black" points="1179.92,-456.39 1183.35,-446.37 1174.41,-452.06 1179.92,-456.39"/>
</g>
<!-- n90 -->
<g id="node19" class="node">
<title>n90</title>
<polygon fill="none" stroke="black" points="1595.38,-455.5 1386.62,-455.5 1386.62,-398 1595.38,-398 1595.38,-455.5"/>
<text text-anchor="middle" x="1491" y="-438.2" font-family="Times New Roman,serif" font-size="14.00">IterateExp</text>
<text text-anchor="middle" x="1491" y="-421.7" font-family="Times New Roman,serif" font-size="14.00">source=node(60) Iterator=node(61)</text>
<text text-anchor="middle" x="1491" y="-405.2" font-family="Times New Roman,serif" font-size="14.00">Result=node(64) Body=node(89)</text>
<text text-anchor="middle" x="1352.88" y="-458.7" font-family="Times New Roman,serif" font-size="14.00">(90)Boolean</text>
</g>
<!-- n91&#45;&gt;n90 -->
<g id="edge18" class="edge">
<title>n91&#45;&gt;n90</title>
<path fill="none" stroke="black" d="M1230.59,-493.03C1275.84,-481.69 1328.95,-468.37 1375.36,-456.74"/>
<polygon fill="black" stroke="black" points="1376.07,-460.17 1384.92,-454.34 1374.37,-453.38 1376.07,-460.17"/>
</g>
<!-- n34 -->
<g id="node20" class="node">
<title>n34</title>
<polygon fill="none" stroke="black" points="208.75,-351.25 149.25,-351.25 149.25,-315.25 208.75,-315.25 208.75,-351.25"/>
<text text-anchor="middle" x="179" y="-328.2" font-family="Times New Roman,serif" font-size="14.00">arg.data</text>
<text text-anchor="middle" x="74.62" y="-354.45" font-family="Times New Roman,serif" font-size="14.00">(34)int[dim1][dim2][dim3]</text>
</g>
<!-- n36&#45;&gt;n34 -->
<g id="edge19" class="edge">
<title>n36&#45;&gt;n34</title>
<path fill="none" stroke="black" d="M209.85,-408.54C204.42,-395.46 196.84,-377.2 190.55,-362.05"/>
<polygon fill="black" stroke="black" points="193.89,-360.99 186.83,-353.09 187.43,-363.67 193.89,-360.99"/>
</g>
<!-- n35 -->
<g id="node21" class="node">
<title>n35</title>
<polygon fill="none" stroke="black" points="281,-351.25 227,-351.25 227,-315.25 281,-315.25 281,-351.25"/>
<text text-anchor="middle" x="254" y="-328.2" font-family="Times New Roman,serif" font-size="14.00">1</text>
<text text-anchor="middle" x="208.62" y="-354.45" font-family="Times New Roman,serif" font-size="14.00">(35)int</text>
</g>
<!-- n36&#45;&gt;n35 -->
<g id="edge20" class="edge">
<title>n36&#45;&gt;n35</title>
<path fill="none" stroke="black" d="M223.96,-408.54C229.25,-395.46 236.63,-377.2 242.76,-362.05"/>
<polygon fill="black" stroke="black" points="245.87,-363.68 246.38,-353.1 239.38,-361.06 245.87,-363.68"/>
</g>
<!-- n40 -->
<g id="node22" class="node">
<title>n40</title>
<polygon fill="none" stroke="black" points="484.75,-351.25 425.25,-351.25 425.25,-315.25 484.75,-315.25 484.75,-351.25"/>
<text text-anchor="middle" x="455" y="-328.2" font-family="Times New Roman,serif" font-size="14.00">arg.data</text>
<text text-anchor="middle" x="350.62" y="-354.45" font-family="Times New Roman,serif" font-size="14.00">(40)int[dim1][dim2][dim3]</text>
</g>
<!-- n42&#45;&gt;n40 -->
<g id="edge21" class="edge">
<title>n42&#45;&gt;n40</title>
<path fill="none" stroke="black" d="M485.85,-408.54C480.42,-395.46 472.84,-377.2 466.55,-362.05"/>
<polygon fill="black" stroke="black" points="469.89,-360.99 462.83,-353.09 463.43,-363.67 469.89,-360.99"/>
</g>
<!-- n41 -->
<g id="node23" class="node">
<title>n41</title>
<polygon fill="none" stroke="black" points="557,-351.25 503,-351.25 503,-315.25 557,-315.25 557,-351.25"/>
<text text-anchor="middle" x="530" y="-328.2" font-family="Times New Roman,serif" font-size="14.00">2</text>
<text text-anchor="middle" x="484.62" y="-354.45" font-family="Times New Roman,serif" font-size="14.00">(41)int</text>
</g>
<!-- n42&#45;&gt;n41 -->
<g id="edge22" class="edge">
<title>n42&#45;&gt;n41</title>
<path fill="none" stroke="black" d="M499.96,-408.54C505.25,-395.46 512.63,-377.2 518.76,-362.05"/>
<polygon fill="black" stroke="black" points="521.87,-363.68 522.38,-353.1 515.38,-361.06 521.87,-363.68"/>
</g>
<!-- n46 -->
<g id="node24" class="node">
<title>n46</title>
<polygon fill="none" stroke="black" points="756.75,-351.25 697.25,-351.25 697.25,-315.25 756.75,-315.25 756.75,-351.25"/>
<text text-anchor="middle" x="727" y="-328.2" font-family="Times New Roman,serif" font-size="14.00">arg.data</text>
<text text-anchor="middle" x="622.62" y="-354.45" font-family="Times New Roman,serif" font-size="14.00">(46)int[dim1][dim2][dim3]</text>
</g>
<!-- n48&#45;&gt;n46 -->
<g id="edge23" class="edge">
<title>n48&#45;&gt;n46</title>
<path fill="none" stroke="black" d="M761.1,-408.54C755.1,-395.46 746.71,-377.2 739.76,-362.05"/>
<polygon fill="black" stroke="black" points="742.99,-360.7 735.64,-353.07 736.63,-363.62 742.99,-360.7"/>
</g>
<!-- n47 -->
<g id="node25" class="node">
<title>n47</title>
<polygon fill="none" stroke="black" points="829,-351.25 775,-351.25 775,-315.25 829,-315.25 829,-351.25"/>
<text text-anchor="middle" x="802" y="-328.2" font-family="Times New Roman,serif" font-size="14.00">3</text>
<text text-anchor="middle" x="756.62" y="-354.45" font-family="Times New Roman,serif" font-size="14.00">(47)int</text>
</g>
<!-- n48&#45;&gt;n47 -->
<g id="edge24" class="edge">
<title>n48&#45;&gt;n47</title>
<path fill="none" stroke="black" d="M775.21,-408.54C779.88,-395.59 786.38,-377.55 791.81,-362.49"/>
<polygon fill="black" stroke="black" points="795.09,-363.71 795.2,-353.12 788.51,-361.34 795.09,-363.71"/>
</g>
<!-- n51 -->
<g id="node26" class="node">
<title>n51</title>
<polygon fill="none" stroke="black" points="954,-351.25 900,-351.25 900,-315.25 954,-315.25 954,-351.25"/>
<text text-anchor="middle" x="927" y="-328.2" font-family="Times New Roman,serif" font-size="14.00">1</text>
<text text-anchor="middle" x="881.62" y="-354.45" font-family="Times New Roman,serif" font-size="14.00">(51)int</text>
</g>
<!-- n53&#45;&gt;n51 -->
<g id="edge25" class="edge">
<title>n53&#45;&gt;n51</title>
<path fill="none" stroke="black" d="M970.03,-408.54C962.38,-395.33 951.67,-376.84 942.85,-361.61"/>
<polygon fill="black" stroke="black" points="945.9,-359.9 937.86,-353 939.85,-363.41 945.9,-359.9"/>
</g>
<!-- n52 -->
<g id="node27" class="node">
<title>n52</title>
<polygon fill="none" stroke="black" points="1026,-351.25 972,-351.25 972,-315.25 1026,-315.25 1026,-351.25"/>
<text text-anchor="middle" x="999" y="-328.2" font-family="Times New Roman,serif" font-size="14.00">d1</text>
<text text-anchor="middle" x="953.62" y="-354.45" font-family="Times New Roman,serif" font-size="14.00">(52)int</text>
</g>
<!-- n53&#45;&gt;n52 -->
<g id="edge26" class="edge">
<title>n53&#45;&gt;n52</title>
<path fill="none" stroke="black" d="M983.57,-408.54C986.24,-395.71 989.94,-377.9 993.04,-362.94"/>
<polygon fill="black" stroke="black" points="996.46,-363.68 995.07,-353.18 989.61,-362.26 996.46,-363.68"/>
</g>
<!-- n56 -->
<g id="node28" class="node">
<title>n56</title>
<polygon fill="none" stroke="black" points="1153.12,-351.25 1062.88,-351.25 1062.88,-315.25 1153.12,-315.25 1153.12,-351.25"/>
<text text-anchor="middle" x="1108" y="-328.2" font-family="Times New Roman,serif" font-size="14.00">acc : Boolean</text>
<text text-anchor="middle" x="1029.12" y="-354.45" font-family="Times New Roman,serif" font-size="14.00">(56)Boolean</text>
</g>
<!-- n57&#45;&gt;n56 -->
<g id="edge27" class="edge">
<title>n57&#45;&gt;n56</title>
<path fill="none" stroke="black" d="M1181.07,-408.54C1167.58,-394.82 1148.49,-375.41 1133.2,-359.87"/>
<polygon fill="black" stroke="black" points="1135.73,-357.45 1126.22,-352.77 1130.74,-362.36 1135.73,-357.45"/>
</g>
<!-- n55 -->
<g id="node29" class="node">
<title>n55</title>
<polygon fill="none" stroke="black" points="1225,-351.25 1171,-351.25 1171,-315.25 1225,-315.25 1225,-351.25"/>
<text text-anchor="middle" x="1198" y="-328.2" font-family="Times New Roman,serif" font-size="14.00">true</text>
<text text-anchor="middle" x="1137.25" y="-354.45" font-family="Times New Roman,serif" font-size="14.00">(55)Boolean</text>
</g>
<!-- n57&#45;&gt;n55 -->
<g id="edge28" class="edge">
<title>n57&#45;&gt;n55</title>
<path fill="none" stroke="black" d="M1198,-408.54C1198,-395.71 1198,-377.9 1198,-362.94"/>
<polygon fill="black" stroke="black" points="1201.5,-363.21 1198,-353.21 1194.5,-363.21 1201.5,-363.21"/>
</g>
<!-- n60 -->
<g id="node30" class="node">
<title>n60</title>
<polygon fill="none" stroke="black" points="1444.62,-351.25 1243.38,-351.25 1243.38,-315.25 1444.62,-315.25 1444.62,-351.25"/>
<text text-anchor="middle" x="1344" y="-328.2" font-family="Times New Roman,serif" font-size="14.00">Sequence{ node(58) .. node(59) }</text>
<text text-anchor="middle" x="1225" y="-354.45" font-family="Times New Roman,serif" font-size="14.00">(60)int</text>
</g>
<!-- n90&#45;&gt;n60 -->
<g id="edge29" class="edge">
<title>n90&#45;&gt;n60</title>
<path fill="none" stroke="black" d="M1445.7,-397.55C1425.15,-384.76 1401.14,-369.82 1381.61,-357.66"/>
<polygon fill="black" stroke="black" points="1383.47,-354.7 1373.13,-352.38 1379.77,-360.64 1383.47,-354.7"/>
</g>
<!-- n61 -->
<g id="node31" class="node">
<title>n61</title>
<polygon fill="none" stroke="black" points="1518.88,-351.25 1463.12,-351.25 1463.12,-315.25 1518.88,-315.25 1518.88,-351.25"/>
<text text-anchor="middle" x="1491" y="-328.2" font-family="Times New Roman,serif" font-size="14.00">it2 : int</text>
<text text-anchor="middle" x="1444.75" y="-354.45" font-family="Times New Roman,serif" font-size="14.00">(61)int</text>
</g>
<!-- n90&#45;&gt;n61 -->
<g id="edge30" class="edge">
<title>n90&#45;&gt;n61</title>
<path fill="none" stroke="black" d="M1491,-397.8C1491,-386.76 1491,-374.09 1491,-362.97"/>
<polygon fill="black" stroke="black" points="1494.5,-363.19 1491,-353.19 1487.5,-363.19 1494.5,-363.19"/>
</g>
<!-- n64 -->
<g id="node32" class="node">
<title>n64</title>
<polygon fill="none" stroke="black" points="1591,-351.25 1537,-351.25 1537,-315.25 1591,-315.25 1591,-351.25"/>
<text text-anchor="middle" x="1564" y="-328.2" font-family="Times New Roman,serif" font-size="14.00">=</text>
<text text-anchor="middle" x="1503.25" y="-354.45" font-family="Times New Roman,serif" font-size="14.00">(64)Boolean</text>
</g>
<!-- n90&#45;&gt;n64 -->
<g id="edge31" class="edge">
<title>n90&#45;&gt;n64</title>
<path fill="none" stroke="black" d="M1513.3,-397.8C1522.76,-385.94 1533.73,-372.19 1543.04,-360.52"/>
<polygon fill="black" stroke="black" points="1545.65,-362.86 1549.15,-352.86 1540.18,-358.5 1545.65,-362.86"/>
</g>
<!-- n89 -->
<g id="node33" class="node">
<title>n89</title>
<polygon fill="none" stroke="black" points="1961.38,-362 1752.62,-362 1752.62,-304.5 1961.38,-304.5 1961.38,-362"/>
<text text-anchor="middle" x="1857" y="-344.7" font-family="Times New Roman,serif" font-size="14.00">IterateExp</text>
<text text-anchor="middle" x="1857" y="-328.2" font-family="Times New Roman,serif" font-size="14.00">source=node(67) Iterator=node(68)</text>
<text text-anchor="middle" x="1857" y="-311.7" font-family="Times New Roman,serif" font-size="14.00">Result=node(71) Body=node(88)</text>
<text text-anchor="middle" x="1718.88" y="-365.2" font-family="Times New Roman,serif" font-size="14.00">(89)Boolean</text>
</g>
<!-- n90&#45;&gt;n89 -->
<g id="edge32" class="edge">
<title>n90&#45;&gt;n89</title>
<path fill="none" stroke="black" d="M1595.39,-399.65C1640.87,-388.28 1694.35,-374.91 1741.06,-363.24"/>
<polygon fill="black" stroke="black" points="1741.83,-366.65 1750.68,-360.83 1740.13,-359.86 1741.83,-366.65"/>
</g>
<!-- n33 -->
<g id="node34" class="node">
<title>n33</title>
<polygon fill="none" stroke="black" points="206,-268.5 152,-268.5 152,-232.5 206,-232.5 206,-268.5"/>
<text text-anchor="middle" x="179" y="-245.45" font-family="Times New Roman,serif" font-size="14.00">arg</text>
<text text-anchor="middle" x="87.5" y="-271.7" font-family="Times New Roman,serif" font-size="14.00">(33)ThreeDimVarArray</text>
</g>
<!-- n34&#45;&gt;n33 -->
<g id="edge33" class="edge">
<title>n34&#45;&gt;n33</title>
<path fill="none" stroke="black" d="M179,-315.13C179,-305.02 179,-291.98 179,-280.33"/>
<polygon fill="black" stroke="black" points="182.5,-280.39 179,-270.39 175.5,-280.39 182.5,-280.39"/>
</g>
<!-- n39 -->
<g id="node35" class="node">
<title>n39</title>
<polygon fill="none" stroke="black" points="482,-268.5 428,-268.5 428,-232.5 482,-232.5 482,-268.5"/>
<text text-anchor="middle" x="455" y="-245.45" font-family="Times New Roman,serif" font-size="14.00">arg</text>
<text text-anchor="middle" x="363.5" y="-271.7" font-family="Times New Roman,serif" font-size="14.00">(39)ThreeDimVarArray</text>
</g>
<!-- n40&#45;&gt;n39 -->
<g id="edge34" class="edge">
<title>n40&#45;&gt;n39</title>
<path fill="none" stroke="black" d="M455,-315.13C455,-305.02 455,-291.98 455,-280.33"/>
<polygon fill="black" stroke="black" points="458.5,-280.39 455,-270.39 451.5,-280.39 458.5,-280.39"/>
</g>
<!-- n45 -->
<g id="node36" class="node">
<title>n45</title>
<polygon fill="none" stroke="black" points="754,-268.5 700,-268.5 700,-232.5 754,-232.5 754,-268.5"/>
<text text-anchor="middle" x="727" y="-245.45" font-family="Times New Roman,serif" font-size="14.00">arg</text>
<text text-anchor="middle" x="635.5" y="-271.7" font-family="Times New Roman,serif" font-size="14.00">(45)ThreeDimVarArray</text>
</g>
<!-- n46&#45;&gt;n45 -->
<g id="edge35" class="edge">
<title>n46&#45;&gt;n45</title>
<path fill="none" stroke="black" d="M727,-315.13C727,-305.02 727,-291.98 727,-280.33"/>
<polygon fill="black" stroke="black" points="730.5,-280.39 727,-270.39 723.5,-280.39 730.5,-280.39"/>
</g>
<!-- n58 -->
<g id="node37" class="node">
<title>n58</title>
<polygon fill="none" stroke="black" points="1315,-268.5 1261,-268.5 1261,-232.5 1315,-232.5 1315,-268.5"/>
<text text-anchor="middle" x="1288" y="-245.45" font-family="Times New Roman,serif" font-size="14.00">1</text>
<text text-anchor="middle" x="1242.62" y="-271.7" font-family="Times New Roman,serif" font-size="14.00">(58)int</text>
</g>
<!-- n60&#45;&gt;n58 -->
<g id="edge36" class="edge">
<title>n60&#45;&gt;n58</title>
<path fill="none" stroke="black" d="M1332.12,-315.13C1324.68,-304.39 1314.92,-290.32 1306.47,-278.14"/>
<polygon fill="black" stroke="black" points="1309.49,-276.35 1300.91,-270.12 1303.74,-280.33 1309.49,-276.35"/>
</g>
<!-- n59 -->
<g id="node38" class="node">
<title>n59</title>
<polygon fill="none" stroke="black" points="1387,-268.5 1333,-268.5 1333,-232.5 1387,-232.5 1387,-268.5"/>
<text text-anchor="middle" x="1360" y="-245.45" font-family="Times New Roman,serif" font-size="14.00">d2</text>
<text text-anchor="middle" x="1314.62" y="-271.7" font-family="Times New Roman,serif" font-size="14.00">(59)int</text>
</g>
<!-- n60&#45;&gt;n59 -->
<g id="edge37" class="edge">
<title>n60&#45;&gt;n59</title>
<path fill="none" stroke="black" d="M1347.39,-315.13C1349.42,-304.92 1352.03,-291.7 1354.36,-279.96"/>
<polygon fill="black" stroke="black" points="1357.75,-280.85 1356.26,-270.36 1350.89,-279.49 1357.75,-280.85"/>
</g>
<!-- n63 -->
<g id="node39" class="node">
<title>n63</title>
<polygon fill="none" stroke="black" points="1518.5,-268.5 1421.5,-268.5 1421.5,-232.5 1518.5,-232.5 1518.5,-268.5"/>
<text text-anchor="middle" x="1470" y="-245.45" font-family="Times New Roman,serif" font-size="14.00">acc2 : Boolean</text>
<text text-anchor="middle" x="1387.75" y="-271.7" font-family="Times New Roman,serif" font-size="14.00">(63)Boolean</text>
</g>
<!-- n64&#45;&gt;n63 -->
<g id="edge38" class="edge">
<title>n64&#45;&gt;n63</title>
<path fill="none" stroke="black" d="M1544.07,-315.13C1530.94,-303.85 1513.55,-288.91 1498.92,-276.34"/>
<polygon fill="black" stroke="black" points="1501.24,-273.73 1491.38,-269.86 1496.68,-279.04 1501.24,-273.73"/>
</g>
<!-- n62 -->
<g id="node40" class="node">
<title>n62</title>
<polygon fill="none" stroke="black" points="1591,-268.5 1537,-268.5 1537,-232.5 1591,-232.5 1591,-268.5"/>
<text text-anchor="middle" x="1564" y="-245.45" font-family="Times New Roman,serif" font-size="14.00">true</text>
<text text-anchor="middle" x="1503.25" y="-271.7" font-family="Times New Roman,serif" font-size="14.00">(62)Boolean</text>
</g>
<!-- n64&#45;&gt;n62 -->
<g id="edge39" class="edge">
<title>n64&#45;&gt;n62</title>
<path fill="none" stroke="black" d="M1564,-315.13C1564,-305.02 1564,-291.98 1564,-280.33"/>
<polygon fill="black" stroke="black" points="1567.5,-280.39 1564,-270.39 1560.5,-280.39 1567.5,-280.39"/>
</g>
<!-- n67 -->
<g id="node41" class="node">
<title>n67</title>
<polygon fill="none" stroke="black" points="1810.62,-268.5 1609.38,-268.5 1609.38,-232.5 1810.62,-232.5 1810.62,-268.5"/>
<text text-anchor="middle" x="1710" y="-245.45" font-family="Times New Roman,serif" font-size="14.00">Sequence{ node(65) .. node(66) }</text>
<text text-anchor="middle" x="1591" y="-271.7" font-family="Times New Roman,serif" font-size="14.00">(67)int</text>
</g>
<!-- n89&#45;&gt;n67 -->
<g id="edge40" class="edge">
<title>n89&#45;&gt;n67</title>
<path fill="none" stroke="black" d="M1805.59,-304.01C1787.9,-294.29 1768.33,-283.54 1751.52,-274.31"/>
<polygon fill="black" stroke="black" points="1753.24,-271.26 1742.79,-269.51 1749.87,-277.39 1753.24,-271.26"/>
</g>
<!-- n68 -->
<g id="node42" class="node">
<title>n68</title>
<polygon fill="none" stroke="black" points="1884.88,-268.5 1829.12,-268.5 1829.12,-232.5 1884.88,-232.5 1884.88,-268.5"/>
<text text-anchor="middle" x="1857" y="-245.45" font-family="Times New Roman,serif" font-size="14.00">it3 : int</text>
<text text-anchor="middle" x="1810.75" y="-271.7" font-family="Times New Roman,serif" font-size="14.00">(68)int</text>
</g>
<!-- n89&#45;&gt;n68 -->
<g id="edge41" class="edge">
<title>n89&#45;&gt;n68</title>
<path fill="none" stroke="black" d="M1857,-304.01C1857,-296.25 1857,-287.83 1857,-280.05"/>
<polygon fill="black" stroke="black" points="1860.5,-280.06 1857,-270.06 1853.5,-280.06 1860.5,-280.06"/>
</g>
<!-- n71 -->
<g id="node43" class="node">
<title>n71</title>
<polygon fill="none" stroke="black" points="1957,-268.5 1903,-268.5 1903,-232.5 1957,-232.5 1957,-268.5"/>
<text text-anchor="middle" x="1930" y="-245.45" font-family="Times New Roman,serif" font-size="14.00">=</text>
<text text-anchor="middle" x="1869.25" y="-271.7" font-family="Times New Roman,serif" font-size="14.00">(71)Boolean</text>
</g>
<!-- n89&#45;&gt;n71 -->
<g id="edge42" class="edge">
<title>n89&#45;&gt;n71</title>
<path fill="none" stroke="black" d="M1882.53,-304.01C1890.47,-295.23 1899.16,-285.61 1906.92,-277.03"/>
<polygon fill="black" stroke="black" points="1909.47,-279.43 1913.58,-269.67 1904.27,-274.74 1909.47,-279.43"/>
</g>
<!-- n88 -->
<g id="node44" class="node">
<title>n88</title>
<polygon fill="none" stroke="black" points="2070,-268.5 2016,-268.5 2016,-232.5 2070,-232.5 2070,-268.5"/>
<text text-anchor="middle" x="2043" y="-245.45" font-family="Times New Roman,serif" font-size="14.00">=</text>
<text text-anchor="middle" x="1982.25" y="-271.7" font-family="Times New Roman,serif" font-size="14.00">(88)Boolean</text>
</g>
<!-- n89&#45;&gt;n88 -->
<g id="edge43" class="edge">
<title>n89&#45;&gt;n88</title>
<path fill="none" stroke="black" d="M1922.05,-304.01C1949.85,-291.94 1981.32,-278.28 2005.19,-267.91"/>
<polygon fill="black" stroke="black" points="2006.42,-271.2 2014.2,-264 2003.63,-264.78 2006.42,-271.2"/>
</g>
<!-- n65 -->
<g id="node45" class="node">
<title>n65</title>
<polygon fill="none" stroke="black" points="1681,-196.5 1627,-196.5 1627,-160.5 1681,-160.5 1681,-196.5"/>
<text text-anchor="middle" x="1654" y="-173.45" font-family="Times New Roman,serif" font-size="14.00">1</text>
<text text-anchor="middle" x="1608.62" y="-199.7" font-family="Times New Roman,serif" font-size="14.00">(65)int</text>
</g>
<!-- n67&#45;&gt;n65 -->
<g id="edge44" class="edge">
<title>n67&#45;&gt;n65</title>
<path fill="none" stroke="black" d="M1696.16,-232.2C1689.71,-224.14 1681.92,-214.39 1674.79,-205.48"/>
<polygon fill="black" stroke="black" points="1677.61,-203.41 1668.63,-197.79 1672.14,-207.78 1677.61,-203.41"/>
</g>
<!-- n66 -->
<g id="node46" class="node">
<title>n66</title>
<polygon fill="none" stroke="black" points="1753,-196.5 1699,-196.5 1699,-160.5 1753,-160.5 1753,-196.5"/>
<text text-anchor="middle" x="1726" y="-173.45" font-family="Times New Roman,serif" font-size="14.00">d3</text>
<text text-anchor="middle" x="1680.62" y="-199.7" font-family="Times New Roman,serif" font-size="14.00">(66)int</text>
</g>
<!-- n67&#45;&gt;n66 -->
<g id="edge45" class="edge">
<title>n67&#45;&gt;n66</title>
<path fill="none" stroke="black" d="M1713.96,-232.2C1715.64,-224.82 1717.65,-216.02 1719.54,-207.75"/>
<polygon fill="black" stroke="black" points="1722.94,-208.61 1721.75,-198.08 1716.11,-207.05 1722.94,-208.61"/>
</g>
<!-- n70 -->
<g id="node47" class="node">
<title>n70</title>
<polygon fill="none" stroke="black" points="1884.5,-196.5 1787.5,-196.5 1787.5,-160.5 1884.5,-160.5 1884.5,-196.5"/>
<text text-anchor="middle" x="1836" y="-173.45" font-family="Times New Roman,serif" font-size="14.00">acc3 : Boolean</text>
<text text-anchor="middle" x="1753.75" y="-199.7" font-family="Times New Roman,serif" font-size="14.00">(70)Boolean</text>
</g>
<!-- n71&#45;&gt;n70 -->
<g id="edge46" class="edge">
<title>n71&#45;&gt;n70</title>
<path fill="none" stroke="black" d="M1906.76,-232.2C1895.13,-223.53 1880.85,-212.9 1868.18,-203.46"/>
<polygon fill="black" stroke="black" points="1870.62,-200.92 1860.51,-197.75 1866.44,-206.53 1870.62,-200.92"/>
</g>
<!-- n69 -->
<g id="node48" class="node">
<title>n69</title>
<polygon fill="none" stroke="black" points="1957,-196.5 1903,-196.5 1903,-160.5 1957,-160.5 1957,-196.5"/>
<text text-anchor="middle" x="1930" y="-173.45" font-family="Times New Roman,serif" font-size="14.00">true</text>
<text text-anchor="middle" x="1869.25" y="-199.7" font-family="Times New Roman,serif" font-size="14.00">(69)Boolean</text>
</g>
<!-- n71&#45;&gt;n69 -->
<g id="edge47" class="edge">
<title>n71&#45;&gt;n69</title>
<path fill="none" stroke="black" d="M1930,-232.2C1930,-224.91 1930,-216.23 1930,-208.04"/>
<polygon fill="black" stroke="black" points="1933.5,-208.12 1930,-198.12 1926.5,-208.12 1933.5,-208.12"/>
</g>
<!-- n76 -->
<g id="node49" class="node">
<title>n76</title>
<polygon fill="none" stroke="black" points="2110.62,-196.5 1975.38,-196.5 1975.38,-160.5 2110.62,-160.5 2110.62,-196.5"/>
<text text-anchor="middle" x="2043" y="-173.45" font-family="Times New Roman,serif" font-size="14.00">result.data[it][it2][it3]</text>
<text text-anchor="middle" x="1957" y="-199.7" font-family="Times New Roman,serif" font-size="14.00">(76)int</text>
</g>
<!-- n88&#45;&gt;n76 -->
<g id="edge48" class="edge">
<title>n88&#45;&gt;n76</title>
<path fill="none" stroke="black" d="M2043,-232.2C2043,-224.91 2043,-216.23 2043,-208.04"/>
<polygon fill="black" stroke="black" points="2046.5,-208.12 2043,-198.12 2039.5,-208.12 2046.5,-208.12"/>
</g>
<!-- n87 -->
<g id="node50" class="node">
<title>n87</title>
<polygon fill="none" stroke="black" points="2249,-196.5 2195,-196.5 2195,-160.5 2249,-160.5 2249,-196.5"/>
<text text-anchor="middle" x="2222" y="-173.45" font-family="Times New Roman,serif" font-size="14.00">+</text>
<text text-anchor="middle" x="2176.62" y="-199.7" font-family="Times New Roman,serif" font-size="14.00">(87)int</text>
</g>
<!-- n88&#45;&gt;n87 -->
<g id="edge49" class="edge">
<title>n88&#45;&gt;n87</title>
<path fill="none" stroke="black" d="M2070.19,-238.87C2100.54,-227 2149.89,-207.7 2184.05,-194.34"/>
<polygon fill="black" stroke="black" points="2185.11,-197.68 2193.15,-190.78 2182.56,-191.17 2185.11,-197.68"/>
</g>
<!-- n72 -->
<g id="node51" class="node">
<title>n72</title>
<polygon fill="none" stroke="black" points="1926,-124.5 1872,-124.5 1872,-88.5 1926,-88.5 1926,-124.5"/>
<text text-anchor="middle" x="1899" y="-101.45" font-family="Times New Roman,serif" font-size="14.00">result</text>
<text text-anchor="middle" x="1807.5" y="-127.7" font-family="Times New Roman,serif" font-size="14.00">(72)ThreeDimVarArray</text>
</g>
<!-- n76&#45;&gt;n72 -->
<g id="edge50" class="edge">
<title>n76&#45;&gt;n72</title>
<path fill="none" stroke="black" d="M2007.03,-160.02C1985.56,-149.58 1958.32,-136.33 1936.56,-125.76"/>
<polygon fill="black" stroke="black" points="1938.26,-122.69 1927.74,-121.47 1935.2,-128.99 1938.26,-122.69"/>
</g>
<!-- n73 -->
<g id="node52" class="node">
<title>n73</title>
<polygon fill="none" stroke="black" points="1998,-124.5 1944,-124.5 1944,-88.5 1998,-88.5 1998,-124.5"/>
<text text-anchor="middle" x="1971" y="-101.45" font-family="Times New Roman,serif" font-size="14.00">it</text>
<text text-anchor="middle" x="1925.62" y="-127.7" font-family="Times New Roman,serif" font-size="14.00">(73)int</text>
</g>
<!-- n76&#45;&gt;n73 -->
<g id="edge51" class="edge">
<title>n76&#45;&gt;n73</title>
<path fill="none" stroke="black" d="M2025.2,-160.2C2016.72,-151.95 2006.41,-141.93 1997.07,-132.85"/>
<polygon fill="black" stroke="black" points="1999.54,-130.36 1989.93,-125.9 1994.66,-135.38 1999.54,-130.36"/>
</g>
<!-- n74 -->
<g id="node53" class="node">
<title>n74</title>
<polygon fill="none" stroke="black" points="2070,-124.5 2016,-124.5 2016,-88.5 2070,-88.5 2070,-124.5"/>
<text text-anchor="middle" x="2043" y="-101.45" font-family="Times New Roman,serif" font-size="14.00">it2</text>
<text text-anchor="middle" x="1997.62" y="-127.7" font-family="Times New Roman,serif" font-size="14.00">(74)int</text>
</g>
<!-- n76&#45;&gt;n74 -->
<g id="edge52" class="edge">
<title>n76&#45;&gt;n74</title>
<path fill="none" stroke="black" d="M2043,-160.2C2043,-152.91 2043,-144.23 2043,-136.04"/>
<polygon fill="black" stroke="black" points="2046.5,-136.12 2043,-126.12 2039.5,-136.12 2046.5,-136.12"/>
</g>
<!-- n75 -->
<g id="node54" class="node">
<title>n75</title>
<polygon fill="none" stroke="black" points="2142,-124.5 2088,-124.5 2088,-88.5 2142,-88.5 2142,-124.5"/>
<text text-anchor="middle" x="2115" y="-101.45" font-family="Times New Roman,serif" font-size="14.00">it3</text>
<text text-anchor="middle" x="2069.62" y="-127.7" font-family="Times New Roman,serif" font-size="14.00">(75)int</text>
</g>
<!-- n76&#45;&gt;n75 -->
<g id="edge53" class="edge">
<title>n76&#45;&gt;n75</title>
<path fill="none" stroke="black" d="M2060.8,-160.2C2069.28,-151.95 2079.59,-141.93 2088.93,-132.85"/>
<polygon fill="black" stroke="black" points="2091.34,-135.38 2096.07,-125.9 2086.46,-130.36 2091.34,-135.38"/>
</g>
<!-- n81 -->
<g id="node55" class="node">
<title>n81</title>
<polygon fill="none" stroke="black" points="2284.38,-124.5 2159.62,-124.5 2159.62,-88.5 2284.38,-88.5 2284.38,-124.5"/>
<text text-anchor="middle" x="2222" y="-101.45" font-family="Times New Roman,serif" font-size="14.00">self.data[it][it2][it3]</text>
<text text-anchor="middle" x="2141.25" y="-127.7" font-family="Times New Roman,serif" font-size="14.00">(81)int</text>
</g>
<!-- n87&#45;&gt;n81 -->
<g id="edge54" class="edge">
<title>n87&#45;&gt;n81</title>
<path fill="none" stroke="black" d="M2222,-160.2C2222,-152.91 2222,-144.23 2222,-136.04"/>
<polygon fill="black" stroke="black" points="2225.5,-136.12 2222,-126.12 2218.5,-136.12 2225.5,-136.12"/>
</g>
<!-- n86 -->
<g id="node56" class="node">
<title>n86</title>
<polygon fill="none" stroke="black" points="2499.25,-124.5 2376.75,-124.5 2376.75,-88.5 2499.25,-88.5 2499.25,-124.5"/>
<text text-anchor="middle" x="2438" y="-101.45" font-family="Times New Roman,serif" font-size="14.00">arg.data[it][it2][it3]</text>
<text text-anchor="middle" x="2358.38" y="-127.7" font-family="Times New Roman,serif" font-size="14.00">(86)int</text>
</g>
<!-- n87&#45;&gt;n86 -->
<g id="edge55" class="edge">
<title>n87&#45;&gt;n86</title>
<path fill="none" stroke="black" d="M2249.36,-168.63C2280.41,-158.57 2332.13,-141.81 2373.57,-128.38"/>
<polygon fill="black" stroke="black" points="2374.54,-131.75 2382.97,-125.33 2372.38,-125.09 2374.54,-131.75"/>
</g>
<!-- n77 -->
<g id="node57" class="node">
<title>n77</title>
<polygon fill="none" stroke="black" points="2105,-52.5 2051,-52.5 2051,-16.5 2105,-16.5 2105,-52.5"/>
<text text-anchor="middle" x="2078" y="-29.45" font-family="Times New Roman,serif" font-size="14.00">self</text>
<text text-anchor="middle" x="1986.5" y="-55.7" font-family="Times New Roman,serif" font-size="14.00">(77)ThreeDimVarArray</text>
</g>
<!-- n81&#45;&gt;n77 -->
<g id="edge56" class="edge">
<title>n81&#45;&gt;n77</title>
<path fill="none" stroke="black" d="M2186.03,-88.02C2164.56,-77.58 2137.32,-64.33 2115.56,-53.76"/>
<polygon fill="black" stroke="black" points="2117.26,-50.69 2106.74,-49.47 2114.2,-56.99 2117.26,-50.69"/>
</g>
<!-- n78 -->
<g id="node58" class="node">
<title>n78</title>
<polygon fill="none" stroke="black" points="2177,-52.5 2123,-52.5 2123,-16.5 2177,-16.5 2177,-52.5"/>
<text text-anchor="middle" x="2150" y="-29.45" font-family="Times New Roman,serif" font-size="14.00">it</text>
<text text-anchor="middle" x="2104.62" y="-55.7" font-family="Times New Roman,serif" font-size="14.00">(78)int</text>
</g>
<!-- n81&#45;&gt;n78 -->
<g id="edge57" class="edge">
<title>n81&#45;&gt;n78</title>
<path fill="none" stroke="black" d="M2204.2,-88.2C2195.72,-79.95 2185.41,-69.93 2176.07,-60.85"/>
<polygon fill="black" stroke="black" points="2178.54,-58.36 2168.93,-53.9 2173.66,-63.38 2178.54,-58.36"/>
</g>
<!-- n79 -->
<g id="node59" class="node">
<title>n79</title>
<polygon fill="none" stroke="black" points="2249,-52.5 2195,-52.5 2195,-16.5 2249,-16.5 2249,-52.5"/>
<text text-anchor="middle" x="2222" y="-29.45" font-family="Times New Roman,serif" font-size="14.00">it2</text>
<text text-anchor="middle" x="2176.62" y="-55.7" font-family="Times New Roman,serif" font-size="14.00">(79)int</text>
</g>
<!-- n81&#45;&gt;n79 -->
<g id="edge58" class="edge">
<title>n81&#45;&gt;n79</title>
<path fill="none" stroke="black" d="M2222,-88.2C2222,-80.91 2222,-72.23 2222,-64.04"/>
<polygon fill="black" stroke="black" points="2225.5,-64.12 2222,-54.12 2218.5,-64.12 2225.5,-64.12"/>
</g>
<!-- n80 -->
<g id="node60" class="node">
<title>n80</title>
<polygon fill="none" stroke="black" points="2321,-52.5 2267,-52.5 2267,-16.5 2321,-16.5 2321,-52.5"/>
<text text-anchor="middle" x="2294" y="-29.45" font-family="Times New Roman,serif" font-size="14.00">it3</text>
<text text-anchor="middle" x="2248.62" y="-55.7" font-family="Times New Roman,serif" font-size="14.00">(80)int</text>
</g>
<!-- n81&#45;&gt;n80 -->
<g id="edge59" class="edge">
<title>n81&#45;&gt;n80</title>
<path fill="none" stroke="black" d="M2239.8,-88.2C2248.28,-79.95 2258.59,-69.93 2267.93,-60.85"/>
<polygon fill="black" stroke="black" points="2270.34,-63.38 2275.07,-53.9 2265.46,-58.36 2270.34,-63.38"/>
</g>
<!-- n82 -->
<g id="node61" class="node">
<title>n82</title>
<polygon fill="none" stroke="black" points="2393,-52.5 2339,-52.5 2339,-16.5 2393,-16.5 2393,-52.5"/>
<text text-anchor="middle" x="2366" y="-29.45" font-family="Times New Roman,serif" font-size="14.00">arg</text>
<text text-anchor="middle" x="2274.5" y="-3.2" font-family="Times New Roman,serif" font-size="14.00">(82)ThreeDimVarArray</text>
</g>
<!-- n86&#45;&gt;n82 -->
<g id="edge60" class="edge">
<title>n86&#45;&gt;n82</title>
<path fill="none" stroke="black" d="M2420.2,-88.2C2411.72,-79.95 2401.41,-69.93 2392.07,-60.85"/>
<polygon fill="black" stroke="black" points="2394.54,-58.36 2384.93,-53.9 2389.66,-63.38 2394.54,-58.36"/>
</g>
<!-- n83 -->
<g id="node62" class="node">
<title>n83</title>
<polygon fill="none" stroke="black" points="2465,-52.5 2411,-52.5 2411,-16.5 2465,-16.5 2465,-52.5"/>
<text text-anchor="middle" x="2438" y="-29.45" font-family="Times New Roman,serif" font-size="14.00">it</text>
<text text-anchor="middle" x="2392.62" y="-55.7" font-family="Times New Roman,serif" font-size="14.00">(83)int</text>
</g>
<!-- n86&#45;&gt;n83 -->
<g id="edge61" class="edge">
<title>n86&#45;&gt;n83</title>
<path fill="none" stroke="black" d="M2438,-88.2C2438,-80.91 2438,-72.23 2438,-64.04"/>
<polygon fill="black" stroke="black" points="2441.5,-64.12 2438,-54.12 2434.5,-64.12 2441.5,-64.12"/>
</g>
<!-- n84 -->
<g id="node63" class="node">
<title>n84</title>
<polygon fill="none" stroke="black" points="2537,-52.5 2483,-52.5 2483,-16.5 2537,-16.5 2537,-52.5"/>
<text text-anchor="middle" x="2510" y="-29.45" font-family="Times New Roman,serif" font-size="14.00">it2</text>
<text text-anchor="middle" x="2464.62" y="-55.7" font-family="Times New Roman,serif" font-size="14.00">(84)int</text>
</g>
<!-- n86&#45;&gt;n84 -->
<g id="edge62" class="edge">
<title>n86&#45;&gt;n84</title>
<path fill="none" stroke="black" d="M2455.8,-88.2C2464.28,-79.95 2474.59,-69.93 2483.93,-60.85"/>
<polygon fill="black" stroke="black" points="2486.34,-63.38 2491.07,-53.9 2481.46,-58.36 2486.34,-63.38"/>
</g>
<!-- n85 -->
<g id="node64" class="node">
<title>n85</title>
<polygon fill="none" stroke="black" points="2609,-52.5 2555,-52.5 2555,-16.5 2609,-16.5 2609,-52.5"/>
<text text-anchor="middle" x="2582" y="-29.45" font-family="Times New Roman,serif" font-size="14.00">it3</text>
<text text-anchor="middle" x="2536.62" y="-55.7" font-family="Times New Roman,serif" font-size="14.00">(85)int</text>
</g>
<!-- n86&#45;&gt;n85 -->
<g id="edge63" class="edge">
<title>n86&#45;&gt;n85</title>
<path fill="none" stroke="black" d="M2473.97,-88.02C2495.44,-77.58 2522.68,-64.33 2544.44,-53.76"/>
<polygon fill="black" stroke="black" points="2545.8,-56.99 2553.26,-49.47 2542.74,-50.69 2545.8,-56.99"/>
</g>
</g>
</svg>
