<?xml version="1.0" encoding="UTF-8" standalone="no"?>
<!DOCTYPE svg PUBLIC "-//W3C//DTD SVG 1.1//EN"
 "http://www.w3.org/Graphics/SVG/1.1/DTD/svg11.dtd">
<!-- Generated by graphviz version 12.2.1 (20241206.2353)
 -->
<!-- Title: AST Pages: 1 -->
<svg width="310pt" height="349pt"
 viewBox="0.00 0.00 309.62 348.50" xmlns="http://www.w3.org/2000/svg" xmlns:xlink="http://www.w3.org/1999/xlink">
<g id="graph0" class="graph" transform="scale(1 1) rotate(0) translate(4 344.5)">
<title>AST</title>
<polygon fill="white" stroke="none" points="-4,4 -4,-344.5 305.62,-344.5 305.62,4 -4,4"/>
<!-- n7 -->
<g id="node1" class="node">
<title>n7</title>
<polygon fill="none" stroke="black" points="278.75,-324 45.25,-324 45.25,-288 278.75,-288 278.75,-324"/>
<text text-anchor="middle" x="162" y="-300.95" font-family="Times New Roman,serif" font-size="14.00">ContextDecl: node(1) Context: node (6)</text>
<text text-anchor="middle" x="37.38" y="-327.2" font-family="Times New Roman,serif" font-size="14.00">(7)</text>
</g>
<!-- n1 -->
<g id="node2" class="node">
<title>n1</title>
<polygon fill="none" stroke="black" points="174.62,-252 33.38,-252 33.38,-216 174.62,-216 174.62,-252"/>
<text text-anchor="middle" x="104" y="-228.95" font-family="Times New Roman,serif" font-size="14.00">Array::Array(node (0))</text>
<text text-anchor="middle" x="25.5" y="-255.2" font-family="Times New Roman,serif" font-size="14.00">(1)</text>
</g>
<!-- n7&#45;&gt;n1 -->
<g id="edge1" class="edge">
<title>n7&#45;&gt;n1</title>
<path fill="none" stroke="black" d="M147.66,-287.7C140.92,-279.56 132.74,-269.69 125.3,-260.7"/>
<polygon fill="black" stroke="black" points="128.21,-258.74 119.14,-253.27 122.82,-263.2 128.21,-258.74"/>
</g>
<!-- n6 -->
<g id="node3" class="node">
<title>n6</title>
<polygon fill="none" stroke="black" points="247,-252 193,-252 193,-216 247,-216 247,-252"/>
<text text-anchor="middle" x="220" y="-228.95" font-family="Times New Roman,serif" font-size="14.00"> post:</text>
<text text-anchor="middle" x="162.62" y="-255.2" font-family="Times New Roman,serif" font-size="14.00">(6)Boolean</text>
</g>
<!-- n7&#45;&gt;n6 -->
<g id="edge2" class="edge">
<title>n7&#45;&gt;n6</title>
<path fill="none" stroke="black" d="M176.34,-287.7C183.08,-279.56 191.26,-269.69 198.7,-260.7"/>
<polygon fill="black" stroke="black" points="201.18,-263.2 204.86,-253.27 195.79,-258.74 201.18,-263.2"/>
</g>
<!-- n0 -->
<g id="node4" class="node">
<title>n0</title>
<polygon fill="none" stroke="black" points="162.25,-180 45.75,-180 45.75,-144 162.25,-144 162.25,-180"/>
<text text-anchor="middle" x="104" y="-156.95" font-family="Times New Roman,serif" font-size="14.00">inputArray : int[5]</text>
<text text-anchor="middle" x="22.88" y="-183.2" font-family="Times New Roman,serif" font-size="14.00">(0)int[5]</text>
</g>
<!-- n1&#45;&gt;n0 -->
<g id="edge3" class="edge">
<title>n1&#45;&gt;n0</title>
<path fill="none" stroke="black" d="M104,-215.7C104,-208.41 104,-199.73 104,-191.54"/>
<polygon fill="black" stroke="black" points="107.5,-191.62 104,-181.62 100.5,-191.62 107.5,-191.62"/>
</g>
<!-- n5 -->
<g id="node5" class="node">
<title>n5</title>
<polygon fill="none" stroke="black" points="247,-180 193,-180 193,-144 247,-144 247,-180"/>
<text text-anchor="middle" x="220" y="-156.95" font-family="Times New Roman,serif" font-size="14.00">=</text>
<text text-anchor="middle" x="162.62" y="-183.2" font-family="Times New Roman,serif" font-size="14.00">(5)Boolean</text>
</g>
<!-- n6&#45;&gt;n5 -->
<g id="edge4" class="edge">
<title>n6&#45;&gt;n5</title>
<path fill="none" stroke="black" d="M220,-215.7C220,-208.41 220,-199.73 220,-191.54"/>
<polygon fill="black" stroke="black" points="223.5,-191.62 220,-181.62 216.5,-191.62 223.5,-191.62"/>
</g>
<!-- n3 -->
<g id="node6" class="node">
<title>n3</title>
<polygon fill="none" stroke="black" points="208.5,-108 141.5,-108 141.5,-72 208.5,-72 208.5,-108"/>
<text text-anchor="middle" x="175" y="-84.95" font-family="Times New Roman,serif" font-size="14.00">self.datas</text>
<text text-anchor="middle" x="118.62" y="-111.2" font-family="Times New Roman,serif" font-size="14.00">(3)int[5]</text>
</g>
<!-- n5&#45;&gt;n3 -->
<g id="edge5" class="edge">
<title>n5&#45;&gt;n3</title>
<path fill="none" stroke="black" d="M208.88,-143.7C203.81,-135.81 197.7,-126.3 192.07,-117.55"/>
<polygon fill="black" stroke="black" points="195.17,-115.9 186.81,-109.38 189.28,-119.68 195.17,-115.9"/>
</g>
<!-- n4 -->
<g id="node7" class="node">
<title>n4</title>
<polygon fill="none" stroke="black" points="301.62,-108 226.38,-108 226.38,-72 301.62,-72 301.62,-108"/>
<text text-anchor="middle" x="264" y="-84.95" font-family="Times New Roman,serif" font-size="14.00">inputArray</text>
<text text-anchor="middle" x="203.5" y="-111.2" font-family="Times New Roman,serif" font-size="14.00">(4)int[5]</text>
</g>
<!-- n5&#45;&gt;n4 -->
<g id="edge6" class="edge">
<title>n5&#45;&gt;n4</title>
<path fill="none" stroke="black" d="M230.88,-143.7C235.78,-135.9 241.68,-126.51 247.14,-117.83"/>
<polygon fill="black" stroke="black" points="250.08,-119.71 252.44,-109.39 244.16,-115.99 250.08,-119.71"/>
</g>
<!-- n2 -->
<g id="node8" class="node">
<title>n2</title>
<polygon fill="none" stroke="black" points="202,-36 148,-36 148,0 202,0 202,-36"/>
<text text-anchor="middle" x="175" y="-12.95" font-family="Times New Roman,serif" font-size="14.00">self</text>
<text text-anchor="middle" x="124.38" y="-39.2" font-family="Times New Roman,serif" font-size="14.00">(2)Array</text>
</g>
<!-- n3&#45;&gt;n2 -->
<g id="edge7" class="edge">
<title>n3&#45;&gt;n2</title>
<path fill="none" stroke="black" d="M175,-71.7C175,-64.41 175,-55.73 175,-47.54"/>
<polygon fill="black" stroke="black" points="178.5,-47.62 175,-37.62 171.5,-47.62 178.5,-47.62"/>
</g>
</g>
</svg>
