<?xml version="1.0" encoding="UTF-8" standalone="no"?>
<!DOCTYPE svg PUBLIC "-//W3C//DTD SVG 1.1//EN"
 "http://www.w3.org/Graphics/SVG/1.1/DTD/svg11.dtd">
<!-- Generated by graphviz version 12.2.1 (20241206.2353)
 -->
<!-- Title: AST Pages: 1 -->
<svg width="2663pt" height="778pt"
 viewBox="0.00 0.00 2662.75 778.00" xmlns="http://www.w3.org/2000/svg" xmlns:xlink="http://www.w3.org/1999/xlink">
<g id="graph0" class="graph" transform="scale(1 1) rotate(0) translate(4 774)">
<title>AST</title>
<polygon fill="white" stroke="none" points="-4,4 -4,-774 2658.75,-774 2658.75,4 -4,4"/>
<!-- n135 -->
<g id="node1" class="node">
<title>n135</title>
<polygon fill="none" stroke="black" points="594.62,-753.5 340.88,-753.5 340.88,-717.5 594.62,-717.5 594.62,-753.5"/>
<text text-anchor="middle" x="467.75" y="-730.45" font-family="Times New Roman,serif" font-size="14.00">ContextDecl: node(73) Context: node (134)</text>
<text text-anchor="middle" x="326.25" y="-756.7" font-family="Times New Roman,serif" font-size="14.00">(135)</text>
</g>
<!-- n73 -->
<g id="node2" class="node">
<title>n73</title>
<polygon fill="none" stroke="black" points="488.75,-681.5 316.75,-681.5 316.75,-645.5 488.75,-645.5 488.75,-681.5"/>
<text text-anchor="middle" x="402.75" y="-658.45" font-family="Times New Roman,serif" font-size="14.00">Cube::sub(node (72)) : Cube</text>
<text text-anchor="middle" x="305.5" y="-684.7" font-family="Times New Roman,serif" font-size="14.00">(73)</text>
</g>
<!-- n135&#45;&gt;n73 -->
<g id="edge1" class="edge">
<title>n135&#45;&gt;n73</title>
<path fill="none" stroke="black" d="M451.68,-717.2C444.05,-708.97 434.77,-698.98 426.35,-689.92"/>
<polygon fill="black" stroke="black" points="429.03,-687.66 419.66,-682.71 423.9,-692.42 429.03,-687.66"/>
</g>
<!-- n134 -->
<g id="node3" class="node">
<title>n134</title>
<polygon fill="none" stroke="black" points="583.75,-681.5 529.75,-681.5 529.75,-645.5 583.75,-645.5 583.75,-681.5"/>
<text text-anchor="middle" x="556.75" y="-658.45" font-family="Times New Roman,serif" font-size="14.00"> post:</text>
<text text-anchor="middle" x="492.62" y="-684.7" font-family="Times New Roman,serif" font-size="14.00">(134)Boolean</text>
</g>
<!-- n135&#45;&gt;n134 -->
<g id="edge2" class="edge">
<title>n135&#45;&gt;n134</title>
<path fill="none" stroke="black" d="M489.75,-717.2C500.66,-708.61 514.02,-698.11 525.93,-688.74"/>
<polygon fill="black" stroke="black" points="527.81,-691.72 533.5,-682.78 523.48,-686.21 527.81,-691.72"/>
</g>
<!-- n72 -->
<g id="node4" class="node">
<title>n72</title>
<polygon fill="none" stroke="black" points="394.25,-607 321.25,-607 321.25,-571 394.25,-571 394.25,-607"/>
<text text-anchor="middle" x="357.75" y="-583.95" font-family="Times New Roman,serif" font-size="14.00">arg : Cube</text>
<text text-anchor="middle" x="295.75" y="-610.2" font-family="Times New Roman,serif" font-size="14.00">(72)Cube</text>
</g>
<!-- n73&#45;&gt;n72 -->
<g id="edge3" class="edge">
<title>n73&#45;&gt;n72</title>
<path fill="none" stroke="black" d="M392.09,-645.32C386.76,-636.74 380.2,-626.17 374.25,-616.58"/>
<polygon fill="black" stroke="black" points="377.38,-614.99 369.14,-608.34 371.44,-618.69 377.38,-614.99"/>
</g>
<!-- n133 -->
<g id="node5" class="node">
<title>n133</title>
<polygon fill="none" stroke="black" points="747.5,-609.5 412,-609.5 412,-568.5 747.5,-568.5 747.5,-609.5"/>
<text text-anchor="middle" x="579.75" y="-592.2" font-family="Times New Roman,serif" font-size="14.00">LetExp </text>
<text text-anchor="middle" x="579.75" y="-575.7" font-family="Times New Roman,serif" font-size="14.00">Let node(79), node(85), node(91), node(132) in node(132)</text>
<text text-anchor="middle" x="374.88" y="-612.7" font-family="Times New Roman,serif" font-size="14.00">(133)Boolean</text>
</g>
<!-- n134&#45;&gt;n133 -->
<g id="edge4" class="edge">
<title>n134&#45;&gt;n133</title>
<path fill="none" stroke="black" d="M562.2,-645.32C564.55,-637.92 567.36,-629.05 570.04,-620.59"/>
<polygon fill="black" stroke="black" points="573.3,-621.91 572.99,-611.32 566.63,-619.8 573.3,-621.91"/>
</g>
<!-- n79 -->
<g id="node6" class="node">
<title>n79</title>
<polygon fill="none" stroke="black" points="243.75,-521.75 189.75,-521.75 189.75,-485.75 243.75,-485.75 243.75,-521.75"/>
<text text-anchor="middle" x="216.75" y="-498.7" font-family="Times New Roman,serif" font-size="14.00">=</text>
<text text-anchor="middle" x="156" y="-524.95" font-family="Times New Roman,serif" font-size="14.00">(79)Boolean</text>
</g>
<!-- n133&#45;&gt;n79 -->
<g id="edge5" class="edge">
<title>n133&#45;&gt;n79</title>
<path fill="none" stroke="black" d="M492.8,-568.06C417.22,-550.72 311.28,-526.43 255.16,-513.56"/>
<polygon fill="black" stroke="black" points="255.97,-510.15 245.44,-511.33 254.41,-516.98 255.97,-510.15"/>
</g>
<!-- n85 -->
<g id="node7" class="node">
<title>n85</title>
<polygon fill="none" stroke="black" points="533.75,-521.75 479.75,-521.75 479.75,-485.75 533.75,-485.75 533.75,-521.75"/>
<text text-anchor="middle" x="506.75" y="-498.7" font-family="Times New Roman,serif" font-size="14.00">=</text>
<text text-anchor="middle" x="446" y="-524.95" font-family="Times New Roman,serif" font-size="14.00">(85)Boolean</text>
</g>
<!-- n133&#45;&gt;n85 -->
<g id="edge6" class="edge">
<title>n133&#45;&gt;n85</title>
<path fill="none" stroke="black" d="M562.45,-568.27C552.54,-556.97 540,-542.67 529.32,-530.49"/>
<polygon fill="black" stroke="black" points="532.17,-528.43 522.94,-523.22 526.9,-533.04 532.17,-528.43"/>
</g>
<!-- n91 -->
<g id="node8" class="node">
<title>n91</title>
<polygon fill="none" stroke="black" points="678.75,-521.75 624.75,-521.75 624.75,-485.75 678.75,-485.75 678.75,-521.75"/>
<text text-anchor="middle" x="651.75" y="-498.7" font-family="Times New Roman,serif" font-size="14.00">=</text>
<text text-anchor="middle" x="591" y="-524.95" font-family="Times New Roman,serif" font-size="14.00">(91)Boolean</text>
</g>
<!-- n133&#45;&gt;n91 -->
<g id="edge7" class="edge">
<title>n133&#45;&gt;n91</title>
<path fill="none" stroke="black" d="M596.81,-568.27C606.58,-556.97 618.96,-542.67 629.49,-530.49"/>
<polygon fill="black" stroke="black" points="631.88,-533.08 635.77,-523.22 626.58,-528.5 631.88,-533.08"/>
</g>
<!-- n132 -->
<g id="node9" class="node">
<title>n132</title>
<polygon fill="none" stroke="black" points="1258.12,-532.5 1049.38,-532.5 1049.38,-475 1258.12,-475 1258.12,-532.5"/>
<text text-anchor="middle" x="1153.75" y="-515.2" font-family="Times New Roman,serif" font-size="14.00">IterateExp</text>
<text text-anchor="middle" x="1153.75" y="-498.7" font-family="Times New Roman,serif" font-size="14.00">source=node(94) Iterator=node(95)</text>
<text text-anchor="middle" x="1153.75" y="-482.2" font-family="Times New Roman,serif" font-size="14.00">Result=node(98) Body=node(131)</text>
<text text-anchor="middle" x="1012.25" y="-535.7" font-family="Times New Roman,serif" font-size="14.00">(132)Boolean</text>
</g>
<!-- n133&#45;&gt;n132 -->
<g id="edge8" class="edge">
<title>n133&#45;&gt;n132</title>
<path fill="none" stroke="black" d="M717.6,-568.01C815.36,-553.83 945.08,-535.01 1037.58,-521.6"/>
<polygon fill="black" stroke="black" points="1038.06,-525.07 1047.46,-520.17 1037.06,-518.14 1038.06,-525.07"/>
</g>
<!-- n78 -->
<g id="node10" class="node">
<title>n78</title>
<polygon fill="none" stroke="black" points="106.75,-428.25 36.75,-428.25 36.75,-392.25 106.75,-392.25 106.75,-428.25"/>
<text text-anchor="middle" x="71.75" y="-405.2" font-family="Times New Roman,serif" font-size="14.00">dim1 : int</text>
<text text-anchor="middle" x="18.38" y="-431.45" font-family="Times New Roman,serif" font-size="14.00">(78)int</text>
</g>
<!-- n79&#45;&gt;n78 -->
<g id="edge9" class="edge">
<title>n79&#45;&gt;n78</title>
<path fill="none" stroke="black" d="M189.48,-485.54C166.74,-471.19 134.11,-450.6 108.97,-434.74"/>
<polygon fill="black" stroke="black" points="111,-431.88 100.67,-429.5 107.26,-437.8 111,-431.88"/>
</g>
<!-- n77 -->
<g id="node11" class="node">
<title>n77</title>
<polygon fill="none" stroke="black" points="308.75,-428.25 124.75,-428.25 124.75,-392.25 308.75,-392.25 308.75,-428.25"/>
<text text-anchor="middle" x="216.75" y="-405.2" font-family="Times New Roman,serif" font-size="14.00">arg.data.getDimensionSizes(1)</text>
<text text-anchor="middle" x="106.38" y="-431.45" font-family="Times New Roman,serif" font-size="14.00">(77)int</text>
</g>
<!-- n79&#45;&gt;n77 -->
<g id="edge10" class="edge">
<title>n79&#45;&gt;n77</title>
<path fill="none" stroke="black" d="M216.75,-485.54C216.75,-472.71 216.75,-454.9 216.75,-439.94"/>
<polygon fill="black" stroke="black" points="220.25,-440.21 216.75,-430.21 213.25,-440.21 220.25,-440.21"/>
</g>
<!-- n84 -->
<g id="node12" class="node">
<title>n84</title>
<polygon fill="none" stroke="black" points="396.75,-428.25 326.75,-428.25 326.75,-392.25 396.75,-392.25 396.75,-428.25"/>
<text text-anchor="middle" x="361.75" y="-405.2" font-family="Times New Roman,serif" font-size="14.00">dim2 : int</text>
<text text-anchor="middle" x="308.38" y="-431.45" font-family="Times New Roman,serif" font-size="14.00">(84)int</text>
</g>
<!-- n85&#45;&gt;n84 -->
<g id="edge11" class="edge">
<title>n85&#45;&gt;n84</title>
<path fill="none" stroke="black" d="M479.48,-485.54C456.74,-471.19 424.11,-450.6 398.97,-434.74"/>
<polygon fill="black" stroke="black" points="401,-431.88 390.67,-429.5 397.26,-437.8 401,-431.88"/>
</g>
<!-- n83 -->
<g id="node13" class="node">
<title>n83</title>
<polygon fill="none" stroke="black" points="598.75,-428.25 414.75,-428.25 414.75,-392.25 598.75,-392.25 598.75,-428.25"/>
<text text-anchor="middle" x="506.75" y="-405.2" font-family="Times New Roman,serif" font-size="14.00">arg.data.getDimensionSizes(2)</text>
<text text-anchor="middle" x="396.38" y="-431.45" font-family="Times New Roman,serif" font-size="14.00">(83)int</text>
</g>
<!-- n85&#45;&gt;n83 -->
<g id="edge12" class="edge">
<title>n85&#45;&gt;n83</title>
<path fill="none" stroke="black" d="M506.75,-485.54C506.75,-472.71 506.75,-454.9 506.75,-439.94"/>
<polygon fill="black" stroke="black" points="510.25,-440.21 506.75,-430.21 503.25,-440.21 510.25,-440.21"/>
</g>
<!-- n90 -->
<g id="node14" class="node">
<title>n90</title>
<polygon fill="none" stroke="black" points="686.75,-428.25 616.75,-428.25 616.75,-392.25 686.75,-392.25 686.75,-428.25"/>
<text text-anchor="middle" x="651.75" y="-405.2" font-family="Times New Roman,serif" font-size="14.00">dim3 : int</text>
<text text-anchor="middle" x="598.38" y="-431.45" font-family="Times New Roman,serif" font-size="14.00">(90)int</text>
</g>
<!-- n91&#45;&gt;n90 -->
<g id="edge13" class="edge">
<title>n91&#45;&gt;n90</title>
<path fill="none" stroke="black" d="M651.75,-485.54C651.75,-472.71 651.75,-454.9 651.75,-439.94"/>
<polygon fill="black" stroke="black" points="655.25,-440.21 651.75,-430.21 648.25,-440.21 655.25,-440.21"/>
</g>
<!-- n89 -->
<g id="node15" class="node">
<title>n89</title>
<polygon fill="none" stroke="black" points="888.75,-428.25 704.75,-428.25 704.75,-392.25 888.75,-392.25 888.75,-428.25"/>
<text text-anchor="middle" x="796.75" y="-405.2" font-family="Times New Roman,serif" font-size="14.00">arg.data.getDimensionSizes(3)</text>
<text text-anchor="middle" x="686.38" y="-431.45" font-family="Times New Roman,serif" font-size="14.00">(89)int</text>
</g>
<!-- n91&#45;&gt;n89 -->
<g id="edge14" class="edge">
<title>n91&#45;&gt;n89</title>
<path fill="none" stroke="black" d="M679.02,-485.54C701.76,-471.19 734.39,-450.6 759.53,-434.74"/>
<polygon fill="black" stroke="black" points="761.24,-437.8 767.83,-429.5 757.5,-431.88 761.24,-437.8"/>
</g>
<!-- n94 -->
<g id="node16" class="node">
<title>n94</title>
<polygon fill="none" stroke="black" points="1108.38,-428.25 907.12,-428.25 907.12,-392.25 1108.38,-392.25 1108.38,-428.25"/>
<text text-anchor="middle" x="1007.75" y="-405.2" font-family="Times New Roman,serif" font-size="14.00">Sequence{ node(92) .. node(93) }</text>
<text text-anchor="middle" x="888.75" y="-431.45" font-family="Times New Roman,serif" font-size="14.00">(94)int</text>
</g>
<!-- n132&#45;&gt;n94 -->
<g id="edge15" class="edge">
<title>n132&#45;&gt;n94</title>
<path fill="none" stroke="black" d="M1108.75,-474.55C1088.35,-461.76 1064.5,-446.82 1045.1,-434.66"/>
<polygon fill="black" stroke="black" points="1047.02,-431.73 1036.69,-429.39 1043.31,-437.66 1047.02,-431.73"/>
</g>
<!-- n95 -->
<g id="node17" class="node">
<title>n95</title>
<polygon fill="none" stroke="black" points="1180.75,-428.25 1126.75,-428.25 1126.75,-392.25 1180.75,-392.25 1180.75,-428.25"/>
<text text-anchor="middle" x="1153.75" y="-405.2" font-family="Times New Roman,serif" font-size="14.00">it : int</text>
<text text-anchor="middle" x="1108.38" y="-431.45" font-family="Times New Roman,serif" font-size="14.00">(95)int</text>
</g>
<!-- n132&#45;&gt;n95 -->
<g id="edge16" class="edge">
<title>n132&#45;&gt;n95</title>
<path fill="none" stroke="black" d="M1153.75,-474.8C1153.75,-463.76 1153.75,-451.09 1153.75,-439.97"/>
<polygon fill="black" stroke="black" points="1157.25,-440.19 1153.75,-430.19 1150.25,-440.19 1157.25,-440.19"/>
</g>
<!-- n98 -->
<g id="node18" class="node">
<title>n98</title>
<polygon fill="none" stroke="black" points="1252.75,-428.25 1198.75,-428.25 1198.75,-392.25 1252.75,-392.25 1252.75,-428.25"/>
<text text-anchor="middle" x="1225.75" y="-405.2" font-family="Times New Roman,serif" font-size="14.00">=</text>
<text text-anchor="middle" x="1165" y="-431.45" font-family="Times New Roman,serif" font-size="14.00">(98)Boolean</text>
</g>
<!-- n132&#45;&gt;n98 -->
<g id="edge17" class="edge">
<title>n132&#45;&gt;n98</title>
<path fill="none" stroke="black" d="M1175.74,-474.8C1185.08,-462.94 1195.9,-449.19 1205.08,-437.52"/>
<polygon fill="black" stroke="black" points="1207.67,-439.89 1211.1,-429.87 1202.16,-435.56 1207.67,-439.89"/>
</g>
<!-- n131 -->
<g id="node19" class="node">
<title>n131</title>
<polygon fill="none" stroke="black" points="1635.88,-439 1413.62,-439 1413.62,-381.5 1635.88,-381.5 1635.88,-439"/>
<text text-anchor="middle" x="1524.75" y="-421.7" font-family="Times New Roman,serif" font-size="14.00">IterateExp</text>
<text text-anchor="middle" x="1524.75" y="-405.2" font-family="Times New Roman,serif" font-size="14.00">source=node(101) Iterator=node(102)</text>
<text text-anchor="middle" x="1524.75" y="-388.7" font-family="Times New Roman,serif" font-size="14.00">Result=node(105) Body=node(130)</text>
<text text-anchor="middle" x="1376.5" y="-442.2" font-family="Times New Roman,serif" font-size="14.00">(131)Boolean</text>
</g>
<!-- n132&#45;&gt;n131 -->
<g id="edge18" class="edge">
<title>n132&#45;&gt;n131</title>
<path fill="none" stroke="black" d="M1258.58,-476.9C1303.31,-465.86 1355.82,-452.91 1402.32,-441.45"/>
<polygon fill="black" stroke="black" points="1403.04,-444.87 1411.91,-439.08 1401.36,-438.08 1403.04,-444.87"/>
</g>
<!-- n75 -->
<g id="node20" class="node">
<title>n75</title>
<polygon fill="none" stroke="black" points="209.5,-334.75 150,-334.75 150,-298.75 209.5,-298.75 209.5,-334.75"/>
<text text-anchor="middle" x="179.75" y="-311.7" font-family="Times New Roman,serif" font-size="14.00">arg.data</text>
<text text-anchor="middle" x="108" y="-337.95" font-family="Times New Roman,serif" font-size="14.00">(75)int[2][2][2]</text>
</g>
<!-- n77&#45;&gt;n75 -->
<g id="edge19" class="edge">
<title>n77&#45;&gt;n75</title>
<path fill="none" stroke="black" d="M209.79,-392.04C204.5,-378.96 197.12,-360.7 190.99,-345.55"/>
<polygon fill="black" stroke="black" points="194.37,-344.56 187.37,-336.6 187.88,-347.18 194.37,-344.56"/>
</g>
<!-- n76 -->
<g id="node21" class="node">
<title>n76</title>
<polygon fill="none" stroke="black" points="281.75,-334.75 227.75,-334.75 227.75,-298.75 281.75,-298.75 281.75,-334.75"/>
<text text-anchor="middle" x="254.75" y="-311.7" font-family="Times New Roman,serif" font-size="14.00">1</text>
<text text-anchor="middle" x="209.38" y="-337.95" font-family="Times New Roman,serif" font-size="14.00">(76)int</text>
</g>
<!-- n77&#45;&gt;n76 -->
<g id="edge20" class="edge">
<title>n77&#45;&gt;n76</title>
<path fill="none" stroke="black" d="M223.9,-392.04C229.33,-378.96 236.91,-360.7 243.2,-345.55"/>
<polygon fill="black" stroke="black" points="246.32,-347.17 246.92,-336.59 239.86,-344.49 246.32,-347.17"/>
</g>
<!-- n81 -->
<g id="node22" class="node">
<title>n81</title>
<polygon fill="none" stroke="black" points="498.5,-334.75 439,-334.75 439,-298.75 498.5,-298.75 498.5,-334.75"/>
<text text-anchor="middle" x="468.75" y="-311.7" font-family="Times New Roman,serif" font-size="14.00">arg.data</text>
<text text-anchor="middle" x="397" y="-337.95" font-family="Times New Roman,serif" font-size="14.00">(81)int[2][2][2]</text>
</g>
<!-- n83&#45;&gt;n81 -->
<g id="edge21" class="edge">
<title>n83&#45;&gt;n81</title>
<path fill="none" stroke="black" d="M499.6,-392.04C494.17,-378.96 486.59,-360.7 480.3,-345.55"/>
<polygon fill="black" stroke="black" points="483.64,-344.49 476.58,-336.59 477.18,-347.17 483.64,-344.49"/>
</g>
<!-- n82 -->
<g id="node23" class="node">
<title>n82</title>
<polygon fill="none" stroke="black" points="570.75,-334.75 516.75,-334.75 516.75,-298.75 570.75,-298.75 570.75,-334.75"/>
<text text-anchor="middle" x="543.75" y="-311.7" font-family="Times New Roman,serif" font-size="14.00">2</text>
<text text-anchor="middle" x="498.38" y="-337.95" font-family="Times New Roman,serif" font-size="14.00">(82)int</text>
</g>
<!-- n83&#45;&gt;n82 -->
<g id="edge22" class="edge">
<title>n83&#45;&gt;n82</title>
<path fill="none" stroke="black" d="M513.71,-392.04C519,-378.96 526.38,-360.7 532.51,-345.55"/>
<polygon fill="black" stroke="black" points="535.62,-347.18 536.13,-336.6 529.13,-344.56 535.62,-347.18"/>
</g>
<!-- n87 -->
<g id="node24" class="node">
<title>n87</title>
<polygon fill="none" stroke="black" points="784.5,-334.75 725,-334.75 725,-298.75 784.5,-298.75 784.5,-334.75"/>
<text text-anchor="middle" x="754.75" y="-311.7" font-family="Times New Roman,serif" font-size="14.00">arg.data</text>
<text text-anchor="middle" x="683" y="-337.95" font-family="Times New Roman,serif" font-size="14.00">(87)int[2][2][2]</text>
</g>
<!-- n89&#45;&gt;n87 -->
<g id="edge23" class="edge">
<title>n89&#45;&gt;n87</title>
<path fill="none" stroke="black" d="M788.85,-392.04C782.85,-378.96 774.46,-360.7 767.51,-345.55"/>
<polygon fill="black" stroke="black" points="770.74,-344.2 763.39,-336.57 764.38,-347.12 770.74,-344.2"/>
</g>
<!-- n88 -->
<g id="node25" class="node">
<title>n88</title>
<polygon fill="none" stroke="black" points="856.75,-334.75 802.75,-334.75 802.75,-298.75 856.75,-298.75 856.75,-334.75"/>
<text text-anchor="middle" x="829.75" y="-311.7" font-family="Times New Roman,serif" font-size="14.00">3</text>
<text text-anchor="middle" x="784.38" y="-337.95" font-family="Times New Roman,serif" font-size="14.00">(88)int</text>
</g>
<!-- n89&#45;&gt;n88 -->
<g id="edge24" class="edge">
<title>n89&#45;&gt;n88</title>
<path fill="none" stroke="black" d="M802.96,-392.04C807.63,-379.09 814.13,-361.05 819.56,-345.99"/>
<polygon fill="black" stroke="black" points="822.84,-347.21 822.95,-336.62 816.26,-344.84 822.84,-347.21"/>
</g>
<!-- n92 -->
<g id="node26" class="node">
<title>n92</title>
<polygon fill="none" stroke="black" points="981.75,-334.75 927.75,-334.75 927.75,-298.75 981.75,-298.75 981.75,-334.75"/>
<text text-anchor="middle" x="954.75" y="-311.7" font-family="Times New Roman,serif" font-size="14.00">1</text>
<text text-anchor="middle" x="909.38" y="-337.95" font-family="Times New Roman,serif" font-size="14.00">(92)int</text>
</g>
<!-- n94&#45;&gt;n92 -->
<g id="edge25" class="edge">
<title>n94&#45;&gt;n92</title>
<path fill="none" stroke="black" d="M997.78,-392.04C990.13,-378.83 979.42,-360.34 970.6,-345.11"/>
<polygon fill="black" stroke="black" points="973.65,-343.4 965.61,-336.5 967.6,-346.91 973.65,-343.4"/>
</g>
<!-- n93 -->
<g id="node27" class="node">
<title>n93</title>
<polygon fill="none" stroke="black" points="1053.75,-334.75 999.75,-334.75 999.75,-298.75 1053.75,-298.75 1053.75,-334.75"/>
<text text-anchor="middle" x="1026.75" y="-311.7" font-family="Times New Roman,serif" font-size="14.00">dim1</text>
<text text-anchor="middle" x="981.38" y="-337.95" font-family="Times New Roman,serif" font-size="14.00">(93)int</text>
</g>
<!-- n94&#45;&gt;n93 -->
<g id="edge26" class="edge">
<title>n94&#45;&gt;n93</title>
<path fill="none" stroke="black" d="M1011.32,-392.04C1013.99,-379.21 1017.69,-361.4 1020.79,-346.44"/>
<polygon fill="black" stroke="black" points="1024.21,-347.18 1022.82,-336.68 1017.36,-345.76 1024.21,-347.18"/>
</g>
<!-- n97 -->
<g id="node28" class="node">
<title>n97</title>
<polygon fill="none" stroke="black" points="1180.88,-334.75 1090.62,-334.75 1090.62,-298.75 1180.88,-298.75 1180.88,-334.75"/>
<text text-anchor="middle" x="1135.75" y="-311.7" font-family="Times New Roman,serif" font-size="14.00">acc : Boolean</text>
<text text-anchor="middle" x="1056.88" y="-337.95" font-family="Times New Roman,serif" font-size="14.00">(97)Boolean</text>
</g>
<!-- n98&#45;&gt;n97 -->
<g id="edge27" class="edge">
<title>n98&#45;&gt;n97</title>
<path fill="none" stroke="black" d="M1208.82,-392.04C1195.33,-378.32 1176.24,-358.91 1160.95,-343.37"/>
<polygon fill="black" stroke="black" points="1163.48,-340.95 1153.97,-336.27 1158.49,-345.86 1163.48,-340.95"/>
</g>
<!-- n96 -->
<g id="node29" class="node">
<title>n96</title>
<polygon fill="none" stroke="black" points="1252.75,-334.75 1198.75,-334.75 1198.75,-298.75 1252.75,-298.75 1252.75,-334.75"/>
<text text-anchor="middle" x="1225.75" y="-311.7" font-family="Times New Roman,serif" font-size="14.00">true</text>
<text text-anchor="middle" x="1165" y="-337.95" font-family="Times New Roman,serif" font-size="14.00">(96)Boolean</text>
</g>
<!-- n98&#45;&gt;n96 -->
<g id="edge28" class="edge">
<title>n98&#45;&gt;n96</title>
<path fill="none" stroke="black" d="M1225.75,-392.04C1225.75,-379.21 1225.75,-361.4 1225.75,-346.44"/>
<polygon fill="black" stroke="black" points="1229.25,-346.71 1225.75,-336.71 1222.25,-346.71 1229.25,-346.71"/>
</g>
<!-- n101 -->
<g id="node30" class="node">
<title>n101</title>
<polygon fill="none" stroke="black" points="1478.75,-334.75 1270.75,-334.75 1270.75,-298.75 1478.75,-298.75 1478.75,-334.75"/>
<text text-anchor="middle" x="1374.75" y="-311.7" font-family="Times New Roman,serif" font-size="14.00">Sequence{ node(99) .. node(100) }</text>
<text text-anchor="middle" x="1249" y="-337.95" font-family="Times New Roman,serif" font-size="14.00">(101)int</text>
</g>
<!-- n131&#45;&gt;n101 -->
<g id="edge29" class="edge">
<title>n131&#45;&gt;n101</title>
<path fill="none" stroke="black" d="M1478.52,-381.05C1457.46,-368.2 1432.83,-353.18 1412.85,-340.99"/>
<polygon fill="black" stroke="black" points="1414.82,-338.09 1404.46,-335.87 1411.17,-344.07 1414.82,-338.09"/>
</g>
<!-- n102 -->
<g id="node31" class="node">
<title>n102</title>
<polygon fill="none" stroke="black" points="1552.62,-334.75 1496.88,-334.75 1496.88,-298.75 1552.62,-298.75 1552.62,-334.75"/>
<text text-anchor="middle" x="1524.75" y="-311.7" font-family="Times New Roman,serif" font-size="14.00">it2 : int</text>
<text text-anchor="middle" x="1475.12" y="-337.95" font-family="Times New Roman,serif" font-size="14.00">(102)int</text>
</g>
<!-- n131&#45;&gt;n102 -->
<g id="edge30" class="edge">
<title>n131&#45;&gt;n102</title>
<path fill="none" stroke="black" d="M1524.75,-381.3C1524.75,-370.26 1524.75,-357.59 1524.75,-346.47"/>
<polygon fill="black" stroke="black" points="1528.25,-346.69 1524.75,-336.69 1521.25,-346.69 1528.25,-346.69"/>
</g>
<!-- n105 -->
<g id="node32" class="node">
<title>n105</title>
<polygon fill="none" stroke="black" points="1624.75,-334.75 1570.75,-334.75 1570.75,-298.75 1624.75,-298.75 1624.75,-334.75"/>
<text text-anchor="middle" x="1597.75" y="-311.7" font-family="Times New Roman,serif" font-size="14.00">=</text>
<text text-anchor="middle" x="1533.62" y="-285.45" font-family="Times New Roman,serif" font-size="14.00">(105)Boolean</text>
</g>
<!-- n131&#45;&gt;n105 -->
<g id="edge31" class="edge">
<title>n131&#45;&gt;n105</title>
<path fill="none" stroke="black" d="M1547.05,-381.3C1556.51,-369.44 1567.48,-355.69 1576.79,-344.02"/>
<polygon fill="black" stroke="black" points="1579.4,-346.36 1582.9,-336.36 1573.93,-342 1579.4,-346.36"/>
</g>
<!-- n130 -->
<g id="node33" class="node">
<title>n130</title>
<polygon fill="none" stroke="black" points="2013.88,-345.5 1791.62,-345.5 1791.62,-288 2013.88,-288 2013.88,-345.5"/>
<text text-anchor="middle" x="1902.75" y="-328.2" font-family="Times New Roman,serif" font-size="14.00">IterateExp</text>
<text text-anchor="middle" x="1902.75" y="-311.7" font-family="Times New Roman,serif" font-size="14.00">source=node(108) Iterator=node(109)</text>
<text text-anchor="middle" x="1902.75" y="-295.2" font-family="Times New Roman,serif" font-size="14.00">Result=node(112) Body=node(129)</text>
<text text-anchor="middle" x="1754.5" y="-348.7" font-family="Times New Roman,serif" font-size="14.00">(130)Boolean</text>
</g>
<!-- n131&#45;&gt;n130 -->
<g id="edge32" class="edge">
<title>n131&#45;&gt;n130</title>
<path fill="none" stroke="black" d="M1636.37,-382.23C1681.63,-371.28 1734.04,-358.59 1780.33,-347.38"/>
<polygon fill="black" stroke="black" points="1780.98,-350.83 1789.87,-345.07 1779.33,-344.02 1780.98,-350.83"/>
</g>
<!-- n74 -->
<g id="node34" class="node">
<title>n74</title>
<polygon fill="none" stroke="black" points="206.75,-252 152.75,-252 152.75,-216 206.75,-216 206.75,-252"/>
<text text-anchor="middle" x="179.75" y="-228.95" font-family="Times New Roman,serif" font-size="14.00">arg</text>
<text text-anchor="middle" x="127.25" y="-255.2" font-family="Times New Roman,serif" font-size="14.00">(74)Cube</text>
</g>
<!-- n75&#45;&gt;n74 -->
<g id="edge33" class="edge">
<title>n75&#45;&gt;n74</title>
<path fill="none" stroke="black" d="M179.75,-298.63C179.75,-288.52 179.75,-275.48 179.75,-263.83"/>
<polygon fill="black" stroke="black" points="183.25,-263.89 179.75,-253.89 176.25,-263.89 183.25,-263.89"/>
</g>
<!-- n80 -->
<g id="node35" class="node">
<title>n80</title>
<polygon fill="none" stroke="black" points="495.75,-252 441.75,-252 441.75,-216 495.75,-216 495.75,-252"/>
<text text-anchor="middle" x="468.75" y="-228.95" font-family="Times New Roman,serif" font-size="14.00">arg</text>
<text text-anchor="middle" x="416.25" y="-255.2" font-family="Times New Roman,serif" font-size="14.00">(80)Cube</text>
</g>
<!-- n81&#45;&gt;n80 -->
<g id="edge34" class="edge">
<title>n81&#45;&gt;n80</title>
<path fill="none" stroke="black" d="M468.75,-298.63C468.75,-288.52 468.75,-275.48 468.75,-263.83"/>
<polygon fill="black" stroke="black" points="472.25,-263.89 468.75,-253.89 465.25,-263.89 472.25,-263.89"/>
</g>
<!-- n86 -->
<g id="node36" class="node">
<title>n86</title>
<polygon fill="none" stroke="black" points="781.75,-252 727.75,-252 727.75,-216 781.75,-216 781.75,-252"/>
<text text-anchor="middle" x="754.75" y="-228.95" font-family="Times New Roman,serif" font-size="14.00">arg</text>
<text text-anchor="middle" x="702.25" y="-255.2" font-family="Times New Roman,serif" font-size="14.00">(86)Cube</text>
</g>
<!-- n87&#45;&gt;n86 -->
<g id="edge35" class="edge">
<title>n87&#45;&gt;n86</title>
<path fill="none" stroke="black" d="M754.75,-298.63C754.75,-288.52 754.75,-275.48 754.75,-263.83"/>
<polygon fill="black" stroke="black" points="758.25,-263.89 754.75,-253.89 751.25,-263.89 758.25,-263.89"/>
</g>
<!-- n99 -->
<g id="node37" class="node">
<title>n99</title>
<polygon fill="none" stroke="black" points="1346.75,-252 1292.75,-252 1292.75,-216 1346.75,-216 1346.75,-252"/>
<text text-anchor="middle" x="1319.75" y="-228.95" font-family="Times New Roman,serif" font-size="14.00">1</text>
<text text-anchor="middle" x="1274.38" y="-255.2" font-family="Times New Roman,serif" font-size="14.00">(99)int</text>
</g>
<!-- n101&#45;&gt;n99 -->
<g id="edge36" class="edge">
<title>n101&#45;&gt;n99</title>
<path fill="none" stroke="black" d="M1363.09,-298.63C1355.77,-287.89 1346.19,-273.82 1337.89,-261.64"/>
<polygon fill="black" stroke="black" points="1340.96,-259.92 1332.44,-253.63 1335.18,-263.86 1340.96,-259.92"/>
</g>
<!-- n100 -->
<g id="node38" class="node">
<title>n100</title>
<polygon fill="none" stroke="black" points="1418.75,-252 1364.75,-252 1364.75,-216 1418.75,-216 1418.75,-252"/>
<text text-anchor="middle" x="1391.75" y="-228.95" font-family="Times New Roman,serif" font-size="14.00">dim2</text>
<text text-anchor="middle" x="1343" y="-255.2" font-family="Times New Roman,serif" font-size="14.00">(100)int</text>
</g>
<!-- n101&#45;&gt;n100 -->
<g id="edge37" class="edge">
<title>n101&#45;&gt;n100</title>
<path fill="none" stroke="black" d="M1378.36,-298.63C1380.5,-288.42 1383.29,-275.2 1385.76,-263.46"/>
<polygon fill="black" stroke="black" points="1389.14,-264.37 1387.78,-253.86 1382.29,-262.92 1389.14,-264.37"/>
</g>
<!-- n104 -->
<g id="node39" class="node">
<title>n104</title>
<polygon fill="none" stroke="black" points="1552.25,-252 1455.25,-252 1455.25,-216 1552.25,-216 1552.25,-252"/>
<text text-anchor="middle" x="1503.75" y="-228.95" font-family="Times New Roman,serif" font-size="14.00">acc2 : Boolean</text>
<text text-anchor="middle" x="1418.12" y="-255.2" font-family="Times New Roman,serif" font-size="14.00">(104)Boolean</text>
</g>
<!-- n105&#45;&gt;n104 -->
<g id="edge38" class="edge">
<title>n105&#45;&gt;n104</title>
<path fill="none" stroke="black" d="M1577.82,-298.63C1564.69,-287.35 1547.3,-272.41 1532.67,-259.84"/>
<polygon fill="black" stroke="black" points="1534.99,-257.23 1525.13,-253.36 1530.43,-262.54 1534.99,-257.23"/>
</g>
<!-- n103 -->
<g id="node40" class="node">
<title>n103</title>
<polygon fill="none" stroke="black" points="1624.75,-252 1570.75,-252 1570.75,-216 1624.75,-216 1624.75,-252"/>
<text text-anchor="middle" x="1597.75" y="-228.95" font-family="Times New Roman,serif" font-size="14.00">true</text>
<text text-anchor="middle" x="1533.62" y="-255.2" font-family="Times New Roman,serif" font-size="14.00">(103)Boolean</text>
</g>
<!-- n105&#45;&gt;n103 -->
<g id="edge39" class="edge">
<title>n105&#45;&gt;n103</title>
<path fill="none" stroke="black" d="M1597.75,-298.63C1597.75,-288.52 1597.75,-275.48 1597.75,-263.83"/>
<polygon fill="black" stroke="black" points="1601.25,-263.89 1597.75,-253.89 1594.25,-263.89 1601.25,-263.89"/>
</g>
<!-- n108 -->
<g id="node41" class="node">
<title>n108</title>
<polygon fill="none" stroke="black" points="1857.12,-252 1642.38,-252 1642.38,-216 1857.12,-216 1857.12,-252"/>
<text text-anchor="middle" x="1749.75" y="-228.95" font-family="Times New Roman,serif" font-size="14.00">Sequence{ node(106) .. node(107) }</text>
<text text-anchor="middle" x="1620.62" y="-255.2" font-family="Times New Roman,serif" font-size="14.00">(108)int</text>
</g>
<!-- n130&#45;&gt;n108 -->
<g id="edge40" class="edge">
<title>n130&#45;&gt;n108</title>
<path fill="none" stroke="black" d="M1849.24,-287.51C1830.65,-277.7 1810.07,-266.84 1792.47,-257.55"/>
<polygon fill="black" stroke="black" points="1794.31,-254.56 1783.83,-252.99 1791.04,-260.75 1794.31,-254.56"/>
</g>
<!-- n109 -->
<g id="node42" class="node">
<title>n109</title>
<polygon fill="none" stroke="black" points="1930.62,-252 1874.88,-252 1874.88,-216 1930.62,-216 1930.62,-252"/>
<text text-anchor="middle" x="1902.75" y="-228.95" font-family="Times New Roman,serif" font-size="14.00">it3 : int</text>
<text text-anchor="middle" x="1853.12" y="-255.2" font-family="Times New Roman,serif" font-size="14.00">(109)int</text>
</g>
<!-- n130&#45;&gt;n109 -->
<g id="edge41" class="edge">
<title>n130&#45;&gt;n109</title>
<path fill="none" stroke="black" d="M1902.75,-287.51C1902.75,-279.75 1902.75,-271.33 1902.75,-263.55"/>
<polygon fill="black" stroke="black" points="1906.25,-263.56 1902.75,-253.56 1899.25,-263.56 1906.25,-263.56"/>
</g>
<!-- n112 -->
<g id="node43" class="node">
<title>n112</title>
<polygon fill="none" stroke="black" points="2002.75,-252 1948.75,-252 1948.75,-216 2002.75,-216 2002.75,-252"/>
<text text-anchor="middle" x="1975.75" y="-228.95" font-family="Times New Roman,serif" font-size="14.00">=</text>
<text text-anchor="middle" x="1911.62" y="-202.7" font-family="Times New Roman,serif" font-size="14.00">(112)Boolean</text>
</g>
<!-- n130&#45;&gt;n112 -->
<g id="edge42" class="edge">
<title>n130&#45;&gt;n112</title>
<path fill="none" stroke="black" d="M1928.28,-287.51C1936.22,-278.73 1944.91,-269.11 1952.67,-260.53"/>
<polygon fill="black" stroke="black" points="1955.22,-262.93 1959.33,-253.17 1950.02,-258.24 1955.22,-262.93"/>
</g>
<!-- n129 -->
<g id="node44" class="node">
<title>n129</title>
<polygon fill="none" stroke="black" points="2115.75,-252 2061.75,-252 2061.75,-216 2115.75,-216 2115.75,-252"/>
<text text-anchor="middle" x="2088.75" y="-228.95" font-family="Times New Roman,serif" font-size="14.00">=</text>
<text text-anchor="middle" x="2024.62" y="-255.2" font-family="Times New Roman,serif" font-size="14.00">(129)Boolean</text>
</g>
<!-- n130&#45;&gt;n129 -->
<g id="edge43" class="edge">
<title>n130&#45;&gt;n129</title>
<path fill="none" stroke="black" d="M1967.8,-287.51C1995.6,-275.44 2027.07,-261.78 2050.94,-251.41"/>
<polygon fill="black" stroke="black" points="2052.17,-254.7 2059.95,-247.5 2049.38,-248.28 2052.17,-254.7"/>
</g>
<!-- n106 -->
<g id="node45" class="node">
<title>n106</title>
<polygon fill="none" stroke="black" points="1723.75,-180 1669.75,-180 1669.75,-144 1723.75,-144 1723.75,-180"/>
<text text-anchor="middle" x="1696.75" y="-156.95" font-family="Times New Roman,serif" font-size="14.00">1</text>
<text text-anchor="middle" x="1648" y="-183.2" font-family="Times New Roman,serif" font-size="14.00">(106)int</text>
</g>
<!-- n108&#45;&gt;n106 -->
<g id="edge44" class="edge">
<title>n108&#45;&gt;n106</title>
<path fill="none" stroke="black" d="M1736.65,-215.7C1730.62,-207.73 1723.33,-198.1 1716.64,-189.26"/>
<polygon fill="black" stroke="black" points="1719.44,-187.17 1710.61,-181.31 1713.86,-191.4 1719.44,-187.17"/>
</g>
<!-- n107 -->
<g id="node46" class="node">
<title>n107</title>
<polygon fill="none" stroke="black" points="1795.75,-180 1741.75,-180 1741.75,-144 1795.75,-144 1795.75,-180"/>
<text text-anchor="middle" x="1768.75" y="-156.95" font-family="Times New Roman,serif" font-size="14.00">dim3</text>
<text text-anchor="middle" x="1720" y="-183.2" font-family="Times New Roman,serif" font-size="14.00">(107)int</text>
</g>
<!-- n108&#45;&gt;n107 -->
<g id="edge45" class="edge">
<title>n108&#45;&gt;n107</title>
<path fill="none" stroke="black" d="M1754.45,-215.7C1756.47,-208.24 1758.89,-199.32 1761.16,-190.97"/>
<polygon fill="black" stroke="black" points="1764.47,-192.13 1763.71,-181.57 1757.71,-190.3 1764.47,-192.13"/>
</g>
<!-- n111 -->
<g id="node47" class="node">
<title>n111</title>
<polygon fill="none" stroke="black" points="1930.25,-180 1833.25,-180 1833.25,-144 1930.25,-144 1930.25,-180"/>
<text text-anchor="middle" x="1881.75" y="-156.95" font-family="Times New Roman,serif" font-size="14.00">acc3 : Boolean</text>
<text text-anchor="middle" x="1796.12" y="-183.2" font-family="Times New Roman,serif" font-size="14.00">(111)Boolean</text>
</g>
<!-- n112&#45;&gt;n111 -->
<g id="edge46" class="edge">
<title>n112&#45;&gt;n111</title>
<path fill="none" stroke="black" d="M1952.51,-215.7C1940.88,-207.03 1926.6,-196.4 1913.93,-186.96"/>
<polygon fill="black" stroke="black" points="1916.37,-184.42 1906.26,-181.25 1912.19,-190.03 1916.37,-184.42"/>
</g>
<!-- n110 -->
<g id="node48" class="node">
<title>n110</title>
<polygon fill="none" stroke="black" points="2002.75,-180 1948.75,-180 1948.75,-144 2002.75,-144 2002.75,-180"/>
<text text-anchor="middle" x="1975.75" y="-156.95" font-family="Times New Roman,serif" font-size="14.00">true</text>
<text text-anchor="middle" x="1911.62" y="-183.2" font-family="Times New Roman,serif" font-size="14.00">(110)Boolean</text>
</g>
<!-- n112&#45;&gt;n110 -->
<g id="edge47" class="edge">
<title>n112&#45;&gt;n110</title>
<path fill="none" stroke="black" d="M1975.75,-215.7C1975.75,-208.41 1975.75,-199.73 1975.75,-191.54"/>
<polygon fill="black" stroke="black" points="1979.25,-191.62 1975.75,-181.62 1972.25,-191.62 1979.25,-191.62"/>
</g>
<!-- n117 -->
<g id="node49" class="node">
<title>n117</title>
<polygon fill="none" stroke="black" points="2156.38,-180 2021.12,-180 2021.12,-144 2156.38,-144 2156.38,-180"/>
<text text-anchor="middle" x="2088.75" y="-156.95" font-family="Times New Roman,serif" font-size="14.00">result.data[it][it2][it3]</text>
<text text-anchor="middle" x="1999.38" y="-183.2" font-family="Times New Roman,serif" font-size="14.00">(117)int</text>
</g>
<!-- n129&#45;&gt;n117 -->
<g id="edge48" class="edge">
<title>n129&#45;&gt;n117</title>
<path fill="none" stroke="black" d="M2088.75,-215.7C2088.75,-208.41 2088.75,-199.73 2088.75,-191.54"/>
<polygon fill="black" stroke="black" points="2092.25,-191.62 2088.75,-181.62 2085.25,-191.62 2092.25,-191.62"/>
</g>
<!-- n128 -->
<g id="node50" class="node">
<title>n128</title>
<polygon fill="none" stroke="black" points="2294.75,-180 2240.75,-180 2240.75,-144 2294.75,-144 2294.75,-180"/>
<text text-anchor="middle" x="2267.75" y="-156.95" font-family="Times New Roman,serif" font-size="14.00">&#45;</text>
<text text-anchor="middle" x="2219" y="-183.2" font-family="Times New Roman,serif" font-size="14.00">(128)int</text>
</g>
<!-- n129&#45;&gt;n128 -->
<g id="edge49" class="edge">
<title>n129&#45;&gt;n128</title>
<path fill="none" stroke="black" d="M2115.94,-222.37C2146.29,-210.5 2195.64,-191.2 2229.8,-177.84"/>
<polygon fill="black" stroke="black" points="2230.86,-181.18 2238.9,-174.28 2228.31,-174.67 2230.86,-181.18"/>
</g>
<!-- n113 -->
<g id="node51" class="node">
<title>n113</title>
<polygon fill="none" stroke="black" points="1971.75,-108 1917.75,-108 1917.75,-72 1971.75,-72 1971.75,-108"/>
<text text-anchor="middle" x="1944.75" y="-84.95" font-family="Times New Roman,serif" font-size="14.00">result</text>
<text text-anchor="middle" x="1888.88" y="-111.2" font-family="Times New Roman,serif" font-size="14.00">(113)Cube</text>
</g>
<!-- n117&#45;&gt;n113 -->
<g id="edge50" class="edge">
<title>n117&#45;&gt;n113</title>
<path fill="none" stroke="black" d="M2052.78,-143.52C2031.31,-133.08 2004.07,-119.83 1982.31,-109.26"/>
<polygon fill="black" stroke="black" points="1984.01,-106.19 1973.49,-104.97 1980.95,-112.49 1984.01,-106.19"/>
</g>
<!-- n114 -->
<g id="node52" class="node">
<title>n114</title>
<polygon fill="none" stroke="black" points="2043.75,-108 1989.75,-108 1989.75,-72 2043.75,-72 2043.75,-108"/>
<text text-anchor="middle" x="2016.75" y="-84.95" font-family="Times New Roman,serif" font-size="14.00">it</text>
<text text-anchor="middle" x="1968" y="-111.2" font-family="Times New Roman,serif" font-size="14.00">(114)int</text>
</g>
<!-- n117&#45;&gt;n114 -->
<g id="edge51" class="edge">
<title>n117&#45;&gt;n114</title>
<path fill="none" stroke="black" d="M2070.95,-143.7C2062.47,-135.45 2052.16,-125.43 2042.82,-116.35"/>
<polygon fill="black" stroke="black" points="2045.29,-113.86 2035.68,-109.4 2040.41,-118.88 2045.29,-113.86"/>
</g>
<!-- n115 -->
<g id="node53" class="node">
<title>n115</title>
<polygon fill="none" stroke="black" points="2115.75,-108 2061.75,-108 2061.75,-72 2115.75,-72 2115.75,-108"/>
<text text-anchor="middle" x="2088.75" y="-84.95" font-family="Times New Roman,serif" font-size="14.00">it2</text>
<text text-anchor="middle" x="2040" y="-111.2" font-family="Times New Roman,serif" font-size="14.00">(115)int</text>
</g>
<!-- n117&#45;&gt;n115 -->
<g id="edge52" class="edge">
<title>n117&#45;&gt;n115</title>
<path fill="none" stroke="black" d="M2088.75,-143.7C2088.75,-136.41 2088.75,-127.73 2088.75,-119.54"/>
<polygon fill="black" stroke="black" points="2092.25,-119.62 2088.75,-109.62 2085.25,-119.62 2092.25,-119.62"/>
</g>
<!-- n116 -->
<g id="node54" class="node">
<title>n116</title>
<polygon fill="none" stroke="black" points="2187.75,-108 2133.75,-108 2133.75,-72 2187.75,-72 2187.75,-108"/>
<text text-anchor="middle" x="2160.75" y="-84.95" font-family="Times New Roman,serif" font-size="14.00">it3</text>
<text text-anchor="middle" x="2112" y="-111.2" font-family="Times New Roman,serif" font-size="14.00">(116)int</text>
</g>
<!-- n117&#45;&gt;n116 -->
<g id="edge53" class="edge">
<title>n117&#45;&gt;n116</title>
<path fill="none" stroke="black" d="M2106.55,-143.7C2115.03,-135.45 2125.34,-125.43 2134.68,-116.35"/>
<polygon fill="black" stroke="black" points="2137.09,-118.88 2141.82,-109.4 2132.21,-113.86 2137.09,-118.88"/>
</g>
<!-- n122 -->
<g id="node55" class="node">
<title>n122</title>
<polygon fill="none" stroke="black" points="2330.12,-108 2205.38,-108 2205.38,-72 2330.12,-72 2330.12,-108"/>
<text text-anchor="middle" x="2267.75" y="-84.95" font-family="Times New Roman,serif" font-size="14.00">self.data[it][it2][it3]</text>
<text text-anchor="middle" x="2183.62" y="-111.2" font-family="Times New Roman,serif" font-size="14.00">(122)int</text>
</g>
<!-- n128&#45;&gt;n122 -->
<g id="edge54" class="edge">
<title>n128&#45;&gt;n122</title>
<path fill="none" stroke="black" d="M2267.75,-143.7C2267.75,-136.41 2267.75,-127.73 2267.75,-119.54"/>
<polygon fill="black" stroke="black" points="2271.25,-119.62 2267.75,-109.62 2264.25,-119.62 2271.25,-119.62"/>
</g>
<!-- n127 -->
<g id="node56" class="node">
<title>n127</title>
<polygon fill="none" stroke="black" points="2545,-108 2422.5,-108 2422.5,-72 2545,-72 2545,-108"/>
<text text-anchor="middle" x="2483.75" y="-84.95" font-family="Times New Roman,serif" font-size="14.00">arg.data[it][it2][it3]</text>
<text text-anchor="middle" x="2400.75" y="-111.2" font-family="Times New Roman,serif" font-size="14.00">(127)int</text>
</g>
<!-- n128&#45;&gt;n127 -->
<g id="edge55" class="edge">
<title>n128&#45;&gt;n127</title>
<path fill="none" stroke="black" d="M2295.11,-152.13C2326.16,-142.07 2377.88,-125.31 2419.32,-111.88"/>
<polygon fill="black" stroke="black" points="2420.29,-115.25 2428.72,-108.83 2418.13,-108.59 2420.29,-115.25"/>
</g>
<!-- n118 -->
<g id="node57" class="node">
<title>n118</title>
<polygon fill="none" stroke="black" points="2150.75,-36 2096.75,-36 2096.75,0 2150.75,0 2150.75,-36"/>
<text text-anchor="middle" x="2123.75" y="-12.95" font-family="Times New Roman,serif" font-size="14.00">self</text>
<text text-anchor="middle" x="2067.88" y="-39.2" font-family="Times New Roman,serif" font-size="14.00">(118)Cube</text>
</g>
<!-- n122&#45;&gt;n118 -->
<g id="edge56" class="edge">
<title>n122&#45;&gt;n118</title>
<path fill="none" stroke="black" d="M2231.78,-71.52C2210.31,-61.08 2183.07,-47.83 2161.31,-37.26"/>
<polygon fill="black" stroke="black" points="2163.01,-34.19 2152.49,-32.97 2159.95,-40.49 2163.01,-34.19"/>
</g>
<!-- n119 -->
<g id="node58" class="node">
<title>n119</title>
<polygon fill="none" stroke="black" points="2222.75,-36 2168.75,-36 2168.75,0 2222.75,0 2222.75,-36"/>
<text text-anchor="middle" x="2195.75" y="-12.95" font-family="Times New Roman,serif" font-size="14.00">it</text>
<text text-anchor="middle" x="2147" y="-39.2" font-family="Times New Roman,serif" font-size="14.00">(119)int</text>
</g>
<!-- n122&#45;&gt;n119 -->
<g id="edge57" class="edge">
<title>n122&#45;&gt;n119</title>
<path fill="none" stroke="black" d="M2249.95,-71.7C2241.47,-63.45 2231.16,-53.43 2221.82,-44.35"/>
<polygon fill="black" stroke="black" points="2224.29,-41.86 2214.68,-37.4 2219.41,-46.88 2224.29,-41.86"/>
</g>
<!-- n120 -->
<g id="node59" class="node">
<title>n120</title>
<polygon fill="none" stroke="black" points="2294.75,-36 2240.75,-36 2240.75,0 2294.75,0 2294.75,-36"/>
<text text-anchor="middle" x="2267.75" y="-12.95" font-family="Times New Roman,serif" font-size="14.00">it2</text>
<text text-anchor="middle" x="2219" y="-39.2" font-family="Times New Roman,serif" font-size="14.00">(120)int</text>
</g>
<!-- n122&#45;&gt;n120 -->
<g id="edge58" class="edge">
<title>n122&#45;&gt;n120</title>
<path fill="none" stroke="black" d="M2267.75,-71.7C2267.75,-64.41 2267.75,-55.73 2267.75,-47.54"/>
<polygon fill="black" stroke="black" points="2271.25,-47.62 2267.75,-37.62 2264.25,-47.62 2271.25,-47.62"/>
</g>
<!-- n121 -->
<g id="node60" class="node">
<title>n121</title>
<polygon fill="none" stroke="black" points="2366.75,-36 2312.75,-36 2312.75,0 2366.75,0 2366.75,-36"/>
<text text-anchor="middle" x="2339.75" y="-12.95" font-family="Times New Roman,serif" font-size="14.00">it3</text>
<text text-anchor="middle" x="2291" y="-39.2" font-family="Times New Roman,serif" font-size="14.00">(121)int</text>
</g>
<!-- n122&#45;&gt;n121 -->
<g id="edge59" class="edge">
<title>n122&#45;&gt;n121</title>
<path fill="none" stroke="black" d="M2285.55,-71.7C2294.03,-63.45 2304.34,-53.43 2313.68,-44.35"/>
<polygon fill="black" stroke="black" points="2316.09,-46.88 2320.82,-37.4 2311.21,-41.86 2316.09,-46.88"/>
</g>
<!-- n123 -->
<g id="node61" class="node">
<title>n123</title>
<polygon fill="none" stroke="black" points="2438.75,-36 2384.75,-36 2384.75,0 2438.75,0 2438.75,-36"/>
<text text-anchor="middle" x="2411.75" y="-12.95" font-family="Times New Roman,serif" font-size="14.00">arg</text>
<text text-anchor="middle" x="2355.88" y="-39.2" font-family="Times New Roman,serif" font-size="14.00">(123)Cube</text>
</g>
<!-- n127&#45;&gt;n123 -->
<g id="edge60" class="edge">
<title>n127&#45;&gt;n123</title>
<path fill="none" stroke="black" d="M2465.95,-71.7C2457.47,-63.45 2447.16,-53.43 2437.82,-44.35"/>
<polygon fill="black" stroke="black" points="2440.29,-41.86 2430.68,-37.4 2435.41,-46.88 2440.29,-41.86"/>
</g>
<!-- n124 -->
<g id="node62" class="node">
<title>n124</title>
<polygon fill="none" stroke="black" points="2510.75,-36 2456.75,-36 2456.75,0 2510.75,0 2510.75,-36"/>
<text text-anchor="middle" x="2483.75" y="-12.95" font-family="Times New Roman,serif" font-size="14.00">it</text>
<text text-anchor="middle" x="2435" y="-39.2" font-family="Times New Roman,serif" font-size="14.00">(124)int</text>
</g>
<!-- n127&#45;&gt;n124 -->
<g id="edge61" class="edge">
<title>n127&#45;&gt;n124</title>
<path fill="none" stroke="black" d="M2483.75,-71.7C2483.75,-64.41 2483.75,-55.73 2483.75,-47.54"/>
<polygon fill="black" stroke="black" points="2487.25,-47.62 2483.75,-37.62 2480.25,-47.62 2487.25,-47.62"/>
</g>
<!-- n125 -->
<g id="node63" class="node">
<title>n125</title>
<polygon fill="none" stroke="black" points="2582.75,-36 2528.75,-36 2528.75,0 2582.75,0 2582.75,-36"/>
<text text-anchor="middle" x="2555.75" y="-12.95" font-family="Times New Roman,serif" font-size="14.00">it2</text>
<text text-anchor="middle" x="2507" y="-39.2" font-family="Times New Roman,serif" font-size="14.00">(125)int</text>
</g>
<!-- n127&#45;&gt;n125 -->
<g id="edge62" class="edge">
<title>n127&#45;&gt;n125</title>
<path fill="none" stroke="black" d="M2501.55,-71.7C2510.03,-63.45 2520.34,-53.43 2529.68,-44.35"/>
<polygon fill="black" stroke="black" points="2532.09,-46.88 2536.82,-37.4 2527.21,-41.86 2532.09,-46.88"/>
</g>
<!-- n126 -->
<g id="node64" class="node">
<title>n126</title>
<polygon fill="none" stroke="black" points="2654.75,-36 2600.75,-36 2600.75,0 2654.75,0 2654.75,-36"/>
<text text-anchor="middle" x="2627.75" y="-12.95" font-family="Times New Roman,serif" font-size="14.00">it3</text>
<text text-anchor="middle" x="2579" y="-39.2" font-family="Times New Roman,serif" font-size="14.00">(126)int</text>
</g>
<!-- n127&#45;&gt;n126 -->
<g id="edge63" class="edge">
<title>n127&#45;&gt;n126</title>
<path fill="none" stroke="black" d="M2519.72,-71.52C2541.19,-61.08 2568.43,-47.83 2590.19,-37.26"/>
<polygon fill="black" stroke="black" points="2591.55,-40.49 2599.01,-32.97 2588.49,-34.19 2591.55,-40.49"/>
</g>
</g>
</svg>
