<?xml version="1.0" encoding="UTF-8" standalone="no"?>
<!DOCTYPE svg PUBLIC "-//W3C//DTD SVG 1.1//EN"
 "http://www.w3.org/Graphics/SVG/1.1/DTD/svg11.dtd">
<!-- Generated by graphviz version 12.2.1 (20241206.2353)
 -->
<!-- Title: AST Pages: 1 -->
<svg width="459pt" height="349pt"
 viewBox="0.00 0.00 459.38 348.50" xmlns="http://www.w3.org/2000/svg" xmlns:xlink="http://www.w3.org/1999/xlink">
<g id="graph0" class="graph" transform="scale(1 1) rotate(0) translate(4 344.5)">
<title>AST</title>
<polygon fill="white" stroke="none" points="-4,4 -4,-344.5 455.38,-344.5 455.38,4 -4,4"/>
<!-- n165 -->
<g id="node1" class="node">
<title>n165</title>
<polygon fill="none" stroke="black" points="409.12,-324 148.62,-324 148.62,-288 409.12,-288 409.12,-324"/>
<text text-anchor="middle" x="278.88" y="-300.95" font-family="Times New Roman,serif" font-size="14.00">ContextDecl: node(159) Context: node (164)</text>
<text text-anchor="middle" x="134" y="-327.2" font-family="Times New Roman,serif" font-size="14.00">(165)</text>
</g>
<!-- n159 -->
<g id="node2" class="node">
<title>n159</title>
<polygon fill="none" stroke="black" points="332.5,-252 29.25,-252 29.25,-216 332.5,-216 332.5,-252"/>
<text text-anchor="middle" x="180.88" y="-228.95" font-family="Times New Roman,serif" font-size="14.00">ThreeDimVarArray::getDatas() : ThreeDimVarArray</text>
<text text-anchor="middle" x="14.62" y="-255.2" font-family="Times New Roman,serif" font-size="14.00">(159)</text>
</g>
<!-- n165&#45;&gt;n159 -->
<g id="edge1" class="edge">
<title>n165&#45;&gt;n159</title>
<path fill="none" stroke="black" d="M254.4,-287.52C242.26,-278.85 227.42,-268.25 214.26,-258.85"/>
<polygon fill="black" stroke="black" points="216.44,-256.1 206.27,-253.14 212.37,-261.8 216.44,-256.1"/>
</g>
<!-- n164 -->
<g id="node3" class="node">
<title>n164</title>
<polygon fill="none" stroke="black" points="404.88,-252 350.88,-252 350.88,-216 404.88,-216 404.88,-252"/>
<text text-anchor="middle" x="377.88" y="-228.95" font-family="Times New Roman,serif" font-size="14.00"> post:</text>
<text text-anchor="middle" x="313.75" y="-255.2" font-family="Times New Roman,serif" font-size="14.00">(164)Boolean</text>
</g>
<!-- n165&#45;&gt;n164 -->
<g id="edge2" class="edge">
<title>n165&#45;&gt;n164</title>
<path fill="none" stroke="black" d="M303.6,-287.52C315.86,-278.85 330.85,-268.25 344.15,-258.85"/>
<polygon fill="black" stroke="black" points="346.08,-261.77 352.23,-253.13 342.04,-256.05 346.08,-261.77"/>
</g>
<!-- n163 -->
<g id="node4" class="node">
<title>n163</title>
<polygon fill="none" stroke="black" points="404.88,-180 350.88,-180 350.88,-144 404.88,-144 404.88,-180"/>
<text text-anchor="middle" x="377.88" y="-156.95" font-family="Times New Roman,serif" font-size="14.00">=</text>
<text text-anchor="middle" x="313.75" y="-183.2" font-family="Times New Roman,serif" font-size="14.00">(163)Boolean</text>
</g>
<!-- n164&#45;&gt;n163 -->
<g id="edge3" class="edge">
<title>n164&#45;&gt;n163</title>
<path fill="none" stroke="black" d="M377.88,-215.7C377.88,-208.41 377.88,-199.73 377.88,-191.54"/>
<polygon fill="black" stroke="black" points="381.38,-191.62 377.88,-181.62 374.38,-191.62 381.38,-191.62"/>
</g>
<!-- n160 -->
<g id="node5" class="node">
<title>n160</title>
<polygon fill="none" stroke="black" points="365.88,-108 311.88,-108 311.88,-72 365.88,-72 365.88,-108"/>
<text text-anchor="middle" x="338.88" y="-84.95" font-family="Times New Roman,serif" font-size="14.00">result</text>
<text text-anchor="middle" x="244" y="-111.2" font-family="Times New Roman,serif" font-size="14.00">(160)ThreeDimVarArray</text>
</g>
<!-- n163&#45;&gt;n160 -->
<g id="edge4" class="edge">
<title>n163&#45;&gt;n160</title>
<path fill="none" stroke="black" d="M368.23,-143.7C363.94,-135.98 358.77,-126.71 353.98,-118.11"/>
<polygon fill="black" stroke="black" points="357.07,-116.46 349.14,-109.43 350.95,-119.87 357.07,-116.46"/>
</g>
<!-- n162 -->
<g id="node6" class="node">
<title>n162</title>
<polygon fill="none" stroke="black" points="451.38,-108 384.38,-108 384.38,-72 451.38,-72 451.38,-108"/>
<text text-anchor="middle" x="417.88" y="-84.95" font-family="Times New Roman,serif" font-size="14.00">self.datas</text>
<text text-anchor="middle" x="306.38" y="-58.7" font-family="Times New Roman,serif" font-size="14.00">(162)int[dim1][dim2][dim3]</text>
</g>
<!-- n163&#45;&gt;n162 -->
<g id="edge5" class="edge">
<title>n163&#45;&gt;n162</title>
<path fill="none" stroke="black" d="M387.76,-143.7C392.22,-135.9 397.58,-126.51 402.54,-117.83"/>
<polygon fill="black" stroke="black" points="405.43,-119.84 407.35,-109.42 399.35,-116.36 405.43,-119.84"/>
</g>
<!-- n161 -->
<g id="node7" class="node">
<title>n161</title>
<polygon fill="none" stroke="black" points="444.88,-36 390.88,-36 390.88,0 444.88,0 444.88,-36"/>
<text text-anchor="middle" x="417.88" y="-12.95" font-family="Times New Roman,serif" font-size="14.00">self</text>
<text text-anchor="middle" x="323" y="-39.2" font-family="Times New Roman,serif" font-size="14.00">(161)ThreeDimVarArray</text>
</g>
<!-- n162&#45;&gt;n161 -->
<g id="edge6" class="edge">
<title>n162&#45;&gt;n161</title>
<path fill="none" stroke="black" d="M417.88,-71.7C417.88,-64.41 417.88,-55.73 417.88,-47.54"/>
<polygon fill="black" stroke="black" points="421.38,-47.62 417.88,-37.62 414.38,-47.62 421.38,-47.62"/>
</g>
</g>
</svg>
