<?xml version="1.0" encoding="UTF-8" standalone="no"?>
<!DOCTYPE svg PUBLIC "-//W3C//DTD SVG 1.1//EN"
 "http://www.w3.org/Graphics/SVG/1.1/DTD/svg11.dtd">
<!-- Generated by graphviz version 12.2.1 (20241206.2353)
 -->
<!-- Title: AST Pages: 1 -->
<svg width="1796pt" height="591pt"
 viewBox="0.00 0.00 1795.75 591.00" xmlns="http://www.w3.org/2000/svg" xmlns:xlink="http://www.w3.org/1999/xlink">
<g id="graph0" class="graph" transform="scale(1 1) rotate(0) translate(4 587)">
<title>AST</title>
<polygon fill="white" stroke="none" points="-4,4 -4,-587 1791.75,-587 1791.75,4 -4,4"/>
<!-- n85 -->
<g id="node1" class="node">
<title>n85</title>
<polygon fill="none" stroke="black" points="773.25,-566.5 466.25,-566.5 466.25,-530.5 773.25,-530.5 773.25,-566.5"/>
<text text-anchor="middle" x="619.75" y="-543.45" font-family="Times New Roman,serif" font-size="14.00">ContextDecl: node(39) Context: node (57), node (84)</text>
<text text-anchor="middle" x="455" y="-569.7" font-family="Times New Roman,serif" font-size="14.00">(85)</text>
</g>
<!-- n39 -->
<g id="node2" class="node">
<title>n39</title>
<polygon fill="none" stroke="black" points="522.38,-494.5 345.12,-494.5 345.12,-458.5 522.38,-458.5 522.38,-494.5"/>
<text text-anchor="middle" x="433.75" y="-471.45" font-family="Times New Roman,serif" font-size="14.00">Array::sub(node (38)) : Array</text>
<text text-anchor="middle" x="333.88" y="-497.7" font-family="Times New Roman,serif" font-size="14.00">(39)</text>
</g>
<!-- n85&#45;&gt;n39 -->
<g id="edge1" class="edge">
<title>n85&#45;&gt;n39</title>
<path fill="none" stroke="black" d="M573.29,-530.02C548.23,-520.58 517.1,-508.87 490.6,-498.89"/>
<polygon fill="black" stroke="black" points="491.94,-495.66 481.35,-495.41 489.48,-502.21 491.94,-495.66"/>
</g>
<!-- n57 -->
<g id="node3" class="node">
<title>n57</title>
<polygon fill="none" stroke="black" points="699,-494.5 540.5,-494.5 540.5,-458.5 699,-458.5 699,-494.5"/>
<text text-anchor="middle" x="619.75" y="-471.45" font-family="Times New Roman,serif" font-size="14.00">IllegalDimensionSize pre:</text>
<text text-anchor="middle" x="506.75" y="-497.7" font-family="Times New Roman,serif" font-size="14.00">(57)Boolean</text>
</g>
<!-- n85&#45;&gt;n57 -->
<g id="edge2" class="edge">
<title>n85&#45;&gt;n57</title>
<path fill="none" stroke="black" d="M619.75,-530.2C619.75,-522.91 619.75,-514.23 619.75,-506.04"/>
<polygon fill="black" stroke="black" points="623.25,-506.12 619.75,-496.12 616.25,-506.12 623.25,-506.12"/>
</g>
<!-- n84 -->
<g id="node4" class="node">
<title>n84</title>
<polygon fill="none" stroke="black" points="890.75,-494.5 836.75,-494.5 836.75,-458.5 890.75,-458.5 890.75,-494.5"/>
<text text-anchor="middle" x="863.75" y="-471.45" font-family="Times New Roman,serif" font-size="14.00"> post:</text>
<text text-anchor="middle" x="803" y="-497.7" font-family="Times New Roman,serif" font-size="14.00">(84)Boolean</text>
</g>
<!-- n85&#45;&gt;n84 -->
<g id="edge3" class="edge">
<title>n85&#45;&gt;n84</title>
<path fill="none" stroke="black" d="M680.69,-530.02C726.17,-516.97 786.9,-499.55 825.68,-488.42"/>
<polygon fill="black" stroke="black" points="826.38,-491.86 835.03,-485.74 824.45,-485.13 826.38,-491.86"/>
</g>
<!-- n38 -->
<g id="node5" class="node">
<title>n38</title>
<polygon fill="none" stroke="black" points="471.38,-420 396.12,-420 396.12,-384 471.38,-384 471.38,-420"/>
<text text-anchor="middle" x="433.75" y="-396.95" font-family="Times New Roman,serif" font-size="14.00">arg : Array</text>
<text text-anchor="middle" x="369.12" y="-423.2" font-family="Times New Roman,serif" font-size="14.00">(38)Array</text>
</g>
<!-- n39&#45;&gt;n38 -->
<g id="edge4" class="edge">
<title>n39&#45;&gt;n38</title>
<path fill="none" stroke="black" d="M433.75,-458.32C433.75,-450.28 433.75,-440.5 433.75,-431.41"/>
<polygon fill="black" stroke="black" points="437.25,-431.57 433.75,-421.57 430.25,-431.57 437.25,-431.57"/>
</g>
<!-- n56 -->
<g id="node6" class="node">
<title>n56</title>
<polygon fill="none" stroke="black" points="594.75,-420 540.75,-420 540.75,-384 594.75,-384 594.75,-420"/>
<text text-anchor="middle" x="567.75" y="-396.95" font-family="Times New Roman,serif" font-size="14.00">and</text>
<text text-anchor="middle" x="507" y="-423.2" font-family="Times New Roman,serif" font-size="14.00">(56)Boolean</text>
</g>
<!-- n57&#45;&gt;n56 -->
<g id="edge5" class="edge">
<title>n57&#45;&gt;n56</title>
<path fill="none" stroke="black" d="M607.43,-458.32C601.21,-449.65 593.53,-438.95 586.6,-429.28"/>
<polygon fill="black" stroke="black" points="589.54,-427.37 580.87,-421.29 583.85,-431.45 589.54,-427.37"/>
</g>
<!-- n83 -->
<g id="node7" class="node">
<title>n83</title>
<polygon fill="none" stroke="black" points="1013.5,-422.5 804,-422.5 804,-381.5 1013.5,-381.5 1013.5,-422.5"/>
<text text-anchor="middle" x="908.75" y="-405.2" font-family="Times New Roman,serif" font-size="14.00">LetExp </text>
<text text-anchor="middle" x="908.75" y="-388.7" font-family="Times New Roman,serif" font-size="14.00">Let node(63), node(82) in node(82)</text>
<text text-anchor="middle" x="770.25" y="-425.7" font-family="Times New Roman,serif" font-size="14.00">(83)Boolean</text>
</g>
<!-- n84&#45;&gt;n83 -->
<g id="edge6" class="edge">
<title>n84&#45;&gt;n83</title>
<path fill="none" stroke="black" d="M874.41,-458.32C879.21,-450.59 885.01,-441.25 890.47,-432.46"/>
<polygon fill="black" stroke="black" points="893.31,-434.51 895.61,-424.17 887.36,-430.82 893.31,-434.51"/>
</g>
<!-- n46 -->
<g id="node8" class="node">
<title>n46</title>
<polygon fill="none" stroke="black" points="313.75,-334.75 259.75,-334.75 259.75,-298.75 313.75,-298.75 313.75,-334.75"/>
<text text-anchor="middle" x="286.75" y="-311.7" font-family="Times New Roman,serif" font-size="14.00">=</text>
<text text-anchor="middle" x="226" y="-337.95" font-family="Times New Roman,serif" font-size="14.00">(46)Boolean</text>
</g>
<!-- n56&#45;&gt;n46 -->
<g id="edge7" class="edge">
<title>n56&#45;&gt;n46</title>
<path fill="none" stroke="black" d="M540.29,-392.87C489.8,-377.91 382.13,-346.01 324.69,-328.99"/>
<polygon fill="black" stroke="black" points="325.94,-325.71 315.35,-326.22 323.95,-332.42 325.94,-325.71"/>
</g>
<!-- n55 -->
<g id="node9" class="node">
<title>n55</title>
<polygon fill="none" stroke="black" points="594.75,-334.75 540.75,-334.75 540.75,-298.75 594.75,-298.75 594.75,-334.75"/>
<text text-anchor="middle" x="567.75" y="-311.7" font-family="Times New Roman,serif" font-size="14.00">=</text>
<text text-anchor="middle" x="507" y="-337.95" font-family="Times New Roman,serif" font-size="14.00">(55)Boolean</text>
</g>
<!-- n56&#45;&gt;n55 -->
<g id="edge8" class="edge">
<title>n56&#45;&gt;n55</title>
<path fill="none" stroke="black" d="M567.75,-383.75C567.75,-372.92 567.75,-358.7 567.75,-346.23"/>
<polygon fill="black" stroke="black" points="571.25,-346.49 567.75,-336.49 564.25,-346.49 571.25,-346.49"/>
</g>
<!-- n63 -->
<g id="node10" class="node">
<title>n63</title>
<polygon fill="none" stroke="black" points="935.75,-334.75 881.75,-334.75 881.75,-298.75 935.75,-298.75 935.75,-334.75"/>
<text text-anchor="middle" x="908.75" y="-311.7" font-family="Times New Roman,serif" font-size="14.00">=</text>
<text text-anchor="middle" x="848" y="-337.95" font-family="Times New Roman,serif" font-size="14.00">(63)Boolean</text>
</g>
<!-- n83&#45;&gt;n63 -->
<g id="edge9" class="edge">
<title>n83&#45;&gt;n63</title>
<path fill="none" stroke="black" d="M908.75,-381.27C908.75,-370.85 908.75,-357.87 908.75,-346.37"/>
<polygon fill="black" stroke="black" points="912.25,-346.59 908.75,-336.59 905.25,-346.59 912.25,-346.59"/>
</g>
<!-- n82 -->
<g id="node11" class="node">
<title>n82</title>
<polygon fill="none" stroke="black" points="1446.12,-345.5 1237.38,-345.5 1237.38,-288 1446.12,-288 1446.12,-345.5"/>
<text text-anchor="middle" x="1341.75" y="-328.2" font-family="Times New Roman,serif" font-size="14.00">IterateExp</text>
<text text-anchor="middle" x="1341.75" y="-311.7" font-family="Times New Roman,serif" font-size="14.00">source=node(66) Iterator=node(67)</text>
<text text-anchor="middle" x="1341.75" y="-295.2" font-family="Times New Roman,serif" font-size="14.00">Result=node(70) Body=node(81)</text>
<text text-anchor="middle" x="1203.62" y="-348.7" font-family="Times New Roman,serif" font-size="14.00">(82)Boolean</text>
</g>
<!-- n83&#45;&gt;n82 -->
<g id="edge10" class="edge">
<title>n83&#45;&gt;n82</title>
<path fill="none" stroke="black" d="M1012.74,-381.01C1077.09,-368.63 1159.81,-352.73 1226.2,-339.97"/>
<polygon fill="black" stroke="black" points="1226.49,-343.47 1235.65,-338.15 1225.17,-336.6 1226.49,-343.47"/>
</g>
<!-- n42 -->
<g id="node12" class="node">
<title>n42</title>
<polygon fill="none" stroke="black" points="190.75,-252 36.75,-252 36.75,-216 190.75,-216 190.75,-252"/>
<text text-anchor="middle" x="113.75" y="-228.95" font-family="Times New Roman,serif" font-size="14.00">arg.datas.getDimension()</text>
<text text-anchor="middle" x="18.38" y="-255.2" font-family="Times New Roman,serif" font-size="14.00">(42)int</text>
</g>
<!-- n46&#45;&gt;n42 -->
<g id="edge11" class="edge">
<title>n46&#45;&gt;n42</title>
<path fill="none" stroke="black" d="M259.34,-302.95C233.06,-290.69 192.84,-271.92 161.33,-257.21"/>
<polygon fill="black" stroke="black" points="162.92,-254.09 152.38,-253.03 159.96,-260.43 162.92,-254.09"/>
</g>
<!-- n45 -->
<g id="node13" class="node">
<title>n45</title>
<polygon fill="none" stroke="black" points="364.88,-252 208.62,-252 208.62,-216 364.88,-216 364.88,-252"/>
<text text-anchor="middle" x="286.75" y="-228.95" font-family="Times New Roman,serif" font-size="14.00">self.datas.getDimension()</text>
<text text-anchor="middle" x="190.25" y="-255.2" font-family="Times New Roman,serif" font-size="14.00">(45)int</text>
</g>
<!-- n46&#45;&gt;n45 -->
<g id="edge12" class="edge">
<title>n46&#45;&gt;n45</title>
<path fill="none" stroke="black" d="M286.75,-298.63C286.75,-288.52 286.75,-275.48 286.75,-263.83"/>
<polygon fill="black" stroke="black" points="290.25,-263.89 286.75,-253.89 283.25,-263.89 290.25,-263.89"/>
</g>
<!-- n50 -->
<g id="node14" class="node">
<title>n50</title>
<polygon fill="none" stroke="black" points="572.38,-252 383.12,-252 383.12,-216 572.38,-216 572.38,-252"/>
<text text-anchor="middle" x="477.75" y="-228.95" font-family="Times New Roman,serif" font-size="14.00">arg.datas.getDimensionSizes(1)</text>
<text text-anchor="middle" x="364.75" y="-255.2" font-family="Times New Roman,serif" font-size="14.00">(50)int</text>
</g>
<!-- n55&#45;&gt;n50 -->
<g id="edge13" class="edge">
<title>n55&#45;&gt;n50</title>
<path fill="none" stroke="black" d="M548.66,-298.63C536.1,-287.35 519.45,-272.41 505.44,-259.84"/>
<polygon fill="black" stroke="black" points="508.03,-257.46 498.25,-253.39 503.35,-262.67 508.03,-257.46"/>
</g>
<!-- n54 -->
<g id="node15" class="node">
<title>n54</title>
<polygon fill="none" stroke="black" points="781.5,-252 590,-252 590,-216 781.5,-216 781.5,-252"/>
<text text-anchor="middle" x="685.75" y="-228.95" font-family="Times New Roman,serif" font-size="14.00">self.datas.getDimensionSizes(1)</text>
<text text-anchor="middle" x="571.62" y="-255.2" font-family="Times New Roman,serif" font-size="14.00">(54)int</text>
</g>
<!-- n55&#45;&gt;n54 -->
<g id="edge14" class="edge">
<title>n55&#45;&gt;n54</title>
<path fill="none" stroke="black" d="M593.06,-298.43C610.02,-286.82 632.55,-271.4 651.16,-258.67"/>
<polygon fill="black" stroke="black" points="652.95,-261.68 659.23,-253.15 649,-255.91 652.95,-261.68"/>
</g>
<!-- n62 -->
<g id="node16" class="node">
<title>n62</title>
<polygon fill="none" stroke="black" points="869.75,-252 799.75,-252 799.75,-216 869.75,-216 869.75,-252"/>
<text text-anchor="middle" x="834.75" y="-228.95" font-family="Times New Roman,serif" font-size="14.00">dim1 : int</text>
<text text-anchor="middle" x="781.38" y="-255.2" font-family="Times New Roman,serif" font-size="14.00">(62)int</text>
</g>
<!-- n63&#45;&gt;n62 -->
<g id="edge15" class="edge">
<title>n63&#45;&gt;n62</title>
<path fill="none" stroke="black" d="M893.06,-298.63C882.92,-287.57 869.55,-272.98 858.17,-260.56"/>
<polygon fill="black" stroke="black" points="861.04,-258.5 851.7,-253.49 855.87,-263.23 861.04,-258.5"/>
</g>
<!-- n61 -->
<g id="node17" class="node">
<title>n61</title>
<polygon fill="none" stroke="black" points="1077.38,-252 888.12,-252 888.12,-216 1077.38,-216 1077.38,-252"/>
<text text-anchor="middle" x="982.75" y="-228.95" font-family="Times New Roman,serif" font-size="14.00">arg.datas.getDimensionSizes(1)</text>
<text text-anchor="middle" x="869.75" y="-255.2" font-family="Times New Roman,serif" font-size="14.00">(61)int</text>
</g>
<!-- n63&#45;&gt;n61 -->
<g id="edge16" class="edge">
<title>n63&#45;&gt;n61</title>
<path fill="none" stroke="black" d="M924.44,-298.63C934.58,-287.57 947.95,-272.98 959.33,-260.56"/>
<polygon fill="black" stroke="black" points="961.63,-263.23 965.8,-253.49 956.46,-258.5 961.63,-263.23"/>
</g>
<!-- n66 -->
<g id="node18" class="node">
<title>n66</title>
<polygon fill="none" stroke="black" points="1296.38,-252 1095.12,-252 1095.12,-216 1296.38,-216 1296.38,-252"/>
<text text-anchor="middle" x="1195.75" y="-228.95" font-family="Times New Roman,serif" font-size="14.00">Sequence{ node(64) .. node(65) }</text>
<text text-anchor="middle" x="1076.75" y="-255.2" font-family="Times New Roman,serif" font-size="14.00">(66)int</text>
</g>
<!-- n82&#45;&gt;n66 -->
<g id="edge17" class="edge">
<title>n82&#45;&gt;n66</title>
<path fill="none" stroke="black" d="M1290.69,-287.51C1273.12,-277.79 1253.68,-267.04 1236.99,-257.81"/>
<polygon fill="black" stroke="black" points="1238.77,-254.79 1228.32,-253.02 1235.38,-260.92 1238.77,-254.79"/>
</g>
<!-- n67 -->
<g id="node19" class="node">
<title>n67</title>
<polygon fill="none" stroke="black" points="1368.75,-252 1314.75,-252 1314.75,-216 1368.75,-216 1368.75,-252"/>
<text text-anchor="middle" x="1341.75" y="-228.95" font-family="Times New Roman,serif" font-size="14.00">it : int</text>
<text text-anchor="middle" x="1296.38" y="-255.2" font-family="Times New Roman,serif" font-size="14.00">(67)int</text>
</g>
<!-- n82&#45;&gt;n67 -->
<g id="edge18" class="edge">
<title>n82&#45;&gt;n67</title>
<path fill="none" stroke="black" d="M1341.75,-287.51C1341.75,-279.75 1341.75,-271.33 1341.75,-263.55"/>
<polygon fill="black" stroke="black" points="1345.25,-263.56 1341.75,-253.56 1338.25,-263.56 1345.25,-263.56"/>
</g>
<!-- n70 -->
<g id="node20" class="node">
<title>n70</title>
<polygon fill="none" stroke="black" points="1440.75,-252 1386.75,-252 1386.75,-216 1440.75,-216 1440.75,-252"/>
<text text-anchor="middle" x="1413.75" y="-228.95" font-family="Times New Roman,serif" font-size="14.00">=</text>
<text text-anchor="middle" x="1353" y="-255.2" font-family="Times New Roman,serif" font-size="14.00">(70)Boolean</text>
</g>
<!-- n82&#45;&gt;n70 -->
<g id="edge19" class="edge">
<title>n82&#45;&gt;n70</title>
<path fill="none" stroke="black" d="M1366.93,-287.51C1374.76,-278.73 1383.33,-269.11 1390.99,-260.53"/>
<polygon fill="black" stroke="black" points="1393.5,-262.97 1397.54,-253.17 1388.28,-258.31 1393.5,-262.97"/>
</g>
<!-- n81 -->
<g id="node21" class="node">
<title>n81</title>
<polygon fill="none" stroke="black" points="1532.75,-252 1478.75,-252 1478.75,-216 1532.75,-216 1532.75,-252"/>
<text text-anchor="middle" x="1505.75" y="-228.95" font-family="Times New Roman,serif" font-size="14.00">=</text>
<text text-anchor="middle" x="1445" y="-255.2" font-family="Times New Roman,serif" font-size="14.00">(81)Boolean</text>
</g>
<!-- n82&#45;&gt;n81 -->
<g id="edge20" class="edge">
<title>n82&#45;&gt;n81</title>
<path fill="none" stroke="black" d="M1399.11,-287.51C1422.08,-276.2 1447.89,-263.49 1468.36,-253.41"/>
<polygon fill="black" stroke="black" points="1469.76,-256.62 1477.18,-249.07 1466.67,-250.34 1469.76,-256.62"/>
</g>
<!-- n41 -->
<g id="node22" class="node">
<title>n41</title>
<polygon fill="none" stroke="black" points="146.12,-180 81.38,-180 81.38,-144 146.12,-144 146.12,-180"/>
<text text-anchor="middle" x="113.75" y="-156.95" font-family="Times New Roman,serif" font-size="14.00">arg.datas</text>
<text text-anchor="middle" x="55.12" y="-183.2" font-family="Times New Roman,serif" font-size="14.00">(41)int[5]</text>
</g>
<!-- n42&#45;&gt;n41 -->
<g id="edge21" class="edge">
<title>n42&#45;&gt;n41</title>
<path fill="none" stroke="black" d="M113.75,-215.7C113.75,-208.41 113.75,-199.73 113.75,-191.54"/>
<polygon fill="black" stroke="black" points="117.25,-191.62 113.75,-181.62 110.25,-191.62 117.25,-191.62"/>
</g>
<!-- n44 -->
<g id="node23" class="node">
<title>n44</title>
<polygon fill="none" stroke="black" points="320.25,-180 253.25,-180 253.25,-144 320.25,-144 320.25,-180"/>
<text text-anchor="middle" x="286.75" y="-156.95" font-family="Times New Roman,serif" font-size="14.00">self.datas</text>
<text text-anchor="middle" x="227" y="-183.2" font-family="Times New Roman,serif" font-size="14.00">(44)int[5]</text>
</g>
<!-- n45&#45;&gt;n44 -->
<g id="edge22" class="edge">
<title>n45&#45;&gt;n44</title>
<path fill="none" stroke="black" d="M286.75,-215.7C286.75,-208.41 286.75,-199.73 286.75,-191.54"/>
<polygon fill="black" stroke="black" points="290.25,-191.62 286.75,-181.62 283.25,-191.62 290.25,-191.62"/>
</g>
<!-- n48 -->
<g id="node24" class="node">
<title>n48</title>
<polygon fill="none" stroke="black" points="472.12,-180 407.38,-180 407.38,-144 472.12,-144 472.12,-180"/>
<text text-anchor="middle" x="439.75" y="-156.95" font-family="Times New Roman,serif" font-size="14.00">arg.datas</text>
<text text-anchor="middle" x="381.12" y="-183.2" font-family="Times New Roman,serif" font-size="14.00">(48)int[5]</text>
</g>
<!-- n50&#45;&gt;n48 -->
<g id="edge23" class="edge">
<title>n50&#45;&gt;n48</title>
<path fill="none" stroke="black" d="M468.36,-215.7C464.17,-207.98 459.14,-198.71 454.47,-190.11"/>
<polygon fill="black" stroke="black" points="457.6,-188.55 449.76,-181.43 451.45,-191.89 457.6,-188.55"/>
</g>
<!-- n49 -->
<g id="node25" class="node">
<title>n49</title>
<polygon fill="none" stroke="black" points="543.75,-180 489.75,-180 489.75,-144 543.75,-144 543.75,-180"/>
<text text-anchor="middle" x="516.75" y="-156.95" font-family="Times New Roman,serif" font-size="14.00">1</text>
<text text-anchor="middle" x="471.38" y="-183.2" font-family="Times New Roman,serif" font-size="14.00">(49)int</text>
</g>
<!-- n50&#45;&gt;n49 -->
<g id="edge24" class="edge">
<title>n50&#45;&gt;n49</title>
<path fill="none" stroke="black" d="M487.39,-215.7C491.69,-207.98 496.85,-198.71 501.64,-190.11"/>
<polygon fill="black" stroke="black" points="504.67,-191.87 506.48,-181.43 498.56,-188.46 504.67,-191.87"/>
</g>
<!-- n52 -->
<g id="node26" class="node">
<title>n52</title>
<polygon fill="none" stroke="black" points="693.25,-180 626.25,-180 626.25,-144 693.25,-144 693.25,-180"/>
<text text-anchor="middle" x="659.75" y="-156.95" font-family="Times New Roman,serif" font-size="14.00">self.datas</text>
<text text-anchor="middle" x="600" y="-183.2" font-family="Times New Roman,serif" font-size="14.00">(52)int[5]</text>
</g>
<!-- n54&#45;&gt;n52 -->
<g id="edge25" class="edge">
<title>n54&#45;&gt;n52</title>
<path fill="none" stroke="black" d="M679.32,-215.7C676.52,-208.15 673.17,-199.12 670.03,-190.68"/>
<polygon fill="black" stroke="black" points="673.39,-189.68 666.63,-181.52 666.83,-192.12 673.39,-189.68"/>
</g>
<!-- n53 -->
<g id="node27" class="node">
<title>n53</title>
<polygon fill="none" stroke="black" points="765.75,-180 711.75,-180 711.75,-144 765.75,-144 765.75,-180"/>
<text text-anchor="middle" x="738.75" y="-156.95" font-family="Times New Roman,serif" font-size="14.00">1</text>
<text text-anchor="middle" x="693.38" y="-183.2" font-family="Times New Roman,serif" font-size="14.00">(53)int</text>
</g>
<!-- n54&#45;&gt;n53 -->
<g id="edge26" class="edge">
<title>n54&#45;&gt;n53</title>
<path fill="none" stroke="black" d="M698.85,-215.7C704.88,-207.73 712.17,-198.1 718.86,-189.26"/>
<polygon fill="black" stroke="black" points="721.64,-191.4 724.89,-181.31 716.06,-187.17 721.64,-191.4"/>
</g>
<!-- n59 -->
<g id="node28" class="node">
<title>n59</title>
<polygon fill="none" stroke="black" points="972.12,-180 907.38,-180 907.38,-144 972.12,-144 972.12,-180"/>
<text text-anchor="middle" x="939.75" y="-156.95" font-family="Times New Roman,serif" font-size="14.00">arg.datas</text>
<text text-anchor="middle" x="881.12" y="-183.2" font-family="Times New Roman,serif" font-size="14.00">(59)int[5]</text>
</g>
<!-- n61&#45;&gt;n59 -->
<g id="edge27" class="edge">
<title>n61&#45;&gt;n59</title>
<path fill="none" stroke="black" d="M972.12,-215.7C967.33,-207.9 961.56,-198.51 956.23,-189.83"/>
<polygon fill="black" stroke="black" points="959.27,-188.08 951.05,-181.39 953.3,-191.75 959.27,-188.08"/>
</g>
<!-- n60 -->
<g id="node29" class="node">
<title>n60</title>
<polygon fill="none" stroke="black" points="1043.75,-180 989.75,-180 989.75,-144 1043.75,-144 1043.75,-180"/>
<text text-anchor="middle" x="1016.75" y="-156.95" font-family="Times New Roman,serif" font-size="14.00">1</text>
<text text-anchor="middle" x="971.38" y="-183.2" font-family="Times New Roman,serif" font-size="14.00">(60)int</text>
</g>
<!-- n61&#45;&gt;n60 -->
<g id="edge28" class="edge">
<title>n61&#45;&gt;n60</title>
<path fill="none" stroke="black" d="M991.15,-215.7C994.86,-208.07 999.31,-198.92 1003.44,-190.4"/>
<polygon fill="black" stroke="black" points="1006.56,-191.99 1007.78,-181.47 1000.26,-188.93 1006.56,-191.99"/>
</g>
<!-- n64 -->
<g id="node30" class="node">
<title>n64</title>
<polygon fill="none" stroke="black" points="1169.75,-180 1115.75,-180 1115.75,-144 1169.75,-144 1169.75,-180"/>
<text text-anchor="middle" x="1142.75" y="-156.95" font-family="Times New Roman,serif" font-size="14.00">1</text>
<text text-anchor="middle" x="1097.38" y="-183.2" font-family="Times New Roman,serif" font-size="14.00">(64)int</text>
</g>
<!-- n66&#45;&gt;n64 -->
<g id="edge29" class="edge">
<title>n66&#45;&gt;n64</title>
<path fill="none" stroke="black" d="M1182.65,-215.7C1176.62,-207.73 1169.33,-198.1 1162.64,-189.26"/>
<polygon fill="black" stroke="black" points="1165.44,-187.17 1156.61,-181.31 1159.86,-191.4 1165.44,-187.17"/>
</g>
<!-- n65 -->
<g id="node31" class="node">
<title>n65</title>
<polygon fill="none" stroke="black" points="1241.75,-180 1187.75,-180 1187.75,-144 1241.75,-144 1241.75,-180"/>
<text text-anchor="middle" x="1214.75" y="-156.95" font-family="Times New Roman,serif" font-size="14.00">dim1</text>
<text text-anchor="middle" x="1169.38" y="-183.2" font-family="Times New Roman,serif" font-size="14.00">(65)int</text>
</g>
<!-- n66&#45;&gt;n65 -->
<g id="edge30" class="edge">
<title>n66&#45;&gt;n65</title>
<path fill="none" stroke="black" d="M1200.45,-215.7C1202.47,-208.24 1204.89,-199.32 1207.16,-190.97"/>
<polygon fill="black" stroke="black" points="1210.47,-192.13 1209.71,-181.57 1203.71,-190.3 1210.47,-192.13"/>
</g>
<!-- n69 -->
<g id="node32" class="node">
<title>n69</title>
<polygon fill="none" stroke="black" points="1368.88,-180 1278.62,-180 1278.62,-144 1368.88,-144 1368.88,-180"/>
<text text-anchor="middle" x="1323.75" y="-156.95" font-family="Times New Roman,serif" font-size="14.00">acc : Boolean</text>
<text text-anchor="middle" x="1244.88" y="-183.2" font-family="Times New Roman,serif" font-size="14.00">(69)Boolean</text>
</g>
<!-- n70&#45;&gt;n69 -->
<g id="edge31" class="edge">
<title>n70&#45;&gt;n69</title>
<path fill="none" stroke="black" d="M1391.5,-215.7C1380.47,-207.11 1366.96,-196.61 1354.91,-187.24"/>
<polygon fill="black" stroke="black" points="1357.29,-184.65 1347.25,-181.28 1352.99,-190.18 1357.29,-184.65"/>
</g>
<!-- n68 -->
<g id="node33" class="node">
<title>n68</title>
<polygon fill="none" stroke="black" points="1440.75,-180 1386.75,-180 1386.75,-144 1440.75,-144 1440.75,-180"/>
<text text-anchor="middle" x="1413.75" y="-156.95" font-family="Times New Roman,serif" font-size="14.00">true</text>
<text text-anchor="middle" x="1353" y="-183.2" font-family="Times New Roman,serif" font-size="14.00">(68)Boolean</text>
</g>
<!-- n70&#45;&gt;n68 -->
<g id="edge32" class="edge">
<title>n70&#45;&gt;n68</title>
<path fill="none" stroke="black" d="M1413.75,-215.7C1413.75,-208.41 1413.75,-199.73 1413.75,-191.54"/>
<polygon fill="black" stroke="black" points="1417.25,-191.62 1413.75,-181.62 1410.25,-191.62 1417.25,-191.62"/>
</g>
<!-- n73 -->
<g id="node34" class="node">
<title>n73</title>
<polygon fill="none" stroke="black" points="1552.75,-180 1458.75,-180 1458.75,-144 1552.75,-144 1552.75,-180"/>
<text text-anchor="middle" x="1505.75" y="-156.95" font-family="Times New Roman,serif" font-size="14.00">result.datas[it]</text>
<text text-anchor="middle" x="1440.38" y="-183.2" font-family="Times New Roman,serif" font-size="14.00">(73)int</text>
</g>
<!-- n81&#45;&gt;n73 -->
<g id="edge33" class="edge">
<title>n81&#45;&gt;n73</title>
<path fill="none" stroke="black" d="M1505.75,-215.7C1505.75,-208.41 1505.75,-199.73 1505.75,-191.54"/>
<polygon fill="black" stroke="black" points="1509.25,-191.62 1505.75,-181.62 1502.25,-191.62 1509.25,-191.62"/>
</g>
<!-- n80 -->
<g id="node35" class="node">
<title>n80</title>
<polygon fill="none" stroke="black" points="1624.75,-180 1570.75,-180 1570.75,-144 1624.75,-144 1624.75,-180"/>
<text text-anchor="middle" x="1597.75" y="-156.95" font-family="Times New Roman,serif" font-size="14.00">&#45;</text>
<text text-anchor="middle" x="1552.38" y="-183.2" font-family="Times New Roman,serif" font-size="14.00">(80)int</text>
</g>
<!-- n81&#45;&gt;n80 -->
<g id="edge34" class="edge">
<title>n81&#45;&gt;n80</title>
<path fill="none" stroke="black" d="M1528.49,-215.7C1539.77,-207.11 1553.58,-196.61 1565.89,-187.24"/>
<polygon fill="black" stroke="black" points="1567.91,-190.1 1573.75,-181.26 1563.67,-184.53 1567.91,-190.1"/>
</g>
<!-- n40 -->
<g id="node36" class="node">
<title>n40</title>
<polygon fill="none" stroke="black" points="140.75,-108 86.75,-108 86.75,-72 140.75,-72 140.75,-108"/>
<text text-anchor="middle" x="113.75" y="-84.95" font-family="Times New Roman,serif" font-size="14.00">arg</text>
<text text-anchor="middle" x="59.75" y="-111.2" font-family="Times New Roman,serif" font-size="14.00">(40)Array</text>
</g>
<!-- n41&#45;&gt;n40 -->
<g id="edge35" class="edge">
<title>n41&#45;&gt;n40</title>
<path fill="none" stroke="black" d="M113.75,-143.7C113.75,-136.41 113.75,-127.73 113.75,-119.54"/>
<polygon fill="black" stroke="black" points="117.25,-119.62 113.75,-109.62 110.25,-119.62 117.25,-119.62"/>
</g>
<!-- n43 -->
<g id="node37" class="node">
<title>n43</title>
<polygon fill="none" stroke="black" points="313.75,-108 259.75,-108 259.75,-72 313.75,-72 313.75,-108"/>
<text text-anchor="middle" x="286.75" y="-84.95" font-family="Times New Roman,serif" font-size="14.00">self</text>
<text text-anchor="middle" x="232.75" y="-111.2" font-family="Times New Roman,serif" font-size="14.00">(43)Array</text>
</g>
<!-- n44&#45;&gt;n43 -->
<g id="edge36" class="edge">
<title>n44&#45;&gt;n43</title>
<path fill="none" stroke="black" d="M286.75,-143.7C286.75,-136.41 286.75,-127.73 286.75,-119.54"/>
<polygon fill="black" stroke="black" points="290.25,-119.62 286.75,-109.62 283.25,-119.62 290.25,-119.62"/>
</g>
<!-- n47 -->
<g id="node38" class="node">
<title>n47</title>
<polygon fill="none" stroke="black" points="466.75,-108 412.75,-108 412.75,-72 466.75,-72 466.75,-108"/>
<text text-anchor="middle" x="439.75" y="-84.95" font-family="Times New Roman,serif" font-size="14.00">arg</text>
<text text-anchor="middle" x="385.75" y="-111.2" font-family="Times New Roman,serif" font-size="14.00">(47)Array</text>
</g>
<!-- n48&#45;&gt;n47 -->
<g id="edge37" class="edge">
<title>n48&#45;&gt;n47</title>
<path fill="none" stroke="black" d="M439.75,-143.7C439.75,-136.41 439.75,-127.73 439.75,-119.54"/>
<polygon fill="black" stroke="black" points="443.25,-119.62 439.75,-109.62 436.25,-119.62 443.25,-119.62"/>
</g>
<!-- n51 -->
<g id="node39" class="node">
<title>n51</title>
<polygon fill="none" stroke="black" points="686.75,-108 632.75,-108 632.75,-72 686.75,-72 686.75,-108"/>
<text text-anchor="middle" x="659.75" y="-84.95" font-family="Times New Roman,serif" font-size="14.00">self</text>
<text text-anchor="middle" x="605.75" y="-111.2" font-family="Times New Roman,serif" font-size="14.00">(51)Array</text>
</g>
<!-- n52&#45;&gt;n51 -->
<g id="edge38" class="edge">
<title>n52&#45;&gt;n51</title>
<path fill="none" stroke="black" d="M659.75,-143.7C659.75,-136.41 659.75,-127.73 659.75,-119.54"/>
<polygon fill="black" stroke="black" points="663.25,-119.62 659.75,-109.62 656.25,-119.62 663.25,-119.62"/>
</g>
<!-- n58 -->
<g id="node40" class="node">
<title>n58</title>
<polygon fill="none" stroke="black" points="966.75,-108 912.75,-108 912.75,-72 966.75,-72 966.75,-108"/>
<text text-anchor="middle" x="939.75" y="-84.95" font-family="Times New Roman,serif" font-size="14.00">arg</text>
<text text-anchor="middle" x="885.75" y="-111.2" font-family="Times New Roman,serif" font-size="14.00">(58)Array</text>
</g>
<!-- n59&#45;&gt;n58 -->
<g id="edge39" class="edge">
<title>n59&#45;&gt;n58</title>
<path fill="none" stroke="black" d="M939.75,-143.7C939.75,-136.41 939.75,-127.73 939.75,-119.54"/>
<polygon fill="black" stroke="black" points="943.25,-119.62 939.75,-109.62 936.25,-119.62 943.25,-119.62"/>
</g>
<!-- n71 -->
<g id="node41" class="node">
<title>n71</title>
<polygon fill="none" stroke="black" points="1461.75,-108 1407.75,-108 1407.75,-72 1461.75,-72 1461.75,-108"/>
<text text-anchor="middle" x="1434.75" y="-84.95" font-family="Times New Roman,serif" font-size="14.00">result</text>
<text text-anchor="middle" x="1380.75" y="-111.2" font-family="Times New Roman,serif" font-size="14.00">(71)Array</text>
</g>
<!-- n73&#45;&gt;n71 -->
<g id="edge40" class="edge">
<title>n73&#45;&gt;n71</title>
<path fill="none" stroke="black" d="M1488.2,-143.7C1479.77,-135.39 1469.52,-125.28 1460.25,-116.14"/>
<polygon fill="black" stroke="black" points="1462.75,-113.7 1453.18,-109.17 1457.84,-118.68 1462.75,-113.7"/>
</g>
<!-- n72 -->
<g id="node42" class="node">
<title>n72</title>
<polygon fill="none" stroke="black" points="1533.75,-108 1479.75,-108 1479.75,-72 1533.75,-72 1533.75,-108"/>
<text text-anchor="middle" x="1506.75" y="-84.95" font-family="Times New Roman,serif" font-size="14.00">it</text>
<text text-anchor="middle" x="1461.38" y="-111.2" font-family="Times New Roman,serif" font-size="14.00">(72)int</text>
</g>
<!-- n73&#45;&gt;n72 -->
<g id="edge41" class="edge">
<title>n73&#45;&gt;n72</title>
<path fill="none" stroke="black" d="M1506,-143.7C1506.1,-136.41 1506.23,-127.73 1506.34,-119.54"/>
<polygon fill="black" stroke="black" points="1509.84,-119.67 1506.48,-109.62 1502.84,-119.57 1509.84,-119.67"/>
</g>
<!-- n76 -->
<g id="node43" class="node">
<title>n76</title>
<polygon fill="none" stroke="black" points="1637.5,-108 1554,-108 1554,-72 1637.5,-72 1637.5,-108"/>
<text text-anchor="middle" x="1595.75" y="-84.95" font-family="Times New Roman,serif" font-size="14.00">self.datas[it]</text>
<text text-anchor="middle" x="1535.62" y="-111.2" font-family="Times New Roman,serif" font-size="14.00">(76)int</text>
</g>
<!-- n80&#45;&gt;n76 -->
<g id="edge42" class="edge">
<title>n80&#45;&gt;n76</title>
<path fill="none" stroke="black" d="M1597.26,-143.7C1597.05,-136.41 1596.8,-127.73 1596.57,-119.54"/>
<polygon fill="black" stroke="black" points="1600.07,-119.51 1596.28,-109.62 1593.07,-119.71 1600.07,-119.51"/>
</g>
<!-- n79 -->
<g id="node44" class="node">
<title>n79</title>
<polygon fill="none" stroke="black" points="1736.38,-108 1655.12,-108 1655.12,-72 1736.38,-72 1736.38,-108"/>
<text text-anchor="middle" x="1695.75" y="-84.95" font-family="Times New Roman,serif" font-size="14.00">arg.datas[it]</text>
<text text-anchor="middle" x="1636.75" y="-111.2" font-family="Times New Roman,serif" font-size="14.00">(79)int</text>
</g>
<!-- n80&#45;&gt;n79 -->
<g id="edge43" class="edge">
<title>n80&#45;&gt;n79</title>
<path fill="none" stroke="black" d="M1622.23,-143.52C1634.36,-134.85 1649.2,-124.25 1662.36,-114.85"/>
<polygon fill="black" stroke="black" points="1664.25,-117.8 1670.35,-109.14 1660.18,-112.1 1664.25,-117.8"/>
</g>
<!-- n74 -->
<g id="node45" class="node">
<title>n74</title>
<polygon fill="none" stroke="black" points="1557.75,-36 1503.75,-36 1503.75,0 1557.75,0 1557.75,-36"/>
<text text-anchor="middle" x="1530.75" y="-12.95" font-family="Times New Roman,serif" font-size="14.00">self</text>
<text text-anchor="middle" x="1476.75" y="-39.2" font-family="Times New Roman,serif" font-size="14.00">(74)Array</text>
</g>
<!-- n76&#45;&gt;n74 -->
<g id="edge44" class="edge">
<title>n76&#45;&gt;n74</title>
<path fill="none" stroke="black" d="M1579.68,-71.7C1572.05,-63.47 1562.77,-53.48 1554.35,-44.42"/>
<polygon fill="black" stroke="black" points="1557.03,-42.16 1547.66,-37.21 1551.9,-46.92 1557.03,-42.16"/>
</g>
<!-- n75 -->
<g id="node46" class="node">
<title>n75</title>
<polygon fill="none" stroke="black" points="1629.75,-36 1575.75,-36 1575.75,0 1629.75,0 1629.75,-36"/>
<text text-anchor="middle" x="1602.75" y="-12.95" font-family="Times New Roman,serif" font-size="14.00">it</text>
<text text-anchor="middle" x="1557.38" y="-39.2" font-family="Times New Roman,serif" font-size="14.00">(75)int</text>
</g>
<!-- n76&#45;&gt;n75 -->
<g id="edge45" class="edge">
<title>n76&#45;&gt;n75</title>
<path fill="none" stroke="black" d="M1597.48,-71.7C1598.21,-64.41 1599.08,-55.73 1599.9,-47.54"/>
<polygon fill="black" stroke="black" points="1603.38,-47.91 1600.89,-37.61 1596.41,-47.21 1603.38,-47.91"/>
</g>
<!-- n77 -->
<g id="node47" class="node">
<title>n77</title>
<polygon fill="none" stroke="black" points="1715.75,-36 1661.75,-36 1661.75,0 1715.75,0 1715.75,-36"/>
<text text-anchor="middle" x="1688.75" y="-12.95" font-family="Times New Roman,serif" font-size="14.00">arg</text>
<text text-anchor="middle" x="1634.75" y="-39.2" font-family="Times New Roman,serif" font-size="14.00">(77)Array</text>
</g>
<!-- n79&#45;&gt;n77 -->
<g id="edge46" class="edge">
<title>n79&#45;&gt;n77</title>
<path fill="none" stroke="black" d="M1694.02,-71.7C1693.29,-64.41 1692.42,-55.73 1691.6,-47.54"/>
<polygon fill="black" stroke="black" points="1695.09,-47.21 1690.61,-37.61 1688.12,-47.91 1695.09,-47.21"/>
</g>
<!-- n78 -->
<g id="node48" class="node">
<title>n78</title>
<polygon fill="none" stroke="black" points="1787.75,-36 1733.75,-36 1733.75,0 1787.75,0 1787.75,-36"/>
<text text-anchor="middle" x="1760.75" y="-12.95" font-family="Times New Roman,serif" font-size="14.00">it</text>
<text text-anchor="middle" x="1715.38" y="-39.2" font-family="Times New Roman,serif" font-size="14.00">(78)int</text>
</g>
<!-- n79&#45;&gt;n78 -->
<g id="edge47" class="edge">
<title>n79&#45;&gt;n78</title>
<path fill="none" stroke="black" d="M1711.82,-71.7C1719.45,-63.47 1728.73,-53.48 1737.15,-44.42"/>
<polygon fill="black" stroke="black" points="1739.6,-46.92 1743.84,-37.21 1734.47,-42.16 1739.6,-46.92"/>
</g>
</g>
</svg>
