<?xml version="1.0" encoding="UTF-8" standalone="no"?>
<!DOCTYPE svg PUBLIC "-//W3C//DTD SVG 1.1//EN"
 "http://www.w3.org/Graphics/SVG/1.1/DTD/svg11.dtd">
<!-- Generated by graphviz version 12.2.1 (20241206.2353)
 -->
<!-- Title: AST Pages: 1 -->
<svg width="471pt" height="349pt"
 viewBox="0.00 0.00 470.62 348.50" xmlns="http://www.w3.org/2000/svg" xmlns:xlink="http://www.w3.org/1999/xlink">
<g id="graph0" class="graph" transform="scale(1 1) rotate(0) translate(4 344.5)">
<title>AST</title>
<polygon fill="white" stroke="none" points="-4,4 -4,-344.5 466.62,-344.5 466.62,4 -4,4"/>
<!-- n165 -->
<g id="node1" class="node">
<title>n165</title>
<polygon fill="none" stroke="black" points="421,-324 160.5,-324 160.5,-288 421,-288 421,-324"/>
<text text-anchor="middle" x="290.75" y="-300.95" font-family="Times New Roman,serif" font-size="14.00">ContextDecl: node(159) Context: node (164)</text>
<text text-anchor="middle" x="145.88" y="-327.2" font-family="Times New Roman,serif" font-size="14.00">(165)</text>
</g>
<!-- n159 -->
<g id="node2" class="node">
<title>n159</title>
<polygon fill="none" stroke="black" points="348.25,-252 29.25,-252 29.25,-216 348.25,-216 348.25,-252"/>
<text text-anchor="middle" x="188.75" y="-228.95" font-family="Times New Roman,serif" font-size="14.00">ThreeDimVarArray::getData() : int[dim1][dim2][dim3]</text>
<text text-anchor="middle" x="14.62" y="-255.2" font-family="Times New Roman,serif" font-size="14.00">(159)</text>
</g>
<!-- n165&#45;&gt;n159 -->
<g id="edge1" class="edge">
<title>n165&#45;&gt;n159</title>
<path fill="none" stroke="black" d="M265.27,-287.52C252.52,-278.76 236.9,-268.04 223.1,-258.58"/>
<polygon fill="black" stroke="black" points="225.37,-255.89 215.15,-253.12 221.41,-261.66 225.37,-255.89"/>
</g>
<!-- n164 -->
<g id="node3" class="node">
<title>n164</title>
<polygon fill="none" stroke="black" points="420.75,-252 366.75,-252 366.75,-216 420.75,-216 420.75,-252"/>
<text text-anchor="middle" x="393.75" y="-228.95" font-family="Times New Roman,serif" font-size="14.00"> post:</text>
<text text-anchor="middle" x="329.62" y="-255.2" font-family="Times New Roman,serif" font-size="14.00">(164)Boolean</text>
</g>
<!-- n165&#45;&gt;n164 -->
<g id="edge2" class="edge">
<title>n165&#45;&gt;n164</title>
<path fill="none" stroke="black" d="M316.48,-287.52C329.35,-278.76 345.13,-268.04 359.06,-258.58"/>
<polygon fill="black" stroke="black" points="360.8,-261.63 367.1,-253.11 356.86,-255.84 360.8,-261.63"/>
</g>
<!-- n163 -->
<g id="node4" class="node">
<title>n163</title>
<polygon fill="none" stroke="black" points="420.75,-180 366.75,-180 366.75,-144 420.75,-144 420.75,-180"/>
<text text-anchor="middle" x="393.75" y="-156.95" font-family="Times New Roman,serif" font-size="14.00">=</text>
<text text-anchor="middle" x="329.62" y="-183.2" font-family="Times New Roman,serif" font-size="14.00">(163)Boolean</text>
</g>
<!-- n164&#45;&gt;n163 -->
<g id="edge3" class="edge">
<title>n164&#45;&gt;n163</title>
<path fill="none" stroke="black" d="M393.75,-215.7C393.75,-208.41 393.75,-199.73 393.75,-191.54"/>
<polygon fill="black" stroke="black" points="397.25,-191.62 393.75,-181.62 390.25,-191.62 397.25,-191.62"/>
</g>
<!-- n160 -->
<g id="node5" class="node">
<title>n160</title>
<polygon fill="none" stroke="black" points="382.75,-108 328.75,-108 328.75,-72 382.75,-72 382.75,-108"/>
<text text-anchor="middle" x="355.75" y="-84.95" font-family="Times New Roman,serif" font-size="14.00">result</text>
<text text-anchor="middle" x="250.75" y="-111.2" font-family="Times New Roman,serif" font-size="14.00">(160)int[dim1][dim2][dim3]</text>
</g>
<!-- n163&#45;&gt;n160 -->
<g id="edge4" class="edge">
<title>n163&#45;&gt;n160</title>
<path fill="none" stroke="black" d="M384.36,-143.7C380.17,-135.98 375.14,-126.71 370.47,-118.11"/>
<polygon fill="black" stroke="black" points="373.6,-116.55 365.76,-109.43 367.45,-119.89 373.6,-116.55"/>
</g>
<!-- n162 -->
<g id="node6" class="node">
<title>n162</title>
<polygon fill="none" stroke="black" points="462.62,-108 400.88,-108 400.88,-72 462.62,-72 462.62,-108"/>
<text text-anchor="middle" x="431.75" y="-84.95" font-family="Times New Roman,serif" font-size="14.00">self.data</text>
<text text-anchor="middle" x="322.88" y="-58.7" font-family="Times New Roman,serif" font-size="14.00">(162)int[dim1][dim2][dim3]</text>
</g>
<!-- n163&#45;&gt;n162 -->
<g id="edge5" class="edge">
<title>n163&#45;&gt;n162</title>
<path fill="none" stroke="black" d="M403.14,-143.7C407.33,-135.98 412.36,-126.71 417.03,-118.11"/>
<polygon fill="black" stroke="black" points="420.05,-119.89 421.74,-109.43 413.9,-116.55 420.05,-119.89"/>
</g>
<!-- n161 -->
<g id="node7" class="node">
<title>n161</title>
<polygon fill="none" stroke="black" points="458.75,-36 404.75,-36 404.75,0 458.75,0 458.75,-36"/>
<text text-anchor="middle" x="431.75" y="-12.95" font-family="Times New Roman,serif" font-size="14.00">self</text>
<text text-anchor="middle" x="336.88" y="-39.2" font-family="Times New Roman,serif" font-size="14.00">(161)ThreeDimVarArray</text>
</g>
<!-- n162&#45;&gt;n161 -->
<g id="edge6" class="edge">
<title>n162&#45;&gt;n161</title>
<path fill="none" stroke="black" d="M431.75,-71.7C431.75,-64.41 431.75,-55.73 431.75,-47.54"/>
<polygon fill="black" stroke="black" points="435.25,-47.62 431.75,-37.62 428.25,-47.62 435.25,-47.62"/>
</g>
</g>
</svg>
