<?xml version="1.0" encoding="UTF-8" standalone="no"?>
<!DOCTYPE svg PUBLIC "-//W3C//DTD SVG 1.1//EN"
 "http://www.w3.org/Graphics/SVG/1.1/DTD/svg11.dtd">
<!-- Generated by graphviz version 12.2.1 (20241206.2353)
 -->
<!-- Title: AST Pages: 1 -->
<svg width="1772pt" height="591pt"
 viewBox="0.00 0.00 1772.12 591.00" xmlns="http://www.w3.org/2000/svg" xmlns:xlink="http://www.w3.org/1999/xlink">
<g id="graph0" class="graph" transform="scale(1 1) rotate(0) translate(4 587)">
<title>AST</title>
<polygon fill="white" stroke="none" points="-4,4 -4,-587 1768.12,-587 1768.12,4 -4,4"/>
<!-- n137 -->
<g id="node1" class="node">
<title>n137</title>
<polygon fill="none" stroke="black" points="766.38,-566.5 445.88,-566.5 445.88,-530.5 766.38,-530.5 766.38,-566.5"/>
<text text-anchor="middle" x="606.12" y="-543.45" font-family="Times New Roman,serif" font-size="14.00">ContextDecl: node(91) Context: node (109), node (136)</text>
<text text-anchor="middle" x="431.25" y="-569.7" font-family="Times New Roman,serif" font-size="14.00">(137)</text>
</g>
<!-- n91 -->
<g id="node2" class="node">
<title>n91</title>
<polygon fill="none" stroke="black" points="508.5,-494.5 293.75,-494.5 293.75,-458.5 508.5,-458.5 508.5,-494.5"/>
<text text-anchor="middle" x="401.12" y="-471.45" font-family="Times New Roman,serif" font-size="14.00">VarArray::sub(node (90)) : VarArray</text>
<text text-anchor="middle" x="282.5" y="-497.7" font-family="Times New Roman,serif" font-size="14.00">(91)</text>
</g>
<!-- n137&#45;&gt;n91 -->
<g id="edge1" class="edge">
<title>n137&#45;&gt;n91</title>
<path fill="none" stroke="black" d="M554.92,-530.02C526.93,-520.46 492.07,-508.55 462.61,-498.5"/>
<polygon fill="black" stroke="black" points="464.06,-495.29 453.46,-495.37 461.79,-501.91 464.06,-495.29"/>
</g>
<!-- n109 -->
<g id="node3" class="node">
<title>n109</title>
<polygon fill="none" stroke="black" points="685.38,-494.5 526.88,-494.5 526.88,-458.5 685.38,-458.5 685.38,-494.5"/>
<text text-anchor="middle" x="606.12" y="-471.45" font-family="Times New Roman,serif" font-size="14.00">IllegalDimensionSize pre:</text>
<text text-anchor="middle" x="489.75" y="-497.7" font-family="Times New Roman,serif" font-size="14.00">(109)Boolean</text>
</g>
<!-- n137&#45;&gt;n109 -->
<g id="edge2" class="edge">
<title>n137&#45;&gt;n109</title>
<path fill="none" stroke="black" d="M606.12,-530.2C606.12,-522.91 606.12,-514.23 606.12,-506.04"/>
<polygon fill="black" stroke="black" points="609.63,-506.12 606.13,-496.12 602.63,-506.12 609.63,-506.12"/>
</g>
<!-- n136 -->
<g id="node4" class="node">
<title>n136</title>
<polygon fill="none" stroke="black" points="871.12,-494.5 817.12,-494.5 817.12,-458.5 871.12,-458.5 871.12,-494.5"/>
<text text-anchor="middle" x="844.12" y="-471.45" font-family="Times New Roman,serif" font-size="14.00"> post:</text>
<text text-anchor="middle" x="780" y="-497.7" font-family="Times New Roman,serif" font-size="14.00">(136)Boolean</text>
</g>
<!-- n137&#45;&gt;n136 -->
<g id="edge3" class="edge">
<title>n137&#45;&gt;n136</title>
<path fill="none" stroke="black" d="M665.57,-530.02C709.68,-517.04 768.5,-499.74 806.35,-488.61"/>
<polygon fill="black" stroke="black" points="806.85,-492.11 815.46,-485.93 804.88,-485.4 806.85,-492.11"/>
</g>
<!-- n90 -->
<g id="node5" class="node">
<title>n90</title>
<polygon fill="none" stroke="black" points="448.12,-420 354.12,-420 354.12,-384 448.12,-384 448.12,-420"/>
<text text-anchor="middle" x="401.12" y="-396.95" font-family="Times New Roman,serif" font-size="14.00">arg : VarArray</text>
<text text-anchor="middle" x="317.75" y="-423.2" font-family="Times New Roman,serif" font-size="14.00">(90)VarArray</text>
</g>
<!-- n91&#45;&gt;n90 -->
<g id="edge4" class="edge">
<title>n91&#45;&gt;n90</title>
<path fill="none" stroke="black" d="M401.12,-458.32C401.12,-450.28 401.12,-440.5 401.12,-431.41"/>
<polygon fill="black" stroke="black" points="404.63,-431.57 401.13,-421.57 397.63,-431.57 404.63,-431.57"/>
</g>
<!-- n108 -->
<g id="node6" class="node">
<title>n108</title>
<polygon fill="none" stroke="black" points="576.12,-420 522.12,-420 522.12,-384 576.12,-384 576.12,-420"/>
<text text-anchor="middle" x="549.12" y="-396.95" font-family="Times New Roman,serif" font-size="14.00">and</text>
<text text-anchor="middle" x="485" y="-423.2" font-family="Times New Roman,serif" font-size="14.00">(108)Boolean</text>
</g>
<!-- n109&#45;&gt;n108 -->
<g id="edge5" class="edge">
<title>n109&#45;&gt;n108</title>
<path fill="none" stroke="black" d="M592.62,-458.32C585.73,-449.56 577.21,-438.73 569.55,-428.97"/>
<polygon fill="black" stroke="black" points="572.4,-426.95 563.47,-421.25 566.9,-431.27 572.4,-426.95"/>
</g>
<!-- n135 -->
<g id="node7" class="node">
<title>n135</title>
<polygon fill="none" stroke="black" points="1001,-422.5 771.25,-422.5 771.25,-381.5 1001,-381.5 1001,-422.5"/>
<text text-anchor="middle" x="886.12" y="-405.2" font-family="Times New Roman,serif" font-size="14.00">LetExp </text>
<text text-anchor="middle" x="886.12" y="-388.7" font-family="Times New Roman,serif" font-size="14.00">Let node(115), node(134) in node(134)</text>
<text text-anchor="middle" x="734.12" y="-425.7" font-family="Times New Roman,serif" font-size="14.00">(135)Boolean</text>
</g>
<!-- n136&#45;&gt;n135 -->
<g id="edge6" class="edge">
<title>n136&#45;&gt;n135</title>
<path fill="none" stroke="black" d="M854.08,-458.32C858.51,-450.67 863.85,-441.45 868.9,-432.74"/>
<polygon fill="black" stroke="black" points="871.86,-434.6 873.85,-424.19 865.81,-431.09 871.86,-434.6"/>
</g>
<!-- n98 -->
<g id="node8" class="node">
<title>n98</title>
<polygon fill="none" stroke="black" points="306.12,-334.75 252.12,-334.75 252.12,-298.75 306.12,-298.75 306.12,-334.75"/>
<text text-anchor="middle" x="279.12" y="-311.7" font-family="Times New Roman,serif" font-size="14.00">=</text>
<text text-anchor="middle" x="218.38" y="-337.95" font-family="Times New Roman,serif" font-size="14.00">(98)Boolean</text>
</g>
<!-- n108&#45;&gt;n98 -->
<g id="edge7" class="edge">
<title>n108&#45;&gt;n98</title>
<path fill="none" stroke="black" d="M521.75,-392.56C473.34,-377.63 372.52,-346.55 317.3,-329.52"/>
<polygon fill="black" stroke="black" points="318.61,-326.26 308.02,-326.66 316.54,-332.95 318.61,-326.26"/>
</g>
<!-- n107 -->
<g id="node9" class="node">
<title>n107</title>
<polygon fill="none" stroke="black" points="576.12,-334.75 522.12,-334.75 522.12,-298.75 576.12,-298.75 576.12,-334.75"/>
<text text-anchor="middle" x="549.12" y="-311.7" font-family="Times New Roman,serif" font-size="14.00">=</text>
<text text-anchor="middle" x="485" y="-337.95" font-family="Times New Roman,serif" font-size="14.00">(107)Boolean</text>
</g>
<!-- n108&#45;&gt;n107 -->
<g id="edge8" class="edge">
<title>n108&#45;&gt;n107</title>
<path fill="none" stroke="black" d="M549.12,-383.75C549.12,-372.92 549.12,-358.7 549.12,-346.23"/>
<polygon fill="black" stroke="black" points="552.63,-346.49 549.13,-336.49 545.63,-346.49 552.63,-346.49"/>
</g>
<!-- n115 -->
<g id="node10" class="node">
<title>n115</title>
<polygon fill="none" stroke="black" points="913.12,-334.75 859.12,-334.75 859.12,-298.75 913.12,-298.75 913.12,-334.75"/>
<text text-anchor="middle" x="886.12" y="-311.7" font-family="Times New Roman,serif" font-size="14.00">=</text>
<text text-anchor="middle" x="822" y="-337.95" font-family="Times New Roman,serif" font-size="14.00">(115)Boolean</text>
</g>
<!-- n135&#45;&gt;n115 -->
<g id="edge9" class="edge">
<title>n135&#45;&gt;n115</title>
<path fill="none" stroke="black" d="M886.12,-381.27C886.12,-370.85 886.12,-357.87 886.12,-346.37"/>
<polygon fill="black" stroke="black" points="889.63,-346.59 886.13,-336.59 882.63,-346.59 889.63,-346.59"/>
</g>
<!-- n134 -->
<g id="node11" class="node">
<title>n134</title>
<polygon fill="none" stroke="black" points="1439.25,-345.5 1217,-345.5 1217,-288 1439.25,-288 1439.25,-345.5"/>
<text text-anchor="middle" x="1328.12" y="-328.2" font-family="Times New Roman,serif" font-size="14.00">IterateExp</text>
<text text-anchor="middle" x="1328.12" y="-311.7" font-family="Times New Roman,serif" font-size="14.00">source=node(118) Iterator=node(119)</text>
<text text-anchor="middle" x="1328.12" y="-295.2" font-family="Times New Roman,serif" font-size="14.00">Result=node(122) Body=node(133)</text>
<text text-anchor="middle" x="1179.88" y="-348.7" font-family="Times New Roman,serif" font-size="14.00">(134)Boolean</text>
</g>
<!-- n135&#45;&gt;n134 -->
<g id="edge10" class="edge">
<title>n135&#45;&gt;n134</title>
<path fill="none" stroke="black" d="M992.28,-381.01C1056.51,-368.91 1138.68,-353.43 1205.66,-340.82"/>
<polygon fill="black" stroke="black" points="1206.03,-344.31 1215.21,-339.02 1204.74,-337.43 1206.03,-344.31"/>
</g>
<!-- n94 -->
<g id="node12" class="node">
<title>n94</title>
<polygon fill="none" stroke="black" points="185.5,-252 36.75,-252 36.75,-216 185.5,-216 185.5,-252"/>
<text text-anchor="middle" x="111.12" y="-228.95" font-family="Times New Roman,serif" font-size="14.00">arg.data.getDimension()</text>
<text text-anchor="middle" x="18.38" y="-255.2" font-family="Times New Roman,serif" font-size="14.00">(94)int</text>
</g>
<!-- n98&#45;&gt;n94 -->
<g id="edge11" class="edge">
<title>n98&#45;&gt;n94</title>
<path fill="none" stroke="black" d="M251.76,-302.6C226.31,-290.36 187.87,-271.89 157.61,-257.35"/>
<polygon fill="black" stroke="black" points="159.18,-254.21 148.65,-253.04 156.15,-260.52 159.18,-254.21"/>
</g>
<!-- n97 -->
<g id="node13" class="node">
<title>n97</title>
<polygon fill="none" stroke="black" points="354.62,-252 203.62,-252 203.62,-216 354.62,-216 354.62,-252"/>
<text text-anchor="middle" x="279.12" y="-228.95" font-family="Times New Roman,serif" font-size="14.00">self.data.getDimension()</text>
<text text-anchor="middle" x="185.25" y="-255.2" font-family="Times New Roman,serif" font-size="14.00">(97)int</text>
</g>
<!-- n98&#45;&gt;n97 -->
<g id="edge12" class="edge">
<title>n98&#45;&gt;n97</title>
<path fill="none" stroke="black" d="M279.12,-298.63C279.12,-288.52 279.12,-275.48 279.12,-263.83"/>
<polygon fill="black" stroke="black" points="282.63,-263.89 279.13,-253.89 275.63,-263.89 282.63,-263.89"/>
</g>
<!-- n102 -->
<g id="node14" class="node">
<title>n102</title>
<polygon fill="none" stroke="black" points="557.12,-252 373.12,-252 373.12,-216 557.12,-216 557.12,-252"/>
<text text-anchor="middle" x="465.12" y="-228.95" font-family="Times New Roman,serif" font-size="14.00">arg.data.getDimensionSizes(1)</text>
<text text-anchor="middle" x="351.38" y="-255.2" font-family="Times New Roman,serif" font-size="14.00">(102)int</text>
</g>
<!-- n107&#45;&gt;n102 -->
<g id="edge13" class="edge">
<title>n107&#45;&gt;n102</title>
<path fill="none" stroke="black" d="M531.31,-298.63C519.7,-287.46 504.34,-272.7 491.34,-260.2"/>
<polygon fill="black" stroke="black" points="493.93,-257.83 484.29,-253.43 489.08,-262.88 493.93,-257.83"/>
</g>
<!-- n106 -->
<g id="node15" class="node">
<title>n106</title>
<polygon fill="none" stroke="black" points="761.25,-252 575,-252 575,-216 761.25,-216 761.25,-252"/>
<text text-anchor="middle" x="668.12" y="-228.95" font-family="Times New Roman,serif" font-size="14.00">self.data.getDimensionSizes(1)</text>
<text text-anchor="middle" x="553.25" y="-255.2" font-family="Times New Roman,serif" font-size="14.00">(106)int</text>
</g>
<!-- n107&#45;&gt;n106 -->
<g id="edge14" class="edge">
<title>n107&#45;&gt;n106</title>
<path fill="none" stroke="black" d="M574.65,-298.43C591.75,-286.82 614.48,-271.4 633.24,-258.67"/>
<polygon fill="black" stroke="black" points="635.08,-261.66 641.39,-253.14 631.15,-255.86 635.08,-261.66"/>
</g>
<!-- n114 -->
<g id="node16" class="node">
<title>n114</title>
<polygon fill="none" stroke="black" points="849.12,-252 779.12,-252 779.12,-216 849.12,-216 849.12,-252"/>
<text text-anchor="middle" x="814.12" y="-228.95" font-family="Times New Roman,serif" font-size="14.00">dim1 : int</text>
<text text-anchor="middle" x="757.38" y="-255.2" font-family="Times New Roman,serif" font-size="14.00">(114)int</text>
</g>
<!-- n115&#45;&gt;n114 -->
<g id="edge15" class="edge">
<title>n115&#45;&gt;n114</title>
<path fill="none" stroke="black" d="M870.86,-298.63C861.09,-287.67 848.24,-273.26 837.23,-260.92"/>
<polygon fill="black" stroke="black" points="839.9,-258.64 830.63,-253.51 834.67,-263.3 839.9,-258.64"/>
</g>
<!-- n113 -->
<g id="node17" class="node">
<title>n113</title>
<polygon fill="none" stroke="black" points="1051.12,-252 867.12,-252 867.12,-216 1051.12,-216 1051.12,-252"/>
<text text-anchor="middle" x="959.12" y="-228.95" font-family="Times New Roman,serif" font-size="14.00">arg.data.getDimensionSizes(1)</text>
<text text-anchor="middle" x="845.38" y="-255.2" font-family="Times New Roman,serif" font-size="14.00">(113)int</text>
</g>
<!-- n115&#45;&gt;n113 -->
<g id="edge16" class="edge">
<title>n115&#45;&gt;n113</title>
<path fill="none" stroke="black" d="M901.61,-298.63C911.51,-287.67 924.54,-273.26 935.69,-260.92"/>
<polygon fill="black" stroke="black" points="938.29,-263.27 942.4,-253.5 933.1,-258.57 938.29,-263.27"/>
</g>
<!-- n118 -->
<g id="node18" class="node">
<title>n118</title>
<polygon fill="none" stroke="black" points="1283.5,-252 1068.75,-252 1068.75,-216 1283.5,-216 1283.5,-252"/>
<text text-anchor="middle" x="1176.12" y="-228.95" font-family="Times New Roman,serif" font-size="14.00">Sequence{ node(116) .. node(117) }</text>
<text text-anchor="middle" x="1047" y="-255.2" font-family="Times New Roman,serif" font-size="14.00">(118)int</text>
</g>
<!-- n134&#45;&gt;n118 -->
<g id="edge17" class="edge">
<title>n134&#45;&gt;n118</title>
<path fill="none" stroke="black" d="M1274.96,-287.51C1256.5,-277.7 1236.05,-266.84 1218.57,-257.55"/>
<polygon fill="black" stroke="black" points="1220.47,-254.59 1209.99,-252.99 1217.18,-260.78 1220.47,-254.59"/>
</g>
<!-- n119 -->
<g id="node19" class="node">
<title>n119</title>
<polygon fill="none" stroke="black" points="1355.12,-252 1301.12,-252 1301.12,-216 1355.12,-216 1355.12,-252"/>
<text text-anchor="middle" x="1328.12" y="-228.95" font-family="Times New Roman,serif" font-size="14.00">it : int</text>
<text text-anchor="middle" x="1279.38" y="-255.2" font-family="Times New Roman,serif" font-size="14.00">(119)int</text>
</g>
<!-- n134&#45;&gt;n119 -->
<g id="edge18" class="edge">
<title>n134&#45;&gt;n119</title>
<path fill="none" stroke="black" d="M1328.12,-287.51C1328.12,-279.75 1328.12,-271.33 1328.12,-263.55"/>
<polygon fill="black" stroke="black" points="1331.63,-263.56 1328.13,-253.56 1324.63,-263.56 1331.63,-263.56"/>
</g>
<!-- n122 -->
<g id="node20" class="node">
<title>n122</title>
<polygon fill="none" stroke="black" points="1427.12,-252 1373.12,-252 1373.12,-216 1427.12,-216 1427.12,-252"/>
<text text-anchor="middle" x="1400.12" y="-228.95" font-family="Times New Roman,serif" font-size="14.00">=</text>
<text text-anchor="middle" x="1336" y="-202.7" font-family="Times New Roman,serif" font-size="14.00">(122)Boolean</text>
</g>
<!-- n134&#45;&gt;n122 -->
<g id="edge19" class="edge">
<title>n134&#45;&gt;n122</title>
<path fill="none" stroke="black" d="M1353.31,-287.51C1361.13,-278.73 1369.71,-269.11 1377.36,-260.53"/>
<polygon fill="black" stroke="black" points="1379.88,-262.97 1383.92,-253.17 1374.65,-258.31 1379.88,-262.97"/>
</g>
<!-- n133 -->
<g id="node21" class="node">
<title>n133</title>
<polygon fill="none" stroke="black" points="1516.12,-252 1462.12,-252 1462.12,-216 1516.12,-216 1516.12,-252"/>
<text text-anchor="middle" x="1489.12" y="-228.95" font-family="Times New Roman,serif" font-size="14.00">=</text>
<text text-anchor="middle" x="1425" y="-255.2" font-family="Times New Roman,serif" font-size="14.00">(133)Boolean</text>
</g>
<!-- n134&#45;&gt;n133 -->
<g id="edge20" class="edge">
<title>n134&#45;&gt;n133</title>
<path fill="none" stroke="black" d="M1384.43,-287.51C1406.73,-276.33 1431.74,-263.78 1451.73,-253.75"/>
<polygon fill="black" stroke="black" points="1453.26,-256.91 1460.63,-249.29 1450.12,-250.65 1453.26,-256.91"/>
</g>
<!-- n93 -->
<g id="node22" class="node">
<title>n93</title>
<polygon fill="none" stroke="black" points="140.88,-180 81.38,-180 81.38,-144 140.88,-144 140.88,-180"/>
<text text-anchor="middle" x="111.12" y="-156.95" font-family="Times New Roman,serif" font-size="14.00">arg.data</text>
<text text-anchor="middle" x="47.62" y="-183.2" font-family="Times New Roman,serif" font-size="14.00">(93)int[dim]</text>
</g>
<!-- n94&#45;&gt;n93 -->
<g id="edge21" class="edge">
<title>n94&#45;&gt;n93</title>
<path fill="none" stroke="black" d="M111.12,-215.7C111.12,-208.41 111.12,-199.73 111.12,-191.54"/>
<polygon fill="black" stroke="black" points="114.63,-191.62 111.13,-181.62 107.63,-191.62 114.63,-191.62"/>
</g>
<!-- n96 -->
<g id="node23" class="node">
<title>n96</title>
<polygon fill="none" stroke="black" points="310,-180 248.25,-180 248.25,-144 310,-144 310,-180"/>
<text text-anchor="middle" x="279.12" y="-156.95" font-family="Times New Roman,serif" font-size="14.00">self.data</text>
<text text-anchor="middle" x="214.5" y="-183.2" font-family="Times New Roman,serif" font-size="14.00">(96)int[dim]</text>
</g>
<!-- n97&#45;&gt;n96 -->
<g id="edge22" class="edge">
<title>n97&#45;&gt;n96</title>
<path fill="none" stroke="black" d="M279.12,-215.7C279.12,-208.41 279.12,-199.73 279.12,-191.54"/>
<polygon fill="black" stroke="black" points="282.63,-191.62 279.13,-181.62 275.63,-191.62 282.63,-191.62"/>
</g>
<!-- n100 -->
<g id="node24" class="node">
<title>n100</title>
<polygon fill="none" stroke="black" points="457.88,-180 398.38,-180 398.38,-144 457.88,-144 457.88,-180"/>
<text text-anchor="middle" x="428.12" y="-156.95" font-family="Times New Roman,serif" font-size="14.00">arg.data</text>
<text text-anchor="middle" x="361.25" y="-183.2" font-family="Times New Roman,serif" font-size="14.00">(100)int[dim]</text>
</g>
<!-- n102&#45;&gt;n100 -->
<g id="edge23" class="edge">
<title>n102&#45;&gt;n100</title>
<path fill="none" stroke="black" d="M455.98,-215.7C451.9,-207.98 447,-198.71 442.46,-190.11"/>
<polygon fill="black" stroke="black" points="445.64,-188.65 437.87,-181.44 439.45,-191.92 445.64,-188.65"/>
</g>
<!-- n101 -->
<g id="node25" class="node">
<title>n101</title>
<polygon fill="none" stroke="black" points="530.12,-180 476.12,-180 476.12,-144 530.12,-144 530.12,-180"/>
<text text-anchor="middle" x="503.12" y="-156.95" font-family="Times New Roman,serif" font-size="14.00">1</text>
<text text-anchor="middle" x="454.38" y="-183.2" font-family="Times New Roman,serif" font-size="14.00">(101)int</text>
</g>
<!-- n102&#45;&gt;n101 -->
<g id="edge24" class="edge">
<title>n102&#45;&gt;n101</title>
<path fill="none" stroke="black" d="M474.52,-215.7C478.71,-207.98 483.74,-198.71 488.41,-190.11"/>
<polygon fill="black" stroke="black" points="491.42,-191.89 493.12,-181.43 485.27,-188.55 491.42,-191.89"/>
</g>
<!-- n104 -->
<g id="node26" class="node">
<title>n104</title>
<polygon fill="none" stroke="black" points="673,-180 611.25,-180 611.25,-144 673,-144 673,-180"/>
<text text-anchor="middle" x="642.12" y="-156.95" font-family="Times New Roman,serif" font-size="14.00">self.data</text>
<text text-anchor="middle" x="574.12" y="-183.2" font-family="Times New Roman,serif" font-size="14.00">(104)int[dim]</text>
</g>
<!-- n106&#45;&gt;n104 -->
<g id="edge25" class="edge">
<title>n106&#45;&gt;n104</title>
<path fill="none" stroke="black" d="M661.7,-215.7C658.9,-208.15 655.54,-199.12 652.41,-190.68"/>
<polygon fill="black" stroke="black" points="655.77,-189.68 649.01,-181.52 649.21,-192.12 655.77,-189.68"/>
</g>
<!-- n105 -->
<g id="node27" class="node">
<title>n105</title>
<polygon fill="none" stroke="black" points="745.12,-180 691.12,-180 691.12,-144 745.12,-144 745.12,-180"/>
<text text-anchor="middle" x="718.12" y="-156.95" font-family="Times New Roman,serif" font-size="14.00">1</text>
<text text-anchor="middle" x="669.38" y="-183.2" font-family="Times New Roman,serif" font-size="14.00">(105)int</text>
</g>
<!-- n106&#45;&gt;n105 -->
<g id="edge26" class="edge">
<title>n106&#45;&gt;n105</title>
<path fill="none" stroke="black" d="M680.48,-215.7C686.18,-207.73 693.05,-198.1 699.36,-189.26"/>
<polygon fill="black" stroke="black" points="702.06,-191.51 705.03,-181.34 696.37,-187.44 702.06,-191.51"/>
</g>
<!-- n111 -->
<g id="node28" class="node">
<title>n111</title>
<polygon fill="none" stroke="black" points="949.88,-180 890.38,-180 890.38,-144 949.88,-144 949.88,-180"/>
<text text-anchor="middle" x="920.12" y="-156.95" font-family="Times New Roman,serif" font-size="14.00">arg.data</text>
<text text-anchor="middle" x="853.25" y="-183.2" font-family="Times New Roman,serif" font-size="14.00">(111)int[dim]</text>
</g>
<!-- n113&#45;&gt;n111 -->
<g id="edge27" class="edge">
<title>n113&#45;&gt;n111</title>
<path fill="none" stroke="black" d="M949.48,-215.7C945.19,-207.98 940.02,-198.71 935.23,-190.11"/>
<polygon fill="black" stroke="black" points="938.32,-188.46 930.39,-181.43 932.2,-191.87 938.32,-188.46"/>
</g>
<!-- n112 -->
<g id="node29" class="node">
<title>n112</title>
<polygon fill="none" stroke="black" points="1022.12,-180 968.12,-180 968.12,-144 1022.12,-144 1022.12,-180"/>
<text text-anchor="middle" x="995.12" y="-156.95" font-family="Times New Roman,serif" font-size="14.00">1</text>
<text text-anchor="middle" x="946.38" y="-183.2" font-family="Times New Roman,serif" font-size="14.00">(112)int</text>
</g>
<!-- n113&#45;&gt;n112 -->
<g id="edge28" class="edge">
<title>n113&#45;&gt;n112</title>
<path fill="none" stroke="black" d="M968.02,-215.7C971.99,-207.98 976.76,-198.71 981.18,-190.11"/>
<polygon fill="black" stroke="black" points="984.18,-191.94 985.64,-181.45 977.95,-188.74 984.18,-191.94"/>
</g>
<!-- n116 -->
<g id="node30" class="node">
<title>n116</title>
<polygon fill="none" stroke="black" points="1153.12,-180 1099.12,-180 1099.12,-144 1153.12,-144 1153.12,-180"/>
<text text-anchor="middle" x="1126.12" y="-156.95" font-family="Times New Roman,serif" font-size="14.00">1</text>
<text text-anchor="middle" x="1077.38" y="-183.2" font-family="Times New Roman,serif" font-size="14.00">(116)int</text>
</g>
<!-- n118&#45;&gt;n116 -->
<g id="edge29" class="edge">
<title>n118&#45;&gt;n116</title>
<path fill="none" stroke="black" d="M1163.77,-215.7C1158.07,-207.73 1151.2,-198.1 1144.89,-189.26"/>
<polygon fill="black" stroke="black" points="1147.88,-187.44 1139.22,-181.34 1142.19,-191.51 1147.88,-187.44"/>
</g>
<!-- n117 -->
<g id="node31" class="node">
<title>n117</title>
<polygon fill="none" stroke="black" points="1225.12,-180 1171.12,-180 1171.12,-144 1225.12,-144 1225.12,-180"/>
<text text-anchor="middle" x="1198.12" y="-156.95" font-family="Times New Roman,serif" font-size="14.00">dim1</text>
<text text-anchor="middle" x="1149.38" y="-183.2" font-family="Times New Roman,serif" font-size="14.00">(117)int</text>
</g>
<!-- n118&#45;&gt;n117 -->
<g id="edge30" class="edge">
<title>n118&#45;&gt;n117</title>
<path fill="none" stroke="black" d="M1181.56,-215.7C1183.91,-208.24 1186.71,-199.32 1189.34,-190.97"/>
<polygon fill="black" stroke="black" points="1192.64,-192.14 1192.3,-181.55 1185.96,-190.04 1192.64,-192.14"/>
</g>
<!-- n121 -->
<g id="node32" class="node">
<title>n121</title>
<polygon fill="none" stroke="black" points="1355.25,-180 1265,-180 1265,-144 1355.25,-144 1355.25,-180"/>
<text text-anchor="middle" x="1310.12" y="-156.95" font-family="Times New Roman,serif" font-size="14.00">acc : Boolean</text>
<text text-anchor="middle" x="1227.88" y="-183.2" font-family="Times New Roman,serif" font-size="14.00">(121)Boolean</text>
</g>
<!-- n122&#45;&gt;n121 -->
<g id="edge31" class="edge">
<title>n122&#45;&gt;n121</title>
<path fill="none" stroke="black" d="M1377.88,-215.7C1366.84,-207.11 1353.33,-196.61 1341.29,-187.24"/>
<polygon fill="black" stroke="black" points="1343.67,-184.65 1333.62,-181.28 1339.37,-190.18 1343.67,-184.65"/>
</g>
<!-- n120 -->
<g id="node33" class="node">
<title>n120</title>
<polygon fill="none" stroke="black" points="1427.12,-180 1373.12,-180 1373.12,-144 1427.12,-144 1427.12,-180"/>
<text text-anchor="middle" x="1400.12" y="-156.95" font-family="Times New Roman,serif" font-size="14.00">true</text>
<text text-anchor="middle" x="1336" y="-183.2" font-family="Times New Roman,serif" font-size="14.00">(120)Boolean</text>
</g>
<!-- n122&#45;&gt;n120 -->
<g id="edge32" class="edge">
<title>n122&#45;&gt;n120</title>
<path fill="none" stroke="black" d="M1400.12,-215.7C1400.12,-208.41 1400.12,-199.73 1400.12,-191.54"/>
<polygon fill="black" stroke="black" points="1403.63,-191.62 1400.13,-181.62 1396.63,-191.62 1403.63,-191.62"/>
</g>
<!-- n125 -->
<g id="node34" class="node">
<title>n125</title>
<polygon fill="none" stroke="black" points="1533.5,-180 1444.75,-180 1444.75,-144 1533.5,-144 1533.5,-180"/>
<text text-anchor="middle" x="1489.12" y="-156.95" font-family="Times New Roman,serif" font-size="14.00">result.data[it]</text>
<text text-anchor="middle" x="1423" y="-183.2" font-family="Times New Roman,serif" font-size="14.00">(125)int</text>
</g>
<!-- n133&#45;&gt;n125 -->
<g id="edge33" class="edge">
<title>n133&#45;&gt;n125</title>
<path fill="none" stroke="black" d="M1489.12,-215.7C1489.12,-208.41 1489.12,-199.73 1489.12,-191.54"/>
<polygon fill="black" stroke="black" points="1492.63,-191.62 1489.13,-181.62 1485.63,-191.62 1492.63,-191.62"/>
</g>
<!-- n132 -->
<g id="node35" class="node">
<title>n132</title>
<polygon fill="none" stroke="black" points="1605.12,-180 1551.12,-180 1551.12,-144 1605.12,-144 1605.12,-180"/>
<text text-anchor="middle" x="1578.12" y="-156.95" font-family="Times New Roman,serif" font-size="14.00">&#45;</text>
<text text-anchor="middle" x="1529.38" y="-183.2" font-family="Times New Roman,serif" font-size="14.00">(132)int</text>
</g>
<!-- n133&#45;&gt;n132 -->
<g id="edge34" class="edge">
<title>n133&#45;&gt;n132</title>
<path fill="none" stroke="black" d="M1511.13,-215.7C1522.04,-207.11 1535.4,-196.61 1547.31,-187.24"/>
<polygon fill="black" stroke="black" points="1549.18,-190.22 1554.88,-181.28 1544.86,-184.71 1549.18,-190.22"/>
</g>
<!-- n92 -->
<g id="node36" class="node">
<title>n92</title>
<polygon fill="none" stroke="black" points="138.12,-108 84.12,-108 84.12,-72 138.12,-72 138.12,-108"/>
<text text-anchor="middle" x="111.12" y="-84.95" font-family="Times New Roman,serif" font-size="14.00">arg</text>
<text text-anchor="middle" x="47.75" y="-111.2" font-family="Times New Roman,serif" font-size="14.00">(92)VarArray</text>
</g>
<!-- n93&#45;&gt;n92 -->
<g id="edge35" class="edge">
<title>n93&#45;&gt;n92</title>
<path fill="none" stroke="black" d="M111.12,-143.7C111.12,-136.41 111.12,-127.73 111.12,-119.54"/>
<polygon fill="black" stroke="black" points="114.63,-119.62 111.13,-109.62 107.63,-119.62 114.63,-119.62"/>
</g>
<!-- n95 -->
<g id="node37" class="node">
<title>n95</title>
<polygon fill="none" stroke="black" points="306.12,-108 252.12,-108 252.12,-72 306.12,-72 306.12,-108"/>
<text text-anchor="middle" x="279.12" y="-84.95" font-family="Times New Roman,serif" font-size="14.00">self</text>
<text text-anchor="middle" x="215.75" y="-111.2" font-family="Times New Roman,serif" font-size="14.00">(95)VarArray</text>
</g>
<!-- n96&#45;&gt;n95 -->
<g id="edge36" class="edge">
<title>n96&#45;&gt;n95</title>
<path fill="none" stroke="black" d="M279.12,-143.7C279.12,-136.41 279.12,-127.73 279.12,-119.54"/>
<polygon fill="black" stroke="black" points="282.63,-119.62 279.13,-109.62 275.63,-119.62 282.63,-119.62"/>
</g>
<!-- n99 -->
<g id="node38" class="node">
<title>n99</title>
<polygon fill="none" stroke="black" points="455.12,-108 401.12,-108 401.12,-72 455.12,-72 455.12,-108"/>
<text text-anchor="middle" x="428.12" y="-84.95" font-family="Times New Roman,serif" font-size="14.00">arg</text>
<text text-anchor="middle" x="364.75" y="-111.2" font-family="Times New Roman,serif" font-size="14.00">(99)VarArray</text>
</g>
<!-- n100&#45;&gt;n99 -->
<g id="edge37" class="edge">
<title>n100&#45;&gt;n99</title>
<path fill="none" stroke="black" d="M428.12,-143.7C428.12,-136.41 428.12,-127.73 428.12,-119.54"/>
<polygon fill="black" stroke="black" points="431.63,-119.62 428.13,-109.62 424.63,-119.62 431.63,-119.62"/>
</g>
<!-- n103 -->
<g id="node39" class="node">
<title>n103</title>
<polygon fill="none" stroke="black" points="669.12,-108 615.12,-108 615.12,-72 669.12,-72 669.12,-108"/>
<text text-anchor="middle" x="642.12" y="-84.95" font-family="Times New Roman,serif" font-size="14.00">self</text>
<text text-anchor="middle" x="575.38" y="-111.2" font-family="Times New Roman,serif" font-size="14.00">(103)VarArray</text>
</g>
<!-- n104&#45;&gt;n103 -->
<g id="edge38" class="edge">
<title>n104&#45;&gt;n103</title>
<path fill="none" stroke="black" d="M642.12,-143.7C642.12,-136.41 642.12,-127.73 642.12,-119.54"/>
<polygon fill="black" stroke="black" points="645.63,-119.62 642.13,-109.62 638.63,-119.62 645.63,-119.62"/>
</g>
<!-- n110 -->
<g id="node40" class="node">
<title>n110</title>
<polygon fill="none" stroke="black" points="947.12,-108 893.12,-108 893.12,-72 947.12,-72 947.12,-108"/>
<text text-anchor="middle" x="920.12" y="-84.95" font-family="Times New Roman,serif" font-size="14.00">arg</text>
<text text-anchor="middle" x="853.38" y="-111.2" font-family="Times New Roman,serif" font-size="14.00">(110)VarArray</text>
</g>
<!-- n111&#45;&gt;n110 -->
<g id="edge39" class="edge">
<title>n111&#45;&gt;n110</title>
<path fill="none" stroke="black" d="M920.12,-143.7C920.12,-136.41 920.12,-127.73 920.12,-119.54"/>
<polygon fill="black" stroke="black" points="923.63,-119.62 920.13,-109.62 916.63,-119.62 923.63,-119.62"/>
</g>
<!-- n123 -->
<g id="node41" class="node">
<title>n123</title>
<polygon fill="none" stroke="black" points="1445.12,-108 1391.12,-108 1391.12,-72 1445.12,-72 1445.12,-108"/>
<text text-anchor="middle" x="1418.12" y="-84.95" font-family="Times New Roman,serif" font-size="14.00">result</text>
<text text-anchor="middle" x="1351.38" y="-111.2" font-family="Times New Roman,serif" font-size="14.00">(123)VarArray</text>
</g>
<!-- n125&#45;&gt;n123 -->
<g id="edge40" class="edge">
<title>n125&#45;&gt;n123</title>
<path fill="none" stroke="black" d="M1471.57,-143.7C1463.15,-135.39 1452.89,-125.28 1443.62,-116.14"/>
<polygon fill="black" stroke="black" points="1446.13,-113.7 1436.55,-109.17 1441.22,-118.68 1446.13,-113.7"/>
</g>
<!-- n124 -->
<g id="node42" class="node">
<title>n124</title>
<polygon fill="none" stroke="black" points="1517.12,-108 1463.12,-108 1463.12,-72 1517.12,-72 1517.12,-108"/>
<text text-anchor="middle" x="1490.12" y="-84.95" font-family="Times New Roman,serif" font-size="14.00">it</text>
<text text-anchor="middle" x="1441.38" y="-111.2" font-family="Times New Roman,serif" font-size="14.00">(124)int</text>
</g>
<!-- n125&#45;&gt;n124 -->
<g id="edge41" class="edge">
<title>n125&#45;&gt;n124</title>
<path fill="none" stroke="black" d="M1489.37,-143.7C1489.48,-136.41 1489.6,-127.73 1489.72,-119.54"/>
<polygon fill="black" stroke="black" points="1493.22,-119.67 1489.86,-109.62 1486.22,-119.57 1493.22,-119.67"/>
</g>
<!-- n128 -->
<g id="node43" class="node">
<title>n128</title>
<polygon fill="none" stroke="black" points="1615.25,-108 1537,-108 1537,-72 1615.25,-72 1615.25,-108"/>
<text text-anchor="middle" x="1576.12" y="-84.95" font-family="Times New Roman,serif" font-size="14.00">self.data[it]</text>
<text text-anchor="middle" x="1515.25" y="-111.2" font-family="Times New Roman,serif" font-size="14.00">(128)int</text>
</g>
<!-- n132&#45;&gt;n128 -->
<g id="edge42" class="edge">
<title>n132&#45;&gt;n128</title>
<path fill="none" stroke="black" d="M1577.63,-143.7C1577.42,-136.41 1577.17,-127.73 1576.94,-119.54"/>
<polygon fill="black" stroke="black" points="1580.44,-119.51 1576.66,-109.62 1573.44,-119.71 1580.44,-119.51"/>
</g>
<!-- n131 -->
<g id="node44" class="node">
<title>n131</title>
<polygon fill="none" stroke="black" points="1709.12,-108 1633.12,-108 1633.12,-72 1709.12,-72 1709.12,-108"/>
<text text-anchor="middle" x="1671.12" y="-84.95" font-family="Times New Roman,serif" font-size="14.00">arg.data[it]</text>
<text text-anchor="middle" x="1611.38" y="-111.2" font-family="Times New Roman,serif" font-size="14.00">(131)int</text>
</g>
<!-- n132&#45;&gt;n131 -->
<g id="edge43" class="edge">
<title>n132&#45;&gt;n131</title>
<path fill="none" stroke="black" d="M1601.11,-143.7C1612.52,-135.11 1626.48,-124.61 1638.92,-115.24"/>
<polygon fill="black" stroke="black" points="1640.98,-118.07 1646.87,-109.26 1636.77,-112.47 1640.98,-118.07"/>
</g>
<!-- n126 -->
<g id="node45" class="node">
<title>n126</title>
<polygon fill="none" stroke="black" points="1537.12,-36 1483.12,-36 1483.12,0 1537.12,0 1537.12,-36"/>
<text text-anchor="middle" x="1510.12" y="-12.95" font-family="Times New Roman,serif" font-size="14.00">self</text>
<text text-anchor="middle" x="1443.38" y="-39.2" font-family="Times New Roman,serif" font-size="14.00">(126)VarArray</text>
</g>
<!-- n128&#45;&gt;n126 -->
<g id="edge44" class="edge">
<title>n128&#45;&gt;n126</title>
<path fill="none" stroke="black" d="M1559.81,-71.7C1552.06,-63.47 1542.64,-53.48 1534.09,-44.42"/>
<polygon fill="black" stroke="black" points="1536.7,-42.08 1527.29,-37.21 1531.6,-46.88 1536.7,-42.08"/>
</g>
<!-- n127 -->
<g id="node46" class="node">
<title>n127</title>
<polygon fill="none" stroke="black" points="1609.12,-36 1555.12,-36 1555.12,0 1609.12,0 1609.12,-36"/>
<text text-anchor="middle" x="1582.12" y="-12.95" font-family="Times New Roman,serif" font-size="14.00">it</text>
<text text-anchor="middle" x="1533.38" y="-39.2" font-family="Times New Roman,serif" font-size="14.00">(127)int</text>
</g>
<!-- n128&#45;&gt;n127 -->
<g id="edge45" class="edge">
<title>n128&#45;&gt;n127</title>
<path fill="none" stroke="black" d="M1577.61,-71.7C1578.23,-64.41 1578.98,-55.73 1579.68,-47.54"/>
<polygon fill="black" stroke="black" points="1583.16,-47.87 1580.53,-37.61 1576.19,-47.28 1583.16,-47.87"/>
</g>
<!-- n129 -->
<g id="node47" class="node">
<title>n129</title>
<polygon fill="none" stroke="black" points="1692.12,-36 1638.12,-36 1638.12,0 1692.12,0 1692.12,-36"/>
<text text-anchor="middle" x="1665.12" y="-12.95" font-family="Times New Roman,serif" font-size="14.00">arg</text>
<text text-anchor="middle" x="1598.38" y="-39.2" font-family="Times New Roman,serif" font-size="14.00">(129)VarArray</text>
</g>
<!-- n131&#45;&gt;n129 -->
<g id="edge46" class="edge">
<title>n131&#45;&gt;n129</title>
<path fill="none" stroke="black" d="M1669.64,-71.7C1669.02,-64.41 1668.27,-55.73 1667.57,-47.54"/>
<polygon fill="black" stroke="black" points="1671.06,-47.28 1666.72,-37.61 1664.09,-47.87 1671.06,-47.28"/>
</g>
<!-- n130 -->
<g id="node48" class="node">
<title>n130</title>
<polygon fill="none" stroke="black" points="1764.12,-36 1710.12,-36 1710.12,0 1764.12,0 1764.12,-36"/>
<text text-anchor="middle" x="1737.12" y="-12.95" font-family="Times New Roman,serif" font-size="14.00">it</text>
<text text-anchor="middle" x="1688.38" y="-39.2" font-family="Times New Roman,serif" font-size="14.00">(130)int</text>
</g>
<!-- n131&#45;&gt;n130 -->
<g id="edge47" class="edge">
<title>n131&#45;&gt;n130</title>
<path fill="none" stroke="black" d="M1687.44,-71.7C1695.19,-63.47 1704.61,-53.48 1713.16,-44.42"/>
<polygon fill="black" stroke="black" points="1715.65,-46.88 1719.96,-37.21 1710.55,-42.08 1715.65,-46.88"/>
</g>
</g>
</svg>
