<?xml version="1.0" encoding="UTF-8" standalone="no"?>
<!DOCTYPE svg PUBLIC "-//W3C//DTD SVG 1.1//EN"
 "http://www.w3.org/Graphics/SVG/1.1/DTD/svg11.dtd">
<!-- Generated by graphviz version 12.2.1 (20241206.2353)
 -->
<!-- Title: AST Pages: 1 -->
<svg width="607pt" height="349pt"
 viewBox="0.00 0.00 606.75 348.50" xmlns="http://www.w3.org/2000/svg" xmlns:xlink="http://www.w3.org/1999/xlink">
<g id="graph0" class="graph" transform="scale(1 1) rotate(0) translate(4 344.5)">
<title>AST</title>
<polygon fill="white" stroke="none" points="-4,4 -4,-344.5 602.75,-344.5 602.75,4 -4,4"/>
<!-- n30 -->
<g id="node1" class="node">
<title>n30</title>
<polygon fill="none" stroke="black" points="418.25,-324 111.25,-324 111.25,-288 418.25,-288 418.25,-324"/>
<text text-anchor="middle" x="264.75" y="-300.95" font-family="Times New Roman,serif" font-size="14.00">ContextDecl: node(13) Context: node (21), node (29)</text>
<text text-anchor="middle" x="100" y="-327.2" font-family="Times New Roman,serif" font-size="14.00">(30)</text>
</g>
<!-- n13 -->
<g id="node2" class="node">
<title>n13</title>
<polygon fill="none" stroke="black" points="219.25,-252 68.25,-252 68.25,-216 219.25,-216 219.25,-252"/>
<text text-anchor="middle" x="143.75" y="-228.95" font-family="Times New Roman,serif" font-size="14.00">Grade::Grade(node (12))</text>
<text text-anchor="middle" x="57" y="-255.2" font-family="Times New Roman,serif" font-size="14.00">(13)</text>
</g>
<!-- n30&#45;&gt;n13 -->
<g id="edge1" class="edge">
<title>n30&#45;&gt;n13</title>
<path fill="none" stroke="black" d="M234.53,-287.52C218.96,-278.51 199.8,-267.42 183.09,-257.76"/>
<polygon fill="black" stroke="black" points="185.3,-255 174.9,-253.02 181.8,-261.06 185.3,-255"/>
</g>
<!-- n21 -->
<g id="node3" class="node">
<title>n21</title>
<polygon fill="none" stroke="black" points="291.75,-252 237.75,-252 237.75,-216 291.75,-216 291.75,-252"/>
<text text-anchor="middle" x="264.75" y="-228.95" font-family="Times New Roman,serif" font-size="14.00"> pre:</text>
<text text-anchor="middle" x="204" y="-255.2" font-family="Times New Roman,serif" font-size="14.00">(21)Boolean</text>
</g>
<!-- n30&#45;&gt;n21 -->
<g id="edge2" class="edge">
<title>n30&#45;&gt;n21</title>
<path fill="none" stroke="black" d="M264.75,-287.7C264.75,-280.41 264.75,-271.73 264.75,-263.54"/>
<polygon fill="black" stroke="black" points="268.25,-263.62 264.75,-253.62 261.25,-263.62 268.25,-263.62"/>
</g>
<!-- n29 -->
<g id="node4" class="node">
<title>n29</title>
<polygon fill="none" stroke="black" points="390.75,-252 336.75,-252 336.75,-216 390.75,-216 390.75,-252"/>
<text text-anchor="middle" x="363.75" y="-228.95" font-family="Times New Roman,serif" font-size="14.00"> post:</text>
<text text-anchor="middle" x="303" y="-255.2" font-family="Times New Roman,serif" font-size="14.00">(29)Boolean</text>
</g>
<!-- n30&#45;&gt;n29 -->
<g id="edge3" class="edge">
<title>n30&#45;&gt;n29</title>
<path fill="none" stroke="black" d="M289.48,-287.52C301.74,-278.85 316.73,-268.25 330.02,-258.85"/>
<polygon fill="black" stroke="black" points="331.96,-261.77 338.1,-253.13 327.92,-256.05 331.96,-261.77"/>
</g>
<!-- n12 -->
<g id="node5" class="node">
<title>n12</title>
<polygon fill="none" stroke="black" points="178.75,-180 108.75,-180 108.75,-144 178.75,-144 178.75,-180"/>
<text text-anchor="middle" x="143.75" y="-156.95" font-family="Times New Roman,serif" font-size="14.00">score : int</text>
<text text-anchor="middle" x="90.38" y="-183.2" font-family="Times New Roman,serif" font-size="14.00">(12)int</text>
</g>
<!-- n13&#45;&gt;n12 -->
<g id="edge4" class="edge">
<title>n13&#45;&gt;n12</title>
<path fill="none" stroke="black" d="M143.75,-215.7C143.75,-208.41 143.75,-199.73 143.75,-191.54"/>
<polygon fill="black" stroke="black" points="147.25,-191.62 143.75,-181.62 140.25,-191.62 147.25,-191.62"/>
</g>
<!-- n20 -->
<g id="node6" class="node">
<title>n20</title>
<polygon fill="none" stroke="black" points="270.75,-180 216.75,-180 216.75,-144 270.75,-144 270.75,-180"/>
<text text-anchor="middle" x="243.75" y="-156.95" font-family="Times New Roman,serif" font-size="14.00">and</text>
<text text-anchor="middle" x="183" y="-183.2" font-family="Times New Roman,serif" font-size="14.00">(20)Boolean</text>
</g>
<!-- n21&#45;&gt;n20 -->
<g id="edge5" class="edge">
<title>n21&#45;&gt;n20</title>
<path fill="none" stroke="black" d="M259.56,-215.7C257.32,-208.24 254.65,-199.32 252.14,-190.97"/>
<polygon fill="black" stroke="black" points="255.54,-190.13 249.32,-181.55 248.84,-192.14 255.54,-190.13"/>
</g>
<!-- n28 -->
<g id="node7" class="node">
<title>n28</title>
<polygon fill="none" stroke="black" points="417.75,-180 363.75,-180 363.75,-144 417.75,-144 417.75,-180"/>
<text text-anchor="middle" x="390.75" y="-156.95" font-family="Times New Roman,serif" font-size="14.00">and</text>
<text text-anchor="middle" x="330" y="-183.2" font-family="Times New Roman,serif" font-size="14.00">(28)Boolean</text>
</g>
<!-- n29&#45;&gt;n28 -->
<g id="edge6" class="edge">
<title>n29&#45;&gt;n28</title>
<path fill="none" stroke="black" d="M370.42,-215.7C373.33,-208.15 376.82,-199.12 380.07,-190.68"/>
<polygon fill="black" stroke="black" points="383.27,-192.11 383.61,-181.52 376.74,-189.59 383.27,-192.11"/>
</g>
<!-- n16 -->
<g id="node8" class="node">
<title>n16</title>
<polygon fill="none" stroke="black" points="162.75,-108 108.75,-108 108.75,-72 162.75,-72 162.75,-108"/>
<text text-anchor="middle" x="135.75" y="-84.95" font-family="Times New Roman,serif" font-size="14.00">&gt;=</text>
<text text-anchor="middle" x="75" y="-111.2" font-family="Times New Roman,serif" font-size="14.00">(16)Boolean</text>
</g>
<!-- n20&#45;&gt;n16 -->
<g id="edge7" class="edge">
<title>n20&#45;&gt;n16</title>
<path fill="none" stroke="black" d="M216.78,-143.52C203.14,-134.68 186.41,-123.84 171.7,-114.3"/>
<polygon fill="black" stroke="black" points="173.95,-111.59 163.65,-109.08 170.14,-117.46 173.95,-111.59"/>
</g>
<!-- n19 -->
<g id="node9" class="node">
<title>n19</title>
<polygon fill="none" stroke="black" points="270.75,-108 216.75,-108 216.75,-72 270.75,-72 270.75,-108"/>
<text text-anchor="middle" x="243.75" y="-84.95" font-family="Times New Roman,serif" font-size="14.00">&lt;=</text>
<text text-anchor="middle" x="183" y="-111.2" font-family="Times New Roman,serif" font-size="14.00">(19)Boolean</text>
</g>
<!-- n20&#45;&gt;n19 -->
<g id="edge8" class="edge">
<title>n20&#45;&gt;n19</title>
<path fill="none" stroke="black" d="M243.75,-143.7C243.75,-136.41 243.75,-127.73 243.75,-119.54"/>
<polygon fill="black" stroke="black" points="247.25,-119.62 243.75,-109.62 240.25,-119.62 247.25,-119.62"/>
</g>
<!-- n24 -->
<g id="node10" class="node">
<title>n24</title>
<polygon fill="none" stroke="black" points="417.75,-108 363.75,-108 363.75,-72 417.75,-72 417.75,-108"/>
<text text-anchor="middle" x="390.75" y="-84.95" font-family="Times New Roman,serif" font-size="14.00">=</text>
<text text-anchor="middle" x="330" y="-111.2" font-family="Times New Roman,serif" font-size="14.00">(24)Boolean</text>
</g>
<!-- n28&#45;&gt;n24 -->
<g id="edge9" class="edge">
<title>n28&#45;&gt;n24</title>
<path fill="none" stroke="black" d="M390.75,-143.7C390.75,-136.41 390.75,-127.73 390.75,-119.54"/>
<polygon fill="black" stroke="black" points="394.25,-119.62 390.75,-109.62 387.25,-119.62 394.25,-119.62"/>
</g>
<!-- n27 -->
<g id="node11" class="node">
<title>n27</title>
<polygon fill="none" stroke="black" points="526.75,-108 472.75,-108 472.75,-72 526.75,-72 526.75,-108"/>
<text text-anchor="middle" x="499.75" y="-84.95" font-family="Times New Roman,serif" font-size="14.00">=</text>
<text text-anchor="middle" x="439" y="-111.2" font-family="Times New Roman,serif" font-size="14.00">(27)Boolean</text>
</g>
<!-- n28&#45;&gt;n27 -->
<g id="edge10" class="edge">
<title>n28&#45;&gt;n27</title>
<path fill="none" stroke="black" d="M417.97,-143.52C431.73,-134.68 448.62,-123.84 463.46,-114.3"/>
<polygon fill="black" stroke="black" points="465.08,-117.43 471.6,-109.08 461.29,-111.54 465.08,-117.43"/>
</g>
<!-- n14 -->
<g id="node12" class="node">
<title>n14</title>
<polygon fill="none" stroke="black" points="90.75,-36 36.75,-36 36.75,0 90.75,0 90.75,-36"/>
<text text-anchor="middle" x="63.75" y="-12.95" font-family="Times New Roman,serif" font-size="14.00">score</text>
<text text-anchor="middle" x="18.38" y="-39.2" font-family="Times New Roman,serif" font-size="14.00">(14)int</text>
</g>
<!-- n16&#45;&gt;n14 -->
<g id="edge11" class="edge">
<title>n16&#45;&gt;n14</title>
<path fill="none" stroke="black" d="M117.95,-71.7C109.47,-63.45 99.16,-53.43 89.82,-44.35"/>
<polygon fill="black" stroke="black" points="92.29,-41.86 82.68,-37.4 87.41,-46.88 92.29,-41.86"/>
</g>
<!-- n15 -->
<g id="node13" class="node">
<title>n15</title>
<polygon fill="none" stroke="black" points="162.75,-36 108.75,-36 108.75,0 162.75,0 162.75,-36"/>
<text text-anchor="middle" x="135.75" y="-12.95" font-family="Times New Roman,serif" font-size="14.00">0</text>
<text text-anchor="middle" x="90.38" y="-39.2" font-family="Times New Roman,serif" font-size="14.00">(15)int</text>
</g>
<!-- n16&#45;&gt;n15 -->
<g id="edge12" class="edge">
<title>n16&#45;&gt;n15</title>
<path fill="none" stroke="black" d="M135.75,-71.7C135.75,-64.41 135.75,-55.73 135.75,-47.54"/>
<polygon fill="black" stroke="black" points="139.25,-47.62 135.75,-37.62 132.25,-47.62 139.25,-47.62"/>
</g>
<!-- n17 -->
<g id="node14" class="node">
<title>n17</title>
<polygon fill="none" stroke="black" points="234.75,-36 180.75,-36 180.75,0 234.75,0 234.75,-36"/>
<text text-anchor="middle" x="207.75" y="-12.95" font-family="Times New Roman,serif" font-size="14.00">score</text>
<text text-anchor="middle" x="162.38" y="-39.2" font-family="Times New Roman,serif" font-size="14.00">(17)int</text>
</g>
<!-- n19&#45;&gt;n17 -->
<g id="edge13" class="edge">
<title>n19&#45;&gt;n17</title>
<path fill="none" stroke="black" d="M234.85,-71.7C230.88,-63.98 226.12,-54.71 221.69,-46.11"/>
<polygon fill="black" stroke="black" points="224.92,-44.74 217.24,-37.45 218.7,-47.94 224.92,-44.74"/>
</g>
<!-- n18 -->
<g id="node15" class="node">
<title>n18</title>
<polygon fill="none" stroke="black" points="306.75,-36 252.75,-36 252.75,0 306.75,0 306.75,-36"/>
<text text-anchor="middle" x="279.75" y="-12.95" font-family="Times New Roman,serif" font-size="14.00">100</text>
<text text-anchor="middle" x="234.38" y="-39.2" font-family="Times New Roman,serif" font-size="14.00">(18)int</text>
</g>
<!-- n19&#45;&gt;n18 -->
<g id="edge14" class="edge">
<title>n19&#45;&gt;n18</title>
<path fill="none" stroke="black" d="M252.65,-71.7C256.62,-63.98 261.38,-54.71 265.81,-46.11"/>
<polygon fill="black" stroke="black" points="268.8,-47.94 270.26,-37.45 262.58,-44.74 268.8,-47.94"/>
</g>
<!-- n22 -->
<g id="node16" class="node">
<title>n22</title>
<polygon fill="none" stroke="black" points="382.75,-36 324.75,-36 324.75,0 382.75,0 382.75,-36"/>
<text text-anchor="middle" x="353.75" y="-12.95" font-family="Times New Roman,serif" font-size="14.00">number</text>
<text text-anchor="middle" x="306.38" y="-39.2" font-family="Times New Roman,serif" font-size="14.00">(22)int</text>
</g>
<!-- n24&#45;&gt;n22 -->
<g id="edge15" class="edge">
<title>n24&#45;&gt;n22</title>
<path fill="none" stroke="black" d="M381.6,-71.7C377.53,-63.98 372.63,-54.71 368.08,-46.11"/>
<polygon fill="black" stroke="black" points="371.27,-44.65 363.5,-37.44 365.08,-47.92 371.27,-44.65"/>
</g>
<!-- n23 -->
<g id="node17" class="node">
<title>n23</title>
<polygon fill="none" stroke="black" points="454.75,-36 400.75,-36 400.75,0 454.75,0 454.75,-36"/>
<text text-anchor="middle" x="427.75" y="-12.95" font-family="Times New Roman,serif" font-size="14.00">score</text>
<text text-anchor="middle" x="382.38" y="-39.2" font-family="Times New Roman,serif" font-size="14.00">(23)int</text>
</g>
<!-- n24&#45;&gt;n23 -->
<g id="edge16" class="edge">
<title>n24&#45;&gt;n23</title>
<path fill="none" stroke="black" d="M399.9,-71.7C403.97,-63.98 408.87,-54.71 413.42,-46.11"/>
<polygon fill="black" stroke="black" points="416.42,-47.92 418,-37.44 410.23,-44.65 416.42,-47.92"/>
</g>
<!-- n25 -->
<g id="node18" class="node">
<title>n25</title>
<polygon fill="none" stroke="black" points="526.75,-36 472.75,-36 472.75,0 526.75,0 526.75,-36"/>
<text text-anchor="middle" x="499.75" y="-12.95" font-family="Times New Roman,serif" font-size="14.00">score</text>
<text text-anchor="middle" x="454.38" y="-39.2" font-family="Times New Roman,serif" font-size="14.00">(25)int</text>
</g>
<!-- n27&#45;&gt;n25 -->
<g id="edge17" class="edge">
<title>n27&#45;&gt;n25</title>
<path fill="none" stroke="black" d="M499.75,-71.7C499.75,-64.41 499.75,-55.73 499.75,-47.54"/>
<polygon fill="black" stroke="black" points="503.25,-47.62 499.75,-37.62 496.25,-47.62 503.25,-47.62"/>
</g>
<!-- n26 -->
<g id="node19" class="node">
<title>n26</title>
<polygon fill="none" stroke="black" points="598.75,-36 544.75,-36 544.75,0 598.75,0 598.75,-36"/>
<text text-anchor="middle" x="571.75" y="-12.95" font-family="Times New Roman,serif" font-size="14.00">score</text>
<text text-anchor="middle" x="526.38" y="-39.2" font-family="Times New Roman,serif" font-size="14.00">(26)int</text>
</g>
<!-- n27&#45;&gt;n26 -->
<g id="edge18" class="edge">
<title>n27&#45;&gt;n26</title>
<path fill="none" stroke="black" d="M517.55,-71.7C526.03,-63.45 536.34,-53.43 545.68,-44.35"/>
<polygon fill="black" stroke="black" points="548.09,-46.88 552.82,-37.4 543.21,-41.86 548.09,-46.88"/>
</g>
</g>
</svg>
