<?xml version="1.0" encoding="UTF-8" standalone="no"?>
<!DOCTYPE svg PUBLIC "-//W3C//DTD SVG 1.1//EN"
 "http://www.w3.org/Graphics/SVG/1.1/DTD/svg11.dtd">
<!-- Generated by graphviz version 12.2.1 (20241206.2353)
 -->
<!-- Title: AST Pages: 1 -->
<svg width="1358pt" height="637pt"
 viewBox="0.00 0.00 1357.62 636.50" xmlns="http://www.w3.org/2000/svg" xmlns:xlink="http://www.w3.org/1999/xlink">
<g id="graph0" class="graph" transform="scale(1 1) rotate(0) translate(4 632.5)">
<title>AST</title>
<polygon fill="white" stroke="none" points="-4,4 -4,-632.5 1353.62,-632.5 1353.62,4 -4,4"/>
<!-- n83 -->
<g id="node1" class="node">
<title>n83</title>
<polygon fill="none" stroke="black" points="298.12,-612 51.12,-612 51.12,-576 298.12,-576 298.12,-612"/>
<text text-anchor="middle" x="174.62" y="-588.95" font-family="Times New Roman,serif" font-size="14.00">ContextDecl: node(31) Context: node (82)</text>
<text text-anchor="middle" x="39.88" y="-615.2" font-family="Times New Roman,serif" font-size="14.00">(83)</text>
</g>
<!-- n31 -->
<g id="node2" class="node">
<title>n31</title>
<polygon fill="none" stroke="black" points="187.25,-540 46,-540 46,-504 187.25,-504 187.25,-540"/>
<text text-anchor="middle" x="116.62" y="-516.95" font-family="Times New Roman,serif" font-size="14.00">Grade::rating() : String</text>
<text text-anchor="middle" x="34.75" y="-543.2" font-family="Times New Roman,serif" font-size="14.00">(31)</text>
</g>
<!-- n83&#45;&gt;n31 -->
<g id="edge1" class="edge">
<title>n83&#45;&gt;n31</title>
<path fill="none" stroke="black" d="M160.29,-575.7C153.55,-567.56 145.37,-557.69 137.92,-548.7"/>
<polygon fill="black" stroke="black" points="140.84,-546.74 131.76,-541.27 135.45,-551.2 140.84,-546.74"/>
</g>
<!-- n82 -->
<g id="node3" class="node">
<title>n82</title>
<polygon fill="none" stroke="black" points="259.62,-540 205.62,-540 205.62,-504 259.62,-504 259.62,-540"/>
<text text-anchor="middle" x="232.62" y="-516.95" font-family="Times New Roman,serif" font-size="14.00"> post:</text>
<text text-anchor="middle" x="171.88" y="-543.2" font-family="Times New Roman,serif" font-size="14.00">(82)Boolean</text>
</g>
<!-- n83&#45;&gt;n82 -->
<g id="edge2" class="edge">
<title>n83&#45;&gt;n82</title>
<path fill="none" stroke="black" d="M188.96,-575.7C195.7,-567.56 203.88,-557.69 211.33,-548.7"/>
<polygon fill="black" stroke="black" points="213.8,-551.2 217.49,-541.27 208.41,-546.74 213.8,-551.2"/>
</g>
<!-- n81 -->
<g id="node4" class="node">
<title>n81</title>
<polygon fill="none" stroke="black" points="397.75,-468 67.5,-468 67.5,-432 397.75,-432 397.75,-468"/>
<text text-anchor="middle" x="232.62" y="-444.95" font-family="Times New Roman,serif" font-size="14.00">IfExp ConditionNode:(34) thenNode: (37) elseNode: (80)</text>
<text text-anchor="middle" x="33.75" y="-471.2" font-family="Times New Roman,serif" font-size="14.00">(81)Boolean</text>
</g>
<!-- n82&#45;&gt;n81 -->
<g id="edge3" class="edge">
<title>n82&#45;&gt;n81</title>
<path fill="none" stroke="black" d="M232.62,-503.7C232.62,-496.41 232.62,-487.73 232.62,-479.54"/>
<polygon fill="black" stroke="black" points="236.13,-479.62 232.63,-469.62 229.13,-479.62 236.13,-479.62"/>
</g>
<!-- n34 -->
<g id="node5" class="node">
<title>n34</title>
<polygon fill="none" stroke="black" points="186.62,-396 132.62,-396 132.62,-360 186.62,-360 186.62,-396"/>
<text text-anchor="middle" x="159.62" y="-372.95" font-family="Times New Roman,serif" font-size="14.00">&lt;=</text>
<text text-anchor="middle" x="98.88" y="-399.2" font-family="Times New Roman,serif" font-size="14.00">(34)Boolean</text>
</g>
<!-- n81&#45;&gt;n34 -->
<g id="edge4" class="edge">
<title>n81&#45;&gt;n34</title>
<path fill="none" stroke="black" d="M214.58,-431.7C205.89,-423.37 195.31,-413.22 185.77,-404.07"/>
<polygon fill="black" stroke="black" points="188.45,-401.79 178.81,-397.39 183.6,-406.84 188.45,-401.79"/>
</g>
<!-- n37 -->
<g id="node6" class="node">
<title>n37</title>
<polygon fill="none" stroke="black" points="259.62,-396 205.62,-396 205.62,-360 259.62,-360 259.62,-396"/>
<text text-anchor="middle" x="232.62" y="-372.95" font-family="Times New Roman,serif" font-size="14.00">=</text>
<text text-anchor="middle" x="171.88" y="-399.2" font-family="Times New Roman,serif" font-size="14.00">(37)Boolean</text>
</g>
<!-- n81&#45;&gt;n37 -->
<g id="edge5" class="edge">
<title>n81&#45;&gt;n37</title>
<path fill="none" stroke="black" d="M232.62,-431.7C232.62,-424.41 232.62,-415.73 232.62,-407.54"/>
<polygon fill="black" stroke="black" points="236.13,-407.62 232.63,-397.62 229.13,-407.62 236.13,-407.62"/>
</g>
<!-- n80 -->
<g id="node7" class="node">
<title>n80</title>
<polygon fill="none" stroke="black" points="610.75,-396 280.5,-396 280.5,-360 610.75,-360 610.75,-396"/>
<text text-anchor="middle" x="445.62" y="-372.95" font-family="Times New Roman,serif" font-size="14.00">IfExp ConditionNode:(44) thenNode: (47) elseNode: (79)</text>
<text text-anchor="middle" x="246.75" y="-399.2" font-family="Times New Roman,serif" font-size="14.00">(80)Boolean</text>
</g>
<!-- n81&#45;&gt;n80 -->
<g id="edge6" class="edge">
<title>n81&#45;&gt;n80</title>
<path fill="none" stroke="black" d="M285.82,-431.52C315.03,-421.92 351.45,-409.95 382.14,-399.86"/>
<polygon fill="black" stroke="black" points="382.89,-403.3 391.3,-396.85 380.7,-396.65 382.89,-403.3"/>
</g>
<!-- n32 -->
<g id="node8" class="node">
<title>n32</title>
<polygon fill="none" stroke="black" points="114.62,-324 56.62,-324 56.62,-288 114.62,-288 114.62,-324"/>
<text text-anchor="middle" x="85.62" y="-300.95" font-family="Times New Roman,serif" font-size="14.00">number</text>
<text text-anchor="middle" x="38.25" y="-327.2" font-family="Times New Roman,serif" font-size="14.00">(32)int</text>
</g>
<!-- n34&#45;&gt;n32 -->
<g id="edge7" class="edge">
<title>n34&#45;&gt;n32</title>
<path fill="none" stroke="black" d="M141.33,-359.7C132.53,-351.37 121.8,-341.22 112.13,-332.07"/>
<polygon fill="black" stroke="black" points="114.73,-329.72 105.06,-325.39 109.92,-334.8 114.73,-329.72"/>
</g>
<!-- n33 -->
<g id="node9" class="node">
<title>n33</title>
<polygon fill="none" stroke="black" points="186.62,-324 132.62,-324 132.62,-288 186.62,-288 186.62,-324"/>
<text text-anchor="middle" x="159.62" y="-300.95" font-family="Times New Roman,serif" font-size="14.00">59</text>
<text text-anchor="middle" x="114.25" y="-327.2" font-family="Times New Roman,serif" font-size="14.00">(33)int</text>
</g>
<!-- n34&#45;&gt;n33 -->
<g id="edge8" class="edge">
<title>n34&#45;&gt;n33</title>
<path fill="none" stroke="black" d="M159.62,-359.7C159.62,-352.41 159.62,-343.73 159.62,-335.54"/>
<polygon fill="black" stroke="black" points="163.13,-335.62 159.63,-325.62 156.13,-335.62 163.13,-335.62"/>
</g>
<!-- n35 -->
<g id="node10" class="node">
<title>n35</title>
<polygon fill="none" stroke="black" points="258.62,-324 204.62,-324 204.62,-288 258.62,-288 258.62,-324"/>
<text text-anchor="middle" x="231.62" y="-300.95" font-family="Times New Roman,serif" font-size="14.00">result</text>
<text text-anchor="middle" x="176.88" y="-327.2" font-family="Times New Roman,serif" font-size="14.00">(35)String</text>
</g>
<!-- n37&#45;&gt;n35 -->
<g id="edge9" class="edge">
<title>n37&#45;&gt;n35</title>
<path fill="none" stroke="black" d="M232.38,-359.7C232.27,-352.41 232.15,-343.73 232.03,-335.54"/>
<polygon fill="black" stroke="black" points="235.53,-335.57 231.89,-325.62 228.53,-335.67 235.53,-335.57"/>
</g>
<!-- n36 -->
<g id="node11" class="node">
<title>n36</title>
<polygon fill="none" stroke="black" points="330.62,-324 276.62,-324 276.62,-288 330.62,-288 330.62,-324"/>
<text text-anchor="middle" x="303.62" y="-300.95" font-family="Times New Roman,serif" font-size="14.00">F</text>
<text text-anchor="middle" x="248.88" y="-327.2" font-family="Times New Roman,serif" font-size="14.00">(36)String</text>
</g>
<!-- n37&#45;&gt;n36 -->
<g id="edge10" class="edge">
<title>n37&#45;&gt;n36</title>
<path fill="none" stroke="black" d="M250.18,-359.7C258.6,-351.39 268.86,-341.28 278.13,-332.14"/>
<polygon fill="black" stroke="black" points="280.53,-334.68 285.2,-325.17 275.62,-329.7 280.53,-334.68"/>
</g>
<!-- n44 -->
<g id="node12" class="node">
<title>n44</title>
<polygon fill="none" stroke="black" points="402.62,-324 348.62,-324 348.62,-288 402.62,-288 402.62,-324"/>
<text text-anchor="middle" x="375.62" y="-300.95" font-family="Times New Roman,serif" font-size="14.00">and</text>
<text text-anchor="middle" x="314.88" y="-327.2" font-family="Times New Roman,serif" font-size="14.00">(44)Boolean</text>
</g>
<!-- n80&#45;&gt;n44 -->
<g id="edge11" class="edge">
<title>n80&#45;&gt;n44</title>
<path fill="none" stroke="black" d="M428.32,-359.7C420.01,-351.39 409.9,-341.28 400.77,-332.14"/>
<polygon fill="black" stroke="black" points="403.35,-329.77 393.8,-325.17 398.4,-334.72 403.35,-329.77"/>
</g>
<!-- n47 -->
<g id="node13" class="node">
<title>n47</title>
<polygon fill="none" stroke="black" points="474.62,-324 420.62,-324 420.62,-288 474.62,-288 474.62,-324"/>
<text text-anchor="middle" x="447.62" y="-300.95" font-family="Times New Roman,serif" font-size="14.00">=</text>
<text text-anchor="middle" x="386.88" y="-327.2" font-family="Times New Roman,serif" font-size="14.00">(47)Boolean</text>
</g>
<!-- n80&#45;&gt;n47 -->
<g id="edge12" class="edge">
<title>n80&#45;&gt;n47</title>
<path fill="none" stroke="black" d="M446.12,-359.7C446.33,-352.41 446.58,-343.73 446.81,-335.54"/>
<polygon fill="black" stroke="black" points="450.31,-335.71 447.09,-325.62 443.31,-335.51 450.31,-335.71"/>
</g>
<!-- n79 -->
<g id="node14" class="node">
<title>n79</title>
<polygon fill="none" stroke="black" points="826.75,-324 496.5,-324 496.5,-288 826.75,-288 826.75,-324"/>
<text text-anchor="middle" x="661.62" y="-300.95" font-family="Times New Roman,serif" font-size="14.00">IfExp ConditionNode:(54) thenNode: (57) elseNode: (78)</text>
<text text-anchor="middle" x="462.75" y="-327.2" font-family="Times New Roman,serif" font-size="14.00">(79)Boolean</text>
</g>
<!-- n80&#45;&gt;n79 -->
<g id="edge13" class="edge">
<title>n80&#45;&gt;n79</title>
<path fill="none" stroke="black" d="M499.57,-359.52C529.19,-349.92 566.12,-337.95 597.25,-327.86"/>
<polygon fill="black" stroke="black" points="598.12,-331.26 606.55,-324.85 595.96,-324.6 598.12,-331.26"/>
</g>
<!-- n40 -->
<g id="node15" class="node">
<title>n40</title>
<polygon fill="none" stroke="black" points="327.62,-252 273.62,-252 273.62,-216 327.62,-216 327.62,-252"/>
<text text-anchor="middle" x="300.62" y="-228.95" font-family="Times New Roman,serif" font-size="14.00">&lt;=</text>
<text text-anchor="middle" x="239.88" y="-255.2" font-family="Times New Roman,serif" font-size="14.00">(40)Boolean</text>
</g>
<!-- n44&#45;&gt;n40 -->
<g id="edge14" class="edge">
<title>n44&#45;&gt;n40</title>
<path fill="none" stroke="black" d="M357.09,-287.7C348.16,-279.37 337.29,-269.22 327.48,-260.07"/>
<polygon fill="black" stroke="black" points="330.02,-257.64 320.32,-253.38 325.24,-262.76 330.02,-257.64"/>
</g>
<!-- n43 -->
<g id="node16" class="node">
<title>n43</title>
<polygon fill="none" stroke="black" points="402.62,-252 348.62,-252 348.62,-216 402.62,-216 402.62,-252"/>
<text text-anchor="middle" x="375.62" y="-228.95" font-family="Times New Roman,serif" font-size="14.00">&gt;=</text>
<text text-anchor="middle" x="314.88" y="-255.2" font-family="Times New Roman,serif" font-size="14.00">(43)Boolean</text>
</g>
<!-- n44&#45;&gt;n43 -->
<g id="edge15" class="edge">
<title>n44&#45;&gt;n43</title>
<path fill="none" stroke="black" d="M375.62,-287.7C375.62,-280.41 375.62,-271.73 375.62,-263.54"/>
<polygon fill="black" stroke="black" points="379.13,-263.62 375.63,-253.62 372.13,-263.62 379.13,-263.62"/>
</g>
<!-- n45 -->
<g id="node17" class="node">
<title>n45</title>
<polygon fill="none" stroke="black" points="474.62,-252 420.62,-252 420.62,-216 474.62,-216 474.62,-252"/>
<text text-anchor="middle" x="447.62" y="-228.95" font-family="Times New Roman,serif" font-size="14.00">result</text>
<text text-anchor="middle" x="392.88" y="-255.2" font-family="Times New Roman,serif" font-size="14.00">(45)String</text>
</g>
<!-- n47&#45;&gt;n45 -->
<g id="edge16" class="edge">
<title>n47&#45;&gt;n45</title>
<path fill="none" stroke="black" d="M447.62,-287.7C447.62,-280.41 447.62,-271.73 447.62,-263.54"/>
<polygon fill="black" stroke="black" points="451.13,-263.62 447.63,-253.62 444.13,-263.62 451.13,-263.62"/>
</g>
<!-- n46 -->
<g id="node18" class="node">
<title>n46</title>
<polygon fill="none" stroke="black" points="546.62,-252 492.62,-252 492.62,-216 546.62,-216 546.62,-252"/>
<text text-anchor="middle" x="519.62" y="-228.95" font-family="Times New Roman,serif" font-size="14.00">D</text>
<text text-anchor="middle" x="464.88" y="-255.2" font-family="Times New Roman,serif" font-size="14.00">(46)String</text>
</g>
<!-- n47&#45;&gt;n46 -->
<g id="edge17" class="edge">
<title>n47&#45;&gt;n46</title>
<path fill="none" stroke="black" d="M465.42,-287.7C473.9,-279.45 484.21,-269.43 493.56,-260.35"/>
<polygon fill="black" stroke="black" points="495.97,-262.88 500.7,-253.4 491.09,-257.86 495.97,-262.88"/>
</g>
<!-- n54 -->
<g id="node19" class="node">
<title>n54</title>
<polygon fill="none" stroke="black" points="620.62,-252 566.62,-252 566.62,-216 620.62,-216 620.62,-252"/>
<text text-anchor="middle" x="593.62" y="-228.95" font-family="Times New Roman,serif" font-size="14.00">and</text>
<text text-anchor="middle" x="532.88" y="-255.2" font-family="Times New Roman,serif" font-size="14.00">(54)Boolean</text>
</g>
<!-- n79&#45;&gt;n54 -->
<g id="edge18" class="edge">
<title>n79&#45;&gt;n54</title>
<path fill="none" stroke="black" d="M644.82,-287.7C636.75,-279.39 626.92,-269.28 618.05,-260.14"/>
<polygon fill="black" stroke="black" points="620.77,-257.92 611.3,-253.19 615.75,-262.8 620.77,-257.92"/>
</g>
<!-- n57 -->
<g id="node20" class="node">
<title>n57</title>
<polygon fill="none" stroke="black" points="692.62,-252 638.62,-252 638.62,-216 692.62,-216 692.62,-252"/>
<text text-anchor="middle" x="665.62" y="-228.95" font-family="Times New Roman,serif" font-size="14.00">=</text>
<text text-anchor="middle" x="604.88" y="-255.2" font-family="Times New Roman,serif" font-size="14.00">(57)Boolean</text>
</g>
<!-- n79&#45;&gt;n57 -->
<g id="edge19" class="edge">
<title>n79&#45;&gt;n57</title>
<path fill="none" stroke="black" d="M662.61,-287.7C663.03,-280.41 663.53,-271.73 663.99,-263.54"/>
<polygon fill="black" stroke="black" points="667.48,-263.8 664.56,-253.62 660.5,-263.4 667.48,-263.8"/>
</g>
<!-- n78 -->
<g id="node21" class="node">
<title>n78</title>
<polygon fill="none" stroke="black" points="1045.75,-252 715.5,-252 715.5,-216 1045.75,-216 1045.75,-252"/>
<text text-anchor="middle" x="880.62" y="-228.95" font-family="Times New Roman,serif" font-size="14.00">IfExp ConditionNode:(64) thenNode: (67) elseNode: (77)</text>
<text text-anchor="middle" x="681.75" y="-255.2" font-family="Times New Roman,serif" font-size="14.00">(78)Boolean</text>
</g>
<!-- n79&#45;&gt;n78 -->
<g id="edge20" class="edge">
<title>n79&#45;&gt;n78</title>
<path fill="none" stroke="black" d="M716.32,-287.52C746.36,-277.92 783.8,-265.95 815.35,-255.86"/>
<polygon fill="black" stroke="black" points="816.34,-259.22 824.8,-252.84 814.21,-252.55 816.34,-259.22"/>
</g>
<!-- n38 -->
<g id="node22" class="node">
<title>n38</title>
<polygon fill="none" stroke="black" points="255.62,-180 197.62,-180 197.62,-144 255.62,-144 255.62,-180"/>
<text text-anchor="middle" x="226.62" y="-156.95" font-family="Times New Roman,serif" font-size="14.00">number</text>
<text text-anchor="middle" x="179.25" y="-183.2" font-family="Times New Roman,serif" font-size="14.00">(38)int</text>
</g>
<!-- n40&#45;&gt;n38 -->
<g id="edge21" class="edge">
<title>n40&#45;&gt;n38</title>
<path fill="none" stroke="black" d="M282.33,-215.7C273.53,-207.37 262.8,-197.22 253.13,-188.07"/>
<polygon fill="black" stroke="black" points="255.73,-185.72 246.06,-181.39 250.92,-190.8 255.73,-185.72"/>
</g>
<!-- n39 -->
<g id="node23" class="node">
<title>n39</title>
<polygon fill="none" stroke="black" points="327.62,-180 273.62,-180 273.62,-144 327.62,-144 327.62,-180"/>
<text text-anchor="middle" x="300.62" y="-156.95" font-family="Times New Roman,serif" font-size="14.00">69</text>
<text text-anchor="middle" x="255.25" y="-183.2" font-family="Times New Roman,serif" font-size="14.00">(39)int</text>
</g>
<!-- n40&#45;&gt;n39 -->
<g id="edge22" class="edge">
<title>n40&#45;&gt;n39</title>
<path fill="none" stroke="black" d="M300.62,-215.7C300.62,-208.41 300.62,-199.73 300.62,-191.54"/>
<polygon fill="black" stroke="black" points="304.13,-191.62 300.63,-181.62 297.13,-191.62 304.13,-191.62"/>
</g>
<!-- n41 -->
<g id="node24" class="node">
<title>n41</title>
<polygon fill="none" stroke="black" points="403.62,-180 345.62,-180 345.62,-144 403.62,-144 403.62,-180"/>
<text text-anchor="middle" x="374.62" y="-156.95" font-family="Times New Roman,serif" font-size="14.00">number</text>
<text text-anchor="middle" x="327.25" y="-183.2" font-family="Times New Roman,serif" font-size="14.00">(41)int</text>
</g>
<!-- n43&#45;&gt;n41 -->
<g id="edge23" class="edge">
<title>n43&#45;&gt;n41</title>
<path fill="none" stroke="black" d="M375.38,-215.7C375.27,-208.41 375.15,-199.73 375.03,-191.54"/>
<polygon fill="black" stroke="black" points="378.53,-191.57 374.89,-181.62 371.53,-191.67 378.53,-191.57"/>
</g>
<!-- n42 -->
<g id="node25" class="node">
<title>n42</title>
<polygon fill="none" stroke="black" points="475.62,-180 421.62,-180 421.62,-144 475.62,-144 475.62,-180"/>
<text text-anchor="middle" x="448.62" y="-156.95" font-family="Times New Roman,serif" font-size="14.00">60</text>
<text text-anchor="middle" x="403.25" y="-183.2" font-family="Times New Roman,serif" font-size="14.00">(42)int</text>
</g>
<!-- n43&#45;&gt;n42 -->
<g id="edge24" class="edge">
<title>n43&#45;&gt;n42</title>
<path fill="none" stroke="black" d="M393.67,-215.7C402.36,-207.37 412.94,-197.22 422.48,-188.07"/>
<polygon fill="black" stroke="black" points="424.65,-190.84 429.44,-181.39 419.8,-185.79 424.65,-190.84"/>
</g>
<!-- n50 -->
<g id="node26" class="node">
<title>n50</title>
<polygon fill="none" stroke="black" points="547.62,-180 493.62,-180 493.62,-144 547.62,-144 547.62,-180"/>
<text text-anchor="middle" x="520.62" y="-156.95" font-family="Times New Roman,serif" font-size="14.00">&gt;=</text>
<text text-anchor="middle" x="459.88" y="-183.2" font-family="Times New Roman,serif" font-size="14.00">(50)Boolean</text>
</g>
<!-- n54&#45;&gt;n50 -->
<g id="edge25" class="edge">
<title>n54&#45;&gt;n50</title>
<path fill="none" stroke="black" d="M575.58,-215.7C566.89,-207.37 556.31,-197.22 546.77,-188.07"/>
<polygon fill="black" stroke="black" points="549.45,-185.79 539.81,-181.39 544.6,-190.84 549.45,-185.79"/>
</g>
<!-- n53 -->
<g id="node27" class="node">
<title>n53</title>
<polygon fill="none" stroke="black" points="620.62,-180 566.62,-180 566.62,-144 620.62,-144 620.62,-180"/>
<text text-anchor="middle" x="593.62" y="-156.95" font-family="Times New Roman,serif" font-size="14.00">&lt;=</text>
<text text-anchor="middle" x="532.88" y="-183.2" font-family="Times New Roman,serif" font-size="14.00">(53)Boolean</text>
</g>
<!-- n54&#45;&gt;n53 -->
<g id="edge26" class="edge">
<title>n54&#45;&gt;n53</title>
<path fill="none" stroke="black" d="M593.62,-215.7C593.62,-208.41 593.62,-199.73 593.62,-191.54"/>
<polygon fill="black" stroke="black" points="597.13,-191.62 593.63,-181.62 590.13,-191.62 597.13,-191.62"/>
</g>
<!-- n55 -->
<g id="node28" class="node">
<title>n55</title>
<polygon fill="none" stroke="black" points="692.62,-180 638.62,-180 638.62,-144 692.62,-144 692.62,-180"/>
<text text-anchor="middle" x="665.62" y="-156.95" font-family="Times New Roman,serif" font-size="14.00">result</text>
<text text-anchor="middle" x="610.88" y="-183.2" font-family="Times New Roman,serif" font-size="14.00">(55)String</text>
</g>
<!-- n57&#45;&gt;n55 -->
<g id="edge27" class="edge">
<title>n57&#45;&gt;n55</title>
<path fill="none" stroke="black" d="M665.62,-215.7C665.62,-208.41 665.62,-199.73 665.62,-191.54"/>
<polygon fill="black" stroke="black" points="669.13,-191.62 665.63,-181.62 662.13,-191.62 669.13,-191.62"/>
</g>
<!-- n56 -->
<g id="node29" class="node">
<title>n56</title>
<polygon fill="none" stroke="black" points="764.62,-180 710.62,-180 710.62,-144 764.62,-144 764.62,-180"/>
<text text-anchor="middle" x="737.62" y="-156.95" font-family="Times New Roman,serif" font-size="14.00">C</text>
<text text-anchor="middle" x="682.88" y="-183.2" font-family="Times New Roman,serif" font-size="14.00">(56)String</text>
</g>
<!-- n57&#45;&gt;n56 -->
<g id="edge28" class="edge">
<title>n57&#45;&gt;n56</title>
<path fill="none" stroke="black" d="M683.42,-215.7C691.9,-207.45 702.21,-197.43 711.56,-188.35"/>
<polygon fill="black" stroke="black" points="713.97,-190.88 718.7,-181.4 709.09,-185.86 713.97,-190.88"/>
</g>
<!-- n64 -->
<g id="node30" class="node">
<title>n64</title>
<polygon fill="none" stroke="black" points="839.62,-180 785.62,-180 785.62,-144 839.62,-144 839.62,-180"/>
<text text-anchor="middle" x="812.62" y="-156.95" font-family="Times New Roman,serif" font-size="14.00">and</text>
<text text-anchor="middle" x="751.88" y="-183.2" font-family="Times New Roman,serif" font-size="14.00">(64)Boolean</text>
</g>
<!-- n78&#45;&gt;n64 -->
<g id="edge29" class="edge">
<title>n78&#45;&gt;n64</title>
<path fill="none" stroke="black" d="M863.82,-215.7C855.75,-207.39 845.92,-197.28 837.05,-188.14"/>
<polygon fill="black" stroke="black" points="839.77,-185.92 830.3,-181.19 834.75,-190.8 839.77,-185.92"/>
</g>
<!-- n67 -->
<g id="node31" class="node">
<title>n67</title>
<polygon fill="none" stroke="black" points="911.62,-180 857.62,-180 857.62,-144 911.62,-144 911.62,-180"/>
<text text-anchor="middle" x="884.62" y="-156.95" font-family="Times New Roman,serif" font-size="14.00">=</text>
<text text-anchor="middle" x="823.88" y="-183.2" font-family="Times New Roman,serif" font-size="14.00">(67)Boolean</text>
</g>
<!-- n78&#45;&gt;n67 -->
<g id="edge30" class="edge">
<title>n78&#45;&gt;n67</title>
<path fill="none" stroke="black" d="M881.61,-215.7C882.03,-208.41 882.53,-199.73 882.99,-191.54"/>
<polygon fill="black" stroke="black" points="886.48,-191.8 883.56,-181.62 879.5,-191.4 886.48,-191.8"/>
</g>
<!-- n77 -->
<g id="node32" class="node">
<title>n77</title>
<polygon fill="none" stroke="black" points="1265.75,-180 935.5,-180 935.5,-144 1265.75,-144 1265.75,-180"/>
<text text-anchor="middle" x="1100.62" y="-156.95" font-family="Times New Roman,serif" font-size="14.00">IfExp ConditionNode:(70) thenNode: (73) elseNode: (76)</text>
<text text-anchor="middle" x="901.75" y="-183.2" font-family="Times New Roman,serif" font-size="14.00">(77)Boolean</text>
</g>
<!-- n78&#45;&gt;n77 -->
<g id="edge31" class="edge">
<title>n78&#45;&gt;n77</title>
<path fill="none" stroke="black" d="M935.57,-215.52C965.74,-205.92 1003.36,-193.95 1035.05,-183.86"/>
<polygon fill="black" stroke="black" points="1036.09,-187.21 1044.55,-180.84 1033.96,-180.54 1036.09,-187.21"/>
</g>
<!-- n48 -->
<g id="node33" class="node">
<title>n48</title>
<polygon fill="none" stroke="black" points="474.62,-108 416.62,-108 416.62,-72 474.62,-72 474.62,-108"/>
<text text-anchor="middle" x="445.62" y="-84.95" font-family="Times New Roman,serif" font-size="14.00">number</text>
<text text-anchor="middle" x="398.25" y="-111.2" font-family="Times New Roman,serif" font-size="14.00">(48)int</text>
</g>
<!-- n50&#45;&gt;n48 -->
<g id="edge32" class="edge">
<title>n50&#45;&gt;n48</title>
<path fill="none" stroke="black" d="M502.09,-143.7C493.16,-135.37 482.29,-125.22 472.48,-116.07"/>
<polygon fill="black" stroke="black" points="475.02,-113.64 465.32,-109.38 470.24,-118.76 475.02,-113.64"/>
</g>
<!-- n49 -->
<g id="node34" class="node">
<title>n49</title>
<polygon fill="none" stroke="black" points="546.62,-108 492.62,-108 492.62,-72 546.62,-72 546.62,-108"/>
<text text-anchor="middle" x="519.62" y="-84.95" font-family="Times New Roman,serif" font-size="14.00">70</text>
<text text-anchor="middle" x="474.25" y="-111.2" font-family="Times New Roman,serif" font-size="14.00">(49)int</text>
</g>
<!-- n50&#45;&gt;n49 -->
<g id="edge33" class="edge">
<title>n50&#45;&gt;n49</title>
<path fill="none" stroke="black" d="M520.38,-143.7C520.27,-136.41 520.15,-127.73 520.03,-119.54"/>
<polygon fill="black" stroke="black" points="523.53,-119.57 519.89,-109.62 516.53,-119.67 523.53,-119.57"/>
</g>
<!-- n51 -->
<g id="node35" class="node">
<title>n51</title>
<polygon fill="none" stroke="black" points="622.62,-108 564.62,-108 564.62,-72 622.62,-72 622.62,-108"/>
<text text-anchor="middle" x="593.62" y="-84.95" font-family="Times New Roman,serif" font-size="14.00">number</text>
<text text-anchor="middle" x="546.25" y="-111.2" font-family="Times New Roman,serif" font-size="14.00">(51)int</text>
</g>
<!-- n53&#45;&gt;n51 -->
<g id="edge34" class="edge">
<title>n53&#45;&gt;n51</title>
<path fill="none" stroke="black" d="M593.62,-143.7C593.62,-136.41 593.62,-127.73 593.62,-119.54"/>
<polygon fill="black" stroke="black" points="597.13,-119.62 593.63,-109.62 590.13,-119.62 597.13,-119.62"/>
</g>
<!-- n52 -->
<g id="node36" class="node">
<title>n52</title>
<polygon fill="none" stroke="black" points="694.62,-108 640.62,-108 640.62,-72 694.62,-72 694.62,-108"/>
<text text-anchor="middle" x="667.62" y="-84.95" font-family="Times New Roman,serif" font-size="14.00">79</text>
<text text-anchor="middle" x="622.25" y="-111.2" font-family="Times New Roman,serif" font-size="14.00">(52)int</text>
</g>
<!-- n53&#45;&gt;n52 -->
<g id="edge35" class="edge">
<title>n53&#45;&gt;n52</title>
<path fill="none" stroke="black" d="M611.92,-143.7C620.72,-135.37 631.45,-125.22 641.12,-116.07"/>
<polygon fill="black" stroke="black" points="643.33,-118.8 648.19,-109.39 638.52,-113.72 643.33,-118.8"/>
</g>
<!-- n60 -->
<g id="node37" class="node">
<title>n60</title>
<polygon fill="none" stroke="black" points="766.62,-108 712.62,-108 712.62,-72 766.62,-72 766.62,-108"/>
<text text-anchor="middle" x="739.62" y="-84.95" font-family="Times New Roman,serif" font-size="14.00">&gt;=</text>
<text text-anchor="middle" x="678.88" y="-111.2" font-family="Times New Roman,serif" font-size="14.00">(60)Boolean</text>
</g>
<!-- n64&#45;&gt;n60 -->
<g id="edge36" class="edge">
<title>n64&#45;&gt;n60</title>
<path fill="none" stroke="black" d="M794.58,-143.7C785.89,-135.37 775.31,-125.22 765.77,-116.07"/>
<polygon fill="black" stroke="black" points="768.45,-113.79 758.81,-109.39 763.6,-118.84 768.45,-113.79"/>
</g>
<!-- n63 -->
<g id="node38" class="node">
<title>n63</title>
<polygon fill="none" stroke="black" points="839.62,-108 785.62,-108 785.62,-72 839.62,-72 839.62,-108"/>
<text text-anchor="middle" x="812.62" y="-84.95" font-family="Times New Roman,serif" font-size="14.00">&lt;=</text>
<text text-anchor="middle" x="751.88" y="-111.2" font-family="Times New Roman,serif" font-size="14.00">(63)Boolean</text>
</g>
<!-- n64&#45;&gt;n63 -->
<g id="edge37" class="edge">
<title>n64&#45;&gt;n63</title>
<path fill="none" stroke="black" d="M812.62,-143.7C812.62,-136.41 812.62,-127.73 812.62,-119.54"/>
<polygon fill="black" stroke="black" points="816.13,-119.62 812.63,-109.62 809.13,-119.62 816.13,-119.62"/>
</g>
<!-- n65 -->
<g id="node39" class="node">
<title>n65</title>
<polygon fill="none" stroke="black" points="911.62,-108 857.62,-108 857.62,-72 911.62,-72 911.62,-108"/>
<text text-anchor="middle" x="884.62" y="-84.95" font-family="Times New Roman,serif" font-size="14.00">result</text>
<text text-anchor="middle" x="829.88" y="-111.2" font-family="Times New Roman,serif" font-size="14.00">(65)String</text>
</g>
<!-- n67&#45;&gt;n65 -->
<g id="edge38" class="edge">
<title>n67&#45;&gt;n65</title>
<path fill="none" stroke="black" d="M884.62,-143.7C884.62,-136.41 884.62,-127.73 884.62,-119.54"/>
<polygon fill="black" stroke="black" points="888.13,-119.62 884.63,-109.62 881.13,-119.62 888.13,-119.62"/>
</g>
<!-- n66 -->
<g id="node40" class="node">
<title>n66</title>
<polygon fill="none" stroke="black" points="983.62,-108 929.62,-108 929.62,-72 983.62,-72 983.62,-108"/>
<text text-anchor="middle" x="956.62" y="-84.95" font-family="Times New Roman,serif" font-size="14.00">B</text>
<text text-anchor="middle" x="901.88" y="-111.2" font-family="Times New Roman,serif" font-size="14.00">(66)String</text>
</g>
<!-- n67&#45;&gt;n66 -->
<g id="edge39" class="edge">
<title>n67&#45;&gt;n66</title>
<path fill="none" stroke="black" d="M902.42,-143.7C910.9,-135.45 921.21,-125.43 930.56,-116.35"/>
<polygon fill="black" stroke="black" points="932.97,-118.88 937.7,-109.4 928.09,-113.86 932.97,-118.88"/>
</g>
<!-- n70 -->
<g id="node41" class="node">
<title>n70</title>
<polygon fill="none" stroke="black" points="1061.62,-108 1007.62,-108 1007.62,-72 1061.62,-72 1061.62,-108"/>
<text text-anchor="middle" x="1034.62" y="-84.95" font-family="Times New Roman,serif" font-size="14.00">&gt;=</text>
<text text-anchor="middle" x="973.88" y="-111.2" font-family="Times New Roman,serif" font-size="14.00">(70)Boolean</text>
</g>
<!-- n77&#45;&gt;n70 -->
<g id="edge40" class="edge">
<title>n77&#45;&gt;n70</title>
<path fill="none" stroke="black" d="M1084.31,-143.7C1076.56,-135.47 1067.14,-125.48 1058.59,-116.42"/>
<polygon fill="black" stroke="black" points="1061.2,-114.08 1051.79,-109.21 1056.1,-118.88 1061.2,-114.08"/>
</g>
<!-- n73 -->
<g id="node42" class="node">
<title>n73</title>
<polygon fill="none" stroke="black" points="1133.62,-108 1079.62,-108 1079.62,-72 1133.62,-72 1133.62,-108"/>
<text text-anchor="middle" x="1106.62" y="-84.95" font-family="Times New Roman,serif" font-size="14.00">=</text>
<text text-anchor="middle" x="1045.88" y="-111.2" font-family="Times New Roman,serif" font-size="14.00">(73)Boolean</text>
</g>
<!-- n77&#45;&gt;n73 -->
<g id="edge41" class="edge">
<title>n77&#45;&gt;n73</title>
<path fill="none" stroke="black" d="M1102.11,-143.7C1102.73,-136.41 1103.48,-127.73 1104.18,-119.54"/>
<polygon fill="black" stroke="black" points="1107.66,-119.87 1105.03,-109.61 1100.69,-119.28 1107.66,-119.87"/>
</g>
<!-- n76 -->
<g id="node43" class="node">
<title>n76</title>
<polygon fill="none" stroke="black" points="1277.62,-108 1223.62,-108 1223.62,-72 1277.62,-72 1277.62,-108"/>
<text text-anchor="middle" x="1250.62" y="-84.95" font-family="Times New Roman,serif" font-size="14.00">=</text>
<text text-anchor="middle" x="1189.88" y="-111.2" font-family="Times New Roman,serif" font-size="14.00">(76)Boolean</text>
</g>
<!-- n77&#45;&gt;n76 -->
<g id="edge42" class="edge">
<title>n77&#45;&gt;n76</title>
<path fill="none" stroke="black" d="M1138.09,-143.52C1161.01,-132.82 1190.24,-119.18 1213.16,-108.48"/>
<polygon fill="black" stroke="black" points="1214.57,-111.69 1222.16,-104.29 1211.61,-105.34 1214.57,-111.69"/>
</g>
<!-- n58 -->
<g id="node44" class="node">
<title>n58</title>
<polygon fill="none" stroke="black" points="693.62,-36 635.62,-36 635.62,0 693.62,0 693.62,-36"/>
<text text-anchor="middle" x="664.62" y="-12.95" font-family="Times New Roman,serif" font-size="14.00">number</text>
<text text-anchor="middle" x="617.25" y="-39.2" font-family="Times New Roman,serif" font-size="14.00">(58)int</text>
</g>
<!-- n60&#45;&gt;n58 -->
<g id="edge43" class="edge">
<title>n60&#45;&gt;n58</title>
<path fill="none" stroke="black" d="M721.09,-71.7C712.16,-63.37 701.29,-53.22 691.48,-44.07"/>
<polygon fill="black" stroke="black" points="694.02,-41.64 684.32,-37.38 689.24,-46.76 694.02,-41.64"/>
</g>
<!-- n59 -->
<g id="node45" class="node">
<title>n59</title>
<polygon fill="none" stroke="black" points="765.62,-36 711.62,-36 711.62,0 765.62,0 765.62,-36"/>
<text text-anchor="middle" x="738.62" y="-12.95" font-family="Times New Roman,serif" font-size="14.00">80</text>
<text text-anchor="middle" x="693.25" y="-39.2" font-family="Times New Roman,serif" font-size="14.00">(59)int</text>
</g>
<!-- n60&#45;&gt;n59 -->
<g id="edge44" class="edge">
<title>n60&#45;&gt;n59</title>
<path fill="none" stroke="black" d="M739.38,-71.7C739.27,-64.41 739.15,-55.73 739.03,-47.54"/>
<polygon fill="black" stroke="black" points="742.53,-47.57 738.89,-37.62 735.53,-47.67 742.53,-47.57"/>
</g>
<!-- n61 -->
<g id="node46" class="node">
<title>n61</title>
<polygon fill="none" stroke="black" points="841.62,-36 783.62,-36 783.62,0 841.62,0 841.62,-36"/>
<text text-anchor="middle" x="812.62" y="-12.95" font-family="Times New Roman,serif" font-size="14.00">number</text>
<text text-anchor="middle" x="765.25" y="-39.2" font-family="Times New Roman,serif" font-size="14.00">(61)int</text>
</g>
<!-- n63&#45;&gt;n61 -->
<g id="edge45" class="edge">
<title>n63&#45;&gt;n61</title>
<path fill="none" stroke="black" d="M812.62,-71.7C812.62,-64.41 812.62,-55.73 812.62,-47.54"/>
<polygon fill="black" stroke="black" points="816.13,-47.62 812.63,-37.62 809.13,-47.62 816.13,-47.62"/>
</g>
<!-- n62 -->
<g id="node47" class="node">
<title>n62</title>
<polygon fill="none" stroke="black" points="913.62,-36 859.62,-36 859.62,0 913.62,0 913.62,-36"/>
<text text-anchor="middle" x="886.62" y="-12.95" font-family="Times New Roman,serif" font-size="14.00">89</text>
<text text-anchor="middle" x="841.25" y="-39.2" font-family="Times New Roman,serif" font-size="14.00">(62)int</text>
</g>
<!-- n63&#45;&gt;n62 -->
<g id="edge46" class="edge">
<title>n63&#45;&gt;n62</title>
<path fill="none" stroke="black" d="M830.92,-71.7C839.72,-63.37 850.45,-53.22 860.12,-44.07"/>
<polygon fill="black" stroke="black" points="862.33,-46.8 867.19,-37.39 857.52,-41.72 862.33,-46.8"/>
</g>
<!-- n68 -->
<g id="node48" class="node">
<title>n68</title>
<polygon fill="none" stroke="black" points="989.62,-36 931.62,-36 931.62,0 989.62,0 989.62,-36"/>
<text text-anchor="middle" x="960.62" y="-12.95" font-family="Times New Roman,serif" font-size="14.00">number</text>
<text text-anchor="middle" x="913.25" y="-39.2" font-family="Times New Roman,serif" font-size="14.00">(68)int</text>
</g>
<!-- n70&#45;&gt;n68 -->
<g id="edge47" class="edge">
<title>n70&#45;&gt;n68</title>
<path fill="none" stroke="black" d="M1016.33,-71.7C1007.53,-63.37 996.8,-53.22 987.13,-44.07"/>
<polygon fill="black" stroke="black" points="989.73,-41.72 980.06,-37.39 984.92,-46.8 989.73,-41.72"/>
</g>
<!-- n69 -->
<g id="node49" class="node">
<title>n69</title>
<polygon fill="none" stroke="black" points="1061.62,-36 1007.62,-36 1007.62,0 1061.62,0 1061.62,-36"/>
<text text-anchor="middle" x="1034.62" y="-12.95" font-family="Times New Roman,serif" font-size="14.00">90</text>
<text text-anchor="middle" x="989.25" y="-39.2" font-family="Times New Roman,serif" font-size="14.00">(69)int</text>
</g>
<!-- n70&#45;&gt;n69 -->
<g id="edge48" class="edge">
<title>n70&#45;&gt;n69</title>
<path fill="none" stroke="black" d="M1034.62,-71.7C1034.62,-64.41 1034.62,-55.73 1034.62,-47.54"/>
<polygon fill="black" stroke="black" points="1038.13,-47.62 1034.63,-37.62 1031.13,-47.62 1038.13,-47.62"/>
</g>
<!-- n71 -->
<g id="node50" class="node">
<title>n71</title>
<polygon fill="none" stroke="black" points="1133.62,-36 1079.62,-36 1079.62,0 1133.62,0 1133.62,-36"/>
<text text-anchor="middle" x="1106.62" y="-12.95" font-family="Times New Roman,serif" font-size="14.00">result</text>
<text text-anchor="middle" x="1051.88" y="-39.2" font-family="Times New Roman,serif" font-size="14.00">(71)String</text>
</g>
<!-- n73&#45;&gt;n71 -->
<g id="edge49" class="edge">
<title>n73&#45;&gt;n71</title>
<path fill="none" stroke="black" d="M1106.62,-71.7C1106.62,-64.41 1106.62,-55.73 1106.62,-47.54"/>
<polygon fill="black" stroke="black" points="1110.13,-47.62 1106.63,-37.62 1103.13,-47.62 1110.13,-47.62"/>
</g>
<!-- n72 -->
<g id="node51" class="node">
<title>n72</title>
<polygon fill="none" stroke="black" points="1205.62,-36 1151.62,-36 1151.62,0 1205.62,0 1205.62,-36"/>
<text text-anchor="middle" x="1178.62" y="-12.95" font-family="Times New Roman,serif" font-size="14.00">A</text>
<text text-anchor="middle" x="1123.88" y="-39.2" font-family="Times New Roman,serif" font-size="14.00">(72)String</text>
</g>
<!-- n73&#45;&gt;n72 -->
<g id="edge50" class="edge">
<title>n73&#45;&gt;n72</title>
<path fill="none" stroke="black" d="M1124.42,-71.7C1132.9,-63.45 1143.21,-53.43 1152.56,-44.35"/>
<polygon fill="black" stroke="black" points="1154.97,-46.88 1159.7,-37.4 1150.09,-41.86 1154.97,-46.88"/>
</g>
<!-- n74 -->
<g id="node52" class="node">
<title>n74</title>
<polygon fill="none" stroke="black" points="1277.62,-36 1223.62,-36 1223.62,0 1277.62,0 1277.62,-36"/>
<text text-anchor="middle" x="1250.62" y="-12.95" font-family="Times New Roman,serif" font-size="14.00">result</text>
<text text-anchor="middle" x="1195.88" y="-39.2" font-family="Times New Roman,serif" font-size="14.00">(74)String</text>
</g>
<!-- n76&#45;&gt;n74 -->
<g id="edge51" class="edge">
<title>n76&#45;&gt;n74</title>
<path fill="none" stroke="black" d="M1250.62,-71.7C1250.62,-64.41 1250.62,-55.73 1250.62,-47.54"/>
<polygon fill="black" stroke="black" points="1254.13,-47.62 1250.63,-37.62 1247.13,-47.62 1254.13,-47.62"/>
</g>
<!-- n75 -->
<g id="node53" class="node">
<title>n75</title>
<polygon fill="none" stroke="black" points="1349.62,-36 1295.62,-36 1295.62,0 1349.62,0 1349.62,-36"/>
<text text-anchor="middle" x="1322.62" y="-12.95" font-family="Times New Roman,serif" font-size="14.00">B</text>
<text text-anchor="middle" x="1267.88" y="-39.2" font-family="Times New Roman,serif" font-size="14.00">(75)String</text>
</g>
<!-- n76&#45;&gt;n75 -->
<g id="edge52" class="edge">
<title>n76&#45;&gt;n75</title>
<path fill="none" stroke="black" d="M1268.42,-71.7C1276.9,-63.45 1287.21,-53.43 1296.56,-44.35"/>
<polygon fill="black" stroke="black" points="1298.97,-46.88 1303.7,-37.4 1294.09,-41.86 1298.97,-46.88"/>
</g>
</g>
</svg>
