<?xml version="1.0" encoding="UTF-8" standalone="no"?>
<!DOCTYPE svg PUBLIC "-//W3C//DTD SVG 1.1//EN"
 "http://www.w3.org/Graphics/SVG/1.1/DTD/svg11.dtd">
<!-- Generated by graphviz version 12.2.1 (20241206.2353)
 -->
<!-- Title: AST Pages: 1 -->
<svg width="369pt" height="421pt"
 viewBox="0.00 0.00 368.75 420.50" xmlns="http://www.w3.org/2000/svg" xmlns:xlink="http://www.w3.org/1999/xlink">
<g id="graph0" class="graph" transform="scale(1 1) rotate(0) translate(4 416.5)">
<title>AST</title>
<polygon fill="white" stroke="none" points="-4,4 -4,-416.5 364.75,-416.5 364.75,4 -4,4"/>
<!-- n11 -->
<g id="node1" class="node">
<title>n11</title>
<polygon fill="none" stroke="black" points="288.88,-396 48.62,-396 48.62,-360 288.88,-360 288.88,-396"/>
<text text-anchor="middle" x="168.75" y="-372.95" font-family="Times New Roman,serif" font-size="14.00">ContextDecl: node(0) Context: node (10)</text>
<text text-anchor="middle" x="37.38" y="-399.2" font-family="Times New Roman,serif" font-size="14.00">(11)</text>
</g>
<!-- n0 -->
<g id="node2" class="node">
<title>n0</title>
<polygon fill="none" stroke="black" points="159.75,-324 105.75,-324 105.75,-288 159.75,-288 159.75,-324"/>
<text text-anchor="middle" x="132.75" y="-300.95" font-family="Times New Roman,serif" font-size="14.00">Grade</text>
<text text-anchor="middle" x="97.88" y="-327.2" font-family="Times New Roman,serif" font-size="14.00">(0)</text>
</g>
<!-- n11&#45;&gt;n0 -->
<g id="edge1" class="edge">
<title>n11&#45;&gt;n0</title>
<path fill="none" stroke="black" d="M159.85,-359.7C155.88,-351.98 151.12,-342.71 146.69,-334.11"/>
<polygon fill="black" stroke="black" points="149.92,-332.74 142.24,-325.45 143.7,-335.94 149.92,-332.74"/>
</g>
<!-- n10 -->
<g id="node3" class="node">
<title>n10</title>
<polygon fill="none" stroke="black" points="231.75,-324 177.75,-324 177.75,-288 231.75,-288 231.75,-324"/>
<text text-anchor="middle" x="204.75" y="-300.95" font-family="Times New Roman,serif" font-size="14.00"> inv:</text>
<text text-anchor="middle" x="144" y="-327.2" font-family="Times New Roman,serif" font-size="14.00">(10)Boolean</text>
</g>
<!-- n11&#45;&gt;n10 -->
<g id="edge2" class="edge">
<title>n11&#45;&gt;n10</title>
<path fill="none" stroke="black" d="M177.65,-359.7C181.62,-351.98 186.38,-342.71 190.81,-334.11"/>
<polygon fill="black" stroke="black" points="193.8,-335.94 195.26,-325.45 187.58,-332.74 193.8,-335.94"/>
</g>
<!-- n9 -->
<g id="node4" class="node">
<title>n9</title>
<polygon fill="none" stroke="black" points="231.75,-252 177.75,-252 177.75,-216 231.75,-216 231.75,-252"/>
<text text-anchor="middle" x="204.75" y="-228.95" font-family="Times New Roman,serif" font-size="14.00">and</text>
<text text-anchor="middle" x="147.38" y="-255.2" font-family="Times New Roman,serif" font-size="14.00">(9)Boolean</text>
</g>
<!-- n10&#45;&gt;n9 -->
<g id="edge3" class="edge">
<title>n10&#45;&gt;n9</title>
<path fill="none" stroke="black" d="M204.75,-287.7C204.75,-280.41 204.75,-271.73 204.75,-263.54"/>
<polygon fill="black" stroke="black" points="208.25,-263.62 204.75,-253.62 201.25,-263.62 208.25,-263.62"/>
</g>
<!-- n4 -->
<g id="node5" class="node">
<title>n4</title>
<polygon fill="none" stroke="black" points="188.75,-180 134.75,-180 134.75,-144 188.75,-144 188.75,-180"/>
<text text-anchor="middle" x="161.75" y="-156.95" font-family="Times New Roman,serif" font-size="14.00">&gt;=</text>
<text text-anchor="middle" x="104.38" y="-183.2" font-family="Times New Roman,serif" font-size="14.00">(4)Boolean</text>
</g>
<!-- n9&#45;&gt;n4 -->
<g id="edge4" class="edge">
<title>n9&#45;&gt;n4</title>
<path fill="none" stroke="black" d="M194.12,-215.7C189.33,-207.9 183.56,-198.51 178.23,-189.83"/>
<polygon fill="black" stroke="black" points="181.27,-188.08 173.05,-181.39 175.3,-191.75 181.27,-188.08"/>
</g>
<!-- n8 -->
<g id="node6" class="node">
<title>n8</title>
<polygon fill="none" stroke="black" points="274.75,-180 220.75,-180 220.75,-144 274.75,-144 274.75,-180"/>
<text text-anchor="middle" x="247.75" y="-156.95" font-family="Times New Roman,serif" font-size="14.00">&lt;=</text>
<text text-anchor="middle" x="190.38" y="-183.2" font-family="Times New Roman,serif" font-size="14.00">(8)Boolean</text>
</g>
<!-- n9&#45;&gt;n8 -->
<g id="edge5" class="edge">
<title>n9&#45;&gt;n8</title>
<path fill="none" stroke="black" d="M215.38,-215.7C220.17,-207.9 225.94,-198.51 231.27,-189.83"/>
<polygon fill="black" stroke="black" points="234.2,-191.75 236.45,-181.39 228.23,-188.08 234.2,-191.75"/>
</g>
<!-- n2 -->
<g id="node7" class="node">
<title>n2</title>
<polygon fill="none" stroke="black" points="116.38,-108 35.12,-108 35.12,-72 116.38,-72 116.38,-108"/>
<text text-anchor="middle" x="75.75" y="-84.95" font-family="Times New Roman,serif" font-size="14.00">self.number</text>
<text text-anchor="middle" x="20.12" y="-111.2" font-family="Times New Roman,serif" font-size="14.00">(2)int</text>
</g>
<!-- n4&#45;&gt;n2 -->
<g id="edge6" class="edge">
<title>n4&#45;&gt;n2</title>
<path fill="none" stroke="black" d="M140.49,-143.7C130.05,-135.2 117.29,-124.81 105.87,-115.51"/>
<polygon fill="black" stroke="black" points="108.2,-112.9 98.24,-109.3 103.78,-118.33 108.2,-112.9"/>
</g>
<!-- n3 -->
<g id="node8" class="node">
<title>n3</title>
<polygon fill="none" stroke="black" points="188.75,-108 134.75,-108 134.75,-72 188.75,-72 188.75,-108"/>
<text text-anchor="middle" x="161.75" y="-84.95" font-family="Times New Roman,serif" font-size="14.00">0</text>
<text text-anchor="middle" x="119.75" y="-111.2" font-family="Times New Roman,serif" font-size="14.00">(3)int</text>
</g>
<!-- n4&#45;&gt;n3 -->
<g id="edge7" class="edge">
<title>n4&#45;&gt;n3</title>
<path fill="none" stroke="black" d="M161.75,-143.7C161.75,-136.41 161.75,-127.73 161.75,-119.54"/>
<polygon fill="black" stroke="black" points="165.25,-119.62 161.75,-109.62 158.25,-119.62 165.25,-119.62"/>
</g>
<!-- n6 -->
<g id="node9" class="node">
<title>n6</title>
<polygon fill="none" stroke="black" points="288.38,-108 207.12,-108 207.12,-72 288.38,-72 288.38,-108"/>
<text text-anchor="middle" x="247.75" y="-84.95" font-family="Times New Roman,serif" font-size="14.00">self.number</text>
<text text-anchor="middle" x="192.12" y="-111.2" font-family="Times New Roman,serif" font-size="14.00">(6)int</text>
</g>
<!-- n8&#45;&gt;n6 -->
<g id="edge8" class="edge">
<title>n8&#45;&gt;n6</title>
<path fill="none" stroke="black" d="M247.75,-143.7C247.75,-136.41 247.75,-127.73 247.75,-119.54"/>
<polygon fill="black" stroke="black" points="251.25,-119.62 247.75,-109.62 244.25,-119.62 251.25,-119.62"/>
</g>
<!-- n7 -->
<g id="node10" class="node">
<title>n7</title>
<polygon fill="none" stroke="black" points="360.75,-108 306.75,-108 306.75,-72 360.75,-72 360.75,-108"/>
<text text-anchor="middle" x="333.75" y="-84.95" font-family="Times New Roman,serif" font-size="14.00">100</text>
<text text-anchor="middle" x="291.75" y="-111.2" font-family="Times New Roman,serif" font-size="14.00">(7)int</text>
</g>
<!-- n8&#45;&gt;n7 -->
<g id="edge9" class="edge">
<title>n8&#45;&gt;n7</title>
<path fill="none" stroke="black" d="M269.01,-143.7C279.45,-135.2 292.21,-124.81 303.63,-115.51"/>
<polygon fill="black" stroke="black" points="305.72,-118.33 311.26,-109.3 301.3,-112.9 305.72,-118.33"/>
</g>
<!-- n1 -->
<g id="node11" class="node">
<title>n1</title>
<polygon fill="none" stroke="black" points="102.75,-36 48.75,-36 48.75,0 102.75,0 102.75,-36"/>
<text text-anchor="middle" x="75.75" y="-12.95" font-family="Times New Roman,serif" font-size="14.00">self</text>
<text text-anchor="middle" x="24.38" y="-39.2" font-family="Times New Roman,serif" font-size="14.00">(1)Grade</text>
</g>
<!-- n2&#45;&gt;n1 -->
<g id="edge10" class="edge">
<title>n2&#45;&gt;n1</title>
<path fill="none" stroke="black" d="M75.75,-71.7C75.75,-64.41 75.75,-55.73 75.75,-47.54"/>
<polygon fill="black" stroke="black" points="79.25,-47.62 75.75,-37.62 72.25,-47.62 79.25,-47.62"/>
</g>
<!-- n5 -->
<g id="node12" class="node">
<title>n5</title>
<polygon fill="none" stroke="black" points="274.75,-36 220.75,-36 220.75,0 274.75,0 274.75,-36"/>
<text text-anchor="middle" x="247.75" y="-12.95" font-family="Times New Roman,serif" font-size="14.00">self</text>
<text text-anchor="middle" x="196.38" y="-39.2" font-family="Times New Roman,serif" font-size="14.00">(5)Grade</text>
</g>
<!-- n6&#45;&gt;n5 -->
<g id="edge11" class="edge">
<title>n6&#45;&gt;n5</title>
<path fill="none" stroke="black" d="M247.75,-71.7C247.75,-64.41 247.75,-55.73 247.75,-47.54"/>
<polygon fill="black" stroke="black" points="251.25,-47.62 247.75,-37.62 244.25,-47.62 251.25,-47.62"/>
</g>
</g>
</svg>
