<?xml version="1.0" encoding="UTF-8" standalone="no"?>
<!DOCTYPE svg PUBLIC "-//W3C//DTD SVG 1.1//EN"
 "http://www.w3.org/Graphics/SVG/1.1/DTD/svg11.dtd">
<!-- Generated by graphviz version 12.2.1 (20241206.2353)
 -->
<!-- Title: AST Pages: 1 -->
<svg width="874pt" height="565pt"
 viewBox="0.00 0.00 874.38 564.50" xmlns="http://www.w3.org/2000/svg" xmlns:xlink="http://www.w3.org/1999/xlink">
<g id="graph0" class="graph" transform="scale(1 1) rotate(0) translate(4 560.5)">
<title>AST</title>
<polygon fill="white" stroke="none" points="-4,4 -4,-560.5 870.38,-560.5 870.38,4 -4,4"/>
<!-- n22 -->
<g id="node1" class="node">
<title>n22</title>
<polygon fill="none" stroke="black" points="699.5,-540 459.25,-540 459.25,-504 699.5,-504 699.5,-540"/>
<text text-anchor="middle" x="579.38" y="-516.95" font-family="Times New Roman,serif" font-size="14.00">ContextDecl: node(0) Context: node (21)</text>
<text text-anchor="middle" x="448" y="-543.2" font-family="Times New Roman,serif" font-size="14.00">(22)</text>
</g>
<!-- n0 -->
<g id="node2" class="node">
<title>n0</title>
<polygon fill="none" stroke="black" points="587.62,-468 465.12,-468 465.12,-432 587.62,-432 587.62,-468"/>
<text text-anchor="middle" x="526.38" y="-444.95" font-family="Times New Roman,serif" font-size="14.00">ThreeDimVarArray</text>
<text text-anchor="middle" x="457.25" y="-471.2" font-family="Times New Roman,serif" font-size="14.00">(0)</text>
</g>
<!-- n22&#45;&gt;n0 -->
<g id="edge1" class="edge">
<title>n22&#45;&gt;n0</title>
<path fill="none" stroke="black" d="M566.27,-503.7C560.24,-495.73 552.95,-486.1 546.26,-477.26"/>
<polygon fill="black" stroke="black" points="549.07,-475.17 540.24,-469.31 543.49,-479.4 549.07,-475.17"/>
</g>
<!-- n21 -->
<g id="node3" class="node">
<title>n21</title>
<polygon fill="none" stroke="black" points="659.38,-468 605.38,-468 605.38,-432 659.38,-432 659.38,-468"/>
<text text-anchor="middle" x="632.38" y="-444.95" font-family="Times New Roman,serif" font-size="14.00"> inv:</text>
<text text-anchor="middle" x="571.62" y="-471.2" font-family="Times New Roman,serif" font-size="14.00">(21)Boolean</text>
</g>
<!-- n22&#45;&gt;n21 -->
<g id="edge2" class="edge">
<title>n22&#45;&gt;n21</title>
<path fill="none" stroke="black" d="M592.48,-503.7C598.51,-495.73 605.8,-486.1 612.49,-477.26"/>
<polygon fill="black" stroke="black" points="615.26,-479.4 618.51,-469.31 609.68,-475.17 615.26,-479.4"/>
</g>
<!-- n20 -->
<g id="node4" class="node">
<title>n20</title>
<polygon fill="none" stroke="black" points="659.38,-396 605.38,-396 605.38,-360 659.38,-360 659.38,-396"/>
<text text-anchor="middle" x="632.38" y="-372.95" font-family="Times New Roman,serif" font-size="14.00">and</text>
<text text-anchor="middle" x="571.62" y="-399.2" font-family="Times New Roman,serif" font-size="14.00">(20)Boolean</text>
</g>
<!-- n21&#45;&gt;n20 -->
<g id="edge3" class="edge">
<title>n21&#45;&gt;n20</title>
<path fill="none" stroke="black" d="M632.38,-431.7C632.38,-424.41 632.38,-415.73 632.38,-407.54"/>
<polygon fill="black" stroke="black" points="635.88,-407.62 632.38,-397.62 628.88,-407.62 635.88,-407.62"/>
</g>
<!-- n13 -->
<g id="node5" class="node">
<title>n13</title>
<polygon fill="none" stroke="black" points="552.38,-324 498.38,-324 498.38,-288 552.38,-288 552.38,-324"/>
<text text-anchor="middle" x="525.38" y="-300.95" font-family="Times New Roman,serif" font-size="14.00">and</text>
<text text-anchor="middle" x="464.62" y="-327.2" font-family="Times New Roman,serif" font-size="14.00">(13)Boolean</text>
</g>
<!-- n20&#45;&gt;n13 -->
<g id="edge4" class="edge">
<title>n20&#45;&gt;n13</title>
<path fill="none" stroke="black" d="M605.65,-359.52C592.14,-350.68 575.57,-339.84 561,-330.3"/>
<polygon fill="black" stroke="black" points="563.31,-327.63 553.03,-325.09 559.48,-333.49 563.31,-327.63"/>
</g>
<!-- n19 -->
<g id="node6" class="node">
<title>n19</title>
<polygon fill="none" stroke="black" points="728.38,-324 674.38,-324 674.38,-288 728.38,-288 728.38,-324"/>
<text text-anchor="middle" x="701.38" y="-300.95" font-family="Times New Roman,serif" font-size="14.00">&gt;</text>
<text text-anchor="middle" x="640.62" y="-327.2" font-family="Times New Roman,serif" font-size="14.00">(19)Boolean</text>
</g>
<!-- n20&#45;&gt;n19 -->
<g id="edge5" class="edge">
<title>n20&#45;&gt;n19</title>
<path fill="none" stroke="black" d="M649.43,-359.7C657.62,-351.39 667.59,-341.28 676.59,-332.14"/>
<polygon fill="black" stroke="black" points="678.93,-334.76 683.45,-325.18 673.94,-329.85 678.93,-334.76"/>
</g>
<!-- n6 -->
<g id="node7" class="node">
<title>n6</title>
<polygon fill="none" stroke="black" points="376.38,-252 322.38,-252 322.38,-216 376.38,-216 376.38,-252"/>
<text text-anchor="middle" x="349.38" y="-228.95" font-family="Times New Roman,serif" font-size="14.00">&gt;</text>
<text text-anchor="middle" x="292" y="-255.2" font-family="Times New Roman,serif" font-size="14.00">(6)Boolean</text>
</g>
<!-- n13&#45;&gt;n6 -->
<g id="edge6" class="edge">
<title>n13&#45;&gt;n6</title>
<path fill="none" stroke="black" d="M497.88,-294.06C468.17,-282.25 420.63,-263.34 387.37,-250.11"/>
<polygon fill="black" stroke="black" points="388.67,-246.86 378.09,-246.42 386.09,-253.37 388.67,-246.86"/>
</g>
<!-- n12 -->
<g id="node8" class="node">
<title>n12</title>
<polygon fill="none" stroke="black" points="552.38,-252 498.38,-252 498.38,-216 552.38,-216 552.38,-252"/>
<text text-anchor="middle" x="525.38" y="-228.95" font-family="Times New Roman,serif" font-size="14.00">&gt;</text>
<text text-anchor="middle" x="464.62" y="-255.2" font-family="Times New Roman,serif" font-size="14.00">(12)Boolean</text>
</g>
<!-- n13&#45;&gt;n12 -->
<g id="edge7" class="edge">
<title>n13&#45;&gt;n12</title>
<path fill="none" stroke="black" d="M525.38,-287.7C525.38,-280.41 525.38,-271.73 525.38,-263.54"/>
<polygon fill="black" stroke="black" points="528.88,-263.62 525.38,-253.62 521.88,-263.62 528.88,-263.62"/>
</g>
<!-- n17 -->
<g id="node9" class="node">
<title>n17</title>
<polygon fill="none" stroke="black" points="794.5,-252 608.25,-252 608.25,-216 794.5,-216 794.5,-252"/>
<text text-anchor="middle" x="701.38" y="-228.95" font-family="Times New Roman,serif" font-size="14.00">self.data.getDimensionSizes(3)</text>
<text text-anchor="middle" x="589.88" y="-255.2" font-family="Times New Roman,serif" font-size="14.00">(17)int</text>
</g>
<!-- n19&#45;&gt;n17 -->
<g id="edge8" class="edge">
<title>n19&#45;&gt;n17</title>
<path fill="none" stroke="black" d="M701.38,-287.7C701.38,-280.41 701.38,-271.73 701.38,-263.54"/>
<polygon fill="black" stroke="black" points="704.88,-263.62 701.38,-253.62 697.88,-263.62 704.88,-263.62"/>
</g>
<!-- n18 -->
<g id="node10" class="node">
<title>n18</title>
<polygon fill="none" stroke="black" points="866.38,-252 812.38,-252 812.38,-216 866.38,-216 866.38,-252"/>
<text text-anchor="middle" x="839.38" y="-228.95" font-family="Times New Roman,serif" font-size="14.00">0</text>
<text text-anchor="middle" x="794" y="-255.2" font-family="Times New Roman,serif" font-size="14.00">(18)int</text>
</g>
<!-- n19&#45;&gt;n18 -->
<g id="edge9" class="edge">
<title>n19&#45;&gt;n18</title>
<path fill="none" stroke="black" d="M728.64,-291.17C749.62,-280.53 778.85,-265.7 802,-253.96"/>
<polygon fill="black" stroke="black" points="803.48,-257.13 810.82,-249.49 800.32,-250.89 803.48,-257.13"/>
</g>
<!-- n4 -->
<g id="node11" class="node">
<title>n4</title>
<polygon fill="none" stroke="black" points="304.5,-180 118.25,-180 118.25,-144 304.5,-144 304.5,-180"/>
<text text-anchor="middle" x="211.38" y="-156.95" font-family="Times New Roman,serif" font-size="14.00">self.data.getDimensionSizes(1)</text>
<text text-anchor="middle" x="103.25" y="-183.2" font-family="Times New Roman,serif" font-size="14.00">(4)int</text>
</g>
<!-- n6&#45;&gt;n4 -->
<g id="edge10" class="edge">
<title>n6&#45;&gt;n4</title>
<path fill="none" stroke="black" d="M322.11,-219.17C303.19,-209.57 277.57,-196.58 255.73,-185.5"/>
<polygon fill="black" stroke="black" points="257.54,-182.49 247.04,-181.09 254.37,-188.73 257.54,-182.49"/>
</g>
<!-- n5 -->
<g id="node12" class="node">
<title>n5</title>
<polygon fill="none" stroke="black" points="376.38,-180 322.38,-180 322.38,-144 376.38,-144 376.38,-180"/>
<text text-anchor="middle" x="349.38" y="-156.95" font-family="Times New Roman,serif" font-size="14.00">0</text>
<text text-anchor="middle" x="307.38" y="-183.2" font-family="Times New Roman,serif" font-size="14.00">(5)int</text>
</g>
<!-- n6&#45;&gt;n5 -->
<g id="edge11" class="edge">
<title>n6&#45;&gt;n5</title>
<path fill="none" stroke="black" d="M349.38,-215.7C349.38,-208.41 349.38,-199.73 349.38,-191.54"/>
<polygon fill="black" stroke="black" points="352.88,-191.62 349.38,-181.62 345.88,-191.62 352.88,-191.62"/>
</g>
<!-- n10 -->
<g id="node13" class="node">
<title>n10</title>
<polygon fill="none" stroke="black" points="580.5,-180 394.25,-180 394.25,-144 580.5,-144 580.5,-180"/>
<text text-anchor="middle" x="487.38" y="-156.95" font-family="Times New Roman,serif" font-size="14.00">self.data.getDimensionSizes(2)</text>
<text text-anchor="middle" x="375.88" y="-183.2" font-family="Times New Roman,serif" font-size="14.00">(10)int</text>
</g>
<!-- n12&#45;&gt;n10 -->
<g id="edge12" class="edge">
<title>n12&#45;&gt;n10</title>
<path fill="none" stroke="black" d="M515.98,-215.7C511.79,-207.98 506.76,-198.71 502.09,-190.11"/>
<polygon fill="black" stroke="black" points="505.23,-188.55 497.38,-181.43 499.08,-191.89 505.23,-188.55"/>
</g>
<!-- n11 -->
<g id="node14" class="node">
<title>n11</title>
<polygon fill="none" stroke="black" points="652.38,-180 598.38,-180 598.38,-144 652.38,-144 652.38,-180"/>
<text text-anchor="middle" x="625.38" y="-156.95" font-family="Times New Roman,serif" font-size="14.00">0</text>
<text text-anchor="middle" x="580" y="-183.2" font-family="Times New Roman,serif" font-size="14.00">(11)int</text>
</g>
<!-- n12&#45;&gt;n11 -->
<g id="edge13" class="edge">
<title>n12&#45;&gt;n11</title>
<path fill="none" stroke="black" d="M550.35,-215.52C562.73,-206.85 577.88,-196.25 591.3,-186.85"/>
<polygon fill="black" stroke="black" points="593.29,-189.73 599.48,-181.13 589.28,-184 593.29,-189.73"/>
</g>
<!-- n15 -->
<g id="node15" class="node">
<title>n15</title>
<polygon fill="none" stroke="black" points="732.25,-180 670.5,-180 670.5,-144 732.25,-144 732.25,-180"/>
<text text-anchor="middle" x="701.38" y="-156.95" font-family="Times New Roman,serif" font-size="14.00">self.data</text>
<text text-anchor="middle" x="595.88" y="-130.7" font-family="Times New Roman,serif" font-size="14.00">(15)int[dim1][dim2][dim3]</text>
</g>
<!-- n17&#45;&gt;n15 -->
<g id="edge14" class="edge">
<title>n17&#45;&gt;n15</title>
<path fill="none" stroke="black" d="M701.38,-215.7C701.38,-208.41 701.38,-199.73 701.38,-191.54"/>
<polygon fill="black" stroke="black" points="704.88,-191.62 701.38,-181.62 697.88,-191.62 704.88,-191.62"/>
</g>
<!-- n16 -->
<g id="node16" class="node">
<title>n16</title>
<polygon fill="none" stroke="black" points="804.38,-180 750.38,-180 750.38,-144 804.38,-144 804.38,-180"/>
<text text-anchor="middle" x="777.38" y="-156.95" font-family="Times New Roman,serif" font-size="14.00">3</text>
<text text-anchor="middle" x="732" y="-183.2" font-family="Times New Roman,serif" font-size="14.00">(16)int</text>
</g>
<!-- n17&#45;&gt;n16 -->
<g id="edge15" class="edge">
<title>n17&#45;&gt;n16</title>
<path fill="none" stroke="black" d="M720.16,-215.7C729.2,-207.37 740.22,-197.22 750.16,-188.07"/>
<polygon fill="black" stroke="black" points="752.44,-190.72 757.43,-181.37 747.7,-185.57 752.44,-190.72"/>
</g>
<!-- n2 -->
<g id="node17" class="node">
<title>n2</title>
<polygon fill="none" stroke="black" points="204.25,-108 142.5,-108 142.5,-72 204.25,-72 204.25,-108"/>
<text text-anchor="middle" x="173.38" y="-84.95" font-family="Times New Roman,serif" font-size="14.00">self.data</text>
<text text-anchor="middle" x="71.25" y="-111.2" font-family="Times New Roman,serif" font-size="14.00">(2)int[dim1][dim2][dim3]</text>
</g>
<!-- n4&#45;&gt;n2 -->
<g id="edge16" class="edge">
<title>n4&#45;&gt;n2</title>
<path fill="none" stroke="black" d="M201.98,-143.7C197.79,-135.98 192.76,-126.71 188.09,-118.11"/>
<polygon fill="black" stroke="black" points="191.23,-116.55 183.38,-109.43 185.08,-119.89 191.23,-116.55"/>
</g>
<!-- n3 -->
<g id="node18" class="node">
<title>n3</title>
<polygon fill="none" stroke="black" points="276.38,-108 222.38,-108 222.38,-72 276.38,-72 276.38,-108"/>
<text text-anchor="middle" x="249.38" y="-84.95" font-family="Times New Roman,serif" font-size="14.00">1</text>
<text text-anchor="middle" x="207.38" y="-111.2" font-family="Times New Roman,serif" font-size="14.00">(3)int</text>
</g>
<!-- n4&#45;&gt;n3 -->
<g id="edge17" class="edge">
<title>n4&#45;&gt;n3</title>
<path fill="none" stroke="black" d="M220.77,-143.7C224.96,-135.98 229.99,-126.71 234.66,-118.11"/>
<polygon fill="black" stroke="black" points="237.67,-119.89 239.37,-109.43 231.52,-116.55 237.67,-119.89"/>
</g>
<!-- n8 -->
<g id="node19" class="node">
<title>n8</title>
<polygon fill="none" stroke="black" points="480.25,-108 418.5,-108 418.5,-72 480.25,-72 480.25,-108"/>
<text text-anchor="middle" x="449.38" y="-84.95" font-family="Times New Roman,serif" font-size="14.00">self.data</text>
<text text-anchor="middle" x="347.25" y="-111.2" font-family="Times New Roman,serif" font-size="14.00">(8)int[dim1][dim2][dim3]</text>
</g>
<!-- n10&#45;&gt;n8 -->
<g id="edge18" class="edge">
<title>n10&#45;&gt;n8</title>
<path fill="none" stroke="black" d="M477.98,-143.7C473.79,-135.98 468.76,-126.71 464.09,-118.11"/>
<polygon fill="black" stroke="black" points="467.23,-116.55 459.38,-109.43 461.08,-119.89 467.23,-116.55"/>
</g>
<!-- n9 -->
<g id="node20" class="node">
<title>n9</title>
<polygon fill="none" stroke="black" points="552.38,-108 498.38,-108 498.38,-72 552.38,-72 552.38,-108"/>
<text text-anchor="middle" x="525.38" y="-84.95" font-family="Times New Roman,serif" font-size="14.00">2</text>
<text text-anchor="middle" x="483.38" y="-111.2" font-family="Times New Roman,serif" font-size="14.00">(9)int</text>
</g>
<!-- n10&#45;&gt;n9 -->
<g id="edge19" class="edge">
<title>n10&#45;&gt;n9</title>
<path fill="none" stroke="black" d="M496.77,-143.7C500.96,-135.98 505.99,-126.71 510.66,-118.11"/>
<polygon fill="black" stroke="black" points="513.67,-119.89 515.37,-109.43 507.52,-116.55 513.67,-119.89"/>
</g>
<!-- n14 -->
<g id="node21" class="node">
<title>n14</title>
<polygon fill="none" stroke="black" points="728.38,-108 674.38,-108 674.38,-72 728.38,-72 728.38,-108"/>
<text text-anchor="middle" x="701.38" y="-84.95" font-family="Times New Roman,serif" font-size="14.00">self</text>
<text text-anchor="middle" x="609.88" y="-111.2" font-family="Times New Roman,serif" font-size="14.00">(14)ThreeDimVarArray</text>
</g>
<!-- n15&#45;&gt;n14 -->
<g id="edge20" class="edge">
<title>n15&#45;&gt;n14</title>
<path fill="none" stroke="black" d="M701.38,-143.7C701.38,-136.41 701.38,-127.73 701.38,-119.54"/>
<polygon fill="black" stroke="black" points="704.88,-119.62 701.38,-109.62 697.88,-119.62 704.88,-119.62"/>
</g>
<!-- n1 -->
<g id="node22" class="node">
<title>n1</title>
<polygon fill="none" stroke="black" points="200.38,-36 146.38,-36 146.38,0 200.38,0 200.38,-36"/>
<text text-anchor="middle" x="173.38" y="-12.95" font-family="Times New Roman,serif" font-size="14.00">self</text>
<text text-anchor="middle" x="85.25" y="-39.2" font-family="Times New Roman,serif" font-size="14.00">(1)ThreeDimVarArray</text>
</g>
<!-- n2&#45;&gt;n1 -->
<g id="edge21" class="edge">
<title>n2&#45;&gt;n1</title>
<path fill="none" stroke="black" d="M173.38,-71.7C173.38,-64.41 173.38,-55.73 173.38,-47.54"/>
<polygon fill="black" stroke="black" points="176.88,-47.62 173.38,-37.62 169.88,-47.62 176.88,-47.62"/>
</g>
<!-- n7 -->
<g id="node23" class="node">
<title>n7</title>
<polygon fill="none" stroke="black" points="476.38,-36 422.38,-36 422.38,0 476.38,0 476.38,-36"/>
<text text-anchor="middle" x="449.38" y="-12.95" font-family="Times New Roman,serif" font-size="14.00">self</text>
<text text-anchor="middle" x="361.25" y="-39.2" font-family="Times New Roman,serif" font-size="14.00">(7)ThreeDimVarArray</text>
</g>
<!-- n8&#45;&gt;n7 -->
<g id="edge22" class="edge">
<title>n8&#45;&gt;n7</title>
<path fill="none" stroke="black" d="M449.38,-71.7C449.38,-64.41 449.38,-55.73 449.38,-47.54"/>
<polygon fill="black" stroke="black" points="452.88,-47.62 449.38,-37.62 445.88,-47.62 452.88,-47.62"/>
</g>
</g>
</svg>
