<?xml version="1.0" encoding="UTF-8" standalone="no"?>
<!DOCTYPE svg PUBLIC "-//W3C//DTD SVG 1.1//EN"
 "http://www.w3.org/Graphics/SVG/1.1/DTD/svg11.dtd">
<!-- Generated by graphviz version 12.2.1 (20241206.2353)
 -->
<!-- Title: CLG Pages: 1 -->
<svg width="802pt" height="1072pt"
 viewBox="0.00 0.00 802.00 1071.70" xmlns="http://www.w3.org/2000/svg" xmlns:xlink="http://www.w3.org/1999/xlink">
<g id="graph0" class="graph" transform="scale(1 1) rotate(0) translate(4 1067.7)">
<title>CLG</title>
<polygon fill="white" stroke="none" points="-4,4 -4,-1067.7 798,-1067.7 798,4 -4,4"/>
<!-- 64 -->
<g id="node1" class="node">
<title>64</title>
<polygon fill="yellow" stroke="black" points="716.75,-633.9 488.5,-633.9 488.5,-597.9 716.75,-597.9 716.75,-633.9"/>
<text text-anchor="middle" x="602.62" y="-610.85" font-family="Times New Roman,serif" font-size="14.00">dim1 = arg.data.getDimensionSizes(1)</text>
<text text-anchor="middle" x="477.25" y="-637.1" font-family="Times New Roman,serif" font-size="14.00">[64]</text>
</g>
<!-- 70 -->
<g id="node3" class="node">
<title>70</title>
<polygon fill="yellow" stroke="black" points="637,-545.4 566.25,-545.4 566.25,-509.4 637,-509.4 637,-545.4"/>
<text text-anchor="middle" x="601.62" y="-522.35" font-family="Times New Roman,serif" font-size="14.00">acc = true</text>
<text text-anchor="middle" x="555" y="-548.6" font-family="Times New Roman,serif" font-size="14.00">[70]</text>
</g>
<!-- 64&#45;&gt;70 -->
<g id="edge14" class="edge">
<title>64&#45;&gt;70</title>
<path fill="none" stroke="black" d="M602.43,-597.81C602.29,-586.16 602.11,-570.45 601.95,-556.92"/>
<polygon fill="black" stroke="black" points="605.46,-557.22 601.84,-547.26 598.46,-557.3 605.46,-557.22"/>
<text text-anchor="middle" x="639.34" y="-566.6" font-family="Times New Roman,serif" font-size="14.00">graphAnd#88</text>
</g>
<!-- 67 -->
<g id="node2" class="node">
<title>67</title>
<polygon fill="yellow" stroke="black" points="631.88,-456.9 569.38,-456.9 569.38,-420.9 631.88,-420.9 631.88,-456.9"/>
<text text-anchor="middle" x="600.62" y="-433.85" font-family="Times New Roman,serif" font-size="14.00">idx0 = 1</text>
<text text-anchor="middle" x="558.12" y="-460.1" font-family="Times New Roman,serif" font-size="14.00">[67]</text>
</g>
<!-- 87 -->
<g id="node10" class="node">
<title>87</title>
<polygon fill="aquamarine" stroke="black" points="598.62,-368.4 591.42,-361.2 598.62,-354 605.83,-361.2 598.62,-368.4"/>
<text text-anchor="middle" x="576.42" y="-371.6" font-family="Times New Roman,serif" font-size="14.00">&lt;87&gt;</text>
</g>
<!-- 67&#45;&gt;87 -->
<g id="edge13" class="edge">
<title>67&#45;&gt;87</title>
<path fill="none" stroke="black" d="M600.17,-420.72C599.85,-408.68 599.43,-392.6 599.1,-380.35"/>
<polygon fill="black" stroke="black" points="602.61,-380.34 598.84,-370.44 595.61,-380.52 602.61,-380.34"/>
<text text-anchor="middle" x="636.81" y="-389.6" font-family="Times New Roman,serif" font-size="14.00">graphAnd#87</text>
</g>
<!-- 70&#45;&gt;67 -->
<g id="edge5" class="edge">
<title>70&#45;&gt;67</title>
<path fill="none" stroke="black" d="M601.43,-509.31C601.29,-497.66 601.11,-481.95 600.95,-468.42"/>
<polygon fill="black" stroke="black" points="604.46,-468.72 600.84,-458.76 597.46,-468.8 604.46,-468.72"/>
<text text-anchor="middle" x="638.34" y="-478.1" font-family="Times New Roman,serif" font-size="14.00">graphAnd#68</text>
</g>
<!-- 73 -->
<g id="node4" class="node">
<title>73</title>
<polygon fill="yellow" stroke="black" points="510.5,-301.5 388.75,-301.5 388.75,-265.5 510.5,-265.5 510.5,-301.5"/>
<text text-anchor="middle" x="449.62" y="-278.45" font-family="Times New Roman,serif" font-size="14.00">idx0 &gt; dim1 &#45; 1+ 1</text>
<text text-anchor="middle" x="377.5" y="-304.7" font-family="Times New Roman,serif" font-size="14.00">[73]</text>
</g>
<!-- 92 -->
<g id="node17" class="node">
<title>92</title>
<polygon fill="aquamarine" stroke="black" points="393.62,-202.2 386.43,-195 393.62,-187.8 400.82,-195 393.62,-202.2"/>
<text text-anchor="middle" x="371.43" y="-205.4" font-family="Times New Roman,serif" font-size="14.00">&lt;92&gt;</text>
</g>
<!-- 73&#45;&gt;92 -->
<g id="edge2" class="edge">
<title>73&#45;&gt;92</title>
<path fill="none" stroke="black" d="M438.56,-265.41C427.89,-248.93 411.97,-224.34 402.22,-209.28"/>
<polygon fill="black" stroke="black" points="405.35,-207.68 396.98,-201.19 399.48,-211.48 405.35,-207.68"/>
<text text-anchor="middle" x="457.39" y="-234.2" font-family="Times New Roman,serif" font-size="14.00">merge1#97</text>
</g>
<!-- 76 -->
<g id="node5" class="node">
<title>76</title>
<polygon fill="yellow" stroke="black" points="663.62,-301.5 533.62,-301.5 533.62,-265.5 663.62,-265.5 663.62,-301.5"/>
<text text-anchor="middle" x="598.62" y="-278.45" font-family="Times New Roman,serif" font-size="14.00">idx0 &lt;= dim1 &#45; 1+ 1</text>
<text text-anchor="middle" x="522.38" y="-304.7" font-family="Times New Roman,serif" font-size="14.00">[76]</text>
</g>
<!-- 79 -->
<g id="node6" class="node">
<title>79</title>
<polygon fill="yellow" stroke="black" points="641.25,-213 494,-213 494,-177 641.25,-177 641.25,-213"/>
<text text-anchor="middle" x="567.62" y="-189.95" font-family="Times New Roman,serif" font-size="14.00">it = Sequence{1..dim1}</text>
<text text-anchor="middle" x="482.75" y="-216.2" font-family="Times New Roman,serif" font-size="14.00">[79]</text>
</g>
<!-- 76&#45;&gt;79 -->
<g id="edge7" class="edge">
<title>76&#45;&gt;79</title>
<path fill="none" stroke="black" d="M592.5,-265.41C588.28,-253.64 582.58,-237.73 577.7,-224.11"/>
<polygon fill="black" stroke="black" points="581.02,-223.01 574.35,-214.77 574.43,-225.37 581.02,-223.01"/>
<text text-anchor="middle" x="623.03" y="-234.2" font-family="Times New Roman,serif" font-size="14.00">graphAnd#79</text>
</g>
<!-- 82 -->
<g id="node7" class="node">
<title>82</title>
<polygon fill="yellow" stroke="black" points="677,-124.5 438.25,-124.5 438.25,-88.5 677,-88.5 677,-124.5"/>
<text text-anchor="middle" x="557.62" y="-101.45" font-family="Times New Roman,serif" font-size="14.00">result.data[it] = self.data[it] &#45; arg.data[it]</text>
<text text-anchor="middle" x="427" y="-127.7" font-family="Times New Roman,serif" font-size="14.00">[82]</text>
</g>
<!-- 79&#45;&gt;82 -->
<g id="edge8" class="edge">
<title>79&#45;&gt;82</title>
<path fill="none" stroke="black" d="M565.65,-176.91C564.3,-165.26 562.49,-149.55 560.92,-136.02"/>
<polygon fill="black" stroke="black" points="564.43,-135.89 559.8,-126.35 557.48,-136.69 564.43,-135.89"/>
<text text-anchor="middle" x="600.65" y="-145.7" font-family="Times New Roman,serif" font-size="14.00">graphAnd#80</text>
</g>
<!-- 85 -->
<g id="node9" class="node">
<title>85</title>
<polygon fill="yellow" stroke="black" points="681.75,-36 579.5,-36 579.5,0 681.75,0 681.75,-36"/>
<text text-anchor="middle" x="630.62" y="-12.95" font-family="Times New Roman,serif" font-size="14.00">idx0 = idx0 + 1</text>
<text text-anchor="middle" x="568.25" y="-39.2" font-family="Times New Roman,serif" font-size="14.00">[85]</text>
</g>
<!-- 82&#45;&gt;85 -->
<g id="edge9" class="edge">
<title>82&#45;&gt;85</title>
<path fill="none" stroke="black" d="M572.05,-88.41C582.48,-76.05 596.76,-59.13 608.61,-45.08"/>
<polygon fill="black" stroke="black" points="611.23,-47.41 615.01,-37.51 605.88,-42.89 611.23,-47.41"/>
<text text-anchor="middle" x="637.79" y="-57.2" font-family="Times New Roman,serif" font-size="14.00">graphAnd#81</text>
</g>
<!-- 52 -->
<g id="node8" class="node">
<title>52</title>
<polygon fill="yellow" stroke="black" points="400.75,-840.4 22.5,-840.4 22.5,-799.4 400.75,-799.4 400.75,-840.4"/>
<text text-anchor="middle" x="211.62" y="-823.1" font-family="Times New Roman,serif" font-size="14.00">arg.data.getDimension() &lt;&gt; self.data.getDimension() or</text>
<text text-anchor="middle" x="211.62" y="-806.6" font-family="Times New Roman,serif" font-size="14.00">arg.data.getDimensionSizes(1) &lt;&gt; self.data.getDimensionSizes(1)</text>
<text text-anchor="middle" x="11.25" y="-843.6" font-family="Times New Roman,serif" font-size="14.00">[52]</text>
</g>
<!-- 55 -->
<g id="node11" class="node">
<title>55</title>
<polygon fill="yellow" stroke="black" points="424.88,-687.9 236.38,-687.9 236.38,-651.9 424.88,-651.9 424.88,-687.9"/>
<text text-anchor="middle" x="330.62" y="-664.85" font-family="Times New Roman,serif" font-size="14.00">Result = &#39;IllegalDimensionSize&#39;</text>
<text text-anchor="middle" x="225.12" y="-691.1" font-family="Times New Roman,serif" font-size="14.00">[55]</text>
</g>
<!-- 52&#45;&gt;55 -->
<g id="edge16" class="edge">
<title>52&#45;&gt;55</title>
<path fill="none" stroke="black" d="M227.67,-798.94C248.85,-772.6 286.19,-726.17 309.6,-697.05"/>
<polygon fill="black" stroke="black" points="312.19,-699.41 315.73,-689.43 306.74,-695.03 312.19,-699.41"/>
<text text-anchor="middle" x="290.64" y="-768.1" font-family="Times New Roman,serif" font-size="14.00">graphAnd#90</text>
</g>
<!-- 85&#45;&gt;87 -->
<g id="edge11" class="edge">
<title>85&#45;&gt;87</title>
<path fill="none" stroke="black" d="M658.6,-36.27C679.56,-51.58 704.62,-76.05 704.62,-105.5 704.62,-284.5 704.62,-284.5 704.62,-284.5 704.62,-327.84 645.22,-348.71 615.36,-356.47"/>
<polygon fill="black" stroke="black" points="614.72,-353.02 605.8,-358.73 616.33,-359.83 614.72,-353.02"/>
<text text-anchor="middle" x="731.62" y="-189.95" font-family="Times New Roman,serif" font-size="14.00">iterate#84</text>
</g>
<!-- 87&#45;&gt;73 -->
<g id="edge12" class="edge">
<title>87&#45;&gt;73</title>
<path fill="none" stroke="black" d="M593.08,-359.14C579.93,-356.5 546.05,-348.87 520.38,-336 505.76,-328.68 490.94,-318.41 478.66,-308.98"/>
<polygon fill="black" stroke="black" points="481.01,-306.38 471,-302.92 476.67,-311.87 481.01,-306.38"/>
<text text-anchor="middle" x="557.5" y="-322.7" font-family="Times New Roman,serif" font-size="14.00">graphAnd#86</text>
</g>
<!-- 87&#45;&gt;76 -->
<g id="edge10" class="edge">
<title>87&#45;&gt;76</title>
<path fill="none" stroke="black" d="M598.62,-353.48C598.62,-344.4 598.62,-327.65 598.62,-312.93"/>
<polygon fill="black" stroke="black" points="602.13,-313.26 598.63,-303.26 595.13,-313.26 602.13,-313.26"/>
<text text-anchor="middle" x="625.62" y="-322.7" font-family="Times New Roman,serif" font-size="14.00">iterate#83</text>
</g>
<!-- 55&#45;&gt;92 -->
<g id="edge3" class="edge">
<title>55&#45;&gt;92</title>
<path fill="none" stroke="black" d="M336.41,-651.74C342.32,-632.65 350.62,-600.81 350.62,-572.65 350.62,-572.65 350.62,-572.65 350.62,-282.5 350.62,-253.34 370.46,-223.89 383.19,-207.99"/>
<polygon fill="black" stroke="black" points="385.76,-210.37 389.55,-200.48 380.42,-205.85 385.76,-210.37"/>
<text text-anchor="middle" x="381.38" y="-433.85" font-family="Times New Roman,serif" font-size="14.00">merge2#98</text>
</g>
<!-- 88 -->
<g id="node12" class="node">
<title>88</title>
<ellipse fill="black" stroke="black" cx="406.62" cy="-1040" rx="7.2" ry="7.2"/>
<text text-anchor="middle" x="391.55" y="-1050.4" font-family="Times New Roman,serif" font-size="14.00">[0]</text>
</g>
<!-- 89 -->
<g id="node14" class="node">
<title>89</title>
<polygon fill="yellow" stroke="black" points="511,-995.8 302.25,-995.8 302.25,-959.8 511,-959.8 511,-995.8"/>
<text text-anchor="middle" x="406.62" y="-972.75" font-family="Times New Roman,serif" font-size="14.00">self.data.getDimensionSizes(1) &gt; 0</text>
<text text-anchor="middle" x="291" y="-999" font-family="Times New Roman,serif" font-size="14.00">[89]</text>
</g>
<!-- 88&#45;&gt;89 -->
<g id="edge18" class="edge">
<title>88&#45;&gt;89</title>
<path fill="none" stroke="black" d="M406.62,-1032.56C406.62,-1026.5 406.62,-1016.99 406.62,-1007.64"/>
<polygon fill="black" stroke="black" points="410.13,-1007.68 406.63,-997.68 403.13,-1007.68 410.13,-1007.68"/>
</g>
<!-- 56 -->
<g id="node13" class="node">
<title>56</title>
<ellipse fill="black" stroke="black" cx="393.62" cy="-106.5" rx="7.2" ry="7.2"/>
<ellipse fill="none" stroke="black" cx="393.62" cy="-106.5" rx="11.2" ry="11.2"/>
<text text-anchor="middle" x="372.3" y="-120.9" font-family="Times New Roman,serif" font-size="14.00">[&#45;1]</text>
</g>
<!-- 91 -->
<g id="node16" class="node">
<title>91</title>
<polygon fill="aquamarine" stroke="black" points="406.62,-907.3 399.43,-900.1 406.62,-892.9 413.82,-900.1 406.62,-907.3"/>
<text text-anchor="middle" x="384.43" y="-910.5" font-family="Times New Roman,serif" font-size="14.00">&lt;91&gt;</text>
</g>
<!-- 89&#45;&gt;91 -->
<g id="edge6" class="edge">
<title>89&#45;&gt;91</title>
<path fill="none" stroke="black" d="M406.62,-959.62C406.62,-947.58 406.62,-931.5 406.62,-919.25"/>
<polygon fill="black" stroke="black" points="410.13,-919.34 406.63,-909.34 403.13,-919.34 410.13,-919.34"/>
<text text-anchor="middle" x="447.12" y="-928.5" font-family="Times New Roman,serif" font-size="14.00">graphAnd#100</text>
</g>
<!-- 58 -->
<g id="node15" class="node">
<title>58</title>
<polygon fill="yellow" stroke="black" points="788.62,-840.4 418.62,-840.4 418.62,-799.4 788.62,-799.4 788.62,-840.4"/>
<text text-anchor="middle" x="603.62" y="-823.1" font-family="Times New Roman,serif" font-size="14.00">arg.data.getDimension() = self.data.getDimension() and</text>
<text text-anchor="middle" x="603.62" y="-806.6" font-family="Times New Roman,serif" font-size="14.00">arg.data.getDimensionSizes(1) = self.data.getDimensionSizes(1)</text>
<text text-anchor="middle" x="407.38" y="-843.6" font-family="Times New Roman,serif" font-size="14.00">[58]</text>
</g>
<!-- 61 -->
<g id="node18" class="node">
<title>61</title>
<polygon fill="yellow" stroke="black" points="794,-746.9 411.25,-746.9 411.25,-705.9 794,-705.9 794,-746.9"/>
<text text-anchor="middle" x="602.62" y="-729.6" font-family="Times New Roman,serif" font-size="14.00">self.data.getDimension() = result.data.getDimension() and</text>
<text text-anchor="middle" x="602.62" y="-713.1" font-family="Times New Roman,serif" font-size="14.00">self.data.getDimensionSizes(1) = result.data.getDimensionSizes(1)</text>
<text text-anchor="middle" x="400" y="-750.1" font-family="Times New Roman,serif" font-size="14.00">[61]</text>
</g>
<!-- 58&#45;&gt;61 -->
<g id="edge17" class="edge">
<title>58&#45;&gt;61</title>
<path fill="none" stroke="black" d="M603.41,-799.05C603.28,-787.18 603.11,-771.84 602.96,-758.4"/>
<polygon fill="black" stroke="black" points="606.47,-758.69 602.86,-748.73 599.47,-758.77 606.47,-758.69"/>
<text text-anchor="middle" x="640.34" y="-768.1" font-family="Times New Roman,serif" font-size="14.00">graphAnd#91</text>
</g>
<!-- 91&#45;&gt;52 -->
<g id="edge1" class="edge">
<title>91&#45;&gt;52</title>
<path fill="none" stroke="black" d="M401.8,-897.17C383.99,-890.02 320.39,-864.52 271.59,-844.95"/>
<polygon fill="black" stroke="black" points="273.1,-841.78 262.52,-841.31 270.5,-848.28 273.1,-841.78"/>
<text text-anchor="middle" x="368.68" y="-861.6" font-family="Times New Roman,serif" font-size="14.00">split2#96</text>
</g>
<!-- 91&#45;&gt;58 -->
<g id="edge19" class="edge">
<title>91&#45;&gt;58</title>
<path fill="none" stroke="black" d="M411.49,-897.17C429.49,-890.02 493.74,-864.52 543.04,-844.95"/>
<polygon fill="black" stroke="black" points="544.22,-848.25 552.22,-841.31 541.63,-841.74 544.22,-848.25"/>
<text text-anchor="middle" x="530.25" y="-861.6" font-family="Times New Roman,serif" font-size="14.00">split1#95</text>
</g>
<!-- 92&#45;&gt;56 -->
<g id="edge4" class="edge">
<title>92&#45;&gt;56</title>
<path fill="none" stroke="black" d="M393.62,-187.21C393.62,-174.92 393.62,-148.49 393.62,-129.43"/>
<polygon fill="black" stroke="black" points="397.13,-129.44 393.63,-119.44 390.13,-129.44 397.13,-129.44"/>
<text text-anchor="middle" x="439.38" y="-145.7" font-family="Times New Roman,serif" font-size="14.00">graphOr_end#99</text>
</g>
<!-- 61&#45;&gt;64 -->
<g id="edge15" class="edge">
<title>61&#45;&gt;64</title>
<path fill="none" stroke="black" d="M602.62,-705.5C602.62,-688.74 602.62,-664.54 602.62,-645.67"/>
<polygon fill="black" stroke="black" points="606.13,-645.68 602.63,-635.68 599.13,-645.68 606.13,-645.68"/>
<text text-anchor="middle" x="639.75" y="-664.85" font-family="Times New Roman,serif" font-size="14.00">graphAnd#89</text>
</g>
</g>
</svg>
