<?xml version="1.0" encoding="UTF-8" standalone="no"?>
<!DOCTYPE svg PUBLIC "-//W3C//DTD SVG 1.1//EN"
 "http://www.w3.org/Graphics/SVG/1.1/DTD/svg11.dtd">
<!-- Generated by graphviz version 12.2.1 (20241206.2353)
 -->
<!-- Title: CLG Pages: 1 -->
<svg width="239pt" height="260pt"
 viewBox="0.00 0.00 239.25 259.80" xmlns="http://www.w3.org/2000/svg" xmlns:xlink="http://www.w3.org/1999/xlink">
<g id="graph0" class="graph" transform="scale(1 1) rotate(0) translate(4 255.8)">
<title>CLG</title>
<polygon fill="white" stroke="none" points="-4,4 -4,-255.8 235.25,-255.8 235.25,4 -4,4"/>
<!-- 96 -->
<g id="node1" class="node">
<title>96</title>
<ellipse fill="black" stroke="black" cx="126.88" cy="-228.1" rx="7.2" ry="7.2"/>
<text text-anchor="middle" x="111.8" y="-238.5" font-family="Times New Roman,serif" font-size="14.00">[0]</text>
</g>
<!-- 97 -->
<g id="node2" class="node">
<title>97</title>
<polygon fill="yellow" stroke="black" points="231.25,-183.9 22.5,-183.9 22.5,-147.9 231.25,-147.9 231.25,-183.9"/>
<text text-anchor="middle" x="126.88" y="-160.85" font-family="Times New Roman,serif" font-size="14.00">self.data.getDimensionSizes(1) &gt; 0</text>
<text text-anchor="middle" x="11.25" y="-187.1" font-family="Times New Roman,serif" font-size="14.00">[97]</text>
</g>
<!-- 96&#45;&gt;97 -->
<g id="edge2" class="edge">
<title>96&#45;&gt;97</title>
<path fill="none" stroke="black" d="M126.88,-220.66C126.88,-214.6 126.88,-205.09 126.88,-195.74"/>
<polygon fill="black" stroke="black" points="130.38,-195.78 126.88,-185.78 123.38,-195.78 130.38,-195.78"/>
</g>
<!-- 94 -->
<g id="node3" class="node">
<title>94</title>
<polygon fill="yellow" stroke="black" points="180.62,-95.4 73.12,-95.4 73.12,-59.4 180.62,-59.4 180.62,-95.4"/>
<text text-anchor="middle" x="126.88" y="-72.35" font-family="Times New Roman,serif" font-size="14.00">result = self.data</text>
<text text-anchor="middle" x="61.88" y="-98.6" font-family="Times New Roman,serif" font-size="14.00">[94]</text>
</g>
<!-- 97&#45;&gt;94 -->
<g id="edge3" class="edge">
<title>97&#45;&gt;94</title>
<path fill="none" stroke="black" d="M126.88,-147.81C126.88,-136.16 126.88,-120.45 126.88,-106.92"/>
<polygon fill="black" stroke="black" points="130.38,-107.26 126.88,-97.26 123.38,-107.26 130.38,-107.26"/>
<text text-anchor="middle" x="167.38" y="-116.6" font-family="Times New Roman,serif" font-size="14.00">graphAnd#105</text>
</g>
<!-- 95 -->
<g id="node4" class="node">
<title>95</title>
<ellipse fill="black" stroke="black" cx="126.88" cy="-11.2" rx="7.2" ry="7.2"/>
<ellipse fill="none" stroke="black" cx="126.88" cy="-11.2" rx="11.2" ry="11.2"/>
<text text-anchor="middle" x="105.55" y="-25.6" font-family="Times New Roman,serif" font-size="14.00">[&#45;1]</text>
</g>
<!-- 94&#45;&gt;95 -->
<g id="edge1" class="edge">
<title>94&#45;&gt;95</title>
<path fill="none" stroke="black" d="M126.88,-59.2C126.88,-51.5 126.88,-42.34 126.88,-34.15"/>
<polygon fill="black" stroke="black" points="130.38,-34.32 126.88,-24.32 123.38,-34.32 130.38,-34.32"/>
</g>
</g>
</svg>
