<?xml version="1.0" encoding="UTF-8" standalone="no"?>
<!DOCTYPE svg PUBLIC "-//W3C//DTD SVG 1.1//EN"
 "http://www.w3.org/Graphics/SVG/1.1/DTD/svg11.dtd">
<!-- Generated by graphviz version 12.2.1 (20241206.2353)
 -->
<!-- Title: CLG Pages: 1 -->
<svg width="1135pt" height="1115pt"
 viewBox="0.00 0.00 1135.12 1115.00" xmlns="http://www.w3.org/2000/svg" xmlns:xlink="http://www.w3.org/1999/xlink">
<g id="graph0" class="graph" transform="scale(1 1) rotate(0) translate(4 1111)">
<title>CLG</title>
<polygon fill="white" stroke="none" points="-4,4 -4,-1111 1131.12,-1111 1131.12,4 -4,4"/>
<!-- 98 -->
<g id="node1" class="node">
<title>98</title>
<polygon fill="yellow" stroke="black" points="166,-618.2 22.5,-618.2 22.5,-582.2 166,-582.2 166,-618.2"/>
<text text-anchor="middle" x="94.25" y="-595.15" font-family="Times New Roman,serif" font-size="14.00">Index0 &lt;= dim1 &#45; 1+ 1</text>
<text text-anchor="middle" x="11.25" y="-621.4" font-family="Times New Roman,serif" font-size="14.00">[98]</text>
</g>
<!-- 101 -->
<g id="node4" class="node">
<title>101</title>
<polygon fill="yellow" stroke="black" points="279.88,-510.2 132.62,-510.2 132.62,-474.2 279.88,-474.2 279.88,-510.2"/>
<text text-anchor="middle" x="206.25" y="-487.15" font-family="Times New Roman,serif" font-size="14.00">it = Sequence{1..dim1}</text>
<text text-anchor="middle" x="118" y="-513.4" font-family="Times New Roman,serif" font-size="14.00">[101]</text>
</g>
<!-- 98&#45;&gt;101 -->
<g id="edge9" class="edge">
<title>98&#45;&gt;101</title>
<path fill="none" stroke="black" d="M112.24,-582.17C130.51,-564.89 158.97,-537.94 179.8,-518.23"/>
<polygon fill="black" stroke="black" points="181.97,-521 186.83,-511.58 177.16,-515.91 181.97,-521"/>
<text text-anchor="middle" x="207.33" y="-541.15" font-family="Times New Roman,serif" font-size="14.00">graphAnd#107</text>
</g>
<!-- 66 -->
<g id="node2" class="node">
<title>66</title>
<polygon fill="yellow" stroke="black" points="801.38,-795.2 423.12,-795.2 423.12,-759.2 801.38,-759.2 801.38,-795.2"/>
<text text-anchor="middle" x="612.25" y="-772.15" font-family="Times New Roman,serif" font-size="14.00">arg.data.getDimensionSizes(1) &lt;&gt; self.data.getDimensionSizes(1)</text>
<text text-anchor="middle" x="411.88" y="-798.4" font-family="Times New Roman,serif" font-size="14.00">[66]</text>
</g>
<!-- 69 -->
<g id="node5" class="node">
<title>69</title>
<polygon fill="aquamarine" stroke="black" points="612.25,-695.9 605.05,-688.7 612.25,-681.5 619.45,-688.7 612.25,-695.9"/>
<text text-anchor="middle" x="590.05" y="-699.1" font-family="Times New Roman,serif" font-size="14.00">&lt;69&gt;</text>
</g>
<!-- 66&#45;&gt;69 -->
<g id="edge5" class="edge">
<title>66&#45;&gt;69</title>
<path fill="none" stroke="black" d="M612.25,-759.11C612.25,-744.34 612.25,-723.03 612.25,-707.93"/>
<polygon fill="black" stroke="black" points="615.75,-708.09 612.25,-698.09 608.75,-708.09 615.75,-708.09"/>
<text text-anchor="middle" x="643" y="-727.9" font-family="Times New Roman,serif" font-size="14.00">merge2#76</text>
</g>
<!-- 68 -->
<g id="node3" class="node">
<title>68</title>
<polygon fill="aquamarine" stroke="black" points="612.25,-872.9 605.05,-865.7 612.25,-858.5 619.45,-865.7 612.25,-872.9"/>
<text text-anchor="middle" x="590.05" y="-876.1" font-family="Times New Roman,serif" font-size="14.00">&lt;68&gt;</text>
</g>
<!-- 68&#45;&gt;66 -->
<g id="edge3" class="edge">
<title>68&#45;&gt;66</title>
<path fill="none" stroke="black" d="M612.25,-857.91C612.25,-847.05 612.25,-825.15 612.25,-807.05"/>
<polygon fill="black" stroke="black" points="615.75,-807.09 612.25,-797.09 608.75,-807.09 615.75,-807.09"/>
<text text-anchor="middle" x="637.38" y="-816.4" font-family="Times New Roman,serif" font-size="14.00">split2#74</text>
</g>
<!-- 63 -->
<g id="node23" class="node">
<title>63</title>
<polygon fill="yellow" stroke="black" points="1127.12,-795.2 819.38,-795.2 819.38,-759.2 1127.12,-759.2 1127.12,-795.2"/>
<text text-anchor="middle" x="973.25" y="-772.15" font-family="Times New Roman,serif" font-size="14.00">arg.data.getDimension() &lt;&gt; self.data.getDimension()</text>
<text text-anchor="middle" x="808.12" y="-798.4" font-family="Times New Roman,serif" font-size="14.00">[63]</text>
</g>
<!-- 68&#45;&gt;63 -->
<g id="edge2" class="edge">
<title>68&#45;&gt;63</title>
<path fill="none" stroke="black" d="M617.63,-863.41C647.37,-856.28 793.69,-821.22 889.13,-798.36"/>
<polygon fill="black" stroke="black" points="889.84,-801.79 898.75,-796.05 888.21,-794.98 889.84,-801.79"/>
<text text-anchor="middle" x="850.21" y="-816.4" font-family="Times New Roman,serif" font-size="14.00">split1#73</text>
</g>
<!-- 104 -->
<g id="node7" class="node">
<title>104</title>
<polygon fill="yellow" stroke="black" points="408.62,-421.7 169.88,-421.7 169.88,-385.7 408.62,-385.7 408.62,-421.7"/>
<text text-anchor="middle" x="289.25" y="-398.65" font-family="Times New Roman,serif" font-size="14.00">result.data[it] = self.data[it] &#45; arg.data[it]</text>
<text text-anchor="middle" x="155.25" y="-424.9" font-family="Times New Roman,serif" font-size="14.00">[104]</text>
</g>
<!-- 101&#45;&gt;104 -->
<g id="edge10" class="edge">
<title>101&#45;&gt;104</title>
<path fill="none" stroke="black" d="M222.65,-474.11C234.73,-461.52 251.37,-444.18 264.99,-429.99"/>
<polygon fill="black" stroke="black" points="267.16,-432.78 271.55,-423.14 262.1,-427.93 267.16,-432.78"/>
<text text-anchor="middle" x="295.68" y="-442.9" font-family="Times New Roman,serif" font-size="14.00">graphAnd#108</text>
</g>
<!-- 71 -->
<g id="node6" class="node">
<title>71</title>
<polygon fill="yellow" stroke="black" points="662.5,-564.2 474,-564.2 474,-528.2 662.5,-528.2 662.5,-564.2"/>
<text text-anchor="middle" x="568.25" y="-541.15" font-family="Times New Roman,serif" font-size="14.00">Result = &#39;IllegalDimensionSize&#39;</text>
<text text-anchor="middle" x="462.75" y="-567.4" font-family="Times New Roman,serif" font-size="14.00">[71]</text>
</g>
<!-- 69&#45;&gt;71 -->
<g id="edge18" class="edge">
<title>69&#45;&gt;71</title>
<path fill="none" stroke="black" d="M610.68,-682.7C605.37,-665.75 587.79,-609.59 576.99,-575.12"/>
<polygon fill="black" stroke="black" points="580.4,-574.29 574.07,-565.8 573.72,-576.38 580.4,-574.29"/>
<text text-anchor="middle" x="641.62" y="-639.4" font-family="Times New Roman,serif" font-size="14.00">graphAnd#118</text>
</g>
<!-- 114 -->
<g id="node17" class="node">
<title>114</title>
<polygon fill="aquamarine" stroke="black" points="518.25,-89.3 511.05,-82.1 518.25,-74.9 525.45,-82.1 518.25,-89.3"/>
<text text-anchor="middle" x="492.68" y="-92.5" font-family="Times New Roman,serif" font-size="14.00">&lt;114&gt;</text>
</g>
<!-- 71&#45;&gt;114 -->
<g id="edge24" class="edge">
<title>71&#45;&gt;114</title>
<path fill="none" stroke="black" d="M567.67,-527.81C567.08,-508.54 566.25,-476.53 566.25,-448.95 566.25,-448.95 566.25,-448.95 566.25,-158.8 566.25,-135.08 565.82,-126.76 552.25,-107.3 547.37,-100.29 539.77,-94.61 533,-90.51"/>
<polygon fill="black" stroke="black" points="534.8,-87.51 524.33,-85.88 531.5,-93.68 534.8,-87.51"/>
<text text-anchor="middle" x="600.38" y="-310.15" font-family="Times New Roman,serif" font-size="14.00">merge2#126</text>
</g>
<!-- 107 -->
<g id="node10" class="node">
<title>107</title>
<polygon fill="yellow" stroke="black" points="378.88,-333.2 249.62,-333.2 249.62,-297.2 378.88,-297.2 378.88,-333.2"/>
<text text-anchor="middle" x="314.25" y="-310.15" font-family="Times New Roman,serif" font-size="14.00">Index0 = Index0 + 1</text>
<text text-anchor="middle" x="235" y="-336.4" font-family="Times New Roman,serif" font-size="14.00">[107]</text>
</g>
<!-- 104&#45;&gt;107 -->
<g id="edge11" class="edge">
<title>104&#45;&gt;107</title>
<path fill="none" stroke="black" d="M294.19,-385.61C297.59,-373.84 302.19,-357.93 306.13,-344.31"/>
<polygon fill="black" stroke="black" points="309.4,-345.58 308.82,-335 302.68,-343.64 309.4,-345.58"/>
<text text-anchor="middle" x="344.49" y="-354.4" font-family="Times New Roman,serif" font-size="14.00">graphAnd#109</text>
</g>
<!-- 72 -->
<g id="node8" class="node">
<title>72</title>
<ellipse fill="black" stroke="black" cx="518.25" cy="-11.2" rx="7.2" ry="7.2"/>
<ellipse fill="none" stroke="black" cx="518.25" cy="-11.2" rx="11.2" ry="11.2"/>
<text text-anchor="middle" x="496.93" y="-25.6" font-family="Times New Roman,serif" font-size="14.00">[&#45;1]</text>
</g>
<!-- 74 -->
<g id="node9" class="node">
<title>74</title>
<polygon fill="yellow" stroke="black" points="533,-883.7 233.5,-883.7 233.5,-847.7 533,-847.7 533,-883.7"/>
<text text-anchor="middle" x="383.25" y="-860.65" font-family="Times New Roman,serif" font-size="14.00">arg.data.getDimension() = self.data.getDimension()</text>
<text text-anchor="middle" x="222.25" y="-886.9" font-family="Times New Roman,serif" font-size="14.00">[74]</text>
</g>
<!-- 77 -->
<g id="node11" class="node">
<title>77</title>
<polygon fill="yellow" stroke="black" points="405.25,-795.2 35.25,-795.2 35.25,-759.2 405.25,-759.2 405.25,-795.2"/>
<text text-anchor="middle" x="220.25" y="-772.15" font-family="Times New Roman,serif" font-size="14.00">arg.data.getDimensionSizes(1) = self.data.getDimensionSizes(1)</text>
<text text-anchor="middle" x="24" y="-798.4" font-family="Times New Roman,serif" font-size="14.00">[77]</text>
</g>
<!-- 74&#45;&gt;77 -->
<g id="edge6" class="edge">
<title>74&#45;&gt;77</title>
<path fill="none" stroke="black" d="M350.66,-847.4C325.53,-834.07 290.56,-815.51 263.16,-800.97"/>
<polygon fill="black" stroke="black" points="264.88,-797.92 254.4,-796.32 261.6,-804.1 264.88,-797.92"/>
<text text-anchor="middle" x="353.47" y="-816.4" font-family="Times New Roman,serif" font-size="14.00">graphAnd#84</text>
</g>
<!-- 109 -->
<g id="node12" class="node">
<title>109</title>
<polygon fill="aquamarine" stroke="black" points="341.25,-244.7 334.05,-237.5 341.25,-230.3 348.45,-237.5 341.25,-244.7"/>
<text text-anchor="middle" x="315.68" y="-247.9" font-family="Times New Roman,serif" font-size="14.00">&lt;109&gt;</text>
</g>
<!-- 107&#45;&gt;109 -->
<g id="edge13" class="edge">
<title>107&#45;&gt;109</title>
<path fill="none" stroke="black" d="M320.38,-297.02C324.95,-284.2 331.15,-266.82 335.6,-254.33"/>
<polygon fill="black" stroke="black" points="338.9,-255.51 338.96,-244.92 332.31,-253.16 338.9,-255.51"/>
<text text-anchor="middle" x="362.89" y="-265.9" font-family="Times New Roman,serif" font-size="14.00">iterate#112</text>
</g>
<!-- 80 -->
<g id="node15" class="node">
<title>80</title>
<polygon fill="yellow" stroke="black" points="505.38,-706.7 193.12,-706.7 193.12,-670.7 505.38,-670.7 505.38,-706.7"/>
<text text-anchor="middle" x="349.25" y="-683.65" font-family="Times New Roman,serif" font-size="14.00">self.data.getDimension() = result.data.getDimension()</text>
<text text-anchor="middle" x="181.88" y="-709.9" font-family="Times New Roman,serif" font-size="14.00">[80]</text>
</g>
<!-- 77&#45;&gt;80 -->
<g id="edge19" class="edge">
<title>77&#45;&gt;80</title>
<path fill="none" stroke="black" d="M246.05,-758.9C265.56,-745.82 292.56,-727.71 314.06,-713.3"/>
<polygon fill="black" stroke="black" points="315.89,-716.29 322.24,-707.81 311.99,-710.47 315.89,-716.29"/>
<text text-anchor="middle" x="336.8" y="-727.9" font-family="Times New Roman,serif" font-size="14.00">graphAnd#119</text>
</g>
<!-- 109&#45;&gt;98 -->
<g id="edge12" class="edge">
<title>109&#45;&gt;98</title>
<path fill="none" stroke="black" d="M335.07,-238.98C296.57,-242.17 91.25,-261.6 91.25,-314.2 91.25,-493.2 91.25,-493.2 91.25,-493.2 91.25,-519.36 92.17,-549.14 93,-570.46"/>
<polygon fill="black" stroke="black" points="89.5,-570.58 93.4,-580.43 96.49,-570.3 89.5,-570.58"/>
<text text-anchor="middle" x="121.62" y="-398.65" font-family="Times New Roman,serif" font-size="14.00">iterate#111</text>
</g>
<!-- 95 -->
<g id="node22" class="node">
<title>95</title>
<polygon fill="yellow" stroke="black" points="516.88,-177.8 381.62,-177.8 381.62,-141.8 516.88,-141.8 516.88,-177.8"/>
<text text-anchor="middle" x="449.25" y="-154.75" font-family="Times New Roman,serif" font-size="14.00">Index0 &gt; dim1 &#45; 1+ 1</text>
<text text-anchor="middle" x="370.38" y="-181" font-family="Times New Roman,serif" font-size="14.00">[95]</text>
</g>
<!-- 109&#45;&gt;95 -->
<g id="edge14" class="edge">
<title>109&#45;&gt;95</title>
<path fill="none" stroke="black" d="M345.09,-233.81C356.2,-226.02 389.22,-202.88 415.13,-184.71"/>
<polygon fill="black" stroke="black" points="416.89,-187.76 423.07,-179.15 412.87,-182.03 416.89,-187.76"/>
<text text-anchor="middle" x="438.99" y="-199" font-family="Times New Roman,serif" font-size="14.00">graphAnd#114</text>
</g>
<!-- 110 -->
<g id="node13" class="node">
<title>110</title>
<ellipse fill="black" stroke="black" cx="470.25" cy="-1083.3" rx="7.2" ry="7.2"/>
<text text-anchor="middle" x="455.18" y="-1093.7" font-family="Times New Roman,serif" font-size="14.00">[0]</text>
</g>
<!-- 111 -->
<g id="node14" class="node">
<title>111</title>
<polygon fill="yellow" stroke="black" points="574.62,-1039.1 365.88,-1039.1 365.88,-1003.1 574.62,-1003.1 574.62,-1039.1"/>
<text text-anchor="middle" x="470.25" y="-1016.05" font-family="Times New Roman,serif" font-size="14.00">self.data.getDimensionSizes(1) &gt; 0</text>
<text text-anchor="middle" x="351.25" y="-1042.3" font-family="Times New Roman,serif" font-size="14.00">[111]</text>
</g>
<!-- 110&#45;&gt;111 -->
<g id="edge20" class="edge">
<title>110&#45;&gt;111</title>
<path fill="none" stroke="black" d="M470.25,-1075.86C470.25,-1069.8 470.25,-1060.29 470.25,-1050.94"/>
<polygon fill="black" stroke="black" points="473.75,-1050.98 470.25,-1040.98 466.75,-1050.98 473.75,-1050.98"/>
</g>
<!-- 113 -->
<g id="node16" class="node">
<title>113</title>
<polygon fill="aquamarine" stroke="black" points="470.25,-950.6 463.05,-943.4 470.25,-936.2 477.45,-943.4 470.25,-950.6"/>
<text text-anchor="middle" x="444.68" y="-953.8" font-family="Times New Roman,serif" font-size="14.00">&lt;113&gt;</text>
</g>
<!-- 111&#45;&gt;113 -->
<g id="edge1" class="edge">
<title>111&#45;&gt;113</title>
<path fill="none" stroke="black" d="M470.25,-1002.92C470.25,-990.88 470.25,-974.8 470.25,-962.55"/>
<polygon fill="black" stroke="black" points="473.75,-962.64 470.25,-952.64 466.75,-962.64 473.75,-962.64"/>
<text text-anchor="middle" x="510.75" y="-971.8" font-family="Times New Roman,serif" font-size="14.00">graphAnd#128</text>
</g>
<!-- 83 -->
<g id="node18" class="node">
<title>83</title>
<polygon fill="yellow" stroke="black" points="567.62,-618.2 184.88,-618.2 184.88,-582.2 567.62,-582.2 567.62,-618.2"/>
<text text-anchor="middle" x="376.25" y="-595.15" font-family="Times New Roman,serif" font-size="14.00">self.data.getDimensionSizes(1) = result.data.getDimensionSizes(1)</text>
<text text-anchor="middle" x="173.62" y="-621.4" font-family="Times New Roman,serif" font-size="14.00">[83]</text>
</g>
<!-- 80&#45;&gt;83 -->
<g id="edge7" class="edge">
<title>80&#45;&gt;83</title>
<path fill="none" stroke="black" d="M354.58,-670.61C358.26,-658.84 363.22,-642.93 367.48,-629.31"/>
<polygon fill="black" stroke="black" points="370.74,-630.58 370.38,-619.99 364.06,-628.5 370.74,-630.58"/>
<text text-anchor="middle" x="402.29" y="-639.4" font-family="Times New Roman,serif" font-size="14.00">graphAnd#89</text>
</g>
<!-- 113&#45;&gt;68 -->
<g id="edge22" class="edge">
<title>113&#45;&gt;68</title>
<path fill="none" stroke="black" d="M474.66,-940.05C493.34,-930.09 566.47,-891.1 597.84,-874.38"/>
<polygon fill="black" stroke="black" points="599.38,-877.53 606.56,-869.73 596.09,-871.35 599.38,-877.53"/>
<text text-anchor="middle" x="574.01" y="-904.9" font-family="Times New Roman,serif" font-size="14.00">split2#124</text>
</g>
<!-- 113&#45;&gt;74 -->
<g id="edge21" class="edge">
<title>113&#45;&gt;74</title>
<path fill="none" stroke="black" d="M466.95,-939.52C457.93,-931.68 432.2,-909.29 411.63,-891.39"/>
<polygon fill="black" stroke="black" points="414.17,-888.97 404.33,-885.04 409.58,-894.25 414.17,-888.97"/>
<text text-anchor="middle" x="470.61" y="-904.9" font-family="Times New Roman,serif" font-size="14.00">split1#123</text>
</g>
<!-- 114&#45;&gt;72 -->
<g id="edge25" class="edge">
<title>114&#45;&gt;72</title>
<path fill="none" stroke="black" d="M518.25,-74.24C518.25,-64.87 518.25,-47.63 518.25,-33.7"/>
<polygon fill="black" stroke="black" points="521.75,-34.11 518.25,-24.11 514.75,-34.11 521.75,-34.11"/>
<text text-anchor="middle" x="567.38" y="-43.6" font-family="Times New Roman,serif" font-size="14.00">graphOr_end#127</text>
</g>
<!-- 86 -->
<g id="node19" class="node">
<title>86</title>
<polygon fill="yellow" stroke="black" points="534.38,-510.2 306.12,-510.2 306.12,-474.2 534.38,-474.2 534.38,-510.2"/>
<text text-anchor="middle" x="420.25" y="-487.15" font-family="Times New Roman,serif" font-size="14.00">dim1 = arg.data.getDimensionSizes(1)</text>
<text text-anchor="middle" x="294.88" y="-513.4" font-family="Times New Roman,serif" font-size="14.00">[86]</text>
</g>
<!-- 83&#45;&gt;86 -->
<g id="edge17" class="edge">
<title>83&#45;&gt;86</title>
<path fill="none" stroke="black" d="M375.03,-581.95C374.69,-566.99 375.95,-545.13 384.25,-528.2 385.86,-524.91 387.91,-521.76 390.22,-518.79"/>
<polygon fill="black" stroke="black" points="392.61,-521.37 396.69,-511.59 387.4,-516.69 392.61,-521.37"/>
<text text-anchor="middle" x="424.75" y="-541.15" font-family="Times New Roman,serif" font-size="14.00">graphAnd#117</text>
</g>
<!-- 92 -->
<g id="node21" class="node">
<title>92</title>
<polygon fill="yellow" stroke="black" points="497.62,-421.7 426.88,-421.7 426.88,-385.7 497.62,-385.7 497.62,-421.7"/>
<text text-anchor="middle" x="462.25" y="-398.65" font-family="Times New Roman,serif" font-size="14.00">acc = true</text>
<text text-anchor="middle" x="415.62" y="-424.9" font-family="Times New Roman,serif" font-size="14.00">[92]</text>
</g>
<!-- 86&#45;&gt;92 -->
<g id="edge16" class="edge">
<title>86&#45;&gt;92</title>
<path fill="none" stroke="black" d="M428.55,-474.11C434.32,-462.22 442.14,-446.11 448.8,-432.4"/>
<polygon fill="black" stroke="black" points="451.95,-433.94 453.16,-423.41 445.65,-430.88 451.95,-433.94"/>
<text text-anchor="middle" x="485.51" y="-442.9" font-family="Times New Roman,serif" font-size="14.00">graphAnd#116</text>
</g>
<!-- 89 -->
<g id="node20" class="node">
<title>89</title>
<polygon fill="yellow" stroke="black" points="477.25,-333.2 401.25,-333.2 401.25,-297.2 477.25,-297.2 477.25,-333.2"/>
<text text-anchor="middle" x="439.25" y="-310.15" font-family="Times New Roman,serif" font-size="14.00">Index0 = 1</text>
<text text-anchor="middle" x="390" y="-336.4" font-family="Times New Roman,serif" font-size="14.00">[89]</text>
</g>
<!-- 89&#45;&gt;109 -->
<g id="edge15" class="edge">
<title>89&#45;&gt;109</title>
<path fill="none" stroke="black" d="M428.47,-297.1C420.84,-286.11 409.77,-272.16 397.25,-262.7 385.21,-253.6 369.23,-247.13 357.42,-243.19"/>
<polygon fill="black" stroke="black" points="358.66,-239.91 348.08,-240.33 356.62,-246.6 358.66,-239.91"/>
<text text-anchor="middle" x="454.85" y="-265.9" font-family="Times New Roman,serif" font-size="14.00">graphAnd#115</text>
</g>
<!-- 92&#45;&gt;89 -->
<g id="edge8" class="edge">
<title>92&#45;&gt;89</title>
<path fill="none" stroke="black" d="M457.71,-385.61C454.58,-373.84 450.35,-357.93 446.72,-344.31"/>
<polygon fill="black" stroke="black" points="450.2,-343.78 444.25,-335.01 443.44,-345.58 450.2,-343.78"/>
<text text-anchor="middle" x="489.94" y="-354.4" font-family="Times New Roman,serif" font-size="14.00">graphAnd#96</text>
</g>
<!-- 95&#45;&gt;114 -->
<g id="edge23" class="edge">
<title>95&#45;&gt;114</title>
<path fill="none" stroke="black" d="M458.8,-141.42C465.11,-130.85 474.04,-117.48 484,-107.3 490,-101.17 497.74,-95.55 504.34,-91.28"/>
<polygon fill="black" stroke="black" points="505.84,-94.46 512.58,-86.28 502.21,-88.47 505.84,-94.46"/>
<text text-anchor="middle" x="518.12" y="-110.5" font-family="Times New Roman,serif" font-size="14.00">merge1#125</text>
</g>
<!-- 63&#45;&gt;69 -->
<g id="edge4" class="edge">
<title>63&#45;&gt;69</title>
<path fill="none" stroke="black" d="M900.63,-758.8C814.24,-738.1 675.78,-704.92 628.61,-693.62"/>
<polygon fill="black" stroke="black" points="629.65,-690.27 619.11,-691.34 628.02,-697.08 629.65,-690.27"/>
<text text-anchor="middle" x="855.83" y="-727.9" font-family="Times New Roman,serif" font-size="14.00">merge1#75</text>
</g>
</g>
</svg>
