<?xml version="1.0" encoding="UTF-8" standalone="no"?>
<!DOCTYPE svg PUBLIC "-//W3C//DTD SVG 1.1//EN"
 "http://www.w3.org/Graphics/SVG/1.1/DTD/svg11.dtd">
<!-- Generated by graphviz version 12.2.1 (20241206.2353)
 -->
<!-- Title: CLG Pages: 1 -->
<svg width="233pt" height="260pt"
 viewBox="0.00 0.00 232.50 259.80" xmlns="http://www.w3.org/2000/svg" xmlns:xlink="http://www.w3.org/1999/xlink">
<g id="graph0" class="graph" transform="scale(1 1) rotate(0) translate(4 255.8)">
<title>CLG</title>
<polygon fill="white" stroke="none" points="-4,4 -4,-255.8 228.5,-255.8 228.5,4 -4,4"/>
<!-- 4 -->
<g id="node1" class="node">
<title>4</title>
<polygon fill="yellow" stroke="black" points="188.5,-95.4 51.75,-95.4 51.75,-59.4 188.5,-59.4 188.5,-95.4"/>
<text text-anchor="middle" x="120.12" y="-72.35" font-family="Times New Roman,serif" font-size="14.00">self.data = inputArray</text>
<text text-anchor="middle" x="43.88" y="-98.6" font-family="Times New Roman,serif" font-size="14.00">[4]</text>
</g>
<!-- 5 -->
<g id="node2" class="node">
<title>5</title>
<ellipse fill="black" stroke="black" cx="120.12" cy="-11.2" rx="7.2" ry="7.2"/>
<ellipse fill="none" stroke="black" cx="120.12" cy="-11.2" rx="11.2" ry="11.2"/>
<text text-anchor="middle" x="98.8" y="-25.6" font-family="Times New Roman,serif" font-size="14.00">[&#45;1]</text>
</g>
<!-- 4&#45;&gt;5 -->
<g id="edge1" class="edge">
<title>4&#45;&gt;5</title>
<path fill="none" stroke="black" d="M120.12,-59.2C120.12,-51.5 120.12,-42.34 120.12,-34.15"/>
<polygon fill="black" stroke="black" points="123.63,-34.32 120.13,-24.32 116.63,-34.32 123.63,-34.32"/>
</g>
<!-- 6 -->
<g id="node3" class="node">
<title>6</title>
<ellipse fill="black" stroke="black" cx="120.12" cy="-228.1" rx="7.2" ry="7.2"/>
<text text-anchor="middle" x="105.05" y="-238.5" font-family="Times New Roman,serif" font-size="14.00">[0]</text>
</g>
<!-- 7 -->
<g id="node4" class="node">
<title>7</title>
<polygon fill="yellow" stroke="black" points="224.5,-183.9 15.75,-183.9 15.75,-147.9 224.5,-147.9 224.5,-183.9"/>
<text text-anchor="middle" x="120.12" y="-160.85" font-family="Times New Roman,serif" font-size="14.00">self.data.getDimensionSizes(1) &gt; 0</text>
<text text-anchor="middle" x="7.88" y="-187.1" font-family="Times New Roman,serif" font-size="14.00">[7]</text>
</g>
<!-- 6&#45;&gt;7 -->
<g id="edge2" class="edge">
<title>6&#45;&gt;7</title>
<path fill="none" stroke="black" d="M120.12,-220.66C120.12,-214.6 120.12,-205.09 120.12,-195.74"/>
<polygon fill="black" stroke="black" points="123.63,-195.78 120.13,-185.78 116.63,-195.78 123.63,-195.78"/>
</g>
<!-- 7&#45;&gt;4 -->
<g id="edge3" class="edge">
<title>7&#45;&gt;4</title>
<path fill="none" stroke="black" d="M120.12,-147.81C120.12,-136.16 120.12,-120.45 120.12,-106.92"/>
<polygon fill="black" stroke="black" points="123.63,-107.26 120.13,-97.26 116.63,-107.26 123.63,-107.26"/>
<text text-anchor="middle" x="153.88" y="-116.6" font-family="Times New Roman,serif" font-size="14.00">graphAnd#6</text>
</g>
</g>
</svg>
