<?xml version="1.0" encoding="UTF-8" standalone="no"?>
<!DOCTYPE svg PUBLIC "-//W3C//DTD SVG 1.1//EN"
 "http://www.w3.org/Graphics/SVG/1.1/DTD/svg11.dtd">
<!-- Generated by graphviz version 12.2.1 (20241206.2353)
 -->
<!-- Title: CLG Pages: 1 -->
<svg width="1161pt" height="1239pt"
 viewBox="0.00 0.00 1161.00 1238.70" xmlns="http://www.w3.org/2000/svg" xmlns:xlink="http://www.w3.org/1999/xlink">
<g id="graph0" class="graph" transform="scale(1 1) rotate(0) translate(4 1234.7)">
<title>CLG</title>
<polygon fill="white" stroke="none" points="-4,4 -4,-1234.7 1157,-1234.7 1157,4 -4,4"/>
<!-- 64 -->
<g id="node1" class="node">
<title>64</title>
<polygon fill="yellow" stroke="black" points="795,-1162.8 586.25,-1162.8 586.25,-1126.8 795,-1126.8 795,-1162.8"/>
<text text-anchor="middle" x="690.62" y="-1139.75" font-family="Times New Roman,serif" font-size="14.00">self.data.getDimensionSizes(1) &gt; 0</text>
<text text-anchor="middle" x="575" y="-1166" font-family="Times New Roman,serif" font-size="14.00">[64]</text>
</g>
<!-- 66 -->
<g id="node2" class="node">
<title>66</title>
<polygon fill="aquamarine" stroke="black" points="690.62,-1074.3 683.42,-1067.1 690.62,-1059.9 697.83,-1067.1 690.62,-1074.3"/>
<text text-anchor="middle" x="668.42" y="-1077.5" font-family="Times New Roman,serif" font-size="14.00">&lt;66&gt;</text>
</g>
<!-- 64&#45;&gt;66 -->
<g id="edge8" class="edge">
<title>64&#45;&gt;66</title>
<path fill="none" stroke="black" d="M690.62,-1126.62C690.62,-1114.58 690.62,-1098.5 690.62,-1086.25"/>
<polygon fill="black" stroke="black" points="694.13,-1086.34 690.63,-1076.34 687.13,-1086.34 694.13,-1086.34"/>
<text text-anchor="middle" x="727.75" y="-1095.5" font-family="Times New Roman,serif" font-size="14.00">graphAnd#73</text>
</g>
<!-- 21 -->
<g id="node8" class="node">
<title>21</title>
<polygon fill="aquamarine" stroke="black" points="603.62,-996.6 596.42,-989.4 603.62,-982.2 610.83,-989.4 603.62,-996.6"/>
<text text-anchor="middle" x="581.42" y="-999.8" font-family="Times New Roman,serif" font-size="14.00">&lt;21&gt;</text>
</g>
<!-- 66&#45;&gt;21 -->
<g id="edge4" class="edge">
<title>66&#45;&gt;21</title>
<path fill="none" stroke="black" d="M687.32,-1063.22C675.69,-1053.11 636.26,-1018.8 615.95,-1001.12"/>
<polygon fill="black" stroke="black" points="618.3,-998.53 608.46,-994.6 613.7,-1003.81 618.3,-998.53"/>
<text text-anchor="middle" x="687.61" y="-1028.6" font-family="Times New Roman,serif" font-size="14.00">split2#69</text>
</g>
<!-- 27 -->
<g id="node12" class="node">
<title>27</title>
<polygon fill="yellow" stroke="black" points="1019.38,-1007.4 719.88,-1007.4 719.88,-971.4 1019.38,-971.4 1019.38,-1007.4"/>
<text text-anchor="middle" x="869.62" y="-984.35" font-family="Times New Roman,serif" font-size="14.00">self.data.getDimension() = arg.data.getDimension()</text>
<text text-anchor="middle" x="708.62" y="-1010.6" font-family="Times New Roman,serif" font-size="14.00">[27]</text>
</g>
<!-- 66&#45;&gt;27 -->
<g id="edge3" class="edge">
<title>66&#45;&gt;27</title>
<path fill="none" stroke="black" d="M695.41,-1064.08C712.71,-1056.76 773.29,-1031.14 818.18,-1012.16"/>
<polygon fill="black" stroke="black" points="819.4,-1015.44 827.25,-1008.32 816.68,-1008.99 819.4,-1015.44"/>
<text text-anchor="middle" x="810.62" y="-1028.6" font-family="Times New Roman,serif" font-size="14.00">split1#68</text>
</g>
<!-- 67 -->
<g id="node3" class="node">
<title>67</title>
<polygon fill="aquamarine" stroke="black" points="744.62,-202.2 737.42,-195 744.62,-187.8 751.83,-195 744.62,-202.2"/>
<text text-anchor="middle" x="722.42" y="-205.4" font-family="Times New Roman,serif" font-size="14.00">&lt;67&gt;</text>
</g>
<!-- 25 -->
<g id="node11" class="node">
<title>25</title>
<ellipse fill="black" stroke="black" cx="744.62" cy="-106.5" rx="7.2" ry="7.2"/>
<ellipse fill="none" stroke="black" cx="744.62" cy="-106.5" rx="11.2" ry="11.2"/>
<text text-anchor="middle" x="723.3" y="-120.9" font-family="Times New Roman,serif" font-size="14.00">[&#45;1]</text>
</g>
<!-- 67&#45;&gt;25 -->
<g id="edge7" class="edge">
<title>67&#45;&gt;25</title>
<path fill="none" stroke="black" d="M744.62,-187.21C744.62,-174.92 744.62,-148.49 744.62,-129.43"/>
<polygon fill="black" stroke="black" points="748.13,-129.44 744.63,-119.44 741.13,-129.44 748.13,-129.44"/>
<text text-anchor="middle" x="790.38" y="-145.7" font-family="Times New Roman,serif" font-size="14.00">graphOr_end#72</text>
</g>
<!-- 10 -->
<g id="node4" class="node">
<title>10</title>
<polygon fill="yellow" stroke="black" points="757.5,-918.9 449.75,-918.9 449.75,-882.9 757.5,-882.9 757.5,-918.9"/>
<text text-anchor="middle" x="603.62" y="-895.85" font-family="Times New Roman,serif" font-size="14.00">self.data.getDimension() &lt;&gt; arg.data.getDimension()</text>
<text text-anchor="middle" x="438.5" y="-922.1" font-family="Times New Roman,serif" font-size="14.00">[10]</text>
</g>
<!-- 13 -->
<g id="node5" class="node">
<title>13</title>
<polygon fill="yellow" stroke="black" points="788.62,-830.4 418.62,-830.4 418.62,-794.4 788.62,-794.4 788.62,-830.4"/>
<text text-anchor="middle" x="603.62" y="-807.35" font-family="Times New Roman,serif" font-size="14.00">self.data.getDimensionSizes(1) = arg.data.getDimensionSizes(1)</text>
<text text-anchor="middle" x="407.38" y="-833.6" font-family="Times New Roman,serif" font-size="14.00">[13]</text>
</g>
<!-- 10&#45;&gt;13 -->
<g id="edge9" class="edge">
<title>10&#45;&gt;13</title>
<path fill="none" stroke="black" d="M603.62,-882.81C603.62,-871.16 603.62,-855.45 603.62,-841.92"/>
<polygon fill="black" stroke="black" points="607.13,-842.26 603.63,-832.26 600.13,-842.26 607.13,-842.26"/>
<text text-anchor="middle" x="640.75" y="-851.6" font-family="Times New Roman,serif" font-size="14.00">graphAnd#11</text>
</g>
<!-- 22 -->
<g id="node9" class="node">
<title>22</title>
<polygon fill="aquamarine" stroke="black" points="603.62,-731.1 596.42,-723.9 603.62,-716.7 610.83,-723.9 603.62,-731.1"/>
<text text-anchor="middle" x="581.42" y="-734.3" font-family="Times New Roman,serif" font-size="14.00">&lt;22&gt;</text>
</g>
<!-- 13&#45;&gt;22 -->
<g id="edge13" class="edge">
<title>13&#45;&gt;22</title>
<path fill="none" stroke="black" d="M603.62,-794.31C603.62,-779.54 603.62,-758.23 603.62,-743.13"/>
<polygon fill="black" stroke="black" points="607.13,-743.29 603.63,-733.29 600.13,-743.29 607.13,-743.29"/>
<text text-anchor="middle" x="634.38" y="-763.1" font-family="Times New Roman,serif" font-size="14.00">merge1#20</text>
</g>
<!-- 16 -->
<g id="node6" class="node">
<title>16</title>
<polygon fill="yellow" stroke="black" points="414.38,-918.9 114.88,-918.9 114.88,-882.9 414.38,-882.9 414.38,-918.9"/>
<text text-anchor="middle" x="264.62" y="-895.85" font-family="Times New Roman,serif" font-size="14.00">self.data.getDimension() = arg.data.getDimension()</text>
<text text-anchor="middle" x="103.62" y="-922.1" font-family="Times New Roman,serif" font-size="14.00">[16]</text>
</g>
<!-- 19 -->
<g id="node7" class="node">
<title>19</title>
<polygon fill="yellow" stroke="black" points="400.75,-830.4 22.5,-830.4 22.5,-794.4 400.75,-794.4 400.75,-830.4"/>
<text text-anchor="middle" x="211.62" y="-807.35" font-family="Times New Roman,serif" font-size="14.00">self.data.getDimensionSizes(1) &lt;&gt; arg.data.getDimensionSizes(1)</text>
<text text-anchor="middle" x="11.25" y="-833.6" font-family="Times New Roman,serif" font-size="14.00">[19]</text>
</g>
<!-- 16&#45;&gt;19 -->
<g id="edge10" class="edge">
<title>16&#45;&gt;19</title>
<path fill="none" stroke="black" d="M254.15,-882.81C246.73,-870.69 236.61,-854.17 228.1,-840.29"/>
<polygon fill="black" stroke="black" points="231.26,-838.74 223.05,-832.04 225.29,-842.4 231.26,-838.74"/>
<text text-anchor="middle" x="280" y="-851.6" font-family="Times New Roman,serif" font-size="14.00">graphAnd#16</text>
</g>
<!-- 19&#45;&gt;22 -->
<g id="edge14" class="edge">
<title>19&#45;&gt;22</title>
<path fill="none" stroke="black" d="M290.48,-794C385.1,-773.12 537.24,-739.55 587.17,-728.53"/>
<polygon fill="black" stroke="black" points="587.72,-731.99 596.73,-726.42 586.21,-725.16 587.72,-731.99"/>
<text text-anchor="middle" x="473.49" y="-763.1" font-family="Times New Roman,serif" font-size="14.00">merge2#21</text>
</g>
<!-- 21&#45;&gt;10 -->
<g id="edge11" class="edge">
<title>21&#45;&gt;10</title>
<path fill="none" stroke="black" d="M603.62,-981.61C603.62,-970.75 603.62,-948.85 603.62,-930.75"/>
<polygon fill="black" stroke="black" points="607.13,-930.79 603.63,-920.79 600.13,-930.79 607.13,-930.79"/>
<text text-anchor="middle" x="628.75" y="-940.1" font-family="Times New Roman,serif" font-size="14.00">split1#18</text>
</g>
<!-- 21&#45;&gt;16 -->
<g id="edge12" class="edge">
<title>21&#45;&gt;16</title>
<path fill="none" stroke="black" d="M598.3,-987.04C569.8,-979.77 433.22,-944.92 343.87,-922.12"/>
<polygon fill="black" stroke="black" points="344.97,-918.79 334.42,-919.71 343.24,-925.57 344.97,-918.79"/>
<text text-anchor="middle" x="489.61" y="-940.1" font-family="Times New Roman,serif" font-size="14.00">split2#19</text>
</g>
<!-- 24 -->
<g id="node10" class="node">
<title>24</title>
<polygon fill="yellow" stroke="black" points="776.88,-599.4 588.38,-599.4 588.38,-563.4 776.88,-563.4 776.88,-599.4"/>
<text text-anchor="middle" x="682.62" y="-576.35" font-family="Times New Roman,serif" font-size="14.00">Result = &#39;IllegalDimensionSize&#39;</text>
<text text-anchor="middle" x="577.12" y="-602.6" font-family="Times New Roman,serif" font-size="14.00">[24]</text>
</g>
<!-- 22&#45;&gt;24 -->
<g id="edge27" class="edge">
<title>22&#45;&gt;24</title>
<path fill="none" stroke="black" d="M606.08,-718.54C615.19,-702.34 647.58,-644.73 667.19,-609.85"/>
<polygon fill="black" stroke="black" points="670.23,-611.58 672.08,-601.15 664.13,-608.15 670.23,-611.58"/>
<text text-anchor="middle" x="668.56" y="-674.6" font-family="Times New Roman,serif" font-size="14.00">graphAnd#63</text>
</g>
<!-- 24&#45;&gt;67 -->
<g id="edge6" class="edge">
<title>24&#45;&gt;67</title>
<path fill="none" stroke="black" d="M686.39,-563.11C690.22,-543.91 695.62,-511.97 695.62,-484.15 695.62,-484.15 695.62,-484.15 695.62,-282.5 695.62,-252.2 718.67,-222.78 733.15,-207.28"/>
<polygon fill="black" stroke="black" points="735.5,-209.89 740.04,-200.31 730.52,-204.97 735.5,-209.89"/>
<text text-anchor="middle" x="726.38" y="-389.6" font-family="Times New Roman,serif" font-size="14.00">merge2#71</text>
</g>
<!-- 30 -->
<g id="node13" class="node">
<title>30</title>
<polygon fill="yellow" stroke="black" points="1146.62,-918.9 776.62,-918.9 776.62,-882.9 1146.62,-882.9 1146.62,-918.9"/>
<text text-anchor="middle" x="961.62" y="-895.85" font-family="Times New Roman,serif" font-size="14.00">self.data.getDimensionSizes(1) = arg.data.getDimensionSizes(1)</text>
<text text-anchor="middle" x="765.38" y="-922.1" font-family="Times New Roman,serif" font-size="14.00">[30]</text>
</g>
<!-- 27&#45;&gt;30 -->
<g id="edge15" class="edge">
<title>27&#45;&gt;30</title>
<path fill="none" stroke="black" d="M887.8,-971.31C901.32,-958.6 919.98,-941.06 935.15,-926.79"/>
<polygon fill="black" stroke="black" points="937.18,-929.69 942.07,-920.29 932.39,-924.59 937.18,-929.69"/>
<text text-anchor="middle" x="960.99" y="-940.1" font-family="Times New Roman,serif" font-size="14.00">graphAnd#29</text>
</g>
<!-- 33 -->
<g id="node14" class="node">
<title>33</title>
<polygon fill="yellow" stroke="black" points="1118.75,-830.4 806.5,-830.4 806.5,-794.4 1118.75,-794.4 1118.75,-830.4"/>
<text text-anchor="middle" x="962.62" y="-807.35" font-family="Times New Roman,serif" font-size="14.00">self.data.getDimension() = result.data.getDimension()</text>
<text text-anchor="middle" x="795.25" y="-833.6" font-family="Times New Roman,serif" font-size="14.00">[33]</text>
</g>
<!-- 30&#45;&gt;33 -->
<g id="edge1" class="edge">
<title>30&#45;&gt;33</title>
<path fill="none" stroke="black" d="M961.82,-882.81C961.96,-871.16 962.14,-855.45 962.3,-841.92"/>
<polygon fill="black" stroke="black" points="965.79,-842.3 962.41,-832.26 958.79,-842.22 965.79,-842.3"/>
<text text-anchor="middle" x="999.34" y="-851.6" font-family="Times New Roman,serif" font-size="14.00">graphAnd#64</text>
</g>
<!-- 36 -->
<g id="node15" class="node">
<title>36</title>
<polygon fill="yellow" stroke="black" points="1153,-741.9 770.25,-741.9 770.25,-705.9 1153,-705.9 1153,-741.9"/>
<text text-anchor="middle" x="961.62" y="-718.85" font-family="Times New Roman,serif" font-size="14.00">self.data.getDimensionSizes(1) = result.data.getDimensionSizes(1)</text>
<text text-anchor="middle" x="759" y="-745.1" font-family="Times New Roman,serif" font-size="14.00">[36]</text>
</g>
<!-- 33&#45;&gt;36 -->
<g id="edge16" class="edge">
<title>33&#45;&gt;36</title>
<path fill="none" stroke="black" d="M962.43,-794.31C962.29,-782.66 962.11,-766.95 961.95,-753.42"/>
<polygon fill="black" stroke="black" points="965.46,-753.72 961.84,-743.76 958.46,-753.8 965.46,-753.72"/>
<text text-anchor="middle" x="999.34" y="-763.1" font-family="Times New Roman,serif" font-size="14.00">graphAnd#34</text>
</g>
<!-- 39 -->
<g id="node16" class="node">
<title>39</title>
<polygon fill="yellow" stroke="black" points="1075.75,-653.4 847.5,-653.4 847.5,-617.4 1075.75,-617.4 1075.75,-653.4"/>
<text text-anchor="middle" x="961.62" y="-630.35" font-family="Times New Roman,serif" font-size="14.00">dim1 = arg.data.getDimensionSizes(1)</text>
<text text-anchor="middle" x="836.25" y="-656.6" font-family="Times New Roman,serif" font-size="14.00">[39]</text>
</g>
<!-- 36&#45;&gt;39 -->
<g id="edge26" class="edge">
<title>36&#45;&gt;39</title>
<path fill="none" stroke="black" d="M961.62,-705.81C961.62,-694.16 961.62,-678.45 961.62,-664.92"/>
<polygon fill="black" stroke="black" points="965.13,-665.26 961.63,-655.26 958.13,-665.26 965.13,-665.26"/>
<text text-anchor="middle" x="998.75" y="-674.6" font-family="Times New Roman,serif" font-size="14.00">graphAnd#62</text>
</g>
<!-- 45 -->
<g id="node18" class="node">
<title>45</title>
<polygon fill="yellow" stroke="black" points="995,-545.4 924.25,-545.4 924.25,-509.4 995,-509.4 995,-545.4"/>
<text text-anchor="middle" x="959.62" y="-522.35" font-family="Times New Roman,serif" font-size="14.00">acc = true</text>
<text text-anchor="middle" x="913" y="-548.6" font-family="Times New Roman,serif" font-size="14.00">[45]</text>
</g>
<!-- 39&#45;&gt;45 -->
<g id="edge25" class="edge">
<title>39&#45;&gt;45</title>
<path fill="none" stroke="black" d="M961.3,-617.37C961,-601.16 960.53,-576.46 960.17,-557.19"/>
<polygon fill="black" stroke="black" points="963.67,-557.19 959.98,-547.25 956.67,-557.32 963.67,-557.19"/>
<text text-anchor="middle" x="998.05" y="-576.35" font-family="Times New Roman,serif" font-size="14.00">graphAnd#61</text>
</g>
<!-- 42 -->
<g id="node17" class="node">
<title>42</title>
<polygon fill="yellow" stroke="black" points="997.62,-456.9 921.62,-456.9 921.62,-420.9 997.62,-420.9 997.62,-456.9"/>
<text text-anchor="middle" x="959.62" y="-433.85" font-family="Times New Roman,serif" font-size="14.00">Index0 = 1</text>
<text text-anchor="middle" x="910.38" y="-460.1" font-family="Times New Roman,serif" font-size="14.00">[42]</text>
</g>
<!-- 62 -->
<g id="node24" class="node">
<title>62</title>
<polygon fill="aquamarine" stroke="black" points="958.62,-368.4 951.42,-361.2 958.62,-354 965.83,-361.2 958.62,-368.4"/>
<text text-anchor="middle" x="936.42" y="-371.6" font-family="Times New Roman,serif" font-size="14.00">&lt;62&gt;</text>
</g>
<!-- 42&#45;&gt;62 -->
<g id="edge24" class="edge">
<title>42&#45;&gt;62</title>
<path fill="none" stroke="black" d="M959.4,-420.72C959.24,-408.68 959.03,-392.6 958.86,-380.35"/>
<polygon fill="black" stroke="black" points="962.37,-380.39 958.73,-370.44 955.37,-380.48 962.37,-380.39"/>
<text text-anchor="middle" x="996.28" y="-389.6" font-family="Times New Roman,serif" font-size="14.00">graphAnd#60</text>
</g>
<!-- 45&#45;&gt;42 -->
<g id="edge17" class="edge">
<title>45&#45;&gt;42</title>
<path fill="none" stroke="black" d="M959.62,-509.31C959.62,-497.66 959.62,-481.95 959.62,-468.42"/>
<polygon fill="black" stroke="black" points="963.13,-468.76 959.63,-458.76 956.13,-468.76 963.13,-468.76"/>
<text text-anchor="middle" x="996.75" y="-478.1" font-family="Times New Roman,serif" font-size="14.00">graphAnd#41</text>
</g>
<!-- 48 -->
<g id="node19" class="node">
<title>48</title>
<polygon fill="yellow" stroke="black" points="866.25,-301.5 731,-301.5 731,-265.5 866.25,-265.5 866.25,-301.5"/>
<text text-anchor="middle" x="798.62" y="-278.45" font-family="Times New Roman,serif" font-size="14.00">Index0 &gt; dim1 &#45; 1+ 1</text>
<text text-anchor="middle" x="719.75" y="-304.7" font-family="Times New Roman,serif" font-size="14.00">[48]</text>
</g>
<!-- 48&#45;&gt;67 -->
<g id="edge5" class="edge">
<title>48&#45;&gt;67</title>
<path fill="none" stroke="black" d="M787.96,-265.41C777.77,-249.09 762.61,-224.81 753.18,-209.71"/>
<polygon fill="black" stroke="black" points="756.34,-208.16 748.08,-201.53 750.4,-211.87 756.34,-208.16"/>
<text text-anchor="middle" x="807.21" y="-234.2" font-family="Times New Roman,serif" font-size="14.00">merge1#70</text>
</g>
<!-- 51 -->
<g id="node20" class="node">
<title>51</title>
<polygon fill="yellow" stroke="black" points="1030.38,-301.5 886.88,-301.5 886.88,-265.5 1030.38,-265.5 1030.38,-301.5"/>
<text text-anchor="middle" x="958.62" y="-278.45" font-family="Times New Roman,serif" font-size="14.00">Index0 &lt;= dim1 &#45; 1+ 1</text>
<text text-anchor="middle" x="875.62" y="-304.7" font-family="Times New Roman,serif" font-size="14.00">[51]</text>
</g>
<!-- 54 -->
<g id="node21" class="node">
<title>54</title>
<polygon fill="yellow" stroke="black" points="1004.25,-213 857,-213 857,-177 1004.25,-177 1004.25,-213"/>
<text text-anchor="middle" x="930.62" y="-189.95" font-family="Times New Roman,serif" font-size="14.00">it = Sequence{1..dim1}</text>
<text text-anchor="middle" x="845.75" y="-216.2" font-family="Times New Roman,serif" font-size="14.00">[54]</text>
</g>
<!-- 51&#45;&gt;54 -->
<g id="edge18" class="edge">
<title>51&#45;&gt;54</title>
<path fill="none" stroke="black" d="M953.09,-265.41C949.28,-253.64 944.13,-237.73 939.72,-224.11"/>
<polygon fill="black" stroke="black" points="943.12,-223.23 936.71,-214.79 936.46,-225.38 943.12,-223.23"/>
<text text-anchor="middle" x="984.26" y="-234.2" font-family="Times New Roman,serif" font-size="14.00">graphAnd#52</text>
</g>
<!-- 57 -->
<g id="node22" class="node">
<title>57</title>
<polygon fill="yellow" stroke="black" points="1042.88,-124.5 800.38,-124.5 800.38,-88.5 1042.88,-88.5 1042.88,-124.5"/>
<text text-anchor="middle" x="921.62" y="-101.45" font-family="Times New Roman,serif" font-size="14.00">result.data[it] = self.data[it] + arg.data[it]</text>
<text text-anchor="middle" x="789.12" y="-127.7" font-family="Times New Roman,serif" font-size="14.00">[57]</text>
</g>
<!-- 54&#45;&gt;57 -->
<g id="edge19" class="edge">
<title>54&#45;&gt;57</title>
<path fill="none" stroke="black" d="M928.85,-176.91C927.63,-165.26 926,-149.55 924.59,-136.02"/>
<polygon fill="black" stroke="black" points="928.1,-135.94 923.59,-126.36 921.14,-136.66 928.1,-135.94"/>
<text text-anchor="middle" x="964.06" y="-145.7" font-family="Times New Roman,serif" font-size="14.00">graphAnd#53</text>
</g>
<!-- 60 -->
<g id="node23" class="node">
<title>60</title>
<polygon fill="yellow" stroke="black" points="1060.25,-36 931,-36 931,0 1060.25,0 1060.25,-36"/>
<text text-anchor="middle" x="995.62" y="-12.95" font-family="Times New Roman,serif" font-size="14.00">Index0 = Index0 + 1</text>
<text text-anchor="middle" x="919.75" y="-39.2" font-family="Times New Roman,serif" font-size="14.00">[60]</text>
</g>
<!-- 57&#45;&gt;60 -->
<g id="edge20" class="edge">
<title>57&#45;&gt;60</title>
<path fill="none" stroke="black" d="M936.25,-88.41C946.82,-76.05 961.3,-59.13 973.31,-45.08"/>
<polygon fill="black" stroke="black" points="975.96,-47.37 979.8,-37.5 970.64,-42.82 975.96,-47.37"/>
<text text-anchor="middle" x="1002.38" y="-57.2" font-family="Times New Roman,serif" font-size="14.00">graphAnd#54</text>
</g>
<!-- 60&#45;&gt;62 -->
<g id="edge22" class="edge">
<title>60&#45;&gt;62</title>
<path fill="none" stroke="black" d="M1024.41,-36.49C1045.56,-51.77 1070.62,-76.08 1070.62,-105.5 1070.62,-284.5 1070.62,-284.5 1070.62,-284.5 1070.62,-329.88 1006.72,-349.9 975.45,-356.97"/>
<polygon fill="black" stroke="black" points="974.91,-353.51 965.82,-358.95 976.31,-360.37 974.91,-353.51"/>
<text text-anchor="middle" x="1097.62" y="-189.95" font-family="Times New Roman,serif" font-size="14.00">iterate#57</text>
</g>
<!-- 62&#45;&gt;48 -->
<g id="edge23" class="edge">
<title>62&#45;&gt;48</title>
<path fill="none" stroke="black" d="M953.13,-359.03C940.1,-356.13 906.47,-348 880.38,-336 863.66,-328.31 846.26,-317.76 831.83,-308.2"/>
<polygon fill="black" stroke="black" points="833.86,-305.35 823.62,-302.65 829.94,-311.15 833.86,-305.35"/>
<text text-anchor="middle" x="917.5" y="-322.7" font-family="Times New Roman,serif" font-size="14.00">graphAnd#59</text>
</g>
<!-- 62&#45;&gt;51 -->
<g id="edge21" class="edge">
<title>62&#45;&gt;51</title>
<path fill="none" stroke="black" d="M958.62,-353.48C958.62,-344.4 958.62,-327.65 958.62,-312.93"/>
<polygon fill="black" stroke="black" points="962.13,-313.26 958.63,-303.26 955.13,-313.26 962.13,-313.26"/>
<text text-anchor="middle" x="985.62" y="-322.7" font-family="Times New Roman,serif" font-size="14.00">iterate#56</text>
</g>
<!-- 63 -->
<g id="node25" class="node">
<title>63</title>
<ellipse fill="black" stroke="black" cx="690.62" cy="-1207" rx="7.2" ry="7.2"/>
<text text-anchor="middle" x="675.55" y="-1217.4" font-family="Times New Roman,serif" font-size="14.00">[0]</text>
</g>
<!-- 63&#45;&gt;64 -->
<g id="edge2" class="edge">
<title>63&#45;&gt;64</title>
<path fill="none" stroke="black" d="M690.62,-1199.56C690.62,-1193.5 690.62,-1183.99 690.62,-1174.64"/>
<polygon fill="black" stroke="black" points="694.13,-1174.68 690.63,-1164.68 687.13,-1174.68 694.13,-1174.68"/>
</g>
</g>
</svg>
