<?xml version="1.0" encoding="UTF-8" standalone="no"?>
<!DOCTYPE svg PUBLIC "-//W3C//DTD SVG 1.1//EN"
 "http://www.w3.org/Graphics/SVG/1.1/DTD/svg11.dtd">
<!-- Generated by graphviz version 12.2.1 (20241206.2353)
 -->
<!-- Title: CLG Pages: 1 -->
<svg width="887pt" height="948pt"
 viewBox="0.00 0.00 886.62 948.00" xmlns="http://www.w3.org/2000/svg" xmlns:xlink="http://www.w3.org/1999/xlink">
<g id="graph0" class="graph" transform="scale(1 1) rotate(0) translate(4 944)">
<title>CLG</title>
<polygon fill="white" stroke="none" points="-4,4 -4,-944 882.62,-944 882.62,4 -4,4"/>
<!-- 34 -->
<g id="node1" class="node">
<title>34</title>
<polygon fill="yellow" stroke="black" points="152.5,-620.7 22.5,-620.7 22.5,-584.7 152.5,-584.7 152.5,-620.7"/>
<text text-anchor="middle" x="87.5" y="-597.65" font-family="Times New Roman,serif" font-size="14.00">idx0 &lt;= dim1 &#45; 1+ 1</text>
<text text-anchor="middle" x="11.25" y="-623.9" font-family="Times New Roman,serif" font-size="14.00">[34]</text>
</g>
<!-- 37 -->
<g id="node2" class="node">
<title>37</title>
<polygon fill="yellow" stroke="black" points="256.12,-510.2 108.88,-510.2 108.88,-474.2 256.12,-474.2 256.12,-510.2"/>
<text text-anchor="middle" x="182.5" y="-487.15" font-family="Times New Roman,serif" font-size="14.00">it = Sequence{1..dim1}</text>
<text text-anchor="middle" x="97.62" y="-513.4" font-family="Times New Roman,serif" font-size="14.00">[37]</text>
</g>
<!-- 34&#45;&gt;37 -->
<g id="edge1" class="edge">
<title>34&#45;&gt;37</title>
<path fill="none" stroke="black" d="M102.76,-584.27C118.21,-566.63 142.26,-539.16 159.91,-519"/>
<polygon fill="black" stroke="black" points="162.32,-521.56 166.28,-511.73 157.06,-516.95 162.32,-521.56"/>
<text text-anchor="middle" x="188.9" y="-541.15" font-family="Times New Roman,serif" font-size="14.00">graphAnd#32</text>
</g>
<!-- 40 -->
<g id="node3" class="node">
<title>40</title>
<polygon fill="yellow" stroke="black" points="388.75,-421.7 146.25,-421.7 146.25,-385.7 388.75,-385.7 388.75,-421.7"/>
<text text-anchor="middle" x="267.5" y="-398.65" font-family="Times New Roman,serif" font-size="14.00">result.data[it] = self.data[it] + arg.data[it]</text>
<text text-anchor="middle" x="135" y="-424.9" font-family="Times New Roman,serif" font-size="14.00">[40]</text>
</g>
<!-- 37&#45;&gt;40 -->
<g id="edge2" class="edge">
<title>37&#45;&gt;40</title>
<path fill="none" stroke="black" d="M199.29,-474.11C211.67,-461.52 228.7,-444.18 242.65,-429.99"/>
<polygon fill="black" stroke="black" points="244.88,-432.72 249.39,-423.13 239.88,-427.81 244.88,-432.72"/>
<text text-anchor="middle" x="269.74" y="-442.9" font-family="Times New Roman,serif" font-size="14.00">graphAnd#33</text>
</g>
<!-- 43 -->
<g id="node5" class="node">
<title>43</title>
<polygon fill="yellow" stroke="black" points="354.62,-333.2 252.38,-333.2 252.38,-297.2 354.62,-297.2 354.62,-333.2"/>
<text text-anchor="middle" x="303.5" y="-310.15" font-family="Times New Roman,serif" font-size="14.00">idx0 = idx0 + 1</text>
<text text-anchor="middle" x="241.12" y="-336.4" font-family="Times New Roman,serif" font-size="14.00">[43]</text>
</g>
<!-- 40&#45;&gt;43 -->
<g id="edge3" class="edge">
<title>40&#45;&gt;43</title>
<path fill="none" stroke="black" d="M274.61,-385.61C279.56,-373.72 286.27,-357.61 291.97,-343.9"/>
<polygon fill="black" stroke="black" points="295.09,-345.52 295.7,-334.95 288.62,-342.84 295.09,-345.52"/>
<text text-anchor="middle" x="325.85" y="-354.4" font-family="Times New Roman,serif" font-size="14.00">graphAnd#34</text>
</g>
<!-- 10 -->
<g id="node4" class="node">
<title>10</title>
<polygon fill="yellow" stroke="black" points="878.62,-716.7 500.38,-716.7 500.38,-675.7 878.62,-675.7 878.62,-716.7"/>
<text text-anchor="middle" x="689.5" y="-699.4" font-family="Times New Roman,serif" font-size="14.00">self.data.getDimension() &lt;&gt; arg.data.getDimension() or</text>
<text text-anchor="middle" x="689.5" y="-682.9" font-family="Times New Roman,serif" font-size="14.00">self.data.getDimensionSizes(1) &lt;&gt; arg.data.getDimensionSizes(1)</text>
<text text-anchor="middle" x="489.12" y="-719.9" font-family="Times New Roman,serif" font-size="14.00">[10]</text>
</g>
<!-- 13 -->
<g id="node7" class="node">
<title>13</title>
<polygon fill="yellow" stroke="black" points="643.75,-564.2 455.25,-564.2 455.25,-528.2 643.75,-528.2 643.75,-564.2"/>
<text text-anchor="middle" x="549.5" y="-541.15" font-family="Times New Roman,serif" font-size="14.00">Result = &#39;IllegalDimensionSize&#39;</text>
<text text-anchor="middle" x="444" y="-567.4" font-family="Times New Roman,serif" font-size="14.00">[13]</text>
</g>
<!-- 10&#45;&gt;13 -->
<g id="edge10" class="edge">
<title>10&#45;&gt;13</title>
<path fill="none" stroke="black" d="M670.62,-675.24C645.48,-648.67 601.02,-601.66 573.52,-572.59"/>
<polygon fill="black" stroke="black" points="576.36,-570.51 566.95,-565.65 571.28,-575.32 576.36,-570.51"/>
<text text-anchor="middle" x="688.54" y="-644.4" font-family="Times New Roman,serif" font-size="14.00">graphAnd#43</text>
</g>
<!-- 45 -->
<g id="node6" class="node">
<title>45</title>
<polygon fill="aquamarine" stroke="black" points="384.5,-244.7 377.3,-237.5 384.5,-230.3 391.7,-237.5 384.5,-244.7"/>
<text text-anchor="middle" x="362.3" y="-247.9" font-family="Times New Roman,serif" font-size="14.00">&lt;45&gt;</text>
</g>
<!-- 43&#45;&gt;45 -->
<g id="edge5" class="edge">
<title>43&#45;&gt;45</title>
<path fill="none" stroke="black" d="M314.34,-297.09C321.69,-286.36 332.11,-272.72 343.5,-262.7 351.34,-255.8 361.42,-249.82 369.63,-245.53"/>
<polygon fill="black" stroke="black" points="371.02,-248.74 378.47,-241.21 367.95,-242.45 371.02,-248.74"/>
<text text-anchor="middle" x="370.5" y="-265.9" font-family="Times New Roman,serif" font-size="14.00">iterate#37</text>
</g>
<!-- 45&#45;&gt;34 -->
<g id="edge4" class="edge">
<title>45&#45;&gt;34</title>
<path fill="none" stroke="black" d="M378.03,-238.64C333.51,-239.81 74.5,-249.38 74.5,-314.2 74.5,-493.2 74.5,-493.2 74.5,-493.2 74.5,-520.57 78.63,-551.55 82.23,-573.38"/>
<polygon fill="black" stroke="black" points="78.74,-573.74 83.89,-583 85.64,-572.55 78.74,-573.74"/>
<text text-anchor="middle" x="101.5" y="-398.65" font-family="Times New Roman,serif" font-size="14.00">iterate#36</text>
</g>
<!-- 31 -->
<g id="node18" class="node">
<title>31</title>
<polygon fill="yellow" stroke="black" points="494.38,-177.8 372.62,-177.8 372.62,-141.8 494.38,-141.8 494.38,-177.8"/>
<text text-anchor="middle" x="433.5" y="-154.75" font-family="Times New Roman,serif" font-size="14.00">idx0 &gt; dim1 &#45; 1+ 1</text>
<text text-anchor="middle" x="361.38" y="-181" font-family="Times New Roman,serif" font-size="14.00">[31]</text>
</g>
<!-- 45&#45;&gt;31 -->
<g id="edge6" class="edge">
<title>45&#45;&gt;31</title>
<path fill="none" stroke="black" d="M387.13,-232.43C392.58,-224.01 405.49,-204.07 416.31,-187.35"/>
<polygon fill="black" stroke="black" points="419.05,-189.57 421.54,-179.27 413.17,-185.76 419.05,-189.57"/>
<text text-anchor="middle" x="447.59" y="-199" font-family="Times New Roman,serif" font-size="14.00">graphAnd#39</text>
</g>
<!-- 50 -->
<g id="node13" class="node">
<title>50</title>
<polygon fill="aquamarine" stroke="black" points="489.5,-89.3 482.3,-82.1 489.5,-74.9 496.7,-82.1 489.5,-89.3"/>
<text text-anchor="middle" x="467.3" y="-92.5" font-family="Times New Roman,serif" font-size="14.00">&lt;50&gt;</text>
</g>
<!-- 13&#45;&gt;50 -->
<g id="edge16" class="edge">
<title>13&#45;&gt;50</title>
<path fill="none" stroke="black" d="M545.16,-527.94C540.73,-508.77 534.5,-476.85 534.5,-448.95 534.5,-448.95 534.5,-448.95 534.5,-158.8 534.5,-135.08 533.63,-127.05 520.5,-107.3 516.15,-100.76 509.46,-95.21 503.4,-91.09"/>
<polygon fill="black" stroke="black" points="505.49,-88.26 495.12,-86.07 501.86,-94.25 505.49,-88.26"/>
<text text-anchor="middle" x="565.25" y="-310.15" font-family="Times New Roman,serif" font-size="14.00">merge2#51</text>
</g>
<!-- 46 -->
<g id="node8" class="node">
<title>46</title>
<ellipse fill="black" stroke="black" cx="492.5" cy="-916.3" rx="7.2" ry="7.2"/>
<text text-anchor="middle" x="477.43" y="-926.7" font-family="Times New Roman,serif" font-size="14.00">[0]</text>
</g>
<!-- 47 -->
<g id="node10" class="node">
<title>47</title>
<polygon fill="yellow" stroke="black" points="596.88,-872.1 388.12,-872.1 388.12,-836.1 596.88,-836.1 596.88,-872.1"/>
<text text-anchor="middle" x="492.5" y="-849.05" font-family="Times New Roman,serif" font-size="14.00">self.data.getDimensionSizes(1) &gt; 0</text>
<text text-anchor="middle" x="376.88" y="-875.3" font-family="Times New Roman,serif" font-size="14.00">[47]</text>
</g>
<!-- 46&#45;&gt;47 -->
<g id="edge12" class="edge">
<title>46&#45;&gt;47</title>
<path fill="none" stroke="black" d="M492.5,-908.86C492.5,-902.8 492.5,-893.29 492.5,-883.94"/>
<polygon fill="black" stroke="black" points="496,-883.98 492.5,-873.98 489,-883.98 496,-883.98"/>
</g>
<!-- 14 -->
<g id="node9" class="node">
<title>14</title>
<ellipse fill="black" stroke="black" cx="489.5" cy="-11.2" rx="7.2" ry="7.2"/>
<ellipse fill="none" stroke="black" cx="489.5" cy="-11.2" rx="11.2" ry="11.2"/>
<text text-anchor="middle" x="468.18" y="-25.6" font-family="Times New Roman,serif" font-size="14.00">[&#45;1]</text>
</g>
<!-- 49 -->
<g id="node12" class="node">
<title>49</title>
<polygon fill="aquamarine" stroke="black" points="492.5,-783.6 485.3,-776.4 492.5,-769.2 499.7,-776.4 492.5,-783.6"/>
<text text-anchor="middle" x="470.3" y="-786.8" font-family="Times New Roman,serif" font-size="14.00">&lt;49&gt;</text>
</g>
<!-- 47&#45;&gt;49 -->
<g id="edge18" class="edge">
<title>47&#45;&gt;49</title>
<path fill="none" stroke="black" d="M492.5,-835.92C492.5,-823.88 492.5,-807.8 492.5,-795.55"/>
<polygon fill="black" stroke="black" points="496,-795.64 492.5,-785.64 489,-795.64 496,-795.64"/>
<text text-anchor="middle" x="529.62" y="-804.8" font-family="Times New Roman,serif" font-size="14.00">graphAnd#53</text>
</g>
<!-- 16 -->
<g id="node11" class="node">
<title>16</title>
<polygon fill="yellow" stroke="black" points="482.5,-716.7 112.5,-716.7 112.5,-675.7 482.5,-675.7 482.5,-716.7"/>
<text text-anchor="middle" x="297.5" y="-699.4" font-family="Times New Roman,serif" font-size="14.00">self.data.getDimension() = arg.data.getDimension() and</text>
<text text-anchor="middle" x="297.5" y="-682.9" font-family="Times New Roman,serif" font-size="14.00">self.data.getDimensionSizes(1) = arg.data.getDimensionSizes(1)</text>
<text text-anchor="middle" x="101.25" y="-719.9" font-family="Times New Roman,serif" font-size="14.00">[16]</text>
</g>
<!-- 19 -->
<g id="node14" class="node">
<title>19</title>
<polygon fill="yellow" stroke="black" points="553.88,-623.2 171.12,-623.2 171.12,-582.2 553.88,-582.2 553.88,-623.2"/>
<text text-anchor="middle" x="362.5" y="-605.9" font-family="Times New Roman,serif" font-size="14.00">self.data.getDimension() = result.data.getDimension() and</text>
<text text-anchor="middle" x="362.5" y="-589.4" font-family="Times New Roman,serif" font-size="14.00">self.data.getDimensionSizes(1) = result.data.getDimensionSizes(1)</text>
<text text-anchor="middle" x="159.88" y="-626.4" font-family="Times New Roman,serif" font-size="14.00">[19]</text>
</g>
<!-- 16&#45;&gt;19 -->
<g id="edge11" class="edge">
<title>16&#45;&gt;19</title>
<path fill="none" stroke="black" d="M311.6,-675.35C320.46,-662.88 332.04,-646.58 341.91,-632.68"/>
<polygon fill="black" stroke="black" points="344.61,-634.93 347.55,-624.75 338.9,-630.87 344.61,-634.93"/>
<text text-anchor="middle" x="372.95" y="-644.4" font-family="Times New Roman,serif" font-size="14.00">graphAnd#44</text>
</g>
<!-- 49&#45;&gt;10 -->
<g id="edge14" class="edge">
<title>49&#45;&gt;10</title>
<path fill="none" stroke="black" d="M497.37,-773.47C515.37,-766.32 579.62,-740.82 628.92,-721.25"/>
<polygon fill="black" stroke="black" points="630.09,-724.55 638.1,-717.61 627.51,-718.04 630.09,-724.55"/>
<text text-anchor="middle" x="616.12" y="-737.9" font-family="Times New Roman,serif" font-size="14.00">split2#49</text>
</g>
<!-- 49&#45;&gt;16 -->
<g id="edge13" class="edge">
<title>49&#45;&gt;16</title>
<path fill="none" stroke="black" d="M487.68,-773.47C469.87,-766.32 406.27,-740.82 357.47,-721.25"/>
<polygon fill="black" stroke="black" points="358.98,-718.08 348.4,-717.61 356.37,-724.58 358.98,-718.08"/>
<text text-anchor="middle" x="454.55" y="-737.9" font-family="Times New Roman,serif" font-size="14.00">split1#48</text>
</g>
<!-- 50&#45;&gt;14 -->
<g id="edge17" class="edge">
<title>50&#45;&gt;14</title>
<path fill="none" stroke="black" d="M489.5,-74.24C489.5,-64.87 489.5,-47.63 489.5,-33.7"/>
<polygon fill="black" stroke="black" points="493,-34.11 489.5,-24.11 486,-34.11 493,-34.11"/>
<text text-anchor="middle" x="535.25" y="-43.6" font-family="Times New Roman,serif" font-size="14.00">graphOr_end#52</text>
</g>
<!-- 22 -->
<g id="node15" class="node">
<title>22</title>
<polygon fill="yellow" stroke="black" points="505.62,-510.2 277.38,-510.2 277.38,-474.2 505.62,-474.2 505.62,-510.2"/>
<text text-anchor="middle" x="391.5" y="-487.15" font-family="Times New Roman,serif" font-size="14.00">dim1 = arg.data.getDimensionSizes(1)</text>
<text text-anchor="middle" x="266.12" y="-513.4" font-family="Times New Roman,serif" font-size="14.00">[22]</text>
</g>
<!-- 19&#45;&gt;22 -->
<g id="edge9" class="edge">
<title>19&#45;&gt;22</title>
<path fill="none" stroke="black" d="M363.14,-581.92C364.1,-566.86 366.47,-545.81 372.25,-528.2 373.09,-525.64 374.12,-523.06 375.26,-520.51"/>
<polygon fill="black" stroke="black" points="378.28,-522.28 379.69,-511.78 372.04,-519.11 378.28,-522.28"/>
<text text-anchor="middle" x="409.38" y="-541.15" font-family="Times New Roman,serif" font-size="14.00">graphAnd#42</text>
</g>
<!-- 28 -->
<g id="node17" class="node">
<title>28</title>
<polygon fill="yellow" stroke="black" points="477.88,-421.7 407.12,-421.7 407.12,-385.7 477.88,-385.7 477.88,-421.7"/>
<text text-anchor="middle" x="442.5" y="-398.65" font-family="Times New Roman,serif" font-size="14.00">acc = true</text>
<text text-anchor="middle" x="395.88" y="-424.9" font-family="Times New Roman,serif" font-size="14.00">[28]</text>
</g>
<!-- 22&#45;&gt;28 -->
<g id="edge8" class="edge">
<title>22&#45;&gt;28</title>
<path fill="none" stroke="black" d="M401.58,-474.11C408.72,-461.99 418.46,-445.47 426.65,-431.59"/>
<polygon fill="black" stroke="black" points="429.44,-433.75 431.5,-423.35 423.41,-430.19 429.44,-433.75"/>
<text text-anchor="middle" x="458.69" y="-442.9" font-family="Times New Roman,serif" font-size="14.00">graphAnd#41</text>
</g>
<!-- 25 -->
<g id="node16" class="node">
<title>25</title>
<polygon fill="yellow" stroke="black" points="468.75,-333.2 406.25,-333.2 406.25,-297.2 468.75,-297.2 468.75,-333.2"/>
<text text-anchor="middle" x="437.5" y="-310.15" font-family="Times New Roman,serif" font-size="14.00">idx0 = 1</text>
<text text-anchor="middle" x="395" y="-336.4" font-family="Times New Roman,serif" font-size="14.00">[25]</text>
</g>
<!-- 25&#45;&gt;45 -->
<g id="edge7" class="edge">
<title>25&#45;&gt;45</title>
<path fill="none" stroke="black" d="M425.47,-297.02C415.84,-283.26 402.51,-264.23 393.71,-251.65"/>
<polygon fill="black" stroke="black" points="396.81,-249.98 388.21,-243.8 391.08,-254 396.81,-249.98"/>
<text text-anchor="middle" x="449.71" y="-265.9" font-family="Times New Roman,serif" font-size="14.00">graphAnd#40</text>
</g>
<!-- 28&#45;&gt;25 -->
<g id="edge19" class="edge">
<title>28&#45;&gt;25</title>
<path fill="none" stroke="black" d="M441.51,-385.61C440.84,-373.96 439.93,-358.25 439.15,-344.72"/>
<polygon fill="black" stroke="black" points="442.66,-344.84 438.59,-335.06 435.67,-345.25 442.66,-344.84"/>
<text text-anchor="middle" x="477.57" y="-354.4" font-family="Times New Roman,serif" font-size="14.00">graphAnd#21</text>
</g>
<!-- 31&#45;&gt;50 -->
<g id="edge15" class="edge">
<title>31&#45;&gt;50</title>
<path fill="none" stroke="black" d="M439.82,-141.46C444.2,-130.91 450.72,-117.54 459,-107.3 463.77,-101.41 470.21,-96.03 475.94,-91.85"/>
<polygon fill="black" stroke="black" points="477.86,-94.79 484.22,-86.31 473.96,-88.97 477.86,-94.79"/>
<text text-anchor="middle" x="489.75" y="-110.5" font-family="Times New Roman,serif" font-size="14.00">merge1#50</text>
</g>
</g>
</svg>
