<?xml version="1.0" encoding="UTF-8" standalone="no"?>
<!DOCTYPE svg PUBLIC "-//W3C//DTD SVG 1.1//EN"
 "http://www.w3.org/Graphics/SVG/1.1/DTD/svg11.dtd">
<!-- Generated by graphviz version 12.2.1 (20241206.2353)
 -->
<!-- Title: CLG Pages: 1 -->
<svg width="246pt" height="260pt"
 viewBox="0.00 0.00 246.00 259.80" xmlns="http://www.w3.org/2000/svg" xmlns:xlink="http://www.w3.org/1999/xlink">
<g id="graph0" class="graph" transform="scale(1 1) rotate(0) translate(4 255.8)">
<title>CLG</title>
<polygon fill="white" stroke="none" points="-4,4 -4,-255.8 242,-255.8 242,4 -4,4"/>
<!-- 116 -->
<g id="node1" class="node">
<title>116</title>
<polygon fill="yellow" stroke="black" points="187.38,-95.4 79.88,-95.4 79.88,-59.4 187.38,-59.4 187.38,-95.4"/>
<text text-anchor="middle" x="133.62" y="-72.35" font-family="Times New Roman,serif" font-size="14.00">result = self.data</text>
<text text-anchor="middle" x="65.25" y="-98.6" font-family="Times New Roman,serif" font-size="14.00">[116]</text>
</g>
<!-- 117 -->
<g id="node2" class="node">
<title>117</title>
<ellipse fill="black" stroke="black" cx="133.62" cy="-11.2" rx="7.2" ry="7.2"/>
<ellipse fill="none" stroke="black" cx="133.62" cy="-11.2" rx="11.2" ry="11.2"/>
<text text-anchor="middle" x="112.3" y="-25.6" font-family="Times New Roman,serif" font-size="14.00">[&#45;1]</text>
</g>
<!-- 116&#45;&gt;117 -->
<g id="edge1" class="edge">
<title>116&#45;&gt;117</title>
<path fill="none" stroke="black" d="M133.62,-59.2C133.62,-51.5 133.62,-42.34 133.62,-34.15"/>
<polygon fill="black" stroke="black" points="137.13,-34.32 133.63,-24.32 130.13,-34.32 137.13,-34.32"/>
</g>
<!-- 118 -->
<g id="node3" class="node">
<title>118</title>
<ellipse fill="black" stroke="black" cx="133.62" cy="-228.1" rx="7.2" ry="7.2"/>
<text text-anchor="middle" x="118.55" y="-238.5" font-family="Times New Roman,serif" font-size="14.00">[0]</text>
</g>
<!-- 119 -->
<g id="node4" class="node">
<title>119</title>
<polygon fill="yellow" stroke="black" points="238,-183.9 29.25,-183.9 29.25,-147.9 238,-147.9 238,-183.9"/>
<text text-anchor="middle" x="133.62" y="-160.85" font-family="Times New Roman,serif" font-size="14.00">self.data.getDimensionSizes(1) &gt; 0</text>
<text text-anchor="middle" x="14.62" y="-187.1" font-family="Times New Roman,serif" font-size="14.00">[119]</text>
</g>
<!-- 118&#45;&gt;119 -->
<g id="edge2" class="edge">
<title>118&#45;&gt;119</title>
<path fill="none" stroke="black" d="M133.62,-220.66C133.62,-214.6 133.62,-205.09 133.62,-195.74"/>
<polygon fill="black" stroke="black" points="137.13,-195.78 133.63,-185.78 130.13,-195.78 137.13,-195.78"/>
</g>
<!-- 119&#45;&gt;116 -->
<g id="edge3" class="edge">
<title>119&#45;&gt;116</title>
<path fill="none" stroke="black" d="M133.62,-147.81C133.62,-136.16 133.62,-120.45 133.62,-106.92"/>
<polygon fill="black" stroke="black" points="137.13,-107.26 133.63,-97.26 130.13,-107.26 137.13,-107.26"/>
<text text-anchor="middle" x="174.12" y="-116.6" font-family="Times New Roman,serif" font-size="14.00">graphAnd#133</text>
</g>
</g>
</svg>
