<?xml version="1.0" encoding="UTF-8" standalone="no"?>
<!DOCTYPE svg PUBLIC "-//W3C//DTD SVG 1.1//EN"
 "http://www.w3.org/Graphics/SVG/1.1/DTD/svg11.dtd">
<!-- Generated by graphviz version 12.2.1 (20241206.2353)
 -->
<!-- Title: CLG Pages: 1 -->
<svg width="809pt" height="1105pt"
 viewBox="0.00 0.00 809.38 1104.70" xmlns="http://www.w3.org/2000/svg" xmlns:xlink="http://www.w3.org/1999/xlink">
<g id="graph0" class="graph" transform="scale(1 1) rotate(0) translate(4 1100.7)">
<title>CLG</title>
<polygon fill="white" stroke="none" points="-4,4 -4,-1100.7 805.38,-1100.7 805.38,4 -4,4"/>
<!-- 64 -->
<g id="node1" class="node">
<title>64</title>
<polygon fill="yellow" stroke="black" points="724.12,-633.9 495.88,-633.9 495.88,-597.9 724.12,-597.9 724.12,-633.9"/>
<text text-anchor="middle" x="610" y="-610.85" font-family="Times New Roman,serif" font-size="14.00">dim1 = arg.data.getDimensionSizes(1)</text>
<text text-anchor="middle" x="484.62" y="-637.1" font-family="Times New Roman,serif" font-size="14.00">[64]</text>
</g>
<!-- 70 -->
<g id="node3" class="node">
<title>70</title>
<polygon fill="yellow" stroke="black" points="644.38,-545.4 573.62,-545.4 573.62,-509.4 644.38,-509.4 644.38,-545.4"/>
<text text-anchor="middle" x="609" y="-522.35" font-family="Times New Roman,serif" font-size="14.00">acc = true</text>
<text text-anchor="middle" x="562.38" y="-548.6" font-family="Times New Roman,serif" font-size="14.00">[70]</text>
</g>
<!-- 64&#45;&gt;70 -->
<g id="edge14" class="edge">
<title>64&#45;&gt;70</title>
<path fill="none" stroke="black" d="M609.8,-597.81C609.67,-586.16 609.49,-570.45 609.33,-556.92"/>
<polygon fill="black" stroke="black" points="612.83,-557.22 609.22,-547.26 605.83,-557.3 612.83,-557.22"/>
<text text-anchor="middle" x="646.71" y="-566.6" font-family="Times New Roman,serif" font-size="14.00">graphAnd#88</text>
</g>
<!-- 67 -->
<g id="node2" class="node">
<title>67</title>
<polygon fill="yellow" stroke="black" points="639.25,-456.9 576.75,-456.9 576.75,-420.9 639.25,-420.9 639.25,-456.9"/>
<text text-anchor="middle" x="608" y="-433.85" font-family="Times New Roman,serif" font-size="14.00">idx0 = 1</text>
<text text-anchor="middle" x="565.5" y="-460.1" font-family="Times New Roman,serif" font-size="14.00">[67]</text>
</g>
<!-- 87 -->
<g id="node10" class="node">
<title>87</title>
<polygon fill="aquamarine" stroke="black" points="605,-368.4 597.8,-361.2 605,-354 612.2,-361.2 605,-368.4"/>
<text text-anchor="middle" x="582.8" y="-371.6" font-family="Times New Roman,serif" font-size="14.00">&lt;87&gt;</text>
</g>
<!-- 67&#45;&gt;87 -->
<g id="edge13" class="edge">
<title>67&#45;&gt;87</title>
<path fill="none" stroke="black" d="M607.32,-420.72C606.84,-408.55 606.19,-392.26 605.7,-379.96"/>
<polygon fill="black" stroke="black" points="609.21,-379.92 605.31,-370.07 602.21,-380.2 609.21,-379.92"/>
<text text-anchor="middle" x="643.71" y="-389.6" font-family="Times New Roman,serif" font-size="14.00">graphAnd#87</text>
</g>
<!-- 70&#45;&gt;67 -->
<g id="edge5" class="edge">
<title>70&#45;&gt;67</title>
<path fill="none" stroke="black" d="M608.8,-509.31C608.67,-497.66 608.49,-481.95 608.33,-468.42"/>
<polygon fill="black" stroke="black" points="611.83,-468.72 608.22,-458.76 604.83,-468.8 611.83,-468.72"/>
<text text-anchor="middle" x="645.71" y="-478.1" font-family="Times New Roman,serif" font-size="14.00">graphAnd#68</text>
</g>
<!-- 73 -->
<g id="node4" class="node">
<title>73</title>
<polygon fill="yellow" stroke="black" points="516.88,-301.5 395.12,-301.5 395.12,-265.5 516.88,-265.5 516.88,-301.5"/>
<text text-anchor="middle" x="456" y="-278.45" font-family="Times New Roman,serif" font-size="14.00">idx0 &gt; dim1 &#45; 1+ 1</text>
<text text-anchor="middle" x="383.88" y="-304.7" font-family="Times New Roman,serif" font-size="14.00">[73]</text>
</g>
<!-- 92 -->
<g id="node17" class="node">
<title>92</title>
<polygon fill="aquamarine" stroke="black" points="400,-202.2 392.8,-195 400,-187.8 407.2,-195 400,-202.2"/>
<text text-anchor="middle" x="377.8" y="-205.4" font-family="Times New Roman,serif" font-size="14.00">&lt;92&gt;</text>
</g>
<!-- 73&#45;&gt;92 -->
<g id="edge2" class="edge">
<title>73&#45;&gt;92</title>
<path fill="none" stroke="black" d="M444.94,-265.41C434.27,-248.93 418.35,-224.34 408.6,-209.28"/>
<polygon fill="black" stroke="black" points="411.73,-207.68 403.36,-201.19 405.85,-211.48 411.73,-207.68"/>
<text text-anchor="middle" x="463.77" y="-234.2" font-family="Times New Roman,serif" font-size="14.00">merge1#97</text>
</g>
<!-- 76 -->
<g id="node5" class="node">
<title>76</title>
<polygon fill="yellow" stroke="black" points="670,-301.5 540,-301.5 540,-265.5 670,-265.5 670,-301.5"/>
<text text-anchor="middle" x="605" y="-278.45" font-family="Times New Roman,serif" font-size="14.00">idx0 &lt;= dim1 &#45; 1+ 1</text>
<text text-anchor="middle" x="528.75" y="-304.7" font-family="Times New Roman,serif" font-size="14.00">[76]</text>
</g>
<!-- 79 -->
<g id="node6" class="node">
<title>79</title>
<polygon fill="yellow" stroke="black" points="647.62,-213 500.38,-213 500.38,-177 647.62,-177 647.62,-213"/>
<text text-anchor="middle" x="574" y="-189.95" font-family="Times New Roman,serif" font-size="14.00">it = Sequence{1..dim1}</text>
<text text-anchor="middle" x="489.12" y="-216.2" font-family="Times New Roman,serif" font-size="14.00">[79]</text>
</g>
<!-- 76&#45;&gt;79 -->
<g id="edge7" class="edge">
<title>76&#45;&gt;79</title>
<path fill="none" stroke="black" d="M598.88,-265.41C594.66,-253.64 588.95,-237.73 584.07,-224.11"/>
<polygon fill="black" stroke="black" points="587.4,-223.01 580.73,-214.77 580.81,-225.37 587.4,-223.01"/>
<text text-anchor="middle" x="629.4" y="-234.2" font-family="Times New Roman,serif" font-size="14.00">graphAnd#79</text>
</g>
<!-- 82 -->
<g id="node7" class="node">
<title>82</title>
<polygon fill="yellow" stroke="black" points="683.38,-124.5 444.62,-124.5 444.62,-88.5 683.38,-88.5 683.38,-124.5"/>
<text text-anchor="middle" x="564" y="-101.45" font-family="Times New Roman,serif" font-size="14.00">result.data[it] = self.data[it] &#45; arg.data[it]</text>
<text text-anchor="middle" x="433.38" y="-127.7" font-family="Times New Roman,serif" font-size="14.00">[82]</text>
</g>
<!-- 79&#45;&gt;82 -->
<g id="edge8" class="edge">
<title>79&#45;&gt;82</title>
<path fill="none" stroke="black" d="M572.02,-176.91C570.68,-165.26 568.86,-149.55 567.3,-136.02"/>
<polygon fill="black" stroke="black" points="570.8,-135.89 566.18,-126.35 563.85,-136.69 570.8,-135.89"/>
<text text-anchor="middle" x="607.02" y="-145.7" font-family="Times New Roman,serif" font-size="14.00">graphAnd#80</text>
</g>
<!-- 85 -->
<g id="node9" class="node">
<title>85</title>
<polygon fill="yellow" stroke="black" points="688.12,-36 585.88,-36 585.88,0 688.12,0 688.12,-36"/>
<text text-anchor="middle" x="637" y="-12.95" font-family="Times New Roman,serif" font-size="14.00">idx0 = idx0 + 1</text>
<text text-anchor="middle" x="574.62" y="-39.2" font-family="Times New Roman,serif" font-size="14.00">[85]</text>
</g>
<!-- 82&#45;&gt;85 -->
<g id="edge9" class="edge">
<title>82&#45;&gt;85</title>
<path fill="none" stroke="black" d="M578.42,-88.41C588.85,-76.05 603.14,-59.13 614.99,-45.08"/>
<polygon fill="black" stroke="black" points="617.61,-47.41 621.38,-37.51 612.26,-42.89 617.61,-47.41"/>
<text text-anchor="middle" x="644.16" y="-57.2" font-family="Times New Roman,serif" font-size="14.00">graphAnd#81</text>
</g>
<!-- 52 -->
<g id="node8" class="node">
<title>52</title>
<polygon fill="yellow" stroke="black" points="407.5,-873.4 22.5,-873.4 22.5,-799.4 407.5,-799.4 407.5,-873.4"/>
<text text-anchor="middle" x="215" y="-856.1" font-family="Times New Roman,serif" font-size="14.00">arg.data.getDimension() &lt;&gt; self.data.getDimension() and</text>
<text text-anchor="middle" x="215" y="-839.6" font-family="Times New Roman,serif" font-size="14.00">arg.data.getDimensionSizes(1) = self.data.getDimensionSizes(1) or</text>
<text text-anchor="middle" x="215" y="-823.1" font-family="Times New Roman,serif" font-size="14.00">arg.data.getDimension() = self.data.getDimension() and</text>
<text text-anchor="middle" x="215" y="-806.6" font-family="Times New Roman,serif" font-size="14.00">arg.data.getDimensionSizes(1) &lt;&gt; self.data.getDimensionSizes(1)</text>
<text text-anchor="middle" x="11.25" y="-876.6" font-family="Times New Roman,serif" font-size="14.00">[52]</text>
</g>
<!-- 55 -->
<g id="node11" class="node">
<title>55</title>
<polygon fill="yellow" stroke="black" points="431.25,-687.9 242.75,-687.9 242.75,-651.9 431.25,-651.9 431.25,-687.9"/>
<text text-anchor="middle" x="337" y="-664.85" font-family="Times New Roman,serif" font-size="14.00">Result = &#39;IllegalDimensionSize&#39;</text>
<text text-anchor="middle" x="231.5" y="-691.1" font-family="Times New Roman,serif" font-size="14.00">[55]</text>
</g>
<!-- 52&#45;&gt;55 -->
<g id="edge16" class="edge">
<title>52&#45;&gt;55</title>
<path fill="none" stroke="black" d="M241.77,-799.3C264.61,-768.5 296.92,-724.95 317.41,-697.32"/>
<polygon fill="black" stroke="black" points="320.08,-699.59 323.23,-689.47 314.46,-695.42 320.08,-699.59"/>
<text text-anchor="middle" x="302.71" y="-768.1" font-family="Times New Roman,serif" font-size="14.00">graphAnd#90</text>
</g>
<!-- 85&#45;&gt;87 -->
<g id="edge11" class="edge">
<title>85&#45;&gt;87</title>
<path fill="none" stroke="black" d="M664.98,-36.27C685.93,-51.58 711,-76.05 711,-105.5 711,-284.5 711,-284.5 711,-284.5 711,-327.84 651.6,-348.71 621.73,-356.47"/>
<polygon fill="black" stroke="black" points="621.1,-353.02 612.17,-358.73 622.71,-359.83 621.1,-353.02"/>
<text text-anchor="middle" x="738" y="-189.95" font-family="Times New Roman,serif" font-size="14.00">iterate#84</text>
</g>
<!-- 87&#45;&gt;73 -->
<g id="edge12" class="edge">
<title>87&#45;&gt;73</title>
<path fill="none" stroke="black" d="M599.45,-359.14C586.3,-356.5 552.43,-348.87 526.75,-336 512.14,-328.68 497.31,-318.41 485.03,-308.98"/>
<polygon fill="black" stroke="black" points="487.39,-306.38 477.37,-302.92 483.05,-311.87 487.39,-306.38"/>
<text text-anchor="middle" x="563.88" y="-322.7" font-family="Times New Roman,serif" font-size="14.00">graphAnd#86</text>
</g>
<!-- 87&#45;&gt;76 -->
<g id="edge10" class="edge">
<title>87&#45;&gt;76</title>
<path fill="none" stroke="black" d="M605,-353.48C605,-344.4 605,-327.65 605,-312.93"/>
<polygon fill="black" stroke="black" points="608.5,-313.26 605,-303.26 601.5,-313.26 608.5,-313.26"/>
<text text-anchor="middle" x="632" y="-322.7" font-family="Times New Roman,serif" font-size="14.00">iterate#83</text>
</g>
<!-- 55&#45;&gt;92 -->
<g id="edge3" class="edge">
<title>55&#45;&gt;92</title>
<path fill="none" stroke="black" d="M342.78,-651.74C348.69,-632.65 357,-600.81 357,-572.65 357,-572.65 357,-572.65 357,-282.5 357,-253.34 376.84,-223.89 389.56,-207.99"/>
<polygon fill="black" stroke="black" points="392.14,-210.37 395.93,-200.48 386.79,-205.85 392.14,-210.37"/>
<text text-anchor="middle" x="387.75" y="-433.85" font-family="Times New Roman,serif" font-size="14.00">merge2#98</text>
</g>
<!-- 88 -->
<g id="node12" class="node">
<title>88</title>
<ellipse fill="black" stroke="black" cx="412" cy="-1073" rx="7.2" ry="7.2"/>
<text text-anchor="middle" x="396.93" y="-1083.4" font-family="Times New Roman,serif" font-size="14.00">[0]</text>
</g>
<!-- 89 -->
<g id="node14" class="node">
<title>89</title>
<polygon fill="yellow" stroke="black" points="516.38,-1028.8 307.62,-1028.8 307.62,-992.8 516.38,-992.8 516.38,-1028.8"/>
<text text-anchor="middle" x="412" y="-1005.75" font-family="Times New Roman,serif" font-size="14.00">self.data.getDimensionSizes(1) &gt; 0</text>
<text text-anchor="middle" x="296.38" y="-1032" font-family="Times New Roman,serif" font-size="14.00">[89]</text>
</g>
<!-- 88&#45;&gt;89 -->
<g id="edge18" class="edge">
<title>88&#45;&gt;89</title>
<path fill="none" stroke="black" d="M412,-1065.56C412,-1059.5 412,-1049.99 412,-1040.64"/>
<polygon fill="black" stroke="black" points="415.5,-1040.68 412,-1030.68 408.5,-1040.68 415.5,-1040.68"/>
</g>
<!-- 56 -->
<g id="node13" class="node">
<title>56</title>
<ellipse fill="black" stroke="black" cx="400" cy="-106.5" rx="7.2" ry="7.2"/>
<ellipse fill="none" stroke="black" cx="400" cy="-106.5" rx="11.2" ry="11.2"/>
<text text-anchor="middle" x="378.68" y="-120.9" font-family="Times New Roman,serif" font-size="14.00">[&#45;1]</text>
</g>
<!-- 91 -->
<g id="node16" class="node">
<title>91</title>
<polygon fill="aquamarine" stroke="black" points="412,-940.3 404.8,-933.1 412,-925.9 419.2,-933.1 412,-940.3"/>
<text text-anchor="middle" x="389.8" y="-943.5" font-family="Times New Roman,serif" font-size="14.00">&lt;91&gt;</text>
</g>
<!-- 89&#45;&gt;91 -->
<g id="edge6" class="edge">
<title>89&#45;&gt;91</title>
<path fill="none" stroke="black" d="M412,-992.62C412,-980.58 412,-964.5 412,-952.25"/>
<polygon fill="black" stroke="black" points="415.5,-952.34 412,-942.34 408.5,-952.34 415.5,-952.34"/>
<text text-anchor="middle" x="452.5" y="-961.5" font-family="Times New Roman,serif" font-size="14.00">graphAnd#100</text>
</g>
<!-- 58 -->
<g id="node15" class="node">
<title>58</title>
<polygon fill="yellow" stroke="black" points="796,-856.9 426,-856.9 426,-815.9 796,-815.9 796,-856.9"/>
<text text-anchor="middle" x="611" y="-839.6" font-family="Times New Roman,serif" font-size="14.00">arg.data.getDimension() = self.data.getDimension() and</text>
<text text-anchor="middle" x="611" y="-823.1" font-family="Times New Roman,serif" font-size="14.00">arg.data.getDimensionSizes(1) = self.data.getDimensionSizes(1)</text>
<text text-anchor="middle" x="437.25" y="-860.1" font-family="Times New Roman,serif" font-size="14.00">[58]</text>
</g>
<!-- 61 -->
<g id="node18" class="node">
<title>61</title>
<polygon fill="yellow" stroke="black" points="801.38,-746.9 418.62,-746.9 418.62,-705.9 801.38,-705.9 801.38,-746.9"/>
<text text-anchor="middle" x="610" y="-729.6" font-family="Times New Roman,serif" font-size="14.00">self.data.getDimension() = result.data.getDimension() and</text>
<text text-anchor="middle" x="610" y="-713.1" font-family="Times New Roman,serif" font-size="14.00">self.data.getDimensionSizes(1) = result.data.getDimensionSizes(1)</text>
<text text-anchor="middle" x="407.38" y="-750.1" font-family="Times New Roman,serif" font-size="14.00">[61]</text>
</g>
<!-- 58&#45;&gt;61 -->
<g id="edge17" class="edge">
<title>58&#45;&gt;61</title>
<path fill="none" stroke="black" d="M610.82,-815.59C610.67,-799.61 610.46,-776.83 610.29,-758.43"/>
<polygon fill="black" stroke="black" points="613.79,-758.56 610.2,-748.6 606.79,-758.63 613.79,-758.56"/>
<text text-anchor="middle" x="647.62" y="-768.1" font-family="Times New Roman,serif" font-size="14.00">graphAnd#91</text>
</g>
<!-- 91&#45;&gt;52 -->
<g id="edge1" class="edge">
<title>91&#45;&gt;52</title>
<path fill="none" stroke="black" d="M407.52,-929.94C392.93,-922.93 345.23,-900 300.96,-878.72"/>
<polygon fill="black" stroke="black" points="302.59,-875.62 292.06,-874.44 299.55,-881.93 302.59,-875.62"/>
<text text-anchor="middle" x="384.29" y="-894.6" font-family="Times New Roman,serif" font-size="14.00">split2#96</text>
</g>
<!-- 91&#45;&gt;58 -->
<g id="edge19" class="edge">
<title>91&#45;&gt;58</title>
<path fill="none" stroke="black" d="M416.53,-929.94C435.26,-921.03 508.04,-886.4 559.04,-862.13"/>
<polygon fill="black" stroke="black" points="560.35,-865.38 567.87,-857.92 557.34,-859.06 560.35,-865.38"/>
<text text-anchor="middle" x="518.8" y="-894.6" font-family="Times New Roman,serif" font-size="14.00">split1#95</text>
</g>
<!-- 92&#45;&gt;56 -->
<g id="edge4" class="edge">
<title>92&#45;&gt;56</title>
<path fill="none" stroke="black" d="M400,-187.21C400,-174.92 400,-148.49 400,-129.43"/>
<polygon fill="black" stroke="black" points="403.5,-129.44 400,-119.44 396.5,-129.44 403.5,-129.44"/>
<text text-anchor="middle" x="445.75" y="-145.7" font-family="Times New Roman,serif" font-size="14.00">graphOr_end#99</text>
</g>
<!-- 61&#45;&gt;64 -->
<g id="edge15" class="edge">
<title>61&#45;&gt;64</title>
<path fill="none" stroke="black" d="M610,-705.5C610,-688.74 610,-664.54 610,-645.67"/>
<polygon fill="black" stroke="black" points="613.5,-645.68 610,-635.68 606.5,-645.68 613.5,-645.68"/>
<text text-anchor="middle" x="647.12" y="-664.85" font-family="Times New Roman,serif" font-size="14.00">graphAnd#89</text>
</g>
</g>
</svg>
