<?xml version="1.0" encoding="UTF-8" standalone="no"?>
<!DOCTYPE svg PUBLIC "-//W3C//DTD SVG 1.1//EN"
 "http://www.w3.org/Graphics/SVG/1.1/DTD/svg11.dtd">
<!-- Generated by graphviz version 12.2.1 (20241206.2353)
 -->
<!-- Title: CLG Pages: 1 -->
<svg width="1161pt" height="1239pt"
 viewBox="0.00 0.00 1161.00 1238.70" xmlns="http://www.w3.org/2000/svg" xmlns:xlink="http://www.w3.org/1999/xlink">
<g id="graph0" class="graph" transform="scale(1 1) rotate(0) translate(4 1234.7)">
<title>CLG</title>
<polygon fill="white" stroke="none" points="-4,4 -4,-1234.7 1157,-1234.7 1157,4 -4,4"/>
<!-- 69 -->
<g id="node1" class="node">
<title>69</title>
<polygon fill="yellow" stroke="black" points="757.5,-918.9 449.75,-918.9 449.75,-882.9 757.5,-882.9 757.5,-918.9"/>
<text text-anchor="middle" x="603.62" y="-895.85" font-family="Times New Roman,serif" font-size="14.00">arg.data.getDimension() &lt;&gt; self.data.getDimension()</text>
<text text-anchor="middle" x="438.5" y="-922.1" font-family="Times New Roman,serif" font-size="14.00">[69]</text>
</g>
<!-- 72 -->
<g id="node2" class="node">
<title>72</title>
<polygon fill="yellow" stroke="black" points="788.62,-830.4 418.62,-830.4 418.62,-794.4 788.62,-794.4 788.62,-830.4"/>
<text text-anchor="middle" x="603.62" y="-807.35" font-family="Times New Roman,serif" font-size="14.00">arg.data.getDimensionSizes(1) = self.data.getDimensionSizes(1)</text>
<text text-anchor="middle" x="407.38" y="-833.6" font-family="Times New Roman,serif" font-size="14.00">[72]</text>
</g>
<!-- 69&#45;&gt;72 -->
<g id="edge12" class="edge">
<title>69&#45;&gt;72</title>
<path fill="none" stroke="black" d="M603.62,-882.81C603.62,-871.16 603.62,-855.45 603.62,-841.92"/>
<polygon fill="black" stroke="black" points="607.13,-842.26 603.63,-832.26 600.13,-842.26 607.13,-842.26"/>
<text text-anchor="middle" x="640.75" y="-851.6" font-family="Times New Roman,serif" font-size="14.00">graphAnd#78</text>
</g>
<!-- 81 -->
<g id="node6" class="node">
<title>81</title>
<polygon fill="aquamarine" stroke="black" points="603.62,-731.1 596.42,-723.9 603.62,-716.7 610.83,-723.9 603.62,-731.1"/>
<text text-anchor="middle" x="581.42" y="-734.3" font-family="Times New Roman,serif" font-size="14.00">&lt;81&gt;</text>
</g>
<!-- 72&#45;&gt;81 -->
<g id="edge16" class="edge">
<title>72&#45;&gt;81</title>
<path fill="none" stroke="black" d="M603.62,-794.31C603.62,-779.54 603.62,-758.23 603.62,-743.13"/>
<polygon fill="black" stroke="black" points="607.13,-743.29 603.63,-733.29 600.13,-743.29 607.13,-743.29"/>
<text text-anchor="middle" x="634.38" y="-763.1" font-family="Times New Roman,serif" font-size="14.00">merge1#87</text>
</g>
<!-- 75 -->
<g id="node3" class="node">
<title>75</title>
<polygon fill="yellow" stroke="black" points="414.38,-918.9 114.88,-918.9 114.88,-882.9 414.38,-882.9 414.38,-918.9"/>
<text text-anchor="middle" x="264.62" y="-895.85" font-family="Times New Roman,serif" font-size="14.00">arg.data.getDimension() = self.data.getDimension()</text>
<text text-anchor="middle" x="103.62" y="-922.1" font-family="Times New Roman,serif" font-size="14.00">[75]</text>
</g>
<!-- 78 -->
<g id="node4" class="node">
<title>78</title>
<polygon fill="yellow" stroke="black" points="400.75,-830.4 22.5,-830.4 22.5,-794.4 400.75,-794.4 400.75,-830.4"/>
<text text-anchor="middle" x="211.62" y="-807.35" font-family="Times New Roman,serif" font-size="14.00">arg.data.getDimensionSizes(1) &lt;&gt; self.data.getDimensionSizes(1)</text>
<text text-anchor="middle" x="11.25" y="-833.6" font-family="Times New Roman,serif" font-size="14.00">[78]</text>
</g>
<!-- 75&#45;&gt;78 -->
<g id="edge13" class="edge">
<title>75&#45;&gt;78</title>
<path fill="none" stroke="black" d="M254.15,-882.81C246.73,-870.69 236.61,-854.17 228.1,-840.29"/>
<polygon fill="black" stroke="black" points="231.26,-838.74 223.05,-832.04 225.29,-842.4 231.26,-838.74"/>
<text text-anchor="middle" x="280" y="-851.6" font-family="Times New Roman,serif" font-size="14.00">graphAnd#83</text>
</g>
<!-- 78&#45;&gt;81 -->
<g id="edge17" class="edge">
<title>78&#45;&gt;81</title>
<path fill="none" stroke="black" d="M290.48,-794C385.1,-773.12 537.24,-739.55 587.17,-728.53"/>
<polygon fill="black" stroke="black" points="587.72,-731.99 596.73,-726.42 586.21,-725.16 587.72,-731.99"/>
<text text-anchor="middle" x="473.49" y="-763.1" font-family="Times New Roman,serif" font-size="14.00">merge2#88</text>
</g>
<!-- 80 -->
<g id="node5" class="node">
<title>80</title>
<polygon fill="aquamarine" stroke="black" points="603.62,-996.6 596.42,-989.4 603.62,-982.2 610.83,-989.4 603.62,-996.6"/>
<text text-anchor="middle" x="581.42" y="-999.8" font-family="Times New Roman,serif" font-size="14.00">&lt;80&gt;</text>
</g>
<!-- 80&#45;&gt;69 -->
<g id="edge14" class="edge">
<title>80&#45;&gt;69</title>
<path fill="none" stroke="black" d="M603.62,-981.61C603.62,-970.75 603.62,-948.85 603.62,-930.75"/>
<polygon fill="black" stroke="black" points="607.13,-930.79 603.63,-920.79 600.13,-930.79 607.13,-930.79"/>
<text text-anchor="middle" x="628.75" y="-940.1" font-family="Times New Roman,serif" font-size="14.00">split1#85</text>
</g>
<!-- 80&#45;&gt;75 -->
<g id="edge15" class="edge">
<title>80&#45;&gt;75</title>
<path fill="none" stroke="black" d="M598.3,-987.04C569.8,-979.77 433.22,-944.92 343.87,-922.12"/>
<polygon fill="black" stroke="black" points="344.97,-918.79 334.42,-919.71 343.24,-925.57 344.97,-918.79"/>
<text text-anchor="middle" x="489.61" y="-940.1" font-family="Times New Roman,serif" font-size="14.00">split2#86</text>
</g>
<!-- 83 -->
<g id="node7" class="node">
<title>83</title>
<polygon fill="yellow" stroke="black" points="776.88,-599.4 588.38,-599.4 588.38,-563.4 776.88,-563.4 776.88,-599.4"/>
<text text-anchor="middle" x="682.62" y="-576.35" font-family="Times New Roman,serif" font-size="14.00">Result = &#39;IllegalDimensionSize&#39;</text>
<text text-anchor="middle" x="577.12" y="-602.6" font-family="Times New Roman,serif" font-size="14.00">[83]</text>
</g>
<!-- 81&#45;&gt;83 -->
<g id="edge3" class="edge">
<title>81&#45;&gt;83</title>
<path fill="none" stroke="black" d="M606.08,-718.54C615.19,-702.34 647.58,-644.73 667.19,-609.85"/>
<polygon fill="black" stroke="black" points="670.23,-611.58 672.08,-601.15 664.13,-608.15 670.23,-611.58"/>
<text text-anchor="middle" x="671.93" y="-674.6" font-family="Times New Roman,serif" font-size="14.00">graphAnd#130</text>
</g>
<!-- 126 -->
<g id="node25" class="node">
<title>126</title>
<polygon fill="aquamarine" stroke="black" points="746.62,-202.2 739.42,-195 746.62,-187.8 753.83,-195 746.62,-202.2"/>
<text text-anchor="middle" x="721.05" y="-205.4" font-family="Times New Roman,serif" font-size="14.00">&lt;126&gt;</text>
</g>
<!-- 83&#45;&gt;126 -->
<g id="edge9" class="edge">
<title>83&#45;&gt;126</title>
<path fill="none" stroke="black" d="M686.39,-563.11C690.22,-543.91 695.62,-511.97 695.62,-484.15 695.62,-484.15 695.62,-484.15 695.62,-282.5 695.62,-251.9 719.61,-222.59 734.68,-207.19"/>
<polygon fill="black" stroke="black" points="737.1,-209.72 741.87,-200.26 732.24,-204.68 737.1,-209.72"/>
<text text-anchor="middle" x="729.75" y="-389.6" font-family="Times New Roman,serif" font-size="14.00">merge2#138</text>
</g>
<!-- 84 -->
<g id="node8" class="node">
<title>84</title>
<ellipse fill="black" stroke="black" cx="746.62" cy="-106.5" rx="7.2" ry="7.2"/>
<ellipse fill="none" stroke="black" cx="746.62" cy="-106.5" rx="11.2" ry="11.2"/>
<text text-anchor="middle" x="725.3" y="-120.9" font-family="Times New Roman,serif" font-size="14.00">[&#45;1]</text>
</g>
<!-- 86 -->
<g id="node9" class="node">
<title>86</title>
<polygon fill="yellow" stroke="black" points="1019.38,-1007.4 719.88,-1007.4 719.88,-971.4 1019.38,-971.4 1019.38,-1007.4"/>
<text text-anchor="middle" x="869.62" y="-984.35" font-family="Times New Roman,serif" font-size="14.00">arg.data.getDimension() = self.data.getDimension()</text>
<text text-anchor="middle" x="708.62" y="-1010.6" font-family="Times New Roman,serif" font-size="14.00">[86]</text>
</g>
<!-- 89 -->
<g id="node10" class="node">
<title>89</title>
<polygon fill="yellow" stroke="black" points="1146.62,-918.9 776.62,-918.9 776.62,-882.9 1146.62,-882.9 1146.62,-918.9"/>
<text text-anchor="middle" x="961.62" y="-895.85" font-family="Times New Roman,serif" font-size="14.00">arg.data.getDimensionSizes(1) = self.data.getDimensionSizes(1)</text>
<text text-anchor="middle" x="765.38" y="-922.1" font-family="Times New Roman,serif" font-size="14.00">[89]</text>
</g>
<!-- 86&#45;&gt;89 -->
<g id="edge18" class="edge">
<title>86&#45;&gt;89</title>
<path fill="none" stroke="black" d="M887.8,-971.31C901.32,-958.6 919.98,-941.06 935.15,-926.79"/>
<polygon fill="black" stroke="black" points="937.18,-929.69 942.07,-920.29 932.39,-924.59 937.18,-929.69"/>
<text text-anchor="middle" x="960.99" y="-940.1" font-family="Times New Roman,serif" font-size="14.00">graphAnd#96</text>
</g>
<!-- 92 -->
<g id="node11" class="node">
<title>92</title>
<polygon fill="yellow" stroke="black" points="1118.75,-830.4 806.5,-830.4 806.5,-794.4 1118.75,-794.4 1118.75,-830.4"/>
<text text-anchor="middle" x="962.62" y="-807.35" font-family="Times New Roman,serif" font-size="14.00">self.data.getDimension() = result.data.getDimension()</text>
<text text-anchor="middle" x="795.25" y="-833.6" font-family="Times New Roman,serif" font-size="14.00">[92]</text>
</g>
<!-- 89&#45;&gt;92 -->
<g id="edge4" class="edge">
<title>89&#45;&gt;92</title>
<path fill="none" stroke="black" d="M961.82,-882.81C961.96,-871.16 962.14,-855.45 962.3,-841.92"/>
<polygon fill="black" stroke="black" points="965.79,-842.3 962.41,-832.26 958.79,-842.22 965.79,-842.3"/>
<text text-anchor="middle" x="1002.71" y="-851.6" font-family="Times New Roman,serif" font-size="14.00">graphAnd#131</text>
</g>
<!-- 95 -->
<g id="node12" class="node">
<title>95</title>
<polygon fill="yellow" stroke="black" points="1153,-741.9 770.25,-741.9 770.25,-705.9 1153,-705.9 1153,-741.9"/>
<text text-anchor="middle" x="961.62" y="-718.85" font-family="Times New Roman,serif" font-size="14.00">self.data.getDimensionSizes(1) = result.data.getDimensionSizes(1)</text>
<text text-anchor="middle" x="759" y="-745.1" font-family="Times New Roman,serif" font-size="14.00">[95]</text>
</g>
<!-- 92&#45;&gt;95 -->
<g id="edge19" class="edge">
<title>92&#45;&gt;95</title>
<path fill="none" stroke="black" d="M962.43,-794.31C962.29,-782.66 962.11,-766.95 961.95,-753.42"/>
<polygon fill="black" stroke="black" points="965.46,-753.72 961.84,-743.76 958.46,-753.8 965.46,-753.72"/>
<text text-anchor="middle" x="1002.71" y="-763.1" font-family="Times New Roman,serif" font-size="14.00">graphAnd#101</text>
</g>
<!-- 98 -->
<g id="node13" class="node">
<title>98</title>
<polygon fill="yellow" stroke="black" points="1075.75,-653.4 847.5,-653.4 847.5,-617.4 1075.75,-617.4 1075.75,-653.4"/>
<text text-anchor="middle" x="961.62" y="-630.35" font-family="Times New Roman,serif" font-size="14.00">dim1 = arg.data.getDimensionSizes(1)</text>
<text text-anchor="middle" x="836.25" y="-656.6" font-family="Times New Roman,serif" font-size="14.00">[98]</text>
</g>
<!-- 95&#45;&gt;98 -->
<g id="edge2" class="edge">
<title>95&#45;&gt;98</title>
<path fill="none" stroke="black" d="M961.62,-705.81C961.62,-694.16 961.62,-678.45 961.62,-664.92"/>
<polygon fill="black" stroke="black" points="965.13,-665.26 961.63,-655.26 958.13,-665.26 965.13,-665.26"/>
<text text-anchor="middle" x="1002.12" y="-674.6" font-family="Times New Roman,serif" font-size="14.00">graphAnd#129</text>
</g>
<!-- 104 -->
<g id="node15" class="node">
<title>104</title>
<polygon fill="yellow" stroke="black" points="995,-545.4 924.25,-545.4 924.25,-509.4 995,-509.4 995,-545.4"/>
<text text-anchor="middle" x="959.62" y="-522.35" font-family="Times New Roman,serif" font-size="14.00">acc = true</text>
<text text-anchor="middle" x="909.62" y="-548.6" font-family="Times New Roman,serif" font-size="14.00">[104]</text>
</g>
<!-- 98&#45;&gt;104 -->
<g id="edge1" class="edge">
<title>98&#45;&gt;104</title>
<path fill="none" stroke="black" d="M961.3,-617.37C961,-601.16 960.53,-576.46 960.17,-557.19"/>
<polygon fill="black" stroke="black" points="963.67,-557.19 959.98,-547.25 956.67,-557.32 963.67,-557.19"/>
<text text-anchor="middle" x="1001.42" y="-576.35" font-family="Times New Roman,serif" font-size="14.00">graphAnd#128</text>
</g>
<!-- 101 -->
<g id="node14" class="node">
<title>101</title>
<polygon fill="yellow" stroke="black" points="997.62,-456.9 921.62,-456.9 921.62,-420.9 997.62,-420.9 997.62,-456.9"/>
<text text-anchor="middle" x="959.62" y="-433.85" font-family="Times New Roman,serif" font-size="14.00">Index0 = 1</text>
<text text-anchor="middle" x="907" y="-460.1" font-family="Times New Roman,serif" font-size="14.00">[101]</text>
</g>
<!-- 121 -->
<g id="node21" class="node">
<title>121</title>
<polygon fill="aquamarine" stroke="black" points="958.62,-368.4 951.42,-361.2 958.62,-354 965.83,-361.2 958.62,-368.4"/>
<text text-anchor="middle" x="933.05" y="-371.6" font-family="Times New Roman,serif" font-size="14.00">&lt;121&gt;</text>
</g>
<!-- 101&#45;&gt;121 -->
<g id="edge27" class="edge">
<title>101&#45;&gt;121</title>
<path fill="none" stroke="black" d="M959.4,-420.72C959.24,-408.68 959.03,-392.6 958.86,-380.35"/>
<polygon fill="black" stroke="black" points="962.37,-380.39 958.73,-370.44 955.37,-380.48 962.37,-380.39"/>
<text text-anchor="middle" x="999.65" y="-389.6" font-family="Times New Roman,serif" font-size="14.00">graphAnd#127</text>
</g>
<!-- 104&#45;&gt;101 -->
<g id="edge20" class="edge">
<title>104&#45;&gt;101</title>
<path fill="none" stroke="black" d="M959.62,-509.31C959.62,-497.66 959.62,-481.95 959.62,-468.42"/>
<polygon fill="black" stroke="black" points="963.13,-468.76 959.63,-458.76 956.13,-468.76 963.13,-468.76"/>
<text text-anchor="middle" x="1000.12" y="-478.1" font-family="Times New Roman,serif" font-size="14.00">graphAnd#108</text>
</g>
<!-- 107 -->
<g id="node16" class="node">
<title>107</title>
<polygon fill="yellow" stroke="black" points="866.25,-301.5 731,-301.5 731,-265.5 866.25,-265.5 866.25,-301.5"/>
<text text-anchor="middle" x="798.62" y="-278.45" font-family="Times New Roman,serif" font-size="14.00">Index0 &gt; dim1 &#45; 1+ 1</text>
<text text-anchor="middle" x="716.38" y="-304.7" font-family="Times New Roman,serif" font-size="14.00">[107]</text>
</g>
<!-- 107&#45;&gt;126 -->
<g id="edge8" class="edge">
<title>107&#45;&gt;126</title>
<path fill="none" stroke="black" d="M788.35,-265.41C778.54,-249.09 763.94,-224.81 754.87,-209.71"/>
<polygon fill="black" stroke="black" points="758.11,-208.31 749.96,-201.54 752.11,-211.92 758.11,-208.31"/>
<text text-anchor="middle" x="811.41" y="-234.2" font-family="Times New Roman,serif" font-size="14.00">merge1#137</text>
</g>
<!-- 110 -->
<g id="node17" class="node">
<title>110</title>
<polygon fill="yellow" stroke="black" points="1030.38,-301.5 886.88,-301.5 886.88,-265.5 1030.38,-265.5 1030.38,-301.5"/>
<text text-anchor="middle" x="958.62" y="-278.45" font-family="Times New Roman,serif" font-size="14.00">Index0 &lt;= dim1 &#45; 1+ 1</text>
<text text-anchor="middle" x="872.25" y="-304.7" font-family="Times New Roman,serif" font-size="14.00">[110]</text>
</g>
<!-- 113 -->
<g id="node18" class="node">
<title>113</title>
<polygon fill="yellow" stroke="black" points="1006.25,-213 859,-213 859,-177 1006.25,-177 1006.25,-213"/>
<text text-anchor="middle" x="932.62" y="-189.95" font-family="Times New Roman,serif" font-size="14.00">it = Sequence{1..dim1}</text>
<text text-anchor="middle" x="844.38" y="-216.2" font-family="Times New Roman,serif" font-size="14.00">[113]</text>
</g>
<!-- 110&#45;&gt;113 -->
<g id="edge21" class="edge">
<title>110&#45;&gt;113</title>
<path fill="none" stroke="black" d="M953.49,-265.41C949.95,-253.64 945.17,-237.73 941.07,-224.11"/>
<polygon fill="black" stroke="black" points="944.51,-223.37 938.28,-214.8 937.8,-225.38 944.51,-223.37"/>
<text text-anchor="middle" x="988.45" y="-234.2" font-family="Times New Roman,serif" font-size="14.00">graphAnd#119</text>
</g>
<!-- 116 -->
<g id="node19" class="node">
<title>116</title>
<polygon fill="yellow" stroke="black" points="1043,-124.5 804.25,-124.5 804.25,-88.5 1043,-88.5 1043,-124.5"/>
<text text-anchor="middle" x="923.62" y="-101.45" font-family="Times New Roman,serif" font-size="14.00">result.data[it] = self.data[it] &#45; arg.data[it]</text>
<text text-anchor="middle" x="789.62" y="-127.7" font-family="Times New Roman,serif" font-size="14.00">[116]</text>
</g>
<!-- 113&#45;&gt;116 -->
<g id="edge22" class="edge">
<title>113&#45;&gt;116</title>
<path fill="none" stroke="black" d="M930.85,-176.91C929.63,-165.26 928,-149.55 926.59,-136.02"/>
<polygon fill="black" stroke="black" points="930.1,-135.94 925.59,-126.36 923.14,-136.66 930.1,-135.94"/>
<text text-anchor="middle" x="969.43" y="-145.7" font-family="Times New Roman,serif" font-size="14.00">graphAnd#120</text>
</g>
<!-- 119 -->
<g id="node20" class="node">
<title>119</title>
<polygon fill="yellow" stroke="black" points="1062.25,-36 933,-36 933,0 1062.25,0 1062.25,-36"/>
<text text-anchor="middle" x="997.62" y="-12.95" font-family="Times New Roman,serif" font-size="14.00">Index0 = Index0 + 1</text>
<text text-anchor="middle" x="918.38" y="-39.2" font-family="Times New Roman,serif" font-size="14.00">[119]</text>
</g>
<!-- 116&#45;&gt;119 -->
<g id="edge23" class="edge">
<title>116&#45;&gt;119</title>
<path fill="none" stroke="black" d="M938.25,-88.41C948.82,-76.05 963.3,-59.13 975.31,-45.08"/>
<polygon fill="black" stroke="black" points="977.96,-47.37 981.8,-37.5 972.64,-42.82 977.96,-47.37"/>
<text text-anchor="middle" x="1007.75" y="-57.2" font-family="Times New Roman,serif" font-size="14.00">graphAnd#121</text>
</g>
<!-- 119&#45;&gt;121 -->
<g id="edge25" class="edge">
<title>119&#45;&gt;121</title>
<path fill="none" stroke="black" d="M1032.75,-36.39C1040.08,-41.28 1047.21,-47.17 1052.62,-54 1067.68,-73 1070.62,-81.25 1070.62,-105.5 1070.62,-284.5 1070.62,-284.5 1070.62,-284.5 1070.62,-329.88 1006.72,-349.9 975.45,-356.97"/>
<polygon fill="black" stroke="black" points="974.91,-353.51 965.82,-358.95 976.31,-360.37 974.91,-353.51"/>
<text text-anchor="middle" x="1101" y="-189.95" font-family="Times New Roman,serif" font-size="14.00">iterate#124</text>
</g>
<!-- 121&#45;&gt;107 -->
<g id="edge26" class="edge">
<title>121&#45;&gt;107</title>
<path fill="none" stroke="black" d="M953.03,-359.26C939.11,-356.78 901.95,-349.32 873.62,-336 857.98,-328.64 842.01,-318.17 828.84,-308.58"/>
<polygon fill="black" stroke="black" points="831.12,-305.91 821.01,-302.72 826.92,-311.51 831.12,-305.91"/>
<text text-anchor="middle" x="914.12" y="-322.7" font-family="Times New Roman,serif" font-size="14.00">graphAnd#126</text>
</g>
<!-- 121&#45;&gt;110 -->
<g id="edge24" class="edge">
<title>121&#45;&gt;110</title>
<path fill="none" stroke="black" d="M958.62,-353.48C958.62,-344.4 958.62,-327.65 958.62,-312.93"/>
<polygon fill="black" stroke="black" points="962.13,-313.26 958.63,-303.26 955.13,-313.26 962.13,-313.26"/>
<text text-anchor="middle" x="989" y="-322.7" font-family="Times New Roman,serif" font-size="14.00">iterate#123</text>
</g>
<!-- 122 -->
<g id="node22" class="node">
<title>122</title>
<ellipse fill="black" stroke="black" cx="690.62" cy="-1207" rx="7.2" ry="7.2"/>
<text text-anchor="middle" x="675.55" y="-1217.4" font-family="Times New Roman,serif" font-size="14.00">[0]</text>
</g>
<!-- 123 -->
<g id="node23" class="node">
<title>123</title>
<polygon fill="yellow" stroke="black" points="795,-1162.8 586.25,-1162.8 586.25,-1126.8 795,-1126.8 795,-1162.8"/>
<text text-anchor="middle" x="690.62" y="-1139.75" font-family="Times New Roman,serif" font-size="14.00">self.data.getDimensionSizes(1) &gt; 0</text>
<text text-anchor="middle" x="571.62" y="-1166" font-family="Times New Roman,serif" font-size="14.00">[123]</text>
</g>
<!-- 122&#45;&gt;123 -->
<g id="edge5" class="edge">
<title>122&#45;&gt;123</title>
<path fill="none" stroke="black" d="M690.62,-1199.56C690.62,-1193.5 690.62,-1183.99 690.62,-1174.64"/>
<polygon fill="black" stroke="black" points="694.13,-1174.68 690.63,-1164.68 687.13,-1174.68 694.13,-1174.68"/>
</g>
<!-- 125 -->
<g id="node24" class="node">
<title>125</title>
<polygon fill="aquamarine" stroke="black" points="690.62,-1074.3 683.42,-1067.1 690.62,-1059.9 697.83,-1067.1 690.62,-1074.3"/>
<text text-anchor="middle" x="665.05" y="-1077.5" font-family="Times New Roman,serif" font-size="14.00">&lt;125&gt;</text>
</g>
<!-- 123&#45;&gt;125 -->
<g id="edge11" class="edge">
<title>123&#45;&gt;125</title>
<path fill="none" stroke="black" d="M690.62,-1126.62C690.62,-1114.58 690.62,-1098.5 690.62,-1086.25"/>
<polygon fill="black" stroke="black" points="694.13,-1086.34 690.63,-1076.34 687.13,-1086.34 694.13,-1086.34"/>
<text text-anchor="middle" x="731.12" y="-1095.5" font-family="Times New Roman,serif" font-size="14.00">graphAnd#140</text>
</g>
<!-- 125&#45;&gt;80 -->
<g id="edge7" class="edge">
<title>125&#45;&gt;80</title>
<path fill="none" stroke="black" d="M687.32,-1063.22C675.69,-1053.11 636.26,-1018.8 615.95,-1001.12"/>
<polygon fill="black" stroke="black" points="618.3,-998.53 608.46,-994.6 613.7,-1003.81 618.3,-998.53"/>
<text text-anchor="middle" x="690.98" y="-1028.6" font-family="Times New Roman,serif" font-size="14.00">split2#136</text>
</g>
<!-- 125&#45;&gt;86 -->
<g id="edge6" class="edge">
<title>125&#45;&gt;86</title>
<path fill="none" stroke="black" d="M695.41,-1064.08C712.71,-1056.76 773.29,-1031.14 818.18,-1012.16"/>
<polygon fill="black" stroke="black" points="819.4,-1015.44 827.25,-1008.32 816.68,-1008.99 819.4,-1015.44"/>
<text text-anchor="middle" x="813.99" y="-1028.6" font-family="Times New Roman,serif" font-size="14.00">split1#135</text>
</g>
<!-- 126&#45;&gt;84 -->
<g id="edge10" class="edge">
<title>126&#45;&gt;84</title>
<path fill="none" stroke="black" d="M746.62,-187.21C746.62,-174.92 746.62,-148.49 746.62,-129.43"/>
<polygon fill="black" stroke="black" points="750.13,-129.44 746.63,-119.44 743.13,-129.44 750.13,-129.44"/>
<text text-anchor="middle" x="795.75" y="-145.7" font-family="Times New Roman,serif" font-size="14.00">graphOr_end#139</text>
</g>
</g>
</svg>
