<?xml version="1.0" encoding="UTF-8" standalone="no"?>
<!DOCTYPE svg PUBLIC "-//W3C//DTD SVG 1.1//EN"
 "http://www.w3.org/Graphics/SVG/1.1/DTD/svg11.dtd">
<!-- Generated by graphviz version 12.2.1 (20241206.2353)
 -->
<!-- Title: CLG Pages: 1 -->
<svg width="1128pt" height="1239pt"
 viewBox="0.00 0.00 1128.00 1238.70" xmlns="http://www.w3.org/2000/svg" xmlns:xlink="http://www.w3.org/1999/xlink">
<g id="graph0" class="graph" transform="scale(1 1) rotate(0) translate(4 1234.7)">
<title>CLG</title>
<polygon fill="white" stroke="none" points="-4,4 -4,-1234.7 1124,-1234.7 1124,4 -4,4"/>
<!-- 33 -->
<g id="node1" class="node">
<title>33</title>
<polygon fill="yellow" stroke="black" points="1042.75,-633.9 814.5,-633.9 814.5,-597.9 1042.75,-597.9 1042.75,-633.9"/>
<text text-anchor="middle" x="928.62" y="-610.85" font-family="Times New Roman,serif" font-size="14.00">dim1 = arg.data.getDimensionSizes(1)</text>
<text text-anchor="middle" x="803.25" y="-637.1" font-family="Times New Roman,serif" font-size="14.00">[33]</text>
</g>
<!-- 39 -->
<g id="node3" class="node">
<title>39</title>
<polygon fill="yellow" stroke="black" points="963,-545.4 892.25,-545.4 892.25,-509.4 963,-509.4 963,-545.4"/>
<text text-anchor="middle" x="927.62" y="-522.35" font-family="Times New Roman,serif" font-size="14.00">acc = true</text>
<text text-anchor="middle" x="881" y="-548.6" font-family="Times New Roman,serif" font-size="14.00">[39]</text>
</g>
<!-- 33&#45;&gt;39 -->
<g id="edge19" class="edge">
<title>33&#45;&gt;39</title>
<path fill="none" stroke="black" d="M928.43,-597.81C928.29,-586.16 928.11,-570.45 927.95,-556.92"/>
<polygon fill="black" stroke="black" points="931.46,-557.22 927.84,-547.26 924.46,-557.3 931.46,-557.22"/>
<text text-anchor="middle" x="965.34" y="-566.6" font-family="Times New Roman,serif" font-size="14.00">graphAnd#55</text>
</g>
<!-- 36 -->
<g id="node2" class="node">
<title>36</title>
<polygon fill="yellow" stroke="black" points="965.62,-456.9 889.62,-456.9 889.62,-420.9 965.62,-420.9 965.62,-456.9"/>
<text text-anchor="middle" x="927.62" y="-433.85" font-family="Times New Roman,serif" font-size="14.00">Index0 = 1</text>
<text text-anchor="middle" x="878.38" y="-460.1" font-family="Times New Roman,serif" font-size="14.00">[36]</text>
</g>
<!-- 56 -->
<g id="node17" class="node">
<title>56</title>
<polygon fill="aquamarine" stroke="black" points="925.62,-368.4 918.42,-361.2 925.62,-354 932.83,-361.2 925.62,-368.4"/>
<text text-anchor="middle" x="903.42" y="-371.6" font-family="Times New Roman,serif" font-size="14.00">&lt;56&gt;</text>
</g>
<!-- 36&#45;&gt;56 -->
<g id="edge18" class="edge">
<title>36&#45;&gt;56</title>
<path fill="none" stroke="black" d="M927.17,-420.72C926.85,-408.68 926.43,-392.6 926.1,-380.35"/>
<polygon fill="black" stroke="black" points="929.61,-380.34 925.84,-370.44 922.61,-380.52 929.61,-380.34"/>
<text text-anchor="middle" x="963.81" y="-389.6" font-family="Times New Roman,serif" font-size="14.00">graphAnd#54</text>
</g>
<!-- 39&#45;&gt;36 -->
<g id="edge11" class="edge">
<title>39&#45;&gt;36</title>
<path fill="none" stroke="black" d="M927.62,-509.31C927.62,-497.66 927.62,-481.95 927.62,-468.42"/>
<polygon fill="black" stroke="black" points="931.13,-468.76 927.63,-458.76 924.13,-468.76 931.13,-468.76"/>
<text text-anchor="middle" x="964.75" y="-478.1" font-family="Times New Roman,serif" font-size="14.00">graphAnd#35</text>
</g>
<!-- 42 -->
<g id="node4" class="node">
<title>42</title>
<polygon fill="yellow" stroke="black" points="833.25,-301.5 698,-301.5 698,-265.5 833.25,-265.5 833.25,-301.5"/>
<text text-anchor="middle" x="765.62" y="-278.45" font-family="Times New Roman,serif" font-size="14.00">Index0 &gt; dim1 &#45; 1+ 1</text>
<text text-anchor="middle" x="686.75" y="-304.7" font-family="Times New Roman,serif" font-size="14.00">[42]</text>
</g>
<!-- 61 -->
<g id="node22" class="node">
<title>61</title>
<polygon fill="aquamarine" stroke="black" points="711.62,-202.2 704.42,-195 711.62,-187.8 718.83,-195 711.62,-202.2"/>
<text text-anchor="middle" x="689.42" y="-205.4" font-family="Times New Roman,serif" font-size="14.00">&lt;61&gt;</text>
</g>
<!-- 42&#45;&gt;61 -->
<g id="edge1" class="edge">
<title>42&#45;&gt;61</title>
<path fill="none" stroke="black" d="M754.96,-265.41C744.77,-249.09 729.61,-224.81 720.18,-209.71"/>
<polygon fill="black" stroke="black" points="723.34,-208.16 715.08,-201.53 717.4,-211.87 723.34,-208.16"/>
<text text-anchor="middle" x="774.21" y="-234.2" font-family="Times New Roman,serif" font-size="14.00">merge1#64</text>
</g>
<!-- 10 -->
<g id="node5" class="node">
<title>10</title>
<polygon fill="yellow" stroke="black" points="726.5,-918.9 418.75,-918.9 418.75,-882.9 726.5,-882.9 726.5,-918.9"/>
<text text-anchor="middle" x="572.62" y="-895.85" font-family="Times New Roman,serif" font-size="14.00">self.data.getDimension() &lt;&gt; arg.data.getDimension()</text>
<text text-anchor="middle" x="407.5" y="-922.1" font-family="Times New Roman,serif" font-size="14.00">[10]</text>
</g>
<!-- 16 -->
<g id="node10" class="node">
<title>16</title>
<polygon fill="aquamarine" stroke="black" points="572.62,-819.6 565.42,-812.4 572.62,-805.2 579.83,-812.4 572.62,-819.6"/>
<text text-anchor="middle" x="550.42" y="-822.8" font-family="Times New Roman,serif" font-size="14.00">&lt;16&gt;</text>
</g>
<!-- 10&#45;&gt;16 -->
<g id="edge7" class="edge">
<title>10&#45;&gt;16</title>
<path fill="none" stroke="black" d="M572.62,-882.81C572.62,-868.04 572.62,-846.73 572.62,-831.63"/>
<polygon fill="black" stroke="black" points="576.13,-831.79 572.63,-821.79 569.13,-831.79 576.13,-831.79"/>
<text text-anchor="middle" x="603.38" y="-851.6" font-family="Times New Roman,serif" font-size="14.00">merge1#14</text>
</g>
<!-- 45 -->
<g id="node6" class="node">
<title>45</title>
<polygon fill="yellow" stroke="black" points="997.38,-301.5 853.88,-301.5 853.88,-265.5 997.38,-265.5 997.38,-301.5"/>
<text text-anchor="middle" x="925.62" y="-278.45" font-family="Times New Roman,serif" font-size="14.00">Index0 &lt;= dim1 &#45; 1+ 1</text>
<text text-anchor="middle" x="842.62" y="-304.7" font-family="Times New Roman,serif" font-size="14.00">[45]</text>
</g>
<!-- 48 -->
<g id="node9" class="node">
<title>48</title>
<polygon fill="yellow" stroke="black" points="971.25,-213 824,-213 824,-177 971.25,-177 971.25,-213"/>
<text text-anchor="middle" x="897.62" y="-189.95" font-family="Times New Roman,serif" font-size="14.00">it = Sequence{1..dim1}</text>
<text text-anchor="middle" x="812.75" y="-216.2" font-family="Times New Roman,serif" font-size="14.00">[48]</text>
</g>
<!-- 45&#45;&gt;48 -->
<g id="edge12" class="edge">
<title>45&#45;&gt;48</title>
<path fill="none" stroke="black" d="M920.09,-265.41C916.28,-253.64 911.13,-237.73 906.72,-224.11"/>
<polygon fill="black" stroke="black" points="910.12,-223.23 903.71,-214.79 903.46,-225.38 910.12,-223.23"/>
<text text-anchor="middle" x="951.26" y="-234.2" font-family="Times New Roman,serif" font-size="14.00">graphAnd#46</text>
</g>
<!-- 13 -->
<g id="node7" class="node">
<title>13</title>
<polygon fill="yellow" stroke="black" points="400.75,-918.9 22.5,-918.9 22.5,-882.9 400.75,-882.9 400.75,-918.9"/>
<text text-anchor="middle" x="211.62" y="-895.85" font-family="Times New Roman,serif" font-size="14.00">self.data.getDimensionSizes(1) &lt;&gt; arg.data.getDimensionSizes(1)</text>
<text text-anchor="middle" x="11.25" y="-922.1" font-family="Times New Roman,serif" font-size="14.00">[13]</text>
</g>
<!-- 13&#45;&gt;16 -->
<g id="edge8" class="edge">
<title>13&#45;&gt;16</title>
<path fill="none" stroke="black" d="M284.24,-882.5C370.63,-861.8 509.09,-828.62 556.27,-817.32"/>
<polygon fill="black" stroke="black" points="556.86,-820.78 565.76,-815.04 555.22,-813.97 556.86,-820.78"/>
<text text-anchor="middle" x="455.21" y="-851.6" font-family="Times New Roman,serif" font-size="14.00">merge2#15</text>
</g>
<!-- 15 -->
<g id="node8" class="node">
<title>15</title>
<polygon fill="aquamarine" stroke="black" points="572.62,-996.6 565.42,-989.4 572.62,-982.2 579.83,-989.4 572.62,-996.6"/>
<text text-anchor="middle" x="550.42" y="-999.8" font-family="Times New Roman,serif" font-size="14.00">&lt;15&gt;</text>
</g>
<!-- 15&#45;&gt;10 -->
<g id="edge5" class="edge">
<title>15&#45;&gt;10</title>
<path fill="none" stroke="black" d="M572.62,-981.61C572.62,-970.75 572.62,-948.85 572.62,-930.75"/>
<polygon fill="black" stroke="black" points="576.13,-930.79 572.63,-920.79 569.13,-930.79 576.13,-930.79"/>
<text text-anchor="middle" x="597.75" y="-940.1" font-family="Times New Roman,serif" font-size="14.00">split1#12</text>
</g>
<!-- 15&#45;&gt;13 -->
<g id="edge6" class="edge">
<title>15&#45;&gt;13</title>
<path fill="none" stroke="black" d="M567.24,-987.11C537.5,-979.98 391.19,-944.92 295.74,-922.06"/>
<polygon fill="black" stroke="black" points="296.67,-918.68 286.13,-919.75 295.04,-925.49 296.67,-918.68"/>
<text text-anchor="middle" x="449.58" y="-940.1" font-family="Times New Roman,serif" font-size="14.00">split2#13</text>
</g>
<!-- 51 -->
<g id="node12" class="node">
<title>51</title>
<polygon fill="yellow" stroke="black" points="1009.88,-124.5 767.38,-124.5 767.38,-88.5 1009.88,-88.5 1009.88,-124.5"/>
<text text-anchor="middle" x="888.62" y="-101.45" font-family="Times New Roman,serif" font-size="14.00">result.data[it] = self.data[it] + arg.data[it]</text>
<text text-anchor="middle" x="756.12" y="-127.7" font-family="Times New Roman,serif" font-size="14.00">[51]</text>
</g>
<!-- 48&#45;&gt;51 -->
<g id="edge13" class="edge">
<title>48&#45;&gt;51</title>
<path fill="none" stroke="black" d="M895.85,-176.91C894.63,-165.26 893,-149.55 891.59,-136.02"/>
<polygon fill="black" stroke="black" points="895.1,-135.94 890.59,-126.36 888.14,-136.66 895.1,-135.94"/>
<text text-anchor="middle" x="931.06" y="-145.7" font-family="Times New Roman,serif" font-size="14.00">graphAnd#47</text>
</g>
<!-- 18 -->
<g id="node11" class="node">
<title>18</title>
<polygon fill="yellow" stroke="black" points="744.88,-687.9 556.38,-687.9 556.38,-651.9 744.88,-651.9 744.88,-687.9"/>
<text text-anchor="middle" x="650.62" y="-664.85" font-family="Times New Roman,serif" font-size="14.00">Result = &#39;IllegalDimensionSize&#39;</text>
<text text-anchor="middle" x="545.12" y="-691.1" font-family="Times New Roman,serif" font-size="14.00">[18]</text>
</g>
<!-- 16&#45;&gt;18 -->
<g id="edge21" class="edge">
<title>16&#45;&gt;18</title>
<path fill="none" stroke="black" d="M575.04,-807.04C584.04,-790.84 616.02,-733.23 635.39,-698.35"/>
<polygon fill="black" stroke="black" points="638.42,-700.09 640.21,-689.65 632.3,-696.7 638.42,-700.09"/>
<text text-anchor="middle" x="637.21" y="-763.1" font-family="Times New Roman,serif" font-size="14.00">graphAnd#57</text>
</g>
<!-- 18&#45;&gt;61 -->
<g id="edge2" class="edge">
<title>18&#45;&gt;61</title>
<path fill="none" stroke="black" d="M654.39,-651.61C658.22,-632.41 663.62,-600.47 663.62,-572.65 663.62,-572.65 663.62,-572.65 663.62,-282.5 663.62,-252.35 686.2,-222.88 700.38,-207.33"/>
<polygon fill="black" stroke="black" points="702.7,-209.97 707.12,-200.34 697.66,-205.11 702.7,-209.97"/>
<text text-anchor="middle" x="694.38" y="-433.85" font-family="Times New Roman,serif" font-size="14.00">merge2#65</text>
</g>
<!-- 54 -->
<g id="node15" class="node">
<title>54</title>
<polygon fill="yellow" stroke="black" points="1027.25,-36 898,-36 898,0 1027.25,0 1027.25,-36"/>
<text text-anchor="middle" x="962.62" y="-12.95" font-family="Times New Roman,serif" font-size="14.00">Index0 = Index0 + 1</text>
<text text-anchor="middle" x="886.75" y="-39.2" font-family="Times New Roman,serif" font-size="14.00">[54]</text>
</g>
<!-- 51&#45;&gt;54 -->
<g id="edge14" class="edge">
<title>51&#45;&gt;54</title>
<path fill="none" stroke="black" d="M903.25,-88.41C913.82,-76.05 928.3,-59.13 940.31,-45.08"/>
<polygon fill="black" stroke="black" points="942.96,-47.37 946.8,-37.5 937.64,-42.82 942.96,-47.37"/>
<text text-anchor="middle" x="969.38" y="-57.2" font-family="Times New Roman,serif" font-size="14.00">graphAnd#48</text>
</g>
<!-- 19 -->
<g id="node13" class="node">
<title>19</title>
<ellipse fill="black" stroke="black" cx="711.62" cy="-106.5" rx="7.2" ry="7.2"/>
<ellipse fill="none" stroke="black" cx="711.62" cy="-106.5" rx="11.2" ry="11.2"/>
<text text-anchor="middle" x="690.3" y="-120.9" font-family="Times New Roman,serif" font-size="14.00">[&#45;1]</text>
</g>
<!-- 21 -->
<g id="node14" class="node">
<title>21</title>
<polygon fill="yellow" stroke="black" points="988.38,-1007.4 688.88,-1007.4 688.88,-971.4 988.38,-971.4 988.38,-1007.4"/>
<text text-anchor="middle" x="838.62" y="-984.35" font-family="Times New Roman,serif" font-size="14.00">self.data.getDimension() = arg.data.getDimension()</text>
<text text-anchor="middle" x="677.62" y="-1010.6" font-family="Times New Roman,serif" font-size="14.00">[21]</text>
</g>
<!-- 24 -->
<g id="node16" class="node">
<title>24</title>
<polygon fill="yellow" stroke="black" points="1114.62,-918.9 744.62,-918.9 744.62,-882.9 1114.62,-882.9 1114.62,-918.9"/>
<text text-anchor="middle" x="929.62" y="-895.85" font-family="Times New Roman,serif" font-size="14.00">self.data.getDimensionSizes(1) = arg.data.getDimensionSizes(1)</text>
<text text-anchor="middle" x="733.38" y="-922.1" font-family="Times New Roman,serif" font-size="14.00">[24]</text>
</g>
<!-- 21&#45;&gt;24 -->
<g id="edge9" class="edge">
<title>21&#45;&gt;24</title>
<path fill="none" stroke="black" d="M856.6,-971.31C869.98,-958.6 888.43,-941.06 903.44,-926.79"/>
<polygon fill="black" stroke="black" points="905.44,-929.72 910.28,-920.29 900.62,-924.65 905.44,-929.72"/>
<text text-anchor="middle" x="929.4" y="-940.1" font-family="Times New Roman,serif" font-size="14.00">graphAnd#23</text>
</g>
<!-- 54&#45;&gt;56 -->
<g id="edge16" class="edge">
<title>54&#45;&gt;56</title>
<path fill="none" stroke="black" d="M991.41,-36.49C1012.56,-51.77 1037.62,-76.08 1037.62,-105.5 1037.62,-284.5 1037.62,-284.5 1037.62,-284.5 1037.62,-329.88 973.72,-349.9 942.45,-356.97"/>
<polygon fill="black" stroke="black" points="941.91,-353.51 932.82,-358.95 943.31,-360.37 941.91,-353.51"/>
<text text-anchor="middle" x="1064.62" y="-189.95" font-family="Times New Roman,serif" font-size="14.00">iterate#51</text>
</g>
<!-- 27 -->
<g id="node20" class="node">
<title>27</title>
<polygon fill="yellow" stroke="black" points="1084.75,-830.4 772.5,-830.4 772.5,-794.4 1084.75,-794.4 1084.75,-830.4"/>
<text text-anchor="middle" x="928.62" y="-807.35" font-family="Times New Roman,serif" font-size="14.00">self.data.getDimension() = result.data.getDimension()</text>
<text text-anchor="middle" x="761.25" y="-833.6" font-family="Times New Roman,serif" font-size="14.00">[27]</text>
</g>
<!-- 24&#45;&gt;27 -->
<g id="edge22" class="edge">
<title>24&#45;&gt;27</title>
<path fill="none" stroke="black" d="M929.43,-882.81C929.29,-871.16 929.11,-855.45 928.95,-841.92"/>
<polygon fill="black" stroke="black" points="932.46,-842.22 928.84,-832.26 925.46,-842.3 932.46,-842.22"/>
<text text-anchor="middle" x="966.34" y="-851.6" font-family="Times New Roman,serif" font-size="14.00">graphAnd#58</text>
</g>
<!-- 56&#45;&gt;42 -->
<g id="edge17" class="edge">
<title>56&#45;&gt;42</title>
<path fill="none" stroke="black" d="M920.13,-359.03C907.1,-356.13 873.47,-348 847.38,-336 830.66,-328.31 813.26,-317.76 798.83,-308.2"/>
<polygon fill="black" stroke="black" points="800.86,-305.35 790.62,-302.65 796.94,-311.15 800.86,-305.35"/>
<text text-anchor="middle" x="884.5" y="-322.7" font-family="Times New Roman,serif" font-size="14.00">graphAnd#53</text>
</g>
<!-- 56&#45;&gt;45 -->
<g id="edge15" class="edge">
<title>56&#45;&gt;45</title>
<path fill="none" stroke="black" d="M925.62,-353.48C925.62,-344.4 925.62,-327.65 925.62,-312.93"/>
<polygon fill="black" stroke="black" points="929.13,-313.26 925.63,-303.26 922.13,-313.26 929.13,-313.26"/>
<text text-anchor="middle" x="952.62" y="-322.7" font-family="Times New Roman,serif" font-size="14.00">iterate#50</text>
</g>
<!-- 57 -->
<g id="node18" class="node">
<title>57</title>
<ellipse fill="black" stroke="black" cx="659.62" cy="-1207" rx="7.2" ry="7.2"/>
<text text-anchor="middle" x="644.55" y="-1217.4" font-family="Times New Roman,serif" font-size="14.00">[0]</text>
</g>
<!-- 58 -->
<g id="node19" class="node">
<title>58</title>
<polygon fill="yellow" stroke="black" points="764,-1162.8 555.25,-1162.8 555.25,-1126.8 764,-1126.8 764,-1162.8"/>
<text text-anchor="middle" x="659.62" y="-1139.75" font-family="Times New Roman,serif" font-size="14.00">self.data.getDimensionSizes(1) &gt; 0</text>
<text text-anchor="middle" x="544" y="-1166" font-family="Times New Roman,serif" font-size="14.00">[58]</text>
</g>
<!-- 57&#45;&gt;58 -->
<g id="edge23" class="edge">
<title>57&#45;&gt;58</title>
<path fill="none" stroke="black" d="M659.62,-1199.56C659.62,-1193.5 659.62,-1183.99 659.62,-1174.64"/>
<polygon fill="black" stroke="black" points="663.13,-1174.68 659.63,-1164.68 656.13,-1174.68 663.13,-1174.68"/>
</g>
<!-- 60 -->
<g id="node21" class="node">
<title>60</title>
<polygon fill="aquamarine" stroke="black" points="659.62,-1074.3 652.42,-1067.1 659.62,-1059.9 666.83,-1067.1 659.62,-1074.3"/>
<text text-anchor="middle" x="637.42" y="-1077.5" font-family="Times New Roman,serif" font-size="14.00">&lt;60&gt;</text>
</g>
<!-- 58&#45;&gt;60 -->
<g id="edge4" class="edge">
<title>58&#45;&gt;60</title>
<path fill="none" stroke="black" d="M659.62,-1126.62C659.62,-1114.58 659.62,-1098.5 659.62,-1086.25"/>
<polygon fill="black" stroke="black" points="663.13,-1086.34 659.63,-1076.34 656.13,-1086.34 663.13,-1086.34"/>
<text text-anchor="middle" x="696.75" y="-1095.5" font-family="Times New Roman,serif" font-size="14.00">graphAnd#67</text>
</g>
<!-- 30 -->
<g id="node23" class="node">
<title>30</title>
<polygon fill="yellow" stroke="black" points="1120,-741.9 737.25,-741.9 737.25,-705.9 1120,-705.9 1120,-741.9"/>
<text text-anchor="middle" x="928.62" y="-718.85" font-family="Times New Roman,serif" font-size="14.00">self.data.getDimensionSizes(1) = result.data.getDimensionSizes(1)</text>
<text text-anchor="middle" x="726" y="-745.1" font-family="Times New Roman,serif" font-size="14.00">[30]</text>
</g>
<!-- 27&#45;&gt;30 -->
<g id="edge10" class="edge">
<title>27&#45;&gt;30</title>
<path fill="none" stroke="black" d="M928.62,-794.31C928.62,-782.66 928.62,-766.95 928.62,-753.42"/>
<polygon fill="black" stroke="black" points="932.13,-753.76 928.63,-743.76 925.13,-753.76 932.13,-753.76"/>
<text text-anchor="middle" x="965.75" y="-763.1" font-family="Times New Roman,serif" font-size="14.00">graphAnd#28</text>
</g>
<!-- 60&#45;&gt;15 -->
<g id="edge25" class="edge">
<title>60&#45;&gt;15</title>
<path fill="none" stroke="black" d="M656.32,-1063.22C644.69,-1053.11 605.26,-1018.8 584.95,-1001.12"/>
<polygon fill="black" stroke="black" points="587.3,-998.53 577.46,-994.6 582.7,-1003.81 587.3,-998.53"/>
<text text-anchor="middle" x="656.61" y="-1028.6" font-family="Times New Roman,serif" font-size="14.00">split2#63</text>
</g>
<!-- 60&#45;&gt;21 -->
<g id="edge24" class="edge">
<title>60&#45;&gt;21</title>
<path fill="none" stroke="black" d="M664.41,-1064.08C681.71,-1056.76 742.29,-1031.14 787.18,-1012.16"/>
<polygon fill="black" stroke="black" points="788.4,-1015.44 796.25,-1008.32 785.68,-1008.99 788.4,-1015.44"/>
<text text-anchor="middle" x="779.62" y="-1028.6" font-family="Times New Roman,serif" font-size="14.00">split1#62</text>
</g>
<!-- 61&#45;&gt;19 -->
<g id="edge3" class="edge">
<title>61&#45;&gt;19</title>
<path fill="none" stroke="black" d="M711.62,-187.21C711.62,-174.92 711.62,-148.49 711.62,-129.43"/>
<polygon fill="black" stroke="black" points="715.13,-129.44 711.63,-119.44 708.13,-129.44 715.13,-129.44"/>
<text text-anchor="middle" x="757.38" y="-145.7" font-family="Times New Roman,serif" font-size="14.00">graphOr_end#66</text>
</g>
<!-- 30&#45;&gt;33 -->
<g id="edge20" class="edge">
<title>30&#45;&gt;33</title>
<path fill="none" stroke="black" d="M928.62,-705.87C928.62,-689.66 928.62,-664.96 928.62,-645.69"/>
<polygon fill="black" stroke="black" points="932.13,-645.75 928.63,-635.75 925.13,-645.75 932.13,-645.75"/>
<text text-anchor="middle" x="965.75" y="-664.85" font-family="Times New Roman,serif" font-size="14.00">graphAnd#56</text>
</g>
</g>
</svg>
