<?xml version="1.0" encoding="UTF-8" standalone="no"?>
<!DOCTYPE svg PUBLIC "-//W3C//DTD SVG 1.1//EN"
 "http://www.w3.org/Graphics/SVG/1.1/DTD/svg11.dtd">
<!-- Generated by graphviz version 13.1.2 (20250808.2320)
 -->
<!-- Title: CLG Pages: 1 -->
<svg width="1119pt" height="3069pt"
 viewBox="0.00 0.00 1119.00 3069.00" xmlns="http://www.w3.org/2000/svg" xmlns:xlink="http://www.w3.org/1999/xlink">
<g id="graph0" class="graph" transform="scale(1 1) rotate(0) translate(4 3065)">
<title>CLG</title>
<polygon fill="white" stroke="none" points="-4,4 -4,-3065 1115.25,-3065 1115.25,4 -4,4"/>
<!-- 268 -->
<g id="node1" class="node">
<title>268</title>
<polygon fill="yellow" stroke="black" points="535.75,-2799.7 29.25,-2799.7 29.25,-1224.2 535.75,-1224.2 535.75,-2799.7"/>
<text xml:space="preserve" text-anchor="middle" x="282.5" y="-2782.4" font-family="Times New Roman,serif" font-size="14.00">self.year &lt; 1 and</text>
<text xml:space="preserve" text-anchor="middle" x="282.5" y="-2765.9" font-family="Times New Roman,serif" font-size="14.00">self.month &gt;= 1 and</text>
<text xml:space="preserve" text-anchor="middle" x="282.5" y="-2749.4" font-family="Times New Roman,serif" font-size="14.00">self.month &lt;= 12 and</text>
<text xml:space="preserve" text-anchor="middle" x="282.5" y="-2732.9" font-family="Times New Roman,serif" font-size="14.00">self.day &gt;= 1 and</text>
<text xml:space="preserve" text-anchor="middle" x="282.5" y="-2716.4" font-family="Times New Roman,serif" font-size="14.00">IfExp ConditionNode:(self.month = 1 or</text>
<text xml:space="preserve" text-anchor="middle" x="282.5" y="-2699.9" font-family="Times New Roman,serif" font-size="14.00">self.month = 3 or</text>
<text xml:space="preserve" text-anchor="middle" x="282.5" y="-2683.4" font-family="Times New Roman,serif" font-size="14.00">self.month = 5 or</text>
<text xml:space="preserve" text-anchor="middle" x="282.5" y="-2666.9" font-family="Times New Roman,serif" font-size="14.00">self.month = 7 or</text>
<text xml:space="preserve" text-anchor="middle" x="282.5" y="-2650.4" font-family="Times New Roman,serif" font-size="14.00">self.month = 8 or</text>
<text xml:space="preserve" text-anchor="middle" x="282.5" y="-2633.9" font-family="Times New Roman,serif" font-size="14.00">self.month = 10 or</text>
<text xml:space="preserve" text-anchor="middle" x="282.5" y="-2617.4" font-family="Times New Roman,serif" font-size="14.00">self.month = 12</text>
<text xml:space="preserve" text-anchor="middle" x="282.5" y="-2600.9" font-family="Times New Roman,serif" font-size="14.00">) thenNode: (self.day &lt;= 31) elseNode: (IfExp ConditionNode:(self.month = 4 or</text>
<text xml:space="preserve" text-anchor="middle" x="282.5" y="-2584.4" font-family="Times New Roman,serif" font-size="14.00">self.month = 6 or</text>
<text xml:space="preserve" text-anchor="middle" x="282.5" y="-2567.9" font-family="Times New Roman,serif" font-size="14.00">self.month = 9 or</text>
<text xml:space="preserve" text-anchor="middle" x="282.5" y="-2551.4" font-family="Times New Roman,serif" font-size="14.00">self.month = 11</text>
<text xml:space="preserve" text-anchor="middle" x="282.5" y="-2534.9" font-family="Times New Roman,serif" font-size="14.00">) thenNode: (self.day &lt;= 30) elseNode: (IfExp ConditionNode:(self.year.mod(400) = 0 or</text>
<text xml:space="preserve" text-anchor="middle" x="282.5" y="-2518.4" font-family="Times New Roman,serif" font-size="14.00">self.year.mod(4) = 0 and</text>
<text xml:space="preserve" text-anchor="middle" x="282.5" y="-2501.9" font-family="Times New Roman,serif" font-size="14.00">self.year.mod(100) &lt;&gt; 0</text>
<text xml:space="preserve" text-anchor="middle" x="282.5" y="-2485.4" font-family="Times New Roman,serif" font-size="14.00">) thenNode: (self.day &lt;= 29) elseNode: (self.day &lt;= 28))) or</text>
<text xml:space="preserve" text-anchor="middle" x="282.5" y="-2468.9" font-family="Times New Roman,serif" font-size="14.00">self.year &gt;= 1 and</text>
<text xml:space="preserve" text-anchor="middle" x="282.5" y="-2452.4" font-family="Times New Roman,serif" font-size="14.00">self.month &lt; 1 and</text>
<text xml:space="preserve" text-anchor="middle" x="282.5" y="-2435.9" font-family="Times New Roman,serif" font-size="14.00">self.month &lt;= 12 and</text>
<text xml:space="preserve" text-anchor="middle" x="282.5" y="-2419.4" font-family="Times New Roman,serif" font-size="14.00">self.day &gt;= 1 and</text>
<text xml:space="preserve" text-anchor="middle" x="282.5" y="-2402.9" font-family="Times New Roman,serif" font-size="14.00">IfExp ConditionNode:(self.month = 1 or</text>
<text xml:space="preserve" text-anchor="middle" x="282.5" y="-2386.4" font-family="Times New Roman,serif" font-size="14.00">self.month = 3 or</text>
<text xml:space="preserve" text-anchor="middle" x="282.5" y="-2369.9" font-family="Times New Roman,serif" font-size="14.00">self.month = 5 or</text>
<text xml:space="preserve" text-anchor="middle" x="282.5" y="-2353.4" font-family="Times New Roman,serif" font-size="14.00">self.month = 7 or</text>
<text xml:space="preserve" text-anchor="middle" x="282.5" y="-2336.9" font-family="Times New Roman,serif" font-size="14.00">self.month = 8 or</text>
<text xml:space="preserve" text-anchor="middle" x="282.5" y="-2320.4" font-family="Times New Roman,serif" font-size="14.00">self.month = 10 or</text>
<text xml:space="preserve" text-anchor="middle" x="282.5" y="-2303.9" font-family="Times New Roman,serif" font-size="14.00">self.month = 12</text>
<text xml:space="preserve" text-anchor="middle" x="282.5" y="-2287.4" font-family="Times New Roman,serif" font-size="14.00">) thenNode: (self.day &lt;= 31) elseNode: (IfExp ConditionNode:(self.month = 4 or</text>
<text xml:space="preserve" text-anchor="middle" x="282.5" y="-2270.9" font-family="Times New Roman,serif" font-size="14.00">self.month = 6 or</text>
<text xml:space="preserve" text-anchor="middle" x="282.5" y="-2254.4" font-family="Times New Roman,serif" font-size="14.00">self.month = 9 or</text>
<text xml:space="preserve" text-anchor="middle" x="282.5" y="-2237.9" font-family="Times New Roman,serif" font-size="14.00">self.month = 11</text>
<text xml:space="preserve" text-anchor="middle" x="282.5" y="-2221.4" font-family="Times New Roman,serif" font-size="14.00">) thenNode: (self.day &lt;= 30) elseNode: (IfExp ConditionNode:(self.year.mod(400) = 0 or</text>
<text xml:space="preserve" text-anchor="middle" x="282.5" y="-2204.9" font-family="Times New Roman,serif" font-size="14.00">self.year.mod(4) = 0 and</text>
<text xml:space="preserve" text-anchor="middle" x="282.5" y="-2188.4" font-family="Times New Roman,serif" font-size="14.00">self.year.mod(100) &lt;&gt; 0</text>
<text xml:space="preserve" text-anchor="middle" x="282.5" y="-2171.9" font-family="Times New Roman,serif" font-size="14.00">) thenNode: (self.day &lt;= 29) elseNode: (self.day &lt;= 28))) or</text>
<text xml:space="preserve" text-anchor="middle" x="282.5" y="-2155.4" font-family="Times New Roman,serif" font-size="14.00">self.year &gt;= 1 and</text>
<text xml:space="preserve" text-anchor="middle" x="282.5" y="-2138.9" font-family="Times New Roman,serif" font-size="14.00">self.month &gt;= 1 and</text>
<text xml:space="preserve" text-anchor="middle" x="282.5" y="-2122.4" font-family="Times New Roman,serif" font-size="14.00">self.month &gt; 12 and</text>
<text xml:space="preserve" text-anchor="middle" x="282.5" y="-2105.9" font-family="Times New Roman,serif" font-size="14.00">self.day &gt;= 1 and</text>
<text xml:space="preserve" text-anchor="middle" x="282.5" y="-2089.4" font-family="Times New Roman,serif" font-size="14.00">IfExp ConditionNode:(self.month = 1 or</text>
<text xml:space="preserve" text-anchor="middle" x="282.5" y="-2072.9" font-family="Times New Roman,serif" font-size="14.00">self.month = 3 or</text>
<text xml:space="preserve" text-anchor="middle" x="282.5" y="-2056.4" font-family="Times New Roman,serif" font-size="14.00">self.month = 5 or</text>
<text xml:space="preserve" text-anchor="middle" x="282.5" y="-2039.9" font-family="Times New Roman,serif" font-size="14.00">self.month = 7 or</text>
<text xml:space="preserve" text-anchor="middle" x="282.5" y="-2023.4" font-family="Times New Roman,serif" font-size="14.00">self.month = 8 or</text>
<text xml:space="preserve" text-anchor="middle" x="282.5" y="-2006.9" font-family="Times New Roman,serif" font-size="14.00">self.month = 10 or</text>
<text xml:space="preserve" text-anchor="middle" x="282.5" y="-1990.4" font-family="Times New Roman,serif" font-size="14.00">self.month = 12</text>
<text xml:space="preserve" text-anchor="middle" x="282.5" y="-1973.9" font-family="Times New Roman,serif" font-size="14.00">) thenNode: (self.day &lt;= 31) elseNode: (IfExp ConditionNode:(self.month = 4 or</text>
<text xml:space="preserve" text-anchor="middle" x="282.5" y="-1957.4" font-family="Times New Roman,serif" font-size="14.00">self.month = 6 or</text>
<text xml:space="preserve" text-anchor="middle" x="282.5" y="-1940.9" font-family="Times New Roman,serif" font-size="14.00">self.month = 9 or</text>
<text xml:space="preserve" text-anchor="middle" x="282.5" y="-1924.4" font-family="Times New Roman,serif" font-size="14.00">self.month = 11</text>
<text xml:space="preserve" text-anchor="middle" x="282.5" y="-1907.9" font-family="Times New Roman,serif" font-size="14.00">) thenNode: (self.day &lt;= 30) elseNode: (IfExp ConditionNode:(self.year.mod(400) = 0 or</text>
<text xml:space="preserve" text-anchor="middle" x="282.5" y="-1891.4" font-family="Times New Roman,serif" font-size="14.00">self.year.mod(4) = 0 and</text>
<text xml:space="preserve" text-anchor="middle" x="282.5" y="-1874.9" font-family="Times New Roman,serif" font-size="14.00">self.year.mod(100) &lt;&gt; 0</text>
<text xml:space="preserve" text-anchor="middle" x="282.5" y="-1858.4" font-family="Times New Roman,serif" font-size="14.00">) thenNode: (self.day &lt;= 29) elseNode: (self.day &lt;= 28))) or</text>
<text xml:space="preserve" text-anchor="middle" x="282.5" y="-1841.9" font-family="Times New Roman,serif" font-size="14.00">self.year &gt;= 1 and</text>
<text xml:space="preserve" text-anchor="middle" x="282.5" y="-1825.4" font-family="Times New Roman,serif" font-size="14.00">self.month &gt;= 1 and</text>
<text xml:space="preserve" text-anchor="middle" x="282.5" y="-1808.9" font-family="Times New Roman,serif" font-size="14.00">self.month &lt;= 12 and</text>
<text xml:space="preserve" text-anchor="middle" x="282.5" y="-1792.4" font-family="Times New Roman,serif" font-size="14.00">self.day &lt; 1 and</text>
<text xml:space="preserve" text-anchor="middle" x="282.5" y="-1775.9" font-family="Times New Roman,serif" font-size="14.00">IfExp ConditionNode:(self.month = 1 or</text>
<text xml:space="preserve" text-anchor="middle" x="282.5" y="-1759.4" font-family="Times New Roman,serif" font-size="14.00">self.month = 3 or</text>
<text xml:space="preserve" text-anchor="middle" x="282.5" y="-1742.9" font-family="Times New Roman,serif" font-size="14.00">self.month = 5 or</text>
<text xml:space="preserve" text-anchor="middle" x="282.5" y="-1726.4" font-family="Times New Roman,serif" font-size="14.00">self.month = 7 or</text>
<text xml:space="preserve" text-anchor="middle" x="282.5" y="-1709.9" font-family="Times New Roman,serif" font-size="14.00">self.month = 8 or</text>
<text xml:space="preserve" text-anchor="middle" x="282.5" y="-1693.4" font-family="Times New Roman,serif" font-size="14.00">self.month = 10 or</text>
<text xml:space="preserve" text-anchor="middle" x="282.5" y="-1676.9" font-family="Times New Roman,serif" font-size="14.00">self.month = 12</text>
<text xml:space="preserve" text-anchor="middle" x="282.5" y="-1660.4" font-family="Times New Roman,serif" font-size="14.00">) thenNode: (self.day &lt;= 31) elseNode: (IfExp ConditionNode:(self.month = 4 or</text>
<text xml:space="preserve" text-anchor="middle" x="282.5" y="-1643.9" font-family="Times New Roman,serif" font-size="14.00">self.month = 6 or</text>
<text xml:space="preserve" text-anchor="middle" x="282.5" y="-1627.4" font-family="Times New Roman,serif" font-size="14.00">self.month = 9 or</text>
<text xml:space="preserve" text-anchor="middle" x="282.5" y="-1610.9" font-family="Times New Roman,serif" font-size="14.00">self.month = 11</text>
<text xml:space="preserve" text-anchor="middle" x="282.5" y="-1594.4" font-family="Times New Roman,serif" font-size="14.00">) thenNode: (self.day &lt;= 30) elseNode: (IfExp ConditionNode:(self.year.mod(400) = 0 or</text>
<text xml:space="preserve" text-anchor="middle" x="282.5" y="-1577.9" font-family="Times New Roman,serif" font-size="14.00">self.year.mod(4) = 0 and</text>
<text xml:space="preserve" text-anchor="middle" x="282.5" y="-1561.4" font-family="Times New Roman,serif" font-size="14.00">self.year.mod(100) &lt;&gt; 0</text>
<text xml:space="preserve" text-anchor="middle" x="282.5" y="-1544.9" font-family="Times New Roman,serif" font-size="14.00">) thenNode: (self.day &lt;= 29) elseNode: (self.day &lt;= 28))) or</text>
<text xml:space="preserve" text-anchor="middle" x="282.5" y="-1528.4" font-family="Times New Roman,serif" font-size="14.00">self.year &gt;= 1 and</text>
<text xml:space="preserve" text-anchor="middle" x="282.5" y="-1511.9" font-family="Times New Roman,serif" font-size="14.00">self.month &gt;= 1 and</text>
<text xml:space="preserve" text-anchor="middle" x="282.5" y="-1495.4" font-family="Times New Roman,serif" font-size="14.00">self.month &lt;= 12 and</text>
<text xml:space="preserve" text-anchor="middle" x="282.5" y="-1478.9" font-family="Times New Roman,serif" font-size="14.00">self.day &gt;= 1 and</text>
<text xml:space="preserve" text-anchor="middle" x="282.5" y="-1462.4" font-family="Times New Roman,serif" font-size="14.00">IfExp ConditionNode:(self.month = 1 or</text>
<text xml:space="preserve" text-anchor="middle" x="282.5" y="-1445.9" font-family="Times New Roman,serif" font-size="14.00">self.month = 3 or</text>
<text xml:space="preserve" text-anchor="middle" x="282.5" y="-1429.4" font-family="Times New Roman,serif" font-size="14.00">self.month = 5 or</text>
<text xml:space="preserve" text-anchor="middle" x="282.5" y="-1412.9" font-family="Times New Roman,serif" font-size="14.00">self.month = 7 or</text>
<text xml:space="preserve" text-anchor="middle" x="282.5" y="-1396.4" font-family="Times New Roman,serif" font-size="14.00">self.month = 8 or</text>
<text xml:space="preserve" text-anchor="middle" x="282.5" y="-1379.9" font-family="Times New Roman,serif" font-size="14.00">self.month = 10 or</text>
<text xml:space="preserve" text-anchor="middle" x="282.5" y="-1363.4" font-family="Times New Roman,serif" font-size="14.00">self.month = 12</text>
<text xml:space="preserve" text-anchor="middle" x="282.5" y="-1346.9" font-family="Times New Roman,serif" font-size="14.00">) thenNode: (self.day &gt; 31) elseNode: (IfExp ConditionNode:(self.month = 4 or</text>
<text xml:space="preserve" text-anchor="middle" x="282.5" y="-1330.4" font-family="Times New Roman,serif" font-size="14.00">self.month = 6 or</text>
<text xml:space="preserve" text-anchor="middle" x="282.5" y="-1313.9" font-family="Times New Roman,serif" font-size="14.00">self.month = 9 or</text>
<text xml:space="preserve" text-anchor="middle" x="282.5" y="-1297.4" font-family="Times New Roman,serif" font-size="14.00">self.month = 11</text>
<text xml:space="preserve" text-anchor="middle" x="282.5" y="-1280.9" font-family="Times New Roman,serif" font-size="14.00">) thenNode: (self.day &gt; 30) elseNode: (IfExp ConditionNode:(self.year.mod(400) = 0 or</text>
<text xml:space="preserve" text-anchor="middle" x="282.5" y="-1264.4" font-family="Times New Roman,serif" font-size="14.00">self.year.mod(4) = 0 and</text>
<text xml:space="preserve" text-anchor="middle" x="282.5" y="-1247.9" font-family="Times New Roman,serif" font-size="14.00">self.year.mod(100) &lt;&gt; 0</text>
<text xml:space="preserve" text-anchor="middle" x="282.5" y="-1231.4" font-family="Times New Roman,serif" font-size="14.00">) thenNode: (self.day &gt; 29) elseNode: (self.day &gt; 28)))</text>
<text xml:space="preserve" text-anchor="middle" x="14.62" y="-2802.9" font-family="Times New Roman,serif" font-size="14.00">[268]</text>
</g>
<!-- 271 -->
<g id="node2" class="node">
<title>271</title>
<polygon fill="yellow" stroke="black" points="588.25,-1139.3 408.75,-1139.3 408.75,-1103.3 588.25,-1103.3 588.25,-1139.3"/>
<text xml:space="preserve" text-anchor="middle" x="498.5" y="-1116.25" font-family="Times New Roman,serif" font-size="14.00">Result = &#39;DateErrorException&#39;</text>
<text xml:space="preserve" text-anchor="middle" x="394.12" y="-1142.5" font-family="Times New Roman,serif" font-size="14.00">[271]</text>
</g>
<!-- 268&#45;&gt;271 -->
<g id="edge24" class="edge">
<title>268&#45;&gt;271</title>
<path fill="none" stroke="black" d="M473.83,-1223.81C481.26,-1193.23 487.35,-1168.17 491.62,-1150.6"/>
<polygon fill="black" stroke="black" points="494.96,-1151.68 493.92,-1141.13 488.16,-1150.02 494.96,-1151.68"/>
<text xml:space="preserve" text-anchor="middle" x="522.13" y="-1192.9" font-family="Times New Roman,serif" font-size="14.00">graphAnd#377</text>
</g>
<!-- 319 -->
<g id="node25" class="node">
<title>319</title>
<polygon fill="aquamarine" stroke="black" points="550.5,-89.3 543.3,-82.1 550.5,-74.9 557.7,-82.1 550.5,-89.3"/>
<text xml:space="preserve" text-anchor="middle" x="524.92" y="-92.5" font-family="Times New Roman,serif" font-size="14.00">&lt;319&gt;</text>
</g>
<!-- 271&#45;&gt;319 -->
<g id="edge2" class="edge">
<title>271&#45;&gt;319</title>
<path fill="none" stroke="black" d="M504.2,-1103.04C514.36,-1070.74 534.5,-998.8 534.5,-936.55 534.5,-936.55 534.5,-936.55 534.5,-158.8 534.5,-137.81 540.46,-114.25 545.1,-99.07"/>
<polygon fill="black" stroke="black" points="548.42,-100.19 548.19,-89.6 541.76,-98.02 548.42,-100.19"/>
<text xml:space="preserve" text-anchor="middle" x="568.62" y="-488.2" font-family="Times New Roman,serif" font-size="14.00">merge2#385</text>
</g>
<!-- 272 -->
<g id="node3" class="node">
<title>272</title>
<ellipse fill="black" stroke="black" cx="550.5" cy="-11.2" rx="7.2" ry="7.2"/>
<ellipse fill="none" stroke="black" cx="550.5" cy="-11.2" rx="11.2" ry="11.2"/>
<text xml:space="preserve" text-anchor="middle" x="529.17" y="-25.6" font-family="Times New Roman,serif" font-size="14.00">[&#45;1]</text>
</g>
<!-- 274 -->
<g id="node4" class="node">
<title>274</title>
<polygon fill="yellow" stroke="black" points="713.88,-1085.3 595.12,-1085.3 595.12,-961.8 713.88,-961.8 713.88,-1085.3"/>
<text xml:space="preserve" text-anchor="middle" x="654.5" y="-1068" font-family="Times New Roman,serif" font-size="14.00">self.month = 1 or</text>
<text xml:space="preserve" text-anchor="middle" x="654.5" y="-1051.5" font-family="Times New Roman,serif" font-size="14.00">self.month = 3 or</text>
<text xml:space="preserve" text-anchor="middle" x="654.5" y="-1035" font-family="Times New Roman,serif" font-size="14.00">self.month = 5 or</text>
<text xml:space="preserve" text-anchor="middle" x="654.5" y="-1018.5" font-family="Times New Roman,serif" font-size="14.00">self.month = 7 or</text>
<text xml:space="preserve" text-anchor="middle" x="654.5" y="-1002" font-family="Times New Roman,serif" font-size="14.00">self.month = 8 or</text>
<text xml:space="preserve" text-anchor="middle" x="654.5" y="-985.5" font-family="Times New Roman,serif" font-size="14.00">self.month = 10 or</text>
<text xml:space="preserve" text-anchor="middle" x="654.5" y="-969" font-family="Times New Roman,serif" font-size="14.00">self.month = 12</text>
<text xml:space="preserve" text-anchor="middle" x="580.5" y="-1088.5" font-family="Times New Roman,serif" font-size="14.00">[274]</text>
</g>
<!-- 277 -->
<g id="node5" class="node">
<title>277</title>
<polygon fill="yellow" stroke="black" points="700.62,-876.9 604.38,-876.9 604.38,-840.9 700.62,-840.9 700.62,-876.9"/>
<text xml:space="preserve" text-anchor="middle" x="652.5" y="-853.85" font-family="Times New Roman,serif" font-size="14.00">self.day &lt;= 31</text>
<text xml:space="preserve" text-anchor="middle" x="589.75" y="-880.1" font-family="Times New Roman,serif" font-size="14.00">[277]</text>
</g>
<!-- 274&#45;&gt;277 -->
<g id="edge17" class="edge">
<title>274&#45;&gt;277</title>
<path fill="none" stroke="black" d="M653.75,-961.52C653.44,-936.59 653.1,-908.94 652.86,-888.78"/>
<polygon fill="black" stroke="black" points="656.36,-888.76 652.73,-878.8 649.36,-888.85 656.36,-888.76"/>
<text xml:space="preserve" text-anchor="middle" x="694" y="-930.5" font-family="Times New Roman,serif" font-size="14.00">graphAnd#364</text>
</g>
<!-- 308 -->
<g id="node19" class="node">
<title>308</title>
<polygon fill="aquamarine" stroke="black" points="643.5,-244.7 636.3,-237.5 643.5,-230.3 650.7,-237.5 643.5,-244.7"/>
<text xml:space="preserve" text-anchor="middle" x="617.92" y="-247.9" font-family="Times New Roman,serif" font-size="14.00">&lt;308&gt;</text>
</g>
<!-- 277&#45;&gt;308 -->
<g id="edge21" class="edge">
<title>277&#45;&gt;308</title>
<path fill="none" stroke="black" d="M650.59,-840.55C647.95,-814.99 643.5,-765.7 643.5,-723.65 643.5,-723.65 643.5,-723.65 643.5,-303.4 643.5,-287.68 643.5,-269.81 643.5,-256.81"/>
<polygon fill="black" stroke="black" points="647,-256.83 643.5,-246.83 640,-256.83 647,-256.83"/>
<text xml:space="preserve" text-anchor="middle" x="677.62" y="-488.2" font-family="Times New Roman,serif" font-size="14.00">merge1#369</text>
</g>
<!-- 280 -->
<g id="node6" class="node">
<title>280</title>
<polygon fill="yellow" stroke="black" points="872.12,-1085.3 736.88,-1085.3 736.88,-961.8 872.12,-961.8 872.12,-1085.3"/>
<text xml:space="preserve" text-anchor="middle" x="804.5" y="-1068" font-family="Times New Roman,serif" font-size="14.00">self.month &lt;&gt; 1 and</text>
<text xml:space="preserve" text-anchor="middle" x="804.5" y="-1051.5" font-family="Times New Roman,serif" font-size="14.00">self.month &lt;&gt; 3 and</text>
<text xml:space="preserve" text-anchor="middle" x="804.5" y="-1035" font-family="Times New Roman,serif" font-size="14.00">self.month &lt;&gt; 5 and</text>
<text xml:space="preserve" text-anchor="middle" x="804.5" y="-1018.5" font-family="Times New Roman,serif" font-size="14.00">self.month &lt;&gt; 7 and</text>
<text xml:space="preserve" text-anchor="middle" x="804.5" y="-1002" font-family="Times New Roman,serif" font-size="14.00">self.month &lt;&gt; 8 and</text>
<text xml:space="preserve" text-anchor="middle" x="804.5" y="-985.5" font-family="Times New Roman,serif" font-size="14.00">self.month &lt;&gt; 10 and</text>
<text xml:space="preserve" text-anchor="middle" x="804.5" y="-969" font-family="Times New Roman,serif" font-size="14.00">self.month &lt;&gt; 12</text>
<text xml:space="preserve" text-anchor="middle" x="722.25" y="-1088.5" font-family="Times New Roman,serif" font-size="14.00">[280]</text>
</g>
<!-- 305 -->
<g id="node16" class="node">
<title>305</title>
<polygon fill="aquamarine" stroke="black" points="804.5,-909.3 797.3,-902.1 804.5,-894.9 811.7,-902.1 804.5,-909.3"/>
<text xml:space="preserve" text-anchor="middle" x="778.92" y="-912.5" font-family="Times New Roman,serif" font-size="14.00">&lt;305&gt;</text>
</g>
<!-- 280&#45;&gt;305 -->
<g id="edge18" class="edge">
<title>280&#45;&gt;305</title>
<path fill="none" stroke="black" d="M804.5,-961.43C804.5,-946.73 804.5,-932.16 804.5,-921.25"/>
<polygon fill="black" stroke="black" points="808,-921.52 804.5,-911.52 801,-921.52 808,-921.52"/>
<text xml:space="preserve" text-anchor="middle" x="845" y="-930.5" font-family="Times New Roman,serif" font-size="14.00">graphAnd#365</text>
</g>
<!-- 283 -->
<g id="node7" class="node">
<title>283</title>
<polygon fill="yellow" stroke="black" points="783.5,-822.9 671.5,-822.9 671.5,-748.9 783.5,-748.9 783.5,-822.9"/>
<text xml:space="preserve" text-anchor="middle" x="727.5" y="-805.6" font-family="Times New Roman,serif" font-size="14.00">self.month = 4 or</text>
<text xml:space="preserve" text-anchor="middle" x="727.5" y="-789.1" font-family="Times New Roman,serif" font-size="14.00">self.month = 6 or</text>
<text xml:space="preserve" text-anchor="middle" x="727.5" y="-772.6" font-family="Times New Roman,serif" font-size="14.00">self.month = 9 or</text>
<text xml:space="preserve" text-anchor="middle" x="727.5" y="-756.1" font-family="Times New Roman,serif" font-size="14.00">self.month = 11</text>
<text xml:space="preserve" text-anchor="middle" x="656.88" y="-826.1" font-family="Times New Roman,serif" font-size="14.00">[283]</text>
</g>
<!-- 286 -->
<g id="node8" class="node">
<title>286</title>
<polygon fill="yellow" stroke="black" points="775.62,-664 679.38,-664 679.38,-628 775.62,-628 775.62,-664"/>
<text xml:space="preserve" text-anchor="middle" x="727.5" y="-640.95" font-family="Times New Roman,serif" font-size="14.00">self.day &lt;= 30</text>
<text xml:space="preserve" text-anchor="middle" x="664.75" y="-667.2" font-family="Times New Roman,serif" font-size="14.00">[286]</text>
</g>
<!-- 283&#45;&gt;286 -->
<g id="edge11" class="edge">
<title>283&#45;&gt;286</title>
<path fill="none" stroke="black" d="M727.5,-748.67C727.5,-725.85 727.5,-696.82 727.5,-675.62"/>
<polygon fill="black" stroke="black" points="731,-675.67 727.5,-665.67 724,-675.67 731,-675.67"/>
<text xml:space="preserve" text-anchor="middle" x="768" y="-717.6" font-family="Times New Roman,serif" font-size="14.00">graphAnd#356</text>
</g>
<!-- 306 -->
<g id="node17" class="node">
<title>306</title>
<polygon fill="aquamarine" stroke="black" points="727.5,-311.6 720.3,-304.4 727.5,-297.2 734.7,-304.4 727.5,-311.6"/>
<text xml:space="preserve" text-anchor="middle" x="701.92" y="-314.8" font-family="Times New Roman,serif" font-size="14.00">&lt;306&gt;</text>
</g>
<!-- 286&#45;&gt;306 -->
<g id="edge15" class="edge">
<title>286&#45;&gt;306</title>
<path fill="none" stroke="black" d="M727.5,-627.82C727.5,-599.83 727.5,-542.67 727.5,-494.25 727.5,-494.25 727.5,-494.25 727.5,-370.3 727.5,-354.58 727.5,-336.71 727.5,-323.71"/>
<polygon fill="black" stroke="black" points="731,-323.73 727.5,-313.73 724,-323.73 731,-323.73"/>
<text xml:space="preserve" text-anchor="middle" x="761.62" y="-443.95" font-family="Times New Roman,serif" font-size="14.00">merge1#361</text>
</g>
<!-- 289 -->
<g id="node9" class="node">
<title>289</title>
<polygon fill="yellow" stroke="black" points="929.75,-822.9 801.25,-822.9 801.25,-748.9 929.75,-748.9 929.75,-822.9"/>
<text xml:space="preserve" text-anchor="middle" x="865.5" y="-805.6" font-family="Times New Roman,serif" font-size="14.00">self.month &lt;&gt; 4 and</text>
<text xml:space="preserve" text-anchor="middle" x="865.5" y="-789.1" font-family="Times New Roman,serif" font-size="14.00">self.month &lt;&gt; 6 and</text>
<text xml:space="preserve" text-anchor="middle" x="865.5" y="-772.6" font-family="Times New Roman,serif" font-size="14.00">self.month &lt;&gt; 9 and</text>
<text xml:space="preserve" text-anchor="middle" x="865.5" y="-756.1" font-family="Times New Roman,serif" font-size="14.00">self.month &lt;&gt; 11</text>
<text xml:space="preserve" text-anchor="middle" x="786.62" y="-826.1" font-family="Times New Roman,serif" font-size="14.00">[289]</text>
</g>
<!-- 303 -->
<g id="node14" class="node">
<title>303</title>
<polygon fill="aquamarine" stroke="black" points="865.5,-696.4 858.3,-689.2 865.5,-682 872.7,-689.2 865.5,-696.4"/>
<text xml:space="preserve" text-anchor="middle" x="839.92" y="-699.6" font-family="Times New Roman,serif" font-size="14.00">&lt;303&gt;</text>
</g>
<!-- 289&#45;&gt;303 -->
<g id="edge12" class="edge">
<title>289&#45;&gt;303</title>
<path fill="none" stroke="black" d="M865.5,-748.56C865.5,-734.76 865.5,-719.64 865.5,-708.25"/>
<polygon fill="black" stroke="black" points="869,-708.41 865.5,-698.41 862,-708.41 869,-708.41"/>
<text xml:space="preserve" text-anchor="middle" x="906" y="-717.6" font-family="Times New Roman,serif" font-size="14.00">graphAnd#357</text>
</g>
<!-- 292 -->
<g id="node10" class="node">
<title>292</title>
<polygon fill="yellow" stroke="black" points="920,-593.5 763,-593.5 763,-536 920,-536 920,-593.5"/>
<text xml:space="preserve" text-anchor="middle" x="841.5" y="-576.2" font-family="Times New Roman,serif" font-size="14.00">self.year.mod(400) = 0 or</text>
<text xml:space="preserve" text-anchor="middle" x="841.5" y="-559.7" font-family="Times New Roman,serif" font-size="14.00">self.year.mod(4) = 0 and</text>
<text xml:space="preserve" text-anchor="middle" x="841.5" y="-543.2" font-family="Times New Roman,serif" font-size="14.00">self.year.mod(100) &lt;&gt; 0</text>
<text xml:space="preserve" text-anchor="middle" x="748.38" y="-596.7" font-family="Times New Roman,serif" font-size="14.00">[292]</text>
</g>
<!-- 295 -->
<g id="node11" class="node">
<title>295</title>
<polygon fill="yellow" stroke="black" points="909.62,-467 813.38,-467 813.38,-431 909.62,-431 909.62,-467"/>
<text xml:space="preserve" text-anchor="middle" x="861.5" y="-443.95" font-family="Times New Roman,serif" font-size="14.00">self.day &lt;= 29</text>
<text xml:space="preserve" text-anchor="middle" x="798.75" y="-470.2" font-family="Times New Roman,serif" font-size="14.00">[295]</text>
</g>
<!-- 292&#45;&gt;295 -->
<g id="edge5" class="edge">
<title>292&#45;&gt;295</title>
<path fill="none" stroke="black" d="M846.44,-535.63C849.51,-518.21 853.43,-495.89 856.5,-478.41"/>
<polygon fill="black" stroke="black" points="859.93,-479.15 858.21,-468.69 853.03,-477.93 859.93,-479.15"/>
<text xml:space="preserve" text-anchor="middle" x="895.53" y="-488.2" font-family="Times New Roman,serif" font-size="14.00">graphAnd#348</text>
</g>
<!-- 304 -->
<g id="node15" class="node">
<title>304</title>
<polygon fill="aquamarine" stroke="black" points="861.5,-378.5 854.3,-371.3 861.5,-364.1 868.7,-371.3 861.5,-378.5"/>
<text xml:space="preserve" text-anchor="middle" x="835.92" y="-381.7" font-family="Times New Roman,serif" font-size="14.00">&lt;304&gt;</text>
</g>
<!-- 295&#45;&gt;304 -->
<g id="edge9" class="edge">
<title>295&#45;&gt;304</title>
<path fill="none" stroke="black" d="M861.5,-430.82C861.5,-418.78 861.5,-402.7 861.5,-390.45"/>
<polygon fill="black" stroke="black" points="865,-390.54 861.5,-380.54 858,-390.54 865,-390.54"/>
<text xml:space="preserve" text-anchor="middle" x="895.62" y="-399.7" font-family="Times New Roman,serif" font-size="14.00">merge1#353</text>
</g>
<!-- 298 -->
<g id="node12" class="node">
<title>298</title>
<polygon fill="yellow" stroke="black" points="1111.25,-610 937.75,-610 937.75,-519.5 1111.25,-519.5 1111.25,-610"/>
<text xml:space="preserve" text-anchor="middle" x="1024.5" y="-592.7" font-family="Times New Roman,serif" font-size="14.00">self.year.mod(400) &lt;&gt; 0 and</text>
<text xml:space="preserve" text-anchor="middle" x="1024.5" y="-576.2" font-family="Times New Roman,serif" font-size="14.00">self.year.mod(4) &lt;&gt; 0 and</text>
<text xml:space="preserve" text-anchor="middle" x="1024.5" y="-559.7" font-family="Times New Roman,serif" font-size="14.00">self.year.mod(100) &lt;&gt; 0 or</text>
<text xml:space="preserve" text-anchor="middle" x="1024.5" y="-543.2" font-family="Times New Roman,serif" font-size="14.00">self.year.mod(4) = 0 and</text>
<text xml:space="preserve" text-anchor="middle" x="1024.5" y="-526.7" font-family="Times New Roman,serif" font-size="14.00">self.year.mod(100) = 0</text>
<text xml:space="preserve" text-anchor="middle" x="923.12" y="-613.2" font-family="Times New Roman,serif" font-size="14.00">[298]</text>
</g>
<!-- 301 -->
<g id="node13" class="node">
<title>301</title>
<polygon fill="yellow" stroke="black" points="1057.62,-467 961.38,-467 961.38,-431 1057.62,-431 1057.62,-467"/>
<text xml:space="preserve" text-anchor="middle" x="1009.5" y="-443.95" font-family="Times New Roman,serif" font-size="14.00">self.day &lt;= 28</text>
<text xml:space="preserve" text-anchor="middle" x="946.75" y="-470.2" font-family="Times New Roman,serif" font-size="14.00">[301]</text>
</g>
<!-- 298&#45;&gt;301 -->
<g id="edge6" class="edge">
<title>298&#45;&gt;301</title>
<path fill="none" stroke="black" d="M1018.61,-519.12C1016.82,-505.49 1014.89,-490.87 1013.27,-478.61"/>
<polygon fill="black" stroke="black" points="1016.75,-478.21 1011.97,-468.75 1009.81,-479.12 1016.75,-478.21"/>
<text xml:space="preserve" text-anchor="middle" x="1056.6" y="-488.2" font-family="Times New Roman,serif" font-size="14.00">graphAnd#349</text>
</g>
<!-- 301&#45;&gt;304 -->
<g id="edge10" class="edge">
<title>301&#45;&gt;304</title>
<path fill="none" stroke="black" d="M987.21,-430.52C972.56,-419.65 952.64,-405.98 933.5,-396.5 915.22,-387.45 892.74,-380.5 877.82,-376.42"/>
<polygon fill="black" stroke="black" points="878.96,-373.1 868.4,-373.97 877.2,-379.87 878.96,-373.1"/>
<text xml:space="preserve" text-anchor="middle" x="995.98" y="-399.7" font-family="Times New Roman,serif" font-size="14.00">merge2#354</text>
</g>
<!-- 303&#45;&gt;292 -->
<g id="edge7" class="edge">
<title>303&#45;&gt;292</title>
<path fill="none" stroke="black" d="M864.41,-682.62C861.75,-669.09 854.79,-633.57 849.23,-605.21"/>
<polygon fill="black" stroke="black" points="852.68,-604.59 847.32,-595.45 845.81,-605.94 852.68,-604.59"/>
<text xml:space="preserve" text-anchor="middle" x="888.82" y="-640.95" font-family="Times New Roman,serif" font-size="14.00">split1#351</text>
</g>
<!-- 303&#45;&gt;298 -->
<g id="edge8" class="edge">
<title>303&#45;&gt;298</title>
<path fill="none" stroke="black" d="M870.75,-686.63C881.04,-683.39 904.37,-675.34 921.5,-664 941.16,-650.99 960.46,-634.03 976.96,-617.87"/>
<polygon fill="black" stroke="black" points="979.14,-620.64 983.74,-611.1 974.19,-615.69 979.14,-620.64"/>
<text xml:space="preserve" text-anchor="middle" x="992.67" y="-640.95" font-family="Times New Roman,serif" font-size="14.00">split2#352</text>
</g>
<!-- 304&#45;&gt;306 -->
<g id="edge16" class="edge">
<title>304&#45;&gt;306</title>
<path fill="none" stroke="black" d="M857.04,-368.14C839.16,-359.48 772.17,-327.03 742.18,-312.51"/>
<polygon fill="black" stroke="black" points="744,-309.5 733.47,-308.29 740.95,-315.8 744,-309.5"/>
<text xml:space="preserve" text-anchor="middle" x="844.57" y="-332.8" font-family="Times New Roman,serif" font-size="14.00">merge2#362</text>
</g>
<!-- 305&#45;&gt;283 -->
<g id="edge13" class="edge">
<title>305&#45;&gt;283</title>
<path fill="none" stroke="black" d="M799.18,-899.87C789.32,-897.32 768.15,-890.51 756.5,-876.9 746.11,-864.76 739.43,-848.83 735.14,-833.76"/>
<polygon fill="black" stroke="black" points="738.63,-833.3 732.79,-824.46 731.84,-835.02 738.63,-833.3"/>
<text xml:space="preserve" text-anchor="middle" x="785" y="-853.85" font-family="Times New Roman,serif" font-size="14.00">split1#359</text>
</g>
<!-- 305&#45;&gt;289 -->
<g id="edge14" class="edge">
<title>305&#45;&gt;289</title>
<path fill="none" stroke="black" d="M806.82,-896.76C812.44,-886.23 827.33,-858.35 840.71,-833.31"/>
<polygon fill="black" stroke="black" points="843.79,-834.98 845.41,-824.51 837.61,-831.68 843.79,-834.98"/>
<text xml:space="preserve" text-anchor="middle" x="863.5" y="-853.85" font-family="Times New Roman,serif" font-size="14.00">split2#360</text>
</g>
<!-- 306&#45;&gt;308 -->
<g id="edge22" class="edge">
<title>306&#45;&gt;308</title>
<path fill="none" stroke="black" d="M723.89,-300.61C712.34,-291.69 675.89,-263.52 656.28,-248.37"/>
<polygon fill="black" stroke="black" points="658.63,-245.77 648.58,-242.43 654.35,-251.31 658.63,-245.77"/>
<text xml:space="preserve" text-anchor="middle" x="729.62" y="-265.9" font-family="Times New Roman,serif" font-size="14.00">merge2#370</text>
</g>
<!-- 307 -->
<g id="node18" class="node">
<title>307</title>
<polygon fill="aquamarine" stroke="black" points="804.5,-1171.7 797.3,-1164.5 804.5,-1157.3 811.7,-1164.5 804.5,-1171.7"/>
<text xml:space="preserve" text-anchor="middle" x="778.92" y="-1174.9" font-family="Times New Roman,serif" font-size="14.00">&lt;307&gt;</text>
</g>
<!-- 307&#45;&gt;274 -->
<g id="edge19" class="edge">
<title>307&#45;&gt;274</title>
<path fill="none" stroke="black" d="M798.96,-1162.35C787.63,-1159.77 761.35,-1152.71 743.5,-1139.3 727.09,-1126.97 712.11,-1110.87 699.32,-1094.66"/>
<polygon fill="black" stroke="black" points="702.22,-1092.68 693.36,-1086.86 696.65,-1096.93 702.22,-1092.68"/>
<text xml:space="preserve" text-anchor="middle" x="772" y="-1116.25" font-family="Times New Roman,serif" font-size="14.00">split1#367</text>
</g>
<!-- 307&#45;&gt;280 -->
<g id="edge20" class="edge">
<title>307&#45;&gt;280</title>
<path fill="none" stroke="black" d="M804.5,-1156.8C804.5,-1145.47 804.5,-1121.35 804.5,-1096.78"/>
<polygon fill="black" stroke="black" points="808,-1097.01 804.5,-1087.01 801,-1097.01 808,-1097.01"/>
<text xml:space="preserve" text-anchor="middle" x="833" y="-1116.25" font-family="Times New Roman,serif" font-size="14.00">split2#368</text>
</g>
<!-- 313 -->
<g id="node21" class="node">
<title>313</title>
<polygon fill="yellow" stroke="black" points="655.12,-177.8 573.88,-177.8 573.88,-141.8 655.12,-141.8 655.12,-177.8"/>
<text xml:space="preserve" text-anchor="middle" x="614.5" y="-154.75" font-family="Times New Roman,serif" font-size="14.00">result = day</text>
<text xml:space="preserve" text-anchor="middle" x="559.25" y="-181" font-family="Times New Roman,serif" font-size="14.00">[313]</text>
</g>
<!-- 308&#45;&gt;313 -->
<g id="edge25" class="edge">
<title>308&#45;&gt;313</title>
<path fill="none" stroke="black" d="M641.6,-231.53C638.28,-222.87 631.21,-204.42 625.12,-188.53"/>
<polygon fill="black" stroke="black" points="628.51,-187.6 621.67,-179.51 621.98,-190.1 628.51,-187.6"/>
<text xml:space="preserve" text-anchor="middle" x="674.62" y="-199" font-family="Times New Roman,serif" font-size="14.00">graphAnd#378</text>
</g>
<!-- 310 -->
<g id="node20" class="node">
<title>310</title>
<polygon fill="yellow" stroke="black" points="1060.75,-2172.7 554.25,-2172.7 554.25,-1851.2 1060.75,-1851.2 1060.75,-2172.7"/>
<text xml:space="preserve" text-anchor="middle" x="807.5" y="-2155.4" font-family="Times New Roman,serif" font-size="14.00">self.year &gt;= 1 and</text>
<text xml:space="preserve" text-anchor="middle" x="807.5" y="-2138.9" font-family="Times New Roman,serif" font-size="14.00">self.month &gt;= 1 and</text>
<text xml:space="preserve" text-anchor="middle" x="807.5" y="-2122.4" font-family="Times New Roman,serif" font-size="14.00">self.month &lt;= 12 and</text>
<text xml:space="preserve" text-anchor="middle" x="807.5" y="-2105.9" font-family="Times New Roman,serif" font-size="14.00">self.day &gt;= 1 and</text>
<text xml:space="preserve" text-anchor="middle" x="807.5" y="-2089.4" font-family="Times New Roman,serif" font-size="14.00">IfExp ConditionNode:(self.month = 1 or</text>
<text xml:space="preserve" text-anchor="middle" x="807.5" y="-2072.9" font-family="Times New Roman,serif" font-size="14.00">self.month = 3 or</text>
<text xml:space="preserve" text-anchor="middle" x="807.5" y="-2056.4" font-family="Times New Roman,serif" font-size="14.00">self.month = 5 or</text>
<text xml:space="preserve" text-anchor="middle" x="807.5" y="-2039.9" font-family="Times New Roman,serif" font-size="14.00">self.month = 7 or</text>
<text xml:space="preserve" text-anchor="middle" x="807.5" y="-2023.4" font-family="Times New Roman,serif" font-size="14.00">self.month = 8 or</text>
<text xml:space="preserve" text-anchor="middle" x="807.5" y="-2006.9" font-family="Times New Roman,serif" font-size="14.00">self.month = 10 or</text>
<text xml:space="preserve" text-anchor="middle" x="807.5" y="-1990.4" font-family="Times New Roman,serif" font-size="14.00">self.month = 12</text>
<text xml:space="preserve" text-anchor="middle" x="807.5" y="-1973.9" font-family="Times New Roman,serif" font-size="14.00">) thenNode: (self.day &lt;= 31) elseNode: (IfExp ConditionNode:(self.month = 4 or</text>
<text xml:space="preserve" text-anchor="middle" x="807.5" y="-1957.4" font-family="Times New Roman,serif" font-size="14.00">self.month = 6 or</text>
<text xml:space="preserve" text-anchor="middle" x="807.5" y="-1940.9" font-family="Times New Roman,serif" font-size="14.00">self.month = 9 or</text>
<text xml:space="preserve" text-anchor="middle" x="807.5" y="-1924.4" font-family="Times New Roman,serif" font-size="14.00">self.month = 11</text>
<text xml:space="preserve" text-anchor="middle" x="807.5" y="-1907.9" font-family="Times New Roman,serif" font-size="14.00">) thenNode: (self.day &lt;= 30) elseNode: (IfExp ConditionNode:(self.year.mod(400) = 0 or</text>
<text xml:space="preserve" text-anchor="middle" x="807.5" y="-1891.4" font-family="Times New Roman,serif" font-size="14.00">self.year.mod(4) = 0 and</text>
<text xml:space="preserve" text-anchor="middle" x="807.5" y="-1874.9" font-family="Times New Roman,serif" font-size="14.00">self.year.mod(100) &lt;&gt; 0</text>
<text xml:space="preserve" text-anchor="middle" x="807.5" y="-1858.4" font-family="Times New Roman,serif" font-size="14.00">) thenNode: (self.day &lt;= 29) elseNode: (self.day &lt;= 28)))</text>
<text xml:space="preserve" text-anchor="middle" x="568.88" y="-2175.9" font-family="Times New Roman,serif" font-size="14.00">[310]</text>
</g>
<!-- 310&#45;&gt;307 -->
<g id="edge23" class="edge">
<title>310&#45;&gt;307</title>
<path fill="none" stroke="black" d="M806.93,-1850.93C806.17,-1635.31 804.87,-1268.6 804.56,-1183.51"/>
<polygon fill="black" stroke="black" points="808.06,-1183.66 804.53,-1173.67 801.06,-1183.68 808.06,-1183.66"/>
<text xml:space="preserve" text-anchor="middle" x="845.12" y="-1192.9" font-family="Times New Roman,serif" font-size="14.00">graphAnd#374</text>
</g>
<!-- 313&#45;&gt;319 -->
<g id="edge1" class="edge">
<title>313&#45;&gt;319</title>
<path fill="none" stroke="black" d="M599.98,-141.62C587.99,-127.45 571.29,-107.69 560.68,-95.14"/>
<polygon fill="black" stroke="black" points="563.55,-93.12 554.43,-87.74 558.21,-97.64 563.55,-93.12"/>
<text xml:space="preserve" text-anchor="middle" x="618.54" y="-110.5" font-family="Times New Roman,serif" font-size="14.00">merge1#384</text>
</g>
<!-- 315 -->
<g id="node22" class="node">
<title>315</title>
<ellipse fill="black" stroke="black" cx="544.5" cy="-3037.3" rx="7.2" ry="7.2"/>
<text xml:space="preserve" text-anchor="middle" x="529.42" y="-3047.7" font-family="Times New Roman,serif" font-size="14.00">[0]</text>
</g>
<!-- 316 -->
<g id="node23" class="node">
<title>316</title>
<polygon fill="yellow" stroke="black" points="600.5,-2993.1 488.5,-2993.1 488.5,-2919.1 600.5,-2919.1 600.5,-2993.1"/>
<text xml:space="preserve" text-anchor="middle" x="544.5" y="-2975.8" font-family="Times New Roman,serif" font-size="14.00">year &gt;= 1 and</text>
<text xml:space="preserve" text-anchor="middle" x="544.5" y="-2959.3" font-family="Times New Roman,serif" font-size="14.00">month &gt;= 1 and</text>
<text xml:space="preserve" text-anchor="middle" x="544.5" y="-2942.8" font-family="Times New Roman,serif" font-size="14.00">month &lt;= 12 and</text>
<text xml:space="preserve" text-anchor="middle" x="544.5" y="-2926.3" font-family="Times New Roman,serif" font-size="14.00">day &gt;= 1</text>
<text xml:space="preserve" text-anchor="middle" x="473.88" y="-2996.3" font-family="Times New Roman,serif" font-size="14.00">[316]</text>
</g>
<!-- 315&#45;&gt;316 -->
<g id="edge26" class="edge">
<title>315&#45;&gt;316</title>
<path fill="none" stroke="black" d="M544.5,-3029.82C544.5,-3023.97 544.5,-3014.78 544.5,-3004.87"/>
<polygon fill="black" stroke="black" points="548,-3005.04 544.5,-2995.04 541,-3005.04 548,-3005.04"/>
</g>
<!-- 318 -->
<g id="node24" class="node">
<title>318</title>
<polygon fill="aquamarine" stroke="black" points="544.5,-2866.6 537.3,-2859.4 544.5,-2852.2 551.7,-2859.4 544.5,-2866.6"/>
<text xml:space="preserve" text-anchor="middle" x="518.92" y="-2869.8" font-family="Times New Roman,serif" font-size="14.00">&lt;318&gt;</text>
</g>
<!-- 316&#45;&gt;318 -->
<g id="edge4" class="edge">
<title>316&#45;&gt;318</title>
<path fill="none" stroke="black" d="M544.5,-2918.76C544.5,-2904.96 544.5,-2889.84 544.5,-2878.45"/>
<polygon fill="black" stroke="black" points="548,-2878.61 544.5,-2868.61 541,-2878.61 548,-2878.61"/>
<text xml:space="preserve" text-anchor="middle" x="585" y="-2887.8" font-family="Times New Roman,serif" font-size="14.00">graphAnd#387</text>
</g>
<!-- 318&#45;&gt;268 -->
<g id="edge28" class="edge">
<title>318&#45;&gt;268</title>
<path fill="none" stroke="black" d="M542.96,-2853.43C540.74,-2846.26 536.18,-2831.55 529.79,-2810.94"/>
<polygon fill="black" stroke="black" points="533.15,-2809.96 526.85,-2801.45 526.47,-2812.04 533.15,-2809.96"/>
<text xml:space="preserve" text-anchor="middle" x="562.59" y="-2820.9" font-family="Times New Roman,serif" font-size="14.00">split2#383</text>
</g>
<!-- 318&#45;&gt;310 -->
<g id="edge27" class="edge">
<title>318&#45;&gt;310</title>
<path fill="none" stroke="black" d="M550.22,-2857.34C560.82,-2855.07 583.52,-2848.71 595.5,-2834.2 748.78,-2648.55 792.74,-2365.07 804.5,-2184.43"/>
<polygon fill="black" stroke="black" points="808,-2184.66 805.12,-2174.47 801.01,-2184.23 808,-2184.66"/>
<text xml:space="preserve" text-anchor="middle" x="624" y="-2820.9" font-family="Times New Roman,serif" font-size="14.00">split1#382</text>
</g>
<!-- 319&#45;&gt;272 -->
<g id="edge3" class="edge">
<title>319&#45;&gt;272</title>
<path fill="none" stroke="black" d="M550.5,-74.24C550.5,-64.87 550.5,-47.63 550.5,-33.7"/>
<polygon fill="black" stroke="black" points="554,-34.11 550.5,-24.11 547,-34.11 554,-34.11"/>
<text xml:space="preserve" text-anchor="middle" x="599.62" y="-43.6" font-family="Times New Roman,serif" font-size="14.00">graphOr_end#386</text>
</g>
</g>
</svg>
