<?xml version="1.0" encoding="UTF-8" standalone="no"?>
<!DOCTYPE svg PUBLIC "-//W3C//DTD SVG 1.1//EN"
 "http://www.w3.org/Graphics/SVG/1.1/DTD/svg11.dtd">
<!-- Generated by graphviz version 13.1.2 (20250808.2320)
 -->
<!-- Title: CLG Pages: 1 -->
<svg width="1069pt" height="3069pt"
 viewBox="0.00 0.00 1069.00 3069.00" xmlns="http://www.w3.org/2000/svg" xmlns:xlink="http://www.w3.org/1999/xlink">
<g id="graph0" class="graph" transform="scale(1 1) rotate(0) translate(4 3065)">
<title>CLG</title>
<polygon fill="white" stroke="none" points="-4,4 -4,-3065 1064.75,-3065 1064.75,4 -4,4"/>
<!-- 257 -->
<g id="node1" class="node">
<title>257</title>
<polygon fill="yellow" stroke="black" points="535.75,-2172.7 29.25,-2172.7 29.25,-1851.2 535.75,-1851.2 535.75,-2172.7"/>
<text xml:space="preserve" text-anchor="middle" x="282.5" y="-2155.4" font-family="Times New Roman,serif" font-size="14.00">self.year &gt;= 1 and</text>
<text xml:space="preserve" text-anchor="middle" x="282.5" y="-2138.9" font-family="Times New Roman,serif" font-size="14.00">self.month &gt;= 1 and</text>
<text xml:space="preserve" text-anchor="middle" x="282.5" y="-2122.4" font-family="Times New Roman,serif" font-size="14.00">self.month &lt;= 12 and</text>
<text xml:space="preserve" text-anchor="middle" x="282.5" y="-2105.9" font-family="Times New Roman,serif" font-size="14.00">self.day &gt;= 1 and</text>
<text xml:space="preserve" text-anchor="middle" x="282.5" y="-2089.4" font-family="Times New Roman,serif" font-size="14.00">IfExp ConditionNode:(self.month = 1 or</text>
<text xml:space="preserve" text-anchor="middle" x="282.5" y="-2072.9" font-family="Times New Roman,serif" font-size="14.00">self.month = 3 or</text>
<text xml:space="preserve" text-anchor="middle" x="282.5" y="-2056.4" font-family="Times New Roman,serif" font-size="14.00">self.month = 5 or</text>
<text xml:space="preserve" text-anchor="middle" x="282.5" y="-2039.9" font-family="Times New Roman,serif" font-size="14.00">self.month = 7 or</text>
<text xml:space="preserve" text-anchor="middle" x="282.5" y="-2023.4" font-family="Times New Roman,serif" font-size="14.00">self.month = 8 or</text>
<text xml:space="preserve" text-anchor="middle" x="282.5" y="-2006.9" font-family="Times New Roman,serif" font-size="14.00">self.month = 10 or</text>
<text xml:space="preserve" text-anchor="middle" x="282.5" y="-1990.4" font-family="Times New Roman,serif" font-size="14.00">self.month = 12</text>
<text xml:space="preserve" text-anchor="middle" x="282.5" y="-1973.9" font-family="Times New Roman,serif" font-size="14.00">) thenNode: (self.day &lt;= 31) elseNode: (IfExp ConditionNode:(self.month = 4 or</text>
<text xml:space="preserve" text-anchor="middle" x="282.5" y="-1957.4" font-family="Times New Roman,serif" font-size="14.00">self.month = 6 or</text>
<text xml:space="preserve" text-anchor="middle" x="282.5" y="-1940.9" font-family="Times New Roman,serif" font-size="14.00">self.month = 9 or</text>
<text xml:space="preserve" text-anchor="middle" x="282.5" y="-1924.4" font-family="Times New Roman,serif" font-size="14.00">self.month = 11</text>
<text xml:space="preserve" text-anchor="middle" x="282.5" y="-1907.9" font-family="Times New Roman,serif" font-size="14.00">) thenNode: (self.day &lt;= 30) elseNode: (IfExp ConditionNode:(self.year.mod(400) = 0 or</text>
<text xml:space="preserve" text-anchor="middle" x="282.5" y="-1891.4" font-family="Times New Roman,serif" font-size="14.00">self.year.mod(4) = 0 and</text>
<text xml:space="preserve" text-anchor="middle" x="282.5" y="-1874.9" font-family="Times New Roman,serif" font-size="14.00">self.year.mod(100) &lt;&gt; 0</text>
<text xml:space="preserve" text-anchor="middle" x="282.5" y="-1858.4" font-family="Times New Roman,serif" font-size="14.00">) thenNode: (self.day &lt;= 29) elseNode: (self.day &lt;= 28)))</text>
<text xml:space="preserve" text-anchor="middle" x="14.62" y="-2175.9" font-family="Times New Roman,serif" font-size="14.00">[257]</text>
</g>
<!-- 254 -->
<g id="node24" class="node">
<title>254</title>
<polygon fill="aquamarine" stroke="black" points="285.5,-1171.7 278.3,-1164.5 285.5,-1157.3 292.7,-1164.5 285.5,-1171.7"/>
<text xml:space="preserve" text-anchor="middle" x="259.93" y="-1174.9" font-family="Times New Roman,serif" font-size="14.00">&lt;254&gt;</text>
</g>
<!-- 257&#45;&gt;254 -->
<g id="edge23" class="edge">
<title>257&#45;&gt;254</title>
<path fill="none" stroke="black" d="M283.07,-1850.93C283.83,-1635.31 285.13,-1268.6 285.44,-1183.51"/>
<polygon fill="black" stroke="black" points="288.94,-1183.68 285.47,-1173.67 281.94,-1183.66 288.94,-1183.68"/>
<text xml:space="preserve" text-anchor="middle" x="325.88" y="-1192.9" font-family="Times New Roman,serif" font-size="14.00">graphAnd#310</text>
</g>
<!-- 260 -->
<g id="node2" class="node">
<title>260</title>
<polygon fill="yellow" stroke="black" points="705,-177.8 608,-177.8 608,-141.8 705,-141.8 705,-177.8"/>
<text xml:space="preserve" text-anchor="middle" x="656.5" y="-154.75" font-family="Times New Roman,serif" font-size="14.00">result = month</text>
<text xml:space="preserve" text-anchor="middle" x="593.38" y="-181" font-family="Times New Roman,serif" font-size="14.00">[260]</text>
</g>
<!-- 266 -->
<g id="node6" class="node">
<title>266</title>
<polygon fill="aquamarine" stroke="black" points="731.5,-89.3 724.3,-82.1 731.5,-74.9 738.7,-82.1 731.5,-89.3"/>
<text xml:space="preserve" text-anchor="middle" x="705.92" y="-92.5" font-family="Times New Roman,serif" font-size="14.00">&lt;266&gt;</text>
</g>
<!-- 260&#45;&gt;266 -->
<g id="edge1" class="edge">
<title>260&#45;&gt;266</title>
<path fill="none" stroke="black" d="M673.52,-141.62C687.98,-127.03 708.3,-106.52 720.65,-94.06"/>
<polygon fill="black" stroke="black" points="722.96,-96.7 727.51,-87.13 717.98,-91.77 722.96,-96.7"/>
<text xml:space="preserve" text-anchor="middle" x="741.37" y="-110.5" font-family="Times New Roman,serif" font-size="14.00">merge1#320</text>
</g>
<!-- 262 -->
<g id="node3" class="node">
<title>262</title>
<ellipse fill="black" stroke="black" cx="544.5" cy="-3037.3" rx="7.2" ry="7.2"/>
<text xml:space="preserve" text-anchor="middle" x="529.42" y="-3047.7" font-family="Times New Roman,serif" font-size="14.00">[0]</text>
</g>
<!-- 263 -->
<g id="node4" class="node">
<title>263</title>
<polygon fill="yellow" stroke="black" points="600.5,-2993.1 488.5,-2993.1 488.5,-2919.1 600.5,-2919.1 600.5,-2993.1"/>
<text xml:space="preserve" text-anchor="middle" x="544.5" y="-2975.8" font-family="Times New Roman,serif" font-size="14.00">year &gt;= 1 and</text>
<text xml:space="preserve" text-anchor="middle" x="544.5" y="-2959.3" font-family="Times New Roman,serif" font-size="14.00">month &gt;= 1 and</text>
<text xml:space="preserve" text-anchor="middle" x="544.5" y="-2942.8" font-family="Times New Roman,serif" font-size="14.00">month &lt;= 12 and</text>
<text xml:space="preserve" text-anchor="middle" x="544.5" y="-2926.3" font-family="Times New Roman,serif" font-size="14.00">day &gt;= 1</text>
<text xml:space="preserve" text-anchor="middle" x="473.88" y="-2996.3" font-family="Times New Roman,serif" font-size="14.00">[263]</text>
</g>
<!-- 262&#45;&gt;263 -->
<g id="edge26" class="edge">
<title>262&#45;&gt;263</title>
<path fill="none" stroke="black" d="M544.5,-3029.82C544.5,-3023.97 544.5,-3014.78 544.5,-3004.87"/>
<polygon fill="black" stroke="black" points="548,-3005.04 544.5,-2995.04 541,-3005.04 548,-3005.04"/>
</g>
<!-- 265 -->
<g id="node5" class="node">
<title>265</title>
<polygon fill="aquamarine" stroke="black" points="544.5,-2866.6 537.3,-2859.4 544.5,-2852.2 551.7,-2859.4 544.5,-2866.6"/>
<text xml:space="preserve" text-anchor="middle" x="518.92" y="-2869.8" font-family="Times New Roman,serif" font-size="14.00">&lt;265&gt;</text>
</g>
<!-- 263&#45;&gt;265 -->
<g id="edge4" class="edge">
<title>263&#45;&gt;265</title>
<path fill="none" stroke="black" d="M544.5,-2918.76C544.5,-2904.96 544.5,-2889.84 544.5,-2878.45"/>
<polygon fill="black" stroke="black" points="548,-2878.61 544.5,-2868.61 541,-2878.61 548,-2878.61"/>
<text xml:space="preserve" text-anchor="middle" x="585" y="-2887.8" font-family="Times New Roman,serif" font-size="14.00">graphAnd#323</text>
</g>
<!-- 265&#45;&gt;257 -->
<g id="edge27" class="edge">
<title>265&#45;&gt;257</title>
<path fill="none" stroke="black" d="M542.96,-2853.43C527.99,-2805.11 407.21,-2415.38 335.49,-2183.96"/>
<polygon fill="black" stroke="black" points="338.87,-2183.02 332.56,-2174.5 332.18,-2185.09 338.87,-2183.02"/>
<text xml:space="preserve" text-anchor="middle" x="562.59" y="-2820.9" font-family="Times New Roman,serif" font-size="14.00">split1#318</text>
</g>
<!-- 215 -->
<g id="node7" class="node">
<title>215</title>
<polygon fill="yellow" stroke="black" points="1060.75,-2799.7 554.25,-2799.7 554.25,-1224.2 1060.75,-1224.2 1060.75,-2799.7"/>
<text xml:space="preserve" text-anchor="middle" x="807.5" y="-2782.4" font-family="Times New Roman,serif" font-size="14.00">self.year &lt; 1 and</text>
<text xml:space="preserve" text-anchor="middle" x="807.5" y="-2765.9" font-family="Times New Roman,serif" font-size="14.00">self.month &gt;= 1 and</text>
<text xml:space="preserve" text-anchor="middle" x="807.5" y="-2749.4" font-family="Times New Roman,serif" font-size="14.00">self.month &lt;= 12 and</text>
<text xml:space="preserve" text-anchor="middle" x="807.5" y="-2732.9" font-family="Times New Roman,serif" font-size="14.00">self.day &gt;= 1 and</text>
<text xml:space="preserve" text-anchor="middle" x="807.5" y="-2716.4" font-family="Times New Roman,serif" font-size="14.00">IfExp ConditionNode:(self.month = 1 or</text>
<text xml:space="preserve" text-anchor="middle" x="807.5" y="-2699.9" font-family="Times New Roman,serif" font-size="14.00">self.month = 3 or</text>
<text xml:space="preserve" text-anchor="middle" x="807.5" y="-2683.4" font-family="Times New Roman,serif" font-size="14.00">self.month = 5 or</text>
<text xml:space="preserve" text-anchor="middle" x="807.5" y="-2666.9" font-family="Times New Roman,serif" font-size="14.00">self.month = 7 or</text>
<text xml:space="preserve" text-anchor="middle" x="807.5" y="-2650.4" font-family="Times New Roman,serif" font-size="14.00">self.month = 8 or</text>
<text xml:space="preserve" text-anchor="middle" x="807.5" y="-2633.9" font-family="Times New Roman,serif" font-size="14.00">self.month = 10 or</text>
<text xml:space="preserve" text-anchor="middle" x="807.5" y="-2617.4" font-family="Times New Roman,serif" font-size="14.00">self.month = 12</text>
<text xml:space="preserve" text-anchor="middle" x="807.5" y="-2600.9" font-family="Times New Roman,serif" font-size="14.00">) thenNode: (self.day &lt;= 31) elseNode: (IfExp ConditionNode:(self.month = 4 or</text>
<text xml:space="preserve" text-anchor="middle" x="807.5" y="-2584.4" font-family="Times New Roman,serif" font-size="14.00">self.month = 6 or</text>
<text xml:space="preserve" text-anchor="middle" x="807.5" y="-2567.9" font-family="Times New Roman,serif" font-size="14.00">self.month = 9 or</text>
<text xml:space="preserve" text-anchor="middle" x="807.5" y="-2551.4" font-family="Times New Roman,serif" font-size="14.00">self.month = 11</text>
<text xml:space="preserve" text-anchor="middle" x="807.5" y="-2534.9" font-family="Times New Roman,serif" font-size="14.00">) thenNode: (self.day &lt;= 30) elseNode: (IfExp ConditionNode:(self.year.mod(400) = 0 or</text>
<text xml:space="preserve" text-anchor="middle" x="807.5" y="-2518.4" font-family="Times New Roman,serif" font-size="14.00">self.year.mod(4) = 0 and</text>
<text xml:space="preserve" text-anchor="middle" x="807.5" y="-2501.9" font-family="Times New Roman,serif" font-size="14.00">self.year.mod(100) &lt;&gt; 0</text>
<text xml:space="preserve" text-anchor="middle" x="807.5" y="-2485.4" font-family="Times New Roman,serif" font-size="14.00">) thenNode: (self.day &lt;= 29) elseNode: (self.day &lt;= 28))) or</text>
<text xml:space="preserve" text-anchor="middle" x="807.5" y="-2468.9" font-family="Times New Roman,serif" font-size="14.00">self.year &gt;= 1 and</text>
<text xml:space="preserve" text-anchor="middle" x="807.5" y="-2452.4" font-family="Times New Roman,serif" font-size="14.00">self.month &lt; 1 and</text>
<text xml:space="preserve" text-anchor="middle" x="807.5" y="-2435.9" font-family="Times New Roman,serif" font-size="14.00">self.month &lt;= 12 and</text>
<text xml:space="preserve" text-anchor="middle" x="807.5" y="-2419.4" font-family="Times New Roman,serif" font-size="14.00">self.day &gt;= 1 and</text>
<text xml:space="preserve" text-anchor="middle" x="807.5" y="-2402.9" font-family="Times New Roman,serif" font-size="14.00">IfExp ConditionNode:(self.month = 1 or</text>
<text xml:space="preserve" text-anchor="middle" x="807.5" y="-2386.4" font-family="Times New Roman,serif" font-size="14.00">self.month = 3 or</text>
<text xml:space="preserve" text-anchor="middle" x="807.5" y="-2369.9" font-family="Times New Roman,serif" font-size="14.00">self.month = 5 or</text>
<text xml:space="preserve" text-anchor="middle" x="807.5" y="-2353.4" font-family="Times New Roman,serif" font-size="14.00">self.month = 7 or</text>
<text xml:space="preserve" text-anchor="middle" x="807.5" y="-2336.9" font-family="Times New Roman,serif" font-size="14.00">self.month = 8 or</text>
<text xml:space="preserve" text-anchor="middle" x="807.5" y="-2320.4" font-family="Times New Roman,serif" font-size="14.00">self.month = 10 or</text>
<text xml:space="preserve" text-anchor="middle" x="807.5" y="-2303.9" font-family="Times New Roman,serif" font-size="14.00">self.month = 12</text>
<text xml:space="preserve" text-anchor="middle" x="807.5" y="-2287.4" font-family="Times New Roman,serif" font-size="14.00">) thenNode: (self.day &lt;= 31) elseNode: (IfExp ConditionNode:(self.month = 4 or</text>
<text xml:space="preserve" text-anchor="middle" x="807.5" y="-2270.9" font-family="Times New Roman,serif" font-size="14.00">self.month = 6 or</text>
<text xml:space="preserve" text-anchor="middle" x="807.5" y="-2254.4" font-family="Times New Roman,serif" font-size="14.00">self.month = 9 or</text>
<text xml:space="preserve" text-anchor="middle" x="807.5" y="-2237.9" font-family="Times New Roman,serif" font-size="14.00">self.month = 11</text>
<text xml:space="preserve" text-anchor="middle" x="807.5" y="-2221.4" font-family="Times New Roman,serif" font-size="14.00">) thenNode: (self.day &lt;= 30) elseNode: (IfExp ConditionNode:(self.year.mod(400) = 0 or</text>
<text xml:space="preserve" text-anchor="middle" x="807.5" y="-2204.9" font-family="Times New Roman,serif" font-size="14.00">self.year.mod(4) = 0 and</text>
<text xml:space="preserve" text-anchor="middle" x="807.5" y="-2188.4" font-family="Times New Roman,serif" font-size="14.00">self.year.mod(100) &lt;&gt; 0</text>
<text xml:space="preserve" text-anchor="middle" x="807.5" y="-2171.9" font-family="Times New Roman,serif" font-size="14.00">) thenNode: (self.day &lt;= 29) elseNode: (self.day &lt;= 28))) or</text>
<text xml:space="preserve" text-anchor="middle" x="807.5" y="-2155.4" font-family="Times New Roman,serif" font-size="14.00">self.year &gt;= 1 and</text>
<text xml:space="preserve" text-anchor="middle" x="807.5" y="-2138.9" font-family="Times New Roman,serif" font-size="14.00">self.month &gt;= 1 and</text>
<text xml:space="preserve" text-anchor="middle" x="807.5" y="-2122.4" font-family="Times New Roman,serif" font-size="14.00">self.month &gt; 12 and</text>
<text xml:space="preserve" text-anchor="middle" x="807.5" y="-2105.9" font-family="Times New Roman,serif" font-size="14.00">self.day &gt;= 1 and</text>
<text xml:space="preserve" text-anchor="middle" x="807.5" y="-2089.4" font-family="Times New Roman,serif" font-size="14.00">IfExp ConditionNode:(self.month = 1 or</text>
<text xml:space="preserve" text-anchor="middle" x="807.5" y="-2072.9" font-family="Times New Roman,serif" font-size="14.00">self.month = 3 or</text>
<text xml:space="preserve" text-anchor="middle" x="807.5" y="-2056.4" font-family="Times New Roman,serif" font-size="14.00">self.month = 5 or</text>
<text xml:space="preserve" text-anchor="middle" x="807.5" y="-2039.9" font-family="Times New Roman,serif" font-size="14.00">self.month = 7 or</text>
<text xml:space="preserve" text-anchor="middle" x="807.5" y="-2023.4" font-family="Times New Roman,serif" font-size="14.00">self.month = 8 or</text>
<text xml:space="preserve" text-anchor="middle" x="807.5" y="-2006.9" font-family="Times New Roman,serif" font-size="14.00">self.month = 10 or</text>
<text xml:space="preserve" text-anchor="middle" x="807.5" y="-1990.4" font-family="Times New Roman,serif" font-size="14.00">self.month = 12</text>
<text xml:space="preserve" text-anchor="middle" x="807.5" y="-1973.9" font-family="Times New Roman,serif" font-size="14.00">) thenNode: (self.day &lt;= 31) elseNode: (IfExp ConditionNode:(self.month = 4 or</text>
<text xml:space="preserve" text-anchor="middle" x="807.5" y="-1957.4" font-family="Times New Roman,serif" font-size="14.00">self.month = 6 or</text>
<text xml:space="preserve" text-anchor="middle" x="807.5" y="-1940.9" font-family="Times New Roman,serif" font-size="14.00">self.month = 9 or</text>
<text xml:space="preserve" text-anchor="middle" x="807.5" y="-1924.4" font-family="Times New Roman,serif" font-size="14.00">self.month = 11</text>
<text xml:space="preserve" text-anchor="middle" x="807.5" y="-1907.9" font-family="Times New Roman,serif" font-size="14.00">) thenNode: (self.day &lt;= 30) elseNode: (IfExp ConditionNode:(self.year.mod(400) = 0 or</text>
<text xml:space="preserve" text-anchor="middle" x="807.5" y="-1891.4" font-family="Times New Roman,serif" font-size="14.00">self.year.mod(4) = 0 and</text>
<text xml:space="preserve" text-anchor="middle" x="807.5" y="-1874.9" font-family="Times New Roman,serif" font-size="14.00">self.year.mod(100) &lt;&gt; 0</text>
<text xml:space="preserve" text-anchor="middle" x="807.5" y="-1858.4" font-family="Times New Roman,serif" font-size="14.00">) thenNode: (self.day &lt;= 29) elseNode: (self.day &lt;= 28))) or</text>
<text xml:space="preserve" text-anchor="middle" x="807.5" y="-1841.9" font-family="Times New Roman,serif" font-size="14.00">self.year &gt;= 1 and</text>
<text xml:space="preserve" text-anchor="middle" x="807.5" y="-1825.4" font-family="Times New Roman,serif" font-size="14.00">self.month &gt;= 1 and</text>
<text xml:space="preserve" text-anchor="middle" x="807.5" y="-1808.9" font-family="Times New Roman,serif" font-size="14.00">self.month &lt;= 12 and</text>
<text xml:space="preserve" text-anchor="middle" x="807.5" y="-1792.4" font-family="Times New Roman,serif" font-size="14.00">self.day &lt; 1 and</text>
<text xml:space="preserve" text-anchor="middle" x="807.5" y="-1775.9" font-family="Times New Roman,serif" font-size="14.00">IfExp ConditionNode:(self.month = 1 or</text>
<text xml:space="preserve" text-anchor="middle" x="807.5" y="-1759.4" font-family="Times New Roman,serif" font-size="14.00">self.month = 3 or</text>
<text xml:space="preserve" text-anchor="middle" x="807.5" y="-1742.9" font-family="Times New Roman,serif" font-size="14.00">self.month = 5 or</text>
<text xml:space="preserve" text-anchor="middle" x="807.5" y="-1726.4" font-family="Times New Roman,serif" font-size="14.00">self.month = 7 or</text>
<text xml:space="preserve" text-anchor="middle" x="807.5" y="-1709.9" font-family="Times New Roman,serif" font-size="14.00">self.month = 8 or</text>
<text xml:space="preserve" text-anchor="middle" x="807.5" y="-1693.4" font-family="Times New Roman,serif" font-size="14.00">self.month = 10 or</text>
<text xml:space="preserve" text-anchor="middle" x="807.5" y="-1676.9" font-family="Times New Roman,serif" font-size="14.00">self.month = 12</text>
<text xml:space="preserve" text-anchor="middle" x="807.5" y="-1660.4" font-family="Times New Roman,serif" font-size="14.00">) thenNode: (self.day &lt;= 31) elseNode: (IfExp ConditionNode:(self.month = 4 or</text>
<text xml:space="preserve" text-anchor="middle" x="807.5" y="-1643.9" font-family="Times New Roman,serif" font-size="14.00">self.month = 6 or</text>
<text xml:space="preserve" text-anchor="middle" x="807.5" y="-1627.4" font-family="Times New Roman,serif" font-size="14.00">self.month = 9 or</text>
<text xml:space="preserve" text-anchor="middle" x="807.5" y="-1610.9" font-family="Times New Roman,serif" font-size="14.00">self.month = 11</text>
<text xml:space="preserve" text-anchor="middle" x="807.5" y="-1594.4" font-family="Times New Roman,serif" font-size="14.00">) thenNode: (self.day &lt;= 30) elseNode: (IfExp ConditionNode:(self.year.mod(400) = 0 or</text>
<text xml:space="preserve" text-anchor="middle" x="807.5" y="-1577.9" font-family="Times New Roman,serif" font-size="14.00">self.year.mod(4) = 0 and</text>
<text xml:space="preserve" text-anchor="middle" x="807.5" y="-1561.4" font-family="Times New Roman,serif" font-size="14.00">self.year.mod(100) &lt;&gt; 0</text>
<text xml:space="preserve" text-anchor="middle" x="807.5" y="-1544.9" font-family="Times New Roman,serif" font-size="14.00">) thenNode: (self.day &lt;= 29) elseNode: (self.day &lt;= 28))) or</text>
<text xml:space="preserve" text-anchor="middle" x="807.5" y="-1528.4" font-family="Times New Roman,serif" font-size="14.00">self.year &gt;= 1 and</text>
<text xml:space="preserve" text-anchor="middle" x="807.5" y="-1511.9" font-family="Times New Roman,serif" font-size="14.00">self.month &gt;= 1 and</text>
<text xml:space="preserve" text-anchor="middle" x="807.5" y="-1495.4" font-family="Times New Roman,serif" font-size="14.00">self.month &lt;= 12 and</text>
<text xml:space="preserve" text-anchor="middle" x="807.5" y="-1478.9" font-family="Times New Roman,serif" font-size="14.00">self.day &gt;= 1 and</text>
<text xml:space="preserve" text-anchor="middle" x="807.5" y="-1462.4" font-family="Times New Roman,serif" font-size="14.00">IfExp ConditionNode:(self.month = 1 or</text>
<text xml:space="preserve" text-anchor="middle" x="807.5" y="-1445.9" font-family="Times New Roman,serif" font-size="14.00">self.month = 3 or</text>
<text xml:space="preserve" text-anchor="middle" x="807.5" y="-1429.4" font-family="Times New Roman,serif" font-size="14.00">self.month = 5 or</text>
<text xml:space="preserve" text-anchor="middle" x="807.5" y="-1412.9" font-family="Times New Roman,serif" font-size="14.00">self.month = 7 or</text>
<text xml:space="preserve" text-anchor="middle" x="807.5" y="-1396.4" font-family="Times New Roman,serif" font-size="14.00">self.month = 8 or</text>
<text xml:space="preserve" text-anchor="middle" x="807.5" y="-1379.9" font-family="Times New Roman,serif" font-size="14.00">self.month = 10 or</text>
<text xml:space="preserve" text-anchor="middle" x="807.5" y="-1363.4" font-family="Times New Roman,serif" font-size="14.00">self.month = 12</text>
<text xml:space="preserve" text-anchor="middle" x="807.5" y="-1346.9" font-family="Times New Roman,serif" font-size="14.00">) thenNode: (self.day &gt; 31) elseNode: (IfExp ConditionNode:(self.month = 4 or</text>
<text xml:space="preserve" text-anchor="middle" x="807.5" y="-1330.4" font-family="Times New Roman,serif" font-size="14.00">self.month = 6 or</text>
<text xml:space="preserve" text-anchor="middle" x="807.5" y="-1313.9" font-family="Times New Roman,serif" font-size="14.00">self.month = 9 or</text>
<text xml:space="preserve" text-anchor="middle" x="807.5" y="-1297.4" font-family="Times New Roman,serif" font-size="14.00">self.month = 11</text>
<text xml:space="preserve" text-anchor="middle" x="807.5" y="-1280.9" font-family="Times New Roman,serif" font-size="14.00">) thenNode: (self.day &gt; 30) elseNode: (IfExp ConditionNode:(self.year.mod(400) = 0 or</text>
<text xml:space="preserve" text-anchor="middle" x="807.5" y="-1264.4" font-family="Times New Roman,serif" font-size="14.00">self.year.mod(4) = 0 and</text>
<text xml:space="preserve" text-anchor="middle" x="807.5" y="-1247.9" font-family="Times New Roman,serif" font-size="14.00">self.year.mod(100) &lt;&gt; 0</text>
<text xml:space="preserve" text-anchor="middle" x="807.5" y="-1231.4" font-family="Times New Roman,serif" font-size="14.00">) thenNode: (self.day &gt; 29) elseNode: (self.day &gt; 28)))</text>
<text xml:space="preserve" text-anchor="middle" x="539.62" y="-2802.9" font-family="Times New Roman,serif" font-size="14.00">[215]</text>
</g>
<!-- 265&#45;&gt;215 -->
<g id="edge28" class="edge">
<title>265&#45;&gt;215</title>
<path fill="none" stroke="black" d="M550.22,-2857.34C560.82,-2855.07 583.52,-2848.71 595.5,-2834.2 602.21,-2826.07 608.72,-2817.75 615.02,-2809.26"/>
<polygon fill="black" stroke="black" points="617.82,-2811.35 620.88,-2801.21 612.17,-2807.23 617.82,-2811.35"/>
<text xml:space="preserve" text-anchor="middle" x="624" y="-2820.9" font-family="Times New Roman,serif" font-size="14.00">split2#319</text>
</g>
<!-- 219 -->
<g id="node9" class="node">
<title>219</title>
<ellipse fill="black" stroke="black" cx="731.5" cy="-11.2" rx="7.2" ry="7.2"/>
<ellipse fill="none" stroke="black" cx="731.5" cy="-11.2" rx="11.2" ry="11.2"/>
<text xml:space="preserve" text-anchor="middle" x="710.17" y="-25.6" font-family="Times New Roman,serif" font-size="14.00">[&#45;1]</text>
</g>
<!-- 266&#45;&gt;219 -->
<g id="edge3" class="edge">
<title>266&#45;&gt;219</title>
<path fill="none" stroke="black" d="M731.5,-74.24C731.5,-64.87 731.5,-47.63 731.5,-33.7"/>
<polygon fill="black" stroke="black" points="735,-34.11 731.5,-24.11 728,-34.11 735,-34.11"/>
<text xml:space="preserve" text-anchor="middle" x="780.62" y="-43.6" font-family="Times New Roman,serif" font-size="14.00">graphOr_end#322</text>
</g>
<!-- 218 -->
<g id="node8" class="node">
<title>218</title>
<polygon fill="yellow" stroke="black" points="896.25,-1139.3 716.75,-1139.3 716.75,-1103.3 896.25,-1103.3 896.25,-1139.3"/>
<text xml:space="preserve" text-anchor="middle" x="806.5" y="-1116.25" font-family="Times New Roman,serif" font-size="14.00">Result = &#39;DateErrorException&#39;</text>
<text xml:space="preserve" text-anchor="middle" x="702.12" y="-1142.5" font-family="Times New Roman,serif" font-size="14.00">[218]</text>
</g>
<!-- 215&#45;&gt;218 -->
<g id="edge24" class="edge">
<title>215&#45;&gt;218</title>
<path fill="none" stroke="black" d="M806.61,-1223.81C806.58,-1193.53 806.55,-1168.66 806.53,-1151.11"/>
<polygon fill="black" stroke="black" points="810.03,-1151.17 806.52,-1141.17 803.03,-1151.18 810.03,-1151.17"/>
<text xml:space="preserve" text-anchor="middle" x="847.09" y="-1192.9" font-family="Times New Roman,serif" font-size="14.00">graphAnd#313</text>
</g>
<!-- 218&#45;&gt;266 -->
<g id="edge2" class="edge">
<title>218&#45;&gt;266</title>
<path fill="none" stroke="black" d="M806.5,-1102.82C806.5,-1070.16 806.5,-997.64 806.5,-936.55 806.5,-936.55 806.5,-936.55 806.5,-158.8 806.5,-132.96 797.92,-125.43 779.5,-107.3 770.42,-98.36 757.38,-92.08 747.18,-88.16"/>
<polygon fill="black" stroke="black" points="748.63,-84.95 738.04,-85.02 746.36,-91.57 748.63,-84.95"/>
<text xml:space="preserve" text-anchor="middle" x="840.62" y="-488.2" font-family="Times New Roman,serif" font-size="14.00">merge2#321</text>
</g>
<!-- 221 -->
<g id="node10" class="node">
<title>221</title>
<polygon fill="yellow" stroke="black" points="344.88,-1085.3 226.12,-1085.3 226.12,-961.8 344.88,-961.8 344.88,-1085.3"/>
<text xml:space="preserve" text-anchor="middle" x="285.5" y="-1068" font-family="Times New Roman,serif" font-size="14.00">self.month = 1 or</text>
<text xml:space="preserve" text-anchor="middle" x="285.5" y="-1051.5" font-family="Times New Roman,serif" font-size="14.00">self.month = 3 or</text>
<text xml:space="preserve" text-anchor="middle" x="285.5" y="-1035" font-family="Times New Roman,serif" font-size="14.00">self.month = 5 or</text>
<text xml:space="preserve" text-anchor="middle" x="285.5" y="-1018.5" font-family="Times New Roman,serif" font-size="14.00">self.month = 7 or</text>
<text xml:space="preserve" text-anchor="middle" x="285.5" y="-1002" font-family="Times New Roman,serif" font-size="14.00">self.month = 8 or</text>
<text xml:space="preserve" text-anchor="middle" x="285.5" y="-985.5" font-family="Times New Roman,serif" font-size="14.00">self.month = 10 or</text>
<text xml:space="preserve" text-anchor="middle" x="285.5" y="-969" font-family="Times New Roman,serif" font-size="14.00">self.month = 12</text>
<text xml:space="preserve" text-anchor="middle" x="211.5" y="-1088.5" font-family="Times New Roman,serif" font-size="14.00">[221]</text>
</g>
<!-- 224 -->
<g id="node11" class="node">
<title>224</title>
<polygon fill="yellow" stroke="black" points="346.62,-876.9 250.38,-876.9 250.38,-840.9 346.62,-840.9 346.62,-876.9"/>
<text xml:space="preserve" text-anchor="middle" x="298.5" y="-853.85" font-family="Times New Roman,serif" font-size="14.00">self.day &lt;= 31</text>
<text xml:space="preserve" text-anchor="middle" x="235.75" y="-880.1" font-family="Times New Roman,serif" font-size="14.00">[224]</text>
</g>
<!-- 221&#45;&gt;224 -->
<g id="edge17" class="edge">
<title>221&#45;&gt;224</title>
<path fill="none" stroke="black" d="M290.38,-961.52C292.38,-936.47 294.6,-908.68 296.21,-888.5"/>
<polygon fill="black" stroke="black" points="299.68,-889.05 296.99,-878.8 292.7,-888.49 299.68,-889.05"/>
<text xml:space="preserve" text-anchor="middle" x="333.61" y="-930.5" font-family="Times New Roman,serif" font-size="14.00">graphAnd#300</text>
</g>
<!-- 255 -->
<g id="node25" class="node">
<title>255</title>
<polygon fill="aquamarine" stroke="black" points="468.5,-244.7 461.3,-237.5 468.5,-230.3 475.7,-237.5 468.5,-244.7"/>
<text xml:space="preserve" text-anchor="middle" x="442.93" y="-247.9" font-family="Times New Roman,serif" font-size="14.00">&lt;255&gt;</text>
</g>
<!-- 224&#45;&gt;255 -->
<g id="edge21" class="edge">
<title>224&#45;&gt;255</title>
<path fill="none" stroke="black" d="M302.32,-840.62C307.6,-815.15 316.5,-765.98 316.5,-723.65 316.5,-723.65 316.5,-723.65 316.5,-303.4 316.5,-245.91 409.6,-238.66 450.08,-238.22"/>
<polygon fill="black" stroke="black" points="450.05,-241.72 460.06,-238.26 450.08,-234.72 450.05,-241.72"/>
<text xml:space="preserve" text-anchor="middle" x="350.62" y="-488.2" font-family="Times New Roman,serif" font-size="14.00">merge1#305</text>
</g>
<!-- 227 -->
<g id="node12" class="node">
<title>227</title>
<polygon fill="yellow" stroke="black" points="498.12,-1085.3 362.88,-1085.3 362.88,-961.8 498.12,-961.8 498.12,-1085.3"/>
<text xml:space="preserve" text-anchor="middle" x="430.5" y="-1068" font-family="Times New Roman,serif" font-size="14.00">self.month &lt;&gt; 1 and</text>
<text xml:space="preserve" text-anchor="middle" x="430.5" y="-1051.5" font-family="Times New Roman,serif" font-size="14.00">self.month &lt;&gt; 3 and</text>
<text xml:space="preserve" text-anchor="middle" x="430.5" y="-1035" font-family="Times New Roman,serif" font-size="14.00">self.month &lt;&gt; 5 and</text>
<text xml:space="preserve" text-anchor="middle" x="430.5" y="-1018.5" font-family="Times New Roman,serif" font-size="14.00">self.month &lt;&gt; 7 and</text>
<text xml:space="preserve" text-anchor="middle" x="430.5" y="-1002" font-family="Times New Roman,serif" font-size="14.00">self.month &lt;&gt; 8 and</text>
<text xml:space="preserve" text-anchor="middle" x="430.5" y="-985.5" font-family="Times New Roman,serif" font-size="14.00">self.month &lt;&gt; 10 and</text>
<text xml:space="preserve" text-anchor="middle" x="430.5" y="-969" font-family="Times New Roman,serif" font-size="14.00">self.month &lt;&gt; 12</text>
<text xml:space="preserve" text-anchor="middle" x="348.25" y="-1088.5" font-family="Times New Roman,serif" font-size="14.00">[227]</text>
</g>
<!-- 252 -->
<g id="node22" class="node">
<title>252</title>
<polygon fill="aquamarine" stroke="black" points="430.5,-909.3 423.3,-902.1 430.5,-894.9 437.7,-902.1 430.5,-909.3"/>
<text xml:space="preserve" text-anchor="middle" x="404.93" y="-912.5" font-family="Times New Roman,serif" font-size="14.00">&lt;252&gt;</text>
</g>
<!-- 227&#45;&gt;252 -->
<g id="edge18" class="edge">
<title>227&#45;&gt;252</title>
<path fill="none" stroke="black" d="M430.5,-961.43C430.5,-946.73 430.5,-932.16 430.5,-921.25"/>
<polygon fill="black" stroke="black" points="434,-921.52 430.5,-911.52 427,-921.52 434,-921.52"/>
<text xml:space="preserve" text-anchor="middle" x="471" y="-930.5" font-family="Times New Roman,serif" font-size="14.00">graphAnd#301</text>
</g>
<!-- 230 -->
<g id="node13" class="node">
<title>230</title>
<polygon fill="yellow" stroke="black" points="457.5,-822.9 345.5,-822.9 345.5,-748.9 457.5,-748.9 457.5,-822.9"/>
<text xml:space="preserve" text-anchor="middle" x="401.5" y="-805.6" font-family="Times New Roman,serif" font-size="14.00">self.month = 4 or</text>
<text xml:space="preserve" text-anchor="middle" x="401.5" y="-789.1" font-family="Times New Roman,serif" font-size="14.00">self.month = 6 or</text>
<text xml:space="preserve" text-anchor="middle" x="401.5" y="-772.6" font-family="Times New Roman,serif" font-size="14.00">self.month = 9 or</text>
<text xml:space="preserve" text-anchor="middle" x="401.5" y="-756.1" font-family="Times New Roman,serif" font-size="14.00">self.month = 11</text>
<text xml:space="preserve" text-anchor="middle" x="330.88" y="-826.1" font-family="Times New Roman,serif" font-size="14.00">[230]</text>
</g>
<!-- 233 -->
<g id="node14" class="node">
<title>233</title>
<polygon fill="yellow" stroke="black" points="449.62,-664 353.38,-664 353.38,-628 449.62,-628 449.62,-664"/>
<text xml:space="preserve" text-anchor="middle" x="401.5" y="-640.95" font-family="Times New Roman,serif" font-size="14.00">self.day &lt;= 30</text>
<text xml:space="preserve" text-anchor="middle" x="338.75" y="-667.2" font-family="Times New Roman,serif" font-size="14.00">[233]</text>
</g>
<!-- 230&#45;&gt;233 -->
<g id="edge11" class="edge">
<title>230&#45;&gt;233</title>
<path fill="none" stroke="black" d="M401.5,-748.67C401.5,-725.85 401.5,-696.82 401.5,-675.62"/>
<polygon fill="black" stroke="black" points="405,-675.67 401.5,-665.67 398,-675.67 405,-675.67"/>
<text xml:space="preserve" text-anchor="middle" x="442" y="-717.6" font-family="Times New Roman,serif" font-size="14.00">graphAnd#292</text>
</g>
<!-- 253 -->
<g id="node23" class="node">
<title>253</title>
<polygon fill="aquamarine" stroke="black" points="468.5,-311.6 461.3,-304.4 468.5,-297.2 475.7,-304.4 468.5,-311.6"/>
<text xml:space="preserve" text-anchor="middle" x="442.93" y="-314.8" font-family="Times New Roman,serif" font-size="14.00">&lt;253&gt;</text>
</g>
<!-- 233&#45;&gt;253 -->
<g id="edge15" class="edge">
<title>233&#45;&gt;253</title>
<path fill="none" stroke="black" d="M401.5,-627.82C401.5,-599.83 401.5,-542.67 401.5,-494.25 401.5,-494.25 401.5,-494.25 401.5,-370.3 401.5,-341.6 433.61,-321.53 453.37,-311.9"/>
<polygon fill="black" stroke="black" points="454.61,-315.18 462.3,-307.89 451.74,-308.8 454.61,-315.18"/>
<text xml:space="preserve" text-anchor="middle" x="435.62" y="-443.95" font-family="Times New Roman,serif" font-size="14.00">merge1#297</text>
</g>
<!-- 236 -->
<g id="node15" class="node">
<title>236</title>
<polygon fill="yellow" stroke="black" points="603.75,-822.9 475.25,-822.9 475.25,-748.9 603.75,-748.9 603.75,-822.9"/>
<text xml:space="preserve" text-anchor="middle" x="539.5" y="-805.6" font-family="Times New Roman,serif" font-size="14.00">self.month &lt;&gt; 4 and</text>
<text xml:space="preserve" text-anchor="middle" x="539.5" y="-789.1" font-family="Times New Roman,serif" font-size="14.00">self.month &lt;&gt; 6 and</text>
<text xml:space="preserve" text-anchor="middle" x="539.5" y="-772.6" font-family="Times New Roman,serif" font-size="14.00">self.month &lt;&gt; 9 and</text>
<text xml:space="preserve" text-anchor="middle" x="539.5" y="-756.1" font-family="Times New Roman,serif" font-size="14.00">self.month &lt;&gt; 11</text>
<text xml:space="preserve" text-anchor="middle" x="460.62" y="-826.1" font-family="Times New Roman,serif" font-size="14.00">[236]</text>
</g>
<!-- 250 -->
<g id="node20" class="node">
<title>250</title>
<polygon fill="aquamarine" stroke="black" points="539.5,-696.4 532.3,-689.2 539.5,-682 546.7,-689.2 539.5,-696.4"/>
<text xml:space="preserve" text-anchor="middle" x="513.92" y="-699.6" font-family="Times New Roman,serif" font-size="14.00">&lt;250&gt;</text>
</g>
<!-- 236&#45;&gt;250 -->
<g id="edge12" class="edge">
<title>236&#45;&gt;250</title>
<path fill="none" stroke="black" d="M539.5,-748.56C539.5,-734.76 539.5,-719.64 539.5,-708.25"/>
<polygon fill="black" stroke="black" points="543,-708.41 539.5,-698.41 536,-708.41 543,-708.41"/>
<text xml:space="preserve" text-anchor="middle" x="580" y="-717.6" font-family="Times New Roman,serif" font-size="14.00">graphAnd#293</text>
</g>
<!-- 239 -->
<g id="node16" class="node">
<title>239</title>
<polygon fill="yellow" stroke="black" points="587,-593.5 430,-593.5 430,-536 587,-536 587,-593.5"/>
<text xml:space="preserve" text-anchor="middle" x="508.5" y="-576.2" font-family="Times New Roman,serif" font-size="14.00">self.year.mod(400) = 0 or</text>
<text xml:space="preserve" text-anchor="middle" x="508.5" y="-559.7" font-family="Times New Roman,serif" font-size="14.00">self.year.mod(4) = 0 and</text>
<text xml:space="preserve" text-anchor="middle" x="508.5" y="-543.2" font-family="Times New Roman,serif" font-size="14.00">self.year.mod(100) &lt;&gt; 0</text>
<text xml:space="preserve" text-anchor="middle" x="415.38" y="-596.7" font-family="Times New Roman,serif" font-size="14.00">[239]</text>
</g>
<!-- 242 -->
<g id="node17" class="node">
<title>242</title>
<polygon fill="yellow" stroke="black" points="583.62,-467 487.38,-467 487.38,-431 583.62,-431 583.62,-467"/>
<text xml:space="preserve" text-anchor="middle" x="535.5" y="-443.95" font-family="Times New Roman,serif" font-size="14.00">self.day &lt;= 29</text>
<text xml:space="preserve" text-anchor="middle" x="472.75" y="-470.2" font-family="Times New Roman,serif" font-size="14.00">[242]</text>
</g>
<!-- 239&#45;&gt;242 -->
<g id="edge5" class="edge">
<title>239&#45;&gt;242</title>
<path fill="none" stroke="black" d="M515.17,-535.63C519.33,-518.12 524.66,-495.68 528.82,-478.16"/>
<polygon fill="black" stroke="black" points="532.16,-479.21 531.07,-468.67 525.35,-477.59 532.16,-479.21"/>
<text xml:space="preserve" text-anchor="middle" x="567.27" y="-488.2" font-family="Times New Roman,serif" font-size="14.00">graphAnd#284</text>
</g>
<!-- 251 -->
<g id="node21" class="node">
<title>251</title>
<polygon fill="aquamarine" stroke="black" points="535.5,-378.5 528.3,-371.3 535.5,-364.1 542.7,-371.3 535.5,-378.5"/>
<text xml:space="preserve" text-anchor="middle" x="509.93" y="-381.7" font-family="Times New Roman,serif" font-size="14.00">&lt;251&gt;</text>
</g>
<!-- 242&#45;&gt;251 -->
<g id="edge9" class="edge">
<title>242&#45;&gt;251</title>
<path fill="none" stroke="black" d="M535.5,-430.82C535.5,-418.78 535.5,-402.7 535.5,-390.45"/>
<polygon fill="black" stroke="black" points="539,-390.54 535.5,-380.54 532,-390.54 539,-390.54"/>
<text xml:space="preserve" text-anchor="middle" x="569.62" y="-399.7" font-family="Times New Roman,serif" font-size="14.00">merge1#289</text>
</g>
<!-- 245 -->
<g id="node18" class="node">
<title>245</title>
<polygon fill="yellow" stroke="black" points="778.25,-610 604.75,-610 604.75,-519.5 778.25,-519.5 778.25,-610"/>
<text xml:space="preserve" text-anchor="middle" x="691.5" y="-592.7" font-family="Times New Roman,serif" font-size="14.00">self.year.mod(400) &lt;&gt; 0 and</text>
<text xml:space="preserve" text-anchor="middle" x="691.5" y="-576.2" font-family="Times New Roman,serif" font-size="14.00">self.year.mod(4) &lt;&gt; 0 and</text>
<text xml:space="preserve" text-anchor="middle" x="691.5" y="-559.7" font-family="Times New Roman,serif" font-size="14.00">self.year.mod(100) &lt;&gt; 0 or</text>
<text xml:space="preserve" text-anchor="middle" x="691.5" y="-543.2" font-family="Times New Roman,serif" font-size="14.00">self.year.mod(4) = 0 and</text>
<text xml:space="preserve" text-anchor="middle" x="691.5" y="-526.7" font-family="Times New Roman,serif" font-size="14.00">self.year.mod(100) = 0</text>
<text xml:space="preserve" text-anchor="middle" x="590.12" y="-613.2" font-family="Times New Roman,serif" font-size="14.00">[245]</text>
</g>
<!-- 248 -->
<g id="node19" class="node">
<title>248</title>
<polygon fill="yellow" stroke="black" points="718.62,-467 622.38,-467 622.38,-431 718.62,-431 718.62,-467"/>
<text xml:space="preserve" text-anchor="middle" x="670.5" y="-443.95" font-family="Times New Roman,serif" font-size="14.00">self.day &lt;= 28</text>
<text xml:space="preserve" text-anchor="middle" x="607.75" y="-470.2" font-family="Times New Roman,serif" font-size="14.00">[248]</text>
</g>
<!-- 245&#45;&gt;248 -->
<g id="edge6" class="edge">
<title>245&#45;&gt;248</title>
<path fill="none" stroke="black" d="M683.26,-519.12C680.72,-505.35 677.99,-490.57 675.71,-478.23"/>
<polygon fill="black" stroke="black" points="679.22,-477.94 673.96,-468.74 672.33,-479.21 679.22,-477.94"/>
<text xml:space="preserve" text-anchor="middle" x="720.24" y="-488.2" font-family="Times New Roman,serif" font-size="14.00">graphAnd#285</text>
</g>
<!-- 248&#45;&gt;251 -->
<g id="edge10" class="edge">
<title>248&#45;&gt;251</title>
<path fill="none" stroke="black" d="M652.77,-430.54C640.8,-419.54 624.19,-405.72 607.5,-396.5 589.65,-386.63 567.08,-379.86 552.02,-376.04"/>
<polygon fill="black" stroke="black" points="553.02,-372.68 542.49,-373.78 551.41,-379.49 553.02,-372.68"/>
<text xml:space="preserve" text-anchor="middle" x="665.71" y="-399.7" font-family="Times New Roman,serif" font-size="14.00">merge2#290</text>
</g>
<!-- 250&#45;&gt;239 -->
<g id="edge7" class="edge">
<title>250&#45;&gt;239</title>
<path fill="none" stroke="black" d="M538.17,-682.94C534.79,-669.6 525.65,-633.5 518.4,-604.86"/>
<polygon fill="black" stroke="black" points="521.85,-604.22 516,-595.39 515.06,-605.94 521.85,-604.22"/>
<text xml:space="preserve" text-anchor="middle" x="561.3" y="-640.95" font-family="Times New Roman,serif" font-size="14.00">split1#287</text>
</g>
<!-- 250&#45;&gt;245 -->
<g id="edge8" class="edge">
<title>250&#45;&gt;245</title>
<path fill="none" stroke="black" d="M544.58,-686.62C554.54,-683.38 577.1,-675.32 593.5,-664 612.07,-651.18 630.18,-634.59 645.67,-618.7"/>
<polygon fill="black" stroke="black" points="648.1,-621.23 652.47,-611.58 643.03,-616.39 648.1,-621.23"/>
<text xml:space="preserve" text-anchor="middle" x="662.85" y="-640.95" font-family="Times New Roman,serif" font-size="14.00">split2#288</text>
</g>
<!-- 251&#45;&gt;253 -->
<g id="edge16" class="edge">
<title>251&#45;&gt;253</title>
<path fill="none" stroke="black" d="M532.27,-367.17C522.92,-358.11 495.5,-331.55 479.83,-316.37"/>
<polygon fill="black" stroke="black" points="482.56,-314.15 472.94,-309.7 477.69,-319.18 482.56,-314.15"/>
<text xml:space="preserve" text-anchor="middle" x="544.1" y="-332.8" font-family="Times New Roman,serif" font-size="14.00">merge2#298</text>
</g>
<!-- 252&#45;&gt;230 -->
<g id="edge13" class="edge">
<title>252&#45;&gt;230</title>
<path fill="none" stroke="black" d="M429.1,-895.59C426.27,-884.44 419.61,-858.2 413.54,-834.31"/>
<polygon fill="black" stroke="black" points="416.94,-833.49 411.09,-824.66 410.16,-835.22 416.94,-833.49"/>
<text xml:space="preserve" text-anchor="middle" x="452.74" y="-853.85" font-family="Times New Roman,serif" font-size="14.00">split1#295</text>
</g>
<!-- 252&#45;&gt;236 -->
<g id="edge14" class="edge">
<title>252&#45;&gt;236</title>
<path fill="none" stroke="black" d="M435.94,-899.88C446.56,-897.28 470.32,-890.28 485.5,-876.9 499.18,-864.84 510.42,-848.46 519.03,-832.97"/>
<polygon fill="black" stroke="black" points="522.03,-834.79 523.6,-824.32 515.84,-831.52 522.03,-834.79"/>
<text xml:space="preserve" text-anchor="middle" x="542.58" y="-853.85" font-family="Times New Roman,serif" font-size="14.00">split2#296</text>
</g>
<!-- 253&#45;&gt;255 -->
<g id="edge22" class="edge">
<title>253&#45;&gt;255</title>
<path fill="none" stroke="black" d="M468.5,-296.94C468.5,-287.61 468.5,-270.01 468.5,-256.55"/>
<polygon fill="black" stroke="black" points="472,-256.84 468.5,-246.84 465,-256.84 472,-256.84"/>
<text xml:space="preserve" text-anchor="middle" x="502.62" y="-265.9" font-family="Times New Roman,serif" font-size="14.00">merge2#306</text>
</g>
<!-- 254&#45;&gt;221 -->
<g id="edge19" class="edge">
<title>254&#45;&gt;221</title>
<path fill="none" stroke="black" d="M285.5,-1156.8C285.5,-1145.47 285.5,-1121.35 285.5,-1096.78"/>
<polygon fill="black" stroke="black" points="289,-1097.01 285.5,-1087.01 282,-1097.01 289,-1097.01"/>
<text xml:space="preserve" text-anchor="middle" x="314" y="-1116.25" font-family="Times New Roman,serif" font-size="14.00">split1#303</text>
</g>
<!-- 254&#45;&gt;227 -->
<g id="edge20" class="edge">
<title>254&#45;&gt;227</title>
<path fill="none" stroke="black" d="M291.07,-1162.39C302.46,-1159.89 328.84,-1152.96 346.5,-1139.3 362.4,-1127 376.69,-1110.92 388.77,-1094.7"/>
<polygon fill="black" stroke="black" points="391.37,-1097.09 394.37,-1086.93 385.69,-1093 391.37,-1097.09"/>
<text xml:space="preserve" text-anchor="middle" x="410.44" y="-1116.25" font-family="Times New Roman,serif" font-size="14.00">split2#304</text>
</g>
<!-- 255&#45;&gt;260 -->
<g id="edge25" class="edge">
<title>255&#45;&gt;260</title>
<path fill="none" stroke="black" d="M473.15,-234.63C490.81,-227.52 555.17,-201.6 602.67,-182.47"/>
<polygon fill="black" stroke="black" points="603.76,-185.81 611.73,-178.83 601.15,-179.32 603.76,-185.81"/>
<text xml:space="preserve" text-anchor="middle" x="608.64" y="-199" font-family="Times New Roman,serif" font-size="14.00">graphAnd#314</text>
</g>
</g>
</svg>
