<?xml version="1.0" encoding="UTF-8" standalone="no"?>
<!DOCTYPE svg PUBLIC "-//W3C//DTD SVG 1.1//EN"
 "http://www.w3.org/Graphics/SVG/1.1/DTD/svg11.dtd">
<!-- Generated by graphviz version 12.2.1 (20241206.2353)
 -->
<!-- Title: CLG Pages: 1 -->
<svg width="1218pt" height="1774pt"
 viewBox="0.00 0.00 1218.25 1774.20" xmlns="http://www.w3.org/2000/svg" xmlns:xlink="http://www.w3.org/1999/xlink">
<g id="graph0" class="graph" transform="scale(1 1) rotate(0) translate(4 1770.2)">
<title>CLG</title>
<polygon fill="white" stroke="none" points="-4,4 -4,-1770.2 1214.25,-1770.2 1214.25,4 -4,4"/>
<!-- 129 -->
<g id="node1" class="node">
<title>129</title>
<polygon fill="yellow" stroke="black" points="1210.25,-485.5 1027.75,-485.5 1027.75,-411.5 1210.25,-411.5 1210.25,-485.5"/>
<text text-anchor="middle" x="1119" y="-468.2" font-family="Times New Roman,serif" font-size="14.00">day &lt; 29 and</text>
<text text-anchor="middle" x="1119" y="-451.7" font-family="Times New Roman,serif" font-size="14.00">result.year = self.year and</text>
<text text-anchor="middle" x="1119" y="-435.2" font-family="Times New Roman,serif" font-size="14.00">result.month = self.month and</text>
<text text-anchor="middle" x="1119" y="-418.7" font-family="Times New Roman,serif" font-size="14.00">result.day = self.day + 1</text>
<text text-anchor="middle" x="1013.12" y="-488.7" font-family="Times New Roman,serif" font-size="14.00">[129]</text>
</g>
<!-- 132 -->
<g id="node3" class="node">
<title>132</title>
<polygon fill="aquamarine" stroke="black" points="907,-357.95 899.8,-350.75 907,-343.55 914.2,-350.75 907,-357.95"/>
<text text-anchor="middle" x="881.42" y="-361.15" font-family="Times New Roman,serif" font-size="14.00">&lt;132&gt;</text>
</g>
<!-- 129&#45;&gt;132 -->
<g id="edge6" class="edge">
<title>129&#45;&gt;132</title>
<path fill="none" stroke="black" d="M1051.12,-411.1C1028.47,-399.56 1002.92,-387.17 979,-377 959.95,-368.9 937.34,-361.29 922.6,-356.58"/>
<polygon fill="black" stroke="black" points="924.01,-353.35 913.42,-353.7 921.91,-360.03 924.01,-353.35"/>
<text text-anchor="middle" x="1048.38" y="-380.2" font-family="Times New Roman,serif" font-size="14.00">merge2#141</text>
</g>
<!-- 131 -->
<g id="node2" class="node">
<title>131</title>
<polygon fill="aquamarine" stroke="black" points="907,-670.7 899.8,-663.5 907,-656.3 914.2,-663.5 907,-670.7"/>
<text text-anchor="middle" x="881.42" y="-673.9" font-family="Times New Roman,serif" font-size="14.00">&lt;131&gt;</text>
</g>
<!-- 120 -->
<g id="node47" class="node">
<title>120</title>
<polygon fill="yellow" stroke="black" points="939.38,-574 874.62,-574 874.62,-538 939.38,-538 939.38,-574"/>
<text text-anchor="middle" x="907" y="-550.95" font-family="Times New Roman,serif" font-size="14.00">day = 29</text>
<text text-anchor="middle" x="860" y="-577.2" font-family="Times New Roman,serif" font-size="14.00">[120]</text>
</g>
<!-- 131&#45;&gt;120 -->
<g id="edge3" class="edge">
<title>131&#45;&gt;120</title>
<path fill="none" stroke="black" d="M907,-655.9C907,-642.16 907,-609.78 907,-585.79"/>
<polygon fill="black" stroke="black" points="910.5,-585.99 907,-575.99 903.5,-585.99 910.5,-585.99"/>
<text text-anchor="middle" x="935.5" y="-595.2" font-family="Times New Roman,serif" font-size="14.00">split1#138</text>
</g>
<!-- 126 -->
<g id="node49" class="node">
<title>126</title>
<polygon fill="yellow" stroke="black" points="1065.5,-574 992.5,-574 992.5,-538 1065.5,-538 1065.5,-574"/>
<text text-anchor="middle" x="1029" y="-550.95" font-family="Times New Roman,serif" font-size="14.00">day &lt;&gt; 29</text>
<text text-anchor="middle" x="977.88" y="-577.2" font-family="Times New Roman,serif" font-size="14.00">[126]</text>
</g>
<!-- 131&#45;&gt;126 -->
<g id="edge4" class="edge">
<title>131&#45;&gt;126</title>
<path fill="none" stroke="black" d="M910.52,-659.46C923.53,-648.2 969.77,-608.22 1000.48,-581.66"/>
<polygon fill="black" stroke="black" points="1002.66,-584.4 1007.94,-575.22 998.08,-579.11 1002.66,-584.4"/>
<text text-anchor="middle" x="1014.56" y="-595.2" font-family="Times New Roman,serif" font-size="14.00">split2#139</text>
</g>
<!-- 151 -->
<g id="node13" class="node">
<title>151</title>
<polygon fill="aquamarine" stroke="black" points="596,-290 588.8,-282.8 596,-275.6 603.2,-282.8 596,-290"/>
<text text-anchor="middle" x="570.42" y="-293.2" font-family="Times New Roman,serif" font-size="14.00">&lt;151&gt;</text>
</g>
<!-- 132&#45;&gt;151 -->
<g id="edge17" class="edge">
<title>132&#45;&gt;151</title>
<path fill="none" stroke="black" d="M901.34,-348.55C865.59,-340.97 670.9,-299.68 612.54,-287.31"/>
<polygon fill="black" stroke="black" points="613.51,-283.94 603,-285.29 612.06,-290.78 613.51,-283.94"/>
<text text-anchor="middle" x="813.48" y="-311.2" font-family="Times New Roman,serif" font-size="14.00">merge1#166</text>
</g>
<!-- 134 -->
<g id="node4" class="node">
<title>134</title>
<polygon fill="yellow" stroke="black" points="772.12,-810.5 621.88,-810.5 621.88,-753 772.12,-753 772.12,-810.5"/>
<text text-anchor="middle" x="697" y="-793.2" font-family="Times New Roman,serif" font-size="14.00">year.mod(400) &lt;&gt; 0 and</text>
<text text-anchor="middle" x="697" y="-776.7" font-family="Times New Roman,serif" font-size="14.00">year.mod(4) &lt;&gt; 0 or</text>
<text text-anchor="middle" x="697" y="-760.2" font-family="Times New Roman,serif" font-size="14.00">year.mod(100) = 0</text>
<text text-anchor="middle" x="607.25" y="-813.7" font-family="Times New Roman,serif" font-size="14.00">[134]</text>
</g>
<!-- 148 -->
<g id="node10" class="node">
<title>148</title>
<polygon fill="aquamarine" stroke="black" points="695,-670.7 687.8,-663.5 695,-656.3 702.2,-663.5 695,-670.7"/>
<text text-anchor="middle" x="706.17" y="-673.9" font-family="Times New Roman,serif" font-size="14.00">&lt;148&gt;</text>
</g>
<!-- 134&#45;&gt;148 -->
<g id="edge14" class="edge">
<title>134&#45;&gt;148</title>
<path fill="none" stroke="black" d="M696.52,-752.61C696.14,-730.76 695.63,-701.14 695.31,-682.42"/>
<polygon fill="black" stroke="black" points="698.81,-682.44 695.14,-672.5 691.81,-682.56 698.81,-682.44"/>
<text text-anchor="middle" x="736.68" y="-721.7" font-family="Times New Roman,serif" font-size="14.00">graphAnd#162</text>
</g>
<!-- 137 -->
<g id="node5" class="node">
<title>137</title>
<polygon fill="yellow" stroke="black" points="605.38,-574 540.62,-574 540.62,-538 605.38,-538 605.38,-574"/>
<text text-anchor="middle" x="573" y="-550.95" font-family="Times New Roman,serif" font-size="14.00">day = 28</text>
<text text-anchor="middle" x="526" y="-577.2" font-family="Times New Roman,serif" font-size="14.00">[137]</text>
</g>
<!-- 140 -->
<g id="node6" class="node">
<title>140</title>
<polygon fill="yellow" stroke="black" points="585.5,-477.25 380.5,-477.25 380.5,-419.75 585.5,-419.75 585.5,-477.25"/>
<text text-anchor="middle" x="483" y="-459.95" font-family="Times New Roman,serif" font-size="14.00">result.year = self.year and</text>
<text text-anchor="middle" x="483" y="-443.45" font-family="Times New Roman,serif" font-size="14.00">result.month = self.month + 1 and</text>
<text text-anchor="middle" x="483" y="-426.95" font-family="Times New Roman,serif" font-size="14.00">result.day = 1</text>
<text text-anchor="middle" x="365.88" y="-480.45" font-family="Times New Roman,serif" font-size="14.00">[140]</text>
</g>
<!-- 137&#45;&gt;140 -->
<g id="edge7" class="edge">
<title>137&#45;&gt;140</title>
<path fill="none" stroke="black" d="M558.14,-537.58C546.21,-523.6 529.05,-503.49 514.15,-486.01"/>
<polygon fill="black" stroke="black" points="517.18,-484.17 508.02,-478.83 511.85,-488.71 517.18,-484.17"/>
<text text-anchor="middle" x="581.82" y="-506.7" font-family="Times New Roman,serif" font-size="14.00">graphAnd#153</text>
</g>
<!-- 149 -->
<g id="node11" class="node">
<title>149</title>
<polygon fill="aquamarine" stroke="black" points="596,-357.95 588.8,-350.75 596,-343.55 603.2,-350.75 596,-357.95"/>
<text text-anchor="middle" x="570.42" y="-361.15" font-family="Times New Roman,serif" font-size="14.00">&lt;149&gt;</text>
</g>
<!-- 140&#45;&gt;149 -->
<g id="edge11" class="edge">
<title>140&#45;&gt;149</title>
<path fill="none" stroke="black" d="M506.39,-419.48C518.73,-405.71 534.62,-389.44 550.75,-377 560.16,-369.74 571.91,-363.25 581.08,-358.67"/>
<polygon fill="black" stroke="black" points="582.33,-361.94 589.86,-354.49 579.33,-355.62 582.33,-361.94"/>
<text text-anchor="middle" x="584.88" y="-380.2" font-family="Times New Roman,serif" font-size="14.00">merge1#158</text>
</g>
<!-- 143 -->
<g id="node7" class="node">
<title>143</title>
<polygon fill="yellow" stroke="black" points="731.5,-574 658.5,-574 658.5,-538 731.5,-538 731.5,-574"/>
<text text-anchor="middle" x="695" y="-550.95" font-family="Times New Roman,serif" font-size="14.00">day &lt;&gt; 28</text>
<text text-anchor="middle" x="643.88" y="-577.2" font-family="Times New Roman,serif" font-size="14.00">[143]</text>
</g>
<!-- 146 -->
<g id="node8" class="node">
<title>146</title>
<polygon fill="yellow" stroke="black" points="786.25,-485.5 603.75,-485.5 603.75,-411.5 786.25,-411.5 786.25,-485.5"/>
<text text-anchor="middle" x="695" y="-468.2" font-family="Times New Roman,serif" font-size="14.00">day &lt; 28 and</text>
<text text-anchor="middle" x="695" y="-451.7" font-family="Times New Roman,serif" font-size="14.00">result.year = self.year and</text>
<text text-anchor="middle" x="695" y="-435.2" font-family="Times New Roman,serif" font-size="14.00">result.month = self.month and</text>
<text text-anchor="middle" x="695" y="-418.7" font-family="Times New Roman,serif" font-size="14.00">result.day = self.day + 1</text>
<text text-anchor="middle" x="589.12" y="-488.7" font-family="Times New Roman,serif" font-size="14.00">[146]</text>
</g>
<!-- 143&#45;&gt;146 -->
<g id="edge8" class="edge">
<title>143&#45;&gt;146</title>
<path fill="none" stroke="black" d="M695,-537.58C695,-526.5 695,-511.56 695,-497.14"/>
<polygon fill="black" stroke="black" points="698.5,-497.28 695,-487.28 691.5,-497.28 698.5,-497.28"/>
<text text-anchor="middle" x="735.5" y="-506.7" font-family="Times New Roman,serif" font-size="14.00">graphAnd#154</text>
</g>
<!-- 146&#45;&gt;149 -->
<g id="edge12" class="edge">
<title>146&#45;&gt;149</title>
<path fill="none" stroke="black" d="M657.29,-411.03C639.53,-393.85 619.62,-374.6 607.45,-362.82"/>
<polygon fill="black" stroke="black" points="609.97,-360.39 600.35,-355.95 605.1,-365.42 609.97,-360.39"/>
<text text-anchor="middle" x="670.76" y="-380.2" font-family="Times New Roman,serif" font-size="14.00">merge2#159</text>
</g>
<!-- 147 -->
<g id="node9" class="node">
<title>147</title>
<ellipse fill="black" stroke="black" cx="124" cy="-11.2" rx="7.2" ry="7.2"/>
<ellipse fill="none" stroke="black" cx="124" cy="-11.2" rx="11.2" ry="11.2"/>
<text text-anchor="middle" x="102.68" y="-25.6" font-family="Times New Roman,serif" font-size="14.00">[&#45;1]</text>
</g>
<!-- 148&#45;&gt;137 -->
<g id="edge9" class="edge">
<title>148&#45;&gt;137</title>
<path fill="none" stroke="black" d="M693.53,-657.4C691.07,-649.74 685.45,-635.22 676,-626.5 661.07,-612.73 651.28,-619.17 634,-608.5 621.78,-600.95 609.45,-591.08 599.11,-581.99"/>
<polygon fill="black" stroke="black" points="601.48,-579.42 591.71,-575.31 596.79,-584.61 601.48,-579.42"/>
<text text-anchor="middle" x="662.5" y="-595.2" font-family="Times New Roman,serif" font-size="14.00">split1#156</text>
</g>
<!-- 148&#45;&gt;143 -->
<g id="edge10" class="edge">
<title>148&#45;&gt;143</title>
<path fill="none" stroke="black" d="M695,-655.9C695,-642.16 695,-609.78 695,-585.79"/>
<polygon fill="black" stroke="black" points="698.5,-585.99 695,-575.99 691.5,-585.99 698.5,-585.99"/>
<text text-anchor="middle" x="723.5" y="-595.2" font-family="Times New Roman,serif" font-size="14.00">split2#157</text>
</g>
<!-- 149&#45;&gt;151 -->
<g id="edge18" class="edge">
<title>149&#45;&gt;151</title>
<path fill="none" stroke="black" d="M596,-343.19C596,-333.61 596,-315.44 596,-301.72"/>
<polygon fill="black" stroke="black" points="599.5,-301.85 596,-291.85 592.5,-301.85 599.5,-301.85"/>
<text text-anchor="middle" x="630.12" y="-311.2" font-family="Times New Roman,serif" font-size="14.00">merge2#167</text>
</g>
<!-- 150 -->
<g id="node12" class="node">
<title>150</title>
<polygon fill="aquamarine" stroke="black" points="697,-907.2 689.8,-900 697,-892.8 704.2,-900 697,-907.2"/>
<text text-anchor="middle" x="671.42" y="-910.4" font-family="Times New Roman,serif" font-size="14.00">&lt;150&gt;</text>
</g>
<!-- 150&#45;&gt;134 -->
<g id="edge16" class="edge">
<title>150&#45;&gt;134</title>
<path fill="none" stroke="black" d="M697,-892.42C697,-879.09 697,-847.99 697,-822.3"/>
<polygon fill="black" stroke="black" points="700.5,-822.48 697,-812.48 693.5,-822.48 700.5,-822.48"/>
<text text-anchor="middle" x="725.5" y="-831.7" font-family="Times New Roman,serif" font-size="14.00">split2#165</text>
</g>
<!-- 117 -->
<g id="node46" class="node">
<title>117</title>
<polygon fill="yellow" stroke="black" points="936.88,-810.5 803.12,-810.5 803.12,-753 936.88,-753 936.88,-810.5"/>
<text text-anchor="middle" x="870" y="-793.2" font-family="Times New Roman,serif" font-size="14.00">year.mod(400) = 0 or</text>
<text text-anchor="middle" x="870" y="-776.7" font-family="Times New Roman,serif" font-size="14.00">year.mod(4) = 0 and</text>
<text text-anchor="middle" x="870" y="-760.2" font-family="Times New Roman,serif" font-size="14.00">year.mod(100) &lt;&gt; 0</text>
<text text-anchor="middle" x="788.5" y="-813.7" font-family="Times New Roman,serif" font-size="14.00">[117]</text>
</g>
<!-- 150&#45;&gt;117 -->
<g id="edge15" class="edge">
<title>150&#45;&gt;117</title>
<path fill="none" stroke="black" d="M700.94,-896.35C716.49,-885.9 774.95,-846.62 818.8,-817.15"/>
<polygon fill="black" stroke="black" points="820.59,-820.17 826.94,-811.68 816.69,-814.36 820.59,-820.17"/>
<text text-anchor="middle" x="827.5" y="-831.7" font-family="Times New Roman,serif" font-size="14.00">split1#164</text>
</g>
<!-- 153 -->
<g id="node15" class="node">
<title>153</title>
<polygon fill="aquamarine" stroke="black" points="352,-223.1 344.8,-215.9 352,-208.7 359.2,-215.9 352,-223.1"/>
<text text-anchor="middle" x="326.43" y="-226.3" font-family="Times New Roman,serif" font-size="14.00">&lt;153&gt;</text>
</g>
<!-- 151&#45;&gt;153 -->
<g id="edge24" class="edge">
<title>151&#45;&gt;153</title>
<path fill="none" stroke="black" d="M590.9,-280.44C561.88,-272.72 417.01,-234.19 368.13,-221.19"/>
<polygon fill="black" stroke="black" points="369.09,-217.83 358.53,-218.64 367.3,-224.59 369.09,-217.83"/>
<text text-anchor="middle" x="537.16" y="-244.3" font-family="Times New Roman,serif" font-size="14.00">merge2#175</text>
</g>
<!-- 152 -->
<g id="node14" class="node">
<title>152</title>
<polygon fill="aquamarine" stroke="black" points="567,-1160.2 559.8,-1153 567,-1145.8 574.2,-1153 567,-1160.2"/>
<text text-anchor="middle" x="541.42" y="-1163.4" font-family="Times New Roman,serif" font-size="14.00">&lt;152&gt;</text>
</g>
<!-- 97 -->
<g id="node38" class="node">
<title>97</title>
<polygon fill="yellow" stroke="black" points="611.38,-1063.5 522.62,-1063.5 522.62,-989.5 611.38,-989.5 611.38,-1063.5"/>
<text text-anchor="middle" x="567" y="-1046.2" font-family="Times New Roman,serif" font-size="14.00">month = 4 or</text>
<text text-anchor="middle" x="567" y="-1029.7" font-family="Times New Roman,serif" font-size="14.00">month = 6 or</text>
<text text-anchor="middle" x="567" y="-1013.2" font-family="Times New Roman,serif" font-size="14.00">month = 9 or</text>
<text text-anchor="middle" x="567" y="-996.7" font-family="Times New Roman,serif" font-size="14.00">month = 11</text>
<text text-anchor="middle" x="511.38" y="-1066.7" font-family="Times New Roman,serif" font-size="14.00">[97]</text>
</g>
<!-- 152&#45;&gt;97 -->
<g id="edge21" class="edge">
<title>152&#45;&gt;97</title>
<path fill="none" stroke="black" d="M567,-1145.31C567,-1132.15 567,-1101.89 567,-1075.34"/>
<polygon fill="black" stroke="black" points="570.5,-1075.37 567,-1065.37 563.5,-1075.37 570.5,-1075.37"/>
<text text-anchor="middle" x="595.5" y="-1084.7" font-family="Times New Roman,serif" font-size="14.00">split1#172</text>
</g>
<!-- 114 -->
<g id="node45" class="node">
<title>114</title>
<polygon fill="yellow" stroke="black" points="741.62,-1063.5 636.38,-1063.5 636.38,-989.5 741.62,-989.5 741.62,-1063.5"/>
<text text-anchor="middle" x="689" y="-1046.2" font-family="Times New Roman,serif" font-size="14.00">month &lt;&gt; 4 and</text>
<text text-anchor="middle" x="689" y="-1029.7" font-family="Times New Roman,serif" font-size="14.00">month &lt;&gt; 6 and</text>
<text text-anchor="middle" x="689" y="-1013.2" font-family="Times New Roman,serif" font-size="14.00">month &lt;&gt; 9 and</text>
<text text-anchor="middle" x="689" y="-996.7" font-family="Times New Roman,serif" font-size="14.00">month &lt;&gt; 11</text>
<text text-anchor="middle" x="621.75" y="-1066.7" font-family="Times New Roman,serif" font-size="14.00">[114]</text>
</g>
<!-- 152&#45;&gt;114 -->
<g id="edge22" class="edge">
<title>152&#45;&gt;114</title>
<path fill="none" stroke="black" d="M570.73,-1149C580.5,-1141.06 607.51,-1118.72 628,-1098 635.94,-1089.97 644.08,-1081.09 651.72,-1072.4"/>
<polygon fill="black" stroke="black" points="654.26,-1074.82 658.18,-1064.97 648.98,-1070.22 654.26,-1074.82"/>
<text text-anchor="middle" x="670.55" y="-1084.7" font-family="Times New Roman,serif" font-size="14.00">split2#173</text>
</g>
<!-- 155 -->
<g id="node17" class="node">
<title>155</title>
<polygon fill="aquamarine" stroke="black" points="233,-156.2 225.8,-149 233,-141.8 240.2,-149 233,-156.2"/>
<text text-anchor="middle" x="207.43" y="-159.4" font-family="Times New Roman,serif" font-size="14.00">&lt;155&gt;</text>
</g>
<!-- 153&#45;&gt;155 -->
<g id="edge30" class="edge">
<title>153&#45;&gt;155</title>
<path fill="none" stroke="black" d="M347.76,-212.59C331.75,-203.86 274.44,-172.6 247.37,-157.83"/>
<polygon fill="black" stroke="black" points="249.09,-154.79 238.64,-153.07 245.74,-160.94 249.09,-154.79"/>
<text text-anchor="middle" x="340.78" y="-177.4" font-family="Times New Roman,serif" font-size="14.00">merge2#183</text>
</g>
<!-- 154 -->
<g id="node16" class="node">
<title>154</title>
<polygon fill="aquamarine" stroke="black" points="448,-1416.4 440.8,-1409.2 448,-1402 455.2,-1409.2 448,-1416.4"/>
<text text-anchor="middle" x="422.43" y="-1419.6" font-family="Times New Roman,serif" font-size="14.00">&lt;154&gt;</text>
</g>
<!-- 77 -->
<g id="node30" class="node">
<title>77</title>
<polygon fill="yellow" stroke="black" points="492.38,-1349.5 403.62,-1349.5 403.62,-1242.5 492.38,-1242.5 492.38,-1349.5"/>
<text text-anchor="middle" x="448" y="-1332.2" font-family="Times New Roman,serif" font-size="14.00">month = 1 or</text>
<text text-anchor="middle" x="448" y="-1315.7" font-family="Times New Roman,serif" font-size="14.00">month = 3 or</text>
<text text-anchor="middle" x="448" y="-1299.2" font-family="Times New Roman,serif" font-size="14.00">month = 5 or</text>
<text text-anchor="middle" x="448" y="-1282.7" font-family="Times New Roman,serif" font-size="14.00">month = 7 or</text>
<text text-anchor="middle" x="448" y="-1266.2" font-family="Times New Roman,serif" font-size="14.00">month = 8 or</text>
<text text-anchor="middle" x="448" y="-1249.7" font-family="Times New Roman,serif" font-size="14.00">month = 10</text>
<text text-anchor="middle" x="392.38" y="-1352.7" font-family="Times New Roman,serif" font-size="14.00">[77]</text>
</g>
<!-- 154&#45;&gt;77 -->
<g id="edge27" class="edge">
<title>154&#45;&gt;77</title>
<path fill="none" stroke="black" d="M448,-1401.58C448,-1393.18 448,-1377.81 448,-1361.39"/>
<polygon fill="black" stroke="black" points="451.5,-1361.44 448,-1351.44 444.5,-1361.44 451.5,-1361.44"/>
<text text-anchor="middle" x="476.5" y="-1370.7" font-family="Times New Roman,serif" font-size="14.00">split1#180</text>
</g>
<!-- 94 -->
<g id="node37" class="node">
<title>94</title>
<polygon fill="yellow" stroke="black" points="617.62,-1349.5 512.38,-1349.5 512.38,-1242.5 617.62,-1242.5 617.62,-1349.5"/>
<text text-anchor="middle" x="565" y="-1332.2" font-family="Times New Roman,serif" font-size="14.00">month &lt;&gt; 1 and</text>
<text text-anchor="middle" x="565" y="-1315.7" font-family="Times New Roman,serif" font-size="14.00">month &lt;&gt; 3 and</text>
<text text-anchor="middle" x="565" y="-1299.2" font-family="Times New Roman,serif" font-size="14.00">month &lt;&gt; 5 and</text>
<text text-anchor="middle" x="565" y="-1282.7" font-family="Times New Roman,serif" font-size="14.00">month &lt;&gt; 7 and</text>
<text text-anchor="middle" x="565" y="-1266.2" font-family="Times New Roman,serif" font-size="14.00">month &lt;&gt; 8 and</text>
<text text-anchor="middle" x="565" y="-1249.7" font-family="Times New Roman,serif" font-size="14.00">month &lt;&gt; 10</text>
<text text-anchor="middle" x="501.12" y="-1352.7" font-family="Times New Roman,serif" font-size="14.00">[94]</text>
</g>
<!-- 154&#45;&gt;94 -->
<g id="edge28" class="edge">
<title>154&#45;&gt;94</title>
<path fill="none" stroke="black" d="M453.64,-1407.17C465.16,-1404.83 491.75,-1398.18 509,-1384 517.53,-1376.98 525.2,-1368.32 531.92,-1359.2"/>
<polygon fill="black" stroke="black" points="534.63,-1361.43 537.46,-1351.22 528.88,-1357.43 534.63,-1361.43"/>
<text text-anchor="middle" x="553.37" y="-1370.7" font-family="Times New Roman,serif" font-size="14.00">split2#181</text>
</g>
<!-- 157 -->
<g id="node19" class="node">
<title>157</title>
<polygon fill="aquamarine" stroke="black" points="124,-89.3 116.8,-82.1 124,-74.9 131.2,-82.1 124,-89.3"/>
<text text-anchor="middle" x="98.43" y="-92.5" font-family="Times New Roman,serif" font-size="14.00">&lt;157&gt;</text>
</g>
<!-- 155&#45;&gt;157 -->
<g id="edge36" class="edge">
<title>155&#45;&gt;157</title>
<path fill="none" stroke="black" d="M228.86,-145.54C213.95,-136.66 162.6,-106.08 137.72,-91.27"/>
<polygon fill="black" stroke="black" points="139.83,-88.45 129.44,-86.34 136.25,-94.46 139.83,-88.45"/>
<text text-anchor="middle" x="225.59" y="-110.5" font-family="Times New Roman,serif" font-size="14.00">merge2#191</text>
</g>
<!-- 156 -->
<g id="node18" class="node">
<title>156</title>
<polygon fill="aquamarine" stroke="black" points="394,-1571.8 386.8,-1564.6 394,-1557.4 401.2,-1564.6 394,-1571.8"/>
<text text-anchor="middle" x="368.43" y="-1575" font-family="Times New Roman,serif" font-size="14.00">&lt;156&gt;</text>
</g>
<!-- 57 -->
<g id="node22" class="node">
<title>57</title>
<polygon fill="yellow" stroke="black" points="383.25,-1504.9 302.75,-1504.9 302.75,-1468.9 383.25,-1468.9 383.25,-1504.9"/>
<text text-anchor="middle" x="343" y="-1481.85" font-family="Times New Roman,serif" font-size="14.00">month = 12</text>
<text text-anchor="middle" x="291.5" y="-1508.1" font-family="Times New Roman,serif" font-size="14.00">[57]</text>
</g>
<!-- 156&#45;&gt;57 -->
<g id="edge33" class="edge">
<title>156&#45;&gt;57</title>
<path fill="none" stroke="black" d="M389.48,-1561.43C382.42,-1557.81 368.78,-1549.91 361,-1539.4 355.94,-1532.57 352.22,-1524.2 349.52,-1516.21"/>
<polygon fill="black" stroke="black" points="352.94,-1515.44 346.77,-1506.82 346.22,-1517.4 352.94,-1515.44"/>
<text text-anchor="middle" x="389.5" y="-1526.1" font-family="Times New Roman,serif" font-size="14.00">split1#188</text>
</g>
<!-- 74 -->
<g id="node29" class="node">
<title>74</title>
<polygon fill="yellow" stroke="black" points="491.38,-1504.9 402.62,-1504.9 402.62,-1468.9 491.38,-1468.9 491.38,-1504.9"/>
<text text-anchor="middle" x="447" y="-1481.85" font-family="Times New Roman,serif" font-size="14.00">month &lt;&gt; 12</text>
<text text-anchor="middle" x="391.38" y="-1508.1" font-family="Times New Roman,serif" font-size="14.00">[74]</text>
</g>
<!-- 156&#45;&gt;74 -->
<g id="edge34" class="edge">
<title>156&#45;&gt;74</title>
<path fill="none" stroke="black" d="M397.73,-1560.42C402.73,-1556.03 411.72,-1547.71 418,-1539.4 423.59,-1532 428.85,-1523.4 433.31,-1515.38"/>
<polygon fill="black" stroke="black" points="436.35,-1517.12 437.97,-1506.65 430.18,-1513.82 436.35,-1517.12"/>
<text text-anchor="middle" x="457.29" y="-1526.1" font-family="Times New Roman,serif" font-size="14.00">split2#189</text>
</g>
<!-- 157&#45;&gt;147 -->
<g id="edge37" class="edge">
<title>157&#45;&gt;147</title>
<path fill="none" stroke="black" d="M124,-74.24C124,-64.87 124,-47.63 124,-33.7"/>
<polygon fill="black" stroke="black" points="127.5,-34.11 124,-24.11 120.5,-34.11 127.5,-34.11"/>
<text text-anchor="middle" x="173.12" y="-43.6" font-family="Times New Roman,serif" font-size="14.00">graphOr_end#192</text>
</g>
<!-- 158 -->
<g id="node20" class="node">
<title>158</title>
<ellipse fill="black" stroke="black" cx="394" cy="-1742.5" rx="7.2" ry="7.2"/>
<text text-anchor="middle" x="378.93" y="-1752.9" font-family="Times New Roman,serif" font-size="14.00">[0]</text>
</g>
<!-- 159 -->
<g id="node21" class="node">
<title>159</title>
<polygon fill="yellow" stroke="black" points="450,-1698.3 338,-1698.3 338,-1624.3 450,-1624.3 450,-1698.3"/>
<text text-anchor="middle" x="394" y="-1681" font-family="Times New Roman,serif" font-size="14.00">year &gt;= 1 and</text>
<text text-anchor="middle" x="394" y="-1664.5" font-family="Times New Roman,serif" font-size="14.00">month &gt;= 1 and</text>
<text text-anchor="middle" x="394" y="-1648" font-family="Times New Roman,serif" font-size="14.00">month &lt;= 12 and</text>
<text text-anchor="middle" x="394" y="-1631.5" font-family="Times New Roman,serif" font-size="14.00">day &gt;= 1</text>
<text text-anchor="middle" x="323.38" y="-1701.5" font-family="Times New Roman,serif" font-size="14.00">[159]</text>
</g>
<!-- 158&#45;&gt;159 -->
<g id="edge38" class="edge">
<title>158&#45;&gt;159</title>
<path fill="none" stroke="black" d="M394,-1735.02C394,-1729.17 394,-1719.98 394,-1710.07"/>
<polygon fill="black" stroke="black" points="397.5,-1710.24 394,-1700.24 390.5,-1710.24 397.5,-1710.24"/>
</g>
<!-- 159&#45;&gt;156 -->
<g id="edge39" class="edge">
<title>159&#45;&gt;156</title>
<path fill="none" stroke="black" d="M394,-1623.96C394,-1610.16 394,-1595.04 394,-1583.65"/>
<polygon fill="black" stroke="black" points="397.5,-1583.81 394,-1573.81 390.5,-1583.81 397.5,-1583.81"/>
<text text-anchor="middle" x="434.5" y="-1593" font-family="Times New Roman,serif" font-size="14.00">graphAnd#195</text>
</g>
<!-- 71 -->
<g id="node27" class="node">
<title>71</title>
<polygon fill="aquamarine" stroke="black" points="313,-1416.4 305.8,-1409.2 313,-1402 320.2,-1409.2 313,-1416.4"/>
<text text-anchor="middle" x="290.8" y="-1419.6" font-family="Times New Roman,serif" font-size="14.00">&lt;71&gt;</text>
</g>
<!-- 57&#45;&gt;71 -->
<g id="edge31" class="edge">
<title>57&#45;&gt;71</title>
<path fill="none" stroke="black" d="M336.19,-1468.72C331.01,-1455.64 323.94,-1437.79 318.97,-1425.26"/>
<polygon fill="black" stroke="black" points="322.35,-1424.29 315.41,-1416.28 315.84,-1426.86 322.35,-1424.29"/>
<text text-anchor="middle" x="369.4" y="-1437.6" font-family="Times New Roman,serif" font-size="14.00">graphAnd#185</text>
</g>
<!-- 60 -->
<g id="node23" class="node">
<title>60</title>
<polygon fill="yellow" stroke="black" points="193.38,-1314 128.62,-1314 128.62,-1278 193.38,-1278 193.38,-1314"/>
<text text-anchor="middle" x="161" y="-1290.95" font-family="Times New Roman,serif" font-size="14.00">day = 31</text>
<text text-anchor="middle" x="117.38" y="-1317.2" font-family="Times New Roman,serif" font-size="14.00">[60]</text>
</g>
<!-- 63 -->
<g id="node24" class="node">
<title>63</title>
<polygon fill="yellow" stroke="black" points="203.5,-1181.75 22.5,-1181.75 22.5,-1124.25 203.5,-1124.25 203.5,-1181.75"/>
<text text-anchor="middle" x="113" y="-1164.45" font-family="Times New Roman,serif" font-size="14.00">result.year = self.year + 1 and</text>
<text text-anchor="middle" x="113" y="-1147.95" font-family="Times New Roman,serif" font-size="14.00">result.month = 1 and</text>
<text text-anchor="middle" x="113" y="-1131.45" font-family="Times New Roman,serif" font-size="14.00">result.day = 1</text>
<text text-anchor="middle" x="11.25" y="-1184.95" font-family="Times New Roman,serif" font-size="14.00">[63]</text>
</g>
<!-- 60&#45;&gt;63 -->
<g id="edge40" class="edge">
<title>60&#45;&gt;63</title>
<path fill="none" stroke="black" d="M155.11,-1277.71C147.95,-1256.68 135.65,-1220.53 126.18,-1192.73"/>
<polygon fill="black" stroke="black" points="129.61,-1191.92 123.07,-1183.59 122.98,-1194.18 129.61,-1191.92"/>
<text text-anchor="middle" x="174.12" y="-1211.2" font-family="Times New Roman,serif" font-size="14.00">graphAnd#75</text>
</g>
<!-- 72 -->
<g id="node28" class="node">
<title>72</title>
<polygon fill="aquamarine" stroke="black" points="113,-1033.7 105.8,-1026.5 113,-1019.3 120.2,-1026.5 113,-1033.7"/>
<text text-anchor="middle" x="90.8" y="-1036.9" font-family="Times New Roman,serif" font-size="14.00">&lt;72&gt;</text>
</g>
<!-- 63&#45;&gt;72 -->
<g id="edge44" class="edge">
<title>63&#45;&gt;72</title>
<path fill="none" stroke="black" d="M113,-1124.06C113,-1100.07 113,-1066.18 113,-1045.59"/>
<polygon fill="black" stroke="black" points="116.5,-1045.73 113,-1035.73 109.5,-1045.73 116.5,-1045.73"/>
<text text-anchor="middle" x="143.75" y="-1084.7" font-family="Times New Roman,serif" font-size="14.00">merge1#80</text>
</g>
<!-- 66 -->
<g id="node25" class="node">
<title>66</title>
<polygon fill="yellow" stroke="black" points="349.5,-1314 276.5,-1314 276.5,-1278 349.5,-1278 349.5,-1314"/>
<text text-anchor="middle" x="313" y="-1290.95" font-family="Times New Roman,serif" font-size="14.00">day &lt;&gt; 31</text>
<text text-anchor="middle" x="265.25" y="-1317.2" font-family="Times New Roman,serif" font-size="14.00">[66]</text>
</g>
<!-- 69 -->
<g id="node26" class="node">
<title>69</title>
<polygon fill="yellow" stroke="black" points="404.25,-1190 221.75,-1190 221.75,-1116 404.25,-1116 404.25,-1190"/>
<text text-anchor="middle" x="313" y="-1172.7" font-family="Times New Roman,serif" font-size="14.00">day &lt; 31 and</text>
<text text-anchor="middle" x="313" y="-1156.2" font-family="Times New Roman,serif" font-size="14.00">result.year = self.year and</text>
<text text-anchor="middle" x="313" y="-1139.7" font-family="Times New Roman,serif" font-size="14.00">result.month = self.month and</text>
<text text-anchor="middle" x="313" y="-1123.2" font-family="Times New Roman,serif" font-size="14.00">result.day = self.day + 1</text>
<text text-anchor="middle" x="210.5" y="-1193.2" font-family="Times New Roman,serif" font-size="14.00">[69]</text>
</g>
<!-- 66&#45;&gt;69 -->
<g id="edge41" class="edge">
<title>66&#45;&gt;69</title>
<path fill="none" stroke="black" d="M313,-1277.71C313,-1258.88 313,-1227.93 313,-1201.7"/>
<polygon fill="black" stroke="black" points="316.5,-1201.94 313,-1191.94 309.5,-1201.94 316.5,-1201.94"/>
<text text-anchor="middle" x="350.12" y="-1211.2" font-family="Times New Roman,serif" font-size="14.00">graphAnd#76</text>
</g>
<!-- 69&#45;&gt;72 -->
<g id="edge45" class="edge">
<title>69&#45;&gt;72</title>
<path fill="none" stroke="black" d="M254.61,-1115.65C210.22,-1088.02 152.51,-1052.09 126.62,-1035.98"/>
<polygon fill="black" stroke="black" points="128.75,-1033.18 118.41,-1030.87 125.05,-1039.12 128.75,-1033.18"/>
<text text-anchor="middle" x="255.72" y="-1084.7" font-family="Times New Roman,serif" font-size="14.00">merge2#81</text>
</g>
<!-- 71&#45;&gt;60 -->
<g id="edge42" class="edge">
<title>71&#45;&gt;60</title>
<path fill="none" stroke="black" d="M307.95,-1406.54C298.05,-1403.16 275.56,-1394.85 258.75,-1384 231.44,-1366.36 204.12,-1341.26 185.34,-1322.55"/>
<polygon fill="black" stroke="black" points="187.92,-1320.19 178.4,-1315.53 182.94,-1325.11 187.92,-1320.19"/>
<text text-anchor="middle" x="283.88" y="-1370.7" font-family="Times New Roman,serif" font-size="14.00">split1#78</text>
</g>
<!-- 71&#45;&gt;66 -->
<g id="edge43" class="edge">
<title>71&#45;&gt;66</title>
<path fill="none" stroke="black" d="M313,-1401.58C313,-1386.97 313,-1351.23 313,-1325.6"/>
<polygon fill="black" stroke="black" points="316.5,-1325.82 313,-1315.82 309.5,-1325.82 316.5,-1325.82"/>
<text text-anchor="middle" x="338.12" y="-1370.7" font-family="Times New Roman,serif" font-size="14.00">split2#79</text>
</g>
<!-- 72&#45;&gt;157 -->
<g id="edge35" class="edge">
<title>72&#45;&gt;157</title>
<path fill="none" stroke="black" d="M112.57,-1019.29C111.36,-1001.1 108,-946.43 108,-901 108,-901 108,-901 108,-148 108,-130.59 113.49,-111.3 118.04,-98.31"/>
<polygon fill="black" stroke="black" points="121.25,-99.73 121.5,-89.14 114.7,-97.26 121.25,-99.73"/>
<text text-anchor="middle" x="142.12" y="-443.45" font-family="Times New Roman,serif" font-size="14.00">merge1#190</text>
</g>
<!-- 74&#45;&gt;154 -->
<g id="edge32" class="edge">
<title>74&#45;&gt;154</title>
<path fill="none" stroke="black" d="M447.23,-1468.72C447.39,-1456.68 447.6,-1440.6 447.76,-1428.35"/>
<polygon fill="black" stroke="black" points="451.26,-1428.48 447.89,-1418.44 444.26,-1428.39 451.26,-1428.48"/>
<text text-anchor="middle" x="488.18" y="-1437.6" font-family="Times New Roman,serif" font-size="14.00">graphAnd#186</text>
</g>
<!-- 91 -->
<g id="node35" class="node">
<title>91</title>
<polygon fill="aquamarine" stroke="black" points="448,-1160.2 440.8,-1153 448,-1145.8 455.2,-1153 448,-1160.2"/>
<text text-anchor="middle" x="425.8" y="-1163.4" font-family="Times New Roman,serif" font-size="14.00">&lt;91&gt;</text>
</g>
<!-- 77&#45;&gt;91 -->
<g id="edge25" class="edge">
<title>77&#45;&gt;91</title>
<path fill="none" stroke="black" d="M448,-1242.1C448,-1217.44 448,-1189.71 448,-1172.06"/>
<polygon fill="black" stroke="black" points="451.5,-1172.27 448,-1162.27 444.5,-1172.27 451.5,-1172.27"/>
<text text-anchor="middle" x="488.5" y="-1211.2" font-family="Times New Roman,serif" font-size="14.00">graphAnd#177</text>
</g>
<!-- 80 -->
<g id="node31" class="node">
<title>80</title>
<polygon fill="yellow" stroke="black" points="332.38,-1044.5 267.62,-1044.5 267.62,-1008.5 332.38,-1008.5 332.38,-1044.5"/>
<text text-anchor="middle" x="300" y="-1021.45" font-family="Times New Roman,serif" font-size="14.00">day = 31</text>
<text text-anchor="middle" x="256.38" y="-1047.7" font-family="Times New Roman,serif" font-size="14.00">[80]</text>
</g>
<!-- 83 -->
<g id="node32" class="node">
<title>83</title>
<polygon fill="yellow" stroke="black" points="341.5,-928.75 136.5,-928.75 136.5,-871.25 341.5,-871.25 341.5,-928.75"/>
<text text-anchor="middle" x="239" y="-911.45" font-family="Times New Roman,serif" font-size="14.00">result.year = self.year and</text>
<text text-anchor="middle" x="239" y="-894.95" font-family="Times New Roman,serif" font-size="14.00">result.month = self.month + 1 and</text>
<text text-anchor="middle" x="239" y="-878.45" font-family="Times New Roman,serif" font-size="14.00">result.day = 1</text>
<text text-anchor="middle" x="125.25" y="-931.95" font-family="Times New Roman,serif" font-size="14.00">[83]</text>
</g>
<!-- 80&#45;&gt;83 -->
<g id="edge46" class="edge">
<title>80&#45;&gt;83</title>
<path fill="none" stroke="black" d="M291.52,-1008.19C282.83,-990.46 269.04,-962.31 257.77,-939.31"/>
<polygon fill="black" stroke="black" points="261.01,-937.96 253.46,-930.52 254.72,-941.04 261.01,-937.96"/>
<text text-anchor="middle" x="310.28" y="-958.2" font-family="Times New Roman,serif" font-size="14.00">graphAnd#95</text>
</g>
<!-- 92 -->
<g id="node36" class="node">
<title>92</title>
<polygon fill="aquamarine" stroke="black" points="239,-788.95 231.8,-781.75 239,-774.55 246.2,-781.75 239,-788.95"/>
<text text-anchor="middle" x="216.8" y="-792.15" font-family="Times New Roman,serif" font-size="14.00">&lt;92&gt;</text>
</g>
<!-- 83&#45;&gt;92 -->
<g id="edge50" class="edge">
<title>83&#45;&gt;92</title>
<path fill="none" stroke="black" d="M239,-870.86C239,-849.01 239,-819.39 239,-800.67"/>
<polygon fill="black" stroke="black" points="242.5,-800.75 239,-790.75 235.5,-800.75 242.5,-800.75"/>
<text text-anchor="middle" x="273.12" y="-831.7" font-family="Times New Roman,serif" font-size="14.00">merge1#100</text>
</g>
<!-- 86 -->
<g id="node33" class="node">
<title>86</title>
<polygon fill="yellow" stroke="black" points="484.5,-1044.5 411.5,-1044.5 411.5,-1008.5 484.5,-1008.5 484.5,-1044.5"/>
<text text-anchor="middle" x="448" y="-1021.45" font-family="Times New Roman,serif" font-size="14.00">day &lt;&gt; 31</text>
<text text-anchor="middle" x="400.25" y="-1047.7" font-family="Times New Roman,serif" font-size="14.00">[86]</text>
</g>
<!-- 89 -->
<g id="node34" class="node">
<title>89</title>
<polygon fill="yellow" stroke="black" points="542.25,-937 359.75,-937 359.75,-863 542.25,-863 542.25,-937"/>
<text text-anchor="middle" x="451" y="-919.7" font-family="Times New Roman,serif" font-size="14.00">day &lt; 31 and</text>
<text text-anchor="middle" x="451" y="-903.2" font-family="Times New Roman,serif" font-size="14.00">result.year = self.year and</text>
<text text-anchor="middle" x="451" y="-886.7" font-family="Times New Roman,serif" font-size="14.00">result.month = self.month and</text>
<text text-anchor="middle" x="451" y="-870.2" font-family="Times New Roman,serif" font-size="14.00">result.day = self.day + 1</text>
<text text-anchor="middle" x="348.5" y="-940.2" font-family="Times New Roman,serif" font-size="14.00">[89]</text>
</g>
<!-- 86&#45;&gt;89 -->
<g id="edge47" class="edge">
<title>86&#45;&gt;89</title>
<path fill="none" stroke="black" d="M448.42,-1008.19C448.79,-992.8 449.35,-969.56 449.85,-948.65"/>
<polygon fill="black" stroke="black" points="453.35,-948.93 450.09,-938.85 446.35,-948.77 453.35,-948.93"/>
<text text-anchor="middle" x="486.8" y="-958.2" font-family="Times New Roman,serif" font-size="14.00">graphAnd#96</text>
</g>
<!-- 89&#45;&gt;92 -->
<g id="edge51" class="edge">
<title>89&#45;&gt;92</title>
<path fill="none" stroke="black" d="M384.5,-862.54C337.96,-837.01 279.56,-804.99 253.14,-790.5"/>
<polygon fill="black" stroke="black" points="254.94,-787.5 244.49,-785.76 251.58,-793.64 254.94,-787.5"/>
<text text-anchor="middle" x="385.48" y="-831.7" font-family="Times New Roman,serif" font-size="14.00">merge2#101</text>
</g>
<!-- 91&#45;&gt;80 -->
<g id="edge48" class="edge">
<title>91&#45;&gt;80</title>
<path fill="none" stroke="black" d="M444.87,-1148.47C438.91,-1141.84 425.45,-1127.19 413,-1116 387.26,-1092.87 356.19,-1068.8 333.16,-1051.6"/>
<polygon fill="black" stroke="black" points="335.46,-1048.95 325.34,-1045.81 331.29,-1054.58 335.46,-1048.95"/>
<text text-anchor="middle" x="414.3" y="-1084.7" font-family="Times New Roman,serif" font-size="14.00">split1#98</text>
</g>
<!-- 91&#45;&gt;86 -->
<g id="edge49" class="edge">
<title>91&#45;&gt;86</title>
<path fill="none" stroke="black" d="M448,-1145.31C448,-1128.79 448,-1085.33 448,-1056.07"/>
<polygon fill="black" stroke="black" points="451.5,-1056.41 448,-1046.41 444.5,-1056.41 451.5,-1056.41"/>
<text text-anchor="middle" x="473.12" y="-1084.7" font-family="Times New Roman,serif" font-size="14.00">split2#99</text>
</g>
<!-- 92&#45;&gt;155 -->
<g id="edge29" class="edge">
<title>92&#45;&gt;155</title>
<path fill="none" stroke="black" d="M238.45,-774.46C236.96,-757.01 233,-706.54 233,-664.5 233,-664.5 233,-664.5 233,-214.9 233,-199.18 233,-181.31 233,-168.31"/>
<polygon fill="black" stroke="black" points="236.5,-168.33 233,-158.33 229.5,-168.33 236.5,-168.33"/>
<text text-anchor="middle" x="267.12" y="-380.2" font-family="Times New Roman,serif" font-size="14.00">merge1#182</text>
</g>
<!-- 94&#45;&gt;152 -->
<g id="edge26" class="edge">
<title>94&#45;&gt;152</title>
<path fill="none" stroke="black" d="M565.75,-1242.1C566.1,-1217.44 566.49,-1189.71 566.74,-1172.06"/>
<polygon fill="black" stroke="black" points="570.24,-1172.31 566.88,-1162.27 563.24,-1172.21 570.24,-1172.31"/>
<text text-anchor="middle" x="606.68" y="-1211.2" font-family="Times New Roman,serif" font-size="14.00">graphAnd#178</text>
</g>
<!-- 111 -->
<g id="node43" class="node">
<title>111</title>
<polygon fill="aquamarine" stroke="black" points="567,-907.2 559.8,-900 567,-892.8 574.2,-900 567,-907.2"/>
<text text-anchor="middle" x="578.17" y="-910.4" font-family="Times New Roman,serif" font-size="14.00">&lt;111&gt;</text>
</g>
<!-- 97&#45;&gt;111 -->
<g id="edge19" class="edge">
<title>97&#45;&gt;111</title>
<path fill="none" stroke="black" d="M567,-989.15C567,-966.16 567,-937.44 567,-919.15"/>
<polygon fill="black" stroke="black" points="570.5,-919.2 567,-909.2 563.5,-919.2 570.5,-919.2"/>
<text text-anchor="middle" x="607.5" y="-958.2" font-family="Times New Roman,serif" font-size="14.00">graphAnd#169</text>
</g>
<!-- 100 -->
<g id="node39" class="node">
<title>100</title>
<polygon fill="yellow" stroke="black" points="479.38,-799.75 414.62,-799.75 414.62,-763.75 479.38,-763.75 479.38,-799.75"/>
<text text-anchor="middle" x="447" y="-776.7" font-family="Times New Roman,serif" font-size="14.00">day = 30</text>
<text text-anchor="middle" x="400" y="-802.95" font-family="Times New Roman,serif" font-size="14.00">[100]</text>
</g>
<!-- 103 -->
<g id="node40" class="node">
<title>103</title>
<polygon fill="yellow" stroke="black" points="466.5,-692.25 261.5,-692.25 261.5,-634.75 466.5,-634.75 466.5,-692.25"/>
<text text-anchor="middle" x="364" y="-674.95" font-family="Times New Roman,serif" font-size="14.00">result.year = self.year and</text>
<text text-anchor="middle" x="364" y="-658.45" font-family="Times New Roman,serif" font-size="14.00">result.month = self.month + 1 and</text>
<text text-anchor="middle" x="364" y="-641.95" font-family="Times New Roman,serif" font-size="14.00">result.day = 1</text>
<text text-anchor="middle" x="246.88" y="-695.45" font-family="Times New Roman,serif" font-size="14.00">[103]</text>
</g>
<!-- 100&#45;&gt;103 -->
<g id="edge52" class="edge">
<title>100&#45;&gt;103</title>
<path fill="none" stroke="black" d="M434.57,-763.35C422.97,-747.09 405.26,-722.29 390.49,-701.6"/>
<polygon fill="black" stroke="black" points="393.48,-699.76 384.82,-693.66 387.78,-703.83 393.48,-699.76"/>
<text text-anchor="middle" x="453.43" y="-721.7" font-family="Times New Roman,serif" font-size="14.00">graphAnd#115</text>
</g>
<!-- 112 -->
<g id="node44" class="node">
<title>112</title>
<polygon fill="aquamarine" stroke="black" points="364,-563.2 356.8,-556 364,-548.8 371.2,-556 364,-563.2"/>
<text text-anchor="middle" x="338.43" y="-566.4" font-family="Times New Roman,serif" font-size="14.00">&lt;112&gt;</text>
</g>
<!-- 103&#45;&gt;112 -->
<g id="edge56" class="edge">
<title>103&#45;&gt;112</title>
<path fill="none" stroke="black" d="M364,-634.5C364,-615.62 364,-591.27 364,-574.94"/>
<polygon fill="black" stroke="black" points="367.5,-575.35 364,-565.35 360.5,-575.35 367.5,-575.35"/>
<text text-anchor="middle" x="398.12" y="-595.2" font-family="Times New Roman,serif" font-size="14.00">merge1#120</text>
</g>
<!-- 106 -->
<g id="node41" class="node">
<title>106</title>
<polygon fill="yellow" stroke="black" points="603.5,-799.75 530.5,-799.75 530.5,-763.75 603.5,-763.75 603.5,-799.75"/>
<text text-anchor="middle" x="567" y="-776.7" font-family="Times New Roman,serif" font-size="14.00">day &lt;&gt; 30</text>
<text text-anchor="middle" x="515.88" y="-802.95" font-family="Times New Roman,serif" font-size="14.00">[106]</text>
</g>
<!-- 109 -->
<g id="node42" class="node">
<title>109</title>
<polygon fill="yellow" stroke="black" points="667.25,-700.5 484.75,-700.5 484.75,-626.5 667.25,-626.5 667.25,-700.5"/>
<text text-anchor="middle" x="576" y="-683.2" font-family="Times New Roman,serif" font-size="14.00">day &lt; 30 and</text>
<text text-anchor="middle" x="576" y="-666.7" font-family="Times New Roman,serif" font-size="14.00">result.year = self.year and</text>
<text text-anchor="middle" x="576" y="-650.2" font-family="Times New Roman,serif" font-size="14.00">result.month = self.month and</text>
<text text-anchor="middle" x="576" y="-633.7" font-family="Times New Roman,serif" font-size="14.00">result.day = self.day + 1</text>
<text text-anchor="middle" x="470.12" y="-703.7" font-family="Times New Roman,serif" font-size="14.00">[109]</text>
</g>
<!-- 106&#45;&gt;109 -->
<g id="edge53" class="edge">
<title>106&#45;&gt;109</title>
<path fill="none" stroke="black" d="M568.35,-763.35C569.4,-749.77 570.91,-730.25 572.31,-712.13"/>
<polygon fill="black" stroke="black" points="575.79,-712.55 573.07,-702.31 568.81,-712.01 575.79,-712.55"/>
<text text-anchor="middle" x="612.27" y="-721.7" font-family="Times New Roman,serif" font-size="14.00">graphAnd#116</text>
</g>
<!-- 109&#45;&gt;112 -->
<g id="edge57" class="edge">
<title>109&#45;&gt;112</title>
<path fill="none" stroke="black" d="M504.16,-626.08C482.3,-615.07 458.2,-602.98 436,-592 416.15,-582.18 393.11,-571.02 378.54,-564"/>
<polygon fill="black" stroke="black" points="380.45,-561.03 369.92,-559.85 377.42,-567.34 380.45,-561.03"/>
<text text-anchor="middle" x="500.88" y="-595.2" font-family="Times New Roman,serif" font-size="14.00">merge2#121</text>
</g>
<!-- 111&#45;&gt;100 -->
<g id="edge54" class="edge">
<title>111&#45;&gt;100</title>
<path fill="none" stroke="black" d="M565.89,-893.36C564.08,-885.55 559.77,-871.44 551,-863 535.48,-848.06 523.82,-857.1 506,-845 491.33,-835.04 477.54,-820.88 466.99,-808.57"/>
<polygon fill="black" stroke="black" points="469.95,-806.66 460.87,-801.2 464.56,-811.13 469.95,-806.66"/>
<text text-anchor="middle" x="534.5" y="-831.7" font-family="Times New Roman,serif" font-size="14.00">split1#118</text>
</g>
<!-- 111&#45;&gt;106 -->
<g id="edge55" class="edge">
<title>111&#45;&gt;106</title>
<path fill="none" stroke="black" d="M567,-892.42C567,-877.17 567,-838.69 567,-811.63"/>
<polygon fill="black" stroke="black" points="570.5,-811.64 567,-801.64 563.5,-811.64 570.5,-811.64"/>
<text text-anchor="middle" x="595.5" y="-831.7" font-family="Times New Roman,serif" font-size="14.00">split2#119</text>
</g>
<!-- 112&#45;&gt;153 -->
<g id="edge23" class="edge">
<title>112&#45;&gt;153</title>
<path fill="none" stroke="black" d="M362.89,-549.31C359.92,-533.53 352,-487.84 352,-449.5 352,-449.5 352,-449.5 352,-281.8 352,-266.08 352,-248.21 352,-235.21"/>
<polygon fill="black" stroke="black" points="355.5,-235.23 352,-225.23 348.5,-235.23 355.5,-235.23"/>
<text text-anchor="middle" x="386.12" y="-345.7" font-family="Times New Roman,serif" font-size="14.00">merge1#174</text>
</g>
<!-- 114&#45;&gt;150 -->
<g id="edge20" class="edge">
<title>114&#45;&gt;150</title>
<path fill="none" stroke="black" d="M691.34,-989.15C692.83,-965.94 694.7,-936.86 695.87,-918.6"/>
<polygon fill="black" stroke="black" points="699.35,-918.96 696.5,-908.75 692.37,-918.51 699.35,-918.96"/>
<text text-anchor="middle" x="733.98" y="-958.2" font-family="Times New Roman,serif" font-size="14.00">graphAnd#170</text>
</g>
<!-- 117&#45;&gt;131 -->
<g id="edge13" class="edge">
<title>117&#45;&gt;131</title>
<path fill="none" stroke="black" d="M878.96,-752.61C886.15,-730.01 896,-699.07 901.9,-680.51"/>
<polygon fill="black" stroke="black" points="905.19,-681.72 904.89,-671.13 898.52,-679.59 905.19,-681.72"/>
<text text-anchor="middle" x="930.11" y="-721.7" font-family="Times New Roman,serif" font-size="14.00">graphAnd#161</text>
</g>
<!-- 123 -->
<g id="node48" class="node">
<title>123</title>
<polygon fill="yellow" stroke="black" points="1009.5,-477.25 804.5,-477.25 804.5,-419.75 1009.5,-419.75 1009.5,-477.25"/>
<text text-anchor="middle" x="907" y="-459.95" font-family="Times New Roman,serif" font-size="14.00">result.year = self.year and</text>
<text text-anchor="middle" x="907" y="-443.45" font-family="Times New Roman,serif" font-size="14.00">result.month = self.month + 1 and</text>
<text text-anchor="middle" x="907" y="-426.95" font-family="Times New Roman,serif" font-size="14.00">result.day = 1</text>
<text text-anchor="middle" x="819.12" y="-480.45" font-family="Times New Roman,serif" font-size="14.00">[123]</text>
</g>
<!-- 120&#45;&gt;123 -->
<g id="edge1" class="edge">
<title>120&#45;&gt;123</title>
<path fill="none" stroke="black" d="M907,-537.58C907,-524.36 907,-505.66 907,-488.89"/>
<polygon fill="black" stroke="black" points="910.5,-489.19 907,-479.19 903.5,-489.19 910.5,-489.19"/>
<text text-anchor="middle" x="947.5" y="-506.7" font-family="Times New Roman,serif" font-size="14.00">graphAnd#135</text>
</g>
<!-- 123&#45;&gt;132 -->
<g id="edge5" class="edge">
<title>123&#45;&gt;132</title>
<path fill="none" stroke="black" d="M907,-419.29C907,-403.24 907,-383.61 907,-369.67"/>
<polygon fill="black" stroke="black" points="910.5,-369.84 907,-359.84 903.5,-369.84 910.5,-369.84"/>
<text text-anchor="middle" x="941.12" y="-380.2" font-family="Times New Roman,serif" font-size="14.00">merge1#140</text>
</g>
<!-- 126&#45;&gt;129 -->
<g id="edge2" class="edge">
<title>126&#45;&gt;129</title>
<path fill="none" stroke="black" d="M1043.86,-537.58C1053.97,-525.73 1067.84,-509.47 1080.91,-494.15"/>
<polygon fill="black" stroke="black" points="1083.25,-496.8 1087.08,-486.92 1077.92,-492.26 1083.25,-496.8"/>
<text text-anchor="middle" x="1111.8" y="-506.7" font-family="Times New Roman,serif" font-size="14.00">graphAnd#136</text>
</g>
</g>
</svg>
