<?xml version="1.0" encoding="UTF-8" standalone="no"?>
<!DOCTYPE svg PUBLIC "-//W3C//DTD SVG 1.1//EN"
 "http://www.w3.org/Graphics/SVG/1.1/DTD/svg11.dtd">
<!-- Generated by graphviz version 12.2.1 (20241206.2353)
 -->
<!-- Title: CLG Pages: 1 -->
<svg width="929pt" height="1914pt"
 viewBox="0.00 0.00 928.88 1914.00" xmlns="http://www.w3.org/2000/svg" xmlns:xlink="http://www.w3.org/1999/xlink">
<g id="graph0" class="graph" transform="scale(1 1) rotate(0) translate(4 1910)">
<title>CLG</title>
<polygon fill="white" stroke="none" points="-4,4 -4,-1910 924.88,-1910 924.88,4 -4,4"/>
<!-- 268 -->
<g id="node1" class="node">
<title>268</title>
<polygon fill="yellow" stroke="black" points="415,-1644.7 29.25,-1644.7 29.25,-1224.2 415,-1224.2 415,-1644.7"/>
<text text-anchor="middle" x="222.12" y="-1627.4" font-family="Times New Roman,serif" font-size="14.00">self.year &lt; 1 and</text>
<text text-anchor="middle" x="222.12" y="-1610.9" font-family="Times New Roman,serif" font-size="14.00">self.month &gt;= 1 and</text>
<text text-anchor="middle" x="222.12" y="-1594.4" font-family="Times New Roman,serif" font-size="14.00">self.month &lt;= 12 and</text>
<text text-anchor="middle" x="222.12" y="-1577.9" font-family="Times New Roman,serif" font-size="14.00">self.day &gt;= 1 and</text>
<text text-anchor="middle" x="222.12" y="-1561.4" font-family="Times New Roman,serif" font-size="14.00">IfExp ConditionNode:(2982) thenNode: (2986) elseNode: (3039) or</text>
<text text-anchor="middle" x="222.12" y="-1544.9" font-family="Times New Roman,serif" font-size="14.00">self.year &gt;= 1 and</text>
<text text-anchor="middle" x="222.12" y="-1528.4" font-family="Times New Roman,serif" font-size="14.00">self.month &lt; 1 and</text>
<text text-anchor="middle" x="222.12" y="-1511.9" font-family="Times New Roman,serif" font-size="14.00">self.month &lt;= 12 and</text>
<text text-anchor="middle" x="222.12" y="-1495.4" font-family="Times New Roman,serif" font-size="14.00">self.day &gt;= 1 and</text>
<text text-anchor="middle" x="222.12" y="-1478.9" font-family="Times New Roman,serif" font-size="14.00">IfExp ConditionNode:(3094) thenNode: (3098) elseNode: (3151) or</text>
<text text-anchor="middle" x="222.12" y="-1462.4" font-family="Times New Roman,serif" font-size="14.00">self.year &gt;= 1 and</text>
<text text-anchor="middle" x="222.12" y="-1445.9" font-family="Times New Roman,serif" font-size="14.00">self.month &gt;= 1 and</text>
<text text-anchor="middle" x="222.12" y="-1429.4" font-family="Times New Roman,serif" font-size="14.00">self.month &gt; 12 and</text>
<text text-anchor="middle" x="222.12" y="-1412.9" font-family="Times New Roman,serif" font-size="14.00">self.day &gt;= 1 and</text>
<text text-anchor="middle" x="222.12" y="-1396.4" font-family="Times New Roman,serif" font-size="14.00">IfExp ConditionNode:(3206) thenNode: (3210) elseNode: (3263) or</text>
<text text-anchor="middle" x="222.12" y="-1379.9" font-family="Times New Roman,serif" font-size="14.00">self.year &gt;= 1 and</text>
<text text-anchor="middle" x="222.12" y="-1363.4" font-family="Times New Roman,serif" font-size="14.00">self.month &gt;= 1 and</text>
<text text-anchor="middle" x="222.12" y="-1346.9" font-family="Times New Roman,serif" font-size="14.00">self.month &lt;= 12 and</text>
<text text-anchor="middle" x="222.12" y="-1330.4" font-family="Times New Roman,serif" font-size="14.00">self.day &lt; 1 and</text>
<text text-anchor="middle" x="222.12" y="-1313.9" font-family="Times New Roman,serif" font-size="14.00">IfExp ConditionNode:(3318) thenNode: (3322) elseNode: (3375) or</text>
<text text-anchor="middle" x="222.12" y="-1297.4" font-family="Times New Roman,serif" font-size="14.00">self.year &gt;= 1 and</text>
<text text-anchor="middle" x="222.12" y="-1280.9" font-family="Times New Roman,serif" font-size="14.00">self.month &gt;= 1 and</text>
<text text-anchor="middle" x="222.12" y="-1264.4" font-family="Times New Roman,serif" font-size="14.00">self.month &lt;= 12 and</text>
<text text-anchor="middle" x="222.12" y="-1247.9" font-family="Times New Roman,serif" font-size="14.00">self.day &gt;= 1 and</text>
<text text-anchor="middle" x="222.12" y="-1231.4" font-family="Times New Roman,serif" font-size="14.00">IfExp ConditionNode:(3574) thenNode: (3434) elseNode: (3540)</text>
<text text-anchor="middle" x="14.62" y="-1647.9" font-family="Times New Roman,serif" font-size="14.00">[268]</text>
</g>
<!-- 271 -->
<g id="node2" class="node">
<title>271</title>
<polygon fill="yellow" stroke="black" points="423.88,-1139.3 244.38,-1139.3 244.38,-1103.3 423.88,-1103.3 423.88,-1139.3"/>
<text text-anchor="middle" x="334.12" y="-1116.25" font-family="Times New Roman,serif" font-size="14.00">Result = &#39;DateErrorException&#39;</text>
<text text-anchor="middle" x="229.75" y="-1142.5" font-family="Times New Roman,serif" font-size="14.00">[271]</text>
</g>
<!-- 268&#45;&gt;271 -->
<g id="edge24" class="edge">
<title>268&#45;&gt;271</title>
<path fill="none" stroke="black" d="M297.61,-1223.75C308.01,-1194.86 317.38,-1168.81 324.03,-1150.35"/>
<polygon fill="black" stroke="black" points="327.29,-1151.63 327.38,-1141.04 320.7,-1149.26 327.29,-1151.63"/>
<text text-anchor="middle" x="348.39" y="-1192.9" font-family="Times New Roman,serif" font-size="14.00">graphAnd#377</text>
</g>
<!-- 319 -->
<g id="node25" class="node">
<title>319</title>
<polygon fill="aquamarine" stroke="black" points="369.12,-89.3 361.93,-82.1 369.12,-74.9 376.32,-82.1 369.12,-89.3"/>
<text text-anchor="middle" x="343.55" y="-92.5" font-family="Times New Roman,serif" font-size="14.00">&lt;319&gt;</text>
</g>
<!-- 271&#45;&gt;319 -->
<g id="edge2" class="edge">
<title>271&#45;&gt;319</title>
<path fill="none" stroke="black" d="M337.14,-1102.88C342.49,-1070.32 353.12,-997.97 353.12,-936.55 353.12,-936.55 353.12,-936.55 353.12,-158.8 353.12,-137.81 359.08,-114.25 363.73,-99.07"/>
<polygon fill="black" stroke="black" points="367.04,-100.19 366.82,-89.6 360.39,-98.02 367.04,-100.19"/>
<text text-anchor="middle" x="387.25" y="-488.2" font-family="Times New Roman,serif" font-size="14.00">merge2#385</text>
</g>
<!-- 272 -->
<g id="node3" class="node">
<title>272</title>
<ellipse fill="black" stroke="black" cx="369.12" cy="-11.2" rx="7.2" ry="7.2"/>
<ellipse fill="none" stroke="black" cx="369.12" cy="-11.2" rx="11.2" ry="11.2"/>
<text text-anchor="middle" x="347.8" y="-25.6" font-family="Times New Roman,serif" font-size="14.00">[&#45;1]</text>
</g>
<!-- 274 -->
<g id="node4" class="node">
<title>274</title>
<polygon fill="yellow" stroke="black" points="518.5,-1085.3 399.75,-1085.3 399.75,-961.8 518.5,-961.8 518.5,-1085.3"/>
<text text-anchor="middle" x="459.12" y="-1068" font-family="Times New Roman,serif" font-size="14.00">self.month = 1 or</text>
<text text-anchor="middle" x="459.12" y="-1051.5" font-family="Times New Roman,serif" font-size="14.00">self.month = 3 or</text>
<text text-anchor="middle" x="459.12" y="-1035" font-family="Times New Roman,serif" font-size="14.00">self.month = 5 or</text>
<text text-anchor="middle" x="459.12" y="-1018.5" font-family="Times New Roman,serif" font-size="14.00">self.month = 7 or</text>
<text text-anchor="middle" x="459.12" y="-1002" font-family="Times New Roman,serif" font-size="14.00">self.month = 8 or</text>
<text text-anchor="middle" x="459.12" y="-985.5" font-family="Times New Roman,serif" font-size="14.00">self.month = 10 or</text>
<text text-anchor="middle" x="459.12" y="-969" font-family="Times New Roman,serif" font-size="14.00">self.month = 12</text>
<text text-anchor="middle" x="385.12" y="-1088.5" font-family="Times New Roman,serif" font-size="14.00">[274]</text>
</g>
<!-- 277 -->
<g id="node5" class="node">
<title>277</title>
<polygon fill="yellow" stroke="black" points="506.25,-876.9 410,-876.9 410,-840.9 506.25,-840.9 506.25,-876.9"/>
<text text-anchor="middle" x="458.12" y="-853.85" font-family="Times New Roman,serif" font-size="14.00">self.day &lt;= 31</text>
<text text-anchor="middle" x="395.38" y="-880.1" font-family="Times New Roman,serif" font-size="14.00">[277]</text>
</g>
<!-- 274&#45;&gt;277 -->
<g id="edge17" class="edge">
<title>274&#45;&gt;277</title>
<path fill="none" stroke="black" d="M458.75,-961.52C458.6,-936.59 458.43,-908.94 458.3,-888.78"/>
<polygon fill="black" stroke="black" points="461.8,-888.78 458.24,-878.8 454.8,-888.83 461.8,-888.78"/>
<text text-anchor="middle" x="499.12" y="-930.5" font-family="Times New Roman,serif" font-size="14.00">graphAnd#364</text>
</g>
<!-- 308 -->
<g id="node19" class="node">
<title>308</title>
<polygon fill="aquamarine" stroke="black" points="453.12,-244.7 445.93,-237.5 453.12,-230.3 460.32,-237.5 453.12,-244.7"/>
<text text-anchor="middle" x="427.55" y="-247.9" font-family="Times New Roman,serif" font-size="14.00">&lt;308&gt;</text>
</g>
<!-- 277&#45;&gt;308 -->
<g id="edge21" class="edge">
<title>277&#45;&gt;308</title>
<path fill="none" stroke="black" d="M457.06,-840.53C455.6,-814.95 453.12,-765.63 453.12,-723.65 453.12,-723.65 453.12,-723.65 453.12,-303.4 453.12,-287.68 453.12,-269.81 453.12,-256.81"/>
<polygon fill="black" stroke="black" points="456.63,-256.83 453.13,-246.83 449.63,-256.83 456.63,-256.83"/>
<text text-anchor="middle" x="487.25" y="-488.2" font-family="Times New Roman,serif" font-size="14.00">merge1#369</text>
</g>
<!-- 280 -->
<g id="node6" class="node">
<title>280</title>
<polygon fill="yellow" stroke="black" points="673.75,-1085.3 538.5,-1085.3 538.5,-961.8 673.75,-961.8 673.75,-1085.3"/>
<text text-anchor="middle" x="606.12" y="-1068" font-family="Times New Roman,serif" font-size="14.00">self.month &lt;&gt; 1 and</text>
<text text-anchor="middle" x="606.12" y="-1051.5" font-family="Times New Roman,serif" font-size="14.00">self.month &lt;&gt; 3 and</text>
<text text-anchor="middle" x="606.12" y="-1035" font-family="Times New Roman,serif" font-size="14.00">self.month &lt;&gt; 5 and</text>
<text text-anchor="middle" x="606.12" y="-1018.5" font-family="Times New Roman,serif" font-size="14.00">self.month &lt;&gt; 7 and</text>
<text text-anchor="middle" x="606.12" y="-1002" font-family="Times New Roman,serif" font-size="14.00">self.month &lt;&gt; 8 and</text>
<text text-anchor="middle" x="606.12" y="-985.5" font-family="Times New Roman,serif" font-size="14.00">self.month &lt;&gt; 10 and</text>
<text text-anchor="middle" x="606.12" y="-969" font-family="Times New Roman,serif" font-size="14.00">self.month &lt;&gt; 12</text>
<text text-anchor="middle" x="523.88" y="-1088.5" font-family="Times New Roman,serif" font-size="14.00">[280]</text>
</g>
<!-- 305 -->
<g id="node16" class="node">
<title>305</title>
<polygon fill="aquamarine" stroke="black" points="606.12,-909.3 598.92,-902.1 606.12,-894.9 613.33,-902.1 606.12,-909.3"/>
<text text-anchor="middle" x="580.55" y="-912.5" font-family="Times New Roman,serif" font-size="14.00">&lt;305&gt;</text>
</g>
<!-- 280&#45;&gt;305 -->
<g id="edge18" class="edge">
<title>280&#45;&gt;305</title>
<path fill="none" stroke="black" d="M606.12,-961.43C606.12,-946.73 606.12,-932.16 606.12,-921.25"/>
<polygon fill="black" stroke="black" points="609.63,-921.52 606.13,-911.52 602.63,-921.52 609.63,-921.52"/>
<text text-anchor="middle" x="646.62" y="-930.5" font-family="Times New Roman,serif" font-size="14.00">graphAnd#365</text>
</g>
<!-- 283 -->
<g id="node7" class="node">
<title>283</title>
<polygon fill="yellow" stroke="black" points="593.12,-822.9 481.12,-822.9 481.12,-748.9 593.12,-748.9 593.12,-822.9"/>
<text text-anchor="middle" x="537.12" y="-805.6" font-family="Times New Roman,serif" font-size="14.00">self.month = 4 or</text>
<text text-anchor="middle" x="537.12" y="-789.1" font-family="Times New Roman,serif" font-size="14.00">self.month = 6 or</text>
<text text-anchor="middle" x="537.12" y="-772.6" font-family="Times New Roman,serif" font-size="14.00">self.month = 9 or</text>
<text text-anchor="middle" x="537.12" y="-756.1" font-family="Times New Roman,serif" font-size="14.00">self.month = 11</text>
<text text-anchor="middle" x="466.5" y="-826.1" font-family="Times New Roman,serif" font-size="14.00">[283]</text>
</g>
<!-- 286 -->
<g id="node8" class="node">
<title>286</title>
<polygon fill="yellow" stroke="black" points="585.25,-664 489,-664 489,-628 585.25,-628 585.25,-664"/>
<text text-anchor="middle" x="537.12" y="-640.95" font-family="Times New Roman,serif" font-size="14.00">self.day &lt;= 30</text>
<text text-anchor="middle" x="474.38" y="-667.2" font-family="Times New Roman,serif" font-size="14.00">[286]</text>
</g>
<!-- 283&#45;&gt;286 -->
<g id="edge11" class="edge">
<title>283&#45;&gt;286</title>
<path fill="none" stroke="black" d="M537.12,-748.67C537.12,-725.85 537.12,-696.82 537.12,-675.62"/>
<polygon fill="black" stroke="black" points="540.63,-675.67 537.13,-665.67 533.63,-675.67 540.63,-675.67"/>
<text text-anchor="middle" x="577.62" y="-717.6" font-family="Times New Roman,serif" font-size="14.00">graphAnd#356</text>
</g>
<!-- 306 -->
<g id="node17" class="node">
<title>306</title>
<polygon fill="aquamarine" stroke="black" points="537.12,-311.6 529.92,-304.4 537.12,-297.2 544.33,-304.4 537.12,-311.6"/>
<text text-anchor="middle" x="511.55" y="-314.8" font-family="Times New Roman,serif" font-size="14.00">&lt;306&gt;</text>
</g>
<!-- 286&#45;&gt;306 -->
<g id="edge15" class="edge">
<title>286&#45;&gt;306</title>
<path fill="none" stroke="black" d="M537.12,-627.82C537.12,-599.83 537.12,-542.67 537.12,-494.25 537.12,-494.25 537.12,-494.25 537.12,-370.3 537.12,-354.58 537.12,-336.71 537.12,-323.71"/>
<polygon fill="black" stroke="black" points="540.63,-323.73 537.13,-313.73 533.63,-323.73 540.63,-323.73"/>
<text text-anchor="middle" x="571.25" y="-443.95" font-family="Times New Roman,serif" font-size="14.00">merge1#361</text>
</g>
<!-- 289 -->
<g id="node9" class="node">
<title>289</title>
<polygon fill="yellow" stroke="black" points="739.38,-822.9 610.88,-822.9 610.88,-748.9 739.38,-748.9 739.38,-822.9"/>
<text text-anchor="middle" x="675.12" y="-805.6" font-family="Times New Roman,serif" font-size="14.00">self.month &lt;&gt; 4 and</text>
<text text-anchor="middle" x="675.12" y="-789.1" font-family="Times New Roman,serif" font-size="14.00">self.month &lt;&gt; 6 and</text>
<text text-anchor="middle" x="675.12" y="-772.6" font-family="Times New Roman,serif" font-size="14.00">self.month &lt;&gt; 9 and</text>
<text text-anchor="middle" x="675.12" y="-756.1" font-family="Times New Roman,serif" font-size="14.00">self.month &lt;&gt; 11</text>
<text text-anchor="middle" x="596.25" y="-826.1" font-family="Times New Roman,serif" font-size="14.00">[289]</text>
</g>
<!-- 303 -->
<g id="node14" class="node">
<title>303</title>
<polygon fill="aquamarine" stroke="black" points="675.12,-696.4 667.92,-689.2 675.12,-682 682.33,-689.2 675.12,-696.4"/>
<text text-anchor="middle" x="649.55" y="-699.6" font-family="Times New Roman,serif" font-size="14.00">&lt;303&gt;</text>
</g>
<!-- 289&#45;&gt;303 -->
<g id="edge12" class="edge">
<title>289&#45;&gt;303</title>
<path fill="none" stroke="black" d="M675.12,-748.56C675.12,-734.76 675.12,-719.64 675.12,-708.25"/>
<polygon fill="black" stroke="black" points="678.63,-708.41 675.13,-698.41 671.63,-708.41 678.63,-708.41"/>
<text text-anchor="middle" x="715.62" y="-717.6" font-family="Times New Roman,serif" font-size="14.00">graphAnd#357</text>
</g>
<!-- 292 -->
<g id="node10" class="node">
<title>292</title>
<polygon fill="yellow" stroke="black" points="729.62,-593.5 572.62,-593.5 572.62,-536 729.62,-536 729.62,-593.5"/>
<text text-anchor="middle" x="651.12" y="-576.2" font-family="Times New Roman,serif" font-size="14.00">self.year.mod(400) = 0 or</text>
<text text-anchor="middle" x="651.12" y="-559.7" font-family="Times New Roman,serif" font-size="14.00">self.year.mod(4) = 0 and</text>
<text text-anchor="middle" x="651.12" y="-543.2" font-family="Times New Roman,serif" font-size="14.00">self.year.mod(100) &lt;&gt; 0</text>
<text text-anchor="middle" x="558" y="-596.7" font-family="Times New Roman,serif" font-size="14.00">[292]</text>
</g>
<!-- 295 -->
<g id="node11" class="node">
<title>295</title>
<polygon fill="yellow" stroke="black" points="719.25,-467 623,-467 623,-431 719.25,-431 719.25,-467"/>
<text text-anchor="middle" x="671.12" y="-443.95" font-family="Times New Roman,serif" font-size="14.00">self.day &lt;= 29</text>
<text text-anchor="middle" x="608.38" y="-470.2" font-family="Times New Roman,serif" font-size="14.00">[295]</text>
</g>
<!-- 292&#45;&gt;295 -->
<g id="edge5" class="edge">
<title>292&#45;&gt;295</title>
<path fill="none" stroke="black" d="M656.07,-535.63C659.13,-518.21 663.06,-495.89 666.13,-478.41"/>
<polygon fill="black" stroke="black" points="669.55,-479.15 667.84,-468.69 662.66,-477.93 669.55,-479.15"/>
<text text-anchor="middle" x="705.16" y="-488.2" font-family="Times New Roman,serif" font-size="14.00">graphAnd#348</text>
</g>
<!-- 304 -->
<g id="node15" class="node">
<title>304</title>
<polygon fill="aquamarine" stroke="black" points="671.12,-378.5 663.92,-371.3 671.12,-364.1 678.33,-371.3 671.12,-378.5"/>
<text text-anchor="middle" x="645.55" y="-381.7" font-family="Times New Roman,serif" font-size="14.00">&lt;304&gt;</text>
</g>
<!-- 295&#45;&gt;304 -->
<g id="edge9" class="edge">
<title>295&#45;&gt;304</title>
<path fill="none" stroke="black" d="M671.12,-430.82C671.12,-418.78 671.12,-402.7 671.12,-390.45"/>
<polygon fill="black" stroke="black" points="674.63,-390.54 671.13,-380.54 667.63,-390.54 674.63,-390.54"/>
<text text-anchor="middle" x="705.25" y="-399.7" font-family="Times New Roman,serif" font-size="14.00">merge1#353</text>
</g>
<!-- 298 -->
<g id="node12" class="node">
<title>298</title>
<polygon fill="yellow" stroke="black" points="920.88,-610 747.38,-610 747.38,-519.5 920.88,-519.5 920.88,-610"/>
<text text-anchor="middle" x="834.12" y="-592.7" font-family="Times New Roman,serif" font-size="14.00">self.year.mod(400) &lt;&gt; 0 and</text>
<text text-anchor="middle" x="834.12" y="-576.2" font-family="Times New Roman,serif" font-size="14.00">self.year.mod(4) &lt;&gt; 0 and</text>
<text text-anchor="middle" x="834.12" y="-559.7" font-family="Times New Roman,serif" font-size="14.00">self.year.mod(100) &lt;&gt; 0 or</text>
<text text-anchor="middle" x="834.12" y="-543.2" font-family="Times New Roman,serif" font-size="14.00">self.year.mod(4) = 0 and</text>
<text text-anchor="middle" x="834.12" y="-526.7" font-family="Times New Roman,serif" font-size="14.00">self.year.mod(100) = 0</text>
<text text-anchor="middle" x="732.75" y="-613.2" font-family="Times New Roman,serif" font-size="14.00">[298]</text>
</g>
<!-- 301 -->
<g id="node13" class="node">
<title>301</title>
<polygon fill="yellow" stroke="black" points="867.25,-467 771,-467 771,-431 867.25,-431 867.25,-467"/>
<text text-anchor="middle" x="819.12" y="-443.95" font-family="Times New Roman,serif" font-size="14.00">self.day &lt;= 28</text>
<text text-anchor="middle" x="756.38" y="-470.2" font-family="Times New Roman,serif" font-size="14.00">[301]</text>
</g>
<!-- 298&#45;&gt;301 -->
<g id="edge6" class="edge">
<title>298&#45;&gt;301</title>
<path fill="none" stroke="black" d="M828.24,-519.12C826.44,-505.49 824.51,-490.87 822.9,-478.61"/>
<polygon fill="black" stroke="black" points="826.38,-478.21 821.6,-468.75 819.44,-479.12 826.38,-478.21"/>
<text text-anchor="middle" x="866.23" y="-488.2" font-family="Times New Roman,serif" font-size="14.00">graphAnd#349</text>
</g>
<!-- 301&#45;&gt;304 -->
<g id="edge10" class="edge">
<title>301&#45;&gt;304</title>
<path fill="none" stroke="black" d="M796.83,-430.52C782.19,-419.65 762.26,-405.98 743.12,-396.5 724.85,-387.45 702.37,-380.5 687.44,-376.42"/>
<polygon fill="black" stroke="black" points="688.58,-373.1 678.03,-373.97 686.82,-379.87 688.58,-373.1"/>
<text text-anchor="middle" x="805.61" y="-399.7" font-family="Times New Roman,serif" font-size="14.00">merge2#354</text>
</g>
<!-- 303&#45;&gt;292 -->
<g id="edge7" class="edge">
<title>303&#45;&gt;292</title>
<path fill="none" stroke="black" d="M674.03,-682.62C671.38,-669.09 664.42,-633.57 658.86,-605.21"/>
<polygon fill="black" stroke="black" points="662.31,-604.59 656.95,-595.45 655.44,-605.94 662.31,-604.59"/>
<text text-anchor="middle" x="698.44" y="-640.95" font-family="Times New Roman,serif" font-size="14.00">split1#351</text>
</g>
<!-- 303&#45;&gt;298 -->
<g id="edge8" class="edge">
<title>303&#45;&gt;298</title>
<path fill="none" stroke="black" d="M680.37,-686.63C690.67,-683.39 713.99,-675.34 731.12,-664 750.78,-650.99 770.09,-634.03 786.58,-617.87"/>
<polygon fill="black" stroke="black" points="788.76,-620.64 793.37,-611.1 783.82,-615.69 788.76,-620.64"/>
<text text-anchor="middle" x="802.3" y="-640.95" font-family="Times New Roman,serif" font-size="14.00">split2#352</text>
</g>
<!-- 304&#45;&gt;306 -->
<g id="edge16" class="edge">
<title>304&#45;&gt;306</title>
<path fill="none" stroke="black" d="M666.67,-368.14C648.79,-359.48 581.79,-327.03 551.8,-312.51"/>
<polygon fill="black" stroke="black" points="553.63,-309.5 543.1,-308.29 550.57,-315.8 553.63,-309.5"/>
<text text-anchor="middle" x="654.19" y="-332.8" font-family="Times New Roman,serif" font-size="14.00">merge2#362</text>
</g>
<!-- 305&#45;&gt;283 -->
<g id="edge13" class="edge">
<title>305&#45;&gt;283</title>
<path fill="none" stroke="black" d="M602.68,-898.26C597.68,-894 588.33,-885.55 582.12,-876.9 572.54,-863.54 563.91,-847.83 556.84,-833.31"/>
<polygon fill="black" stroke="black" points="560.06,-831.92 552.62,-824.37 553.73,-834.91 560.06,-831.92"/>
<text text-anchor="middle" x="610.62" y="-853.85" font-family="Times New Roman,serif" font-size="14.00">split1#359</text>
</g>
<!-- 305&#45;&gt;289 -->
<g id="edge14" class="edge">
<title>305&#45;&gt;289</title>
<path fill="none" stroke="black" d="M610.59,-898.89C617.57,-895.21 631.12,-887.23 639.12,-876.9 649,-864.16 656.52,-848.36 662.07,-833.57"/>
<polygon fill="black" stroke="black" points="665.26,-835.06 665.27,-824.47 658.65,-832.74 665.26,-835.06"/>
<text text-anchor="middle" x="687.04" y="-853.85" font-family="Times New Roman,serif" font-size="14.00">split2#360</text>
</g>
<!-- 306&#45;&gt;308 -->
<g id="edge22" class="edge">
<title>306&#45;&gt;308</title>
<path fill="none" stroke="black" d="M533.52,-300.61C521.96,-291.69 485.51,-263.52 465.9,-248.37"/>
<polygon fill="black" stroke="black" points="468.26,-245.77 458.21,-242.43 463.98,-251.31 468.26,-245.77"/>
<text text-anchor="middle" x="539.24" y="-265.9" font-family="Times New Roman,serif" font-size="14.00">merge2#370</text>
</g>
<!-- 307 -->
<g id="node18" class="node">
<title>307</title>
<polygon fill="aquamarine" stroke="black" points="606.12,-1171.7 598.92,-1164.5 606.12,-1157.3 613.33,-1164.5 606.12,-1171.7"/>
<text text-anchor="middle" x="580.55" y="-1174.9" font-family="Times New Roman,serif" font-size="14.00">&lt;307&gt;</text>
</g>
<!-- 307&#45;&gt;274 -->
<g id="edge19" class="edge">
<title>307&#45;&gt;274</title>
<path fill="none" stroke="black" d="M600.57,-1162.37C589.2,-1159.84 562.87,-1152.86 545.12,-1139.3 529.02,-1126.99 514.46,-1110.9 502.09,-1094.69"/>
<polygon fill="black" stroke="black" points="505.1,-1092.87 496.35,-1086.9 499.47,-1097.03 505.1,-1092.87"/>
<text text-anchor="middle" x="573.62" y="-1116.25" font-family="Times New Roman,serif" font-size="14.00">split1#367</text>
</g>
<!-- 307&#45;&gt;280 -->
<g id="edge20" class="edge">
<title>307&#45;&gt;280</title>
<path fill="none" stroke="black" d="M606.12,-1156.8C606.12,-1145.47 606.12,-1121.35 606.12,-1096.78"/>
<polygon fill="black" stroke="black" points="609.63,-1097.01 606.13,-1087.01 602.63,-1097.01 609.63,-1097.01"/>
<text text-anchor="middle" x="634.62" y="-1116.25" font-family="Times New Roman,serif" font-size="14.00">split2#368</text>
</g>
<!-- 313 -->
<g id="node21" class="node">
<title>313</title>
<polygon fill="yellow" stroke="black" points="473.75,-177.8 392.5,-177.8 392.5,-141.8 473.75,-141.8 473.75,-177.8"/>
<text text-anchor="middle" x="433.12" y="-154.75" font-family="Times New Roman,serif" font-size="14.00">result = day</text>
<text text-anchor="middle" x="377.88" y="-181" font-family="Times New Roman,serif" font-size="14.00">[313]</text>
</g>
<!-- 308&#45;&gt;313 -->
<g id="edge25" class="edge">
<title>308&#45;&gt;313</title>
<path fill="none" stroke="black" d="M451.69,-231.06C449.37,-222.27 444.64,-204.39 440.54,-188.86"/>
<polygon fill="black" stroke="black" points="444.03,-188.37 438.09,-179.6 437.26,-190.16 444.03,-188.37"/>
<text text-anchor="middle" x="487.16" y="-199" font-family="Times New Roman,serif" font-size="14.00">graphAnd#378</text>
</g>
<!-- 310 -->
<g id="node20" class="node">
<title>310</title>
<polygon fill="yellow" stroke="black" points="783.38,-1479.7 432.88,-1479.7 432.88,-1389.2 783.38,-1389.2 783.38,-1479.7"/>
<text text-anchor="middle" x="608.12" y="-1462.4" font-family="Times New Roman,serif" font-size="14.00">self.year &gt;= 1 and</text>
<text text-anchor="middle" x="608.12" y="-1445.9" font-family="Times New Roman,serif" font-size="14.00">self.month &gt;= 1 and</text>
<text text-anchor="middle" x="608.12" y="-1429.4" font-family="Times New Roman,serif" font-size="14.00">self.month &lt;= 12 and</text>
<text text-anchor="middle" x="608.12" y="-1412.9" font-family="Times New Roman,serif" font-size="14.00">self.day &gt;= 1 and</text>
<text text-anchor="middle" x="608.12" y="-1396.4" font-family="Times New Roman,serif" font-size="14.00">IfExp ConditionNode:(706) thenNode: (710) elseNode: (763)</text>
<text text-anchor="middle" x="447.5" y="-1482.9" font-family="Times New Roman,serif" font-size="14.00">[310]</text>
</g>
<!-- 310&#45;&gt;307 -->
<g id="edge23" class="edge">
<title>310&#45;&gt;307</title>
<path fill="none" stroke="black" d="M607.79,-1388.9C607.34,-1328.87 606.57,-1224.77 606.26,-1183.29"/>
<polygon fill="black" stroke="black" points="609.76,-1183.46 606.18,-1173.49 602.76,-1183.51 609.76,-1183.46"/>
<text text-anchor="middle" x="646.92" y="-1192.9" font-family="Times New Roman,serif" font-size="14.00">graphAnd#374</text>
</g>
<!-- 313&#45;&gt;319 -->
<g id="edge1" class="edge">
<title>313&#45;&gt;319</title>
<path fill="none" stroke="black" d="M418.6,-141.62C406.62,-127.45 389.91,-107.69 379.31,-95.14"/>
<polygon fill="black" stroke="black" points="382.18,-93.12 373.05,-87.74 376.83,-97.64 382.18,-93.12"/>
<text text-anchor="middle" x="437.17" y="-110.5" font-family="Times New Roman,serif" font-size="14.00">merge1#384</text>
</g>
<!-- 315 -->
<g id="node22" class="node">
<title>315</title>
<ellipse fill="black" stroke="black" cx="415.12" cy="-1882.3" rx="7.2" ry="7.2"/>
<text text-anchor="middle" x="400.05" y="-1892.7" font-family="Times New Roman,serif" font-size="14.00">[0]</text>
</g>
<!-- 316 -->
<g id="node23" class="node">
<title>316</title>
<polygon fill="yellow" stroke="black" points="471.12,-1838.1 359.12,-1838.1 359.12,-1764.1 471.12,-1764.1 471.12,-1838.1"/>
<text text-anchor="middle" x="415.12" y="-1820.8" font-family="Times New Roman,serif" font-size="14.00">year &gt;= 1 and</text>
<text text-anchor="middle" x="415.12" y="-1804.3" font-family="Times New Roman,serif" font-size="14.00">month &gt;= 1 and</text>
<text text-anchor="middle" x="415.12" y="-1787.8" font-family="Times New Roman,serif" font-size="14.00">month &lt;= 12 and</text>
<text text-anchor="middle" x="415.12" y="-1771.3" font-family="Times New Roman,serif" font-size="14.00">day &gt;= 1</text>
<text text-anchor="middle" x="344.5" y="-1841.3" font-family="Times New Roman,serif" font-size="14.00">[316]</text>
</g>
<!-- 315&#45;&gt;316 -->
<g id="edge26" class="edge">
<title>315&#45;&gt;316</title>
<path fill="none" stroke="black" d="M415.12,-1874.82C415.12,-1868.97 415.12,-1859.78 415.12,-1849.87"/>
<polygon fill="black" stroke="black" points="418.63,-1850.04 415.13,-1840.04 411.63,-1850.04 418.63,-1850.04"/>
</g>
<!-- 318 -->
<g id="node24" class="node">
<title>318</title>
<polygon fill="aquamarine" stroke="black" points="415.12,-1711.6 407.93,-1704.4 415.12,-1697.2 422.32,-1704.4 415.12,-1711.6"/>
<text text-anchor="middle" x="389.55" y="-1714.8" font-family="Times New Roman,serif" font-size="14.00">&lt;318&gt;</text>
</g>
<!-- 316&#45;&gt;318 -->
<g id="edge4" class="edge">
<title>316&#45;&gt;318</title>
<path fill="none" stroke="black" d="M415.12,-1763.76C415.12,-1749.96 415.12,-1734.84 415.12,-1723.45"/>
<polygon fill="black" stroke="black" points="418.63,-1723.61 415.13,-1713.61 411.63,-1723.61 418.63,-1723.61"/>
<text text-anchor="middle" x="455.62" y="-1732.8" font-family="Times New Roman,serif" font-size="14.00">graphAnd#387</text>
</g>
<!-- 318&#45;&gt;268 -->
<g id="edge28" class="edge">
<title>318&#45;&gt;268</title>
<path fill="none" stroke="black" d="M410.46,-1701.45C402.48,-1697.94 386,-1689.9 375.12,-1679.2 366.96,-1671.17 359.03,-1662.62 351.36,-1653.71"/>
<polygon fill="black" stroke="black" points="354.18,-1651.62 345.06,-1646.23 348.82,-1656.13 354.18,-1651.62"/>
<text text-anchor="middle" x="403.62" y="-1665.9" font-family="Times New Roman,serif" font-size="14.00">split2#383</text>
</g>
<!-- 318&#45;&gt;310 -->
<g id="edge27" class="edge">
<title>318&#45;&gt;310</title>
<path fill="none" stroke="black" d="M418.23,-1700.04C422.43,-1695.45 430.09,-1686.91 436.12,-1679.2 485.79,-1615.81 538.57,-1539.51 572.37,-1489.36"/>
<polygon fill="black" stroke="black" points="575.14,-1491.51 577.81,-1481.26 569.33,-1487.61 575.14,-1491.51"/>
<text text-anchor="middle" x="474.47" y="-1665.9" font-family="Times New Roman,serif" font-size="14.00">split1#382</text>
</g>
<!-- 319&#45;&gt;272 -->
<g id="edge3" class="edge">
<title>319&#45;&gt;272</title>
<path fill="none" stroke="black" d="M369.12,-74.24C369.12,-64.87 369.12,-47.63 369.12,-33.7"/>
<polygon fill="black" stroke="black" points="372.63,-34.11 369.13,-24.11 365.63,-34.11 372.63,-34.11"/>
<text text-anchor="middle" x="418.25" y="-43.6" font-family="Times New Roman,serif" font-size="14.00">graphOr_end#386</text>
</g>
</g>
</svg>
