<?xml version="1.0" encoding="UTF-8" standalone="no"?>
<!DOCTYPE svg PUBLIC "-//W3C//DTD SVG 1.1//EN"
 "http://www.w3.org/Graphics/SVG/1.1/DTD/svg11.dtd">
<!-- Generated by graphviz version 12.2.1 (20241206.2353)
 -->
<!-- Title: CLG Pages: 1 -->
<svg width="167pt" height="525pt"
 viewBox="0.00 0.00 166.75 525.30" xmlns="http://www.w3.org/2000/svg" xmlns:xlink="http://www.w3.org/1999/xlink">
<g id="graph0" class="graph" transform="scale(1 1) rotate(0) translate(4 521.3)">
<title>CLG</title>
<polygon fill="white" stroke="none" points="-4,4 -4,-521.3 162.75,-521.3 162.75,4 -4,4"/>
<!-- 512 -->
<g id="node1" class="node">
<title>512</title>
<polygon fill="yellow" stroke="black" points="110.88,-183.9 44.62,-183.9 44.62,-147.9 110.88,-147.9 110.88,-183.9"/>
<text text-anchor="middle" x="77.75" y="-160.85" font-family="Times New Roman,serif" font-size="14.00">day &gt;= 1</text>
<text text-anchor="middle" x="30" y="-187.1" font-family="Times New Roman,serif" font-size="14.00">[512]</text>
</g>
<!-- 500 -->
<g id="node2" class="node">
<title>500</title>
<polygon fill="yellow" stroke="black" points="126.25,-95.4 29.25,-95.4 29.25,-59.4 126.25,-59.4 126.25,-95.4"/>
<text text-anchor="middle" x="77.75" y="-72.35" font-family="Times New Roman,serif" font-size="14.00">result = month</text>
<text text-anchor="middle" x="14.62" y="-98.6" font-family="Times New Roman,serif" font-size="14.00">[500]</text>
</g>
<!-- 512&#45;&gt;500 -->
<g id="edge6" class="edge">
<title>512&#45;&gt;500</title>
<path fill="none" stroke="black" d="M77.75,-147.81C77.75,-136.16 77.75,-120.45 77.75,-106.92"/>
<polygon fill="black" stroke="black" points="81.25,-107.26 77.75,-97.26 74.25,-107.26 81.25,-107.26"/>
<text text-anchor="middle" x="118.25" y="-116.6" font-family="Times New Roman,serif" font-size="14.00">graphAnd#621</text>
</g>
<!-- 501 -->
<g id="node3" class="node">
<title>501</title>
<ellipse fill="black" stroke="black" cx="77.75" cy="-11.2" rx="7.2" ry="7.2"/>
<ellipse fill="none" stroke="black" cx="77.75" cy="-11.2" rx="11.2" ry="11.2"/>
<text text-anchor="middle" x="56.42" y="-25.6" font-family="Times New Roman,serif" font-size="14.00">[&#45;1]</text>
</g>
<!-- 500&#45;&gt;501 -->
<g id="edge1" class="edge">
<title>500&#45;&gt;501</title>
<path fill="none" stroke="black" d="M77.75,-59.2C77.75,-51.5 77.75,-42.34 77.75,-34.15"/>
<polygon fill="black" stroke="black" points="81.25,-34.32 77.75,-24.32 74.25,-34.32 81.25,-34.32"/>
</g>
<!-- 502 -->
<g id="node4" class="node">
<title>502</title>
<ellipse fill="black" stroke="black" cx="77.75" cy="-493.6" rx="7.2" ry="7.2"/>
<text text-anchor="middle" x="62.67" y="-504" font-family="Times New Roman,serif" font-size="14.00">[0]</text>
</g>
<!-- 503 -->
<g id="node5" class="node">
<title>503</title>
<polygon fill="yellow" stroke="black" points="112.75,-449.4 42.75,-449.4 42.75,-413.4 112.75,-413.4 112.75,-449.4"/>
<text text-anchor="middle" x="77.75" y="-426.35" font-family="Times New Roman,serif" font-size="14.00">year &gt;= 1</text>
<text text-anchor="middle" x="28.12" y="-452.6" font-family="Times New Roman,serif" font-size="14.00">[503]</text>
</g>
<!-- 502&#45;&gt;503 -->
<g id="edge2" class="edge">
<title>502&#45;&gt;503</title>
<path fill="none" stroke="black" d="M77.75,-486.16C77.75,-480.1 77.75,-470.59 77.75,-461.24"/>
<polygon fill="black" stroke="black" points="81.25,-461.28 77.75,-451.28 74.25,-461.28 81.25,-461.28"/>
</g>
<!-- 506 -->
<g id="node6" class="node">
<title>506</title>
<polygon fill="yellow" stroke="black" points="118.75,-360.9 36.75,-360.9 36.75,-324.9 118.75,-324.9 118.75,-360.9"/>
<text text-anchor="middle" x="77.75" y="-337.85" font-family="Times New Roman,serif" font-size="14.00">month &gt;= 1</text>
<text text-anchor="middle" x="22.12" y="-364.1" font-family="Times New Roman,serif" font-size="14.00">[506]</text>
</g>
<!-- 503&#45;&gt;506 -->
<g id="edge3" class="edge">
<title>503&#45;&gt;506</title>
<path fill="none" stroke="black" d="M77.75,-413.31C77.75,-401.66 77.75,-385.95 77.75,-372.42"/>
<polygon fill="black" stroke="black" points="81.25,-372.76 77.75,-362.76 74.25,-372.76 81.25,-372.76"/>
<text text-anchor="middle" x="118.25" y="-382.1" font-family="Times New Roman,serif" font-size="14.00">graphAnd#614</text>
</g>
<!-- 509 -->
<g id="node7" class="node">
<title>509</title>
<polygon fill="yellow" stroke="black" points="122.12,-272.4 33.38,-272.4 33.38,-236.4 122.12,-236.4 122.12,-272.4"/>
<text text-anchor="middle" x="77.75" y="-249.35" font-family="Times New Roman,serif" font-size="14.00">month &lt;= 12</text>
<text text-anchor="middle" x="18.75" y="-275.6" font-family="Times New Roman,serif" font-size="14.00">[509]</text>
</g>
<!-- 506&#45;&gt;509 -->
<g id="edge4" class="edge">
<title>506&#45;&gt;509</title>
<path fill="none" stroke="black" d="M77.75,-324.81C77.75,-313.16 77.75,-297.45 77.75,-283.92"/>
<polygon fill="black" stroke="black" points="81.25,-284.26 77.75,-274.26 74.25,-284.26 81.25,-284.26"/>
<text text-anchor="middle" x="118.25" y="-293.6" font-family="Times New Roman,serif" font-size="14.00">graphAnd#617</text>
</g>
<!-- 509&#45;&gt;512 -->
<g id="edge5" class="edge">
<title>509&#45;&gt;512</title>
<path fill="none" stroke="black" d="M77.75,-236.31C77.75,-224.66 77.75,-208.95 77.75,-195.42"/>
<polygon fill="black" stroke="black" points="81.25,-195.76 77.75,-185.76 74.25,-195.76 81.25,-195.76"/>
<text text-anchor="middle" x="118.25" y="-205.1" font-family="Times New Roman,serif" font-size="14.00">graphAnd#620</text>
</g>
</g>
</svg>
