<?xml version="1.0" encoding="UTF-8" standalone="no"?>
<!DOCTYPE svg PUBLIC "-//W3C//DTD SVG 1.1//EN"
 "http://www.w3.org/Graphics/SVG/1.1/DTD/svg11.dtd">
<!-- Generated by graphviz version 12.2.1 (20241206.2353)
 -->
<!-- Title: CLG Pages: 1 -->
<svg width="163pt" height="525pt"
 viewBox="0.00 0.00 162.62 525.30" xmlns="http://www.w3.org/2000/svg" xmlns:xlink="http://www.w3.org/1999/xlink">
<g id="graph0" class="graph" transform="scale(1 1) rotate(0) translate(4 521.3)">
<title>CLG</title>
<polygon fill="white" stroke="none" points="-4,4 -4,-521.3 158.62,-521.3 158.62,4 -4,4"/>
<!-- 515 -->
<g id="node1" class="node">
<title>515</title>
<polygon fill="yellow" stroke="black" points="114.25,-95.4 33,-95.4 33,-59.4 114.25,-59.4 114.25,-95.4"/>
<text text-anchor="middle" x="73.62" y="-72.35" font-family="Times New Roman,serif" font-size="14.00">result = day</text>
<text text-anchor="middle" x="18.38" y="-98.6" font-family="Times New Roman,serif" font-size="14.00">[515]</text>
</g>
<!-- 516 -->
<g id="node2" class="node">
<title>516</title>
<ellipse fill="black" stroke="black" cx="73.62" cy="-11.2" rx="7.2" ry="7.2"/>
<ellipse fill="none" stroke="black" cx="73.62" cy="-11.2" rx="11.2" ry="11.2"/>
<text text-anchor="middle" x="52.3" y="-25.6" font-family="Times New Roman,serif" font-size="14.00">[&#45;1]</text>
</g>
<!-- 515&#45;&gt;516 -->
<g id="edge6" class="edge">
<title>515&#45;&gt;516</title>
<path fill="none" stroke="black" d="M73.62,-59.2C73.62,-51.5 73.62,-42.34 73.62,-34.15"/>
<polygon fill="black" stroke="black" points="77.13,-34.32 73.63,-24.32 70.13,-34.32 77.13,-34.32"/>
</g>
<!-- 517 -->
<g id="node3" class="node">
<title>517</title>
<ellipse fill="black" stroke="black" cx="73.62" cy="-493.6" rx="7.2" ry="7.2"/>
<text text-anchor="middle" x="58.55" y="-504" font-family="Times New Roman,serif" font-size="14.00">[0]</text>
</g>
<!-- 518 -->
<g id="node4" class="node">
<title>518</title>
<polygon fill="yellow" stroke="black" points="108.62,-449.4 38.62,-449.4 38.62,-413.4 108.62,-413.4 108.62,-449.4"/>
<text text-anchor="middle" x="73.62" y="-426.35" font-family="Times New Roman,serif" font-size="14.00">year &gt;= 1</text>
<text text-anchor="middle" x="24" y="-452.6" font-family="Times New Roman,serif" font-size="14.00">[518]</text>
</g>
<!-- 517&#45;&gt;518 -->
<g id="edge1" class="edge">
<title>517&#45;&gt;518</title>
<path fill="none" stroke="black" d="M73.62,-486.16C73.62,-480.1 73.62,-470.59 73.62,-461.24"/>
<polygon fill="black" stroke="black" points="77.13,-461.28 73.63,-451.28 70.13,-461.28 77.13,-461.28"/>
</g>
<!-- 521 -->
<g id="node5" class="node">
<title>521</title>
<polygon fill="yellow" stroke="black" points="114.62,-360.9 32.62,-360.9 32.62,-324.9 114.62,-324.9 114.62,-360.9"/>
<text text-anchor="middle" x="73.62" y="-337.85" font-family="Times New Roman,serif" font-size="14.00">month &gt;= 1</text>
<text text-anchor="middle" x="18" y="-364.1" font-family="Times New Roman,serif" font-size="14.00">[521]</text>
</g>
<!-- 518&#45;&gt;521 -->
<g id="edge2" class="edge">
<title>518&#45;&gt;521</title>
<path fill="none" stroke="black" d="M73.62,-413.31C73.62,-401.66 73.62,-385.95 73.62,-372.42"/>
<polygon fill="black" stroke="black" points="77.13,-372.76 73.63,-362.76 70.13,-372.76 77.13,-372.76"/>
<text text-anchor="middle" x="114.12" y="-382.1" font-family="Times New Roman,serif" font-size="14.00">graphAnd#628</text>
</g>
<!-- 524 -->
<g id="node6" class="node">
<title>524</title>
<polygon fill="yellow" stroke="black" points="118,-272.4 29.25,-272.4 29.25,-236.4 118,-236.4 118,-272.4"/>
<text text-anchor="middle" x="73.62" y="-249.35" font-family="Times New Roman,serif" font-size="14.00">month &lt;= 12</text>
<text text-anchor="middle" x="14.62" y="-275.6" font-family="Times New Roman,serif" font-size="14.00">[524]</text>
</g>
<!-- 521&#45;&gt;524 -->
<g id="edge3" class="edge">
<title>521&#45;&gt;524</title>
<path fill="none" stroke="black" d="M73.62,-324.81C73.62,-313.16 73.62,-297.45 73.62,-283.92"/>
<polygon fill="black" stroke="black" points="77.13,-284.26 73.63,-274.26 70.13,-284.26 77.13,-284.26"/>
<text text-anchor="middle" x="114.12" y="-293.6" font-family="Times New Roman,serif" font-size="14.00">graphAnd#631</text>
</g>
<!-- 527 -->
<g id="node7" class="node">
<title>527</title>
<polygon fill="yellow" stroke="black" points="106.75,-183.9 40.5,-183.9 40.5,-147.9 106.75,-147.9 106.75,-183.9"/>
<text text-anchor="middle" x="73.62" y="-160.85" font-family="Times New Roman,serif" font-size="14.00">day &gt;= 1</text>
<text text-anchor="middle" x="25.88" y="-187.1" font-family="Times New Roman,serif" font-size="14.00">[527]</text>
</g>
<!-- 524&#45;&gt;527 -->
<g id="edge4" class="edge">
<title>524&#45;&gt;527</title>
<path fill="none" stroke="black" d="M73.62,-236.31C73.62,-224.66 73.62,-208.95 73.62,-195.42"/>
<polygon fill="black" stroke="black" points="77.13,-195.76 73.63,-185.76 70.13,-195.76 77.13,-195.76"/>
<text text-anchor="middle" x="114.12" y="-205.1" font-family="Times New Roman,serif" font-size="14.00">graphAnd#634</text>
</g>
<!-- 527&#45;&gt;515 -->
<g id="edge5" class="edge">
<title>527&#45;&gt;515</title>
<path fill="none" stroke="black" d="M73.62,-147.81C73.62,-136.16 73.62,-120.45 73.62,-106.92"/>
<polygon fill="black" stroke="black" points="77.13,-107.26 73.63,-97.26 70.13,-107.26 77.13,-107.26"/>
<text text-anchor="middle" x="114.12" y="-116.6" font-family="Times New Roman,serif" font-size="14.00">graphAnd#635</text>
</g>
</g>
</svg>
