<?xml version="1.0" encoding="UTF-8" standalone="no"?>
<!DOCTYPE svg PUBLIC "-//W3C//DTD SVG 1.1//EN"
 "http://www.w3.org/Graphics/SVG/1.1/DTD/svg11.dtd">
<!-- Generated by graphviz version 12.2.1 (20241206.2353)
 -->
<!-- Title: CLG Pages: 1 -->
<svg width="174pt" height="298pt"
 viewBox="0.00 0.00 174.25 297.80" xmlns="http://www.w3.org/2000/svg" xmlns:xlink="http://www.w3.org/1999/xlink">
<g id="graph0" class="graph" transform="scale(1 1) rotate(0) translate(4 293.8)">
<title>CLG</title>
<polygon fill="white" stroke="none" points="-4,4 -4,-293.8 170.25,-293.8 170.25,4 -4,4"/>
<!-- 168 -->
<g id="node1" class="node">
<title>168</title>
<polygon fill="yellow" stroke="black" points="133.75,-95.4 36.75,-95.4 36.75,-59.4 133.75,-59.4 133.75,-95.4"/>
<text text-anchor="middle" x="85.25" y="-72.35" font-family="Times New Roman,serif" font-size="14.00">result = month</text>
<text text-anchor="middle" x="22.12" y="-98.6" font-family="Times New Roman,serif" font-size="14.00">[168]</text>
</g>
<!-- 169 -->
<g id="node2" class="node">
<title>169</title>
<ellipse fill="black" stroke="black" cx="85.25" cy="-11.2" rx="7.2" ry="7.2"/>
<ellipse fill="none" stroke="black" cx="85.25" cy="-11.2" rx="11.2" ry="11.2"/>
<text text-anchor="middle" x="63.92" y="-25.6" font-family="Times New Roman,serif" font-size="14.00">[&#45;1]</text>
</g>
<!-- 168&#45;&gt;169 -->
<g id="edge1" class="edge">
<title>168&#45;&gt;169</title>
<path fill="none" stroke="black" d="M85.25,-59.2C85.25,-51.5 85.25,-42.34 85.25,-34.15"/>
<polygon fill="black" stroke="black" points="88.75,-34.32 85.25,-24.32 81.75,-34.32 88.75,-34.32"/>
</g>
<!-- 170 -->
<g id="node3" class="node">
<title>170</title>
<ellipse fill="black" stroke="black" cx="85.25" cy="-266.1" rx="7.2" ry="7.2"/>
<text text-anchor="middle" x="70.17" y="-276.5" font-family="Times New Roman,serif" font-size="14.00">[0]</text>
</g>
<!-- 171 -->
<g id="node4" class="node">
<title>171</title>
<polygon fill="yellow" stroke="black" points="141.25,-221.9 29.25,-221.9 29.25,-147.9 141.25,-147.9 141.25,-221.9"/>
<text text-anchor="middle" x="85.25" y="-204.6" font-family="Times New Roman,serif" font-size="14.00">year &gt;= 1 and</text>
<text text-anchor="middle" x="85.25" y="-188.1" font-family="Times New Roman,serif" font-size="14.00">month &gt;= 1 and</text>
<text text-anchor="middle" x="85.25" y="-171.6" font-family="Times New Roman,serif" font-size="14.00">month &lt;= 12 and</text>
<text text-anchor="middle" x="85.25" y="-155.1" font-family="Times New Roman,serif" font-size="14.00">day &gt;= 1</text>
<text text-anchor="middle" x="14.62" y="-225.1" font-family="Times New Roman,serif" font-size="14.00">[171]</text>
</g>
<!-- 170&#45;&gt;171 -->
<g id="edge2" class="edge">
<title>170&#45;&gt;171</title>
<path fill="none" stroke="black" d="M85.25,-258.62C85.25,-252.77 85.25,-243.58 85.25,-233.67"/>
<polygon fill="black" stroke="black" points="88.75,-233.84 85.25,-223.84 81.75,-233.84 88.75,-233.84"/>
</g>
<!-- 171&#45;&gt;168 -->
<g id="edge3" class="edge">
<title>171&#45;&gt;168</title>
<path fill="none" stroke="black" d="M85.25,-147.59C85.25,-134.31 85.25,-119.49 85.25,-106.98"/>
<polygon fill="black" stroke="black" points="88.75,-107.33 85.25,-97.33 81.75,-107.33 88.75,-107.33"/>
<text text-anchor="middle" x="125.75" y="-116.6" font-family="Times New Roman,serif" font-size="14.00">graphAnd#205</text>
</g>
</g>
</svg>
