<?xml version="1.0" encoding="UTF-8" standalone="no"?>
<!DOCTYPE svg PUBLIC "-//W3C//DTD SVG 1.1//EN"
 "http://www.w3.org/Graphics/SVG/1.1/DTD/svg11.dtd">
<!-- Generated by graphviz version 13.1.2 (20250808.2320)
 -->
<!-- Title: CLG Pages: 1 -->
<svg width="1069pt" height="3069pt"
 viewBox="0.00 0.00 1069.00 3069.00" xmlns="http://www.w3.org/2000/svg" xmlns:xlink="http://www.w3.org/1999/xlink">
<g id="graph0" class="graph" transform="scale(1 1) rotate(0) translate(4 3065)">
<title>CLG</title>
<polygon fill="white" stroke="none" points="-4,4 -4,-3065 1064.75,-3065 1064.75,4 -4,4"/>
<!-- 192 -->
<g id="node1" class="node">
<title>192</title>
<polygon fill="yellow" stroke="black" points="600.25,-610 426.75,-610 426.75,-519.5 600.25,-519.5 600.25,-610"/>
<text xml:space="preserve" text-anchor="middle" x="513.5" y="-592.7" font-family="Times New Roman,serif" font-size="14.00">self.year.mod(400) &lt;&gt; 0 and</text>
<text xml:space="preserve" text-anchor="middle" x="513.5" y="-576.2" font-family="Times New Roman,serif" font-size="14.00">self.year.mod(4) &lt;&gt; 0 and</text>
<text xml:space="preserve" text-anchor="middle" x="513.5" y="-559.7" font-family="Times New Roman,serif" font-size="14.00">self.year.mod(100) &lt;&gt; 0 or</text>
<text xml:space="preserve" text-anchor="middle" x="513.5" y="-543.2" font-family="Times New Roman,serif" font-size="14.00">self.year.mod(4) = 0 and</text>
<text xml:space="preserve" text-anchor="middle" x="513.5" y="-526.7" font-family="Times New Roman,serif" font-size="14.00">self.year.mod(100) = 0</text>
<text xml:space="preserve" text-anchor="middle" x="412.12" y="-613.2" font-family="Times New Roman,serif" font-size="14.00">[192]</text>
</g>
<!-- 195 -->
<g id="node2" class="node">
<title>195</title>
<polygon fill="yellow" stroke="black" points="577.62,-467 481.38,-467 481.38,-431 577.62,-431 577.62,-467"/>
<text xml:space="preserve" text-anchor="middle" x="529.5" y="-443.95" font-family="Times New Roman,serif" font-size="14.00">self.day &lt;= 28</text>
<text xml:space="preserve" text-anchor="middle" x="466.75" y="-470.2" font-family="Times New Roman,serif" font-size="14.00">[195]</text>
</g>
<!-- 192&#45;&gt;195 -->
<g id="edge6" class="edge">
<title>192&#45;&gt;195</title>
<path fill="none" stroke="black" d="M519.78,-519.12C521.7,-505.49 523.75,-490.87 525.48,-478.61"/>
<polygon fill="black" stroke="black" points="528.94,-479.14 526.86,-468.75 522,-478.16 528.94,-479.14"/>
<text xml:space="preserve" text-anchor="middle" x="564.82" y="-488.2" font-family="Times New Roman,serif" font-size="14.00">graphAnd#221</text>
</g>
<!-- 198 -->
<g id="node4" class="node">
<title>198</title>
<polygon fill="aquamarine" stroke="black" points="529.5,-378.5 522.3,-371.3 529.5,-364.1 536.7,-371.3 529.5,-378.5"/>
<text xml:space="preserve" text-anchor="middle" x="503.93" y="-381.7" font-family="Times New Roman,serif" font-size="14.00">&lt;198&gt;</text>
</g>
<!-- 195&#45;&gt;198 -->
<g id="edge10" class="edge">
<title>195&#45;&gt;198</title>
<path fill="none" stroke="black" d="M529.5,-430.82C529.5,-418.78 529.5,-402.7 529.5,-390.45"/>
<polygon fill="black" stroke="black" points="533,-390.54 529.5,-380.54 526,-390.54 533,-390.54"/>
<text xml:space="preserve" text-anchor="middle" x="563.62" y="-399.7" font-family="Times New Roman,serif" font-size="14.00">merge2#226</text>
</g>
<!-- 197 -->
<g id="node3" class="node">
<title>197</title>
<polygon fill="aquamarine" stroke="black" points="533.5,-696.4 526.3,-689.2 533.5,-682 540.7,-689.2 533.5,-696.4"/>
<text xml:space="preserve" text-anchor="middle" x="507.93" y="-699.6" font-family="Times New Roman,serif" font-size="14.00">&lt;197&gt;</text>
</g>
<!-- 197&#45;&gt;192 -->
<g id="edge8" class="edge">
<title>197&#45;&gt;192</title>
<path fill="none" stroke="black" d="M532.54,-682.29C530.71,-671.12 526.58,-645.82 522.63,-621.64"/>
<polygon fill="black" stroke="black" points="526.09,-621.1 521.02,-611.79 519.18,-622.23 526.09,-621.1"/>
<text xml:space="preserve" text-anchor="middle" x="557.68" y="-640.95" font-family="Times New Roman,serif" font-size="14.00">split2#224</text>
</g>
<!-- 186 -->
<g id="node24" class="node">
<title>186</title>
<polygon fill="yellow" stroke="black" points="775,-593.5 618,-593.5 618,-536 775,-536 775,-593.5"/>
<text xml:space="preserve" text-anchor="middle" x="696.5" y="-576.2" font-family="Times New Roman,serif" font-size="14.00">self.year.mod(400) = 0 or</text>
<text xml:space="preserve" text-anchor="middle" x="696.5" y="-559.7" font-family="Times New Roman,serif" font-size="14.00">self.year.mod(4) = 0 and</text>
<text xml:space="preserve" text-anchor="middle" x="696.5" y="-543.2" font-family="Times New Roman,serif" font-size="14.00">self.year.mod(100) &lt;&gt; 0</text>
<text xml:space="preserve" text-anchor="middle" x="632.62" y="-596.7" font-family="Times New Roman,serif" font-size="14.00">[186]</text>
</g>
<!-- 197&#45;&gt;186 -->
<g id="edge7" class="edge">
<title>197&#45;&gt;186</title>
<path fill="none" stroke="black" d="M538.83,-686.62C549.29,-683.39 572.99,-675.33 590.5,-664 617.34,-646.62 643.73,-622.2 663.46,-602.05"/>
<polygon fill="black" stroke="black" points="665.76,-604.71 670.17,-595.08 660.71,-599.86 665.76,-604.71"/>
<text xml:space="preserve" text-anchor="middle" x="662.76" y="-640.95" font-family="Times New Roman,serif" font-size="14.00">split1#223</text>
</g>
<!-- 200 -->
<g id="node6" class="node">
<title>200</title>
<polygon fill="aquamarine" stroke="black" points="462.5,-311.6 455.3,-304.4 462.5,-297.2 469.7,-304.4 462.5,-311.6"/>
<text xml:space="preserve" text-anchor="middle" x="436.93" y="-314.8" font-family="Times New Roman,serif" font-size="14.00">&lt;200&gt;</text>
</g>
<!-- 198&#45;&gt;200 -->
<g id="edge16" class="edge">
<title>198&#45;&gt;200</title>
<path fill="none" stroke="black" d="M526.27,-367.17C516.92,-358.11 489.5,-331.55 473.83,-316.37"/>
<polygon fill="black" stroke="black" points="476.56,-314.15 466.94,-309.7 471.69,-319.18 476.56,-314.15"/>
<text xml:space="preserve" text-anchor="middle" x="538.1" y="-332.8" font-family="Times New Roman,serif" font-size="14.00">merge2#234</text>
</g>
<!-- 199 -->
<g id="node5" class="node">
<title>199</title>
<polygon fill="aquamarine" stroke="black" points="454.5,-909.3 447.3,-902.1 454.5,-894.9 461.7,-902.1 454.5,-909.3"/>
<text xml:space="preserve" text-anchor="middle" x="428.93" y="-912.5" font-family="Times New Roman,serif" font-size="14.00">&lt;199&gt;</text>
</g>
<!-- 177 -->
<g id="node21" class="node">
<title>177</title>
<polygon fill="yellow" stroke="black" points="451.5,-822.9 339.5,-822.9 339.5,-748.9 451.5,-748.9 451.5,-822.9"/>
<text xml:space="preserve" text-anchor="middle" x="395.5" y="-805.6" font-family="Times New Roman,serif" font-size="14.00">self.month = 4 or</text>
<text xml:space="preserve" text-anchor="middle" x="395.5" y="-789.1" font-family="Times New Roman,serif" font-size="14.00">self.month = 6 or</text>
<text xml:space="preserve" text-anchor="middle" x="395.5" y="-772.6" font-family="Times New Roman,serif" font-size="14.00">self.month = 9 or</text>
<text xml:space="preserve" text-anchor="middle" x="395.5" y="-756.1" font-family="Times New Roman,serif" font-size="14.00">self.month = 11</text>
<text xml:space="preserve" text-anchor="middle" x="324.88" y="-826.1" font-family="Times New Roman,serif" font-size="14.00">[177]</text>
</g>
<!-- 199&#45;&gt;177 -->
<g id="edge13" class="edge">
<title>199&#45;&gt;177</title>
<path fill="none" stroke="black" d="M452.05,-897.03C449.19,-892.26 444.37,-884.08 440.5,-876.9 432.9,-862.79 424.97,-847.24 417.92,-833.09"/>
<polygon fill="black" stroke="black" points="421.21,-831.83 413.63,-824.43 414.93,-834.94 421.21,-831.83"/>
<text xml:space="preserve" text-anchor="middle" x="469" y="-853.85" font-family="Times New Roman,serif" font-size="14.00">split1#231</text>
</g>
<!-- 183 -->
<g id="node23" class="node">
<title>183</title>
<polygon fill="yellow" stroke="black" points="597.75,-822.9 469.25,-822.9 469.25,-748.9 597.75,-748.9 597.75,-822.9"/>
<text xml:space="preserve" text-anchor="middle" x="533.5" y="-805.6" font-family="Times New Roman,serif" font-size="14.00">self.month &lt;&gt; 4 and</text>
<text xml:space="preserve" text-anchor="middle" x="533.5" y="-789.1" font-family="Times New Roman,serif" font-size="14.00">self.month &lt;&gt; 6 and</text>
<text xml:space="preserve" text-anchor="middle" x="533.5" y="-772.6" font-family="Times New Roman,serif" font-size="14.00">self.month &lt;&gt; 9 and</text>
<text xml:space="preserve" text-anchor="middle" x="533.5" y="-756.1" font-family="Times New Roman,serif" font-size="14.00">self.month &lt;&gt; 11</text>
<text xml:space="preserve" text-anchor="middle" x="454.62" y="-826.1" font-family="Times New Roman,serif" font-size="14.00">[183]</text>
</g>
<!-- 199&#45;&gt;183 -->
<g id="edge14" class="edge">
<title>199&#45;&gt;183</title>
<path fill="none" stroke="black" d="M459.74,-899.45C468.67,-896.39 486.89,-889.01 497.5,-876.9 508.21,-864.68 515.96,-848.87 521.46,-833.92"/>
<polygon fill="black" stroke="black" points="524.7,-835.28 524.59,-824.68 518.07,-833.03 524.7,-835.28"/>
<text xml:space="preserve" text-anchor="middle" x="546.29" y="-853.85" font-family="Times New Roman,serif" font-size="14.00">split2#232</text>
</g>
<!-- 202 -->
<g id="node8" class="node">
<title>202</title>
<polygon fill="aquamarine" stroke="black" points="462.5,-244.7 455.3,-237.5 462.5,-230.3 469.7,-237.5 462.5,-244.7"/>
<text xml:space="preserve" text-anchor="middle" x="436.93" y="-247.9" font-family="Times New Roman,serif" font-size="14.00">&lt;202&gt;</text>
</g>
<!-- 200&#45;&gt;202 -->
<g id="edge22" class="edge">
<title>200&#45;&gt;202</title>
<path fill="none" stroke="black" d="M462.5,-296.94C462.5,-287.61 462.5,-270.01 462.5,-256.55"/>
<polygon fill="black" stroke="black" points="466,-256.84 462.5,-246.84 459,-256.84 466,-256.84"/>
<text xml:space="preserve" text-anchor="middle" x="496.62" y="-265.9" font-family="Times New Roman,serif" font-size="14.00">merge2#242</text>
</g>
<!-- 201 -->
<g id="node7" class="node">
<title>201</title>
<polygon fill="aquamarine" stroke="black" points="309.5,-1171.7 302.3,-1164.5 309.5,-1157.3 316.7,-1164.5 309.5,-1171.7"/>
<text xml:space="preserve" text-anchor="middle" x="283.93" y="-1174.9" font-family="Times New Roman,serif" font-size="14.00">&lt;201&gt;</text>
</g>
<!-- 168 -->
<g id="node18" class="node">
<title>168</title>
<polygon fill="yellow" stroke="black" points="368.88,-1085.3 250.12,-1085.3 250.12,-961.8 368.88,-961.8 368.88,-1085.3"/>
<text xml:space="preserve" text-anchor="middle" x="309.5" y="-1068" font-family="Times New Roman,serif" font-size="14.00">self.month = 1 or</text>
<text xml:space="preserve" text-anchor="middle" x="309.5" y="-1051.5" font-family="Times New Roman,serif" font-size="14.00">self.month = 3 or</text>
<text xml:space="preserve" text-anchor="middle" x="309.5" y="-1035" font-family="Times New Roman,serif" font-size="14.00">self.month = 5 or</text>
<text xml:space="preserve" text-anchor="middle" x="309.5" y="-1018.5" font-family="Times New Roman,serif" font-size="14.00">self.month = 7 or</text>
<text xml:space="preserve" text-anchor="middle" x="309.5" y="-1002" font-family="Times New Roman,serif" font-size="14.00">self.month = 8 or</text>
<text xml:space="preserve" text-anchor="middle" x="309.5" y="-985.5" font-family="Times New Roman,serif" font-size="14.00">self.month = 10 or</text>
<text xml:space="preserve" text-anchor="middle" x="309.5" y="-969" font-family="Times New Roman,serif" font-size="14.00">self.month = 12</text>
<text xml:space="preserve" text-anchor="middle" x="235.5" y="-1088.5" font-family="Times New Roman,serif" font-size="14.00">[168]</text>
</g>
<!-- 201&#45;&gt;168 -->
<g id="edge19" class="edge">
<title>201&#45;&gt;168</title>
<path fill="none" stroke="black" d="M309.5,-1156.8C309.5,-1145.47 309.5,-1121.35 309.5,-1096.78"/>
<polygon fill="black" stroke="black" points="313,-1097.01 309.5,-1087.01 306,-1097.01 313,-1097.01"/>
<text xml:space="preserve" text-anchor="middle" x="338" y="-1116.25" font-family="Times New Roman,serif" font-size="14.00">split1#239</text>
</g>
<!-- 174 -->
<g id="node20" class="node">
<title>174</title>
<polygon fill="yellow" stroke="black" points="522.12,-1085.3 386.88,-1085.3 386.88,-961.8 522.12,-961.8 522.12,-1085.3"/>
<text xml:space="preserve" text-anchor="middle" x="454.5" y="-1068" font-family="Times New Roman,serif" font-size="14.00">self.month &lt;&gt; 1 and</text>
<text xml:space="preserve" text-anchor="middle" x="454.5" y="-1051.5" font-family="Times New Roman,serif" font-size="14.00">self.month &lt;&gt; 3 and</text>
<text xml:space="preserve" text-anchor="middle" x="454.5" y="-1035" font-family="Times New Roman,serif" font-size="14.00">self.month &lt;&gt; 5 and</text>
<text xml:space="preserve" text-anchor="middle" x="454.5" y="-1018.5" font-family="Times New Roman,serif" font-size="14.00">self.month &lt;&gt; 7 and</text>
<text xml:space="preserve" text-anchor="middle" x="454.5" y="-1002" font-family="Times New Roman,serif" font-size="14.00">self.month &lt;&gt; 8 and</text>
<text xml:space="preserve" text-anchor="middle" x="454.5" y="-985.5" font-family="Times New Roman,serif" font-size="14.00">self.month &lt;&gt; 10 and</text>
<text xml:space="preserve" text-anchor="middle" x="454.5" y="-969" font-family="Times New Roman,serif" font-size="14.00">self.month &lt;&gt; 12</text>
<text xml:space="preserve" text-anchor="middle" x="372.25" y="-1088.5" font-family="Times New Roman,serif" font-size="14.00">[174]</text>
</g>
<!-- 201&#45;&gt;174 -->
<g id="edge20" class="edge">
<title>201&#45;&gt;174</title>
<path fill="none" stroke="black" d="M315.07,-1162.39C326.46,-1159.89 352.84,-1152.96 370.5,-1139.3 386.4,-1127 400.69,-1110.92 412.77,-1094.7"/>
<polygon fill="black" stroke="black" points="415.37,-1097.09 418.37,-1086.93 409.69,-1093 415.37,-1097.09"/>
<text xml:space="preserve" text-anchor="middle" x="434.44" y="-1116.25" font-family="Times New Roman,serif" font-size="14.00">split2#240</text>
</g>
<!-- 207 -->
<g id="node10" class="node">
<title>207</title>
<polygon fill="yellow" stroke="black" points="756,-177.8 671,-177.8 671,-141.8 756,-141.8 756,-177.8"/>
<text xml:space="preserve" text-anchor="middle" x="713.5" y="-154.75" font-family="Times New Roman,serif" font-size="14.00">result = year</text>
<text xml:space="preserve" text-anchor="middle" x="656.38" y="-181" font-family="Times New Roman,serif" font-size="14.00">[207]</text>
</g>
<!-- 202&#45;&gt;207 -->
<g id="edge25" class="edge">
<title>202&#45;&gt;207</title>
<path fill="none" stroke="black" d="M467.74,-234.92C492.03,-227.59 595.19,-196.48 659.89,-176.97"/>
<polygon fill="black" stroke="black" points="660.7,-180.38 669.26,-174.14 658.68,-173.68 660.7,-180.38"/>
<text xml:space="preserve" text-anchor="middle" x="636.03" y="-199" font-family="Times New Roman,serif" font-size="14.00">graphAnd#250</text>
</g>
<!-- 204 -->
<g id="node9" class="node">
<title>204</title>
<polygon fill="yellow" stroke="black" points="535.75,-2172.7 29.25,-2172.7 29.25,-1851.2 535.75,-1851.2 535.75,-2172.7"/>
<text xml:space="preserve" text-anchor="middle" x="282.5" y="-2155.4" font-family="Times New Roman,serif" font-size="14.00">self.year &gt;= 1 and</text>
<text xml:space="preserve" text-anchor="middle" x="282.5" y="-2138.9" font-family="Times New Roman,serif" font-size="14.00">self.month &gt;= 1 and</text>
<text xml:space="preserve" text-anchor="middle" x="282.5" y="-2122.4" font-family="Times New Roman,serif" font-size="14.00">self.month &lt;= 12 and</text>
<text xml:space="preserve" text-anchor="middle" x="282.5" y="-2105.9" font-family="Times New Roman,serif" font-size="14.00">self.day &gt;= 1 and</text>
<text xml:space="preserve" text-anchor="middle" x="282.5" y="-2089.4" font-family="Times New Roman,serif" font-size="14.00">IfExp ConditionNode:(self.month = 1 or</text>
<text xml:space="preserve" text-anchor="middle" x="282.5" y="-2072.9" font-family="Times New Roman,serif" font-size="14.00">self.month = 3 or</text>
<text xml:space="preserve" text-anchor="middle" x="282.5" y="-2056.4" font-family="Times New Roman,serif" font-size="14.00">self.month = 5 or</text>
<text xml:space="preserve" text-anchor="middle" x="282.5" y="-2039.9" font-family="Times New Roman,serif" font-size="14.00">self.month = 7 or</text>
<text xml:space="preserve" text-anchor="middle" x="282.5" y="-2023.4" font-family="Times New Roman,serif" font-size="14.00">self.month = 8 or</text>
<text xml:space="preserve" text-anchor="middle" x="282.5" y="-2006.9" font-family="Times New Roman,serif" font-size="14.00">self.month = 10 or</text>
<text xml:space="preserve" text-anchor="middle" x="282.5" y="-1990.4" font-family="Times New Roman,serif" font-size="14.00">self.month = 12</text>
<text xml:space="preserve" text-anchor="middle" x="282.5" y="-1973.9" font-family="Times New Roman,serif" font-size="14.00">) thenNode: (self.day &lt;= 31) elseNode: (IfExp ConditionNode:(self.month = 4 or</text>
<text xml:space="preserve" text-anchor="middle" x="282.5" y="-1957.4" font-family="Times New Roman,serif" font-size="14.00">self.month = 6 or</text>
<text xml:space="preserve" text-anchor="middle" x="282.5" y="-1940.9" font-family="Times New Roman,serif" font-size="14.00">self.month = 9 or</text>
<text xml:space="preserve" text-anchor="middle" x="282.5" y="-1924.4" font-family="Times New Roman,serif" font-size="14.00">self.month = 11</text>
<text xml:space="preserve" text-anchor="middle" x="282.5" y="-1907.9" font-family="Times New Roman,serif" font-size="14.00">) thenNode: (self.day &lt;= 30) elseNode: (IfExp ConditionNode:(self.year.mod(400) = 0 or</text>
<text xml:space="preserve" text-anchor="middle" x="282.5" y="-1891.4" font-family="Times New Roman,serif" font-size="14.00">self.year.mod(4) = 0 and</text>
<text xml:space="preserve" text-anchor="middle" x="282.5" y="-1874.9" font-family="Times New Roman,serif" font-size="14.00">self.year.mod(100) &lt;&gt; 0</text>
<text xml:space="preserve" text-anchor="middle" x="282.5" y="-1858.4" font-family="Times New Roman,serif" font-size="14.00">) thenNode: (self.day &lt;= 29) elseNode: (self.day &lt;= 28)))</text>
<text xml:space="preserve" text-anchor="middle" x="14.62" y="-2175.9" font-family="Times New Roman,serif" font-size="14.00">[204]</text>
</g>
<!-- 204&#45;&gt;201 -->
<g id="edge23" class="edge">
<title>204&#45;&gt;201</title>
<path fill="none" stroke="black" d="M287.61,-1850.93C294.5,-1635.31 306.21,-1268.6 308.92,-1183.51"/>
<polygon fill="black" stroke="black" points="312.42,-1183.78 309.24,-1173.67 305.42,-1183.55 312.42,-1183.78"/>
<text xml:space="preserve" text-anchor="middle" x="348.93" y="-1192.9" font-family="Times New Roman,serif" font-size="14.00">graphAnd#246</text>
</g>
<!-- 213 -->
<g id="node14" class="node">
<title>213</title>
<polygon fill="aquamarine" stroke="black" points="760.5,-89.3 753.3,-82.1 760.5,-74.9 767.7,-82.1 760.5,-89.3"/>
<text xml:space="preserve" text-anchor="middle" x="734.92" y="-92.5" font-family="Times New Roman,serif" font-size="14.00">&lt;213&gt;</text>
</g>
<!-- 207&#45;&gt;213 -->
<g id="edge1" class="edge">
<title>207&#45;&gt;213</title>
<path fill="none" stroke="black" d="M713.4,-141.76C714.1,-131.06 716.46,-117.43 723.25,-107.3 728.56,-99.39 737.41,-93.48 745.16,-89.48"/>
<polygon fill="black" stroke="black" points="746.38,-92.77 754.08,-85.49 743.52,-86.38 746.38,-92.77"/>
<text xml:space="preserve" text-anchor="middle" x="757.38" y="-110.5" font-family="Times New Roman,serif" font-size="14.00">merge1#256</text>
</g>
<!-- 209 -->
<g id="node11" class="node">
<title>209</title>
<ellipse fill="black" stroke="black" cx="544.5" cy="-3037.3" rx="7.2" ry="7.2"/>
<text xml:space="preserve" text-anchor="middle" x="529.42" y="-3047.7" font-family="Times New Roman,serif" font-size="14.00">[0]</text>
</g>
<!-- 210 -->
<g id="node12" class="node">
<title>210</title>
<polygon fill="yellow" stroke="black" points="600.5,-2993.1 488.5,-2993.1 488.5,-2919.1 600.5,-2919.1 600.5,-2993.1"/>
<text xml:space="preserve" text-anchor="middle" x="544.5" y="-2975.8" font-family="Times New Roman,serif" font-size="14.00">year &gt;= 1 and</text>
<text xml:space="preserve" text-anchor="middle" x="544.5" y="-2959.3" font-family="Times New Roman,serif" font-size="14.00">month &gt;= 1 and</text>
<text xml:space="preserve" text-anchor="middle" x="544.5" y="-2942.8" font-family="Times New Roman,serif" font-size="14.00">month &lt;= 12 and</text>
<text xml:space="preserve" text-anchor="middle" x="544.5" y="-2926.3" font-family="Times New Roman,serif" font-size="14.00">day &gt;= 1</text>
<text xml:space="preserve" text-anchor="middle" x="473.88" y="-2996.3" font-family="Times New Roman,serif" font-size="14.00">[210]</text>
</g>
<!-- 209&#45;&gt;210 -->
<g id="edge26" class="edge">
<title>209&#45;&gt;210</title>
<path fill="none" stroke="black" d="M544.5,-3029.82C544.5,-3023.97 544.5,-3014.78 544.5,-3004.87"/>
<polygon fill="black" stroke="black" points="548,-3005.04 544.5,-2995.04 541,-3005.04 548,-3005.04"/>
</g>
<!-- 212 -->
<g id="node13" class="node">
<title>212</title>
<polygon fill="aquamarine" stroke="black" points="544.5,-2866.6 537.3,-2859.4 544.5,-2852.2 551.7,-2859.4 544.5,-2866.6"/>
<text xml:space="preserve" text-anchor="middle" x="518.92" y="-2869.8" font-family="Times New Roman,serif" font-size="14.00">&lt;212&gt;</text>
</g>
<!-- 210&#45;&gt;212 -->
<g id="edge4" class="edge">
<title>210&#45;&gt;212</title>
<path fill="none" stroke="black" d="M544.5,-2918.76C544.5,-2904.96 544.5,-2889.84 544.5,-2878.45"/>
<polygon fill="black" stroke="black" points="548,-2878.61 544.5,-2868.61 541,-2878.61 548,-2878.61"/>
<text xml:space="preserve" text-anchor="middle" x="585" y="-2887.8" font-family="Times New Roman,serif" font-size="14.00">graphAnd#259</text>
</g>
<!-- 212&#45;&gt;204 -->
<g id="edge27" class="edge">
<title>212&#45;&gt;204</title>
<path fill="none" stroke="black" d="M542.96,-2853.43C527.99,-2805.11 407.21,-2415.38 335.49,-2183.96"/>
<polygon fill="black" stroke="black" points="338.87,-2183.02 332.56,-2174.5 332.18,-2185.09 338.87,-2183.02"/>
<text xml:space="preserve" text-anchor="middle" x="562.59" y="-2820.9" font-family="Times New Roman,serif" font-size="14.00">split1#254</text>
</g>
<!-- 162 -->
<g id="node15" class="node">
<title>162</title>
<polygon fill="yellow" stroke="black" points="1060.75,-2799.7 554.25,-2799.7 554.25,-1224.2 1060.75,-1224.2 1060.75,-2799.7"/>
<text xml:space="preserve" text-anchor="middle" x="807.5" y="-2782.4" font-family="Times New Roman,serif" font-size="14.00">self.year &lt; 1 and</text>
<text xml:space="preserve" text-anchor="middle" x="807.5" y="-2765.9" font-family="Times New Roman,serif" font-size="14.00">self.month &gt;= 1 and</text>
<text xml:space="preserve" text-anchor="middle" x="807.5" y="-2749.4" font-family="Times New Roman,serif" font-size="14.00">self.month &lt;= 12 and</text>
<text xml:space="preserve" text-anchor="middle" x="807.5" y="-2732.9" font-family="Times New Roman,serif" font-size="14.00">self.day &gt;= 1 and</text>
<text xml:space="preserve" text-anchor="middle" x="807.5" y="-2716.4" font-family="Times New Roman,serif" font-size="14.00">IfExp ConditionNode:(self.month = 1 or</text>
<text xml:space="preserve" text-anchor="middle" x="807.5" y="-2699.9" font-family="Times New Roman,serif" font-size="14.00">self.month = 3 or</text>
<text xml:space="preserve" text-anchor="middle" x="807.5" y="-2683.4" font-family="Times New Roman,serif" font-size="14.00">self.month = 5 or</text>
<text xml:space="preserve" text-anchor="middle" x="807.5" y="-2666.9" font-family="Times New Roman,serif" font-size="14.00">self.month = 7 or</text>
<text xml:space="preserve" text-anchor="middle" x="807.5" y="-2650.4" font-family="Times New Roman,serif" font-size="14.00">self.month = 8 or</text>
<text xml:space="preserve" text-anchor="middle" x="807.5" y="-2633.9" font-family="Times New Roman,serif" font-size="14.00">self.month = 10 or</text>
<text xml:space="preserve" text-anchor="middle" x="807.5" y="-2617.4" font-family="Times New Roman,serif" font-size="14.00">self.month = 12</text>
<text xml:space="preserve" text-anchor="middle" x="807.5" y="-2600.9" font-family="Times New Roman,serif" font-size="14.00">) thenNode: (self.day &lt;= 31) elseNode: (IfExp ConditionNode:(self.month = 4 or</text>
<text xml:space="preserve" text-anchor="middle" x="807.5" y="-2584.4" font-family="Times New Roman,serif" font-size="14.00">self.month = 6 or</text>
<text xml:space="preserve" text-anchor="middle" x="807.5" y="-2567.9" font-family="Times New Roman,serif" font-size="14.00">self.month = 9 or</text>
<text xml:space="preserve" text-anchor="middle" x="807.5" y="-2551.4" font-family="Times New Roman,serif" font-size="14.00">self.month = 11</text>
<text xml:space="preserve" text-anchor="middle" x="807.5" y="-2534.9" font-family="Times New Roman,serif" font-size="14.00">) thenNode: (self.day &lt;= 30) elseNode: (IfExp ConditionNode:(self.year.mod(400) = 0 or</text>
<text xml:space="preserve" text-anchor="middle" x="807.5" y="-2518.4" font-family="Times New Roman,serif" font-size="14.00">self.year.mod(4) = 0 and</text>
<text xml:space="preserve" text-anchor="middle" x="807.5" y="-2501.9" font-family="Times New Roman,serif" font-size="14.00">self.year.mod(100) &lt;&gt; 0</text>
<text xml:space="preserve" text-anchor="middle" x="807.5" y="-2485.4" font-family="Times New Roman,serif" font-size="14.00">) thenNode: (self.day &lt;= 29) elseNode: (self.day &lt;= 28))) or</text>
<text xml:space="preserve" text-anchor="middle" x="807.5" y="-2468.9" font-family="Times New Roman,serif" font-size="14.00">self.year &gt;= 1 and</text>
<text xml:space="preserve" text-anchor="middle" x="807.5" y="-2452.4" font-family="Times New Roman,serif" font-size="14.00">self.month &lt; 1 and</text>
<text xml:space="preserve" text-anchor="middle" x="807.5" y="-2435.9" font-family="Times New Roman,serif" font-size="14.00">self.month &lt;= 12 and</text>
<text xml:space="preserve" text-anchor="middle" x="807.5" y="-2419.4" font-family="Times New Roman,serif" font-size="14.00">self.day &gt;= 1 and</text>
<text xml:space="preserve" text-anchor="middle" x="807.5" y="-2402.9" font-family="Times New Roman,serif" font-size="14.00">IfExp ConditionNode:(self.month = 1 or</text>
<text xml:space="preserve" text-anchor="middle" x="807.5" y="-2386.4" font-family="Times New Roman,serif" font-size="14.00">self.month = 3 or</text>
<text xml:space="preserve" text-anchor="middle" x="807.5" y="-2369.9" font-family="Times New Roman,serif" font-size="14.00">self.month = 5 or</text>
<text xml:space="preserve" text-anchor="middle" x="807.5" y="-2353.4" font-family="Times New Roman,serif" font-size="14.00">self.month = 7 or</text>
<text xml:space="preserve" text-anchor="middle" x="807.5" y="-2336.9" font-family="Times New Roman,serif" font-size="14.00">self.month = 8 or</text>
<text xml:space="preserve" text-anchor="middle" x="807.5" y="-2320.4" font-family="Times New Roman,serif" font-size="14.00">self.month = 10 or</text>
<text xml:space="preserve" text-anchor="middle" x="807.5" y="-2303.9" font-family="Times New Roman,serif" font-size="14.00">self.month = 12</text>
<text xml:space="preserve" text-anchor="middle" x="807.5" y="-2287.4" font-family="Times New Roman,serif" font-size="14.00">) thenNode: (self.day &lt;= 31) elseNode: (IfExp ConditionNode:(self.month = 4 or</text>
<text xml:space="preserve" text-anchor="middle" x="807.5" y="-2270.9" font-family="Times New Roman,serif" font-size="14.00">self.month = 6 or</text>
<text xml:space="preserve" text-anchor="middle" x="807.5" y="-2254.4" font-family="Times New Roman,serif" font-size="14.00">self.month = 9 or</text>
<text xml:space="preserve" text-anchor="middle" x="807.5" y="-2237.9" font-family="Times New Roman,serif" font-size="14.00">self.month = 11</text>
<text xml:space="preserve" text-anchor="middle" x="807.5" y="-2221.4" font-family="Times New Roman,serif" font-size="14.00">) thenNode: (self.day &lt;= 30) elseNode: (IfExp ConditionNode:(self.year.mod(400) = 0 or</text>
<text xml:space="preserve" text-anchor="middle" x="807.5" y="-2204.9" font-family="Times New Roman,serif" font-size="14.00">self.year.mod(4) = 0 and</text>
<text xml:space="preserve" text-anchor="middle" x="807.5" y="-2188.4" font-family="Times New Roman,serif" font-size="14.00">self.year.mod(100) &lt;&gt; 0</text>
<text xml:space="preserve" text-anchor="middle" x="807.5" y="-2171.9" font-family="Times New Roman,serif" font-size="14.00">) thenNode: (self.day &lt;= 29) elseNode: (self.day &lt;= 28))) or</text>
<text xml:space="preserve" text-anchor="middle" x="807.5" y="-2155.4" font-family="Times New Roman,serif" font-size="14.00">self.year &gt;= 1 and</text>
<text xml:space="preserve" text-anchor="middle" x="807.5" y="-2138.9" font-family="Times New Roman,serif" font-size="14.00">self.month &gt;= 1 and</text>
<text xml:space="preserve" text-anchor="middle" x="807.5" y="-2122.4" font-family="Times New Roman,serif" font-size="14.00">self.month &gt; 12 and</text>
<text xml:space="preserve" text-anchor="middle" x="807.5" y="-2105.9" font-family="Times New Roman,serif" font-size="14.00">self.day &gt;= 1 and</text>
<text xml:space="preserve" text-anchor="middle" x="807.5" y="-2089.4" font-family="Times New Roman,serif" font-size="14.00">IfExp ConditionNode:(self.month = 1 or</text>
<text xml:space="preserve" text-anchor="middle" x="807.5" y="-2072.9" font-family="Times New Roman,serif" font-size="14.00">self.month = 3 or</text>
<text xml:space="preserve" text-anchor="middle" x="807.5" y="-2056.4" font-family="Times New Roman,serif" font-size="14.00">self.month = 5 or</text>
<text xml:space="preserve" text-anchor="middle" x="807.5" y="-2039.9" font-family="Times New Roman,serif" font-size="14.00">self.month = 7 or</text>
<text xml:space="preserve" text-anchor="middle" x="807.5" y="-2023.4" font-family="Times New Roman,serif" font-size="14.00">self.month = 8 or</text>
<text xml:space="preserve" text-anchor="middle" x="807.5" y="-2006.9" font-family="Times New Roman,serif" font-size="14.00">self.month = 10 or</text>
<text xml:space="preserve" text-anchor="middle" x="807.5" y="-1990.4" font-family="Times New Roman,serif" font-size="14.00">self.month = 12</text>
<text xml:space="preserve" text-anchor="middle" x="807.5" y="-1973.9" font-family="Times New Roman,serif" font-size="14.00">) thenNode: (self.day &lt;= 31) elseNode: (IfExp ConditionNode:(self.month = 4 or</text>
<text xml:space="preserve" text-anchor="middle" x="807.5" y="-1957.4" font-family="Times New Roman,serif" font-size="14.00">self.month = 6 or</text>
<text xml:space="preserve" text-anchor="middle" x="807.5" y="-1940.9" font-family="Times New Roman,serif" font-size="14.00">self.month = 9 or</text>
<text xml:space="preserve" text-anchor="middle" x="807.5" y="-1924.4" font-family="Times New Roman,serif" font-size="14.00">self.month = 11</text>
<text xml:space="preserve" text-anchor="middle" x="807.5" y="-1907.9" font-family="Times New Roman,serif" font-size="14.00">) thenNode: (self.day &lt;= 30) elseNode: (IfExp ConditionNode:(self.year.mod(400) = 0 or</text>
<text xml:space="preserve" text-anchor="middle" x="807.5" y="-1891.4" font-family="Times New Roman,serif" font-size="14.00">self.year.mod(4) = 0 and</text>
<text xml:space="preserve" text-anchor="middle" x="807.5" y="-1874.9" font-family="Times New Roman,serif" font-size="14.00">self.year.mod(100) &lt;&gt; 0</text>
<text xml:space="preserve" text-anchor="middle" x="807.5" y="-1858.4" font-family="Times New Roman,serif" font-size="14.00">) thenNode: (self.day &lt;= 29) elseNode: (self.day &lt;= 28))) or</text>
<text xml:space="preserve" text-anchor="middle" x="807.5" y="-1841.9" font-family="Times New Roman,serif" font-size="14.00">self.year &gt;= 1 and</text>
<text xml:space="preserve" text-anchor="middle" x="807.5" y="-1825.4" font-family="Times New Roman,serif" font-size="14.00">self.month &gt;= 1 and</text>
<text xml:space="preserve" text-anchor="middle" x="807.5" y="-1808.9" font-family="Times New Roman,serif" font-size="14.00">self.month &lt;= 12 and</text>
<text xml:space="preserve" text-anchor="middle" x="807.5" y="-1792.4" font-family="Times New Roman,serif" font-size="14.00">self.day &lt; 1 and</text>
<text xml:space="preserve" text-anchor="middle" x="807.5" y="-1775.9" font-family="Times New Roman,serif" font-size="14.00">IfExp ConditionNode:(self.month = 1 or</text>
<text xml:space="preserve" text-anchor="middle" x="807.5" y="-1759.4" font-family="Times New Roman,serif" font-size="14.00">self.month = 3 or</text>
<text xml:space="preserve" text-anchor="middle" x="807.5" y="-1742.9" font-family="Times New Roman,serif" font-size="14.00">self.month = 5 or</text>
<text xml:space="preserve" text-anchor="middle" x="807.5" y="-1726.4" font-family="Times New Roman,serif" font-size="14.00">self.month = 7 or</text>
<text xml:space="preserve" text-anchor="middle" x="807.5" y="-1709.9" font-family="Times New Roman,serif" font-size="14.00">self.month = 8 or</text>
<text xml:space="preserve" text-anchor="middle" x="807.5" y="-1693.4" font-family="Times New Roman,serif" font-size="14.00">self.month = 10 or</text>
<text xml:space="preserve" text-anchor="middle" x="807.5" y="-1676.9" font-family="Times New Roman,serif" font-size="14.00">self.month = 12</text>
<text xml:space="preserve" text-anchor="middle" x="807.5" y="-1660.4" font-family="Times New Roman,serif" font-size="14.00">) thenNode: (self.day &lt;= 31) elseNode: (IfExp ConditionNode:(self.month = 4 or</text>
<text xml:space="preserve" text-anchor="middle" x="807.5" y="-1643.9" font-family="Times New Roman,serif" font-size="14.00">self.month = 6 or</text>
<text xml:space="preserve" text-anchor="middle" x="807.5" y="-1627.4" font-family="Times New Roman,serif" font-size="14.00">self.month = 9 or</text>
<text xml:space="preserve" text-anchor="middle" x="807.5" y="-1610.9" font-family="Times New Roman,serif" font-size="14.00">self.month = 11</text>
<text xml:space="preserve" text-anchor="middle" x="807.5" y="-1594.4" font-family="Times New Roman,serif" font-size="14.00">) thenNode: (self.day &lt;= 30) elseNode: (IfExp ConditionNode:(self.year.mod(400) = 0 or</text>
<text xml:space="preserve" text-anchor="middle" x="807.5" y="-1577.9" font-family="Times New Roman,serif" font-size="14.00">self.year.mod(4) = 0 and</text>
<text xml:space="preserve" text-anchor="middle" x="807.5" y="-1561.4" font-family="Times New Roman,serif" font-size="14.00">self.year.mod(100) &lt;&gt; 0</text>
<text xml:space="preserve" text-anchor="middle" x="807.5" y="-1544.9" font-family="Times New Roman,serif" font-size="14.00">) thenNode: (self.day &lt;= 29) elseNode: (self.day &lt;= 28))) or</text>
<text xml:space="preserve" text-anchor="middle" x="807.5" y="-1528.4" font-family="Times New Roman,serif" font-size="14.00">self.year &gt;= 1 and</text>
<text xml:space="preserve" text-anchor="middle" x="807.5" y="-1511.9" font-family="Times New Roman,serif" font-size="14.00">self.month &gt;= 1 and</text>
<text xml:space="preserve" text-anchor="middle" x="807.5" y="-1495.4" font-family="Times New Roman,serif" font-size="14.00">self.month &lt;= 12 and</text>
<text xml:space="preserve" text-anchor="middle" x="807.5" y="-1478.9" font-family="Times New Roman,serif" font-size="14.00">self.day &gt;= 1 and</text>
<text xml:space="preserve" text-anchor="middle" x="807.5" y="-1462.4" font-family="Times New Roman,serif" font-size="14.00">IfExp ConditionNode:(self.month = 1 or</text>
<text xml:space="preserve" text-anchor="middle" x="807.5" y="-1445.9" font-family="Times New Roman,serif" font-size="14.00">self.month = 3 or</text>
<text xml:space="preserve" text-anchor="middle" x="807.5" y="-1429.4" font-family="Times New Roman,serif" font-size="14.00">self.month = 5 or</text>
<text xml:space="preserve" text-anchor="middle" x="807.5" y="-1412.9" font-family="Times New Roman,serif" font-size="14.00">self.month = 7 or</text>
<text xml:space="preserve" text-anchor="middle" x="807.5" y="-1396.4" font-family="Times New Roman,serif" font-size="14.00">self.month = 8 or</text>
<text xml:space="preserve" text-anchor="middle" x="807.5" y="-1379.9" font-family="Times New Roman,serif" font-size="14.00">self.month = 10 or</text>
<text xml:space="preserve" text-anchor="middle" x="807.5" y="-1363.4" font-family="Times New Roman,serif" font-size="14.00">self.month = 12</text>
<text xml:space="preserve" text-anchor="middle" x="807.5" y="-1346.9" font-family="Times New Roman,serif" font-size="14.00">) thenNode: (self.day &gt; 31) elseNode: (IfExp ConditionNode:(self.month = 4 or</text>
<text xml:space="preserve" text-anchor="middle" x="807.5" y="-1330.4" font-family="Times New Roman,serif" font-size="14.00">self.month = 6 or</text>
<text xml:space="preserve" text-anchor="middle" x="807.5" y="-1313.9" font-family="Times New Roman,serif" font-size="14.00">self.month = 9 or</text>
<text xml:space="preserve" text-anchor="middle" x="807.5" y="-1297.4" font-family="Times New Roman,serif" font-size="14.00">self.month = 11</text>
<text xml:space="preserve" text-anchor="middle" x="807.5" y="-1280.9" font-family="Times New Roman,serif" font-size="14.00">) thenNode: (self.day &gt; 30) elseNode: (IfExp ConditionNode:(self.year.mod(400) = 0 or</text>
<text xml:space="preserve" text-anchor="middle" x="807.5" y="-1264.4" font-family="Times New Roman,serif" font-size="14.00">self.year.mod(4) = 0 and</text>
<text xml:space="preserve" text-anchor="middle" x="807.5" y="-1247.9" font-family="Times New Roman,serif" font-size="14.00">self.year.mod(100) &lt;&gt; 0</text>
<text xml:space="preserve" text-anchor="middle" x="807.5" y="-1231.4" font-family="Times New Roman,serif" font-size="14.00">) thenNode: (self.day &gt; 29) elseNode: (self.day &gt; 28)))</text>
<text xml:space="preserve" text-anchor="middle" x="539.62" y="-2802.9" font-family="Times New Roman,serif" font-size="14.00">[162]</text>
</g>
<!-- 212&#45;&gt;162 -->
<g id="edge28" class="edge">
<title>212&#45;&gt;162</title>
<path fill="none" stroke="black" d="M550.22,-2857.34C560.82,-2855.07 583.52,-2848.71 595.5,-2834.2 602.21,-2826.07 608.72,-2817.75 615.02,-2809.26"/>
<polygon fill="black" stroke="black" points="617.82,-2811.35 620.88,-2801.21 612.17,-2807.23 617.82,-2811.35"/>
<text xml:space="preserve" text-anchor="middle" x="624" y="-2820.9" font-family="Times New Roman,serif" font-size="14.00">split2#255</text>
</g>
<!-- 166 -->
<g id="node17" class="node">
<title>166</title>
<ellipse fill="black" stroke="black" cx="760.5" cy="-11.2" rx="7.2" ry="7.2"/>
<ellipse fill="none" stroke="black" cx="760.5" cy="-11.2" rx="11.2" ry="11.2"/>
<text xml:space="preserve" text-anchor="middle" x="739.17" y="-25.6" font-family="Times New Roman,serif" font-size="14.00">[&#45;1]</text>
</g>
<!-- 213&#45;&gt;166 -->
<g id="edge3" class="edge">
<title>213&#45;&gt;166</title>
<path fill="none" stroke="black" d="M760.5,-74.24C760.5,-64.87 760.5,-47.63 760.5,-33.7"/>
<polygon fill="black" stroke="black" points="764,-34.11 760.5,-24.11 757,-34.11 764,-34.11"/>
<text xml:space="preserve" text-anchor="middle" x="809.62" y="-43.6" font-family="Times New Roman,serif" font-size="14.00">graphOr_end#258</text>
</g>
<!-- 165 -->
<g id="node16" class="node">
<title>165</title>
<polygon fill="yellow" stroke="black" points="896.25,-1139.3 716.75,-1139.3 716.75,-1103.3 896.25,-1103.3 896.25,-1139.3"/>
<text xml:space="preserve" text-anchor="middle" x="806.5" y="-1116.25" font-family="Times New Roman,serif" font-size="14.00">Result = &#39;DateErrorException&#39;</text>
<text xml:space="preserve" text-anchor="middle" x="702.12" y="-1142.5" font-family="Times New Roman,serif" font-size="14.00">[165]</text>
</g>
<!-- 162&#45;&gt;165 -->
<g id="edge24" class="edge">
<title>162&#45;&gt;165</title>
<path fill="none" stroke="black" d="M806.61,-1223.81C806.58,-1193.53 806.55,-1168.66 806.53,-1151.11"/>
<polygon fill="black" stroke="black" points="810.03,-1151.17 806.52,-1141.17 803.03,-1151.18 810.03,-1151.17"/>
<text xml:space="preserve" text-anchor="middle" x="847.09" y="-1192.9" font-family="Times New Roman,serif" font-size="14.00">graphAnd#249</text>
</g>
<!-- 165&#45;&gt;213 -->
<g id="edge2" class="edge">
<title>165&#45;&gt;213</title>
<path fill="none" stroke="black" d="M806.34,-1102.82C806.06,-1070.16 805.5,-997.64 805.5,-936.55 805.5,-936.55 805.5,-936.55 805.5,-158.8 805.5,-135.08 804.63,-127.05 791.5,-107.3 787.15,-100.76 780.46,-95.21 774.4,-91.09"/>
<polygon fill="black" stroke="black" points="776.49,-88.26 766.12,-86.07 772.86,-94.25 776.49,-88.26"/>
<text xml:space="preserve" text-anchor="middle" x="839.62" y="-488.2" font-family="Times New Roman,serif" font-size="14.00">merge2#257</text>
</g>
<!-- 171 -->
<g id="node19" class="node">
<title>171</title>
<polygon fill="yellow" stroke="black" points="359.62,-876.9 263.38,-876.9 263.38,-840.9 359.62,-840.9 359.62,-876.9"/>
<text xml:space="preserve" text-anchor="middle" x="311.5" y="-853.85" font-family="Times New Roman,serif" font-size="14.00">self.day &lt;= 31</text>
<text xml:space="preserve" text-anchor="middle" x="248.75" y="-880.1" font-family="Times New Roman,serif" font-size="14.00">[171]</text>
</g>
<!-- 168&#45;&gt;171 -->
<g id="edge17" class="edge">
<title>168&#45;&gt;171</title>
<path fill="none" stroke="black" d="M310.25,-961.52C310.56,-936.59 310.9,-908.94 311.14,-888.78"/>
<polygon fill="black" stroke="black" points="314.64,-888.85 311.27,-878.8 307.64,-888.76 314.64,-888.85"/>
<text xml:space="preserve" text-anchor="middle" x="351.17" y="-930.5" font-family="Times New Roman,serif" font-size="14.00">graphAnd#236</text>
</g>
<!-- 171&#45;&gt;202 -->
<g id="edge21" class="edge">
<title>171&#45;&gt;202</title>
<path fill="none" stroke="black" d="M311.5,-840.52C311.5,-814.93 311.5,-765.6 311.5,-723.65 311.5,-723.65 311.5,-723.65 311.5,-303.4 311.5,-246.23 403.99,-238.79 444.2,-238.26"/>
<polygon fill="black" stroke="black" points="444.1,-241.76 454.11,-238.28 444.11,-234.76 444.1,-241.76"/>
<text xml:space="preserve" text-anchor="middle" x="345.62" y="-488.2" font-family="Times New Roman,serif" font-size="14.00">merge1#241</text>
</g>
<!-- 174&#45;&gt;199 -->
<g id="edge18" class="edge">
<title>174&#45;&gt;199</title>
<path fill="none" stroke="black" d="M454.5,-961.43C454.5,-946.73 454.5,-932.16 454.5,-921.25"/>
<polygon fill="black" stroke="black" points="458,-921.52 454.5,-911.52 451,-921.52 458,-921.52"/>
<text xml:space="preserve" text-anchor="middle" x="495" y="-930.5" font-family="Times New Roman,serif" font-size="14.00">graphAnd#237</text>
</g>
<!-- 180 -->
<g id="node22" class="node">
<title>180</title>
<polygon fill="yellow" stroke="black" points="443.62,-664 347.38,-664 347.38,-628 443.62,-628 443.62,-664"/>
<text xml:space="preserve" text-anchor="middle" x="395.5" y="-640.95" font-family="Times New Roman,serif" font-size="14.00">self.day &lt;= 30</text>
<text xml:space="preserve" text-anchor="middle" x="332.75" y="-667.2" font-family="Times New Roman,serif" font-size="14.00">[180]</text>
</g>
<!-- 177&#45;&gt;180 -->
<g id="edge11" class="edge">
<title>177&#45;&gt;180</title>
<path fill="none" stroke="black" d="M395.5,-748.67C395.5,-725.85 395.5,-696.82 395.5,-675.62"/>
<polygon fill="black" stroke="black" points="399,-675.67 395.5,-665.67 392,-675.67 399,-675.67"/>
<text xml:space="preserve" text-anchor="middle" x="436" y="-717.6" font-family="Times New Roman,serif" font-size="14.00">graphAnd#228</text>
</g>
<!-- 180&#45;&gt;200 -->
<g id="edge15" class="edge">
<title>180&#45;&gt;200</title>
<path fill="none" stroke="black" d="M395.5,-627.82C395.5,-599.83 395.5,-542.67 395.5,-494.25 395.5,-494.25 395.5,-494.25 395.5,-370.3 395.5,-341.6 427.61,-321.53 447.37,-311.9"/>
<polygon fill="black" stroke="black" points="448.61,-315.18 456.3,-307.89 445.74,-308.8 448.61,-315.18"/>
<text xml:space="preserve" text-anchor="middle" x="429.62" y="-443.95" font-family="Times New Roman,serif" font-size="14.00">merge1#233</text>
</g>
<!-- 183&#45;&gt;197 -->
<g id="edge12" class="edge">
<title>183&#45;&gt;197</title>
<path fill="none" stroke="black" d="M533.5,-748.56C533.5,-734.76 533.5,-719.64 533.5,-708.25"/>
<polygon fill="black" stroke="black" points="537,-708.41 533.5,-698.41 530,-708.41 537,-708.41"/>
<text xml:space="preserve" text-anchor="middle" x="574" y="-717.6" font-family="Times New Roman,serif" font-size="14.00">graphAnd#229</text>
</g>
<!-- 189 -->
<g id="node25" class="node">
<title>189</title>
<polygon fill="yellow" stroke="black" points="716.62,-467 620.38,-467 620.38,-431 716.62,-431 716.62,-467"/>
<text xml:space="preserve" text-anchor="middle" x="668.5" y="-443.95" font-family="Times New Roman,serif" font-size="14.00">self.day &lt;= 29</text>
<text xml:space="preserve" text-anchor="middle" x="605.75" y="-470.2" font-family="Times New Roman,serif" font-size="14.00">[189]</text>
</g>
<!-- 186&#45;&gt;189 -->
<g id="edge5" class="edge">
<title>186&#45;&gt;189</title>
<path fill="none" stroke="black" d="M689.58,-535.63C685.27,-518.12 679.74,-495.68 675.43,-478.16"/>
<polygon fill="black" stroke="black" points="678.88,-477.54 673.1,-468.67 672.09,-479.22 678.88,-477.54"/>
<text xml:space="preserve" text-anchor="middle" x="721.32" y="-488.2" font-family="Times New Roman,serif" font-size="14.00">graphAnd#220</text>
</g>
<!-- 189&#45;&gt;198 -->
<g id="edge9" class="edge">
<title>189&#45;&gt;198</title>
<path fill="none" stroke="black" d="M649.46,-430.6C636.65,-419.63 618.98,-405.82 601.5,-396.5 583.5,-386.9 560.96,-380.07 545.95,-376.16"/>
<polygon fill="black" stroke="black" points="547,-372.82 536.46,-373.85 545.34,-379.62 547,-372.82"/>
<text xml:space="preserve" text-anchor="middle" x="661.01" y="-399.7" font-family="Times New Roman,serif" font-size="14.00">merge1#225</text>
</g>
</g>
</svg>
