<?xml version="1.0" encoding="UTF-8" standalone="no"?>
<!DOCTYPE svg PUBLIC "-//W3C//DTD SVG 1.1//EN"
 "http://www.w3.org/Graphics/SVG/1.1/DTD/svg11.dtd">
<!-- Generated by graphviz version 12.2.1 (20241206.2353)
 -->
<!-- Title: CLG Pages: 1 -->
<svg width="852pt" height="1825pt"
 viewBox="0.00 0.00 851.50 1824.50" xmlns="http://www.w3.org/2000/svg" xmlns:xlink="http://www.w3.org/1999/xlink">
<g id="graph0" class="graph" transform="scale(1 1) rotate(0) translate(4 1820.5)">
<title>CLG</title>
<polygon fill="white" stroke="none" points="-4,4 -4,-1820.5 847.5,-1820.5 847.5,4 -4,4"/>
<!-- 4 -->
<g id="node1" class="node">
<title>4</title>
<polygon fill="yellow" stroke="black" points="401.5,-1666.2 15.75,-1666.2 15.75,-1245.7 401.5,-1245.7 401.5,-1666.2"/>
<text text-anchor="middle" x="208.62" y="-1648.9" font-family="Times New Roman,serif" font-size="14.00">y &lt; 1 and</text>
<text text-anchor="middle" x="208.62" y="-1632.4" font-family="Times New Roman,serif" font-size="14.00">m &gt;= 1 and</text>
<text text-anchor="middle" x="208.62" y="-1615.9" font-family="Times New Roman,serif" font-size="14.00">m &lt;= 12 and</text>
<text text-anchor="middle" x="208.62" y="-1599.4" font-family="Times New Roman,serif" font-size="14.00">d &gt;= 1 and</text>
<text text-anchor="middle" x="208.62" y="-1582.9" font-family="Times New Roman,serif" font-size="14.00">IfExp ConditionNode:(811) thenNode: (814) elseNode: (857) or</text>
<text text-anchor="middle" x="208.62" y="-1566.4" font-family="Times New Roman,serif" font-size="14.00">y &gt;= 1 and</text>
<text text-anchor="middle" x="208.62" y="-1549.9" font-family="Times New Roman,serif" font-size="14.00">m &lt; 1 and</text>
<text text-anchor="middle" x="208.62" y="-1533.4" font-family="Times New Roman,serif" font-size="14.00">m &lt;= 12 and</text>
<text text-anchor="middle" x="208.62" y="-1516.9" font-family="Times New Roman,serif" font-size="14.00">d &gt;= 1 and</text>
<text text-anchor="middle" x="208.62" y="-1500.4" font-family="Times New Roman,serif" font-size="14.00">IfExp ConditionNode:(901) thenNode: (904) elseNode: (947) or</text>
<text text-anchor="middle" x="208.62" y="-1483.9" font-family="Times New Roman,serif" font-size="14.00">y &gt;= 1 and</text>
<text text-anchor="middle" x="208.62" y="-1467.4" font-family="Times New Roman,serif" font-size="14.00">m &gt;= 1 and</text>
<text text-anchor="middle" x="208.62" y="-1450.9" font-family="Times New Roman,serif" font-size="14.00">m &gt; 12 and</text>
<text text-anchor="middle" x="208.62" y="-1434.4" font-family="Times New Roman,serif" font-size="14.00">d &gt;= 1 and</text>
<text text-anchor="middle" x="208.62" y="-1417.9" font-family="Times New Roman,serif" font-size="14.00">IfExp ConditionNode:(991) thenNode: (994) elseNode: (1037) or</text>
<text text-anchor="middle" x="208.62" y="-1401.4" font-family="Times New Roman,serif" font-size="14.00">y &gt;= 1 and</text>
<text text-anchor="middle" x="208.62" y="-1384.9" font-family="Times New Roman,serif" font-size="14.00">m &gt;= 1 and</text>
<text text-anchor="middle" x="208.62" y="-1368.4" font-family="Times New Roman,serif" font-size="14.00">m &lt;= 12 and</text>
<text text-anchor="middle" x="208.62" y="-1351.9" font-family="Times New Roman,serif" font-size="14.00">d &lt; 1 and</text>
<text text-anchor="middle" x="208.62" y="-1335.4" font-family="Times New Roman,serif" font-size="14.00">IfExp ConditionNode:(1081) thenNode: (1084) elseNode: (1127) or</text>
<text text-anchor="middle" x="208.62" y="-1318.9" font-family="Times New Roman,serif" font-size="14.00">y &gt;= 1 and</text>
<text text-anchor="middle" x="208.62" y="-1302.4" font-family="Times New Roman,serif" font-size="14.00">m &gt;= 1 and</text>
<text text-anchor="middle" x="208.62" y="-1285.9" font-family="Times New Roman,serif" font-size="14.00">m &lt;= 12 and</text>
<text text-anchor="middle" x="208.62" y="-1269.4" font-family="Times New Roman,serif" font-size="14.00">d &gt;= 1 and</text>
<text text-anchor="middle" x="208.62" y="-1252.9" font-family="Times New Roman,serif" font-size="14.00">IfExp ConditionNode:(1288) thenNode: (1174) elseNode: (1261)</text>
<text text-anchor="middle" x="7.88" y="-1669.4" font-family="Times New Roman,serif" font-size="14.00">[4]</text>
</g>
<!-- 7 -->
<g id="node2" class="node">
<title>7</title>
<polygon fill="yellow" stroke="black" points="442.38,-1160.8 262.88,-1160.8 262.88,-1124.8 442.38,-1124.8 442.38,-1160.8"/>
<text text-anchor="middle" x="352.62" y="-1137.75" font-family="Times New Roman,serif" font-size="14.00">Result = &#39;DateErrorException&#39;</text>
<text text-anchor="middle" x="255" y="-1164" font-family="Times New Roman,serif" font-size="14.00">[7]</text>
</g>
<!-- 4&#45;&gt;7 -->
<g id="edge21" class="edge">
<title>4&#45;&gt;7</title>
<path fill="none" stroke="black" d="M305.67,-1245.25C319.17,-1216.09 331.33,-1189.82 339.89,-1171.32"/>
<polygon fill="black" stroke="black" points="342.95,-1173.03 343.98,-1162.49 336.6,-1170.09 342.95,-1173.03"/>
<text text-anchor="middle" x="356.02" y="-1214.4" font-family="Times New Roman,serif" font-size="14.00">graphAnd#55</text>
</g>
<!-- 55 -->
<g id="node24" class="node">
<title>55</title>
<polygon fill="aquamarine" stroke="black" points="369.62,-89.3 362.43,-82.1 369.62,-74.9 376.82,-82.1 369.62,-89.3"/>
<text text-anchor="middle" x="347.43" y="-92.5" font-family="Times New Roman,serif" font-size="14.00">&lt;55&gt;</text>
</g>
<!-- 7&#45;&gt;55 -->
<g id="edge27" class="edge">
<title>7&#45;&gt;55</title>
<path fill="none" stroke="black" d="M352.78,-1124.32C353.07,-1091.66 353.62,-1019.14 353.62,-958.05 353.62,-958.05 353.62,-958.05 353.62,-169.55 353.62,-144.62 360.14,-116.3 364.85,-99.08"/>
<polygon fill="black" stroke="black" points="368.19,-100.14 367.61,-89.56 361.47,-98.19 368.19,-100.14"/>
<text text-anchor="middle" x="384.38" y="-509.7" font-family="Times New Roman,serif" font-size="14.00">merge2#63</text>
</g>
<!-- 8 -->
<g id="node3" class="node">
<title>8</title>
<ellipse fill="black" stroke="black" cx="369.62" cy="-11.2" rx="7.2" ry="7.2"/>
<ellipse fill="none" stroke="black" cx="369.62" cy="-11.2" rx="11.2" ry="11.2"/>
<text text-anchor="middle" x="348.3" y="-25.6" font-family="Times New Roman,serif" font-size="14.00">[&#45;1]</text>
</g>
<!-- 10 -->
<g id="node4" class="node">
<title>10</title>
<polygon fill="yellow" stroke="black" points="512.38,-1106.8 440.88,-1106.8 440.88,-983.3 512.38,-983.3 512.38,-1106.8"/>
<text text-anchor="middle" x="476.62" y="-1089.5" font-family="Times New Roman,serif" font-size="14.00">m = 1 or</text>
<text text-anchor="middle" x="476.62" y="-1073" font-family="Times New Roman,serif" font-size="14.00">m = 3 or</text>
<text text-anchor="middle" x="476.62" y="-1056.5" font-family="Times New Roman,serif" font-size="14.00">m = 5 or</text>
<text text-anchor="middle" x="476.62" y="-1040" font-family="Times New Roman,serif" font-size="14.00">m = 7 or</text>
<text text-anchor="middle" x="476.62" y="-1023.5" font-family="Times New Roman,serif" font-size="14.00">m = 8 or</text>
<text text-anchor="middle" x="476.62" y="-1007" font-family="Times New Roman,serif" font-size="14.00">m = 10 or</text>
<text text-anchor="middle" x="476.62" y="-990.5" font-family="Times New Roman,serif" font-size="14.00">m = 12</text>
<text text-anchor="middle" x="429.62" y="-1110" font-family="Times New Roman,serif" font-size="14.00">[10]</text>
</g>
<!-- 13 -->
<g id="node5" class="node">
<title>13</title>
<polygon fill="yellow" stroke="black" points="496.75,-898.4 436.5,-898.4 436.5,-862.4 496.75,-862.4 496.75,-898.4"/>
<text text-anchor="middle" x="466.62" y="-875.35" font-family="Times New Roman,serif" font-size="14.00">d &lt;= 31</text>
<text text-anchor="middle" x="425.25" y="-901.6" font-family="Times New Roman,serif" font-size="14.00">[13]</text>
</g>
<!-- 10&#45;&gt;13 -->
<g id="edge14" class="edge">
<title>10&#45;&gt;13</title>
<path fill="none" stroke="black" d="M472.87,-983.02C471.34,-958.09 469.64,-930.44 468.4,-910.28"/>
<polygon fill="black" stroke="black" points="471.89,-910.07 467.79,-900.3 464.91,-910.5 471.89,-910.07"/>
<text text-anchor="middle" x="508.75" y="-952" font-family="Times New Roman,serif" font-size="14.00">graphAnd#42</text>
</g>
<!-- 44 -->
<g id="node19" class="node">
<title>44</title>
<polygon fill="aquamarine" stroke="black" points="465.62,-266.2 458.43,-259 465.62,-251.8 472.82,-259 465.62,-266.2"/>
<text text-anchor="middle" x="443.43" y="-269.4" font-family="Times New Roman,serif" font-size="14.00">&lt;44&gt;</text>
</g>
<!-- 13&#45;&gt;44 -->
<g id="edge18" class="edge">
<title>13&#45;&gt;44</title>
<path fill="none" stroke="black" d="M466.41,-862.02C466.12,-836.43 465.62,-787.1 465.62,-745.15 465.62,-745.15 465.62,-745.15 465.62,-324.9 465.62,-309.18 465.62,-291.31 465.62,-278.31"/>
<polygon fill="black" stroke="black" points="469.13,-278.33 465.63,-268.33 462.13,-278.33 469.13,-278.33"/>
<text text-anchor="middle" x="496.38" y="-509.7" font-family="Times New Roman,serif" font-size="14.00">merge1#47</text>
</g>
<!-- 16 -->
<g id="node6" class="node">
<title>16</title>
<polygon fill="yellow" stroke="black" points="618.62,-1106.8 530.62,-1106.8 530.62,-983.3 618.62,-983.3 618.62,-1106.8"/>
<text text-anchor="middle" x="574.62" y="-1089.5" font-family="Times New Roman,serif" font-size="14.00">m &lt;&gt; 1 and</text>
<text text-anchor="middle" x="574.62" y="-1073" font-family="Times New Roman,serif" font-size="14.00">m &lt;&gt; 3 and</text>
<text text-anchor="middle" x="574.62" y="-1056.5" font-family="Times New Roman,serif" font-size="14.00">m &lt;&gt; 5 and</text>
<text text-anchor="middle" x="574.62" y="-1040" font-family="Times New Roman,serif" font-size="14.00">m &lt;&gt; 7 and</text>
<text text-anchor="middle" x="574.62" y="-1023.5" font-family="Times New Roman,serif" font-size="14.00">m &lt;&gt; 8 and</text>
<text text-anchor="middle" x="574.62" y="-1007" font-family="Times New Roman,serif" font-size="14.00">m &lt;&gt; 10 and</text>
<text text-anchor="middle" x="574.62" y="-990.5" font-family="Times New Roman,serif" font-size="14.00">m &lt;&gt; 12</text>
<text text-anchor="middle" x="519.38" y="-1110" font-family="Times New Roman,serif" font-size="14.00">[16]</text>
</g>
<!-- 41 -->
<g id="node16" class="node">
<title>41</title>
<polygon fill="aquamarine" stroke="black" points="574.62,-930.8 567.42,-923.6 574.62,-916.4 581.83,-923.6 574.62,-930.8"/>
<text text-anchor="middle" x="552.42" y="-934" font-family="Times New Roman,serif" font-size="14.00">&lt;41&gt;</text>
</g>
<!-- 16&#45;&gt;41 -->
<g id="edge15" class="edge">
<title>16&#45;&gt;41</title>
<path fill="none" stroke="black" d="M574.62,-982.93C574.62,-968.23 574.62,-953.66 574.62,-942.75"/>
<polygon fill="black" stroke="black" points="578.13,-943.02 574.63,-933.02 571.13,-943.02 578.13,-943.02"/>
<text text-anchor="middle" x="611.75" y="-952" font-family="Times New Roman,serif" font-size="14.00">graphAnd#43</text>
</g>
<!-- 19 -->
<g id="node7" class="node">
<title>19</title>
<polygon fill="yellow" stroke="black" points="577,-844.4 512.25,-844.4 512.25,-770.4 577,-770.4 577,-844.4"/>
<text text-anchor="middle" x="544.62" y="-827.1" font-family="Times New Roman,serif" font-size="14.00">m = 4 or</text>
<text text-anchor="middle" x="544.62" y="-810.6" font-family="Times New Roman,serif" font-size="14.00">m = 6 or</text>
<text text-anchor="middle" x="544.62" y="-794.1" font-family="Times New Roman,serif" font-size="14.00">m = 9 or</text>
<text text-anchor="middle" x="544.62" y="-777.6" font-family="Times New Roman,serif" font-size="14.00">m = 11</text>
<text text-anchor="middle" x="501" y="-847.6" font-family="Times New Roman,serif" font-size="14.00">[19]</text>
</g>
<!-- 22 -->
<g id="node8" class="node">
<title>22</title>
<polygon fill="yellow" stroke="black" points="572.75,-685.5 512.5,-685.5 512.5,-649.5 572.75,-649.5 572.75,-685.5"/>
<text text-anchor="middle" x="542.62" y="-662.45" font-family="Times New Roman,serif" font-size="14.00">d &lt;= 30</text>
<text text-anchor="middle" x="501.25" y="-688.7" font-family="Times New Roman,serif" font-size="14.00">[22]</text>
</g>
<!-- 19&#45;&gt;22 -->
<g id="edge8" class="edge">
<title>19&#45;&gt;22</title>
<path fill="none" stroke="black" d="M544.1,-770.17C543.77,-747.35 543.35,-718.32 543.04,-697.12"/>
<polygon fill="black" stroke="black" points="546.54,-697.12 542.9,-687.17 539.54,-697.22 546.54,-697.12"/>
<text text-anchor="middle" x="580.96" y="-739.1" font-family="Times New Roman,serif" font-size="14.00">graphAnd#34</text>
</g>
<!-- 42 -->
<g id="node17" class="node">
<title>42</title>
<polygon fill="aquamarine" stroke="black" points="542.62,-333.1 535.42,-325.9 542.62,-318.7 549.83,-325.9 542.62,-333.1"/>
<text text-anchor="middle" x="520.42" y="-336.3" font-family="Times New Roman,serif" font-size="14.00">&lt;42&gt;</text>
</g>
<!-- 22&#45;&gt;42 -->
<g id="edge12" class="edge">
<title>22&#45;&gt;42</title>
<path fill="none" stroke="black" d="M542.62,-649.32C542.62,-621.33 542.62,-564.17 542.62,-515.75 542.62,-515.75 542.62,-515.75 542.62,-391.8 542.62,-376.08 542.62,-358.21 542.62,-345.21"/>
<polygon fill="black" stroke="black" points="546.13,-345.23 542.63,-335.23 539.13,-345.23 546.13,-345.23"/>
<text text-anchor="middle" x="573.38" y="-465.45" font-family="Times New Roman,serif" font-size="14.00">merge1#39</text>
</g>
<!-- 25 -->
<g id="node9" class="node">
<title>25</title>
<polygon fill="yellow" stroke="black" points="679.25,-844.4 598,-844.4 598,-770.4 679.25,-770.4 679.25,-844.4"/>
<text text-anchor="middle" x="638.62" y="-827.1" font-family="Times New Roman,serif" font-size="14.00">m &lt;&gt; 4 and</text>
<text text-anchor="middle" x="638.62" y="-810.6" font-family="Times New Roman,serif" font-size="14.00">m &lt;&gt; 6 and</text>
<text text-anchor="middle" x="638.62" y="-794.1" font-family="Times New Roman,serif" font-size="14.00">m &lt;&gt; 9 and</text>
<text text-anchor="middle" x="638.62" y="-777.6" font-family="Times New Roman,serif" font-size="14.00">m &lt;&gt; 11</text>
<text text-anchor="middle" x="586.75" y="-847.6" font-family="Times New Roman,serif" font-size="14.00">[25]</text>
</g>
<!-- 39 -->
<g id="node14" class="node">
<title>39</title>
<polygon fill="aquamarine" stroke="black" points="639.62,-717.9 632.42,-710.7 639.62,-703.5 646.83,-710.7 639.62,-717.9"/>
<text text-anchor="middle" x="617.42" y="-721.1" font-family="Times New Roman,serif" font-size="14.00">&lt;39&gt;</text>
</g>
<!-- 25&#45;&gt;39 -->
<g id="edge9" class="edge">
<title>25&#45;&gt;39</title>
<path fill="none" stroke="black" d="M639.01,-770.06C639.15,-756.26 639.31,-741.14 639.43,-729.75"/>
<polygon fill="black" stroke="black" points="642.93,-729.95 639.54,-719.91 635.93,-729.87 642.93,-729.95"/>
<text text-anchor="middle" x="676.48" y="-739.1" font-family="Times New Roman,serif" font-size="14.00">graphAnd#35</text>
</g>
<!-- 28 -->
<g id="node10" class="node">
<title>28</title>
<polygon fill="yellow" stroke="black" points="691.25,-615 574,-615 574,-557.5 691.25,-557.5 691.25,-615"/>
<text text-anchor="middle" x="632.62" y="-597.7" font-family="Times New Roman,serif" font-size="14.00">y.mod(400) = 0 or</text>
<text text-anchor="middle" x="632.62" y="-581.2" font-family="Times New Roman,serif" font-size="14.00">y.mod(4) = 0 and</text>
<text text-anchor="middle" x="632.62" y="-564.7" font-family="Times New Roman,serif" font-size="14.00">y.mod(100) &lt;&gt; 0</text>
<text text-anchor="middle" x="562.75" y="-618.2" font-family="Times New Roman,serif" font-size="14.00">[28]</text>
</g>
<!-- 31 -->
<g id="node11" class="node">
<title>31</title>
<polygon fill="yellow" stroke="black" points="676.62,-488.5 622.62,-488.5 622.62,-452.5 676.62,-452.5 676.62,-488.5"/>
<text text-anchor="middle" x="649.62" y="-465.45" font-family="Times New Roman,serif" font-size="14.00">d &lt; 30</text>
<text text-anchor="middle" x="611.38" y="-491.7" font-family="Times New Roman,serif" font-size="14.00">[31]</text>
</g>
<!-- 28&#45;&gt;31 -->
<g id="edge2" class="edge">
<title>28&#45;&gt;31</title>
<path fill="none" stroke="black" d="M636.83,-557.13C639.43,-539.71 642.77,-517.39 645.38,-499.91"/>
<polygon fill="black" stroke="black" points="648.81,-500.61 646.83,-490.2 641.89,-499.57 648.81,-500.61"/>
<text text-anchor="middle" x="681.25" y="-509.7" font-family="Times New Roman,serif" font-size="14.00">graphAnd#26</text>
</g>
<!-- 40 -->
<g id="node15" class="node">
<title>40</title>
<polygon fill="aquamarine" stroke="black" points="649.62,-400 642.42,-392.8 649.62,-385.6 656.83,-392.8 649.62,-400"/>
<text text-anchor="middle" x="627.42" y="-403.2" font-family="Times New Roman,serif" font-size="14.00">&lt;40&gt;</text>
</g>
<!-- 31&#45;&gt;40 -->
<g id="edge6" class="edge">
<title>31&#45;&gt;40</title>
<path fill="none" stroke="black" d="M649.62,-452.32C649.62,-440.28 649.62,-424.2 649.62,-411.95"/>
<polygon fill="black" stroke="black" points="653.13,-412.04 649.63,-402.04 646.13,-412.04 653.13,-412.04"/>
<text text-anchor="middle" x="680.38" y="-421.2" font-family="Times New Roman,serif" font-size="14.00">merge1#31</text>
</g>
<!-- 34 -->
<g id="node12" class="node">
<title>34</title>
<polygon fill="yellow" stroke="black" points="843.5,-631.5 709.75,-631.5 709.75,-541 843.5,-541 843.5,-631.5"/>
<text text-anchor="middle" x="776.62" y="-614.2" font-family="Times New Roman,serif" font-size="14.00">y.mod(400) &lt;&gt; 0 and</text>
<text text-anchor="middle" x="776.62" y="-597.7" font-family="Times New Roman,serif" font-size="14.00">y.mod(4) &lt;&gt; 0 and</text>
<text text-anchor="middle" x="776.62" y="-581.2" font-family="Times New Roman,serif" font-size="14.00">y.mod(100) &lt;&gt; 0 or</text>
<text text-anchor="middle" x="776.62" y="-564.7" font-family="Times New Roman,serif" font-size="14.00">y.mod(4) = 0 and</text>
<text text-anchor="middle" x="776.62" y="-548.2" font-family="Times New Roman,serif" font-size="14.00">y.mod(100) = 0</text>
<text text-anchor="middle" x="698.5" y="-634.7" font-family="Times New Roman,serif" font-size="14.00">[34]</text>
</g>
<!-- 37 -->
<g id="node13" class="node">
<title>37</title>
<polygon fill="yellow" stroke="black" points="770.62,-488.5 716.62,-488.5 716.62,-452.5 770.62,-452.5 770.62,-488.5"/>
<text text-anchor="middle" x="743.62" y="-465.45" font-family="Times New Roman,serif" font-size="14.00">d &lt; 29</text>
<text text-anchor="middle" x="705.38" y="-491.7" font-family="Times New Roman,serif" font-size="14.00">[37]</text>
</g>
<!-- 34&#45;&gt;37 -->
<g id="edge3" class="edge">
<title>34&#45;&gt;37</title>
<path fill="none" stroke="black" d="M763.68,-540.62C759.68,-526.85 755.39,-512.07 751.81,-499.73"/>
<polygon fill="black" stroke="black" points="755.2,-498.83 749.05,-490.2 748.48,-500.78 755.2,-498.83"/>
<text text-anchor="middle" x="795.27" y="-509.7" font-family="Times New Roman,serif" font-size="14.00">graphAnd#27</text>
</g>
<!-- 37&#45;&gt;40 -->
<g id="edge7" class="edge">
<title>37&#45;&gt;40</title>
<path fill="none" stroke="black" d="M737.84,-452.12C733.35,-441.01 726.1,-427.04 715.62,-418 701.62,-405.91 681.06,-399.65 666.62,-396.56"/>
<polygon fill="black" stroke="black" points="667.39,-393.14 656.93,-394.8 666.14,-400.03 667.39,-393.14"/>
<text text-anchor="middle" x="759.49" y="-421.2" font-family="Times New Roman,serif" font-size="14.00">merge2#32</text>
</g>
<!-- 39&#45;&gt;28 -->
<g id="edge4" class="edge">
<title>39&#45;&gt;28</title>
<path fill="none" stroke="black" d="M639.27,-703.46C638.47,-689.47 636.48,-654.65 634.88,-626.75"/>
<polygon fill="black" stroke="black" points="638.38,-626.59 634.31,-616.81 631.39,-626.99 638.38,-626.59"/>
<text text-anchor="middle" x="663.24" y="-662.45" font-family="Times New Roman,serif" font-size="14.00">split1#29</text>
</g>
<!-- 39&#45;&gt;34 -->
<g id="edge5" class="edge">
<title>39&#45;&gt;34</title>
<path fill="none" stroke="black" d="M644.69,-708.21C654.6,-705.12 676.95,-697.31 692.62,-685.5 709.41,-672.85 725.16,-656.3 738.38,-640.41"/>
<polygon fill="black" stroke="black" points="740.93,-642.82 744.5,-632.85 735.49,-638.42 740.93,-642.82"/>
<text text-anchor="middle" x="753.8" y="-662.45" font-family="Times New Roman,serif" font-size="14.00">split2#30</text>
</g>
<!-- 40&#45;&gt;42 -->
<g id="edge13" class="edge">
<title>40&#45;&gt;42</title>
<path fill="none" stroke="black" d="M645.56,-389.34C631,-380.5 580.97,-350.16 556.43,-335.27"/>
<polygon fill="black" stroke="black" points="558.35,-332.35 547.99,-330.15 554.72,-338.33 558.35,-332.35"/>
<text text-anchor="middle" x="639.61" y="-354.3" font-family="Times New Roman,serif" font-size="14.00">merge2#40</text>
</g>
<!-- 41&#45;&gt;19 -->
<g id="edge10" class="edge">
<title>41&#45;&gt;19</title>
<path fill="none" stroke="black" d="M571.73,-918.71C568.46,-914.11 563.2,-906.09 560.38,-898.4 555.45,-885.03 552.04,-869.95 549.7,-856.02"/>
<polygon fill="black" stroke="black" points="553.16,-855.51 548.19,-846.15 546.24,-856.56 553.16,-855.51"/>
<text text-anchor="middle" x="585.5" y="-875.35" font-family="Times New Roman,serif" font-size="14.00">split1#37</text>
</g>
<!-- 41&#45;&gt;25 -->
<g id="edge11" class="edge">
<title>41&#45;&gt;25</title>
<path fill="none" stroke="black" d="M579.11,-920.79C586.72,-917.48 602.17,-909.75 610.62,-898.4 619.9,-885.96 626.14,-870.38 630.33,-855.7"/>
<polygon fill="black" stroke="black" points="633.67,-856.74 632.77,-846.19 626.89,-855 633.67,-856.74"/>
<text text-anchor="middle" x="652.83" y="-875.35" font-family="Times New Roman,serif" font-size="14.00">split2#38</text>
</g>
<!-- 42&#45;&gt;44 -->
<g id="edge19" class="edge">
<title>42&#45;&gt;44</title>
<path fill="none" stroke="black" d="M538.91,-321.77C528.01,-312.58 495.77,-285.41 477.9,-270.34"/>
<polygon fill="black" stroke="black" points="480.18,-267.69 470.28,-263.92 475.67,-273.05 480.18,-267.69"/>
<text text-anchor="middle" x="544.04" y="-287.4" font-family="Times New Roman,serif" font-size="14.00">merge2#48</text>
</g>
<!-- 43 -->
<g id="node18" class="node">
<title>43</title>
<polygon fill="aquamarine" stroke="black" points="574.62,-1193.2 567.42,-1186 574.62,-1178.8 581.83,-1186 574.62,-1193.2"/>
<text text-anchor="middle" x="552.42" y="-1196.4" font-family="Times New Roman,serif" font-size="14.00">&lt;43&gt;</text>
</g>
<!-- 43&#45;&gt;10 -->
<g id="edge16" class="edge">
<title>43&#45;&gt;10</title>
<path fill="none" stroke="black" d="M569.04,-1183.99C558.19,-1181.74 534.13,-1175.33 520.38,-1160.8 508.95,-1148.72 500.42,-1133.35 494.09,-1117.81"/>
<polygon fill="black" stroke="black" points="497.38,-1116.61 490.58,-1108.49 490.83,-1119.08 497.38,-1116.61"/>
<text text-anchor="middle" x="545.5" y="-1137.75" font-family="Times New Roman,serif" font-size="14.00">split1#45</text>
</g>
<!-- 43&#45;&gt;16 -->
<g id="edge17" class="edge">
<title>43&#45;&gt;16</title>
<path fill="none" stroke="black" d="M574.62,-1178.3C574.62,-1166.97 574.62,-1142.85 574.62,-1118.28"/>
<polygon fill="black" stroke="black" points="578.13,-1118.51 574.63,-1108.51 571.13,-1118.51 578.13,-1118.51"/>
<text text-anchor="middle" x="599.75" y="-1137.75" font-family="Times New Roman,serif" font-size="14.00">split2#46</text>
</g>
<!-- 49 -->
<g id="node22" class="node">
<title>49</title>
<polygon fill="yellow" stroke="black" points="487.38,-199.3 385.88,-199.3 385.88,-141.8 487.38,-141.8 487.38,-199.3"/>
<text text-anchor="middle" x="436.62" y="-182" font-family="Times New Roman,serif" font-size="14.00">year = y and</text>
<text text-anchor="middle" x="436.62" y="-165.5" font-family="Times New Roman,serif" font-size="14.00">month = m and</text>
<text text-anchor="middle" x="436.62" y="-149" font-family="Times New Roman,serif" font-size="14.00">day = d</text>
<text text-anchor="middle" x="374.62" y="-202.5" font-family="Times New Roman,serif" font-size="14.00">[49]</text>
</g>
<!-- 44&#45;&gt;49 -->
<g id="edge22" class="edge">
<title>44&#45;&gt;49</title>
<path fill="none" stroke="black" d="M463.9,-252.85C461.06,-244.38 455.15,-226.79 449.57,-210.13"/>
<polygon fill="black" stroke="black" points="452.95,-209.22 446.45,-200.85 446.32,-211.45 452.95,-209.22"/>
<text text-anchor="middle" x="494.18" y="-220.5" font-family="Times New Roman,serif" font-size="14.00">graphAnd#56</text>
</g>
<!-- 45 -->
<g id="node20" class="node">
<title>45</title>
<ellipse fill="black" stroke="black" cx="397.62" cy="-1792.8" rx="7.2" ry="7.2"/>
<text text-anchor="middle" x="382.55" y="-1803.2" font-family="Times New Roman,serif" font-size="14.00">[0]</text>
</g>
<!-- 54 -->
<g id="node23" class="node">
<title>54</title>
<polygon fill="aquamarine" stroke="black" points="397.62,-1733.1 390.43,-1725.9 397.62,-1718.7 404.82,-1725.9 397.62,-1733.1"/>
<text text-anchor="middle" x="375.43" y="-1736.3" font-family="Times New Roman,serif" font-size="14.00">&lt;54&gt;</text>
</g>
<!-- 45&#45;&gt;54 -->
<g id="edge23" class="edge">
<title>45&#45;&gt;54</title>
<path fill="none" stroke="black" d="M397.62,-1785.34C397.62,-1776.01 397.62,-1758.41 397.62,-1744.95"/>
<polygon fill="black" stroke="black" points="401.13,-1745.24 397.63,-1735.24 394.13,-1745.24 401.13,-1745.24"/>
<text text-anchor="middle" x="445.25" y="-1754.3" font-family="Times New Roman,serif" font-size="14.00">graphOr_start#59</text>
</g>
<!-- 46 -->
<g id="node21" class="node">
<title>46</title>
<polygon fill="yellow" stroke="black" points="756.12,-1501.2 419.12,-1501.2 419.12,-1410.7 756.12,-1410.7 756.12,-1501.2"/>
<text text-anchor="middle" x="587.62" y="-1483.9" font-family="Times New Roman,serif" font-size="14.00">y &gt;= 1 and</text>
<text text-anchor="middle" x="587.62" y="-1467.4" font-family="Times New Roman,serif" font-size="14.00">m &gt;= 1 and</text>
<text text-anchor="middle" x="587.62" y="-1450.9" font-family="Times New Roman,serif" font-size="14.00">m &lt;= 12 and</text>
<text text-anchor="middle" x="587.62" y="-1434.4" font-family="Times New Roman,serif" font-size="14.00">d &gt;= 1 and</text>
<text text-anchor="middle" x="587.62" y="-1417.9" font-family="Times New Roman,serif" font-size="14.00">IfExp ConditionNode:(63) thenNode: (66) elseNode: (109)</text>
<text text-anchor="middle" x="430.38" y="-1504.4" font-family="Times New Roman,serif" font-size="14.00">[46]</text>
</g>
<!-- 46&#45;&gt;43 -->
<g id="edge20" class="edge">
<title>46&#45;&gt;43</title>
<path fill="none" stroke="black" d="M585.46,-1410.4C582.55,-1350.37 577.5,-1246.27 575.49,-1204.79"/>
<polygon fill="black" stroke="black" points="578.99,-1204.8 575.01,-1194.99 572,-1205.14 578.99,-1204.8"/>
<text text-anchor="middle" x="613.64" y="-1214.4" font-family="Times New Roman,serif" font-size="14.00">graphAnd#52</text>
</g>
<!-- 49&#45;&gt;55 -->
<g id="edge26" class="edge">
<title>49&#45;&gt;55</title>
<path fill="none" stroke="black" d="M415.06,-141.72C403.11,-126.3 388.83,-107.88 379.51,-95.85"/>
<polygon fill="black" stroke="black" points="382.37,-93.84 373.48,-88.08 376.84,-98.13 382.37,-93.84"/>
<text text-anchor="middle" x="431.87" y="-110.5" font-family="Times New Roman,serif" font-size="14.00">merge1#62</text>
</g>
<!-- 54&#45;&gt;4 -->
<g id="edge25" class="edge">
<title>54&#45;&gt;4</title>
<path fill="none" stroke="black" d="M394.95,-1721.11C389.93,-1713.98 378.17,-1697.32 362.88,-1675.64"/>
<polygon fill="black" stroke="black" points="365.86,-1673.8 357.24,-1667.64 360.14,-1677.83 365.86,-1673.8"/>
<text text-anchor="middle" x="403.09" y="-1687.4" font-family="Times New Roman,serif" font-size="14.00">split2#61</text>
</g>
<!-- 54&#45;&gt;46 -->
<g id="edge24" class="edge">
<title>54&#45;&gt;46</title>
<path fill="none" stroke="black" d="M402.14,-1722.56C409.24,-1718.71 423.2,-1710.5 432.62,-1700.7 487.55,-1643.61 533.71,-1564.17 561.01,-1511.69"/>
<polygon fill="black" stroke="black" points="564.06,-1513.41 565.52,-1502.92 557.84,-1510.21 564.06,-1513.41"/>
<text text-anchor="middle" x="468.32" y="-1687.4" font-family="Times New Roman,serif" font-size="14.00">split1#60</text>
</g>
<!-- 55&#45;&gt;8 -->
<g id="edge1" class="edge">
<title>55&#45;&gt;8</title>
<path fill="none" stroke="black" d="M369.62,-74.24C369.62,-64.87 369.62,-47.63 369.62,-33.7"/>
<polygon fill="black" stroke="black" points="373.13,-34.11 369.63,-24.11 366.13,-34.11 373.13,-34.11"/>
<text text-anchor="middle" x="415.38" y="-43.6" font-family="Times New Roman,serif" font-size="14.00">graphOr_end#64</text>
</g>
</g>
</svg>
