<?xml version="1.0" encoding="UTF-8" standalone="no"?>
<!DOCTYPE svg PUBLIC "-//W3C//DTD SVG 1.1//EN"
 "http://www.w3.org/Graphics/SVG/1.1/DTD/svg11.dtd">
<!-- Generated by graphviz version 13.1.2 (20250808.2320)
 -->
<!-- Title: CLG Pages: 1 -->
<svg width="136pt" height="207pt"
 viewBox="0.00 0.00 136.00 207.00" xmlns="http://www.w3.org/2000/svg" xmlns:xlink="http://www.w3.org/1999/xlink">
<g id="graph0" class="graph" transform="scale(1 1) rotate(0) translate(4 203.3)">
<title>CLG</title>
<polygon fill="white" stroke="none" points="-4,4 -4,-203.3 131.75,-203.3 131.75,4 -4,4"/>
<!-- 0 -->
<g id="node1" class="node">
<title>0</title>
<ellipse fill="black" stroke="black" cx="71.75" cy="-175.6" rx="7.2" ry="7.2"/>
<text xml:space="preserve" text-anchor="middle" x="56.67" y="-186" font-family="Times New Roman,serif" font-size="14.00">[0]</text>
</g>
<!-- 1 -->
<g id="node2" class="node">
<title>1</title>
<polygon fill="yellow" stroke="black" points="127.75,-132.4 15.75,-132.4 15.75,-58.4 127.75,-58.4 127.75,-132.4"/>
<text xml:space="preserve" text-anchor="middle" x="71.75" y="-115.1" font-family="Times New Roman,serif" font-size="14.00">year &gt;= 1 and</text>
<text xml:space="preserve" text-anchor="middle" x="71.75" y="-98.6" font-family="Times New Roman,serif" font-size="14.00">month &gt;= 1 and</text>
<text xml:space="preserve" text-anchor="middle" x="71.75" y="-82.1" font-family="Times New Roman,serif" font-size="14.00">month &lt;= 12 and</text>
<text xml:space="preserve" text-anchor="middle" x="71.75" y="-65.6" font-family="Times New Roman,serif" font-size="14.00">day &gt;= 1</text>
<text xml:space="preserve" text-anchor="middle" x="7.88" y="-135.6" font-family="Times New Roman,serif" font-size="14.00">[1]</text>
</g>
<!-- 0&#45;&gt;1 -->
<g id="edge1" class="edge">
<title>0&#45;&gt;1</title>
<path fill="none" stroke="black" d="M71.75,-167.93C71.75,-162.25 71.75,-153.53 71.75,-144.1"/>
<polygon fill="black" stroke="black" points="75.25,-144.37 71.75,-134.37 68.25,-144.37 75.25,-144.37"/>
</g>
<!-- 2 -->
<g id="node3" class="node">
<title>2</title>
<ellipse fill="black" stroke="black" cx="71.75" cy="-11.2" rx="7.2" ry="7.2"/>
<ellipse fill="none" stroke="black" cx="71.75" cy="-11.2" rx="11.2" ry="11.2"/>
<text xml:space="preserve" text-anchor="middle" x="50.42" y="-25.6" font-family="Times New Roman,serif" font-size="14.00">[&#45;1]</text>
</g>
<!-- 1&#45;&gt;2 -->
<g id="edge2" class="edge">
<title>1&#45;&gt;2</title>
<path fill="none" stroke="black" d="M71.75,-58.11C71.75,-49.94 71.75,-41.52 71.75,-34.16"/>
<polygon fill="black" stroke="black" points="75.25,-34.17 71.75,-24.17 68.25,-34.17 75.25,-34.17"/>
</g>
</g>
</svg>
