<?xml version="1.0" encoding="UTF-8" standalone="no"?>
<!DOCTYPE svg PUBLIC "-//W3C//DTD SVG 1.1//EN"
 "http://www.w3.org/Graphics/SVG/1.1/DTD/svg11.dtd">
<!-- Generated by graphviz version 13.1.2 (20250808.2320)
 -->
<!-- Title: CLG Pages: 1 -->
<svg width="934pt" height="2980pt"
 viewBox="0.00 0.00 934.00 2980.00" xmlns="http://www.w3.org/2000/svg" xmlns:xlink="http://www.w3.org/1999/xlink">
<g id="graph0" class="graph" transform="scale(1 1) rotate(0) translate(4 2975.5)">
<title>CLG</title>
<polygon fill="white" stroke="none" points="-4,4 -4,-2975.5 930,-2975.5 930,4 -4,4"/>
<!-- 4 -->
<g id="node1" class="node">
<title>4</title>
<polygon fill="yellow" stroke="black" points="446.5,-2821.2 15.75,-2821.2 15.75,-1245.7 446.5,-1245.7 446.5,-2821.2"/>
<text xml:space="preserve" text-anchor="middle" x="231.12" y="-2803.9" font-family="Times New Roman,serif" font-size="14.00">y &lt; 1 and</text>
<text xml:space="preserve" text-anchor="middle" x="231.12" y="-2787.4" font-family="Times New Roman,serif" font-size="14.00">m &gt;= 1 and</text>
<text xml:space="preserve" text-anchor="middle" x="231.12" y="-2770.9" font-family="Times New Roman,serif" font-size="14.00">m &lt;= 12 and</text>
<text xml:space="preserve" text-anchor="middle" x="231.12" y="-2754.4" font-family="Times New Roman,serif" font-size="14.00">d &gt;= 1 and</text>
<text xml:space="preserve" text-anchor="middle" x="231.12" y="-2737.9" font-family="Times New Roman,serif" font-size="14.00">IfExp ConditionNode:(m = 1 or</text>
<text xml:space="preserve" text-anchor="middle" x="231.12" y="-2721.4" font-family="Times New Roman,serif" font-size="14.00">m = 3 or</text>
<text xml:space="preserve" text-anchor="middle" x="231.12" y="-2704.9" font-family="Times New Roman,serif" font-size="14.00">m = 5 or</text>
<text xml:space="preserve" text-anchor="middle" x="231.12" y="-2688.4" font-family="Times New Roman,serif" font-size="14.00">m = 7 or</text>
<text xml:space="preserve" text-anchor="middle" x="231.12" y="-2671.9" font-family="Times New Roman,serif" font-size="14.00">m = 8 or</text>
<text xml:space="preserve" text-anchor="middle" x="231.12" y="-2655.4" font-family="Times New Roman,serif" font-size="14.00">m = 10 or</text>
<text xml:space="preserve" text-anchor="middle" x="231.12" y="-2638.9" font-family="Times New Roman,serif" font-size="14.00">m = 12</text>
<text xml:space="preserve" text-anchor="middle" x="231.12" y="-2622.4" font-family="Times New Roman,serif" font-size="14.00">) thenNode: (d &lt;= 31) elseNode: (IfExp ConditionNode:(m = 4 or</text>
<text xml:space="preserve" text-anchor="middle" x="231.12" y="-2605.9" font-family="Times New Roman,serif" font-size="14.00">m = 6 or</text>
<text xml:space="preserve" text-anchor="middle" x="231.12" y="-2589.4" font-family="Times New Roman,serif" font-size="14.00">m = 9 or</text>
<text xml:space="preserve" text-anchor="middle" x="231.12" y="-2572.9" font-family="Times New Roman,serif" font-size="14.00">m = 11</text>
<text xml:space="preserve" text-anchor="middle" x="231.12" y="-2556.4" font-family="Times New Roman,serif" font-size="14.00">) thenNode: (d &lt;= 30) elseNode: (IfExp ConditionNode:(y.mod(400) = 0 or</text>
<text xml:space="preserve" text-anchor="middle" x="231.12" y="-2539.9" font-family="Times New Roman,serif" font-size="14.00">y.mod(4) = 0 and</text>
<text xml:space="preserve" text-anchor="middle" x="231.12" y="-2523.4" font-family="Times New Roman,serif" font-size="14.00">y.mod(100) &lt;&gt; 0</text>
<text xml:space="preserve" text-anchor="middle" x="231.12" y="-2506.9" font-family="Times New Roman,serif" font-size="14.00">) thenNode: (d &lt; 30) elseNode: (d &lt; 29))) or</text>
<text xml:space="preserve" text-anchor="middle" x="231.12" y="-2490.4" font-family="Times New Roman,serif" font-size="14.00">y &gt;= 1 and</text>
<text xml:space="preserve" text-anchor="middle" x="231.12" y="-2473.9" font-family="Times New Roman,serif" font-size="14.00">m &lt; 1 and</text>
<text xml:space="preserve" text-anchor="middle" x="231.12" y="-2457.4" font-family="Times New Roman,serif" font-size="14.00">m &lt;= 12 and</text>
<text xml:space="preserve" text-anchor="middle" x="231.12" y="-2440.9" font-family="Times New Roman,serif" font-size="14.00">d &gt;= 1 and</text>
<text xml:space="preserve" text-anchor="middle" x="231.12" y="-2424.4" font-family="Times New Roman,serif" font-size="14.00">IfExp ConditionNode:(m = 1 or</text>
<text xml:space="preserve" text-anchor="middle" x="231.12" y="-2407.9" font-family="Times New Roman,serif" font-size="14.00">m = 3 or</text>
<text xml:space="preserve" text-anchor="middle" x="231.12" y="-2391.4" font-family="Times New Roman,serif" font-size="14.00">m = 5 or</text>
<text xml:space="preserve" text-anchor="middle" x="231.12" y="-2374.9" font-family="Times New Roman,serif" font-size="14.00">m = 7 or</text>
<text xml:space="preserve" text-anchor="middle" x="231.12" y="-2358.4" font-family="Times New Roman,serif" font-size="14.00">m = 8 or</text>
<text xml:space="preserve" text-anchor="middle" x="231.12" y="-2341.9" font-family="Times New Roman,serif" font-size="14.00">m = 10 or</text>
<text xml:space="preserve" text-anchor="middle" x="231.12" y="-2325.4" font-family="Times New Roman,serif" font-size="14.00">m = 12</text>
<text xml:space="preserve" text-anchor="middle" x="231.12" y="-2308.9" font-family="Times New Roman,serif" font-size="14.00">) thenNode: (d &lt;= 31) elseNode: (IfExp ConditionNode:(m = 4 or</text>
<text xml:space="preserve" text-anchor="middle" x="231.12" y="-2292.4" font-family="Times New Roman,serif" font-size="14.00">m = 6 or</text>
<text xml:space="preserve" text-anchor="middle" x="231.12" y="-2275.9" font-family="Times New Roman,serif" font-size="14.00">m = 9 or</text>
<text xml:space="preserve" text-anchor="middle" x="231.12" y="-2259.4" font-family="Times New Roman,serif" font-size="14.00">m = 11</text>
<text xml:space="preserve" text-anchor="middle" x="231.12" y="-2242.9" font-family="Times New Roman,serif" font-size="14.00">) thenNode: (d &lt;= 30) elseNode: (IfExp ConditionNode:(y.mod(400) = 0 or</text>
<text xml:space="preserve" text-anchor="middle" x="231.12" y="-2226.4" font-family="Times New Roman,serif" font-size="14.00">y.mod(4) = 0 and</text>
<text xml:space="preserve" text-anchor="middle" x="231.12" y="-2209.9" font-family="Times New Roman,serif" font-size="14.00">y.mod(100) &lt;&gt; 0</text>
<text xml:space="preserve" text-anchor="middle" x="231.12" y="-2193.4" font-family="Times New Roman,serif" font-size="14.00">) thenNode: (d &lt; 30) elseNode: (d &lt; 29))) or</text>
<text xml:space="preserve" text-anchor="middle" x="231.12" y="-2176.9" font-family="Times New Roman,serif" font-size="14.00">y &gt;= 1 and</text>
<text xml:space="preserve" text-anchor="middle" x="231.12" y="-2160.4" font-family="Times New Roman,serif" font-size="14.00">m &gt;= 1 and</text>
<text xml:space="preserve" text-anchor="middle" x="231.12" y="-2143.9" font-family="Times New Roman,serif" font-size="14.00">m &gt; 12 and</text>
<text xml:space="preserve" text-anchor="middle" x="231.12" y="-2127.4" font-family="Times New Roman,serif" font-size="14.00">d &gt;= 1 and</text>
<text xml:space="preserve" text-anchor="middle" x="231.12" y="-2110.9" font-family="Times New Roman,serif" font-size="14.00">IfExp ConditionNode:(m = 1 or</text>
<text xml:space="preserve" text-anchor="middle" x="231.12" y="-2094.4" font-family="Times New Roman,serif" font-size="14.00">m = 3 or</text>
<text xml:space="preserve" text-anchor="middle" x="231.12" y="-2077.9" font-family="Times New Roman,serif" font-size="14.00">m = 5 or</text>
<text xml:space="preserve" text-anchor="middle" x="231.12" y="-2061.4" font-family="Times New Roman,serif" font-size="14.00">m = 7 or</text>
<text xml:space="preserve" text-anchor="middle" x="231.12" y="-2044.9" font-family="Times New Roman,serif" font-size="14.00">m = 8 or</text>
<text xml:space="preserve" text-anchor="middle" x="231.12" y="-2028.4" font-family="Times New Roman,serif" font-size="14.00">m = 10 or</text>
<text xml:space="preserve" text-anchor="middle" x="231.12" y="-2011.9" font-family="Times New Roman,serif" font-size="14.00">m = 12</text>
<text xml:space="preserve" text-anchor="middle" x="231.12" y="-1995.4" font-family="Times New Roman,serif" font-size="14.00">) thenNode: (d &lt;= 31) elseNode: (IfExp ConditionNode:(m = 4 or</text>
<text xml:space="preserve" text-anchor="middle" x="231.12" y="-1978.9" font-family="Times New Roman,serif" font-size="14.00">m = 6 or</text>
<text xml:space="preserve" text-anchor="middle" x="231.12" y="-1962.4" font-family="Times New Roman,serif" font-size="14.00">m = 9 or</text>
<text xml:space="preserve" text-anchor="middle" x="231.12" y="-1945.9" font-family="Times New Roman,serif" font-size="14.00">m = 11</text>
<text xml:space="preserve" text-anchor="middle" x="231.12" y="-1929.4" font-family="Times New Roman,serif" font-size="14.00">) thenNode: (d &lt;= 30) elseNode: (IfExp ConditionNode:(y.mod(400) = 0 or</text>
<text xml:space="preserve" text-anchor="middle" x="231.12" y="-1912.9" font-family="Times New Roman,serif" font-size="14.00">y.mod(4) = 0 and</text>
<text xml:space="preserve" text-anchor="middle" x="231.12" y="-1896.4" font-family="Times New Roman,serif" font-size="14.00">y.mod(100) &lt;&gt; 0</text>
<text xml:space="preserve" text-anchor="middle" x="231.12" y="-1879.9" font-family="Times New Roman,serif" font-size="14.00">) thenNode: (d &lt; 30) elseNode: (d &lt; 29))) or</text>
<text xml:space="preserve" text-anchor="middle" x="231.12" y="-1863.4" font-family="Times New Roman,serif" font-size="14.00">y &gt;= 1 and</text>
<text xml:space="preserve" text-anchor="middle" x="231.12" y="-1846.9" font-family="Times New Roman,serif" font-size="14.00">m &gt;= 1 and</text>
<text xml:space="preserve" text-anchor="middle" x="231.12" y="-1830.4" font-family="Times New Roman,serif" font-size="14.00">m &lt;= 12 and</text>
<text xml:space="preserve" text-anchor="middle" x="231.12" y="-1813.9" font-family="Times New Roman,serif" font-size="14.00">d &lt; 1 and</text>
<text xml:space="preserve" text-anchor="middle" x="231.12" y="-1797.4" font-family="Times New Roman,serif" font-size="14.00">IfExp ConditionNode:(m = 1 or</text>
<text xml:space="preserve" text-anchor="middle" x="231.12" y="-1780.9" font-family="Times New Roman,serif" font-size="14.00">m = 3 or</text>
<text xml:space="preserve" text-anchor="middle" x="231.12" y="-1764.4" font-family="Times New Roman,serif" font-size="14.00">m = 5 or</text>
<text xml:space="preserve" text-anchor="middle" x="231.12" y="-1747.9" font-family="Times New Roman,serif" font-size="14.00">m = 7 or</text>
<text xml:space="preserve" text-anchor="middle" x="231.12" y="-1731.4" font-family="Times New Roman,serif" font-size="14.00">m = 8 or</text>
<text xml:space="preserve" text-anchor="middle" x="231.12" y="-1714.9" font-family="Times New Roman,serif" font-size="14.00">m = 10 or</text>
<text xml:space="preserve" text-anchor="middle" x="231.12" y="-1698.4" font-family="Times New Roman,serif" font-size="14.00">m = 12</text>
<text xml:space="preserve" text-anchor="middle" x="231.12" y="-1681.9" font-family="Times New Roman,serif" font-size="14.00">) thenNode: (d &lt;= 31) elseNode: (IfExp ConditionNode:(m = 4 or</text>
<text xml:space="preserve" text-anchor="middle" x="231.12" y="-1665.4" font-family="Times New Roman,serif" font-size="14.00">m = 6 or</text>
<text xml:space="preserve" text-anchor="middle" x="231.12" y="-1648.9" font-family="Times New Roman,serif" font-size="14.00">m = 9 or</text>
<text xml:space="preserve" text-anchor="middle" x="231.12" y="-1632.4" font-family="Times New Roman,serif" font-size="14.00">m = 11</text>
<text xml:space="preserve" text-anchor="middle" x="231.12" y="-1615.9" font-family="Times New Roman,serif" font-size="14.00">) thenNode: (d &lt;= 30) elseNode: (IfExp ConditionNode:(y.mod(400) = 0 or</text>
<text xml:space="preserve" text-anchor="middle" x="231.12" y="-1599.4" font-family="Times New Roman,serif" font-size="14.00">y.mod(4) = 0 and</text>
<text xml:space="preserve" text-anchor="middle" x="231.12" y="-1582.9" font-family="Times New Roman,serif" font-size="14.00">y.mod(100) &lt;&gt; 0</text>
<text xml:space="preserve" text-anchor="middle" x="231.12" y="-1566.4" font-family="Times New Roman,serif" font-size="14.00">) thenNode: (d &lt; 30) elseNode: (d &lt; 29))) or</text>
<text xml:space="preserve" text-anchor="middle" x="231.12" y="-1549.9" font-family="Times New Roman,serif" font-size="14.00">y &gt;= 1 and</text>
<text xml:space="preserve" text-anchor="middle" x="231.12" y="-1533.4" font-family="Times New Roman,serif" font-size="14.00">m &gt;= 1 and</text>
<text xml:space="preserve" text-anchor="middle" x="231.12" y="-1516.9" font-family="Times New Roman,serif" font-size="14.00">m &lt;= 12 and</text>
<text xml:space="preserve" text-anchor="middle" x="231.12" y="-1500.4" font-family="Times New Roman,serif" font-size="14.00">d &gt;= 1 and</text>
<text xml:space="preserve" text-anchor="middle" x="231.12" y="-1483.9" font-family="Times New Roman,serif" font-size="14.00">IfExp ConditionNode:(m = 1 or</text>
<text xml:space="preserve" text-anchor="middle" x="231.12" y="-1467.4" font-family="Times New Roman,serif" font-size="14.00">m = 3 or</text>
<text xml:space="preserve" text-anchor="middle" x="231.12" y="-1450.9" font-family="Times New Roman,serif" font-size="14.00">m = 5 or</text>
<text xml:space="preserve" text-anchor="middle" x="231.12" y="-1434.4" font-family="Times New Roman,serif" font-size="14.00">m = 7 or</text>
<text xml:space="preserve" text-anchor="middle" x="231.12" y="-1417.9" font-family="Times New Roman,serif" font-size="14.00">m = 8 or</text>
<text xml:space="preserve" text-anchor="middle" x="231.12" y="-1401.4" font-family="Times New Roman,serif" font-size="14.00">m = 10 or</text>
<text xml:space="preserve" text-anchor="middle" x="231.12" y="-1384.9" font-family="Times New Roman,serif" font-size="14.00">m = 12</text>
<text xml:space="preserve" text-anchor="middle" x="231.12" y="-1368.4" font-family="Times New Roman,serif" font-size="14.00">) thenNode: (d &gt; 31) elseNode: (IfExp ConditionNode:(m = 4 or</text>
<text xml:space="preserve" text-anchor="middle" x="231.12" y="-1351.9" font-family="Times New Roman,serif" font-size="14.00">m = 6 or</text>
<text xml:space="preserve" text-anchor="middle" x="231.12" y="-1335.4" font-family="Times New Roman,serif" font-size="14.00">m = 9 or</text>
<text xml:space="preserve" text-anchor="middle" x="231.12" y="-1318.9" font-family="Times New Roman,serif" font-size="14.00">m = 11</text>
<text xml:space="preserve" text-anchor="middle" x="231.12" y="-1302.4" font-family="Times New Roman,serif" font-size="14.00">) thenNode: (d &gt; 30) elseNode: (IfExp ConditionNode:(y.mod(400) = 0 or</text>
<text xml:space="preserve" text-anchor="middle" x="231.12" y="-1285.9" font-family="Times New Roman,serif" font-size="14.00">y.mod(4) = 0 and</text>
<text xml:space="preserve" text-anchor="middle" x="231.12" y="-1269.4" font-family="Times New Roman,serif" font-size="14.00">y.mod(100) &lt;&gt; 0</text>
<text xml:space="preserve" text-anchor="middle" x="231.12" y="-1252.9" font-family="Times New Roman,serif" font-size="14.00">) thenNode: (d &gt;= 30) elseNode: (d &gt;= 29)))</text>
<text xml:space="preserve" text-anchor="middle" x="7.88" y="-2824.4" font-family="Times New Roman,serif" font-size="14.00">[4]</text>
</g>
<!-- 7 -->
<g id="node2" class="node">
<title>7</title>
<polygon fill="yellow" stroke="black" points="517.88,-1160.8 338.38,-1160.8 338.38,-1124.8 517.88,-1124.8 517.88,-1160.8"/>
<text xml:space="preserve" text-anchor="middle" x="428.12" y="-1137.75" font-family="Times New Roman,serif" font-size="14.00">Result = &#39;DateErrorException&#39;</text>
<text xml:space="preserve" text-anchor="middle" x="330.5" y="-1164" font-family="Times New Roman,serif" font-size="14.00">[7]</text>
</g>
<!-- 4&#45;&gt;7 -->
<g id="edge21" class="edge">
<title>4&#45;&gt;7</title>
<path fill="none" stroke="black" d="M405.62,-1245.31C412.37,-1214.88 417.9,-1189.92 421.79,-1172.36"/>
<polygon fill="black" stroke="black" points="425.2,-1173.16 423.95,-1162.64 418.37,-1171.64 425.2,-1173.16"/>
<text xml:space="preserve" text-anchor="middle" x="449.87" y="-1214.4" font-family="Times New Roman,serif" font-size="14.00">graphAnd#55</text>
</g>
<!-- 55 -->
<g id="node24" class="node">
<title>55</title>
<polygon fill="aquamarine" stroke="black" points="445.12,-89.3 437.93,-82.1 445.12,-74.9 452.32,-82.1 445.12,-89.3"/>
<text xml:space="preserve" text-anchor="middle" x="422.93" y="-92.5" font-family="Times New Roman,serif" font-size="14.00">&lt;55&gt;</text>
</g>
<!-- 7&#45;&gt;55 -->
<g id="edge27" class="edge">
<title>7&#45;&gt;55</title>
<path fill="none" stroke="black" d="M428.28,-1124.32C428.57,-1091.66 429.12,-1019.14 429.12,-958.05 429.12,-958.05 429.12,-958.05 429.12,-169.55 429.12,-144.62 435.64,-116.3 440.35,-99.08"/>
<polygon fill="black" stroke="black" points="443.69,-100.14 443.11,-89.56 436.97,-98.19 443.69,-100.14"/>
<text xml:space="preserve" text-anchor="middle" x="459.88" y="-509.7" font-family="Times New Roman,serif" font-size="14.00">merge2#63</text>
</g>
<!-- 8 -->
<g id="node3" class="node">
<title>8</title>
<ellipse fill="black" stroke="black" cx="445.12" cy="-11.2" rx="7.2" ry="7.2"/>
<ellipse fill="none" stroke="black" cx="445.12" cy="-11.2" rx="11.2" ry="11.2"/>
<text xml:space="preserve" text-anchor="middle" x="423.8" y="-25.6" font-family="Times New Roman,serif" font-size="14.00">[&#45;1]</text>
</g>
<!-- 10 -->
<g id="node4" class="node">
<title>10</title>
<polygon fill="yellow" stroke="black" points="596.88,-1106.8 525.38,-1106.8 525.38,-983.3 596.88,-983.3 596.88,-1106.8"/>
<text xml:space="preserve" text-anchor="middle" x="561.12" y="-1089.5" font-family="Times New Roman,serif" font-size="14.00">m = 1 or</text>
<text xml:space="preserve" text-anchor="middle" x="561.12" y="-1073" font-family="Times New Roman,serif" font-size="14.00">m = 3 or</text>
<text xml:space="preserve" text-anchor="middle" x="561.12" y="-1056.5" font-family="Times New Roman,serif" font-size="14.00">m = 5 or</text>
<text xml:space="preserve" text-anchor="middle" x="561.12" y="-1040" font-family="Times New Roman,serif" font-size="14.00">m = 7 or</text>
<text xml:space="preserve" text-anchor="middle" x="561.12" y="-1023.5" font-family="Times New Roman,serif" font-size="14.00">m = 8 or</text>
<text xml:space="preserve" text-anchor="middle" x="561.12" y="-1007" font-family="Times New Roman,serif" font-size="14.00">m = 10 or</text>
<text xml:space="preserve" text-anchor="middle" x="561.12" y="-990.5" font-family="Times New Roman,serif" font-size="14.00">m = 12</text>
<text xml:space="preserve" text-anchor="middle" x="514.12" y="-1110" font-family="Times New Roman,serif" font-size="14.00">[10]</text>
</g>
<!-- 13 -->
<g id="node5" class="node">
<title>13</title>
<polygon fill="yellow" stroke="black" points="579.25,-898.4 519,-898.4 519,-862.4 579.25,-862.4 579.25,-898.4"/>
<text xml:space="preserve" text-anchor="middle" x="549.12" y="-875.35" font-family="Times New Roman,serif" font-size="14.00">d &lt;= 31</text>
<text xml:space="preserve" text-anchor="middle" x="507.75" y="-901.6" font-family="Times New Roman,serif" font-size="14.00">[13]</text>
</g>
<!-- 10&#45;&gt;13 -->
<g id="edge14" class="edge">
<title>10&#45;&gt;13</title>
<path fill="none" stroke="black" d="M556.62,-983.02C554.77,-957.97 552.72,-930.18 551.23,-910"/>
<polygon fill="black" stroke="black" points="554.75,-910.02 550.52,-900.3 547.76,-910.53 554.75,-910.02"/>
<text xml:space="preserve" text-anchor="middle" x="592.25" y="-952" font-family="Times New Roman,serif" font-size="14.00">graphAnd#42</text>
</g>
<!-- 44 -->
<g id="node19" class="node">
<title>44</title>
<polygon fill="aquamarine" stroke="black" points="548.12,-266.2 540.92,-259 548.12,-251.8 555.33,-259 548.12,-266.2"/>
<text xml:space="preserve" text-anchor="middle" x="525.92" y="-269.4" font-family="Times New Roman,serif" font-size="14.00">&lt;44&gt;</text>
</g>
<!-- 13&#45;&gt;44 -->
<g id="edge18" class="edge">
<title>13&#45;&gt;44</title>
<path fill="none" stroke="black" d="M548.91,-862.02C548.62,-836.43 548.12,-787.1 548.12,-745.15 548.12,-745.15 548.12,-745.15 548.12,-324.9 548.12,-309.18 548.12,-291.31 548.12,-278.31"/>
<polygon fill="black" stroke="black" points="551.63,-278.33 548.13,-268.33 544.63,-278.33 551.63,-278.33"/>
<text xml:space="preserve" text-anchor="middle" x="578.88" y="-509.7" font-family="Times New Roman,serif" font-size="14.00">merge1#47</text>
</g>
<!-- 16 -->
<g id="node6" class="node">
<title>16</title>
<polygon fill="yellow" stroke="black" points="703.12,-1106.8 615.12,-1106.8 615.12,-983.3 703.12,-983.3 703.12,-1106.8"/>
<text xml:space="preserve" text-anchor="middle" x="659.12" y="-1089.5" font-family="Times New Roman,serif" font-size="14.00">m &lt;&gt; 1 and</text>
<text xml:space="preserve" text-anchor="middle" x="659.12" y="-1073" font-family="Times New Roman,serif" font-size="14.00">m &lt;&gt; 3 and</text>
<text xml:space="preserve" text-anchor="middle" x="659.12" y="-1056.5" font-family="Times New Roman,serif" font-size="14.00">m &lt;&gt; 5 and</text>
<text xml:space="preserve" text-anchor="middle" x="659.12" y="-1040" font-family="Times New Roman,serif" font-size="14.00">m &lt;&gt; 7 and</text>
<text xml:space="preserve" text-anchor="middle" x="659.12" y="-1023.5" font-family="Times New Roman,serif" font-size="14.00">m &lt;&gt; 8 and</text>
<text xml:space="preserve" text-anchor="middle" x="659.12" y="-1007" font-family="Times New Roman,serif" font-size="14.00">m &lt;&gt; 10 and</text>
<text xml:space="preserve" text-anchor="middle" x="659.12" y="-990.5" font-family="Times New Roman,serif" font-size="14.00">m &lt;&gt; 12</text>
<text xml:space="preserve" text-anchor="middle" x="603.88" y="-1110" font-family="Times New Roman,serif" font-size="14.00">[16]</text>
</g>
<!-- 41 -->
<g id="node16" class="node">
<title>41</title>
<polygon fill="aquamarine" stroke="black" points="659.12,-930.8 651.92,-923.6 659.12,-916.4 666.33,-923.6 659.12,-930.8"/>
<text xml:space="preserve" text-anchor="middle" x="636.92" y="-934" font-family="Times New Roman,serif" font-size="14.00">&lt;41&gt;</text>
</g>
<!-- 16&#45;&gt;41 -->
<g id="edge15" class="edge">
<title>16&#45;&gt;41</title>
<path fill="none" stroke="black" d="M659.12,-982.93C659.12,-968.23 659.12,-953.66 659.12,-942.75"/>
<polygon fill="black" stroke="black" points="662.63,-943.02 659.13,-933.02 655.63,-943.02 662.63,-943.02"/>
<text xml:space="preserve" text-anchor="middle" x="696.25" y="-952" font-family="Times New Roman,serif" font-size="14.00">graphAnd#43</text>
</g>
<!-- 19 -->
<g id="node7" class="node">
<title>19</title>
<polygon fill="yellow" stroke="black" points="659.5,-844.4 594.75,-844.4 594.75,-770.4 659.5,-770.4 659.5,-844.4"/>
<text xml:space="preserve" text-anchor="middle" x="627.12" y="-827.1" font-family="Times New Roman,serif" font-size="14.00">m = 4 or</text>
<text xml:space="preserve" text-anchor="middle" x="627.12" y="-810.6" font-family="Times New Roman,serif" font-size="14.00">m = 6 or</text>
<text xml:space="preserve" text-anchor="middle" x="627.12" y="-794.1" font-family="Times New Roman,serif" font-size="14.00">m = 9 or</text>
<text xml:space="preserve" text-anchor="middle" x="627.12" y="-777.6" font-family="Times New Roman,serif" font-size="14.00">m = 11</text>
<text xml:space="preserve" text-anchor="middle" x="583.5" y="-847.6" font-family="Times New Roman,serif" font-size="14.00">[19]</text>
</g>
<!-- 22 -->
<g id="node8" class="node">
<title>22</title>
<polygon fill="yellow" stroke="black" points="655.25,-685.5 595,-685.5 595,-649.5 655.25,-649.5 655.25,-685.5"/>
<text xml:space="preserve" text-anchor="middle" x="625.12" y="-662.45" font-family="Times New Roman,serif" font-size="14.00">d &lt;= 30</text>
<text xml:space="preserve" text-anchor="middle" x="583.75" y="-688.7" font-family="Times New Roman,serif" font-size="14.00">[22]</text>
</g>
<!-- 19&#45;&gt;22 -->
<g id="edge8" class="edge">
<title>19&#45;&gt;22</title>
<path fill="none" stroke="black" d="M626.6,-770.17C626.27,-747.35 625.85,-718.32 625.54,-697.12"/>
<polygon fill="black" stroke="black" points="629.04,-697.12 625.4,-687.17 622.04,-697.22 629.04,-697.12"/>
<text xml:space="preserve" text-anchor="middle" x="663.46" y="-739.1" font-family="Times New Roman,serif" font-size="14.00">graphAnd#34</text>
</g>
<!-- 42 -->
<g id="node17" class="node">
<title>42</title>
<polygon fill="aquamarine" stroke="black" points="625.12,-333.1 617.92,-325.9 625.12,-318.7 632.33,-325.9 625.12,-333.1"/>
<text xml:space="preserve" text-anchor="middle" x="602.92" y="-336.3" font-family="Times New Roman,serif" font-size="14.00">&lt;42&gt;</text>
</g>
<!-- 22&#45;&gt;42 -->
<g id="edge12" class="edge">
<title>22&#45;&gt;42</title>
<path fill="none" stroke="black" d="M625.12,-649.32C625.12,-621.33 625.12,-564.17 625.12,-515.75 625.12,-515.75 625.12,-515.75 625.12,-391.8 625.12,-376.08 625.12,-358.21 625.12,-345.21"/>
<polygon fill="black" stroke="black" points="628.63,-345.23 625.13,-335.23 621.63,-345.23 628.63,-345.23"/>
<text xml:space="preserve" text-anchor="middle" x="655.88" y="-465.45" font-family="Times New Roman,serif" font-size="14.00">merge1#39</text>
</g>
<!-- 25 -->
<g id="node9" class="node">
<title>25</title>
<polygon fill="yellow" stroke="black" points="761.75,-844.4 680.5,-844.4 680.5,-770.4 761.75,-770.4 761.75,-844.4"/>
<text xml:space="preserve" text-anchor="middle" x="721.12" y="-827.1" font-family="Times New Roman,serif" font-size="14.00">m &lt;&gt; 4 and</text>
<text xml:space="preserve" text-anchor="middle" x="721.12" y="-810.6" font-family="Times New Roman,serif" font-size="14.00">m &lt;&gt; 6 and</text>
<text xml:space="preserve" text-anchor="middle" x="721.12" y="-794.1" font-family="Times New Roman,serif" font-size="14.00">m &lt;&gt; 9 and</text>
<text xml:space="preserve" text-anchor="middle" x="721.12" y="-777.6" font-family="Times New Roman,serif" font-size="14.00">m &lt;&gt; 11</text>
<text xml:space="preserve" text-anchor="middle" x="669.25" y="-847.6" font-family="Times New Roman,serif" font-size="14.00">[25]</text>
</g>
<!-- 39 -->
<g id="node14" class="node">
<title>39</title>
<polygon fill="aquamarine" stroke="black" points="722.12,-717.9 714.92,-710.7 722.12,-703.5 729.33,-710.7 722.12,-717.9"/>
<text xml:space="preserve" text-anchor="middle" x="699.92" y="-721.1" font-family="Times New Roman,serif" font-size="14.00">&lt;39&gt;</text>
</g>
<!-- 25&#45;&gt;39 -->
<g id="edge9" class="edge">
<title>25&#45;&gt;39</title>
<path fill="none" stroke="black" d="M721.51,-770.06C721.65,-756.26 721.81,-741.14 721.93,-729.75"/>
<polygon fill="black" stroke="black" points="725.43,-729.95 722.04,-719.91 718.43,-729.87 725.43,-729.95"/>
<text xml:space="preserve" text-anchor="middle" x="758.98" y="-739.1" font-family="Times New Roman,serif" font-size="14.00">graphAnd#35</text>
</g>
<!-- 28 -->
<g id="node10" class="node">
<title>28</title>
<polygon fill="yellow" stroke="black" points="773.75,-615 656.5,-615 656.5,-557.5 773.75,-557.5 773.75,-615"/>
<text xml:space="preserve" text-anchor="middle" x="715.12" y="-597.7" font-family="Times New Roman,serif" font-size="14.00">y.mod(400) = 0 or</text>
<text xml:space="preserve" text-anchor="middle" x="715.12" y="-581.2" font-family="Times New Roman,serif" font-size="14.00">y.mod(4) = 0 and</text>
<text xml:space="preserve" text-anchor="middle" x="715.12" y="-564.7" font-family="Times New Roman,serif" font-size="14.00">y.mod(100) &lt;&gt; 0</text>
<text xml:space="preserve" text-anchor="middle" x="645.25" y="-618.2" font-family="Times New Roman,serif" font-size="14.00">[28]</text>
</g>
<!-- 31 -->
<g id="node11" class="node">
<title>31</title>
<polygon fill="yellow" stroke="black" points="759.12,-488.5 705.12,-488.5 705.12,-452.5 759.12,-452.5 759.12,-488.5"/>
<text xml:space="preserve" text-anchor="middle" x="732.12" y="-465.45" font-family="Times New Roman,serif" font-size="14.00">d &lt; 30</text>
<text xml:space="preserve" text-anchor="middle" x="693.88" y="-491.7" font-family="Times New Roman,serif" font-size="14.00">[31]</text>
</g>
<!-- 28&#45;&gt;31 -->
<g id="edge2" class="edge">
<title>28&#45;&gt;31</title>
<path fill="none" stroke="black" d="M719.33,-557.13C721.93,-539.71 725.27,-517.39 727.88,-499.91"/>
<polygon fill="black" stroke="black" points="731.31,-500.61 729.33,-490.2 724.39,-499.57 731.31,-500.61"/>
<text xml:space="preserve" text-anchor="middle" x="763.75" y="-509.7" font-family="Times New Roman,serif" font-size="14.00">graphAnd#26</text>
</g>
<!-- 40 -->
<g id="node15" class="node">
<title>40</title>
<polygon fill="aquamarine" stroke="black" points="732.12,-400 724.92,-392.8 732.12,-385.6 739.33,-392.8 732.12,-400"/>
<text xml:space="preserve" text-anchor="middle" x="709.92" y="-403.2" font-family="Times New Roman,serif" font-size="14.00">&lt;40&gt;</text>
</g>
<!-- 31&#45;&gt;40 -->
<g id="edge6" class="edge">
<title>31&#45;&gt;40</title>
<path fill="none" stroke="black" d="M732.12,-452.32C732.12,-440.28 732.12,-424.2 732.12,-411.95"/>
<polygon fill="black" stroke="black" points="735.63,-412.04 732.13,-402.04 728.63,-412.04 735.63,-412.04"/>
<text xml:space="preserve" text-anchor="middle" x="762.88" y="-421.2" font-family="Times New Roman,serif" font-size="14.00">merge1#31</text>
</g>
<!-- 34 -->
<g id="node12" class="node">
<title>34</title>
<polygon fill="yellow" stroke="black" points="926,-631.5 792.25,-631.5 792.25,-541 926,-541 926,-631.5"/>
<text xml:space="preserve" text-anchor="middle" x="859.12" y="-614.2" font-family="Times New Roman,serif" font-size="14.00">y.mod(400) &lt;&gt; 0 and</text>
<text xml:space="preserve" text-anchor="middle" x="859.12" y="-597.7" font-family="Times New Roman,serif" font-size="14.00">y.mod(4) &lt;&gt; 0 and</text>
<text xml:space="preserve" text-anchor="middle" x="859.12" y="-581.2" font-family="Times New Roman,serif" font-size="14.00">y.mod(100) &lt;&gt; 0 or</text>
<text xml:space="preserve" text-anchor="middle" x="859.12" y="-564.7" font-family="Times New Roman,serif" font-size="14.00">y.mod(4) = 0 and</text>
<text xml:space="preserve" text-anchor="middle" x="859.12" y="-548.2" font-family="Times New Roman,serif" font-size="14.00">y.mod(100) = 0</text>
<text xml:space="preserve" text-anchor="middle" x="781" y="-634.7" font-family="Times New Roman,serif" font-size="14.00">[34]</text>
</g>
<!-- 37 -->
<g id="node13" class="node">
<title>37</title>
<polygon fill="yellow" stroke="black" points="853.12,-488.5 799.12,-488.5 799.12,-452.5 853.12,-452.5 853.12,-488.5"/>
<text xml:space="preserve" text-anchor="middle" x="826.12" y="-465.45" font-family="Times New Roman,serif" font-size="14.00">d &lt; 29</text>
<text xml:space="preserve" text-anchor="middle" x="787.88" y="-491.7" font-family="Times New Roman,serif" font-size="14.00">[37]</text>
</g>
<!-- 34&#45;&gt;37 -->
<g id="edge3" class="edge">
<title>34&#45;&gt;37</title>
<path fill="none" stroke="black" d="M846.18,-540.62C842.18,-526.85 837.89,-512.07 834.31,-499.73"/>
<polygon fill="black" stroke="black" points="837.7,-498.83 831.55,-490.2 830.98,-500.78 837.7,-498.83"/>
<text xml:space="preserve" text-anchor="middle" x="877.77" y="-509.7" font-family="Times New Roman,serif" font-size="14.00">graphAnd#27</text>
</g>
<!-- 37&#45;&gt;40 -->
<g id="edge7" class="edge">
<title>37&#45;&gt;40</title>
<path fill="none" stroke="black" d="M820.34,-452.12C815.85,-441.01 808.6,-427.04 798.12,-418 784.12,-405.91 763.56,-399.65 749.12,-396.56"/>
<polygon fill="black" stroke="black" points="749.89,-393.14 739.43,-394.8 748.64,-400.03 749.89,-393.14"/>
<text xml:space="preserve" text-anchor="middle" x="841.99" y="-421.2" font-family="Times New Roman,serif" font-size="14.00">merge2#32</text>
</g>
<!-- 39&#45;&gt;28 -->
<g id="edge4" class="edge">
<title>39&#45;&gt;28</title>
<path fill="none" stroke="black" d="M721.77,-703.46C720.97,-689.47 718.98,-654.65 717.38,-626.75"/>
<polygon fill="black" stroke="black" points="720.88,-626.59 716.81,-616.81 713.89,-626.99 720.88,-626.59"/>
<text xml:space="preserve" text-anchor="middle" x="745.74" y="-662.45" font-family="Times New Roman,serif" font-size="14.00">split1#29</text>
</g>
<!-- 39&#45;&gt;34 -->
<g id="edge5" class="edge">
<title>39&#45;&gt;34</title>
<path fill="none" stroke="black" d="M727.19,-708.21C737.1,-705.12 759.45,-697.31 775.12,-685.5 791.91,-672.85 807.66,-656.3 820.88,-640.41"/>
<polygon fill="black" stroke="black" points="823.43,-642.82 827,-632.85 817.99,-638.42 823.43,-642.82"/>
<text xml:space="preserve" text-anchor="middle" x="836.3" y="-662.45" font-family="Times New Roman,serif" font-size="14.00">split2#30</text>
</g>
<!-- 40&#45;&gt;42 -->
<g id="edge13" class="edge">
<title>40&#45;&gt;42</title>
<path fill="none" stroke="black" d="M728.06,-389.34C713.5,-380.5 663.47,-350.16 638.93,-335.27"/>
<polygon fill="black" stroke="black" points="640.85,-332.35 630.49,-330.15 637.22,-338.33 640.85,-332.35"/>
<text xml:space="preserve" text-anchor="middle" x="722.11" y="-354.3" font-family="Times New Roman,serif" font-size="14.00">merge2#40</text>
</g>
<!-- 41&#45;&gt;19 -->
<g id="edge10" class="edge">
<title>41&#45;&gt;19</title>
<path fill="none" stroke="black" d="M656.07,-919.1C652.34,-914.62 646.12,-906.48 642.88,-898.4 637.56,-885.18 634.03,-870.15 631.7,-856.21"/>
<polygon fill="black" stroke="black" points="635.16,-855.7 630.23,-846.33 628.24,-856.73 635.16,-855.7"/>
<text xml:space="preserve" text-anchor="middle" x="668" y="-875.35" font-family="Times New Roman,serif" font-size="14.00">split1#37</text>
</g>
<!-- 41&#45;&gt;25 -->
<g id="edge11" class="edge">
<title>41&#45;&gt;25</title>
<path fill="none" stroke="black" d="M663.82,-920.5C671.16,-916.97 685.3,-909.2 693.12,-898.4 702.23,-885.83 708.43,-870.23 712.63,-855.56"/>
<polygon fill="black" stroke="black" points="715.97,-856.61 715.09,-846.05 709.19,-854.86 715.97,-856.61"/>
<text xml:space="preserve" text-anchor="middle" x="735.14" y="-875.35" font-family="Times New Roman,serif" font-size="14.00">split2#38</text>
</g>
<!-- 42&#45;&gt;44 -->
<g id="edge19" class="edge">
<title>42&#45;&gt;44</title>
<path fill="none" stroke="black" d="M621.41,-321.77C610.51,-312.58 578.27,-285.41 560.4,-270.34"/>
<polygon fill="black" stroke="black" points="562.68,-267.69 552.78,-263.92 558.17,-273.05 562.68,-267.69"/>
<text xml:space="preserve" text-anchor="middle" x="626.54" y="-287.4" font-family="Times New Roman,serif" font-size="14.00">merge2#48</text>
</g>
<!-- 43 -->
<g id="node18" class="node">
<title>43</title>
<polygon fill="aquamarine" stroke="black" points="659.12,-1193.2 651.92,-1186 659.12,-1178.8 666.33,-1186 659.12,-1193.2"/>
<text xml:space="preserve" text-anchor="middle" x="636.92" y="-1196.4" font-family="Times New Roman,serif" font-size="14.00">&lt;43&gt;</text>
</g>
<!-- 43&#45;&gt;10 -->
<g id="edge16" class="edge">
<title>43&#45;&gt;10</title>
<path fill="none" stroke="black" d="M653.54,-1183.99C642.69,-1181.74 618.63,-1175.33 604.88,-1160.8 593.45,-1148.72 584.92,-1133.35 578.59,-1117.81"/>
<polygon fill="black" stroke="black" points="581.88,-1116.61 575.08,-1108.49 575.33,-1119.08 581.88,-1116.61"/>
<text xml:space="preserve" text-anchor="middle" x="630" y="-1137.75" font-family="Times New Roman,serif" font-size="14.00">split1#45</text>
</g>
<!-- 43&#45;&gt;16 -->
<g id="edge17" class="edge">
<title>43&#45;&gt;16</title>
<path fill="none" stroke="black" d="M659.12,-1178.3C659.12,-1166.97 659.12,-1142.85 659.12,-1118.28"/>
<polygon fill="black" stroke="black" points="662.63,-1118.51 659.13,-1108.51 655.63,-1118.51 662.63,-1118.51"/>
<text xml:space="preserve" text-anchor="middle" x="684.25" y="-1137.75" font-family="Times New Roman,serif" font-size="14.00">split2#46</text>
</g>
<!-- 49 -->
<g id="node22" class="node">
<title>49</title>
<polygon fill="yellow" stroke="black" points="562.88,-199.3 461.38,-199.3 461.38,-141.8 562.88,-141.8 562.88,-199.3"/>
<text xml:space="preserve" text-anchor="middle" x="512.12" y="-182" font-family="Times New Roman,serif" font-size="14.00">year = y and</text>
<text xml:space="preserve" text-anchor="middle" x="512.12" y="-165.5" font-family="Times New Roman,serif" font-size="14.00">month = m and</text>
<text xml:space="preserve" text-anchor="middle" x="512.12" y="-149" font-family="Times New Roman,serif" font-size="14.00">day = d</text>
<text xml:space="preserve" text-anchor="middle" x="450.12" y="-202.5" font-family="Times New Roman,serif" font-size="14.00">[49]</text>
</g>
<!-- 44&#45;&gt;49 -->
<g id="edge22" class="edge">
<title>44&#45;&gt;49</title>
<path fill="none" stroke="black" d="M546.19,-253.35C542.73,-245.05 535.18,-226.92 528.07,-209.84"/>
<polygon fill="black" stroke="black" points="531.39,-208.71 524.32,-200.83 524.93,-211.41 531.39,-208.71"/>
<text xml:space="preserve" text-anchor="middle" x="574.61" y="-220.5" font-family="Times New Roman,serif" font-size="14.00">graphAnd#56</text>
</g>
<!-- 45 -->
<g id="node20" class="node">
<title>45</title>
<ellipse fill="black" stroke="black" cx="455.12" cy="-2947.8" rx="7.2" ry="7.2"/>
<text xml:space="preserve" text-anchor="middle" x="440.05" y="-2958.2" font-family="Times New Roman,serif" font-size="14.00">[0]</text>
</g>
<!-- 54 -->
<g id="node23" class="node">
<title>54</title>
<polygon fill="aquamarine" stroke="black" points="455.12,-2888.1 447.93,-2880.9 455.12,-2873.7 462.32,-2880.9 455.12,-2888.1"/>
<text xml:space="preserve" text-anchor="middle" x="432.93" y="-2891.3" font-family="Times New Roman,serif" font-size="14.00">&lt;54&gt;</text>
</g>
<!-- 45&#45;&gt;54 -->
<g id="edge23" class="edge">
<title>45&#45;&gt;54</title>
<path fill="none" stroke="black" d="M455.12,-2940.34C455.12,-2931.01 455.12,-2913.41 455.12,-2899.95"/>
<polygon fill="black" stroke="black" points="458.63,-2900.24 455.13,-2890.24 451.63,-2900.24 458.63,-2900.24"/>
<text xml:space="preserve" text-anchor="middle" x="502.75" y="-2909.3" font-family="Times New Roman,serif" font-size="14.00">graphOr_start#59</text>
</g>
<!-- 46 -->
<g id="node21" class="node">
<title>46</title>
<polygon fill="yellow" stroke="black" points="895.5,-2194.2 464.75,-2194.2 464.75,-1872.7 895.5,-1872.7 895.5,-2194.2"/>
<text xml:space="preserve" text-anchor="middle" x="680.12" y="-2176.9" font-family="Times New Roman,serif" font-size="14.00">y &gt;= 1 and</text>
<text xml:space="preserve" text-anchor="middle" x="680.12" y="-2160.4" font-family="Times New Roman,serif" font-size="14.00">m &gt;= 1 and</text>
<text xml:space="preserve" text-anchor="middle" x="680.12" y="-2143.9" font-family="Times New Roman,serif" font-size="14.00">m &lt;= 12 and</text>
<text xml:space="preserve" text-anchor="middle" x="680.12" y="-2127.4" font-family="Times New Roman,serif" font-size="14.00">d &gt;= 1 and</text>
<text xml:space="preserve" text-anchor="middle" x="680.12" y="-2110.9" font-family="Times New Roman,serif" font-size="14.00">IfExp ConditionNode:(m = 1 or</text>
<text xml:space="preserve" text-anchor="middle" x="680.12" y="-2094.4" font-family="Times New Roman,serif" font-size="14.00">m = 3 or</text>
<text xml:space="preserve" text-anchor="middle" x="680.12" y="-2077.9" font-family="Times New Roman,serif" font-size="14.00">m = 5 or</text>
<text xml:space="preserve" text-anchor="middle" x="680.12" y="-2061.4" font-family="Times New Roman,serif" font-size="14.00">m = 7 or</text>
<text xml:space="preserve" text-anchor="middle" x="680.12" y="-2044.9" font-family="Times New Roman,serif" font-size="14.00">m = 8 or</text>
<text xml:space="preserve" text-anchor="middle" x="680.12" y="-2028.4" font-family="Times New Roman,serif" font-size="14.00">m = 10 or</text>
<text xml:space="preserve" text-anchor="middle" x="680.12" y="-2011.9" font-family="Times New Roman,serif" font-size="14.00">m = 12</text>
<text xml:space="preserve" text-anchor="middle" x="680.12" y="-1995.4" font-family="Times New Roman,serif" font-size="14.00">) thenNode: (d &lt;= 31) elseNode: (IfExp ConditionNode:(m = 4 or</text>
<text xml:space="preserve" text-anchor="middle" x="680.12" y="-1978.9" font-family="Times New Roman,serif" font-size="14.00">m = 6 or</text>
<text xml:space="preserve" text-anchor="middle" x="680.12" y="-1962.4" font-family="Times New Roman,serif" font-size="14.00">m = 9 or</text>
<text xml:space="preserve" text-anchor="middle" x="680.12" y="-1945.9" font-family="Times New Roman,serif" font-size="14.00">m = 11</text>
<text xml:space="preserve" text-anchor="middle" x="680.12" y="-1929.4" font-family="Times New Roman,serif" font-size="14.00">) thenNode: (d &lt;= 30) elseNode: (IfExp ConditionNode:(y.mod(400) = 0 or</text>
<text xml:space="preserve" text-anchor="middle" x="680.12" y="-1912.9" font-family="Times New Roman,serif" font-size="14.00">y.mod(4) = 0 and</text>
<text xml:space="preserve" text-anchor="middle" x="680.12" y="-1896.4" font-family="Times New Roman,serif" font-size="14.00">y.mod(100) &lt;&gt; 0</text>
<text xml:space="preserve" text-anchor="middle" x="680.12" y="-1879.9" font-family="Times New Roman,serif" font-size="14.00">) thenNode: (d &lt; 30) elseNode: (d &lt; 29)))</text>
<text xml:space="preserve" text-anchor="middle" x="476" y="-2197.4" font-family="Times New Roman,serif" font-size="14.00">[46]</text>
</g>
<!-- 46&#45;&gt;43 -->
<g id="edge20" class="edge">
<title>46&#45;&gt;43</title>
<path fill="none" stroke="black" d="M676.15,-1872.43C670.79,-1656.81 661.69,-1290.1 659.57,-1205.01"/>
<polygon fill="black" stroke="black" points="663.08,-1205.08 659.33,-1195.17 656.08,-1205.26 663.08,-1205.08"/>
<text xml:space="preserve" text-anchor="middle" x="697.08" y="-1214.4" font-family="Times New Roman,serif" font-size="14.00">graphAnd#52</text>
</g>
<!-- 49&#45;&gt;55 -->
<g id="edge26" class="edge">
<title>49&#45;&gt;55</title>
<path fill="none" stroke="black" d="M490.56,-141.72C478.61,-126.3 464.33,-107.88 455.01,-95.85"/>
<polygon fill="black" stroke="black" points="457.87,-93.84 448.98,-88.08 452.34,-98.13 457.87,-93.84"/>
<text xml:space="preserve" text-anchor="middle" x="507.37" y="-110.5" font-family="Times New Roman,serif" font-size="14.00">merge1#62</text>
</g>
<!-- 54&#45;&gt;4 -->
<g id="edge25" class="edge">
<title>54&#45;&gt;4</title>
<path fill="none" stroke="black" d="M453.69,-2874.5C451.76,-2867.2 447.93,-2852.73 442.6,-2832.62"/>
<polygon fill="black" stroke="black" points="446.01,-2831.83 440.07,-2823.06 439.24,-2833.63 446.01,-2831.83"/>
<text xml:space="preserve" text-anchor="middle" x="471.35" y="-2842.4" font-family="Times New Roman,serif" font-size="14.00">split2#61</text>
</g>
<!-- 54&#45;&gt;46 -->
<g id="edge24" class="edge">
<title>54&#45;&gt;46</title>
<path fill="none" stroke="black" d="M460.53,-2878.59C470.1,-2875.97 489.97,-2869.15 500.12,-2855.7 643.36,-2665.94 677.19,-2385.19 682.86,-2206.06"/>
<polygon fill="black" stroke="black" points="686.35,-2206.28 683.14,-2196.19 679.35,-2206.08 686.35,-2206.28"/>
<text xml:space="preserve" text-anchor="middle" x="525.25" y="-2842.4" font-family="Times New Roman,serif" font-size="14.00">split1#60</text>
</g>
<!-- 55&#45;&gt;8 -->
<g id="edge1" class="edge">
<title>55&#45;&gt;8</title>
<path fill="none" stroke="black" d="M445.12,-74.24C445.12,-64.87 445.12,-47.63 445.12,-33.7"/>
<polygon fill="black" stroke="black" points="448.63,-34.11 445.13,-24.11 441.63,-34.11 448.63,-34.11"/>
<text xml:space="preserve" text-anchor="middle" x="490.88" y="-43.6" font-family="Times New Roman,serif" font-size="14.00">graphOr_end#64</text>
</g>
</g>
</svg>
