<?xml version="1.0" encoding="UTF-8" standalone="no"?>
<!DOCTYPE svg PUBLIC "-//W3C//DTD SVG 1.1//EN"
 "http://www.w3.org/Graphics/SVG/1.1/DTD/svg11.dtd">
<!-- Generated by graphviz version 12.2.1 (20241206.2353)
 -->
<!-- Title: CLG Pages: 1 -->
<svg width="791pt" height="1914pt"
 viewBox="0.00 0.00 791.38 1914.00" xmlns="http://www.w3.org/2000/svg" xmlns:xlink="http://www.w3.org/1999/xlink">
<g id="graph0" class="graph" transform="scale(1 1) rotate(0) translate(4 1910)">
<title>CLG</title>
<polygon fill="white" stroke="none" points="-4,4 -4,-1910 787.38,-1910 787.38,4 -4,4"/>
<!-- 257 -->
<g id="node1" class="node">
<title>257</title>
<polygon fill="yellow" stroke="black" points="379.75,-1479.7 29.25,-1479.7 29.25,-1389.2 379.75,-1389.2 379.75,-1479.7"/>
<text text-anchor="middle" x="204.5" y="-1462.4" font-family="Times New Roman,serif" font-size="14.00">self.year &gt;= 1 and</text>
<text text-anchor="middle" x="204.5" y="-1445.9" font-family="Times New Roman,serif" font-size="14.00">self.month &gt;= 1 and</text>
<text text-anchor="middle" x="204.5" y="-1429.4" font-family="Times New Roman,serif" font-size="14.00">self.month &lt;= 12 and</text>
<text text-anchor="middle" x="204.5" y="-1412.9" font-family="Times New Roman,serif" font-size="14.00">self.day &gt;= 1 and</text>
<text text-anchor="middle" x="204.5" y="-1396.4" font-family="Times New Roman,serif" font-size="14.00">IfExp ConditionNode:(587) thenNode: (591) elseNode: (644)</text>
<text text-anchor="middle" x="14.62" y="-1482.9" font-family="Times New Roman,serif" font-size="14.00">[257]</text>
</g>
<!-- 254 -->
<g id="node24" class="node">
<title>254</title>
<polygon fill="aquamarine" stroke="black" points="204.5,-1171.7 197.3,-1164.5 204.5,-1157.3 211.7,-1164.5 204.5,-1171.7"/>
<text text-anchor="middle" x="178.93" y="-1174.9" font-family="Times New Roman,serif" font-size="14.00">&lt;254&gt;</text>
</g>
<!-- 257&#45;&gt;254 -->
<g id="edge23" class="edge">
<title>257&#45;&gt;254</title>
<path fill="none" stroke="black" d="M204.5,-1388.9C204.5,-1329.14 204.5,-1225.7 204.5,-1183.85"/>
<polygon fill="black" stroke="black" points="208,-1183.88 204.5,-1173.88 201,-1183.88 208,-1183.88"/>
<text text-anchor="middle" x="245" y="-1192.9" font-family="Times New Roman,serif" font-size="14.00">graphAnd#310</text>
</g>
<!-- 260 -->
<g id="node2" class="node">
<title>260</title>
<polygon fill="yellow" stroke="black" points="456,-177.8 359,-177.8 359,-141.8 456,-141.8 456,-177.8"/>
<text text-anchor="middle" x="407.5" y="-154.75" font-family="Times New Roman,serif" font-size="14.00">result = month</text>
<text text-anchor="middle" x="344.38" y="-181" font-family="Times New Roman,serif" font-size="14.00">[260]</text>
</g>
<!-- 266 -->
<g id="node6" class="node">
<title>266</title>
<polygon fill="aquamarine" stroke="black" points="515.5,-89.3 508.3,-82.1 515.5,-74.9 522.7,-82.1 515.5,-89.3"/>
<text text-anchor="middle" x="489.93" y="-92.5" font-family="Times New Roman,serif" font-size="14.00">&lt;266&gt;</text>
</g>
<!-- 260&#45;&gt;266 -->
<g id="edge1" class="edge">
<title>260&#45;&gt;266</title>
<path fill="none" stroke="black" d="M432.28,-141.43C454.14,-126.11 485.15,-104.37 502.49,-92.22"/>
<polygon fill="black" stroke="black" points="504.25,-95.26 510.43,-86.66 500.23,-89.53 504.25,-95.26"/>
<text text-anchor="middle" x="514.69" y="-110.5" font-family="Times New Roman,serif" font-size="14.00">merge1#320</text>
</g>
<!-- 262 -->
<g id="node3" class="node">
<title>262</title>
<ellipse fill="black" stroke="black" cx="397.5" cy="-1882.3" rx="7.2" ry="7.2"/>
<text text-anchor="middle" x="382.43" y="-1892.7" font-family="Times New Roman,serif" font-size="14.00">[0]</text>
</g>
<!-- 263 -->
<g id="node4" class="node">
<title>263</title>
<polygon fill="yellow" stroke="black" points="453.5,-1838.1 341.5,-1838.1 341.5,-1764.1 453.5,-1764.1 453.5,-1838.1"/>
<text text-anchor="middle" x="397.5" y="-1820.8" font-family="Times New Roman,serif" font-size="14.00">year &gt;= 1 and</text>
<text text-anchor="middle" x="397.5" y="-1804.3" font-family="Times New Roman,serif" font-size="14.00">month &gt;= 1 and</text>
<text text-anchor="middle" x="397.5" y="-1787.8" font-family="Times New Roman,serif" font-size="14.00">month &lt;= 12 and</text>
<text text-anchor="middle" x="397.5" y="-1771.3" font-family="Times New Roman,serif" font-size="14.00">day &gt;= 1</text>
<text text-anchor="middle" x="326.88" y="-1841.3" font-family="Times New Roman,serif" font-size="14.00">[263]</text>
</g>
<!-- 262&#45;&gt;263 -->
<g id="edge26" class="edge">
<title>262&#45;&gt;263</title>
<path fill="none" stroke="black" d="M397.5,-1874.82C397.5,-1868.97 397.5,-1859.78 397.5,-1849.87"/>
<polygon fill="black" stroke="black" points="401,-1850.04 397.5,-1840.04 394,-1850.04 401,-1850.04"/>
</g>
<!-- 265 -->
<g id="node5" class="node">
<title>265</title>
<polygon fill="aquamarine" stroke="black" points="397.5,-1711.6 390.3,-1704.4 397.5,-1697.2 404.7,-1704.4 397.5,-1711.6"/>
<text text-anchor="middle" x="371.93" y="-1714.8" font-family="Times New Roman,serif" font-size="14.00">&lt;265&gt;</text>
</g>
<!-- 263&#45;&gt;265 -->
<g id="edge4" class="edge">
<title>263&#45;&gt;265</title>
<path fill="none" stroke="black" d="M397.5,-1763.76C397.5,-1749.96 397.5,-1734.84 397.5,-1723.45"/>
<polygon fill="black" stroke="black" points="401,-1723.61 397.5,-1713.61 394,-1723.61 401,-1723.61"/>
<text text-anchor="middle" x="438" y="-1732.8" font-family="Times New Roman,serif" font-size="14.00">graphAnd#323</text>
</g>
<!-- 265&#45;&gt;257 -->
<g id="edge27" class="edge">
<title>265&#45;&gt;257</title>
<path fill="none" stroke="black" d="M394.77,-1699.61C378.57,-1677.12 293.98,-1559.68 243.2,-1489.18"/>
<polygon fill="black" stroke="black" points="246.15,-1487.28 237.46,-1481.21 240.47,-1491.37 246.15,-1487.28"/>
<text text-anchor="middle" x="405.93" y="-1665.9" font-family="Times New Roman,serif" font-size="14.00">split1#318</text>
</g>
<!-- 215 -->
<g id="node7" class="node">
<title>215</title>
<polygon fill="yellow" stroke="black" points="783.38,-1644.7 397.62,-1644.7 397.62,-1224.2 783.38,-1224.2 783.38,-1644.7"/>
<text text-anchor="middle" x="590.5" y="-1627.4" font-family="Times New Roman,serif" font-size="14.00">self.year &lt; 1 and</text>
<text text-anchor="middle" x="590.5" y="-1610.9" font-family="Times New Roman,serif" font-size="14.00">self.month &gt;= 1 and</text>
<text text-anchor="middle" x="590.5" y="-1594.4" font-family="Times New Roman,serif" font-size="14.00">self.month &lt;= 12 and</text>
<text text-anchor="middle" x="590.5" y="-1577.9" font-family="Times New Roman,serif" font-size="14.00">self.day &gt;= 1 and</text>
<text text-anchor="middle" x="590.5" y="-1561.4" font-family="Times New Roman,serif" font-size="14.00">IfExp ConditionNode:(2243) thenNode: (2247) elseNode: (2300) or</text>
<text text-anchor="middle" x="590.5" y="-1544.9" font-family="Times New Roman,serif" font-size="14.00">self.year &gt;= 1 and</text>
<text text-anchor="middle" x="590.5" y="-1528.4" font-family="Times New Roman,serif" font-size="14.00">self.month &lt; 1 and</text>
<text text-anchor="middle" x="590.5" y="-1511.9" font-family="Times New Roman,serif" font-size="14.00">self.month &lt;= 12 and</text>
<text text-anchor="middle" x="590.5" y="-1495.4" font-family="Times New Roman,serif" font-size="14.00">self.day &gt;= 1 and</text>
<text text-anchor="middle" x="590.5" y="-1478.9" font-family="Times New Roman,serif" font-size="14.00">IfExp ConditionNode:(2355) thenNode: (2359) elseNode: (2412) or</text>
<text text-anchor="middle" x="590.5" y="-1462.4" font-family="Times New Roman,serif" font-size="14.00">self.year &gt;= 1 and</text>
<text text-anchor="middle" x="590.5" y="-1445.9" font-family="Times New Roman,serif" font-size="14.00">self.month &gt;= 1 and</text>
<text text-anchor="middle" x="590.5" y="-1429.4" font-family="Times New Roman,serif" font-size="14.00">self.month &gt; 12 and</text>
<text text-anchor="middle" x="590.5" y="-1412.9" font-family="Times New Roman,serif" font-size="14.00">self.day &gt;= 1 and</text>
<text text-anchor="middle" x="590.5" y="-1396.4" font-family="Times New Roman,serif" font-size="14.00">IfExp ConditionNode:(2467) thenNode: (2471) elseNode: (2524) or</text>
<text text-anchor="middle" x="590.5" y="-1379.9" font-family="Times New Roman,serif" font-size="14.00">self.year &gt;= 1 and</text>
<text text-anchor="middle" x="590.5" y="-1363.4" font-family="Times New Roman,serif" font-size="14.00">self.month &gt;= 1 and</text>
<text text-anchor="middle" x="590.5" y="-1346.9" font-family="Times New Roman,serif" font-size="14.00">self.month &lt;= 12 and</text>
<text text-anchor="middle" x="590.5" y="-1330.4" font-family="Times New Roman,serif" font-size="14.00">self.day &lt; 1 and</text>
<text text-anchor="middle" x="590.5" y="-1313.9" font-family="Times New Roman,serif" font-size="14.00">IfExp ConditionNode:(2579) thenNode: (2583) elseNode: (2636) or</text>
<text text-anchor="middle" x="590.5" y="-1297.4" font-family="Times New Roman,serif" font-size="14.00">self.year &gt;= 1 and</text>
<text text-anchor="middle" x="590.5" y="-1280.9" font-family="Times New Roman,serif" font-size="14.00">self.month &gt;= 1 and</text>
<text text-anchor="middle" x="590.5" y="-1264.4" font-family="Times New Roman,serif" font-size="14.00">self.month &lt;= 12 and</text>
<text text-anchor="middle" x="590.5" y="-1247.9" font-family="Times New Roman,serif" font-size="14.00">self.day &gt;= 1 and</text>
<text text-anchor="middle" x="590.5" y="-1231.4" font-family="Times New Roman,serif" font-size="14.00">IfExp ConditionNode:(2835) thenNode: (2695) elseNode: (2801)</text>
<text text-anchor="middle" x="383" y="-1647.9" font-family="Times New Roman,serif" font-size="14.00">[215]</text>
</g>
<!-- 265&#45;&gt;215 -->
<g id="edge28" class="edge">
<title>265&#45;&gt;215</title>
<path fill="none" stroke="black" d="M402.29,-1701.48C410.48,-1698.02 427.38,-1690.05 438.5,-1679.2 446.75,-1671.15 454.75,-1662.57 462.47,-1653.61"/>
<polygon fill="black" stroke="black" points="465.06,-1655.98 468.82,-1646.07 459.7,-1651.47 465.06,-1655.98"/>
<text text-anchor="middle" x="477.81" y="-1665.9" font-family="Times New Roman,serif" font-size="14.00">split2#319</text>
</g>
<!-- 219 -->
<g id="node9" class="node">
<title>219</title>
<ellipse fill="black" stroke="black" cx="515.5" cy="-11.2" rx="7.2" ry="7.2"/>
<ellipse fill="none" stroke="black" cx="515.5" cy="-11.2" rx="11.2" ry="11.2"/>
<text text-anchor="middle" x="494.18" y="-25.6" font-family="Times New Roman,serif" font-size="14.00">[&#45;1]</text>
</g>
<!-- 266&#45;&gt;219 -->
<g id="edge3" class="edge">
<title>266&#45;&gt;219</title>
<path fill="none" stroke="black" d="M515.5,-74.24C515.5,-64.87 515.5,-47.63 515.5,-33.7"/>
<polygon fill="black" stroke="black" points="519,-34.11 515.5,-24.11 512,-34.11 519,-34.11"/>
<text text-anchor="middle" x="564.62" y="-43.6" font-family="Times New Roman,serif" font-size="14.00">graphOr_end#322</text>
</g>
<!-- 218 -->
<g id="node8" class="node">
<title>218</title>
<polygon fill="yellow" stroke="black" points="680.25,-1139.3 500.75,-1139.3 500.75,-1103.3 680.25,-1103.3 680.25,-1139.3"/>
<text text-anchor="middle" x="590.5" y="-1116.25" font-family="Times New Roman,serif" font-size="14.00">Result = &#39;DateErrorException&#39;</text>
<text text-anchor="middle" x="486.12" y="-1142.5" font-family="Times New Roman,serif" font-size="14.00">[218]</text>
</g>
<!-- 215&#45;&gt;218 -->
<g id="edge24" class="edge">
<title>215&#45;&gt;218</title>
<path fill="none" stroke="black" d="M590.5,-1223.75C590.5,-1195.13 590.5,-1169.31 590.5,-1150.87"/>
<polygon fill="black" stroke="black" points="594,-1151.13 590.5,-1141.13 587,-1151.13 594,-1151.13"/>
<text text-anchor="middle" x="631" y="-1192.9" font-family="Times New Roman,serif" font-size="14.00">graphAnd#313</text>
</g>
<!-- 218&#45;&gt;266 -->
<g id="edge2" class="edge">
<title>218&#45;&gt;266</title>
<path fill="none" stroke="black" d="M590.5,-1102.82C590.5,-1070.16 590.5,-997.64 590.5,-936.55 590.5,-936.55 590.5,-936.55 590.5,-158.8 590.5,-124.93 552.14,-100.79 530.29,-89.78"/>
<polygon fill="black" stroke="black" points="531.88,-86.66 521.34,-85.59 528.91,-93 531.88,-86.66"/>
<text text-anchor="middle" x="624.62" y="-488.2" font-family="Times New Roman,serif" font-size="14.00">merge2#321</text>
</g>
<!-- 221 -->
<g id="node10" class="node">
<title>221</title>
<polygon fill="yellow" stroke="black" points="161.88,-1085.3 43.12,-1085.3 43.12,-961.8 161.88,-961.8 161.88,-1085.3"/>
<text text-anchor="middle" x="102.5" y="-1068" font-family="Times New Roman,serif" font-size="14.00">self.month = 1 or</text>
<text text-anchor="middle" x="102.5" y="-1051.5" font-family="Times New Roman,serif" font-size="14.00">self.month = 3 or</text>
<text text-anchor="middle" x="102.5" y="-1035" font-family="Times New Roman,serif" font-size="14.00">self.month = 5 or</text>
<text text-anchor="middle" x="102.5" y="-1018.5" font-family="Times New Roman,serif" font-size="14.00">self.month = 7 or</text>
<text text-anchor="middle" x="102.5" y="-1002" font-family="Times New Roman,serif" font-size="14.00">self.month = 8 or</text>
<text text-anchor="middle" x="102.5" y="-985.5" font-family="Times New Roman,serif" font-size="14.00">self.month = 10 or</text>
<text text-anchor="middle" x="102.5" y="-969" font-family="Times New Roman,serif" font-size="14.00">self.month = 12</text>
<text text-anchor="middle" x="28.5" y="-1088.5" font-family="Times New Roman,serif" font-size="14.00">[221]</text>
</g>
<!-- 224 -->
<g id="node11" class="node">
<title>224</title>
<polygon fill="yellow" stroke="black" points="150.62,-876.9 54.38,-876.9 54.38,-840.9 150.62,-840.9 150.62,-876.9"/>
<text text-anchor="middle" x="102.5" y="-853.85" font-family="Times New Roman,serif" font-size="14.00">self.day &lt;= 31</text>
<text text-anchor="middle" x="39.75" y="-880.1" font-family="Times New Roman,serif" font-size="14.00">[224]</text>
</g>
<!-- 221&#45;&gt;224 -->
<g id="edge17" class="edge">
<title>221&#45;&gt;224</title>
<path fill="none" stroke="black" d="M102.5,-961.52C102.5,-936.59 102.5,-908.94 102.5,-888.78"/>
<polygon fill="black" stroke="black" points="106,-888.8 102.5,-878.8 99,-888.8 106,-888.8"/>
<text text-anchor="middle" x="143" y="-930.5" font-family="Times New Roman,serif" font-size="14.00">graphAnd#300</text>
</g>
<!-- 255 -->
<g id="node25" class="node">
<title>255</title>
<polygon fill="aquamarine" stroke="black" points="252.5,-244.7 245.3,-237.5 252.5,-230.3 259.7,-237.5 252.5,-244.7"/>
<text text-anchor="middle" x="226.93" y="-247.9" font-family="Times New Roman,serif" font-size="14.00">&lt;255&gt;</text>
</g>
<!-- 224&#45;&gt;255 -->
<g id="edge21" class="edge">
<title>224&#45;&gt;255</title>
<path fill="none" stroke="black" d="M102.5,-840.52C102.5,-814.93 102.5,-765.6 102.5,-723.65 102.5,-723.65 102.5,-723.65 102.5,-303.4 102.5,-246.55 194.37,-238.93 234.32,-238.31"/>
<polygon fill="black" stroke="black" points="234.15,-241.81 244.15,-238.3 234.15,-234.81 234.15,-241.81"/>
<text text-anchor="middle" x="136.62" y="-488.2" font-family="Times New Roman,serif" font-size="14.00">merge1#305</text>
</g>
<!-- 227 -->
<g id="node12" class="node">
<title>227</title>
<polygon fill="yellow" stroke="black" points="315.12,-1085.3 179.88,-1085.3 179.88,-961.8 315.12,-961.8 315.12,-1085.3"/>
<text text-anchor="middle" x="247.5" y="-1068" font-family="Times New Roman,serif" font-size="14.00">self.month &lt;&gt; 1 and</text>
<text text-anchor="middle" x="247.5" y="-1051.5" font-family="Times New Roman,serif" font-size="14.00">self.month &lt;&gt; 3 and</text>
<text text-anchor="middle" x="247.5" y="-1035" font-family="Times New Roman,serif" font-size="14.00">self.month &lt;&gt; 5 and</text>
<text text-anchor="middle" x="247.5" y="-1018.5" font-family="Times New Roman,serif" font-size="14.00">self.month &lt;&gt; 7 and</text>
<text text-anchor="middle" x="247.5" y="-1002" font-family="Times New Roman,serif" font-size="14.00">self.month &lt;&gt; 8 and</text>
<text text-anchor="middle" x="247.5" y="-985.5" font-family="Times New Roman,serif" font-size="14.00">self.month &lt;&gt; 10 and</text>
<text text-anchor="middle" x="247.5" y="-969" font-family="Times New Roman,serif" font-size="14.00">self.month &lt;&gt; 12</text>
<text text-anchor="middle" x="165.25" y="-1088.5" font-family="Times New Roman,serif" font-size="14.00">[227]</text>
</g>
<!-- 252 -->
<g id="node22" class="node">
<title>252</title>
<polygon fill="aquamarine" stroke="black" points="247.5,-909.3 240.3,-902.1 247.5,-894.9 254.7,-902.1 247.5,-909.3"/>
<text text-anchor="middle" x="221.93" y="-912.5" font-family="Times New Roman,serif" font-size="14.00">&lt;252&gt;</text>
</g>
<!-- 227&#45;&gt;252 -->
<g id="edge18" class="edge">
<title>227&#45;&gt;252</title>
<path fill="none" stroke="black" d="M247.5,-961.43C247.5,-946.73 247.5,-932.16 247.5,-921.25"/>
<polygon fill="black" stroke="black" points="251,-921.52 247.5,-911.52 244,-921.52 251,-921.52"/>
<text text-anchor="middle" x="288" y="-930.5" font-family="Times New Roman,serif" font-size="14.00">graphAnd#301</text>
</g>
<!-- 230 -->
<g id="node13" class="node">
<title>230</title>
<polygon fill="yellow" stroke="black" points="242.5,-822.9 130.5,-822.9 130.5,-748.9 242.5,-748.9 242.5,-822.9"/>
<text text-anchor="middle" x="186.5" y="-805.6" font-family="Times New Roman,serif" font-size="14.00">self.month = 4 or</text>
<text text-anchor="middle" x="186.5" y="-789.1" font-family="Times New Roman,serif" font-size="14.00">self.month = 6 or</text>
<text text-anchor="middle" x="186.5" y="-772.6" font-family="Times New Roman,serif" font-size="14.00">self.month = 9 or</text>
<text text-anchor="middle" x="186.5" y="-756.1" font-family="Times New Roman,serif" font-size="14.00">self.month = 11</text>
<text text-anchor="middle" x="115.88" y="-826.1" font-family="Times New Roman,serif" font-size="14.00">[230]</text>
</g>
<!-- 233 -->
<g id="node14" class="node">
<title>233</title>
<polygon fill="yellow" stroke="black" points="233.62,-664 137.38,-664 137.38,-628 233.62,-628 233.62,-664"/>
<text text-anchor="middle" x="185.5" y="-640.95" font-family="Times New Roman,serif" font-size="14.00">self.day &lt;= 30</text>
<text text-anchor="middle" x="122.75" y="-667.2" font-family="Times New Roman,serif" font-size="14.00">[233]</text>
</g>
<!-- 230&#45;&gt;233 -->
<g id="edge11" class="edge">
<title>230&#45;&gt;233</title>
<path fill="none" stroke="black" d="M186.24,-748.67C186.07,-725.85 185.86,-696.82 185.71,-675.62"/>
<polygon fill="black" stroke="black" points="189.21,-675.64 185.64,-665.67 182.21,-675.69 189.21,-675.64"/>
<text text-anchor="middle" x="226.61" y="-717.6" font-family="Times New Roman,serif" font-size="14.00">graphAnd#292</text>
</g>
<!-- 253 -->
<g id="node23" class="node">
<title>253</title>
<polygon fill="aquamarine" stroke="black" points="252.5,-311.6 245.3,-304.4 252.5,-297.2 259.7,-304.4 252.5,-311.6"/>
<text text-anchor="middle" x="226.93" y="-314.8" font-family="Times New Roman,serif" font-size="14.00">&lt;253&gt;</text>
</g>
<!-- 233&#45;&gt;253 -->
<g id="edge15" class="edge">
<title>233&#45;&gt;253</title>
<path fill="none" stroke="black" d="M185.5,-627.82C185.5,-599.83 185.5,-542.67 185.5,-494.25 185.5,-494.25 185.5,-494.25 185.5,-370.3 185.5,-341.6 217.61,-321.53 237.37,-311.9"/>
<polygon fill="black" stroke="black" points="238.61,-315.18 246.3,-307.89 235.74,-308.8 238.61,-315.18"/>
<text text-anchor="middle" x="219.62" y="-443.95" font-family="Times New Roman,serif" font-size="14.00">merge1#297</text>
</g>
<!-- 236 -->
<g id="node15" class="node">
<title>236</title>
<polygon fill="yellow" stroke="black" points="388.75,-822.9 260.25,-822.9 260.25,-748.9 388.75,-748.9 388.75,-822.9"/>
<text text-anchor="middle" x="324.5" y="-805.6" font-family="Times New Roman,serif" font-size="14.00">self.month &lt;&gt; 4 and</text>
<text text-anchor="middle" x="324.5" y="-789.1" font-family="Times New Roman,serif" font-size="14.00">self.month &lt;&gt; 6 and</text>
<text text-anchor="middle" x="324.5" y="-772.6" font-family="Times New Roman,serif" font-size="14.00">self.month &lt;&gt; 9 and</text>
<text text-anchor="middle" x="324.5" y="-756.1" font-family="Times New Roman,serif" font-size="14.00">self.month &lt;&gt; 11</text>
<text text-anchor="middle" x="245.62" y="-826.1" font-family="Times New Roman,serif" font-size="14.00">[236]</text>
</g>
<!-- 250 -->
<g id="node20" class="node">
<title>250</title>
<polygon fill="aquamarine" stroke="black" points="324.5,-696.4 317.3,-689.2 324.5,-682 331.7,-689.2 324.5,-696.4"/>
<text text-anchor="middle" x="298.93" y="-699.6" font-family="Times New Roman,serif" font-size="14.00">&lt;250&gt;</text>
</g>
<!-- 236&#45;&gt;250 -->
<g id="edge12" class="edge">
<title>236&#45;&gt;250</title>
<path fill="none" stroke="black" d="M324.5,-748.56C324.5,-734.76 324.5,-719.64 324.5,-708.25"/>
<polygon fill="black" stroke="black" points="328,-708.41 324.5,-698.41 321,-708.41 328,-708.41"/>
<text text-anchor="middle" x="365" y="-717.6" font-family="Times New Roman,serif" font-size="14.00">graphAnd#293</text>
</g>
<!-- 239 -->
<g id="node16" class="node">
<title>239</title>
<polygon fill="yellow" stroke="black" points="371,-593.5 214,-593.5 214,-536 371,-536 371,-593.5"/>
<text text-anchor="middle" x="292.5" y="-576.2" font-family="Times New Roman,serif" font-size="14.00">self.year.mod(400) = 0 or</text>
<text text-anchor="middle" x="292.5" y="-559.7" font-family="Times New Roman,serif" font-size="14.00">self.year.mod(4) = 0 and</text>
<text text-anchor="middle" x="292.5" y="-543.2" font-family="Times New Roman,serif" font-size="14.00">self.year.mod(100) &lt;&gt; 0</text>
<text text-anchor="middle" x="199.38" y="-596.7" font-family="Times New Roman,serif" font-size="14.00">[239]</text>
</g>
<!-- 242 -->
<g id="node17" class="node">
<title>242</title>
<polygon fill="yellow" stroke="black" points="367.62,-467 271.38,-467 271.38,-431 367.62,-431 367.62,-467"/>
<text text-anchor="middle" x="319.5" y="-443.95" font-family="Times New Roman,serif" font-size="14.00">self.day &lt;= 29</text>
<text text-anchor="middle" x="256.75" y="-470.2" font-family="Times New Roman,serif" font-size="14.00">[242]</text>
</g>
<!-- 239&#45;&gt;242 -->
<g id="edge5" class="edge">
<title>239&#45;&gt;242</title>
<path fill="none" stroke="black" d="M299.17,-535.63C303.33,-518.12 308.66,-495.68 312.82,-478.16"/>
<polygon fill="black" stroke="black" points="316.16,-479.21 315.07,-468.67 309.35,-477.59 316.16,-479.21"/>
<text text-anchor="middle" x="351.27" y="-488.2" font-family="Times New Roman,serif" font-size="14.00">graphAnd#284</text>
</g>
<!-- 251 -->
<g id="node21" class="node">
<title>251</title>
<polygon fill="aquamarine" stroke="black" points="319.5,-378.5 312.3,-371.3 319.5,-364.1 326.7,-371.3 319.5,-378.5"/>
<text text-anchor="middle" x="293.93" y="-381.7" font-family="Times New Roman,serif" font-size="14.00">&lt;251&gt;</text>
</g>
<!-- 242&#45;&gt;251 -->
<g id="edge9" class="edge">
<title>242&#45;&gt;251</title>
<path fill="none" stroke="black" d="M319.5,-430.82C319.5,-418.78 319.5,-402.7 319.5,-390.45"/>
<polygon fill="black" stroke="black" points="323,-390.54 319.5,-380.54 316,-390.54 323,-390.54"/>
<text text-anchor="middle" x="353.62" y="-399.7" font-family="Times New Roman,serif" font-size="14.00">merge1#289</text>
</g>
<!-- 245 -->
<g id="node18" class="node">
<title>245</title>
<polygon fill="yellow" stroke="black" points="562.25,-610 388.75,-610 388.75,-519.5 562.25,-519.5 562.25,-610"/>
<text text-anchor="middle" x="475.5" y="-592.7" font-family="Times New Roman,serif" font-size="14.00">self.year.mod(400) &lt;&gt; 0 and</text>
<text text-anchor="middle" x="475.5" y="-576.2" font-family="Times New Roman,serif" font-size="14.00">self.year.mod(4) &lt;&gt; 0 and</text>
<text text-anchor="middle" x="475.5" y="-559.7" font-family="Times New Roman,serif" font-size="14.00">self.year.mod(100) &lt;&gt; 0 or</text>
<text text-anchor="middle" x="475.5" y="-543.2" font-family="Times New Roman,serif" font-size="14.00">self.year.mod(4) = 0 and</text>
<text text-anchor="middle" x="475.5" y="-526.7" font-family="Times New Roman,serif" font-size="14.00">self.year.mod(100) = 0</text>
<text text-anchor="middle" x="374.12" y="-613.2" font-family="Times New Roman,serif" font-size="14.00">[245]</text>
</g>
<!-- 248 -->
<g id="node19" class="node">
<title>248</title>
<polygon fill="yellow" stroke="black" points="502.62,-467 406.38,-467 406.38,-431 502.62,-431 502.62,-467"/>
<text text-anchor="middle" x="454.5" y="-443.95" font-family="Times New Roman,serif" font-size="14.00">self.day &lt;= 28</text>
<text text-anchor="middle" x="391.75" y="-470.2" font-family="Times New Roman,serif" font-size="14.00">[248]</text>
</g>
<!-- 245&#45;&gt;248 -->
<g id="edge6" class="edge">
<title>245&#45;&gt;248</title>
<path fill="none" stroke="black" d="M467.26,-519.12C464.72,-505.35 461.99,-490.57 459.71,-478.23"/>
<polygon fill="black" stroke="black" points="463.22,-477.94 457.96,-468.74 456.33,-479.21 463.22,-477.94"/>
<text text-anchor="middle" x="504.24" y="-488.2" font-family="Times New Roman,serif" font-size="14.00">graphAnd#285</text>
</g>
<!-- 248&#45;&gt;251 -->
<g id="edge10" class="edge">
<title>248&#45;&gt;251</title>
<path fill="none" stroke="black" d="M436.77,-430.54C424.8,-419.54 408.19,-405.72 391.5,-396.5 373.65,-386.63 351.08,-379.86 336.02,-376.04"/>
<polygon fill="black" stroke="black" points="337.02,-372.68 326.49,-373.78 335.41,-379.49 337.02,-372.68"/>
<text text-anchor="middle" x="449.71" y="-399.7" font-family="Times New Roman,serif" font-size="14.00">merge2#290</text>
</g>
<!-- 250&#45;&gt;239 -->
<g id="edge7" class="edge">
<title>250&#45;&gt;239</title>
<path fill="none" stroke="black" d="M323.12,-682.94C319.64,-669.6 310.21,-633.5 302.72,-604.86"/>
<polygon fill="black" stroke="black" points="306.16,-604.17 300.24,-595.38 299.39,-605.94 306.16,-604.17"/>
<text text-anchor="middle" x="346.09" y="-640.95" font-family="Times New Roman,serif" font-size="14.00">split1#287</text>
</g>
<!-- 250&#45;&gt;245 -->
<g id="edge8" class="edge">
<title>250&#45;&gt;245</title>
<path fill="none" stroke="black" d="M329.59,-686.63C339.56,-683.4 362.12,-675.36 378.5,-664 397.12,-651.08 415.21,-634.31 430.63,-618.29"/>
<polygon fill="black" stroke="black" points="433.08,-620.79 437.4,-611.11 427.99,-615.99 433.08,-620.79"/>
<text text-anchor="middle" x="447.51" y="-640.95" font-family="Times New Roman,serif" font-size="14.00">split2#288</text>
</g>
<!-- 251&#45;&gt;253 -->
<g id="edge16" class="edge">
<title>251&#45;&gt;253</title>
<path fill="none" stroke="black" d="M316.27,-367.17C306.92,-358.11 279.5,-331.55 263.83,-316.37"/>
<polygon fill="black" stroke="black" points="266.56,-314.15 256.94,-309.7 261.69,-319.18 266.56,-314.15"/>
<text text-anchor="middle" x="328.1" y="-332.8" font-family="Times New Roman,serif" font-size="14.00">merge2#298</text>
</g>
<!-- 252&#45;&gt;230 -->
<g id="edge13" class="edge">
<title>252&#45;&gt;230</title>
<path fill="none" stroke="black" d="M244.66,-897.45C241.12,-892.81 234.99,-884.5 230.5,-876.9 222.31,-863.04 214.3,-847.44 207.4,-833.17"/>
<polygon fill="black" stroke="black" points="210.69,-831.95 203.23,-824.43 204.37,-834.96 210.69,-831.95"/>
<text text-anchor="middle" x="259" y="-853.85" font-family="Times New Roman,serif" font-size="14.00">split1#295</text>
</g>
<!-- 252&#45;&gt;236 -->
<g id="edge14" class="edge">
<title>252&#45;&gt;236</title>
<path fill="none" stroke="black" d="M252.37,-899.34C260.65,-896.11 277.57,-888.49 287.5,-876.9 298.11,-864.51 305.98,-848.66 311.67,-833.73"/>
<polygon fill="black" stroke="black" points="314.9,-835.1 314.93,-824.51 308.3,-832.77 314.9,-835.1"/>
<text text-anchor="middle" x="336.4" y="-853.85" font-family="Times New Roman,serif" font-size="14.00">split2#296</text>
</g>
<!-- 253&#45;&gt;255 -->
<g id="edge22" class="edge">
<title>253&#45;&gt;255</title>
<path fill="none" stroke="black" d="M252.5,-296.94C252.5,-287.61 252.5,-270.01 252.5,-256.55"/>
<polygon fill="black" stroke="black" points="256,-256.84 252.5,-246.84 249,-256.84 256,-256.84"/>
<text text-anchor="middle" x="286.62" y="-265.9" font-family="Times New Roman,serif" font-size="14.00">merge2#306</text>
</g>
<!-- 254&#45;&gt;221 -->
<g id="edge19" class="edge">
<title>254&#45;&gt;221</title>
<path fill="none" stroke="black" d="M199.09,-1162.4C188.57,-1160 165.2,-1153.35 151.5,-1139.3 139.59,-1127.09 130.37,-1111.53 123.31,-1095.84"/>
<polygon fill="black" stroke="black" points="126.67,-1094.8 119.57,-1086.94 120.22,-1097.52 126.67,-1094.8"/>
<text text-anchor="middle" x="180" y="-1116.25" font-family="Times New Roman,serif" font-size="14.00">split1#303</text>
</g>
<!-- 254&#45;&gt;227 -->
<g id="edge20" class="edge">
<title>254&#45;&gt;227</title>
<path fill="none" stroke="black" d="M206.03,-1158.55C209.28,-1148.06 217.23,-1122.37 225.31,-1096.26"/>
<polygon fill="black" stroke="black" points="228.58,-1097.52 228.19,-1086.93 221.89,-1095.45 228.58,-1097.52"/>
<text text-anchor="middle" x="250.65" y="-1116.25" font-family="Times New Roman,serif" font-size="14.00">split2#304</text>
</g>
<!-- 255&#45;&gt;260 -->
<g id="edge25" class="edge">
<title>255&#45;&gt;260</title>
<path fill="none" stroke="black" d="M256.97,-234.32C272.24,-226.86 323.47,-201.84 361.95,-183.04"/>
<polygon fill="black" stroke="black" points="363.12,-186.37 370.57,-178.84 360.05,-180.08 363.12,-186.37"/>
<text text-anchor="middle" x="375.15" y="-199" font-family="Times New Roman,serif" font-size="14.00">graphAnd#314</text>
</g>
</g>
</svg>
