<?xml version="1.0" encoding="UTF-8" standalone="no"?>
<!DOCTYPE svg PUBLIC "-//W3C//DTD SVG 1.1//EN"
 "http://www.w3.org/Graphics/SVG/1.1/DTD/svg11.dtd">
<!-- Generated by graphviz version 12.2.1 (20241206.2353)
 -->
<!-- Title: CLG Pages: 1 -->
<svg width="791pt" height="1914pt"
 viewBox="0.00 0.00 791.38 1914.00" xmlns="http://www.w3.org/2000/svg" xmlns:xlink="http://www.w3.org/1999/xlink">
<g id="graph0" class="graph" transform="scale(1 1) rotate(0) translate(4 1910)">
<title>CLG</title>
<polygon fill="white" stroke="none" points="-4,4 -4,-1910 787.38,-1910 787.38,4 -4,4"/>
<!-- 192 -->
<g id="node1" class="node">
<title>192</title>
<polygon fill="yellow" stroke="black" points="387.25,-610 213.75,-610 213.75,-519.5 387.25,-519.5 387.25,-610"/>
<text text-anchor="middle" x="300.5" y="-592.7" font-family="Times New Roman,serif" font-size="14.00">self.year.mod(400) &lt;&gt; 0 and</text>
<text text-anchor="middle" x="300.5" y="-576.2" font-family="Times New Roman,serif" font-size="14.00">self.year.mod(4) &lt;&gt; 0 and</text>
<text text-anchor="middle" x="300.5" y="-559.7" font-family="Times New Roman,serif" font-size="14.00">self.year.mod(100) &lt;&gt; 0 or</text>
<text text-anchor="middle" x="300.5" y="-543.2" font-family="Times New Roman,serif" font-size="14.00">self.year.mod(4) = 0 and</text>
<text text-anchor="middle" x="300.5" y="-526.7" font-family="Times New Roman,serif" font-size="14.00">self.year.mod(100) = 0</text>
<text text-anchor="middle" x="199.12" y="-613.2" font-family="Times New Roman,serif" font-size="14.00">[192]</text>
</g>
<!-- 195 -->
<g id="node2" class="node">
<title>195</title>
<polygon fill="yellow" stroke="black" points="367.62,-467 271.38,-467 271.38,-431 367.62,-431 367.62,-467"/>
<text text-anchor="middle" x="319.5" y="-443.95" font-family="Times New Roman,serif" font-size="14.00">self.day &lt;= 28</text>
<text text-anchor="middle" x="256.75" y="-470.2" font-family="Times New Roman,serif" font-size="14.00">[195]</text>
</g>
<!-- 192&#45;&gt;195 -->
<g id="edge6" class="edge">
<title>192&#45;&gt;195</title>
<path fill="none" stroke="black" d="M307.95,-519.12C310.26,-505.35 312.72,-490.57 314.79,-478.23"/>
<polygon fill="black" stroke="black" points="318.17,-479.18 316.37,-468.74 311.27,-478.03 318.17,-479.18"/>
<text text-anchor="middle" x="353.85" y="-488.2" font-family="Times New Roman,serif" font-size="14.00">graphAnd#221</text>
</g>
<!-- 198 -->
<g id="node4" class="node">
<title>198</title>
<polygon fill="aquamarine" stroke="black" points="319.5,-378.5 312.3,-371.3 319.5,-364.1 326.7,-371.3 319.5,-378.5"/>
<text text-anchor="middle" x="293.93" y="-381.7" font-family="Times New Roman,serif" font-size="14.00">&lt;198&gt;</text>
</g>
<!-- 195&#45;&gt;198 -->
<g id="edge10" class="edge">
<title>195&#45;&gt;198</title>
<path fill="none" stroke="black" d="M319.5,-430.82C319.5,-418.78 319.5,-402.7 319.5,-390.45"/>
<polygon fill="black" stroke="black" points="323,-390.54 319.5,-380.54 316,-390.54 323,-390.54"/>
<text text-anchor="middle" x="353.62" y="-399.7" font-family="Times New Roman,serif" font-size="14.00">merge2#226</text>
</g>
<!-- 197 -->
<g id="node3" class="node">
<title>197</title>
<polygon fill="aquamarine" stroke="black" points="324.5,-696.4 317.3,-689.2 324.5,-682 331.7,-689.2 324.5,-696.4"/>
<text text-anchor="middle" x="298.93" y="-699.6" font-family="Times New Roman,serif" font-size="14.00">&lt;197&gt;</text>
</g>
<!-- 197&#45;&gt;192 -->
<g id="edge8" class="edge">
<title>197&#45;&gt;192</title>
<path fill="none" stroke="black" d="M323.41,-682.62C321.24,-671.58 316.21,-645.91 311.41,-621.43"/>
<polygon fill="black" stroke="black" points="314.89,-620.95 309.53,-611.81 308.02,-622.3 314.89,-620.95"/>
<text text-anchor="middle" x="347.82" y="-640.95" font-family="Times New Roman,serif" font-size="14.00">split2#224</text>
</g>
<!-- 186 -->
<g id="node24" class="node">
<title>186</title>
<polygon fill="yellow" stroke="black" points="562,-593.5 405,-593.5 405,-536 562,-536 562,-593.5"/>
<text text-anchor="middle" x="483.5" y="-576.2" font-family="Times New Roman,serif" font-size="14.00">self.year.mod(400) = 0 or</text>
<text text-anchor="middle" x="483.5" y="-559.7" font-family="Times New Roman,serif" font-size="14.00">self.year.mod(4) = 0 and</text>
<text text-anchor="middle" x="483.5" y="-543.2" font-family="Times New Roman,serif" font-size="14.00">self.year.mod(100) &lt;&gt; 0</text>
<text text-anchor="middle" x="419.62" y="-596.7" font-family="Times New Roman,serif" font-size="14.00">[186]</text>
</g>
<!-- 197&#45;&gt;186 -->
<g id="edge7" class="edge">
<title>197&#45;&gt;186</title>
<path fill="none" stroke="black" d="M329.75,-686.63C340.04,-683.39 363.37,-675.34 380.5,-664 406.64,-646.69 432.17,-622.41 451.27,-602.31"/>
<polygon fill="black" stroke="black" points="453.75,-604.79 458.02,-595.09 448.63,-600.01 453.75,-604.79"/>
<text text-anchor="middle" x="451.67" y="-640.95" font-family="Times New Roman,serif" font-size="14.00">split1#223</text>
</g>
<!-- 200 -->
<g id="node6" class="node">
<title>200</title>
<polygon fill="aquamarine" stroke="black" points="252.5,-311.6 245.3,-304.4 252.5,-297.2 259.7,-304.4 252.5,-311.6"/>
<text text-anchor="middle" x="226.93" y="-314.8" font-family="Times New Roman,serif" font-size="14.00">&lt;200&gt;</text>
</g>
<!-- 198&#45;&gt;200 -->
<g id="edge16" class="edge">
<title>198&#45;&gt;200</title>
<path fill="none" stroke="black" d="M316.27,-367.17C306.92,-358.11 279.5,-331.55 263.83,-316.37"/>
<polygon fill="black" stroke="black" points="266.56,-314.15 256.94,-309.7 261.69,-319.18 266.56,-314.15"/>
<text text-anchor="middle" x="328.1" y="-332.8" font-family="Times New Roman,serif" font-size="14.00">merge2#234</text>
</g>
<!-- 199 -->
<g id="node5" class="node">
<title>199</title>
<polygon fill="aquamarine" stroke="black" points="247.5,-909.3 240.3,-902.1 247.5,-894.9 254.7,-902.1 247.5,-909.3"/>
<text text-anchor="middle" x="221.93" y="-912.5" font-family="Times New Roman,serif" font-size="14.00">&lt;199&gt;</text>
</g>
<!-- 177 -->
<g id="node21" class="node">
<title>177</title>
<polygon fill="yellow" stroke="black" points="242.5,-822.9 130.5,-822.9 130.5,-748.9 242.5,-748.9 242.5,-822.9"/>
<text text-anchor="middle" x="186.5" y="-805.6" font-family="Times New Roman,serif" font-size="14.00">self.month = 4 or</text>
<text text-anchor="middle" x="186.5" y="-789.1" font-family="Times New Roman,serif" font-size="14.00">self.month = 6 or</text>
<text text-anchor="middle" x="186.5" y="-772.6" font-family="Times New Roman,serif" font-size="14.00">self.month = 9 or</text>
<text text-anchor="middle" x="186.5" y="-756.1" font-family="Times New Roman,serif" font-size="14.00">self.month = 11</text>
<text text-anchor="middle" x="115.88" y="-826.1" font-family="Times New Roman,serif" font-size="14.00">[177]</text>
</g>
<!-- 199&#45;&gt;177 -->
<g id="edge13" class="edge">
<title>199&#45;&gt;177</title>
<path fill="none" stroke="black" d="M243.24,-898.87C236.59,-895.17 223.75,-887.16 216.5,-876.9 207.57,-864.25 201.15,-848.75 196.6,-834.2"/>
<polygon fill="black" stroke="black" points="200.02,-833.42 193.9,-824.78 193.29,-835.36 200.02,-833.42"/>
<text text-anchor="middle" x="245" y="-853.85" font-family="Times New Roman,serif" font-size="14.00">split1#231</text>
</g>
<!-- 183 -->
<g id="node23" class="node">
<title>183</title>
<polygon fill="yellow" stroke="black" points="388.75,-822.9 260.25,-822.9 260.25,-748.9 388.75,-748.9 388.75,-822.9"/>
<text text-anchor="middle" x="324.5" y="-805.6" font-family="Times New Roman,serif" font-size="14.00">self.month &lt;&gt; 4 and</text>
<text text-anchor="middle" x="324.5" y="-789.1" font-family="Times New Roman,serif" font-size="14.00">self.month &lt;&gt; 6 and</text>
<text text-anchor="middle" x="324.5" y="-772.6" font-family="Times New Roman,serif" font-size="14.00">self.month &lt;&gt; 9 and</text>
<text text-anchor="middle" x="324.5" y="-756.1" font-family="Times New Roman,serif" font-size="14.00">self.month &lt;&gt; 11</text>
<text text-anchor="middle" x="245.62" y="-826.1" font-family="Times New Roman,serif" font-size="14.00">[183]</text>
</g>
<!-- 199&#45;&gt;183 -->
<g id="edge14" class="edge">
<title>199&#45;&gt;183</title>
<path fill="none" stroke="black" d="M251.2,-898.27C256.56,-894.04 266.62,-885.61 273.5,-876.9 284.08,-863.5 293.84,-847.64 301.92,-833"/>
<polygon fill="black" stroke="black" points="304.87,-834.9 306.52,-824.43 298.71,-831.59 304.87,-834.9"/>
<text text-anchor="middle" x="325.58" y="-853.85" font-family="Times New Roman,serif" font-size="14.00">split2#232</text>
</g>
<!-- 202 -->
<g id="node8" class="node">
<title>202</title>
<polygon fill="aquamarine" stroke="black" points="252.5,-244.7 245.3,-237.5 252.5,-230.3 259.7,-237.5 252.5,-244.7"/>
<text text-anchor="middle" x="226.93" y="-247.9" font-family="Times New Roman,serif" font-size="14.00">&lt;202&gt;</text>
</g>
<!-- 200&#45;&gt;202 -->
<g id="edge22" class="edge">
<title>200&#45;&gt;202</title>
<path fill="none" stroke="black" d="M252.5,-296.94C252.5,-287.61 252.5,-270.01 252.5,-256.55"/>
<polygon fill="black" stroke="black" points="256,-256.84 252.5,-246.84 249,-256.84 256,-256.84"/>
<text text-anchor="middle" x="286.62" y="-265.9" font-family="Times New Roman,serif" font-size="14.00">merge2#242</text>
</g>
<!-- 201 -->
<g id="node7" class="node">
<title>201</title>
<polygon fill="aquamarine" stroke="black" points="204.5,-1171.7 197.3,-1164.5 204.5,-1157.3 211.7,-1164.5 204.5,-1171.7"/>
<text text-anchor="middle" x="178.93" y="-1174.9" font-family="Times New Roman,serif" font-size="14.00">&lt;201&gt;</text>
</g>
<!-- 168 -->
<g id="node18" class="node">
<title>168</title>
<polygon fill="yellow" stroke="black" points="161.88,-1085.3 43.12,-1085.3 43.12,-961.8 161.88,-961.8 161.88,-1085.3"/>
<text text-anchor="middle" x="102.5" y="-1068" font-family="Times New Roman,serif" font-size="14.00">self.month = 1 or</text>
<text text-anchor="middle" x="102.5" y="-1051.5" font-family="Times New Roman,serif" font-size="14.00">self.month = 3 or</text>
<text text-anchor="middle" x="102.5" y="-1035" font-family="Times New Roman,serif" font-size="14.00">self.month = 5 or</text>
<text text-anchor="middle" x="102.5" y="-1018.5" font-family="Times New Roman,serif" font-size="14.00">self.month = 7 or</text>
<text text-anchor="middle" x="102.5" y="-1002" font-family="Times New Roman,serif" font-size="14.00">self.month = 8 or</text>
<text text-anchor="middle" x="102.5" y="-985.5" font-family="Times New Roman,serif" font-size="14.00">self.month = 10 or</text>
<text text-anchor="middle" x="102.5" y="-969" font-family="Times New Roman,serif" font-size="14.00">self.month = 12</text>
<text text-anchor="middle" x="28.5" y="-1088.5" font-family="Times New Roman,serif" font-size="14.00">[168]</text>
</g>
<!-- 201&#45;&gt;168 -->
<g id="edge19" class="edge">
<title>201&#45;&gt;168</title>
<path fill="none" stroke="black" d="M199.09,-1162.4C188.57,-1160 165.2,-1153.35 151.5,-1139.3 139.59,-1127.09 130.37,-1111.53 123.31,-1095.84"/>
<polygon fill="black" stroke="black" points="126.67,-1094.8 119.57,-1086.94 120.22,-1097.52 126.67,-1094.8"/>
<text text-anchor="middle" x="180" y="-1116.25" font-family="Times New Roman,serif" font-size="14.00">split1#239</text>
</g>
<!-- 174 -->
<g id="node20" class="node">
<title>174</title>
<polygon fill="yellow" stroke="black" points="315.12,-1085.3 179.88,-1085.3 179.88,-961.8 315.12,-961.8 315.12,-1085.3"/>
<text text-anchor="middle" x="247.5" y="-1068" font-family="Times New Roman,serif" font-size="14.00">self.month &lt;&gt; 1 and</text>
<text text-anchor="middle" x="247.5" y="-1051.5" font-family="Times New Roman,serif" font-size="14.00">self.month &lt;&gt; 3 and</text>
<text text-anchor="middle" x="247.5" y="-1035" font-family="Times New Roman,serif" font-size="14.00">self.month &lt;&gt; 5 and</text>
<text text-anchor="middle" x="247.5" y="-1018.5" font-family="Times New Roman,serif" font-size="14.00">self.month &lt;&gt; 7 and</text>
<text text-anchor="middle" x="247.5" y="-1002" font-family="Times New Roman,serif" font-size="14.00">self.month &lt;&gt; 8 and</text>
<text text-anchor="middle" x="247.5" y="-985.5" font-family="Times New Roman,serif" font-size="14.00">self.month &lt;&gt; 10 and</text>
<text text-anchor="middle" x="247.5" y="-969" font-family="Times New Roman,serif" font-size="14.00">self.month &lt;&gt; 12</text>
<text text-anchor="middle" x="165.25" y="-1088.5" font-family="Times New Roman,serif" font-size="14.00">[174]</text>
</g>
<!-- 201&#45;&gt;174 -->
<g id="edge20" class="edge">
<title>201&#45;&gt;174</title>
<path fill="none" stroke="black" d="M206.03,-1158.55C209.28,-1148.06 217.23,-1122.37 225.31,-1096.26"/>
<polygon fill="black" stroke="black" points="228.58,-1097.52 228.19,-1086.93 221.89,-1095.45 228.58,-1097.52"/>
<text text-anchor="middle" x="250.65" y="-1116.25" font-family="Times New Roman,serif" font-size="14.00">split2#240</text>
</g>
<!-- 207 -->
<g id="node10" class="node">
<title>207</title>
<polygon fill="yellow" stroke="black" points="541,-177.8 456,-177.8 456,-141.8 541,-141.8 541,-177.8"/>
<text text-anchor="middle" x="498.5" y="-154.75" font-family="Times New Roman,serif" font-size="14.00">result = year</text>
<text text-anchor="middle" x="441.38" y="-181" font-family="Times New Roman,serif" font-size="14.00">[207]</text>
</g>
<!-- 202&#45;&gt;207 -->
<g id="edge25" class="edge">
<title>202&#45;&gt;207</title>
<path fill="none" stroke="black" d="M257.64,-234.92C281.31,-227.63 381.45,-196.82 444.91,-177.29"/>
<polygon fill="black" stroke="black" points="445.57,-180.75 454.09,-174.46 443.51,-174.06 445.57,-180.75"/>
<text text-anchor="middle" x="423.38" y="-199" font-family="Times New Roman,serif" font-size="14.00">graphAnd#250</text>
</g>
<!-- 204 -->
<g id="node9" class="node">
<title>204</title>
<polygon fill="yellow" stroke="black" points="379.75,-1479.7 29.25,-1479.7 29.25,-1389.2 379.75,-1389.2 379.75,-1479.7"/>
<text text-anchor="middle" x="204.5" y="-1462.4" font-family="Times New Roman,serif" font-size="14.00">self.year &gt;= 1 and</text>
<text text-anchor="middle" x="204.5" y="-1445.9" font-family="Times New Roman,serif" font-size="14.00">self.month &gt;= 1 and</text>
<text text-anchor="middle" x="204.5" y="-1429.4" font-family="Times New Roman,serif" font-size="14.00">self.month &lt;= 12 and</text>
<text text-anchor="middle" x="204.5" y="-1412.9" font-family="Times New Roman,serif" font-size="14.00">self.day &gt;= 1 and</text>
<text text-anchor="middle" x="204.5" y="-1396.4" font-family="Times New Roman,serif" font-size="14.00">IfExp ConditionNode:(468) thenNode: (472) elseNode: (525)</text>
<text text-anchor="middle" x="14.62" y="-1482.9" font-family="Times New Roman,serif" font-size="14.00">[204]</text>
</g>
<!-- 204&#45;&gt;201 -->
<g id="edge23" class="edge">
<title>204&#45;&gt;201</title>
<path fill="none" stroke="black" d="M204.5,-1388.9C204.5,-1329.14 204.5,-1225.7 204.5,-1183.85"/>
<polygon fill="black" stroke="black" points="208,-1183.88 204.5,-1173.88 201,-1183.88 208,-1183.88"/>
<text text-anchor="middle" x="245" y="-1192.9" font-family="Times New Roman,serif" font-size="14.00">graphAnd#246</text>
</g>
<!-- 213 -->
<g id="node14" class="node">
<title>213</title>
<polygon fill="aquamarine" stroke="black" points="545.5,-89.3 538.3,-82.1 545.5,-74.9 552.7,-82.1 545.5,-89.3"/>
<text text-anchor="middle" x="519.92" y="-92.5" font-family="Times New Roman,serif" font-size="14.00">&lt;213&gt;</text>
</g>
<!-- 207&#45;&gt;213 -->
<g id="edge1" class="edge">
<title>207&#45;&gt;213</title>
<path fill="none" stroke="black" d="M498.4,-141.76C499.1,-131.06 501.46,-117.43 508.25,-107.3 513.56,-99.39 522.41,-93.48 530.16,-89.48"/>
<polygon fill="black" stroke="black" points="531.38,-92.77 539.08,-85.49 528.52,-86.38 531.38,-92.77"/>
<text text-anchor="middle" x="542.38" y="-110.5" font-family="Times New Roman,serif" font-size="14.00">merge1#256</text>
</g>
<!-- 209 -->
<g id="node11" class="node">
<title>209</title>
<ellipse fill="black" stroke="black" cx="397.5" cy="-1882.3" rx="7.2" ry="7.2"/>
<text text-anchor="middle" x="382.43" y="-1892.7" font-family="Times New Roman,serif" font-size="14.00">[0]</text>
</g>
<!-- 210 -->
<g id="node12" class="node">
<title>210</title>
<polygon fill="yellow" stroke="black" points="453.5,-1838.1 341.5,-1838.1 341.5,-1764.1 453.5,-1764.1 453.5,-1838.1"/>
<text text-anchor="middle" x="397.5" y="-1820.8" font-family="Times New Roman,serif" font-size="14.00">year &gt;= 1 and</text>
<text text-anchor="middle" x="397.5" y="-1804.3" font-family="Times New Roman,serif" font-size="14.00">month &gt;= 1 and</text>
<text text-anchor="middle" x="397.5" y="-1787.8" font-family="Times New Roman,serif" font-size="14.00">month &lt;= 12 and</text>
<text text-anchor="middle" x="397.5" y="-1771.3" font-family="Times New Roman,serif" font-size="14.00">day &gt;= 1</text>
<text text-anchor="middle" x="326.88" y="-1841.3" font-family="Times New Roman,serif" font-size="14.00">[210]</text>
</g>
<!-- 209&#45;&gt;210 -->
<g id="edge26" class="edge">
<title>209&#45;&gt;210</title>
<path fill="none" stroke="black" d="M397.5,-1874.82C397.5,-1868.97 397.5,-1859.78 397.5,-1849.87"/>
<polygon fill="black" stroke="black" points="401,-1850.04 397.5,-1840.04 394,-1850.04 401,-1850.04"/>
</g>
<!-- 212 -->
<g id="node13" class="node">
<title>212</title>
<polygon fill="aquamarine" stroke="black" points="397.5,-1711.6 390.3,-1704.4 397.5,-1697.2 404.7,-1704.4 397.5,-1711.6"/>
<text text-anchor="middle" x="371.93" y="-1714.8" font-family="Times New Roman,serif" font-size="14.00">&lt;212&gt;</text>
</g>
<!-- 210&#45;&gt;212 -->
<g id="edge4" class="edge">
<title>210&#45;&gt;212</title>
<path fill="none" stroke="black" d="M397.5,-1763.76C397.5,-1749.96 397.5,-1734.84 397.5,-1723.45"/>
<polygon fill="black" stroke="black" points="401,-1723.61 397.5,-1713.61 394,-1723.61 401,-1723.61"/>
<text text-anchor="middle" x="438" y="-1732.8" font-family="Times New Roman,serif" font-size="14.00">graphAnd#259</text>
</g>
<!-- 212&#45;&gt;204 -->
<g id="edge27" class="edge">
<title>212&#45;&gt;204</title>
<path fill="none" stroke="black" d="M394.77,-1699.61C378.57,-1677.12 293.98,-1559.68 243.2,-1489.18"/>
<polygon fill="black" stroke="black" points="246.15,-1487.28 237.46,-1481.21 240.47,-1491.37 246.15,-1487.28"/>
<text text-anchor="middle" x="405.93" y="-1665.9" font-family="Times New Roman,serif" font-size="14.00">split1#254</text>
</g>
<!-- 162 -->
<g id="node15" class="node">
<title>162</title>
<polygon fill="yellow" stroke="black" points="783.38,-1644.7 397.62,-1644.7 397.62,-1224.2 783.38,-1224.2 783.38,-1644.7"/>
<text text-anchor="middle" x="590.5" y="-1627.4" font-family="Times New Roman,serif" font-size="14.00">self.year &lt; 1 and</text>
<text text-anchor="middle" x="590.5" y="-1610.9" font-family="Times New Roman,serif" font-size="14.00">self.month &gt;= 1 and</text>
<text text-anchor="middle" x="590.5" y="-1594.4" font-family="Times New Roman,serif" font-size="14.00">self.month &lt;= 12 and</text>
<text text-anchor="middle" x="590.5" y="-1577.9" font-family="Times New Roman,serif" font-size="14.00">self.day &gt;= 1 and</text>
<text text-anchor="middle" x="590.5" y="-1561.4" font-family="Times New Roman,serif" font-size="14.00">IfExp ConditionNode:(1504) thenNode: (1508) elseNode: (1561) or</text>
<text text-anchor="middle" x="590.5" y="-1544.9" font-family="Times New Roman,serif" font-size="14.00">self.year &gt;= 1 and</text>
<text text-anchor="middle" x="590.5" y="-1528.4" font-family="Times New Roman,serif" font-size="14.00">self.month &lt; 1 and</text>
<text text-anchor="middle" x="590.5" y="-1511.9" font-family="Times New Roman,serif" font-size="14.00">self.month &lt;= 12 and</text>
<text text-anchor="middle" x="590.5" y="-1495.4" font-family="Times New Roman,serif" font-size="14.00">self.day &gt;= 1 and</text>
<text text-anchor="middle" x="590.5" y="-1478.9" font-family="Times New Roman,serif" font-size="14.00">IfExp ConditionNode:(1616) thenNode: (1620) elseNode: (1673) or</text>
<text text-anchor="middle" x="590.5" y="-1462.4" font-family="Times New Roman,serif" font-size="14.00">self.year &gt;= 1 and</text>
<text text-anchor="middle" x="590.5" y="-1445.9" font-family="Times New Roman,serif" font-size="14.00">self.month &gt;= 1 and</text>
<text text-anchor="middle" x="590.5" y="-1429.4" font-family="Times New Roman,serif" font-size="14.00">self.month &gt; 12 and</text>
<text text-anchor="middle" x="590.5" y="-1412.9" font-family="Times New Roman,serif" font-size="14.00">self.day &gt;= 1 and</text>
<text text-anchor="middle" x="590.5" y="-1396.4" font-family="Times New Roman,serif" font-size="14.00">IfExp ConditionNode:(1728) thenNode: (1732) elseNode: (1785) or</text>
<text text-anchor="middle" x="590.5" y="-1379.9" font-family="Times New Roman,serif" font-size="14.00">self.year &gt;= 1 and</text>
<text text-anchor="middle" x="590.5" y="-1363.4" font-family="Times New Roman,serif" font-size="14.00">self.month &gt;= 1 and</text>
<text text-anchor="middle" x="590.5" y="-1346.9" font-family="Times New Roman,serif" font-size="14.00">self.month &lt;= 12 and</text>
<text text-anchor="middle" x="590.5" y="-1330.4" font-family="Times New Roman,serif" font-size="14.00">self.day &lt; 1 and</text>
<text text-anchor="middle" x="590.5" y="-1313.9" font-family="Times New Roman,serif" font-size="14.00">IfExp ConditionNode:(1840) thenNode: (1844) elseNode: (1897) or</text>
<text text-anchor="middle" x="590.5" y="-1297.4" font-family="Times New Roman,serif" font-size="14.00">self.year &gt;= 1 and</text>
<text text-anchor="middle" x="590.5" y="-1280.9" font-family="Times New Roman,serif" font-size="14.00">self.month &gt;= 1 and</text>
<text text-anchor="middle" x="590.5" y="-1264.4" font-family="Times New Roman,serif" font-size="14.00">self.month &lt;= 12 and</text>
<text text-anchor="middle" x="590.5" y="-1247.9" font-family="Times New Roman,serif" font-size="14.00">self.day &gt;= 1 and</text>
<text text-anchor="middle" x="590.5" y="-1231.4" font-family="Times New Roman,serif" font-size="14.00">IfExp ConditionNode:(2096) thenNode: (1956) elseNode: (2062)</text>
<text text-anchor="middle" x="383" y="-1647.9" font-family="Times New Roman,serif" font-size="14.00">[162]</text>
</g>
<!-- 212&#45;&gt;162 -->
<g id="edge28" class="edge">
<title>212&#45;&gt;162</title>
<path fill="none" stroke="black" d="M402.29,-1701.48C410.48,-1698.02 427.38,-1690.05 438.5,-1679.2 446.75,-1671.15 454.75,-1662.57 462.47,-1653.61"/>
<polygon fill="black" stroke="black" points="465.06,-1655.98 468.82,-1646.07 459.7,-1651.47 465.06,-1655.98"/>
<text text-anchor="middle" x="477.81" y="-1665.9" font-family="Times New Roman,serif" font-size="14.00">split2#255</text>
</g>
<!-- 166 -->
<g id="node17" class="node">
<title>166</title>
<ellipse fill="black" stroke="black" cx="545.5" cy="-11.2" rx="7.2" ry="7.2"/>
<ellipse fill="none" stroke="black" cx="545.5" cy="-11.2" rx="11.2" ry="11.2"/>
<text text-anchor="middle" x="524.17" y="-25.6" font-family="Times New Roman,serif" font-size="14.00">[&#45;1]</text>
</g>
<!-- 213&#45;&gt;166 -->
<g id="edge3" class="edge">
<title>213&#45;&gt;166</title>
<path fill="none" stroke="black" d="M545.5,-74.24C545.5,-64.87 545.5,-47.63 545.5,-33.7"/>
<polygon fill="black" stroke="black" points="549,-34.11 545.5,-24.11 542,-34.11 549,-34.11"/>
<text text-anchor="middle" x="594.62" y="-43.6" font-family="Times New Roman,serif" font-size="14.00">graphOr_end#258</text>
</g>
<!-- 165 -->
<g id="node16" class="node">
<title>165</title>
<polygon fill="yellow" stroke="black" points="680.25,-1139.3 500.75,-1139.3 500.75,-1103.3 680.25,-1103.3 680.25,-1139.3"/>
<text text-anchor="middle" x="590.5" y="-1116.25" font-family="Times New Roman,serif" font-size="14.00">Result = &#39;DateErrorException&#39;</text>
<text text-anchor="middle" x="486.12" y="-1142.5" font-family="Times New Roman,serif" font-size="14.00">[165]</text>
</g>
<!-- 162&#45;&gt;165 -->
<g id="edge24" class="edge">
<title>162&#45;&gt;165</title>
<path fill="none" stroke="black" d="M590.5,-1223.75C590.5,-1195.13 590.5,-1169.31 590.5,-1150.87"/>
<polygon fill="black" stroke="black" points="594,-1151.13 590.5,-1141.13 587,-1151.13 594,-1151.13"/>
<text text-anchor="middle" x="631" y="-1192.9" font-family="Times New Roman,serif" font-size="14.00">graphAnd#249</text>
</g>
<!-- 165&#45;&gt;213 -->
<g id="edge2" class="edge">
<title>165&#45;&gt;213</title>
<path fill="none" stroke="black" d="M590.5,-1102.82C590.5,-1070.16 590.5,-997.64 590.5,-936.55 590.5,-936.55 590.5,-936.55 590.5,-158.8 590.5,-135.08 589.63,-127.05 576.5,-107.3 572.15,-100.76 565.46,-95.21 559.4,-91.09"/>
<polygon fill="black" stroke="black" points="561.49,-88.26 551.12,-86.07 557.86,-94.25 561.49,-88.26"/>
<text text-anchor="middle" x="624.62" y="-488.2" font-family="Times New Roman,serif" font-size="14.00">merge2#257</text>
</g>
<!-- 171 -->
<g id="node19" class="node">
<title>171</title>
<polygon fill="yellow" stroke="black" points="150.62,-876.9 54.38,-876.9 54.38,-840.9 150.62,-840.9 150.62,-876.9"/>
<text text-anchor="middle" x="102.5" y="-853.85" font-family="Times New Roman,serif" font-size="14.00">self.day &lt;= 31</text>
<text text-anchor="middle" x="39.75" y="-880.1" font-family="Times New Roman,serif" font-size="14.00">[171]</text>
</g>
<!-- 168&#45;&gt;171 -->
<g id="edge17" class="edge">
<title>168&#45;&gt;171</title>
<path fill="none" stroke="black" d="M102.5,-961.52C102.5,-936.59 102.5,-908.94 102.5,-888.78"/>
<polygon fill="black" stroke="black" points="106,-888.8 102.5,-878.8 99,-888.8 106,-888.8"/>
<text text-anchor="middle" x="143" y="-930.5" font-family="Times New Roman,serif" font-size="14.00">graphAnd#236</text>
</g>
<!-- 171&#45;&gt;202 -->
<g id="edge21" class="edge">
<title>171&#45;&gt;202</title>
<path fill="none" stroke="black" d="M102.5,-840.52C102.5,-814.93 102.5,-765.6 102.5,-723.65 102.5,-723.65 102.5,-723.65 102.5,-303.4 102.5,-246.55 194.37,-238.93 234.32,-238.31"/>
<polygon fill="black" stroke="black" points="234.15,-241.81 244.15,-238.3 234.15,-234.81 234.15,-241.81"/>
<text text-anchor="middle" x="136.62" y="-488.2" font-family="Times New Roman,serif" font-size="14.00">merge1#241</text>
</g>
<!-- 174&#45;&gt;199 -->
<g id="edge18" class="edge">
<title>174&#45;&gt;199</title>
<path fill="none" stroke="black" d="M247.5,-961.43C247.5,-946.73 247.5,-932.16 247.5,-921.25"/>
<polygon fill="black" stroke="black" points="251,-921.52 247.5,-911.52 244,-921.52 251,-921.52"/>
<text text-anchor="middle" x="288" y="-930.5" font-family="Times New Roman,serif" font-size="14.00">graphAnd#237</text>
</g>
<!-- 180 -->
<g id="node22" class="node">
<title>180</title>
<polygon fill="yellow" stroke="black" points="234.62,-664 138.38,-664 138.38,-628 234.62,-628 234.62,-664"/>
<text text-anchor="middle" x="186.5" y="-640.95" font-family="Times New Roman,serif" font-size="14.00">self.day &lt;= 30</text>
<text text-anchor="middle" x="123.75" y="-667.2" font-family="Times New Roman,serif" font-size="14.00">[180]</text>
</g>
<!-- 177&#45;&gt;180 -->
<g id="edge11" class="edge">
<title>177&#45;&gt;180</title>
<path fill="none" stroke="black" d="M186.5,-748.67C186.5,-725.85 186.5,-696.82 186.5,-675.62"/>
<polygon fill="black" stroke="black" points="190,-675.67 186.5,-665.67 183,-675.67 190,-675.67"/>
<text text-anchor="middle" x="227" y="-717.6" font-family="Times New Roman,serif" font-size="14.00">graphAnd#228</text>
</g>
<!-- 180&#45;&gt;200 -->
<g id="edge15" class="edge">
<title>180&#45;&gt;200</title>
<path fill="none" stroke="black" d="M186.31,-627.82C186.02,-599.83 185.5,-542.67 185.5,-494.25 185.5,-494.25 185.5,-494.25 185.5,-370.3 185.5,-341.6 217.61,-321.53 237.37,-311.9"/>
<polygon fill="black" stroke="black" points="238.61,-315.18 246.3,-307.89 235.74,-308.8 238.61,-315.18"/>
<text text-anchor="middle" x="219.62" y="-443.95" font-family="Times New Roman,serif" font-size="14.00">merge1#233</text>
</g>
<!-- 183&#45;&gt;197 -->
<g id="edge12" class="edge">
<title>183&#45;&gt;197</title>
<path fill="none" stroke="black" d="M324.5,-748.56C324.5,-734.76 324.5,-719.64 324.5,-708.25"/>
<polygon fill="black" stroke="black" points="328,-708.41 324.5,-698.41 321,-708.41 328,-708.41"/>
<text text-anchor="middle" x="365" y="-717.6" font-family="Times New Roman,serif" font-size="14.00">graphAnd#229</text>
</g>
<!-- 189 -->
<g id="node25" class="node">
<title>189</title>
<polygon fill="yellow" stroke="black" points="494.62,-467 398.38,-467 398.38,-431 494.62,-431 494.62,-467"/>
<text text-anchor="middle" x="446.5" y="-443.95" font-family="Times New Roman,serif" font-size="14.00">self.day &lt;= 29</text>
<text text-anchor="middle" x="383.75" y="-470.2" font-family="Times New Roman,serif" font-size="14.00">[189]</text>
</g>
<!-- 186&#45;&gt;189 -->
<g id="edge5" class="edge">
<title>186&#45;&gt;189</title>
<path fill="none" stroke="black" d="M474.35,-535.63C468.63,-518.04 461.29,-495.46 455.58,-477.91"/>
<polygon fill="black" stroke="black" points="458.98,-477.07 452.56,-468.64 452.33,-479.23 458.98,-477.07"/>
<text text-anchor="middle" x="503.28" y="-488.2" font-family="Times New Roman,serif" font-size="14.00">graphAnd#220</text>
</g>
<!-- 189&#45;&gt;198 -->
<g id="edge9" class="edge">
<title>189&#45;&gt;198</title>
<path fill="none" stroke="black" d="M431.64,-430.67C421.34,-419.59 406.77,-405.62 391.5,-396.5 373.99,-386.04 351.35,-379.39 336.18,-375.76"/>
<polygon fill="black" stroke="black" points="337.07,-372.37 326.56,-373.65 335.58,-379.21 337.07,-372.37"/>
<text text-anchor="middle" x="447.13" y="-399.7" font-family="Times New Roman,serif" font-size="14.00">merge1#225</text>
</g>
</g>
</svg>
