<?xml version="1.0" encoding="UTF-8" standalone="no"?>
<!DOCTYPE svg PUBLIC "-//W3C//DTD SVG 1.1//EN"
 "http://www.w3.org/Graphics/SVG/1.1/DTD/svg11.dtd">
<!-- Generated by graphviz version 12.2.1 (20241206.2353)
 -->
<!-- Title: CLG Pages: 1 -->
<svg width="163pt" height="525pt"
 viewBox="0.00 0.00 162.62 525.30" xmlns="http://www.w3.org/2000/svg" xmlns:xlink="http://www.w3.org/1999/xlink">
<g id="graph0" class="graph" transform="scale(1 1) rotate(0) translate(4 521.3)">
<title>CLG</title>
<polygon fill="white" stroke="none" points="-4,4 -4,-521.3 158.62,-521.3 158.62,4 -4,4"/>
<!-- 497 -->
<g id="node1" class="node">
<title>497</title>
<polygon fill="yellow" stroke="black" points="106.75,-183.9 40.5,-183.9 40.5,-147.9 106.75,-147.9 106.75,-183.9"/>
<text text-anchor="middle" x="73.62" y="-160.85" font-family="Times New Roman,serif" font-size="14.00">day &gt;= 1</text>
<text text-anchor="middle" x="25.88" y="-187.1" font-family="Times New Roman,serif" font-size="14.00">[497]</text>
</g>
<!-- 485 -->
<g id="node2" class="node">
<title>485</title>
<polygon fill="yellow" stroke="black" points="116.12,-95.4 31.12,-95.4 31.12,-59.4 116.12,-59.4 116.12,-95.4"/>
<text text-anchor="middle" x="73.62" y="-72.35" font-family="Times New Roman,serif" font-size="14.00">result = year</text>
<text text-anchor="middle" x="16.5" y="-98.6" font-family="Times New Roman,serif" font-size="14.00">[485]</text>
</g>
<!-- 497&#45;&gt;485 -->
<g id="edge6" class="edge">
<title>497&#45;&gt;485</title>
<path fill="none" stroke="black" d="M73.62,-147.81C73.62,-136.16 73.62,-120.45 73.62,-106.92"/>
<polygon fill="black" stroke="black" points="77.13,-107.26 73.63,-97.26 70.13,-107.26 77.13,-107.26"/>
<text text-anchor="middle" x="114.12" y="-116.6" font-family="Times New Roman,serif" font-size="14.00">graphAnd#607</text>
</g>
<!-- 486 -->
<g id="node3" class="node">
<title>486</title>
<ellipse fill="black" stroke="black" cx="73.62" cy="-11.2" rx="7.2" ry="7.2"/>
<ellipse fill="none" stroke="black" cx="73.62" cy="-11.2" rx="11.2" ry="11.2"/>
<text text-anchor="middle" x="52.3" y="-25.6" font-family="Times New Roman,serif" font-size="14.00">[&#45;1]</text>
</g>
<!-- 485&#45;&gt;486 -->
<g id="edge1" class="edge">
<title>485&#45;&gt;486</title>
<path fill="none" stroke="black" d="M73.62,-59.2C73.62,-51.5 73.62,-42.34 73.62,-34.15"/>
<polygon fill="black" stroke="black" points="77.13,-34.32 73.63,-24.32 70.13,-34.32 77.13,-34.32"/>
</g>
<!-- 487 -->
<g id="node4" class="node">
<title>487</title>
<ellipse fill="black" stroke="black" cx="73.62" cy="-493.6" rx="7.2" ry="7.2"/>
<text text-anchor="middle" x="58.55" y="-504" font-family="Times New Roman,serif" font-size="14.00">[0]</text>
</g>
<!-- 488 -->
<g id="node5" class="node">
<title>488</title>
<polygon fill="yellow" stroke="black" points="108.62,-449.4 38.62,-449.4 38.62,-413.4 108.62,-413.4 108.62,-449.4"/>
<text text-anchor="middle" x="73.62" y="-426.35" font-family="Times New Roman,serif" font-size="14.00">year &gt;= 1</text>
<text text-anchor="middle" x="24" y="-452.6" font-family="Times New Roman,serif" font-size="14.00">[488]</text>
</g>
<!-- 487&#45;&gt;488 -->
<g id="edge2" class="edge">
<title>487&#45;&gt;488</title>
<path fill="none" stroke="black" d="M73.62,-486.16C73.62,-480.1 73.62,-470.59 73.62,-461.24"/>
<polygon fill="black" stroke="black" points="77.13,-461.28 73.63,-451.28 70.13,-461.28 77.13,-461.28"/>
</g>
<!-- 491 -->
<g id="node6" class="node">
<title>491</title>
<polygon fill="yellow" stroke="black" points="114.62,-360.9 32.62,-360.9 32.62,-324.9 114.62,-324.9 114.62,-360.9"/>
<text text-anchor="middle" x="73.62" y="-337.85" font-family="Times New Roman,serif" font-size="14.00">month &gt;= 1</text>
<text text-anchor="middle" x="18" y="-364.1" font-family="Times New Roman,serif" font-size="14.00">[491]</text>
</g>
<!-- 488&#45;&gt;491 -->
<g id="edge3" class="edge">
<title>488&#45;&gt;491</title>
<path fill="none" stroke="black" d="M73.62,-413.31C73.62,-401.66 73.62,-385.95 73.62,-372.42"/>
<polygon fill="black" stroke="black" points="77.13,-372.76 73.63,-362.76 70.13,-372.76 77.13,-372.76"/>
<text text-anchor="middle" x="114.12" y="-382.1" font-family="Times New Roman,serif" font-size="14.00">graphAnd#600</text>
</g>
<!-- 494 -->
<g id="node7" class="node">
<title>494</title>
<polygon fill="yellow" stroke="black" points="118,-272.4 29.25,-272.4 29.25,-236.4 118,-236.4 118,-272.4"/>
<text text-anchor="middle" x="73.62" y="-249.35" font-family="Times New Roman,serif" font-size="14.00">month &lt;= 12</text>
<text text-anchor="middle" x="14.62" y="-275.6" font-family="Times New Roman,serif" font-size="14.00">[494]</text>
</g>
<!-- 491&#45;&gt;494 -->
<g id="edge4" class="edge">
<title>491&#45;&gt;494</title>
<path fill="none" stroke="black" d="M73.62,-324.81C73.62,-313.16 73.62,-297.45 73.62,-283.92"/>
<polygon fill="black" stroke="black" points="77.13,-284.26 73.63,-274.26 70.13,-284.26 77.13,-284.26"/>
<text text-anchor="middle" x="114.12" y="-293.6" font-family="Times New Roman,serif" font-size="14.00">graphAnd#603</text>
</g>
<!-- 494&#45;&gt;497 -->
<g id="edge5" class="edge">
<title>494&#45;&gt;497</title>
<path fill="none" stroke="black" d="M73.62,-236.31C73.62,-224.66 73.62,-208.95 73.62,-195.42"/>
<polygon fill="black" stroke="black" points="77.13,-195.76 73.63,-185.76 70.13,-195.76 77.13,-195.76"/>
<text text-anchor="middle" x="114.12" y="-205.1" font-family="Times New Roman,serif" font-size="14.00">graphAnd#606</text>
</g>
</g>
</svg>
