<?xml version="1.0" encoding="UTF-8" standalone="no"?>
<!DOCTYPE svg PUBLIC "-//W3C//DTD SVG 1.1//EN"
 "http://www.w3.org/Graphics/SVG/1.1/DTD/svg11.dtd">
<!-- Generated by graphviz version 12.2.1 (20241206.2353)
 -->
<!-- Title: CLG Pages: 1 -->
<svg width="142pt" height="437pt"
 viewBox="0.00 0.00 142.38 436.80" xmlns="http://www.w3.org/2000/svg" xmlns:xlink="http://www.w3.org/1999/xlink">
<g id="graph0" class="graph" transform="scale(1 1) rotate(0) translate(4 432.8)">
<title>CLG</title>
<polygon fill="white" stroke="none" points="-4,4 -4,-432.8 138.38,-432.8 138.38,4 -4,4"/>
<!-- 0 -->
<g id="node1" class="node">
<title>0</title>
<ellipse fill="black" stroke="black" cx="60.12" cy="-405.1" rx="7.2" ry="7.2"/>
<text text-anchor="middle" x="45.05" y="-415.5" font-family="Times New Roman,serif" font-size="14.00">[0]</text>
</g>
<!-- 1 -->
<g id="node2" class="node">
<title>1</title>
<polygon fill="yellow" stroke="black" points="95.12,-360.9 25.12,-360.9 25.12,-324.9 95.12,-324.9 95.12,-360.9"/>
<text text-anchor="middle" x="60.12" y="-337.85" font-family="Times New Roman,serif" font-size="14.00">year &gt;= 1</text>
<text text-anchor="middle" x="17.25" y="-364.1" font-family="Times New Roman,serif" font-size="14.00">[1]</text>
</g>
<!-- 0&#45;&gt;1 -->
<g id="edge1" class="edge">
<title>0&#45;&gt;1</title>
<path fill="none" stroke="black" d="M60.12,-397.66C60.12,-391.6 60.12,-382.09 60.12,-372.74"/>
<polygon fill="black" stroke="black" points="63.63,-372.78 60.13,-362.78 56.63,-372.78 63.63,-372.78"/>
</g>
<!-- 4 -->
<g id="node3" class="node">
<title>4</title>
<polygon fill="yellow" stroke="black" points="101.12,-272.4 19.12,-272.4 19.12,-236.4 101.12,-236.4 101.12,-272.4"/>
<text text-anchor="middle" x="60.12" y="-249.35" font-family="Times New Roman,serif" font-size="14.00">month &gt;= 1</text>
<text text-anchor="middle" x="11.25" y="-275.6" font-family="Times New Roman,serif" font-size="14.00">[4]</text>
</g>
<!-- 1&#45;&gt;4 -->
<g id="edge2" class="edge">
<title>1&#45;&gt;4</title>
<path fill="none" stroke="black" d="M60.12,-324.81C60.12,-313.16 60.12,-297.45 60.12,-283.92"/>
<polygon fill="black" stroke="black" points="63.63,-284.26 60.13,-274.26 56.63,-284.26 63.63,-284.26"/>
<text text-anchor="middle" x="93.88" y="-293.6" font-family="Times New Roman,serif" font-size="14.00">graphAnd#4</text>
</g>
<!-- 7 -->
<g id="node4" class="node">
<title>7</title>
<polygon fill="yellow" stroke="black" points="104.5,-183.9 15.75,-183.9 15.75,-147.9 104.5,-147.9 104.5,-183.9"/>
<text text-anchor="middle" x="60.12" y="-160.85" font-family="Times New Roman,serif" font-size="14.00">month &lt;= 12</text>
<text text-anchor="middle" x="7.88" y="-187.1" font-family="Times New Roman,serif" font-size="14.00">[7]</text>
</g>
<!-- 4&#45;&gt;7 -->
<g id="edge3" class="edge">
<title>4&#45;&gt;7</title>
<path fill="none" stroke="black" d="M60.12,-236.31C60.12,-224.66 60.12,-208.95 60.12,-195.42"/>
<polygon fill="black" stroke="black" points="63.63,-195.76 60.13,-185.76 56.63,-195.76 63.63,-195.76"/>
<text text-anchor="middle" x="93.88" y="-205.1" font-family="Times New Roman,serif" font-size="14.00">graphAnd#7</text>
</g>
<!-- 10 -->
<g id="node5" class="node">
<title>10</title>
<polygon fill="yellow" stroke="black" points="93.25,-95.4 27,-95.4 27,-59.4 93.25,-59.4 93.25,-95.4"/>
<text text-anchor="middle" x="60.12" y="-72.35" font-family="Times New Roman,serif" font-size="14.00">day &gt;= 1</text>
<text text-anchor="middle" x="15.75" y="-98.6" font-family="Times New Roman,serif" font-size="14.00">[10]</text>
</g>
<!-- 7&#45;&gt;10 -->
<g id="edge5" class="edge">
<title>7&#45;&gt;10</title>
<path fill="none" stroke="black" d="M60.12,-147.81C60.12,-136.16 60.12,-120.45 60.12,-106.92"/>
<polygon fill="black" stroke="black" points="63.63,-107.26 60.13,-97.26 56.63,-107.26 63.63,-107.26"/>
<text text-anchor="middle" x="97.25" y="-116.6" font-family="Times New Roman,serif" font-size="14.00">graphAnd#10</text>
</g>
<!-- 11 -->
<g id="node6" class="node">
<title>11</title>
<ellipse fill="black" stroke="black" cx="60.12" cy="-11.2" rx="7.2" ry="7.2"/>
<ellipse fill="none" stroke="black" cx="60.12" cy="-11.2" rx="11.2" ry="11.2"/>
<text text-anchor="middle" x="38.8" y="-25.6" font-family="Times New Roman,serif" font-size="14.00">[&#45;1]</text>
</g>
<!-- 10&#45;&gt;11 -->
<g id="edge4" class="edge">
<title>10&#45;&gt;11</title>
<path fill="none" stroke="black" d="M60.12,-59.2C60.12,-51.5 60.12,-42.34 60.12,-34.15"/>
<polygon fill="black" stroke="black" points="63.63,-34.32 60.13,-24.32 56.63,-34.32 63.63,-34.32"/>
</g>
</g>
</svg>
