<?xml version="1.0" encoding="UTF-8" standalone="no"?>
<!DOCTYPE svg PUBLIC "-//W3C//DTD SVG 1.1//EN"
 "http://www.w3.org/Graphics/SVG/1.1/DTD/svg11.dtd">
<!-- Generated by graphviz version 12.2.1 (20241206.2353)
 -->
<!-- Title: CLG Pages: 1 -->
<svg width="584pt" height="1561pt"
 viewBox="0.00 0.00 584.38 1560.50" xmlns="http://www.w3.org/2000/svg" xmlns:xlink="http://www.w3.org/1999/xlink">
<g id="graph0" class="graph" transform="scale(1 1) rotate(0) translate(4 1556.5)">
<title>CLG</title>
<polygon fill="white" stroke="none" points="-4,4 -4,-1556.5 580.38,-1556.5 580.38,4 -4,4"/>
<!-- 4 -->
<g id="node1" class="node">
<title>4</title>
<polygon fill="yellow" stroke="black" points="116.5,-1402.2 28.5,-1402.2 28.5,-1212.7 116.5,-1212.7 116.5,-1402.2"/>
<text text-anchor="middle" x="72.5" y="-1384.9" font-family="Times New Roman,serif" font-size="14.00">y &lt; 1 or</text>
<text text-anchor="middle" x="72.5" y="-1368.4" font-family="Times New Roman,serif" font-size="14.00">m &lt; 1 or</text>
<text text-anchor="middle" x="72.5" y="-1351.9" font-family="Times New Roman,serif" font-size="14.00">m &gt; 12 or</text>
<text text-anchor="middle" x="72.5" y="-1335.4" font-family="Times New Roman,serif" font-size="14.00">d &lt; 1 or</text>
<text text-anchor="middle" x="72.5" y="-1318.9" font-family="Times New Roman,serif" font-size="14.00">m &lt;&gt; 1 and</text>
<text text-anchor="middle" x="72.5" y="-1302.4" font-family="Times New Roman,serif" font-size="14.00">m &lt;&gt; 3 and</text>
<text text-anchor="middle" x="72.5" y="-1285.9" font-family="Times New Roman,serif" font-size="14.00">m &lt;&gt; 5 and</text>
<text text-anchor="middle" x="72.5" y="-1269.4" font-family="Times New Roman,serif" font-size="14.00">m &lt;&gt; 7 and</text>
<text text-anchor="middle" x="72.5" y="-1252.9" font-family="Times New Roman,serif" font-size="14.00">m &lt;&gt; 8 and</text>
<text text-anchor="middle" x="72.5" y="-1236.4" font-family="Times New Roman,serif" font-size="14.00">m &lt;&gt; 10 and</text>
<text text-anchor="middle" x="72.5" y="-1219.9" font-family="Times New Roman,serif" font-size="14.00">m &lt;&gt; 12</text>
<text text-anchor="middle" x="20.62" y="-1405.4" font-family="Times New Roman,serif" font-size="14.00">[4]</text>
</g>
<!-- 7 -->
<g id="node2" class="node">
<title>7</title>
<polygon fill="yellow" stroke="black" points="195.25,-1127.8 15.75,-1127.8 15.75,-1091.8 195.25,-1091.8 195.25,-1127.8"/>
<text text-anchor="middle" x="105.5" y="-1104.75" font-family="Times New Roman,serif" font-size="14.00">Result = &#39;DateErrorException&#39;</text>
<text text-anchor="middle" x="7.88" y="-1131" font-family="Times New Roman,serif" font-size="14.00">[7]</text>
</g>
<!-- 4&#45;&gt;7 -->
<g id="edge21" class="edge">
<title>4&#45;&gt;7</title>
<path fill="none" stroke="black" d="M88.37,-1212.35C92.84,-1185.88 97.36,-1159.06 100.64,-1139.63"/>
<polygon fill="black" stroke="black" points="104.09,-1140.21 102.3,-1129.77 97.19,-1139.05 104.09,-1140.21"/>
<text text-anchor="middle" x="131.01" y="-1181.4" font-family="Times New Roman,serif" font-size="14.00">graphAnd#55</text>
</g>
<!-- 55 -->
<g id="node24" class="node">
<title>55</title>
<polygon fill="aquamarine" stroke="black" points="122.5,-89.3 115.3,-82.1 122.5,-74.9 129.7,-82.1 122.5,-89.3"/>
<text text-anchor="middle" x="100.3" y="-92.5" font-family="Times New Roman,serif" font-size="14.00">&lt;55&gt;</text>
</g>
<!-- 7&#45;&gt;55 -->
<g id="edge27" class="edge">
<title>7&#45;&gt;55</title>
<path fill="none" stroke="black" d="M105.66,-1091.32C105.94,-1058.66 106.5,-986.14 106.5,-925.05 106.5,-925.05 106.5,-925.05 106.5,-169.55 106.5,-144.62 113.01,-116.3 117.73,-99.08"/>
<polygon fill="black" stroke="black" points="121.07,-100.14 120.49,-89.56 114.34,-98.19 121.07,-100.14"/>
<text text-anchor="middle" x="137.25" y="-509.7" font-family="Times New Roman,serif" font-size="14.00">merge2#63</text>
</g>
<!-- 8 -->
<g id="node3" class="node">
<title>8</title>
<ellipse fill="black" stroke="black" cx="122.5" cy="-11.2" rx="7.2" ry="7.2"/>
<ellipse fill="none" stroke="black" cx="122.5" cy="-11.2" rx="11.2" ry="11.2"/>
<text text-anchor="middle" x="101.17" y="-25.6" font-family="Times New Roman,serif" font-size="14.00">[&#45;1]</text>
</g>
<!-- 10 -->
<g id="node4" class="node">
<title>10</title>
<polygon fill="yellow" stroke="black" points="238.25,-1073.8 166.75,-1073.8 166.75,-950.3 238.25,-950.3 238.25,-1073.8"/>
<text text-anchor="middle" x="202.5" y="-1056.5" font-family="Times New Roman,serif" font-size="14.00">m = 1 or</text>
<text text-anchor="middle" x="202.5" y="-1040" font-family="Times New Roman,serif" font-size="14.00">m = 3 or</text>
<text text-anchor="middle" x="202.5" y="-1023.5" font-family="Times New Roman,serif" font-size="14.00">m = 5 or</text>
<text text-anchor="middle" x="202.5" y="-1007" font-family="Times New Roman,serif" font-size="14.00">m = 7 or</text>
<text text-anchor="middle" x="202.5" y="-990.5" font-family="Times New Roman,serif" font-size="14.00">m = 8 or</text>
<text text-anchor="middle" x="202.5" y="-974" font-family="Times New Roman,serif" font-size="14.00">m = 10 or</text>
<text text-anchor="middle" x="202.5" y="-957.5" font-family="Times New Roman,serif" font-size="14.00">m = 12</text>
<text text-anchor="middle" x="155.5" y="-1077" font-family="Times New Roman,serif" font-size="14.00">[10]</text>
</g>
<!-- 13 -->
<g id="node5" class="node">
<title>13</title>
<polygon fill="yellow" stroke="black" points="229.62,-865.4 169.38,-865.4 169.38,-829.4 229.62,-829.4 229.62,-865.4"/>
<text text-anchor="middle" x="199.5" y="-842.35" font-family="Times New Roman,serif" font-size="14.00">d &lt;= 31</text>
<text text-anchor="middle" x="158.12" y="-868.6" font-family="Times New Roman,serif" font-size="14.00">[13]</text>
</g>
<!-- 10&#45;&gt;13 -->
<g id="edge14" class="edge">
<title>10&#45;&gt;13</title>
<path fill="none" stroke="black" d="M201.37,-950.02C200.91,-925.09 200.4,-897.44 200.03,-877.28"/>
<polygon fill="black" stroke="black" points="203.53,-877.24 199.85,-867.3 196.53,-877.37 203.53,-877.24"/>
<text text-anchor="middle" x="238.12" y="-919" font-family="Times New Roman,serif" font-size="14.00">graphAnd#42</text>
</g>
<!-- 44 -->
<g id="node19" class="node">
<title>44</title>
<polygon fill="aquamarine" stroke="black" points="198.5,-266.2 191.3,-259 198.5,-251.8 205.7,-259 198.5,-266.2"/>
<text text-anchor="middle" x="176.3" y="-269.4" font-family="Times New Roman,serif" font-size="14.00">&lt;44&gt;</text>
</g>
<!-- 13&#45;&gt;44 -->
<g id="edge18" class="edge">
<title>13&#45;&gt;44</title>
<path fill="none" stroke="black" d="M199.29,-829.02C198.99,-803.43 198.5,-754.1 198.5,-712.15 198.5,-712.15 198.5,-712.15 198.5,-324.9 198.5,-309.18 198.5,-291.31 198.5,-278.31"/>
<polygon fill="black" stroke="black" points="202,-278.33 198.5,-268.33 195,-278.33 202,-278.33"/>
<text text-anchor="middle" x="229.25" y="-509.7" font-family="Times New Roman,serif" font-size="14.00">merge1#47</text>
</g>
<!-- 16 -->
<g id="node6" class="node">
<title>16</title>
<polygon fill="yellow" stroke="black" points="344.5,-1073.8 256.5,-1073.8 256.5,-950.3 344.5,-950.3 344.5,-1073.8"/>
<text text-anchor="middle" x="300.5" y="-1056.5" font-family="Times New Roman,serif" font-size="14.00">m &lt;&gt; 1 and</text>
<text text-anchor="middle" x="300.5" y="-1040" font-family="Times New Roman,serif" font-size="14.00">m &lt;&gt; 3 and</text>
<text text-anchor="middle" x="300.5" y="-1023.5" font-family="Times New Roman,serif" font-size="14.00">m &lt;&gt; 5 and</text>
<text text-anchor="middle" x="300.5" y="-1007" font-family="Times New Roman,serif" font-size="14.00">m &lt;&gt; 7 and</text>
<text text-anchor="middle" x="300.5" y="-990.5" font-family="Times New Roman,serif" font-size="14.00">m &lt;&gt; 8 and</text>
<text text-anchor="middle" x="300.5" y="-974" font-family="Times New Roman,serif" font-size="14.00">m &lt;&gt; 10 and</text>
<text text-anchor="middle" x="300.5" y="-957.5" font-family="Times New Roman,serif" font-size="14.00">m &lt;&gt; 12</text>
<text text-anchor="middle" x="245.25" y="-1077" font-family="Times New Roman,serif" font-size="14.00">[16]</text>
</g>
<!-- 41 -->
<g id="node16" class="node">
<title>41</title>
<polygon fill="aquamarine" stroke="black" points="300.5,-897.8 293.3,-890.6 300.5,-883.4 307.7,-890.6 300.5,-897.8"/>
<text text-anchor="middle" x="278.3" y="-901" font-family="Times New Roman,serif" font-size="14.00">&lt;41&gt;</text>
</g>
<!-- 16&#45;&gt;41 -->
<g id="edge15" class="edge">
<title>16&#45;&gt;41</title>
<path fill="none" stroke="black" d="M300.5,-949.93C300.5,-935.23 300.5,-920.66 300.5,-909.75"/>
<polygon fill="black" stroke="black" points="304,-910.02 300.5,-900.02 297,-910.02 304,-910.02"/>
<text text-anchor="middle" x="337.62" y="-919" font-family="Times New Roman,serif" font-size="14.00">graphAnd#43</text>
</g>
<!-- 19 -->
<g id="node7" class="node">
<title>19</title>
<polygon fill="yellow" stroke="black" points="309.88,-811.4 245.12,-811.4 245.12,-737.4 309.88,-737.4 309.88,-811.4"/>
<text text-anchor="middle" x="277.5" y="-794.1" font-family="Times New Roman,serif" font-size="14.00">m = 4 or</text>
<text text-anchor="middle" x="277.5" y="-777.6" font-family="Times New Roman,serif" font-size="14.00">m = 6 or</text>
<text text-anchor="middle" x="277.5" y="-761.1" font-family="Times New Roman,serif" font-size="14.00">m = 9 or</text>
<text text-anchor="middle" x="277.5" y="-744.6" font-family="Times New Roman,serif" font-size="14.00">m = 11</text>
<text text-anchor="middle" x="233.88" y="-814.6" font-family="Times New Roman,serif" font-size="14.00">[19]</text>
</g>
<!-- 22 -->
<g id="node8" class="node">
<title>22</title>
<polygon fill="yellow" stroke="black" points="305.62,-652.5 245.38,-652.5 245.38,-616.5 305.62,-616.5 305.62,-652.5"/>
<text text-anchor="middle" x="275.5" y="-629.45" font-family="Times New Roman,serif" font-size="14.00">d &lt;= 30</text>
<text text-anchor="middle" x="234.12" y="-655.7" font-family="Times New Roman,serif" font-size="14.00">[22]</text>
</g>
<!-- 19&#45;&gt;22 -->
<g id="edge8" class="edge">
<title>19&#45;&gt;22</title>
<path fill="none" stroke="black" d="M276.97,-737.17C276.64,-714.35 276.22,-685.32 275.92,-664.12"/>
<polygon fill="black" stroke="black" points="279.42,-664.12 275.77,-654.17 272.42,-664.22 279.42,-664.12"/>
<text text-anchor="middle" x="313.84" y="-706.1" font-family="Times New Roman,serif" font-size="14.00">graphAnd#34</text>
</g>
<!-- 42 -->
<g id="node17" class="node">
<title>42</title>
<polygon fill="aquamarine" stroke="black" points="275.5,-333.1 268.3,-325.9 275.5,-318.7 282.7,-325.9 275.5,-333.1"/>
<text text-anchor="middle" x="253.3" y="-336.3" font-family="Times New Roman,serif" font-size="14.00">&lt;42&gt;</text>
</g>
<!-- 22&#45;&gt;42 -->
<g id="edge12" class="edge">
<title>22&#45;&gt;42</title>
<path fill="none" stroke="black" d="M275.5,-616.34C275.5,-593.41 275.5,-551.52 275.5,-515.75 275.5,-515.75 275.5,-515.75 275.5,-391.8 275.5,-376.08 275.5,-358.21 275.5,-345.21"/>
<polygon fill="black" stroke="black" points="279,-345.23 275.5,-335.23 272,-345.23 279,-345.23"/>
<text text-anchor="middle" x="306.25" y="-465.45" font-family="Times New Roman,serif" font-size="14.00">merge1#39</text>
</g>
<!-- 25 -->
<g id="node9" class="node">
<title>25</title>
<polygon fill="yellow" stroke="black" points="412.12,-811.4 330.88,-811.4 330.88,-737.4 412.12,-737.4 412.12,-811.4"/>
<text text-anchor="middle" x="371.5" y="-794.1" font-family="Times New Roman,serif" font-size="14.00">m &lt;&gt; 4 and</text>
<text text-anchor="middle" x="371.5" y="-777.6" font-family="Times New Roman,serif" font-size="14.00">m &lt;&gt; 6 and</text>
<text text-anchor="middle" x="371.5" y="-761.1" font-family="Times New Roman,serif" font-size="14.00">m &lt;&gt; 9 and</text>
<text text-anchor="middle" x="371.5" y="-744.6" font-family="Times New Roman,serif" font-size="14.00">m &lt;&gt; 11</text>
<text text-anchor="middle" x="319.62" y="-814.6" font-family="Times New Roman,serif" font-size="14.00">[25]</text>
</g>
<!-- 39 -->
<g id="node14" class="node">
<title>39</title>
<polygon fill="aquamarine" stroke="black" points="372.5,-684.9 365.3,-677.7 372.5,-670.5 379.7,-677.7 372.5,-684.9"/>
<text text-anchor="middle" x="350.3" y="-688.1" font-family="Times New Roman,serif" font-size="14.00">&lt;39&gt;</text>
</g>
<!-- 25&#45;&gt;39 -->
<g id="edge9" class="edge">
<title>25&#45;&gt;39</title>
<path fill="none" stroke="black" d="M371.88,-737.06C372.03,-723.26 372.19,-708.14 372.31,-696.75"/>
<polygon fill="black" stroke="black" points="375.81,-696.95 372.41,-686.91 368.81,-696.87 375.81,-696.95"/>
<text text-anchor="middle" x="409.36" y="-706.1" font-family="Times New Roman,serif" font-size="14.00">graphAnd#35</text>
</g>
<!-- 28 -->
<g id="node10" class="node">
<title>28</title>
<polygon fill="yellow" stroke="black" points="424.12,-598.5 306.88,-598.5 306.88,-541 424.12,-541 424.12,-598.5"/>
<text text-anchor="middle" x="365.5" y="-581.2" font-family="Times New Roman,serif" font-size="14.00">y.mod(400) = 0 or</text>
<text text-anchor="middle" x="365.5" y="-564.7" font-family="Times New Roman,serif" font-size="14.00">y.mod(4) = 0 and</text>
<text text-anchor="middle" x="365.5" y="-548.2" font-family="Times New Roman,serif" font-size="14.00">y.mod(100) &lt;&gt; 0</text>
<text text-anchor="middle" x="295.62" y="-601.7" font-family="Times New Roman,serif" font-size="14.00">[28]</text>
</g>
<!-- 31 -->
<g id="node11" class="node">
<title>31</title>
<polygon fill="yellow" stroke="black" points="415.62,-488.5 355.38,-488.5 355.38,-452.5 415.62,-452.5 415.62,-488.5"/>
<text text-anchor="middle" x="385.5" y="-465.45" font-family="Times New Roman,serif" font-size="14.00">d &lt;= 29</text>
<text text-anchor="middle" x="344.12" y="-491.7" font-family="Times New Roman,serif" font-size="14.00">[31]</text>
</g>
<!-- 28&#45;&gt;31 -->
<g id="edge2" class="edge">
<title>28&#45;&gt;31</title>
<path fill="none" stroke="black" d="M371.28,-540.62C373.92,-527.82 377.03,-512.7 379.66,-499.88"/>
<polygon fill="black" stroke="black" points="383.04,-500.85 381.62,-490.35 376.18,-499.44 383.04,-500.85"/>
<text text-anchor="middle" x="415" y="-509.7" font-family="Times New Roman,serif" font-size="14.00">graphAnd#26</text>
</g>
<!-- 40 -->
<g id="node15" class="node">
<title>40</title>
<polygon fill="aquamarine" stroke="black" points="385.5,-400 378.3,-392.8 385.5,-385.6 392.7,-392.8 385.5,-400"/>
<text text-anchor="middle" x="363.3" y="-403.2" font-family="Times New Roman,serif" font-size="14.00">&lt;40&gt;</text>
</g>
<!-- 31&#45;&gt;40 -->
<g id="edge6" class="edge">
<title>31&#45;&gt;40</title>
<path fill="none" stroke="black" d="M385.5,-452.32C385.5,-440.28 385.5,-424.2 385.5,-411.95"/>
<polygon fill="black" stroke="black" points="389,-412.04 385.5,-402.04 382,-412.04 389,-412.04"/>
<text text-anchor="middle" x="416.25" y="-421.2" font-family="Times New Roman,serif" font-size="14.00">merge1#31</text>
</g>
<!-- 34 -->
<g id="node12" class="node">
<title>34</title>
<polygon fill="yellow" stroke="black" points="576.38,-598.5 442.62,-598.5 442.62,-541 576.38,-541 576.38,-598.5"/>
<text text-anchor="middle" x="509.5" y="-581.2" font-family="Times New Roman,serif" font-size="14.00">y.mod(400) &lt;&gt; 0 and</text>
<text text-anchor="middle" x="509.5" y="-564.7" font-family="Times New Roman,serif" font-size="14.00">y.mod(4) &lt;&gt; 0 or</text>
<text text-anchor="middle" x="509.5" y="-548.2" font-family="Times New Roman,serif" font-size="14.00">y.mod(100) = 0</text>
<text text-anchor="middle" x="431.38" y="-601.7" font-family="Times New Roman,serif" font-size="14.00">[34]</text>
</g>
<!-- 37 -->
<g id="node13" class="node">
<title>37</title>
<polygon fill="yellow" stroke="black" points="509.62,-488.5 449.38,-488.5 449.38,-452.5 509.62,-452.5 509.62,-488.5"/>
<text text-anchor="middle" x="479.5" y="-465.45" font-family="Times New Roman,serif" font-size="14.00">d &lt;= 28</text>
<text text-anchor="middle" x="438.12" y="-491.7" font-family="Times New Roman,serif" font-size="14.00">[37]</text>
</g>
<!-- 34&#45;&gt;37 -->
<g id="edge3" class="edge">
<title>34&#45;&gt;37</title>
<path fill="none" stroke="black" d="M500.82,-540.62C496.83,-527.69 492.12,-512.4 488.13,-499.48"/>
<polygon fill="black" stroke="black" points="491.6,-498.84 485.3,-490.32 484.91,-500.9 491.6,-498.84"/>
<text text-anchor="middle" x="531.62" y="-509.7" font-family="Times New Roman,serif" font-size="14.00">graphAnd#27</text>
</g>
<!-- 37&#45;&gt;40 -->
<g id="edge7" class="edge">
<title>37&#45;&gt;40</title>
<path fill="none" stroke="black" d="M473.72,-452.12C469.22,-441.01 461.98,-427.04 451.5,-418 437.5,-405.91 416.93,-399.65 402.49,-396.56"/>
<polygon fill="black" stroke="black" points="403.26,-393.14 392.8,-394.8 402.02,-400.03 403.26,-393.14"/>
<text text-anchor="middle" x="495.37" y="-421.2" font-family="Times New Roman,serif" font-size="14.00">merge2#32</text>
</g>
<!-- 39&#45;&gt;28 -->
<g id="edge4" class="edge">
<title>39&#45;&gt;28</title>
<path fill="none" stroke="black" d="M372.08,-670.39C371.31,-658.63 369.58,-632.51 368.09,-609.96"/>
<polygon fill="black" stroke="black" points="371.59,-609.85 367.44,-600.1 364.61,-610.31 371.59,-609.85"/>
<text text-anchor="middle" x="395.93" y="-629.45" font-family="Times New Roman,serif" font-size="14.00">split1#29</text>
</g>
<!-- 39&#45;&gt;34 -->
<g id="edge5" class="edge">
<title>39&#45;&gt;34</title>
<path fill="none" stroke="black" d="M377.47,-675.08C387.22,-671.77 409.3,-663.58 425.5,-652.5 444.35,-639.6 462.81,-622.31 477.61,-606.94"/>
<polygon fill="black" stroke="black" points="480.08,-609.42 484.39,-599.75 474.98,-604.62 480.08,-609.42"/>
<text text-anchor="middle" x="492.26" y="-629.45" font-family="Times New Roman,serif" font-size="14.00">split2#30</text>
</g>
<!-- 40&#45;&gt;42 -->
<g id="edge13" class="edge">
<title>40&#45;&gt;42</title>
<path fill="none" stroke="black" d="M381.32,-389.34C366.28,-380.46 314.45,-349.88 289.35,-335.07"/>
<polygon fill="black" stroke="black" points="291.38,-332.2 280.99,-330.14 287.82,-338.23 291.38,-332.2"/>
<text text-anchor="middle" x="374.34" y="-354.3" font-family="Times New Roman,serif" font-size="14.00">merge2#40</text>
</g>
<!-- 41&#45;&gt;19 -->
<g id="edge10" class="edge">
<title>41&#45;&gt;19</title>
<path fill="none" stroke="black" d="M298.77,-884.45C297.17,-879.59 294.82,-872.06 293.25,-865.4 290,-851.65 287.1,-836.58 284.71,-822.76"/>
<polygon fill="black" stroke="black" points="288.18,-822.28 283.07,-813 281.28,-823.44 288.18,-822.28"/>
<text text-anchor="middle" x="318.38" y="-842.35" font-family="Times New Roman,serif" font-size="14.00">split1#37</text>
</g>
<!-- 41&#45;&gt;25 -->
<g id="edge11" class="edge">
<title>41&#45;&gt;25</title>
<path fill="none" stroke="black" d="M305.56,-888.13C314.54,-885.26 333.27,-878.06 343.5,-865.4 353.34,-853.23 359.73,-837.6 363.88,-822.78"/>
<polygon fill="black" stroke="black" points="367.26,-823.7 366.28,-813.15 360.47,-822.01 367.26,-823.7"/>
<text text-anchor="middle" x="386.29" y="-842.35" font-family="Times New Roman,serif" font-size="14.00">split2#38</text>
</g>
<!-- 42&#45;&gt;44 -->
<g id="edge19" class="edge">
<title>42&#45;&gt;44</title>
<path fill="none" stroke="black" d="M271.79,-321.77C260.89,-312.58 228.64,-285.41 210.77,-270.34"/>
<polygon fill="black" stroke="black" points="213.06,-267.69 203.16,-263.92 208.55,-273.05 213.06,-267.69"/>
<text text-anchor="middle" x="276.91" y="-287.4" font-family="Times New Roman,serif" font-size="14.00">merge2#48</text>
</g>
<!-- 43 -->
<g id="node18" class="node">
<title>43</title>
<polygon fill="aquamarine" stroke="black" points="300.5,-1160.2 293.3,-1153 300.5,-1145.8 307.7,-1153 300.5,-1160.2"/>
<text text-anchor="middle" x="278.3" y="-1163.4" font-family="Times New Roman,serif" font-size="14.00">&lt;43&gt;</text>
</g>
<!-- 43&#45;&gt;10 -->
<g id="edge16" class="edge">
<title>43&#45;&gt;10</title>
<path fill="none" stroke="black" d="M294.91,-1150.99C284.07,-1148.74 260,-1142.33 246.25,-1127.8 234.82,-1115.72 226.29,-1100.35 219.96,-1084.81"/>
<polygon fill="black" stroke="black" points="223.25,-1083.61 216.46,-1075.49 216.7,-1086.08 223.25,-1083.61"/>
<text text-anchor="middle" x="271.38" y="-1104.75" font-family="Times New Roman,serif" font-size="14.00">split1#45</text>
</g>
<!-- 43&#45;&gt;16 -->
<g id="edge17" class="edge">
<title>43&#45;&gt;16</title>
<path fill="none" stroke="black" d="M300.5,-1145.3C300.5,-1133.97 300.5,-1109.85 300.5,-1085.28"/>
<polygon fill="black" stroke="black" points="304,-1085.51 300.5,-1075.51 297,-1085.51 304,-1085.51"/>
<text text-anchor="middle" x="325.62" y="-1104.75" font-family="Times New Roman,serif" font-size="14.00">split2#46</text>
</g>
<!-- 49 -->
<g id="node22" class="node">
<title>49</title>
<polygon fill="yellow" stroke="black" points="240.25,-199.3 138.75,-199.3 138.75,-141.8 240.25,-141.8 240.25,-199.3"/>
<text text-anchor="middle" x="189.5" y="-182" font-family="Times New Roman,serif" font-size="14.00">year = y and</text>
<text text-anchor="middle" x="189.5" y="-165.5" font-family="Times New Roman,serif" font-size="14.00">month = m and</text>
<text text-anchor="middle" x="189.5" y="-149" font-family="Times New Roman,serif" font-size="14.00">day = d</text>
<text text-anchor="middle" x="127.5" y="-202.5" font-family="Times New Roman,serif" font-size="14.00">[49]</text>
</g>
<!-- 44&#45;&gt;49 -->
<g id="edge22" class="edge">
<title>44&#45;&gt;49</title>
<path fill="none" stroke="black" d="M197.85,-251.78C196.95,-243.12 195.24,-226.71 193.6,-210.98"/>
<polygon fill="black" stroke="black" points="197.11,-210.85 192.59,-201.27 190.15,-211.58 197.11,-210.85"/>
<text text-anchor="middle" x="232.97" y="-220.5" font-family="Times New Roman,serif" font-size="14.00">graphAnd#56</text>
</g>
<!-- 45 -->
<g id="node20" class="node">
<title>45</title>
<ellipse fill="black" stroke="black" cx="187.5" cy="-1528.8" rx="7.2" ry="7.2"/>
<text text-anchor="middle" x="172.43" y="-1539.2" font-family="Times New Roman,serif" font-size="14.00">[0]</text>
</g>
<!-- 54 -->
<g id="node23" class="node">
<title>54</title>
<polygon fill="aquamarine" stroke="black" points="187.5,-1469.1 180.3,-1461.9 187.5,-1454.7 194.7,-1461.9 187.5,-1469.1"/>
<text text-anchor="middle" x="165.3" y="-1472.3" font-family="Times New Roman,serif" font-size="14.00">&lt;54&gt;</text>
</g>
<!-- 45&#45;&gt;54 -->
<g id="edge23" class="edge">
<title>45&#45;&gt;54</title>
<path fill="none" stroke="black" d="M187.5,-1521.34C187.5,-1512.01 187.5,-1494.41 187.5,-1480.95"/>
<polygon fill="black" stroke="black" points="191,-1481.24 187.5,-1471.24 184,-1481.24 191,-1481.24"/>
<text text-anchor="middle" x="235.12" y="-1490.3" font-family="Times New Roman,serif" font-size="14.00">graphOr_start#59</text>
</g>
<!-- 46 -->
<g id="node21" class="node">
<title>46</title>
<polygon fill="yellow" stroke="black" points="472,-1352.7 135,-1352.7 135,-1262.2 472,-1262.2 472,-1352.7"/>
<text text-anchor="middle" x="303.5" y="-1335.4" font-family="Times New Roman,serif" font-size="14.00">y &gt;= 1 and</text>
<text text-anchor="middle" x="303.5" y="-1318.9" font-family="Times New Roman,serif" font-size="14.00">m &gt;= 1 and</text>
<text text-anchor="middle" x="303.5" y="-1302.4" font-family="Times New Roman,serif" font-size="14.00">m &lt;= 12 and</text>
<text text-anchor="middle" x="303.5" y="-1285.9" font-family="Times New Roman,serif" font-size="14.00">d &gt;= 1 and</text>
<text text-anchor="middle" x="303.5" y="-1269.4" font-family="Times New Roman,serif" font-size="14.00">IfExp ConditionNode:(63) thenNode: (66) elseNode: (109)</text>
<text text-anchor="middle" x="146.25" y="-1355.9" font-family="Times New Roman,serif" font-size="14.00">[46]</text>
</g>
<!-- 46&#45;&gt;43 -->
<g id="edge20" class="edge">
<title>46&#45;&gt;43</title>
<path fill="none" stroke="black" d="M302.62,-1261.95C302.03,-1231.96 301.29,-1194 300.85,-1172.01"/>
<polygon fill="black" stroke="black" points="304.36,-1172.04 300.66,-1162.11 297.36,-1172.18 304.36,-1172.04"/>
<text text-anchor="middle" x="338.35" y="-1181.4" font-family="Times New Roman,serif" font-size="14.00">graphAnd#52</text>
</g>
<!-- 49&#45;&gt;55 -->
<g id="edge26" class="edge">
<title>49&#45;&gt;55</title>
<path fill="none" stroke="black" d="M167.93,-141.72C155.98,-126.3 141.7,-107.88 132.38,-95.85"/>
<polygon fill="black" stroke="black" points="135.25,-93.84 126.36,-88.08 129.72,-98.13 135.25,-93.84"/>
<text text-anchor="middle" x="184.74" y="-110.5" font-family="Times New Roman,serif" font-size="14.00">merge1#62</text>
</g>
<!-- 54&#45;&gt;4 -->
<g id="edge25" class="edge">
<title>54&#45;&gt;4</title>
<path fill="none" stroke="black" d="M183.78,-1458.04C173.55,-1450.06 144.49,-1426.49 125.5,-1402.2 124.75,-1401.24 124.01,-1400.27 123.27,-1399.29"/>
<polygon fill="black" stroke="black" points="126.3,-1397.51 117.61,-1391.45 120.62,-1401.61 126.3,-1397.51"/>
<text text-anchor="middle" x="182.55" y="-1423.4" font-family="Times New Roman,serif" font-size="14.00">split2#61</text>
</g>
<!-- 54&#45;&gt;46 -->
<g id="edge24" class="edge">
<title>54&#45;&gt;46</title>
<path fill="none" stroke="black" d="M191.1,-1457.62C195.95,-1453.11 204.78,-1444.65 211.5,-1436.7 231.25,-1413.34 251.26,-1385.97 267.56,-1362.53"/>
<polygon fill="black" stroke="black" points="270.42,-1364.55 273.22,-1354.33 264.66,-1360.57 270.42,-1364.55"/>
<text text-anchor="middle" x="247.5" y="-1423.4" font-family="Times New Roman,serif" font-size="14.00">split1#60</text>
</g>
<!-- 55&#45;&gt;8 -->
<g id="edge1" class="edge">
<title>55&#45;&gt;8</title>
<path fill="none" stroke="black" d="M122.5,-74.24C122.5,-64.87 122.5,-47.63 122.5,-33.7"/>
<polygon fill="black" stroke="black" points="126,-34.11 122.5,-24.11 119,-34.11 126,-34.11"/>
<text text-anchor="middle" x="168.25" y="-43.6" font-family="Times New Roman,serif" font-size="14.00">graphOr_end#64</text>
</g>
</g>
</svg>
